<?xml version="1.0" standalone="no"?>
<svg viewBox="0 0 1024 768" version="1.1" xmlns="http://www.w3.org/2000/svg" xmlns:xlink="http://www.w3.org/1999/xlink" stroke-linecap="round" stroke-linejoin="round" fill-rule="evenodd" xml:space="preserve" >
<defs >
<clipPath id="clipId0" >
<path d="M0,768 1024,768 1024,0 0,0 z" />
</clipPath>
</defs>
<g clip-path="url(#clipId0)" fill="none" stroke="rgb(0,0,0)" stroke-width="0.1" />
<g clip-path="url(#clipId0)" fill="none" stroke="rgb(0,0,0)" stroke-width="0.5" >
<path d="M193.535,139.267  A40.7008,40.7008 0 0,0 193.535,206.13 " />
<path d="M193.535,206.13  A46.7644,46.7644 0 0,0 193.535,139.267 " />
<path d="M193.535,72.4031  A40.7008,40.7008 0 0,0 193.535,139.267 " />
<polyline points="762.725,206.13 193.535,206.13 " />
<polyline points="193.535,72.4031 762.725,72.4031 " />
<path d="M762.725,139.267  A40.7008,40.7008 0 0,0 762.725,72.4031 " />
<path d="M762.725,139.267  A46.7644,46.7644 0 0,0 762.725,206.13 " />
<path d="M762.725,206.13  A40.7008,40.7008 0 0,0 762.725,139.267 " />
<circle cx="478.13" cy="67.8238" r="4.57924" />
<circle cx="386.545" cy="67.8238" r="4.57924" />
<circle cx="294.96" cy="67.8238" r="4.57924" />
<circle cx="203.375" cy="67.8238" r="4.57924" />
<circle cx="752.884" cy="67.8238" r="4.57924" />
<circle cx="661.3" cy="67.8238" r="4.57924" />
<circle cx="569.715" cy="67.8238" r="4.57924" />
<circle cx="569.715" cy="210.709" r="4.57924" />
<circle cx="203.375" cy="210.709" r="4.57924" />
<circle cx="294.96" cy="210.709" r="4.57924" />
<circle cx="386.545" cy="210.709" r="4.57924" />
<circle cx="478.13" cy="210.709" r="4.57924" />
<circle cx="661.3" cy="210.709" r="4.57924" />
<circle cx="752.884" cy="210.709" r="4.57924" />
<polyline points="193.535,148.807 193.535,332.629 " />
<polyline points="762.725,148.807 762.725,332.629 " />
<polyline points="221.01,324.222 449.705,324.222 " />
<polyline points="735.25,324.222 506.555,324.222 " />
</g>
<g clip-path="url(#clipId0)" fill="rgb(0,0,0)" stroke="rgb(0,0,0)" stroke-width="0.5" >
<path d="M221.01,319.642 221.01,328.801 193.535,324.222 193.535,324.222 z" />
<path d="M735.25,319.642 735.25,328.801 762.725,324.222 762.725,324.222 z" />
</g>
<g clip-path="url(#clipId0)" fill="none" stroke="rgb(0,0,0)" stroke-width="0.5" >
<polyline points="458.654,312.773 458.654,335.67 471.738,335.67 " />
<polyline points="478.134,329.416 478.134,340.864 " />
<polyline points="478.134,329.416 485.221,329.416 " />
<polyline points="478.134,334.868 482.495,334.868 " />
<polyline points="487.946,329.416 487.946,340.864 " />
<polyline points="487.946,329.416 495.033,329.416 " />
<polyline points="487.946,334.868 492.307,334.868 " />
<polyline points="487.946,340.864 495.033,340.864 " />
<polyline points="324.276,180.333 324.276,191.781 " />
<polyline points="328.637,180.333 328.637,191.781 " />
<polyline points="328.637,180.333 336.269,191.781 " />
<polyline points="336.269,180.333 336.269,191.781 " />
<polyline points="340.63,180.333 340.63,191.781 " />
<polyline points="340.63,180.333 348.262,191.781 " />
<polyline points="348.262,180.333 348.262,191.781 " />
<polyline points="352.623,180.333 352.623,191.781 " />
<polyline points="352.623,180.333 359.71,180.333 " />
<polyline points="352.623,185.784 356.984,185.784 " />
<polyline points="352.623,191.781 359.71,191.781 " />
<polyline points="362.981,180.333 362.981,191.781 " />
<polyline points="362.981,180.333 367.887,180.333 369.523,180.878 370.068,181.423 370.613,182.514 370.613,183.604 370.068,184.694 369.523,185.239 367.887,185.784 362.981,185.784 " />
<polyline points="366.797,185.784 370.613,191.781 " />
<polyline points="385.877,180.333 385.877,191.781 392.419,191.781 " />
<polyline points="395.145,180.333 395.145,191.781 " />
<polyline points="399.506,180.333 399.506,191.781 " />
<polyline points="399.506,180.333 407.138,191.781 " />
<polyline points="407.138,180.333 407.138,191.781 " />
<polyline points="411.499,180.333 411.499,191.781 " />
<polyline points="411.499,180.333 418.586,180.333 " />
<polyline points="411.499,185.784 415.86,185.784 " />
<polyline points="411.499,191.781 418.586,191.781 " />
<polyline points="421.857,180.333 421.857,191.781 " />
<polyline points="421.857,180.333 426.763,180.333 428.399,180.878 428.944,181.423 429.489,182.514 429.489,183.604 428.944,184.694 428.399,185.239 426.763,185.784 421.857,185.784 " />
<polyline points="425.673,185.784 429.489,191.781 " />
<polyline points="447.479,180.333 446.389,180.878 445.298,181.968 444.753,183.059 444.208,184.694 444.208,187.42 444.753,189.055 445.298,190.146 446.389,191.236 447.479,191.781 449.66,191.781 450.75,191.236 451.84,190.146 452.385,189.055 452.93,187.42 452.93,184.694 452.385,183.059 451.84,181.968 450.75,180.878 449.66,180.333 447.479,180.333 " />
<polyline points="456.746,180.333 456.746,191.781 " />
<polyline points="456.746,180.333 463.833,180.333 " />
<polyline points="456.746,185.784 461.108,185.784 " />
<polyline points="478.007,180.333 478.007,191.781 " />
<polyline points="478.007,180.333 485.094,180.333 " />
<polyline points="478.007,185.784 482.368,185.784 " />
<polyline points="487.82,180.333 487.82,191.781 494.362,191.781 " />
<polyline points="497.087,180.333 497.087,191.781 " />
<polyline points="497.087,180.333 504.174,180.333 " />
<polyline points="497.087,185.784 501.449,185.784 " />
<polyline points="497.087,191.781 504.174,191.781 " />
<polyline points="506.9,180.333 514.532,191.781 " />
<polyline points="514.532,180.333 506.9,191.781 " />
<polyline points="518.348,180.333 518.348,191.781 " />
<polyline points="522.709,180.333 522.709,191.781 " />
<polyline points="522.709,180.333 527.616,180.333 529.251,180.878 529.796,181.423 530.341,182.514 530.341,183.604 529.796,184.694 529.251,185.239 527.616,185.784 " />
<polyline points="522.709,185.784 527.616,185.784 529.251,186.33 529.796,186.875 530.341,187.965 530.341,189.601 529.796,190.691 529.251,191.236 527.616,191.781 522.709,191.781 " />
<polyline points="534.157,180.333 534.157,191.781 540.699,191.781 " />
<polyline points="543.425,180.333 543.425,191.781 " />
<polyline points="543.425,180.333 550.512,180.333 " />
<polyline points="543.425,185.784 547.786,185.784 " />
<polyline points="543.425,191.781 550.512,191.781 " />
<polyline points="565.231,180.333 565.231,191.781 " />
<polyline points="565.231,180.333 569.047,180.333 570.682,180.878 571.773,181.968 572.318,183.059 572.863,184.694 572.863,187.42 572.318,189.055 571.773,190.146 570.682,191.236 569.047,191.781 565.231,191.781 " />
<polyline points="576.679,180.333 576.679,188.51 577.224,190.146 578.314,191.236 579.95,191.781 581.04,191.781 582.676,191.236 583.766,190.146 584.311,188.51 584.311,180.333 " />
<polyline points="596.304,183.059 595.759,181.968 594.669,180.878 593.579,180.333 591.398,180.333 590.308,180.878 589.217,181.968 588.672,183.059 588.127,184.694 588.127,187.42 588.672,189.055 589.217,190.146 590.308,191.236 591.398,191.781 593.579,191.781 594.669,191.236 595.759,190.146 596.304,189.055 " />
<polyline points="602.301,180.333 602.301,191.781 " />
<polyline points="598.485,180.333 606.117,180.333 " />
</g>
<g clip-path="url(#clipId0)" fill="rgb(0,0,0)" stroke="rgb(0,0,0)" stroke-width="0.5" >
<path d="M228.907,134.687 228.907,143.846 256.383,139.267 256.383,139.267 z" />
</g>
<g clip-path="url(#clipId0)" fill="none" stroke="rgb(0,0,0)" stroke-width="0.5" >
<polyline points="228.907,139.267 135.837,139.267 " />
<polyline points="798.098,139.267 705.027,139.267 " />
</g>
<g clip-path="url(#clipId0)" fill="rgb(0,0,0)" stroke="rgb(0,0,0)" stroke-width="0.5" >
<path d="M798.098,134.687 798.098,143.846 825.573,139.267 825.573,139.267 z" />
</g>
<g clip-path="url(#clipId0)" fill="none" stroke="rgb(0,0,0)" stroke-width="0.5" >
<polyline points="673.547,99.8785 673.547,114.081 " />
<polyline points="673.547,178.655 673.547,164.452 " />
</g>
<g clip-path="url(#clipId0)" fill="rgb(0,0,0)" stroke="rgb(0,0,0)" stroke-width="0.5" >
<path d="M668.968,99.8785 678.127,99.8785 673.547,72.4031 673.547,72.4031 z" />
<path d="M668.968,178.655 678.127,178.655 673.547,206.13 673.547,206.13 z" />
</g>
<g clip-path="url(#clipId0)" fill="none" stroke="rgb(0,0,0)" stroke-width="0.5" >
<polyline points="665.915,127.818 665.915,150.715 " />
<polyline points="665.915,127.818 673.547,127.818 676.818,128.909 678.999,131.089 680.089,133.27 681.179,136.541 681.179,141.992 680.089,145.263 678.999,147.444 676.818,149.624 673.547,150.715 665.915,150.715 " />
<polyline points="275.134,126.728 272.954,127.818 270.773,129.999 269.683,132.18 268.593,135.45 268.593,140.902 269.683,144.173 270.773,146.353 272.954,148.534 275.134,149.624 279.496,149.624 281.676,148.534 283.857,146.353 284.947,144.173 286.037,140.902 286.037,135.45 284.947,132.18 283.857,129.999 281.676,127.818 279.496,126.728 275.134,126.728 " />
<polyline points="278.405,145.263 284.947,151.805 " />
</g>
<g clip-path="url(#clipId0)" fill="rgb(0,0,0)" stroke="rgb(0,0,0)" stroke-width="0" >
<text transform="matrix(22.8962 0 -0 22.8962 319.096 36.4723)" font-family="Arial,'sans-serif'" font-size="1.39636" >FULLY  EXTENDED</text>
<text transform="matrix(22.8962 0 -0 22.8962 173.355 416.604)" font-family="Arial,'sans-serif'" font-size="1.39636" >LESS THAN FULLY  EXTENDED</text>
</g>
<g clip-path="url(#clipId0)" fill="none" stroke="rgb(0,0,0)" stroke-width="0.5" >
<polyline points="277.984,500.807 275.803,501.897 273.623,504.078 272.532,506.258 271.442,509.529 271.442,514.981 272.532,518.252 273.623,520.432 275.803,522.613 277.984,523.703 282.345,523.703 284.526,522.613 286.706,520.432 287.797,518.252 288.887,514.981 288.887,509.529 287.797,506.258 286.706,504.078 284.526,501.897 282.345,500.807 277.984,500.807 " />
<polyline points="281.255,519.342 287.797,525.884 " />
</g>
<g clip-path="url(#clipId0)" fill="rgb(0,0,0)" stroke="rgb(0,0,0)" stroke-width="0.5" >
<path d="M627.193,508.766 627.193,517.924 654.668,513.345 654.668,513.345 z" />
</g>
<g clip-path="url(#clipId0)" fill="none" stroke="rgb(0,0,0)" stroke-width="0.5" >
<polyline points="627.193,513.345 534.122,513.345 " />
<polyline points="229.182,511.013 136.112,511.013 " />
</g>
<g clip-path="url(#clipId0)" fill="rgb(0,0,0)" stroke="rgb(0,0,0)" stroke-width="0.5" >
<path d="M228.093,506.86 228.093,516.019 255.568,511.44 255.568,511.44 z" />
</g>
<g clip-path="url(#clipId0)" fill="none" stroke="rgb(0,0,0)" stroke-width="0.5" >
<polyline points="386.222,625.407 386.222,648.303 399.305,648.303 " />
</g>
<g clip-path="url(#clipId0)" fill="rgb(0,0,0)" stroke="rgb(0,0,0)" stroke-width="0.5" >
<path d="M565.349,632.276 565.349,641.434 592.824,636.855 592.824,636.855 z" />
<path d="M223.86,632.276 223.86,641.434 196.384,636.855 196.384,636.855 z" />
</g>
<g clip-path="url(#clipId0)" fill="none" stroke="rgb(0,0,0)" stroke-width="0.5" >
<polyline points="565.349,636.855 414.383,636.855 " />
<polyline points="223.86,636.855 373.822,636.855 " />
<polyline points="592.824,522.885 592.824,648.165 " />
<polyline points="196.384,522.885 196.384,648.165 " />
<circle cx="480.979" cy="584.788" r="4.57924" />
<circle cx="389.395" cy="584.788" r="4.57924" />
<circle cx="297.81" cy="584.788" r="4.57924" />
<circle cx="206.225" cy="584.788" r="4.57924" />
<circle cx="572.564" cy="584.788" r="4.57924" />
<circle cx="572.564" cy="441.902" r="4.57924" />
<circle cx="206.225" cy="441.902" r="4.57924" />
<circle cx="297.81" cy="441.902" r="4.57924" />
<circle cx="389.395" cy="441.902" r="4.57924" />
<circle cx="480.979" cy="441.902" r="4.57924" />
<path d="M591.82,580.209  A40.7008,40.7008 0 0,0 591.82,513.345 " />
<path d="M591.82,513.345  A46.7644,46.7644 0 0,0 591.82,580.209 " />
<path d="M591.82,513.345  A40.7008,40.7008 0 0,0 591.82,446.482 " />
<polyline points="196.384,446.482 591.82,446.482 " />
<path d="M196.384,446.482  A40.7008,40.7008 0 0,0 196.384,513.345 " />
<path d="M196.384,580.209  A46.7644,46.7644 0 0,0 196.384,513.345 " />
<path d="M196.384,513.345  A40.7008,40.7008 0 0,0 196.384,580.209 " />
<polyline points="591.82,580.209 196.384,580.209 " />
<circle cx="343.602" cy="441.902" r="4.57924" />
<circle cx="343.602" cy="584.788" r="4.57924" />
<circle cx="435.187" cy="441.902" r="4.57924" />
<circle cx="435.187" cy="584.788" r="4.57924" />
<circle cx="526.772" cy="441.902" r="4.57924" />
<circle cx="526.772" cy="584.788" r="4.57924" />
<circle cx="252.017" cy="584.788" r="4.57924" />
<circle cx="252.017" cy="441.902" r="4.57924" />
<polyline points="229.121,479.913 206.225,441.902 " />
<polyline points="229.121,479.913 252.017,441.902 " />
<polyline points="274.913,479.913 252.017,441.902 " />
<polyline points="320.706,479.913 297.81,441.902 " />
<polyline points="274.913,479.913 297.81,441.902 " />
<polyline points="366.498,479.913 389.395,441.902 " />
<polyline points="412.291,479.913 389.395,441.902 " />
<polyline points="366.498,479.913 343.602,441.902 " />
<polyline points="320.706,479.913 343.602,441.902 " />
<polyline points="503.876,479.913 526.772,441.902 " />
<polyline points="549.668,479.913 526.772,441.902 " />
<polyline points="595.46,479.913 572.564,441.902 " />
<polyline points="549.668,479.913 572.564,441.902 " />
<polyline points="458.083,479.913 480.979,441.902 " />
<polyline points="503.876,479.913 480.979,441.902 " />
<polyline points="458.083,479.913 435.187,441.902 " />
<polyline points="412.291,479.913 435.187,441.902 " />
<polyline points="183.329,479.913 206.225,441.902 " />
<polyline points="200.612,575.47 206.225,584.788 " />
<polyline points="412.291,546.777 435.187,584.788 " />
<polyline points="458.083,546.777 435.187,584.788 " />
<polyline points="503.876,546.777 480.979,584.788 " />
<polyline points="458.083,546.777 480.979,584.788 " />
<polyline points="549.668,546.777 572.564,584.788 " />
<polyline points="582.77,567.845 572.564,584.788 " />
<polyline points="549.668,546.777 526.772,584.788 " />
<polyline points="503.876,546.777 526.772,584.788 " />
<polyline points="320.706,546.777 343.602,584.788 " />
<polyline points="366.498,546.777 343.602,584.788 " />
<polyline points="412.291,546.777 389.395,584.788 " />
<polyline points="366.498,546.777 389.395,584.788 " />
<polyline points="274.913,546.777 297.81,584.788 " />
<polyline points="320.706,546.777 297.81,584.788 " />
<polyline points="274.913,546.777 252.017,584.788 " />
<polyline points="229.121,546.777 252.017,584.788 " />
<polyline points="229.121,546.777 206.225,584.788 " />
</g>
<g clip-path="url(#clipId0)" fill="rgb(0,0,0)" stroke="rgb(0,0,0)" stroke-width="0.5" >
<polygon points="605.039,565.036 599.344,537.77 613.574,561.716 " />
</g>
<g clip-path="url(#clipId0)" fill="none" stroke="rgb(0,0,0)" stroke-width="0.5" >
<polyline points="609.307,563.376 637.922,636.924 " />
<polyline points="637.922,636.924 666.703,636.924 " />
<polyline points="678.491,628.973 678.491,646.145 " />
<polyline points="685.032,628.973 685.032,646.145 " />
<polyline points="685.032,628.973 696.481,646.145 " />
<polyline points="696.481,628.973 696.481,646.145 " />
<polyline points="703.022,628.973 703.022,646.145 " />
<polyline points="703.022,628.973 714.47,646.145 " />
<polyline points="714.47,628.973 714.47,646.145 " />
<polyline points="721.012,628.973 721.012,646.145 " />
<polyline points="721.012,628.973 731.643,628.973 " />
<polyline points="721.012,637.15 727.554,637.15 " />
<polyline points="721.012,646.145 731.643,646.145 " />
<polyline points="736.549,628.973 736.549,646.145 " />
<polyline points="736.549,628.973 743.908,628.973 746.362,629.791 747.179,630.609 747.997,632.244 747.997,633.879 747.179,635.515 746.362,636.333 743.908,637.15 736.549,637.15 " />
<polyline points="742.273,637.15 747.997,646.145 " />
<polyline points="770.893,628.973 770.893,646.145 780.706,646.145 " />
<polyline points="784.795,628.973 784.795,646.145 " />
<polyline points="791.336,628.973 791.336,646.145 " />
<polyline points="791.336,628.973 802.784,646.145 " />
<polyline points="802.784,628.973 802.784,646.145 " />
<polyline points="809.326,628.973 809.326,646.145 " />
<polyline points="809.326,628.973 819.957,628.973 " />
<polyline points="809.326,637.15 815.868,637.15 " />
<polyline points="809.326,646.145 819.957,646.145 " />
<polyline points="824.863,628.973 824.863,646.145 " />
<polyline points="824.863,628.973 832.222,628.973 834.676,629.791 835.493,630.609 836.311,632.244 836.311,633.879 835.493,635.515 834.676,636.333 832.222,637.15 824.863,637.15 " />
<polyline points="830.587,637.15 836.311,646.145 " />
<polyline points="863.296,628.973 861.66,629.791 860.025,631.426 859.207,633.062 858.389,635.515 858.389,639.603 859.207,642.057 860.025,643.692 861.66,645.327 863.296,646.145 866.567,646.145 868.202,645.327 869.838,643.692 870.655,642.057 871.473,639.603 871.473,635.515 870.655,633.062 869.838,631.426 868.202,629.791 866.567,628.973 863.296,628.973 " />
<polyline points="877.197,628.973 877.197,646.145 " />
<polyline points="877.197,628.973 887.827,628.973 " />
<polyline points="877.197,637.15 883.739,637.15 " />
<polyline points="687.077,657.593 687.077,674.765 " />
<polyline points="687.077,657.593 697.707,657.593 " />
<polyline points="687.077,665.771 693.619,665.771 " />
<polyline points="701.796,657.593 701.796,674.765 711.608,674.765 " />
<polyline points="715.697,657.593 715.697,674.765 " />
<polyline points="715.697,657.593 726.327,657.593 " />
<polyline points="715.697,665.771 722.239,665.771 " />
<polyline points="715.697,674.765 726.327,674.765 " />
<polyline points="730.416,657.593 741.864,674.765 " />
<polyline points="741.864,657.593 730.416,674.765 " />
<polyline points="747.588,657.593 747.588,674.765 " />
<polyline points="754.13,657.593 754.13,674.765 " />
<polyline points="754.13,657.593 761.489,657.593 763.943,658.411 764.76,659.229 765.578,660.864 765.578,662.5 764.76,664.135 763.943,664.953 761.489,665.771 " />
<polyline points="754.13,665.771 761.489,665.771 763.943,666.588 764.76,667.406 765.578,669.041 765.578,671.495 764.76,673.13 763.943,673.948 761.489,674.765 754.13,674.765 " />
<polyline points="771.302,657.593 771.302,674.765 781.115,674.765 " />
<polyline points="785.203,657.593 785.203,674.765 " />
<polyline points="785.203,657.593 795.834,657.593 " />
<polyline points="785.203,665.771 791.745,665.771 " />
<polyline points="785.203,674.765 795.834,674.765 " />
<polyline points="817.912,657.593 817.912,674.765 " />
<polyline points="817.912,657.593 823.636,657.593 826.089,658.411 827.725,660.046 828.543,661.682 829.36,664.135 829.36,668.224 828.543,670.677 827.725,672.312 826.089,673.948 823.636,674.765 817.912,674.765 " />
<polyline points="835.084,657.593 835.084,669.859 835.902,672.312 837.538,673.948 839.991,674.765 841.626,674.765 844.079,673.948 845.715,672.312 846.532,669.859 846.532,657.593 " />
<polyline points="864.522,661.682 863.705,660.046 862.069,658.411 860.434,657.593 857.163,657.593 855.527,658.411 853.892,660.046 853.074,661.682 852.257,664.135 852.257,668.224 853.074,670.677 853.892,672.312 855.527,673.948 857.163,674.765 860.434,674.765 862.069,673.948 863.705,672.312 864.522,670.677 " />
<polyline points="873.517,657.593 873.517,674.765 " />
<polyline points="867.793,657.593 879.241,657.593 " />
<polyline points="654.84,725.581 652.66,721.22 648.298,716.859 643.937,714.678 635.215,714.678 630.854,716.859 626.493,721.22 624.312,725.581 622.131,732.123 622.131,743.026 624.312,749.568 626.493,753.929 630.854,758.29 635.215,760.471 643.937,760.471 648.298,758.29 652.66,753.929 654.84,749.568 " />
<polyline points="670.104,714.678 670.104,760.471 " />
<polyline points="670.104,714.678 685.368,714.678 691.91,716.859 696.271,721.22 698.452,725.581 700.633,732.123 700.633,743.026 698.452,749.568 696.271,753.929 691.91,758.29 685.368,760.471 670.104,760.471 " />
<polyline points="720.258,723.401 724.619,721.22 731.161,714.678 731.161,760.471 " />
<polyline points="763.87,723.401 768.231,721.22 774.773,714.678 774.773,760.471 " />
<polyline points="803.12,740.845 842.371,740.845 " />
<polyline points="859.816,725.581 859.816,723.401 861.996,719.039 864.177,716.859 868.538,714.678 877.26,714.678 881.622,716.859 883.802,719.039 885.983,723.401 885.983,727.762 883.802,732.123 879.441,738.665 857.635,760.471 888.163,760.471 " />
<polyline points="183.329,479.913 179.418,473.421 " />
<polyline points="595.46,479.913 605.636,463.02 " />
</g>
</svg>
