<?xml version="1.0" standalone="no"?>
<svg viewBox="0 0 1024 768" version="1.1" xmlns="http://www.w3.org/2000/svg" xmlns:xlink="http://www.w3.org/1999/xlink" stroke-linecap="round" stroke-linejoin="round" fill-rule="evenodd" xml:space="preserve" >
<defs >
<clipPath id="clipId0" >
<path d="M0,768 1024,768 1024,0 0,0 z" />
</clipPath>
</defs>
<g clip-path="url(#clipId0)" fill="none" stroke="rgb(0,0,0)" stroke-width="0.1" />
<g clip-path="url(#clipId0)" fill="none" stroke="rgb(0,0,0)" stroke-width="0.5" >
<polyline points="137.297,109.701 889.531,109.701 " />
<polyline points="137.297,319.358 889.531,319.358 " />
<path d="M889.531,214.53  A85.6389,85.6389 0 0,0 889.531,109.701 " />
<path d="M889.531,214.53  A86.07,86.07 0 0,0 889.531,319.358 " />
<path d="M889.531,319.358  A79.77,79.77 0 0,0 889.531,214.53 " />
<path d="M137.297,109.701  A73.9907,73.9907 0 0,0 137.297,214.53 " />
<path d="M137.297,319.358  A69.9974,69.9974 0 0,0 137.297,214.53 " />
<path d="M137.297,214.53  A66.6139,66.6139 0 0,0 137.297,319.358 " />
</g>
<g clip-path="url(#clipId0)" fill="rgb(0,0,0)" stroke="rgb(0,0,0)" stroke-width="0.5" >
<path d="M988.541,212.349 988.541,220.822 1013.96,216.585 1013.96,216.585 z" />
</g>
<g clip-path="url(#clipId0)" fill="none" stroke="rgb(0,0,0)" stroke-width="0.5" >
<polyline points="988.541,216.585 753.79,216.585 " />
</g>
<g clip-path="url(#clipId0)" fill="rgb(0,0,0)" stroke="rgb(0,0,0)" stroke-width="0.5" >
<path d="M281.554,212.349 281.554,220.822 306.974,216.585 306.974,216.585 z" />
</g>
<g clip-path="url(#clipId0)" fill="none" stroke="rgb(0,0,0)" stroke-width="0.5" >
<polyline points="281.554,216.585 10.0392,216.585 " />
</g>
<g clip-path="url(#clipId0)" fill="rgb(0,0,0)" stroke="rgb(0,0,0)" stroke-width="0.5" >
<path d="M742.509,446.671 742.509,455.144 767.929,450.908 767.929,450.908 z" />
</g>
<g clip-path="url(#clipId0)" fill="none" stroke="rgb(0,0,0)" stroke-width="0.5" >
<polyline points="742.509,450.908 553.005,450.908 " />
</g>
<g clip-path="url(#clipId0)" fill="rgb(0,0,0)" stroke="rgb(0,0,0)" stroke-width="0.5" >
<path d="M267.351,455.144 267.351,446.671 241.931,450.908 241.931,450.908 z" />
</g>
<g clip-path="url(#clipId0)" fill="none" stroke="rgb(0,0,0)" stroke-width="0.5" >
<polyline points="267.351,450.908 487.962,450.908 " />
<polyline points="202.398,162.94 199.708,164.285 197.018,166.975 195.673,169.665 194.328,173.7 194.328,180.425 195.673,184.46 197.018,187.15 199.708,189.84 202.398,191.185 207.778,191.185 210.468,189.84 213.157,187.15 214.502,184.46 215.847,180.425 215.847,173.7 214.502,169.665 213.157,166.975 210.468,164.285 207.778,162.94 202.398,162.94 " />
<polyline points="206.433,185.805 214.502,193.875 " />
<polyline points="513.138,439.107 513.138,467.351 529.278,467.351 " />
<polyline points="597.076,135.121 597.076,176.4 " />
<polyline points="597.076,293.938 597.076,252.66 " />
</g>
<g clip-path="url(#clipId0)" fill="rgb(0,0,0)" stroke="rgb(0,0,0)" stroke-width="0.5" >
<path d="M601.313,135.121 592.84,135.121 597.076,109.701 597.076,109.701 z" />
<path d="M601.313,293.938 592.84,293.938 597.076,319.358 597.076,319.358 z" />
</g>
<g clip-path="url(#clipId0)" fill="none" stroke="rgb(0,0,0)" stroke-width="0.5" >
<polyline points="593.445,201.82 593.445,227.24 " />
<polyline points="593.445,201.82 601.918,201.82 605.55,203.03 607.971,205.451 609.181,207.872 610.392,211.504 610.392,217.556 609.181,221.187 607.971,223.608 605.55,226.029 601.918,227.24 593.445,227.24 " />
</g>
<g clip-path="url(#clipId0)" fill="none" stroke="rgb(0,0,0)" stroke-width="0.1" >
<polyline points="588.593,109.701 588.593,109.701 " />
<polyline points="582.937,319.358 582.937,319.358 " />
<polyline points="597.076,319.358 597.076,319.358 " />
</g>
<g clip-path="url(#clipId0)" fill="none" stroke="rgb(0,0,0)" stroke-width="0.35" >
<polyline points="681.761,622.791 679.542,618.353 675.104,613.915 670.665,611.695 661.788,611.695 657.35,613.915 652.912,618.353 650.692,622.791 648.473,629.449 648.473,640.545 650.692,647.203 652.912,651.641 657.35,656.079 661.788,658.299 670.665,658.299 675.104,656.079 679.542,651.641 681.761,647.203 " />
<polyline points="697.296,611.695 697.296,658.299 " />
<polyline points="697.296,611.695 712.83,611.695 719.488,613.915 723.926,618.353 726.145,622.791 728.365,629.449 728.365,640.545 726.145,647.203 723.926,651.641 719.488,656.079 712.83,658.299 697.296,658.299 " />
<polyline points="748.337,620.572 752.776,618.353 759.433,611.695 759.433,658.299 " />
<polyline points="792.722,620.572 797.16,618.353 803.818,611.695 803.818,658.299 " />
<polyline points="832.667,638.326 872.613,638.326 " />
<polyline points="894.805,620.572 899.243,618.353 905.901,611.695 905.901,658.299 " />
</g>
</svg>
