<?xml version="1.0" standalone="no"?>
<svg viewBox="0 0 1024 768" version="1.1" xmlns="http://www.w3.org/2000/svg" xmlns:xlink="http://www.w3.org/1999/xlink" stroke-linecap="round" stroke-linejoin="round" fill-rule="evenodd" xml:space="preserve" >
<defs >
<clipPath id="clipId0" >
<path d="M0,768 1024,768 1024,0 0,0 z" />
</clipPath>
</defs>
<g clip-path="url(#clipId0)" fill="none" stroke="rgb(0,0,0)" stroke-width="0.1" />
<g clip-path="url(#clipId0)" fill="none" stroke="rgb(0,0,0)" stroke-width="0.25" >
<path d="M528.324,480.342  A113.755,113.755 0 0,0 416.095,368.113 " />
<path d="M755.841,480.342  A341.266,341.266 0 0,0 416.095,140.596 " />
<path d="M642.089,481.859  A227.511,227.511 0 0,0 414.579,254.348 " stroke-dasharray="151.673842,30.334768,30.334768,30.334768" />
<polyline points="425.508,482.588 402.757,482.588 " />
<polyline points="414.133,471.213 414.133,493.964 " />
<polyline points="302.19,293.034 300.024,294.117 297.857,296.284 296.773,299.534 296.773,301.701 297.857,304.951 300.024,307.118 302.19,308.201 305.441,308.201 307.607,307.118 309.774,304.951 310.857,301.701 310.857,299.534 309.774,296.284 307.607,294.117 305.441,293.034 302.19,293.034 " />
<polyline points="329.369,254.348 211.123,254.348 " />
</g>
<g clip-path="url(#clipId0)" fill="rgb(0,0,0)" stroke="rgb(0,0,0)" stroke-width="0.25" >
<path d="M329.369,250.556 329.369,258.14 352.12,254.348 352.12,254.348 z" />
</g>
<g clip-path="url(#clipId0)" fill="none" stroke="rgb(0,0,0)" stroke-width="0.25" >
<polyline points="755.845,519.777 528.334,519.777 " />
<polyline points="376.66,140.592 376.66,368.103 " />
<polyline points="755.845,483.375 755.845,519.777 " />
<polyline points="528.334,483.375 528.334,519.777 " />
<polyline points="413.062,368.103 376.66,368.103 " />
<polyline points="413.062,140.592 376.66,140.592 " />
</g>
<g clip-path="url(#clipId0)" fill="rgb(0,0,0)" stroke="rgb(0,0,0)" stroke-width="0.25" >
<path d="M590.474,376.97 594.237,383.554 612.109,368.973 612.109,368.973 z" />
</g>
<g clip-path="url(#clipId0)" fill="none" stroke="rgb(0,0,0)" stroke-width="0.25" >
<polyline points="592.356,380.262 487.357,440.267 " />
<polyline points="470.401,439.897 470.401,455.064 " />
<polyline points="470.401,446.397 471.485,443.147 473.651,440.98 475.818,439.897 479.068,439.897 " />
<polyline points="460.055,455.87 414.579,481.859 " />
<path d="M861.028,459.115  A447.028,447.028 0 0,0 756.735,194.173 " />
<path d="M701.82,139.329  A447.028,447.028 0 0,0 437.322,35.4097 " />
<polyline points="888.908,481.859 765.324,481.859 " />
<polyline points="414.579,7.52941 414.579,131.113 " />
</g>
<g clip-path="url(#clipId0)" fill="rgb(0,0,0)" stroke="rgb(0,0,0)" stroke-width="0.25" >
<path d="M857.237,459.211 864.818,459.018 861.607,481.859 861.607,481.859 z" />
<path d="M437.226,39.2003 437.419,31.619 414.579,34.8307 414.579,34.8307 z" />
</g>
<g clip-path="url(#clipId0)" fill="none" stroke="rgb(0,0,0)" stroke-width="0.25" >
<polyline points="755.845,480.342 528.334,480.342 " />
<polyline points="755.845,483.375 528.334,483.375 " />
<path d="M528.334,480.342  A1.51674,1.51674 0 0,0 528.334,483.375 " />
<path d="M755.845,483.375  A1.51674,1.51674 0 0,0 755.845,480.342 " />
<polyline points="413.062,140.592 413.062,368.103 " />
<polyline points="416.095,140.592 416.095,368.103 " />
<path d="M413.062,368.103  A1.51674,1.51674 0 0,0 416.095,368.103 " />
<path d="M416.095,140.592  A1.51674,1.51674 0 0,0 413.062,140.592 " />
<polyline points="268.149,205.106 265.982,206.189 263.815,208.356 262.732,210.523 261.649,213.773 261.649,219.19 262.732,222.44 263.815,224.607 265.982,226.773 268.149,227.857 272.483,227.857 274.649,226.773 276.816,224.607 277.899,222.44 278.983,219.19 278.983,213.773 277.899,210.523 276.816,208.356 274.649,206.189 272.483,205.106 268.149,205.106 " />
<polyline points="271.399,223.523 277.899,230.024 " />
<polyline points="724.087,164.123 723.004,167.373 720.837,169.54 717.587,170.623 716.504,170.623 713.253,169.54 711.087,167.373 710.003,164.123 710.003,163.039 711.087,159.789 713.253,157.622 716.504,156.539 717.587,156.539 720.837,157.622 723.004,159.789 724.087,164.123 724.087,169.54 723.004,174.957 720.837,178.207 717.587,179.29 715.42,179.29 712.17,178.207 711.087,176.04 " />
<polyline points="738.171,156.539 734.921,157.622 732.754,160.873 731.671,166.289 731.671,169.54 732.754,174.957 734.921,178.207 738.171,179.29 740.338,179.29 743.588,178.207 745.755,174.957 746.838,169.54 746.838,166.289 745.755,160.873 743.588,157.622 740.338,156.539 738.171,156.539 " />
<circle cx="755.484" cy="159.512" r="2.44344" />
<polyline points="351.6,368.103 128.738,368.103 " />
<polyline points="351.6,140.592 128.738,140.592 " />
<polyline points="156.039,345.352 156.039,288.474 " />
<polyline points="156.039,163.344 156.039,220.221 " />
</g>
<g clip-path="url(#clipId0)" fill="rgb(0,0,0)" stroke="rgb(0,0,0)" stroke-width="0.25" >
<path d="M159.831,345.352 152.248,345.352 156.039,368.103 156.039,368.103 z" />
<path d="M159.831,163.344 152.248,163.344 156.039,140.592 156.039,140.592 z" />
</g>
<g clip-path="url(#clipId0)" fill="none" stroke="rgb(0,0,0)" stroke-width="0.25" >
<polyline points="152.789,242.972 152.789,265.723 " />
<polyline points="152.789,242.972 160.373,242.972 163.623,244.056 165.79,246.222 166.873,248.389 167.957,251.639 167.957,257.056 166.873,260.306 165.79,262.473 163.623,264.64 160.373,265.723 152.789,265.723 " />
<polyline points="268.396,263.003 259.729,285.754 " />
<polyline points="268.396,263.003 277.063,285.754 " />
<polyline points="262.979,278.17 273.813,278.17 " />
<polyline points="757.022,735.047 755.433,731.869 752.255,728.691 749.077,727.102 742.721,727.102 739.543,728.691 736.366,731.869 734.777,735.047 733.188,739.814 733.188,747.759 734.777,752.526 736.366,755.704 739.543,758.882 742.721,760.471 749.077,760.471 752.255,758.882 755.433,755.704 757.022,752.526 " />
<polyline points="768.145,727.102 768.145,760.471 " />
<polyline points="768.145,727.102 779.268,727.102 784.034,728.691 787.212,731.869 788.801,735.047 790.39,739.814 790.39,747.759 788.801,752.526 787.212,755.704 784.034,758.882 779.268,760.471 768.145,760.471 " />
<polyline points="803.102,727.102 820.581,727.102 811.047,739.814 815.814,739.814 818.992,741.403 820.581,742.992 822.17,747.759 822.17,750.937 820.581,755.704 817.403,758.882 812.636,760.471 807.869,760.471 803.102,758.882 801.513,757.293 799.924,754.115 " />
<polyline points="833.292,746.17 861.894,746.17 " />
<polyline points="874.605,735.047 874.605,733.458 876.194,730.28 877.783,728.691 880.961,727.102 887.317,727.102 890.495,728.691 892.084,730.28 893.673,733.458 893.673,736.636 892.084,739.814 888.906,744.581 873.016,760.471 895.262,760.471 " />
</g>
</svg>
