<?xml version="1.0" standalone="no"?>
<svg viewBox="0 0 1024 768" version="1.1" xmlns="http://www.w3.org/2000/svg" xmlns:xlink="http://www.w3.org/1999/xlink" stroke-linecap="round" stroke-linejoin="round" fill-rule="evenodd" xml:space="preserve" >
<defs >
<clipPath id="clipId0" >
<path d="M0,768 1024,768 1024,0 0,0 z" />
</clipPath>
</defs>
<g clip-path="url(#clipId0)" fill="none" stroke="rgb(0,0,0)" stroke-width="0.1" />
<g clip-path="url(#clipId0)" fill="none" stroke="rgb(0,0,0)" stroke-width="0.25" >
<polyline points="703.366,197.609 703.366,369.742 " />
<polyline points="679.064,221.91 679.064,369.742 " />
<polyline points="664.484,352.245 649.903,352.245 " />
<polyline points="717.947,352.245 732.527,352.245 " />
</g>
<g clip-path="url(#clipId0)" fill="rgb(0,0,0)" stroke="rgb(0,0,0)" stroke-width="0.25" >
<path d="M664.484,354.676 664.484,349.815 679.064,352.245 679.064,352.245 z" />
<path d="M717.947,354.676 717.947,349.815 703.366,352.245 703.366,352.245 z" />
</g>
<g clip-path="url(#clipId0)" fill="none" stroke="rgb(0,0,0)" stroke-width="0.25" >
<polyline points="756.671,344.955 762.226,359.536 " />
<polyline points="767.78,344.955 762.226,359.536 " />
<polyline points="778.89,349.815 778.89,359.536 " />
<polyline points="778.89,351.898 777.501,350.51 776.112,349.815 774.029,349.815 772.641,350.51 771.252,351.898 770.558,353.981 770.558,355.37 771.252,357.453 772.641,358.842 774.029,359.536 776.112,359.536 777.501,358.842 778.89,357.453 " />
<polyline points="784.444,349.815 784.444,359.536 " />
<polyline points="784.444,352.593 786.527,350.51 787.916,349.815 789.999,349.815 791.387,350.51 792.082,352.593 792.082,359.536 " />
<polyline points="796.942,353.981 805.274,353.981 805.274,352.593 804.58,351.204 803.885,350.51 802.497,349.815 800.414,349.815 799.025,350.51 797.636,351.898 796.942,353.981 796.942,355.37 797.636,357.453 799.025,358.842 800.414,359.536 802.497,359.536 803.885,358.842 805.274,357.453 " />
<polyline points="833.741,347.038 832.353,345.649 830.27,344.955 827.492,344.955 825.409,345.649 824.021,347.038 824.021,348.427 824.715,349.815 825.409,350.51 826.798,351.204 830.964,352.593 832.353,353.287 833.047,353.981 833.741,355.37 833.741,357.453 832.353,358.842 830.27,359.536 827.492,359.536 825.409,358.842 824.021,357.453 " />
<polyline points="838.601,349.815 838.601,364.396 " />
<polyline points="838.601,351.898 839.99,350.51 841.379,349.815 843.462,349.815 844.85,350.51 846.239,351.898 846.933,353.981 846.933,355.37 846.239,357.453 844.85,358.842 843.462,359.536 841.379,359.536 839.99,358.842 838.601,357.453 " />
<polyline points="859.431,349.815 859.431,359.536 " />
<polyline points="859.431,351.898 858.043,350.51 856.654,349.815 854.571,349.815 853.182,350.51 851.794,351.898 851.099,353.981 851.099,355.37 851.794,357.453 853.182,358.842 854.571,359.536 856.654,359.536 858.043,358.842 859.431,357.453 " />
<polyline points="872.623,351.898 871.235,350.51 869.846,349.815 867.763,349.815 866.374,350.51 864.986,351.898 864.291,353.981 864.291,355.37 864.986,357.453 866.374,358.842 867.763,359.536 869.846,359.536 871.235,358.842 872.623,357.453 " />
<polyline points="876.789,345.649 877.484,346.344 878.178,345.649 877.484,344.955 876.789,345.649 " />
<polyline points="877.484,350.51 877.484,359.536 " />
<polyline points="883.038,349.815 883.038,359.536 " />
<polyline points="883.038,352.593 885.121,350.51 886.51,349.815 888.593,349.815 889.981,350.51 890.676,352.593 890.676,359.536 " />
<polyline points="903.868,349.815 903.868,360.924 903.174,363.007 902.479,363.702 901.091,364.396 899.008,364.396 897.619,363.702 " />
<polyline points="903.868,351.898 902.479,350.51 901.091,349.815 899.008,349.815 897.619,350.51 896.23,351.898 895.536,353.981 895.536,355.37 896.23,357.453 897.619,358.842 899.008,359.536 901.091,359.536 902.479,358.842 903.868,357.453 " />
<polyline points="229.621,518.557 237.258,518.557 233.092,524.111 235.175,524.111 236.564,524.806 237.258,525.5 237.953,527.583 237.953,528.972 237.258,531.055 235.87,532.443 233.787,533.138 231.704,533.138 229.621,532.443 228.927,531.749 228.232,530.36 " />
<polyline points="257.394,526.889 269.892,526.889 " />
<polyline points="298.359,523.417 297.665,525.5 296.276,526.889 294.193,527.583 293.499,527.583 291.416,526.889 290.027,525.5 289.333,523.417 289.333,522.723 290.027,520.64 291.416,519.251 293.499,518.557 294.193,518.557 296.276,519.251 297.665,520.64 298.359,523.417 298.359,526.889 297.665,530.36 296.276,532.443 294.193,533.138 292.804,533.138 290.721,532.443 290.027,531.055 " />
<polyline points="319.883,521.334 321.272,520.64 323.355,518.557 323.355,533.138 " />
<polyline points="343.49,515.779 330.992,537.998 " />
<polyline points="347.656,522.028 347.656,521.334 348.35,519.945 349.045,519.251 350.433,518.557 353.211,518.557 354.599,519.251 355.293,519.945 355.988,521.334 355.988,522.723 355.293,524.111 353.905,526.194 346.962,533.138 356.682,533.138 " />
<polyline points="215.387,552.064 216.776,551.369 218.859,549.286 218.859,563.867 " />
<polyline points="231.357,549.286 229.274,549.981 227.885,552.064 227.191,555.535 227.191,557.618 227.885,561.09 229.274,563.173 231.357,563.867 232.745,563.867 234.828,563.173 236.217,561.09 236.911,557.618 236.911,555.535 236.217,552.064 234.828,549.981 232.745,549.286 231.357,549.286 " />
<polyline points="256.352,557.618 268.85,557.618 " />
<polyline points="290.374,552.064 291.763,551.369 293.846,549.286 293.846,563.867 " />
<polyline points="302.872,552.758 302.872,552.064 303.566,550.675 304.261,549.981 305.649,549.286 308.427,549.286 309.815,549.981 310.51,550.675 311.204,552.064 311.204,553.452 310.51,554.841 309.121,556.924 302.178,563.867 311.898,563.867 " />
<polyline points="332.728,552.064 334.117,551.369 336.2,549.286 336.2,563.867 " />
<polyline points="356.335,546.509 343.837,568.727 " />
<polyline points="360.501,552.758 360.501,552.064 361.195,550.675 361.89,549.981 363.278,549.286 366.056,549.286 367.444,549.981 368.138,550.675 368.833,552.064 368.833,553.452 368.138,554.841 366.75,556.924 359.807,563.867 369.527,563.867 " />
<polyline points="244.549,583.835 245.937,583.14 248.02,581.057 248.02,595.638 " />
<polyline points="257.741,581.057 265.379,581.057 261.213,586.612 263.296,586.612 264.684,587.306 265.379,588 266.073,590.083 266.073,591.472 265.379,593.555 263.99,594.944 261.907,595.638 259.824,595.638 257.741,594.944 257.047,594.249 256.352,592.861 " />
<polyline points="285.514,589.389 298.012,589.389 " />
<polyline points="319.536,583.835 320.924,583.14 323.007,581.057 323.007,595.638 " />
<polyline points="340.366,585.918 339.671,588 338.283,589.389 336.2,590.083 335.505,590.083 333.422,589.389 332.034,588 331.339,585.918 331.339,585.223 332.034,583.14 333.422,581.752 335.505,581.057 336.2,581.057 338.283,581.752 339.671,583.14 340.366,585.918 340.366,589.389 339.671,592.861 338.283,594.944 336.2,595.638 334.811,595.638 332.728,594.944 332.034,593.555 " />
<polyline points="243.854,612.409 243.854,611.715 244.549,610.326 245.243,609.632 246.632,608.938 249.409,608.938 250.798,609.632 251.492,610.326 252.186,611.715 252.186,613.104 251.492,614.492 250.103,616.575 243.16,623.519 252.881,623.519 " />
<polyline points="261.213,608.938 259.13,609.632 257.741,611.715 257.047,615.187 257.047,617.27 257.741,620.741 259.13,622.824 261.213,623.519 262.601,623.519 264.684,622.824 266.073,620.741 266.767,617.27 266.767,615.187 266.073,611.715 264.684,609.632 262.601,608.938 261.213,608.938 " />
<polyline points="286.208,617.27 298.706,617.27 " />
<polyline points="327.173,611.021 326.479,609.632 324.396,608.938 323.007,608.938 320.924,609.632 319.536,611.715 318.841,615.187 318.841,618.658 319.536,621.436 320.924,622.824 323.007,623.519 323.702,623.519 325.785,622.824 327.173,621.436 327.868,619.353 327.868,618.658 327.173,616.575 325.785,615.187 323.702,614.492 323.007,614.492 320.924,615.187 319.536,616.575 318.841,618.658 " />
<polyline points="336.2,608.938 334.117,609.632 332.728,611.715 332.034,615.187 332.034,617.27 332.728,620.741 334.117,622.824 336.2,623.519 337.588,623.519 339.671,622.824 341.06,620.741 341.754,617.27 341.754,615.187 341.06,611.715 339.671,609.632 337.588,608.938 336.2,608.938 " />
<polyline points="491.089,521.645 491.089,520.951 491.784,519.562 492.478,518.868 493.867,518.174 496.644,518.174 498.032,518.868 498.727,519.562 499.421,520.951 499.421,522.34 498.727,523.728 497.338,525.811 490.395,532.755 500.115,532.755 " />
<polyline points="491.784,548.903 499.421,548.903 495.255,554.458 497.338,554.458 498.727,555.152 499.421,555.847 500.115,557.929 500.115,559.318 499.421,561.401 498.032,562.79 495.95,563.484 493.867,563.484 491.784,562.79 491.089,562.095 490.395,560.707 " />
<polyline points="496.991,579.633 490.048,589.353 500.463,589.353 " />
<polyline points="496.991,579.633 496.991,594.214 " />
<polyline points="498.727,607.513 491.784,607.513 491.089,613.762 491.784,613.068 493.867,612.374 495.95,612.374 498.032,613.068 499.421,614.457 500.115,616.539 500.115,617.928 499.421,620.011 498.032,621.4 495.95,622.094 493.867,622.094 491.784,621.4 491.089,620.705 490.395,619.317 " />
<polyline points="10.0392,572.271 601.17,572.271 " />
<polyline points="10.0392,601.576 601.17,601.576 " />
<polyline points="10.0392,541.541 601.17,541.541 " />
<polyline points="10.0392,510.812 601.17,510.812 " />
<polyline points="10.0392,630.881 601.17,630.881 " />
<polyline points="217.883,690.521 398.378,690.521 " />
<polyline points="601.17,690.521 601.17,455.01 " />
<polyline points="391.379,690.521 391.379,455.01 " />
<polyline points="201.551,690.521 201.551,455.01 " />
<polyline points="287.597,462.61 287.597,477.191 " />
<polyline points="287.597,462.61 292.457,462.61 294.54,463.305 295.929,464.693 296.623,466.082 297.317,468.165 297.317,471.637 296.623,473.72 295.929,475.108 294.54,476.497 292.457,477.191 287.597,477.191 " />
<polyline points="256.005,482.399 254.616,483.787 253.228,485.87 251.839,488.647 251.145,492.119 251.145,494.896 251.839,498.368 253.228,501.145 254.616,503.228 256.005,504.617 " />
<polyline points="260.171,485.87 260.865,486.565 261.56,485.87 260.865,485.176 260.171,485.87 " />
<polyline points="260.865,490.73 260.865,499.757 " />
<polyline points="266.42,490.036 266.42,499.757 " />
<polyline points="266.42,492.813 268.503,490.73 269.892,490.036 271.975,490.036 273.363,490.73 274.058,492.813 274.058,499.757 " />
<polyline points="287.25,492.119 285.861,490.73 284.472,490.036 282.389,490.036 281.001,490.73 279.612,492.119 278.918,494.202 278.918,495.591 279.612,497.674 281.001,499.062 282.389,499.757 284.472,499.757 285.861,499.062 287.25,497.674 " />
<polyline points="292.11,485.176 292.11,499.757 " />
<polyline points="292.11,492.813 294.193,490.73 295.582,490.036 297.665,490.036 299.053,490.73 299.748,492.813 299.748,499.757 " />
<polyline points="304.608,494.202 312.94,494.202 312.94,492.813 312.245,491.425 311.551,490.73 310.162,490.036 308.079,490.036 306.691,490.73 305.302,492.119 304.608,494.202 304.608,495.591 305.302,497.674 306.691,499.062 308.079,499.757 310.162,499.757 311.551,499.062 312.94,497.674 " />
<polyline points="324.743,492.119 324.049,490.73 321.966,490.036 319.883,490.036 317.8,490.73 317.106,492.119 317.8,493.508 319.189,494.202 322.66,494.896 324.049,495.591 324.743,496.979 324.743,497.674 324.049,499.062 321.966,499.757 319.883,499.757 317.8,499.062 317.106,497.674 " />
<polyline points="328.909,482.399 330.298,483.787 331.686,485.87 333.075,488.647 333.769,492.119 333.769,494.896 333.075,498.368 331.686,501.145 330.298,503.228 328.909,504.617 " />
<polyline points="461.984,462.61 461.984,477.191 " />
<polyline points="461.984,462.61 471.704,477.191 " />
<polyline points="471.704,462.61 471.704,477.191 " />
<polyline points="477.259,467.471 477.259,474.414 477.953,476.497 479.342,477.191 481.425,477.191 482.814,476.497 484.897,474.414 " />
<polyline points="484.897,467.471 484.897,477.191 " />
<polyline points="490.451,467.471 490.451,477.191 " />
<polyline points="490.451,470.248 492.534,468.165 493.923,467.471 496.006,467.471 497.394,468.165 498.089,470.248 498.089,477.191 " />
<polyline points="498.089,470.248 500.172,468.165 501.56,467.471 503.643,467.471 505.032,468.165 505.726,470.248 505.726,477.191 " />
<polyline points="511.281,462.61 511.281,477.191 " />
<polyline points="511.281,469.554 512.67,468.165 514.058,467.471 516.141,467.471 517.53,468.165 518.918,469.554 519.613,471.637 519.613,473.025 518.918,475.108 517.53,476.497 516.141,477.191 514.058,477.191 512.67,476.497 511.281,475.108 " />
<polyline points="523.779,471.637 532.111,471.637 532.111,470.248 531.416,468.859 530.722,468.165 529.333,467.471 527.25,467.471 525.862,468.165 524.473,469.554 523.779,471.637 523.779,473.025 524.473,475.108 525.862,476.497 527.25,477.191 529.333,477.191 530.722,476.497 532.111,475.108 " />
<polyline points="536.971,467.471 536.971,477.191 " />
<polyline points="536.971,471.637 537.665,469.554 539.054,468.165 540.442,467.471 542.525,467.471 " />
<polyline points="458.165,491.078 456.776,491.772 455.388,493.161 454.693,495.244 454.693,496.632 455.388,498.715 456.776,500.104 458.165,500.798 460.248,500.798 461.637,500.104 463.025,498.715 463.72,496.632 463.72,495.244 463.025,493.161 461.637,491.772 460.248,491.078 458.165,491.078 " />
<polyline points="472.746,486.217 471.357,486.217 469.969,486.912 469.274,488.995 469.274,500.798 " />
<polyline points="467.191,491.078 472.052,491.078 " />
<polyline points="489.41,486.217 494.964,500.798 " />
<polyline points="500.519,486.217 494.964,500.798 " />
<polyline points="511.628,491.078 511.628,500.798 " />
<polyline points="511.628,493.161 510.239,491.772 508.851,491.078 506.768,491.078 505.379,491.772 503.99,493.161 503.296,495.244 503.296,496.632 503.99,498.715 505.379,500.104 506.768,500.798 508.851,500.798 510.239,500.104 511.628,498.715 " />
<polyline points="517.183,491.078 517.183,500.798 " />
<polyline points="517.183,493.855 519.266,491.772 520.654,491.078 522.737,491.078 524.126,491.772 524.82,493.855 524.82,500.798 " />
<polyline points="529.68,495.244 538.012,495.244 538.012,493.855 537.318,492.466 536.624,491.772 535.235,491.078 533.152,491.078 531.763,491.772 530.375,493.161 529.68,495.244 529.68,496.632 530.375,498.715 531.763,500.104 533.152,500.798 535.235,500.798 536.624,500.104 538.012,498.715 " />
<polyline points="549.816,493.161 549.122,491.772 547.039,491.078 544.956,491.078 542.873,491.772 542.178,493.161 542.873,494.549 544.261,495.244 547.733,495.938 549.122,496.632 549.816,498.021 549.816,498.715 549.122,500.104 547.039,500.798 544.956,500.798 542.873,500.104 542.178,498.715 " />
<polyline points="217.883,455.01 398.378,455.01 " />
<polyline points="922.154,341.572 920.766,342.96 919.377,345.043 917.988,347.821 917.294,351.292 917.294,354.07 917.988,357.541 919.377,360.319 920.766,362.402 922.154,363.79 " />
<polyline points="924.931,344.349 930.486,358.93 " />
<polyline points="936.041,344.349 930.486,358.93 " />
<polyline points="946.456,351.292 945.761,349.904 943.678,349.209 941.595,349.209 939.512,349.904 938.818,351.292 939.512,352.681 940.901,353.375 944.373,354.07 945.761,354.764 946.456,356.153 946.456,356.847 945.761,358.236 943.678,358.93 941.595,358.93 939.512,358.236 938.818,356.847 " />
<polyline points="950.621,341.572 952.01,342.96 953.399,345.043 954.787,347.821 955.482,351.292 955.482,354.07 954.787,357.541 953.399,360.319 952.01,362.402 950.621,363.79 " />
<polyline points="800.571,286.728 800.571,263.398 " />
<polyline points="654.763,286.728 654.763,263.398 " />
<polyline points="800.571,286.728 654.763,286.728 " />
<polyline points="601.568,87.7243 601.568,233.532 " />
<polyline points="654.763,233.532 626.841,233.532 " />
<polyline points="800.571,87.7243 626.841,87.7243 " />
<polyline points="800.571,261.454 654.763,261.454 " />
<polyline points="800.571,263.398 654.763,263.398 " />
<path d="M800.571,263.398  A0.972054,0.972054 0 0,0 800.571,261.454 " />
<polyline points="800.571,261.454 800.571,87.7243 " />
<path d="M654.763,261.454  A0.972054,0.972054 0 0,0 654.763,263.398 " />
<polyline points="654.763,261.454 654.763,233.532 " />
<polyline points="624.897,87.7243 624.897,233.532 " />
<polyline points="626.841,87.7243 626.841,233.532 " />
<path d="M624.897,233.532  A0.972054,0.972054 0 0,0 626.841,233.532 " />
<polyline points="624.897,233.532 601.568,233.532 " />
<path d="M626.841,87.7243  A0.972054,0.972054 0 0,0 624.897,87.7243 " />
<polyline points="624.897,87.7243 601.568,87.7243 " />
<polyline points="588.884,233.532 441.451,233.532 " />
<polyline points="588.884,87.7243 441.451,87.7243 " />
<polyline points="458.948,218.952 458.948,182.5 " />
<polyline points="458.948,102.305 458.948,138.757 " />
</g>
<g clip-path="url(#clipId0)" fill="rgb(0,0,0)" stroke="rgb(0,0,0)" stroke-width="0.25" >
<path d="M461.378,218.952 456.518,218.952 458.948,233.532 458.948,233.532 z" />
<path d="M461.378,102.305 456.518,102.305 458.948,87.7243 458.948,87.7243 z" />
</g>
<g clip-path="url(#clipId0)" fill="none" stroke="rgb(0,0,0)" stroke-width="0.25" >
<polyline points="456.865,153.338 456.865,167.919 " />
<polyline points="456.865,153.338 461.725,153.338 463.808,154.032 465.197,155.421 465.891,156.81 466.585,158.893 466.585,162.364 465.891,164.447 465.197,165.836 463.808,167.224 461.725,167.919 456.865,167.919 " />
<polyline points="654.763,233.532 800.571,87.7243 " />
<polyline points="398.378,455.01 601.17,455.01 " />
<polyline points="398.378,690.521 601.17,690.521 " />
<polyline points="10.0392,455.01 217.883,455.01 " />
<polyline points="10.0392,690.521 10.0392,455.01 " />
<polyline points="10.0392,690.521 217.883,690.521 " />
<polyline points="97.6525,462.266 97.6525,476.847 " />
<polyline points="97.6525,462.266 102.513,462.266 104.596,462.961 105.984,464.349 106.679,465.738 107.373,467.821 107.373,471.293 106.679,473.376 105.984,474.764 104.596,476.153 102.513,476.847 97.6525,476.847 " />
<polyline points="80.3478,483.096 78.9592,484.485 77.5705,486.568 76.1819,489.345 75.4875,492.817 75.4875,495.594 76.1819,499.066 77.5705,501.843 78.9592,503.926 80.3478,505.315 " />
<polyline points="85.2081,490.734 85.2081,500.454 " />
<polyline points="85.2081,493.511 87.2911,491.428 88.6797,490.734 90.7627,490.734 92.1513,491.428 92.8456,493.511 92.8456,500.454 " />
<polyline points="92.8456,493.511 94.9286,491.428 96.3173,490.734 98.4002,490.734 99.7889,491.428 100.483,493.511 100.483,500.454 " />
<polyline points="106.038,490.734 106.038,500.454 " />
<polyline points="106.038,493.511 108.121,491.428 109.509,490.734 111.592,490.734 112.981,491.428 113.675,493.511 113.675,500.454 " />
<polyline points="113.675,493.511 115.758,491.428 117.147,490.734 119.23,490.734 120.619,491.428 121.313,493.511 121.313,500.454 " />
<polyline points="126.173,483.096 127.562,484.485 128.951,486.568 130.339,489.345 131.033,492.817 131.033,495.594 130.339,499.066 128.951,501.843 127.562,503.926 126.173,505.315 " />
<polyline points="62.3488,518.027 55.4055,532.608 " />
<polyline points="52.6282,518.027 62.3488,518.027 " />
<polyline points="74.8466,518.027 67.9034,518.027 67.209,524.276 67.9034,523.582 69.9863,522.888 72.0693,522.888 74.1523,523.582 75.5409,524.971 76.2352,527.054 76.2352,528.442 75.5409,530.525 74.1523,531.914 72.0693,532.608 69.9863,532.608 67.9034,531.914 67.209,531.22 66.5147,529.831 " />
<polyline points="95.6763,526.359 108.174,526.359 " />
<polyline points="128.31,521.499 128.31,520.805 129.004,519.416 129.698,518.722 131.087,518.027 133.864,518.027 135.253,518.722 135.947,519.416 136.641,520.805 136.641,522.193 135.947,523.582 134.558,525.665 127.615,532.608 137.336,532.608 " />
<polyline points="148.445,518.027 141.502,527.748 151.917,527.748 " />
<polyline points="148.445,518.027 148.445,532.608 " />
<polyline points="159.554,518.027 157.471,518.722 156.083,520.805 155.388,524.276 155.388,526.359 156.083,529.831 157.471,531.914 159.554,532.608 160.943,532.608 163.026,531.914 164.414,529.831 165.109,526.359 165.109,524.276 164.414,520.805 163.026,518.722 160.943,518.027 159.554,518.027 " />
<polyline points="45.1565,553.653 45.1565,552.959 45.8508,551.57 46.5451,550.876 47.9338,550.181 50.7111,550.181 52.0997,550.876 52.7941,551.57 53.4884,552.959 53.4884,554.347 52.7941,555.736 51.4054,557.819 44.4622,564.762 54.1827,564.762 " />
<polyline points="66.6805,550.181 59.7373,550.181 59.043,556.43 59.7373,555.736 61.8203,555.042 63.9032,555.042 65.9862,555.736 67.3749,557.125 68.0692,559.208 68.0692,560.596 67.3749,562.679 65.9862,564.068 63.9032,564.762 61.8203,564.762 59.7373,564.068 59.043,563.374 58.3487,561.985 " />
<polyline points="76.4011,550.181 74.3181,550.876 72.9295,552.959 72.2351,556.43 72.2351,558.513 72.9295,561.985 74.3181,564.068 76.4011,564.762 77.7897,564.762 79.8727,564.068 81.2614,561.985 81.9557,558.513 81.9557,556.43 81.2614,552.959 79.8727,550.876 77.7897,550.181 76.4011,550.181 " />
<polyline points="101.397,558.513 113.895,558.513 " />
<polyline points="134.724,550.181 142.362,550.181 138.196,555.736 140.279,555.736 141.668,556.43 142.362,557.125 143.056,559.208 143.056,560.596 142.362,562.679 140.973,564.068 138.89,564.762 136.807,564.762 134.724,564.068 134.03,563.374 133.336,561.985 " />
<polyline points="147.916,553.653 147.916,552.959 148.611,551.57 149.305,550.876 150.694,550.181 153.471,550.181 154.86,550.876 155.554,551.57 156.248,552.959 156.248,554.347 155.554,555.736 154.165,557.819 147.222,564.762 156.943,564.762 " />
<polyline points="165.275,550.181 163.192,550.876 161.803,552.959 161.109,556.43 161.109,558.513 161.803,561.985 163.192,564.068 165.275,564.762 166.663,564.762 168.746,564.068 170.135,561.985 170.829,558.513 170.829,556.43 170.135,552.959 168.746,550.876 166.663,550.181 165.275,550.181 " />
<polyline points="45.8508,580.911 53.4884,580.911 49.3224,586.466 51.4054,586.466 52.7941,587.16 53.4884,587.854 54.1827,589.937 54.1827,591.326 53.4884,593.409 52.0997,594.797 50.0168,595.492 47.9338,595.492 45.8508,594.797 45.1565,594.103 44.4622,592.714 " />
<polyline points="59.7373,580.911 67.3749,580.911 63.2089,586.466 65.2919,586.466 66.6805,587.16 67.3749,587.854 68.0692,589.937 68.0692,591.326 67.3749,593.409 65.9862,594.797 63.9032,595.492 61.8203,595.492 59.7373,594.797 59.043,594.103 58.3487,592.714 " />
<polyline points="76.4011,580.911 74.3181,581.605 72.9295,583.688 72.2351,587.16 72.2351,589.243 72.9295,592.714 74.3181,594.797 76.4011,595.492 77.7897,595.492 79.8727,594.797 81.2614,592.714 81.9557,589.243 81.9557,587.16 81.2614,583.688 79.8727,581.605 77.7897,580.911 76.4011,580.911 " />
<polyline points="101.397,589.243 113.895,589.243 " />
<polyline points="140.279,580.911 133.336,590.631 143.751,590.631 " />
<polyline points="140.279,580.911 140.279,595.492 " />
<polyline points="150.694,580.911 148.611,581.605 147.916,582.994 147.916,584.383 148.611,585.771 149.999,586.466 152.777,587.16 154.86,587.854 156.248,589.243 156.943,590.631 156.943,592.714 156.248,594.103 155.554,594.797 153.471,595.492 150.694,595.492 148.611,594.797 147.916,594.103 147.222,592.714 147.222,590.631 147.916,589.243 149.305,587.854 151.388,587.16 154.165,586.466 155.554,585.771 156.248,584.383 156.248,582.994 155.554,581.605 153.471,580.911 150.694,580.911 " />
<polyline points="165.275,580.911 163.192,581.605 161.803,583.688 161.109,587.16 161.109,589.243 161.803,592.714 163.192,594.797 165.275,595.492 166.663,595.492 168.746,594.797 170.135,592.714 170.829,589.243 170.829,587.16 170.135,583.688 168.746,581.605 166.663,580.911 165.275,580.911 " />
<polyline points="44.628,608.791 37.6848,608.791 36.9904,615.04 37.6848,614.346 39.7677,613.652 41.8507,613.652 43.9337,614.346 45.3223,615.735 46.0167,617.818 46.0167,619.206 45.3223,621.289 43.9337,622.678 41.8507,623.372 39.7677,623.372 37.6848,622.678 36.9904,621.984 36.2961,620.595 " />
<polyline points="52.2656,611.569 53.6542,610.874 55.7372,608.791 55.7372,623.372 " />
<polyline points="68.235,608.791 66.1521,609.486 64.7634,611.569 64.0691,615.04 64.0691,617.123 64.7634,620.595 66.1521,622.678 68.235,623.372 69.6237,623.372 71.7067,622.678 73.0953,620.595 73.7896,617.123 73.7896,615.04 73.0953,611.569 71.7067,609.486 69.6237,608.791 68.235,608.791 " />
<polyline points="93.2307,617.123 105.729,617.123 " />
<polyline points="127.253,611.569 128.641,610.874 130.724,608.791 130.724,623.372 " />
<polyline points="147.388,608.791 140.445,608.791 139.75,615.04 140.445,614.346 142.528,613.652 144.611,613.652 146.694,614.346 148.082,615.735 148.777,617.818 148.777,619.206 148.082,621.289 146.694,622.678 144.611,623.372 142.528,623.372 140.445,622.678 139.75,621.984 139.056,620.595 " />
<polyline points="157.109,608.791 155.026,609.486 153.637,611.569 152.943,615.04 152.943,617.123 153.637,620.595 155.026,622.678 157.109,623.372 158.497,623.372 160.58,622.678 161.969,620.595 162.663,617.123 162.663,615.04 161.969,611.569 160.58,609.486 158.497,608.791 157.109,608.791 " />
<polyline points="170.995,608.791 168.912,609.486 167.523,611.569 166.829,615.04 166.829,617.123 167.523,620.595 168.912,622.678 170.995,623.372 172.384,623.372 174.467,622.678 175.855,620.595 176.55,617.123 176.55,615.04 175.855,611.569 174.467,609.486 172.384,608.791 170.995,608.791 " />
<polyline points="47.4615,652.341 46.0729,653.036 44.6842,654.424 43.9899,655.813 43.2956,657.896 43.2956,661.368 43.9899,663.451 44.6842,664.839 46.0729,666.228 47.4615,666.922 50.2388,666.922 51.6275,666.228 53.0161,664.839 53.7105,663.451 54.4048,661.368 54.4048,657.896 53.7105,655.813 53.0161,654.424 51.6275,653.036 50.2388,652.341 47.4615,652.341 " />
<polyline points="57.1821,652.341 62.7367,666.922 " />
<polyline points="68.2913,652.341 62.7367,666.922 " />
<polyline points="71.7629,652.341 71.7629,666.922 " />
<polyline points="71.7629,652.341 80.7891,652.341 " />
<polyline points="71.7629,659.285 77.3175,659.285 " />
<polyline points="71.7629,666.922 80.7891,666.922 " />
<polyline points="84.955,652.341 84.955,666.922 " />
<polyline points="84.955,652.341 91.204,652.341 93.2869,653.036 93.9813,653.73 94.6756,655.119 94.6756,656.507 93.9813,657.896 93.2869,658.59 91.204,659.285 84.955,659.285 " />
<polyline points="89.8153,659.285 94.6756,666.922 " />
<polyline points="115.505,655.119 116.894,654.424 118.977,652.341 118.977,666.922 " />
<polyline points="135.641,652.341 128.697,652.341 128.003,658.59 128.697,657.896 130.78,657.202 132.863,657.202 134.946,657.896 136.335,659.285 137.029,661.368 137.029,662.756 136.335,664.839 134.946,666.228 132.863,666.922 130.78,666.922 128.697,666.228 128.003,665.534 127.309,664.145 " />
<polyline points="145.361,652.341 143.278,653.036 141.89,655.119 141.195,658.59 141.195,660.673 141.89,664.145 143.278,666.228 145.361,666.922 146.75,666.922 148.833,666.228 150.222,664.145 150.916,660.673 150.916,658.59 150.222,655.119 148.833,653.036 146.75,652.341 145.361,652.341 " />
<polyline points="159.248,652.341 157.165,653.036 155.776,655.119 155.082,658.59 155.082,660.673 155.776,664.145 157.165,666.228 159.248,666.922 160.636,666.922 162.719,666.228 164.108,664.145 164.802,660.673 164.802,658.59 164.108,655.119 162.719,653.036 160.636,652.341 159.248,652.341 " />
<polyline points="400.018,641.681 401.407,640.987 403.49,638.904 403.49,653.485 " />
<polyline points="412.516,642.375 412.516,641.681 413.211,640.292 413.905,639.598 415.294,638.904 418.071,638.904 419.46,639.598 420.154,640.292 420.848,641.681 420.848,643.07 420.154,644.458 418.765,646.541 411.822,653.485 421.543,653.485 " />
<polyline points="440.289,639.598 440.984,640.292 441.678,639.598 440.984,638.904 440.289,639.598 " />
<polyline points="440.984,644.458 440.984,653.485 " />
<polyline points="446.538,643.764 446.538,653.485 " />
<polyline points="446.538,646.541 448.621,644.458 450.01,643.764 452.093,643.764 453.481,644.458 454.176,646.541 454.176,653.485 " />
<polyline points="460.425,652.096 459.73,652.79 460.425,653.485 461.119,652.79 460.425,652.096 " />
<polyline points="486.115,636.126 484.726,637.515 483.337,639.598 481.949,642.375 481.254,645.847 481.254,648.624 481.949,652.096 483.337,654.873 484.726,656.956 486.115,658.345 " />
<polyline points="491.669,638.904 499.307,638.904 495.141,644.458 497.224,644.458 498.613,645.153 499.307,645.847 500.001,647.93 500.001,649.319 499.307,651.402 497.918,652.79 495.835,653.485 493.752,653.485 491.669,652.79 490.975,652.096 490.281,650.707 " />
<polyline points="508.333,638.904 506.25,639.598 504.861,641.681 504.167,645.153 504.167,647.236 504.861,650.707 506.25,652.79 508.333,653.485 509.722,653.485 511.805,652.79 513.193,650.707 513.888,647.236 513.888,645.153 513.193,641.681 511.805,639.598 509.722,638.904 508.333,638.904 " />
<polyline points="522.22,638.904 520.137,639.598 518.748,641.681 518.054,645.153 518.054,647.236 518.748,650.707 520.137,652.79 522.22,653.485 523.608,653.485 525.691,652.79 527.08,650.707 527.774,647.236 527.774,645.153 527.08,641.681 525.691,639.598 523.608,638.904 522.22,638.904 " />
<polyline points="547.215,643.764 547.215,653.485 " />
<polyline points="547.215,646.541 549.298,644.458 550.687,643.764 552.77,643.764 554.158,644.458 554.853,646.541 554.853,653.485 " />
<polyline points="554.853,646.541 556.936,644.458 558.324,643.764 560.407,643.764 561.796,644.458 562.49,646.541 562.49,653.485 " />
<polyline points="568.045,643.764 568.045,653.485 " />
<polyline points="568.045,646.541 570.128,644.458 571.517,643.764 573.6,643.764 574.988,644.458 575.682,646.541 575.682,653.485 " />
<polyline points="575.682,646.541 577.765,644.458 579.154,643.764 581.237,643.764 582.626,644.458 583.32,646.541 583.32,653.485 " />
<polyline points="588.18,636.126 589.569,637.515 590.958,639.598 592.346,642.375 593.041,645.847 593.041,648.624 592.346,652.096 590.958,654.873 589.569,656.956 588.18,658.345 " />
<polyline points="419.628,662.511 419.628,677.092 " />
<polyline points="419.628,662.511 425.183,677.092 " />
<polyline points="430.737,662.511 425.183,677.092 " />
<polyline points="430.737,662.511 430.737,677.092 " />
<polyline points="439.764,662.511 434.209,677.092 " />
<polyline points="439.764,662.511 445.318,677.092 " />
<polyline points="436.292,672.231 443.235,672.231 " />
<polyline points="448.096,662.511 457.816,677.092 " />
<polyline points="457.816,662.511 448.096,677.092 " />
<polyline points="463.371,675.703 462.676,676.397 463.371,677.092 464.065,676.397 463.371,675.703 " />
<polyline points="493.227,664.594 491.838,663.205 489.755,662.511 486.978,662.511 484.895,663.205 483.506,664.594 483.506,665.982 484.2,667.371 484.895,668.065 486.283,668.76 490.449,670.148 491.838,670.843 492.532,671.537 493.227,672.926 493.227,675.009 491.838,676.397 489.755,677.092 486.978,677.092 484.895,676.397 483.506,675.009 " />
<polyline points="498.087,662.511 498.087,677.092 " />
<polyline points="498.087,662.511 504.336,662.511 506.419,663.205 507.113,663.899 507.807,665.288 507.807,667.371 507.113,668.76 506.419,669.454 504.336,670.148 498.087,670.148 " />
<polyline points="516.139,662.511 510.585,677.092 " />
<polyline points="516.139,662.511 521.694,677.092 " />
<polyline points="512.668,672.231 519.611,672.231 " />
<polyline points="534.886,665.982 534.192,664.594 532.803,663.205 531.414,662.511 528.637,662.511 527.248,663.205 525.86,664.594 525.166,665.982 524.471,668.065 524.471,671.537 525.166,673.62 525.86,675.009 527.248,676.397 528.637,677.092 531.414,677.092 532.803,676.397 534.192,675.009 534.886,673.62 " />
<polyline points="539.746,662.511 539.746,677.092 " />
<polyline points="545.301,662.511 545.301,677.092 " />
<polyline points="545.301,662.511 555.021,677.092 " />
<polyline points="555.021,662.511 555.021,677.092 " />
<polyline points="570.297,665.982 569.602,664.594 568.214,663.205 566.825,662.511 564.048,662.511 562.659,663.205 561.27,664.594 560.576,665.982 559.882,668.065 559.882,671.537 560.576,673.62 561.27,675.009 562.659,676.397 564.048,677.092 566.825,677.092 568.214,676.397 569.602,675.009 570.297,673.62 570.297,671.537 " />
<polyline points="566.825,671.537 570.297,671.537 " />
<polyline points="250.446,651.724 249.058,652.419 247.669,653.807 246.975,655.196 246.28,657.279 246.28,660.75 246.975,662.833 247.669,664.222 249.058,665.611 250.446,666.305 253.224,666.305 254.612,665.611 256.001,664.222 256.695,662.833 257.389,660.75 257.389,657.279 256.695,655.196 256.001,653.807 254.612,652.419 253.224,651.724 250.446,651.724 " />
<polyline points="260.167,651.724 265.721,666.305 " />
<polyline points="271.276,651.724 265.721,666.305 " />
<polyline points="274.748,651.724 274.748,666.305 " />
<polyline points="274.748,651.724 283.774,651.724 " />
<polyline points="274.748,658.667 280.302,658.667 " />
<polyline points="274.748,666.305 283.774,666.305 " />
<polyline points="287.94,651.724 287.94,666.305 " />
<polyline points="287.94,651.724 294.189,651.724 296.272,652.419 296.966,653.113 297.66,654.502 297.66,655.89 296.966,657.279 296.272,657.973 294.189,658.667 287.94,658.667 " />
<polyline points="292.8,658.667 297.66,666.305 " />
<polyline points="325.433,653.807 324.739,652.419 322.656,651.724 321.267,651.724 319.184,652.419 317.796,654.502 317.101,657.973 317.101,661.445 317.796,664.222 319.184,665.611 321.267,666.305 321.962,666.305 324.045,665.611 325.433,664.222 326.128,662.139 326.128,661.445 325.433,659.362 324.045,657.973 321.962,657.279 321.267,657.279 319.184,657.973 317.796,659.362 317.101,661.445 " />
<polyline points="334.459,651.724 332.376,652.419 330.988,654.502 330.294,657.973 330.294,660.056 330.988,663.528 332.376,665.611 334.459,666.305 335.848,666.305 337.931,665.611 339.32,663.528 340.014,660.056 340.014,657.973 339.32,654.502 337.931,652.419 335.848,651.724 334.459,651.724 " />
</g>
<g clip-path="url(#clipId0)" fill="rgb(0,0,0)" stroke="rgb(0,0,0)" stroke-width="0.25" >
<path d="M573.512,158.198 573.512,163.058 588.093,160.628 588.093,160.628 z" />
</g>
<g clip-path="url(#clipId0)" fill="none" stroke="rgb(0,0,0)" stroke-width="0.25" >
<polyline points="573.512,160.628 509.305,160.628 " />
<polyline points="529.458,134.729 528.069,135.423 526.681,136.812 525.986,138.201 525.292,140.284 525.292,143.755 525.986,145.838 526.681,147.227 528.069,148.616 529.458,149.31 532.235,149.31 533.624,148.616 535.013,147.227 535.707,145.838 536.401,143.755 536.401,140.284 535.707,138.201 535.013,136.812 533.624,135.423 532.235,134.729 529.458,134.729 " />
<polyline points="531.541,146.533 535.707,150.699 " />
<polyline points="545.311,186.169 543.922,186.864 542.534,188.252 541.839,190.335 541.839,191.724 542.534,193.807 543.922,195.196 545.311,195.89 547.394,195.89 548.783,195.196 550.171,193.807 550.866,191.724 550.866,190.335 550.171,188.252 548.783,186.864 547.394,186.169 545.311,186.169 " />
<polyline points="528.96,167.764 523.406,182.345 " />
<polyline points="528.96,167.764 534.515,182.345 " />
<polyline points="525.489,177.484 532.432,177.484 " />
<path d="M689.129,233.529  A34.3621,34.3621 0 0,0 654.767,199.167 " />
<path d="M713.43,209.227  A34.3621,34.3621 0 0,0 679.068,174.865 " />
<path d="M737.732,184.926  A34.3621,34.3621 0 0,0 703.369,150.564 " />
<path d="M762.033,160.625  A34.3621,34.3621 0 0,0 727.671,126.263 " />
<path d="M786.334,136.323  A34.3621,34.3621 0 0,0 751.972,101.961 " />
<polyline points="771.239,91.3324 788.277,51.5478 " />
<polyline points="788.277,51.5478 802.858,51.5478 " />
</g>
<g clip-path="url(#clipId0)" fill="rgb(0,0,0)" stroke="rgb(0,0,0)" stroke-width="0.25" >
<path d="M773.473,92.289 769.005,90.3757 765.499,104.736 765.499,104.736 z" />
</g>
<g clip-path="url(#clipId0)" fill="none" stroke="rgb(0,0,0)" stroke-width="0.25" >
<polyline points="827.001,44.2574 832.556,58.8382 " />
<polyline points="838.11,44.2574 832.556,58.8382 " />
<polyline points="849.22,49.1177 849.22,58.8382 " />
<polyline points="849.22,51.2007 847.831,49.812 846.442,49.1177 844.359,49.1177 842.971,49.812 841.582,51.2007 840.888,53.2836 840.888,54.6723 841.582,56.7553 842.971,58.1439 844.359,58.8382 846.442,58.8382 847.831,58.1439 849.22,56.7553 " />
<polyline points="854.774,49.1177 854.774,58.8382 " />
<polyline points="854.774,51.895 856.857,49.812 858.246,49.1177 860.329,49.1177 861.717,49.812 862.412,51.895 862.412,58.8382 " />
<polyline points="867.272,53.2836 875.604,53.2836 875.604,51.895 874.91,50.5063 874.215,49.812 872.827,49.1177 870.744,49.1177 869.355,49.812 867.966,51.2007 867.272,53.2836 867.272,54.6723 867.966,56.7553 869.355,58.1439 870.744,58.8382 872.827,58.8382 874.215,58.1439 875.604,56.7553 " />
<polyline points="895.045,44.2574 895.045,58.8382 " />
<polyline points="895.045,44.2574 901.294,44.2574 903.377,44.9517 904.071,45.6461 904.766,47.0347 904.766,48.4234 904.071,49.812 903.377,50.5063 901.294,51.2007 895.045,51.2007 " />
<polyline points="899.905,51.2007 904.766,58.8382 " />
<polyline points="917.263,49.1177 917.263,58.8382 " />
<polyline points="917.263,51.2007 915.875,49.812 914.486,49.1177 912.403,49.1177 911.014,49.812 909.626,51.2007 908.932,53.2836 908.932,54.6723 909.626,56.7553 911.014,58.1439 912.403,58.8382 914.486,58.8382 915.875,58.1439 917.263,56.7553 " />
<polyline points="930.456,44.2574 930.456,58.8382 " />
<polyline points="930.456,51.2007 929.067,49.812 927.678,49.1177 925.595,49.1177 924.207,49.812 922.818,51.2007 922.124,53.2836 922.124,54.6723 922.818,56.7553 924.207,58.1439 925.595,58.8382 927.678,58.8382 929.067,58.1439 930.456,56.7553 " />
<polyline points="935.316,44.9517 936.01,45.6461 936.704,44.9517 936.01,44.2574 935.316,44.9517 " />
<polyline points="936.01,49.812 936.01,58.8382 " />
<polyline points="941.565,49.1177 941.565,56.0609 942.259,58.1439 943.648,58.8382 945.731,58.8382 947.119,58.1439 949.202,56.0609 " />
<polyline points="949.202,49.1177 949.202,58.8382 " />
<polyline points="961.7,51.2007 961.006,49.812 958.923,49.1177 956.84,49.1177 954.757,49.812 954.063,51.2007 954.757,52.5893 956.146,53.2836 959.617,53.978 961.006,54.6723 961.7,56.0609 961.7,56.7553 961.006,58.1439 958.923,58.8382 956.84,58.8382 954.757,58.1439 954.063,56.7553 " />
<polyline points="981.439,40.8742 980.05,42.2629 978.661,44.3459 977.273,47.1232 976.578,50.5948 976.578,53.3721 977.273,56.8437 978.661,59.621 980.05,61.704 981.439,63.0926 " />
<polyline points="984.216,43.6515 989.771,58.2324 " />
<polyline points="995.325,43.6515 989.771,58.2324 " />
<polyline points="998.797,48.5118 998.797,58.2324 " />
<polyline points="998.797,52.6778 999.491,50.5948 1000.88,49.2061 1002.27,48.5118 1004.35,48.5118 " />
<polyline points="1007.13,40.8742 1008.52,42.2629 1009.91,44.3459 1011.29,47.1232 1011.99,50.5948 1011.99,53.3721 1011.29,56.8437 1009.91,59.621 1008.52,61.704 1007.13,63.0926 " />
<polyline points="12.1129,289.584 17.6675,304.165 " />
<polyline points="23.2221,289.584 17.6675,304.165 " />
<polyline points="34.3313,294.444 34.3313,304.165 " />
<polyline points="34.3313,296.527 32.9426,295.138 31.554,294.444 29.471,294.444 28.0824,295.138 26.6937,296.527 25.9994,298.61 25.9994,299.999 26.6937,302.082 28.0824,303.47 29.471,304.165 31.554,304.165 32.9426,303.47 34.3313,302.082 " />
<polyline points="39.8859,294.444 39.8859,304.165 " />
<polyline points="39.8859,297.221 41.9689,295.138 43.3575,294.444 45.4405,294.444 46.8291,295.138 47.5235,297.221 47.5235,304.165 " />
<polyline points="52.3837,298.61 60.7156,298.61 60.7156,297.221 60.0213,295.833 59.327,295.138 57.9383,294.444 55.8553,294.444 54.4667,295.138 53.078,296.527 52.3837,298.61 52.3837,299.999 53.078,302.082 54.4667,303.47 55.8553,304.165 57.9383,304.165 59.327,303.47 60.7156,302.082 " />
<polyline points="89.1829,291.667 87.7943,290.278 85.7113,289.584 82.934,289.584 80.851,290.278 79.4624,291.667 79.4624,293.055 80.1567,294.444 80.851,295.138 82.2397,295.833 86.4056,297.221 87.7943,297.916 88.4886,298.61 89.1829,299.999 89.1829,302.082 87.7943,303.47 85.7113,304.165 82.934,304.165 80.851,303.47 79.4624,302.082 " />
<polyline points="94.0432,294.444 94.0432,309.025 " />
<polyline points="94.0432,296.527 95.4318,295.138 96.8205,294.444 98.9034,294.444 100.292,295.138 101.681,296.527 102.375,298.61 102.375,299.999 101.681,302.082 100.292,303.47 98.9034,304.165 96.8205,304.165 95.4318,303.47 94.0432,302.082 " />
<polyline points="114.873,294.444 114.873,304.165 " />
<polyline points="114.873,296.527 113.484,295.138 112.096,294.444 110.013,294.444 108.624,295.138 107.235,296.527 106.541,298.61 106.541,299.999 107.235,302.082 108.624,303.47 110.013,304.165 112.096,304.165 113.484,303.47 114.873,302.082 " />
<polyline points="128.065,296.527 126.676,295.138 125.288,294.444 123.205,294.444 121.816,295.138 120.427,296.527 119.733,298.61 119.733,299.999 120.427,302.082 121.816,303.47 123.205,304.165 125.288,304.165 126.676,303.47 128.065,302.082 " />
<polyline points="132.231,290.278 132.925,290.972 133.62,290.278 132.925,289.584 132.231,290.278 " />
<polyline points="132.925,295.138 132.925,304.165 " />
<polyline points="138.48,294.444 138.48,304.165 " />
<polyline points="138.48,297.221 140.563,295.138 141.952,294.444 144.035,294.444 145.423,295.138 146.117,297.221 146.117,304.165 " />
<polyline points="159.31,294.444 159.31,305.553 158.615,307.636 157.921,308.331 156.532,309.025 154.449,309.025 153.061,308.331 " />
<polyline points="159.31,296.527 157.921,295.138 156.532,294.444 154.449,294.444 153.061,295.138 151.672,296.527 150.978,298.61 150.978,299.999 151.672,302.082 153.061,303.47 154.449,304.165 156.532,304.165 157.921,303.47 159.31,302.082 " />
<polyline points="184.305,286.806 182.917,288.195 181.528,290.278 180.139,293.055 179.445,296.527 179.445,299.304 180.139,302.776 181.528,305.553 182.917,307.636 184.305,309.025 " />
<polyline points="187.083,289.584 192.637,304.165 " />
<polyline points="198.192,289.584 192.637,304.165 " />
<polyline points="208.607,296.527 207.912,295.138 205.829,294.444 203.746,294.444 201.663,295.138 200.969,296.527 201.663,297.916 203.052,298.61 206.524,299.304 207.912,299.999 208.607,301.387 208.607,302.082 207.912,303.47 205.829,304.165 203.746,304.165 201.663,303.47 200.969,302.082 " />
<polyline points="212.773,286.806 214.161,288.195 215.55,290.278 216.939,293.055 217.633,296.527 217.633,299.304 216.939,302.776 215.55,305.553 214.161,307.636 212.773,309.025 " />
<polyline points="223.882,294.444 223.187,295.138 223.882,295.833 224.576,295.138 223.882,294.444 " />
<polyline points="223.882,302.776 223.187,303.47 223.882,304.165 224.576,303.47 223.882,302.776 " />
<polyline points="12.1129,313.191 17.6675,327.772 " />
<polyline points="23.2221,313.191 17.6675,327.772 " />
<polyline points="33.637,320.134 32.9426,318.745 30.8597,318.051 28.7767,318.051 26.6937,318.745 25.9994,320.134 26.6937,321.523 28.0824,322.217 31.554,322.911 32.9426,323.606 33.637,324.994 33.637,325.689 32.9426,327.077 30.8597,327.772 28.7767,327.772 26.6937,327.077 25.9994,325.689 " />
<polyline points="38.4972,319.44 50.9951,319.44 " />
<polyline points="38.4972,323.606 50.9951,323.606 " />
<polyline points="56.5497,313.191 56.5497,327.772 " />
<polyline points="56.5497,313.191 61.4099,313.191 63.4929,313.885 64.8816,315.274 65.5759,316.662 66.2702,318.745 66.2702,322.217 65.5759,324.3 64.8816,325.689 63.4929,327.077 61.4099,327.772 56.5497,327.772 " />
<polyline points="82.2397,310.414 69.7418,332.632 " />
<polyline points="91.2659,310.414 89.8772,311.802 88.4886,313.885 87.0999,316.662 86.4056,320.134 86.4056,322.911 87.0999,326.383 88.4886,329.16 89.8772,331.243 91.2659,332.632 " />
<polyline points="96.1261,313.191 96.1261,327.772 " />
<polyline points="96.1261,313.191 105.847,327.772 " />
<polyline points="105.847,313.191 105.847,327.772 " />
<polyline points="114.179,318.051 112.79,318.745 111.401,320.134 110.707,322.217 110.707,323.606 111.401,325.689 112.79,327.077 114.179,327.772 116.262,327.772 117.65,327.077 119.039,325.689 119.733,323.606 119.733,322.217 119.039,320.134 117.65,318.745 116.262,318.051 114.179,318.051 " />
<polyline points="125.288,326.383 124.593,327.077 125.288,327.772 125.982,327.077 125.288,326.383 " />
<polyline points="144.035,313.191 149.589,327.772 " />
<polyline points="155.144,313.191 149.589,327.772 " />
<polyline points="166.253,318.051 166.253,327.772 " />
<polyline points="166.253,320.134 164.864,318.745 163.476,318.051 161.393,318.051 160.004,318.745 158.615,320.134 157.921,322.217 157.921,323.606 158.615,325.689 160.004,327.077 161.393,327.772 163.476,327.772 164.864,327.077 166.253,325.689 " />
<polyline points="171.807,318.051 171.807,327.772 " />
<polyline points="171.807,320.828 173.89,318.745 175.279,318.051 177.362,318.051 178.751,318.745 179.445,320.828 179.445,327.772 " />
<polyline points="184.305,322.217 192.637,322.217 192.637,320.828 191.943,319.44 191.249,318.745 189.86,318.051 187.777,318.051 186.388,318.745 185,320.134 184.305,322.217 184.305,323.606 185,325.689 186.388,327.077 187.777,327.772 189.86,327.772 191.249,327.077 192.637,325.689 " />
<polyline points="204.441,320.134 203.746,318.745 201.663,318.051 199.58,318.051 197.497,318.745 196.803,320.134 197.497,321.523 198.886,322.217 202.358,322.911 203.746,323.606 204.441,324.994 204.441,325.689 203.746,327.077 201.663,327.772 199.58,327.772 197.497,327.077 196.803,325.689 " />
<polyline points="230.131,315.274 230.131,327.772 " />
<polyline points="223.882,321.523 236.38,321.523 " />
<polyline points="257.904,315.968 259.292,315.274 261.375,313.191 261.375,327.772 " />
<polyline points="269.707,310.414 271.096,311.802 272.484,313.885 273.873,316.662 274.567,320.134 274.567,322.911 273.873,326.383 272.484,329.16 271.096,331.243 269.707,332.632 " />
<polyline points="12.1129,360.405 17.6675,374.986 " />
<polyline points="23.2221,360.405 17.6675,374.986 " />
<polyline points="34.3313,365.265 34.3313,374.986 " />
<polyline points="34.3313,367.348 32.9426,365.959 31.554,365.265 29.471,365.265 28.0824,365.959 26.6937,367.348 25.9994,369.431 25.9994,370.82 26.6937,372.903 28.0824,374.291 29.471,374.986 31.554,374.986 32.9426,374.291 34.3313,372.903 " />
<polyline points="39.8859,365.265 39.8859,374.986 " />
<polyline points="39.8859,368.042 41.9689,365.959 43.3575,365.265 45.4405,365.265 46.8291,365.959 47.5235,368.042 47.5235,374.986 " />
<polyline points="52.3837,369.431 60.7156,369.431 60.7156,368.042 60.0213,366.654 59.327,365.959 57.9383,365.265 55.8553,365.265 54.4667,365.959 53.078,367.348 52.3837,369.431 52.3837,370.82 53.078,372.903 54.4667,374.291 55.8553,374.986 57.9383,374.986 59.327,374.291 60.7156,372.903 " />
<polyline points="80.1567,360.405 80.1567,374.986 " />
<polyline points="80.1567,360.405 86.4056,360.405 88.4886,361.099 89.1829,361.794 89.8772,363.182 89.8772,364.571 89.1829,365.959 88.4886,366.654 86.4056,367.348 80.1567,367.348 " />
<polyline points="85.017,367.348 89.8772,374.986 " />
<polyline points="102.375,365.265 102.375,374.986 " />
<polyline points="102.375,367.348 100.986,365.959 99.5978,365.265 97.5148,365.265 96.1261,365.959 94.7375,367.348 94.0432,369.431 94.0432,370.82 94.7375,372.903 96.1261,374.291 97.5148,374.986 99.5978,374.986 100.986,374.291 102.375,372.903 " />
<polyline points="115.567,360.405 115.567,374.986 " />
<polyline points="115.567,367.348 114.179,365.959 112.79,365.265 110.707,365.265 109.318,365.959 107.93,367.348 107.235,369.431 107.235,370.82 107.93,372.903 109.318,374.291 110.707,374.986 112.79,374.986 114.179,374.291 115.567,372.903 " />
<polyline points="120.427,361.099 121.122,361.794 121.816,361.099 121.122,360.405 120.427,361.099 " />
<polyline points="121.122,365.959 121.122,374.986 " />
<polyline points="126.676,365.265 126.676,372.208 127.371,374.291 128.759,374.986 130.842,374.986 132.231,374.291 134.314,372.208 " />
<polyline points="134.314,365.265 134.314,374.986 " />
<polyline points="146.812,367.348 146.117,365.959 144.035,365.265 141.952,365.265 139.869,365.959 139.174,367.348 139.869,368.737 141.257,369.431 144.729,370.125 146.117,370.82 146.812,372.208 146.812,372.903 146.117,374.291 144.035,374.986 141.952,374.986 139.869,374.291 139.174,372.903 " />
<polyline points="171.113,357.628 169.725,359.016 168.336,361.099 166.947,363.876 166.253,367.348 166.253,370.125 166.947,373.597 168.336,376.374 169.725,378.457 171.113,379.846 " />
<polyline points="173.89,360.405 179.445,374.986 " />
<polyline points="185,360.405 179.445,374.986 " />
<polyline points="188.471,365.265 188.471,374.986 " />
<polyline points="188.471,369.431 189.166,367.348 190.554,365.959 191.943,365.265 194.026,365.265 " />
<polyline points="196.803,357.628 198.192,359.016 199.58,361.099 200.969,363.876 201.663,367.348 201.663,370.125 200.969,373.597 199.58,376.374 198.192,378.457 196.803,379.846 " />
<polyline points="207.912,365.265 207.218,365.959 207.912,366.654 208.607,365.959 207.912,365.265 " />
<polyline points="207.912,373.597 207.218,374.291 207.912,374.986 208.607,374.291 207.912,373.597 " />
<polyline points="12.1129,384.012 17.6675,398.593 " />
<polyline points="23.2221,384.012 17.6675,398.593 " />
<polyline points="26.6937,388.872 26.6937,398.593 " />
<polyline points="26.6937,393.038 27.3881,390.955 28.7767,389.566 30.1653,388.872 32.2483,388.872 " />
<polyline points="35.7199,390.261 48.2178,390.261 " />
<polyline points="35.7199,394.427 48.2178,394.427 " />
<polyline points="55.161,386.789 56.5497,386.095 58.6326,384.012 58.6326,398.593 " />
<polyline points="68.3532,397.204 67.6589,397.898 68.3532,398.593 69.0475,397.898 68.3532,397.204 " />
<polyline points="80.851,384.012 73.9078,393.732 84.3226,393.732 " />
<polyline points="80.851,384.012 80.851,398.593 " />
<polyline points="89.8772,386.789 91.2659,386.095 93.3488,384.012 93.3488,398.593 " />
<polyline points="108.624,384.012 101.681,393.732 112.096,393.732 " />
<polyline points="108.624,384.012 108.624,398.593 " />
<polyline points="128.759,384.012 134.314,398.593 " />
<polyline points="139.869,384.012 134.314,398.593 " />
<polyline points="150.283,390.955 149.589,389.566 147.506,388.872 145.423,388.872 143.34,389.566 142.646,390.955 143.34,392.344 144.729,393.038 148.2,393.732 149.589,394.427 150.283,395.815 150.283,396.51 149.589,397.898 147.506,398.593 145.423,398.593 143.34,397.898 142.646,396.51 " />
<polyline points="509.305,160.628 494.595,160.628 " />
<polyline points="904.998,710.832 903.98,708.796 901.943,706.759 899.906,705.741 895.833,705.741 893.796,706.759 891.76,708.796 890.741,710.832 889.723,713.887 889.723,718.979 890.741,722.034 891.76,724.071 893.796,726.107 895.833,727.126 899.906,727.126 901.943,726.107 903.98,724.071 904.998,722.034 " />
<polyline points="912.127,705.741 912.127,727.126 " />
<polyline points="912.127,705.741 919.255,705.741 922.31,706.759 924.347,708.796 925.365,710.832 926.383,713.887 926.383,718.979 925.365,722.034 924.347,724.071 922.31,726.107 919.255,727.126 912.127,727.126 " />
<polyline points="934.53,705.741 945.732,705.741 939.622,713.887 942.677,713.887 944.714,714.906 945.732,715.924 946.75,718.979 946.75,721.016 945.732,724.071 943.695,726.107 940.64,727.126 937.585,727.126 934.53,726.107 933.512,725.089 932.493,723.052 " />
<polyline points="953.879,717.961 972.209,717.961 " />
<polyline points="980.355,710.832 980.355,709.814 981.374,707.777 982.392,706.759 984.429,705.741 988.502,705.741 990.539,706.759 991.557,707.777 992.576,709.814 992.576,711.851 991.557,713.887 989.521,716.942 979.337,727.126 993.594,727.126 " />
<polyline points="1005.81,705.741 1002.76,706.759 1000.72,709.814 999.704,714.906 999.704,717.961 1000.72,723.052 1002.76,726.107 1005.81,727.126 1007.85,727.126 1010.91,726.107 1012.94,723.052 1013.96,717.961 1013.96,714.906 1012.94,709.814 1010.91,706.759 1007.85,705.741 1005.81,705.741 " />
</g>
</svg>
