<?xml version="1.0" standalone="no"?>
<svg viewBox="0 0 1024 768" version="1.1" xmlns="http://www.w3.org/2000/svg" xmlns:xlink="http://www.w3.org/1999/xlink" stroke-linecap="round" stroke-linejoin="round" fill-rule="evenodd" xml:space="preserve" >
<defs >
<clipPath id="clipId0" >
<path d="M0,768 1024,768 1024,0 0,0 z" />
</clipPath>
</defs>
<g clip-path="url(#clipId0)" fill="none" stroke="rgb(0,0,0)" stroke-width="0.1" />
<g clip-path="url(#clipId0)" fill="none" stroke="rgb(0,0,0)" stroke-width="0.25" >
<polyline points="827.175,197.182 784.035,179.313 " />
<polyline points="715.494,466.803 672.355,448.934 " />
<polyline points="827.175,197.182 715.494,466.803 " />
<polyline points="475,127.13 475,418.966 " />
<polyline points="600.005,418.966 525.585,418.966 " />
<polyline points="658.055,127.13 525.585,127.13 " />
<polyline points="780.44,177.824 668.76,447.445 " />
<polyline points="784.035,179.313 672.355,448.934 " />
<path d="M784.035,179.313  A1.94557,1.94557 0 1,0 780.44,177.824 " />
<polyline points="780.44,177.824 658.055,127.13 " />
<path d="M668.76,447.445  A1.94557,1.94557 0 0,0 672.355,448.934 " />
<polyline points="668.76,447.445 600.005,418.966 " />
<polyline points="521.694,127.13 521.694,418.966 " />
<polyline points="525.585,127.13 525.585,418.966 " />
<path d="M521.694,418.966  A1.94557,1.94557 0 0,0 525.585,418.966 " />
<polyline points="521.694,418.966 475,418.966 " />
<path d="M525.585,127.13  A1.94557,1.94557 0 0,0 521.694,127.13 " />
<polyline points="521.694,127.13 475,127.13 " />
<polyline points="450.849,418.966 194.245,418.966 " />
<polyline points="450.849,127.13 194.245,127.13 " />
<polyline points="229.265,389.783 229.265,316.824 " />
<polyline points="229.265,156.314 229.265,229.273 " />
</g>
<g clip-path="url(#clipId0)" fill="rgb(0,0,0)" stroke="rgb(0,0,0)" stroke-width="0.25" >
<path d="M234.129,389.783 224.401,389.783 229.265,418.966 229.265,418.966 z" />
<path d="M234.129,156.314 224.401,156.314 229.265,127.13 229.265,127.13 z" />
</g>
<g clip-path="url(#clipId0)" fill="none" stroke="rgb(0,0,0)" stroke-width="0.25" >
<polyline points="225.096,258.457 225.096,287.64 " />
<polyline points="225.096,258.457 234.824,258.457 238.993,259.846 241.772,262.626 243.162,265.405 244.551,269.574 244.551,276.523 243.162,280.692 241.772,283.471 238.993,286.25 234.824,287.64 225.096,287.64 " />
<polyline points="600.005,418.966 658.055,127.13 " />
</g>
<g clip-path="url(#clipId0)" fill="rgb(0,0,0)" stroke="rgb(0,0,0)" stroke-width="0.25" >
<path d="M411.944,262.521 411.944,272.249 441.127,267.385 441.127,267.385 z" />
</g>
<g clip-path="url(#clipId0)" fill="none" stroke="rgb(0,0,0)" stroke-width="0.25" >
<polyline points="411.944,267.385 291.092,267.385 " />
<polyline points="342.473,209.227 339.694,210.617 336.915,213.396 335.525,216.176 334.135,220.345 334.135,227.293 335.525,231.462 336.915,234.242 339.694,237.021 342.473,238.411 348.032,238.411 350.811,237.021 353.591,234.242 354.981,231.462 356.37,227.293 356.37,220.345 354.981,216.176 353.591,213.396 350.811,210.617 348.032,209.227 342.473,209.227 " />
<polyline points="346.642,232.852 354.981,241.19 " />
<polyline points="373.55,320.285 370.771,321.675 367.991,324.454 366.602,328.623 366.602,331.403 367.991,335.572 370.771,338.351 373.55,339.741 377.719,339.741 380.498,338.351 383.278,335.572 384.668,331.403 384.668,328.623 383.278,324.454 380.498,321.675 377.719,320.285 373.55,320.285 " />
<polyline points="344.809,295.901 333.691,325.084 " />
<polyline points="344.809,295.901 355.926,325.084 " />
<polyline points="337.86,315.356 351.757,315.356 " />
<polyline points="785.094,166.59 826.21,67.3274 " />
<polyline points="525.585,114.971 525.585,7.52941 " />
<path d="M785.634,89.0401  A750.55,750.55 0 0,0 731.357,71.308 " />
</g>
<g clip-path="url(#clipId0)" fill="rgb(0,0,0)" stroke="rgb(0,0,0)" stroke-width="0.25" >
<path d="M787.407,84.5111 783.86,93.5691 812.808,99.6819 812.808,99.6819 z" />
<path d="M554.669,47.9801 554.858,38.2541 525.585,42.5497 525.585,42.5497 z" />
</g>
<g clip-path="url(#clipId0)" fill="none" stroke="rgb(0,0,0)" stroke-width="0.25" >
<polyline points="620.277,48.0632 620.277,46.6735 621.666,43.8941 623.056,42.5044 625.835,41.1147 631.394,41.1147 634.174,42.5044 635.563,43.8941 636.953,46.6735 636.953,49.4529 635.563,52.2323 632.784,56.4014 618.887,70.2983 638.343,70.2983 " />
<polyline points="648.071,48.0632 648.071,46.6735 649.46,43.8941 650.85,42.5044 653.629,41.1147 659.188,41.1147 661.968,42.5044 663.357,43.8941 664.747,46.6735 664.747,49.4529 663.357,52.2323 660.578,56.4014 646.681,70.2983 666.137,70.2983 " />
<polyline points="677.254,67.5189 675.864,68.9086 677.254,70.2983 678.644,68.9086 677.254,67.5189 " />
<polyline points="705.048,41.1147 691.151,41.1147 689.761,53.622 691.151,52.2323 695.32,50.8426 699.489,50.8426 703.658,52.2323 706.438,55.0117 707.827,59.1808 707.827,61.9601 706.438,66.1292 703.658,68.9086 699.489,70.2983 695.32,70.2983 691.151,68.9086 689.761,67.5189 688.372,64.7395 " />
<ellipse rx="2.77939" ry="2.77939" cx="716.166" cy="43.8941" />
<path d="M601.778,46.4271  A750.55,750.55 0 0,0 554.763,43.1171 " />
<polyline points="660.145,734.869 658.545,731.669 655.344,728.469 652.144,726.868 645.744,726.868 642.544,728.469 639.343,731.669 637.743,734.869 636.143,739.669 636.143,747.67 637.743,752.47 639.343,755.67 642.544,758.87 645.744,760.471 652.144,760.471 655.344,758.87 658.545,755.67 660.145,752.47 " />
<polyline points="671.345,726.868 671.345,760.471 " />
<polyline points="671.345,726.868 682.546,726.868 687.346,728.469 690.547,731.669 692.147,734.869 693.747,739.669 693.747,747.67 692.147,752.47 690.547,755.67 687.346,758.87 682.546,760.471 671.345,760.471 " />
<polyline points="706.548,726.868 724.149,726.868 714.548,739.669 719.348,739.669 722.549,741.269 724.149,742.869 725.749,747.67 725.749,750.87 724.149,755.67 720.949,758.87 716.148,760.471 711.348,760.471 706.548,758.87 704.948,757.27 703.347,754.07 " />
<polyline points="736.95,746.07 765.751,746.07 " />
<polyline points="781.752,733.269 784.953,731.669 789.753,726.868 789.753,760.471 " />
<polyline points="829.755,738.069 828.155,742.869 824.955,746.07 820.155,747.67 818.555,747.67 813.754,746.07 810.554,742.869 808.954,738.069 808.954,736.469 810.554,731.669 813.754,728.469 818.555,726.868 820.155,726.868 824.955,728.469 828.155,731.669 829.755,738.069 829.755,746.07 828.155,754.07 824.955,758.87 820.155,760.471 816.955,760.471 812.154,758.87 810.554,755.67 " />
</g>
</svg>
