<?xml version="1.0" standalone="no"?>
<svg viewBox="0 0 1024 768" version="1.1" xmlns="http://www.w3.org/2000/svg" xmlns:xlink="http://www.w3.org/1999/xlink" stroke-linecap="round" stroke-linejoin="round" fill-rule="evenodd" xml:space="preserve" >
<defs >
<clipPath id="clipId0" >
<path d="M0,768 1024,768 1024,0 0,0 z" />
</clipPath>
</defs>
<g clip-path="url(#clipId0)" fill="none" stroke="rgb(0,0,0)" stroke-width="0.1" />
<g clip-path="url(#clipId0)" fill="none" stroke="rgb(0,0,0)" stroke-width="0.25" >
<path d="M628.322,451.847  A211.464,211.464 0 0,0 416.858,240.383 " stroke-dasharray="140.975871,28.195174,28.195174,28.195174" />
<polyline points="515.541,451.847 395.712,451.847 " />
<polyline points="416.858,353.164 416.858,472.993 " />
</g>
<g clip-path="url(#clipId0)" fill="rgb(0,0,0)" stroke="rgb(0,0,0)" stroke-width="0.25" >
<path d="M553.925,319.764 548.941,314.78 566.386,302.319 566.386,302.319 z" />
</g>
<g clip-path="url(#clipId0)" fill="none" stroke="rgb(0,0,0)" stroke-width="0.25" >
<polyline points="551.433,317.272 470.631,398.074 " />
<polyline points="452.869,407.102 452.869,421.199 " />
<polyline points="452.869,413.144 453.876,410.123 455.89,408.109 457.904,407.102 460.925,407.102 " />
<polyline points="443.945,424.76 416.858,451.847 " />
<polyline points="522.59,488.5 522.59,453.256 " />
<polyline points="734.054,488.5 734.054,453.256 " />
<polyline points="489.256,134.651 418.268,134.651 " />
<polyline points="440.991,346.115 418.268,346.115 " />
<path d="M835.266,430.707  A418.942,418.942 0 0,0 737.327,182.01 " />
<path d="M686.285,131.033  A418.942,418.942 0 0,0 437.998,33.4388 " />
<polyline points="861.176,451.847 742.865,451.847 " />
<polyline points="416.858,7.52941 416.858,125.84 " />
</g>
<g clip-path="url(#clipId0)" fill="rgb(0,0,0)" stroke="rgb(0,0,0)" stroke-width="0.25" >
<path d="M831.743,430.796 838.79,430.618 835.8,451.847 835.8,451.847 z" />
<path d="M437.909,36.962 438.087,29.9155 416.858,32.9051 416.858,32.9051 z" />
</g>
<g clip-path="url(#clipId0)" fill="none" stroke="rgb(0,0,0)" stroke-width="0.25" >
<polyline points="356.912,134.651 161.927,134.651 " />
<polyline points="356.912,346.115 161.927,346.115 " />
<polyline points="187.303,155.797 187.303,208.663 " />
<polyline points="187.303,324.968 187.303,272.103 " />
</g>
<g clip-path="url(#clipId0)" fill="rgb(0,0,0)" stroke="rgb(0,0,0)" stroke-width="0.25" >
<path d="M190.827,155.797 183.778,155.797 187.303,134.651 187.303,134.651 z" />
<path d="M190.827,324.968 183.778,324.968 187.303,346.115 187.303,346.115 z" />
</g>
<g clip-path="url(#clipId0)" fill="none" stroke="rgb(0,0,0)" stroke-width="0.25" >
<polyline points="184.282,229.81 184.282,250.956 " />
<polyline points="184.282,229.81 191.33,229.81 194.351,230.817 196.365,232.831 197.372,234.845 198.379,237.866 198.379,242.9 197.372,245.921 196.365,247.935 194.351,249.949 191.33,250.956 184.282,250.956 " />
<polyline points="734.054,450.437 522.59,450.437 " />
<polyline points="734.054,453.256 522.59,453.256 " />
<path d="M734.054,453.256  A1.40976,1.40976 0 0,0 734.054,450.437 " />
<polyline points="734.054,450.437 734.054,379.449 " />
<path d="M522.59,450.437  A1.40976,1.40976 0 0,0 522.59,453.256 " />
<polyline points="522.59,450.437 522.59,427.714 " />
<polyline points="418.268,346.115 418.268,134.651 " />
<polyline points="415.449,346.115 415.449,134.651 " />
<path d="M415.449,346.115  A1.40976,1.40976 0 0,0 418.268,346.115 " />
<polyline points="415.449,346.115 380.205,346.115 " />
<path d="M418.268,134.651  A1.40976,1.40976 0 0,0 415.449,134.651 " />
<polyline points="415.449,134.651 380.205,134.651 " />
<polyline points="522.59,427.714 734.054,379.449 " />
<polyline points="514.569,404.792 709.991,310.681 " />
<polyline points="501.649,384.229 671.229,248.992 " />
<polyline points="484.476,367.056 619.713,197.476 " />
<polyline points="463.913,354.136 558.024,158.714 " />
<polyline points="440.991,346.115 489.256,134.651 " />
<polyline points="522.59,427.714 514.569,404.792 " />
<polyline points="514.569,404.792 501.649,384.229 " />
<polyline points="501.649,384.229 484.476,367.056 " />
<polyline points="484.476,367.056 463.913,354.136 " />
<polyline points="463.913,354.136 440.991,346.115 " />
<polyline points="734.054,379.449 709.991,310.681 " />
<polyline points="709.991,310.681 671.229,248.992 " />
<polyline points="671.229,248.992 619.713,197.476 " />
<polyline points="619.713,197.476 558.024,158.714 " />
<polyline points="558.024,158.714 489.256,134.651 " />
</g>
<g clip-path="url(#clipId0)" fill="rgb(0,0,0)" stroke="rgb(0,0,0)" stroke-width="0.25" >
<path d="M339.492,236.859 339.492,243.907 360.639,240.383 360.639,240.383 z" />
</g>
<g clip-path="url(#clipId0)" fill="none" stroke="rgb(0,0,0)" stroke-width="0.25" >
<polyline points="339.492,240.383 265.038,240.383 " />
<polyline points="711.076,156.522 710.069,159.543 708.056,161.556 705.035,162.563 704.028,162.563 701.007,161.556 698.993,159.543 697.986,156.522 697.986,155.515 698.993,152.494 701.007,150.48 704.028,149.473 705.035,149.473 708.056,150.48 710.069,152.494 711.076,156.522 711.076,161.556 710.069,166.591 708.056,169.612 705.035,170.619 703.021,170.619 700,169.612 698.993,167.598 " />
<polyline points="724.167,149.473 721.146,150.48 719.132,153.501 718.125,158.536 718.125,161.556 719.132,166.591 721.146,169.612 724.167,170.619 726.181,170.619 729.202,169.612 731.216,166.591 732.223,161.556 732.223,158.536 731.216,153.501 729.202,150.48 726.181,149.473 724.167,149.473 " />
<polyline points="281.75,206.925 279.736,207.932 277.723,209.946 276.716,211.96 275.709,214.981 275.709,220.016 276.716,223.037 277.723,225.051 279.736,227.065 281.75,228.072 285.778,228.072 287.792,227.065 289.806,225.051 290.813,223.037 291.82,220.016 291.82,214.981 290.813,211.96 289.806,209.946 287.792,207.932 285.778,206.925 281.75,206.925 " />
<polyline points="284.771,224.044 290.813,230.086 " />
<polyline points="312.931,268.762 310.917,269.769 308.903,271.783 307.896,274.804 307.896,276.818 308.903,279.839 310.917,281.853 312.931,282.86 315.952,282.86 317.966,281.853 319.98,279.839 320.987,276.818 320.987,274.804 319.98,271.783 317.966,269.769 315.952,268.762 312.931,268.762 " />
<circle cx="743.62" cy="148.132" r="2.2711" />
<polyline points="286.851,248.892 278.795,270.039 " />
<polyline points="286.851,248.892 294.907,270.039 " />
<polyline points="281.816,262.99 291.886,262.99 " />
<polyline points="734.054,488.5 522.59,488.5 " />
<polyline points="380.205,346.115 380.205,134.651 " />
<polyline points="265.038,240.383 243.004,240.383 " />
<polyline points="704.046,736.84 702.569,733.887 699.615,730.933 696.661,729.456 690.754,729.456 687.8,730.933 684.846,733.887 683.369,736.84 681.892,741.271 681.892,748.655 683.369,753.086 684.846,756.04 687.8,758.994 690.754,760.471 696.661,760.471 699.615,758.994 702.569,756.04 704.046,753.086 " />
<polyline points="714.384,729.456 714.384,760.471 " />
<polyline points="714.384,729.456 724.722,729.456 729.153,730.933 732.107,733.887 733.584,736.84 735.061,741.271 735.061,748.655 733.584,753.086 732.107,756.04 729.153,758.994 724.722,760.471 714.384,760.471 " />
<polyline points="746.876,729.456 763.121,729.456 754.26,741.271 758.691,741.271 761.645,742.748 763.121,744.225 764.598,748.655 764.598,751.609 763.121,756.04 760.168,758.994 755.737,760.471 751.306,760.471 746.876,758.994 745.399,757.517 743.922,754.563 " />
<polyline points="774.937,747.179 801.521,747.179 " />
<polyline points="816.289,735.363 819.243,733.887 823.674,729.456 823.674,760.471 " />
<polyline points="850.258,729.456 845.827,730.933 842.873,735.363 841.397,742.748 841.397,747.179 842.873,754.563 845.827,758.994 850.258,760.471 853.212,760.471 857.642,758.994 860.596,754.563 862.073,747.179 862.073,742.748 860.596,735.363 857.642,730.933 853.212,729.456 850.258,729.456 " />
</g>
</svg>
