<?xml version="1.0" standalone="no"?>
<svg viewBox="0 0 1024 768" version="1.1" xmlns="http://www.w3.org/2000/svg" xmlns:xlink="http://www.w3.org/1999/xlink" stroke-linecap="round" stroke-linejoin="round" fill-rule="evenodd" xml:space="preserve" >
<defs >
<clipPath id="clipId0" >
<path d="M0,768 1024,768 1024,0 0,0 z" />
</clipPath>
</defs>
<g clip-path="url(#clipId0)" fill="none" stroke="rgb(0,0,0)" stroke-width="0.1" />
<g clip-path="url(#clipId0)" fill="none" stroke="rgb(0,0,0)" stroke-width="0.25" >
<polyline points="861.653,424.835 861.653,378.005 " />
<polyline points="568.968,424.835 568.968,378.005 " />
<polyline points="861.653,424.835 568.968,424.835 " />
<polyline points="446.299,9.48064 446.299,302.166 " />
<polyline points="568.968,302.166 497.031,302.166 " />
<polyline points="861.653,9.48064 497.031,9.48064 " />
<polyline points="861.653,374.103 568.968,374.103 " />
<polyline points="861.653,378.005 568.968,378.005 " />
<path d="M861.653,378.005  A1.95123,1.95123 0 0,0 861.653,374.103 " />
<polyline points="861.653,374.103 861.653,9.48064 " />
<path d="M568.968,374.103  A1.95123,1.95123 0 0,0 568.968,378.005 " />
<polyline points="568.968,374.103 568.968,302.166 " />
<polyline points="493.128,9.48064 493.128,302.166 " />
<polyline points="497.031,9.48064 497.031,302.166 " />
<path d="M493.128,302.166  A1.95123,1.95123 0 0,0 497.031,302.166 " />
<polyline points="493.128,302.166 446.299,302.166 " />
<path d="M497.031,9.48064  A1.95123,1.95123 0 0,0 493.128,9.48064 " />
<polyline points="493.128,9.48064 446.299,9.48064 " />
<polyline points="422.077,302.166 160.396,302.166 " />
<polyline points="422.077,9.48064 160.396,9.48064 " />
<polyline points="195.518,272.897 195.518,199.726 " />
<polyline points="195.518,38.7491 195.518,111.92 " />
</g>
<g clip-path="url(#clipId0)" fill="rgb(0,0,0)" stroke="rgb(0,0,0)" stroke-width="0.25" >
<path d="M200.396,272.897 190.64,272.897 195.518,302.166 195.518,302.166 z" />
<path d="M200.396,38.7491 190.64,38.7491 195.518,9.48064 195.518,9.48064 z" />
</g>
<g clip-path="url(#clipId0)" fill="none" stroke="rgb(0,0,0)" stroke-width="0.25" >
<polyline points="191.337,141.189 191.337,170.457 " />
<polyline points="191.337,141.189 201.093,141.189 205.274,142.583 208.062,145.37 209.456,148.158 210.849,152.339 210.849,159.307 209.456,163.489 208.062,166.276 205.274,169.064 201.093,170.457 191.337,170.457 " />
<polyline points="568.968,302.166 861.653,9.48064 " />
</g>
<g clip-path="url(#clipId0)" fill="rgb(0,0,0)" stroke="rgb(0,0,0)" stroke-width="0.25" >
<path d="M403.829,145.265 403.829,155.021 433.098,150.143 433.098,150.143 z" />
</g>
<g clip-path="url(#clipId0)" fill="none" stroke="rgb(0,0,0)" stroke-width="0.25" >
<polyline points="403.829,150.143 270.293,150.143 " />
<polyline points="333.835,92.4749 331.047,93.8686 328.26,96.6561 326.866,99.4436 325.472,103.625 325.472,110.593 326.866,114.775 328.26,117.562 331.047,120.35 333.835,121.743 339.41,121.743 342.197,120.35 344.985,117.562 346.378,114.775 347.772,110.593 347.772,103.625 346.378,99.4436 344.985,96.6561 342.197,93.8686 339.41,92.4749 333.835,92.4749 " />
<polyline points="338.016,116.168 346.378,124.531 " />
<polyline points="368.998,193.419 366.211,194.813 363.423,197.601 362.03,201.782 362.03,204.569 363.423,208.75 366.211,211.538 368.998,212.932 373.18,212.932 375.967,211.538 378.755,208.75 380.148,204.569 380.148,201.782 378.755,197.601 375.967,194.813 373.18,193.419 368.998,193.419 " />
<polyline points="337.626,168.846 326.476,198.115 " />
<polyline points="337.626,168.846 348.776,198.115 " />
<polyline points="330.657,188.359 344.595,188.359 " />
<polyline points="663.359,730.738 661.5,727.021 657.784,723.304 654.067,721.446 646.634,721.446 642.917,723.304 639.2,727.021 637.342,730.738 635.484,736.312 635.484,745.604 637.342,751.179 639.2,754.896 642.917,758.612 646.634,760.471 654.067,760.471 657.784,758.612 661.5,754.896 663.359,751.179 " />
<polyline points="676.367,721.446 676.367,760.471 " />
<polyline points="676.367,721.446 689.375,721.446 694.95,723.304 698.667,727.021 700.525,730.738 702.383,736.312 702.383,745.604 700.525,751.179 698.667,754.896 694.95,758.612 689.375,760.471 676.367,760.471 " />
<polyline points="717.25,721.446 737.691,721.446 726.541,736.312 732.116,736.312 735.833,738.171 737.691,740.029 739.55,745.604 739.55,749.321 737.691,754.896 733.975,758.612 728.4,760.471 722.825,760.471 717.25,758.612 715.391,756.754 713.533,753.037 " />
<polyline points="752.558,743.746 786.007,743.746 " />
<polyline points="804.591,728.879 808.307,727.021 813.882,721.446 813.882,760.471 " />
<polyline points="858.482,721.446 839.899,721.446 838.04,738.171 839.899,736.312 845.474,734.454 851.049,734.454 856.623,736.312 860.34,740.029 862.198,745.604 862.198,749.321 860.34,754.896 856.623,758.612 851.049,760.471 845.474,760.471 839.899,758.612 838.04,756.754 836.182,753.037 " />
</g>
</svg>
