<?xml version="1.0" standalone="no"?>
<svg viewBox="0 0 1024 768" version="1.1" xmlns="http://www.w3.org/2000/svg" xmlns:xlink="http://www.w3.org/1999/xlink" stroke-linecap="round" stroke-linejoin="round" fill-rule="evenodd" xml:space="preserve" >
<defs >
<clipPath id="clipId0" >
<path d="M0,768 1024,768 1024,0 0,0 z" />
</clipPath>
</defs>
<g clip-path="url(#clipId0)" fill="none" stroke="rgb(0,0,0)" stroke-width="0.1" />
<g clip-path="url(#clipId0)" fill="none" stroke="rgb(0,0,0)" stroke-width="0.25" >
<path d="M631.154,479.053  A224.412,224.412 0 0,0 406.742,254.641 " stroke-dasharray="149.608199,29.921640,29.921640,29.921640" />
<polyline points="511.467,479.053 384.3,479.053 " />
<polyline points="406.742,374.328 406.742,501.495 " />
</g>
<g clip-path="url(#clipId0)" fill="rgb(0,0,0)" stroke="rgb(0,0,0)" stroke-width="0.25" >
<path d="M552.202,338.883 546.912,333.594 565.425,320.37 565.425,320.37 z" />
</g>
<g clip-path="url(#clipId0)" fill="none" stroke="rgb(0,0,0)" stroke-width="0.25" >
<polyline points="549.557,336.238 463.807,421.988 " />
<polyline points="444.958,431.569 444.958,446.529 " />
<polyline points="444.958,437.98 446.026,434.774 448.164,432.637 450.301,431.569 453.507,431.569 " />
<polyline points="435.487,450.308 406.742,479.053 " />
<polyline points="518.948,517.952 518.948,480.55 " />
<polyline points="743.36,517.952 743.36,480.55 " />
<polyline points="483.573,142.435 408.238,142.435 " />
<polyline points="432.352,366.847 408.238,366.847 " />
<path d="M850.77,456.619  A444.595,444.595 0 0,0 746.834,192.694 " />
<path d="M692.666,138.596  A444.595,444.595 0 0,0 429.176,35.0253 " />
<polyline points="878.266,479.053 752.711,479.053 " />
<polyline points="406.742,7.52941 406.742,133.085 " />
</g>
<g clip-path="url(#clipId0)" fill="rgb(0,0,0)" stroke="rgb(0,0,0)" stroke-width="0.25" >
<path d="M847.031,456.714 854.509,456.525 851.336,479.053 851.336,479.053 z" />
<path d="M429.081,38.7643 429.27,31.2862 406.742,34.4589 406.742,34.4589 z" />
</g>
<g clip-path="url(#clipId0)" fill="none" stroke="rgb(0,0,0)" stroke-width="0.25" >
<polyline points="343.437,142.435 145.734,142.435 " />
<polyline points="343.437,366.847 145.734,366.847 " />
<polyline points="172.664,164.876 172.664,220.979 " />
<polyline points="172.664,344.406 172.664,288.303 " />
</g>
<g clip-path="url(#clipId0)" fill="rgb(0,0,0)" stroke="rgb(0,0,0)" stroke-width="0.25" >
<path d="M176.404,164.876 168.924,164.876 172.664,142.435 172.664,142.435 z" />
<path d="M176.404,344.406 168.924,344.406 172.664,366.847 172.664,366.847 z" />
</g>
<g clip-path="url(#clipId0)" fill="none" stroke="rgb(0,0,0)" stroke-width="0.25" >
<polyline points="169.458,243.421 169.458,265.862 " />
<polyline points="169.458,243.421 176.938,243.421 180.144,244.489 182.281,246.626 183.35,248.764 184.419,251.97 184.419,257.313 183.35,260.519 182.281,262.656 180.144,264.793 176.938,265.862 169.458,265.862 " />
<polyline points="743.36,477.557 518.948,477.557 " />
<polyline points="743.36,480.55 518.948,480.55 " />
<path d="M743.36,480.55  A1.49608,1.49608 0 0,0 743.36,477.557 " />
<polyline points="743.36,477.557 743.36,402.223 " />
<path d="M518.948,477.557  A1.49608,1.49608 0 0,0 518.948,480.55 " />
<polyline points="518.948,477.557 518.948,453.443 " />
<polyline points="408.238,366.847 408.238,142.435 " />
<polyline points="405.246,366.847 405.246,142.435 " />
<path d="M405.246,366.847  A1.49608,1.49608 0 0,0 408.238,366.847 " />
<polyline points="405.246,366.847 367.844,366.847 " />
<path d="M408.238,142.435  A1.49608,1.49608 0 0,0 405.246,142.435 " />
<polyline points="405.246,142.435 367.844,142.435 " />
<polyline points="518.948,453.443 743.36,402.223 " />
<polyline points="503.978,416.333 695.144,288.115 " />
<polyline points="461.92,378.527 585.65,184.425 " />
<polyline points="432.352,366.847 483.573,142.435 " />
<polyline points="518.948,453.443 510.436,429.117 " />
<polyline points="510.436,429.117 496.724,407.295 " />
<polyline points="496.724,407.295 478.5,389.071 " />
<polyline points="478.5,389.071 456.678,375.359 " />
<polyline points="456.678,375.359 432.352,366.847 " />
</g>
<g clip-path="url(#clipId0)" fill="rgb(0,0,0)" stroke="rgb(0,0,0)" stroke-width="0.25" >
<path d="M318.674,250.901 318.674,258.381 341.116,254.641 341.116,254.641 z" />
</g>
<g clip-path="url(#clipId0)" fill="none" stroke="rgb(0,0,0)" stroke-width="0.25" >
<polyline points="318.674,254.641 249.011,254.641 " />
<polyline points="718.976,165.645 717.907,168.851 715.77,170.988 712.564,172.057 711.495,172.057 708.289,170.988 706.152,168.851 705.083,165.645 705.083,164.576 706.152,161.37 708.289,159.233 711.495,158.164 712.564,158.164 715.77,159.233 717.907,161.37 718.976,165.645 718.976,170.988 717.907,176.331 715.77,179.537 712.564,180.606 710.427,180.606 707.221,179.537 706.152,177.4 " />
<polyline points="732.868,158.164 729.662,159.233 727.525,162.439 726.456,167.782 726.456,170.988 727.525,176.331 729.662,179.537 732.868,180.606 735.005,180.606 738.211,179.537 740.348,176.331 741.417,170.988 741.417,167.782 740.348,162.439 738.211,159.233 735.005,158.164 732.868,158.164 " />
<polyline points="272.895,219.135 270.758,220.203 268.62,222.341 267.552,224.478 266.483,227.684 266.483,233.027 267.552,236.233 268.62,238.37 270.758,240.507 272.895,241.576 277.169,241.576 279.307,240.507 281.444,238.37 282.512,236.233 283.581,233.027 283.581,227.684 282.512,224.478 281.444,222.341 279.307,220.203 277.169,219.135 272.895,219.135 " />
<polyline points="276.101,237.302 282.512,243.713 " />
<polyline points="299.856,287.823 297.719,288.891 295.582,291.028 294.513,294.234 294.513,296.372 295.582,299.578 297.719,301.715 299.856,302.783 303.062,302.783 305.199,301.715 307.336,299.578 308.405,296.372 308.405,294.234 307.336,291.028 305.199,288.891 303.062,287.823 299.856,287.823 " />
<circle cx="753.511" cy="156.742" r="2.41016" />
<polyline points="483.573,142.435 585.65,184.425 " />
<polyline points="585.65,184.425 695.144,288.115 " />
<polyline points="695.144,288.115 743.36,402.223 " />
<polyline points="275.244,266.736 266.695,289.177 " />
<polyline points="275.244,266.736 283.793,289.177 " />
<polyline points="269.901,281.697 280.587,281.697 " />
<polyline points="367.844,366.847 367.844,142.435 " />
<polyline points="743.36,517.952 518.948,517.952 " />
<polyline points="249.011,254.641 225.467,254.641 " />
<polyline points="742.403,735.393 740.836,732.259 737.702,729.124 734.567,727.557 728.298,727.557 725.163,729.124 722.028,732.259 720.461,735.393 718.894,740.095 718.894,747.932 720.461,752.634 722.028,755.769 725.163,758.903 728.298,760.471 734.567,760.471 737.702,758.903 740.836,755.769 742.403,752.634 " />
<polyline points="753.375,727.557 753.375,760.471 " />
<polyline points="753.375,727.557 764.346,727.557 769.048,729.124 772.183,732.259 773.75,735.393 775.317,740.095 775.317,747.932 773.75,752.634 772.183,755.769 769.048,758.903 764.346,760.471 753.375,760.471 " />
<polyline points="787.856,727.557 805.096,727.557 795.692,740.095 800.394,740.095 803.529,741.663 805.096,743.23 806.664,747.932 806.664,751.067 805.096,755.769 801.962,758.903 797.26,760.471 792.558,760.471 787.856,758.903 786.289,757.336 784.721,754.201 " />
<polyline points="817.635,746.365 845.847,746.365 " />
<polyline points="877.193,738.528 875.626,743.23 872.491,746.365 867.789,747.932 866.222,747.932 861.52,746.365 858.385,743.23 856.818,738.528 856.818,736.961 858.385,732.259 861.52,729.124 866.222,727.557 867.789,727.557 872.491,729.124 875.626,732.259 877.193,738.528 877.193,746.365 875.626,754.201 872.491,758.903 867.789,760.471 864.655,760.471 859.953,758.903 858.385,755.769 " />
</g>
</svg>
