<?xml version="1.0" standalone="no"?>
<svg viewBox="0 0 1024 768" version="1.1" xmlns="http://www.w3.org/2000/svg" xmlns:xlink="http://www.w3.org/1999/xlink" stroke-linecap="round" stroke-linejoin="round" fill-rule="evenodd" xml:space="preserve" >
<defs >
<clipPath id="clipId0" >
<path d="M0,768 1024,768 1024,0 0,0 z" />
</clipPath>
</defs>
<g clip-path="url(#clipId0)" fill="none" stroke="rgb(0,0,0)" stroke-width="0.1" />
<g clip-path="url(#clipId0)" fill="none" stroke="rgb(0,0,0)" stroke-width="0.25" >
<path d="M654.521,370.6  A232.218,232.218 0 0,0 453.414,254.491 " stroke-dasharray="96.757609,19.351522,19.351522,19.351522" />
<polyline points="755.074,312.545 553.967,428.654 " />
<polyline points="466.657,488.503 443.435,488.503 " stroke-dasharray="96.757609,19.351522,19.351522,19.351522" />
<polyline points="455.046,476.892 455.046,500.114 " stroke-dasharray="96.757609,19.351522,19.351522,19.351522" />
</g>
<g clip-path="url(#clipId0)" fill="rgb(0,0,0)" stroke="rgb(0,0,0)" stroke-width="0.25" >
<path d="M603.934,341.663 598.46,336.189 617.617,322.506 617.617,322.506 z" />
</g>
<g clip-path="url(#clipId0)" fill="none" stroke="rgb(0,0,0)" stroke-width="0.25" >
<polyline points="601.197,338.926 512.465,427.658 " />
<polyline points="493.017,437.572 493.017,453.054 " />
<polyline points="493.017,444.207 494.123,440.89 496.335,438.678 498.546,437.572 501.864,437.572 " />
<polyline points="483.159,456.964 453.414,486.709 " />
<polyline points="573.319,462.172 553.967,428.654 " />
<polyline points="774.426,346.063 755.074,312.545 " />
<polyline points="453.414,138.382 414.711,138.382 " />
<polyline points="453.414,370.6 414.711,370.6 " />
<path d="M755.074,312.545  A348.327,348.327 0 0,0 453.414,138.382 " />
<polyline points="708.389,272.76 542.359,412.075 " />
<polyline points="667.363,231.734 528.048,397.764 " />
<polyline points="619.837,198.456 511.469,386.156 " />
<polyline points="567.254,173.936 493.126,377.602 " />
<polyline points="511.212,158.92 473.576,372.364 " />
<polyline points="453.414,138.382 453.414,370.6 " />
<polyline points="553.967,428.654 546.668,408.459 " />
<polyline points="542.359,412.075 531.664,393.455 " />
<polyline points="528.048,397.764 514.282,381.283 " />
<polyline points="511.469,386.156 495.05,372.316 " />
<polyline points="493.126,377.602 474.553,366.823 " />
<polyline points="473.576,372.364 453.414,364.974 " />
<polyline points="389.132,138.382 155.604,138.382 " />
<polyline points="389.132,370.6 155.604,370.6 " />
<polyline points="183.47,161.603 183.47,219.658 " />
<polyline points="183.47,347.378 183.47,289.323 " />
</g>
<g clip-path="url(#clipId0)" fill="rgb(0,0,0)" stroke="rgb(0,0,0)" stroke-width="0.25" >
<path d="M187.341,161.603 179.6,161.603 183.47,138.382 183.47,138.382 z" />
<path d="M187.341,347.378 179.6,347.378 183.47,370.6 183.47,370.6 z" />
</g>
<g clip-path="url(#clipId0)" fill="none" stroke="rgb(0,0,0)" stroke-width="0.25" >
<polyline points="180.153,242.88 180.153,266.102 " />
<polyline points="180.153,242.88 187.894,242.88 191.211,243.986 193.423,246.197 194.528,248.409 195.634,251.726 195.634,257.255 194.528,260.573 193.423,262.784 191.211,264.996 187.894,266.102 180.153,266.102 " />
<path d="M832.138,241.247  A451.313,451.313 0 0,0 717.265,120.558 " />
<path d="M636.672,74.277  A451.313,451.313 0 0,0 476.628,35.993 " />
<polyline points="868.396,247.119 763.454,307.707 " stroke-dasharray="96.757609,19.351522,19.351522,19.351522" />
<polyline points="453.414,7.52941 453.414,128.706 " stroke-dasharray="96.757609,19.351522,19.351522,19.351522" />
</g>
<g clip-path="url(#clipId0)" fill="rgb(0,0,0)" stroke="rgb(0,0,0)" stroke-width="0.25" >
<path d="M828.838,243.268 835.439,239.226 844.263,261.052 844.263,261.052 z" />
<path d="M476.529,39.8621 476.728,32.124 453.414,35.3956 453.414,35.3956 z" />
<path d="M359.584,250.62 359.584,258.361 382.806,254.491 382.806,254.491 z" />
</g>
<g clip-path="url(#clipId0)" fill="none" stroke="rgb(0,0,0)" stroke-width="0.25" >
<polyline points="359.584,254.491 283.06,254.491 " />
<polyline points="311.465,213.243 309.254,214.349 307.042,216.56 305.936,218.772 304.831,222.089 304.831,227.618 305.936,230.936 307.042,233.147 309.254,235.359 311.465,236.465 315.889,236.465 318.1,235.359 320.312,233.147 321.418,230.936 322.523,227.618 322.523,222.089 321.418,218.772 320.312,216.56 318.1,214.349 315.889,213.243 311.465,213.243 " />
<polyline points="314.783,232.041 321.418,238.676 " />
<polyline points="342.535,296.713 340.324,297.819 338.112,300.031 337.006,303.348 337.006,305.56 338.112,308.877 340.324,311.089 342.535,312.194 345.853,312.194 348.064,311.089 350.276,308.877 351.382,305.56 351.382,303.348 350.276,300.031 348.064,297.819 345.853,296.713 342.535,296.713 " />
<polyline points="678.044,90.3777 676.938,88.1661 673.621,87.0603 671.409,87.0603 668.092,88.1661 665.88,91.4835 664.774,97.0125 664.774,102.542 665.88,106.965 668.092,109.176 671.409,110.282 672.515,110.282 675.833,109.176 678.044,106.965 679.15,103.647 679.15,102.542 678.044,99.2241 675.833,97.0125 672.515,95.9067 671.409,95.9067 668.092,97.0125 665.88,99.2241 664.774,102.542 " />
<polyline points="692.42,87.0603 689.102,88.1661 686.891,91.4835 685.785,97.0125 685.785,100.33 686.891,105.859 689.102,109.176 692.42,110.282 694.631,110.282 697.949,109.176 700.16,105.859 701.266,100.33 701.266,97.0125 700.16,91.4835 697.949,88.1661 694.631,87.0603 692.42,87.0603 " />
<circle cx="710.091" cy="85.588" r="2.494" />
<polyline points="315.508,271.513 306.661,294.735 " />
<polyline points="315.508,271.513 324.354,294.735 " />
<polyline points="309.979,286.994 321.037,286.994 " />
<polyline points="774.426,346.063 573.319,462.172 " />
<polyline points="414.711,138.382 414.711,370.6 " />
<polyline points="283.06,254.491 259.477,254.491 " />
<polyline points="724.42,734.521 722.798,731.277 719.554,728.034 716.311,726.412 709.823,726.412 706.58,728.034 703.336,731.277 701.714,734.521 700.092,739.387 700.092,747.496 701.714,752.361 703.336,755.605 706.58,758.849 709.823,760.471 716.311,760.471 719.554,758.849 722.798,755.605 724.42,752.361 " />
<polyline points="735.773,726.412 735.773,760.471 " />
<polyline points="735.773,726.412 747.126,726.412 751.991,728.034 755.235,731.277 756.857,734.521 758.479,739.387 758.479,747.496 756.857,752.361 755.235,755.605 751.991,758.849 747.126,760.471 735.773,760.471 " />
<polyline points="771.453,726.412 789.294,726.412 779.563,739.387 784.428,739.387 787.672,741.008 789.294,742.63 790.916,747.496 790.916,750.74 789.294,755.605 786.05,758.849 781.184,760.471 776.319,760.471 771.453,758.849 769.832,757.227 768.21,753.983 " />
<polyline points="802.268,745.874 831.462,745.874 " />
<polyline points="863.898,731.277 862.277,728.034 857.411,726.412 854.167,726.412 849.302,728.034 846.058,732.899 844.436,741.008 844.436,749.118 846.058,755.605 849.302,758.849 854.167,760.471 855.789,760.471 860.655,758.849 863.898,755.605 865.52,750.74 865.52,749.118 863.898,744.252 860.655,741.008 855.789,739.387 854.167,739.387 849.302,741.008 846.058,744.252 844.436,749.118 " />
</g>
</svg>
