<?xml version="1.0" standalone="no"?>
<svg viewBox="0 0 1024 768" version="1.1" xmlns="http://www.w3.org/2000/svg" xmlns:xlink="http://www.w3.org/1999/xlink" stroke-linecap="round" stroke-linejoin="round" fill-rule="evenodd" xml:space="preserve" >
<defs >
<clipPath id="clipId0" >
<path d="M0,768 1024,768 1024,0 0,0 z" />
</clipPath>
</defs>
<g clip-path="url(#clipId0)" fill="none" stroke="rgb(0,0,0)" stroke-width="0.1" />
<g clip-path="url(#clipId0)" fill="none" stroke="rgb(0,0,0)" stroke-width="0.25" >
<path d="M657.025,337.882  A247.389,247.389 0 0,0 482.094,265.423 " stroke-dasharray="103.078590,20.615718,20.615718,20.615718" />
<polyline points="744.49,250.417 569.56,425.347 " />
<polyline points="494.464,512.812 469.725,512.812 " stroke-dasharray="103.078590,20.615718,20.615718,20.615718" />
<polyline points="482.094,500.443 482.094,525.182 " stroke-dasharray="103.078590,20.615718,20.615718,20.615718" />
</g>
<g clip-path="url(#clipId0)" fill="rgb(0,0,0)" stroke="rgb(0,0,0)" stroke-width="0.25" >
<path d="M571.664,308.932 564.054,305.755 577.388,284.514 577.388,284.514 z" />
</g>
<g clip-path="url(#clipId0)" fill="none" stroke="rgb(0,0,0)" stroke-width="0.25" >
<polyline points="567.859,307.343 516.364,430.711 " />
<polyline points="505.71,442.715 505.71,459.207 " />
<polyline points="505.71,449.783 506.888,446.249 509.244,443.893 511.6,442.715 515.134,442.715 " />
<polyline points="499.357,471.456 482.094,512.812 " />
<polyline points="598.715,454.502 569.56,425.347 " />
<polyline points="773.645,279.572 744.49,250.417 " />
<polyline points="482.094,141.729 440.863,141.729 " />
<polyline points="482.094,389.118 440.863,389.118 " />
<path d="M744.49,250.417  A371.083,371.083 0 0,0 482.094,141.729 " />
<polyline points="697.955,231.497 557.395,414.679 " />
<polyline points="645.826,198.287 539.21,403.094 " />
<polyline points="588.722,174.633 519.29,394.843 " />
<polyline points="528.378,161.255 498.24,390.176 " />
<polyline points="482.094,141.729 482.094,389.118 " />
<polyline points="570.331,424.575 561.043,409.924 " />
<polyline points="557.395,414.679 541.978,397.778 " />
<polyline points="539.21,403.094 521.092,389.127 " />
<polyline points="519.29,394.843 499.022,384.234 " />
<polyline points="498.24,390.176 482.094,385.046 " />
<polyline points="417.001,141.729 184.617,141.729 " />
<polyline points="417.001,389.118 184.617,389.118 " />
<polyline points="214.303,166.468 214.303,228.315 " />
<polyline points="214.303,364.379 214.303,302.532 " />
</g>
<g clip-path="url(#clipId0)" fill="rgb(0,0,0)" stroke="rgb(0,0,0)" stroke-width="0.25" >
<path d="M218.427,166.468 210.18,166.468 214.303,141.729 214.303,141.729 z" />
<path d="M218.427,364.379 210.18,364.379 214.303,389.118 214.303,389.118 z" />
</g>
<g clip-path="url(#clipId0)" fill="none" stroke="rgb(0,0,0)" stroke-width="0.25" >
<polyline points="210.769,253.054 210.769,277.793 " />
<polyline points="210.769,253.054 219.016,253.054 222.55,254.232 224.906,256.588 226.084,258.944 227.262,262.478 227.262,268.369 226.084,271.903 224.906,274.259 222.55,276.615 219.016,277.793 210.769,277.793 " />
<path d="M800.45,159.483  A475.596,475.596 0 0,0 710.255,95.5178 " />
<path d="M616.405,56.5751  A475.596,475.596 0 0,0 506.825,37.8595 " />
<polyline points="839.383,155.523 751.778,243.128 " stroke-dasharray="103.078590,20.615718,20.615718,20.615718" />
<polyline points="482.094,7.52941 482.094,131.421 " stroke-dasharray="103.078590,20.615718,20.615718,20.615718" />
</g>
<g clip-path="url(#clipId0)" fill="rgb(0,0,0)" stroke="rgb(0,0,0)" stroke-width="0.25" >
<path d="M797.611,162.473 803.288,156.492 818.392,176.515 818.392,176.515 z" />
<path d="M506.718,41.9812 506.932,33.7377 482.094,37.216 482.094,37.216 z" />
<path d="M395.093,261.3 395.093,269.547 419.832,265.423 419.832,265.423 z" />
</g>
<g clip-path="url(#clipId0)" fill="none" stroke="rgb(0,0,0)" stroke-width="0.25" >
<polyline points="395.093,265.423 304.544,265.423 " />
<polyline points="647.095,63.0506 635.314,79.5431 652.985,79.5431 " />
<polyline points="647.095,63.0506 647.095,87.7894 " />
<polyline points="673.012,63.0506 661.231,63.0506 660.053,73.6529 661.231,72.4749 664.765,71.2969 668.3,71.2969 671.834,72.4749 674.19,74.831 675.368,78.3651 675.368,80.7212 674.19,84.2553 671.834,86.6114 668.3,87.7894 664.765,87.7894 661.231,86.6114 660.053,85.4333 658.875,83.0773 " />
<polyline points="329.166,226.282 326.81,227.46 324.454,229.816 323.276,232.172 322.098,235.706 322.098,241.596 323.276,245.131 324.454,247.487 326.81,249.843 329.166,251.021 333.878,251.021 336.234,249.843 338.59,247.487 339.768,245.131 340.947,241.596 340.947,235.706 339.768,232.172 338.59,229.816 336.234,227.46 333.878,226.282 329.166,226.282 " />
<polyline points="332.7,246.309 339.768,253.377 " />
<polyline points="358.888,300.047 356.532,301.225 354.176,303.581 352.998,307.115 352.998,309.471 354.176,313.006 356.532,315.362 358.888,316.54 362.422,316.54 364.778,315.362 367.134,313.006 368.312,309.471 368.312,307.115 367.134,303.581 364.778,301.225 362.422,300.047 358.888,300.047 " />
<circle cx="688.701" cy="61.482" r="2.65692" />
<polyline points="331.811,276.801 322.387,301.54 " />
<polyline points="331.811,276.801 341.236,301.54 " />
<polyline points="325.921,293.294 337.702,293.294 " />
<polyline points="773.645,279.572 598.715,454.502 " />
<polyline points="440.863,141.729 440.863,389.118 " />
<polyline points="304.544,265.423 275.624,265.423 " />
<polyline points="686.229,732.826 684.502,729.37 681.046,725.915 677.59,724.187 670.679,724.187 667.224,725.915 663.768,729.37 662.04,732.826 660.313,738.009 660.313,746.648 662.04,751.832 663.768,755.287 667.224,758.743 670.679,760.471 677.59,760.471 681.046,758.743 684.502,755.287 686.229,751.832 " />
<polyline points="698.324,724.187 698.324,760.471 " />
<polyline points="698.324,724.187 710.419,724.187 715.602,725.915 719.057,729.37 720.785,732.826 722.513,738.009 722.513,746.648 720.785,751.832 719.057,755.287 715.602,758.743 710.419,760.471 698.324,760.471 " />
<polyline points="736.335,724.187 755.341,724.187 744.974,738.009 750.158,738.009 753.613,739.737 755.341,741.465 757.069,746.648 757.069,750.104 755.341,755.287 751.886,758.743 746.702,760.471 741.519,760.471 736.335,758.743 734.608,757.015 732.88,753.559 " />
<polyline points="769.163,744.92 800.264,744.92 " />
<polyline points="836.547,724.187 819.27,760.471 " />
<polyline points="812.358,724.187 836.547,724.187 " />
</g>
</svg>
