<?xml version="1.0" standalone="no"?>
<svg viewBox="0 0 1024 768" version="1.1" xmlns="http://www.w3.org/2000/svg" xmlns:xlink="http://www.w3.org/1999/xlink" stroke-linecap="round" stroke-linejoin="round" fill-rule="evenodd" xml:space="preserve" >
<defs >
<clipPath id="clipId0" >
<path d="M0,768 1024,768 1024,0 0,0 z" />
</clipPath>
</defs>
<g clip-path="url(#clipId0)" fill="none" stroke="rgb(0,0,0)" stroke-width="0.1" />
<g clip-path="url(#clipId0)" fill="none" stroke="rgb(0,0,0)" stroke-width="0.25" >
<polyline points="800.469,303.178 772.345,275.054 " />
<polyline points="624.693,478.954 596.569,450.83 " />
<polyline points="800.469,303.178 624.693,478.954 " />
<polyline points="430.109,149.77 430.109,398.355 " />
<polyline points="544.094,398.355 473.197,398.355 " />
<polyline points="647.061,149.77 473.197,149.77 " />
<polyline points="770.001,272.71 594.225,448.486 " />
<polyline points="772.345,275.054 596.569,450.83 " />
<path d="M772.345,275.054  A1.65723,1.65723 0 0,0 770.001,272.71 " />
<polyline points="770.001,272.71 647.061,149.77 " />
<path d="M594.225,448.486  A1.65723,1.65723 0 0,0 596.569,450.83 " />
<polyline points="594.225,448.486 544.094,398.355 " />
<polyline points="469.883,149.77 469.883,398.355 " />
<polyline points="473.197,149.77 473.197,398.355 " />
<path d="M469.883,398.355  A1.65723,1.65723 0 0,0 473.197,398.355 " />
<polyline points="469.883,398.355 430.109,398.355 " />
<path d="M473.197,149.77  A1.65723,1.65723 0 0,0 469.883,149.77 " />
<polyline points="469.883,149.77 430.109,149.77 " />
<polyline points="409.537,398.355 150.105,398.355 " />
<polyline points="409.537,149.77 150.105,149.77 " />
<polyline points="179.935,373.496 179.935,311.35 " />
<polyline points="179.935,174.629 179.935,236.775 " />
</g>
<g clip-path="url(#clipId0)" fill="rgb(0,0,0)" stroke="rgb(0,0,0)" stroke-width="0.25" >
<path d="M184.078,373.496 175.792,373.496 179.935,398.355 179.935,398.355 z" />
<path d="M184.078,174.629 175.792,174.629 179.935,149.77 179.935,149.77 z" />
</g>
<g clip-path="url(#clipId0)" fill="none" stroke="rgb(0,0,0)" stroke-width="0.25" >
<polyline points="176.384,261.633 176.384,286.492 " />
<polyline points="176.384,261.633 184.67,261.633 188.221,262.817 190.589,265.184 191.773,267.552 192.956,271.103 192.956,277.022 191.773,280.573 190.589,282.94 188.221,285.308 184.67,286.492 176.384,286.492 " />
<polyline points="544.094,398.355 647.061,149.77 " />
</g>
<g clip-path="url(#clipId0)" fill="rgb(0,0,0)" stroke="rgb(0,0,0)" stroke-width="0.25" >
<path d="M380.562,265.095 380.562,273.381 405.42,269.238 405.42,269.238 z" />
</g>
<g clip-path="url(#clipId0)" fill="none" stroke="rgb(0,0,0)" stroke-width="0.25" >
<polyline points="380.562,269.238 271.097,269.238 " />
<polyline points="309.951,219.7 307.584,220.884 305.216,223.251 304.033,225.619 302.849,229.17 302.849,235.088 304.033,238.64 305.216,241.007 307.584,243.375 309.951,244.558 314.686,244.558 317.054,243.375 319.421,241.007 320.605,238.64 321.789,235.088 321.789,229.17 320.605,225.619 319.421,223.251 317.054,220.884 314.686,219.7 309.951,219.7 " />
<polyline points="313.502,239.823 320.605,246.926 " />
<polyline points="339.817,321.017 337.449,322.201 335.082,324.568 333.898,328.12 333.898,330.487 335.082,334.038 337.449,336.406 339.817,337.59 343.368,337.59 345.735,336.406 348.103,334.038 349.287,330.487 349.287,328.12 348.103,324.568 345.735,322.201 343.368,321.017 339.817,321.017 " />
<polyline points="312.446,293.161 302.977,318.019 " />
<polyline points="312.446,293.161 321.916,318.019 " />
<polyline points="306.528,309.733 318.365,309.733 " />
<polyline points="779.669,267.73 873.895,173.504 " />
<polyline points="473.197,139.412 473.197,7.52941 " />
<path d="M834.822,177.431  A536.842,536.842 0 0,0 709.321,92.076 " />
</g>
<g clip-path="url(#clipId0)" fill="rgb(0,0,0)" stroke="rgb(0,0,0)" stroke-width="0.25" >
<path d="M837.683,174.434 831.961,180.428 852.802,194.597 852.802,194.597 z" />
<path d="M497.953,42.0771 498.145,33.7931 473.197,37.3596 473.197,37.3596 z" />
</g>
<g clip-path="url(#clipId0)" fill="none" stroke="rgb(0,0,0)" stroke-width="0.25" >
<polyline points="658.964,62.4865 647.127,79.0588 664.883,79.0588 " />
<polyline points="658.964,62.4865 658.964,87.3449 " />
<polyline points="685.006,62.4865 673.169,62.4865 671.985,73.1401 673.169,71.9563 676.72,70.7726 680.271,70.7726 683.822,71.9563 686.19,74.3238 687.374,77.875 687.374,80.2425 686.19,83.7937 683.822,86.1612 680.271,87.3449 676.72,87.3449 673.169,86.1612 671.985,84.9774 670.801,82.61 " />
<ellipse rx="2.36747" ry="2.36747" cx="694.476" cy="64.8539" />
<path d="M631.91,61.3569  A536.842,536.842 0 0,0 498.049,37.9351 " />
<polyline points="271.097,269.238 252.578,269.238 " />
<polyline points="698.606,734.96 697.012,731.771 693.823,728.582 690.634,726.988 684.257,726.988 681.068,728.582 677.879,731.771 676.285,734.96 674.69,739.743 674.69,747.715 676.285,752.499 677.879,755.687 681.068,758.876 684.257,760.471 690.634,760.471 693.823,758.876 697.012,755.687 698.606,752.499 " />
<polyline points="709.767,726.988 709.767,760.471 " />
<polyline points="709.767,726.988 720.928,726.988 725.711,728.582 728.9,731.771 730.494,734.96 732.089,739.743 732.089,747.715 730.494,752.499 728.9,755.687 725.711,758.876 720.928,760.471 709.767,760.471 " />
<polyline points="744.844,726.988 762.382,726.988 752.816,739.743 757.599,739.743 760.788,741.338 762.382,742.932 763.977,747.715 763.977,750.904 762.382,755.687 759.194,758.876 754.41,760.471 749.627,760.471 744.844,758.876 743.25,757.282 741.655,754.093 " />
<polyline points="775.138,746.121 803.837,746.121 " />
<polyline points="819.781,733.366 822.97,731.771 827.753,726.988 827.753,760.471 " />
<polyline points="869.208,726.988 853.264,760.471 " />
<polyline points="846.886,726.988 869.208,726.988 " />
</g>
</svg>
