<?xml version="1.0" standalone="no"?>
<svg viewBox="0 0 1024 768" version="1.1" xmlns="http://www.w3.org/2000/svg" xmlns:xlink="http://www.w3.org/1999/xlink" stroke-linecap="round" stroke-linejoin="round" fill-rule="evenodd" xml:space="preserve" >
<defs >
<clipPath id="clipId0" >
<path d="M0,768 1024,768 1024,0 0,0 z" />
</clipPath>
</defs>
<g clip-path="url(#clipId0)" fill="none" stroke="rgb(0,0,0)" stroke-width="0.1" />
<g clip-path="url(#clipId0)" fill="none" stroke="rgb(0,0,0)" stroke-width="0.25" >
<path d="M622.354,454.925  A212.401,212.401 0 0,0 409.953,242.525 " stroke-dasharray="141.600388,28.320078,28.320078,28.320078" />
<polyline points="728.554,454.925 516.154,454.925 " />
<polyline points="509.073,454.925 388.713,454.925 " stroke-dasharray="141.600388,28.320078,28.320078,28.320078" />
<polyline points="409.953,355.805 409.953,476.165 " stroke-dasharray="141.600388,28.320078,28.320078,28.320078" />
</g>
<g clip-path="url(#clipId0)" fill="rgb(0,0,0)" stroke="rgb(0,0,0)" stroke-width="0.25" >
<path d="M547.627,322.258 542.621,317.251 560.143,304.735 560.143,304.735 z" />
</g>
<g clip-path="url(#clipId0)" fill="none" stroke="rgb(0,0,0)" stroke-width="0.25" >
<polyline points="545.124,319.754 463.965,400.914 " />
<polyline points="446.177,409.982 446.177,424.142 " />
<polyline points="446.177,416.051 447.188,413.016 449.211,410.993 451.234,409.982 454.268,409.982 " />
<polyline points="437.16,427.719 409.953,454.925 " />
<polyline points="516.154,490.325 516.154,454.925 " />
<polyline points="728.554,490.325 728.554,454.925 " />
<polyline points="409.953,136.324 374.553,136.324 " />
<polyline points="409.953,348.725 374.553,348.725 " />
<path d="M728.554,454.925  A318.601,318.601 0 0,0 409.953,136.324 " />
<polyline points="709.769,402.06 514.54,436.484 " />
<polyline points="696.034,350.8 509.749,418.603 " />
<polyline points="673.607,302.705 501.925,401.825 " />
<polyline points="643.168,259.234 491.307,386.661 " />
<polyline points="605.644,221.71 478.217,373.571 " />
<polyline points="562.174,191.272 463.053,362.953 " />
<polyline points="514.078,168.844 446.276,355.13 " />
<polyline points="462.819,155.11 428.395,350.338 " />
<polyline points="409.953,136.324 409.953,348.725 " />
<polyline points="516.154,454.925 519.608,435.59 " />
<polyline points="514.54,436.484 514.584,416.843 " />
<polyline points="509.749,418.603 506.382,399.252 " />
<polyline points="501.925,401.825 495.249,383.353 " />
<polyline points="491.307,386.661 481.525,369.629 " />
<polyline points="478.217,373.571 465.626,358.497 " />
<polyline points="463.053,362.953 448.036,350.294 " />
<polyline points="446.276,355.13 429.288,345.271 " />
<polyline points="428.395,350.338 409.953,343.579 " />
<polyline points="354.066,136.324 166.651,136.324 " />
<polyline points="354.066,348.725 166.651,348.725 " />
<polyline points="192.139,157.564 192.139,210.665 " />
<polyline points="192.139,327.485 192.139,274.385 " />
</g>
<g clip-path="url(#clipId0)" fill="rgb(0,0,0)" stroke="rgb(0,0,0)" stroke-width="0.25" >
<path d="M195.679,157.564 188.599,157.564 192.139,136.324 192.139,136.324 z" />
<path d="M195.679,327.485 188.599,327.485 192.139,348.725 192.139,348.725 z" />
</g>
<g clip-path="url(#clipId0)" fill="none" stroke="rgb(0,0,0)" stroke-width="0.25" >
<polyline points="189.105,231.905 189.105,253.145 " />
<polyline points="189.105,231.905 196.185,231.905 199.219,232.916 201.242,234.939 202.253,236.962 203.265,239.996 203.265,245.053 202.253,248.088 201.242,250.11 199.219,252.133 196.185,253.145 189.105,253.145 " />
<path d="M831.326,433.692  A421.908,421.908 0 0,0 732.631,183.106 " />
<path d="M681.362,131.903  A421.908,421.908 0 0,0 431.187,33.5521 " />
<polyline points="857.349,454.925 737.404,454.925 " stroke-dasharray="141.600388,28.320078,28.320078,28.320078" />
<polyline points="409.953,7.52941 409.953,127.474 " stroke-dasharray="141.600388,28.320078,28.320078,28.320078" />
</g>
<g clip-path="url(#clipId0)" fill="rgb(0,0,0)" stroke="rgb(0,0,0)" stroke-width="0.25" >
<path d="M827.787,433.781 834.865,433.603 831.861,454.925 831.861,454.925 z" />
<path d="M431.097,37.091 431.276,30.0132 409.953,33.0175 409.953,33.0175 z" />
</g>
<g clip-path="url(#clipId0)" fill="none" stroke="rgb(0,0,0)" stroke-width="0.25" >
<polyline points="706.555,158.292 705.544,161.326 703.521,163.349 700.486,164.36 699.475,164.36 696.441,163.349 694.418,161.326 693.406,158.292 693.406,157.28 694.418,154.246 696.441,152.223 699.475,151.212 700.486,151.212 703.521,152.223 705.544,154.246 706.555,158.292 706.555,163.349 705.544,168.406 703.521,171.44 700.486,172.452 698.464,172.452 695.429,171.44 694.418,169.418 " />
<polyline points="719.704,151.212 716.669,152.223 714.646,155.258 713.635,160.315 713.635,163.349 714.646,168.406 716.669,171.44 719.704,172.452 721.726,172.452 724.761,171.44 726.784,168.406 727.795,163.349 727.795,160.315 726.784,155.258 724.761,152.223 721.726,151.212 719.704,151.212 " />
<circle cx="732.491" cy="149.865" r="2.28116" />
</g>
<g clip-path="url(#clipId0)" fill="rgb(0,0,0)" stroke="rgb(0,0,0)" stroke-width="0.25" >
<path d="M340.59,238.985 340.59,246.065 361.83,242.525 361.83,242.525 z" />
</g>
<g clip-path="url(#clipId0)" fill="none" stroke="rgb(0,0,0)" stroke-width="0.25" >
<polyline points="340.59,242.525 260.423,242.525 " />
<polyline points="289.779,204.797 287.756,205.808 285.733,207.831 284.722,209.854 283.711,212.888 283.711,217.946 284.722,220.98 285.733,223.003 287.756,225.026 289.779,226.037 293.825,226.037 295.848,225.026 297.871,223.003 298.882,220.98 299.893,217.946 299.893,212.888 298.882,209.854 297.871,207.831 295.848,205.808 293.825,204.797 289.779,204.797 " />
<polyline points="292.813,221.991 298.882,228.06 " />
<polyline points="312.397,273.93 310.374,274.941 308.351,276.964 307.34,279.999 307.34,282.022 308.351,285.056 310.374,287.079 312.397,288.09 315.431,288.09 317.454,287.079 319.477,285.056 320.488,282.022 320.488,279.999 319.477,276.964 317.454,274.941 315.431,273.93 312.397,273.93 " />
<polyline points="289.625,255.194 281.534,276.434 " />
<polyline points="289.625,255.194 297.717,276.434 " />
<polyline points="284.568,269.354 294.683,269.354 " />
<polyline points="728.554,490.325 516.154,490.325 " />
<polyline points="374.553,136.324 374.553,348.725 " />
<polyline points="260.423,242.525 244.06,242.525 " />
<polyline points="727.509,736.736 726.026,733.769 723.059,730.802 720.092,729.319 714.158,729.319 711.191,730.802 708.224,733.769 706.741,736.736 705.258,741.186 705.258,748.603 706.741,753.053 708.224,756.02 711.191,758.987 714.158,760.471 720.092,760.471 723.059,758.987 726.026,756.02 727.509,753.053 " />
<polyline points="737.893,729.319 737.893,760.471 " />
<polyline points="737.893,729.319 748.277,729.319 752.727,730.802 755.694,733.769 757.178,736.736 758.661,741.186 758.661,748.603 757.178,753.053 755.694,756.02 752.727,758.987 748.277,760.471 737.893,760.471 " />
<polyline points="770.529,729.319 786.846,729.319 777.946,741.186 782.396,741.186 785.363,742.669 786.846,744.153 788.33,748.603 788.33,751.57 786.846,756.02 783.879,758.987 779.429,760.471 774.979,760.471 770.529,758.987 769.045,757.504 767.562,754.537 " />
<polyline points="798.714,747.12 825.416,747.12 " />
<polyline points="853.601,729.319 838.767,729.319 837.283,742.669 838.767,741.186 843.217,739.703 847.667,739.703 852.117,741.186 855.084,744.153 856.568,748.603 856.568,751.57 855.084,756.02 852.117,758.987 847.667,760.471 843.217,760.471 838.767,758.987 837.283,757.504 835.8,754.537 " />
</g>
</svg>
