<?xml version="1.0" standalone="no"?>
<svg viewBox="0 0 1024 768" version="1.1" xmlns="http://www.w3.org/2000/svg" xmlns:xlink="http://www.w3.org/1999/xlink" stroke-linecap="round" stroke-linejoin="round" fill-rule="evenodd" xml:space="preserve" >
<defs >
<clipPath id="clipId0" >
<path d="M0,768 1024,768 1024,0 0,0 z" />
</clipPath>
</defs>
<g clip-path="url(#clipId0)" fill="none" stroke="rgb(0,0,0)" stroke-width="0.1" />
<g clip-path="url(#clipId0)" fill="none" stroke="rgb(0,0,0)" stroke-width="0.25" >
<path d="M523.728,500.741  A118.663,118.663 0 0,0 406.657,383.67 " />
<path d="M761.061,500.741  A355.989,355.989 0 0,0 406.657,146.337 " />
<path d="M642.401,502.323  A237.326,237.326 0 0,0 405.075,264.996 " stroke-dasharray="158.217533,31.643507,31.643507,31.643507" />
<polyline points="416.476,503.084 392.744,503.084 " />
<polyline points="404.61,491.217 404.61,514.95 " />
<polyline points="281.357,308.592 279.097,309.722 276.836,311.983 275.706,315.373 275.706,317.633 276.836,321.024 279.097,323.284 281.357,324.414 284.747,324.414 287.007,323.284 289.268,321.024 290.398,317.633 290.398,315.373 289.268,311.983 287.007,309.722 284.747,308.592 281.357,308.592 " />
<polyline points="322.086,264.996 198.738,264.996 " />
</g>
<g clip-path="url(#clipId0)" fill="rgb(0,0,0)" stroke="rgb(0,0,0)" stroke-width="0.25" >
<path d="M322.086,261.041 322.086,268.952 345.819,264.996 345.819,264.996 z" />
</g>
<g clip-path="url(#clipId0)" fill="none" stroke="rgb(0,0,0)" stroke-width="0.25" >
<polyline points="761.065,541.877 523.738,541.877 " />
<polyline points="365.521,146.333 365.521,383.66 " />
<polyline points="761.065,503.905 761.065,541.877 " />
<polyline points="523.738,503.905 523.738,541.877 " />
<polyline points="403.493,383.66 365.521,383.66 " />
<polyline points="403.493,146.333 365.521,146.333 " />
</g>
<g clip-path="url(#clipId0)" fill="rgb(0,0,0)" stroke="rgb(0,0,0)" stroke-width="0.25" >
<path d="M588.559,392.909 592.485,399.777 611.127,384.567 611.127,384.567 z" />
</g>
<g clip-path="url(#clipId0)" fill="none" stroke="rgb(0,0,0)" stroke-width="0.25" >
<polyline points="590.522,396.343 480.994,458.936 " />
<polyline points="463.306,458.55 463.306,474.372 " />
<polyline points="463.306,465.331 464.436,461.941 466.696,459.681 468.957,458.55 472.347,458.55 " />
<polyline points="452.513,475.212 405.075,502.323 " />
<path d="M870.785,478.598  A466.314,466.314 0 0,0 761.993,202.226 " />
<path d="M704.709,145.015  A466.314,466.314 0 0,0 428.8,36.6125 " />
<polyline points="899.868,502.323 770.953,502.323 " />
<polyline points="405.075,7.52941 405.075,136.445 " />
</g>
<g clip-path="url(#clipId0)" fill="rgb(0,0,0)" stroke="rgb(0,0,0)" stroke-width="0.25" >
<path d="M866.831,478.698 874.74,478.497 871.389,502.323 871.389,502.323 z" />
<path d="M428.699,40.5667 428.901,32.6583 405.075,36.0086 405.075,36.0086 z" />
</g>
<g clip-path="url(#clipId0)" fill="none" stroke="rgb(0,0,0)" stroke-width="0.25" >
<polyline points="761.065,500.741 523.738,500.741 " />
<polyline points="761.065,503.905 523.738,503.905 " />
<path d="M523.738,500.741  A1.58218,1.58218 0 0,0 523.738,503.905 " />
<path d="M761.065,503.905  A1.58218,1.58218 0 0,0 761.065,500.741 " />
<polyline points="403.493,146.333 403.493,383.66 " />
<polyline points="406.657,146.333 406.657,383.66 " />
<path d="M403.493,383.66  A1.58218,1.58218 0 0,0 406.657,383.66 " />
<path d="M406.657,146.333  A1.58218,1.58218 0 0,0 403.493,146.333 " />
<polyline points="252.328,213.63 250.068,214.76 247.808,217.02 246.677,219.28 245.547,222.671 245.547,228.321 246.677,231.712 247.808,233.972 250.068,236.232 252.328,237.362 256.849,237.362 259.109,236.232 261.369,233.972 262.499,231.712 263.629,228.321 263.629,222.671 262.499,219.28 261.369,217.02 259.109,214.76 256.849,213.63 252.328,213.63 " />
<polyline points="255.718,232.842 262.499,239.623 " />
<polyline points="727.937,170.879 726.807,174.269 724.547,176.529 721.156,177.659 720.026,177.659 716.636,176.529 714.375,174.269 713.245,170.879 713.245,169.748 714.375,166.358 716.636,164.098 720.026,162.968 721.156,162.968 724.547,164.098 726.807,166.358 727.937,170.879 727.937,176.529 726.807,182.18 724.547,185.57 721.156,186.7 718.896,186.7 715.506,185.57 714.375,183.31 " />
<polyline points="742.629,162.968 739.238,164.098 736.978,167.488 735.848,173.139 735.848,176.529 736.978,182.18 739.238,185.57 742.629,186.7 744.889,186.7 748.279,185.57 750.539,182.18 751.67,176.529 751.67,173.139 750.539,167.488 748.279,164.098 744.889,162.968 742.629,162.968 " />
<circle cx="760.688" cy="166.069" r="2.54886" />
<polyline points="342.63,383.66 117.697,383.66 " />
<polyline points="342.63,146.333 117.697,146.333 " />
<polyline points="146.176,359.927 146.176,300.595 " />
<polyline points="146.176,170.066 146.176,229.397 " />
</g>
<g clip-path="url(#clipId0)" fill="rgb(0,0,0)" stroke="rgb(0,0,0)" stroke-width="0.25" >
<path d="M150.131,359.927 142.22,359.927 146.176,383.66 146.176,383.66 z" />
<path d="M150.131,170.066 142.22,170.066 146.176,146.333 146.176,146.333 z" />
</g>
<g clip-path="url(#clipId0)" fill="none" stroke="rgb(0,0,0)" stroke-width="0.25" >
<polyline points="139.381,251.133 139.381,274.866 " />
<polyline points="139.381,251.133 147.292,251.133 150.682,252.263 152.943,254.523 154.073,256.784 155.203,260.174 155.203,265.825 154.073,269.215 152.943,271.475 150.682,273.735 147.292,274.866 139.381,274.866 " />
<polyline points="252.586,280.506 243.545,304.239 " />
<polyline points="252.586,280.506 261.627,304.239 " />
<polyline points="246.935,296.328 258.236,296.328 " />
<polyline points="772.045,733.95 770.387,730.635 767.072,727.32 763.757,725.663 757.127,725.663 753.812,727.32 750.497,730.635 748.839,733.95 747.182,738.923 747.182,747.21 748.839,752.183 750.497,755.498 753.812,758.813 757.127,760.471 763.757,760.471 767.072,758.813 770.387,755.498 772.045,752.183 " />
<polyline points="783.647,725.663 783.647,760.471 " />
<polyline points="783.647,725.663 795.25,725.663 800.222,727.32 803.537,730.635 805.195,733.95 806.852,738.923 806.852,747.21 805.195,752.183 803.537,755.498 800.222,758.813 795.25,760.471 783.647,760.471 " />
<polyline points="820.112,725.663 838.345,725.663 828.4,738.923 833.373,738.923 836.688,740.58 838.345,742.238 840.003,747.21 840.003,750.525 838.345,755.498 835.03,758.813 830.058,760.471 825.085,760.471 820.112,758.813 818.455,757.156 816.797,753.841 " />
<polyline points="851.605,745.553 881.441,745.553 " />
<polyline points="898.016,732.293 901.331,730.635 906.303,725.663 906.303,760.471 " />
</g>
</svg>
