<?xml version="1.0" standalone="no"?>
<svg viewBox="0 0 1024 768" version="1.1" xmlns="http://www.w3.org/2000/svg" xmlns:xlink="http://www.w3.org/1999/xlink" stroke-linecap="round" stroke-linejoin="round" fill-rule="evenodd" xml:space="preserve" >
<defs >
<clipPath id="clipId0" >
<path d="M0,768 1024,768 1024,0 0,0 z" />
</clipPath>
</defs>
<g clip-path="url(#clipId0)" fill="none" stroke="rgb(0,0,0)" stroke-width="0.1" />
<g clip-path="url(#clipId0)" fill="none" stroke="rgb(0,0,0)" stroke-width="0.25" >
<path d="M675.298,680.453  A307.553,307.553 0 0,0 367.745,372.9 " stroke-dasharray="205.035402,41.007080,41.007080,41.007080" />
<polyline points="511.27,680.453 336.99,680.453 " />
<polyline points="367.745,536.928 367.745,711.208 " />
</g>
<g clip-path="url(#clipId0)" fill="rgb(0,0,0)" stroke="rgb(0,0,0)" stroke-width="0.25" >
<path d="M567.096,488.352 559.846,481.103 585.218,462.98 585.218,462.98 z" />
</g>
<g clip-path="url(#clipId0)" fill="none" stroke="rgb(0,0,0)" stroke-width="0.25" >
<polyline points="563.471,484.728 445.953,602.246 " />
<polyline points="420.12,615.376 420.12,635.879 " />
<polyline points="420.12,624.163 421.584,619.77 424.513,616.84 427.442,615.376 431.836,615.376 " />
<polyline points="407.14,641.058 367.745,680.453 " />
<polyline points="521.522,733.762 521.522,682.503 " />
<polyline points="829.075,733.762 829.075,682.503 " />
<polyline points="473.041,219.123 369.796,219.123 " />
<polyline points="402.844,526.677 369.796,526.677 " />
<path d="M976.278,649.708  A609.309,609.309 0 0,0 833.836,288.003 " />
<path d="M759.6,213.862  A609.309,609.309 0 0,0 398.491,71.9203 " />
<polyline points="1013.96,680.453 841.89,680.453 " />
<polyline points="367.745,34.2377 367.745,206.309 " />
</g>
<g clip-path="url(#clipId0)" fill="rgb(0,0,0)" stroke="rgb(0,0,0)" stroke-width="0.25" >
<path d="M971.154,649.837 981.402,649.578 977.054,680.453 977.054,680.453 z" />
<path d="M398.362,77.0445 398.62,66.796 367.745,71.1441 367.745,71.1441 z" />
</g>
<g clip-path="url(#clipId0)" fill="none" stroke="rgb(0,0,0)" stroke-width="0.25" >
<polyline points="280.988,219.123 10.0392,219.123 " />
<polyline points="280.988,526.677 10.0392,526.677 " />
<polyline points="46.9456,249.879 46.9456,326.767 " />
<polyline points="46.9456,495.921 46.9456,419.033 " />
</g>
<g clip-path="url(#clipId0)" fill="rgb(0,0,0)" stroke="rgb(0,0,0)" stroke-width="0.25" >
<path d="M52.0715,249.879 41.8197,249.879 46.9456,219.123 46.9456,219.123 z" />
<path d="M52.0715,495.921 41.8197,495.921 46.9456,526.677 46.9456,526.677 z" />
</g>
<g clip-path="url(#clipId0)" fill="none" stroke="rgb(0,0,0)" stroke-width="0.25" >
<polyline points="42.552,357.522 42.552,388.278 " />
<polyline points="42.552,357.522 52.8037,357.522 57.1974,358.987 60.1264,361.916 61.591,364.845 63.0555,369.239 63.0555,376.561 61.591,380.955 60.1264,383.884 57.1974,386.813 52.8037,388.278 42.552,388.278 " />
<polyline points="829.075,678.403 521.522,678.403 " />
<polyline points="829.075,682.503 521.522,682.503 " />
<path d="M829.075,682.503  A2.05035,2.05035 0 0,0 829.075,678.403 " />
<polyline points="829.075,678.403 829.075,575.158 " />
<path d="M521.522,678.403  A2.05035,2.05035 0 0,0 521.522,682.503 " />
<polyline points="521.522,678.403 521.522,645.355 " />
<polyline points="369.796,526.677 369.796,219.123 " />
<polyline points="365.695,526.677 365.695,219.123 " />
<path d="M365.695,526.677  A2.05035,2.05035 0 0,0 369.796,526.677 " />
<polyline points="365.695,526.677 314.436,526.677 " />
<path d="M369.796,219.123  A2.05035,2.05035 0 0,0 365.695,219.123 " />
<polyline points="365.695,219.123 314.436,219.123 " />
<polyline points="521.522,645.355 829.075,575.158 " />
<polyline points="501.006,594.496 762.995,418.775 " />
<polyline points="443.367,542.683 612.936,276.67 " />
<polyline points="402.844,526.677 473.041,219.123 " />
<polyline points="521.522,645.355 509.856,612.016 " />
<polyline points="509.856,612.016 491.065,582.109 " />
<polyline points="491.065,582.109 466.089,557.134 " />
<polyline points="466.089,557.134 436.182,538.342 " />
<polyline points="436.182,538.342 402.844,526.677 " />
</g>
<g clip-path="url(#clipId0)" fill="rgb(0,0,0)" stroke="rgb(0,0,0)" stroke-width="0.25" >
<path d="M247.051,367.774 247.051,378.026 277.806,372.9 277.806,372.9 z" />
</g>
<g clip-path="url(#clipId0)" fill="none" stroke="rgb(0,0,0)" stroke-width="0.25" >
<polyline points="247.051,372.9 151.578,372.9 " />
<polyline points="795.656,250.932 794.192,255.326 791.263,258.255 786.869,259.719 785.405,259.719 781.011,258.255 778.082,255.326 776.617,250.932 776.617,249.467 778.082,245.074 781.011,242.145 785.405,240.68 786.869,240.68 791.263,242.145 794.192,245.074 795.656,250.932 795.656,258.255 794.192,265.577 791.263,269.971 786.869,271.436 783.94,271.436 779.547,269.971 778.082,267.042 " />
<polyline points="814.695,240.68 810.302,242.145 807.373,246.538 805.908,253.861 805.908,258.255 807.373,265.577 810.302,269.971 814.695,271.436 817.625,271.436 822.018,269.971 824.947,265.577 826.412,258.255 826.412,253.861 824.947,246.538 822.018,242.145 817.625,240.68 814.695,240.68 " />
<polyline points="184.311,324.239 181.381,325.704 178.452,328.633 176.988,331.562 175.523,335.956 175.523,343.278 176.988,347.672 178.452,350.601 181.381,353.53 184.311,354.995 190.169,354.995 193.098,353.53 196.027,350.601 197.491,347.672 198.956,343.278 198.956,335.956 197.491,331.562 196.027,328.633 193.098,325.704 190.169,324.239 184.311,324.239 " />
<polyline points="188.704,349.136 197.491,357.924 " />
<polyline points="221.26,418.375 218.331,419.839 215.402,422.768 213.938,427.162 213.938,430.091 215.402,434.484 218.331,437.414 221.26,438.878 225.654,438.878 228.583,437.414 231.512,434.484 232.977,430.091 232.977,427.162 231.512,422.768 228.583,419.839 225.654,418.375 221.26,418.375 " />
<circle cx="842.987" cy="238.73" r="3.30308" />
<polyline points="473.041,219.123 612.936,276.67 " />
<polyline points="612.936,276.67 762.995,418.775 " />
<polyline points="762.995,418.775 829.075,575.158 " />
<polyline points="187.53,389.476 175.813,420.231 " />
<polyline points="187.53,389.476 199.246,420.231 " />
<polyline points="180.207,409.979 194.852,409.979 " />
<polyline points="314.436,526.677 314.436,219.123 " />
<polyline points="829.075,733.762 521.522,733.762 " />
<polyline points="151.578,372.9 119.312,372.9 " />
</g>
</svg>
