<?xml version="1.0" standalone="no"?>
<svg viewBox="0 0 1024 768" version="1.1" xmlns="http://www.w3.org/2000/svg" xmlns:xlink="http://www.w3.org/1999/xlink" stroke-linecap="round" stroke-linejoin="round" fill-rule="evenodd" xml:space="preserve" >
<defs >
<clipPath id="clipId0" >
<path d="M0,768 1024,768 1024,0 0,0 z" />
</clipPath>
</defs>
<g clip-path="url(#clipId0)" fill="none" stroke="rgb(0,0,0)" stroke-width="0.1" />
<g clip-path="url(#clipId0)" fill="none" stroke="rgb(0,0,0)" stroke-width="0.25" >
<polyline points="485.795,512.371 485.795,540.517 " />
<polyline points="499.868,526.444 471.722,526.444 " />
<polyline points="507.716,459.2 507.716,477.964 " />
<polyline points="507.716,467.242 509.057,463.221 511.737,460.54 514.418,459.2 518.439,459.2 " />
<polyline points="792.791,284.769 760.947,252.925 " />
<polyline points="593.766,483.794 561.922,451.95 " />
<polyline points="545.963,435.991 700.865,192.843 " />
<polyline points="506.058,419.462 568.457,137.998 " />
<polyline points="792.791,284.769 593.766,483.794 " />
<polyline points="438.454,137.998 438.454,419.462 " />
<polyline points="506.058,419.462 487.241,419.462 " />
<polyline points="568.457,137.998 487.241,137.998 " />
<polyline points="758.293,250.271 559.268,449.296 " />
<polyline points="760.947,252.925 561.922,451.95 " />
<path d="M760.947,252.925  A1.87643,1.87643 0 1,0 758.293,250.271 " />
<polyline points="758.293,250.271 700.865,192.843 " />
<path d="M559.268,449.296  A1.87643,1.87643 0 0,0 561.922,451.95 " />
<polyline points="559.268,449.296 545.963,435.991 " />
<polyline points="483.489,137.998 483.489,419.462 " />
<polyline points="487.241,137.998 487.241,419.462 " />
<path d="M483.489,419.462  A1.87643,1.87643 0 0,0 487.241,419.462 " />
<polyline points="483.489,419.462 438.454,419.462 " />
<path d="M487.241,137.998  A1.87643,1.87643 0 0,0 483.489,137.998 " />
<polyline points="483.489,137.998 438.454,137.998 " />
<polyline points="411.306,419.462 161.658,419.462 " />
<polyline points="411.306,137.998 161.658,137.998 " />
<polyline points="195.434,391.315 195.434,320.949 " />
<polyline points="195.434,166.144 195.434,236.51 " />
</g>
<g clip-path="url(#clipId0)" fill="rgb(0,0,0)" stroke="rgb(0,0,0)" stroke-width="0.25" >
<path d="M200.125,391.315 190.743,391.315 195.434,419.462 195.434,419.462 z" />
<path d="M200.125,166.144 190.743,166.144 195.434,137.998 195.434,137.998 z" />
</g>
<g clip-path="url(#clipId0)" fill="none" stroke="rgb(0,0,0)" stroke-width="0.25" >
<polyline points="191.413,264.656 191.413,292.803 " />
<polyline points="191.413,264.656 200.795,264.656 204.816,265.997 207.497,268.677 208.837,271.358 210.177,275.379 210.177,282.08 208.837,286.101 207.497,288.782 204.816,291.462 200.795,292.803 191.413,292.803 " />
<path d="M660.112,351.105  A247.13,247.13 0 0,0 485.365,278.722 " stroke-dasharray="97.123519,19.424704,19.424704,19.424704" />
<polyline points="545.963,435.991 506.058,419.462 " />
<polyline points="700.865,192.843 568.457,137.998 " />
<path d="M807.52,163.91  A484.547,484.547 0 0,0 723.184,103.681 " />
<path d="M616.453,59.374  A484.547,484.547 0 0,0 513.5,42.1226 " />
<polyline points="851.875,159.343 767.913,243.305 " />
<polyline points="485.365,7.52941 485.365,126.27 " />
</g>
<g clip-path="url(#clipId0)" fill="rgb(0,0,0)" stroke="rgb(0,0,0)" stroke-width="0.25" >
<path d="M804.3,167.322 810.739,160.498 827.992,183.226 827.992,183.226 z" />
<path d="M513.363,46.8117 513.636,37.4335 485.365,41.3051 485.365,41.3051 z" />
<path d="M567.209,322.684 575.834,326.375 582.596,298.653 582.596,298.653 z" />
</g>
<g clip-path="url(#clipId0)" fill="none" stroke="rgb(0,0,0)" stroke-width="0.25" >
<polyline points="571.522,324.53 518.105,449.349 " />
<polyline points="503.685,483.045 485.365,525.853 " />
</g>
<g clip-path="url(#clipId0)" fill="rgb(0,0,0)" stroke="rgb(0,0,0)" stroke-width="0.25" >
<path d="M394.843,274.039 394.843,283.421 422.989,278.73 422.989,278.73 z" />
</g>
<g clip-path="url(#clipId0)" fill="none" stroke="rgb(0,0,0)" stroke-width="0.25" >
<polyline points="394.843,278.73 284.319,278.73 " />
<polyline points="327.315,228.734 324.635,230.075 321.954,232.755 320.614,235.436 319.273,239.457 319.273,246.158 320.614,250.179 321.954,252.86 324.635,255.54 327.315,256.881 332.676,256.881 335.357,255.54 338.038,252.86 339.378,250.179 340.718,246.158 340.718,239.457 339.378,235.436 338.038,232.755 335.357,230.075 332.676,228.734 327.315,228.734 " />
<polyline points="331.336,251.52 339.378,259.561 " />
<polyline points="364.974,324.19 362.293,325.53 359.613,328.211 358.273,332.232 358.273,334.912 359.613,338.933 362.293,341.614 364.974,342.954 368.995,342.954 371.676,341.614 374.356,338.933 375.696,334.912 375.696,332.232 374.356,328.211 371.676,325.53 368.995,324.19 364.974,324.19 " />
<polyline points="661.443,64.8684 648.04,83.6326 668.144,83.6326 " />
<polyline points="661.443,64.8684 661.443,93.0148 " />
<polyline points="690.93,64.8684 677.527,64.8684 676.186,76.9311 677.527,75.5908 681.547,74.2505 685.568,74.2505 689.589,75.5908 692.27,78.2714 693.61,82.2923 693.61,84.9729 692.27,88.9939 689.589,91.6745 685.568,93.0148 681.547,93.0148 677.527,91.6745 676.186,90.3342 674.846,87.6535 " />
<circle cx="704.306" cy="63.0838" r="3.02289" />
<polyline points="329.568,296.926 318.845,325.073 " />
<polyline points="329.568,296.926 340.29,325.073 " />
<polyline points="322.866,315.691 336.269,315.691 " />
<polyline points="284.319,278.73 270.838,278.73 " />
<polyline points="686.52,734.423 684.892,731.167 681.636,727.911 678.38,726.283 671.868,726.283 668.613,727.911 665.357,731.167 663.729,734.423 662.101,739.307 662.101,747.447 663.729,752.331 665.357,755.587 668.613,758.843 671.868,760.471 678.38,760.471 681.636,758.843 684.892,755.587 686.52,752.331 " />
<polyline points="697.916,726.283 697.916,760.471 " />
<polyline points="697.916,726.283 709.312,726.283 714.196,727.911 717.452,731.167 719.08,734.423 720.708,739.307 720.708,747.447 719.08,752.331 717.452,755.587 714.196,758.843 709.312,760.471 697.916,760.471 " />
<polyline points="733.732,726.283 751.639,726.283 741.871,739.307 746.755,739.307 750.011,740.935 751.639,742.563 753.267,747.447 753.267,750.703 751.639,755.587 748.383,758.843 743.499,760.471 738.615,760.471 733.732,758.843 732.104,757.215 730.476,753.959 " />
<polyline points="764.663,745.819 793.967,745.819 " />
<polyline points="810.246,732.795 813.502,731.167 818.386,726.283 818.386,760.471 " />
<polyline points="854.202,726.283 837.922,749.075 862.342,749.075 " />
<polyline points="854.202,726.283 854.202,760.471 " />
</g>
</svg>
