<?xml version="1.0" standalone="no"?>
<svg viewBox="0 0 1024 768" version="1.1" xmlns="http://www.w3.org/2000/svg" xmlns:xlink="http://www.w3.org/1999/xlink" stroke-linecap="round" stroke-linejoin="round" fill-rule="evenodd" xml:space="preserve" >
<defs >
<clipPath id="clipId0" >
<path d="M0,768 1024,768 1024,0 0,0 z" />
</clipPath>
</defs>
<g clip-path="url(#clipId0)" fill="none" stroke="rgb(0,0,0)" stroke-width="0.1" />
<g clip-path="url(#clipId0)" fill="none" stroke="rgb(0,0,0)" stroke-width="0.25" >
<path d="M573.084,424.5  A120.747,120.747 0 0,0 490.459,390.275 " />
<path d="M743.851,253.733  A362.241,362.241 0 0,0 490.459,148.774 " />
<path d="M659.611,340.249  A241.494,241.494 0 0,0 488.849,269.518 " stroke-dasharray="100.622427,20.124485,20.124485,20.124485" />
<polyline points="500.451,511.786 476.301,511.786 " />
<polyline points="488.376,499.711 488.376,523.861 " />
<polyline points="356.313,323.771 354.013,324.921 351.713,327.221 350.563,330.671 350.563,332.971 351.713,336.421 354.013,338.721 356.313,339.871 359.763,339.871 362.062,338.721 364.362,336.421 365.512,332.971 365.512,330.671 364.362,327.221 362.062,324.921 359.763,323.771 356.313,323.771 " />
<polyline points="399.881,269.518 274.367,269.518 " />
</g>
<g clip-path="url(#clipId0)" fill="rgb(0,0,0)" stroke="rgb(0,0,0)" stroke-width="0.25" >
<path d="M399.881,265.493 399.881,273.542 424.03,269.518 424.03,269.518 z" />
</g>
<g clip-path="url(#clipId0)" fill="none" stroke="rgb(0,0,0)" stroke-width="0.25" >
<polyline points="773.453,283.329 602.691,454.091 " />
<polyline points="448.6,148.771 448.6,390.264 " />
<polyline points="746.131,256.007 773.453,283.329 " />
<polyline points="575.369,426.769 602.691,454.091 " />
<polyline points="487.239,390.264 448.6,390.264 " />
<polyline points="487.239,148.771 448.6,148.771 " />
</g>
<g clip-path="url(#clipId0)" fill="rgb(0,0,0)" stroke="rgb(0,0,0)" stroke-width="0.25" >
<path d="M568.855,308.888 576.284,311.989 581.872,288.153 581.872,288.153 z" />
</g>
<g clip-path="url(#clipId0)" fill="none" stroke="rgb(0,0,0)" stroke-width="0.25" >
<polyline points="572.57,310.438 523.123,428.9 " />
<polyline points="514.527,437.185 514.527,453.285 " />
<polyline points="514.527,444.085 515.677,440.635 517.977,438.335 520.277,437.185 523.727,437.185 " />
<polyline points="510.266,459.704 488.849,511.011 " />
<polyline points="743.854,253.73 573.092,424.492 " />
<polyline points="746.131,256.007 575.369,426.769 " />
<path d="M573.092,424.492  A1.60996,1.60996 0 0,0 575.369,426.769 " />
<path d="M746.131,256.007  A1.60996,1.60996 0 0,0 743.854,253.73 " />
<polyline points="487.239,148.771 487.239,390.264 " />
<polyline points="490.459,148.771 490.459,390.264 " />
<path d="M487.239,390.264  A1.60996,1.60996 0 0,0 490.459,390.264 " />
<path d="M490.459,148.771  A1.60996,1.60996 0 0,0 487.239,148.771 " />
<path d="M806.868,158.851  A474.503,474.503 0 0,0 715.511,94.1452 " />
<path d="M623.891,56.1305  A474.503,474.503 0 0,0 512.991,37.1232 " />
<polyline points="844.865,154.996 752.107,247.753 " />
<polyline points="488.849,7.52941 488.849,138.708 " />
</g>
<g clip-path="url(#clipId0)" fill="rgb(0,0,0)" stroke="rgb(0,0,0)" stroke-width="0.25" >
<path d="M804.096,161.769 809.641,155.934 824.374,175.487 824.374,175.487 z" />
<path d="M512.889,41.1468 513.093,33.0996 488.849,36.5087 488.849,36.5087 z" />
</g>
<g clip-path="url(#clipId0)" fill="none" stroke="rgb(0,0,0)" stroke-width="0.25" >
<polyline points="324.558,217.249 322.258,218.399 319.958,220.699 318.808,222.999 317.658,226.449 317.658,232.199 318.808,235.649 319.958,237.949 322.258,240.248 324.558,241.398 329.157,241.398 331.457,240.248 333.757,237.949 334.907,235.649 336.057,232.199 336.057,226.449 334.907,222.999 333.757,220.699 331.457,218.399 329.157,217.249 324.558,217.249 " />
<polyline points="328.007,236.799 334.907,243.698 " />
<polyline points="648.897,62.5938 637.398,78.6933 654.647,78.6933 " />
<polyline points="648.897,62.5938 648.897,86.7431 " />
<polyline points="674.197,62.5938 662.697,62.5938 661.547,72.9435 662.697,71.7935 666.147,70.6436 669.597,70.6436 673.047,71.7935 675.347,74.0935 676.497,77.5434 676.497,79.8433 675.347,83.2932 673.047,85.5932 669.597,86.7431 666.147,86.7431 662.697,85.5932 661.547,84.4432 660.397,82.1433 " />
<circle cx="689.512" cy="61.0626" r="2.59362" />
<polyline points="428.615,390.264 178.699,390.264 " />
<polyline points="428.615,148.771 178.699,148.771 " />
<polyline points="207.679,366.115 207.679,305.742 " />
<polyline points="207.679,172.92 207.679,233.294 " />
</g>
<g clip-path="url(#clipId0)" fill="rgb(0,0,0)" stroke="rgb(0,0,0)" stroke-width="0.25" >
<path d="M211.704,366.115 203.654,366.115 207.679,390.264 207.679,390.264 z" />
<path d="M211.704,172.92 203.654,172.92 207.679,148.771 207.679,148.771 z" />
</g>
<g clip-path="url(#clipId0)" fill="none" stroke="rgb(0,0,0)" stroke-width="0.25" >
<polyline points="196.927,260.99 196.927,285.139 " />
<polyline points="196.927,260.99 204.976,260.99 208.426,262.14 210.726,264.44 211.876,266.74 213.026,270.19 213.026,275.94 211.876,279.389 210.726,281.689 208.426,283.989 204.976,285.139 196.927,285.139 " />
<polyline points="327.036,295.192 317.836,319.342 " />
<polyline points="327.036,295.192 336.236,319.342 " />
<polyline points="321.286,311.292 332.786,311.292 " />
<polyline points="696.878,733.485 695.191,730.111 691.818,726.738 688.445,725.051 681.698,725.051 678.325,726.738 674.952,730.111 673.265,733.485 671.578,738.544 671.578,746.978 673.265,752.037 674.952,755.411 678.325,758.784 681.698,760.471 688.445,760.471 691.818,758.784 695.191,755.411 696.878,752.037 " />
<polyline points="708.684,725.051 708.684,760.471 " />
<polyline points="708.684,725.051 720.49,725.051 725.55,726.738 728.924,730.111 730.61,733.485 732.297,738.544 732.297,746.978 730.61,752.037 728.924,755.411 725.55,758.784 720.49,760.471 708.684,760.471 " />
<polyline points="745.79,725.051 764.343,725.051 754.223,738.544 759.283,738.544 762.656,740.231 764.343,741.918 766.029,746.978 766.029,750.351 764.343,755.411 760.969,758.784 755.91,760.471 750.85,760.471 745.79,758.784 744.103,757.097 742.417,753.724 " />
<polyline points="777.836,745.291 808.195,745.291 " />
<polyline points="836.868,725.051 820.001,748.664 845.301,748.664 " />
<polyline points="836.868,725.051 836.868,760.471 " />
</g>
</svg>
