<?xml version="1.0" standalone="no"?>
<svg viewBox="0 0 1024 768" version="1.1" xmlns="http://www.w3.org/2000/svg" xmlns:xlink="http://www.w3.org/1999/xlink" stroke-linecap="round" stroke-linejoin="round" fill-rule="evenodd" xml:space="preserve" >
<defs >
<clipPath id="clipId0" >
<path d="M0,768 1024,768 1024,0 0,0 z" />
</clipPath>
</defs>
<g clip-path="url(#clipId0)" fill="none" stroke="rgb(0,0,0)" stroke-width="0.1" />
<g clip-path="url(#clipId0)" fill="none" stroke="rgb(0,0,0)" stroke-width="0.25" >
<path d="M562.964,420.87  A119.696,119.696 0 0,0 481.058,386.944 " />
<path d="M732.245,251.59  A359.088,359.088 0 0,0 481.058,147.545 " />
<path d="M648.738,337.354  A239.392,239.392 0 0,0 479.462,267.237 " stroke-dasharray="99.746636,19.949327,19.949327,19.949327" />
<polyline points="490.962,507.397 467.023,507.397 " />
<polyline points="478.993,495.427 478.993,519.367 " />
<polyline points="367.742,311.213 365.462,312.353 363.182,314.632 362.042,318.052 362.042,320.332 363.182,323.752 365.462,326.032 367.742,327.172 371.162,327.172 373.442,326.032 375.722,323.752 376.862,320.332 376.862,318.052 375.722,314.632 373.442,312.353 371.162,311.213 367.742,311.213 " />
<polyline points="397.826,267.237 273.404,267.237 " />
</g>
<g clip-path="url(#clipId0)" fill="rgb(0,0,0)" stroke="rgb(0,0,0)" stroke-width="0.25" >
<path d="M397.826,263.247 397.826,271.227 421.765,267.237 421.765,267.237 z" />
</g>
<g clip-path="url(#clipId0)" fill="none" stroke="rgb(0,0,0)" stroke-width="0.25" >
<polyline points="761.588,280.928 592.312,450.204 " />
<polyline points="439.563,147.541 439.563,386.933 " />
<polyline points="734.504,253.844 761.588,280.928 " />
<polyline points="565.228,423.12 592.312,450.204 " />
<polyline points="477.866,386.933 439.563,386.933 " />
<polyline points="477.866,147.541 439.563,147.541 " />
</g>
<g clip-path="url(#clipId0)" fill="rgb(0,0,0)" stroke="rgb(0,0,0)" stroke-width="0.25" >
<path d="M558.772,306.265 566.136,309.339 571.675,285.71 571.675,285.71 z" />
</g>
<g clip-path="url(#clipId0)" fill="none" stroke="rgb(0,0,0)" stroke-width="0.25" >
<polyline points="562.454,307.802 513.437,425.233 " />
<polyline points="504.916,433.446 504.916,449.405 " />
<polyline points="504.916,440.285 506.056,436.865 508.336,434.586 510.616,433.446 514.036,433.446 " />
<polyline points="500.692,455.768 479.462,506.629 " />
<polyline points="732.247,251.587 562.971,420.863 " />
<polyline points="734.504,253.844 565.228,423.12 " />
<path d="M562.971,420.863  A1.59595,1.59595 0 0,0 565.228,423.12 " />
<path d="M734.504,253.844  A1.59595,1.59595 0 0,0 732.247,251.587 " />
<polyline points="477.866,147.541 477.866,386.933 " />
<polyline points="481.058,147.541 481.058,386.933 " />
<path d="M477.866,386.933  A1.59595,1.59595 0 0,0 481.058,386.933 " />
<path d="M481.058,147.541  A1.59595,1.59595 0 0,0 477.866,147.541 " />
<path d="M794.713,157.534  A470.373,470.373 0 0,0 704.151,93.3913 " />
<path d="M613.328,55.7075  A470.373,470.373 0 0,0 503.393,36.8656 " />
<polyline points="832.379,153.712 740.429,245.663 " />
<polyline points="479.462,7.52941 479.462,137.567 " />
</g>
<g clip-path="url(#clipId0)" fill="rgb(0,0,0)" stroke="rgb(0,0,0)" stroke-width="0.25" >
<path d="M791.964,160.426 797.462,154.642 812.066,174.025 812.066,174.025 z" />
<path d="M503.292,40.8542 503.495,32.8771 479.462,36.2564 479.462,36.2564 z" />
</g>
<g clip-path="url(#clipId0)" fill="none" stroke="rgb(0,0,0)" stroke-width="0.25" >
<polyline points="332.995,215.424 330.715,216.564 328.435,218.844 327.295,221.124 326.155,224.543 326.155,230.243 327.295,233.663 328.435,235.943 330.715,238.223 332.995,239.363 337.554,239.363 339.834,238.223 342.114,235.943 343.254,233.663 344.394,230.243 344.394,224.543 343.254,221.124 342.114,218.844 339.834,216.564 337.554,215.424 332.995,215.424 " />
<polyline points="336.415,234.803 343.254,241.643 " />
<polyline points="638.117,62.1145 626.717,78.074 643.817,78.074 " />
<polyline points="638.117,62.1145 638.117,86.0537 " />
<polyline points="663.196,62.1145 651.796,62.1145 650.656,72.3741 651.796,71.2342 655.216,70.0942 658.636,70.0942 662.056,71.2342 664.336,73.5141 665.476,76.934 665.476,79.2139 664.336,82.6338 662.056,84.9137 658.636,86.0537 655.216,86.0537 651.796,84.9137 650.656,83.7738 649.516,81.4938 " />
<circle cx="678.378" cy="60.5967" r="2.57104" />
<polyline points="416.473,386.933 189.582,386.933 " />
<polyline points="416.473,147.541 189.582,147.541 " />
<polyline points="218.309,362.994 218.309,303.146 " />
<polyline points="218.309,171.481 218.309,231.329 " />
</g>
<g clip-path="url(#clipId0)" fill="rgb(0,0,0)" stroke="rgb(0,0,0)" stroke-width="0.25" >
<path d="M222.299,362.994 214.319,362.994 218.309,386.933 218.309,386.933 z" />
<path d="M222.299,171.481 214.319,171.481 218.309,147.541 218.309,147.541 z" />
</g>
<g clip-path="url(#clipId0)" fill="none" stroke="rgb(0,0,0)" stroke-width="0.25" >
<polyline points="214.889,255.268 214.889,279.207 " />
<polyline points="214.889,255.268 222.869,255.268 226.289,256.408 228.569,258.688 229.709,260.968 230.849,264.387 230.849,270.087 229.709,273.507 228.569,275.787 226.289,278.067 222.869,279.207 214.889,279.207 " />
<polyline points="338.72,282.882 329.601,306.821 " />
<polyline points="338.72,282.882 347.84,306.821 " />
<polyline points="333.021,298.841 344.42,298.841 " />
<polyline points="688.959,733.719 687.287,730.376 683.943,727.032 680.599,725.36 673.911,725.36 670.567,727.032 667.223,730.376 665.551,733.719 663.88,738.735 663.88,747.095 665.551,752.111 667.223,755.455 670.567,758.799 673.911,760.471 680.599,760.471 683.943,758.799 687.287,755.455 688.959,752.111 " />
<polyline points="700.662,725.36 700.662,760.471 " />
<polyline points="700.662,725.36 712.366,725.36 717.382,727.032 720.726,730.376 722.398,733.719 724.069,738.735 724.069,747.095 722.398,752.111 720.726,755.455 717.382,758.799 712.366,760.471 700.662,760.471 " />
<polyline points="737.445,725.36 755.836,725.36 745.805,738.735 750.821,738.735 754.164,740.407 755.836,742.079 757.508,747.095 757.508,750.439 755.836,755.455 752.493,758.799 747.477,760.471 742.461,760.471 737.445,758.799 735.773,757.127 734.101,753.783 " />
<polyline points="769.212,745.423 799.307,745.423 " />
<polyline points="814.354,725.36 832.746,725.36 822.714,738.735 827.73,738.735 831.074,740.407 832.746,742.079 834.418,747.095 834.418,750.439 832.746,755.455 829.402,758.799 824.386,760.471 819.37,760.471 814.354,758.799 812.683,757.127 811.011,753.783 " />
</g>
</svg>
