<?xml version="1.0" standalone="no"?>
<svg viewBox="0 0 1024 768" version="1.1" xmlns="http://www.w3.org/2000/svg" xmlns:xlink="http://www.w3.org/1999/xlink" stroke-linecap="round" stroke-linejoin="round" fill-rule="evenodd" xml:space="preserve" >
<defs >
<clipPath id="clipId0" >
<path d="M0,768 1024,768 1024,0 0,0 z" />
</clipPath>
</defs>
<g clip-path="url(#clipId0)" fill="none" stroke="rgb(0,0,0)" stroke-width="0.1" />
<g clip-path="url(#clipId0)" fill="none" stroke="rgb(0,0,0)" stroke-width="0.25" >
<polyline points="813.581,411.786 792.428,375.148 " />
<polyline points="584.594,543.992 563.441,507.354 " />
<polyline points="813.581,411.786 584.594,543.992 " />
<polyline points="411.901,179.876 411.901,444.287 " />
<polyline points="527.03,444.287 457.732,444.287 " />
<polyline points="679.688,179.876 457.732,179.876 " />
<polyline points="790.665,372.095 561.679,504.301 " />
<polyline points="792.428,375.148 563.441,507.354 " />
<path d="M792.428,375.148  A1.76274,1.76274 0 0,0 790.665,372.095 " />
<polyline points="790.665,372.095 679.688,179.876 " />
<path d="M561.679,504.301  A1.76274,1.76274 0 1,0 563.441,507.354 " />
<polyline points="561.679,504.301 527.03,444.287 " />
<polyline points="454.207,179.876 454.207,444.287 " />
<polyline points="457.732,179.876 457.732,444.287 " />
<path d="M454.207,444.287  A1.76274,1.76274 0 0,0 457.732,444.287 " />
<polyline points="454.207,444.287 411.901,444.287 " />
<path d="M457.732,179.876  A1.76274,1.76274 0 0,0 454.207,179.876 " />
<polyline points="454.207,179.876 411.901,179.876 " />
<polyline points="390.019,444.287 80.5525,444.287 " />
<polyline points="390.019,179.876 80.5525,179.876 " />
<polyline points="134.392,417.846 134.392,351.743 " />
<polyline points="134.392,206.317 134.392,272.42 " />
</g>
<g clip-path="url(#clipId0)" fill="rgb(0,0,0)" stroke="rgb(0,0,0)" stroke-width="0.25" >
<path d="M138.799,417.846 129.985,417.846 134.392,444.287 134.392,444.287 z" />
<path d="M138.799,206.317 129.985,206.317 134.392,179.876 134.392,179.876 z" />
</g>
<g clip-path="url(#clipId0)" fill="none" stroke="rgb(0,0,0)" stroke-width="0.25" >
<polyline points="130.615,298.861 130.615,325.302 " />
<polyline points="130.615,298.861 139.429,298.861 143.206,300.12 145.724,302.638 146.983,305.157 148.242,308.934 148.242,315.229 146.983,319.007 145.724,321.525 143.206,324.043 139.429,325.302 130.615,325.302 " />
<polyline points="527.03,444.287 679.688,179.876 " />
</g>
<g clip-path="url(#clipId0)" fill="rgb(0,0,0)" stroke="rgb(0,0,0)" stroke-width="0.25" >
<path d="M352.122,307.675 352.122,316.489 378.563,312.082 378.563,312.082 z" />
</g>
<g clip-path="url(#clipId0)" fill="none" stroke="rgb(0,0,0)" stroke-width="0.25" >
<polyline points="352.122,312.082 200.065,312.082 " />
<polyline points="269.025,265.116 266.507,266.375 263.989,268.893 262.73,271.411 261.471,275.188 261.471,281.484 262.73,285.261 263.989,287.779 266.507,290.298 269.025,291.557 274.062,291.557 276.58,290.298 279.098,287.779 280.357,285.261 281.616,281.484 281.616,275.188 280.357,271.411 279.098,268.893 276.58,266.375 274.062,265.116 269.025,265.116 " />
<polyline points="272.803,286.52 280.357,294.075 " />
<polyline points="297.182,358.16 294.664,359.419 292.145,361.937 290.886,365.714 290.886,368.233 292.145,372.01 294.664,374.528 297.182,375.787 300.959,375.787 303.477,374.528 305.995,372.01 307.255,368.233 307.255,365.714 305.995,361.937 303.477,359.419 300.959,358.16 297.182,358.16 " />
<polyline points="270.55,329.176 260.477,355.617 " />
<polyline points="270.55,329.176 280.622,355.617 " />
<polyline points="264.254,346.803 276.845,346.803 " />
<polyline points="801.969,369.64 943.448,287.957 " />
<polyline points="457.732,168.859 457.732,7.52941 " />
<path d="M902.181,281.261  A529.127,529.127 0 0,0 755.845,131.232 " />
</g>
<g clip-path="url(#clipId0)" fill="rgb(0,0,0)" stroke="rgb(0,0,0)" stroke-width="0.25" >
<path d="M905.941,278.963 898.42,283.559 915.969,303.822 915.969,303.822 z" />
<path d="M484.055,44.3249 484.275,35.5139 457.732,39.2588 457.732,39.2588 z" />
</g>
<g clip-path="url(#clipId0)" fill="none" stroke="rgb(0,0,0)" stroke-width="0.25" >
<polyline points="710.19,104.613 708.931,102.095 705.153,100.836 702.635,100.836 698.858,102.095 696.34,105.872 695.08,112.168 695.08,118.463 696.34,123.499 698.858,126.018 702.635,127.277 703.894,127.277 707.671,126.018 710.19,123.499 711.449,119.722 711.449,118.463 710.19,114.686 707.671,112.168 703.894,110.908 702.635,110.908 698.858,112.168 696.34,114.686 695.08,118.463 " />
<polyline points="726.558,100.836 722.781,102.095 720.262,105.872 719.003,112.168 719.003,115.945 720.262,122.24 722.781,126.018 726.558,127.277 729.076,127.277 732.853,126.018 735.372,122.24 736.631,115.945 736.631,112.168 735.372,105.872 732.853,102.095 729.076,100.836 726.558,100.836 " />
<ellipse rx="2.5182" ry="2.5182" cx="744.185" cy="103.354" />
<path d="M683.835,90  A529.127,529.127 0 0,0 484.165,39.9194 " />
<polyline points="771.059,734.772 769.453,731.56 766.241,728.348 763.028,726.741 756.604,726.741 753.391,728.348 750.179,731.56 748.573,734.772 746.967,739.591 746.967,747.621 748.573,752.44 750.179,755.652 753.391,758.864 756.604,760.471 763.028,760.471 766.241,758.864 769.453,755.652 771.059,752.44 " />
<polyline points="782.302,726.741 782.302,760.471 " />
<polyline points="782.302,726.741 793.545,726.741 798.364,728.348 801.576,731.56 803.182,734.772 804.788,739.591 804.788,747.621 803.182,752.44 801.576,755.652 798.364,758.864 793.545,760.471 782.302,760.471 " />
<polyline points="817.637,726.741 835.305,726.741 825.668,739.591 830.487,739.591 833.699,741.197 835.305,742.803 836.911,747.621 836.911,750.834 835.305,755.652 832.093,758.864 827.274,760.471 822.456,760.471 817.637,758.864 816.031,757.258 814.425,754.046 " />
<polyline points="848.154,746.015 877.065,746.015 " />
<polyline points="893.126,733.166 896.339,731.56 901.157,726.741 901.157,760.471 " />
<polyline points="941.311,731.56 939.705,728.348 934.886,726.741 931.674,726.741 926.855,728.348 923.643,733.166 922.037,741.197 922.037,749.228 923.643,755.652 926.855,758.864 931.674,760.471 933.28,760.471 938.098,758.864 941.311,755.652 942.917,750.834 942.917,749.228 941.311,744.409 938.098,741.197 933.28,739.591 931.674,739.591 926.855,741.197 923.643,744.409 922.037,749.228 " />
</g>
</svg>
