<?xml version="1.0" standalone="no"?>
<svg viewBox="0 0 1024 768" version="1.1" xmlns="http://www.w3.org/2000/svg" xmlns:xlink="http://www.w3.org/1999/xlink" stroke-linecap="round" stroke-linejoin="round" fill-rule="evenodd" xml:space="preserve" >
<defs >
<clipPath id="clipId0" >
<path d="M0,768 1024,768 1024,0 0,0 z" />
</clipPath>
</defs>
<g clip-path="url(#clipId0)" fill="none" stroke="rgb(0,0,0)" stroke-width="0.1" />
<g clip-path="url(#clipId0)" fill="none" stroke="rgb(0,0,0)" stroke-width="0.25" >
<polyline points="971.744,175.111 501.256,175.111 " />
<polyline points="608.032,82.1037 602.655,96.2184 " />
<polyline points="608.032,82.1037 613.409,96.2184 " />
<polyline points="604.671,91.5135 611.392,91.5135 " />
<polyline points="620.917,91.07 620.11,91.4733 619.304,92.2798 618.901,93.0864 618.497,94.2962 618.497,96.3126 618.901,97.5224 619.304,98.329 620.11,99.1355 620.917,99.5388 622.53,99.5388 623.337,99.1355 624.143,98.329 624.546,97.5224 624.95,96.3126 624.95,94.2962 624.546,93.0864 624.143,92.2798 623.337,91.4733 622.53,91.07 620.917,91.07 " />
<polyline points="646.259,104.538 583.023,104.538 " />
</g>
<g clip-path="url(#clipId0)" fill="rgb(0,0,0)" stroke="rgb(0,0,0)" stroke-width="0.25" >
<path d="M646.259,102.186 646.259,106.891 660.373,104.538 660.373,104.538 z" />
</g>
<g clip-path="url(#clipId0)" fill="none" stroke="rgb(0,0,0)" stroke-width="0.25" >
<polyline points="971.744,33.965 501.256,33.965 " />
<circle cx="298.684" cy="104.538" r="70.5732" />
<polyline points="736.5,175.111 736.5,33.965 " stroke-dasharray="23.524409,11.762204" />
<polyline points="971.744,260.804 632.948,260.804 " />
<polyline points="971.744,401.951 632.948,401.951 " />
<polyline points="501.256,366.664 501.256,296.091 " stroke-dasharray="23.524409,11.762204" />
<polyline points="501.256,366.664 632.948,401.951 " />
<polyline points="501.256,296.091 632.948,260.804 " />
<polyline points="632.948,401.951 632.948,260.804 " />
<polyline points="948.22,559.853 995.269,559.853 " stroke-dasharray="117.622043,23.524409,23.524409,23.524409" />
<polyline points="548.814,489.28 971.744,489.28 " />
<polyline points="478.24,701 478.24,418.707 " stroke-dasharray="23.524409,11.762204" />
<polyline points="548.814,630.427 971.744,630.427 " />
<polyline points="548.814,630.427 548.814,489.28 " />
<polyline points="971.744,630.427 971.209,630.409 970.675,630.355 970.147,630.266 969.625,630.142 969.113,629.983 968.613,629.791 968.126,629.566 967.656,629.308 967.204,629.02 966.772,628.703 966.362,628.357 966.362,628.357 965.61,627.65 964.887,626.913 964.194,626.147 963.534,625.353 962.906,624.534 962.311,623.689 961.752,622.821 961.228,621.931 960.741,621.021 960.291,620.091 960.291,620.091 959.727,618.812 959.202,617.516 958.717,616.205 958.271,614.879 957.866,613.541 957.502,612.191 957.179,610.831 956.897,609.461 956.897,609.461 956.581,607.688 956.307,605.909 956.075,604.123 955.885,602.332 955.738,600.538 955.632,598.74 955.568,596.941 955.547,595.14 955.547,595.14 955.568,593.339 955.632,591.54 955.738,589.742 955.885,587.948 956.075,586.157 956.307,584.371 956.581,582.591 956.897,580.819 956.897,580.819 957.179,579.449 957.502,578.089 957.866,576.739 958.271,575.401 958.717,574.075 959.202,572.764 959.727,571.468 960.291,570.189 960.291,570.189 960.741,569.259 961.228,568.349 961.752,567.459 962.311,566.591 962.906,565.746 963.534,564.927 964.194,564.133 964.887,563.367 965.61,562.63 966.362,561.923 966.362,561.923 966.772,561.577 967.204,561.259 967.656,560.971 968.126,560.714 968.613,560.489 969.113,560.296 969.625,560.138 970.147,560.014 970.675,559.925 971.209,559.871 971.744,559.853 971.744,559.853 972.28,559.871 972.813,559.925 973.342,560.014 973.864,560.138 974.376,560.296 974.876,560.489 975.362,560.714 975.833,560.971 976.285,561.259 976.717,561.577 977.126,561.923 977.126,561.923 977.879,562.63 978.602,563.367 979.294,564.133 979.955,564.927 980.583,565.746 981.177,566.591 981.737,567.459 982.261,568.349 982.748,569.259 983.197,570.189 983.197,570.189 983.761,571.468 984.286,572.764 984.772,574.075 985.217,575.401 985.622,576.739 985.987,578.089 986.31,579.449 986.592,580.819 986.592,580.819 986.908,582.591 987.181,584.371 987.413,586.157 987.603,587.948 987.751,589.742 987.857,591.54 987.92,593.339 987.941,595.14 987.941,595.14 987.92,596.941 987.857,598.74 987.751,600.538 987.603,602.332 987.413,604.123 987.181,605.909 986.908,607.688 986.592,609.461 986.592,609.461 986.31,610.831 985.987,612.191 985.622,613.541 985.217,614.879 984.772,616.205 984.286,617.516 983.761,618.812 983.197,620.091 983.197,620.091 982.748,621.021 982.261,621.931 981.737,622.821 981.177,623.689 980.583,624.534 979.955,625.353 979.294,626.147 978.602,626.913 977.879,627.65 977.126,628.357 977.126,628.357 976.717,628.703 976.285,629.02 975.833,629.308 975.362,629.566 974.876,629.791 974.376,629.983 973.864,630.142 973.342,630.266 972.813,630.355 972.28,630.409 971.744,630.427 " />
<polyline points="971.744,559.853 972.28,559.835 972.813,559.782 973.342,559.693 973.864,559.569 974.376,559.41 974.876,559.218 975.362,558.993 975.833,558.735 976.285,558.447 976.717,558.13 977.126,557.784 977.126,557.784 977.879,557.077 978.602,556.34 979.294,555.574 979.955,554.78 980.583,553.96 981.177,553.116 981.737,552.248 982.261,551.358 982.748,550.448 983.197,549.518 983.197,549.518 983.761,548.239 984.286,546.943 984.772,545.631 985.217,544.306 985.622,542.968 985.987,541.618 986.31,540.258 986.592,538.888 986.592,538.888 986.908,537.115 987.181,535.335 987.413,533.55 987.603,531.759 987.751,529.964 987.857,528.167 987.92,526.367 987.941,524.567 987.941,524.567 987.92,522.766 987.857,520.967 987.751,519.169 987.603,517.374 987.413,515.584 987.181,513.798 986.908,512.018 986.592,510.245 986.592,510.245 986.31,508.876 985.987,507.516 985.622,506.166 985.217,504.827 984.772,503.502 984.286,502.191 983.761,500.895 983.197,499.615 983.197,499.615 982.748,498.686 982.261,497.775 981.737,496.885 981.177,496.017 980.583,495.173 979.955,494.353 979.294,493.56 978.602,492.794 977.879,492.057 977.126,491.349 977.126,491.349 976.717,491.004 976.285,490.686 975.833,490.398 975.362,490.141 974.876,489.916 974.376,489.723 973.864,489.565 973.342,489.441 972.813,489.352 972.28,489.298 971.744,489.28 " />
<polyline points="971.744,462.845 971.744,656.862 " stroke-dasharray="117.622043,23.524409,23.524409,23.524409" />
<polyline points="62.9869,575.956 75.0852,575.956 " />
<polyline points="62.9869,579.989 75.0852,579.989 " />
<polyline points="98.6096,569.907 97.2654,569.907 95.9211,570.579 95.249,572.596 95.249,584.022 " />
<polyline points="93.2326,574.612 97.9375,574.612 " />
<polyline points="102.642,574.612 102.642,584.022 " />
<polyline points="102.642,578.645 103.314,576.628 104.659,575.284 106.003,574.612 108.019,574.612 " />
<polyline points="110.708,578.645 118.773,578.645 118.773,577.301 118.101,575.956 117.429,575.284 116.085,574.612 114.069,574.612 112.724,575.284 111.38,576.628 110.708,578.645 110.708,579.989 111.38,582.005 112.724,583.35 114.069,584.022 116.085,584.022 117.429,583.35 118.773,582.005 " />
<polyline points="122.806,578.645 130.872,578.645 130.872,577.301 130.2,575.956 129.527,575.284 128.183,574.612 126.167,574.612 124.823,575.284 123.478,576.628 122.806,578.645 122.806,579.989 123.478,582.005 124.823,583.35 126.167,584.022 128.183,584.022 129.527,583.35 130.872,582.005 " />
<polyline points="157.085,574.612 157.085,584.022 " />
<polyline points="157.085,576.628 155.74,575.284 154.396,574.612 152.38,574.612 151.035,575.284 149.691,576.628 149.019,578.645 149.019,579.989 149.691,582.005 151.035,583.35 152.38,584.022 154.396,584.022 155.74,583.35 157.085,582.005 " />
<polyline points="162.462,574.612 162.462,584.022 " />
<polyline points="162.462,578.645 163.134,576.628 164.478,575.284 165.822,574.612 167.839,574.612 " />
<polyline points="170.527,578.645 178.593,578.645 178.593,577.301 177.92,575.956 177.248,575.284 175.904,574.612 173.888,574.612 172.543,575.284 171.199,576.628 170.527,578.645 170.527,579.989 171.199,582.005 172.543,583.35 173.888,584.022 175.904,584.022 177.248,583.35 178.593,582.005 " />
<polyline points="190.691,574.612 190.691,584.022 " />
<polyline points="190.691,576.628 189.347,575.284 188.002,574.612 185.986,574.612 184.642,575.284 183.297,576.628 182.625,578.645 182.625,579.989 183.297,582.005 184.642,583.35 185.986,584.022 188.002,584.022 189.347,583.35 190.691,582.005 " />
<polyline points="210.183,574.612 210.183,584.022 " />
<polyline points="210.183,578.645 210.855,576.628 212.199,575.284 213.543,574.612 215.56,574.612 " />
<polyline points="226.314,574.612 226.314,584.022 " />
<polyline points="226.314,576.628 224.969,575.284 223.625,574.612 221.609,574.612 220.264,575.284 218.92,576.628 218.248,578.645 218.248,579.989 218.92,582.005 220.264,583.35 221.609,584.022 223.625,584.022 224.969,583.35 226.314,582.005 " />
<polyline points="232.363,569.907 232.363,581.333 233.035,583.35 234.379,584.022 235.723,584.022 " />
<polyline points="230.346,574.612 235.051,574.612 " />
<polyline points="239.084,570.579 239.756,571.251 240.428,570.579 239.756,569.907 239.084,570.579 " />
<polyline points="239.756,575.284 239.756,584.022 " />
<polyline points="247.822,574.612 246.477,575.284 245.133,576.628 244.461,578.645 244.461,579.989 245.133,582.005 246.477,583.35 247.822,584.022 249.838,584.022 251.182,583.35 252.526,582.005 253.199,579.989 253.199,578.645 252.526,576.628 251.182,575.284 249.838,574.612 247.822,574.612 " />
<polyline points="274.707,574.612 273.362,575.284 272.018,576.628 271.346,578.645 271.346,579.989 272.018,582.005 273.362,583.35 274.707,584.022 276.723,584.022 278.067,583.35 279.411,582.005 280.084,579.989 280.084,578.645 279.411,576.628 278.067,575.284 276.723,574.612 274.707,574.612 " />
<polyline points="288.821,569.907 287.477,569.907 286.133,570.579 285.461,572.596 285.461,584.022 " />
<polyline points="283.444,574.612 288.149,574.612 " />
<polyline points="313.69,576.628 313.018,575.284 311.001,574.612 308.985,574.612 306.969,575.284 306.297,576.628 306.969,577.973 308.313,578.645 311.674,579.317 313.018,579.989 313.69,581.333 313.69,582.005 313.018,583.35 311.001,584.022 308.985,584.022 306.969,583.35 306.297,582.005 " />
<polyline points="325.788,576.628 324.444,575.284 323.1,574.612 321.083,574.612 319.739,575.284 318.395,576.628 317.723,578.645 317.723,579.989 318.395,582.005 319.739,583.35 321.083,584.022 323.1,584.022 324.444,583.35 325.788,582.005 " />
<polyline points="330.493,574.612 330.493,584.022 " />
<polyline points="330.493,578.645 331.165,576.628 332.509,575.284 333.854,574.612 335.87,574.612 " />
<polyline points="338.559,578.645 346.624,578.645 346.624,577.301 345.952,575.956 345.28,575.284 343.936,574.612 341.919,574.612 340.575,575.284 339.231,576.628 338.559,578.645 338.559,579.989 339.231,582.005 340.575,583.35 341.919,584.022 343.936,584.022 345.28,583.35 346.624,582.005 " />
<polyline points="350.657,578.645 358.722,578.645 358.722,577.301 358.05,575.956 357.378,575.284 356.034,574.612 354.017,574.612 352.673,575.284 351.329,576.628 350.657,578.645 350.657,579.989 351.329,582.005 352.673,583.35 354.017,584.022 356.034,584.022 357.378,583.35 358.722,582.005 " />
<polyline points="363.427,574.612 363.427,584.022 " />
<polyline points="363.427,577.301 365.444,575.284 366.788,574.612 368.804,574.612 370.148,575.284 370.821,577.301 370.821,584.022 " />
<polyline points="62.9869,605.302 75.0852,605.302 " />
<polyline points="62.9869,609.335 75.0852,609.335 " />
<polyline points="101.97,603.958 101.97,613.368 " />
<polyline points="101.97,605.975 100.626,604.63 99.2817,603.958 97.2654,603.958 95.9211,604.63 94.5769,605.975 93.9047,607.991 93.9047,609.335 94.5769,611.352 95.9211,612.696 97.2654,613.368 99.2817,613.368 100.626,612.696 101.97,611.352 " />
<polyline points="107.347,603.958 107.347,613.368 " />
<polyline points="107.347,607.991 108.019,605.975 109.364,604.63 110.708,603.958 112.724,603.958 " />
<polyline points="115.413,607.991 123.478,607.991 123.478,606.647 122.806,605.302 122.134,604.63 120.79,603.958 118.773,603.958 117.429,604.63 116.085,605.975 115.413,607.991 115.413,609.335 116.085,611.352 117.429,612.696 118.773,613.368 120.79,613.368 122.134,612.696 123.478,611.352 " />
<polyline points="135.577,603.958 135.577,613.368 " />
<polyline points="135.577,605.975 134.232,604.63 132.888,603.958 130.872,603.958 129.527,604.63 128.183,605.975 127.511,607.991 127.511,609.335 128.183,611.352 129.527,612.696 130.872,613.368 132.888,613.368 134.232,612.696 135.577,611.352 " />
<polyline points="157.757,603.958 156.412,604.63 155.068,605.975 154.396,607.991 154.396,609.335 155.068,611.352 156.412,612.696 157.757,613.368 159.773,613.368 161.117,612.696 162.462,611.352 163.134,609.335 163.134,607.991 162.462,605.975 161.117,604.63 159.773,603.958 157.757,603.958 " />
<polyline points="171.871,599.253 170.527,599.253 169.183,599.925 168.511,601.942 168.511,613.368 " />
<polyline points="166.494,603.958 171.199,603.958 " />
<polyline points="197.412,599.253 197.412,613.368 " />
<polyline points="197.412,605.975 196.068,604.63 194.724,603.958 192.707,603.958 191.363,604.63 190.019,605.975 189.347,607.991 189.347,609.335 190.019,611.352 191.363,612.696 192.707,613.368 194.724,613.368 196.068,612.696 197.412,611.352 " />
<polyline points="202.789,603.958 202.789,610.679 203.461,612.696 204.806,613.368 206.822,613.368 208.166,612.696 210.183,610.679 " />
<polyline points="210.183,603.958 210.183,613.368 " />
<polyline points="222.953,605.975 221.609,604.63 220.264,603.958 218.248,603.958 216.904,604.63 215.56,605.975 214.887,607.991 214.887,609.335 215.56,611.352 216.904,612.696 218.248,613.368 220.264,613.368 221.609,612.696 222.953,611.352 " />
<polyline points="228.33,599.253 228.33,610.679 229.002,612.696 230.346,613.368 231.691,613.368 " />
<polyline points="226.314,603.958 231.018,603.958 " />
<polyline points="62.9869,634.648 75.0852,634.648 " />
<polyline points="62.9869,638.681 75.0852,638.681 " />
<polyline points="101.97,635.321 100.626,633.976 99.2817,633.304 97.2654,633.304 95.9211,633.976 94.5769,635.321 93.9047,637.337 93.9047,638.681 94.5769,640.698 95.9211,642.042 97.2654,642.714 99.2817,642.714 100.626,642.042 101.97,640.698 " />
<polyline points="106.675,633.304 106.675,642.714 " />
<polyline points="106.675,637.337 107.347,635.321 108.692,633.976 110.036,633.304 112.052,633.304 " />
<polyline points="118.101,633.304 116.757,633.976 115.413,635.321 114.741,637.337 114.741,638.681 115.413,640.698 116.757,642.042 118.101,642.714 120.118,642.714 121.462,642.042 122.806,640.698 123.478,638.681 123.478,637.337 122.806,635.321 121.462,633.976 120.118,633.304 118.101,633.304 " />
<polyline points="134.904,635.321 134.232,633.976 132.216,633.304 130.2,633.304 128.183,633.976 127.511,635.321 128.183,636.665 129.527,637.337 132.888,638.009 134.232,638.681 134.904,640.025 134.904,640.698 134.232,642.042 132.216,642.714 130.2,642.714 128.183,642.042 127.511,640.698 " />
<polyline points="146.331,635.321 145.658,633.976 143.642,633.304 141.626,633.304 139.609,633.976 138.937,635.321 139.609,636.665 140.954,637.337 144.314,638.009 145.658,638.681 146.331,640.025 146.331,640.698 145.658,642.042 143.642,642.714 141.626,642.714 139.609,642.042 138.937,640.698 " />
<polyline points="151.035,636.665 163.134,636.665 " />
<polyline points="175.232,635.321 174.56,633.976 172.543,633.304 170.527,633.304 168.511,633.976 167.839,635.321 168.511,636.665 169.855,637.337 173.216,638.009 174.56,638.681 175.232,640.025 175.232,640.698 174.56,642.042 172.543,642.714 170.527,642.714 168.511,642.042 167.839,640.698 " />
<polyline points="179.265,637.337 187.33,637.337 187.33,635.993 186.658,634.648 185.986,633.976 184.642,633.304 182.625,633.304 181.281,633.976 179.937,635.321 179.265,637.337 179.265,638.681 179.937,640.698 181.281,642.042 182.625,642.714 184.642,642.714 185.986,642.042 187.33,640.698 " />
<polyline points="199.429,635.321 198.084,633.976 196.74,633.304 194.724,633.304 193.379,633.976 192.035,635.321 191.363,637.337 191.363,638.681 192.035,640.698 193.379,642.042 194.724,642.714 196.74,642.714 198.084,642.042 199.429,640.698 " />
<polyline points="204.806,628.599 204.806,640.025 205.478,642.042 206.822,642.714 208.166,642.714 " />
<polyline points="202.789,633.304 207.494,633.304 " />
<polyline points="211.527,629.271 212.199,629.944 212.871,629.271 212.199,628.599 211.527,629.271 " />
<polyline points="212.199,633.976 212.199,642.714 " />
<polyline points="220.264,633.304 218.92,633.976 217.576,635.321 216.904,637.337 216.904,638.681 217.576,640.698 218.92,642.042 220.264,642.714 222.281,642.714 223.625,642.042 224.969,640.698 225.641,638.681 225.641,637.337 224.969,635.321 223.625,633.976 222.281,633.304 220.264,633.304 " />
<polyline points="230.346,633.304 230.346,642.714 " />
<polyline points="230.346,635.993 232.363,633.976 233.707,633.304 235.723,633.304 237.068,633.976 237.74,635.993 237.74,642.714 " />
<polyline points="250.51,633.304 250.51,642.714 " />
<polyline points="250.51,635.321 249.166,633.976 247.822,633.304 245.805,633.304 244.461,633.976 243.117,635.321 242.445,637.337 242.445,638.681 243.117,640.698 244.461,642.042 245.805,642.714 247.822,642.714 249.166,642.042 250.51,640.698 " />
<polyline points="255.887,628.599 255.887,642.714 " />
<polyline points="282.772,633.304 282.772,642.714 " />
<polyline points="282.772,635.321 281.428,633.976 280.084,633.304 278.067,633.304 276.723,633.976 275.379,635.321 274.707,637.337 274.707,638.681 275.379,640.698 276.723,642.042 278.067,642.714 280.084,642.714 281.428,642.042 282.772,640.698 " />
<polyline points="288.149,633.304 288.149,642.714 " />
<polyline points="288.149,637.337 288.821,635.321 290.166,633.976 291.51,633.304 293.526,633.304 " />
<polyline points="296.215,637.337 304.28,637.337 304.28,635.993 303.608,634.648 302.936,633.976 301.592,633.304 299.575,633.304 298.231,633.976 296.887,635.321 296.215,637.337 296.215,638.681 296.887,640.698 298.231,642.042 299.575,642.714 301.592,642.714 302.936,642.042 304.28,640.698 " />
<polyline points="316.378,633.304 316.378,642.714 " />
<polyline points="316.378,635.321 315.034,633.976 313.69,633.304 311.674,633.304 310.329,633.976 308.985,635.321 308.313,637.337 308.313,638.681 308.985,640.698 310.329,642.042 311.674,642.714 313.69,642.714 315.034,642.042 316.378,640.698 " />
<polyline points="338.559,633.304 337.214,633.976 335.87,635.321 335.198,637.337 335.198,638.681 335.87,640.698 337.214,642.042 338.559,642.714 340.575,642.714 341.919,642.042 343.263,640.698 343.936,638.681 343.936,637.337 343.263,635.321 341.919,633.976 340.575,633.304 338.559,633.304 " />
<polyline points="352.673,628.599 351.329,628.599 349.985,629.271 349.313,631.288 349.313,642.714 " />
<polyline points="347.296,633.304 352.001,633.304 " />
<polyline points="101.687,653.812 101.687,667.927 " />
<polyline points="101.687,660.533 100.343,659.189 98.9989,658.517 96.9826,658.517 95.6383,659.189 94.294,660.533 93.6219,662.55 93.6219,663.894 94.294,665.91 95.6383,667.255 96.9826,667.927 98.9989,667.927 100.343,667.255 101.687,665.91 " />
<polyline points="107.064,658.517 107.064,665.238 107.737,667.255 109.081,667.927 111.097,667.927 112.441,667.255 114.458,665.238 " />
<polyline points="114.458,658.517 114.458,667.927 " />
<polyline points="127.228,660.533 125.884,659.189 124.54,658.517 122.523,658.517 121.179,659.189 119.835,660.533 119.163,662.55 119.163,663.894 119.835,665.91 121.179,667.255 122.523,667.927 124.54,667.927 125.884,667.255 127.228,665.91 " />
<polyline points="132.605,653.812 132.605,665.238 133.277,667.255 134.622,667.927 135.966,667.927 " />
<polyline points="130.589,658.517 135.294,658.517 " />
<polyline points="156.802,658.517 155.458,659.189 154.113,660.533 153.441,662.55 153.441,663.894 154.113,665.91 155.458,667.255 156.802,667.927 158.818,667.927 160.162,667.255 161.507,665.91 162.179,663.894 162.179,662.55 161.507,660.533 160.162,659.189 158.818,658.517 156.802,658.517 " />
<polyline points="166.884,658.517 166.884,667.927 " />
<polyline points="166.884,662.55 167.556,660.533 168.9,659.189 170.244,658.517 172.261,658.517 " />
<polyline points="193.769,653.812 192.424,653.812 191.08,654.484 190.408,656.501 190.408,667.927 " />
<polyline points="188.392,658.517 193.097,658.517 " />
<polyline points="197.129,654.484 197.801,655.156 198.474,654.484 197.801,653.812 197.129,654.484 " />
<polyline points="197.801,659.189 197.801,667.927 " />
<polyline points="203.851,653.812 203.851,665.238 204.523,667.255 205.867,667.927 207.211,667.927 " />
<polyline points="201.834,658.517 206.539,658.517 " />
<polyline points="211.916,653.812 211.916,665.238 212.588,667.255 213.932,667.927 215.277,667.927 " />
<polyline points="209.9,658.517 214.605,658.517 " />
<polyline points="218.637,654.484 219.309,655.156 219.982,654.484 219.309,653.812 218.637,654.484 " />
<polyline points="219.309,659.189 219.309,667.927 " />
<polyline points="224.686,658.517 224.686,667.927 " />
<polyline points="224.686,661.206 226.703,659.189 228.047,658.517 230.063,658.517 231.408,659.189 232.08,661.206 232.08,667.927 " />
<polyline points="244.85,658.517 244.85,669.271 244.178,671.287 243.506,671.96 242.162,672.632 240.145,672.632 238.801,671.96 " />
<polyline points="244.85,660.533 243.506,659.189 242.162,658.517 240.145,658.517 238.801,659.189 237.457,660.533 236.785,662.55 236.785,663.894 237.457,665.91 238.801,667.255 240.145,667.927 242.162,667.927 243.506,667.255 244.85,665.91 " />
<polyline points="263.67,658.517 266.358,667.927 " />
<polyline points="269.047,658.517 266.358,667.927 " />
<polyline points="269.047,658.517 271.735,667.927 " />
<polyline points="274.424,658.517 271.735,667.927 " />
<polyline points="279.129,653.812 279.129,667.927 " />
<polyline points="279.129,661.206 281.145,659.189 282.489,658.517 284.506,658.517 285.85,659.189 286.522,661.206 286.522,667.927 " />
<polyline points="291.227,662.55 299.292,662.55 299.292,661.206 298.62,659.861 297.948,659.189 296.604,658.517 294.588,658.517 293.243,659.189 291.899,660.533 291.227,662.55 291.227,663.894 291.899,665.91 293.243,667.255 294.588,667.927 296.604,667.927 297.948,667.255 299.292,665.91 " />
<polyline points="303.997,658.517 303.997,667.927 " />
<polyline points="303.997,662.55 304.669,660.533 306.014,659.189 307.358,658.517 309.374,658.517 " />
<polyline points="312.063,662.55 320.128,662.55 320.128,661.206 319.456,659.861 318.784,659.189 317.44,658.517 315.423,658.517 314.079,659.189 312.735,660.533 312.063,662.55 312.063,663.894 312.735,665.91 314.079,667.255 315.423,667.927 317.44,667.927 318.784,667.255 320.128,665.91 " />
<polyline points="101.329,685.746 100.657,684.402 98.6405,683.73 96.6242,683.73 94.6078,684.402 93.9356,685.746 94.6078,687.09 95.952,687.763 99.3127,688.435 100.657,689.107 101.329,690.451 101.329,691.123 100.657,692.467 98.6405,693.14 96.6242,693.14 94.6078,692.467 93.9356,691.123 " />
<polyline points="113.427,685.746 112.083,684.402 110.739,683.73 108.722,683.73 107.378,684.402 106.034,685.746 105.362,687.763 105.362,689.107 106.034,691.123 107.378,692.467 108.722,693.14 110.739,693.14 112.083,692.467 113.427,691.123 " />
<polyline points="118.132,683.73 118.132,693.14 " />
<polyline points="118.132,687.763 118.804,685.746 120.149,684.402 121.493,683.73 123.509,683.73 " />
<polyline points="126.198,687.763 134.263,687.763 134.263,686.418 133.591,685.074 132.919,684.402 131.575,683.73 129.558,683.73 128.214,684.402 126.87,685.746 126.198,687.763 126.198,689.107 126.87,691.123 128.214,692.467 129.558,693.14 131.575,693.14 132.919,692.467 134.263,691.123 " />
<polyline points="138.296,687.763 146.361,687.763 146.361,686.418 145.689,685.074 145.017,684.402 143.673,683.73 141.657,683.73 140.312,684.402 138.968,685.746 138.296,687.763 138.296,689.107 138.968,691.123 140.312,692.467 141.657,693.14 143.673,693.14 145.017,692.467 146.361,691.123 " />
<polyline points="151.066,683.73 151.066,693.14 " />
<polyline points="151.066,686.418 153.083,684.402 154.427,683.73 156.443,683.73 157.788,684.402 158.46,686.418 158.46,693.14 " />
<polyline points="177.279,679.697 177.951,680.369 178.624,679.697 177.951,679.025 177.279,679.697 " />
<polyline points="177.951,684.402 177.951,693.14 " />
<polyline points="190.05,685.746 189.378,684.402 187.361,683.73 185.345,683.73 183.328,684.402 182.656,685.746 183.328,687.09 184.673,687.763 188.033,688.435 189.378,689.107 190.05,690.451 190.05,691.123 189.378,692.467 187.361,693.14 185.345,693.14 183.328,692.467 182.656,691.123 " />
<polyline points="208.869,679.025 208.869,693.14 " />
<polyline points="216.935,683.73 215.59,684.402 214.246,685.746 213.574,687.763 213.574,689.107 214.246,691.123 215.59,692.467 216.935,693.14 218.951,693.14 220.295,692.467 221.64,691.123 222.312,689.107 222.312,687.763 221.64,685.746 220.295,684.402 218.951,683.73 216.935,683.73 " />
<polyline points="234.41,685.746 233.066,684.402 231.721,683.73 229.705,683.73 228.361,684.402 227.017,685.746 226.344,687.763 226.344,689.107 227.017,691.123 228.361,692.467 229.705,693.14 231.721,693.14 233.066,692.467 234.41,691.123 " />
<polyline points="246.508,683.73 246.508,693.14 " />
<polyline points="246.508,685.746 245.164,684.402 243.82,683.73 241.803,683.73 240.459,684.402 239.115,685.746 238.443,687.763 238.443,689.107 239.115,691.123 240.459,692.467 241.803,693.14 243.82,693.14 245.164,692.467 246.508,691.123 " />
<polyline points="252.557,679.025 252.557,690.451 253.23,692.467 254.574,693.14 255.918,693.14 " />
<polyline points="250.541,683.73 255.246,683.73 " />
<polyline points="259.279,687.763 267.344,687.763 267.344,686.418 266.672,685.074 266,684.402 264.656,683.73 262.639,683.73 261.295,684.402 259.951,685.746 259.279,687.763 259.279,689.107 259.951,691.123 261.295,692.467 262.639,693.14 264.656,693.14 266,692.467 267.344,691.123 " />
<polyline points="279.442,679.025 279.442,693.14 " />
<polyline points="279.442,685.746 278.098,684.402 276.754,683.73 274.738,683.73 273.393,684.402 272.049,685.746 271.377,687.763 271.377,689.107 272.049,691.123 273.393,692.467 274.738,693.14 276.754,693.14 278.098,692.467 279.442,691.123 " />
<polyline points="47.1482,608.118 45.9384,608.521 45.1318,609.731 44.7285,611.748 44.7285,612.957 45.1318,614.974 45.9384,616.184 47.1482,616.587 47.9547,616.587 49.1646,616.184 49.9711,614.974 50.3744,612.957 50.3744,611.748 49.9711,609.731 49.1646,608.521 47.9547,608.118 47.1482,608.118 " />
<polyline points="34.1082,599.253 28.7312,613.368 " />
<polyline points="34.1082,599.253 39.4852,613.368 " />
<polyline points="30.7476,608.663 37.4689,608.663 " />
<polyline points="45.525,639.091 46.3316,638.688 47.5414,637.478 47.5414,645.947 " />
<polyline points="34.1082,628.599 28.7312,642.714 " />
<polyline points="34.1082,628.599 39.4852,642.714 " />
<polyline points="30.7476,638.009 37.4689,638.009 " />
</g>
<g clip-path="url(#clipId0)" fill="rgb(0,0,0)" stroke="rgb(0,0,0)" stroke-width="0.25" >
<path d="M725.613,149.433 729.213,152.462 736.5,140.147 736.5,140.147 z" />
</g>
<g clip-path="url(#clipId0)" fill="none" stroke="rgb(0,0,0)" stroke-width="0.25" >
<polyline points="727.413,150.947 676.576,211.365 " />
<polyline points="676.576,211.365 662.461,211.365 " />
<polyline points="582.478,206.324 581.134,204.98 579.118,204.307 576.429,204.307 574.413,204.98 573.069,206.324 573.069,207.668 573.741,209.012 574.413,209.684 575.757,210.357 579.79,211.701 581.134,212.373 581.806,213.045 582.478,214.389 582.478,216.406 581.134,217.75 579.118,218.422 576.429,218.422 574.413,217.75 573.069,216.406 " />
<polyline points="596.593,207.668 595.921,206.324 594.577,204.98 593.232,204.307 590.544,204.307 589.2,204.98 587.855,206.324 587.183,207.668 586.511,209.684 586.511,213.045 587.183,215.061 587.855,216.406 589.2,217.75 590.544,218.422 593.232,218.422 594.577,217.75 595.921,216.406 596.593,215.061 " />
<polyline points="601.298,204.307 601.298,218.422 " />
<polyline points="601.298,204.307 607.347,204.307 609.363,204.98 610.036,205.652 610.708,206.996 610.708,208.34 610.036,209.684 609.363,210.357 607.347,211.029 601.298,211.029 " />
<polyline points="606.003,211.029 610.708,218.422 " />
<polyline points="615.413,204.307 615.413,218.422 " />
<polyline points="615.413,204.307 624.15,204.307 " />
<polyline points="615.413,211.029 620.79,211.029 " />
<polyline points="615.413,218.422 624.15,218.422 " />
<polyline points="628.183,204.307 628.183,218.422 " />
<polyline points="628.183,204.307 636.921,204.307 " />
<polyline points="628.183,211.029 633.56,211.029 " />
<polyline points="628.183,218.422 636.921,218.422 " />
<polyline points="640.953,204.307 640.953,218.422 " />
<polyline points="640.953,204.307 650.363,218.422 " />
<polyline points="650.363,204.307 650.363,218.422 " />
</g>
<g clip-path="url(#clipId0)" fill="rgb(0,0,0)" stroke="rgb(0,0,0)" stroke-width="0.25" >
<path d="M491.826,317.876 488.845,321.516 501.256,328.638 501.256,328.638 z" />
</g>
<g clip-path="url(#clipId0)" fill="none" stroke="rgb(0,0,0)" stroke-width="0.25" >
<polyline points="490.335,319.696 441.04,279.334 " />
<polyline points="441.04,279.334 426.925,279.334 " />
<polyline points="312.715,274.293 311.371,272.948 309.355,272.276 306.666,272.276 304.65,272.948 303.305,274.293 303.305,275.637 303.978,276.981 304.65,277.653 305.994,278.325 310.027,279.67 311.371,280.342 312.043,281.014 312.715,282.358 312.715,284.375 311.371,285.719 309.355,286.391 306.666,286.391 304.65,285.719 303.305,284.375 " />
<polyline points="326.83,275.637 326.158,274.293 324.813,272.948 323.469,272.276 320.781,272.276 319.436,272.948 318.092,274.293 317.42,275.637 316.748,277.653 316.748,281.014 317.42,283.03 318.092,284.375 319.436,285.719 320.781,286.391 323.469,286.391 324.813,285.719 326.158,284.375 326.83,283.03 " />
<polyline points="331.535,272.276 331.535,286.391 " />
<polyline points="331.535,272.276 337.584,272.276 339.6,272.948 340.272,273.621 340.944,274.965 340.944,276.309 340.272,277.653 339.6,278.325 337.584,278.998 331.535,278.998 " />
<polyline points="336.24,278.998 340.944,286.391 " />
<polyline points="345.649,272.276 345.649,286.391 " />
<polyline points="345.649,272.276 354.387,272.276 " />
<polyline points="345.649,278.998 351.026,278.998 " />
<polyline points="345.649,286.391 354.387,286.391 " />
<polyline points="358.42,272.276 358.42,286.391 " />
<polyline points="358.42,272.276 367.157,272.276 " />
<polyline points="358.42,278.998 363.797,278.998 " />
<polyline points="358.42,286.391 367.157,286.391 " />
<polyline points="371.19,272.276 371.19,286.391 " />
<polyline points="371.19,272.276 380.6,286.391 " />
<polyline points="380.6,272.276 380.6,286.391 " />
<polyline points="400.092,272.276 400.092,286.391 " />
<polyline points="400.092,272.276 404.796,272.276 406.813,272.948 408.157,274.293 408.829,275.637 409.501,277.653 409.501,281.014 408.829,283.03 408.157,284.375 406.813,285.719 404.796,286.391 400.092,286.391 " />
<polyline points="478.24,736.946 478.24,708.477 " />
<polyline points="498.276,244.09 499.62,243.418 501.636,241.402 501.636,255.516 " />
<polyline points="971.744,234.369 971.744,428.386 " stroke-dasharray="117.622043,23.524409,23.524409,23.524409" />
<polyline points="971.744,331.377 972.28,331.359 972.813,331.306 973.342,331.217 973.864,331.093 974.376,330.934 974.876,330.742 975.362,330.516 975.833,330.259 976.285,329.971 976.717,329.654 977.126,329.308 977.126,329.308 977.879,328.601 978.602,327.864 979.294,327.098 979.955,326.304 980.583,325.484 981.177,324.64 981.737,323.772 982.261,322.882 982.748,321.972 983.197,321.042 983.197,321.042 983.761,319.763 984.286,318.467 984.772,317.155 985.217,315.83 985.622,314.492 985.987,313.142 986.31,311.782 986.592,310.412 986.592,310.412 986.908,308.639 987.181,306.859 987.413,305.074 987.603,303.283 987.751,301.488 987.857,299.691 987.92,297.891 987.941,296.091 987.941,296.091 987.92,294.29 987.857,292.491 987.751,290.693 987.603,288.898 987.413,287.108 987.181,285.322 986.908,283.542 986.592,281.769 986.592,281.769 986.31,280.4 985.987,279.04 985.622,277.69 985.217,276.351 984.772,275.026 984.286,273.715 983.761,272.419 983.197,271.139 983.197,271.139 982.748,270.21 982.261,269.299 981.737,268.409 981.177,267.541 980.583,266.697 979.955,265.877 979.294,265.084 978.602,264.318 977.879,263.581 977.126,262.873 977.126,262.873 976.717,262.528 976.285,262.21 975.833,261.922 975.362,261.665 974.876,261.44 974.376,261.247 973.864,261.089 973.342,260.965 972.813,260.876 972.28,260.822 971.744,260.804 " />
<polyline points="971.744,401.951 971.209,401.933 970.675,401.879 970.147,401.79 969.625,401.666 969.113,401.507 968.613,401.315 968.126,401.09 967.656,400.832 967.204,400.544 966.772,400.227 966.362,399.881 966.362,399.881 965.61,399.174 964.887,398.437 964.194,397.671 963.534,396.877 962.906,396.058 962.311,395.213 961.752,394.345 961.228,393.455 960.741,392.545 960.291,391.615 960.291,391.615 959.727,390.336 959.202,389.04 958.717,387.729 958.271,386.403 957.866,385.065 957.502,383.715 957.179,382.355 956.897,380.985 956.897,380.985 956.581,379.212 956.307,377.433 956.075,375.647 955.885,373.856 955.738,372.062 955.632,370.264 955.568,368.465 955.547,366.664 955.547,366.664 955.568,364.863 955.632,363.064 955.738,361.266 955.885,359.472 956.075,357.681 956.307,355.895 956.581,354.115 956.897,352.343 956.897,352.343 957.179,350.973 957.502,349.613 957.866,348.263 958.271,346.925 958.717,345.599 959.202,344.288 959.727,342.992 960.291,341.713 960.291,341.713 960.741,340.783 961.228,339.873 961.752,338.983 962.311,338.115 962.906,337.27 963.534,336.451 964.194,335.657 964.887,334.891 965.61,334.154 966.362,333.447 966.362,333.447 966.772,333.101 967.204,332.783 967.656,332.495 968.126,332.238 968.613,332.013 969.113,331.82 969.625,331.662 970.147,331.538 970.675,331.449 971.209,331.395 971.744,331.377 971.744,331.377 972.28,331.395 972.813,331.449 973.342,331.538 973.864,331.662 974.376,331.82 974.876,332.013 975.362,332.238 975.833,332.495 976.285,332.783 976.717,333.101 977.126,333.447 977.126,333.447 977.879,334.154 978.602,334.891 979.294,335.657 979.955,336.451 980.583,337.27 981.177,338.115 981.737,338.983 982.261,339.873 982.748,340.783 983.197,341.713 983.197,341.713 983.761,342.992 984.286,344.288 984.772,345.599 985.217,346.925 985.622,348.263 985.987,349.613 986.31,350.973 986.592,352.343 986.592,352.343 986.908,354.115 987.181,355.895 987.413,357.681 987.603,359.472 987.751,361.266 987.857,363.064 987.92,364.863 987.941,366.664 987.941,366.664 987.92,368.465 987.857,370.264 987.751,372.062 987.603,373.856 987.413,375.647 987.181,377.433 986.908,379.212 986.592,380.985 986.592,380.985 986.31,382.355 985.987,383.715 985.622,385.065 985.217,386.403 984.772,387.729 984.286,389.04 983.761,390.336 983.197,391.615 983.197,391.615 982.748,392.545 982.261,393.455 981.737,394.345 981.177,395.213 980.583,396.058 979.955,396.877 979.294,397.671 978.602,398.437 977.879,399.174 977.126,399.881 977.126,399.881 976.717,400.227 976.285,400.544 975.833,400.832 975.362,401.09 974.876,401.315 974.376,401.507 973.864,401.666 973.342,401.79 972.813,401.879 972.28,401.933 971.744,401.951 " />
<polyline points="948.22,331.377 995.269,331.377 " stroke-dasharray="117.622043,23.524409,23.524409,23.524409" />
<polyline points="971.744,7.52941 971.744,201.547 " stroke-dasharray="117.622043,23.524409,23.524409,23.524409" />
<polyline points="971.744,104.538 972.28,104.52 972.813,104.467 973.342,104.378 973.864,104.254 974.376,104.095 974.876,103.903 975.362,103.677 975.833,103.42 976.285,103.132 976.717,102.815 977.126,102.469 977.126,102.469 977.879,101.762 978.602,101.024 979.294,100.258 979.955,99.465 980.583,98.6453 981.177,97.8009 981.737,96.9329 982.261,96.043 982.748,95.1325 983.197,94.203 983.197,94.203 983.761,92.9235 984.286,91.6276 984.772,90.3163 985.217,88.9909 985.622,87.6527 985.987,86.3027 986.31,84.9424 986.592,83.5729 986.592,83.5729 986.908,81.8 987.181,80.0203 987.413,78.2346 987.603,76.4439 987.751,74.6493 987.857,72.8517 987.92,71.0522 987.941,69.2516 987.941,69.2516 987.92,67.451 987.857,65.6514 987.751,63.8538 987.603,62.0592 987.413,60.2686 987.181,58.4829 986.908,56.7031 986.592,54.9303 986.592,54.9303 986.31,53.5608 985.987,52.2004 985.622,50.8505 985.217,49.5122 984.772,48.1869 984.286,46.8756 983.761,45.5796 983.197,44.3002 983.197,44.3002 982.748,43.3707 982.261,42.4602 981.737,41.5702 981.177,40.7023 980.583,39.8578 979.955,39.0382 979.294,38.2447 978.602,37.4787 977.879,36.7415 977.126,36.0343 977.126,36.0343 976.717,35.6887 976.285,35.3711 975.833,35.0831 975.362,34.8258 974.876,34.6005 974.376,34.4081 973.864,34.2495 973.342,34.1255 972.813,34.0364 972.28,33.9829 971.744,33.965 " />
<polyline points="971.744,175.111 971.209,175.094 970.675,175.04 970.147,174.951 969.625,174.827 969.113,174.668 968.613,174.476 968.126,174.251 967.656,173.993 967.204,173.705 966.772,173.388 966.362,173.042 966.362,173.042 965.61,172.335 964.887,171.598 964.194,170.832 963.534,170.038 962.906,169.219 962.311,168.374 961.752,167.506 961.228,166.616 960.741,165.706 960.291,164.776 960.291,164.776 959.727,163.497 959.202,162.201 958.717,160.89 958.271,159.564 957.866,158.226 957.502,156.876 957.179,155.516 956.897,154.146 956.897,154.146 956.581,152.373 956.307,150.594 956.075,148.808 955.885,147.017 955.738,145.223 955.632,143.425 955.568,141.625 955.547,139.825 955.547,139.825 955.568,138.024 955.632,136.225 955.738,134.427 955.885,132.632 956.075,130.842 956.307,129.056 956.581,127.276 956.897,125.504 956.897,125.504 957.179,124.134 957.502,122.774 957.866,121.424 958.271,120.085 958.717,118.76 959.202,117.449 959.727,116.153 960.291,114.873 960.291,114.873 960.741,113.944 961.228,113.033 961.752,112.143 962.311,111.276 962.906,110.431 963.534,109.611 964.194,108.818 964.887,108.052 965.61,107.315 966.362,106.608 966.362,106.608 966.772,106.262 967.204,105.944 967.656,105.656 968.126,105.399 968.613,105.174 969.113,104.981 969.625,104.823 970.147,104.699 970.675,104.61 971.209,104.556 971.744,104.538 971.744,104.538 972.28,104.556 972.813,104.61 973.342,104.699 973.864,104.823 974.376,104.981 974.876,105.174 975.362,105.399 975.833,105.656 976.285,105.944 976.717,106.262 977.126,106.608 977.126,106.608 977.879,107.315 978.602,108.052 979.294,108.818 979.955,109.611 980.583,110.431 981.177,111.276 981.737,112.143 982.261,113.033 982.748,113.944 983.197,114.873 983.197,114.873 983.761,116.153 984.286,117.449 984.772,118.76 985.217,120.085 985.622,121.424 985.987,122.774 986.31,124.134 986.592,125.504 986.592,125.504 986.908,127.276 987.181,129.056 987.413,130.842 987.603,132.632 987.751,134.427 987.857,136.225 987.92,138.024 987.941,139.825 987.941,139.825 987.92,141.625 987.857,143.425 987.751,145.223 987.603,147.017 987.413,148.808 987.181,150.594 986.908,152.373 986.592,154.146 986.592,154.146 986.31,155.516 985.987,156.876 985.622,158.226 985.217,159.564 984.772,160.89 984.286,162.201 983.761,163.497 983.197,164.776 983.197,164.776 982.748,165.706 982.261,166.616 981.737,167.506 981.177,168.374 980.583,169.219 979.955,170.038 979.294,170.832 978.602,171.598 977.879,172.335 977.126,173.042 977.126,173.042 976.717,173.388 976.285,173.705 975.833,173.993 975.362,174.251 974.876,174.476 974.376,174.668 973.864,174.827 973.342,174.951 972.813,175.04 972.28,175.094 971.744,175.111 " />
<polyline points="948.22,104.538 995.269,104.538 " stroke-dasharray="117.622043,23.524409,23.524409,23.524409" />
<polyline points="501.256,201.547 501.256,7.52941 " stroke-dasharray="117.622043,23.524409,23.524409,23.524409" />
<polyline points="501.256,104.538 500.72,104.556 500.187,104.61 499.658,104.699 499.137,104.823 498.625,104.981 498.125,105.174 497.638,105.399 497.168,105.656 496.716,105.944 496.284,106.262 495.874,106.608 495.874,106.608 495.122,107.315 494.399,108.052 493.706,108.818 493.045,109.611 492.417,110.431 491.823,111.276 491.264,112.143 490.74,113.033 490.253,113.944 489.803,114.873 489.803,114.873 489.239,116.153 488.714,117.449 488.229,118.76 487.783,120.085 487.378,121.424 487.014,122.774 486.69,124.134 486.409,125.504 486.409,125.504 486.093,127.276 485.819,129.056 485.587,130.842 485.397,132.632 485.249,134.427 485.144,136.225 485.08,138.024 485.059,139.825 485.059,139.825 485.08,141.625 485.144,143.425 485.249,145.223 485.397,147.017 485.587,148.808 485.819,150.594 486.093,152.373 486.409,154.146 486.409,154.146 486.69,155.516 487.014,156.876 487.378,158.226 487.783,159.564 488.229,160.89 488.714,162.201 489.239,163.497 489.803,164.776 489.803,164.776 490.253,165.706 490.74,166.616 491.264,167.506 491.823,168.374 492.417,169.219 493.045,170.038 493.706,170.832 494.399,171.598 495.122,172.335 495.874,173.042 495.874,173.042 496.284,173.388 496.716,173.705 497.168,173.993 497.638,174.251 498.125,174.476 498.625,174.668 499.137,174.827 499.658,174.951 500.187,175.04 500.72,175.094 501.256,175.111 " />
<polyline points="501.256,33.965 501.792,33.9829 502.325,34.0364 502.854,34.1255 503.375,34.2495 503.887,34.4081 504.388,34.6005 504.874,34.8258 505.344,35.0831 505.797,35.3711 506.228,35.6887 506.638,36.0343 506.638,36.0343 507.391,36.7415 508.114,37.4787 508.806,38.2447 509.467,39.0382 510.095,39.8578 510.689,40.7023 511.249,41.5702 511.772,42.4602 512.259,43.3707 512.709,44.3002 512.709,44.3002 513.273,45.5796 513.798,46.8756 514.284,48.1869 514.729,49.5122 515.134,50.8505 515.499,52.2004 515.822,53.5608 516.104,54.9303 516.104,54.9303 516.419,56.7031 516.693,58.4829 516.925,60.2686 517.115,62.0592 517.263,63.8538 517.369,65.6514 517.432,67.451 517.453,69.2516 517.453,69.2516 517.432,71.0522 517.369,72.8517 517.263,74.6493 517.115,76.4439 516.925,78.2346 516.693,80.0203 516.419,81.8 516.104,83.5729 516.104,83.5729 515.822,84.9424 515.499,86.3027 515.134,87.6527 514.729,88.9909 514.284,90.3163 513.798,91.6276 513.273,92.9235 512.709,94.203 512.709,94.203 512.259,95.1325 511.772,96.043 511.249,96.9329 510.689,97.8009 510.095,98.6453 509.467,99.465 508.806,100.258 508.114,101.024 507.391,101.762 506.638,102.469 506.638,102.469 506.228,102.815 505.797,103.132 505.344,103.42 504.874,103.677 504.388,103.903 503.887,104.095 503.375,104.254 502.854,104.378 502.325,104.467 501.792,104.52 501.256,104.538 501.256,104.538 500.72,104.52 500.187,104.467 499.658,104.378 499.137,104.254 498.625,104.095 498.125,103.903 497.638,103.677 497.168,103.42 496.716,103.132 496.284,102.815 495.874,102.469 495.874,102.469 495.122,101.762 494.399,101.024 493.706,100.258 493.045,99.465 492.417,98.6453 491.823,97.8009 491.264,96.9329 490.74,96.043 490.253,95.1325 489.803,94.203 489.803,94.203 489.239,92.9235 488.714,91.6276 488.229,90.3163 487.783,88.9909 487.378,87.6527 487.014,86.3027 486.69,84.9424 486.409,83.5729 486.409,83.5729 486.093,81.8 485.819,80.0203 485.587,78.2346 485.397,76.4439 485.249,74.6493 485.144,72.8517 485.08,71.0522 485.059,69.2516 485.059,69.2516 485.08,67.451 485.144,65.6514 485.249,63.8538 485.397,62.0592 485.587,60.2686 485.819,58.4829 486.093,56.7031 486.409,54.9303 486.409,54.9303 486.69,53.5608 487.014,52.2004 487.378,50.8505 487.783,49.5122 488.229,48.1869 488.714,46.8756 489.239,45.5796 489.803,44.3002 489.803,44.3002 490.253,43.3707 490.74,42.4602 491.264,41.5702 491.823,40.7023 492.417,39.8578 493.045,39.0382 493.706,38.2447 494.399,37.4787 495.122,36.7415 495.874,36.0343 495.874,36.0343 496.284,35.6887 496.716,35.3711 497.168,35.0831 497.638,34.8258 498.125,34.6005 498.625,34.4081 499.137,34.2495 499.658,34.1255 500.187,34.0364 500.72,33.9829 501.256,33.965 " />
<polyline points="524.781,104.538 477.732,104.538 " stroke-dasharray="117.622043,23.524409,23.524409,23.524409" />
<polyline points="255.447,160.316 354.462,61.3011 " />
<polyline points="246.777,152.352 346.498,52.6305 " />
<polyline points="239.506,142.989 337.135,45.3595 " />
<polyline points="233.729,132.131 326.278,39.5828 " />
<polyline points="229.717,119.509 313.655,35.5711 " />
<polyline points="228.111,104.481 298.627,33.965 " />
<polyline points="230.834,85.1232 279.269,36.6881 " />
<polyline points="265.549,166.849 360.995,71.4024 " />
<polyline points="277.253,171.779 365.925,83.1068 " />
<polyline points="290.977,174.689 368.836,96.8305 " />
<polyline points="307.777,174.523 368.669,113.631 " />
<polyline points="332.395,166.54 360.686,138.248 " />
<polyline points="339.866,161.85 241.372,63.3569 " />
<polyline points="329.439,168.058 235.165,73.7836 " />
<polyline points="317.346,172.599 230.623,85.8764 " />
<polyline points="303.087,174.974 228.249,100.136 " />
<polyline points="285.311,173.833 229.39,117.911 " />
<polyline points="254.04,159.196 244.027,149.183 " />
<polyline points="348.838,154.189 249.034,54.3843 " />
<polyline points="356.415,145.131 258.092,46.8077 " />
<polyline points="362.53,134.611 268.611,40.6931 " />
<polyline points="366.958,122.406 280.817,36.2643 " />
<polyline points="369.173,107.987 295.236,34.0493 " />
<polyline points="367.723,89.9022 313.32,35.4993 " />
<polyline points="606.43,114.21 605.086,114.882 603.742,116.226 603.07,117.57 602.397,119.587 602.397,122.947 603.07,124.964 603.742,126.308 605.086,127.652 606.43,128.324 609.119,128.324 610.463,127.652 611.807,126.308 612.479,124.964 613.151,122.947 613.151,119.587 612.479,117.57 611.807,116.226 610.463,114.882 609.119,114.21 606.43,114.21 " />
<polyline points="608.447,125.636 612.479,129.669 " />
<polyline points="822.384,48.0796 822.384,83.3662 " />
<polyline points="822.384,160.997 822.384,125.71 " />
</g>
<g clip-path="url(#clipId0)" fill="rgb(0,0,0)" stroke="rgb(0,0,0)" stroke-width="0.25" >
<path d="M824.736,48.0796 820.032,48.0796 822.384,33.965 822.384,33.965 z" />
<path d="M824.736,160.997 820.032,160.997 822.384,175.111 822.384,175.111 z" />
</g>
<g clip-path="url(#clipId0)" fill="none" stroke="rgb(0,0,0)" stroke-width="0.25" >
<polyline points="820.368,97.4809 820.368,111.596 " />
<polyline points="820.368,97.4809 825.073,97.4809 827.089,98.153 828.433,99.4973 829.105,100.842 829.777,102.858 829.777,106.219 829.105,108.235 828.433,109.579 827.089,110.923 825.073,111.596 820.368,111.596 " />
<polyline points="705.738,387.836 705.738,352.549 " />
<polyline points="705.738,274.919 705.738,310.205 " />
</g>
<g clip-path="url(#clipId0)" fill="rgb(0,0,0)" stroke="rgb(0,0,0)" stroke-width="0.25" >
<path d="M708.09,387.836 703.385,387.836 705.738,401.951 705.738,401.951 z" />
<path d="M708.09,274.919 703.385,274.919 705.738,260.804 705.738,260.804 z" />
</g>
<g clip-path="url(#clipId0)" fill="none" stroke="rgb(0,0,0)" stroke-width="0.25" >
<polyline points="703.721,324.32 703.721,338.435 " />
<polyline points="703.721,324.32 708.426,324.32 710.443,324.992 711.787,326.336 712.459,327.681 713.131,329.697 713.131,333.058 712.459,335.074 711.787,336.418 710.443,337.763 708.426,338.435 703.721,338.435 " />
<polyline points="855.879,616.312 855.879,581.025 " />
<polyline points="855.879,503.395 855.879,538.681 " />
</g>
<g clip-path="url(#clipId0)" fill="rgb(0,0,0)" stroke="rgb(0,0,0)" stroke-width="0.25" >
<path d="M858.232,616.312 853.527,616.312 855.879,630.427 855.879,630.427 z" />
<path d="M858.232,503.395 853.527,503.395 855.879,489.28 855.879,489.28 z" />
</g>
<g clip-path="url(#clipId0)" fill="none" stroke="rgb(0,0,0)" stroke-width="0.25" >
<polyline points="853.863,552.796 853.863,566.911 " />
<polyline points="853.863,552.796 858.568,552.796 860.584,553.468 861.928,554.812 862.601,556.157 863.273,558.173 863.273,561.534 862.601,563.55 861.928,564.894 860.584,566.239 858.568,566.911 853.863,566.911 " />
<polyline points="835.985,106.934 835.178,107.337 834.372,108.144 833.969,108.95 833.565,110.16 833.565,112.177 833.969,113.386 834.372,114.193 835.178,114.999 835.985,115.403 837.598,115.403 838.405,114.999 839.211,114.193 839.614,113.386 840.018,112.177 840.018,110.16 839.614,108.95 839.211,108.144 838.405,107.337 837.598,106.934 835.985,106.934 " />
<polyline points="718.911,333.492 718.105,333.895 717.298,334.702 716.895,335.508 716.492,336.718 716.492,338.734 716.895,339.944 717.298,340.751 718.105,341.557 718.911,341.961 720.524,341.961 721.331,341.557 722.137,340.751 722.541,339.944 722.944,338.734 722.944,336.718 722.541,335.508 722.137,334.702 721.331,333.895 720.524,333.492 718.911,333.492 " />
<polyline points="868.867,561.514 868.061,561.918 867.254,562.724 866.851,563.531 866.447,564.741 866.447,566.757 866.851,567.967 867.254,568.773 868.061,569.58 868.867,569.983 870.48,569.983 871.287,569.58 872.093,568.773 872.497,567.967 872.9,566.757 872.9,564.741 872.497,563.531 872.093,562.724 871.287,561.918 870.48,561.514 868.867,561.514 " />
<polyline points="414.149,283.368 414.956,282.965 416.166,281.755 416.166,290.224 " />
<polyline points="478.24,418.707 548.814,489.28 " />
<polyline points="478.24,701 548.814,630.427 " />
<polyline points="501.256,260.144 501.256,288.613 " />
<circle cx="501.256" cy="248.382" r="11.7622" />
<polyline points="475.26,744.416 476.604,743.744 478.62,741.728 478.62,755.843 " />
<circle cx="478.24" cy="748.708" r="11.7622" />
<polyline points="826.142,348.619 824.798,349.291 823.454,350.635 822.782,351.979 822.11,353.996 822.11,357.356 822.782,359.373 823.454,360.717 824.798,362.061 826.142,362.733 828.831,362.733 830.175,362.061 831.52,360.717 832.192,359.373 832.864,357.356 832.864,353.996 832.192,351.979 831.52,350.635 830.175,349.291 828.831,348.619 826.142,348.619 " />
<polyline points="828.159,360.045 832.192,364.078 " />
</g>
<g clip-path="url(#clipId0)" fill="rgb(0,0,0)" stroke="rgb(0,0,0)" stroke-width="0.25" >
<path d="M865.971,329.025 865.971,333.73 880.086,331.377 880.086,331.377 z" />
</g>
<g clip-path="url(#clipId0)" fill="none" stroke="rgb(0,0,0)" stroke-width="0.25" >
<polyline points="865.971,331.377 802.736,331.377 " />
<polyline points="840.629,317.909 839.823,318.312 839.016,319.119 838.613,319.926 838.21,321.135 838.21,323.152 838.613,324.362 839.016,325.168 839.823,325.975 840.629,326.378 842.242,326.378 843.049,325.975 843.856,325.168 844.259,324.362 844.662,323.152 844.662,321.135 844.259,319.926 843.856,319.119 843.049,318.312 842.242,317.909 840.629,317.909 " />
<polyline points="827.744,308.943 822.367,323.058 " />
<polyline points="827.744,308.943 833.121,323.058 " />
<polyline points="824.383,318.353 831.104,318.353 " />
<polyline points="681.595,577.095 680.251,577.767 678.906,579.111 678.234,580.455 677.562,582.472 677.562,585.832 678.234,587.849 678.906,589.193 680.251,590.537 681.595,591.209 684.283,591.209 685.628,590.537 686.972,589.193 687.644,587.849 688.316,585.832 688.316,582.472 687.644,580.455 686.972,579.111 685.628,577.767 684.283,577.095 681.595,577.095 " />
<polyline points="683.611,588.521 687.644,592.554 " />
</g>
<g clip-path="url(#clipId0)" fill="rgb(0,0,0)" stroke="rgb(0,0,0)" stroke-width="0.25" >
<path d="M721.423,557.501 721.423,562.206 735.538,559.853 735.538,559.853 z" />
</g>
<g clip-path="url(#clipId0)" fill="none" stroke="rgb(0,0,0)" stroke-width="0.25" >
<polyline points="721.423,559.853 658.188,559.853 " />
<polyline points="696.082,546.385 695.275,546.788 694.469,547.595 694.065,548.402 693.662,549.611 693.662,551.628 694.065,552.838 694.469,553.644 695.275,554.451 696.082,554.854 697.695,554.854 698.501,554.451 699.308,553.644 699.711,552.838 700.114,551.628 700.114,549.611 699.711,548.402 699.308,547.595 698.501,546.788 697.695,546.385 696.082,546.385 " />
<polyline points="683.196,537.419 677.819,551.534 " />
<polyline points="683.196,537.419 688.573,551.534 " />
<polyline points="679.836,546.829 686.557,546.829 " />
<polyline points="30.7476,574.612 30.7476,584.022 " />
<polyline points="30.7476,577.301 32.764,575.284 34.1082,574.612 36.1246,574.612 37.4689,575.284 38.141,577.301 38.141,584.022 " />
</g>
<g clip-path="url(#clipId0)" fill="rgb(0,0,0)" stroke="rgb(0,0,0)" stroke-width="0.25" >
<path d="M672.571,568.099 672.571,572.804 658.456,570.451 658.456,570.451 z" />
</g>
<g clip-path="url(#clipId0)" fill="none" stroke="rgb(0,0,0)" stroke-width="0.25" >
<polyline points="672.571,570.451 735.806,570.451 " />
</g>
<g clip-path="url(#clipId0)" fill="rgb(0,0,0)" stroke="rgb(0,0,0)" stroke-width="0.25" >
<path d="M817.118,339.623 817.118,344.328 803.004,341.975 803.004,341.975 z" />
</g>
<g clip-path="url(#clipId0)" fill="none" stroke="rgb(0,0,0)" stroke-width="0.25" >
<polyline points="817.118,341.975 880.354,341.975 " />
<polyline points="583.023,104.538 573.613,104.538 " />
</g>
<g clip-path="url(#clipId0)" fill="rgb(0,0,0)" stroke="rgb(0,0,0)" stroke-width="0.25" >
<path d="M466.693,480.16 463.713,483.801 476.124,490.923 476.124,490.923 z" />
</g>
<g clip-path="url(#clipId0)" fill="none" stroke="rgb(0,0,0)" stroke-width="0.25" >
<polyline points="465.203,481.981 415.908,441.618 " />
<polyline points="415.908,441.618 397.088,441.618 " />
<polyline points="892.025,738.027 891.039,736.055 889.068,734.084 887.096,733.098 883.153,733.098 881.181,734.084 879.21,736.055 878.224,738.027 877.238,740.984 877.238,745.913 878.224,748.871 879.21,750.842 881.181,752.814 883.153,753.8 887.096,753.8 889.068,752.814 891.039,750.842 892.025,748.871 " />
<polyline points="898.925,733.098 898.925,753.8 " />
<polyline points="898.925,733.098 905.826,733.098 908.783,734.084 910.755,736.055 911.741,738.027 912.726,740.984 912.726,745.913 911.741,748.871 910.755,750.842 908.783,752.814 905.826,753.8 898.925,753.8 " />
<polyline points="931.456,736.055 930.471,734.084 927.513,733.098 925.542,733.098 922.584,734.084 920.613,737.041 919.627,741.97 919.627,746.899 920.613,750.842 922.584,752.814 925.542,753.8 926.527,753.8 929.485,752.814 931.456,750.842 932.442,747.885 932.442,746.899 931.456,743.942 929.485,741.97 926.527,740.984 925.542,740.984 922.584,741.97 920.613,743.942 919.627,746.899 " />
<polyline points="939.343,744.927 957.087,744.927 " />
<polyline points="966.945,737.041 968.916,736.055 971.874,733.098 971.874,753.8 " />
<polyline points="279.85,436.577 278.505,435.233 276.489,434.561 273.801,434.561 271.784,435.233 270.44,436.577 270.44,437.921 271.112,439.265 271.784,439.938 273.128,440.61 277.161,441.954 278.505,442.626 279.178,443.298 279.85,444.642 279.85,446.659 278.505,448.003 276.489,448.675 273.801,448.675 271.784,448.003 270.44,446.659 " />
<polyline points="293.964,437.921 293.292,436.577 291.948,435.233 290.604,434.561 287.915,434.561 286.571,435.233 285.227,436.577 284.555,437.921 283.883,439.938 283.883,443.298 284.555,445.315 285.227,446.659 286.571,448.003 287.915,448.675 290.604,448.675 291.948,448.003 293.292,446.659 293.964,445.315 " />
<polyline points="298.669,434.561 298.669,448.675 " />
<polyline points="298.669,434.561 304.718,434.561 306.735,435.233 307.407,435.905 308.079,437.249 308.079,438.593 307.407,439.938 306.735,440.61 304.718,441.282 298.669,441.282 " />
<polyline points="303.374,441.282 308.079,448.675 " />
<polyline points="312.784,434.561 312.784,448.675 " />
<polyline points="312.784,434.561 321.522,434.561 " />
<polyline points="312.784,441.282 318.161,441.282 " />
<polyline points="312.784,448.675 321.522,448.675 " />
<polyline points="325.554,434.561 325.554,448.675 " />
<polyline points="325.554,434.561 334.292,434.561 " />
<polyline points="325.554,441.282 330.931,441.282 " />
<polyline points="325.554,448.675 334.292,448.675 " />
<polyline points="338.325,434.561 338.325,448.675 " />
<polyline points="338.325,434.561 347.734,448.675 " />
<polyline points="347.734,434.561 347.734,448.675 " />
<polyline points="367.226,434.561 367.226,448.675 " />
<polyline points="367.226,434.561 371.931,434.561 373.947,435.233 375.292,436.577 375.964,437.921 376.636,439.938 376.636,443.298 375.964,445.315 375.292,446.659 373.947,448.003 371.931,448.675 367.226,448.675 " />
<polyline points="381.284,445.653 382.091,445.249 383.3,444.039 383.3,452.508 " />
</g>
</svg>
