<?xml version="1.0" standalone="no"?>
<svg viewBox="0 0 1024 768" version="1.1" xmlns="http://www.w3.org/2000/svg" xmlns:xlink="http://www.w3.org/1999/xlink" stroke-linecap="round" stroke-linejoin="round" fill-rule="evenodd" xml:space="preserve" >
<defs >
<clipPath id="clipId0" >
<path d="M0,768 1024,768 1024,0 0,0 z" />
</clipPath>
</defs>
<g clip-path="url(#clipId0)" fill="none" stroke="rgb(0,0,0)" stroke-width="0.1" />
<g clip-path="url(#clipId0)" fill="none" stroke="rgb(0,0,0)" stroke-width="0.25" >
<polyline points="647.108,350.195 140.755,350.195 " />
<polyline points="35.0931,248.394 29.3062,263.584 " />
<polyline points="35.0931,248.394 40.88,263.584 " />
<polyline points="31.4763,258.521 38.7099,258.521 " />
<polyline points="48.3971,259.089 47.095,259.523 46.227,260.825 45.793,262.995 45.793,264.297 46.227,266.467 47.095,267.769 48.3971,268.203 49.2651,268.203 50.5671,267.769 51.4352,266.467 51.8692,264.297 51.8692,262.995 51.4352,260.825 50.5671,259.523 49.2651,259.089 48.3971,259.089 " />
<polyline points="70.2247,274.242 10.0392,274.242 " />
</g>
<g clip-path="url(#clipId0)" fill="rgb(0,0,0)" stroke="rgb(0,0,0)" stroke-width="0.25" >
<path d="M70.2247,271.71 70.2247,276.773 85.4153,274.242 85.4153,274.242 z" />
</g>
<g clip-path="url(#clipId0)" fill="none" stroke="rgb(0,0,0)" stroke-width="0.25" >
<polyline points="647.108,198.289 140.755,198.289 " />
<circle cx="917.162" cy="274.15" r="75.953" />
<polyline points="209.822,527.775 196.802,550.922 " />
<polyline points="267.676,532.838 256.102,539.348 267.676,545.859 " />
<polyline points="292.27,530.668 290.1,531.391 288.653,533.561 287.93,537.178 287.93,539.348 288.653,542.965 290.1,545.135 292.27,545.859 293.717,545.859 295.887,545.135 297.334,542.965 298.057,539.348 298.057,537.178 297.334,533.561 295.887,531.391 293.717,530.668 292.27,530.668 " />
<polyline points="303.844,544.412 303.12,545.135 303.844,545.859 304.567,545.135 303.844,544.412 " />
<polyline points="311.077,530.668 319.034,530.668 314.694,536.455 316.864,536.455 318.311,537.178 319.034,537.902 319.758,540.072 319.758,541.518 319.034,543.688 317.588,545.135 315.418,545.859 313.248,545.859 311.077,545.135 310.354,544.412 309.631,542.965 " />
<circle cx="512.918" cy="235.918" r="20.2541" />
<polyline points="838.037,235.826 996.286,235.826 " stroke-dasharray="94.941224,18.988245,18.988245,18.988245" />
<polyline points="864.072,219.833 970.252,219.833 " />
<polyline points="844.565,251.82 989.758,251.82 " />
<polyline points="481.824,235.918 544.013,235.918 " stroke-dasharray="94.941224,18.988245,18.988245,18.988245" />
<polyline points="512.918,267.013 512.918,204.824 " stroke-dasharray="94.941224,18.988245,18.988245,18.988245" />
<polyline points="917.162,370.949 917.162,177.351 " stroke-dasharray="94.941224,18.988245,18.988245,18.988245" />
<polyline points="1013.96,274.15 820.363,274.15 " stroke-dasharray="94.941224,18.988245,18.988245,18.988245" />
<polyline points="548.363,141.584 563.554,141.584 " />
<polyline points="477.474,141.584 462.283,141.584 " />
</g>
<g clip-path="url(#clipId0)" fill="rgb(0,0,0)" stroke="rgb(0,0,0)" stroke-width="0.25" >
<path d="M548.363,144.116 548.363,139.052 533.172,141.584 533.172,141.584 z" />
<path d="M477.474,144.116 477.474,139.052 492.664,141.584 492.664,141.584 z" />
</g>
<g clip-path="url(#clipId0)" fill="none" stroke="rgb(0,0,0)" stroke-width="0.25" >
<polyline points="515.755,133.989 515.755,149.179 " />
<polyline points="515.755,141.222 514.309,139.776 512.862,139.052 510.692,139.052 509.245,139.776 507.798,141.222 507.075,143.392 507.075,144.839 507.798,147.009 509.245,148.456 510.692,149.179 512.862,149.179 514.309,148.456 515.755,147.009 " />
<polyline points="851.586,225.338 851.586,125.001 " />
<polyline points="982.738,225.338 982.738,125.001 " />
<polyline points="866.777,143.229 897.631,143.229 " />
<polyline points="967.547,143.229 936.693,143.229 " />
</g>
<g clip-path="url(#clipId0)" fill="rgb(0,0,0)" stroke="rgb(0,0,0)" stroke-width="0.25" >
<path d="M866.777,145.761 866.777,140.698 851.586,143.229 851.586,143.229 z" />
<path d="M967.547,145.761 967.547,140.698 982.738,143.229 982.738,143.229 z" />
</g>
<g clip-path="url(#clipId0)" fill="none" stroke="rgb(0,0,0)" stroke-width="0.25" >
<polyline points="915.715,135.634 915.715,150.825 924.395,150.825 " />
<polyline points="841.209,305.43 841.209,452.935 " />
<polyline points="993.115,305.43 993.115,452.935 " />
<polyline points="856.399,434.706 896.908,434.706 " />
<polyline points="977.924,434.706 937.416,434.706 " />
</g>
<g clip-path="url(#clipId0)" fill="rgb(0,0,0)" stroke="rgb(0,0,0)" stroke-width="0.25" >
<path d="M856.399,437.238 856.399,432.174 841.209,434.706 841.209,434.706 z" />
<path d="M977.924,437.238 977.924,432.174 993.115,434.706 993.115,434.706 z" />
</g>
<g clip-path="url(#clipId0)" fill="none" stroke="rgb(0,0,0)" stroke-width="0.25" >
<polyline points="914.992,427.111 914.992,442.301 " />
<polyline points="914.992,427.111 920.055,427.111 922.225,427.834 923.672,429.281 924.395,430.727 925.119,432.897 925.119,436.514 924.395,438.684 923.672,440.131 922.225,441.578 920.055,442.301 914.992,442.301 " />
<polyline points="831.708,235.826 755.194,235.826 " />
<polyline points="814.033,274.15 755.194,274.15 " />
<polyline points="773.423,289.34 773.423,304.531 " />
<polyline points="773.423,220.636 773.423,205.445 " />
</g>
<g clip-path="url(#clipId0)" fill="rgb(0,0,0)" stroke="rgb(0,0,0)" stroke-width="0.25" >
<path d="M775.955,289.34 770.891,289.34 773.423,274.15 773.423,274.15 z" />
<path d="M775.955,220.636 770.891,220.636 773.423,235.826 773.423,235.826 z" />
</g>
<g clip-path="url(#clipId0)" fill="none" stroke="rgb(0,0,0)" stroke-width="0.25" >
<polyline points="769.837,248.493 774.177,258.62 " />
<polyline points="778.518,248.493 774.177,258.62 772.731,261.513 771.284,262.96 769.837,263.683 769.114,263.683 " />
<polyline points="232.481,539.812 231.179,540.246 230.311,541.548 229.877,543.718 229.877,545.02 230.311,547.19 231.179,548.492 232.481,548.926 233.349,548.926 234.651,548.492 235.519,547.19 235.953,545.02 235.953,543.718 235.519,541.548 234.651,540.246 233.349,539.812 232.481,539.812 " />
<polyline points="219.573,529.873 213.786,545.063 " />
<polyline points="219.573,529.873 225.36,545.063 " />
<polyline points="215.956,540 223.189,540 " />
<polyline points="647.108,169.838 647.108,378.645 " stroke-dasharray="94.941224,18.988245,18.988245,18.988245" />
<polyline points="647.108,274.242 647.685,274.222 648.259,274.165 648.828,274.069 649.389,273.935 649.94,273.765 650.479,273.558 651.002,273.315 651.508,273.038 651.995,272.728 652.459,272.387 652.9,272.015 652.9,272.015 653.638,271.324 654.349,270.607 655.034,269.864 655.69,269.096 656.318,268.304 656.916,267.49 657.484,266.654 658.02,265.798 658.524,264.922 658.996,264.029 659.434,263.119 659.434,263.119 659.976,261.896 660.484,260.658 660.959,259.408 661.4,258.145 661.807,256.871 662.18,255.586 662.517,254.292 662.82,252.989 663.088,251.678 663.088,251.678 663.392,249.983 663.66,248.281 663.893,246.574 664.091,244.863 664.252,243.148 664.378,241.43 664.468,239.71 664.522,237.988 664.54,236.265 664.54,236.265 664.522,234.543 664.468,232.821 664.378,231.101 664.252,229.382 664.091,227.667 663.893,225.956 663.66,224.249 663.392,222.548 663.088,220.852 663.088,220.852 662.82,219.542 662.517,218.239 662.18,216.944 661.807,215.66 661.4,214.385 660.959,213.123 660.484,211.872 659.976,210.635 659.434,209.412 659.434,209.412 658.996,208.501 658.524,207.608 658.02,206.733 657.484,205.876 656.916,205.041 656.318,204.226 655.69,203.435 655.034,202.667 654.349,201.924 653.638,201.206 652.9,200.516 652.9,200.516 652.459,200.144 651.995,199.802 651.508,199.492 651.002,199.215 650.479,198.973 649.94,198.766 649.389,198.595 648.828,198.461 648.259,198.366 647.685,198.308 647.108,198.289 " />
<polyline points="647.108,350.195 646.532,350.175 645.958,350.118 645.389,350.022 644.827,349.888 644.276,349.718 643.738,349.511 643.214,349.268 642.708,348.991 642.222,348.681 641.757,348.34 641.316,347.968 641.316,347.968 640.579,347.277 639.867,346.56 639.183,345.816 638.526,345.049 637.898,344.257 637.3,343.443 636.733,342.607 636.196,341.751 635.692,340.875 635.22,339.982 634.782,339.072 634.782,339.072 634.24,337.849 633.732,336.611 633.257,335.361 632.816,334.098 632.409,332.824 632.037,331.539 631.699,330.245 631.396,328.942 631.129,327.631 631.129,327.631 630.825,325.936 630.556,324.234 630.323,322.527 630.126,320.816 629.964,319.101 629.838,317.383 629.748,315.663 629.694,313.941 629.676,312.218 629.676,312.218 629.694,310.496 629.748,308.774 629.838,307.054 629.964,305.335 630.126,303.62 630.323,301.909 630.556,300.202 630.825,298.501 631.129,296.805 631.129,296.805 631.396,295.495 631.699,294.192 632.037,292.897 632.409,291.613 632.816,290.338 633.257,289.076 633.732,287.825 634.24,286.588 634.782,285.365 634.782,285.365 635.22,284.454 635.692,283.561 636.196,282.686 636.733,281.829 637.3,280.994 637.898,280.179 638.526,279.388 639.183,278.62 639.867,277.877 640.579,277.159 641.316,276.469 641.316,276.469 641.757,276.097 642.222,275.755 642.708,275.445 643.214,275.168 643.738,274.926 644.276,274.719 644.827,274.548 645.389,274.414 645.958,274.319 646.532,274.261 647.108,274.242 647.108,274.242 647.685,274.261 648.259,274.319 648.828,274.414 649.389,274.548 649.94,274.719 650.479,274.926 651.002,275.168 651.508,275.445 651.995,275.755 652.459,276.097 652.9,276.469 652.9,276.469 653.638,277.159 654.349,277.877 655.034,278.62 655.69,279.388 656.318,280.179 656.916,280.994 657.484,281.829 658.02,282.686 658.524,283.561 658.996,284.454 659.434,285.365 659.434,285.365 659.976,286.588 660.484,287.825 660.959,289.076 661.4,290.338 661.807,291.613 662.18,292.897 662.517,294.192 662.82,295.495 663.088,296.805 663.088,296.805 663.392,298.501 663.66,300.202 663.893,301.909 664.091,303.62 664.252,305.335 664.378,307.054 664.468,308.774 664.522,310.496 664.54,312.218 664.54,312.218 664.522,313.941 664.468,315.663 664.378,317.383 664.252,319.101 664.091,320.816 663.893,322.527 663.66,324.234 663.392,325.936 663.088,327.631 663.088,327.631 662.82,328.942 662.517,330.245 662.18,331.539 661.807,332.824 661.4,334.098 660.959,335.361 660.484,336.611 659.976,337.849 659.434,339.072 659.434,339.072 658.996,339.982 658.524,340.875 658.02,341.751 657.484,342.607 656.916,343.443 656.318,344.257 655.69,345.049 655.034,345.816 654.349,346.56 653.638,347.277 652.9,347.968 652.9,347.968 652.459,348.34 651.995,348.681 651.508,348.991 651.002,349.268 650.479,349.511 649.94,349.718 649.389,349.888 648.828,350.022 648.259,350.118 647.685,350.175 647.108,350.195 " />
<polyline points="115.634,274.242 672.426,274.242 " stroke-dasharray="94.941224,18.988245,18.988245,18.988245" />
<polyline points="140.755,198.289 141.332,198.308 141.906,198.366 142.474,198.461 143.036,198.595 143.587,198.766 144.125,198.973 144.649,199.215 145.155,199.492 145.641,199.802 146.106,200.144 146.547,200.516 146.547,200.516 147.285,201.206 147.996,201.924 148.681,202.667 149.337,203.435 149.965,204.226 150.563,205.041 151.13,205.876 151.667,206.733 152.171,207.608 152.643,208.501 153.081,209.412 153.081,209.412 153.623,210.635 154.131,211.872 154.606,213.123 155.047,214.385 155.454,215.66 155.827,216.944 156.164,218.239 156.467,219.542 156.734,220.852 156.734,220.852 157.039,222.548 157.307,224.249 157.54,225.956 157.738,227.667 157.899,229.382 158.025,231.101 158.115,232.821 158.169,234.543 158.187,236.265 158.187,236.265 158.169,237.988 158.115,239.71 158.025,241.43 157.899,243.148 157.738,244.863 157.54,246.574 157.307,248.281 157.039,249.983 156.734,251.678 156.734,251.678 156.467,252.989 156.164,254.292 155.827,255.586 155.454,256.871 155.047,258.145 154.606,259.408 154.131,260.658 153.623,261.896 153.081,263.119 153.081,263.119 152.643,264.029 152.171,264.922 151.667,265.798 151.13,266.654 150.563,267.49 149.965,268.304 149.337,269.096 148.681,269.864 147.996,270.607 147.285,271.324 146.547,272.015 146.547,272.015 146.106,272.387 145.641,272.728 145.155,273.038 144.649,273.315 144.125,273.558 143.587,273.765 143.036,273.935 142.474,274.069 141.906,274.165 141.332,274.222 140.755,274.242 140.755,274.242 140.178,274.222 139.604,274.165 139.035,274.069 138.474,273.935 137.923,273.765 137.385,273.558 136.861,273.315 136.355,273.038 135.869,272.728 135.404,272.387 134.963,272.015 134.963,272.015 134.225,271.324 133.514,270.607 132.829,269.864 132.173,269.096 131.545,268.304 130.947,267.49 130.38,266.654 129.843,265.798 129.339,264.922 128.867,264.029 128.429,263.119 128.429,263.119 127.887,261.896 127.379,260.658 126.904,259.408 126.463,258.145 126.056,256.871 125.683,255.586 125.346,254.292 125.043,252.989 124.775,251.678 124.775,251.678 124.471,249.983 124.203,248.281 123.97,246.574 123.772,244.863 123.611,243.148 123.485,241.43 123.395,239.71 123.341,237.988 123.323,236.265 123.323,236.265 123.341,234.543 123.395,232.821 123.485,231.101 123.611,229.382 123.772,227.667 123.97,225.956 124.203,224.249 124.471,222.548 124.775,220.852 124.775,220.852 125.043,219.542 125.346,218.239 125.683,216.944 126.056,215.66 126.463,214.385 126.904,213.123 127.379,211.872 127.887,210.635 128.429,209.412 128.429,209.412 128.867,208.501 129.339,207.608 129.843,206.733 130.38,205.876 130.947,205.041 131.545,204.226 132.173,203.435 132.829,202.667 133.514,201.924 134.225,201.206 134.963,200.516 134.963,200.516 135.404,200.144 135.869,199.802 136.355,199.492 136.861,199.215 137.385,198.973 137.923,198.766 138.474,198.595 139.035,198.461 139.604,198.366 140.178,198.308 140.755,198.289 " />
<polyline points="140.755,274.242 140.178,274.261 139.604,274.319 139.035,274.414 138.474,274.548 137.923,274.719 137.385,274.926 136.861,275.168 136.355,275.445 135.869,275.755 135.404,276.097 134.963,276.469 134.963,276.469 134.225,277.159 133.514,277.877 132.829,278.62 132.173,279.388 131.545,280.179 130.947,280.994 130.38,281.829 129.843,282.686 129.339,283.561 128.867,284.454 128.429,285.365 128.429,285.365 127.887,286.588 127.379,287.825 126.904,289.076 126.463,290.338 126.056,291.613 125.683,292.897 125.346,294.192 125.043,295.495 124.775,296.805 124.775,296.805 124.471,298.501 124.203,300.202 123.97,301.909 123.772,303.62 123.611,305.335 123.485,307.054 123.395,308.774 123.341,310.496 123.323,312.218 123.323,312.218 123.341,313.941 123.395,315.663 123.485,317.383 123.611,319.101 123.772,320.816 123.97,322.527 124.203,324.234 124.471,325.936 124.775,327.631 124.775,327.631 125.043,328.942 125.346,330.245 125.683,331.539 126.056,332.824 126.463,334.098 126.904,335.361 127.379,336.611 127.887,337.849 128.429,339.072 128.429,339.072 128.867,339.982 129.339,340.875 129.843,341.751 130.38,342.607 130.947,343.443 131.545,344.257 132.173,345.049 132.829,345.816 133.514,346.56 134.225,347.277 134.963,347.968 134.963,347.968 135.404,348.34 135.869,348.681 136.355,348.991 136.861,349.268 137.385,349.511 137.923,349.718 138.474,349.888 139.035,350.022 139.604,350.118 140.178,350.175 140.755,350.195 " />
<polyline points="140.755,378.645 140.755,169.838 " stroke-dasharray="94.941224,18.988245,18.988245,18.988245" />
<polyline points="916.87,251.82 948.857,219.833 " />
<polyline points="898.967,251.82 930.954,219.833 " />
<polyline points="881.065,251.82 913.052,219.833 " />
<polyline points="863.163,251.82 895.15,219.833 " />
<polyline points="844.267,252.813 877.247,219.833 " />
<polyline points="934.772,251.82 966.759,219.833 " />
<polyline points="952.674,251.82 977.054,227.44 " />
<polyline points="970.576,251.82 984.113,238.283 " />
<polyline points="988.479,251.82 989.452,250.847 " />
<polyline points="160.361,530.668 160.361,545.859 " />
<polyline points="160.361,537.902 158.914,536.455 157.467,535.732 155.297,535.732 153.851,536.455 152.404,537.902 151.681,540.072 151.681,541.518 152.404,543.688 153.851,545.135 155.297,545.859 157.467,545.859 158.914,545.135 160.361,543.688 " />
<polyline points="181.338,530.668 181.338,545.859 190.019,545.859 " />
<polyline points="33.3276,283.418 31.8809,284.142 30.4342,285.588 29.7108,287.035 28.9875,289.205 28.9875,292.822 29.7108,294.992 30.4342,296.439 31.8809,297.885 33.3276,298.609 36.2211,298.609 37.6678,297.885 39.1145,296.439 39.8379,294.992 40.5612,292.822 40.5612,289.205 39.8379,287.035 39.1145,285.588 37.6678,284.142 36.2211,283.418 33.3276,283.418 " />
<polyline points="35.4977,295.715 39.8379,300.056 " />
<polyline points="153.732,563.052 152.286,561.605 150.116,560.882 147.222,560.882 145.052,561.605 143.605,563.052 143.605,564.498 144.329,565.945 145.052,566.668 146.499,567.392 150.839,568.839 152.286,569.562 153.009,570.285 153.732,571.732 153.732,573.902 152.286,575.349 150.116,576.072 147.222,576.072 145.052,575.349 143.605,573.902 " />
<polyline points="158.796,565.945 158.796,576.072 " />
<polyline points="158.796,568.839 160.966,566.668 162.413,565.945 164.583,565.945 166.03,566.668 166.753,568.839 166.753,576.072 " />
<polyline points="166.753,568.839 168.923,566.668 170.37,565.945 172.54,565.945 173.987,566.668 174.71,568.839 174.71,576.072 " />
<polyline points="195.687,567.392 208.708,567.392 " />
<polyline points="195.687,571.732 208.708,571.732 " />
<polyline points="237.642,560.882 237.642,576.072 " />
<polyline points="237.642,568.115 236.196,566.668 234.749,565.945 232.579,565.945 231.132,566.668 229.685,568.115 228.962,570.285 228.962,571.732 229.685,573.902 231.132,575.349 232.579,576.072 234.749,576.072 236.196,575.349 237.642,573.902 " />
<polyline points="258.62,560.882 258.62,576.072 267.3,576.072 " />
<polyline points="152.282,590.982 152.282,606.172 " />
<polyline points="152.282,590.982 158.792,590.982 160.962,591.705 161.685,592.429 162.409,593.875 162.409,595.322 161.685,596.769 160.962,597.492 158.792,598.215 152.282,598.215 " />
<polyline points="157.345,598.215 162.409,606.172 " />
<polyline points="166.749,600.386 175.429,600.386 175.429,598.939 174.706,597.492 173.983,596.769 172.536,596.045 170.366,596.045 168.919,596.769 167.472,598.215 166.749,600.386 166.749,601.832 167.472,604.002 168.919,605.449 170.366,606.172 172.536,606.172 173.983,605.449 175.429,604.002 " />
<polyline points="195.683,597.492 208.704,597.492 " />
<polyline points="195.683,601.832 208.704,601.832 " />
<polyline points="234.022,590.982 232.575,590.982 231.128,591.705 230.405,593.875 230.405,606.172 " />
<polyline points="228.235,596.045 233.298,596.045 " />
<polyline points="243.425,588.088 241.979,589.535 240.532,591.705 239.085,594.599 238.362,598.215 238.362,601.109 239.085,604.726 240.532,607.619 241.979,609.789 243.425,611.236 " />
<polyline points="256.446,590.982 256.446,606.172 " />
<polyline points="256.446,598.215 254.999,596.769 253.552,596.045 251.382,596.045 249.936,596.769 248.489,598.215 247.766,600.386 247.766,601.832 248.489,604.002 249.936,605.449 251.382,606.172 253.552,606.172 254.999,605.449 256.446,604.002 " />
<polyline points="263.679,605.449 262.956,606.172 262.233,605.449 262.956,604.726 263.679,605.449 263.679,606.896 262.956,608.342 262.233,609.066 " />
<polyline points="267.296,590.982 273.083,606.172 " />
<polyline points="278.87,590.982 273.083,606.172 " />
<polyline points="296.954,588.088 298.401,589.535 299.848,591.705 301.294,594.599 302.018,598.215 302.018,601.109 301.294,604.726 299.848,607.619 298.401,609.789 296.954,611.236 " />
<polyline points="283.67,601.57 282.367,602.004 281.499,603.306 281.065,605.476 281.065,606.778 281.499,608.948 282.367,610.25 283.67,610.685 284.538,610.685 285.84,610.25 286.708,608.948 287.142,606.778 287.142,605.476 286.708,603.306 285.84,602.004 284.538,601.57 283.67,601.57 " />
<polyline points="533.172,223.107 533.172,123.355 " />
<polyline points="492.664,223.107 492.664,123.355 " />
<polyline points="899.029,627.67 897.968,625.548 895.847,623.426 893.725,622.365 889.481,622.365 887.359,623.426 885.237,625.548 884.176,627.67 883.115,630.853 883.115,636.157 884.176,639.34 885.237,641.462 887.359,643.584 889.481,644.645 893.725,644.645 895.847,643.584 897.968,641.462 899.029,639.34 " />
<polyline points="906.456,622.365 906.456,644.645 " />
<polyline points="906.456,622.365 913.882,622.365 917.065,623.426 919.187,625.548 920.248,627.67 921.309,630.853 921.309,636.157 920.248,639.34 919.187,641.462 917.065,643.584 913.882,644.645 906.456,644.645 " />
<polyline points="941.467,625.548 940.406,623.426 937.223,622.365 935.101,622.365 931.918,623.426 929.796,626.609 928.735,631.913 928.735,637.218 929.796,641.462 931.918,643.584 935.101,644.645 936.162,644.645 939.345,643.584 941.467,641.462 942.527,638.279 942.527,637.218 941.467,634.035 939.345,631.913 936.162,630.853 935.101,630.853 931.918,631.913 929.796,634.035 928.735,637.218 " />
<polyline points="949.954,635.096 969.051,635.096 " />
<polyline points="978.599,622.365 990.269,622.365 983.904,630.853 987.087,630.853 989.208,631.913 990.269,632.974 991.33,636.157 991.33,638.279 990.269,641.462 988.147,643.584 984.965,644.645 981.782,644.645 978.599,643.584 977.538,642.523 976.477,640.401 " />
</g>
</svg>
