<?xml version="1.0" standalone="no"?>
<svg viewBox="0 0 1024 768" version="1.1" xmlns="http://www.w3.org/2000/svg" xmlns:xlink="http://www.w3.org/1999/xlink" stroke-linecap="round" stroke-linejoin="round" fill-rule="evenodd" xml:space="preserve" >
<defs >
<clipPath id="clipId0" >
<path d="M0,768 1024,768 1024,0 0,0 z" />
</clipPath>
</defs>
<g clip-path="url(#clipId0)" fill="none" stroke="rgb(0,0,0)" stroke-width="0.1" />
<g clip-path="url(#clipId0)" fill="none" stroke="rgb(0,0,0)" stroke-width="0.25" >
<polyline points="144.832,301.257 903.768,301.257 " stroke-dasharray="139.918074,27.983615,27.983615,27.983615" />
<polyline points="173.019,217.306 875.784,217.306 " />
<polyline points="173.019,385.208 875.784,385.208 " />
<polyline points="875.784,385.208 875.245,385.193 874.707,385.147 874.173,385.071 873.644,384.965 873.122,384.83 872.608,384.665 872.104,384.471 871.612,384.249 871.134,384 870.67,383.724 870.222,383.423 869.793,383.096 869.382,382.746 869.382,382.746 868.634,382.048 867.91,381.324 867.21,380.577 866.537,379.806 865.89,379.013 865.27,378.198 864.678,377.363 864.115,376.508 863.581,375.635 863.077,374.744 862.603,373.837 862.16,372.914 862.16,372.914 861.62,371.698 861.109,370.469 860.628,369.228 860.178,367.976 859.757,366.714 859.368,365.441 859.01,364.16 858.682,362.87 858.386,361.573 858.122,360.269 858.122,360.269 857.818,358.582 857.545,356.89 857.305,355.194 857.096,353.493 856.919,351.788 856.774,350.081 856.662,348.371 856.581,346.659 856.533,344.946 856.517,343.233 856.517,343.233 856.533,341.519 856.581,339.806 856.662,338.094 856.774,336.384 856.919,334.677 857.096,332.972 857.305,331.272 857.545,329.575 857.818,327.883 858.122,326.197 858.122,326.197 858.386,324.892 858.682,323.595 859.01,322.305 859.368,321.024 859.757,319.752 860.178,318.489 860.628,317.237 861.109,315.996 861.62,314.767 862.16,313.552 862.16,313.552 862.603,312.629 863.077,311.721 863.581,310.83 864.115,309.957 864.678,309.102 865.27,308.267 865.89,307.452 866.537,306.659 867.21,305.888 867.91,305.141 868.634,304.417 869.382,303.719 869.382,303.719 869.793,303.369 870.222,303.042 870.67,302.741 871.134,302.465 871.612,302.216 872.104,301.994 872.608,301.801 873.122,301.636 873.644,301.5 874.173,301.394 874.707,301.318 875.245,301.272 875.784,301.257 875.784,301.257 876.324,301.272 876.861,301.318 877.395,301.394 877.925,301.5 878.447,301.636 878.961,301.801 879.464,301.994 879.956,302.216 880.435,302.465 880.899,302.741 881.346,303.042 881.776,303.369 882.186,303.719 882.186,303.719 882.935,304.417 883.659,305.141 884.358,305.888 885.032,306.659 885.679,307.452 886.298,308.267 886.89,309.102 887.454,309.957 887.988,310.83 888.492,311.721 888.966,312.629 889.408,313.552 889.408,313.552 889.949,314.767 890.459,315.996 890.94,317.237 891.391,318.489 891.811,319.752 892.2,321.024 892.559,322.305 892.886,323.595 893.182,324.892 893.446,326.197 893.446,326.197 893.751,327.883 894.023,329.575 894.264,331.272 894.473,332.972 894.649,334.677 894.794,336.384 894.907,338.094 894.987,339.806 895.035,341.519 895.052,343.233 895.052,343.233 895.035,344.946 894.987,346.659 894.907,348.371 894.794,350.081 894.649,351.788 894.473,353.493 894.264,355.194 894.023,356.89 893.751,358.582 893.446,360.269 893.446,360.269 893.182,361.573 892.886,362.87 892.559,364.16 892.2,365.441 891.811,366.714 891.391,367.976 890.94,369.228 890.459,370.469 889.949,371.698 889.408,372.914 889.408,372.914 888.966,373.837 888.492,374.744 887.988,375.635 887.454,376.508 886.89,377.363 886.298,378.198 885.679,379.013 885.032,379.806 884.358,380.577 883.659,381.324 882.935,382.048 882.186,382.746 882.186,382.746 881.776,383.096 881.346,383.423 880.899,383.724 880.435,384 879.956,384.249 879.464,384.471 878.961,384.665 878.447,384.83 877.925,384.965 877.395,385.071 876.861,385.147 876.324,385.193 875.784,385.208 " />
<polyline points="875.784,301.257 876.324,301.242 876.861,301.196 877.395,301.12 877.925,301.014 878.447,300.879 878.961,300.714 879.464,300.52 879.956,300.298 880.435,300.049 880.899,299.773 881.346,299.472 881.776,299.146 882.186,298.796 882.186,298.796 882.935,298.097 883.659,297.374 884.358,296.626 885.032,295.855 885.679,295.062 886.298,294.247 886.89,293.412 887.454,292.557 887.988,291.684 888.492,290.793 888.966,289.886 889.408,288.963 889.408,288.963 889.949,287.747 890.459,286.518 890.94,285.277 891.391,284.025 891.811,282.763 892.2,281.49 892.559,280.209 892.886,278.919 893.182,277.622 893.446,276.318 893.446,276.318 893.751,274.631 894.023,272.94 894.264,271.243 894.473,269.542 894.649,267.837 894.794,266.13 894.907,264.42 894.987,262.708 895.035,260.995 895.052,259.282 895.052,259.282 895.035,257.568 894.987,255.855 894.907,254.143 894.794,252.434 894.649,250.726 894.473,249.022 894.264,247.321 894.023,245.624 893.751,243.932 893.446,242.246 893.446,242.246 893.182,240.942 892.886,239.644 892.559,238.355 892.2,237.073 891.811,235.801 891.391,234.538 890.94,233.286 890.459,232.045 889.949,230.817 889.408,229.601 889.408,229.601 888.966,228.678 888.492,227.77 887.988,226.879 887.454,226.006 886.89,225.151 886.298,224.316 885.679,223.502 885.032,222.708 884.358,221.938 883.659,221.19 882.935,220.466 882.186,219.768 882.186,219.768 881.776,219.418 881.346,219.092 880.899,218.79 880.435,218.514 879.956,218.265 879.464,218.043 878.961,217.85 878.447,217.685 877.925,217.549 877.395,217.443 876.861,217.367 876.324,217.322 875.784,217.306 " />
<polyline points="875.784,185.86 875.784,416.655 " stroke-dasharray="139.918074,27.983615,27.983615,27.983615" />
<polyline points="101.426,301.257 46.28,301.257 " />
</g>
<g clip-path="url(#clipId0)" fill="rgb(0,0,0)" stroke="rgb(0,0,0)" stroke-width="0.25" >
<path d="M101.426,298.459 101.426,304.056 118.216,301.257 118.216,301.257 z" />
</g>
<g clip-path="url(#clipId0)" fill="none" stroke="rgb(0,0,0)" stroke-width="0.25" >
<polyline points="173.019,416.655 173.019,185.86 " stroke-dasharray="139.918074,27.983615,27.983615,27.983615" />
<polyline points="173.019,301.257 172.48,301.272 171.942,301.318 171.408,301.394 170.879,301.5 170.356,301.636 169.843,301.801 169.339,301.994 168.847,302.216 168.368,302.465 167.905,302.741 167.457,303.042 167.027,303.369 166.617,303.719 166.617,303.719 165.869,304.417 165.144,305.141 164.445,305.888 163.772,306.659 163.125,307.452 162.505,308.267 161.913,309.102 161.35,309.957 160.816,310.83 160.311,311.721 159.838,312.629 159.395,313.552 159.395,313.552 158.855,314.767 158.344,315.996 157.863,317.237 157.412,318.489 156.992,319.752 156.603,321.024 156.244,322.305 155.917,323.595 155.621,324.892 155.357,326.197 155.357,326.197 155.053,327.883 154.78,329.575 154.539,331.272 154.331,332.972 154.154,334.677 154.009,336.384 153.897,338.094 153.816,339.806 153.768,341.519 153.752,343.233 153.752,343.233 153.768,344.946 153.816,346.659 153.897,348.371 154.009,350.081 154.154,351.788 154.331,353.493 154.539,355.194 154.78,356.89 155.053,358.582 155.357,360.269 155.357,360.269 155.621,361.573 155.917,362.87 156.244,364.16 156.603,365.441 156.992,366.714 157.412,367.976 157.863,369.228 158.344,370.469 158.855,371.698 159.395,372.914 159.395,372.914 159.838,373.837 160.311,374.744 160.816,375.635 161.35,376.508 161.913,377.363 162.505,378.198 163.125,379.013 163.772,379.806 164.445,380.577 165.144,381.324 165.869,382.048 166.617,382.746 166.617,382.746 167.027,383.096 167.457,383.423 167.905,383.724 168.368,384 168.847,384.249 169.339,384.471 169.843,384.665 170.356,384.83 170.879,384.965 171.408,385.071 171.942,385.147 172.48,385.193 173.019,385.208 " />
<polyline points="173.019,217.306 173.558,217.322 174.096,217.367 174.63,217.443 175.159,217.549 175.682,217.685 176.195,217.85 176.699,218.043 177.191,218.265 177.669,218.514 178.133,218.79 178.581,219.092 179.01,219.418 179.421,219.768 179.421,219.768 180.169,220.466 180.894,221.19 181.593,221.938 182.266,222.708 182.913,223.502 183.533,224.316 184.125,225.151 184.688,226.006 185.222,226.879 185.727,227.77 186.2,228.678 186.643,229.601 186.643,229.601 187.183,230.817 187.694,232.045 188.175,233.286 188.626,234.538 189.046,235.801 189.435,237.073 189.794,238.355 190.121,239.644 190.417,240.942 190.681,242.246 190.681,242.246 190.985,243.932 191.258,245.624 191.499,247.321 191.707,249.022 191.884,250.726 192.029,252.434 192.141,254.143 192.222,255.855 192.27,257.568 192.286,259.282 192.286,259.282 192.27,260.995 192.222,262.708 192.141,264.42 192.029,266.13 191.884,267.837 191.707,269.542 191.499,271.243 191.258,272.94 190.985,274.631 190.681,276.318 190.681,276.318 190.417,277.622 190.121,278.919 189.794,280.209 189.435,281.49 189.046,282.763 188.626,284.025 188.175,285.277 187.694,286.518 187.183,287.747 186.643,288.963 186.643,288.963 186.2,289.886 185.727,290.793 185.222,291.684 184.688,292.557 184.125,293.412 183.533,294.247 182.913,295.062 182.266,295.855 181.593,296.626 180.894,297.374 180.169,298.097 179.421,298.796 179.421,298.796 179.01,299.146 178.581,299.472 178.133,299.773 177.669,300.049 177.191,300.298 176.699,300.52 176.195,300.714 175.682,300.879 175.159,301.014 174.63,301.12 174.096,301.196 173.558,301.242 173.019,301.257 173.019,301.257 172.48,301.242 171.942,301.196 171.408,301.12 170.879,301.014 170.356,300.879 169.843,300.714 169.339,300.52 168.847,300.298 168.368,300.049 167.905,299.773 167.457,299.472 167.027,299.146 166.617,298.796 166.617,298.796 165.869,298.097 165.144,297.374 164.445,296.626 163.772,295.855 163.125,295.062 162.505,294.247 161.913,293.412 161.35,292.557 160.816,291.684 160.311,290.793 159.838,289.886 159.395,288.963 159.395,288.963 158.855,287.747 158.344,286.518 157.863,285.277 157.412,284.025 156.992,282.763 156.603,281.49 156.244,280.209 155.917,278.919 155.621,277.622 155.357,276.318 155.357,276.318 155.053,274.631 154.78,272.94 154.539,271.243 154.331,269.542 154.154,267.837 154.009,266.13 153.897,264.42 153.816,262.708 153.768,260.995 153.752,259.282 153.752,259.282 153.768,257.568 153.816,255.855 153.897,254.143 154.009,252.434 154.154,250.726 154.331,249.022 154.539,247.321 154.78,245.624 155.053,243.932 155.357,242.246 155.357,242.246 155.621,240.942 155.917,239.644 156.244,238.355 156.603,237.073 156.992,235.801 157.412,234.538 157.863,233.286 158.344,232.045 158.855,230.817 159.395,229.601 159.395,229.601 159.838,228.678 160.311,227.77 160.816,226.879 161.35,226.006 161.913,225.151 162.505,224.316 163.125,223.502 163.772,222.708 164.445,221.938 165.144,221.19 165.869,220.466 166.617,219.768 166.617,219.768 167.027,219.418 167.457,219.092 167.905,218.79 168.368,218.514 168.847,218.265 169.339,218.043 169.843,217.85 170.356,217.685 170.879,217.549 171.408,217.443 171.942,217.367 172.48,217.322 173.019,217.306 " />
<polyline points="281.194,385.208 281.194,217.306 " />
<polyline points="730.717,385.208 730.717,217.306 " />
<polyline points="309.177,312.451 309.177,290.064 " stroke-dasharray="27.983615,13.991807" />
<polyline points="702.734,329.241 702.734,273.274 " />
<polyline points="325.968,273.274 702.734,273.274 " stroke-dasharray="27.983615,13.991807" />
<polyline points="325.968,329.241 702.734,329.241 " stroke-dasharray="27.983615,13.991807" />
<path d="M325.968,273.274  A16.7902,16.7902 0 0,0 309.177,290.064 " stroke-dasharray="27.983615,13.991807" />
<path d="M309.177,312.451  A16.7902,16.7902 0 0,0 325.968,329.241 " stroke-dasharray="27.983615,13.991807" />
<polyline points="468.643,329.241 524.61,273.274 " />
<polyline points="448.855,329.241 504.823,273.274 " />
<polyline points="429.068,329.241 485.035,273.274 " />
<polyline points="409.281,329.241 465.248,273.274 " />
<polyline points="389.493,329.241 445.46,273.274 " />
<polyline points="369.706,329.241 425.673,273.274 " />
<polyline points="349.918,329.241 405.886,273.274 " />
<polyline points="330.131,329.241 386.098,273.274 " />
<polyline points="314.693,324.892 366.311,273.274 " />
<polyline points="309.177,310.62 346.523,273.274 " />
<polyline points="309.177,290.832 326.736,273.274 " />
<polyline points="488.43,329.241 544.397,273.274 " />
<polyline points="508.218,329.241 564.185,273.274 " />
<polyline points="528.005,329.241 583.972,273.274 " />
<polyline points="547.792,329.241 603.76,273.274 " />
<polyline points="567.58,329.241 623.547,273.274 " />
<polyline points="587.367,329.241 643.334,273.274 " />
<polyline points="607.155,329.241 663.122,273.274 " />
<polyline points="626.942,329.241 682.909,273.274 " />
<polyline points="646.729,329.241 702.697,273.274 " />
<polyline points="666.517,329.241 702.734,293.024 " />
<polyline points="686.304,329.241 702.734,312.811 " />
<polyline points="516.92,329.241 460.953,273.274 " />
<polyline points="497.133,329.241 441.166,273.274 " />
<polyline points="477.345,329.241 421.378,273.274 " />
<polyline points="457.558,329.241 401.591,273.274 " />
<polyline points="437.771,329.241 381.803,273.274 " />
<polyline points="417.983,329.241 362.016,273.274 " />
<polyline points="398.196,329.241 342.229,273.274 " />
<polyline points="378.408,329.241 322.752,273.584 " />
<polyline points="358.621,329.241 311.29,281.91 " />
<polyline points="338.834,329.241 309.177,299.585 " />
<polyline points="314.74,324.935 313.484,323.678 " />
<polyline points="536.708,329.241 480.74,273.274 " />
<polyline points="556.495,329.241 500.528,273.274 " />
<polyline points="576.282,329.241 520.315,273.274 " />
<polyline points="596.07,329.241 540.103,273.274 " />
<polyline points="615.857,329.241 559.89,273.274 " />
<polyline points="635.645,329.241 579.677,273.274 " />
<polyline points="655.432,329.241 599.465,273.274 " />
<polyline points="675.219,329.241 619.252,273.274 " />
<polyline points="695.007,329.241 639.04,273.274 " />
<polyline points="702.734,317.18 658.827,273.274 " />
<polyline points="702.734,297.393 678.614,273.274 " />
<polyline points="702.734,277.605 698.402,273.274 " />
<polyline points="49.4709,271.243 47.8718,272.043 46.2727,273.642 45.4732,275.241 44.6737,277.639 44.6737,281.637 45.4732,284.036 46.2727,285.635 47.8718,287.234 49.4709,288.033 52.669,288.033 54.2681,287.234 55.8671,285.635 56.6667,284.036 57.4662,281.637 57.4662,277.639 56.6667,275.241 55.8671,273.642 54.2681,272.043 52.669,271.243 49.4709,271.243 " />
<polyline points="51.8695,284.835 56.6667,289.632 " />
<polyline points="50.3375,314.467 43.9412,331.257 " />
<polyline points="50.3375,314.467 56.7338,331.257 " />
<polyline points="46.3398,325.66 54.3352,325.66 " />
<polyline points="64.8599,325.72 63.4208,326.2 62.4613,327.639 61.9816,330.038 61.9816,331.477 62.4613,333.876 63.4208,335.315 64.8599,335.795 65.8194,335.795 67.2585,335.315 68.218,333.876 68.6977,331.477 68.6977,330.038 68.218,327.639 67.2585,326.2 65.8194,325.72 64.8599,325.72 " />
<polyline points="894.279,217.306 1011.91,217.306 " />
<polyline points="894.279,385.208 1011.91,385.208 " />
<polyline points="991.759,234.097 991.759,282.788 " />
<polyline points="991.759,368.418 991.759,319.726 " />
</g>
<g clip-path="url(#clipId0)" fill="rgb(0,0,0)" stroke="rgb(0,0,0)" stroke-width="0.25" >
<path d="M988.96,234.097 994.557,234.097 991.759,217.306 991.759,217.306 z" />
<path d="M988.96,368.418 994.557,368.418 991.759,385.208 991.759,385.208 z" />
</g>
<g clip-path="url(#clipId0)" fill="none" stroke="rgb(0,0,0)" stroke-width="0.25" >
<polyline points="986.162,292.862 986.162,309.652 " />
<polyline points="986.162,292.862 991.759,292.862 994.157,293.662 995.756,295.261 996.556,296.86 997.355,299.258 997.355,303.256 996.556,305.655 995.756,307.254 994.157,308.853 991.759,309.652 986.162,309.652 " />
<polyline points="702.734,273.274 762.041,284.192 " />
<polyline points="702.734,329.241 762.041,318.322 " />
<polyline points="762.041,318.322 762.041,284.192 " />
</g>
<g clip-path="url(#clipId0)" fill="rgb(0,0,0)" stroke="rgb(0,0,0)" stroke-width="0.25" >
<path d="M718.311,259.182 712.798,260.15 718.456,276.204 718.456,276.204 z" />
</g>
<g clip-path="url(#clipId0)" fill="none" stroke="rgb(0,0,0)" stroke-width="0.25" >
<polyline points="715.555,259.666 695.53,145.523 " />
<polyline points="695.53,145.523 678.74,145.523 " />
<polyline points="545.538,137.128 545.538,153.919 " />
<polyline points="539.941,137.128 551.134,137.128 " />
<polyline points="559.13,137.128 552.733,153.919 " />
<polyline points="559.13,137.128 565.526,153.919 " />
<polyline points="555.132,148.322 563.127,148.322 " />
<polyline points="569.524,137.128 569.524,153.919 " />
<polyline points="575.92,137.128 575.92,153.919 585.514,153.919 " />
<polyline points="617.495,141.126 616.696,139.527 615.097,137.928 613.498,137.128 610.3,137.128 608.701,137.928 607.102,139.527 606.302,141.126 605.502,143.525 605.502,147.522 606.302,149.921 607.102,151.52 608.701,153.119 610.3,153.919 613.498,153.919 615.097,153.119 616.696,151.52 617.495,149.921 " />
<polyline points="627.09,137.128 625.491,137.928 623.892,139.527 623.092,141.126 622.293,143.525 622.293,147.522 623.092,149.921 623.892,151.52 625.491,153.119 627.09,153.919 630.288,153.919 631.887,153.119 633.486,151.52 634.286,149.921 635.085,147.522 635.085,143.525 634.286,141.126 633.486,139.527 631.887,137.928 630.288,137.128 627.09,137.128 " />
<polyline points="640.682,137.128 640.682,153.919 " />
<polyline points="640.682,137.128 651.875,153.919 " />
<polyline points="651.875,137.128 651.875,153.919 " />
<polyline points="658.272,137.128 658.272,153.919 " />
<polyline points="658.272,137.128 668.665,137.128 " />
<polyline points="658.272,145.124 664.668,145.124 " />
<polyline points="658.272,153.919 668.665,153.919 " />
<polyline points="46.28,301.257 10.0392,301.257 " />
</g>
<g clip-path="url(#clipId0)" fill="rgb(0,0,0)" stroke="rgb(0,0,0)" stroke-width="0.25" >
<path d="M591.052,343.575 596.058,346.079 601.068,329.811 601.068,329.811 z" />
</g>
<g clip-path="url(#clipId0)" fill="none" stroke="rgb(0,0,0)" stroke-width="0.25" >
<polyline points="593.555,344.827 529.776,472.298 " />
<polyline points="529.776,472.298 497.58,472.298 " />
<polyline points="130.915,466.301 129.316,464.702 126.917,463.903 123.719,463.903 121.321,464.702 119.722,466.301 119.722,467.9 120.521,469.499 121.321,470.299 122.92,471.098 127.717,472.698 129.316,473.497 130.116,474.297 130.915,475.896 130.915,478.294 129.316,479.893 126.917,480.693 123.719,480.693 121.321,479.893 119.722,478.294 " />
<polyline points="140.509,463.903 138.91,464.702 137.311,466.301 136.512,467.9 135.712,470.299 135.712,474.297 136.512,476.695 137.311,478.294 138.91,479.893 140.509,480.693 143.708,480.693 145.307,479.893 146.906,478.294 147.705,476.695 148.505,474.297 148.505,470.299 147.705,467.9 146.906,466.301 145.307,464.702 143.708,463.903 140.509,463.903 " />
<polyline points="154.101,463.903 154.101,475.896 154.901,478.294 156.5,479.893 158.899,480.693 160.498,480.693 162.896,479.893 164.495,478.294 165.295,475.896 165.295,463.903 " />
<polyline points="171.691,463.903 171.691,480.693 " />
<polyline points="171.691,463.903 182.885,480.693 " />
<polyline points="182.885,463.903 182.885,480.693 " />
<polyline points="189.281,463.903 189.281,480.693 " />
<polyline points="189.281,463.903 194.878,463.903 197.276,464.702 198.875,466.301 199.675,467.9 200.474,470.299 200.474,474.297 199.675,476.695 198.875,478.294 197.276,479.893 194.878,480.693 189.281,480.693 " />
<polyline points="226.859,463.903 220.463,480.693 " />
<polyline points="226.859,463.903 233.255,480.693 " />
<polyline points="222.861,475.096 230.857,475.096 " />
<polyline points="237.253,463.903 237.253,480.693 " />
<polyline points="237.253,463.903 244.449,463.903 246.847,464.702 247.647,465.502 248.446,467.101 248.446,468.7 247.647,470.299 246.847,471.098 244.449,471.898 " />
<polyline points="237.253,471.898 244.449,471.898 246.847,472.698 247.647,473.497 248.446,475.096 248.446,477.495 247.647,479.094 246.847,479.893 244.449,480.693 237.253,480.693 " />
<polyline points="264.437,466.301 262.838,464.702 260.439,463.903 257.241,463.903 254.842,464.702 253.243,466.301 253.243,467.9 254.043,469.499 254.842,470.299 256.442,471.098 261.239,472.698 262.838,473.497 263.637,474.297 264.437,475.896 264.437,478.294 262.838,479.893 260.439,480.693 257.241,480.693 254.842,479.893 253.243,478.294 " />
<polyline points="274.031,463.903 272.432,464.702 270.833,466.301 270.034,467.9 269.234,470.299 269.234,474.297 270.034,476.695 270.833,478.294 272.432,479.893 274.031,480.693 277.229,480.693 278.828,479.893 280.428,478.294 281.227,476.695 282.027,474.297 282.027,470.299 281.227,467.9 280.428,466.301 278.828,464.702 277.229,463.903 274.031,463.903 " />
<polyline points="287.623,463.903 287.623,480.693 " />
<polyline points="287.623,463.903 294.819,463.903 297.218,464.702 298.017,465.502 298.817,467.101 298.817,468.7 298.017,470.299 297.218,471.098 294.819,471.898 287.623,471.898 " />
<polyline points="293.22,471.898 298.817,480.693 " />
<polyline points="304.413,463.903 304.413,480.693 " />
<polyline points="304.413,463.903 311.609,463.903 314.008,464.702 314.807,465.502 315.607,467.101 315.607,468.7 314.807,470.299 314.008,471.098 311.609,471.898 " />
<polyline points="304.413,471.898 311.609,471.898 314.008,472.698 314.807,473.497 315.607,475.096 315.607,477.495 314.807,479.094 314.008,479.893 311.609,480.693 304.413,480.693 " />
<polyline points="321.204,463.903 321.204,480.693 " />
<polyline points="327.6,463.903 327.6,480.693 " />
<polyline points="327.6,463.903 338.793,480.693 " />
<polyline points="338.793,463.903 338.793,480.693 " />
<polyline points="356.383,467.9 355.583,466.301 353.984,464.702 352.385,463.903 349.187,463.903 347.588,464.702 345.989,466.301 345.19,467.9 344.39,470.299 344.39,474.297 345.19,476.695 345.989,478.294 347.588,479.893 349.187,480.693 352.385,480.693 353.984,479.893 355.583,478.294 356.383,476.695 356.383,474.297 " />
<polyline points="352.385,474.297 356.383,474.297 " />
<polyline points="378.77,463.903 378.77,480.693 " />
<polyline points="378.77,463.903 385.166,480.693 " />
<polyline points="391.562,463.903 385.166,480.693 " />
<polyline points="391.562,463.903 391.562,480.693 " />
<polyline points="401.956,463.903 395.56,480.693 " />
<polyline points="401.956,463.903 408.353,480.693 " />
<polyline points="397.959,475.096 405.954,475.096 " />
<polyline points="415.548,463.903 415.548,480.693 " />
<polyline points="409.952,463.903 421.145,463.903 " />
<polyline points="425.143,463.903 425.143,480.693 " />
<polyline points="425.143,463.903 435.537,463.903 " />
<polyline points="425.143,471.898 431.539,471.898 " />
<polyline points="425.143,480.693 435.537,480.693 " />
<polyline points="440.334,463.903 440.334,480.693 " />
<polyline points="440.334,463.903 447.53,463.903 449.928,464.702 450.728,465.502 451.527,467.101 451.527,468.7 450.728,470.299 449.928,471.098 447.53,471.898 440.334,471.898 " />
<polyline points="445.931,471.898 451.527,480.693 " />
<polyline points="457.124,463.903 457.124,480.693 " />
<polyline points="467.518,463.903 461.122,480.693 " />
<polyline points="467.518,463.903 473.914,480.693 " />
<polyline points="463.52,475.096 471.516,475.096 " />
<polyline points="477.912,463.903 477.912,480.693 487.506,480.693 " />
<polyline points="911.941,612.109 910.768,609.764 908.423,607.419 906.077,606.246 901.387,606.246 899.041,607.419 896.696,609.764 895.523,612.109 894.351,615.627 894.351,621.49 895.523,625.008 896.696,627.354 899.041,629.699 901.387,630.872 906.077,630.872 908.423,629.699 910.768,627.354 911.941,625.008 " />
<polyline points="920.149,606.246 920.149,630.872 " />
<polyline points="920.149,606.246 928.358,606.246 931.876,607.419 934.221,609.764 935.393,612.109 936.566,615.627 936.566,621.49 935.393,625.008 934.221,627.354 931.876,629.699 928.358,630.872 920.149,630.872 " />
<polyline points="949.465,606.246 945.947,607.419 944.775,609.764 944.775,612.109 945.947,614.455 948.293,615.627 952.983,616.8 956.501,617.972 958.846,620.318 960.019,622.663 960.019,626.181 958.846,628.526 957.674,629.699 954.156,630.872 949.465,630.872 945.947,629.699 944.775,628.526 943.602,626.181 943.602,622.663 944.775,620.318 947.12,617.972 950.638,616.8 955.328,615.627 957.674,614.455 958.846,612.109 958.846,609.764 957.674,607.419 954.156,606.246 949.465,606.246 " />
<polyline points="968.228,620.318 989.335,620.318 " />
<polyline points="1003.41,606.246 999.889,607.419 998.716,609.764 998.716,612.109 999.889,614.455 1002.23,615.627 1006.92,616.8 1010.44,617.972 1012.79,620.318 1013.96,622.663 1013.96,626.181 1012.79,628.526 1011.62,629.699 1008.1,630.872 1003.41,630.872 999.889,629.699 998.716,628.526 997.544,626.181 997.544,622.663 998.716,620.318 1001.06,617.972 1004.58,616.8 1009.27,615.627 1011.62,614.455 1012.79,612.109 1012.79,609.764 1011.62,607.419 1008.1,606.246 1003.41,606.246 " />
</g>
</svg>
