<?xml version="1.0" standalone="no"?>
<svg viewBox="0 0 1024 768" version="1.1" xmlns="http://www.w3.org/2000/svg" xmlns:xlink="http://www.w3.org/1999/xlink" stroke-linecap="round" stroke-linejoin="round" fill-rule="evenodd" xml:space="preserve" >
<defs >
<clipPath id="clipId0" >
<path d="M0,768 1024,768 1024,0 0,0 z" />
</clipPath>
</defs>
<g clip-path="url(#clipId0)" fill="none" stroke="rgb(0,0,0)" stroke-width="0.1" />
<g clip-path="url(#clipId0)" fill="none" stroke="rgb(0,0,0)" stroke-width="0.25" >
<polyline points="151.157,307.969 895.363,307.969 " stroke-dasharray="144.212670,28.842534,28.842534,28.842534" />
<polyline points="180.209,221.441 866.52,221.441 " />
<polyline points="180.209,394.496 866.52,394.496 " />
<polyline points="866.52,394.496 865.964,394.481 865.41,394.434 864.86,394.355 864.314,394.246 863.776,394.106 863.246,393.936 862.727,393.737 862.22,393.508 861.727,393.251 861.249,392.967 860.788,392.656 860.345,392.32 859.922,391.959 859.922,391.959 859.209,391.295 858.517,390.61 857.847,389.903 857.2,389.175 856.575,388.428 855.975,387.661 855.398,386.877 854.846,386.074 854.32,385.255 853.82,384.419 853.346,383.568 852.898,382.703 852.478,381.825 852.478,381.825 851.921,380.571 851.395,379.305 850.899,378.026 850.435,376.736 850.002,375.434 849.6,374.123 849.231,372.802 848.894,371.473 848.589,370.136 848.316,368.791 848.316,368.791 848.002,367.053 847.722,365.309 847.474,363.561 847.258,361.808 847.076,360.051 846.927,358.291 846.811,356.528 846.728,354.764 846.678,352.999 846.662,351.232 846.662,351.232 846.678,349.466 846.728,347.701 846.811,345.937 846.927,344.174 847.076,342.414 847.258,340.657 847.474,338.904 847.722,337.156 848.002,335.412 848.316,333.674 848.316,333.674 848.589,332.329 848.894,330.992 849.231,329.663 849.6,328.342 850.002,327.031 850.435,325.729 850.899,324.439 851.395,323.16 851.921,321.894 852.478,320.64 852.478,320.64 852.898,319.762 853.346,318.897 853.82,318.046 854.32,317.21 854.846,316.391 855.398,315.588 855.975,314.804 856.575,314.037 857.2,313.29 857.847,312.562 858.517,311.855 859.209,311.17 859.922,310.506 859.922,310.506 860.345,310.145 860.788,309.809 861.249,309.498 861.727,309.214 862.22,308.957 862.727,308.728 863.246,308.529 863.776,308.359 864.314,308.219 864.86,308.11 865.41,308.031 865.964,307.984 866.52,307.969 866.52,307.969 867.076,307.984 867.63,308.031 868.181,308.11 868.726,308.219 869.265,308.359 869.794,308.529 870.313,308.728 870.82,308.957 871.314,309.214 871.792,309.498 872.253,309.809 872.696,310.145 873.119,310.506 873.119,310.506 873.832,311.17 874.523,311.855 875.193,312.562 875.841,313.29 876.465,314.037 877.066,314.804 877.642,315.588 878.194,316.391 878.721,317.21 879.221,318.046 879.695,318.897 880.142,319.762 880.563,320.64 880.563,320.64 881.12,321.894 881.646,323.16 882.142,324.439 882.606,325.729 883.039,327.031 883.44,328.342 883.81,329.663 884.147,330.992 884.452,332.329 884.725,333.674 884.725,333.674 885.038,335.412 885.319,337.156 885.567,338.904 885.782,340.657 885.964,342.414 886.114,344.174 886.23,345.937 886.313,347.701 886.362,349.466 886.379,351.232 886.379,351.232 886.362,352.999 886.313,354.764 886.23,356.528 886.114,358.291 885.964,360.051 885.782,361.808 885.567,363.561 885.319,365.309 885.038,367.053 884.725,368.791 884.725,368.791 884.452,370.136 884.147,371.473 883.81,372.802 883.44,374.123 883.039,375.434 882.606,376.736 882.142,378.026 881.646,379.305 881.12,380.571 880.563,381.825 880.563,381.825 880.142,382.703 879.695,383.568 879.221,384.419 878.721,385.255 878.194,386.074 877.642,386.877 877.066,387.661 876.465,388.428 875.841,389.175 875.193,389.903 874.523,390.61 873.832,391.295 873.119,391.959 873.119,391.959 872.696,392.32 872.253,392.656 871.792,392.967 871.314,393.251 870.82,393.508 870.313,393.737 869.794,393.936 869.265,394.106 868.726,394.246 868.181,394.355 867.63,394.434 867.076,394.481 866.52,394.496 " />
<polyline points="866.52,307.969 867.076,307.953 867.63,307.906 868.181,307.828 868.726,307.718 869.265,307.579 869.794,307.409 870.313,307.209 870.82,306.981 871.314,306.724 871.792,306.439 872.253,306.129 872.696,305.792 873.119,305.432 873.119,305.432 873.832,304.768 874.523,304.082 875.193,303.375 875.841,302.648 876.465,301.9 877.066,301.134 877.642,300.349 878.194,299.546 878.721,298.727 879.221,297.891 879.695,297.041 880.142,296.176 880.563,295.297 880.563,295.297 881.12,294.044 881.646,292.777 882.142,291.498 882.606,290.208 883.039,288.907 883.44,287.595 883.81,286.274 884.147,284.945 884.452,283.608 884.725,282.264 884.725,282.264 885.038,280.526 885.319,278.782 885.567,277.033 885.782,275.28 885.964,273.523 886.114,271.763 886.23,270.001 886.313,268.237 886.362,266.471 886.379,264.705 886.379,264.705 886.362,262.939 886.313,261.173 886.23,259.409 886.114,257.646 885.964,255.887 885.782,254.13 885.567,252.377 885.319,250.628 885.038,248.884 884.725,247.146 884.725,247.146 884.452,245.802 884.147,244.465 883.81,243.135 883.44,241.815 883.039,240.503 882.606,239.202 882.142,237.911 881.646,236.632 881.12,235.366 880.563,234.113 880.563,234.113 880.142,233.234 879.695,232.369 879.221,231.518 878.721,230.683 878.194,229.863 877.642,229.061 877.066,228.276 876.465,227.509 875.841,226.762 875.193,226.034 874.523,225.328 873.832,224.642 873.119,223.978 873.119,223.978 872.696,223.617 872.253,223.281 871.792,222.97 871.314,222.686 870.82,222.429 870.313,222.201 869.794,222.001 869.265,221.831 868.726,221.691 868.181,221.582 867.63,221.504 867.076,221.457 866.52,221.441 " />
<polyline points="866.52,189.029 866.52,426.908 " stroke-dasharray="144.212670,28.842534,28.842534,28.842534" />
<polyline points="113.53,307.969 56.6909,307.969 " />
</g>
<g clip-path="url(#clipId0)" fill="rgb(0,0,0)" stroke="rgb(0,0,0)" stroke-width="0.25" >
<path d="M113.53,305.084 113.53,310.853 130.835,307.969 130.835,307.969 z" />
</g>
<g clip-path="url(#clipId0)" fill="none" stroke="rgb(0,0,0)" stroke-width="0.25" >
<polyline points="180.209,426.908 180.209,189.029 " stroke-dasharray="144.212670,28.842534,28.842534,28.842534" />
<polyline points="180.209,307.969 179.653,307.984 179.099,308.031 178.548,308.11 178.003,308.219 177.465,308.359 176.935,308.529 176.416,308.728 175.909,308.957 175.416,309.214 174.938,309.498 174.477,309.809 174.034,310.145 173.61,310.506 173.61,310.506 172.898,311.17 172.206,311.855 171.536,312.562 170.889,313.29 170.264,314.037 169.663,314.804 169.087,315.588 168.535,316.391 168.009,317.21 167.508,318.046 167.034,318.897 166.587,319.762 166.167,320.64 166.167,320.64 165.61,321.894 165.083,323.16 164.588,324.439 164.123,325.729 163.69,327.031 163.289,328.342 162.92,329.663 162.582,330.992 162.277,332.329 162.005,333.674 162.005,333.674 161.691,335.412 161.41,337.156 161.162,338.904 160.947,340.657 160.765,342.414 160.616,344.174 160.5,345.937 160.417,347.701 160.367,349.466 160.35,351.232 160.35,351.232 160.367,352.999 160.417,354.764 160.5,356.528 160.616,358.291 160.765,360.051 160.947,361.808 161.162,363.561 161.41,365.309 161.691,367.053 162.005,368.791 162.005,368.791 162.277,370.136 162.582,371.473 162.92,372.802 163.289,374.123 163.69,375.434 164.123,376.736 164.588,378.026 165.083,379.305 165.61,380.571 166.167,381.825 166.167,381.825 166.587,382.703 167.034,383.568 167.508,384.419 168.009,385.255 168.535,386.074 169.087,386.877 169.663,387.661 170.264,388.428 170.889,389.175 171.536,389.903 172.206,390.61 172.898,391.295 173.61,391.959 173.61,391.959 174.034,392.32 174.477,392.656 174.938,392.967 175.416,393.251 175.909,393.508 176.416,393.737 176.935,393.936 177.465,394.106 178.003,394.246 178.548,394.355 179.099,394.434 179.653,394.481 180.209,394.496 " />
<polyline points="180.209,221.441 180.765,221.457 181.319,221.504 181.87,221.582 182.415,221.691 182.953,221.831 183.483,222.001 184.002,222.201 184.509,222.429 185.002,222.686 185.48,222.97 185.942,223.281 186.384,223.617 186.808,223.978 186.808,223.978 187.52,224.642 188.212,225.328 188.882,226.034 189.53,226.762 190.154,227.509 190.755,228.276 191.331,229.061 191.883,229.863 192.409,230.683 192.91,231.518 193.384,232.369 193.831,233.234 194.251,234.113 194.251,234.113 194.808,235.366 195.335,236.632 195.83,237.911 196.295,239.202 196.728,240.503 197.129,241.815 197.499,243.135 197.836,244.465 198.141,245.802 198.413,247.146 198.413,247.146 198.727,248.884 199.008,250.628 199.256,252.377 199.471,254.13 199.653,255.887 199.802,257.646 199.918,259.409 200.001,261.173 200.051,262.939 200.068,264.705 200.068,264.705 200.051,266.471 200.001,268.237 199.918,270.001 199.802,271.763 199.653,273.523 199.471,275.28 199.256,277.033 199.008,278.782 198.727,280.526 198.413,282.264 198.413,282.264 198.141,283.608 197.836,284.945 197.499,286.274 197.129,287.595 196.728,288.907 196.295,290.208 195.83,291.498 195.335,292.777 194.808,294.044 194.251,295.297 194.251,295.297 193.831,296.176 193.384,297.041 192.91,297.891 192.409,298.727 191.883,299.546 191.331,300.349 190.755,301.134 190.154,301.9 189.53,302.648 188.882,303.375 188.212,304.082 187.52,304.768 186.808,305.432 186.808,305.432 186.384,305.792 185.942,306.129 185.48,306.439 185.002,306.724 184.509,306.981 184.002,307.209 183.483,307.409 182.953,307.579 182.415,307.718 181.87,307.828 181.319,307.906 180.765,307.953 180.209,307.969 180.209,307.969 179.653,307.953 179.099,307.906 178.548,307.828 178.003,307.718 177.465,307.579 176.935,307.409 176.416,307.209 175.909,306.981 175.416,306.724 174.938,306.439 174.477,306.129 174.034,305.792 173.61,305.432 173.61,305.432 172.898,304.768 172.206,304.082 171.536,303.375 170.889,302.648 170.264,301.9 169.663,301.134 169.087,300.349 168.535,299.546 168.009,298.727 167.508,297.891 167.034,297.041 166.587,296.176 166.167,295.297 166.167,295.297 165.61,294.044 165.083,292.777 164.588,291.498 164.123,290.208 163.69,288.907 163.289,287.595 162.92,286.274 162.582,284.945 162.277,283.608 162.005,282.264 162.005,282.264 161.691,280.526 161.41,278.782 161.162,277.033 160.947,275.28 160.765,273.523 160.616,271.763 160.5,270.001 160.417,268.237 160.367,266.471 160.35,264.705 160.35,264.705 160.367,262.939 160.417,261.173 160.5,259.409 160.616,257.646 160.765,255.887 160.947,254.13 161.162,252.377 161.41,250.628 161.691,248.884 162.005,247.146 162.005,247.146 162.277,245.802 162.582,244.465 162.92,243.135 163.289,241.815 163.69,240.503 164.123,239.202 164.588,237.911 165.083,236.632 165.61,235.366 166.167,234.113 166.167,234.113 166.587,233.234 167.034,232.369 167.508,231.518 168.009,230.683 168.535,229.863 169.087,229.061 169.663,228.276 170.264,227.509 170.889,226.762 171.536,226.034 172.206,225.328 172.898,224.642 173.61,223.978 173.61,223.978 174.034,223.617 174.477,223.281 174.938,222.97 175.416,222.686 175.909,222.429 176.416,222.201 176.935,222.001 177.465,221.831 178.003,221.691 178.548,221.582 179.099,221.504 179.653,221.457 180.209,221.441 " />
<polyline points="291.704,394.496 291.704,221.441 " />
<polyline points="755.025,394.496 755.025,221.441 " />
<polyline points="320.547,319.506 320.547,296.432 " stroke-dasharray="28.842534,14.421267" />
<polyline points="726.183,336.811 726.183,279.126 " stroke-dasharray="28.842534,14.421267" />
<polyline points="337.852,279.126 726.183,279.126 " stroke-dasharray="28.842534,14.421267" />
<polyline points="337.852,336.811 726.183,336.811 " stroke-dasharray="28.842534,14.421267" />
<path d="M337.852,279.126  A17.3055,17.3055 0 0,0 320.547,296.432 " stroke-dasharray="28.842534,14.421267" />
<path d="M320.547,319.506  A17.3055,17.3055 0 0,0 337.852,336.811 " stroke-dasharray="28.842534,14.421267" />
<polyline points="484.907,336.811 542.592,279.126 " />
<polyline points="464.512,336.811 522.197,279.126 " />
<polyline points="444.117,336.811 501.802,279.126 " />
<polyline points="423.722,336.811 481.408,279.126 " />
<polyline points="403.328,336.811 461.013,279.126 " />
<polyline points="382.933,336.811 440.618,279.126 " />
<polyline points="362.538,336.811 420.223,279.126 " />
<polyline points="342.143,336.811 399.829,279.126 " />
<polyline points="326.231,332.329 379.434,279.126 " />
<polyline points="320.547,317.618 359.039,279.126 " />
<polyline points="320.547,297.224 338.644,279.126 " />
<polyline points="505.301,336.811 562.987,279.126 " />
<polyline points="525.696,336.811 583.381,279.126 " />
<polyline points="546.091,336.811 603.776,279.126 " />
<polyline points="566.486,336.811 624.171,279.126 " />
<polyline points="586.88,336.811 644.566,279.126 " />
<polyline points="607.275,336.811 664.96,279.126 " />
<polyline points="627.67,336.811 685.355,279.126 " />
<polyline points="648.065,336.811 705.75,279.126 " />
<polyline points="668.459,336.811 726.145,279.126 " />
<polyline points="688.854,336.811 726.183,299.483 " />
<polyline points="709.249,336.811 726.183,319.878 " />
<polyline points="534.666,336.811 476.981,279.126 " />
<polyline points="514.271,336.811 456.586,279.126 " />
<polyline points="493.876,336.811 436.191,279.126 " />
<polyline points="473.482,336.811 415.797,279.126 " />
<polyline points="453.087,336.811 395.402,279.126 " />
<polyline points="432.692,336.811 375.007,279.126 " />
<polyline points="412.297,336.811 354.612,279.126 " />
<polyline points="391.903,336.811 334.538,279.447 " />
<polyline points="371.508,336.811 322.724,288.028 " />
<polyline points="351.113,336.811 320.547,306.245 " />
<polyline points="326.28,332.373 324.985,331.078 " />
<polyline points="555.061,336.811 497.376,279.126 " />
<polyline points="575.455,336.811 517.77,279.126 " />
<polyline points="595.85,336.811 538.165,279.126 " />
<polyline points="616.245,336.811 558.56,279.126 " />
<polyline points="636.64,336.811 578.955,279.126 " />
<polyline points="657.034,336.811 599.349,279.126 " />
<polyline points="677.429,336.811 619.744,279.126 " />
<polyline points="697.824,336.811 640.139,279.126 " />
<polyline points="718.219,336.811 660.534,279.126 " />
<polyline points="726.183,324.38 680.928,279.126 " />
<polyline points="726.183,303.986 701.323,279.126 " />
<polyline points="726.183,283.591 721.718,279.126 " />
<polyline points="64.7204,279.402 63.0722,280.226 61.4241,281.874 60.6,283.523 59.7759,285.995 59.7759,290.115 60.6,292.587 61.4241,294.235 63.0722,295.884 64.7204,296.708 68.0167,296.708 69.6648,295.884 71.3129,294.235 72.137,292.587 72.9611,290.115 72.9611,285.995 72.137,283.523 71.3129,281.874 69.6648,280.226 68.0167,279.402 64.7204,279.402 " />
<polyline points="67.1926,293.411 72.137,298.356 " />
<polyline points="65.6136,321.584 59.021,338.889 " />
<polyline points="65.6136,321.584 72.2062,338.889 " />
<polyline points="61.4932,333.121 69.734,333.121 " />
<polyline points="80.5818,333.183 79.0984,333.677 78.1095,335.161 77.6151,337.633 77.6151,339.116 78.1095,341.588 79.0984,343.072 80.5818,343.566 81.5706,343.566 83.054,343.072 84.0429,341.588 84.5373,339.116 84.5373,337.633 84.0429,335.161 83.054,333.677 81.5706,333.183 80.5818,333.183 " />
<polyline points="890.323,221.441 1011.56,221.441 " />
<polyline points="890.323,394.496 1011.56,394.496 " />
<polyline points="990.795,238.747 990.795,288.933 " />
<polyline points="990.795,377.191 990.795,327.005 " />
</g>
<g clip-path="url(#clipId0)" fill="rgb(0,0,0)" stroke="rgb(0,0,0)" stroke-width="0.25" >
<path d="M987.911,238.747 993.679,238.747 990.795,221.441 990.795,221.441 z" />
<path d="M987.911,377.191 993.679,377.191 990.795,394.496 990.795,394.496 z" />
</g>
<g clip-path="url(#clipId0)" fill="none" stroke="rgb(0,0,0)" stroke-width="0.25" >
<polyline points="985.027,299.316 985.027,316.621 " />
<polyline points="985.027,299.316 990.795,299.316 993.267,300.14 994.916,301.788 995.74,303.436 996.564,305.909 996.564,310.029 995.74,312.501 994.916,314.149 993.267,315.797 990.795,316.621 985.027,316.621 " />
<polyline points="56.6909,307.969 10.0392,307.969 " />
</g>
<g clip-path="url(#clipId0)" fill="rgb(0,0,0)" stroke="rgb(0,0,0)" stroke-width="0.25" >
<path d="M458.104,263.469 452.816,261.165 448.546,278.181 448.546,278.181 z" />
</g>
<g clip-path="url(#clipId0)" fill="none" stroke="rgb(0,0,0)" stroke-width="0.25" >
<polyline points="455.46,262.317 512.545,131.321 " />
<polyline points="512.545,131.321 510.174,131.321 " />
<polyline points="510.174,131.321 538.618,131.321 " />
<polyline points="563.011,125.141 561.363,123.493 558.89,122.669 555.594,122.669 553.122,123.493 551.474,125.141 551.474,126.789 552.298,128.437 553.122,129.261 554.77,130.085 559.714,131.733 561.363,132.557 562.187,133.381 563.011,135.03 563.011,137.502 561.363,139.15 558.89,139.974 555.594,139.974 553.122,139.15 551.474,137.502 " />
<polyline points="572.9,122.669 571.251,123.493 569.603,125.141 568.779,126.789 567.955,129.261 567.955,133.381 568.779,135.854 569.603,137.502 571.251,139.15 572.9,139.974 576.196,139.974 577.844,139.15 579.492,137.502 580.316,135.854 581.14,133.381 581.14,129.261 580.316,126.789 579.492,125.141 577.844,123.493 576.196,122.669 572.9,122.669 " />
<polyline points="586.909,122.669 586.909,135.03 587.733,137.502 589.381,139.15 591.853,139.974 593.501,139.974 595.974,139.15 597.622,137.502 598.446,135.03 598.446,122.669 " />
<polyline points="605.038,122.669 605.038,139.974 " />
<polyline points="605.038,122.669 616.575,139.974 " />
<polyline points="616.575,122.669 616.575,139.974 " />
<polyline points="623.168,122.669 623.168,139.974 " />
<polyline points="623.168,122.669 628.937,122.669 631.409,123.493 633.057,125.141 633.881,126.789 634.705,129.261 634.705,133.381 633.881,135.854 633.057,137.502 631.409,139.15 628.937,139.974 623.168,139.974 " />
<polyline points="661.899,122.669 655.307,139.974 " />
<polyline points="661.899,122.669 668.492,139.974 " />
<polyline points="657.779,134.206 666.02,134.206 " />
<polyline points="672.612,122.669 672.612,139.974 " />
<polyline points="672.612,122.669 680.029,122.669 682.501,123.493 683.325,124.317 684.149,125.965 684.149,127.613 683.325,129.261 682.501,130.085 680.029,130.909 " />
<polyline points="672.612,130.909 680.029,130.909 682.501,131.733 683.325,132.557 684.149,134.206 684.149,136.678 683.325,138.326 682.501,139.15 680.029,139.974 672.612,139.974 " />
<polyline points="700.631,125.141 698.983,123.493 696.51,122.669 693.214,122.669 690.742,123.493 689.094,125.141 689.094,126.789 689.918,128.437 690.742,129.261 692.39,130.085 697.335,131.733 698.983,132.557 699.807,133.381 700.631,135.03 700.631,137.502 698.983,139.15 696.51,139.974 693.214,139.974 690.742,139.15 689.094,137.502 " />
<polyline points="710.52,122.669 708.872,123.493 707.223,125.141 706.399,126.789 705.575,129.261 705.575,133.381 706.399,135.854 707.223,137.502 708.872,139.15 710.52,139.974 713.816,139.974 715.464,139.15 717.112,137.502 717.936,135.854 718.76,133.381 718.76,129.261 717.936,126.789 717.112,125.141 715.464,123.493 713.816,122.669 710.52,122.669 " />
<polyline points="724.529,122.669 724.529,139.974 " />
<polyline points="724.529,122.669 731.946,122.669 734.418,123.493 735.242,124.317 736.066,125.965 736.066,127.613 735.242,129.261 734.418,130.085 731.946,130.909 724.529,130.909 " />
<polyline points="730.297,130.909 736.066,139.974 " />
<polyline points="741.834,122.669 741.834,139.974 " />
<polyline points="741.834,122.669 749.251,122.669 751.723,123.493 752.547,124.317 753.371,125.965 753.371,127.613 752.547,129.261 751.723,130.085 749.251,130.909 " />
<polyline points="741.834,130.909 749.251,130.909 751.723,131.733 752.547,132.557 753.371,134.206 753.371,136.678 752.547,138.326 751.723,139.15 749.251,139.974 741.834,139.974 " />
<polyline points="759.14,122.669 759.14,139.974 " />
<polyline points="765.733,122.669 765.733,139.974 " />
<polyline points="765.733,122.669 777.27,139.974 " />
<polyline points="777.27,122.669 777.27,139.974 " />
<polyline points="795.399,126.789 794.575,125.141 792.927,123.493 791.279,122.669 787.982,122.669 786.334,123.493 784.686,125.141 783.862,126.789 783.038,129.261 783.038,133.381 783.862,135.854 784.686,137.502 786.334,139.15 787.982,139.974 791.279,139.974 792.927,139.15 794.575,137.502 795.399,135.854 795.399,133.381 " />
<polyline points="791.279,133.381 795.399,133.381 " />
<polyline points="818.473,122.669 818.473,139.974 " />
<polyline points="818.473,122.669 825.066,139.974 " />
<polyline points="831.658,122.669 825.066,139.974 " />
<polyline points="831.658,122.669 831.658,139.974 " />
<polyline points="842.371,122.669 835.779,139.974 " />
<polyline points="842.371,122.669 848.964,139.974 " />
<polyline points="838.251,134.206 846.492,134.206 " />
<polyline points="856.38,122.669 856.38,139.974 " />
<polyline points="850.612,122.669 862.149,122.669 " />
<polyline points="866.269,122.669 866.269,139.974 " />
<polyline points="866.269,122.669 876.982,122.669 " />
<polyline points="866.269,130.909 872.862,130.909 " />
<polyline points="866.269,139.974 876.982,139.974 " />
<polyline points="881.927,122.669 881.927,139.974 " />
<polyline points="881.927,122.669 889.343,122.669 891.816,123.493 892.64,124.317 893.464,125.965 893.464,127.613 892.64,129.261 891.816,130.085 889.343,130.909 881.927,130.909 " />
<polyline points="887.695,130.909 893.464,139.974 " />
<polyline points="899.232,122.669 899.232,139.974 " />
<polyline points="909.945,122.669 903.353,139.974 " />
<polyline points="909.945,122.669 916.538,139.974 " />
<polyline points="905.825,134.206 914.066,134.206 " />
<polyline points="920.658,122.669 920.658,139.974 930.547,139.974 " />
<polyline points="908.809,625.993 907.601,623.576 905.183,621.159 902.766,619.95 897.931,619.95 895.514,621.159 893.097,623.576 891.888,625.993 890.68,629.619 890.68,635.662 891.888,639.288 893.097,641.706 895.514,644.123 897.931,645.331 902.766,645.331 905.183,644.123 907.601,641.706 908.809,639.288 " />
<polyline points="917.27,619.95 917.27,645.331 " />
<polyline points="917.27,619.95 925.73,619.95 929.356,621.159 931.773,623.576 932.982,625.993 934.191,629.619 934.191,635.662 932.982,639.288 931.773,641.706 929.356,644.123 925.73,645.331 917.27,645.331 " />
<polyline points="947.486,619.95 943.86,621.159 942.651,623.576 942.651,625.993 943.86,628.411 946.277,629.619 951.112,630.828 954.737,632.036 957.155,634.454 958.363,636.871 958.363,640.497 957.155,642.914 955.946,644.123 952.32,645.331 947.486,645.331 943.86,644.123 942.651,642.914 941.442,640.497 941.442,636.871 942.651,634.454 945.068,632.036 948.694,630.828 953.529,629.619 955.946,628.411 957.155,625.993 957.155,623.576 955.946,621.159 952.32,619.95 947.486,619.95 " />
<polyline points="966.824,634.454 988.579,634.454 " />
<polyline points="1011.54,619.95 999.457,619.95 998.248,630.828 999.457,629.619 1003.08,628.411 1006.71,628.411 1010.33,629.619 1012.75,632.036 1013.96,635.662 1013.96,638.08 1012.75,641.706 1010.33,644.123 1006.71,645.331 1003.08,645.331 999.457,644.123 998.248,642.914 997.04,640.497 " />
</g>
</svg>
