<?xml version="1.0" standalone="no"?>
<svg viewBox="0 0 1024 768" version="1.1" xmlns="http://www.w3.org/2000/svg" xmlns:xlink="http://www.w3.org/1999/xlink" stroke-linecap="round" stroke-linejoin="round" fill-rule="evenodd" xml:space="preserve" >
<defs >
<clipPath id="clipId0" >
<path d="M0,768 1024,768 1024,0 0,0 z" />
</clipPath>
</defs>
<g clip-path="url(#clipId0)" fill="none" stroke="rgb(0,0,0)" stroke-width="0.1" />
<g clip-path="url(#clipId0)" fill="none" stroke="rgb(0,0,0)" stroke-width="0.25" >
<polyline points="166.274,296.947 903.517,296.947 " stroke-dasharray="142.863439,28.572688,28.572688,28.572688" />
<polyline points="195.054,211.229 874.944,211.229 " />
<polyline points="195.054,382.665 874.944,382.665 " />
<polyline points="874.944,382.665 874.393,382.65 873.844,382.603 873.299,382.526 872.759,382.417 872.226,382.279 871.701,382.111 871.187,381.913 870.684,381.686 870.196,381.432 869.722,381.15 869.265,380.843 868.827,380.509 868.407,380.152 868.407,380.152 867.701,379.494 867.016,378.815 866.352,378.115 865.711,377.394 865.092,376.654 864.497,375.894 863.926,375.117 863.38,374.322 862.858,373.51 862.362,372.682 861.893,371.84 861.449,370.983 861.033,370.112 861.033,370.112 860.482,368.871 859.96,367.616 859.469,366.349 859.009,365.071 858.58,363.782 858.182,362.482 857.816,361.174 857.482,359.857 857.18,358.532 856.91,357.201 856.91,357.201 856.6,355.479 856.321,353.752 856.076,352.019 855.862,350.283 855.682,348.542 855.534,346.799 855.419,345.053 855.337,343.305 855.288,341.556 855.271,339.806 855.271,339.806 855.288,338.057 855.337,336.308 855.419,334.56 855.534,332.814 855.682,331.07 855.862,329.33 856.076,327.593 856.321,325.861 856.6,324.134 856.91,322.412 856.91,322.412 857.18,321.08 857.482,319.755 857.816,318.439 858.182,317.13 858.58,315.831 859.009,314.542 859.469,313.263 859.96,311.997 860.482,310.742 861.033,309.5 861.033,309.5 861.449,308.63 861.893,307.773 862.362,306.93 862.858,306.103 863.38,305.291 863.926,304.496 864.497,303.718 865.092,302.959 865.711,302.218 866.352,301.498 867.016,300.797 867.701,300.118 868.407,299.461 868.407,299.461 868.827,299.103 869.265,298.77 869.722,298.462 870.196,298.181 870.684,297.926 871.187,297.7 871.701,297.502 872.226,297.334 872.759,297.195 873.299,297.087 873.844,297.009 874.393,296.963 874.944,296.947 874.944,296.947 875.495,296.963 876.044,297.009 876.589,297.087 877.13,297.195 877.663,297.334 878.187,297.502 878.702,297.7 879.204,297.926 879.693,298.181 880.166,298.462 880.623,298.77 881.062,299.103 881.481,299.461 881.481,299.461 882.187,300.118 882.872,300.797 883.536,301.498 884.177,302.218 884.796,302.959 885.391,303.718 885.962,304.496 886.509,305.291 887.03,306.103 887.526,306.93 887.996,307.773 888.439,308.63 888.855,309.5 888.855,309.5 889.407,310.742 889.928,311.997 890.419,313.263 890.879,314.542 891.308,315.831 891.706,317.13 892.072,318.439 892.406,319.755 892.708,321.08 892.978,322.412 892.978,322.412 893.289,324.134 893.567,325.861 893.813,327.593 894.026,329.33 894.206,331.07 894.354,332.814 894.469,334.56 894.551,336.308 894.601,338.057 894.617,339.806 894.617,339.806 894.601,341.556 894.551,343.305 894.469,345.053 894.354,346.799 894.206,348.542 894.026,350.283 893.813,352.019 893.567,353.752 893.289,355.479 892.978,357.201 892.978,357.201 892.708,358.532 892.406,359.857 892.072,361.174 891.706,362.482 891.308,363.782 890.879,365.071 890.419,366.349 889.928,367.616 889.407,368.871 888.855,370.112 888.855,370.112 888.439,370.983 887.996,371.84 887.526,372.682 887.03,373.51 886.509,374.322 885.962,375.117 885.391,375.894 884.796,376.654 884.177,377.394 883.536,378.115 882.872,378.815 882.187,379.494 881.481,380.152 881.481,380.152 881.062,380.509 880.623,380.843 880.166,381.15 879.693,381.432 879.204,381.686 878.702,381.913 878.187,382.111 877.663,382.279 877.13,382.417 876.589,382.526 876.044,382.603 875.495,382.65 874.944,382.665 " />
<polyline points="874.944,296.947 875.495,296.932 876.044,296.885 876.589,296.808 877.13,296.699 877.663,296.561 878.187,296.393 878.702,296.195 879.204,295.968 879.693,295.714 880.166,295.432 880.623,295.124 881.062,294.791 881.481,294.434 881.481,294.434 882.187,293.776 882.872,293.097 883.536,292.397 884.177,291.676 884.796,290.936 885.391,290.176 885.962,289.399 886.509,288.604 887.03,287.792 887.526,286.964 887.996,286.122 888.439,285.265 888.855,284.394 888.855,284.394 889.407,283.153 889.928,281.898 890.419,280.631 890.879,279.353 891.308,278.064 891.706,276.764 892.072,275.456 892.406,274.139 892.708,272.814 892.978,271.483 892.978,271.483 893.289,269.761 893.567,268.033 893.813,266.301 894.026,264.564 894.206,262.824 894.354,261.081 894.469,259.335 894.551,257.587 894.601,255.838 894.617,254.088 894.617,254.088 894.601,252.339 894.551,250.59 894.469,248.842 894.354,247.096 894.206,245.352 894.026,243.612 893.813,241.875 893.567,240.143 893.289,238.416 892.978,236.694 892.978,236.694 892.708,235.362 892.406,234.037 892.072,232.72 891.706,231.412 891.308,230.113 890.879,228.824 890.419,227.545 889.928,226.278 889.407,225.024 888.855,223.782 888.855,223.782 888.439,222.912 887.996,222.055 887.526,221.212 887.03,220.384 886.509,219.573 885.962,218.778 885.391,218 884.796,217.241 884.177,216.5 883.536,215.78 882.872,215.079 882.187,214.4 881.481,213.743 881.481,213.743 881.062,213.385 880.623,213.052 880.166,212.744 879.693,212.463 879.204,212.208 878.702,211.982 878.187,211.784 877.663,211.616 877.13,211.477 876.589,211.369 876.044,211.291 875.495,211.245 874.944,211.229 " />
<polyline points="874.944,179.121 874.944,414.774 " stroke-dasharray="142.863439,28.572688,28.572688,28.572688" />
<polyline points="128.998,296.947 72.6914,296.947 " />
</g>
<g clip-path="url(#clipId0)" fill="rgb(0,0,0)" stroke="rgb(0,0,0)" stroke-width="0.25" >
<path d="M128.998,294.09 128.998,299.805 146.142,296.947 146.142,296.947 z" />
</g>
<g clip-path="url(#clipId0)" fill="none" stroke="rgb(0,0,0)" stroke-width="0.25" >
<polyline points="195.054,414.774 195.054,179.121 " stroke-dasharray="142.863439,28.572688,28.572688,28.572688" />
<polyline points="195.054,296.947 194.503,296.963 193.954,297.009 193.409,297.087 192.869,297.195 192.335,297.334 191.811,297.502 191.296,297.7 190.794,297.926 190.306,298.181 189.832,298.462 189.375,298.77 188.936,299.103 188.517,299.461 188.517,299.461 187.811,300.118 187.126,300.797 186.462,301.498 185.821,302.218 185.202,302.959 184.607,303.718 184.036,304.496 183.489,305.291 182.968,306.103 182.472,306.93 182.002,307.773 181.559,308.63 181.143,309.5 181.143,309.5 180.591,310.742 180.07,311.997 179.579,313.263 179.119,314.542 178.69,315.831 178.292,317.13 177.926,318.439 177.592,319.755 177.29,321.08 177.02,322.412 177.02,322.412 176.709,324.134 176.431,325.861 176.185,327.593 175.972,329.33 175.792,331.07 175.644,332.814 175.529,334.56 175.447,336.308 175.397,338.057 175.381,339.806 175.381,339.806 175.397,341.556 175.447,343.305 175.529,345.053 175.644,346.799 175.792,348.542 175.972,350.283 176.185,352.019 176.431,353.752 176.709,355.479 177.02,357.201 177.02,357.201 177.29,358.532 177.592,359.857 177.926,361.174 178.292,362.482 178.69,363.782 179.119,365.071 179.579,366.349 180.07,367.616 180.591,368.871 181.143,370.112 181.143,370.112 181.559,370.983 182.002,371.84 182.472,372.682 182.968,373.51 183.489,374.322 184.036,375.117 184.607,375.894 185.202,376.654 185.821,377.394 186.462,378.115 187.126,378.815 187.811,379.494 188.517,380.152 188.517,380.152 188.936,380.509 189.375,380.843 189.832,381.15 190.306,381.432 190.794,381.686 191.296,381.913 191.811,382.111 192.335,382.279 192.869,382.417 193.409,382.526 193.954,382.603 194.503,382.65 195.054,382.665 " />
<polyline points="195.054,211.229 195.605,211.245 196.154,211.291 196.699,211.369 197.239,211.477 197.773,211.616 198.297,211.784 198.811,211.982 199.314,212.208 199.802,212.463 200.276,212.744 200.733,213.052 201.172,213.385 201.591,213.743 201.591,213.743 202.297,214.4 202.982,215.079 203.646,215.78 204.287,216.5 204.906,217.241 205.501,218 206.072,218.778 206.619,219.573 207.14,220.384 207.636,221.212 208.105,222.055 208.549,222.912 208.965,223.782 208.965,223.782 209.517,225.024 210.038,226.278 210.529,227.545 210.989,228.824 211.418,230.113 211.816,231.412 212.182,232.72 212.516,234.037 212.818,235.362 213.088,236.694 213.088,236.694 213.399,238.416 213.677,240.143 213.923,241.875 214.136,243.612 214.316,245.352 214.464,247.096 214.579,248.842 214.661,250.59 214.71,252.339 214.727,254.088 214.727,254.088 214.71,255.838 214.661,257.587 214.579,259.335 214.464,261.081 214.316,262.824 214.136,264.564 213.923,266.301 213.677,268.033 213.399,269.761 213.088,271.483 213.088,271.483 212.818,272.814 212.516,274.139 212.182,275.456 211.816,276.764 211.418,278.064 210.989,279.353 210.529,280.631 210.038,281.898 209.517,283.153 208.965,284.394 208.965,284.394 208.549,285.265 208.105,286.122 207.636,286.964 207.14,287.792 206.619,288.604 206.072,289.399 205.501,290.176 204.906,290.936 204.287,291.676 203.646,292.397 202.982,293.097 202.297,293.776 201.591,294.434 201.591,294.434 201.172,294.791 200.733,295.124 200.276,295.432 199.802,295.714 199.314,295.968 198.811,296.195 198.297,296.393 197.773,296.561 197.239,296.699 196.699,296.808 196.154,296.885 195.605,296.932 195.054,296.947 195.054,296.947 194.503,296.932 193.954,296.885 193.409,296.808 192.869,296.699 192.335,296.561 191.811,296.393 191.296,296.195 190.794,295.968 190.306,295.714 189.832,295.432 189.375,295.124 188.936,294.791 188.517,294.434 188.517,294.434 187.811,293.776 187.126,293.097 186.462,292.397 185.821,291.676 185.202,290.936 184.607,290.176 184.036,289.399 183.489,288.604 182.968,287.792 182.472,286.964 182.002,286.122 181.559,285.265 181.143,284.394 181.143,284.394 180.591,283.153 180.07,281.898 179.579,280.631 179.119,279.353 178.69,278.064 178.292,276.764 177.926,275.456 177.592,274.139 177.29,272.814 177.02,271.483 177.02,271.483 176.709,269.761 176.431,268.033 176.185,266.301 175.972,264.564 175.792,262.824 175.644,261.081 175.529,259.335 175.447,257.587 175.397,255.838 175.381,254.088 175.381,254.088 175.397,252.339 175.447,250.59 175.529,248.842 175.644,247.096 175.792,245.352 175.972,243.612 176.185,241.875 176.431,240.143 176.709,238.416 177.02,236.694 177.02,236.694 177.29,235.362 177.592,234.037 177.926,232.72 178.292,231.412 178.69,230.113 179.119,228.824 179.579,227.545 180.07,226.278 180.591,225.024 181.143,223.782 181.143,223.782 181.559,222.912 182.002,222.055 182.472,221.212 182.968,220.384 183.489,219.573 184.036,218.778 184.607,218 185.202,217.241 185.821,216.5 186.462,215.78 187.126,215.079 187.811,214.4 188.517,213.743 188.517,213.743 188.936,213.385 189.375,213.052 189.832,212.744 190.306,212.463 190.794,212.208 191.296,211.982 191.811,211.784 192.335,211.616 192.869,211.477 193.409,211.369 193.954,211.291 194.503,211.245 195.054,211.229 " />
<polyline points="305.506,382.665 305.506,211.229 " />
<polyline points="764.492,382.665 764.492,211.229 " />
<polyline points="334.079,308.376 334.079,285.518 " stroke-dasharray="28.572688,14.286344" />
<polyline points="735.919,325.52 735.919,268.375 " stroke-dasharray="28.572688,14.286344" />
<polyline points="351.222,268.375 735.919,268.375 " stroke-dasharray="28.572688,14.286344" />
<polyline points="351.222,325.52 735.919,325.52 " stroke-dasharray="28.572688,14.286344" />
<path d="M351.222,268.375  A17.1436,17.1436 0 0,0 334.079,285.518 " stroke-dasharray="28.572688,14.286344" />
<path d="M334.079,308.376  A17.1436,17.1436 0 0,0 351.222,325.52 " stroke-dasharray="28.572688,14.286344" />
<polyline points="496.901,325.52 554.046,268.375 " />
<polyline points="476.697,325.52 533.842,268.375 " />
<polyline points="456.493,325.52 513.638,268.375 " />
<polyline points="436.289,325.52 493.434,268.375 " />
<polyline points="416.085,325.52 473.23,268.375 " />
<polyline points="395.881,325.52 453.027,268.375 " />
<polyline points="375.677,325.52 432.823,268.375 " />
<polyline points="355.473,325.52 412.619,268.375 " />
<polyline points="339.71,321.079 392.415,268.375 " />
<polyline points="334.079,306.507 372.211,268.375 " />
<polyline points="334.079,286.303 352.007,268.375 " />
<polyline points="517.105,325.52 574.25,268.375 " />
<polyline points="537.309,325.52 594.454,268.375 " />
<polyline points="557.513,325.52 614.658,268.375 " />
<polyline points="577.717,325.52 634.862,268.375 " />
<polyline points="597.921,325.52 655.066,268.375 " />
<polyline points="618.125,325.52 675.27,268.375 " />
<polyline points="638.328,325.52 695.474,268.375 " />
<polyline points="658.532,325.52 715.678,268.375 " />
<polyline points="678.736,325.52 735.882,268.375 " />
<polyline points="698.94,325.52 735.919,288.541 " />
<polyline points="719.144,325.52 735.919,308.745 " />
<polyline points="546.195,325.52 489.049,268.375 " />
<polyline points="525.991,325.52 468.845,268.375 " />
<polyline points="505.787,325.52 448.641,268.375 " />
<polyline points="485.583,325.52 428.437,268.375 " />
<polyline points="465.379,325.52 408.233,268.375 " />
<polyline points="445.175,325.52 388.029,268.375 " />
<polyline points="424.971,325.52 367.825,268.375 " />
<polyline points="404.767,325.52 347.939,268.692 " />
<polyline points="384.563,325.52 336.236,277.193 " />
<polyline points="364.359,325.52 334.079,295.24 " />
<polyline points="339.758,321.123 338.475,319.84 " />
<polyline points="566.398,325.52 509.253,268.375 " />
<polyline points="586.602,325.52 529.457,268.375 " />
<polyline points="606.806,325.52 549.661,268.375 " />
<polyline points="627.01,325.52 569.865,268.375 " />
<polyline points="647.214,325.52 590.069,268.375 " />
<polyline points="667.418,325.52 610.273,268.375 " />
<polyline points="687.622,325.52 630.477,268.375 " />
<polyline points="707.826,325.52 650.681,268.375 " />
<polyline points="728.03,325.52 670.885,268.375 " />
<polyline points="735.919,313.205 691.089,268.375 " />
<polyline points="735.919,293.002 711.293,268.375 " />
<polyline points="735.919,272.798 731.496,268.375 " />
<polyline points="68.905,268.648 67.2723,269.464 65.6396,271.097 64.8232,272.73 64.0069,275.179 64.0069,279.261 64.8232,281.71 65.6396,283.343 67.2723,284.975 68.905,285.792 72.1705,285.792 73.8032,284.975 75.4359,283.343 76.2523,281.71 77.0687,279.261 77.0687,275.179 76.2523,272.73 75.4359,271.097 73.8032,269.464 72.1705,268.648 68.905,268.648 " />
<polyline points="71.3541,282.526 76.2523,287.424 " />
<polyline points="69.7899,310.435 63.259,327.579 " />
<polyline points="69.7899,310.435 76.3208,327.579 " />
<polyline points="65.7081,321.864 73.8717,321.864 " />
<polyline points="84.618,321.926 83.1486,322.415 82.169,323.885 81.6791,326.334 81.6791,327.803 82.169,330.252 83.1486,331.722 84.618,332.212 85.5977,332.212 87.0671,331.722 88.0468,330.252 88.5366,327.803 88.5366,326.334 88.0468,323.885 87.0671,322.415 85.5977,321.926 84.618,321.926 " />
<polyline points="893.828,211.229 1013.93,211.229 " />
<polyline points="893.828,382.665 1013.93,382.665 " />
<polyline points="993.36,228.373 993.36,278.089 " />
<polyline points="993.36,365.522 993.36,315.805 " />
</g>
<g clip-path="url(#clipId0)" fill="rgb(0,0,0)" stroke="rgb(0,0,0)" stroke-width="0.25" >
<path d="M990.503,228.373 996.217,228.373 993.36,211.229 993.36,211.229 z" />
<path d="M990.503,365.522 996.217,365.522 993.36,382.665 993.36,382.665 z" />
</g>
<g clip-path="url(#clipId0)" fill="none" stroke="rgb(0,0,0)" stroke-width="0.25" >
<polyline points="987.646,288.375 987.646,305.519 " />
<polyline points="987.646,288.375 993.36,288.375 995.809,289.192 997.442,290.825 998.258,292.457 999.075,294.906 999.075,298.988 998.258,301.437 997.442,303.07 995.809,304.703 993.36,305.519 987.646,305.519 " />
<polyline points="72.6914,296.947 10.0392,296.947 " />
</g>
<g clip-path="url(#clipId0)" fill="rgb(0,0,0)" stroke="rgb(0,0,0)" stroke-width="0.25" >
<path d="M429.098,252.08 423.677,250.272 420.962,267.439 420.962,267.439 z" />
</g>
<g clip-path="url(#clipId0)" fill="none" stroke="rgb(0,0,0)" stroke-width="0.25" >
<polyline points="426.387,251.176 463.229,121.953 " />
<polyline points="463.229,121.953 491.406,121.953 " />
<polyline points="515.571,115.83 513.938,114.197 511.489,113.381 508.224,113.381 505.774,114.197 504.142,115.83 504.142,117.463 504.958,119.095 505.774,119.912 507.407,120.728 512.305,122.361 513.938,123.177 514.754,123.993 515.571,125.626 515.571,128.075 513.938,129.708 511.489,130.524 508.224,130.524 505.774,129.708 504.142,128.075 " />
<polyline points="525.367,113.381 523.734,114.197 522.102,115.83 521.285,117.463 520.469,119.912 520.469,123.993 521.285,126.443 522.102,128.075 523.734,129.708 525.367,130.524 528.633,130.524 530.265,129.708 531.898,128.075 532.714,126.443 533.531,123.993 533.531,119.912 532.714,117.463 531.898,115.83 530.265,114.197 528.633,113.381 525.367,113.381 " />
<polyline points="539.245,113.381 539.245,125.626 540.062,128.075 541.694,129.708 544.143,130.524 545.776,130.524 548.225,129.708 549.858,128.075 550.674,125.626 550.674,113.381 " />
<polyline points="557.205,113.381 557.205,130.524 " />
<polyline points="557.205,113.381 568.634,130.524 " />
<polyline points="568.634,113.381 568.634,130.524 " />
<polyline points="575.165,113.381 575.165,130.524 " />
<polyline points="575.165,113.381 580.88,113.381 583.329,114.197 584.962,115.83 585.778,117.463 586.594,119.912 586.594,123.993 585.778,126.443 584.962,128.075 583.329,129.708 580.88,130.524 575.165,130.524 " />
<polyline points="613.534,113.381 607.003,130.524 " />
<polyline points="613.534,113.381 620.065,130.524 " />
<polyline points="609.452,124.81 617.616,124.81 " />
<polyline points="624.147,113.381 624.147,130.524 " />
<polyline points="624.147,113.381 631.494,113.381 633.943,114.197 634.76,115.013 635.576,116.646 635.576,118.279 634.76,119.912 633.943,120.728 631.494,121.544 " />
<polyline points="624.147,121.544 631.494,121.544 633.943,122.361 634.76,123.177 635.576,124.81 635.576,127.259 634.76,128.892 633.943,129.708 631.494,130.524 624.147,130.524 " />
<polyline points="651.903,115.83 650.271,114.197 647.822,113.381 644.556,113.381 642.107,114.197 640.474,115.83 640.474,117.463 641.291,119.095 642.107,119.912 643.74,120.728 648.638,122.361 650.271,123.177 651.087,123.993 651.903,125.626 651.903,128.075 650.271,129.708 647.822,130.524 644.556,130.524 642.107,129.708 640.474,128.075 " />
<polyline points="661.7,113.381 660.067,114.197 658.434,115.83 657.618,117.463 656.802,119.912 656.802,123.993 657.618,126.443 658.434,128.075 660.067,129.708 661.7,130.524 664.965,130.524 666.598,129.708 668.231,128.075 669.047,126.443 669.863,123.993 669.863,119.912 669.047,117.463 668.231,115.83 666.598,114.197 664.965,113.381 661.7,113.381 " />
<polyline points="675.578,113.381 675.578,130.524 " />
<polyline points="675.578,113.381 682.925,113.381 685.374,114.197 686.191,115.013 687.007,116.646 687.007,118.279 686.191,119.912 685.374,120.728 682.925,121.544 675.578,121.544 " />
<polyline points="681.292,121.544 687.007,130.524 " />
<polyline points="692.721,113.381 692.721,130.524 " />
<polyline points="692.721,113.381 700.069,113.381 702.518,114.197 703.334,115.013 704.151,116.646 704.151,118.279 703.334,119.912 702.518,120.728 700.069,121.544 " />
<polyline points="692.721,121.544 700.069,121.544 702.518,122.361 703.334,123.177 704.151,124.81 704.151,127.259 703.334,128.892 702.518,129.708 700.069,130.524 692.721,130.524 " />
<polyline points="709.865,113.381 709.865,130.524 " />
<polyline points="716.396,113.381 716.396,130.524 " />
<polyline points="716.396,113.381 727.825,130.524 " />
<polyline points="727.825,113.381 727.825,130.524 " />
<polyline points="745.785,117.463 744.969,115.83 743.336,114.197 741.703,113.381 738.438,113.381 736.805,114.197 735.172,115.83 734.356,117.463 733.54,119.912 733.54,123.993 734.356,126.443 735.172,128.075 736.805,129.708 738.438,130.524 741.703,130.524 743.336,129.708 744.969,128.075 745.785,126.443 745.785,123.993 " />
<polyline points="741.703,123.993 745.785,123.993 " />
<polyline points="768.643,113.381 768.643,130.524 " />
<polyline points="768.643,113.381 775.174,130.524 " />
<polyline points="781.705,113.381 775.174,130.524 " />
<polyline points="781.705,113.381 781.705,130.524 " />
<polyline points="792.318,113.381 785.787,130.524 " />
<polyline points="792.318,113.381 798.849,130.524 " />
<polyline points="788.236,124.81 796.4,124.81 " />
<polyline points="806.196,113.381 806.196,130.524 " />
<polyline points="800.481,113.381 811.91,113.381 " />
<polyline points="815.992,113.381 815.992,130.524 " />
<polyline points="815.992,113.381 826.605,113.381 " />
<polyline points="815.992,121.544 822.523,121.544 " />
<polyline points="815.992,130.524 826.605,130.524 " />
<polyline points="831.503,113.381 831.503,130.524 " />
<polyline points="831.503,113.381 838.85,113.381 841.299,114.197 842.116,115.013 842.932,116.646 842.932,118.279 842.116,119.912 841.299,120.728 838.85,121.544 831.503,121.544 " />
<polyline points="837.218,121.544 842.932,130.524 " />
<polyline points="848.647,113.381 848.647,130.524 " />
<polyline points="859.259,113.381 852.729,130.524 " />
<polyline points="859.259,113.381 865.79,130.524 " />
<polyline points="855.178,124.81 863.341,124.81 " />
<polyline points="869.872,113.381 869.872,130.524 879.668,130.524 " />
<polyline points="909.793,635.462 908.596,633.067 906.201,630.673 903.806,629.475 899.017,629.475 896.622,630.673 894.228,633.067 893.03,635.462 891.833,639.054 891.833,645.041 893.03,648.633 894.228,651.027 896.622,653.422 899.017,654.619 903.806,654.619 906.201,653.422 908.596,651.027 909.793,648.633 " />
<polyline points="918.174,629.475 918.174,654.619 " />
<polyline points="918.174,629.475 926.556,629.475 930.148,630.673 932.542,633.067 933.74,635.462 934.937,639.054 934.937,645.041 933.74,648.633 932.542,651.027 930.148,653.422 926.556,654.619 918.174,654.619 " />
<polyline points="948.108,629.475 944.516,630.673 943.318,633.067 943.318,635.462 944.516,637.857 946.91,639.054 951.7,640.251 955.292,641.449 957.686,643.843 958.884,646.238 958.884,649.83 957.686,652.225 956.489,653.422 952.897,654.619 948.108,654.619 944.516,653.422 943.318,652.225 942.121,649.83 942.121,646.238 943.318,643.843 945.713,641.449 949.305,640.251 954.094,639.054 956.489,637.857 957.686,635.462 957.686,633.067 956.489,630.673 952.897,629.475 948.108,629.475 " />
<polyline points="967.265,643.843 988.817,643.843 " />
<polyline points="1013.96,629.475 1001.99,654.619 " />
<polyline points="997.198,629.475 1013.96,629.475 " />
</g>
</svg>
