<?xml version="1.0" standalone="no"?>
<svg viewBox="0 0 1024 768" version="1.1" xmlns="http://www.w3.org/2000/svg" xmlns:xlink="http://www.w3.org/1999/xlink" stroke-linecap="round" stroke-linejoin="round" fill-rule="evenodd" xml:space="preserve" >
<defs >
<clipPath id="clipId0" >
<path d="M0,768 1024,768 1024,0 0,0 z" />
</clipPath>
</defs>
<g clip-path="url(#clipId0)" fill="none" stroke="rgb(0,0,0)" stroke-width="0.1" />
<g clip-path="url(#clipId0)" fill="none" stroke="rgb(0,0,0)" stroke-width="0.25" >
<polyline points="143.11,306.001 905.351,306.001 " stroke-dasharray="140.527475,28.105495,28.105495,28.105495" />
<polyline points="171.419,221.685 877.245,221.685 " />
<polyline points="171.419,390.317 877.245,390.317 " />
<polyline points="877.245,390.317 876.703,390.302 876.163,390.256 875.627,390.18 875.096,390.074 874.571,389.937 874.055,389.772 873.549,389.577 873.055,389.355 872.574,389.104 872.109,388.827 871.659,388.524 871.228,388.197 870.815,387.845 870.815,387.845 870.064,387.144 869.336,386.417 868.634,385.666 867.958,384.892 867.308,384.095 866.685,383.277 866.091,382.438 865.525,381.58 864.989,380.703 864.482,379.808 864.006,378.897 863.562,377.97 863.562,377.97 863.019,376.748 862.506,375.514 862.023,374.268 861.571,373.011 861.149,371.743 860.758,370.465 860.398,369.178 860.069,367.882 859.772,366.579 859.506,365.269 859.506,365.269 859.201,363.576 858.927,361.876 858.685,360.172 858.475,358.464 858.298,356.752 858.153,355.037 858.039,353.32 857.959,351.601 857.91,349.88 857.894,348.159 857.894,348.159 857.91,346.438 857.959,344.718 858.039,342.999 858.153,341.281 858.298,339.566 858.475,337.854 858.685,336.146 858.927,334.442 859.201,332.743 859.506,331.049 859.506,331.049 859.772,329.739 860.069,328.436 860.398,327.141 860.758,325.854 861.149,324.576 861.571,323.308 862.023,322.05 862.506,320.804 863.019,319.57 863.562,318.349 863.562,318.349 864.006,317.422 864.482,316.511 864.989,315.616 865.525,314.739 866.091,313.88 866.685,313.041 867.308,312.223 867.958,311.427 868.634,310.652 869.336,309.902 870.064,309.175 870.815,308.473 870.815,308.473 871.228,308.122 871.659,307.794 872.109,307.491 872.574,307.214 873.055,306.964 873.549,306.741 874.055,306.547 874.571,306.381 875.096,306.245 875.627,306.138 876.163,306.062 876.703,306.016 877.245,306.001 877.245,306.001 877.787,306.016 878.327,306.062 878.863,306.138 879.395,306.245 879.919,306.381 880.435,306.547 880.941,306.741 881.435,306.964 881.916,307.214 882.382,307.491 882.831,307.794 883.263,308.122 883.675,308.473 883.675,308.473 884.427,309.175 885.154,309.902 885.856,310.652 886.533,311.427 887.183,312.223 887.805,313.041 888.4,313.88 888.965,314.739 889.502,315.616 890.008,316.511 890.484,317.422 890.929,318.349 890.929,318.349 891.471,319.57 891.984,320.804 892.467,322.05 892.92,323.308 893.342,324.576 893.733,325.854 894.093,327.141 894.422,328.436 894.719,329.739 894.984,331.049 894.984,331.049 895.29,332.743 895.564,334.442 895.805,336.146 896.015,337.854 896.192,339.566 896.338,341.281 896.451,342.999 896.532,344.718 896.58,346.438 896.596,348.159 896.596,348.159 896.58,349.88 896.532,351.601 896.451,353.32 896.338,355.037 896.192,356.752 896.015,358.464 895.805,360.172 895.564,361.876 895.29,363.576 894.984,365.269 894.984,365.269 894.719,366.579 894.422,367.882 894.093,369.178 893.733,370.465 893.342,371.743 892.92,373.011 892.467,374.268 891.984,375.514 891.471,376.748 890.929,377.97 890.929,377.97 890.484,378.897 890.008,379.808 889.502,380.703 888.965,381.58 888.4,382.438 887.805,383.277 887.183,384.095 886.533,384.892 885.856,385.666 885.154,386.417 884.427,387.144 883.675,387.845 883.675,387.845 883.263,388.197 882.831,388.524 882.382,388.827 881.916,389.104 881.435,389.355 880.941,389.577 880.435,389.772 879.919,389.937 879.395,390.074 878.863,390.18 878.327,390.256 877.787,390.302 877.245,390.317 " />
<polyline points="877.245,306.001 877.787,305.986 878.327,305.94 878.863,305.864 879.395,305.757 879.919,305.621 880.435,305.455 880.941,305.261 881.435,305.038 881.916,304.788 882.382,304.511 882.831,304.208 883.263,303.88 883.675,303.529 883.675,303.529 884.427,302.827 885.154,302.1 885.856,301.35 886.533,300.575 887.183,299.779 887.805,298.961 888.4,298.122 888.965,297.263 889.502,296.386 890.008,295.491 890.484,294.58 890.929,293.653 890.929,293.653 891.471,292.432 891.984,291.198 892.467,289.952 892.92,288.694 893.342,287.426 893.733,286.148 894.093,284.861 894.422,283.566 894.719,282.263 894.984,280.953 894.984,280.953 895.29,279.259 895.564,277.56 895.805,275.856 896.015,274.148 896.192,272.436 896.338,270.721 896.451,269.003 896.532,267.284 896.58,265.564 896.596,263.843 896.596,263.843 896.58,262.122 896.532,260.401 896.451,258.682 896.338,256.965 896.192,255.25 896.015,253.538 895.805,251.83 895.564,250.126 895.29,248.426 894.984,246.733 894.984,246.733 894.719,245.423 894.422,244.12 894.093,242.824 893.733,241.537 893.342,240.259 892.92,238.991 892.467,237.734 891.984,236.488 891.471,235.254 890.929,234.032 890.929,234.032 890.484,233.105 890.008,232.194 889.502,231.299 888.965,230.422 888.4,229.564 887.805,228.725 887.183,227.907 886.533,227.11 885.856,226.336 885.154,225.585 884.427,224.858 883.675,224.157 883.675,224.157 883.263,223.805 882.831,223.478 882.382,223.175 881.916,222.898 881.435,222.647 880.941,222.425 880.435,222.23 879.919,222.065 879.395,221.928 878.863,221.822 878.327,221.746 877.787,221.7 877.245,221.685 " />
<polyline points="877.245,190.101 877.245,421.901 " stroke-dasharray="140.527475,28.105495,28.105495,28.105495" />
<polyline points="101.824,306.001 46.4378,306.001 " />
</g>
<g clip-path="url(#clipId0)" fill="rgb(0,0,0)" stroke="rgb(0,0,0)" stroke-width="0.25" >
<path d="M101.824,303.19 101.824,308.812 118.687,306.001 118.687,306.001 z" />
</g>
<g clip-path="url(#clipId0)" fill="none" stroke="rgb(0,0,0)" stroke-width="0.25" >
<polyline points="171.419,421.901 171.419,190.101 " stroke-dasharray="140.527475,28.105495,28.105495,28.105495" />
<polyline points="171.419,306.001 170.877,306.016 170.337,306.062 169.801,306.138 169.269,306.245 168.745,306.381 168.229,306.547 167.723,306.741 167.229,306.964 166.748,307.214 166.283,307.491 165.833,307.794 165.401,308.122 164.989,308.473 164.989,308.473 164.238,309.175 163.51,309.902 162.808,310.652 162.131,311.427 161.482,312.223 160.859,313.041 160.265,313.88 159.699,314.739 159.162,315.616 158.656,316.511 158.18,317.422 157.736,318.349 157.736,318.349 157.193,319.57 156.68,320.804 156.197,322.05 155.744,323.308 155.323,324.576 154.931,325.854 154.571,327.141 154.243,328.436 153.946,329.739 153.68,331.049 153.68,331.049 153.374,332.743 153.101,334.442 152.859,336.146 152.649,337.854 152.472,339.566 152.326,341.281 152.213,342.999 152.133,344.718 152.084,346.438 152.068,348.159 152.068,348.159 152.084,349.88 152.133,351.601 152.213,353.32 152.326,355.037 152.472,356.752 152.649,358.464 152.859,360.172 153.101,361.876 153.374,363.576 153.68,365.269 153.68,365.269 153.946,366.579 154.243,367.882 154.571,369.178 154.931,370.465 155.323,371.743 155.744,373.011 156.197,374.268 156.68,375.514 157.193,376.748 157.736,377.97 157.736,377.97 158.18,378.897 158.656,379.808 159.162,380.703 159.699,381.58 160.265,382.438 160.859,383.277 161.482,384.095 162.131,384.892 162.808,385.666 163.51,386.417 164.238,387.144 164.989,387.845 164.989,387.845 165.401,388.197 165.833,388.524 166.283,388.827 166.748,389.104 167.229,389.355 167.723,389.577 168.229,389.772 168.745,389.937 169.269,390.074 169.801,390.18 170.337,390.256 170.877,390.302 171.419,390.317 " />
<polyline points="171.419,221.685 171.961,221.7 172.501,221.746 173.037,221.822 173.569,221.928 174.093,222.065 174.609,222.23 175.115,222.425 175.609,222.647 176.09,222.898 176.556,223.175 177.005,223.478 177.437,223.805 177.849,224.157 177.849,224.157 178.601,224.858 179.328,225.585 180.03,226.336 180.707,227.11 181.357,227.907 181.979,228.725 182.574,229.564 183.139,230.422 183.676,231.299 184.182,232.194 184.658,233.105 185.102,234.032 185.102,234.032 185.645,235.254 186.158,236.488 186.641,237.734 187.094,238.991 187.516,240.259 187.907,241.537 188.267,242.824 188.595,244.12 188.893,245.423 189.158,246.733 189.158,246.733 189.464,248.426 189.737,250.126 189.979,251.83 190.189,253.538 190.366,255.25 190.512,256.965 190.625,258.682 190.706,260.401 190.754,262.122 190.77,263.843 190.77,263.843 190.754,265.564 190.706,267.284 190.625,269.003 190.512,270.721 190.366,272.436 190.189,274.148 189.979,275.856 189.737,277.56 189.464,279.259 189.158,280.953 189.158,280.953 188.893,282.263 188.595,283.566 188.267,284.861 187.907,286.148 187.516,287.426 187.094,288.694 186.641,289.952 186.158,291.198 185.645,292.432 185.102,293.653 185.102,293.653 184.658,294.58 184.182,295.491 183.676,296.386 183.139,297.263 182.574,298.122 181.979,298.961 181.357,299.779 180.707,300.575 180.03,301.35 179.328,302.1 178.601,302.827 177.849,303.529 177.849,303.529 177.437,303.88 177.005,304.208 176.556,304.511 176.09,304.788 175.609,305.038 175.115,305.261 174.609,305.455 174.093,305.621 173.569,305.757 173.037,305.864 172.501,305.94 171.961,305.986 171.419,306.001 171.419,306.001 170.877,305.986 170.337,305.94 169.801,305.864 169.269,305.757 168.745,305.621 168.229,305.455 167.723,305.261 167.229,305.038 166.748,304.788 166.283,304.511 165.833,304.208 165.401,303.88 164.989,303.529 164.989,303.529 164.238,302.827 163.51,302.1 162.808,301.35 162.131,300.575 161.482,299.779 160.859,298.961 160.265,298.122 159.699,297.263 159.162,296.386 158.656,295.491 158.18,294.58 157.736,293.653 157.736,293.653 157.193,292.432 156.68,291.198 156.197,289.952 155.744,288.694 155.323,287.426 154.931,286.148 154.571,284.861 154.243,283.566 153.946,282.263 153.68,280.953 153.68,280.953 153.374,279.259 153.101,277.56 152.859,275.856 152.649,274.148 152.472,272.436 152.326,270.721 152.213,269.003 152.133,267.284 152.084,265.564 152.068,263.843 152.068,263.843 152.084,262.122 152.133,260.401 152.213,258.682 152.326,256.965 152.472,255.25 152.649,253.538 152.859,251.83 153.101,250.126 153.374,248.426 153.68,246.733 153.68,246.733 153.946,245.423 154.243,244.12 154.571,242.824 154.931,241.537 155.323,240.259 155.744,238.991 156.197,237.734 156.68,236.488 157.193,235.254 157.736,234.032 157.736,234.032 158.18,233.105 158.656,232.194 159.162,231.299 159.699,230.422 160.265,229.564 160.859,228.725 161.482,227.907 162.131,227.11 162.808,226.336 163.51,225.585 164.238,224.858 164.989,224.157 164.989,224.157 165.401,223.805 165.833,223.478 166.283,223.175 166.748,222.898 167.229,222.647 167.723,222.425 168.229,222.23 168.745,222.065 169.269,221.928 169.801,221.822 170.337,221.746 170.877,221.7 171.419,221.685 " />
<polyline points="280.065,390.317 280.065,221.685 " />
<polyline points="731.546,390.317 731.546,221.685 " />
<polyline points="308.171,317.243 308.171,294.759 " stroke-dasharray="28.105495,14.052748" />
<polyline points="703.441,334.106 703.441,277.896 " />
<polyline points="325.034,277.896 703.441,277.896 " stroke-dasharray="28.105495,14.052748" />
<polyline points="325.034,334.106 703.441,334.106 " stroke-dasharray="28.105495,14.052748" />
<path d="M325.034,277.896  A16.8633,16.8633 0 0,0 308.171,294.759 " stroke-dasharray="28.105495,14.052748" />
<path d="M308.171,317.243  A16.8633,16.8633 0 0,0 325.034,334.106 " stroke-dasharray="28.105495,14.052748" />
<polyline points="468.331,334.106 524.542,277.896 " />
<polyline points="448.457,334.106 504.668,277.896 " />
<polyline points="428.583,334.106 484.794,277.896 " />
<polyline points="408.71,334.106 464.921,277.896 " />
<polyline points="388.836,334.106 445.047,277.896 " />
<polyline points="368.963,334.106 425.174,277.896 " />
<polyline points="349.089,334.106 405.3,277.896 " />
<polyline points="329.215,334.106 385.426,277.896 " />
<polyline points="313.71,329.739 365.553,277.896 " />
<polyline points="308.171,315.404 345.679,277.896 " />
<polyline points="308.171,295.531 325.806,277.896 " />
<polyline points="488.204,334.106 544.415,277.896 " />
<polyline points="508.078,334.106 564.289,277.896 " />
<polyline points="527.951,334.106 584.162,277.896 " />
<polyline points="547.825,334.106 604.036,277.896 " />
<polyline points="567.698,334.106 623.909,277.896 " />
<polyline points="587.572,334.106 643.783,277.896 " />
<polyline points="607.446,334.106 663.657,277.896 " />
<polyline points="627.319,334.106 683.53,277.896 " />
<polyline points="647.193,334.106 703.404,277.896 " />
<polyline points="667.066,334.106 703.441,297.732 " />
<polyline points="686.94,334.106 703.441,317.606 " />
<polyline points="516.818,334.106 460.607,277.896 " />
<polyline points="496.945,334.106 440.734,277.896 " />
<polyline points="477.071,334.106 420.86,277.896 " />
<polyline points="457.197,334.106 400.986,277.896 " />
<polyline points="437.324,334.106 381.113,277.896 " />
<polyline points="417.45,334.106 361.239,277.896 " />
<polyline points="397.577,334.106 341.366,277.896 " />
<polyline points="377.703,334.106 321.804,278.208 " />
<polyline points="357.829,334.106 310.293,286.57 " />
<polyline points="337.956,334.106 308.171,304.321 " />
<polyline points="313.757,329.782 312.495,328.52 " />
<polyline points="536.692,334.106 480.481,277.896 " />
<polyline points="556.565,334.106 500.354,277.896 " />
<polyline points="576.439,334.106 520.228,277.896 " />
<polyline points="596.313,334.106 540.102,277.896 " />
<polyline points="616.186,334.106 559.975,277.896 " />
<polyline points="636.06,334.106 579.849,277.896 " />
<polyline points="655.933,334.106 599.722,277.896 " />
<polyline points="675.807,334.106 619.596,277.896 " />
<polyline points="695.68,334.106 639.469,277.896 " />
<polyline points="703.441,321.993 659.343,277.896 " />
<polyline points="703.441,302.12 679.217,277.896 " />
<polyline points="703.441,282.246 699.09,277.896 " />
<polyline points="47.3329,278.164 45.7268,278.967 44.1208,280.573 43.3178,282.18 42.5148,284.589 42.5148,288.604 43.3178,291.013 44.1208,292.619 45.7268,294.225 47.3329,295.028 50.5449,295.028 52.151,294.225 53.757,292.619 54.56,291.013 55.363,288.604 55.363,284.589 54.56,282.18 53.757,280.573 52.151,278.967 50.5449,278.164 47.3329,278.164 " />
<polyline points="49.7419,291.816 54.56,296.634 " />
<polyline points="48.2033,319.268 41.7792,336.132 " />
<polyline points="48.2033,319.268 54.6274,336.132 " />
<polyline points="44.1882,330.511 52.2184,330.511 " />
<polyline points="62.7889,330.571 61.3435,331.053 60.3799,332.498 59.8981,334.907 59.8981,336.353 60.3799,338.762 61.3435,340.207 62.7889,340.689 63.7526,340.689 65.198,340.207 66.1616,338.762 66.6434,336.353 66.6434,334.907 66.1616,332.498 65.198,331.053 63.7526,330.571 62.7889,330.571 " />
<polyline points="895.82,221.685 1013.96,221.685 " />
<polyline points="895.82,390.317 1013.96,390.317 " />
<polyline points="993.725,238.548 993.725,287.451 " />
<polyline points="993.725,373.454 993.725,324.551 " />
</g>
<g clip-path="url(#clipId0)" fill="rgb(0,0,0)" stroke="rgb(0,0,0)" stroke-width="0.25" >
<path d="M990.914,238.548 996.535,238.548 993.725,221.685 993.725,221.685 z" />
<path d="M990.914,373.454 996.535,373.454 993.725,390.317 993.725,390.317 z" />
</g>
<g clip-path="url(#clipId0)" fill="none" stroke="rgb(0,0,0)" stroke-width="0.25" >
<polyline points="988.104,297.569 988.104,314.433 " />
<polyline points="988.104,297.569 993.725,297.569 996.134,298.372 997.74,299.978 998.543,301.584 999.346,303.993 999.346,308.009 998.543,310.418 997.74,312.024 996.134,313.63 993.725,314.433 988.104,314.433 " />
<polyline points="703.441,277.896 763.006,288.861 " />
<polyline points="703.441,334.106 763.006,323.141 " />
<polyline points="763.006,323.141 763.006,288.861 " />
</g>
<g clip-path="url(#clipId0)" fill="rgb(0,0,0)" stroke="rgb(0,0,0)" stroke-width="0.25" >
<path d="M720.531,265.35 715.237,267.241 723.556,282.176 723.556,282.176 z" />
</g>
<g clip-path="url(#clipId0)" fill="none" stroke="rgb(0,0,0)" stroke-width="0.25" >
<polyline points="717.884,266.295 677.503,153.23 " />
<polyline points="677.503,153.23 660.64,153.23 " />
<polyline points="526.858,144.798 526.858,161.661 " />
<polyline points="521.237,144.798 532.479,144.798 " />
<polyline points="540.509,144.798 534.085,161.661 " />
<polyline points="540.509,144.798 546.933,161.661 " />
<polyline points="536.494,156.04 544.524,156.04 " />
<polyline points="550.948,144.798 550.948,161.661 " />
<polyline points="557.372,144.798 557.372,161.661 567.008,161.661 " />
<polyline points="599.129,148.813 598.326,147.207 596.72,145.601 595.114,144.798 591.902,144.798 590.296,145.601 588.69,147.207 587.887,148.813 587.084,151.222 587.084,155.237 587.887,157.646 588.69,159.252 590.296,160.858 591.902,161.661 595.114,161.661 596.72,160.858 598.326,159.252 599.129,157.646 " />
<polyline points="608.765,144.798 607.159,145.601 605.553,147.207 604.75,148.813 603.947,151.222 603.947,155.237 604.75,157.646 605.553,159.252 607.159,160.858 608.765,161.661 611.977,161.661 613.583,160.858 615.189,159.252 615.992,157.646 616.795,155.237 616.795,151.222 615.992,148.813 615.189,147.207 613.583,145.601 611.977,144.798 608.765,144.798 " />
<polyline points="622.416,144.798 622.416,161.661 " />
<polyline points="622.416,144.798 633.659,161.661 " />
<polyline points="633.659,144.798 633.659,161.661 " />
<polyline points="640.083,144.798 640.083,161.661 " />
<polyline points="640.083,144.798 650.522,144.798 " />
<polyline points="640.083,152.828 646.507,152.828 " />
<polyline points="640.083,161.661 650.522,161.661 " />
<polyline points="46.4378,306.001 10.0392,306.981 " />
</g>
<g clip-path="url(#clipId0)" fill="rgb(0,0,0)" stroke="rgb(0,0,0)" stroke-width="0.25" >
<path d="M589.939,349.162 595.127,351.326 599.023,334.679 599.023,334.679 z" />
</g>
<g clip-path="url(#clipId0)" fill="none" stroke="rgb(0,0,0)" stroke-width="0.25" >
<polyline points="592.533,350.244 541.279,473.17 " />
<polyline points="145.3,464.839 143.694,463.233 141.285,462.43 138.073,462.43 135.664,463.233 134.058,464.839 134.058,466.445 134.861,468.051 135.664,468.854 137.27,469.658 142.088,471.264 143.694,472.067 144.497,472.87 145.3,474.476 145.3,476.885 143.694,478.491 141.285,479.294 138.073,479.294 135.664,478.491 134.058,476.885 " />
<polyline points="154.936,462.43 153.33,463.233 151.724,464.839 150.921,466.445 150.118,468.854 150.118,472.87 150.921,475.279 151.724,476.885 153.33,478.491 154.936,479.294 158.148,479.294 159.754,478.491 161.36,476.885 162.163,475.279 162.966,472.87 162.966,468.854 162.163,466.445 161.36,464.839 159.754,463.233 158.148,462.43 154.936,462.43 " />
<polyline points="168.587,462.43 168.587,474.476 169.39,476.885 170.996,478.491 173.405,479.294 175.011,479.294 177.421,478.491 179.027,476.885 179.83,474.476 179.83,462.43 " />
<polyline points="186.254,462.43 186.254,479.294 " />
<polyline points="186.254,462.43 197.496,479.294 " />
<polyline points="197.496,462.43 197.496,479.294 " />
<polyline points="203.92,462.43 203.92,479.294 " />
<polyline points="203.92,462.43 209.541,462.43 211.95,463.233 213.556,464.839 214.359,466.445 215.162,468.854 215.162,472.87 214.359,475.279 213.556,476.885 211.95,478.491 209.541,479.294 203.92,479.294 " />
<polyline points="241.662,462.43 235.238,479.294 " />
<polyline points="241.662,462.43 248.086,479.294 " />
<polyline points="237.647,473.673 245.677,473.673 " />
<polyline points="252.101,462.43 252.101,479.294 " />
<polyline points="252.101,462.43 259.328,462.43 261.737,463.233 262.54,464.036 263.343,465.642 263.343,467.248 262.54,468.854 261.737,469.658 259.328,470.461 " />
<polyline points="252.101,470.461 259.328,470.461 261.737,471.264 262.54,472.067 263.343,473.673 263.343,476.082 262.54,477.688 261.737,478.491 259.328,479.294 252.101,479.294 " />
<polyline points="279.403,464.839 277.797,463.233 275.388,462.43 272.176,462.43 269.767,463.233 268.161,464.839 268.161,466.445 268.964,468.051 269.767,468.854 271.373,469.658 276.191,471.264 277.797,472.067 278.6,472.87 279.403,474.476 279.403,476.885 277.797,478.491 275.388,479.294 272.176,479.294 269.767,478.491 268.161,476.885 " />
<polyline points="289.039,462.43 287.433,463.233 285.827,464.839 285.024,466.445 284.221,468.854 284.221,472.87 285.024,475.279 285.827,476.885 287.433,478.491 289.039,479.294 292.252,479.294 293.858,478.491 295.464,476.885 296.267,475.279 297.07,472.87 297.07,468.854 296.267,466.445 295.464,464.839 293.858,463.233 292.252,462.43 289.039,462.43 " />
<polyline points="302.691,462.43 302.691,479.294 " />
<polyline points="302.691,462.43 309.918,462.43 312.327,463.233 313.13,464.036 313.933,465.642 313.933,467.248 313.13,468.854 312.327,469.658 309.918,470.461 302.691,470.461 " />
<polyline points="308.312,470.461 313.933,479.294 " />
<polyline points="319.554,462.43 319.554,479.294 " />
<polyline points="319.554,462.43 326.781,462.43 329.19,463.233 329.993,464.036 330.796,465.642 330.796,467.248 329.993,468.854 329.19,469.658 326.781,470.461 " />
<polyline points="319.554,470.461 326.781,470.461 329.19,471.264 329.993,472.067 330.796,473.673 330.796,476.082 329.993,477.688 329.19,478.491 326.781,479.294 319.554,479.294 " />
<polyline points="336.417,462.43 336.417,479.294 " />
<polyline points="342.841,462.43 342.841,479.294 " />
<polyline points="342.841,462.43 354.084,479.294 " />
<polyline points="354.084,462.43 354.084,479.294 " />
<polyline points="371.75,466.445 370.947,464.839 369.341,463.233 367.735,462.43 364.523,462.43 362.917,463.233 361.311,464.839 360.508,466.445 359.705,468.854 359.705,472.87 360.508,475.279 361.311,476.885 362.917,478.491 364.523,479.294 367.735,479.294 369.341,478.491 370.947,476.885 371.75,475.279 371.75,472.87 " />
<polyline points="367.735,472.87 371.75,472.87 " />
<polyline points="394.234,462.43 394.234,479.294 " />
<polyline points="394.234,462.43 400.658,479.294 " />
<polyline points="407.083,462.43 400.658,479.294 " />
<polyline points="407.083,462.43 407.083,479.294 " />
<polyline points="417.522,462.43 411.098,479.294 " />
<polyline points="417.522,462.43 423.946,479.294 " />
<polyline points="413.507,473.673 421.537,473.673 " />
<polyline points="431.173,462.43 431.173,479.294 " />
<polyline points="425.552,462.43 436.794,462.43 " />
<polyline points="440.809,462.43 440.809,479.294 " />
<polyline points="440.809,462.43 451.248,462.43 " />
<polyline points="440.809,470.461 447.233,470.461 " />
<polyline points="440.809,479.294 451.248,479.294 " />
<polyline points="456.066,462.43 456.066,479.294 " />
<polyline points="456.066,462.43 463.294,462.43 465.703,463.233 466.506,464.036 467.309,465.642 467.309,467.248 466.506,468.854 465.703,469.658 463.294,470.461 456.066,470.461 " />
<polyline points="461.688,470.461 467.309,479.294 " />
<polyline points="472.93,462.43 472.93,479.294 " />
<polyline points="483.369,462.43 476.945,479.294 " />
<polyline points="483.369,462.43 489.793,479.294 " />
<polyline points="479.354,473.673 487.384,473.673 " />
<polyline points="493.808,462.43 493.808,479.294 503.444,479.294 " />
<polyline points="541.279,473.17 520.491,473.17 " />
<polyline points="911.249,604.358 910.071,602.002 907.716,599.647 905.36,598.469 900.649,598.469 898.294,599.647 895.938,602.002 894.761,604.358 893.583,607.891 893.583,613.78 894.761,617.313 895.938,619.669 898.294,622.024 900.649,623.202 905.36,623.202 907.716,622.024 910.071,619.669 911.249,617.313 " />
<polyline points="919.493,598.469 919.493,623.202 " />
<polyline points="919.493,598.469 927.738,598.469 931.271,599.647 933.627,602.002 934.804,604.358 935.982,607.891 935.982,613.78 934.804,617.313 933.627,619.669 931.271,622.024 927.738,623.202 919.493,623.202 " />
<polyline points="948.937,598.469 945.404,599.647 944.226,602.002 944.226,604.358 945.404,606.713 947.76,607.891 952.471,609.069 956.004,610.247 958.359,612.602 959.537,614.958 959.537,618.491 958.359,620.846 957.182,622.024 953.648,623.202 948.937,623.202 945.404,622.024 944.226,620.846 943.049,618.491 943.049,614.958 944.226,612.602 946.582,610.247 950.115,609.069 954.826,607.891 957.182,606.713 958.359,604.358 958.359,602.002 957.182,599.647 953.648,598.469 948.937,598.469 " />
<polyline points="967.781,612.602 988.981,612.602 " />
<polyline points="1012.54,602.002 1011.36,599.647 1007.83,598.469 1005.47,598.469 1001.94,599.647 999.581,603.18 998.403,609.069 998.403,614.958 999.581,619.669 1001.94,622.024 1005.47,623.202 1006.65,623.202 1010.18,622.024 1012.54,619.669 1013.71,616.135 1013.71,614.958 1012.54,611.424 1010.18,609.069 1006.65,607.891 1005.47,607.891 1001.94,609.069 999.581,611.424 998.403,614.958 " />
</g>
</svg>
