<?xml version="1.0" standalone="no"?>
<svg viewBox="0 0 1024 768" version="1.1" xmlns="http://www.w3.org/2000/svg" xmlns:xlink="http://www.w3.org/1999/xlink" stroke-linecap="round" stroke-linejoin="round" fill-rule="evenodd" xml:space="preserve" >
<defs >
<clipPath id="clipId0" >
<path d="M0,768 1024,768 1024,0 0,0 z" />
</clipPath>
</defs>
<g clip-path="url(#clipId0)" fill="none" stroke="rgb(0,0,0)" stroke-width="0.1" />
<g clip-path="url(#clipId0)" fill="none" stroke="rgb(0,0,0)" stroke-width="0.25" >
<polyline points="435.786,7.52941 435.786,212.812 " />
<polyline points="557.91,7.52941 557.91,212.812 " />
<polyline points="142.338,405.542 382.262,405.542 " />
<polyline points="185.779,266.241 455.492,266.241 " />
<polyline points="435.786,205.179 557.91,205.179 " />
<polyline points="435.786,571.551 557.91,571.551 " />
<polyline points="557.91,563.918 557.91,758.71 " />
<polyline points="435.786,563.918 435.786,758.71 " />
<polyline points="384.901,212.812 608.795,212.812 " />
<polyline points="384.901,215.051 608.795,215.051 " />
<polyline points="608.795,212.812 608.795,215.051 " />
<polyline points="384.901,212.812 384.901,215.051 " />
<polyline points="562.999,186.352 562.999,201.617 " />
<polyline points="569.105,207.723 584.37,207.723 " />
<polyline points="557.91,182.281 558.928,182.281 " />
<polyline points="588.441,211.794 588.441,212.812 " />
<path d="M562.999,186.352  A4.0708,4.0708 0 0,0 558.928,182.281 " />
<path d="M588.441,211.794  A4.0708,4.0708 0 0,0 584.37,207.723 " />
<path d="M562.999,201.617  A6.10619,6.10619 0 0,0 569.105,207.723 " />
<polyline points="576.738,196.641 576.738,228.045 " />
<polyline points="573.316,203.653 580.16,203.653 " />
<polyline points="580.707,204.3 580.707,207.723 " />
<polyline points="572.769,204.3 572.769,207.723 " />
<polyline points="578.671,204.3 578.671,207.723 " />
<polyline points="574.804,204.3 574.804,207.723 " />
<polyline points="572.769,204.3 580.707,204.3 " />
<path d="M574.804,204.3  A1.1234,1.1234 0 0,0 572.769,204.3 " />
<path d="M578.671,204.3  A3.21026,3.21026 0 0,0 574.804,204.3 " />
<path d="M580.707,204.3  A1.1234,1.1234 0 0,0 578.671,204.3 " />
<polyline points="572.769,204.3 573.316,203.653 " />
<polyline points="580.707,204.3 580.16,203.653 " />
<polyline points="580.707,218.474 580.16,219.122 " />
<polyline points="572.769,218.474 573.316,219.122 " />
<path d="M578.671,218.474  A1.1234,1.1234 0 0,0 580.707,218.474 " />
<path d="M574.804,218.474  A3.21026,3.21026 0 0,0 578.671,218.474 " />
<path d="M572.769,218.474  A1.1234,1.1234 0 0,0 574.804,218.474 " />
<polyline points="572.769,218.474 580.707,218.474 " />
<polyline points="574.804,218.474 574.804,215.051 " />
<polyline points="578.671,218.474 578.671,215.051 " />
<polyline points="572.769,218.474 572.769,215.051 " />
<polyline points="580.707,218.474 580.707,215.051 " />
<polyline points="573.316,219.122 580.16,219.122 " />
<polyline points="579.282,221.157 579.282,219.122 " />
<polyline points="574.193,221.157 574.193,219.122 " />
<polyline points="575.211,220.139 578.264,220.139 " />
<polyline points="574.193,221.157 579.282,221.157 " />
<polyline points="575.211,222.175 578.264,222.175 " />
<polyline points="579.282,221.157 578.264,222.175 " />
<polyline points="574.193,221.157 575.211,222.175 " />
<polyline points="419.503,221.157 418.486,222.175 " />
<polyline points="414.415,221.157 415.432,222.175 " />
<polyline points="418.486,222.175 415.432,222.175 " />
<polyline points="419.503,221.157 414.415,221.157 " />
<polyline points="418.486,220.139 415.432,220.139 " />
<polyline points="419.503,221.157 419.503,219.122 " />
<polyline points="414.415,221.157 414.415,219.122 " />
<polyline points="420.381,219.122 413.537,219.122 " />
<polyline points="412.99,218.474 412.99,215.051 " />
<polyline points="420.928,218.474 420.928,215.051 " />
<polyline points="415.025,218.474 415.025,215.051 " />
<polyline points="418.893,218.474 418.893,215.051 " />
<polyline points="420.928,218.474 412.99,218.474 " />
<path d="M418.893,218.474  A1.1234,1.1234 0 0,0 420.928,218.474 " />
<path d="M415.025,218.474  A3.21026,3.21026 0 0,0 418.893,218.474 " />
<path d="M412.99,218.474  A1.1234,1.1234 0 0,0 415.025,218.474 " />
<polyline points="420.928,218.474 420.381,219.122 " />
<polyline points="412.99,218.474 413.537,219.122 " />
<polyline points="412.99,204.3 413.537,203.653 " />
<polyline points="420.928,204.3 420.381,203.653 " />
<path d="M415.025,204.3  A1.1234,1.1234 0 0,0 412.99,204.3 " />
<path d="M418.893,204.3  A3.21026,3.21026 0 0,0 415.025,204.3 " />
<path d="M420.928,204.3  A1.1234,1.1234 0 0,0 418.893,204.3 " />
<polyline points="420.928,204.3 412.99,204.3 " />
<polyline points="418.893,204.3 418.893,207.723 " />
<polyline points="415.025,204.3 415.025,207.723 " />
<polyline points="420.928,204.3 420.928,207.723 " />
<polyline points="412.99,204.3 412.99,207.723 " />
<polyline points="420.381,203.653 413.537,203.653 " />
<polyline points="416.959,196.641 416.959,228.045 " />
<path d="M424.592,207.723  A6.10619,6.10619 0 0,0 430.698,201.617 " />
<path d="M409.326,207.723  A4.0708,4.0708 0 0,0 405.255,211.794 " />
<path d="M434.769,182.281  A4.0708,4.0708 0 0,0 430.698,186.352 " />
<polyline points="405.255,211.794 405.255,212.812 " />
<polyline points="435.786,182.281 434.769,182.281 " />
<polyline points="424.592,207.723 409.326,207.723 " />
<polyline points="430.698,186.352 430.698,201.617 " />
<polyline points="430.698,590.378 430.698,575.113 " />
<polyline points="424.592,569.006 409.326,569.006 " />
<polyline points="435.786,594.449 434.769,594.449 " />
<polyline points="405.255,564.936 405.255,563.918 " />
<path d="M430.698,590.378  A4.0708,4.0708 0 0,0 434.769,594.449 " />
<path d="M405.255,564.936  A4.0708,4.0708 0 0,0 409.326,569.006 " />
<path d="M430.698,575.113  A6.10619,6.10619 0 0,0 424.592,569.006 " />
<polyline points="416.959,580.089 416.959,548.685 " />
<polyline points="420.381,573.077 413.537,573.077 " />
<polyline points="412.99,572.43 412.99,569.006 " />
<polyline points="420.928,572.43 420.928,569.006 " />
<polyline points="415.025,572.43 415.025,569.006 " />
<polyline points="418.893,572.43 418.893,569.006 " />
<polyline points="420.928,572.43 412.99,572.43 " />
<path d="M418.893,572.43  A1.1234,1.1234 0 0,0 420.928,572.43 " />
<path d="M415.025,572.43  A3.21026,3.21026 0 0,0 418.893,572.43 " />
<path d="M412.99,572.43  A1.1234,1.1234 0 0,0 415.025,572.43 " />
<polyline points="420.928,572.43 420.381,573.077 " />
<polyline points="412.99,572.43 413.537,573.077 " />
<polyline points="412.99,558.256 413.537,557.608 " />
<polyline points="420.928,558.256 420.381,557.608 " />
<path d="M415.025,558.256  A1.1234,1.1234 0 0,0 412.99,558.256 " />
<path d="M418.893,558.256  A3.21026,3.21026 0 0,0 415.025,558.256 " />
<path d="M420.928,558.256  A1.1234,1.1234 0 0,0 418.893,558.256 " />
<polyline points="420.928,558.256 412.99,558.256 " />
<polyline points="418.893,558.256 418.893,561.679 " />
<polyline points="415.025,558.256 415.025,561.679 " />
<polyline points="420.928,558.256 420.928,561.679 " />
<polyline points="412.99,558.256 412.99,561.679 " />
<polyline points="420.381,557.608 413.537,557.608 " />
<polyline points="414.415,555.573 414.415,557.608 " />
<polyline points="419.503,555.573 419.503,557.608 " />
<polyline points="418.486,556.59 415.432,556.59 " />
<polyline points="419.503,555.573 414.415,555.573 " />
<polyline points="418.486,554.555 415.432,554.555 " />
<polyline points="414.415,555.573 415.432,554.555 " />
<polyline points="419.503,555.573 418.486,554.555 " />
<polyline points="574.193,555.573 575.211,554.555 " />
<polyline points="579.282,555.573 578.264,554.555 " />
<polyline points="575.211,554.555 578.264,554.555 " />
<polyline points="574.193,555.573 579.282,555.573 " />
<polyline points="575.211,556.59 578.264,556.59 " />
<polyline points="574.193,555.573 574.193,557.608 " />
<polyline points="579.282,555.573 579.282,557.608 " />
<polyline points="573.316,557.608 580.16,557.608 " />
<polyline points="580.707,558.256 580.707,561.679 " />
<polyline points="572.769,558.256 572.769,561.679 " />
<polyline points="578.671,558.256 578.671,561.679 " />
<polyline points="574.804,558.256 574.804,561.679 " />
<polyline points="572.769,558.256 580.707,558.256 " />
<path d="M574.804,558.256  A1.1234,1.1234 0 0,0 572.769,558.256 " />
<path d="M578.671,558.256  A3.21026,3.21026 0 0,0 574.804,558.256 " />
<path d="M580.707,558.256  A1.1234,1.1234 0 0,0 578.671,558.256 " />
<polyline points="572.769,558.256 573.316,557.608 " />
<polyline points="580.707,558.256 580.16,557.608 " />
<polyline points="580.707,572.43 580.16,573.077 " />
<polyline points="572.769,572.43 573.316,573.077 " />
<path d="M578.671,572.43  A1.1234,1.1234 0 0,0 580.707,572.43 " />
<path d="M574.804,572.43  A3.21026,3.21026 0 0,0 578.671,572.43 " />
<path d="M572.769,572.43  A1.1234,1.1234 0 0,0 574.804,572.43 " />
<polyline points="572.769,572.43 580.707,572.43 " />
<polyline points="574.804,572.43 574.804,569.006 " />
<polyline points="578.671,572.43 578.671,569.006 " />
<polyline points="572.769,572.43 572.769,569.006 " />
<polyline points="580.707,572.43 580.707,569.006 " />
<polyline points="573.316,573.077 580.16,573.077 " />
<polyline points="576.738,580.089 576.738,548.685 " />
<path d="M569.105,569.006  A6.10619,6.10619 0 0,0 562.999,575.113 " />
<path d="M584.37,569.006  A4.0708,4.0708 0 0,0 588.441,564.936 " />
<path d="M558.928,594.449  A4.0708,4.0708 0 0,0 562.999,590.378 " />
<polyline points="588.441,564.936 588.441,563.918 " />
<polyline points="557.91,594.449 558.928,594.449 " />
<polyline points="569.105,569.006 584.37,569.006 " />
<polyline points="562.999,590.378 562.999,575.113 " />
<polyline points="384.901,563.918 384.901,561.679 " />
<polyline points="608.795,563.918 608.795,561.679 " />
<polyline points="384.901,561.679 608.795,561.679 " />
<polyline points="384.901,563.918 608.795,563.918 " />
<polyline points="461.229,215.051 461.229,269.803 " />
<polyline points="471.406,217.086 471.406,559.644 " />
<polyline points="473.95,217.086 473.95,559.644 " />
<polyline points="192.246,268.276 455.492,268.276 " />
<polyline points="463.264,217.086 463.264,269.803 " />
<polyline points="455.492,266.241 455.492,268.276 " />
<polyline points="451.421,270.821 451.421,272.856 " />
<path d="M455.492,268.276  A1.0177,1.0177 0 0,0 455.492,266.241 " />
<path d="M451.421,268.276  A3.56195,3.56195 0 0,0 451.421,275.4 " />
<polyline points="451.421,275.4 457.782,275.4 " />
<path d="M457.782,275.4  A1.27212,1.27212 0 0,0 457.782,272.856 " />
<polyline points="460.211,272.856 451.421,272.856 " />
<path d="M451.421,270.821  A1.0177,1.0177 0 1,0 451.421,272.856 " />
<polyline points="451.421,270.821 460.211,270.821 " />
<path d="M455.492,270.821  A3.56195,3.56195 0 1,0 455.492,263.697 " />
<polyline points="455.492,263.697 449.131,263.697 " />
<path d="M449.131,263.697  A1.27212,1.27212 0 1,0 449.131,266.241 " />
<path d="M460.211,270.821  A1.0177,1.0177 0 0,0 461.229,269.803 " />
<path d="M460.211,272.856  A3.0531,3.0531 0 0,0 463.264,269.803 " />
<polyline points="461.229,272.681 461.229,538.403 " />
<path d="M530.432,269.803  A3.0531,3.0531 0 0,0 533.486,272.856 " />
<path d="M532.468,269.803  A1.0177,1.0177 0 0,0 533.486,270.821 " />
<path d="M544.566,266.241  A1.27212,1.27212 0 1,0 544.566,263.697 " />
<polyline points="538.205,263.697 544.566,263.697 " />
<path d="M538.205,263.697  A3.56195,3.56195 0 1,0 538.205,270.821 " />
<polyline points="542.276,270.821 533.486,270.821 " />
<path d="M542.276,272.856  A1.0177,1.0177 0 1,0 542.276,270.821 " />
<polyline points="533.486,272.856 542.276,272.856 " />
<path d="M535.915,272.856  A1.27212,1.27212 0 1,0 535.915,275.4 " />
<polyline points="542.276,275.4 535.915,275.4 " />
<path d="M542.276,275.4  A3.56195,3.56195 0 0,0 542.276,268.276 " />
<path d="M538.205,266.241  A1.0177,1.0177 0 0,0 538.205,268.276 " />
<polyline points="542.276,270.821 542.276,272.856 " />
<polyline points="538.205,266.241 538.205,268.276 " />
<polyline points="532.468,272.681 532.468,538.403 " />
<polyline points="530.432,217.086 530.432,269.803 " />
<polyline points="842.582,268.276 538.205,268.276 " />
<polyline points="519.747,217.086 519.747,559.644 " />
<polyline points="522.291,217.086 522.291,559.644 " />
<polyline points="532.468,215.051 532.468,269.803 " />
<polyline points="836.115,266.241 538.205,266.241 " />
<polyline points="463.264,217.086 530.432,217.086 " />
<polyline points="524.662,221.811 525.449,222.599 " />
<polyline points="528.599,221.811 527.812,222.599 " />
<polyline points="525.449,222.599 527.812,222.599 " />
<polyline points="524.662,221.811 528.599,221.811 " />
<polyline points="525.449,221.024 527.812,221.024 " />
<polyline points="524.662,221.811 524.662,220.236 " />
<polyline points="528.599,221.811 528.599,220.236 " />
<polyline points="523.983,220.236 529.279,220.236 " />
<polyline points="529.702,219.735 529.702,217.086 " />
<polyline points="523.559,219.735 523.559,217.086 " />
<polyline points="528.127,219.735 528.127,217.086 " />
<polyline points="525.134,219.735 525.134,217.086 " />
<polyline points="523.559,219.735 529.702,219.735 " />
<path d="M523.559,219.735  A0.86932,0.86932 0 0,0 525.134,219.735 " />
<path d="M525.134,219.735  A2.4842,2.4842 0 0,0 528.127,219.735 " />
<path d="M528.127,219.735  A0.86932,0.86932 0 0,0 529.702,219.735 " />
<polyline points="523.559,219.735 523.983,220.236 " />
<polyline points="529.702,219.735 529.279,220.236 " />
<polyline points="529.702,210.163 529.279,209.662 " />
<polyline points="523.559,210.163 523.983,209.662 " />
<path d="M529.702,210.163  A0.86932,0.86932 0 0,0 528.127,210.163 " />
<path d="M528.127,210.163  A2.4842,2.4842 0 0,0 525.134,210.163 " />
<path d="M525.134,210.163  A0.86932,0.86932 0 0,0 523.559,210.163 " />
<polyline points="523.559,210.163 529.702,210.163 " />
<polyline points="525.134,210.163 525.134,212.812 " />
<polyline points="528.127,210.163 528.127,212.812 " />
<polyline points="523.559,210.163 523.559,212.812 " />
<polyline points="529.702,210.163 529.702,212.812 " />
<polyline points="523.983,209.662 529.279,209.662 " />
<polyline points="469.714,209.662 464.418,209.662 " />
<polyline points="463.995,210.163 463.995,212.812 " />
<polyline points="470.138,210.163 470.138,212.812 " />
<polyline points="465.57,210.163 465.57,212.812 " />
<polyline points="468.562,210.163 468.562,212.812 " />
<polyline points="470.138,210.163 463.995,210.163 " />
<path d="M470.138,210.163  A0.86932,0.86932 0 0,0 468.562,210.163 " />
<path d="M468.562,210.163  A2.4842,2.4842 0 0,0 465.57,210.163 " />
<path d="M465.57,210.163  A0.86932,0.86932 0 0,0 463.995,210.163 " />
<polyline points="470.138,210.163 469.714,209.662 " />
<polyline points="463.995,210.163 464.418,209.662 " />
<polyline points="463.995,219.735 464.418,220.236 " />
<polyline points="470.138,219.735 469.714,220.236 " />
<path d="M463.995,219.735  A0.86932,0.86932 0 0,0 465.57,219.735 " />
<path d="M465.57,219.735  A2.4842,2.4842 0 0,0 468.562,219.735 " />
<path d="M468.562,219.735  A0.86932,0.86932 0 0,0 470.138,219.735 " />
<polyline points="470.138,219.735 463.995,219.735 " />
<polyline points="468.562,219.735 468.562,217.086 " />
<polyline points="465.57,219.735 465.57,217.086 " />
<polyline points="470.138,219.735 470.138,217.086 " />
<polyline points="463.995,219.735 463.995,217.086 " />
<polyline points="469.714,220.236 464.418,220.236 " />
<polyline points="465.097,221.811 465.097,220.236 " />
<polyline points="469.035,221.811 469.035,220.236 " />
<polyline points="468.247,221.024 465.885,221.024 " />
<polyline points="469.035,221.811 465.097,221.811 " />
<polyline points="468.247,222.599 465.885,222.599 " />
<polyline points="465.097,221.811 465.885,222.599 " />
<polyline points="469.035,221.811 468.247,222.599 " />
<path d="M483.622,219.865  A5.11862,5.11862 0 1,0 483.622,224.544 " />
<path d="M510.075,219.425  A5.11862,5.11862 0 0,0 519.747,217.086 " />
<path d="M510.075,229.663  A5.11862,5.11862 0 1,0 510.075,224.984 " />
<polyline points="479.069,222.205 514.628,227.323 " />
<polyline points="514.628,227.323 479.069,232.442 " />
<polyline points="479.069,232.442 514.628,237.561 " />
<polyline points="514.628,237.561 479.069,242.679 " />
<polyline points="479.069,242.679 514.628,247.798 " />
<polyline points="514.628,247.798 479.069,252.916 " />
<polyline points="479.069,252.916 514.628,258.035 " />
<polyline points="514.628,258.035 479.069,263.154 " />
<polyline points="479.069,263.154 514.628,268.272 " />
<polyline points="514.628,268.272 479.069,273.391 " />
<polyline points="514.628,217.086 479.069,222.205 " />
<path d="M483.622,230.103  A5.11862,5.11862 0 1,0 483.622,234.781 " />
<path d="M483.622,240.34  A5.11862,5.11862 0 1,0 483.622,245.019 " />
<path d="M510.075,239.9  A5.11862,5.11862 0 1,0 510.075,235.221 " />
<path d="M483.622,250.577  A5.11862,5.11862 0 1,0 483.622,255.256 " />
<path d="M510.075,250.137  A5.11862,5.11862 0 1,0 510.075,245.459 " />
<path d="M483.622,260.814  A5.11862,5.11862 0 1,0 483.622,265.493 " />
<path d="M510.075,260.374  A5.11862,5.11862 0 1,0 510.075,255.696 " />
<path d="M483.622,271.052  A5.11862,5.11862 0 1,0 483.622,275.73 " />
<path d="M510.075,270.612  A5.11862,5.11862 0 1,0 510.075,265.933 " />
<polyline points="836.115,544.843 538.205,544.843 " />
<polyline points="532.468,561.679 532.468,541.281 " />
<polyline points="829.648,542.808 538.205,542.808 " />
<polyline points="530.432,559.644 530.432,541.281 " />
<polyline points="538.205,544.843 538.205,542.808 " />
<polyline points="542.276,540.264 542.276,538.228 " />
<path d="M538.205,542.808  A1.0177,1.0177 0 0,0 538.205,544.843 " />
<path d="M542.276,542.808  A3.56195,3.56195 0 0,0 542.276,535.684 " />
<polyline points="542.276,535.684 535.915,535.684 " />
<path d="M535.915,535.684  A1.27212,1.27212 0 1,0 535.915,538.228 " />
<polyline points="533.486,538.228 542.276,538.228 " />
<path d="M542.276,540.264  A1.0177,1.0177 0 1,0 542.276,538.228 " />
<polyline points="542.276,540.264 533.486,540.264 " />
<path d="M538.205,540.264  A3.56195,3.56195 0 1,0 538.205,547.388 " />
<polyline points="538.205,547.388 544.566,547.388 " />
<path d="M544.566,547.388  A1.27212,1.27212 0 1,0 544.566,544.843 " />
<path d="M533.486,540.264  A1.0177,1.0177 0 0,0 532.468,541.281 " />
<path d="M533.486,538.228  A3.0531,3.0531 0 0,0 530.432,541.281 " />
<path d="M463.264,541.281  A3.0531,3.0531 0 0,0 460.211,538.228 " />
<path d="M461.229,541.281  A1.0177,1.0177 0 0,0 460.211,540.264 " />
<path d="M449.131,544.843  A1.27212,1.27212 0 1,0 449.131,547.388 " />
<polyline points="455.492,547.388 449.131,547.388 " />
<path d="M455.492,547.388  A3.56195,3.56195 0 1,0 455.492,540.264 " />
<polyline points="451.421,540.264 460.211,540.264 " />
<path d="M451.421,538.228  A1.0177,1.0177 0 1,0 451.421,540.264 " />
<polyline points="460.211,538.228 451.421,538.228 " />
<path d="M457.782,538.228  A1.27212,1.27212 0 1,0 457.782,535.684 " />
<polyline points="451.421,535.684 457.782,535.684 " />
<path d="M451.421,535.684  A3.56195,3.56195 0 0,0 451.421,542.808 " />
<path d="M455.492,544.843  A1.0177,1.0177 0 0,0 455.492,542.808 " />
<polyline points="451.421,540.264 451.421,538.228 " />
<polyline points="455.492,544.843 455.492,542.808 " />
<polyline points="463.264,559.644 463.264,541.281 " />
<polyline points="179.312,542.808 455.492,542.808 " />
<polyline points="185.779,544.843 455.492,544.843 " />
<polyline points="469.035,554.918 468.247,554.131 " />
<polyline points="465.097,554.918 465.885,554.131 " />
<polyline points="468.247,554.131 465.885,554.131 " />
<polyline points="469.035,554.918 465.097,554.918 " />
<polyline points="468.247,555.706 465.885,555.706 " />
<polyline points="469.035,554.918 469.035,556.493 " />
<polyline points="465.097,554.918 465.097,556.493 " />
<polyline points="469.714,556.493 464.418,556.493 " />
<polyline points="463.995,556.995 463.995,559.644 " />
<polyline points="470.138,556.995 470.138,559.644 " />
<polyline points="465.57,556.995 465.57,559.644 " />
<polyline points="468.562,556.995 468.562,559.644 " />
<polyline points="470.138,556.995 463.995,556.995 " />
<path d="M470.138,556.995  A0.86932,0.86932 0 0,0 468.562,556.995 " />
<path d="M468.562,556.995  A2.4842,2.4842 0 0,0 465.57,556.995 " />
<path d="M465.57,556.995  A0.86932,0.86932 0 0,0 463.995,556.995 " />
<polyline points="470.138,556.995 469.714,556.493 " />
<polyline points="463.995,556.995 464.418,556.493 " />
<polyline points="463.995,566.567 464.418,567.068 " />
<polyline points="470.138,566.567 469.714,567.068 " />
<path d="M463.995,566.567  A0.86932,0.86932 0 0,0 465.57,566.567 " />
<path d="M465.57,566.567  A2.4842,2.4842 0 0,0 468.562,566.567 " />
<path d="M468.562,566.567  A0.86932,0.86932 0 0,0 470.138,566.567 " />
<polyline points="470.138,566.567 463.995,566.567 " />
<polyline points="468.562,566.567 468.562,563.918 " />
<polyline points="465.57,566.567 465.57,563.918 " />
<polyline points="470.138,566.567 470.138,563.918 " />
<polyline points="463.995,566.567 463.995,563.918 " />
<polyline points="469.714,567.068 464.418,567.068 " />
<polyline points="523.983,567.068 529.279,567.068 " />
<polyline points="529.702,566.567 529.702,563.918 " />
<polyline points="523.559,566.567 523.559,563.918 " />
<polyline points="528.127,566.567 528.127,563.918 " />
<polyline points="525.134,566.567 525.134,563.918 " />
<polyline points="523.559,566.567 529.702,566.567 " />
<path d="M523.559,566.567  A0.86932,0.86932 0 0,0 525.134,566.567 " />
<path d="M525.134,566.567  A2.4842,2.4842 0 0,0 528.127,566.567 " />
<path d="M528.127,566.567  A0.86932,0.86932 0 0,0 529.702,566.567 " />
<polyline points="523.559,566.567 523.983,567.068 " />
<polyline points="529.702,566.567 529.279,567.068 " />
<polyline points="529.702,556.995 529.279,556.493 " />
<polyline points="523.559,556.995 523.983,556.493 " />
<path d="M529.702,556.995  A0.86932,0.86932 0 0,0 528.127,556.995 " />
<path d="M528.127,556.995  A2.4842,2.4842 0 0,0 525.134,556.995 " />
<path d="M525.134,556.995  A0.86932,0.86932 0 0,0 523.559,556.995 " />
<polyline points="523.559,556.995 529.702,556.995 " />
<polyline points="525.134,556.995 525.134,559.644 " />
<polyline points="528.127,556.995 528.127,559.644 " />
<polyline points="523.559,556.995 523.559,559.644 " />
<polyline points="529.702,556.995 529.702,559.644 " />
<polyline points="523.983,556.493 529.279,556.493 " />
<polyline points="528.599,554.918 528.599,556.493 " />
<polyline points="524.662,554.918 524.662,556.493 " />
<polyline points="525.449,555.706 527.812,555.706 " />
<polyline points="524.662,554.918 528.599,554.918 " />
<polyline points="525.449,554.131 527.812,554.131 " />
<polyline points="528.599,554.918 527.812,554.131 " />
<polyline points="524.662,554.918 525.449,554.131 " />
<polyline points="463.264,559.644 530.432,559.644 " />
<polyline points="461.229,541.281 461.229,561.679 " />
<polyline points="836.115,405.542 836.785,405.562 837.453,405.622 838.116,405.721 838.772,405.859 839.419,406.037 840.054,406.252 840.676,406.504 841.281,406.793 841.868,407.118 842.435,407.477 842.979,407.868 843.499,408.292 843.993,408.745 844.459,409.227 844.459,409.227 845.394,410.281 846.3,411.36 847.177,412.463 848.024,413.589 848.839,414.738 849.624,415.908 850.377,417.099 851.097,418.31 851.784,419.54 852.438,420.788 853.058,422.053 853.643,423.334 854.194,424.631 854.709,425.942 854.709,425.942 855.384,427.782 856.024,429.634 856.63,431.497 857.2,433.372 857.736,435.257 858.236,437.151 858.7,439.055 859.129,440.967 859.522,442.886 859.879,444.813 860.2,446.746 860.2,446.746 860.583,449.314 860.93,451.887 861.24,454.465 861.515,457.047 861.752,459.633 861.953,462.221 862.118,464.812 862.246,467.406 862.338,470.001 862.393,472.596 862.411,475.193 862.411,475.193 862.393,477.789 862.338,480.385 862.246,482.98 862.118,485.573 861.953,488.164 861.752,490.753 861.515,493.339 861.24,495.92 860.93,498.498 860.583,501.071 860.2,503.64 860.2,503.64 859.879,505.573 859.522,507.499 859.129,509.419 858.7,511.331 858.236,513.234 857.736,515.129 857.2,517.014 856.63,518.888 856.024,520.752 855.384,522.604 854.709,524.443 854.709,524.443 854.194,525.754 853.643,527.051 853.058,528.333 852.438,529.598 851.784,530.846 851.097,532.076 850.377,533.287 849.624,534.478 848.839,535.648 848.024,536.797 847.177,537.923 846.3,539.026 845.394,540.104 844.459,541.158 844.459,541.158 843.993,541.64 843.499,542.094 842.979,542.517 842.435,542.909 841.868,543.268 841.281,543.592 840.676,543.881 840.054,544.134 839.419,544.349 838.772,544.526 838.116,544.665 837.453,544.764 836.785,544.823 836.115,544.843 836.115,544.843 835.444,544.823 834.776,544.764 834.113,544.665 833.457,544.526 832.81,544.349 832.175,544.134 831.554,543.881 830.948,543.592 830.362,543.268 829.795,542.909 829.251,542.517 828.73,542.094 828.236,541.64 827.77,541.158 827.77,541.158 826.835,540.104 825.929,539.026 825.052,537.923 824.206,536.797 823.39,535.648 822.605,534.478 821.853,533.287 821.133,532.076 820.445,530.846 819.792,529.598 819.172,528.333 818.586,527.051 818.036,525.754 817.52,524.443 817.52,524.443 816.846,522.604 816.205,520.752 815.6,518.888 815.029,517.014 814.494,515.129 813.993,513.234 813.529,511.331 813.1,509.419 812.707,507.499 812.35,505.573 812.029,503.64 812.029,503.64 811.646,501.071 811.299,498.498 810.989,495.92 810.715,493.339 810.477,490.753 810.276,488.164 810.111,485.573 809.983,482.98 809.892,480.385 809.837,477.789 809.818,475.193 809.818,475.193 809.837,472.596 809.892,470.001 809.983,467.406 810.111,464.812 810.276,462.221 810.477,459.633 810.715,457.047 810.989,454.465 811.299,451.887 811.646,449.314 812.029,446.746 812.029,446.746 812.35,444.813 812.707,442.886 813.1,440.967 813.529,439.055 813.993,437.151 814.494,435.257 815.029,433.372 815.6,431.497 816.205,429.634 816.846,427.782 817.52,425.942 817.52,425.942 818.036,424.631 818.586,423.334 819.172,422.053 819.792,420.788 820.445,419.54 821.133,418.31 821.853,417.099 822.605,415.908 823.39,414.738 824.206,413.589 825.052,412.463 825.929,411.36 826.835,410.281 827.77,409.227 827.77,409.227 828.236,408.745 828.73,408.292 829.251,407.868 829.795,407.477 830.362,407.118 830.948,406.793 831.554,406.504 832.175,406.252 832.81,406.037 833.457,405.859 834.113,405.721 834.776,405.622 835.444,405.562 836.115,405.542 " />
<polyline points="836.115,405.542 836.785,405.522 837.453,405.463 838.116,405.363 838.772,405.225 839.419,405.048 840.054,404.833 840.676,404.58 841.281,404.291 841.868,403.966 842.435,403.608 842.979,403.216 843.499,402.793 843.993,402.339 844.459,401.857 844.459,401.857 845.394,400.803 846.3,399.724 847.177,398.622 848.024,397.495 848.839,396.347 849.624,395.177 850.377,393.986 851.097,392.775 851.784,391.545 852.438,390.297 853.058,389.032 853.643,387.75 854.194,386.453 854.709,385.142 854.709,385.142 855.384,383.302 856.024,381.451 856.63,379.587 857.2,377.713 857.736,375.828 858.236,373.933 858.7,372.03 859.129,370.118 859.522,368.198 859.879,366.271 860.2,364.338 860.2,364.338 860.583,361.77 860.93,359.197 861.24,356.619 861.515,354.037 861.752,351.452 861.953,348.863 862.118,346.272 862.246,343.679 862.338,341.084 862.393,338.488 862.411,335.892 862.411,335.892 862.393,333.295 862.338,330.699 862.246,328.104 862.118,325.511 861.953,322.92 861.752,320.331 861.515,317.746 861.24,315.164 860.93,312.586 860.583,310.013 860.2,307.445 860.2,307.445 859.879,305.512 859.522,303.585 859.129,301.666 858.7,299.754 858.236,297.85 857.736,295.955 857.2,294.071 856.63,292.196 856.024,290.333 855.384,288.481 854.709,286.641 854.709,286.641 854.194,285.33 853.643,284.033 853.058,282.752 852.438,281.486 851.784,280.238 851.097,279.009 850.377,277.798 849.624,276.607 848.839,275.436 848.024,274.288 847.177,273.162 846.3,272.059 845.394,270.98 844.459,269.926 844.459,269.926 843.993,269.444 843.499,268.99 842.979,268.567 842.435,268.175 841.868,267.817 841.281,267.492 840.676,267.203 840.054,266.951 839.419,266.735 838.772,266.558 838.116,266.42 837.453,266.321 836.785,266.261 836.115,266.241 " />
<polyline points="185.779,405.542 185.109,405.562 184.441,405.622 183.777,405.721 183.121,405.859 182.474,406.037 181.839,406.252 181.218,406.504 180.613,406.793 180.026,407.118 179.459,407.477 178.915,407.868 178.395,408.292 177.901,408.745 177.434,409.227 177.434,409.227 176.499,410.281 175.593,411.36 174.717,412.463 173.87,413.589 173.054,414.738 172.27,415.908 171.517,417.099 170.797,418.31 170.11,419.54 169.456,420.788 168.836,422.053 168.251,423.334 167.7,424.631 167.185,425.942 167.185,425.942 166.51,427.782 165.869,429.634 165.264,431.497 164.693,433.372 164.158,435.257 163.658,437.151 163.193,439.055 162.764,440.967 162.371,442.886 162.014,444.813 161.694,446.746 161.694,446.746 161.31,449.314 160.964,451.887 160.653,454.465 160.379,457.047 160.141,459.633 159.94,462.221 159.776,464.812 159.647,467.406 159.556,470.001 159.501,472.596 159.483,475.193 159.483,475.193 159.501,477.789 159.556,480.385 159.647,482.98 159.776,485.573 159.94,488.164 160.141,490.753 160.379,493.339 160.653,495.92 160.964,498.498 161.31,501.071 161.694,503.64 161.694,503.64 162.014,505.573 162.371,507.499 162.764,509.419 163.193,511.331 163.658,513.234 164.158,515.129 164.693,517.014 165.264,518.888 165.869,520.752 166.51,522.604 167.185,524.443 167.185,524.443 167.7,525.754 168.251,527.051 168.836,528.333 169.456,529.598 170.11,530.846 170.797,532.076 171.517,533.287 172.27,534.478 173.054,535.648 173.87,536.797 174.717,537.923 175.593,539.026 176.499,540.104 177.434,541.158 177.434,541.158 177.901,541.64 178.395,542.094 178.915,542.517 179.459,542.909 180.026,543.268 180.613,543.592 181.218,543.881 181.839,544.134 182.474,544.349 183.121,544.526 183.777,544.665 184.441,544.764 185.109,544.823 185.779,544.843 " />
<polyline points="185.779,405.542 185.109,405.522 184.441,405.463 183.777,405.363 183.121,405.225 182.474,405.048 181.839,404.833 181.218,404.58 180.613,404.291 180.026,403.966 179.459,403.608 178.915,403.216 178.395,402.793 177.901,402.339 177.434,401.857 177.434,401.857 176.499,400.803 175.593,399.724 174.717,398.622 173.87,397.495 173.054,396.347 172.27,395.177 171.517,393.986 170.797,392.775 170.11,391.545 169.456,390.297 168.836,389.032 168.251,387.75 167.7,386.453 167.185,385.142 167.185,385.142 166.51,383.302 165.869,381.451 165.264,379.587 164.693,377.713 164.158,375.828 163.658,373.933 163.193,372.03 162.764,370.118 162.371,368.198 162.014,366.271 161.694,364.338 161.694,364.338 161.31,361.77 160.964,359.197 160.653,356.619 160.379,354.037 160.141,351.452 159.94,348.863 159.776,346.272 159.647,343.679 159.556,341.084 159.501,338.488 159.483,335.892 159.483,335.892 159.501,333.295 159.556,330.699 159.647,328.104 159.776,325.511 159.94,322.92 160.141,320.331 160.379,317.746 160.653,315.164 160.964,312.586 161.31,310.013 161.694,307.445 161.694,307.445 162.014,305.512 162.371,303.585 162.764,301.666 163.193,299.754 163.658,297.85 164.158,295.955 164.693,294.071 165.264,292.196 165.869,290.333 166.51,288.481 167.185,286.641 167.185,286.641 167.7,285.33 168.251,284.033 168.836,282.752 169.456,281.486 170.11,280.238 170.797,279.009 171.517,277.798 172.27,276.607 173.054,275.436 173.87,274.288 174.717,273.162 175.593,272.059 176.499,270.98 177.434,269.926 177.434,269.926 177.901,269.444 178.395,268.99 178.915,268.567 179.459,268.175 180.026,267.817 180.613,267.492 181.218,267.203 181.839,266.951 182.474,266.735 183.121,266.558 183.777,266.42 184.441,266.321 185.109,266.261 185.779,266.241 185.779,266.241 186.449,266.261 187.117,266.321 187.78,266.42 188.437,266.558 189.084,266.735 189.719,266.951 190.34,267.203 190.945,267.492 191.532,267.817 192.099,268.175 192.643,268.567 193.163,268.99 193.657,269.444 194.124,269.926 194.124,269.926 195.058,270.98 195.965,272.059 196.841,273.162 197.688,274.288 198.504,275.436 199.288,276.607 200.041,277.798 200.761,279.009 201.448,280.238 202.102,281.486 202.722,282.752 203.307,284.033 203.858,285.33 204.373,286.641 204.373,286.641 205.048,288.481 205.688,290.333 206.294,292.196 206.865,294.071 207.4,295.955 207.9,297.85 208.365,299.754 208.793,301.666 209.186,303.585 209.543,305.512 209.864,307.445 209.864,307.445 210.247,310.013 210.594,312.586 210.905,315.164 211.179,317.746 211.416,320.331 211.618,322.92 211.782,325.511 211.91,328.104 212.002,330.699 212.057,333.295 212.075,335.892 212.075,335.892 212.057,338.488 212.002,341.084 211.91,343.679 211.782,346.272 211.618,348.863 211.416,351.452 211.179,354.037 210.905,356.619 210.594,359.197 210.247,361.77 209.864,364.338 209.864,364.338 209.543,366.271 209.186,368.198 208.793,370.118 208.365,372.03 207.9,373.933 207.4,375.828 206.865,377.713 206.294,379.587 205.688,381.451 205.048,383.302 204.373,385.142 204.373,385.142 203.858,386.453 203.307,387.75 202.722,389.032 202.102,390.297 201.448,391.545 200.761,392.775 200.041,393.986 199.288,395.177 198.504,396.347 197.688,397.495 196.841,398.622 195.965,399.724 195.058,400.803 194.124,401.857 194.124,401.857 193.657,402.339 193.163,402.793 192.643,403.216 192.099,403.608 191.532,403.966 190.945,404.291 190.34,404.58 189.719,404.833 189.084,405.048 188.437,405.225 187.78,405.363 187.117,405.463 186.449,405.522 185.779,405.542 " />
</g>
<g clip-path="url(#clipId0)" fill="rgb(0,0,0)" stroke="rgb(0,0,0)" stroke-width="0.25" >
<path d="M536.087,346.625 533.181,345.131 530.153,354.597 530.153,354.597 z" />
</g>
<g clip-path="url(#clipId0)" fill="none" stroke="rgb(0,0,0)" stroke-width="0.25" >
<polyline points="534.634,345.878 552.101,311.892 " />
<polyline points="552.101,311.892 561.904,311.892 " />
</g>
<g clip-path="url(#clipId0)" fill="rgb(0,0,0)" stroke="rgb(0,0,0)" stroke-width="0.25" >
<path d="M568.47,176.155 565.63,174.54 562.204,183.869 562.204,183.869 z" />
</g>
<g clip-path="url(#clipId0)" fill="none" stroke="rgb(0,0,0)" stroke-width="0.25" >
<polyline points="567.05,175.347 591.527,132.307 " />
<polyline points="591.527,132.307 601.33,132.307 " />
</g>
<g clip-path="url(#clipId0)" fill="rgb(0,0,0)" stroke="rgb(0,0,0)" stroke-width="0.25" >
<path d="M391.195,203.213 388.025,204.006 391.99,213.119 391.99,213.119 z" />
</g>
<g clip-path="url(#clipId0)" fill="none" stroke="rgb(0,0,0)" stroke-width="0.25" >
<polyline points="389.61,203.609 379.087,161.557 " />
<polyline points="379.087,161.557 369.284,161.557 " />
</g>
<g clip-path="url(#clipId0)" fill="rgb(0,0,0)" stroke="rgb(0,0,0)" stroke-width="0.25" >
<path d="M550.477,528.383 547.523,526.987 544.812,536.549 544.812,536.549 z" />
</g>
<g clip-path="url(#clipId0)" fill="none" stroke="rgb(0,0,0)" stroke-width="0.25" >
<polyline points="549,527.685 568.271,486.897 " />
<polyline points="568.271,486.897 578.074,486.897 " />
<polyline points="594.808,612.578 604.611,612.578 " />
<polyline points="564.862,647.179 594.808,612.578 " />
</g>
<g clip-path="url(#clipId0)" fill="rgb(0,0,0)" stroke="rgb(0,0,0)" stroke-width="0.25" >
<path d="M563.627,646.11 566.097,648.248 558.447,654.591 558.447,654.591 z" />
<path d="M326.457,553.918 329.619,554.74 330.506,544.842 330.506,544.842 z" />
</g>
<g clip-path="url(#clipId0)" fill="none" stroke="rgb(0,0,0)" stroke-width="0.25" >
<polyline points="328.038,554.329 315.374,603.005 " />
<polyline points="315.374,603.005 305.571,603.005 " />
<polyline points="250.345,276.044 250.345,414.901 " />
<polyline points="250.345,535.04 250.345,446.528 " />
</g>
<g clip-path="url(#clipId0)" fill="rgb(0,0,0)" stroke="rgb(0,0,0)" stroke-width="0.25" >
<path d="M251.979,276.044 248.711,276.044 250.345,266.241 250.345,266.241 z" />
<path d="M251.979,535.04 248.711,535.04 250.345,544.843 250.345,544.843 z" />
</g>
<g clip-path="url(#clipId0)" fill="none" stroke="rgb(0,0,0)" stroke-width="0.1" >
<polyline points="377.964,266.241 377.964,266.241 " />
<polyline points="394.107,544.843 394.107,544.843 " />
<polyline points="250.345,544.843 250.345,544.843 " />
</g>
<g clip-path="url(#clipId0)" fill="none" stroke="rgb(0,0,0)" stroke-width="0.25" >
<polyline points="435.786,183.017 557.91,60.8931 " />
<polyline points="435.786,147.036 557.91,24.912 " />
<polyline points="435.786,111.055 539.312,7.52941 " />
<polyline points="435.786,75.0737 503.331,7.52941 " />
<polyline points="435.786,39.0926 467.35,7.52941 " />
<polyline points="449.605,205.179 557.91,96.8742 " />
<polyline points="485.586,205.179 557.91,132.855 " />
<polyline points="521.568,205.179 557.91,168.836 " />
<polyline points="557.549,205.179 557.91,204.817 " />
<polyline points="435.786,722.733 557.91,600.609 " />
<polyline points="435.786,686.752 550.988,571.551 " />
<polyline points="435.786,650.771 515.007,571.551 " />
<polyline points="435.786,614.79 479.026,571.551 " />
<polyline points="435.786,578.809 443.045,571.551 " />
<polyline points="435.791,758.71 557.91,636.59 " />
<polyline points="471.772,758.71 557.91,672.572 " />
<polyline points="507.753,758.71 557.91,708.553 " />
<polyline points="543.734,758.71 557.91,744.534 " />
<polyline points="400.438,405.542 426.429,405.542 " />
<polyline points="439.425,405.542 582.333,405.542 " />
<polyline points="597.919,405.542 629.091,405.542 " />
<polyline points="642.087,405.542 879.556,405.542 " />
</g>
<g clip-path="url(#clipId0)" fill="rgb(0,0,0)" stroke="rgb(0,0,0)" stroke-width="0.25" >
<path d="M370.06,338.614 370.06,340.085 292.331,340.085 292.331,338.614 z" />
<path d="M370.06,334.756 370.06,343.943 397.621,339.349 397.621,339.349 z" />
</g>
<g clip-path="url(#clipId0)" fill="none" stroke="rgb(0,0,0)" stroke-width="0.25" >
<polyline points="607.502,140.546 607.502,125.842 613.103,140.546 618.705,125.842 618.705,140.546 " />
<polyline points="628.508,125.842 627.108,126.542 625.707,127.942 625.007,129.343 624.307,131.443 624.307,134.944 625.007,137.045 625.707,138.446 627.108,139.846 628.508,140.546 631.309,140.546 632.71,139.846 634.11,138.446 634.81,137.045 635.51,134.944 635.51,131.443 634.81,129.343 634.11,127.942 632.71,126.542 631.309,125.842 628.508,125.842 " />
<polyline points="639.712,125.842 639.712,136.345 640.412,138.446 641.812,139.846 643.913,140.546 645.313,140.546 647.414,139.846 648.815,138.446 649.515,136.345 649.515,125.842 " />
<polyline points="655.116,140.546 655.116,125.842 664.92,140.546 664.92,125.842 " />
<polyline points="675.423,125.842 675.423,140.546 " />
<polyline points="670.521,125.842 680.324,125.842 " />
<polyline points="683.125,140.546 683.125,125.842 " />
<polyline points="688.727,140.546 688.727,125.842 698.53,140.546 698.53,125.842 " />
<polyline points="714.635,129.343 713.935,127.942 712.534,126.542 711.134,125.842 708.333,125.842 706.933,126.542 705.532,127.942 704.832,129.343 704.132,131.443 704.132,134.944 704.832,137.045 705.532,138.446 706.933,139.846 708.333,140.546 711.134,140.546 712.534,139.846 713.935,138.446 714.635,137.045 714.635,134.944 711.134,134.944 " />
<polyline points="732.14,140.546 737.742,125.842 743.344,140.546 " />
<polyline points="734.241,135.645 741.243,135.645 " />
<polyline points="747.545,140.546 747.545,125.842 757.348,140.546 757.348,125.842 " />
<polyline points="773.453,129.343 772.753,127.942 771.353,126.542 769.952,125.842 767.151,125.842 765.751,126.542 764.35,127.942 763.65,129.343 762.95,131.443 762.95,134.944 763.65,137.045 764.35,138.446 765.751,139.846 767.151,140.546 769.952,140.546 771.353,139.846 772.753,138.446 773.453,137.045 773.453,134.944 769.952,134.944 " />
<polyline points="777.655,125.842 777.655,140.546 786.057,140.546 " />
<polyline points="789.558,140.546 789.558,125.842 798.661,125.842 " />
<polyline points="789.558,132.844 795.16,132.844 " />
<polyline points="789.558,140.546 798.661,140.546 " />
<polyline points="821.068,123.041 819.668,124.441 818.267,126.542 816.867,129.343 816.167,132.844 816.167,135.645 816.867,139.146 818.267,141.947 819.668,144.047 821.068,145.448 " />
<polyline points="830.871,125.842 830.871,140.546 " />
<polyline points="825.97,125.842 835.773,125.842 " />
<polyline points="838.574,125.842 844.175,132.844 849.777,125.842 " />
<polyline points="844.175,132.844 844.175,140.546 " />
<polyline points="852.578,140.546 852.578,125.842 858.88,125.842 860.98,126.542 861.681,127.242 862.381,128.643 862.381,130.743 861.681,132.144 860.98,132.844 858.88,133.544 852.578,133.544 " />
<polyline points="867.983,139.146 867.282,139.846 867.983,140.546 868.683,139.846 " />
<polyline points="874.285,123.041 875.685,124.441 877.085,126.542 878.486,129.343 879.186,132.844 879.186,135.645 878.486,139.146 877.085,141.947 875.685,144.047 874.285,145.448 " />
<polyline points="591.022,308.137 591.022,322.842 " />
<polyline points="586.12,308.137 595.924,308.137 " />
<polyline points="598.724,308.137 604.326,315.139 609.928,308.137 " />
<polyline points="604.326,315.139 604.326,322.842 " />
<polyline points="612.729,322.842 612.729,308.137 619.031,308.137 621.131,308.837 621.832,309.538 622.532,310.938 622.532,313.039 621.832,314.439 621.131,315.139 619.031,315.84 612.729,315.84 " />
<polyline points="627.433,322.842 627.433,308.137 636.536,308.137 " />
<polyline points="627.433,315.139 633.035,315.139 " />
<polyline points="627.433,322.842 636.536,322.842 " />
<polyline points="655.442,306.036 654.742,306.737 654.042,306.036 654.742,305.336 655.442,306.036 655.442,307.437 654.742,308.837 654.042,309.538 " />
<polyline points="659.643,306.036 658.943,306.737 658.243,306.036 658.943,305.336 659.643,306.036 659.643,307.437 658.943,308.837 658.243,309.538 " />
<polyline points="675.048,311.638 674.348,310.238 672.947,308.837 671.547,308.137 668.746,308.137 667.346,308.837 665.945,310.238 665.245,311.638 664.545,313.739 664.545,317.24 665.245,319.341 665.945,320.741 667.346,322.141 668.746,322.842 671.547,322.842 672.947,322.141 674.348,320.741 675.048,319.341 " />
<polyline points="680.65,306.036 679.95,306.737 679.249,306.036 679.95,305.336 680.65,306.036 680.65,307.437 679.95,308.837 679.249,309.538 " />
<polyline points="684.851,306.036 684.151,306.737 683.451,306.036 684.151,305.336 684.851,306.036 684.851,307.437 684.151,308.837 683.451,309.538 " />
<polyline points="703.057,322.842 703.057,308.137 712.16,308.137 " />
<polyline points="703.057,315.139 708.659,315.139 " />
<polyline points="715.661,322.842 715.661,308.137 " />
<polyline points="721.262,322.842 721.262,308.137 727.564,308.137 729.665,308.837 730.365,309.538 731.066,310.938 731.066,312.338 730.365,313.739 729.665,314.439 727.564,315.139 721.262,315.139 " />
<polyline points="726.164,315.139 731.066,322.842 " />
<polyline points="735.967,322.842 735.967,308.137 745.07,308.137 " />
<polyline points="735.967,315.139 741.569,315.139 " />
<polyline points="735.967,322.842 745.07,322.842 " />
<polyline points="586.12,348.05 586.12,333.345 591.022,333.345 593.123,334.045 594.523,335.446 595.223,336.846 595.924,338.947 595.924,342.448 595.223,344.548 594.523,345.949 593.123,347.349 591.022,348.05 586.12,348.05 " />
<polyline points="600.825,348.05 606.427,333.345 612.029,348.05 " />
<polyline points="602.926,343.148 609.928,343.148 " />
<polyline points="616.23,348.05 616.23,333.345 621.832,348.05 627.433,333.345 627.433,348.05 " />
<polyline points="633.035,348.05 633.035,333.345 639.337,333.345 641.438,334.045 642.138,334.745 642.838,336.146 642.838,338.246 642.138,339.647 641.438,340.347 639.337,341.047 633.035,341.047 " />
<polyline points="647.74,348.05 647.74,333.345 656.842,333.345 " />
<polyline points="647.74,340.347 653.341,340.347 " />
<polyline points="647.74,348.05 656.842,348.05 " />
<polyline points="661.044,348.05 661.044,333.345 667.346,333.345 669.446,334.045 670.147,334.745 670.847,336.146 670.847,337.546 670.147,338.947 669.446,339.647 667.346,340.347 661.044,340.347 " />
<polyline points="665.945,340.347 670.847,348.05 " />
<polyline points="693.954,330.544 692.554,331.945 691.153,334.045 689.753,336.846 689.052,340.347 689.052,343.148 689.753,346.649 691.153,349.45 692.554,351.551 693.954,352.951 " />
<polyline points="698.856,333.345 704.457,348.05 710.059,333.345 " />
<polyline points="712.86,348.05 712.86,333.345 721.963,333.345 " />
<polyline points="712.86,340.347 718.462,340.347 " />
<polyline points="712.86,348.05 721.963,348.05 " />
<polyline points="726.164,348.05 726.164,333.345 732.466,333.345 734.567,334.045 735.267,334.745 735.967,336.146 735.967,337.546 735.267,338.947 734.567,339.647 732.466,340.347 726.164,340.347 " />
<polyline points="731.066,340.347 735.967,348.05 " />
<polyline points="745.77,333.345 745.77,348.05 " />
<polyline points="740.869,333.345 750.672,333.345 " />
<polyline points="754.173,346.649 753.473,347.349 754.173,348.05 754.873,347.349 " />
<polyline points="590.322,358.553 588.921,359.253 587.521,360.653 586.821,362.054 586.12,364.155 586.12,367.656 586.821,369.756 587.521,371.157 588.921,372.557 590.322,373.257 593.123,373.257 594.523,372.557 595.924,371.157 596.624,369.756 597.324,367.656 597.324,364.155 596.624,362.054 595.924,360.653 594.523,359.253 593.123,358.553 590.322,358.553 " />
<polyline points="601.525,373.257 601.525,358.553 607.827,358.553 609.928,359.253 610.628,359.953 611.328,361.354 611.328,362.754 610.628,364.155 609.928,364.855 607.827,365.555 601.525,365.555 " />
<polyline points="606.427,365.555 611.328,373.257 " />
<polyline points="629.534,373.257 629.534,358.553 " />
<polyline points="639.337,358.553 639.337,373.257 " />
<polyline points="629.534,365.555 639.337,365.555 " />
<polyline points="649.14,358.553 647.74,359.253 646.339,360.653 645.639,362.054 644.939,364.155 644.939,367.656 645.639,369.756 646.339,371.157 647.74,372.557 649.14,373.257 651.941,373.257 653.341,372.557 654.742,371.157 655.442,369.756 656.142,367.656 656.142,364.155 655.442,362.054 654.742,360.653 653.341,359.253 651.941,358.553 649.14,358.553 " />
<polyline points="660.344,373.257 660.344,358.553 666.646,358.553 668.746,359.253 669.446,359.953 670.147,361.354 670.147,362.754 669.446,364.155 668.746,364.855 666.646,365.555 660.344,365.555 " />
<polyline points="665.245,365.555 670.147,373.257 " />
<polyline points="675.048,373.257 675.048,358.553 " />
<polyline points="680.65,358.553 690.453,358.553 680.65,373.257 690.453,373.257 " />
<polyline points="695.354,371.857 694.654,372.557 695.354,373.257 696.055,372.557 " />
<polyline points="701.656,355.752 703.057,357.152 704.457,359.253 705.858,362.054 706.558,365.555 706.558,368.356 705.858,371.857 704.457,374.658 703.057,376.758 701.656,378.159 " />
<polyline points="588.192,478.023 587.492,478.723 586.791,478.023 587.492,477.323 588.192,478.023 588.192,479.423 587.492,480.824 586.791,481.524 " />
<polyline points="592.393,478.023 591.693,478.723 590.993,478.023 591.693,477.323 592.393,478.023 592.393,479.423 591.693,480.824 590.993,481.524 " />
<polyline points="607.098,482.224 605.697,480.824 603.597,480.124 600.796,480.124 598.695,480.824 597.295,482.224 597.295,483.625 597.995,485.025 598.695,485.725 600.095,486.426 604.297,487.826 605.697,488.526 606.397,489.226 607.098,490.627 607.098,492.728 605.697,494.128 603.597,494.828 600.796,494.828 598.695,494.128 597.295,492.728 " />
<polyline points="612.699,478.023 611.999,478.723 611.299,478.023 611.999,477.323 612.699,478.023 612.699,479.423 611.999,480.824 611.299,481.524 " />
<polyline points="616.901,478.023 616.2,478.723 615.5,478.023 616.2,477.323 616.901,478.023 616.901,479.423 616.2,480.824 615.5,481.524 " />
<polyline points="644.909,482.224 643.509,480.824 641.408,480.124 638.607,480.124 636.507,480.824 635.106,482.224 635.106,483.625 635.807,485.025 636.507,485.725 637.907,486.426 642.109,487.826 643.509,488.526 644.209,489.226 644.909,490.627 644.909,492.728 643.509,494.128 641.408,494.828 638.607,494.828 636.507,494.128 635.106,492.728 " />
<polyline points="649.111,480.124 649.111,494.828 657.513,494.828 " />
<polyline points="661.014,494.828 661.014,480.124 " />
<polyline points="666.616,494.828 666.616,480.124 672.918,480.124 675.019,480.824 675.719,481.524 676.419,482.924 676.419,485.025 675.719,486.426 675.019,487.126 672.918,487.826 666.616,487.826 " />
<polyline points="612.512,621.855 612.512,607.15 621.615,607.15 " />
<polyline points="612.512,614.152 618.114,614.152 " />
<polyline points="625.116,621.855 625.116,607.15 " />
<polyline points="630.718,621.855 630.718,607.15 637.02,607.15 639.121,607.851 639.821,608.551 640.521,609.951 640.521,611.352 639.821,612.752 639.121,613.452 637.02,614.152 630.718,614.152 " />
<polyline points="635.619,614.152 640.521,621.855 " />
<polyline points="645.423,621.855 645.423,607.15 654.525,607.15 " />
<polyline points="645.423,614.152 651.024,614.152 " />
<polyline points="645.423,621.855 654.525,621.855 " />
<polyline points="672.031,621.855 672.031,607.15 678.333,607.15 680.433,607.851 681.134,608.551 681.834,609.951 681.834,611.352 681.134,612.752 680.433,613.452 678.333,614.152 " />
<polyline points="672.031,614.152 678.333,614.152 680.433,614.853 681.134,615.553 681.834,616.953 681.834,619.054 681.134,620.454 680.433,621.155 678.333,621.855 672.031,621.855 " />
<polyline points="686.735,621.855 692.337,607.15 697.939,621.855 " />
<polyline points="688.836,616.953 695.838,616.953 " />
<polyline points="702.14,621.855 702.14,607.15 708.442,607.15 710.543,607.851 711.243,608.551 711.943,609.951 711.943,611.352 711.243,612.752 710.543,613.452 708.442,614.152 702.14,614.152 " />
<polyline points="707.042,614.152 711.943,621.855 " />
<polyline points="716.845,621.855 716.845,607.15 723.147,607.15 725.247,607.851 725.948,608.551 726.648,609.951 726.648,611.352 725.948,612.752 725.247,613.452 723.147,614.152 716.845,614.152 " />
<polyline points="721.746,614.152 726.648,621.855 " />
<polyline points="731.549,621.855 731.549,607.15 " />
<polyline points="737.151,621.855 737.151,607.15 746.254,607.15 " />
<polyline points="737.151,614.152 742.753,614.152 " />
<polyline points="737.151,621.855 746.254,621.855 " />
<polyline points="750.455,621.855 750.455,607.15 756.757,607.15 758.858,607.851 759.558,608.551 760.258,609.951 760.258,611.352 759.558,612.752 758.858,613.452 756.757,614.152 750.455,614.152 " />
<polyline points="755.357,614.152 760.258,621.855 " />
<polyline points="246.555,437.305 246.555,422.6 251.456,422.6 253.557,423.3 254.957,424.701 255.658,426.101 256.358,428.202 256.358,431.703 255.658,433.804 254.957,435.204 253.557,436.605 251.456,437.305 246.555,437.305 " />
<polyline points="327.033,310.069 325.633,310.769 324.232,312.17 323.532,313.57 322.832,315.671 322.832,319.172 323.532,321.273 324.232,322.673 325.633,324.073 327.033,324.774 329.834,324.774 331.235,324.073 332.635,322.673 333.335,321.273 334.036,319.172 334.036,315.671 333.335,313.57 332.635,312.17 331.235,310.769 329.834,310.069 327.033,310.069 " />
<polyline points="329.134,321.973 333.335,326.174 " />
<polyline points="322.832,364.954 328.434,350.249 334.036,364.954 " />
<polyline points="324.933,360.053 331.935,360.053 " />
<polyline points="340.378,361.153 338.978,361.853 337.577,363.253 336.877,365.354 336.877,366.754 337.577,368.855 338.978,370.255 340.378,370.956 342.479,370.956 343.879,370.255 345.28,368.855 345.98,366.754 345.98,365.354 345.28,363.253 343.879,361.853 342.479,361.153 340.378,361.153 " />
<polyline points="188.623,158.285 187.223,156.885 185.122,156.185 182.321,156.185 180.221,156.885 178.82,158.285 178.82,159.686 179.52,161.086 180.221,161.786 181.621,162.486 185.822,163.887 187.223,164.587 187.923,165.287 188.623,166.688 188.623,168.788 187.223,170.189 185.122,170.889 182.321,170.889 180.221,170.189 178.82,168.788 " />
<polyline points="192.825,156.185 192.825,170.889 201.227,170.889 " />
<polyline points="204.728,170.889 204.728,156.185 213.831,156.185 " />
<polyline points="204.728,163.187 210.33,163.187 " />
<polyline points="204.728,170.889 213.831,170.889 " />
<polyline points="218.032,170.889 218.032,156.185 227.135,156.185 " />
<polyline points="218.032,163.187 223.634,163.187 " />
<polyline points="218.032,170.889 227.135,170.889 " />
<polyline points="231.337,156.185 236.938,170.889 242.54,156.185 " />
<polyline points="245.341,170.889 245.341,156.185 254.444,156.185 " />
<polyline points="245.341,163.187 250.943,163.187 " />
<polyline points="245.341,170.889 254.444,170.889 " />
<polyline points="276.851,153.384 275.45,154.784 274.05,156.885 272.649,159.686 271.949,163.187 271.949,165.988 272.649,169.489 274.05,172.29 275.45,174.39 276.851,175.791 " />
<polyline points="281.752,156.185 285.253,170.889 288.754,156.185 292.255,170.889 295.757,156.185 " />
<polyline points="311.862,170.889 319.564,161.086 " />
<polyline points="319.564,170.889 311.862,161.086 " />
<polyline points="337.069,170.889 337.069,156.185 " />
<polyline points="346.872,156.185 346.872,170.889 " />
<polyline points="337.069,163.187 346.872,163.187 " />
<polyline points="352.474,153.384 353.875,154.784 355.275,156.885 356.676,159.686 357.376,163.187 357.376,165.988 356.676,169.489 355.275,172.29 353.875,174.39 352.474,175.791 " />
<polyline points="243.19,609.953 243.19,595.249 248.092,595.249 250.193,595.949 251.593,597.349 252.293,598.75 252.993,600.85 252.993,604.351 252.293,606.452 251.593,607.852 250.193,609.253 248.092,609.953 243.19,609.953 " />
<polyline points="257.895,595.249 257.895,605.752 258.595,607.852 259.996,609.253 262.096,609.953 263.497,609.953 265.597,609.253 266.998,607.852 267.698,605.752 267.698,595.249 " />
<polyline points="283.803,598.75 283.103,597.349 281.702,595.949 280.302,595.249 277.501,595.249 276.101,595.949 274.7,597.349 274,598.75 273.3,600.85 273.3,604.351 274,606.452 274.7,607.852 276.101,609.253 277.501,609.953 280.302,609.953 281.702,609.253 283.103,607.852 283.803,606.452 " />
<polyline points="292.906,595.249 292.906,609.953 " />
<polyline points="288.004,595.249 297.807,595.249 " />
<polyline points="561.904,311.892 571.707,311.892 " />
<polyline points="792.315,744.039 791.288,741.985 789.234,739.931 787.18,738.904 783.072,738.904 781.018,739.931 778.964,741.985 777.937,744.039 776.91,747.12 776.91,752.255 777.937,755.336 778.964,757.39 781.018,759.444 783.072,760.471 787.18,760.471 789.234,759.444 791.288,757.39 792.315,755.336 " stroke-dasharray="61.269042,12.253808,12.253808,12.253808" />
<polyline points="798.476,760.471 798.476,738.904 805.665,738.904 808.746,739.931 810.8,741.985 811.827,744.039 812.854,747.12 812.854,752.255 811.827,755.336 810.8,757.39 808.746,759.444 805.665,760.471 798.476,760.471 " stroke-dasharray="61.269042,12.253808,12.253808,12.253808" />
<polyline points="833.394,746.093 832.367,749.174 830.313,751.228 827.232,752.255 826.205,752.255 823.124,751.228 821.07,749.174 820.043,746.093 820.043,745.066 821.07,741.985 823.124,739.931 826.205,738.904 827.232,738.904 830.313,739.931 832.367,741.985 833.394,746.093 833.394,751.228 832.367,756.363 830.313,759.444 827.232,760.471 825.178,760.471 822.097,759.444 821.07,757.39 " stroke-dasharray="61.269042,12.253808,12.253808,12.253808" />
<polyline points="840.583,751.228 859.069,751.228 " stroke-dasharray="61.269042,12.253808,12.253808,12.253808" />
<polyline points="869.338,738.904 880.635,738.904 874.473,747.12 877.554,747.12 879.608,748.147 880.635,749.174 881.662,752.255 881.662,754.309 880.635,757.39 878.581,759.444 875.5,760.471 872.419,760.471 869.338,759.444 868.311,758.417 867.284,756.363 " stroke-dasharray="61.269042,12.253808,12.253808,12.253808" />
</g>
</svg>
