<?xml version="1.0" standalone="no"?>
<svg viewBox="0 0 1024 768" version="1.1" xmlns="http://www.w3.org/2000/svg" xmlns:xlink="http://www.w3.org/1999/xlink" stroke-linecap="round" stroke-linejoin="round" fill-rule="evenodd" xml:space="preserve" >
<defs >
<clipPath id="clipId0" >
<path d="M0,768 1024,768 1024,0 0,0 z" />
</clipPath>
</defs>
<g clip-path="url(#clipId0)" fill="none" stroke="rgb(0,0,0)" stroke-width="0.1" />
<g clip-path="url(#clipId0)" fill="none" stroke="rgb(0,0,0)" stroke-width="0.5" >
<polyline points="732.984,727.819 730.943,723.737 726.862,719.656 722.78,717.615 714.617,717.615 710.536,719.656 706.454,723.737 704.414,727.819 702.373,733.941 702.373,744.145 704.414,750.267 706.454,754.348 710.536,758.43 714.617,760.471 722.78,760.471 726.862,758.43 730.943,754.348 732.984,750.267 " />
<polyline points="732.984,727.819 730.943,727.819 728.903,723.737 726.862,721.696 722.78,719.656 714.617,719.656 710.536,721.696 706.454,727.819 704.414,733.941 704.414,744.145 706.454,750.267 710.536,756.389 714.617,758.43 722.78,758.43 726.862,756.389 728.903,754.348 730.943,750.267 732.984,750.267 " />
<polyline points="747.269,717.615 747.269,760.471 " />
<polyline points="749.31,719.656 749.31,760.471 747.269,760.471 " />
<polyline points="747.269,717.615 771.758,717.615 " />
<polyline points="749.31,719.656 771.758,719.656 771.758,717.615 " />
<polyline points="749.31,738.022 761.555,738.022 761.555,740.063 " />
<polyline points="749.31,740.063 761.555,740.063 " />
<polyline points="788.084,725.778 792.166,723.737 798.288,717.615 798.288,760.471 " />
<polyline points="788.084,725.778 788.084,727.819 792.166,725.778 796.247,721.696 796.247,760.471 798.288,760.471 " />
<polyline points="828.899,725.778 832.981,723.737 839.103,717.615 839.103,760.471 " />
<polyline points="828.899,725.778 828.899,727.819 832.981,725.778 837.062,721.696 837.062,760.471 839.103,760.471 " />
<polyline points="865.633,740.063 900.326,740.063 900.326,742.104 " />
<polyline points="865.633,740.063 865.633,742.104 900.326,742.104 " />
<polyline points="920.733,725.778 924.815,723.737 930.937,717.615 930.937,760.471 " />
<polyline points="920.733,725.778 920.733,727.819 924.815,725.778 928.896,721.696 928.896,760.471 930.937,760.471 " />
<polyline points="254.066,317.719 252.554,316.207 250.286,315.452 247.263,315.452 244.996,316.207 243.484,317.719 243.484,319.231 244.24,320.742 244.996,321.498 246.507,322.254 251.042,323.766 252.554,324.522 253.31,325.277 254.066,326.789 254.066,329.057 252.554,330.568 250.286,331.324 247.263,331.324 244.996,330.568 243.484,329.057 " />
<polyline points="259.356,315.452 259.356,331.324 " />
<polyline points="259.356,315.452 269.182,315.452 " />
<polyline points="259.356,323.01 265.403,323.01 " />
<polyline points="259.356,331.324 269.182,331.324 " />
<polyline points="284.299,319.231 283.543,317.719 282.031,316.207 280.52,315.452 277.496,315.452 275.985,316.207 274.473,317.719 273.717,319.231 272.961,321.498 272.961,325.277 273.717,327.545 274.473,329.057 275.985,330.568 277.496,331.324 280.52,331.324 282.031,330.568 283.543,329.057 284.299,327.545 " />
<polyline points="292.613,315.452 292.613,331.324 " />
<polyline points="287.322,315.452 297.904,315.452 " />
<polyline points="301.683,315.452 301.683,331.324 " />
<polyline points="311.509,315.452 309.997,316.207 308.486,317.719 307.73,319.231 306.974,321.498 306.974,325.277 307.73,327.545 308.486,329.057 309.997,330.568 311.509,331.324 314.532,331.324 316.044,330.568 317.556,329.057 318.311,327.545 319.067,325.277 319.067,321.498 318.311,319.231 317.556,317.719 316.044,316.207 314.532,315.452 311.509,315.452 " />
<polyline points="324.358,315.452 324.358,331.324 " />
<polyline points="324.358,315.452 334.94,331.324 " />
<polyline points="334.94,315.452 334.94,331.324 " />
<polyline points="367.441,319.231 366.685,317.719 365.173,316.207 363.661,315.452 360.638,315.452 359.126,316.207 357.615,317.719 356.859,319.231 356.103,321.498 356.103,325.277 356.859,327.545 357.615,329.057 359.126,330.568 360.638,331.324 363.661,331.324 365.173,330.568 366.685,329.057 367.441,327.545 " />
<polyline points="372.731,324.522 386.336,324.522 " />
<polyline points="402.965,319.231 402.209,317.719 400.697,316.207 399.186,315.452 396.162,315.452 394.651,316.207 393.139,317.719 392.383,319.231 391.627,321.498 391.627,325.277 392.383,327.545 393.139,329.057 394.651,330.568 396.162,331.324 399.186,331.324 400.697,330.568 402.209,329.057 402.965,327.545 " />
<polyline points="335.631,129.503 299.918,129.503 " stroke-dasharray="99.203087,19.840617,19.840617,19.840617" />
<polyline points="216.587,212.833 216.587,262.786 " stroke-dasharray="99.203087,19.840617,19.840617,19.840617" />
<polyline points="216.587,46.1723 216.587,7.52941 " stroke-dasharray="99.203087,19.840617,19.840617,19.840617" />
<polyline points="216.587,46.1723 216.587,90.7438 " stroke-dasharray="99.203087,19.840617,19.840617,19.840617" />
<polyline points="93.0631,129.503 178.464,129.503 " stroke-dasharray="99.203087,19.840617,19.840617,19.840617" />
<polyline points="418.961,212.833 418.961,262.786 " stroke-dasharray="99.203087,19.840617,19.840617,19.840617" />
<polyline points="418.961,46.1723 418.961,7.52941 " stroke-dasharray="99.203087,19.840617,19.840617,19.840617" />
<polyline points="502.292,129.503 539.106,129.503 " stroke-dasharray="99.203087,19.840617,19.840617,19.840617" />
<polyline points="502.292,129.503 457.712,129.503 " stroke-dasharray="99.203087,19.840617,19.840617,19.840617" />
<polyline points="418.961,46.1723 418.961,90.7438 " stroke-dasharray="99.203087,19.840617,19.840617,19.840617" />
<path d="M216.587,46.1723  A83.3306,83.3306 0 0,0 216.587,212.833 " />
<path d="M418.961,212.833  A83.3306,83.3306 0 0,0 418.961,46.1723 " />
<polyline points="418.961,212.833 216.587,212.833 " />
<polyline points="418.961,46.1723 216.587,46.1723 " />
<polyline points="613.108,622.148 133.256,622.148 " />
<polyline points="613.108,408.392 613.108,455.487 " />
<polyline points="613.108,455.487 133.256,455.487 " />
<polyline points="613.108,543.502 613.108,669.243 " />
<polyline points="613.108,543.502 639.567,526.103 603.36,516.359 613.108,508.781 " />
<polyline points="613.108,455.487 613.108,508.781 " />
<polyline points="133.256,455.487 133.256,508.781 " />
<polyline points="133.256,543.502 159.715,526.103 123.508,516.359 133.256,508.781 " />
<polyline points="133.256,543.502 133.256,669.243 " />
<polyline points="133.256,408.392 133.256,455.487 " />
</g>
<g clip-path="url(#clipId0)" fill="rgb(0,0,0)" stroke="rgb(0,0,0)" stroke-width="0.5" >
<polygon points="437.692,540.857 453.565,543.502 437.692,546.148 " />
</g>
<g clip-path="url(#clipId0)" fill="none" stroke="rgb(0,0,0)" stroke-width="0.5" >
<polyline points="437.692,543.502 333.803,543.502 " />
<polyline points="258.893,424.212 258.893,653.423 " />
</g>
<g clip-path="url(#clipId0)" fill="rgb(0,0,0)" stroke="rgb(0,0,0)" stroke-width="0.5" >
<polygon points="294.572,421.567 310.445,424.212 294.572,426.857 " />
</g>
<g clip-path="url(#clipId0)" fill="none" stroke="rgb(0,0,0)" stroke-width="0.5" >
<polyline points="294.572,424.212 258.893,424.212 " />
</g>
<g clip-path="url(#clipId0)" fill="rgb(0,0,0)" stroke="rgb(0,0,0)" stroke-width="0.5" >
<polygon points="294.572,650.778 310.445,653.423 294.572,656.069 " />
</g>
<g clip-path="url(#clipId0)" fill="none" stroke="rgb(0,0,0)" stroke-width="0.5" >
<polyline points="294.572,653.423 258.893,653.423 " />
<polyline points="328.893,421.445 328.137,419.933 326.626,418.422 325.114,417.666 322.091,417.666 320.579,418.422 319.067,419.933 318.311,421.445 317.556,423.713 317.556,427.492 318.311,429.759 319.067,431.271 320.579,432.783 322.091,433.538 325.114,433.538 326.626,432.783 328.137,431.271 328.893,429.759 " />
<polyline points="328.893,650.657 328.137,649.145 326.626,647.633 325.114,646.877 322.091,646.877 320.579,647.633 319.067,649.145 318.311,650.657 317.556,652.924 317.556,656.703 318.311,658.971 319.067,660.482 320.579,661.994 322.091,662.75 325.114,662.75 326.626,661.994 328.137,660.482 328.893,658.971 " />
<polyline points="358.451,558.2 358.451,568.782 " />
<polyline points="358.451,560.467 356.939,558.956 355.428,558.2 353.16,558.2 351.648,558.956 350.137,560.467 349.381,562.735 349.381,564.247 350.137,566.514 351.648,568.026 353.16,568.782 355.428,568.782 356.939,568.026 358.451,566.514 " />
<polyline points="379.614,558.2 387.928,568.782 " />
<polyline points="387.928,558.2 379.614,568.782 " />
<polyline points="412.871,552.909 406.824,568.782 " />
<polyline points="412.871,552.909 418.918,568.782 " />
<polyline points="409.092,563.491 416.65,563.491 " />
<polyline points="382.56,517.793 381.049,518.549 379.537,520.06 378.781,521.572 378.025,523.839 378.025,527.619 378.781,529.886 379.537,531.398 381.049,532.909 382.56,533.665 385.584,533.665 387.095,532.909 388.607,531.398 389.363,529.886 390.119,527.619 390.119,523.839 389.363,521.572 388.607,520.06 387.095,518.549 385.584,517.793 382.56,517.793 " />
<polyline points="384.828,530.642 389.363,535.177 " />
<polyline points="613.108,455.487 613.108,408.392 " />
<polyline points="558.695,705.154 382.803,705.154 " />
<polyline points="189.069,705.154 348.09,705.154 " />
</g>
<g clip-path="url(#clipId0)" fill="rgb(0,0,0)" stroke="rgb(0,0,0)" stroke-width="0.5" >
<path d="M558.695,702.508 558.695,707.799 574.567,705.154 574.567,705.154 z" />
<path d="M189.069,702.508 189.069,707.799 173.197,705.154 173.197,705.154 z" />
</g>
<g clip-path="url(#clipId0)" fill="none" stroke="rgb(0,0,0)" stroke-width="0.5" >
<polyline points="362.307,697.127 362.307,713 371.377,713 " />
<polyline points="464.862,46.1723 582.335,46.1723 " />
<polyline points="464.862,212.833 582.335,212.833 " />
<polyline points="579.478,62.0448 579.478,117.516 " />
<polyline points="579.478,196.961 579.478,147.683 " />
</g>
<g clip-path="url(#clipId0)" fill="rgb(0,0,0)" stroke="rgb(0,0,0)" stroke-width="0.5" >
<path d="M576.832,62.0448 582.123,62.0448 579.478,46.1723 579.478,46.1723 z" />
<path d="M576.832,196.961 582.123,196.961 579.478,212.833 579.478,212.833 z" />
</g>
<g clip-path="url(#clipId0)" fill="none" stroke="rgb(0,0,0)" stroke-width="0.5" >
<polyline points="584.013,126.857 584.013,137.439 " />
<polyline points="584.013,129.125 582.501,127.613 580.989,126.857 578.722,126.857 577.21,127.613 575.699,129.125 574.943,131.392 574.943,132.904 575.699,135.172 577.21,136.683 578.722,137.439 580.989,137.439 582.501,136.683 584.013,135.172 " />
<polyline points="133.256,169.372 133.256,280.672 " />
<polyline points="502.292,169.372 502.292,280.672 " />
<polyline points="149.129,277.815 302.722,277.815 " />
<polyline points="486.419,277.815 333.45,277.815 " />
</g>
<g clip-path="url(#clipId0)" fill="rgb(0,0,0)" stroke="rgb(0,0,0)" stroke-width="0.5" >
<path d="M149.129,275.17 149.129,280.461 133.256,277.815 133.256,277.815 z" />
<path d="M486.419,275.17 486.419,280.461 502.292,277.815 502.292,277.815 z" />
</g>
<g clip-path="url(#clipId0)" fill="none" stroke="rgb(0,0,0)" stroke-width="0.5" >
<polyline points="317.774,268.53 311.728,284.403 " />
<polyline points="317.774,268.53 323.821,284.403 " />
<polyline points="313.995,279.112 321.553,279.112 " />
<polyline points="196.49,129.503 238.663,129.503 " stroke-dasharray="99.203087,19.840617,19.840617,19.840617" />
<polyline points="258.757,129.503 299.918,129.503 " stroke-dasharray="99.203087,19.840617,19.840617,19.840617" />
<polyline points="216.587,147.556 216.587,149.374 " stroke-dasharray="99.203087,19.840617,19.840617,19.840617" />
<polyline points="216.587,168.013 216.587,212.833 " stroke-dasharray="99.203087,19.840617,19.840617,19.840617" />
<polyline points="216.587,109.379 216.587,147.556 " stroke-dasharray="99.203087,19.840617,19.840617,19.840617" />
<polyline points="418.961,168.013 418.961,212.833 " stroke-dasharray="99.203087,19.840617,19.840617,19.840617" />
<polyline points="418.961,109.379 418.961,149.374 " stroke-dasharray="99.203087,19.840617,19.840617,19.840617" />
<polyline points="374.669,129.503 335.631,129.503 " stroke-dasharray="99.203087,19.840617,19.840617,19.840617" />
<polyline points="437.834,129.503 396.822,129.503 " stroke-dasharray="99.203087,19.840617,19.840617,19.840617" />
</g>
</svg>
