<?xml version="1.0" standalone="no"?>
<svg viewBox="0 0 1024 768" version="1.1" xmlns="http://www.w3.org/2000/svg" xmlns:xlink="http://www.w3.org/1999/xlink" stroke-linecap="round" stroke-linejoin="round" fill-rule="evenodd" xml:space="preserve" >
<defs >
<clipPath id="clipId0" >
<path d="M0,768 1024,768 1024,0 0,0 z" />
</clipPath>
</defs>
<g clip-path="url(#clipId0)" fill="none" stroke="rgb(0,0,0)" stroke-width="0.1" />
<g clip-path="url(#clipId0)" fill="none" stroke="rgb(0,0,0)" stroke-width="0.5" >
<polyline points="1012.79,46.5663 801.123,258.237 " />
<polyline points="790.228,46.5663 1012.79,46.5663 " />
<polyline points="1012.79,272.245 801.123,272.245 " />
<polyline points="1012.79,269.132 801.123,269.132 " />
<polyline points="1012.79,295.591 801.123,295.591 " />
<polyline points="787.115,46.5663 787.115,258.237 " />
<polyline points="790.228,46.5663 790.228,258.237 " />
<polyline points="763.769,46.5663 763.769,258.237 " />
<polyline points="263.89,46.5663 513.55,46.5663 " />
<polyline points="787.115,258.237 763.769,258.237 " />
<polyline points="801.123,272.245 801.123,295.591 " />
<polyline points="801.123,258.237 801.123,269.132 " />
<path d="M801.123,269.132  A1.62125,1.62125 0 0,0 801.123,272.245 " />
<polyline points="801.123,258.237 790.228,258.237 " />
</g>
<g clip-path="url(#clipId0)" fill="none" stroke="rgb(0,0,0)" stroke-width="0.1" >
<polyline points="788.672,259.404 788.672,259.404 " />
</g>
<g clip-path="url(#clipId0)" fill="none" stroke="rgb(0,0,0)" stroke-width="0.5" >
<path d="M787.115,258.237  A1.62125,1.62125 0 0,0 790.228,258.237 " />
<polyline points="763.769,46.5663 787.115,46.5663 " />
<polyline points="46.9233,125.3 46.9233,168.331 " />
<polyline points="46.9233,134.521 40.7759,128.374 34.6286,125.3 25.4076,125.3 19.2602,128.374 13.1129,134.521 10.0392,143.742 10.0392,149.889 13.1129,159.11 19.2602,165.258 25.4076,168.331 34.6286,168.331 40.7759,165.258 46.9233,159.11 " />
<path d="M790.228,46.5663  A1.62125,1.62125 0 0,0 787.115,46.5663 " />
<polyline points="1012.79,46.5663 1012.79,269.132 " />
<polyline points="1012.79,46.5663 1012.79,269.132 " />
<polyline points="1012.79,272.245 1012.79,295.591 " />
<polyline points="1012.79,272.245 1012.79,295.591 " />
<path d="M1012.79,272.245  A1.62125,1.62125 0 0,0 1012.79,269.132 " />
<polyline points="809.972,684.252 807.575,679.459 802.782,674.665 797.988,672.268 788.401,672.268 783.607,674.665 778.814,679.459 776.417,684.252 774.02,691.443 774.02,703.427 776.417,710.617 778.814,715.411 783.607,720.204 788.401,722.601 797.988,722.601 802.782,720.204 807.575,715.411 809.972,710.617 " />
<polyline points="809.972,684.252 807.575,684.252 805.178,679.459 802.782,677.062 797.988,674.665 788.401,674.665 783.607,677.062 778.814,684.252 776.417,691.443 776.417,703.427 778.814,710.617 783.607,717.807 788.401,720.204 797.988,720.204 802.782,717.807 805.178,715.411 807.575,710.617 809.972,710.617 " />
<polyline points="826.75,672.268 826.75,722.601 " />
<polyline points="829.146,674.665 829.146,722.601 826.75,722.601 " />
<polyline points="826.75,672.268 855.511,672.268 " />
<polyline points="829.146,674.665 855.511,674.665 855.511,672.268 " />
<polyline points="829.146,696.236 843.527,696.236 843.527,698.633 " />
<polyline points="829.146,698.633 843.527,698.633 " />
<polyline points="872.289,672.268 898.653,672.268 881.876,693.839 " />
<polyline points="872.289,672.268 872.289,674.665 896.257,674.665 " />
<polyline points="896.257,672.268 879.479,693.839 " />
<polyline points="881.876,691.443 886.669,691.443 893.86,693.839 898.653,698.633 901.05,705.823 901.05,708.22 898.653,715.411 893.86,720.204 886.669,722.601 879.479,722.601 872.289,720.204 869.892,717.807 867.495,713.014 869.892,713.014 " />
<polyline points="879.479,693.839 886.669,693.839 893.86,696.236 898.653,703.427 " />
<polyline points="889.066,693.839 896.257,698.633 898.653,705.823 898.653,708.22 896.257,715.411 889.066,720.204 " />
<polyline points="898.653,710.617 893.86,717.807 886.669,720.204 879.479,720.204 872.289,717.807 869.892,713.014 " />
<polyline points="877.082,720.204 869.892,715.411 " />
<polyline points="917.828,698.633 958.573,698.633 958.573,701.03 " />
<polyline points="917.828,698.633 917.828,701.03 958.573,701.03 " />
<polyline points="980.145,672.268 1006.51,672.268 989.732,693.839 " />
<polyline points="980.145,672.268 980.145,674.665 1004.11,674.665 " />
<polyline points="1004.11,672.268 987.335,693.839 " />
<polyline points="989.732,691.443 994.525,691.443 1001.72,693.839 1006.51,698.633 1008.91,705.823 1008.91,708.22 1006.51,715.411 1001.72,720.204 994.525,722.601 987.335,722.601 980.145,720.204 977.748,717.807 975.351,713.014 977.748,713.014 " />
<polyline points="987.335,693.839 994.525,693.839 1001.72,696.236 1006.51,703.427 " />
<polyline points="996.922,693.839 1004.11,698.633 1006.51,705.823 1006.51,708.22 1004.11,715.411 996.922,720.204 " />
<polyline points="1006.51,710.617 1001.72,717.807 994.525,720.204 987.335,720.204 980.145,717.807 977.748,713.014 " />
<polyline points="984.938,720.204 977.748,715.411 " />
<polyline points="513.55,258.237 263.89,258.237 " />
<polyline points="513.55,46.5663 513.55,258.573 " />
<polyline points="263.89,258.237 263.89,46.5663 " />
<path d="M263.89,46.5663  A105.835,105.835 0 1,0 263.89,258.237 " />
<path d="M513.55,258.237  A105.835,105.835 0 0,0 513.55,46.5663 " />
<polyline points="658.347,152.402 140.488,152.402 " />
<polyline points="619.385,152.402 619.385,269.132 " />
<polyline points="619.385,272.245 619.385,295.591 " />
<polyline points="158.055,152.402 158.055,269.132 " />
<polyline points="158.055,272.245 158.055,295.591 " />
<polyline points="619.385,295.591 158.055,295.591 " />
<polyline points="619.385,269.132 158.055,269.132 " />
<polyline points="619.385,272.245 527.735,272.245 " />
<polyline points="527.735,272.245 158.055,272.245 " />
<path d="M158.055,269.132  A1.5564,1.5564 0 0,0 158.055,272.245 " />
<path d="M619.385,272.245  A1.5564,1.5564 0 0,0 619.385,269.132 " />
<polyline points="225.759,46.5663 81.7687,46.5663 " />
<polyline points="225.759,258.237 81.7687,258.237 " />
<polyline points="81.7687,46.5663 81.7687,258.237 " />
<polyline points="158.055,328.222 158.055,433.594 " />
<polyline points="619.385,328.222 619.385,433.594 " />
<polyline points="158.055,433.594 619.385,433.594 " />
<polyline points="350.061,452.925 332.357,499.399 " />
<polyline points="350.061,452.925 367.765,499.399 " />
<polyline points="338.996,483.908 361.126,483.908 " />
<polyline points="906.958,152.402 735.772,152.402 " />
<polyline points="801.123,373.885 801.123,435.185 " />
<polyline points="1012.79,373.885 1012.79,435.185 " />
<polyline points="801.123,435.185 1012.79,435.185 " />
<polyline points="883.221,473.225 883.221,500.765 " />
<polyline points="883.221,479.126 879.287,475.192 875.352,473.225 869.451,473.225 865.517,475.192 861.582,479.126 859.615,485.028 859.615,488.962 861.582,494.864 865.517,498.798 869.451,500.765 875.352,500.765 879.287,498.798 883.221,494.864 " />
<polyline points="896.991,473.225 918.63,500.765 " />
<polyline points="918.63,473.225 896.991,500.765 " />
<polyline points="942.236,459.455 926.498,500.765 " />
<polyline points="942.236,459.455 957.973,500.765 " />
<polyline points="932.4,486.995 952.071,486.995 " />
<polyline points="158.874,433.594 158.055,432.775 " />
<polyline points="160.206,433.594 158.185,431.574 " />
<polyline points="161.537,433.594 159.292,431.349 " />
<polyline points="162.869,433.594 160.398,431.123 " />
<polyline points="164.2,433.594 161.504,430.898 " />
<polyline points="165.531,433.594 162.61,430.673 " />
<polyline points="166.863,433.594 163.717,430.448 " />
<polyline points="168.194,433.594 164.823,430.222 " />
<polyline points="169.526,433.594 165.929,429.997 " />
<polyline points="170.857,433.594 167.035,429.772 " />
<polyline points="172.189,433.594 168.142,429.547 " />
<polyline points="173.52,433.594 169.248,429.321 " />
<polyline points="174.852,433.594 170.354,429.096 " />
<polyline points="176.183,433.594 171.46,428.871 " />
<polyline points="177.515,433.594 172.567,428.646 " />
<polyline points="178.846,433.594 173.673,428.42 " />
<polyline points="180.178,433.594 174.779,428.195 " />
<polyline points="181.509,433.594 175.885,427.97 " />
<polyline points="182.841,433.594 176.991,427.745 " />
<polyline points="184.172,433.594 178.098,427.519 " />
<polyline points="185.504,433.594 179.204,427.294 " />
<polyline points="186.835,433.594 180.31,427.069 " />
<polyline points="187.655,433.082 181.416,426.844 " />
<polyline points="187.672,431.768 182.523,426.618 " />
<polyline points="187.688,430.453 183.629,426.393 " />
<polyline points="187.705,429.138 184.735,426.168 " />
<polyline points="187.722,427.823 185.841,425.943 " />
<polyline points="187.738,426.508 186.948,425.717 " />
<polyline points="159.119,433.839 158.874,433.594 " />
<polyline points="160.848,434.237 160.206,433.594 " />
<polyline points="162.578,434.635 161.537,433.594 " />
<polyline points="164.307,435.033 162.869,433.594 " />
<polyline points="166.037,435.431 164.2,433.594 " />
<polyline points="167.766,435.829 165.531,433.594 " />
<polyline points="169.496,436.227 166.863,433.594 " />
<polyline points="171.225,436.625 168.194,433.594 " />
<polyline points="172.955,437.023 169.526,433.594 " />
<polyline points="174.684,437.421 170.857,433.594 " />
<polyline points="176.414,437.819 172.189,433.594 " />
<polyline points="178.143,438.217 173.52,433.594 " />
<polyline points="179.873,438.615 174.852,433.594 " />
<polyline points="181.602,439.013 176.183,433.594 " />
<polyline points="183.332,439.411 177.515,433.594 " />
<polyline points="185.061,439.809 178.846,433.594 " />
<polyline points="186.791,440.207 180.178,433.594 " />
<polyline points="187.572,439.657 181.509,433.594 " />
<polyline points="187.589,438.342 182.841,433.594 " />
<polyline points="187.605,437.027 184.172,433.594 " />
<polyline points="187.622,435.712 185.504,433.594 " />
<polyline points="187.639,434.397 186.835,433.594 " />
<polyline points="158.055,433.594 187.563,440.384 " />
<polyline points="158.08,431.595 187.75,425.554 " />
<polyline points="801.942,435.185 801.123,434.366 " />
<polyline points="803.273,435.185 801.253,433.165 " />
<polyline points="804.605,435.185 802.359,432.939 " />
<polyline points="805.936,435.185 803.466,432.714 " />
<polyline points="807.268,435.185 804.572,432.489 " />
<polyline points="808.599,435.185 805.678,432.264 " />
<polyline points="809.931,435.185 806.784,432.038 " />
<polyline points="811.262,435.185 807.891,431.813 " />
<polyline points="812.594,435.185 808.997,431.588 " />
<polyline points="813.925,435.185 810.103,431.363 " />
<polyline points="815.257,435.185 811.209,431.137 " />
<polyline points="816.588,435.185 812.316,430.912 " />
<polyline points="817.92,435.185 813.422,430.687 " />
<polyline points="819.251,435.185 814.528,430.462 " />
<polyline points="820.583,435.185 815.634,430.236 " />
<polyline points="821.914,435.185 816.741,430.011 " />
<polyline points="823.246,435.185 817.847,429.786 " />
<polyline points="824.577,435.185 818.953,429.561 " />
<polyline points="825.909,435.185 820.059,429.335 " />
<polyline points="827.24,435.185 821.165,429.11 " />
<polyline points="828.572,435.185 822.272,428.885 " />
<polyline points="829.903,435.185 823.378,428.66 " />
<polyline points="830.723,434.673 824.484,428.434 " />
<polyline points="830.74,433.358 825.59,428.209 " />
<polyline points="830.756,432.044 826.697,427.984 " />
<polyline points="830.773,430.729 827.803,427.759 " />
<polyline points="830.789,429.414 828.909,427.533 " />
<polyline points="830.806,428.099 830.015,427.308 " />
<polyline points="802.187,435.43 801.942,435.185 " />
<polyline points="803.916,435.828 803.273,435.185 " />
<polyline points="805.646,436.226 804.605,435.185 " />
<polyline points="807.375,436.624 805.936,435.185 " />
<polyline points="809.105,437.022 807.268,435.185 " />
<polyline points="810.834,437.42 808.599,435.185 " />
<polyline points="812.564,437.818 809.931,435.185 " />
<polyline points="814.293,438.216 811.262,435.185 " />
<polyline points="816.022,438.614 812.594,435.185 " />
<polyline points="817.752,439.012 813.925,435.185 " />
<polyline points="819.481,439.41 815.257,435.185 " />
<polyline points="821.211,439.808 816.588,435.185 " />
<polyline points="822.94,440.206 817.92,435.185 " />
<polyline points="824.67,440.604 819.251,435.185 " />
<polyline points="826.399,441.002 820.583,435.185 " />
<polyline points="828.129,441.4 821.914,435.185 " />
<polyline points="829.858,441.798 823.246,435.185 " />
<polyline points="830.64,441.247 824.577,435.185 " />
<polyline points="830.656,439.933 825.909,435.185 " />
<polyline points="830.673,438.618 827.24,435.185 " />
<polyline points="830.69,437.303 828.572,435.185 " />
<polyline points="830.706,435.988 829.903,435.185 " />
<polyline points="801.123,435.185 830.631,441.975 " />
<polyline points="801.148,433.186 830.818,427.145 " />
<polyline points="618.591,431.595 619.41,432.414 " />
<polyline points="617.26,431.595 619.28,433.615 " />
<polyline points="615.928,431.595 618.174,433.841 " />
<polyline points="614.597,431.595 617.068,434.066 " />
<polyline points="613.266,431.595 615.961,434.291 " />
<polyline points="611.934,431.595 614.855,434.516 " />
<polyline points="610.603,431.595 613.749,434.742 " />
<polyline points="609.271,431.595 612.643,434.967 " />
<polyline points="607.94,431.595 611.536,435.192 " />
<polyline points="606.608,431.595 610.43,435.417 " />
<polyline points="605.277,431.595 609.324,435.643 " />
<polyline points="603.945,431.595 608.218,435.868 " />
<polyline points="602.614,431.595 607.111,436.093 " />
<polyline points="601.282,431.595 606.005,436.318 " />
<polyline points="599.951,431.595 604.899,436.544 " />
<polyline points="598.619,431.595 603.793,436.769 " />
<polyline points="597.288,431.595 602.687,436.994 " />
<polyline points="595.956,431.595 601.58,437.219 " />
<polyline points="594.625,431.595 600.474,437.445 " />
<polyline points="593.293,431.595 599.368,437.67 " />
<polyline points="591.962,431.595 598.262,437.895 " />
<polyline points="590.63,431.595 597.155,438.12 " />
<polyline points="589.81,432.107 596.049,438.346 " />
<polyline points="589.794,433.422 594.943,438.571 " />
<polyline points="589.777,434.737 593.837,438.796 " />
<polyline points="589.76,436.051 592.73,439.021 " />
<polyline points="589.744,437.366 591.624,439.247 " />
<polyline points="589.727,438.681 590.518,439.472 " />
<polyline points="618.347,431.351 618.591,431.595 " />
<polyline points="616.617,430.953 617.26,431.595 " />
<polyline points="614.888,430.555 615.928,431.595 " />
<polyline points="613.158,430.157 614.597,431.595 " />
<polyline points="611.429,429.759 613.266,431.595 " />
<polyline points="609.699,429.361 611.934,431.595 " />
<polyline points="607.97,428.963 610.603,431.595 " />
<polyline points="606.24,428.565 609.271,431.595 " />
<polyline points="604.511,428.167 607.94,431.595 " />
<polyline points="602.781,427.769 606.608,431.595 " />
<polyline points="601.052,427.371 605.277,431.595 " />
<polyline points="599.322,426.973 603.945,431.595 " />
<polyline points="597.593,426.575 602.614,431.595 " />
<polyline points="595.863,426.177 601.282,431.595 " />
<polyline points="594.134,425.779 599.951,431.595 " />
<polyline points="592.404,425.381 598.619,431.595 " />
<polyline points="590.675,424.983 597.288,431.595 " />
<polyline points="589.894,425.533 595.956,431.595 " />
<polyline points="589.877,426.848 594.625,431.595 " />
<polyline points="589.86,428.162 593.293,431.595 " />
<polyline points="589.844,429.477 591.962,431.595 " />
<polyline points="589.827,430.792 590.63,431.595 " />
<polyline points="619.41,431.595 589.903,424.805 " />
<polyline points="619.385,433.594 589.715,439.635 " />
<polyline points="81.794,255.419 80.9751,256.238 " />
<polyline points="81.794,254.088 79.774,256.108 " />
<polyline points="81.794,252.756 79.5487,255.002 " />
<polyline points="81.794,251.425 79.3234,253.895 " />
<polyline points="81.794,250.093 79.0982,252.789 " />
<polyline points="81.794,248.762 78.8729,251.683 " />
<polyline points="81.794,247.43 78.6477,250.577 " />
<polyline points="81.794,246.099 78.4224,249.47 " />
<polyline points="81.794,244.767 78.1972,248.364 " />
<polyline points="81.794,243.436 77.9719,247.258 " />
<polyline points="81.794,242.104 77.7467,246.152 " />
<polyline points="81.794,240.773 77.5214,245.045 " />
<polyline points="81.794,239.441 77.2962,243.939 " />
<polyline points="81.794,238.11 77.0709,242.833 " />
<polyline points="81.794,236.778 76.8457,241.727 " />
<polyline points="81.794,235.447 76.6204,240.621 " />
<polyline points="81.794,234.115 76.3952,239.514 " />
<polyline points="81.794,232.784 76.1699,238.408 " />
<polyline points="81.794,231.452 75.9447,237.302 " />
<polyline points="81.794,230.121 75.7194,236.196 " />
<polyline points="81.794,228.79 75.4942,235.089 " />
<polyline points="81.794,227.458 75.2689,233.983 " />
<polyline points="81.2824,226.638 75.0437,232.877 " />
<polyline points="79.9676,226.621 74.8184,231.771 " />
<polyline points="78.6527,226.605 74.5932,230.664 " />
<polyline points="77.3379,226.588 74.3679,229.558 " />
<polyline points="76.023,226.572 74.1426,228.452 " />
<polyline points="74.7082,226.555 73.9174,227.346 " />
<polyline points="82.0388,255.174 81.794,255.419 " />
<polyline points="82.4368,253.445 81.794,254.088 " />
<polyline points="82.8348,251.715 81.794,252.756 " />
<polyline points="83.2328,249.986 81.794,251.425 " />
<polyline points="83.6308,248.257 81.794,250.093 " />
<polyline points="84.0288,246.527 81.794,248.762 " />
<polyline points="84.4268,244.798 81.794,247.43 " />
<polyline points="84.8248,243.068 81.794,246.099 " />
<polyline points="85.2228,241.339 81.794,244.767 " />
<polyline points="85.6208,239.609 81.794,243.436 " />
<polyline points="86.0188,237.88 81.794,242.104 " />
<polyline points="86.4168,236.15 81.794,240.773 " />
<polyline points="86.8148,234.421 81.794,239.441 " />
<polyline points="87.2128,232.691 81.794,238.11 " />
<polyline points="87.6108,230.962 81.794,236.778 " />
<polyline points="88.0088,229.232 81.794,235.447 " />
<polyline points="88.4068,227.503 81.794,234.115 " />
<polyline points="87.8567,226.721 81.794,232.784 " />
<polyline points="86.5418,226.705 81.794,231.452 " />
<polyline points="85.227,226.688 81.794,230.121 " />
<polyline points="83.9121,226.671 81.794,228.79 " />
<polyline points="82.5973,226.655 81.794,227.458 " />
<polyline points="81.794,256.238 88.5845,226.731 " />
<polyline points="79.7953,256.213 73.7539,226.543 " />
<polyline points="1011.97,435.185 1012.79,436.004 " />
<polyline points="1010.64,435.185 1012.66,437.205 " />
<polyline points="1009.31,435.185 1011.56,437.43 " />
<polyline points="1007.98,435.185 1010.45,437.655 " />
<polyline points="1006.65,435.185 1009.34,437.881 " />
<polyline points="1005.32,435.185 1008.24,438.106 " />
<polyline points="1003.99,435.185 1007.13,438.331 " />
<polyline points="1002.65,435.185 1006.03,438.556 " />
<polyline points="1001.32,435.185 1004.92,438.782 " />
<polyline points="999.991,435.185 1003.81,439.007 " />
<polyline points="998.66,435.185 1002.71,439.232 " />
<polyline points="997.328,435.185 1001.6,439.457 " />
<polyline points="995.997,435.185 1000.49,439.683 " />
<polyline points="994.665,435.185 999.388,439.908 " />
<polyline points="993.334,435.185 998.282,440.133 " />
<polyline points="992.002,435.185 997.176,440.358 " />
<polyline points="990.671,435.185 996.07,440.584 " />
<polyline points="989.339,435.185 994.963,440.809 " />
<polyline points="988.008,435.185 993.857,441.034 " />
<polyline points="986.676,435.185 992.751,441.259 " />
<polyline points="985.345,435.185 991.645,441.485 " />
<polyline points="984.013,435.185 990.538,441.71 " />
<polyline points="983.193,435.696 989.432,441.935 " />
<polyline points="983.177,437.011 988.326,442.16 " />
<polyline points="983.16,438.326 987.22,442.386 " />
<polyline points="983.143,439.641 986.113,442.611 " />
<polyline points="983.127,440.956 985.007,442.836 " />
<polyline points="983.11,442.271 983.901,443.061 " />
<polyline points="1011.73,434.94 1011.97,435.185 " />
<polyline points="1010,434.542 1010.64,435.185 " />
<polyline points="1008.27,434.144 1009.31,435.185 " />
<polyline points="1006.54,433.746 1007.98,435.185 " />
<polyline points="1004.81,433.348 1006.65,435.185 " />
<polyline points="1003.08,432.95 1005.32,435.185 " />
<polyline points="1001.35,432.552 1003.99,435.185 " />
<polyline points="999.623,432.154 1002.65,435.185 " />
<polyline points="997.894,431.756 1001.32,435.185 " />
<polyline points="996.164,431.358 999.991,435.185 " />
<polyline points="994.435,430.96 998.66,435.185 " />
<polyline points="992.705,430.562 997.328,435.185 " />
<polyline points="990.976,430.164 995.997,435.185 " />
<polyline points="989.246,429.766 994.665,435.185 " />
<polyline points="987.517,429.368 993.334,435.185 " />
<polyline points="985.787,428.97 992.002,435.185 " />
<polyline points="984.058,428.572 990.671,435.185 " />
<polyline points="983.277,429.122 989.339,435.185 " />
<polyline points="983.26,430.437 988.008,435.185 " />
<polyline points="983.243,431.752 986.676,435.185 " />
<polyline points="983.227,433.067 985.345,435.185 " />
<polyline points="983.21,434.382 984.013,435.185 " />
<polyline points="1012.79,435.185 983.286,428.394 " />
<polyline points="1012.77,437.183 983.098,443.225 " />
<polyline points="81.7687,51.0827 82.5877,50.2638 " />
<polyline points="81.7687,52.4142 83.7888,50.3941 " />
<polyline points="81.7687,53.7457 84.0141,51.5004 " />
<polyline points="81.7687,55.0772 84.2393,52.6066 " />
<polyline points="81.7687,56.4087 84.4646,53.7128 " />
<polyline points="81.7687,57.7402 84.6898,54.8191 " />
<polyline points="81.7687,59.0716 84.9151,55.9253 " />
<polyline points="81.7687,60.4031 85.1403,57.0315 " />
<polyline points="81.7687,61.7346 85.3656,58.1378 " />
<polyline points="81.7687,63.0661 85.5908,59.244 " />
<polyline points="81.7687,64.3976 85.8161,60.3502 " />
<polyline points="81.7687,65.7291 86.0413,61.4565 " />
<polyline points="81.7687,67.0606 86.2666,62.5627 " />
<polyline points="81.7687,68.3921 86.4918,63.6689 " />
<polyline points="81.7687,69.7235 86.7171,64.7752 " />
<polyline points="81.7687,71.055 86.9424,65.8814 " />
<polyline points="81.7687,72.3865 87.1676,66.9877 " />
<polyline points="81.7687,73.718 87.3929,68.0939 " />
<polyline points="81.7687,75.0495 87.6181,69.2001 " />
<polyline points="81.7687,76.381 87.8434,70.3064 " />
<polyline points="81.7687,77.7125 88.0686,71.4126 " />
<polyline points="81.7687,79.044 88.2939,72.5188 " />
<polyline points="82.2803,79.8638 88.5191,73.6251 " />
<polyline points="83.5952,79.8805 88.7444,74.7313 " />
<polyline points="84.91,79.8971 88.9696,75.8375 " />
<polyline points="86.2249,79.9138 89.1949,76.9438 " />
<polyline points="87.5397,79.9304 89.4201,78.05 " />
<polyline points="88.8546,79.947 89.6454,79.1562 " />
<polyline points="81.5239,51.3275 81.7687,51.0827 " />
<polyline points="81.1259,53.057 81.7687,52.4142 " />
<polyline points="80.7279,54.7865 81.7687,53.7457 " />
<polyline points="80.3299,56.516 81.7687,55.0772 " />
<polyline points="79.932,58.2455 81.7687,56.4087 " />
<polyline points="79.534,59.9749 81.7687,57.7402 " />
<polyline points="79.136,61.7044 81.7687,59.0716 " />
<polyline points="78.738,63.4339 81.7687,60.4031 " />
<polyline points="78.34,65.1634 81.7687,61.7346 " />
<polyline points="77.942,66.8929 81.7687,63.0661 " />
<polyline points="77.544,68.6224 81.7687,64.3976 " />
<polyline points="77.146,70.3518 81.7687,65.7291 " />
<polyline points="76.748,72.0813 81.7687,67.0606 " />
<polyline points="76.35,73.8108 81.7687,68.3921 " />
<polyline points="75.952,75.5403 81.7687,69.7235 " />
<polyline points="75.554,77.2698 81.7687,71.055 " />
<polyline points="75.156,78.9993 81.7687,72.3865 " />
<polyline points="75.7061,79.7806 81.7687,73.718 " />
<polyline points="77.021,79.7973 81.7687,75.0495 " />
<polyline points="78.3358,79.8139 81.7687,76.381 " />
<polyline points="79.6507,79.8305 81.7687,77.7125 " />
<polyline points="80.9655,79.8472 81.7687,79.044 " />
<polyline points="81.7687,50.2638 74.9783,79.7714 " />
<polyline points="83.7674,50.2891 89.8089,79.9591 " />
<polyline points="81.7687,48.9645 82.5877,48.1456 " />
<polyline points="81.7687,50.296 83.7888,48.2759 " />
<polyline points="81.7687,51.6275 84.0141,49.3822 " />
<polyline points="81.7687,52.959 84.2393,50.4884 " />
<polyline points="81.7687,54.2905 84.4646,51.5946 " />
<polyline points="81.7687,55.622 84.6898,52.7009 " />
<polyline points="81.7687,56.9535 84.9151,53.8071 " />
<polyline points="81.7687,58.2849 85.1403,54.9134 " />
<polyline points="81.7687,59.6164 85.3656,56.0196 " />
<polyline points="81.7687,60.9479 85.5908,57.1258 " />
<polyline points="81.7687,62.2794 85.8161,58.2321 " />
<polyline points="81.7687,63.6109 86.0413,59.3383 " />
<polyline points="81.7687,64.9424 86.2666,60.4445 " />
<polyline points="81.7687,66.2739 86.4918,61.5508 " />
<polyline points="81.7687,67.6054 86.7171,62.657 " />
<polyline points="81.7687,68.9368 86.9424,63.7632 " />
<polyline points="81.7687,70.2683 87.1676,64.8695 " />
<polyline points="81.7687,71.5998 87.3929,65.9757 " />
<polyline points="81.7687,72.9313 87.6181,67.0819 " />
<polyline points="81.7687,74.2628 87.8434,68.1882 " />
<polyline points="81.7687,75.5943 88.0686,69.2944 " />
<polyline points="81.7687,76.9258 88.2939,70.4006 " />
<polyline points="82.2803,77.7456 88.5191,71.5069 " />
<polyline points="83.5952,77.7623 88.7444,72.6131 " />
<polyline points="84.91,77.7789 88.9696,73.7193 " />
<polyline points="86.2249,77.7956 89.1949,74.8256 " />
<polyline points="87.5397,77.8122 89.4201,75.9318 " />
<polyline points="88.8546,77.8289 89.6454,77.0381 " />
<polyline points="81.5239,49.2093 81.7687,48.9645 " />
<polyline points="81.1259,50.9388 81.7687,50.296 " />
<polyline points="80.7279,52.6683 81.7687,51.6275 " />
<polyline points="80.3299,54.3978 81.7687,52.959 " />
<polyline points="79.932,56.1273 81.7687,54.2905 " />
<polyline points="79.534,57.8568 81.7687,55.622 " />
<polyline points="79.136,59.5862 81.7687,56.9535 " />
<polyline points="78.738,61.3157 81.7687,58.2849 " />
<polyline points="78.34,63.0452 81.7687,59.6164 " />
<polyline points="77.942,64.7747 81.7687,60.9479 " />
<polyline points="77.544,66.5042 81.7687,62.2794 " />
<polyline points="77.146,68.2337 81.7687,63.6109 " />
<polyline points="76.748,69.9631 81.7687,64.9424 " />
<polyline points="76.35,71.6926 81.7687,66.2739 " />
<polyline points="75.952,73.4221 81.7687,67.6054 " />
<polyline points="75.554,75.1516 81.7687,68.9368 " />
<polyline points="75.156,76.8811 81.7687,70.2683 " />
<polyline points="75.7061,77.6624 81.7687,71.5998 " />
<polyline points="77.021,77.6791 81.7687,72.9313 " />
<polyline points="78.3358,77.6957 81.7687,74.2628 " />
<polyline points="79.6507,77.7124 81.7687,75.5943 " />
<polyline points="80.9655,77.729 81.7687,76.9258 " />
<polyline points="81.7687,48.1456 74.9783,77.6532 " />
<polyline points="83.7674,48.1709 89.8089,77.8409 " />
<polyline points="801.123,373.885 801.123,320.058 " />
<polyline points="1012.79,373.885 1012.79,320.058 " />
<polyline points="906.958,152.402 906.958,352.809 " />
</g>
</svg>
