<?xml version="1.0" standalone="no"?>
<svg viewBox="0 0 1024 768" version="1.1" xmlns="http://www.w3.org/2000/svg" xmlns:xlink="http://www.w3.org/1999/xlink" stroke-linecap="round" stroke-linejoin="round" fill-rule="evenodd" xml:space="preserve" >
<defs >
<clipPath id="clipId0" >
<path d="M0,768 1024,768 1024,0 0,0 z" />
</clipPath>
</defs>
<g clip-path="url(#clipId0)" fill="none" stroke="rgb(0,0,0)" stroke-width="0.1" />
<g clip-path="url(#clipId0)" fill="none" stroke="rgb(0,0,0)" stroke-width="0.25" >
<polyline points="601.733,491.841 601.733,573.549 " />
<polyline points="780.25,491.841 780.25,573.549 " />
<polyline points="626.936,573.549 755.047,573.549 " />
</g>
<g clip-path="url(#clipId0)" fill="rgb(0,0,0)" stroke="rgb(0,0,0)" stroke-width="0.25" >
<path d="M626.936,569.349 626.936,577.75 601.733,573.549 601.733,573.549 z" />
<path d="M755.047,569.349 755.047,577.75 780.25,573.549 780.25,573.549 z" />
</g>
<g clip-path="url(#clipId0)" fill="none" stroke="rgb(0,0,0)" stroke-width="0.5" >
<polyline points="780.25,458.15 601.733,458.15 " />
<polyline points="780.25,455.525 601.733,455.525 " />
</g>
<g clip-path="url(#clipId0)" fill="none" stroke="rgb(0,0,0)" stroke-width="0.25" >
<polyline points="649.085,586.025 641.085,607.027 " />
<polyline points="649.085,586.025 657.086,607.027 " />
<polyline points="644.085,600.026 654.086,600.026 " />
<polyline points="682.088,593.026 693.089,607.027 " />
<polyline points="693.089,593.026 682.088,607.027 " />
<polyline points="732.093,593.026 732.093,607.027 " />
<polyline points="732.093,596.026 730.093,594.026 728.093,593.026 725.092,593.026 723.092,594.026 721.092,596.026 720.092,599.026 720.092,601.026 721.092,604.027 723.092,606.027 725.092,607.027 728.093,607.027 730.093,606.027 732.093,604.027 " />
<path d="M690.991,456.838  A267.774,267.774 0 0,0 423.217,189.063 " stroke-dasharray="43.753988,8.750798,8.750798,8.750798" />
</g>
<g clip-path="url(#clipId0)" fill="none" stroke="rgb(0,0,0)" stroke-width="0.5" >
<polyline points="780.25,385.819 601.733,421.329 " />
<polyline points="725.895,254.595 574.556,355.716 " />
<polyline points="625.46,154.16 725.895,254.595 " />
<polyline points="780.25,477.84 601.733,477.84 " />
<path d="M183.256,407.733  A109.761,109.761 0 0,0 267.264,407.733 " />
<path d="M183.256,326.682  A48.9727,48.9727 0 0,0 267.264,326.682 " />
<path d="M183.256,264.649  A42.578,42.578 0 0,0 267.264,264.649 " />
</g>
<g clip-path="url(#clipId0)" fill="none" stroke="rgb(0,0,0)" stroke-width="0.25" >
<polyline points="183.256,486.6 183.256,568.309 " />
<polyline points="267.264,486.6 267.264,568.309 " />
<polyline points="208.458,568.309 242.061,568.309 " />
</g>
<g clip-path="url(#clipId0)" fill="rgb(0,0,0)" stroke="rgb(0,0,0)" stroke-width="0.25" >
<path d="M208.458,564.108 208.458,572.509 183.256,568.309 183.256,568.309 z" />
<path d="M242.061,564.108 242.061,572.509 267.264,568.309 267.264,568.309 z" />
</g>
<g clip-path="url(#clipId0)" fill="none" stroke="rgb(0,0,0)" stroke-width="0.25" >
<polyline points="183.256,122.567 183.256,16.0618 " />
<polyline points="267.264,122.567 267.264,16.0618 " />
<polyline points="208.458,16.0618 242.061,16.0618 " />
</g>
<g clip-path="url(#clipId0)" fill="rgb(0,0,0)" stroke="rgb(0,0,0)" stroke-width="0.25" >
<path d="M208.458,11.8614 208.458,20.2622 183.256,16.0618 183.256,16.0618 z" />
<path d="M242.061,11.8614 242.061,20.2622 267.264,16.0618 267.264,16.0618 z" />
</g>
<g clip-path="url(#clipId0)" fill="none" stroke="rgb(0,0,0)" stroke-width="0.25" >
<polyline points="211.259,94.5642 71.204,94.5642 " />
<polyline points="211.259,273.081 71.204,273.081 " />
<polyline points="71.204,119.767 71.204,247.878 " />
</g>
<g clip-path="url(#clipId0)" fill="rgb(0,0,0)" stroke="rgb(0,0,0)" stroke-width="0.25" >
<path d="M67.0036,119.767 75.4044,119.767 71.204,94.5642 71.204,94.5642 z" />
<path d="M67.0036,247.878 75.4044,247.878 71.204,273.081 71.204,273.081 z" />
</g>
<g clip-path="url(#clipId0)" fill="none" stroke="rgb(0,0,0)" stroke-width="0.5" >
<polyline points="267.264,452.909 183.256,452.909 " />
<polyline points="267.264,450.284 183.256,450.284 " />
</g>
<g clip-path="url(#clipId0)" fill="none" stroke="rgb(0,0,0)" stroke-width="0.25" >
<polyline points="189.959,587.808 189.959,601.809 " />
<polyline points="189.959,590.808 187.959,588.808 185.959,587.808 182.958,587.808 180.958,588.808 178.958,590.808 177.958,593.809 177.958,595.809 178.958,598.809 180.958,600.809 182.958,601.809 185.959,601.809 187.959,600.809 189.959,598.809 " />
<polyline points="217.962,587.808 228.963,601.809 " />
<polyline points="228.963,587.808 217.962,601.809 " />
<polyline points="261.966,580.807 253.965,601.809 " />
<polyline points="261.966,580.807 269.966,601.809 " />
<polyline points="256.965,594.809 266.966,594.809 " />
<polyline points="166.629,136.568 284.138,136.568 " stroke-dasharray="43.753988,8.750798,8.750798,8.750798" />
<polyline points="166.508,231.077 284.017,231.077 " stroke-dasharray="43.753988,8.750798,8.750798,8.750798" />
</g>
<g clip-path="url(#clipId0)" fill="none" stroke="rgb(0,0,0)" stroke-width="0.5" >
<polyline points="183.256,472.599 267.264,472.599 " />
<path d="M183.256,231.077  A42.0038,42.0038 0 1,0 267.264,231.077 " />
<path d="M267.264,136.568  A42.0038,42.0038 0 1,0 183.256,136.568 " />
<polyline points="183.256,231.077 183.256,136.568 " />
<polyline points="183.256,231.077 183.256,450.284 " />
<polyline points="183.256,452.909 183.256,472.599 " />
<path d="M183.256,450.284  A1.36731,1.36731 0 0,0 183.256,452.909 " />
</g>
<g clip-path="url(#clipId0)" fill="none" stroke="rgb(0,0,0)" stroke-width="0.25" >
<polyline points="56.178,168.98 48.1772,189.982 " />
<polyline points="56.178,168.98 64.1787,189.982 " />
<polyline points="51.1775,182.981 61.1784,182.981 " />
</g>
<g clip-path="url(#clipId0)" fill="none" stroke="rgb(0,0,0)" stroke-width="0.5" >
<polyline points="424.53,99.8051 424.53,278.321 " />
<polyline points="421.904,99.8051 421.904,278.321 " />
</g>
<g clip-path="url(#clipId0)" fill="none" stroke="rgb(0,0,0)" stroke-width="0.25" >
<polyline points="225.26,196.15 225.26,78.6404 " stroke-dasharray="43.753988,8.750798,8.750798,8.750798" />
</g>
<g clip-path="url(#clipId0)" fill="none" stroke="rgb(0,0,0)" stroke-width="0.5" >
<polyline points="494.235,99.8051 458.726,278.321 " />
<polyline points="494.235,99.8051 625.46,154.16 " />
<polyline points="402.215,99.8051 402.215,278.321 " />
<polyline points="267.264,231.077 267.264,136.568 " />
</g>
<g clip-path="url(#clipId0)" fill="none" stroke="rgb(0,0,0)" stroke-width="0.25" >
<polyline points="423.217,456.838 585.326,456.838 " />
</g>
<g clip-path="url(#clipId0)" fill="none" stroke="rgb(0,0,0)" stroke-width="0.5" >
<polyline points="458.726,278.321 524.338,305.499 " />
</g>
<g clip-path="url(#clipId0)" fill="none" stroke="rgb(0,0,0)" stroke-width="0.25" >
<polyline points="423.217,456.838 504.895,375.159 " />
<polyline points="423.217,456.838 423.217,292.294 " />
</g>
<g clip-path="url(#clipId0)" fill="none" stroke="rgb(0,0,0)" stroke-width="0.5" >
<polyline points="267.264,231.077 267.264,450.284 " />
<polyline points="267.264,472.599 267.264,452.909 " />
<path d="M267.264,452.909  A1.36731,1.36731 0 0,0 267.264,450.284 " />
</g>
<g clip-path="url(#clipId0)" fill="none" stroke="rgb(0,0,0)" stroke-width="0.25" >
<polyline points="423.217,189.063 383.876,189.063 " stroke-dasharray="43.753988,8.750798,8.750798,8.750798" />
</g>
<g clip-path="url(#clipId0)" fill="none" stroke="rgb(0,0,0)" stroke-width="0.5" >
<polyline points="421.904,278.321 402.215,278.321 " />
</g>
<g clip-path="url(#clipId0)" fill="none" stroke="rgb(0,0,0)" stroke-width="0.25" >
<polyline points="225.26,290.658 225.26,173.149 " stroke-dasharray="43.753988,8.750798,8.750798,8.750798" />
</g>
<g clip-path="url(#clipId0)" fill="none" stroke="rgb(0,0,0)" stroke-width="0.5" >
<polyline points="424.53,278.321 458.726,278.321 " />
<path d="M421.904,278.321  A1.36731,1.36731 0 0,0 424.53,278.321 " />
<polyline points="574.556,355.716 601.733,421.329 " />
<polyline points="601.733,477.84 601.733,458.15 " />
<polyline points="601.733,455.525 601.733,421.329 " />
<path d="M601.733,455.525  A1.36731,1.36731 0 0,0 601.733,458.15 " />
</g>
<g clip-path="url(#clipId0)" fill="none" stroke="rgb(0,0,0)" stroke-width="0.25" >
<polyline points="690.991,456.838 690.991,497.474 " stroke-dasharray="43.753988,8.750798,8.750798,8.750798" />
</g>
<g clip-path="url(#clipId0)" fill="none" stroke="rgb(0,0,0)" stroke-width="0.5" >
<polyline points="625.46,154.16 524.338,305.499 " />
</g>
<g clip-path="url(#clipId0)" fill="rgb(0,0,0)" stroke="rgb(0,0,0)" stroke-width="0.25" >
<path d="M587.613,285.313 594.741,292.442 612.562,267.493 612.562,267.493 z" />
</g>
<g clip-path="url(#clipId0)" fill="none" stroke="rgb(0,0,0)" stroke-width="0.25" >
<polyline points="591.177,288.877 530.884,349.171 " />
</g>
<g clip-path="url(#clipId0)" fill="none" stroke="rgb(0,0,0)" stroke-width="0.5" >
<polyline points="524.338,305.499 574.556,355.716 " />
<polyline points="402.215,99.8051 421.904,99.8051 " />
</g>
<g clip-path="url(#clipId0)" fill="none" stroke="rgb(0,0,0)" stroke-width="0.25" >
<polyline points="229.123,7.52941 229.123,21.5307 " />
<polyline points="229.123,10.5297 227.123,8.5295 225.123,7.52941 222.122,7.52941 220.122,8.5295 218.122,10.5297 217.122,13.53 217.122,15.5301 218.122,18.5304 220.122,20.5306 222.122,21.5307 225.123,21.5307 227.123,20.5306 229.123,18.5304 " />
</g>
<g clip-path="url(#clipId0)" fill="none" stroke="rgb(0,0,0)" stroke-width="0.5" >
<polyline points="424.53,99.8051 494.235,99.8051 " />
</g>
<g clip-path="url(#clipId0)" fill="none" stroke="rgb(0,0,0)" stroke-width="0.25" >
<polyline points="423.217,97.4869 423.217,80.6854 " />
</g>
<g clip-path="url(#clipId0)" fill="none" stroke="rgb(0,0,0)" stroke-width="0.5" >
<path d="M424.53,99.8051  A1.36731,1.36731 0 0,0 421.904,99.8051 " />
<polyline points="780.25,455.525 780.25,385.819 " />
<polyline points="780.25,458.15 780.25,477.84 " />
</g>
<g clip-path="url(#clipId0)" fill="none" stroke="rgb(0,0,0)" stroke-width="0.25" >
<polyline points="784.713,456.838 801.515,456.838 " />
</g>
<g clip-path="url(#clipId0)" fill="none" stroke="rgb(0,0,0)" stroke-width="0.5" >
<path d="M780.25,458.15  A1.36731,1.36731 0 0,0 780.25,455.525 " />
<polyline points="725.895,254.595 780.25,385.819 " />
<polyline points="515.071,355.273 515.071,376.275 516.571,376.275 " />
<polyline points="515.071,355.273 516.571,355.273 516.571,376.275 " />
<polyline points="516.571,364.274 518.071,359.773 521.071,356.773 524.072,355.273 528.572,355.273 " />
<polyline points="516.571,364.274 518.071,361.274 521.071,358.273 524.072,356.773 528.572,356.773 528.572,355.273 " />
<polyline points="225.262,231.077 225.262,217.806 " />
<polyline points="787.137,724.467 784.887,719.967 780.386,715.466 775.886,713.216 766.885,713.216 762.384,715.466 757.884,719.967 755.634,724.467 753.384,731.218 753.384,742.469 755.634,749.22 757.884,753.72 762.384,758.22 766.885,760.471 775.886,760.471 780.386,758.22 784.887,753.72 787.137,749.22 " />
<polyline points="787.137,724.467 784.887,724.467 782.636,719.967 780.386,717.717 775.886,715.466 766.885,715.466 762.384,717.717 757.884,724.467 755.634,731.218 755.634,742.469 757.884,749.22 762.384,755.97 766.885,758.22 775.886,758.22 780.386,755.97 782.636,753.72 784.887,749.22 787.137,749.22 " />
<polyline points="802.888,713.216 802.888,760.471 " />
<polyline points="805.138,715.466 805.138,760.471 802.888,760.471 " />
<polyline points="802.888,713.216 829.891,713.216 " />
<polyline points="805.138,715.466 829.891,715.466 829.891,713.216 " />
<polyline points="805.138,735.718 818.64,735.718 818.64,737.969 " />
<polyline points="805.138,737.969 818.64,737.969 " />
<polyline points="845.642,713.216 870.394,713.216 854.643,733.468 " />
<polyline points="845.642,713.216 845.642,715.466 868.144,715.466 " />
<polyline points="868.144,713.216 852.393,733.468 " />
<polyline points="854.643,731.218 859.143,731.218 865.894,733.468 870.394,737.969 872.645,744.719 872.645,746.969 870.394,753.72 865.894,758.22 859.143,760.471 852.393,760.471 845.642,758.22 843.392,755.97 841.142,751.47 843.392,751.47 " />
<polyline points="852.393,733.468 859.143,733.468 865.894,735.718 870.394,742.469 " />
<polyline points="861.393,733.468 868.144,737.969 870.394,744.719 870.394,746.969 868.144,753.72 861.393,758.22 " />
<polyline points="870.394,749.22 865.894,755.97 859.143,758.22 852.393,758.22 845.642,755.97 843.392,751.47 " />
<polyline points="850.142,758.22 843.392,753.72 " />
<polyline points="888.396,737.969 926.649,737.969 926.649,740.219 " />
<polyline points="888.396,737.969 888.396,740.219 926.649,740.219 " />
<polyline points="944.651,724.467 944.651,722.217 946.901,717.717 949.151,715.466 953.652,713.216 962.653,713.216 967.153,715.466 969.403,717.717 971.654,722.217 971.654,726.718 969.403,731.218 964.903,737.969 944.651,760.471 " />
<polyline points="944.651,724.467 946.901,724.467 946.901,722.217 949.151,717.717 953.652,715.466 962.653,715.466 967.153,717.717 969.403,722.217 969.403,726.718 967.153,731.218 962.653,737.969 942.401,760.471 " />
<polyline points="944.651,758.22 973.904,758.22 973.904,760.471 " />
<polyline points="942.401,760.471 973.904,760.471 " />
<polyline points="758.075,178.841 758.075,196.987 759.371,196.987 " />
<polyline points="758.075,178.841 759.371,178.841 759.371,196.987 " />
<polyline points="759.371,186.618 760.667,182.729 763.259,180.137 765.852,178.841 769.74,178.841 " />
<polyline points="759.371,186.618 760.667,184.025 763.259,181.433 765.852,180.137 769.74,180.137 769.74,178.841 " />
<polyline points="796.958,164.584 773.628,206.059 774.924,206.059 " />
<polyline points="796.958,164.584 798.255,164.584 774.924,206.059 " />
<polyline points="813.808,169.768 803.439,196.987 " />
<polyline points="813.808,173.656 804.735,196.987 803.439,196.987 " />
<polyline points="813.808,173.656 822.881,196.987 824.177,196.987 " />
<polyline points="813.808,169.768 824.177,196.987 " />
<polyline points="807.327,189.21 820.289,189.21 " />
<polyline points="806.031,190.506 821.585,190.506 " />
<polyline points="859.172,178.841 881.206,178.841 881.206,180.137 " />
<polyline points="859.172,178.841 859.172,180.137 881.206,180.137 " />
<polyline points="859.172,189.21 881.206,189.21 881.206,190.506 " />
<polyline points="859.172,189.21 859.172,190.506 881.206,190.506 " />
<polyline points="921.386,174.953 923.978,173.656 927.866,169.768 927.866,196.987 " />
<polyline points="921.386,174.953 921.386,176.249 923.978,174.953 926.57,172.36 926.57,196.987 927.866,196.987 " />
<polyline points="946.012,193.098 944.716,194.394 944.716,195.691 946.012,196.987 947.308,196.987 948.604,195.691 948.604,194.394 947.308,193.098 946.012,193.098 " />
<polyline points="946.012,194.394 946.012,195.691 947.308,195.691 947.308,194.394 946.012,194.394 " />
<polyline points="960.269,169.768 958.973,181.433 " />
<polyline points="961.565,171.064 960.269,180.137 " />
<polyline points="960.269,169.768 973.231,169.768 973.231,171.064 " />
<polyline points="961.565,171.064 973.231,171.064 " />
<polyline points="960.269,180.137 964.158,178.841 968.046,178.841 971.934,180.137 974.527,182.729 975.823,186.618 975.823,189.21 974.527,193.098 971.934,195.691 968.046,196.987 964.158,196.987 960.269,195.691 958.973,194.394 957.677,191.802 958.973,191.802 " />
<polyline points="958.973,181.433 960.269,181.433 962.862,180.137 968.046,180.137 971.934,181.433 974.527,185.322 " />
<polyline points="969.342,180.137 973.231,182.729 974.527,186.618 974.527,189.21 973.231,193.098 969.342,195.691 " />
<polyline points="974.527,190.506 971.934,194.394 968.046,195.691 964.158,195.691 960.269,194.394 958.973,191.802 " />
<polyline points="962.862,195.691 958.973,193.098 " />
</g>
</svg>
