<?xml version="1.0" standalone="no"?>
<svg viewBox="0 0 1024 768" version="1.1" xmlns="http://www.w3.org/2000/svg" xmlns:xlink="http://www.w3.org/1999/xlink" stroke-linecap="round" stroke-linejoin="round" fill-rule="evenodd" xml:space="preserve" >
<defs >
<clipPath id="clipId0" >
<path d="M0,768 1024,768 1024,0 0,0 z" />
</clipPath>
</defs>
<g clip-path="url(#clipId0)" fill="none" stroke="rgb(0,0,0)" stroke-width="0.1" />
<g clip-path="url(#clipId0)" fill="none" stroke="rgb(0,0,0)" stroke-width="0.5" >
<path d="M958.055,158.106  A49.0052,49.0052 0 0,0 909.049,109.1 " />
<path d="M923.403,192.757  A49.0052,49.0052 0 0,0 874.398,143.752 " />
<polyline points="1013.01,54.1497 839.746,227.409 " />
<polyline points="830.828,54.1497 1013.01,54.1497 " />
<polyline points="1013.01,238.875 839.746,238.875 " />
<polyline points="1013.01,236.327 839.746,236.327 " />
<polyline points="1013.01,257.985 839.746,257.985 " />
<polyline points="828.28,54.1497 828.28,227.409 " />
<polyline points="830.828,54.1497 830.828,227.409 " />
<polyline points="809.17,54.1497 809.17,227.409 " />
<polyline points="217.825,54.1497 422.18,54.1497 " />
<polyline points="828.28,227.409 809.17,227.409 " />
<polyline points="926.375,140.78 926.375,275.223 " stroke-dasharray="13.136131,2.627226,2.627226,2.627226" />
<path d="M888.751,227.409  A49.0052,49.0052 0 0,0 839.746,178.404 " />
<polyline points="839.746,238.875 839.746,257.985 " />
<polyline points="839.746,227.409 839.746,236.327 " />
<path d="M839.746,236.327  A1.32705,1.32705 0 0,0 839.746,238.875 " />
<polyline points="839.746,227.409 830.828,227.409 " />
</g>
<g clip-path="url(#clipId0)" fill="none" stroke="rgb(0,0,0)" stroke-width="0.1" >
<polyline points="829.554,228.365 829.554,228.365 " />
</g>
<g clip-path="url(#clipId0)" fill="none" stroke="rgb(0,0,0)" stroke-width="0.5" >
<path d="M828.28,227.409  A1.32705,1.32705 0 0,0 830.828,227.409 " />
<polyline points="809.17,54.1497 828.28,54.1497 " />
<polyline points="40.2301,118.596 40.2301,153.819 " />
<polyline points="40.2301,126.144 35.1983,121.112 30.1665,118.596 22.6187,118.596 17.5869,121.112 12.5551,126.144 10.0392,133.691 10.0392,138.723 12.5551,146.271 17.5869,151.303 22.6187,153.819 30.1665,153.819 35.1983,151.303 40.2301,146.271 " />
<path d="M830.828,54.1497  A1.32705,1.32705 0 0,0 828.28,54.1497 " />
<polyline points="1013.01,54.1497 1013.01,236.327 " />
<polyline points="1013.01,54.1497 1013.01,236.327 " />
<polyline points="1013.01,238.875 1013.01,257.985 " />
<polyline points="1013.01,238.875 1013.01,257.985 " />
<path d="M1013.01,238.875  A1.32705,1.32705 0 0,0 1013.01,236.327 " />
<path d="M992.706,123.454  A49.0052,49.0052 0 0,0 943.701,74.4485 " />
<polyline points="848.036,680.539 846.074,676.616 842.151,672.692 838.227,670.73 830.379,670.73 826.456,672.692 822.532,676.616 820.57,680.539 818.608,686.425 818.608,696.234 820.57,702.12 822.532,706.044 826.456,709.967 830.379,711.929 838.227,711.929 842.151,709.967 846.074,706.044 848.036,702.12 " />
<polyline points="848.036,680.539 846.074,680.539 844.112,676.616 842.151,674.654 838.227,672.692 830.379,672.692 826.456,674.654 822.532,680.539 820.57,686.425 820.57,696.234 822.532,702.12 826.456,708.005 830.379,709.967 838.227,709.967 842.151,708.005 844.112,706.044 846.074,702.12 848.036,702.12 " />
<polyline points="861.769,670.73 861.769,711.929 " />
<polyline points="863.731,672.692 863.731,711.929 861.769,711.929 " />
<polyline points="861.769,670.73 885.311,670.73 " />
<polyline points="863.731,672.692 885.311,672.692 885.311,670.73 " />
<polyline points="863.731,690.349 875.502,690.349 875.502,692.311 " />
<polyline points="863.731,692.311 875.502,692.311 " />
<polyline points="899.045,670.73 920.625,670.73 906.892,688.387 " />
<polyline points="899.045,670.73 899.045,672.692 918.663,672.692 " />
<polyline points="918.663,670.73 904.93,688.387 " />
<polyline points="906.892,686.425 910.816,686.425 916.701,688.387 920.625,692.311 922.587,698.196 922.587,700.158 920.625,706.044 916.701,709.967 910.816,711.929 904.93,711.929 899.045,709.967 897.083,708.005 895.121,704.082 897.083,704.082 " />
<polyline points="904.93,688.387 910.816,688.387 916.701,690.349 920.625,696.234 " />
<polyline points="912.778,688.387 918.663,692.311 920.625,698.196 920.625,700.158 918.663,706.044 912.778,709.967 " />
<polyline points="920.625,702.12 916.701,708.005 910.816,709.967 904.93,709.967 899.045,708.005 897.083,704.082 " />
<polyline points="902.968,709.967 897.083,706.044 " />
<polyline points="936.32,692.311 969.672,692.311 969.672,694.272 " />
<polyline points="936.32,692.311 936.32,694.272 969.672,694.272 " />
<polyline points="987.328,670.73 985.366,688.387 " />
<polyline points="989.29,672.692 987.328,686.425 " />
<polyline points="987.328,670.73 1006.95,670.73 1006.95,672.692 " />
<polyline points="989.29,672.692 1006.95,672.692 " />
<polyline points="987.328,686.425 993.214,684.463 999.1,684.463 1004.99,686.425 1008.91,690.349 1010.87,696.234 1010.87,700.158 1008.91,706.044 1004.99,709.967 999.1,711.929 993.214,711.929 987.328,709.967 985.366,708.005 983.405,704.082 985.366,704.082 " />
<polyline points="985.366,688.387 987.328,688.387 991.252,686.425 999.1,686.425 1004.99,688.387 1008.91,694.272 " />
<polyline points="1001.06,686.425 1006.95,690.349 1008.91,696.234 1008.91,700.158 1006.95,706.044 1001.06,709.967 " />
<polyline points="1008.91,702.12 1004.99,708.005 999.1,709.967 993.214,709.967 987.328,708.005 985.366,704.082 " />
<polyline points="991.252,709.967 985.366,706.044 " />
<polyline points="118.312,496.647 112.877,510.915 " />
<polyline points="118.312,496.647 123.747,510.915 " />
<polyline points="114.915,506.159 121.709,506.159 " />
<polyline points="128.503,510.235 127.823,510.915 127.144,510.235 127.823,509.556 128.503,510.235 128.503,511.594 127.823,512.953 127.144,513.632 " />
<polyline points="147.525,497.327 148.205,498.006 148.884,497.327 148.205,496.647 147.525,497.327 " />
<polyline points="148.205,502.083 148.205,510.915 " />
<polyline points="153.64,501.403 153.64,510.915 " />
<polyline points="153.64,504.121 155.678,502.083 157.037,501.403 159.075,501.403 160.434,502.083 161.113,504.121 161.113,510.915 " />
<polyline points="167.907,510.235 167.228,510.915 166.548,510.235 167.228,509.556 167.907,510.235 167.907,511.594 167.228,512.953 166.548,513.632 " />
<polyline points="192.365,493.93 191.006,495.289 189.647,497.327 188.289,500.044 187.609,503.441 187.609,506.159 188.289,509.556 189.647,512.273 191.006,514.311 192.365,515.67 " />
<polyline points="197.121,501.403 197.121,510.915 " />
<polyline points="197.121,504.121 199.159,502.083 200.517,501.403 202.556,501.403 203.914,502.083 204.594,504.121 204.594,510.915 " />
<polyline points="204.594,504.121 206.632,502.083 207.991,501.403 210.029,501.403 211.388,502.083 212.067,504.121 212.067,510.915 " />
<polyline points="217.502,501.403 217.502,510.915 " />
<polyline points="217.502,504.121 219.54,502.083 220.899,501.403 222.937,501.403 224.296,502.083 224.975,504.121 224.975,510.915 " />
<polyline points="224.975,504.121 227.014,502.083 228.372,501.403 230.41,501.403 231.769,502.083 232.449,504.121 232.449,510.915 " />
<polyline points="237.204,493.93 238.563,495.289 239.922,497.327 241.281,500.044 241.96,503.441 241.96,506.159 241.281,509.556 239.922,512.273 238.563,514.311 237.204,515.67 " />
<polyline points="68.2046,485.531 322.096,485.531 " />
<polyline points="79.8782,532.153 87.3514,532.153 83.2751,537.588 85.3132,537.588 86.672,538.267 87.3514,538.946 88.0308,540.985 88.0308,542.343 87.3514,544.382 85.9926,545.74 83.9545,546.42 81.9163,546.42 79.8782,545.74 79.1988,545.061 78.5194,543.702 " />
<polyline points="92.7865,540.305 105.015,540.305 " />
<polyline points="118.603,536.908 117.924,538.946 116.565,540.305 114.527,540.985 113.847,540.985 111.809,540.305 110.451,538.946 109.771,536.908 109.771,536.229 110.451,534.191 111.809,532.832 113.847,532.153 114.527,532.153 116.565,532.832 117.924,534.191 118.603,536.908 118.603,540.305 117.924,543.702 116.565,545.74 114.527,546.42 113.168,546.42 111.13,545.74 110.451,544.382 " />
<polyline points="124.718,545.061 124.038,545.74 124.718,546.42 125.397,545.74 124.718,545.061 " />
<polyline points="138.305,532.153 131.511,532.153 130.832,538.267 131.511,537.588 133.55,536.908 135.588,536.908 137.626,537.588 138.985,538.946 139.664,540.985 139.664,542.343 138.985,544.382 137.626,545.74 135.588,546.42 133.55,546.42 131.511,545.74 130.832,545.061 130.153,543.702 " />
<polyline points="163.443,529.435 162.084,530.794 160.725,532.832 159.366,535.55 158.687,538.946 158.687,541.664 159.366,545.061 160.725,547.779 162.084,549.817 163.443,551.175 " />
<polyline points="177.03,532.153 170.236,546.42 " />
<polyline points="167.519,532.153 177.03,532.153 " />
<polyline points="189.259,532.153 182.465,532.153 181.786,538.267 182.465,537.588 184.504,536.908 186.542,536.908 188.58,537.588 189.939,538.946 190.618,540.985 190.618,542.343 189.939,544.382 188.58,545.74 186.542,546.42 184.504,546.42 182.465,545.74 181.786,545.061 181.107,543.702 " />
<polyline points="195.374,540.305 207.603,540.305 " />
<polyline points="213.038,535.55 213.038,534.87 213.717,533.511 214.397,532.832 215.755,532.153 218.473,532.153 219.832,532.832 220.511,533.511 221.19,534.87 221.19,536.229 220.511,537.588 219.152,539.626 212.358,546.42 221.87,546.42 " />
<polyline points="227.305,532.153 234.778,532.153 230.702,537.588 232.74,537.588 234.099,538.267 234.778,538.946 235.457,540.985 235.457,542.343 234.778,544.382 233.419,545.74 231.381,546.42 229.343,546.42 227.305,545.74 226.625,545.061 225.946,543.702 " />
<polyline points="242.931,532.153 240.893,532.832 240.213,534.191 240.213,535.55 240.893,536.908 242.251,537.588 244.969,538.267 247.007,538.946 248.366,540.305 249.045,541.664 249.045,543.702 248.366,545.061 247.686,545.74 245.648,546.42 242.931,546.42 240.893,545.74 240.213,545.061 239.534,543.702 239.534,541.664 240.213,540.305 241.572,538.946 243.61,538.267 246.328,537.588 247.686,536.908 248.366,535.55 248.366,534.191 247.686,532.832 245.648,532.153 242.931,532.153 " />
<polyline points="253.121,529.435 254.48,530.794 255.839,532.832 257.198,535.55 257.877,538.946 257.877,541.664 257.198,545.061 255.839,547.779 254.48,549.817 253.121,551.175 " />
<polyline points="76.8579,567.497 78.2166,566.818 80.2548,564.78 80.2548,579.047 " />
<polyline points="92.4837,564.78 90.4456,565.459 89.0868,567.497 88.4074,570.894 88.4074,572.932 89.0868,576.329 90.4456,578.367 92.4837,579.047 93.8425,579.047 95.8807,578.367 97.2394,576.329 97.9188,572.932 97.9188,570.894 97.2394,567.497 95.8807,565.459 93.8425,564.78 92.4837,564.78 " />
<polyline points="102.675,572.932 114.903,572.932 " />
<polyline points="121.697,567.497 123.056,566.818 125.094,564.78 125.094,579.047 " />
<polyline points="140.041,564.78 133.247,574.291 143.438,574.291 " />
<polyline points="140.041,564.78 140.041,579.047 " />
<polyline points="148.193,577.688 147.514,578.367 148.193,579.047 148.873,578.367 148.193,577.688 " />
<polyline points="161.781,564.78 154.987,564.78 154.308,570.894 154.987,570.215 157.025,569.535 159.064,569.535 161.102,570.215 162.46,571.574 163.14,573.612 163.14,574.97 162.46,577.009 161.102,578.367 159.064,579.047 157.025,579.047 154.987,578.367 154.308,577.688 153.628,576.329 " />
<polyline points="186.918,562.062 185.56,563.421 184.201,565.459 182.842,568.177 182.163,571.574 182.163,574.291 182.842,577.688 184.201,580.406 185.56,582.444 186.918,583.802 " />
<polyline points="191.674,568.177 191.674,567.497 192.353,566.138 193.033,565.459 194.392,564.78 197.109,564.78 198.468,565.459 199.147,566.138 199.827,567.497 199.827,568.856 199.147,570.215 197.789,572.253 190.995,579.047 200.506,579.047 " />
<polyline points="212.735,564.78 205.941,564.78 205.262,570.894 205.941,570.215 207.979,569.535 210.017,569.535 212.056,570.215 213.414,571.574 214.094,573.612 214.094,574.97 213.414,577.009 212.056,578.367 210.017,579.047 207.979,579.047 205.941,578.367 205.262,577.688 204.582,576.329 " />
<polyline points="222.246,564.78 220.208,565.459 218.849,567.497 218.17,570.894 218.17,572.932 218.849,576.329 220.208,578.367 222.246,579.047 223.605,579.047 225.643,578.367 227.002,576.329 227.681,572.932 227.681,570.894 227.002,567.497 225.643,565.459 223.605,564.78 222.246,564.78 " />
<polyline points="232.437,572.932 244.666,572.932 " />
<polyline points="250.781,564.78 258.254,564.78 254.178,570.215 256.216,570.215 257.574,570.894 258.254,571.574 258.933,573.612 258.933,574.97 258.254,577.009 256.895,578.367 254.857,579.047 252.819,579.047 250.781,578.367 250.101,577.688 249.422,576.329 " />
<polyline points="271.842,566.818 271.162,565.459 269.124,564.78 267.765,564.78 265.727,565.459 264.368,567.497 263.689,570.894 263.689,574.291 264.368,577.009 265.727,578.367 267.765,579.047 268.445,579.047 270.483,578.367 271.842,577.009 272.521,574.97 272.521,574.291 271.842,572.253 270.483,570.894 268.445,570.215 267.765,570.215 265.727,570.894 264.368,572.253 263.689,574.291 " />
<polyline points="277.956,564.78 285.429,564.78 281.353,570.215 283.391,570.215 284.75,570.894 285.429,571.574 286.109,573.612 286.109,574.97 285.429,577.009 284.071,578.367 282.032,579.047 279.994,579.047 277.956,578.367 277.277,577.688 276.597,576.329 " />
<polyline points="290.185,562.062 291.544,563.421 292.903,565.459 294.261,568.177 294.941,571.574 294.941,574.291 294.261,577.688 292.903,580.406 291.544,582.444 290.185,583.802 " />
<polyline points="76.9173,604.864 78.2761,604.185 80.3142,602.146 80.3142,616.414 " />
<polyline points="96.6195,602.146 89.8256,602.146 89.1462,608.261 89.8256,607.581 91.8638,606.902 93.9019,606.902 95.9401,607.581 97.2989,608.94 97.9783,610.978 97.9783,612.337 97.2989,614.375 95.9401,615.734 93.9019,616.414 91.8638,616.414 89.8256,615.734 89.1462,615.055 88.4669,613.696 " />
<polyline points="102.734,610.299 114.963,610.299 " />
<polyline points="121.757,604.864 123.116,604.185 125.154,602.146 125.154,616.414 " />
<polyline points="142.138,606.902 141.459,608.94 140.1,610.299 138.062,610.978 137.383,610.978 135.344,610.299 133.986,608.94 133.306,606.902 133.306,606.223 133.986,604.185 135.344,602.826 137.383,602.146 138.062,602.146 140.1,602.826 141.459,604.185 142.138,606.902 142.138,610.299 141.459,613.696 140.1,615.734 138.062,616.414 136.703,616.414 134.665,615.734 133.986,614.375 " />
<polyline points="166.596,599.429 165.237,600.788 163.879,602.826 162.52,605.543 161.841,608.94 161.841,611.658 162.52,615.055 163.879,617.772 165.237,619.81 166.596,621.169 " />
<polyline points="172.031,602.146 179.505,602.146 175.428,607.581 177.466,607.581 178.825,608.261 179.505,608.94 180.184,610.978 180.184,612.337 179.505,614.375 178.146,615.734 176.108,616.414 174.069,616.414 172.031,615.734 171.352,615.055 170.673,613.696 " />
<polyline points="193.772,602.146 186.978,616.414 " />
<polyline points="184.26,602.146 193.772,602.146 " />
<polyline points="206.001,602.146 199.207,602.146 198.527,608.261 199.207,607.581 201.245,606.902 203.283,606.902 205.321,607.581 206.68,608.94 207.359,610.978 207.359,612.337 206.68,614.375 205.321,615.734 203.283,616.414 201.245,616.414 199.207,615.734 198.527,615.055 197.848,613.696 " />
<polyline points="212.115,610.299 224.344,610.299 " />
<polyline points="235.894,602.146 229.1,611.658 239.29,611.658 " />
<polyline points="235.894,602.146 235.894,616.414 " />
<polyline points="252.199,602.146 245.405,616.414 " />
<polyline points="242.687,602.146 252.199,602.146 " />
<polyline points="264.428,602.146 257.634,602.146 256.954,608.261 257.634,607.581 259.672,606.902 261.71,606.902 263.748,607.581 265.107,608.94 265.787,610.978 265.787,612.337 265.107,614.375 263.748,615.734 261.71,616.414 259.672,616.414 257.634,615.734 256.954,615.055 256.275,613.696 " />
<polyline points="269.863,599.429 271.222,600.788 272.58,602.826 273.939,605.543 274.619,608.94 274.619,611.658 273.939,615.055 272.58,617.772 271.222,619.81 269.863,621.169 " />
<polyline points="81.671,640.607 81.671,639.928 82.3504,638.569 83.0298,637.89 84.3886,637.21 87.1061,637.21 88.4649,637.89 89.1443,638.569 89.8237,639.928 89.8237,641.287 89.1443,642.645 87.7855,644.684 80.9916,651.477 90.503,651.477 " />
<polyline points="98.6557,637.21 96.6175,637.89 95.2587,639.928 94.5794,643.325 94.5794,645.363 95.2587,648.76 96.6175,650.798 98.6557,651.477 100.014,651.477 102.053,650.798 103.411,648.76 104.091,645.363 104.091,643.325 103.411,639.928 102.053,637.89 100.014,637.21 98.6557,637.21 " />
<polyline points="108.846,645.363 121.075,645.363 " />
<polyline points="134.663,639.248 133.984,637.89 131.946,637.21 130.587,637.21 128.549,637.89 127.19,639.928 126.51,643.325 126.51,646.722 127.19,649.439 128.549,650.798 130.587,651.477 131.266,651.477 133.304,650.798 134.663,649.439 135.342,647.401 135.342,646.722 134.663,644.684 133.304,643.325 131.266,642.645 130.587,642.645 128.549,643.325 127.19,644.684 126.51,646.722 " />
<polyline points="143.495,637.21 141.457,637.89 140.098,639.928 139.419,643.325 139.419,645.363 140.098,648.76 141.457,650.798 143.495,651.477 144.854,651.477 146.892,650.798 148.251,648.76 148.93,645.363 148.93,643.325 148.251,639.928 146.892,637.89 144.854,637.21 143.495,637.21 " />
<polyline points="172.709,634.493 171.35,635.852 169.991,637.89 168.632,640.607 167.953,644.004 167.953,646.722 168.632,650.119 169.991,652.836 171.35,654.874 172.709,656.233 " />
<polyline points="184.938,637.21 178.144,637.21 177.464,643.325 178.144,642.645 180.182,641.966 182.22,641.966 184.258,642.645 185.617,644.004 186.296,646.042 186.296,647.401 185.617,649.439 184.258,650.798 182.22,651.477 180.182,651.477 178.144,650.798 177.464,650.119 176.785,648.76 " />
<polyline points="194.449,637.21 192.411,637.89 191.052,639.928 190.373,643.325 190.373,645.363 191.052,648.76 192.411,650.798 194.449,651.477 195.808,651.477 197.846,650.798 199.205,648.76 199.884,645.363 199.884,643.325 199.205,639.928 197.846,637.89 195.808,637.21 194.449,637.21 " />
<polyline points="208.037,637.21 205.999,637.89 204.64,639.928 203.96,643.325 203.96,645.363 204.64,648.76 205.999,650.798 208.037,651.477 209.396,651.477 211.434,650.798 212.792,648.76 213.472,645.363 213.472,643.325 212.792,639.928 211.434,637.89 209.396,637.21 208.037,637.21 " />
<polyline points="218.228,645.363 230.456,645.363 " />
<polyline points="237.25,639.928 238.609,639.248 240.647,637.21 240.647,651.477 " />
<polyline points="256.953,637.21 250.159,637.21 249.479,643.325 250.159,642.645 252.197,641.966 254.235,641.966 256.273,642.645 257.632,644.004 258.311,646.042 258.311,647.401 257.632,649.439 256.273,650.798 254.235,651.477 252.197,651.477 250.159,650.798 249.479,650.119 248.8,648.76 " />
<polyline points="266.464,637.21 264.426,637.89 263.067,639.928 262.388,643.325 262.388,645.363 263.067,648.76 264.426,650.798 266.464,651.477 267.823,651.477 269.861,650.798 271.22,648.76 271.899,645.363 271.899,643.325 271.22,639.928 269.861,637.89 267.823,637.21 266.464,637.21 " />
<polyline points="280.052,637.21 278.013,637.89 276.655,639.928 275.975,643.325 275.975,645.363 276.655,648.76 278.013,650.798 280.052,651.477 281.41,651.477 283.449,650.798 284.807,648.76 285.487,645.363 285.487,643.325 284.807,639.928 283.449,637.89 281.41,637.21 280.052,637.21 " />
<polyline points="289.563,634.493 290.922,635.852 292.281,637.89 293.639,640.607 294.319,644.004 294.319,646.722 293.639,650.119 292.281,652.836 290.922,654.874 289.563,656.233 " />
<polyline points="86.5248,688.457 85.166,689.136 83.8072,690.495 83.1278,692.533 83.1278,693.892 83.8072,695.93 85.166,697.289 86.5248,697.968 88.5629,697.968 89.9217,697.289 91.2805,695.93 91.9598,693.892 91.9598,692.533 91.2805,690.495 89.9217,689.136 88.5629,688.457 86.5248,688.457 " />
<polyline points="95.3568,688.457 99.4331,697.968 " />
<polyline points="103.509,688.457 99.4331,697.968 " />
<polyline points="106.906,692.533 115.059,692.533 115.059,691.175 114.38,689.816 113.7,689.136 112.341,688.457 110.303,688.457 108.944,689.136 107.586,690.495 106.906,692.533 106.906,693.892 107.586,695.93 108.944,697.289 110.303,697.968 112.341,697.968 113.7,697.289 115.059,695.93 " />
<polyline points="119.815,688.457 119.815,697.968 " />
<polyline points="119.815,692.533 120.494,690.495 121.853,689.136 123.212,688.457 125.25,688.457 " />
<polyline points="151.066,685.74 150.387,684.381 148.349,683.701 146.99,683.701 144.952,684.381 143.593,686.419 142.914,689.816 142.914,693.213 143.593,695.93 144.952,697.289 146.99,697.968 147.669,697.968 149.708,697.289 151.066,695.93 151.746,693.892 151.746,693.213 151.066,691.175 149.708,689.816 147.669,689.136 146.99,689.136 144.952,689.816 143.593,691.175 142.914,693.213 " />
<polyline points="159.898,683.701 157.86,684.381 156.501,686.419 155.822,689.816 155.822,691.854 156.501,695.251 157.86,697.289 159.898,697.968 161.257,697.968 163.295,697.289 164.654,695.251 165.333,691.854 165.333,689.816 164.654,686.419 163.295,684.381 161.257,683.701 159.898,683.701 " />
<polyline points="189.112,680.984 187.753,682.343 186.394,684.381 185.036,687.098 184.356,690.495 184.356,693.213 185.036,696.61 186.394,699.327 187.753,701.365 189.112,702.724 " />
<polyline points="195.226,686.419 196.585,685.74 198.623,683.701 198.623,697.968 " />
<polyline points="214.929,683.701 208.135,683.701 207.455,689.816 208.135,689.136 210.173,688.457 212.211,688.457 214.249,689.136 215.608,690.495 216.287,692.533 216.287,693.892 215.608,695.93 214.249,697.289 212.211,697.968 210.173,697.968 208.135,697.289 207.455,696.61 206.776,695.251 " />
<polyline points="224.44,683.701 222.402,684.381 221.043,686.419 220.364,689.816 220.364,691.854 221.043,695.251 222.402,697.289 224.44,697.968 225.799,697.968 227.837,697.289 229.196,695.251 229.875,691.854 229.875,689.816 229.196,686.419 227.837,684.381 225.799,683.701 224.44,683.701 " />
<polyline points="238.028,683.701 235.99,684.381 234.631,686.419 233.951,689.816 233.951,691.854 234.631,695.251 235.99,697.289 238.028,697.968 239.387,697.968 241.425,697.289 242.783,695.251 243.463,691.854 243.463,689.816 242.783,686.419 241.425,684.381 239.387,683.701 238.028,683.701 " />
<polyline points="247.539,680.984 248.898,682.343 250.257,684.381 251.615,687.098 252.295,690.495 252.295,693.213 251.615,696.61 250.257,699.327 248.898,701.365 247.539,702.724 " />
<polyline points="68.2046,520.86 343.321,520.86 " />
<polyline points="68.2046,556.442 341.699,556.442 " />
<polyline points="68.2046,592.023 341.699,592.023 " />
<polyline points="68.2046,627.604 341.699,627.604 " />
<polyline points="68.2046,663.186 341.699,663.186 " />
<polyline points="302.55,485.531 302.55,698.767 " />
<polyline points="322.096,485.531 511.921,485.531 " />
<polyline points="343.321,520.86 511.921,520.86 " />
<polyline points="341.699,556.442 511.921,556.442 " />
<polyline points="341.699,592.023 511.921,592.023 " />
<polyline points="341.699,627.604 511.921,627.604 " />
<polyline points="341.699,663.186 511.921,663.186 " />
<polyline points="331.278,714.806 511.921,714.806 " />
<polyline points="316.922,496.647 316.922,510.915 " />
<polyline points="316.922,496.647 326.433,510.915 " />
<polyline points="326.433,496.647 326.433,510.915 " />
<polyline points="331.868,501.403 331.868,508.197 332.547,510.235 333.906,510.915 335.944,510.915 337.303,510.235 339.341,508.197 " />
<polyline points="339.341,501.403 339.341,510.915 " />
<polyline points="344.776,501.403 344.776,510.915 " />
<polyline points="344.776,504.121 346.815,502.083 348.173,501.403 350.211,501.403 351.57,502.083 352.25,504.121 352.25,510.915 " />
<polyline points="352.25,504.121 354.288,502.083 355.647,501.403 357.685,501.403 359.043,502.083 359.723,504.121 359.723,510.915 " />
<polyline points="365.158,496.647 365.158,510.915 " />
<polyline points="365.158,503.441 366.517,502.083 367.875,501.403 369.914,501.403 371.272,502.083 372.631,503.441 373.311,505.479 373.311,506.838 372.631,508.876 371.272,510.235 369.914,510.915 367.875,510.915 366.517,510.235 365.158,508.876 " />
<polyline points="377.387,505.479 385.54,505.479 385.54,504.121 384.86,502.762 384.181,502.083 382.822,501.403 380.784,501.403 379.425,502.083 378.066,503.441 377.387,505.479 377.387,506.838 378.066,508.876 379.425,510.235 380.784,510.915 382.822,510.915 384.181,510.235 385.54,508.876 " />
<polyline points="390.295,501.403 390.295,510.915 " />
<polyline points="390.295,505.479 390.975,503.441 392.333,502.083 393.692,501.403 395.73,501.403 " />
<polyline points="416.112,501.403 414.753,502.083 413.394,503.441 412.715,505.479 412.715,506.838 413.394,508.876 414.753,510.235 416.112,510.915 418.15,510.915 419.509,510.235 420.868,508.876 421.547,506.838 421.547,505.479 420.868,503.441 419.509,502.083 418.15,501.403 416.112,501.403 " />
<polyline points="430.379,496.647 429.02,496.647 427.661,497.327 426.982,499.365 426.982,510.915 " />
<polyline points="424.944,501.403 429.7,501.403 " />
<polyline points="446.684,496.647 452.119,510.915 " />
<polyline points="457.554,496.647 452.119,510.915 " />
<polyline points="468.425,501.403 468.425,510.915 " />
<polyline points="468.425,503.441 467.066,502.083 465.707,501.403 463.669,501.403 462.31,502.083 460.951,503.441 460.272,505.479 460.272,506.838 460.951,508.876 462.31,510.235 463.669,510.915 465.707,510.915 467.066,510.235 468.425,508.876 " />
<polyline points="473.86,501.403 473.86,510.915 " />
<polyline points="473.86,504.121 475.898,502.083 477.257,501.403 479.295,501.403 480.654,502.083 481.333,504.121 481.333,510.915 " />
<polyline points="486.089,505.479 494.241,505.479 494.241,504.121 493.562,502.762 492.882,502.083 491.524,501.403 489.486,501.403 488.127,502.083 486.768,503.441 486.089,505.479 486.089,506.838 486.768,508.876 488.127,510.235 489.486,510.915 491.524,510.915 492.882,510.235 494.241,508.876 " />
<polyline points="505.791,503.441 505.111,502.083 503.073,501.403 501.035,501.403 498.997,502.083 498.318,503.441 498.997,504.8 500.356,505.479 503.753,506.159 505.111,506.838 505.791,508.197 505.791,508.876 505.111,510.235 503.073,510.915 501.035,510.915 498.997,510.235 498.318,508.876 " />
<polyline points="392.277,534.159 392.277,533.479 392.956,532.121 393.635,531.441 394.994,530.762 397.712,530.762 399.07,531.441 399.75,532.121 400.429,533.479 400.429,534.838 399.75,536.197 398.391,538.235 391.597,545.029 401.109,545.029 " />
<polyline points="393.506,566.528 400.98,566.528 396.903,571.963 398.942,571.963 400.3,572.643 400.98,573.322 401.659,575.36 401.659,576.719 400.98,578.757 399.621,580.116 397.583,580.795 395.545,580.795 393.506,580.116 392.827,579.437 392.148,578.078 " />
<polyline points="400.043,602.295 393.249,611.806 403.44,611.806 " />
<polyline points="400.043,602.295 400.043,616.562 " />
<polyline points="401.2,638.612 394.406,638.612 393.727,644.726 394.406,644.047 396.444,643.367 398.482,643.367 400.521,644.047 401.879,645.406 402.559,647.444 402.559,648.803 401.879,650.841 400.521,652.199 398.482,652.879 396.444,652.879 394.406,652.199 393.727,651.52 393.047,650.161 " />
<polyline points="306.704,675.444 308.062,674.764 310.1,672.726 310.1,686.993 " />
<polyline points="318.932,676.123 318.932,675.444 319.612,674.085 320.291,673.406 321.65,672.726 324.368,672.726 325.726,673.406 326.406,674.085 327.085,675.444 327.085,676.803 326.406,678.161 325.047,680.199 318.253,686.993 327.764,686.993 " />
<polyline points="346.108,673.406 346.787,674.085 347.467,673.406 346.787,672.726 346.108,673.406 " />
<polyline points="346.787,678.161 346.787,686.993 " />
<polyline points="352.222,677.482 352.222,686.993 " />
<polyline points="352.222,680.199 354.261,678.161 355.619,677.482 357.657,677.482 359.016,678.161 359.696,680.199 359.696,686.993 " />
<polyline points="365.81,685.635 365.131,686.314 365.81,686.993 366.489,686.314 365.81,685.635 " />
<polyline points="376.68,670.009 375.321,671.367 373.963,673.406 372.604,676.123 371.925,679.52 371.925,682.238 372.604,685.635 373.963,688.352 375.321,690.39 376.68,691.749 " />
<polyline points="382.115,672.726 389.589,672.726 385.512,678.161 387.55,678.161 388.909,678.841 389.589,679.52 390.268,681.558 390.268,682.917 389.589,684.955 388.23,686.314 386.192,686.993 384.153,686.993 382.115,686.314 381.436,685.635 380.757,684.276 " />
<polyline points="398.421,672.726 396.382,673.406 395.024,675.444 394.344,678.841 394.344,680.879 395.024,684.276 396.382,686.314 398.421,686.993 399.779,686.993 401.818,686.314 403.176,684.276 403.856,680.879 403.856,678.841 403.176,675.444 401.818,673.406 399.779,672.726 398.421,672.726 " />
<polyline points="412.008,672.726 409.97,673.406 408.611,675.444 407.932,678.841 407.932,680.879 408.611,684.276 409.97,686.314 412.008,686.993 413.367,686.993 415.405,686.314 416.764,684.276 417.443,680.879 417.443,678.841 416.764,675.444 415.405,673.406 413.367,672.726 412.008,672.726 " />
<polyline points="436.466,677.482 436.466,686.993 " />
<polyline points="436.466,680.199 438.504,678.161 439.863,677.482 441.901,677.482 443.26,678.161 443.939,680.199 443.939,686.993 " />
<polyline points="443.939,680.199 445.978,678.161 447.336,677.482 449.375,677.482 450.733,678.161 451.413,680.199 451.413,686.993 " />
<polyline points="456.848,677.482 456.848,686.993 " />
<polyline points="456.848,680.199 458.886,678.161 460.245,677.482 462.283,677.482 463.642,678.161 464.321,680.199 464.321,686.993 " />
<polyline points="464.321,680.199 466.359,678.161 467.718,677.482 469.756,677.482 471.115,678.161 471.794,680.199 471.794,686.993 " />
<polyline points="476.55,670.009 477.909,671.367 479.267,673.406 480.626,676.123 481.306,679.52 481.306,682.238 480.626,685.635 479.267,688.352 477.909,690.39 476.55,691.749 " />
<polyline points="310.556,695.722 310.556,705.233 " />
<polyline points="310.556,698.439 312.594,696.401 313.952,695.722 315.991,695.722 317.349,696.401 318.029,698.439 318.029,705.233 " />
<polyline points="318.029,698.439 320.067,696.401 321.426,695.722 323.464,695.722 324.823,696.401 325.502,698.439 325.502,705.233 " />
<polyline points="338.41,695.722 338.41,705.233 " />
<polyline points="338.41,697.76 337.052,696.401 335.693,695.722 333.655,695.722 332.296,696.401 330.937,697.76 330.258,699.798 330.258,701.157 330.937,703.195 332.296,704.554 333.655,705.233 335.693,705.233 337.052,704.554 338.41,703.195 " />
<polyline points="343.166,695.722 350.639,705.233 " />
<polyline points="350.639,695.722 343.166,705.233 " />
<polyline points="356.074,703.874 355.395,704.554 356.074,705.233 356.754,704.554 356.074,703.874 " />
<polyline points="383.25,697.76 382.57,696.401 380.532,695.722 378.494,695.722 376.456,696.401 375.777,697.76 376.456,699.118 377.815,699.798 381.212,700.477 382.57,701.157 383.25,702.515 383.25,703.195 382.57,704.554 380.532,705.233 378.494,705.233 376.456,704.554 375.777,703.195 " />
<polyline points="388.006,695.722 388.006,709.989 " />
<polyline points="388.006,697.76 389.364,696.401 390.723,695.722 392.761,695.722 394.12,696.401 395.479,697.76 396.158,699.798 396.158,701.157 395.479,703.195 394.12,704.554 392.761,705.233 390.723,705.233 389.364,704.554 388.006,703.195 " />
<polyline points="408.387,695.722 408.387,705.233 " />
<polyline points="408.387,697.76 407.028,696.401 405.67,695.722 403.631,695.722 402.273,696.401 400.914,697.76 400.234,699.798 400.234,701.157 400.914,703.195 402.273,704.554 403.631,705.233 405.67,705.233 407.028,704.554 408.387,703.195 " />
<polyline points="421.295,697.76 419.937,696.401 418.578,695.722 416.54,695.722 415.181,696.401 413.822,697.76 413.143,699.798 413.143,701.157 413.822,703.195 415.181,704.554 416.54,705.233 418.578,705.233 419.937,704.554 421.295,703.195 " />
<polyline points="425.372,691.645 426.051,692.325 426.731,691.645 426.051,690.966 425.372,691.645 " />
<polyline points="426.051,696.401 426.051,705.233 " />
<polyline points="431.486,695.722 431.486,705.233 " />
<polyline points="431.486,698.439 433.524,696.401 434.883,695.722 436.921,695.722 438.28,696.401 438.959,698.439 438.959,705.233 " />
<polyline points="451.868,695.722 451.868,706.592 451.188,708.63 450.509,709.309 449.15,709.989 447.112,709.989 445.753,709.309 " />
<polyline points="451.868,697.76 450.509,696.401 449.15,695.722 447.112,695.722 445.753,696.401 444.395,697.76 443.715,699.798 443.715,701.157 444.395,703.195 445.753,704.554 447.112,705.233 449.15,705.233 450.509,704.554 451.868,703.195 " />
<polyline points="511.921,485.531 511.921,714.806 " />
<polyline points="331.278,714.806 68.2046,714.806 " />
<polyline points="68.2046,485.531 68.2046,714.806 " />
<polyline points="302.55,698.767 302.55,714.806 " />
<polyline points="422.18,227.409 217.825,227.409 " />
<polyline points="422.18,54.1497 422.18,227.684 " />
<polyline points="217.825,227.409 217.825,54.1497 " />
<path d="M217.825,54.1497  A86.6298,86.6298 0 1,0 217.825,227.409 " />
<path d="M422.18,227.409  A86.6298,86.6298 0 0,0 422.18,54.1497 " />
<polyline points="540.701,140.78 116.816,140.78 " />
<polyline points="508.81,140.78 508.81,236.327 " />
<polyline points="508.81,238.875 508.81,257.985 " />
<polyline points="131.195,140.78 131.195,236.327 " />
<polyline points="131.195,238.875 131.195,257.985 " />
<polyline points="508.81,257.985 131.195,257.985 " />
<polyline points="508.81,236.327 131.195,236.327 " />
<polyline points="508.81,238.875 433.791,238.875 " />
<polyline points="433.791,238.875 131.195,238.875 " />
<path d="M131.195,236.327  A1.27397,1.27397 0 0,0 131.195,238.875 " />
<path d="M508.81,238.875  A1.27397,1.27397 0 0,0 508.81,236.327 " />
<polyline points="186.613,54.1497 68.7523,54.1497 " />
<polyline points="186.613,227.409 68.7523,227.409 " />
<polyline points="68.7523,54.1497 68.7523,227.409 " />
<polyline points="131.195,284.695 131.195,370.945 " />
<polyline points="508.81,284.695 508.81,370.945 " />
<polyline points="131.195,370.945 508.81,370.945 " />
<polyline points="288.359,386.769 273.867,424.809 " />
<polyline points="288.359,386.769 302.85,424.809 " />
<polyline points="279.301,412.129 297.416,412.129 " />
<polyline points="926.375,140.78 786.254,140.78 " />
<polyline points="839.746,284.695 839.746,370.945 " />
<polyline points="1013.01,284.695 1013.01,370.945 " />
<polyline points="839.746,370.945 1013.01,370.945 " />
<polyline points="912.051,409.225 912.051,431.767 " />
<polyline points="912.051,414.055 908.831,410.835 905.611,409.225 900.78,409.225 897.56,410.835 894.339,414.055 892.729,418.886 892.729,422.106 894.339,426.936 897.56,430.157 900.78,431.767 905.611,431.767 908.831,430.157 912.051,426.936 " />
<polyline points="923.322,409.225 941.034,431.767 " />
<polyline points="941.034,409.225 923.322,431.767 " />
<polyline points="960.357,397.953 947.475,431.767 " />
<polyline points="960.357,397.953 973.238,431.767 " />
<polyline points="952.306,420.496 968.408,420.496 " />
<polyline points="131.866,370.945 131.195,370.275 " />
<polyline points="132.955,370.945 131.302,369.292 " />
<polyline points="134.045,370.945 132.207,369.107 " />
<polyline points="135.135,370.945 133.113,368.923 " />
<polyline points="136.225,370.945 134.018,368.739 " />
<polyline points="137.315,370.945 134.924,368.554 " />
<polyline points="138.405,370.945 135.829,368.37 " />
<polyline points="139.495,370.945 136.735,368.185 " />
<polyline points="140.585,370.945 137.64,368.001 " />
<polyline points="141.674,370.945 138.546,367.817 " />
<polyline points="142.764,370.945 139.451,367.632 " />
<polyline points="143.854,370.945 140.357,367.448 " />
<polyline points="144.944,370.945 141.262,367.264 " />
<polyline points="146.034,370.945 142.168,367.079 " />
<polyline points="147.124,370.945 143.073,366.895 " />
<polyline points="148.214,370.945 143.979,366.71 " />
<polyline points="149.304,370.945 144.884,366.526 " />
<polyline points="150.393,370.945 145.79,366.342 " />
<polyline points="151.483,370.945 146.695,366.157 " />
<polyline points="152.573,370.945 147.601,365.973 " />
<polyline points="153.663,370.945 148.506,365.789 " />
<polyline points="154.753,370.945 149.412,365.604 " />
<polyline points="155.424,370.526 150.317,365.42 " />
<polyline points="155.438,369.45 151.223,365.235 " />
<polyline points="155.451,368.374 152.128,365.051 " />
<polyline points="155.465,367.298 153.034,364.867 " />
<polyline points="155.478,366.221 153.939,364.682 " />
<polyline points="155.492,365.145 154.845,364.498 " />
<polyline points="132.066,371.146 131.866,370.945 " />
<polyline points="133.482,371.471 132.955,370.945 " />
<polyline points="134.897,371.797 134.045,370.945 " />
<polyline points="136.313,372.123 135.135,370.945 " />
<polyline points="137.729,372.449 136.225,370.945 " />
<polyline points="139.144,372.774 137.315,370.945 " />
<polyline points="140.56,373.1 138.405,370.945 " />
<polyline points="141.976,373.426 139.495,370.945 " />
<polyline points="143.391,373.752 140.585,370.945 " />
<polyline points="144.807,374.078 141.674,370.945 " />
<polyline points="146.222,374.403 142.764,370.945 " />
<polyline points="147.638,374.729 143.854,370.945 " />
<polyline points="149.054,375.055 144.944,370.945 " />
<polyline points="150.469,375.381 146.034,370.945 " />
<polyline points="151.885,375.706 147.124,370.945 " />
<polyline points="153.301,376.032 148.214,370.945 " />
<polyline points="154.716,376.358 149.304,370.945 " />
<polyline points="155.356,375.908 150.393,370.945 " />
<polyline points="155.369,374.831 151.483,370.945 " />
<polyline points="155.383,373.755 152.573,370.945 " />
<polyline points="155.397,372.679 153.663,370.945 " />
<polyline points="155.41,371.603 154.753,370.945 " />
<polyline points="131.195,370.945 155.348,376.503 " />
<polyline points="131.216,369.309 155.502,364.364 " />
<polyline points="840.416,370.945 839.746,370.275 " />
<polyline points="841.506,370.945 839.852,369.292 " />
<polyline points="842.596,370.945 840.758,369.107 " />
<polyline points="843.686,370.945 841.663,368.923 " />
<polyline points="844.775,370.945 842.569,368.739 " />
<polyline points="845.865,370.945 843.474,368.554 " />
<polyline points="846.955,370.945 844.38,368.37 " />
<polyline points="848.045,370.945 845.285,368.185 " />
<polyline points="849.135,370.945 846.191,368.001 " />
<polyline points="850.225,370.945 847.096,367.817 " />
<polyline points="851.315,370.945 848.002,367.632 " />
<polyline points="852.405,370.945 848.907,367.448 " />
<polyline points="853.494,370.945 849.813,367.264 " />
<polyline points="854.584,370.945 850.718,367.079 " />
<polyline points="855.674,370.945 851.624,366.895 " />
<polyline points="856.764,370.945 852.529,366.71 " />
<polyline points="857.854,370.945 853.435,366.526 " />
<polyline points="858.944,370.945 854.34,366.342 " />
<polyline points="860.034,370.945 855.246,366.157 " />
<polyline points="861.123,370.945 856.151,365.973 " />
<polyline points="862.213,370.945 857.057,365.789 " />
<polyline points="863.303,370.945 857.962,365.604 " />
<polyline points="863.974,370.526 858.868,365.42 " />
<polyline points="863.988,369.45 859.773,365.235 " />
<polyline points="864.002,368.374 860.679,365.051 " />
<polyline points="864.015,367.298 861.584,364.867 " />
<polyline points="864.029,366.221 862.49,364.682 " />
<polyline points="864.042,365.145 863.395,364.498 " />
<polyline points="840.616,371.146 840.416,370.945 " />
<polyline points="842.032,371.471 841.506,370.945 " />
<polyline points="843.448,371.797 842.596,370.945 " />
<polyline points="844.863,372.123 843.686,370.945 " />
<polyline points="846.279,372.449 844.775,370.945 " />
<polyline points="847.695,372.774 845.865,370.945 " />
<polyline points="849.11,373.1 846.955,370.945 " />
<polyline points="850.526,373.426 848.045,370.945 " />
<polyline points="851.942,373.752 849.135,370.945 " />
<polyline points="853.357,374.078 850.225,370.945 " />
<polyline points="854.773,374.403 851.315,370.945 " />
<polyline points="856.188,374.729 852.405,370.945 " />
<polyline points="857.604,375.055 853.494,370.945 " />
<polyline points="859.02,375.381 854.584,370.945 " />
<polyline points="860.435,375.706 855.674,370.945 " />
<polyline points="861.851,376.032 856.764,370.945 " />
<polyline points="863.267,376.358 857.854,370.945 " />
<polyline points="863.906,375.908 858.944,370.945 " />
<polyline points="863.92,374.831 860.034,370.945 " />
<polyline points="863.933,373.755 861.123,370.945 " />
<polyline points="863.947,372.679 862.213,370.945 " />
<polyline points="863.961,371.603 863.303,370.945 " />
<polyline points="839.746,370.945 863.899,376.503 " />
<polyline points="839.766,369.309 864.052,364.364 " />
<polyline points="508.16,369.309 508.83,369.98 " />
<polyline points="507.07,369.309 508.724,370.963 " />
<polyline points="505.98,369.309 507.818,371.147 " />
<polyline points="504.89,369.309 506.913,371.331 " />
<polyline points="503.801,369.309 506.007,371.516 " />
<polyline points="502.711,369.309 505.102,371.7 " />
<polyline points="501.621,369.309 504.196,371.885 " />
<polyline points="500.531,369.309 503.291,372.069 " />
<polyline points="499.441,369.309 502.385,372.253 " />
<polyline points="498.351,369.309 501.48,372.438 " />
<polyline points="497.261,369.309 500.574,372.622 " />
<polyline points="496.171,369.309 499.669,372.806 " />
<polyline points="495.082,369.309 498.763,372.991 " />
<polyline points="493.992,369.309 497.858,373.175 " />
<polyline points="492.902,369.309 496.952,373.36 " />
<polyline points="491.812,369.309 496.047,373.544 " />
<polyline points="490.722,369.309 495.141,373.728 " />
<polyline points="489.632,369.309 494.236,373.913 " />
<polyline points="488.542,369.309 493.33,374.097 " />
<polyline points="487.453,369.309 492.425,374.281 " />
<polyline points="486.363,369.309 491.519,374.466 " />
<polyline points="485.273,369.309 490.614,374.65 " />
<polyline points="484.602,369.728 489.708,374.835 " />
<polyline points="484.588,370.804 488.803,375.019 " />
<polyline points="484.574,371.88 487.897,375.203 " />
<polyline points="484.561,372.957 486.992,375.388 " />
<polyline points="484.547,374.033 486.086,375.572 " />
<polyline points="484.534,375.109 485.181,375.756 " />
<polyline points="507.96,369.109 508.16,369.309 " />
<polyline points="506.544,368.783 507.07,369.309 " />
<polyline points="505.128,368.457 505.98,369.309 " />
<polyline points="503.713,368.131 504.89,369.309 " />
<polyline points="502.297,367.806 503.801,369.309 " />
<polyline points="500.881,367.48 502.711,369.309 " />
<polyline points="499.466,367.154 501.621,369.309 " />
<polyline points="498.05,366.828 500.531,369.309 " />
<polyline points="496.635,366.503 499.441,369.309 " />
<polyline points="495.219,366.177 498.351,369.309 " />
<polyline points="493.803,365.851 497.261,369.309 " />
<polyline points="492.388,365.525 496.171,369.309 " />
<polyline points="490.972,365.2 495.082,369.309 " />
<polyline points="489.556,364.874 493.992,369.309 " />
<polyline points="488.141,364.548 492.902,369.309 " />
<polyline points="486.725,364.222 491.812,369.309 " />
<polyline points="485.309,363.896 490.722,369.309 " />
<polyline points="484.67,364.347 489.632,369.309 " />
<polyline points="484.656,365.423 488.542,369.309 " />
<polyline points="484.643,366.499 487.453,369.309 " />
<polyline points="484.629,367.575 486.363,369.309 " />
<polyline points="484.615,368.652 485.273,369.309 " />
<polyline points="508.83,369.309 484.677,363.751 " />
<polyline points="508.81,370.945 484.524,375.89 " />
<polyline points="68.773,225.103 68.1026,225.773 " />
<polyline points="68.773,224.013 67.1195,225.667 " />
<polyline points="68.773,222.923 66.9351,224.761 " />
<polyline points="68.773,221.833 66.7507,223.856 " />
<polyline points="68.773,220.744 66.5664,222.95 " />
<polyline points="68.773,219.654 66.382,222.045 " />
<polyline points="68.773,218.564 66.1976,221.139 " />
<polyline points="68.773,217.474 66.0132,220.234 " />
<polyline points="68.773,216.384 65.8288,219.328 " />
<polyline points="68.773,215.294 65.6445,218.423 " />
<polyline points="68.773,214.204 65.4601,217.517 " />
<polyline points="68.773,213.114 65.2757,216.612 " />
<polyline points="68.773,212.025 65.0913,215.706 " />
<polyline points="68.773,210.935 64.907,214.801 " />
<polyline points="68.773,209.845 64.7226,213.895 " />
<polyline points="68.773,208.755 64.5382,212.99 " />
<polyline points="68.773,207.665 64.3538,212.084 " />
<polyline points="68.773,206.575 64.1695,211.179 " />
<polyline points="68.773,205.485 63.9851,210.273 " />
<polyline points="68.773,204.396 63.8007,209.368 " />
<polyline points="68.773,203.306 63.6163,208.462 " />
<polyline points="68.773,202.216 63.432,207.557 " />
<polyline points="68.3542,201.545 63.2476,206.651 " />
<polyline points="67.278,201.531 63.0632,205.746 " />
<polyline points="66.2017,201.517 62.8788,204.84 " />
<polyline points="65.1255,201.504 62.6944,203.935 " />
<polyline points="64.0492,201.49 62.5101,203.029 " />
<polyline points="62.973,201.477 62.3257,202.124 " />
<polyline points="68.9734,224.903 68.773,225.103 " />
<polyline points="69.2991,223.487 68.773,224.013 " />
<polyline points="69.6249,222.071 68.773,222.923 " />
<polyline points="69.9507,220.656 68.773,221.833 " />
<polyline points="70.2765,219.24 68.773,220.744 " />
<polyline points="70.6022,217.824 68.773,219.654 " />
<polyline points="70.928,216.409 68.773,218.564 " />
<polyline points="71.2538,214.993 68.773,217.474 " />
<polyline points="71.5796,213.578 68.773,216.384 " />
<polyline points="71.9053,212.162 68.773,215.294 " />
<polyline points="72.2311,210.746 68.773,214.204 " />
<polyline points="72.5569,209.331 68.773,213.114 " />
<polyline points="72.8827,207.915 68.773,212.025 " />
<polyline points="73.2084,206.499 68.773,210.935 " />
<polyline points="73.5342,205.084 68.773,209.845 " />
<polyline points="73.86,203.668 68.773,208.755 " />
<polyline points="74.1858,202.252 68.773,207.665 " />
<polyline points="73.7354,201.613 68.773,206.575 " />
<polyline points="72.6592,201.599 68.773,205.485 " />
<polyline points="71.583,201.586 68.773,204.396 " />
<polyline points="70.5067,201.572 68.773,203.306 " />
<polyline points="69.4305,201.558 68.773,202.216 " />
<polyline points="68.773,225.773 74.3312,201.62 " />
<polyline points="67.137,225.753 62.1919,201.467 " />
<polyline points="874.398,192.757 874.398,326.1 " />
<polyline points="874.398,326.1 800.593,326.1 " />
<polyline points="875.073,325.691 874.403,325.021 " />
<polyline points="876.163,325.691 874.509,324.037 " />
<polyline points="877.253,325.691 875.415,323.853 " />
<polyline points="878.343,325.691 876.32,323.669 " />
<polyline points="879.433,325.691 877.226,323.484 " />
<polyline points="880.522,325.691 878.131,323.3 " />
<polyline points="881.612,325.691 879.037,323.115 " />
<polyline points="882.702,325.691 879.942,322.931 " />
<polyline points="883.792,325.691 880.848,322.747 " />
<polyline points="884.882,325.691 881.753,322.562 " />
<polyline points="885.972,325.691 882.659,322.378 " />
<polyline points="887.062,325.691 883.564,322.194 " />
<polyline points="888.151,325.691 884.47,322.009 " />
<polyline points="889.241,325.691 885.375,321.825 " />
<polyline points="890.331,325.691 886.281,321.64 " />
<polyline points="891.421,325.691 887.186,321.456 " />
<polyline points="892.511,325.691 888.092,321.272 " />
<polyline points="893.601,325.691 888.997,321.087 " />
<polyline points="894.691,325.691 889.903,320.903 " />
<polyline points="895.781,325.691 890.808,320.719 " />
<polyline points="896.87,325.691 891.714,320.534 " />
<polyline points="897.96,325.691 892.619,320.35 " />
<polyline points="898.631,325.272 893.525,320.165 " />
<polyline points="898.645,324.196 894.43,319.981 " />
<polyline points="898.659,323.12 895.336,319.797 " />
<polyline points="898.672,322.043 896.241,319.612 " />
<polyline points="898.686,320.967 897.147,319.428 " />
<polyline points="898.7,319.891 898.052,319.244 " />
<polyline points="875.273,325.891 875.073,325.691 " />
<polyline points="876.689,326.217 876.163,325.691 " />
<polyline points="878.105,326.543 877.253,325.691 " />
<polyline points="879.52,326.869 878.343,325.691 " />
<polyline points="880.936,327.194 879.433,325.691 " />
<polyline points="882.352,327.52 880.522,325.691 " />
<polyline points="883.767,327.846 881.612,325.691 " />
<polyline points="885.183,328.172 882.702,325.691 " />
<polyline points="886.599,328.497 883.792,325.691 " />
<polyline points="888.014,328.823 884.882,325.691 " />
<polyline points="889.43,329.149 885.972,325.691 " />
<polyline points="890.846,329.475 887.062,325.691 " />
<polyline points="892.261,329.801 888.151,325.691 " />
<polyline points="893.677,330.126 889.241,325.691 " />
<polyline points="895.092,330.452 890.331,325.691 " />
<polyline points="896.508,330.778 891.421,325.691 " />
<polyline points="897.924,331.104 892.511,325.691 " />
<polyline points="898.563,330.653 893.601,325.691 " />
<polyline points="898.577,329.577 894.691,325.691 " />
<polyline points="898.591,328.501 895.781,325.691 " />
<polyline points="898.604,327.425 896.87,325.691 " />
<polyline points="898.618,326.348 897.96,325.691 " />
<polyline points="874.403,325.691 898.556,331.249 " />
<polyline points="874.423,324.055 898.709,319.11 " />
<polyline points="800.593,326.1 762.815,326.1 " />
<polyline points="839.096,324.464 839.766,325.134 " />
<polyline points="838.006,324.464 839.66,326.117 " />
<polyline points="836.916,324.464 838.754,326.302 " />
<polyline points="835.826,324.464 837.849,326.486 " />
<polyline points="834.737,324.464 836.943,326.67 " />
<polyline points="833.647,324.464 836.038,326.855 " />
<polyline points="832.557,324.464 835.132,327.039 " />
<polyline points="831.467,324.464 834.227,327.224 " />
<polyline points="830.377,324.464 833.321,327.408 " />
<polyline points="829.287,324.464 832.416,327.592 " />
<polyline points="828.197,324.464 831.51,327.777 " />
<polyline points="827.107,324.464 830.605,327.961 " />
<polyline points="826.018,324.464 829.699,328.146 " />
<polyline points="824.928,324.464 828.794,328.33 " />
<polyline points="823.838,324.464 827.888,328.514 " />
<polyline points="822.748,324.464 826.983,328.699 " />
<polyline points="821.658,324.464 826.077,328.883 " />
<polyline points="820.568,324.464 825.172,329.067 " />
<polyline points="819.478,324.464 824.266,329.252 " />
<polyline points="818.389,324.464 823.361,329.436 " />
<polyline points="817.299,324.464 822.455,329.621 " />
<polyline points="816.209,324.464 821.55,329.805 " />
<polyline points="815.538,324.883 820.644,329.989 " />
<polyline points="815.524,325.959 819.739,330.174 " />
<polyline points="815.51,327.035 818.833,330.358 " />
<polyline points="815.497,328.111 817.928,330.542 " />
<polyline points="815.483,329.188 817.022,330.727 " />
<polyline points="815.47,330.264 816.117,330.911 " />
<polyline points="838.896,324.263 839.096,324.464 " />
<polyline points="837.48,323.938 838.006,324.464 " />
<polyline points="836.064,323.612 836.916,324.464 " />
<polyline points="834.649,323.286 835.826,324.464 " />
<polyline points="833.233,322.96 834.737,324.464 " />
<polyline points="831.817,322.635 833.647,324.464 " />
<polyline points="830.402,322.309 832.557,324.464 " />
<polyline points="828.986,321.983 831.467,324.464 " />
<polyline points="827.571,321.657 830.377,324.464 " />
<polyline points="826.155,321.332 829.287,324.464 " />
<polyline points="824.739,321.006 828.197,324.464 " />
<polyline points="823.324,320.68 827.107,324.464 " />
<polyline points="821.908,320.354 826.018,324.464 " />
<polyline points="820.492,320.028 824.928,324.464 " />
<polyline points="819.077,319.703 823.838,324.464 " />
<polyline points="817.661,319.377 822.748,324.464 " />
<polyline points="816.245,319.051 821.658,324.464 " />
<polyline points="815.606,319.501 820.568,324.464 " />
<polyline points="815.592,320.578 819.478,324.464 " />
<polyline points="815.579,321.654 818.389,324.464 " />
<polyline points="815.565,322.73 817.299,324.464 " />
<polyline points="815.551,323.806 816.209,324.464 " />
<polyline points="839.766,324.464 815.613,318.906 " />
<polyline points="839.746,326.1 815.46,331.045 " />
<polyline points="669.324,478.4 679.205,501.454 " />
<polyline points="689.085,478.4 679.205,501.454 " />
<polyline points="717.08,478.4 717.08,501.454 " />
<polyline points="717.08,483.34 713.787,480.046 710.493,478.4 705.553,478.4 702.26,480.046 698.966,483.34 697.319,488.28 697.319,491.574 698.966,496.514 702.26,499.808 705.553,501.454 710.493,501.454 713.787,499.808 717.08,496.514 " />
<polyline points="730.255,478.4 730.255,501.454 " />
<polyline points="730.255,484.987 735.195,480.046 738.489,478.4 743.429,478.4 746.722,480.046 748.369,484.987 748.369,501.454 " />
<polyline points="759.897,488.28 779.658,488.28 779.658,484.987 778.011,481.693 776.364,480.046 773.071,478.4 768.13,478.4 764.837,480.046 761.543,483.34 759.897,488.28 759.897,491.574 761.543,496.514 764.837,499.808 768.13,501.454 773.071,501.454 776.364,499.808 779.658,496.514 " />
<polyline points="650.386,528.049 648.739,524.755 643.799,523.108 638.859,523.108 633.918,524.755 632.272,528.049 633.918,531.342 637.212,532.989 645.446,534.636 648.739,536.283 650.386,539.576 650.386,541.223 648.739,544.516 643.799,546.163 638.859,546.163 633.918,544.516 632.272,541.223 " />
<polyline points="661.914,523.108 661.914,557.691 " />
<polyline points="661.914,528.049 665.207,524.755 668.501,523.108 673.441,523.108 676.735,524.755 680.028,528.049 681.675,532.989 681.675,536.283 680.028,541.223 676.735,544.516 673.441,546.163 668.501,546.163 665.207,544.516 661.914,541.223 " />
<polyline points="711.317,523.108 711.317,546.163 " />
<polyline points="711.317,528.049 708.023,524.755 704.73,523.108 699.789,523.108 696.496,524.755 693.202,528.049 691.555,532.989 691.555,536.283 693.202,541.223 696.496,544.516 699.789,546.163 704.73,546.163 708.023,544.516 711.317,541.223 " />
<polyline points="742.605,528.049 739.312,524.755 736.018,523.108 731.078,523.108 727.785,524.755 724.491,528.049 722.844,532.989 722.844,536.283 724.491,541.223 727.785,544.516 731.078,546.163 736.018,546.163 739.312,544.516 742.605,541.223 " />
<polyline points="752.486,513.228 754.133,514.875 755.78,513.228 754.133,511.581 752.486,513.228 " />
<polyline points="754.133,524.755 754.133,546.163 " />
<polyline points="767.307,523.108 767.307,546.163 " />
<polyline points="767.307,529.696 772.247,524.755 775.541,523.108 780.481,523.108 783.775,524.755 785.422,529.696 785.422,546.163 " />
<polyline points="816.71,523.108 816.71,549.457 815.064,554.397 813.417,556.044 810.123,557.691 805.183,557.691 801.889,556.044 " />
<polyline points="816.71,528.049 813.417,524.755 810.123,523.108 805.183,523.108 801.889,524.755 798.596,528.049 796.949,532.989 796.949,536.283 798.596,541.223 801.889,544.516 805.183,546.163 810.123,546.163 813.417,544.516 816.71,541.223 " />
<polyline points="1012.33,370.945 1013.01,371.616 " />
<polyline points="1011.25,370.945 1012.9,372.599 " />
<polyline points="1010.16,370.945 1011.99,372.783 " />
<polyline points="1009.07,370.945 1011.09,372.967 " />
<polyline points="1007.98,370.945 1010.18,373.152 " />
<polyline points="1006.89,370.945 1009.28,373.336 " />
<polyline points="1005.8,370.945 1008.37,373.521 " />
<polyline points="1004.71,370.945 1007.47,373.705 " />
<polyline points="1003.62,370.945 1006.56,373.889 " />
<polyline points="1002.53,370.945 1005.65,374.074 " />
<polyline points="1001.44,370.945 1004.75,374.258 " />
<polyline points="1000.35,370.945 1003.84,374.442 " />
<polyline points="999.257,370.945 1002.94,374.627 " />
<polyline points="998.167,370.945 1002.03,374.811 " />
<polyline points="997.077,370.945 1001.13,374.996 " />
<polyline points="995.987,370.945 1000.22,375.18 " />
<polyline points="994.897,370.945 999.316,375.364 " />
<polyline points="993.807,370.945 998.411,375.549 " />
<polyline points="992.717,370.945 997.505,375.733 " />
<polyline points="991.627,370.945 996.6,375.917 " />
<polyline points="990.538,370.945 995.694,376.102 " />
<polyline points="989.448,370.945 994.789,376.286 " />
<polyline points="988.777,371.364 993.883,376.471 " />
<polyline points="988.763,372.44 992.978,376.655 " />
<polyline points="988.749,373.516 992.072,376.839 " />
<polyline points="988.736,374.593 991.167,377.024 " />
<polyline points="988.722,375.669 990.261,377.208 " />
<polyline points="988.709,376.745 989.356,377.392 " />
<polyline points="1012.13,370.745 1012.33,370.945 " />
<polyline points="1010.72,370.419 1011.25,370.945 " />
<polyline points="1009.3,370.093 1010.16,370.945 " />
<polyline points="1007.89,369.767 1009.07,370.945 " />
<polyline points="1006.47,369.442 1007.98,370.945 " />
<polyline points="1005.06,369.116 1006.89,370.945 " />
<polyline points="1003.64,368.79 1005.8,370.945 " />
<polyline points="1002.23,368.464 1004.71,370.945 " />
<polyline points="1000.81,368.139 1003.62,370.945 " />
<polyline points="999.394,367.813 1002.53,370.945 " />
<polyline points="997.978,367.487 1001.44,370.945 " />
<polyline points="996.563,367.161 1000.35,370.945 " />
<polyline points="995.147,366.835 999.257,370.945 " />
<polyline points="993.731,366.51 998.167,370.945 " />
<polyline points="992.316,366.184 997.077,370.945 " />
<polyline points="990.9,365.858 995.987,370.945 " />
<polyline points="989.484,365.532 994.897,370.945 " />
<polyline points="988.845,365.983 993.807,370.945 " />
<polyline points="988.831,367.059 992.717,370.945 " />
<polyline points="988.818,368.135 991.627,370.945 " />
<polyline points="988.804,369.211 990.538,370.945 " />
<polyline points="988.79,370.288 989.448,370.945 " />
<polyline points="1013.01,370.945 988.852,365.387 " />
<polyline points="1012.98,372.581 988.699,377.526 " />
<polyline points="762.815,326.1 721.104,326.1 " />
<polyline points="721.104,326.1 721.104,463.274 " />
<polyline points="68.7523,57.8466 69.4226,57.1762 " />
<polyline points="68.7523,58.9365 70.4058,57.2829 " />
<polyline points="68.7523,60.0263 70.5902,58.1884 " />
<polyline points="68.7523,61.1162 70.7745,59.0939 " />
<polyline points="68.7523,62.2061 70.9589,59.9994 " />
<polyline points="68.7523,63.2959 71.1433,60.9049 " />
<polyline points="68.7523,64.3858 71.3277,61.8104 " />
<polyline points="68.7523,65.4757 71.5121,62.7159 " />
<polyline points="68.7523,66.5655 71.6964,63.6214 " />
<polyline points="68.7523,67.6554 71.8808,64.5269 " />
<polyline points="68.7523,68.7453 72.0652,65.4324 " />
<polyline points="68.7523,69.8351 72.2496,66.3379 " />
<polyline points="68.7523,70.925 72.4339,67.2434 " />
<polyline points="68.7523,72.0149 72.6183,68.1488 " />
<polyline points="68.7523,73.1047 72.8027,69.0543 " />
<polyline points="68.7523,74.1946 72.9871,69.9598 " />
<polyline points="68.7523,75.2845 73.1714,70.8653 " />
<polyline points="68.7523,76.3743 73.3558,71.7708 " />
<polyline points="68.7523,77.4642 73.5402,72.6763 " />
<polyline points="68.7523,78.5541 73.7246,73.5818 " />
<polyline points="68.7523,79.6439 73.9089,74.4873 " />
<polyline points="68.7523,80.7338 74.0933,75.3928 " />
<polyline points="69.1711,81.4049 74.2777,76.2983 " />
<polyline points="70.2473,81.4185 74.4621,77.2038 " />
<polyline points="71.3235,81.4322 74.6465,78.1092 " />
<polyline points="72.3998,81.4458 74.8308,79.0147 " />
<polyline points="73.476,81.4594 75.0152,79.9202 " />
<polyline points="74.5523,81.473 75.1996,80.8257 " />
<polyline points="68.5519,58.047 68.7523,57.8466 " />
<polyline points="68.2261,59.4626 68.7523,58.9365 " />
<polyline points="67.9004,60.8782 68.7523,60.0263 " />
<polyline points="67.5746,62.2939 68.7523,61.1162 " />
<polyline points="67.2488,63.7095 68.7523,62.2061 " />
<polyline points="66.923,65.1252 68.7523,63.2959 " />
<polyline points="66.5973,66.5408 68.7523,64.3858 " />
<polyline points="66.2715,67.9565 68.7523,65.4757 " />
<polyline points="65.9457,69.3721 68.7523,66.5655 " />
<polyline points="65.6199,70.7877 68.7523,67.6554 " />
<polyline points="65.2942,72.2034 68.7523,68.7453 " />
<polyline points="64.9684,73.619 68.7523,69.8351 " />
<polyline points="64.6426,75.0347 68.7523,70.925 " />
<polyline points="64.3168,76.4503 68.7523,72.0149 " />
<polyline points="63.9911,77.866 68.7523,73.1047 " />
<polyline points="63.6653,79.2816 68.7523,74.1946 " />
<polyline points="63.3395,80.6972 68.7523,75.2845 " />
<polyline points="63.7898,81.3368 68.7523,76.3743 " />
<polyline points="64.8661,81.3504 68.7523,77.4642 " />
<polyline points="65.9423,81.364 68.7523,78.5541 " />
<polyline points="67.0186,81.3777 68.7523,79.6439 " />
<polyline points="68.0948,81.3913 68.7523,80.7338 " />
<polyline points="68.7523,57.1762 63.1941,81.3293 " />
<polyline points="70.3883,57.1969 75.3334,81.4829 " />
<polyline points="68.7523,56.1128 69.4226,55.4424 " />
<polyline points="68.7523,57.2027 70.4058,55.5491 " />
<polyline points="68.7523,58.2925 70.5902,56.4546 " />
<polyline points="68.7523,59.3824 70.7745,57.3601 " />
<polyline points="68.7523,60.4723 70.9589,58.2656 " />
<polyline points="68.7523,61.5621 71.1433,59.1711 " />
<polyline points="68.7523,62.652 71.3277,60.0766 " />
<polyline points="68.7523,63.7419 71.5121,60.9821 " />
<polyline points="68.7523,64.8317 71.6964,61.8876 " />
<polyline points="68.7523,65.9216 71.8808,62.7931 " />
<polyline points="68.7523,67.0115 72.0652,63.6986 " />
<polyline points="68.7523,68.1013 72.2496,64.6041 " />
<polyline points="68.7523,69.1912 72.4339,65.5095 " />
<polyline points="68.7523,70.2811 72.6183,66.415 " />
<polyline points="68.7523,71.3709 72.8027,67.3205 " />
<polyline points="68.7523,72.4608 72.9871,68.226 " />
<polyline points="68.7523,73.5507 73.1714,69.1315 " />
<polyline points="68.7523,74.6405 73.3558,70.037 " />
<polyline points="68.7523,75.7304 73.5402,70.9425 " />
<polyline points="68.7523,76.8203 73.7246,71.848 " />
<polyline points="68.7523,77.9101 73.9089,72.7535 " />
<polyline points="68.7523,79 74.0933,73.659 " />
<polyline points="69.1711,79.6711 74.2777,74.5645 " />
<polyline points="70.2473,79.6847 74.4621,75.47 " />
<polyline points="71.3235,79.6984 74.6465,76.3754 " />
<polyline points="72.3998,79.712 74.8308,77.2809 " />
<polyline points="73.476,79.7256 75.0152,78.1864 " />
<polyline points="74.5523,79.7392 75.1996,79.0919 " />
<polyline points="68.5519,56.3132 68.7523,56.1128 " />
<polyline points="68.2261,57.7288 68.7523,57.2027 " />
<polyline points="67.9004,59.1444 68.7523,58.2925 " />
<polyline points="67.5746,60.5601 68.7523,59.3824 " />
<polyline points="67.2488,61.9757 68.7523,60.4723 " />
<polyline points="66.923,63.3914 68.7523,61.5621 " />
<polyline points="66.5973,64.807 68.7523,62.652 " />
<polyline points="66.2715,66.2227 68.7523,63.7419 " />
<polyline points="65.9457,67.6383 68.7523,64.8317 " />
<polyline points="65.6199,69.0539 68.7523,65.9216 " />
<polyline points="65.2942,70.4696 68.7523,67.0115 " />
<polyline points="64.9684,71.8852 68.7523,68.1013 " />
<polyline points="64.6426,73.3009 68.7523,69.1912 " />
<polyline points="64.3168,74.7165 68.7523,70.2811 " />
<polyline points="63.9911,76.1322 68.7523,71.3709 " />
<polyline points="63.6653,77.5478 68.7523,72.4608 " />
<polyline points="63.3395,78.9634 68.7523,73.5507 " />
<polyline points="63.7898,79.603 68.7523,74.6405 " />
<polyline points="64.8661,79.6166 68.7523,75.7304 " />
<polyline points="65.9423,79.6302 68.7523,76.8203 " />
<polyline points="67.0186,79.6439 68.7523,77.9101 " />
<polyline points="68.0948,79.6575 68.7523,79 " />
<polyline points="68.7523,55.4424 63.1941,79.5955 " />
<polyline points="70.3883,55.4631 75.3334,79.7491 " />
</g>
</svg>
