<?xml version="1.0" standalone="no"?>
<svg viewBox="0 0 1024 768" version="1.1" xmlns="http://www.w3.org/2000/svg" xmlns:xlink="http://www.w3.org/1999/xlink" stroke-linecap="round" stroke-linejoin="round" fill-rule="evenodd" xml:space="preserve" >
<defs >
<clipPath id="clipId0" >
<path d="M0,768 1024,768 1024,0 0,0 z" />
</clipPath>
</defs>
<g clip-path="url(#clipId0)" fill="none" stroke="rgb(0,0,0)" stroke-width="0.1" />
<g clip-path="url(#clipId0)" fill="none" stroke="rgb(0,0,0)" stroke-width="0.25" >
<polyline points="282.458,257.34 252.11,257.34 " />
<polyline points="282.458,257.34 282.458,287.688 " />
<polyline points="464.546,75.2517 464.546,287.688 " />
<polyline points="464.546,75.2517 252.11,75.2517 " />
<polyline points="282.458,257.34 464.546,75.2517 " />
<path d="M384.169,192.047  A36.4176,36.4176 0 0,0 347.751,155.629 " />
<path d="M409.92,166.296  A36.4176,36.4176 0 0,0 373.502,129.878 " />
<path d="M435.671,140.545  A36.4176,36.4176 0 0,0 399.253,104.127 " />
<path d="M461.422,114.793  A36.4176,36.4176 0 0,0 425.005,78.3759 " />
<path d="M358.418,217.798  A36.4176,36.4176 0 0,0 322,181.38 " />
<path d="M332.666,243.549  A36.4176,36.4176 0 0,0 296.249,207.131 " />
<path d="M306.915,269.3  A36.4176,36.4176 0 0,0 270.498,232.883 " />
<polyline points="464.546,287.688 282.458,287.688 " />
<polyline points="252.11,75.2517 252.11,257.34 " />
<path d="M1013.96,310.619  A109.253,109.253 0 0,0 904.708,201.367 " />
<path d="M915.248,409.332  A109.253,109.253 0 0,0 805.995,300.079 " />
<polyline points="805.995,427.541 805.995,391.123 " />
<polyline points="787.787,409.332 824.204,409.332 " />
<polyline points="842.413,409.332 933.457,409.332 " />
<polyline points="805.995,372.914 805.995,281.87 " />
<polyline points="992.596,212.001 860.737,80.1425 " />
<polyline points="893.884,310.714 762.025,178.855 " />
<polyline points="863.312,108.469 841.875,129.906 " />
<polyline points="790.351,181.43 811.788,159.993 " />
</g>
<g clip-path="url(#clipId0)" fill="rgb(0,0,0)" stroke="rgb(0,0,0)" stroke-width="0.25" >
<path d="M865.458,110.615 861.167,106.323 876.188,95.5932 876.188,95.5932 z" />
<path d="M792.497,183.576 788.205,179.284 777.475,194.306 777.475,194.306 z" />
</g>
<g clip-path="url(#clipId0)" fill="none" stroke="rgb(0,0,0)" stroke-width="0.25" >
<polyline points="834.202,144.516 833.335,142.782 830.734,141.915 828.132,141.915 825.531,142.782 824.664,144.516 825.531,146.25 827.265,147.117 831.601,147.984 833.335,148.851 834.202,150.586 834.202,151.453 833.335,153.187 830.734,154.054 828.132,154.054 825.531,153.187 824.664,151.453 " />
</g>
<g clip-path="url(#clipId0)" fill="rgb(0,0,0)" stroke="rgb(0,0,0)" stroke-width="0.25" >
<path d="M875.927,350.956 879.659,355.742 892.153,342.152 892.153,342.152 z" />
</g>
<g clip-path="url(#clipId0)" fill="none" stroke="rgb(0,0,0)" stroke-width="0.25" >
<polyline points="877.793,353.349 754.125,449.777 " />
<polyline points="754.125,449.777 735.916,449.777 " />
<polyline points="718.892,445.384 718.892,457.523 " />
<polyline points="718.892,450.586 719.759,447.985 721.493,446.251 723.228,445.384 725.829,445.384 " />
<polyline points="154.074,194.772 152.34,195.639 150.605,197.373 149.738,199.974 149.738,201.708 150.605,204.31 152.34,206.044 154.074,206.911 156.675,206.911 158.409,206.044 160.143,204.31 161.011,201.708 161.011,199.974 160.143,197.373 158.409,195.639 156.675,194.772 154.074,194.772 " />
<polyline points="187.376,166.296 102.358,166.296 " />
</g>
<g clip-path="url(#clipId0)" fill="rgb(0,0,0)" stroke="rgb(0,0,0)" stroke-width="0.25" >
<path d="M187.376,163.261 187.376,169.33 205.584,166.296 205.584,166.296 z" />
</g>
<g clip-path="url(#clipId0)" fill="none" stroke="rgb(0,0,0)" stroke-width="0.25" >
<polyline points="306.915,269.3 306.915,251.091 " />
<polyline points="270.498,232.883 288.707,232.883 " />
<path d="M306.915,251.091  A18.2088,18.2088 0 0,0 288.707,232.883 " />
<polyline points="296.249,207.131 314.458,207.131 " />
<path d="M332.666,225.34  A18.2088,18.2088 0 0,0 314.458,207.131 " />
<polyline points="332.666,243.549 332.666,225.34 " />
<polyline points="322,181.38 340.209,181.38 " />
<path d="M358.418,199.589  A18.2088,18.2088 0 0,0 340.209,181.38 " />
<polyline points="358.418,217.798 358.418,199.589 " />
<polyline points="347.751,155.629 365.96,155.629 " />
<path d="M384.169,173.838  A18.2088,18.2088 0 0,0 365.96,155.629 " />
<polyline points="384.169,192.047 384.169,173.838 " />
<polyline points="373.502,129.878 391.711,129.878 " />
<path d="M409.92,148.087  A18.2088,18.2088 0 0,0 391.711,129.878 " />
<polyline points="409.92,166.296 409.92,148.087 " />
<polyline points="399.253,104.127 417.462,104.127 " />
<path d="M435.671,122.336  A18.2088,18.2088 0 0,0 417.462,104.127 " />
<polyline points="435.671,140.545 435.671,122.336 " />
<polyline points="425.005,78.3759 443.213,78.3759 " />
<path d="M461.422,96.5846  A18.2088,18.2088 0 0,0 443.213,78.3759 " />
<polyline points="461.422,114.793 461.422,96.5846 " />
<polyline points="915.248,409.332 915.248,354.706 " />
<polyline points="805.995,300.079 860.622,300.079 " />
<path d="M915.248,354.706  A54.6264,54.6264 0 0,0 860.622,300.079 " />
<polyline points="904.708,201.367 959.334,201.367 " />
<path d="M1013.96,255.993  A54.6264,54.6264 0 0,0 959.334,201.367 " />
<polyline points="1013.96,310.619 1013.96,255.993 " />
<polyline points="39.6744,75.2517 39.6744,129.493 " />
<polyline points="252.11,75.2517 39.6744,75.2517 " />
<polyline points="252.11,257.34 39.6744,257.34 " />
<polyline points="134.138,126.461 132.404,127.328 130.67,129.063 129.803,130.797 128.936,133.398 128.936,137.733 129.803,140.335 130.67,142.069 132.404,143.803 134.138,144.67 137.606,144.67 139.341,143.803 141.075,142.069 141.942,140.335 142.809,137.733 142.809,133.398 141.942,130.797 141.075,129.063 139.341,127.328 137.606,126.461 134.138,126.461 " />
<polyline points="136.739,141.202 141.942,146.404 " />
<polyline points="39.3257,548.852 39.3257,560.991 " />
<polyline points="39.3257,554.055 40.1928,551.453 41.927,549.719 43.6611,548.852 46.2624,548.852 " />
<polyline points="68.8066,550.586 84.4142,550.586 " />
<polyline points="68.8066,555.789 84.4142,555.789 " />
<polyline points="109.56,547.118 109.56,546.251 110.427,544.517 111.294,543.65 113.028,542.782 116.496,542.782 118.23,543.65 119.098,544.517 119.965,546.251 119.965,547.985 119.098,549.719 117.363,552.32 108.693,560.991 120.832,560.991 " />
<polyline points="127.768,559.257 126.901,560.124 127.768,560.991 128.636,560.124 127.768,559.257 " />
<polyline points="139.908,542.782 137.306,543.65 135.572,546.251 134.705,550.586 134.705,553.188 135.572,557.523 137.306,560.124 139.908,560.991 141.642,560.991 144.243,560.124 145.977,557.523 146.844,553.188 146.844,550.586 145.977,546.251 144.243,543.65 141.642,542.782 139.908,542.782 " />
<polyline points="177.192,539.314 175.458,541.048 173.724,543.65 171.99,547.118 171.123,551.453 171.123,554.922 171.99,559.257 173.724,562.725 175.458,565.327 177.192,567.061 " />
<polyline points="192.8,542.782 184.129,542.782 183.262,550.586 184.129,549.719 186.73,548.852 189.331,548.852 191.933,549.719 193.667,551.453 194.534,554.055 194.534,555.789 193.667,558.39 191.933,560.124 189.331,560.991 186.73,560.991 184.129,560.124 183.262,559.257 182.395,557.523 " />
<polyline points="204.939,542.782 202.338,543.65 200.604,546.251 199.737,550.586 199.737,553.188 200.604,557.523 202.338,560.124 204.939,560.991 206.673,560.991 209.274,560.124 211.009,557.523 211.876,553.188 211.876,550.586 211.009,546.251 209.274,543.65 206.673,542.782 204.939,542.782 " />
<polyline points="217.078,539.314 218.812,541.048 220.547,543.65 222.281,547.118 223.148,551.453 223.148,554.922 222.281,559.257 220.547,562.725 218.812,565.327 217.078,567.061 " />
<polyline points="231.819,560.124 230.952,560.991 230.085,560.124 230.952,559.257 231.819,560.124 231.819,561.858 230.952,563.593 230.085,564.46 " />
<polyline points="265.635,551.453 264.768,549.719 262.167,548.852 259.565,548.852 256.964,549.719 256.097,551.453 256.964,553.188 258.698,554.055 263.034,554.922 264.768,555.789 265.635,557.523 265.635,558.39 264.768,560.124 262.167,560.991 259.565,560.991 256.964,560.124 256.097,558.39 " />
<polyline points="289.913,550.586 305.521,550.586 " />
<polyline points="289.913,555.789 305.521,555.789 " />
<polyline points="332.401,546.251 334.135,545.384 336.736,542.782 336.736,560.991 " />
<polyline points="348.875,559.257 348.008,560.124 348.875,560.991 349.742,560.124 348.875,559.257 " />
<polyline points="366.217,542.782 357.546,542.782 356.679,550.586 357.546,549.719 360.147,548.852 362.749,548.852 365.35,549.719 367.084,551.453 367.951,554.055 367.951,555.789 367.084,558.39 365.35,560.124 362.749,560.991 360.147,560.991 357.546,560.124 356.679,559.257 355.812,557.523 " />
<polyline points="398.299,539.314 396.565,541.048 394.831,543.65 393.097,547.118 392.229,551.453 392.229,554.922 393.097,559.257 394.831,562.725 396.565,565.327 398.299,567.061 " />
<polyline points="412.172,542.782 403.502,554.922 416.508,554.922 " />
<polyline points="412.172,542.782 412.172,560.991 " />
<polyline points="426.046,542.782 423.445,543.65 421.71,546.251 420.843,550.586 420.843,553.188 421.71,557.523 423.445,560.124 426.046,560.991 427.78,560.991 430.381,560.124 432.115,557.523 432.983,553.188 432.983,550.586 432.115,546.251 430.381,543.65 427.78,542.782 426.046,542.782 " />
<polyline points="438.185,539.314 439.919,541.048 441.653,543.65 443.388,547.118 444.255,551.453 444.255,554.922 443.388,559.257 441.653,562.725 439.919,565.327 438.185,567.061 " />
<polyline points="452.925,560.124 452.058,560.991 451.191,560.124 452.058,559.257 452.925,560.124 452.925,561.858 452.058,563.593 451.191,564.46 " />
<polyline points="477.204,543.65 478.071,544.517 478.938,543.65 478.071,542.782 477.204,543.65 " />
<polyline points="478.071,549.719 478.071,560.991 " />
<polyline points="485.008,548.852 485.008,560.991 " />
<polyline points="485.008,552.32 487.609,549.719 489.343,548.852 491.944,548.852 493.678,549.719 494.546,552.32 494.546,560.991 " />
<polyline points="502.349,559.257 501.482,560.124 502.349,560.991 503.216,560.124 502.349,559.257 " />
<polyline points="516.223,539.314 514.489,541.048 512.754,543.65 511.02,547.118 510.153,551.453 510.153,554.922 511.02,559.257 512.754,562.725 514.489,565.327 516.223,567.061 " />
<polyline points="522.292,548.852 522.292,560.991 " />
<polyline points="522.292,552.32 524.894,549.719 526.628,548.852 529.229,548.852 530.963,549.719 531.83,552.32 531.83,560.991 " />
<polyline points="531.83,552.32 534.432,549.719 536.166,548.852 538.767,548.852 540.501,549.719 541.368,552.32 541.368,560.991 " />
<polyline points="548.305,548.852 548.305,560.991 " />
<polyline points="548.305,552.32 550.906,549.719 552.64,548.852 555.242,548.852 556.976,549.719 557.843,552.32 557.843,560.991 " />
<polyline points="557.843,552.32 560.444,549.719 562.178,548.852 564.78,548.852 566.514,549.719 567.381,552.32 567.381,560.991 " />
<polyline points="573.45,539.314 575.185,541.048 576.919,543.65 578.653,547.118 579.52,551.453 579.52,554.922 578.653,559.257 576.919,562.725 575.185,565.327 573.45,567.061 " />
<polyline points="135.147,180.699 128.211,198.908 " />
<polyline points="135.147,180.699 142.084,198.908 " />
<polyline points="130.812,192.838 139.483,192.838 " />
<polyline points="39.6744,129.493 66.0464,143.924 " />
<polyline points="63.5524,143.924 10.0392,156.656 " />
<polyline points="10.0392,156.656 37.1803,173.633 " />
<polyline points="39.6744,173.633 39.6744,257.34 " />
<polyline points="282.458,287.688 282.458,408.635 " />
<polyline points="380.84,431.066 464.546,431.066 " />
<polyline points="336.7,431.066 351.13,404.694 " />
<polyline points="282.458,431.066 336.7,431.066 " />
<polyline points="363.863,458.207 380.84,431.066 " />
<polyline points="351.13,404.694 363.863,458.207 " />
<polyline points="464.546,287.688 464.546,408.635 " />
<polyline points="325.672,343.609 330.007,361.817 " />
<polyline points="334.343,343.609 330.007,361.817 " />
<polyline points="334.343,343.609 338.678,361.817 " />
<polyline points="343.013,343.609 338.678,361.817 " />
<polyline points="365.558,349.678 375.096,361.817 " />
<polyline points="375.096,349.678 365.558,361.817 " />
<polyline points="399.374,343.609 399.374,361.817 " />
<polyline points="411.513,343.609 411.513,361.817 " />
<polyline points="399.374,352.279 411.513,352.279 " />
<polyline points="464.546,408.635 464.546,431.066 " />
<polyline points="464.546,431.066 494.894,431.066 " />
<polyline points="282.458,408.635 282.458,431.066 " />
<polyline points="282.458,431.066 252.11,431.066 " />
<polyline points="39.6744,75.2517 39.6744,44.9037 " />
<polyline points="39.6744,257.34 39.6744,287.688 " />
<polyline points="875.198,702.749 873.927,700.205 871.383,697.662 868.84,696.39 863.753,696.39 861.209,697.662 858.666,700.205 857.394,702.749 856.122,706.564 856.122,712.922 857.394,716.738 858.666,719.281 861.209,721.825 863.753,723.096 868.84,723.096 871.383,721.825 873.927,719.281 875.198,716.738 " />
<polyline points="884.1,696.39 884.1,723.096 " />
<polyline points="884.1,696.39 895.546,696.39 899.361,697.662 900.633,698.933 901.905,701.477 901.905,704.02 900.633,706.564 899.361,707.836 895.546,709.107 884.1,709.107 " />
<polyline points="893.002,709.107 901.905,723.096 " />
<polyline points="912.078,696.39 926.067,696.39 918.437,706.564 922.252,706.564 924.796,707.836 926.067,709.107 927.339,712.922 927.339,715.466 926.067,719.281 923.524,721.825 919.709,723.096 915.894,723.096 912.078,721.825 910.807,720.553 909.535,718.009 " />
<polyline points="936.241,711.651 959.132,711.651 " />
<polyline points="971.849,701.477 974.393,700.205 978.208,696.39 978.208,723.096 " />
<polyline points="1006.19,696.39 993.469,714.194 1012.54,714.194 " />
<polyline points="1006.19,696.39 1006.19,723.096 " />
</g>
</svg>
