<?xml version="1.0" standalone="no"?>
<svg viewBox="0 0 1024 768" version="1.1" xmlns="http://www.w3.org/2000/svg" xmlns:xlink="http://www.w3.org/1999/xlink" stroke-linecap="round" stroke-linejoin="round" fill-rule="evenodd" xml:space="preserve" >
<defs >
<clipPath id="clipId0" >
<path d="M0,768 1024,768 1024,0 0,0 z" />
</clipPath>
</defs>
<g clip-path="url(#clipId0)" fill="none" stroke="rgb(0,0,0)" stroke-width="0.1" />
<g clip-path="url(#clipId0)" fill="none" stroke="rgb(0,0,0)" stroke-width="0.25" >
<polyline points="271.197,276.161 244.042,276.161 " />
<polyline points="271.197,276.161 271.197,303.316 " />
<polyline points="434.127,113.231 434.127,303.316 " />
<polyline points="434.127,113.231 244.042,113.231 " />
<polyline points="271.197,276.161 434.127,113.231 " />
<path d="M362.206,217.737  A32.586,32.586 0 0,0 329.62,185.151 " />
<path d="M385.248,194.696  A32.586,32.586 0 0,0 352.662,162.11 " />
<path d="M408.29,171.654  A32.586,32.586 0 0,0 375.704,139.068 " />
<path d="M431.332,148.612  A32.586,32.586 0 0,0 398.745,116.026 " />
<path d="M339.164,240.779  A32.586,32.586 0 0,0 306.578,208.193 " />
<path d="M316.122,263.821  A32.586,32.586 0 0,0 283.536,231.235 " />
<path d="M293.081,286.863  A32.586,32.586 0 0,0 260.495,254.277 " />
<polyline points="434.127,303.316 271.197,303.316 " />
<polyline points="244.042,113.231 244.042,276.161 " />
<path d="M921.206,260.765  A97.7581,97.7581 0 0,0 823.448,163.007 " />
<path d="M832.879,349.092  A97.7581,97.7581 0 0,0 735.121,251.334 " />
<polyline points="735.121,365.385 735.121,332.799 " />
<polyline points="718.828,349.092 751.414,349.092 " />
<polyline points="767.707,349.092 849.172,349.092 " />
<polyline points="735.121,316.506 735.121,235.041 " />
<polyline points="823.448,228.179 823.448,146.714 " />
<polyline points="856.034,260.765 937.499,260.765 " />
<polyline points="807.155,260.765 839.741,260.765 " />
<polyline points="823.448,277.058 823.448,244.472 " />
<polyline points="887.773,186.839 769.787,68.8534 " />
<polyline points="799.446,275.166 681.46,157.18 " />
<polyline points="772.092,94.1994 752.91,113.381 " />
<polyline points="706.806,159.485 725.988,140.303 " />
</g>
<g clip-path="url(#clipId0)" fill="rgb(0,0,0)" stroke="rgb(0,0,0)" stroke-width="0.25" >
<path d="M774.012,96.1196 770.171,92.2793 783.613,82.6785 783.613,82.6785 z" />
<path d="M708.727,161.405 704.886,157.564 695.286,171.005 695.286,171.005 z" />
</g>
<g clip-path="url(#clipId0)" fill="none" stroke="rgb(0,0,0)" stroke-width="0.25" >
<polyline points="746.044,126.454 745.268,124.902 742.94,124.126 740.613,124.126 738.285,124.902 737.509,126.454 738.285,128.006 739.837,128.782 743.716,129.557 745.268,130.333 746.044,131.885 746.044,132.661 745.268,134.213 742.94,134.988 740.613,134.988 738.285,134.213 737.509,132.661 " />
<polyline points="927.995,260.765 936.448,260.765 " />
</g>
<g clip-path="url(#clipId0)" fill="rgb(0,0,0)" stroke="rgb(0,0,0)" stroke-width="0.25" >
<path d="M886.022,208.531 889.362,212.814 900.541,200.653 900.541,200.653 z" />
</g>
<g clip-path="url(#clipId0)" fill="none" stroke="rgb(0,0,0)" stroke-width="0.25" >
<polyline points="934.105,174.482 823.448,260.765 " />
<polyline points="950.398,174.482 934.105,174.482 " />
<polyline points="961.528,170.531 961.528,181.393 " />
<polyline points="961.528,175.186 962.304,172.858 963.855,171.307 965.407,170.531 967.735,170.531 " />
<polyline points="148.971,225.571 147.419,226.347 145.868,227.898 145.092,230.226 145.092,231.778 145.868,234.105 147.419,235.657 148.971,236.433 151.299,236.433 152.85,235.657 154.402,234.105 155.178,231.778 155.178,230.226 154.402,227.898 152.85,226.347 151.299,225.571 148.971,225.571 " />
<polyline points="181.008,199.732 104.935,199.732 " />
</g>
<g clip-path="url(#clipId0)" fill="rgb(0,0,0)" stroke="rgb(0,0,0)" stroke-width="0.25" >
<path d="M181.008,197.017 181.008,202.448 197.301,199.732 197.301,199.732 z" />
</g>
<g clip-path="url(#clipId0)" fill="none" stroke="rgb(0,0,0)" stroke-width="0.25" >
<polyline points="661.802,239.298 569.732,239.298 " />
</g>
<g clip-path="url(#clipId0)" fill="rgb(0,0,0)" stroke="rgb(0,0,0)" stroke-width="0.25" >
<path d="M661.802,236.583 661.802,242.014 678.095,239.298 678.095,239.298 z" />
</g>
<g clip-path="url(#clipId0)" fill="none" stroke="rgb(0,0,0)" stroke-width="0.25" >
<polyline points="578.867,215.815 572.66,232.108 " />
<polyline points="578.867,215.815 585.074,232.108 " />
<polyline points="574.988,226.677 582.746,226.677 " />
<polyline points="588.953,215.815 588.953,232.108 " />
<polyline points="595.16,215.815 595.16,232.108 " />
<polyline points="595.16,215.815 602.143,215.815 604.47,216.591 605.246,217.367 606.022,218.919 606.022,220.47 605.246,222.022 604.47,222.798 602.143,223.574 595.16,223.574 " />
<polyline points="600.591,223.574 606.022,232.108 " />
<polyline points="574.988,245.746 574.988,262.039 " />
<polyline points="574.988,245.746 585.074,245.746 " />
<polyline points="574.988,253.505 581.195,253.505 " />
<polyline points="588.953,245.746 588.953,262.039 598.264,262.039 " />
<polyline points="606.022,245.746 604.47,246.522 602.919,248.074 602.143,249.625 601.367,251.953 601.367,255.832 602.143,258.16 602.919,259.711 604.47,261.263 606.022,262.039 609.126,262.039 610.677,261.263 612.229,259.711 613.005,258.16 613.781,255.832 613.781,251.953 613.005,249.625 612.229,248.074 610.677,246.522 609.126,245.746 606.022,245.746 " />
<polyline points="617.66,245.746 621.539,262.039 " />
<polyline points="625.419,245.746 621.539,262.039 " />
<polyline points="625.419,245.746 629.298,262.039 " />
<polyline points="633.177,245.746 629.298,262.039 " />
<polyline points="130.883,169.276 129.331,170.052 127.779,171.603 127.003,173.155 126.227,175.483 126.227,179.362 127.003,181.69 127.779,183.241 129.331,184.793 130.883,185.569 133.986,185.569 135.538,184.793 137.089,183.241 137.865,181.69 138.641,179.362 138.641,175.483 137.865,173.155 137.089,171.603 135.538,170.052 133.986,169.276 130.883,169.276 " />
<polyline points="133.21,182.465 137.865,187.121 " />
<polyline points="38.1506,113.231 38.1506,170.131 " />
<polyline points="244.042,113.231 38.1506,113.231 " />
<polyline points="244.042,276.161 38.1506,276.161 " />
<polyline points="36.3905,556.509 36.3905,567.371 " />
<polyline points="36.3905,561.164 37.1664,558.836 38.7181,557.285 40.2698,556.509 42.5974,556.509 " />
<polyline points="62.7697,558.06 76.7352,558.06 " />
<polyline points="62.7697,562.716 76.7352,562.716 " />
<polyline points="106.218,551.078 98.4592,561.94 110.097,561.94 " />
<polyline points="106.218,551.078 106.218,567.371 " />
<polyline points="115.528,565.819 114.752,566.595 115.528,567.371 116.304,566.595 115.528,565.819 " />
<polyline points="131.045,551.078 123.287,551.078 122.511,558.06 123.287,557.285 125.614,556.509 127.942,556.509 130.269,557.285 131.821,558.836 132.597,561.164 132.597,562.716 131.821,565.043 130.269,566.595 127.942,567.371 125.614,567.371 123.287,566.595 122.511,565.819 121.735,564.267 " />
<polyline points="159.752,547.974 158.2,549.526 156.649,551.854 155.097,554.957 154.321,558.836 154.321,561.94 155.097,565.819 156.649,568.922 158.2,571.25 159.752,572.802 " />
<polyline points="166.735,554.181 168.286,553.405 170.614,551.078 170.614,567.371 " />
<polyline points="182.252,554.181 183.804,553.405 186.131,551.078 186.131,567.371 " />
<polyline points="200.097,551.078 197.769,551.854 196.217,554.181 195.441,558.06 195.441,560.388 196.217,564.267 197.769,566.595 200.097,567.371 201.648,567.371 203.976,566.595 205.528,564.267 206.303,560.388 206.303,558.06 205.528,554.181 203.976,551.854 201.648,551.078 200.097,551.078 " />
<polyline points="210.959,547.974 212.51,549.526 214.062,551.854 215.614,554.957 216.39,558.836 216.39,561.94 215.614,565.819 214.062,568.922 212.51,571.25 210.959,572.802 " />
<polyline points="224.148,566.595 223.372,567.371 222.596,566.595 223.372,565.819 224.148,566.595 224.148,568.147 223.372,569.698 222.596,570.474 " />
<polyline points="254.407,558.836 253.631,557.285 251.303,556.509 248.976,556.509 246.648,557.285 245.872,558.836 246.648,560.388 248.2,561.164 252.079,561.94 253.631,562.716 254.407,564.267 254.407,565.043 253.631,566.595 251.303,567.371 248.976,567.371 246.648,566.595 245.872,565.043 " />
<polyline points="276.131,558.06 290.096,558.06 " />
<polyline points="276.131,562.716 290.096,562.716 " />
<polyline points="313.372,551.078 321.906,551.078 317.251,557.285 319.579,557.285 321.13,558.06 321.906,558.836 322.682,561.164 322.682,562.716 321.906,565.043 320.355,566.595 318.027,567.371 315.699,567.371 313.372,566.595 312.596,565.819 311.82,564.267 " />
<polyline points="328.889,565.819 328.113,566.595 328.889,567.371 329.665,566.595 328.889,565.819 " />
<polyline points="335.872,554.957 335.872,554.181 336.648,552.629 337.423,551.854 338.975,551.078 342.079,551.078 343.63,551.854 344.406,552.629 345.182,554.181 345.182,555.733 344.406,557.285 342.854,559.612 335.096,567.371 345.958,567.371 " />
<polyline points="359.923,551.078 352.165,551.078 351.389,558.06 352.165,557.285 354.492,556.509 356.82,556.509 359.148,557.285 360.699,558.836 361.475,561.164 361.475,562.716 360.699,565.043 359.148,566.595 356.82,567.371 354.492,567.371 352.165,566.595 351.389,565.819 350.613,564.267 " />
<polyline points="388.63,547.974 387.078,549.526 385.527,551.854 383.975,554.957 383.199,558.836 383.199,561.94 383.975,565.819 385.527,568.922 387.078,571.25 388.63,572.802 " />
<polyline points="397.165,551.078 394.837,551.854 394.061,553.405 394.061,554.957 394.837,556.509 396.389,557.285 399.492,558.06 401.82,558.836 403.371,560.388 404.147,561.94 404.147,564.267 403.371,565.819 402.596,566.595 400.268,567.371 397.165,567.371 394.837,566.595 394.061,565.819 393.285,564.267 393.285,561.94 394.061,560.388 395.613,558.836 397.94,558.06 401.044,557.285 402.596,556.509 403.371,554.957 403.371,553.405 402.596,551.854 400.268,551.078 397.165,551.078 " />
<polyline points="413.458,551.078 411.13,551.854 409.578,554.181 408.802,558.06 408.802,560.388 409.578,564.267 411.13,566.595 413.458,567.371 415.009,567.371 417.337,566.595 418.889,564.267 419.664,560.388 419.664,558.06 418.889,554.181 417.337,551.854 415.009,551.078 413.458,551.078 " />
<polyline points="424.32,547.974 425.871,549.526 427.423,551.854 428.975,554.957 429.751,558.836 429.751,561.94 428.975,565.819 427.423,568.922 425.871,571.25 424.32,572.802 " />
<polyline points="131.45,211.904 125.243,228.197 " />
<polyline points="131.45,211.904 137.657,228.197 " />
<polyline points="127.571,222.766 135.33,222.766 " />
<polyline points="38.1506,170.131 67.4956,184.233 " />
<polyline points="67.4956,184.233 10.0392,200.35 " />
<polyline points="10.0392,200.35 38.1506,215.46 " />
<polyline points="38.1506,215.46 38.1506,276.161 " />
<polyline points="271.197,303.316 271.197,413.926 " />
<polyline points="271.197,456.298 328.097,456.298 " />
<polyline points="328.097,456.298 342.199,426.953 " />
<polyline points="342.199,426.953 358.317,484.409 " />
<polyline points="358.317,484.409 373.426,456.298 " />
<polyline points="373.426,456.298 434.127,456.298 " />
<polyline points="434.127,303.316 434.127,413.926 " />
<polyline points="310.901,363.946 314.781,380.239 " />
<polyline points="318.66,363.946 314.781,380.239 " />
<polyline points="318.66,363.946 322.539,380.239 " />
<polyline points="326.419,363.946 322.539,380.239 " />
<polyline points="346.591,369.377 355.125,380.239 " />
<polyline points="355.125,369.377 346.591,380.239 " />
<polyline points="376.849,363.946 376.849,380.239 " />
<polyline points="387.711,363.946 387.711,380.239 " />
<polyline points="376.849,371.704 387.711,371.704 " />
<polyline points="38.1506,113.231 38.1506,86.0755 " />
<polyline points="38.1506,276.161 38.1506,303.316 " />
<polyline points="434.127,456.298 461.282,456.298 " />
<polyline points="271.197,456.298 244.042,456.298 " />
<polyline points="271.197,413.926 271.197,456.063 " />
<polyline points="434.127,413.926 434.127,456.063 " />
</g>
<g clip-path="url(#clipId0)" fill="none" stroke="rgb(0,255,0)" stroke-width="0.25" >
<polyline points="892.203,680.94 891.065,678.664 888.789,676.388 886.513,675.25 881.961,675.25 879.686,676.388 877.41,678.664 876.272,680.94 875.134,684.354 875.134,690.043 876.272,693.457 877.41,695.733 879.686,698.009 881.961,699.147 886.513,699.147 888.789,698.009 891.065,695.733 892.203,693.457 " />
<polyline points="900.168,675.25 900.168,699.147 " />
<polyline points="900.168,675.25 910.41,675.25 913.823,676.388 914.961,677.526 916.099,679.802 916.099,682.078 914.961,684.354 913.823,685.491 910.41,686.629 900.168,686.629 " />
<polyline points="908.134,686.629 916.099,699.147 " />
<polyline points="925.203,675.25 937.72,675.25 930.892,684.354 934.306,684.354 936.582,685.491 937.72,686.629 938.858,690.043 938.858,692.319 937.72,695.733 935.444,698.009 932.03,699.147 928.616,699.147 925.203,698.009 924.065,696.871 922.927,694.595 " />
<polyline points="946.823,688.905 967.306,688.905 " />
<polyline points="978.685,679.802 980.961,678.664 984.375,675.25 984.375,699.147 " />
<polyline points="999.168,680.94 999.168,679.802 1000.31,677.526 1001.44,676.388 1003.72,675.25 1008.27,675.25 1010.55,676.388 1011.68,677.526 1012.82,679.802 1012.82,682.078 1011.68,684.354 1009.41,687.767 998.03,699.147 1013.96,699.147 " />
</g>
</svg>
