<?xml version="1.0" standalone="no"?>
<svg viewBox="0 0 1024 768" version="1.1" xmlns="http://www.w3.org/2000/svg" xmlns:xlink="http://www.w3.org/1999/xlink" stroke-linecap="round" stroke-linejoin="round" fill-rule="evenodd" xml:space="preserve" >
<defs >
<clipPath id="clipId0" >
<path d="M0,768 1024,768 1024,0 0,0 z" />
</clipPath>
</defs>
<g clip-path="url(#clipId0)" fill="none" stroke="rgb(0,0,0)" stroke-width="0.1" />
<g clip-path="url(#clipId0)" fill="none" stroke="rgb(0,0,0)" stroke-width="0.25" >
<polyline points="141.172,165.241 139.633,166.01 138.094,167.549 137.324,169.858 137.324,171.398 138.094,173.706 139.633,175.246 141.172,176.015 143.481,176.015 145.02,175.246 146.56,173.706 147.329,171.398 147.329,169.858 146.56,167.549 145.02,166.01 143.481,165.241 141.172,165.241 " />
<polyline points="179.458,128.746 86.4179,128.746 " />
</g>
<g clip-path="url(#clipId0)" fill="rgb(0,0,0)" stroke="rgb(0,0,0)" stroke-width="0.25" >
<path d="M179.458,126.052 179.458,131.439 195.62,128.746 195.62,128.746 z" />
</g>
<g clip-path="url(#clipId0)" fill="none" stroke="rgb(0,0,0)" stroke-width="0.25" >
<polyline points="221.306,88.3402 221.306,249.962 " />
<polyline points="221.306,249.962 382.928,249.962 " />
<polyline points="382.928,249.962 382.928,492.394 " />
<polyline points="382.928,492.394 706.171,492.394 " />
<polyline points="706.171,492.394 706.171,330.773 " />
<polyline points="706.171,330.773 544.55,330.773 " />
<polyline points="544.55,330.773 544.55,88.3402 " />
<polyline points="544.55,88.3402 221.306,88.3402 " />
<polyline points="684.518,7.52941 361.275,7.52941 " />
<polyline points="684.518,249.962 684.518,7.52941 " />
<polyline points="846.139,249.962 684.518,249.962 " />
<polyline points="846.139,411.583 846.139,249.962 " />
<polyline points="706.171,492.394 846.139,411.583 " />
<polyline points="706.171,330.773 846.139,249.962 " />
<polyline points="544.55,330.773 684.518,249.962 " />
<polyline points="544.55,88.3402 684.518,7.52941 " />
<polyline points="221.306,88.3402 361.275,7.52941 " />
<polyline points="324.051,104.502 324.051,144.908 " />
<polyline points="324.051,233.8 324.051,193.394 " />
</g>
<g clip-path="url(#clipId0)" fill="rgb(0,0,0)" stroke="rgb(0,0,0)" stroke-width="0.25" >
<path d="M326.744,104.502 321.357,104.502 324.051,88.3402 324.051,88.3402 z" />
<path d="M326.744,233.8 321.357,233.8 324.051,249.962 324.051,249.962 z" />
</g>
<g clip-path="url(#clipId0)" fill="none" stroke="rgb(0,0,0)" stroke-width="0.25" >
<polyline points="320.202,161.07 324.051,177.232 " />
<polyline points="327.899,161.07 324.051,177.232 " />
<polyline points="327.899,161.07 331.747,177.232 " />
<polyline points="335.595,161.07 331.747,177.232 " />
</g>
<g clip-path="url(#clipId0)" fill="rgb(0,0,0)" stroke="rgb(0,0,0)" stroke-width="0.25" >
<path d="M451.369,17.9433 448.675,13.2777 464.019,7.52941 464.019,7.52941 z" />
</g>
<g clip-path="url(#clipId0)" fill="none" stroke="rgb(0,0,0)" stroke-width="0.25" >
<polyline points="450.022,15.6105 415.03,35.8132 " />
<polyline points="389.915,43.1968 389.915,59.3589 " />
<polyline points="400.689,43.1968 400.689,59.3589 " />
<polyline points="389.915,50.893 400.689,50.893 " />
<polyline points="338.047,80.2591 373.04,60.0564 " />
</g>
<g clip-path="url(#clipId0)" fill="rgb(0,0,0)" stroke="rgb(0,0,0)" stroke-width="0.25" >
<path d="M339.394,82.5919 336.701,77.9263 324.051,88.3402 324.051,88.3402 z" />
</g>
<g clip-path="url(#clipId0)" fill="none" stroke="rgb(0,0,0)" stroke-width="0.25" >
<polyline points="533.723,390.484 533.723,109.44 " stroke-dasharray="121.216172,24.243234,24.243234,24.243234" />
<polyline points="937.582,128.746 291.291,128.746 " stroke-dasharray="121.216172,24.243234,24.243234,24.243234" />
<polyline points="937.258,371.178 533.723,371.178 " stroke-dasharray="121.216172,24.243234,24.243234,24.243234" />
<polyline points="917.398,355.016 917.398,274.205 " />
<polyline points="917.398,144.908 917.398,225.719 " />
</g>
<g clip-path="url(#clipId0)" fill="rgb(0,0,0)" stroke="rgb(0,0,0)" stroke-width="0.25" >
<path d="M920.092,355.016 914.705,355.016 917.398,371.178 917.398,371.178 z" />
<path d="M920.092,144.908 914.705,144.908 917.398,128.746 917.398,128.746 z" />
</g>
<g clip-path="url(#clipId0)" fill="none" stroke="rgb(0,0,0)" stroke-width="0.25" >
<polyline points="915.859,241.881 915.859,258.043 925.095,258.043 " />
<polyline points="117.867,93.7698 116.328,94.5395 114.789,96.0787 114.019,97.618 113.25,99.9268 113.25,103.775 114.019,106.084 114.789,107.623 116.328,109.162 117.867,109.932 120.946,109.932 122.485,109.162 124.024,107.623 124.794,106.084 125.564,103.775 125.564,99.9268 124.794,97.618 124.024,96.0787 122.485,94.5395 120.946,93.7698 117.867,93.7698 " />
<polyline points="120.176,106.853 124.794,111.471 " />
<polyline points="101.844,598.299 101.075,596.76 99.5353,595.221 97.996,594.451 94.9175,594.451 93.3783,595.221 91.839,596.76 91.0694,598.299 90.2998,600.608 90.2998,604.456 91.0694,606.765 91.839,608.304 93.3783,609.844 94.9175,610.613 97.996,610.613 99.5353,609.844 101.075,608.304 101.844,606.765 " />
<polyline points="110.31,599.838 108.771,600.608 107.232,602.147 106.462,604.456 106.462,605.995 107.232,608.304 108.771,609.844 110.31,610.613 112.619,610.613 114.158,609.844 115.697,608.304 116.467,605.995 116.467,604.456 115.697,602.147 114.158,600.608 112.619,599.838 110.31,599.838 " />
<polyline points="138.017,601.378 151.87,601.378 " />
<polyline points="138.017,605.995 151.87,605.995 " />
<polyline points="174.189,594.451 174.189,610.613 " />
<polyline points="184.964,594.451 174.189,605.226 " />
<polyline points="178.037,601.378 184.964,610.613 " />
<polyline points="190.351,599.838 190.351,610.613 " />
<polyline points="190.351,604.456 191.121,602.147 192.66,600.608 194.199,599.838 196.508,599.838 " />
<polyline points="227.293,598.299 226.524,596.76 224.984,595.221 223.445,594.451 220.367,594.451 218.827,595.221 217.288,596.76 216.519,598.299 215.749,600.608 215.749,604.456 216.519,606.765 217.288,608.304 218.827,609.844 220.367,610.613 223.445,610.613 224.984,609.844 226.524,608.304 227.293,606.765 " />
<polyline points="232.681,599.838 232.681,616.001 " />
<polyline points="232.681,602.147 234.22,600.608 235.759,599.838 238.068,599.838 239.607,600.608 241.147,602.147 241.916,604.456 241.916,605.995 241.147,608.304 239.607,609.844 238.068,610.613 235.759,610.613 234.22,609.844 232.681,608.304 " />
<polyline points="89.5302,646.786 93.3783,662.948 " />
<polyline points="97.2264,646.786 93.3783,662.948 " />
<polyline points="97.2264,646.786 101.075,662.948 " />
<polyline points="104.923,646.786 101.075,662.948 " />
<polyline points="109.54,646.786 109.54,662.948 " />
<polyline points="120.315,646.786 120.315,662.948 " />
<polyline points="109.54,654.482 120.315,654.482 " />
<polyline points="126.472,646.786 126.472,662.948 " />
<polyline points="126.472,646.786 136.477,646.786 " />
<polyline points="126.472,654.482 132.629,654.482 " />
<polyline points="126.472,662.948 136.477,662.948 " />
<polyline points="141.095,646.786 141.095,662.948 " />
<polyline points="141.095,646.786 148.022,646.786 150.331,647.555 151.1,648.325 151.87,649.864 151.87,651.403 151.1,652.943 150.331,653.712 148.022,654.482 141.095,654.482 " />
<polyline points="146.483,654.482 151.87,662.948 " />
<polyline points="157.257,646.786 157.257,662.948 " />
<polyline points="157.257,646.786 167.262,646.786 " />
<polyline points="157.257,654.482 163.414,654.482 " />
<polyline points="157.257,662.948 167.262,662.948 " />
<polyline points="123.394,672.953 123.394,689.115 " />
<polyline points="134.168,672.953 123.394,683.728 " />
<polyline points="127.242,679.88 134.168,689.115 " />
<polyline points="139.556,678.34 139.556,689.115 " />
<polyline points="139.556,682.958 140.326,680.649 141.865,679.11 143.404,678.34 145.713,678.34 " />
<polyline points="165.723,679.88 179.576,679.88 " />
<polyline points="165.723,684.497 179.576,684.497 " />
<polyline points="201.896,672.953 201.896,689.115 " />
<polyline points="201.896,672.953 208.822,672.953 211.131,673.723 211.901,674.492 212.67,676.032 212.67,677.571 211.901,679.11 211.131,679.88 208.822,680.649 201.896,680.649 " />
<polyline points="207.283,680.649 212.67,689.115 " />
<polyline points="218.058,672.953 218.058,689.115 " />
<polyline points="218.058,672.953 228.063,672.953 " />
<polyline points="218.058,680.649 224.215,680.649 " />
<polyline points="218.058,689.115 228.063,689.115 " />
<polyline points="230.372,672.953 236.529,680.649 236.529,689.115 " />
<polyline points="242.686,672.953 236.529,680.649 " />
<polyline points="246.534,672.953 246.534,689.115 " />
<polyline points="246.534,672.953 257.309,689.115 " />
<polyline points="257.309,672.953 257.309,689.115 " />
<polyline points="267.314,672.953 265.775,673.723 264.235,675.262 263.466,676.801 262.696,679.11 262.696,682.958 263.466,685.267 264.235,686.806 265.775,688.346 267.314,689.115 270.392,689.115 271.932,688.346 273.471,686.806 274.241,685.267 275.01,682.958 275.01,679.11 274.241,676.801 273.471,675.262 271.932,673.723 270.392,672.953 267.314,672.953 " />
<polyline points="280.398,672.953 280.398,689.115 289.633,689.115 " />
<polyline points="293.481,672.953 293.481,689.115 " />
<polyline points="293.481,672.953 298.869,672.953 301.177,673.723 302.717,675.262 303.486,676.801 304.256,679.11 304.256,682.958 303.486,685.267 302.717,686.806 301.177,688.346 298.869,689.115 293.481,689.115 " />
<polyline points="319.648,675.262 318.109,673.723 315.8,672.953 312.722,672.953 310.413,673.723 308.874,675.262 308.874,676.801 309.643,678.34 310.413,679.11 311.952,679.88 316.57,681.419 318.109,682.189 318.879,682.958 319.648,684.497 319.648,686.806 318.109,688.346 315.8,689.115 312.722,689.115 310.413,688.346 308.874,686.806 " />
<polyline points="341.198,672.953 341.198,689.115 " />
<polyline points="341.198,672.953 351.973,689.115 " />
<polyline points="351.973,672.953 351.973,689.115 " />
<polyline points="361.978,672.953 360.439,673.723 358.899,675.262 358.13,676.801 357.36,679.11 357.36,682.958 358.13,685.267 358.899,686.806 360.439,688.346 361.978,689.115 365.056,689.115 366.596,688.346 368.135,686.806 368.905,685.267 369.674,682.958 369.674,679.11 368.905,676.801 368.135,675.262 366.596,673.723 365.056,672.953 361.978,672.953 " />
<polyline points="375.831,687.576 375.062,688.346 375.831,689.115 376.601,688.346 375.831,687.576 " />
<polyline points="409.695,676.801 408.925,675.262 407.386,673.723 405.847,672.953 402.768,672.953 401.229,673.723 399.69,675.262 398.92,676.801 398.15,679.11 398.15,682.958 398.92,685.267 399.69,686.806 401.229,688.346 402.768,689.115 405.847,689.115 407.386,688.346 408.925,686.806 409.695,685.267 " />
<polyline points="418.93,672.953 417.391,673.723 415.852,675.262 415.082,676.801 414.313,679.11 414.313,682.958 415.082,685.267 415.852,686.806 417.391,688.346 418.93,689.115 422.009,689.115 423.548,688.346 425.087,686.806 425.857,685.267 426.627,682.958 426.627,679.11 425.857,676.801 425.087,675.262 423.548,673.723 422.009,672.953 418.93,672.953 " />
<polyline points="432.014,672.953 432.014,689.115 " />
<polyline points="432.014,672.953 438.941,672.953 441.249,673.723 442.019,674.492 442.789,676.032 442.789,677.571 442.019,679.11 441.249,679.88 438.941,680.649 432.014,680.649 " />
<polyline points="437.401,680.649 442.789,689.115 " />
<polyline points="448.176,672.953 448.176,689.115 " />
<polyline points="448.176,672.953 455.103,672.953 457.412,673.723 458.181,674.492 458.951,676.032 458.951,677.571 458.181,679.11 457.412,679.88 455.103,680.649 448.176,680.649 " />
<polyline points="453.563,680.649 458.951,689.115 " />
<polyline points="464.338,672.953 464.338,689.115 " />
<polyline points="464.338,672.953 474.343,672.953 " />
<polyline points="464.338,680.649 470.495,680.649 " />
<polyline points="464.338,689.115 474.343,689.115 " />
<polyline points="489.736,676.801 488.966,675.262 487.427,673.723 485.888,672.953 482.809,672.953 481.27,673.723 479.731,675.262 478.961,676.801 478.192,679.11 478.192,682.958 478.961,685.267 479.731,686.806 481.27,688.346 482.809,689.115 485.888,689.115 487.427,688.346 488.966,686.806 489.736,685.267 " />
<polyline points="498.202,672.953 498.202,689.115 " />
<polyline points="492.814,672.953 503.589,672.953 " />
<polyline points="507.437,672.953 507.437,689.115 " />
<polyline points="517.442,672.953 515.903,673.723 514.364,675.262 513.594,676.801 512.825,679.11 512.825,682.958 513.594,685.267 514.364,686.806 515.903,688.346 517.442,689.115 520.521,689.115 522.06,688.346 523.599,686.806 524.369,685.267 525.139,682.958 525.139,679.11 524.369,676.801 523.599,675.262 522.06,673.723 520.521,672.953 517.442,672.953 " />
<polyline points="530.526,672.953 530.526,689.115 " />
<polyline points="530.526,672.953 541.301,689.115 " />
<polyline points="541.301,672.953 541.301,689.115 " />
<polyline points="563.62,672.953 563.62,689.115 " />
<polyline points="563.62,672.953 573.625,672.953 " />
<polyline points="563.62,680.649 569.777,680.649 " />
<polyline points="581.321,672.953 575.164,689.115 " />
<polyline points="581.321,672.953 587.478,689.115 " />
<polyline points="577.473,683.728 585.17,683.728 " />
<polyline points="602.101,676.801 601.332,675.262 599.793,673.723 598.253,672.953 595.175,672.953 593.636,673.723 592.096,675.262 591.327,676.801 590.557,679.11 590.557,682.958 591.327,685.267 592.096,686.806 593.636,688.346 595.175,689.115 598.253,689.115 599.793,688.346 601.332,686.806 602.101,685.267 " />
<polyline points="610.567,672.953 610.567,689.115 " />
<polyline points="605.18,672.953 615.955,672.953 " />
<polyline points="623.651,672.953 622.112,673.723 620.572,675.262 619.803,676.801 619.033,679.11 619.033,682.958 619.803,685.267 620.572,686.806 622.112,688.346 623.651,689.115 626.729,689.115 628.269,688.346 629.808,686.806 630.578,685.267 631.347,682.958 631.347,679.11 630.578,676.801 629.808,675.262 628.269,673.723 626.729,672.953 623.651,672.953 " />
<polyline points="636.735,672.953 636.735,689.115 " />
<polyline points="636.735,672.953 643.661,672.953 645.97,673.723 646.74,674.492 647.509,676.032 647.509,677.571 646.74,679.11 645.97,679.88 643.661,680.649 636.735,680.649 " />
<polyline points="642.122,680.649 647.509,689.115 " />
<polyline points="121.291,144.082 115.134,160.244 " />
<polyline points="121.291,144.082 127.448,160.244 " />
<polyline points="117.443,154.857 125.139,154.857 " />
<polyline points="511.255,371.121 509.042,371.121 " />
<polyline points="509.042,371.121 509.042,371.121 " />
<polyline points="533.723,371.178 512.173,371.178 " />
<polyline points="814.928,742.41 813.799,740.152 811.541,737.895 809.284,736.766 804.769,736.766 802.511,737.895 800.254,740.152 799.125,742.41 797.996,745.796 797.996,751.44 799.125,754.827 800.254,757.084 802.511,759.342 804.769,760.471 809.284,760.471 811.541,759.342 813.799,757.084 814.928,754.827 " />
<polyline points="822.829,736.766 822.829,760.471 " />
<polyline points="822.829,736.766 832.988,736.766 836.375,737.895 837.503,739.024 838.632,741.281 838.632,743.539 837.503,745.796 836.375,746.925 832.988,748.054 822.829,748.054 " />
<polyline points="830.731,748.054 838.632,760.471 " />
<polyline points="847.663,736.766 860.079,736.766 853.306,745.796 856.693,745.796 858.95,746.925 860.079,748.054 861.208,751.44 861.208,753.698 860.079,757.084 857.822,759.342 854.435,760.471 851.049,760.471 847.663,759.342 846.534,758.213 845.405,755.955 " />
<polyline points="869.109,750.312 889.428,750.312 " />
<polyline points="900.715,741.281 902.973,740.152 906.359,736.766 906.359,760.471 " />
<polyline points="935.708,736.766 924.42,760.471 " />
<polyline points="919.905,736.766 935.708,736.766 " />
</g>
</svg>
