<?xml version="1.0" standalone="no"?>
<svg viewBox="0 0 1024 768" version="1.1" xmlns="http://www.w3.org/2000/svg" xmlns:xlink="http://www.w3.org/1999/xlink" stroke-linecap="round" stroke-linejoin="round" fill-rule="evenodd" xml:space="preserve" >
<defs >
<clipPath id="clipId0" >
<path d="M0,768 1024,768 1024,0 0,0 z" />
</clipPath>
</defs>
<g clip-path="url(#clipId0)" fill="none" stroke="rgb(0,0,0)" stroke-width="0.1" />
<g clip-path="url(#clipId0)" fill="none" stroke="rgb(0,0,0)" stroke-width="0.25" >
<polyline points="588.982,45.4842 588.982,425.032 " />
<polyline points="209.434,45.4842 588.982,45.4842 " />
<polyline points="209.434,273.213 588.982,273.213 " />
<path d="M816.711,273.213  A227.729,227.729 0 0,0 588.982,45.4842 " />
<path d="M702.847,273.213  A113.864,113.864 0 0,0 588.982,159.349 " stroke-dasharray="93.026493,18.605299,18.605299,18.605299" />
<polyline points="816.711,273.213 816.711,425.032 " />
</g>
<g clip-path="url(#clipId0)" fill="rgb(0,0,0)" stroke="rgb(0,0,0)" stroke-width="0.25" >
<path d="M651.131,206.502 656.464,211.904 670.002,193.202 670.002,193.202 z" />
</g>
<g clip-path="url(#clipId0)" fill="none" stroke="rgb(0,0,0)" stroke-width="0.25" >
<polyline points="653.797,209.203 588.979,273.205 " />
<polyline points="641.147,232.775 641.869,247.94 " />
<polyline points="641.456,239.274 642.385,235.973 644.448,233.704 646.563,232.517 649.813,232.363 " />
</g>
<g clip-path="url(#clipId0)" fill="rgb(0,0,0)" stroke="rgb(0,0,0)" stroke-width="0.25" >
<path d="M472.048,155.343 472.048,162.934 494.821,159.138 494.821,159.138 z" />
</g>
<g clip-path="url(#clipId0)" fill="none" stroke="rgb(0,0,0)" stroke-width="0.25" >
<polyline points="472.048,159.138 313.859,159.138 " />
<polyline points="382.434,110.059 380.265,111.144 378.096,113.313 377.012,115.482 375.927,118.735 375.927,124.157 377.012,127.41 378.096,129.579 380.265,131.748 382.434,132.832 386.772,132.832 388.94,131.748 391.109,129.579 392.194,127.41 393.278,124.157 393.278,118.735 392.194,115.482 391.109,113.313 388.94,111.144 386.772,110.059 382.434,110.059 " />
<polyline points="385.687,128.495 392.194,135.001 " />
<polyline points="411.51,215.324 409.341,216.409 407.172,218.578 406.088,221.831 406.088,224 407.172,227.253 409.341,229.422 411.51,230.506 414.763,230.506 416.932,229.422 419.101,227.253 420.185,224 420.185,221.831 419.101,218.578 416.932,216.409 414.763,215.324 411.51,215.324 " />
<polyline points="385.564,193.229 376.888,216.002 " />
<polyline points="385.564,193.229 394.239,216.002 " />
<polyline points="380.141,208.411 390.986,208.411 " />
<polyline points="209.434,45.4842 209.434,129.907 " />
<polyline points="209.434,129.907 250.432,151.727 " />
<polyline points="250.432,151.727 169.334,179.78 " />
<polyline points="209.434,273.213 209.434,204.717 " />
<polyline points="209.434,204.717 169.334,179.78 " />
<polyline points="588.982,490.491 673.406,490.491 " />
<polyline points="816.711,490.491 748.215,490.491 " />
<polyline points="695.225,449.493 723.279,530.591 " />
<polyline points="748.215,490.491 723.279,530.591 " />
<polyline points="673.406,490.491 695.225,449.493 " />
<polyline points="588.982,273.213 816.711,273.213 " />
<polyline points="651.854,359.616 657.276,382.389 " />
<polyline points="662.698,359.616 657.276,382.389 " />
<polyline points="662.698,359.616 668.121,382.389 " />
<polyline points="673.543,359.616 668.121,382.389 " />
<polyline points="701.738,367.207 713.666,382.389 " />
<polyline points="713.666,367.207 701.738,382.389 " />
<polyline points="744.03,359.616 744.03,382.389 " />
<polyline points="759.212,359.616 759.212,382.389 " />
<polyline points="744.03,370.461 759.212,370.461 " />
<polyline points="209.434,45.4842 209.434,7.52941 " />
<polyline points="209.434,7.52941 209.434,42.6296 " />
<polyline points="209.434,273.213 209.434,311.168 " />
<polyline points="209.434,311.168 209.434,276.409 " />
<polyline points="588.982,490.491 551.028,490.491 " />
<polyline points="588.982,425.032 588.982,490.491 " />
<polyline points="588.982,490.491 596.66,490.491 " />
<polyline points="596.66,490.491 558.705,490.491 " />
<polyline points="558.705,490.491 596.66,490.491 " />
<polyline points="596.66,490.491 596.66,491.487 " />
<polyline points="816.711,490.491 854.666,490.491 " />
<polyline points="816.711,425.032 816.711,490.491 " />
<polyline points="678.364,735.522 676.805,732.403 673.687,729.285 670.568,727.725 664.331,727.725 661.212,729.285 658.094,732.403 656.534,735.522 654.975,740.2 654.975,747.996 656.534,752.674 658.094,755.793 661.212,758.911 664.331,760.471 670.568,760.471 673.687,758.911 676.805,755.793 678.364,752.674 " />
<polyline points="689.28,727.725 689.28,760.471 " />
<polyline points="689.28,727.725 703.313,727.725 707.991,729.285 709.55,730.844 711.11,733.962 711.11,737.081 709.55,740.2 707.991,741.759 703.313,743.318 689.28,743.318 " />
<polyline points="700.195,743.318 711.11,760.471 " />
<polyline points="723.584,727.725 740.736,727.725 731.381,740.2 736.059,740.2 739.177,741.759 740.736,743.318 742.296,747.996 742.296,751.115 740.736,755.793 737.618,758.911 732.94,760.471 728.262,760.471 723.584,758.911 722.025,757.352 720.466,754.233 " />
<polyline points="753.211,746.437 781.278,746.437 " />
<polyline points="793.753,735.522 793.753,733.962 795.312,730.844 796.871,729.285 799.99,727.725 806.227,727.725 809.346,729.285 810.905,730.844 812.464,733.962 812.464,737.081 810.905,740.2 807.786,744.878 792.193,760.471 814.024,760.471 " />
</g>
</svg>
