<?xml version="1.0" standalone="no"?>
<svg viewBox="0 0 1024 768" version="1.1" xmlns="http://www.w3.org/2000/svg" xmlns:xlink="http://www.w3.org/1999/xlink" stroke-linecap="round" stroke-linejoin="round" fill-rule="evenodd" xml:space="preserve" >
<defs >
<clipPath id="clipId0" >
<path d="M0,768 1024,768 1024,0 0,0 z" />
</clipPath>
</defs>
<g clip-path="url(#clipId0)" fill="none" stroke="rgb(0,0,0)" stroke-width="0.1" />
<g clip-path="url(#clipId0)" fill="none" stroke="rgb(0,0,0)" stroke-width="0.5" >
<path d="M720.646,343.182  A71.3986,71.3986 0 0,0 649.247,271.783 " />
<path d="M863.443,343.182  A214.196,214.196 0 0,0 649.247,128.986 " />
</g>
<g clip-path="url(#clipId0)" fill="none" stroke="rgb(0,0,0)" stroke-width="0.25" >
<path d="M792.045,343.182  A142.797,142.797 0 0,0 649.247,200.385 " stroke-dasharray="71.398582,11.899764,11.899764,11.899764" />
</g>
<g clip-path="url(#clipId0)" fill="none" stroke="rgb(0,0,0)" stroke-width="0.5" >
<polyline points="863.443,343.182 720.646,343.182 " />
<polyline points="649.247,128.986 649.247,271.783 " />
</g>
<g clip-path="url(#clipId0)" fill="none" stroke="rgb(0,0,0)" stroke-width="0.25" >
<polyline points="578.713,230.516 577.353,231.196 575.993,232.556 575.313,234.596 575.313,235.956 575.993,237.996 577.353,239.355 578.713,240.035 580.753,240.035 582.113,239.355 583.473,237.996 584.153,235.956 584.153,234.596 583.473,232.556 582.113,231.196 580.753,230.516 578.713,230.516 " />
<polyline points="618.154,200.385 543.937,200.385 " />
</g>
<g clip-path="url(#clipId0)" fill="rgb(0,0,0)" stroke="rgb(0,0,0)" stroke-width="0.25" >
<path d="M616.198,198.005 616.198,202.765 630.478,200.385 630.478,200.385 z" />
</g>
<g clip-path="url(#clipId0)" fill="none" stroke="rgb(0,0,0)" stroke-width="0.5" >
<polyline points="329.916,128.986 329.916,271.783 " />
<polyline points="91.9203,128.986 91.9203,271.783 " />
<polyline points="91.9203,128.986 329.916,128.986 " />
<polyline points="91.9203,271.783 329.916,271.783 " />
</g>
<g clip-path="url(#clipId0)" fill="none" stroke="rgb(0,0,0)" stroke-width="0.25" >
<polyline points="329.916,277.733 329.916,344.995 " />
<polyline points="91.9203,277.733 91.9203,344.995 " />
<polyline points="315.636,327.859 229.958,327.859 " />
<polyline points="106.2,327.859 191.878,327.859 " />
</g>
<g clip-path="url(#clipId0)" fill="rgb(0,0,0)" stroke="rgb(0,0,0)" stroke-width="0.25" >
<path d="M315.636,330.239 315.636,325.479 329.916,327.859 329.916,327.859 z" />
<path d="M106.2,330.239 106.2,325.479 91.9203,327.859 91.9203,327.859 z" />
</g>
<g clip-path="url(#clipId0)" fill="none" stroke="rgb(0,0,0)" stroke-width="0.25" >
<polyline points="208.878,320.719 208.878,334.999 " />
<polyline points="218.398,320.719 218.398,334.999 " />
<polyline points="208.878,327.519 218.398,327.519 " />
<polyline points="335.865,128.986 403.346,128.986 " />
<polyline points="335.865,271.783 403.346,271.783 " />
<polyline points="386.211,143.266 386.211,178.965 " />
<polyline points="386.211,257.504 386.211,221.804 " />
</g>
<g clip-path="url(#clipId0)" fill="rgb(0,0,0)" stroke="rgb(0,0,0)" stroke-width="0.25" >
<path d="M388.591,143.266 383.831,143.266 386.211,128.986 386.211,128.986 z" />
<path d="M388.591,257.504 383.831,257.504 386.211,271.783 386.211,271.783 z" />
</g>
<g clip-path="url(#clipId0)" fill="none" stroke="rgb(0,0,0)" stroke-width="0.25" >
<polyline points="380.771,193.245 384.171,207.525 " />
<polyline points="387.571,193.245 384.171,207.525 " />
<polyline points="387.571,193.245 390.971,207.525 " />
<polyline points="394.37,193.245 390.971,207.525 " />
<polyline points="157.448,369.003 157.448,383.282 " />
<polyline points="157.448,369.003 166.288,369.003 " />
<polyline points="157.448,375.803 162.888,375.803 " />
<polyline points="169.688,369.003 169.688,383.282 " />
<polyline points="169.688,369.003 175.808,369.003 177.848,369.683 178.528,370.363 179.208,371.723 179.208,373.083 178.528,374.443 177.848,375.123 175.808,375.803 169.688,375.803 " />
<polyline points="174.448,375.803 179.208,383.282 " />
<polyline points="187.368,369.003 186.008,369.683 184.648,371.043 183.968,372.403 183.288,374.443 183.288,377.843 183.968,379.883 184.648,381.243 186.008,382.603 187.368,383.282 190.088,383.282 191.448,382.603 192.808,381.243 193.488,379.883 194.168,377.843 194.168,374.443 193.488,372.403 192.808,371.043 191.448,369.683 190.088,369.003 187.368,369.003 " />
<polyline points="198.927,369.003 198.927,383.282 " />
<polyline points="198.927,369.003 208.447,383.282 " />
<polyline points="208.447,369.003 208.447,383.282 " />
<polyline points="216.607,369.003 216.607,383.282 " />
<polyline points="211.847,369.003 221.367,369.003 " />
<polyline points="237.007,369.003 242.447,383.282 " />
<polyline points="247.886,369.003 242.447,383.282 " />
<polyline points="251.286,369.003 251.286,383.282 " />
<polyline points="256.726,369.003 256.726,383.282 " />
<polyline points="256.726,369.003 265.566,369.003 " />
<polyline points="256.726,375.803 262.166,375.803 " />
<polyline points="256.726,383.282 265.566,383.282 " />
<polyline points="268.286,369.003 271.686,383.282 " />
<polyline points="275.086,369.003 271.686,383.282 " />
<polyline points="275.086,369.003 278.486,383.282 " />
<polyline points="281.886,369.003 278.486,383.282 " />
<polyline points="752.77,613.511 751.41,612.151 749.37,611.471 746.65,611.471 744.611,612.151 743.251,613.511 743.251,614.871 743.931,616.231 744.611,616.911 745.971,617.591 750.05,618.951 751.41,619.631 752.09,620.311 752.77,621.671 752.77,623.711 751.41,625.071 749.37,625.751 746.65,625.751 744.611,625.071 743.251,623.711 " />
<polyline points="757.53,611.471 757.53,625.751 " />
<polyline points="762.97,611.471 762.97,625.751 " />
<polyline points="762.97,611.471 767.73,611.471 769.77,612.151 771.13,613.511 771.81,614.871 772.49,616.911 772.49,620.311 771.81,622.351 771.13,623.711 769.77,625.071 767.73,625.751 762.97,625.751 " />
<polyline points="777.25,611.471 777.25,625.751 " />
<polyline points="777.25,611.471 786.09,611.471 " />
<polyline points="777.25,618.271 782.69,618.271 " />
<polyline points="777.25,625.751 786.09,625.751 " />
<polyline points="802.409,611.471 807.849,625.751 " />
<polyline points="813.289,611.471 807.849,625.751 " />
<polyline points="816.689,611.471 816.689,625.751 " />
<polyline points="822.129,611.471 822.129,625.751 " />
<polyline points="822.129,611.471 830.969,611.471 " />
<polyline points="822.129,618.271 827.569,618.271 " />
<polyline points="822.129,625.751 830.969,625.751 " />
<polyline points="833.689,611.471 837.089,625.751 " />
<polyline points="840.489,611.471 837.089,625.751 " />
<polyline points="840.489,611.471 843.889,625.751 " />
<polyline points="847.288,611.471 843.889,625.751 " />
<polyline points="715.886,343.182 634.968,343.182 " />
<polyline points="649.247,276.543 649.247,357.462 " />
<polyline points="720.646,349.132 720.646,408.732 " />
<polyline points="706.366,391.596 703.986,391.596 " />
<polyline points="649.247,391.596 665.907,391.596 " />
</g>
<g clip-path="url(#clipId0)" fill="rgb(0,0,0)" stroke="rgb(0,0,0)" stroke-width="0.25" >
<path d="M706.366,393.976 706.366,389.216 720.646,391.596 720.646,391.596 z" />
</g>
<g clip-path="url(#clipId0)" fill="none" stroke="rgb(0,0,0)" stroke-width="0.25" >
<polyline points="682.907,384.456 682.907,398.736 " />
<polyline points="682.907,384.456 689.027,384.456 691.067,385.136 691.747,385.816 692.427,387.176 692.427,388.536 691.747,389.896 691.067,390.576 689.027,391.256 682.907,391.256 " />
<polyline points="687.667,391.256 692.427,398.736 " />
<polyline points="692.427,426.024 692.427,440.304 " />
<polyline points="692.427,426.024 698.546,426.024 700.586,426.704 701.266,427.384 701.946,428.744 701.946,430.104 701.266,431.464 700.586,432.144 698.546,432.824 692.427,432.824 " />
<polyline points="697.186,432.824 701.946,440.304 " />
<polyline points="792.045,349.132 792.045,542.052 " />
<polyline points="649.247,524.916 703.646,524.916 " />
<polyline points="777.765,524.916 737.646,524.916 " />
</g>
<g clip-path="url(#clipId0)" fill="rgb(0,0,0)" stroke="rgb(0,0,0)" stroke-width="0.25" >
<path d="M777.765,527.296 777.765,522.536 792.045,524.916 792.045,524.916 z" />
</g>
<g clip-path="url(#clipId0)" fill="none" stroke="rgb(0,0,0)" stroke-width="0.25" >
<polyline points="720.646,522.536 720.646,532.056 " />
<polyline points="720.646,526.616 721.326,524.576 722.686,523.216 724.046,522.536 726.086,522.536 " />
<polyline points="707.949,436.713 709.309,436.033 711.349,433.993 711.349,448.272 " />
</g>
<g clip-path="url(#clipId0)" fill="none" stroke="rgb(0,0,0)" stroke-width="0.5" >
<polyline points="329.916,243.224 91.9203,243.224 " />
</g>
<g clip-path="url(#clipId0)" fill="rgb(0,0,0)" stroke="rgb(0,0,0)" stroke-width="0.25" >
<path d="M182.674,231.159 178.328,229.216 174.672,243.224 174.672,243.224 z" />
</g>
<g clip-path="url(#clipId0)" fill="none" stroke="rgb(0,0,0)" stroke-width="0.25" >
<polyline points="180.501,230.188 250.11,74.5081 " />
<polyline points="250.11,74.5081 264.39,74.5081 " />
<polyline points="290.229,69.4082 288.869,68.0482 286.829,67.3682 284.109,67.3682 282.069,68.0482 280.709,69.4082 280.709,70.7682 281.389,72.1281 282.069,72.8081 283.429,73.4881 287.509,74.8481 288.869,75.5281 289.549,76.208 290.229,77.568 290.229,79.608 288.869,80.968 286.829,81.6479 284.109,81.6479 282.069,80.968 280.709,79.608 " />
<polyline points="294.989,67.3682 294.989,81.6479 " />
<polyline points="294.989,67.3682 301.109,67.3682 303.149,68.0482 303.829,68.7282 304.509,70.0882 304.509,72.1281 303.829,73.4881 303.149,74.1681 301.109,74.8481 294.989,74.8481 " />
<polyline points="309.269,67.3682 309.269,81.6479 317.428,81.6479 " />
<polyline points="320.828,67.3682 320.828,81.6479 " />
<polyline points="328.988,67.3682 328.988,81.6479 " />
<polyline points="324.228,67.3682 333.748,67.3682 " />
<polyline points="339.868,67.3682 339.868,81.6479 " />
<polyline points="335.108,67.3682 344.628,67.3682 " />
<polyline points="348.028,67.3682 348.028,81.6479 " />
<polyline points="348.028,67.3682 356.868,67.3682 " />
<polyline points="348.028,74.1681 353.468,74.1681 " />
<polyline points="348.028,81.6479 356.868,81.6479 " />
<polyline points="360.948,67.3682 360.948,81.6479 " />
<polyline points="360.948,67.3682 367.067,67.3682 369.107,68.0482 369.787,68.7282 370.467,70.0882 370.467,71.4481 369.787,72.8081 369.107,73.4881 367.067,74.1681 360.948,74.1681 " />
<polyline points="365.708,74.1681 370.467,81.6479 " />
<polyline points="387.467,67.3682 392.907,81.6479 " />
<polyline points="398.347,67.3682 392.907,81.6479 " />
<polyline points="405.147,67.3682 399.707,81.6479 " />
<polyline points="405.147,67.3682 410.587,81.6479 " />
<polyline points="401.747,76.888 408.547,76.888 " />
<polyline points="413.987,67.3682 413.987,81.6479 " />
<polyline points="413.987,67.3682 423.506,81.6479 " />
<polyline points="423.506,67.3682 423.506,81.6479 " />
<polyline points="428.946,67.3682 428.946,81.6479 " />
<polyline points="428.946,67.3682 437.786,67.3682 " />
<polyline points="428.946,74.1681 434.386,74.1681 " />
<polyline points="428.946,81.6479 437.786,81.6479 " />
<polyline points="460.906,64.6483 456.146,86.4078 " />
<polyline points="464.986,64.6483 460.226,86.4078 " />
<polyline points="456.146,73.4881 465.666,73.4881 " />
<polyline points="455.466,77.568 464.986,77.568 " />
<polyline points="471.785,70.0882 473.145,69.4082 475.185,67.3682 475.185,81.6479 " />
</g>
<g clip-path="url(#clipId0)" fill="none" stroke="rgb(0,0,0)" stroke-width="0.5" >
<polyline points="329.916,214.664 91.9203,214.664 " />
<path d="M749.205,343.182  A99.958,99.958 0 0,0 649.247,243.224 " />
<path d="M777.765,343.182  A128.517,128.517 0 0,0 649.247,214.664 " />
</g>
<g clip-path="url(#clipId0)" fill="rgb(0,0,0)" stroke="rgb(0,0,0)" stroke-width="0.25" >
<path d="M165.389,202.6 161.043,200.657 157.387,214.664 157.387,214.664 z" />
</g>
<g clip-path="url(#clipId0)" fill="none" stroke="rgb(0,0,0)" stroke-width="0.25" >
<polyline points="163.216,201.629 232.825,45.9486 " />
<polyline points="232.825,45.9486 247.105,45.9486 " />
<polyline points="272.944,40.8487 271.584,39.4888 269.544,38.8088 266.824,38.8088 264.784,39.4888 263.424,40.8487 263.424,42.2087 264.104,43.5687 264.784,44.2487 266.144,44.9287 270.224,46.2886 271.584,46.9686 272.264,47.6486 272.944,49.0086 272.944,51.0485 271.584,52.4085 269.544,53.0885 266.824,53.0885 264.784,52.4085 263.424,51.0485 " />
<polyline points="277.704,38.8088 277.704,53.0885 " />
<polyline points="277.704,38.8088 283.824,38.8088 285.864,39.4888 286.544,40.1688 287.224,41.5287 287.224,43.5687 286.544,44.9287 285.864,45.6087 283.824,46.2886 277.704,46.2886 " />
<polyline points="291.984,38.8088 291.984,53.0885 300.143,53.0885 " />
<polyline points="303.543,38.8088 303.543,53.0885 " />
<polyline points="311.703,38.8088 311.703,53.0885 " />
<polyline points="306.943,38.8088 316.463,38.8088 " />
<polyline points="322.583,38.8088 322.583,53.0885 " />
<polyline points="317.823,38.8088 327.343,38.8088 " />
<polyline points="330.743,38.8088 330.743,53.0885 " />
<polyline points="330.743,38.8088 339.583,38.8088 " />
<polyline points="330.743,45.6087 336.183,45.6087 " />
<polyline points="330.743,53.0885 339.583,53.0885 " />
<polyline points="343.663,38.8088 343.663,53.0885 " />
<polyline points="343.663,38.8088 349.782,38.8088 351.822,39.4888 352.502,40.1688 353.182,41.5287 353.182,42.8887 352.502,44.2487 351.822,44.9287 349.782,45.6087 343.663,45.6087 " />
<polyline points="348.423,45.6087 353.182,53.0885 " />
<polyline points="370.182,38.8088 375.622,53.0885 " />
<polyline points="381.062,38.8088 375.622,53.0885 " />
<polyline points="387.862,38.8088 382.422,53.0885 " />
<polyline points="387.862,38.8088 393.302,53.0885 " />
<polyline points="384.462,48.3286 391.262,48.3286 " />
<polyline points="396.702,38.8088 396.702,53.0885 " />
<polyline points="396.702,38.8088 406.221,53.0885 " />
<polyline points="406.221,38.8088 406.221,53.0885 " />
<polyline points="411.661,38.8088 411.661,53.0885 " />
<polyline points="411.661,38.8088 420.501,38.8088 " />
<polyline points="411.661,45.6087 417.101,45.6087 " />
<polyline points="411.661,53.0885 420.501,53.0885 " />
<polyline points="443.621,36.0888 438.861,57.8484 " />
<polyline points="447.701,36.0888 442.941,57.8484 " />
<polyline points="438.861,44.9287 448.381,44.9287 " />
<polyline points="438.181,49.0086 447.701,49.0086 " />
<polyline points="453.14,42.2087 453.14,41.5287 453.82,40.1688 454.5,39.4888 455.86,38.8088 458.58,38.8088 459.94,39.4888 460.62,40.1688 461.3,41.5287 461.3,42.8887 460.62,44.2487 459.26,46.2886 452.46,53.0885 461.98,53.0885 " />
<polyline points="749.205,349.132 749.205,450.299 " />
<polyline points="649.247,433.164 675.427,433.164 " />
<polyline points="734.926,433.164 723.026,433.164 " />
</g>
<g clip-path="url(#clipId0)" fill="rgb(0,0,0)" stroke="rgb(0,0,0)" stroke-width="0.25" >
<path d="M734.926,435.544 734.926,430.784 749.205,433.164 749.205,433.164 z" />
</g>
<g clip-path="url(#clipId0)" fill="none" stroke="rgb(0,0,0)" stroke-width="0.25" >
<polyline points="777.765,349.132 777.765,496.612 " />
<polyline points="649.247,479.477 687.667,479.477 " />
<polyline points="763.485,479.477 739.346,479.477 " />
</g>
<g clip-path="url(#clipId0)" fill="rgb(0,0,0)" stroke="rgb(0,0,0)" stroke-width="0.25" >
<path d="M763.485,481.856 763.485,477.097 777.765,479.477 777.765,479.477 z" />
</g>
<g clip-path="url(#clipId0)" fill="none" stroke="rgb(0,0,0)" stroke-width="0.25" >
<polyline points="704.666,472.337 704.666,486.616 " />
<polyline points="704.666,472.337 710.786,472.337 712.826,473.017 713.506,473.697 714.186,475.057 714.186,476.417 713.506,477.777 712.826,478.457 710.786,479.137 704.666,479.137 " />
<polyline points="709.426,479.137 714.186,486.616 " />
<polyline points="718.829,483.705 718.829,483.025 719.509,481.665 720.189,480.985 721.549,480.305 724.268,480.305 725.628,480.985 726.308,481.665 726.988,483.025 726.988,484.385 726.308,485.745 724.948,487.785 718.149,494.585 727.668,494.585 " />
</g>
<g clip-path="url(#clipId0)" fill="none" stroke="rgb(0,0,0)" stroke-width="0.5" >
<path d="M806.324,343.182  A157.077,157.077 0 0,0 649.247,186.105 " />
<polyline points="329.916,186.105 91.9203,186.105 " />
</g>
<g clip-path="url(#clipId0)" fill="rgb(0,0,0)" stroke="rgb(0,0,0)" stroke-width="0.25" >
<path d="M148.104,174.041 143.758,172.098 140.102,186.105 140.102,186.105 z" />
</g>
<g clip-path="url(#clipId0)" fill="none" stroke="rgb(0,0,0)" stroke-width="0.25" >
<polyline points="145.931,173.069 215.54,17.3892 " />
<polyline points="215.54,17.3892 229.82,17.3892 " />
<polyline points="255.659,12.2893 254.299,10.9293 252.259,10.2494 249.539,10.2494 247.499,10.9293 246.139,12.2893 246.139,13.6493 246.819,15.0093 247.499,15.6892 248.859,16.3692 252.939,17.7292 254.299,18.4092 254.979,19.0892 255.659,20.4492 255.659,22.4891 254.299,23.8491 252.259,24.5291 249.539,24.5291 247.499,23.8491 246.139,22.4891 " />
<polyline points="260.419,10.2494 260.419,24.5291 " />
<polyline points="260.419,10.2494 266.539,10.2494 268.579,10.9293 269.259,11.6093 269.939,12.9693 269.939,15.0093 269.259,16.3692 268.579,17.0492 266.539,17.7292 260.419,17.7292 " />
<polyline points="274.699,10.2494 274.699,24.5291 282.858,24.5291 " />
<polyline points="286.258,10.2494 286.258,24.5291 " />
<polyline points="294.418,10.2494 294.418,24.5291 " />
<polyline points="289.658,10.2494 299.178,10.2494 " />
<polyline points="305.298,10.2494 305.298,24.5291 " />
<polyline points="300.538,10.2494 310.058,10.2494 " />
<polyline points="313.458,10.2494 313.458,24.5291 " />
<polyline points="313.458,10.2494 322.298,10.2494 " />
<polyline points="313.458,17.0492 318.898,17.0492 " />
<polyline points="313.458,24.5291 322.298,24.5291 " />
<polyline points="326.378,10.2494 326.378,24.5291 " />
<polyline points="326.378,10.2494 332.497,10.2494 334.537,10.9293 335.217,11.6093 335.897,12.9693 335.897,14.3293 335.217,15.6892 334.537,16.3692 332.497,17.0492 326.378,17.0492 " />
<polyline points="331.138,17.0492 335.897,24.5291 " />
<polyline points="352.897,10.2494 358.337,24.5291 " />
<polyline points="363.777,10.2494 358.337,24.5291 " />
<polyline points="370.577,10.2494 365.137,24.5291 " />
<polyline points="370.577,10.2494 376.017,24.5291 " />
<polyline points="367.177,19.7692 373.977,19.7692 " />
<polyline points="379.417,10.2494 379.417,24.5291 " />
<polyline points="379.417,10.2494 388.936,24.5291 " />
<polyline points="388.936,10.2494 388.936,24.5291 " />
<polyline points="394.376,10.2494 394.376,24.5291 " />
<polyline points="394.376,10.2494 403.216,10.2494 " />
<polyline points="394.376,17.0492 399.816,17.0492 " />
<polyline points="394.376,24.5291 403.216,24.5291 " />
<polyline points="426.336,7.52941 421.576,29.289 " />
<polyline points="430.416,7.52941 425.656,29.289 " />
<polyline points="421.576,16.3692 431.096,16.3692 " />
<polyline points="420.896,20.4492 430.416,20.4492 " />
<polyline points="436.535,10.2494 444.015,10.2494 439.935,15.6892 441.975,15.6892 443.335,16.3692 444.015,17.0492 444.695,19.0892 444.695,20.4492 444.015,22.4891 442.655,23.8491 440.615,24.5291 438.575,24.5291 436.535,23.8491 435.855,23.1691 435.175,21.8091 " />
<polyline points="649.247,363.412 649.247,589.731 " />
<polyline points="806.324,349.132 806.324,589.731 " />
<polyline points="649.247,572.596 701.946,572.596 " />
<polyline points="792.045,572.596 753.625,572.596 " />
</g>
<g clip-path="url(#clipId0)" fill="rgb(0,0,0)" stroke="rgb(0,0,0)" stroke-width="0.25" >
<path d="M792.045,574.976 792.045,570.216 806.324,572.596 806.324,572.596 z" />
</g>
<g clip-path="url(#clipId0)" fill="none" stroke="rgb(0,0,0)" stroke-width="0.25" >
<polyline points="718.946,565.456 718.946,579.736 " />
<polyline points="718.946,565.456 725.066,565.456 727.106,566.136 727.786,566.816 728.466,568.176 728.466,569.536 727.786,570.896 727.106,571.576 725.066,572.256 718.946,572.256 " />
<polyline points="723.706,572.256 728.466,579.736 " />
<polyline points="733.788,573.425 741.268,573.425 737.188,578.864 739.228,578.864 740.588,579.544 741.268,580.224 741.948,582.264 741.948,583.624 741.268,585.664 739.908,587.024 737.868,587.704 735.828,587.704 733.788,587.024 733.108,586.344 732.428,584.984 " />
</g>
<g clip-path="url(#clipId0)" fill="rgb(0,0,0)" stroke="rgb(0,0,0)" stroke-width="0.25" >
<path d="M663.506,393.359 663.506,388.599 649.226,390.979 649.226,390.979 z" />
<path d="M663.506,435.211 663.506,430.452 649.226,432.832 649.226,432.832 z" />
<path d="M663.506,481.249 663.506,476.489 649.226,478.869 649.226,478.869 z" />
<path d="M663.506,527.287 663.506,522.527 649.226,524.907 649.226,524.907 z" />
<path d="M663.506,574.719 663.506,569.96 649.226,572.339 649.226,572.339 z" />
</g>
<g clip-path="url(#clipId0)" fill="none" stroke="rgb(0,0,0)" stroke-width="0.25" >
<polyline points="561.566,166.707 560.206,167.387 558.846,168.747 558.166,170.107 557.486,172.147 557.486,175.547 558.166,177.587 558.846,178.947 560.206,180.307 561.566,180.987 564.286,180.987 565.646,180.307 567.006,178.947 567.686,177.587 568.366,175.547 568.366,172.147 567.686,170.107 567.006,168.747 565.646,167.387 564.286,166.707 561.566,166.707 " />
<polyline points="563.606,178.267 567.686,182.346 " />
<polyline points="563.064,211.88 557.624,226.16 " />
<polyline points="563.064,211.88 568.504,226.16 " />
<polyline points="559.664,221.4 566.464,221.4 " />
<polyline points="869.393,343.182 933.524,343.182 " />
<polyline points="649.247,123.036 649.247,58.9056 " />
<path d="M916.006,328.907  A267.141,267.141 0 0,0 857.265,175.573 " />
<path d="M829.557,146.071  A267.141,267.141 0 0,0 663.522,76.4229 " />
</g>
<g clip-path="url(#clipId0)" fill="rgb(0,0,0)" stroke="rgb(0,0,0)" stroke-width="0.25" >
<path d="M918.385,328.844 913.627,328.971 916.388,343.182 916.388,343.182 z" />
<path d="M663.458,78.802 663.586,74.0438 649.247,76.0413 649.247,76.0413 z" />
</g>
<g clip-path="url(#clipId0)" fill="none" stroke="rgb(0,0,0)" stroke-width="0.25" >
<polyline points="842.205,152.726 840.845,153.406 839.485,154.766 838.805,156.126 838.125,158.165 838.125,161.565 838.805,163.605 839.485,164.965 840.845,166.325 842.205,167.005 844.925,167.005 846.285,166.325 847.645,164.965 848.325,163.605 849.005,161.565 849.005,158.165 848.325,156.126 847.645,154.766 846.285,153.406 844.925,152.726 842.205,152.726 " />
<polyline points="836.785,159.602 850.467,159.602 " />
</g>
<g clip-path="url(#clipId0)" fill="none" stroke="rgb(0,0,0)" stroke-width="0.5" >
<polyline points="844.384,744.514 843.387,742.519 841.392,740.524 839.398,739.527 835.408,739.527 833.414,740.524 831.419,742.519 830.422,744.514 829.425,747.506 829.425,752.492 830.422,755.484 831.419,757.479 833.414,759.473 835.408,760.471 839.398,760.471 841.392,759.473 843.387,757.479 844.384,755.484 " />
<polyline points="851.365,739.527 851.365,760.471 " />
<polyline points="851.365,739.527 860.341,739.527 863.333,740.524 864.331,741.522 865.328,743.516 865.328,745.511 864.331,747.506 863.333,748.503 860.341,749.5 851.365,749.5 " />
<polyline points="858.347,749.5 865.328,760.471 " />
<polyline points="873.306,739.527 884.277,739.527 878.293,747.506 881.285,747.506 883.279,748.503 884.277,749.5 885.274,752.492 885.274,754.487 884.277,757.479 882.282,759.473 879.29,760.471 876.298,760.471 873.306,759.473 872.309,758.476 871.312,756.481 " />
<polyline points="892.255,751.495 910.207,751.495 " />
<polyline points="929.156,739.527 919.183,739.527 918.185,748.503 919.183,747.506 922.175,746.508 925.167,746.508 928.159,747.506 930.153,749.5 931.151,752.492 931.151,754.487 930.153,757.479 928.159,759.473 925.167,760.471 922.175,760.471 919.183,759.473 918.185,758.476 917.188,756.481 " />
</g>
<g clip-path="url(#clipId0)" fill="none" stroke="rgb(0,0,0)" stroke-width="0.25" >
<polyline points="199.159,459.341 199.159,473.62 " />
<polyline points="199.159,461.381 200.519,460.021 201.879,459.341 203.919,459.341 205.279,460.021 206.639,461.381 207.319,463.421 207.319,464.78 206.639,466.82 205.279,468.18 203.919,468.86 201.879,468.86 200.519,468.18 199.159,466.82 " />
<polyline points="168.386,693.988 180.626,693.988 " />
<polyline points="168.386,698.067 180.626,698.067 " />
<polyline points="207.145,694.668 206.465,693.308 204.426,692.628 202.386,692.628 200.346,693.308 199.666,694.668 200.346,696.027 201.706,696.707 205.106,697.387 206.465,698.067 207.145,699.427 207.145,700.107 206.465,701.467 204.426,702.147 202.386,702.147 200.346,701.467 199.666,700.107 " />
<polyline points="211.905,692.628 211.905,706.907 " />
<polyline points="211.905,694.668 213.265,693.308 214.625,692.628 216.665,692.628 218.025,693.308 219.385,694.668 220.065,696.707 220.065,698.067 219.385,700.107 218.025,701.467 216.665,702.147 214.625,702.147 213.265,701.467 211.905,700.107 " />
<polyline points="224.825,687.868 224.825,702.147 " />
<polyline points="229.585,688.548 230.265,689.228 230.945,688.548 230.265,687.868 229.585,688.548 " />
<polyline points="230.265,693.308 230.265,702.147 " />
<polyline points="236.385,687.868 236.385,699.427 237.065,701.467 238.425,702.147 239.785,702.147 " />
<polyline points="234.345,692.628 239.105,692.628 " />
<polyline points="244.545,687.868 244.545,699.427 245.225,701.467 246.585,702.147 247.945,702.147 " />
<polyline points="242.505,692.628 247.265,692.628 " />
<polyline points="251.345,696.707 259.504,696.707 259.504,695.348 258.824,693.988 258.144,693.308 256.784,692.628 254.745,692.628 253.385,693.308 252.025,694.668 251.345,696.707 251.345,698.067 252.025,700.107 253.385,701.467 254.745,702.147 256.784,702.147 258.144,701.467 259.504,700.107 " />
<polyline points="264.264,692.628 264.264,702.147 " />
<polyline points="264.264,696.707 264.944,694.668 266.304,693.308 267.664,692.628 269.704,692.628 " />
<polyline points="286.024,692.628 290.104,702.147 " />
<polyline points="294.184,692.628 290.104,702.147 " />
<polyline points="305.744,692.628 305.744,702.147 " />
<polyline points="305.744,694.668 304.384,693.308 303.024,692.628 300.984,692.628 299.624,693.308 298.264,694.668 297.584,696.707 297.584,698.067 298.264,700.107 299.624,701.467 300.984,702.147 303.024,702.147 304.384,701.467 305.744,700.107 " />
<polyline points="311.183,692.628 311.183,702.147 " />
<polyline points="311.183,695.348 313.223,693.308 314.583,692.628 316.623,692.628 317.983,693.308 318.663,695.348 318.663,702.147 " />
<polyline points="323.423,696.707 331.583,696.707 331.583,695.348 330.903,693.988 330.223,693.308 328.863,692.628 326.823,692.628 325.463,693.308 324.103,694.668 323.423,696.707 323.423,698.067 324.103,700.107 325.463,701.467 326.823,702.147 328.863,702.147 330.223,701.467 331.583,700.107 " />
<polyline points="355.383,685.148 350.623,706.907 " />
<polyline points="359.462,685.148 354.703,706.907 " />
<polyline points="350.623,693.988 360.142,693.988 " />
<polyline points="349.943,698.067 359.462,698.067 " />
<polyline points="365.582,687.868 373.062,687.868 368.982,693.308 371.022,693.308 372.382,693.988 373.062,694.668 373.742,696.707 373.742,698.067 373.062,700.107 371.702,701.467 369.662,702.147 367.622,702.147 365.582,701.467 364.902,700.787 364.222,699.427 " />
<polyline points="392.782,692.628 392.782,702.147 " />
<polyline points="392.782,696.707 393.462,694.668 394.822,693.308 396.182,692.628 398.222,692.628 " />
<polyline points="409.101,692.628 409.101,702.147 " />
<polyline points="409.101,694.668 407.741,693.308 406.382,692.628 404.342,692.628 402.982,693.308 401.622,694.668 400.942,696.707 400.942,698.067 401.622,700.107 402.982,701.467 404.342,702.147 406.382,702.147 407.741,701.467 409.101,700.107 " />
<polyline points="422.021,687.868 422.021,702.147 " />
<polyline points="422.021,694.668 420.661,693.308 419.301,692.628 417.261,692.628 415.901,693.308 414.541,694.668 413.861,696.707 413.861,698.067 414.541,700.107 415.901,701.467 417.261,702.147 419.301,702.147 420.661,701.467 422.021,700.107 " />
<polyline points="426.781,688.548 427.461,689.228 428.141,688.548 427.461,687.868 426.781,688.548 " />
<polyline points="427.461,693.308 427.461,702.147 " />
<polyline points="432.901,692.628 432.901,699.427 433.581,701.467 434.941,702.147 436.981,702.147 438.341,701.467 440.381,699.427 " />
<polyline points="440.381,692.628 440.381,702.147 " />
<polyline points="452.621,694.668 451.941,693.308 449.901,692.628 447.861,692.628 445.821,693.308 445.141,694.668 445.821,696.027 447.181,696.707 450.581,697.387 451.941,698.067 452.621,699.427 452.621,700.107 451.941,701.467 449.901,702.147 447.861,702.147 445.821,701.467 445.141,700.107 " />
<polyline points="153.789,694.271 161.269,694.271 157.189,699.711 159.229,699.711 160.589,700.391 161.269,701.071 161.949,703.111 161.949,704.471 161.269,706.511 159.909,707.871 157.869,708.551 155.829,708.551 153.789,707.871 153.109,707.191 152.429,705.831 " />
<polyline points="136.529,687.764 136.529,702.044 " />
<polyline points="136.529,687.764 142.649,687.764 144.689,688.444 145.369,689.124 146.049,690.484 146.049,691.844 145.369,693.204 144.689,693.884 142.649,694.564 136.529,694.564 " />
<polyline points="141.289,694.564 146.049,702.044 " />
<polyline points="126.881,545.956 139.121,545.956 " />
<polyline points="126.881,550.036 139.121,550.036 " />
<polyline points="102.548,546.24 110.028,546.24 105.948,551.679 107.988,551.679 109.348,552.359 110.028,553.039 110.708,555.079 110.708,556.439 110.028,558.479 108.668,559.839 106.628,560.519 104.588,560.519 102.548,559.839 101.868,559.159 101.188,557.799 " />
<polyline points="91.1563,539.733 91.1563,554.012 " />
<polyline points="91.1563,539.733 97.2762,539.733 99.3161,540.413 99.9961,541.093 100.676,542.453 100.676,543.813 99.9961,545.173 99.3161,545.853 97.2762,546.533 91.1563,546.533 " />
<polyline points="95.9162,546.533 100.676,554.012 " />
<polyline points="192.541,537.013 180.301,558.772 " />
<polyline points="206.141,543.133 205.461,541.773 204.101,540.413 202.741,539.733 200.021,539.733 198.661,540.413 197.301,541.773 196.621,543.133 195.941,545.173 195.941,548.573 196.621,550.612 197.301,551.972 198.661,553.332 200.021,554.012 202.741,554.012 204.101,553.332 205.461,551.972 206.141,550.612 " />
<polyline points="210.901,539.733 210.901,554.012 " />
<polyline points="210.901,539.733 217.021,539.733 219.061,540.413 219.741,541.093 220.421,542.453 220.421,543.813 219.741,545.173 219.061,545.853 217.021,546.533 210.901,546.533 " />
<polyline points="215.661,546.533 220.421,554.012 " />
<polyline points="148.98,539.733 148.98,554.012 " />
<polyline points="148.98,539.733 155.1,539.733 157.14,540.413 157.82,541.093 158.5,542.453 158.5,543.813 157.82,545.173 157.14,545.853 155.1,546.533 148.98,546.533 " />
<polyline points="153.74,546.533 158.5,554.012 " />
<polyline points="161.648,549.64 161.648,548.96 162.328,547.6 163.008,546.92 164.368,546.24 167.088,546.24 168.448,546.92 169.128,547.6 169.808,548.96 169.808,550.32 169.128,551.679 167.768,553.719 160.968,560.519 170.488,560.519 " />
<polyline points="254.832,539.733 254.832,554.012 " />
<polyline points="254.832,539.733 260.952,539.733 262.992,540.413 263.672,541.093 264.352,542.453 264.352,543.813 263.672,545.173 262.992,545.853 260.952,546.533 254.832,546.533 " />
<polyline points="259.592,546.533 264.352,554.012 " />
<polyline points="279.991,537.013 267.752,558.772 " />
<polyline points="293.591,543.133 292.911,541.773 291.551,540.413 290.191,539.733 287.471,539.733 286.111,540.413 284.751,541.773 284.071,543.133 283.391,545.173 283.391,548.573 284.071,550.612 284.751,551.972 286.111,553.332 287.471,554.012 290.191,554.012 291.551,553.332 292.911,551.972 293.591,550.612 " />
<polyline points="298.351,539.733 298.351,554.012 " />
<polyline points="298.351,539.733 304.471,539.733 306.511,540.413 307.191,541.093 307.871,542.453 307.871,543.813 307.191,545.173 306.511,545.853 304.471,546.533 298.351,546.533 " />
<polyline points="303.111,546.533 307.871,554.012 " />
<polyline points="232.422,545.956 244.662,545.956 " />
<polyline points="232.422,550.036 244.662,550.036 " />
<polyline points="313.209,531.53 320.689,531.53 316.609,536.969 318.649,536.969 320.009,537.649 320.689,538.329 321.369,540.369 321.369,541.729 320.689,543.769 319.329,545.129 317.289,545.809 315.249,545.809 313.209,545.129 312.529,544.449 311.849,543.089 " />
<polyline points="306.662,506.458 306.662,505.779 307.341,504.419 308.021,503.739 309.381,503.059 312.101,503.059 313.461,503.739 314.141,504.419 314.821,505.779 314.821,507.138 314.141,508.498 312.781,510.538 305.982,517.338 315.501,517.338 " />
<polyline points="226.554,517.485 238.794,517.485 " />
<polyline points="226.554,521.565 238.794,521.565 " />
<polyline points="248.964,511.262 248.964,525.541 " />
<polyline points="248.964,511.262 255.084,511.262 257.124,511.942 257.804,512.622 258.484,513.982 258.484,515.342 257.804,516.702 257.124,517.382 255.084,518.062 248.964,518.062 " />
<polyline points="253.724,518.062 258.484,525.541 " />
<polyline points="274.124,508.542 261.884,530.301 " />
<polyline points="287.723,514.662 287.043,513.302 285.683,511.942 284.323,511.262 281.604,511.262 280.244,511.942 278.884,513.302 278.204,514.662 277.524,516.702 277.524,520.102 278.204,522.141 278.884,523.501 280.244,524.861 281.604,525.541 284.323,525.541 285.683,524.861 287.043,523.501 287.723,522.141 " />
<polyline points="292.483,511.262 292.483,525.541 " />
<polyline points="292.483,511.262 298.603,511.262 300.643,511.942 301.323,512.622 302.003,513.982 302.003,515.342 301.323,516.702 300.643,517.382 298.603,518.062 292.483,518.062 " />
<polyline points="297.243,518.062 302.003,525.541 " />
<polyline points="161.052,520.489 162.412,519.809 164.452,517.769 164.452,532.048 " />
<polyline points="148.98,511.262 148.98,525.541 " />
<polyline points="148.98,511.262 155.1,511.262 157.14,511.942 157.82,512.622 158.5,513.982 158.5,515.342 157.82,516.702 157.14,517.382 155.1,518.062 148.98,518.062 " />
<polyline points="153.74,518.062 158.5,525.541 " />
<polyline points="186.674,508.542 174.434,530.301 " />
<polyline points="200.273,514.662 199.593,513.302 198.233,511.942 196.873,511.262 194.153,511.262 192.793,511.942 191.433,513.302 190.753,514.662 190.073,516.702 190.073,520.102 190.753,522.141 191.433,523.501 192.793,524.861 194.153,525.541 196.873,525.541 198.233,524.861 199.593,523.501 200.273,522.141 " />
<polyline points="205.033,511.262 205.033,525.541 " />
<polyline points="205.033,511.262 211.153,511.262 213.193,511.942 213.873,512.622 214.553,513.982 214.553,515.342 213.873,516.702 213.193,517.382 211.153,518.062 205.033,518.062 " />
<polyline points="209.793,518.062 214.553,525.541 " />
<polyline points="91.1563,511.262 91.1563,525.541 " />
<polyline points="91.1563,511.262 97.2762,511.262 99.3161,511.942 99.9961,512.622 100.676,513.982 100.676,515.342 99.9961,516.702 99.3161,517.382 97.2762,518.062 91.1563,518.062 " />
<polyline points="95.9162,518.062 100.676,525.541 " />
<polyline points="101.868,521.169 101.868,520.489 102.548,519.129 103.228,518.449 104.588,517.769 107.308,517.769 108.668,518.449 109.348,519.129 110.028,520.489 110.028,521.848 109.348,523.208 107.988,525.248 101.188,532.048 110.708,532.048 " />
<polyline points="126.881,517.485 139.121,517.485 " />
<polyline points="126.881,521.565 139.121,521.565 " />
<polyline points="168.386,665.517 180.626,665.517 " />
<polyline points="168.386,669.596 180.626,669.596 " />
<polyline points="207.145,666.197 206.465,664.837 204.426,664.157 202.386,664.157 200.346,664.837 199.666,666.197 200.346,667.556 201.706,668.236 205.106,668.916 206.465,669.596 207.145,670.956 207.145,671.636 206.465,672.996 204.426,673.676 202.386,673.676 200.346,672.996 199.666,671.636 " />
<polyline points="211.905,664.157 211.905,678.436 " />
<polyline points="211.905,666.197 213.265,664.837 214.625,664.157 216.665,664.157 218.025,664.837 219.385,666.197 220.065,668.236 220.065,669.596 219.385,671.636 218.025,672.996 216.665,673.676 214.625,673.676 213.265,672.996 211.905,671.636 " />
<polyline points="224.825,659.397 224.825,673.676 " />
<polyline points="229.585,660.077 230.265,660.757 230.945,660.077 230.265,659.397 229.585,660.077 " />
<polyline points="230.265,664.837 230.265,673.676 " />
<polyline points="236.385,659.397 236.385,670.956 237.065,672.996 238.425,673.676 239.785,673.676 " />
<polyline points="234.345,664.157 239.105,664.157 " />
<polyline points="244.545,659.397 244.545,670.956 245.225,672.996 246.585,673.676 247.945,673.676 " />
<polyline points="242.505,664.157 247.265,664.157 " />
<polyline points="251.345,668.236 259.504,668.236 259.504,666.876 258.824,665.517 258.144,664.837 256.784,664.157 254.745,664.157 253.385,664.837 252.025,666.197 251.345,668.236 251.345,669.596 252.025,671.636 253.385,672.996 254.745,673.676 256.784,673.676 258.144,672.996 259.504,671.636 " />
<polyline points="264.264,664.157 264.264,673.676 " />
<polyline points="264.264,668.236 264.944,666.197 266.304,664.837 267.664,664.157 269.704,664.157 " />
<polyline points="286.024,664.157 290.104,673.676 " />
<polyline points="294.184,664.157 290.104,673.676 " />
<polyline points="305.744,664.157 305.744,673.676 " />
<polyline points="305.744,666.197 304.384,664.837 303.024,664.157 300.984,664.157 299.624,664.837 298.264,666.197 297.584,668.236 297.584,669.596 298.264,671.636 299.624,672.996 300.984,673.676 303.024,673.676 304.384,672.996 305.744,671.636 " />
<polyline points="311.183,664.157 311.183,673.676 " />
<polyline points="311.183,666.876 313.223,664.837 314.583,664.157 316.623,664.157 317.983,664.837 318.663,666.876 318.663,673.676 " />
<polyline points="323.423,668.236 331.583,668.236 331.583,666.876 330.903,665.517 330.223,664.837 328.863,664.157 326.823,664.157 325.463,664.837 324.103,666.197 323.423,668.236 323.423,669.596 324.103,671.636 325.463,672.996 326.823,673.676 328.863,673.676 330.223,672.996 331.583,671.636 " />
<polyline points="355.383,656.677 350.623,678.436 " />
<polyline points="359.462,656.677 354.703,678.436 " />
<polyline points="350.623,665.517 360.142,665.517 " />
<polyline points="349.943,669.596 359.462,669.596 " />
<polyline points="364.902,662.797 364.902,662.117 365.582,660.757 366.262,660.077 367.622,659.397 370.342,659.397 371.702,660.077 372.382,660.757 373.062,662.117 373.062,663.477 372.382,664.837 371.022,666.876 364.222,673.676 373.742,673.676 " />
<polyline points="392.782,664.157 392.782,673.676 " />
<polyline points="392.782,668.236 393.462,666.197 394.822,664.837 396.182,664.157 398.222,664.157 " />
<polyline points="409.101,664.157 409.101,673.676 " />
<polyline points="409.101,666.197 407.741,664.837 406.382,664.157 404.342,664.157 402.982,664.837 401.622,666.197 400.942,668.236 400.942,669.596 401.622,671.636 402.982,672.996 404.342,673.676 406.382,673.676 407.741,672.996 409.101,671.636 " />
<polyline points="422.021,659.397 422.021,673.676 " />
<polyline points="422.021,666.197 420.661,664.837 419.301,664.157 417.261,664.157 415.901,664.837 414.541,666.197 413.861,668.236 413.861,669.596 414.541,671.636 415.901,672.996 417.261,673.676 419.301,673.676 420.661,672.996 422.021,671.636 " />
<polyline points="426.781,660.077 427.461,660.757 428.141,660.077 427.461,659.397 426.781,660.077 " />
<polyline points="427.461,664.837 427.461,673.676 " />
<polyline points="432.901,664.157 432.901,670.956 433.581,672.996 434.941,673.676 436.981,673.676 438.341,672.996 440.381,670.956 " />
<polyline points="440.381,664.157 440.381,673.676 " />
<polyline points="452.621,666.197 451.941,664.837 449.901,664.157 447.861,664.157 445.821,664.837 445.141,666.197 445.821,667.556 447.181,668.236 450.581,668.916 451.941,669.596 452.621,670.956 452.621,671.636 451.941,672.996 449.901,673.676 447.861,673.676 445.821,672.996 445.141,671.636 " />
<polyline points="136.529,659.293 136.529,673.573 " />
<polyline points="136.529,659.293 142.649,659.293 144.689,659.973 145.369,660.653 146.049,662.013 146.049,663.373 145.369,664.733 144.689,665.413 142.649,666.093 136.529,666.093 " />
<polyline points="141.289,666.093 146.049,673.573 " />
<polyline points="151.153,669.2 151.153,668.52 151.833,667.16 152.513,666.48 153.873,665.8 156.593,665.8 157.953,666.48 158.633,667.16 159.313,668.52 159.313,669.88 158.633,671.24 157.273,673.28 150.473,680.08 159.993,680.08 " />
<polyline points="133.783,737.903 133.783,752.183 " />
<polyline points="143.302,737.903 133.783,747.423 " />
<polyline points="137.183,744.023 143.302,752.183 " />
<polyline points="152.513,640.049 153.873,639.369 155.913,637.329 155.913,651.609 " />
<polyline points="136.529,630.822 136.529,645.102 " />
<polyline points="136.529,630.822 142.649,630.822 144.689,631.502 145.369,632.182 146.049,633.542 146.049,634.902 145.369,636.262 144.689,636.942 142.649,637.622 136.529,637.622 " />
<polyline points="141.289,637.622 146.049,645.102 " />
<polyline points="165.84,744.023 178.079,744.023 " />
<polyline points="165.84,748.103 178.079,748.103 " />
<polyline points="205.279,742.663 205.279,752.183 " />
<polyline points="205.279,744.703 203.919,743.343 202.559,742.663 200.519,742.663 199.159,743.343 197.799,744.703 197.119,746.743 197.119,748.103 197.799,750.143 199.159,751.503 200.519,752.183 202.559,752.183 203.919,751.503 205.279,750.143 " />
<polyline points="210.719,742.663 210.719,752.183 " />
<polyline points="210.719,745.383 212.759,743.343 214.119,742.663 216.159,742.663 217.518,743.343 218.198,745.383 218.198,752.183 " />
<polyline points="231.118,742.663 231.118,753.543 230.438,755.583 229.758,756.263 228.398,756.942 226.358,756.942 224.998,756.263 " />
<polyline points="231.118,744.703 229.758,743.343 228.398,742.663 226.358,742.663 224.998,743.343 223.638,744.703 222.958,746.743 222.958,748.103 223.638,750.143 224.998,751.503 226.358,752.183 228.398,752.183 229.758,751.503 231.118,750.143 " />
<polyline points="236.558,737.903 236.558,752.183 " />
<polyline points="241.318,746.743 249.478,746.743 249.478,745.383 248.798,744.023 248.118,743.343 246.758,742.663 244.718,742.663 243.358,743.343 241.998,744.703 241.318,746.743 241.318,748.103 241.998,750.143 243.358,751.503 244.718,752.183 246.758,752.183 248.118,751.503 249.478,750.143 " />
<polyline points="272.597,737.903 271.237,737.903 269.877,738.583 269.197,740.623 269.197,752.183 " />
<polyline points="267.157,742.663 271.917,742.663 " />
<polyline points="284.157,742.663 284.157,752.183 " />
<polyline points="284.157,744.703 282.797,743.343 281.437,742.663 279.397,742.663 278.037,743.343 276.677,744.703 275.997,746.743 275.997,748.103 276.677,750.143 278.037,751.503 279.397,752.183 281.437,752.183 282.797,751.503 284.157,750.143 " />
<polyline points="297.077,744.703 295.717,743.343 294.357,742.663 292.317,742.663 290.957,743.343 289.597,744.703 288.917,746.743 288.917,748.103 289.597,750.143 290.957,751.503 292.317,752.183 294.357,752.183 295.717,751.503 297.077,750.143 " />
<polyline points="302.517,737.903 302.517,749.463 303.197,751.503 304.557,752.183 305.917,752.183 " />
<polyline points="300.477,742.663 305.237,742.663 " />
<polyline points="312.717,742.663 311.357,743.343 309.997,744.703 309.317,746.743 309.317,748.103 309.997,750.143 311.357,751.503 312.717,752.183 314.757,752.183 316.117,751.503 317.476,750.143 318.156,748.103 318.156,746.743 317.476,744.703 316.117,743.343 314.757,742.663 312.717,742.663 " />
<polyline points="322.916,742.663 322.916,752.183 " />
<polyline points="322.916,746.743 323.596,744.703 324.956,743.343 326.316,742.663 328.356,742.663 " />
<polyline points="146.8,718.183 146.12,716.823 144.76,715.463 143.4,714.783 140.68,714.783 139.32,715.463 137.96,716.823 137.28,718.183 136.6,720.223 136.6,723.623 137.28,725.663 137.96,727.023 139.32,728.383 140.68,729.063 143.4,729.063 144.76,728.383 146.12,727.023 146.8,725.663 " />
<polyline points="151.56,714.783 151.56,729.063 " />
<polyline points="151.56,714.783 157.68,714.783 159.72,715.463 160.4,716.143 161.08,717.503 161.08,718.863 160.4,720.223 159.72,720.903 157.68,721.583 151.56,721.583 " />
<polyline points="156.32,721.583 161.08,729.063 " />
<polyline points="180.119,720.903 192.359,720.903 " />
<polyline points="180.119,724.983 192.359,724.983 " />
<polyline points="212.079,712.743 212.759,713.423 213.439,712.743 212.759,712.063 212.079,712.743 212.079,714.103 212.759,715.463 213.439,716.143 " />
<polyline points="229.758,718.183 229.078,716.823 227.718,715.463 226.358,714.783 223.638,714.783 222.278,715.463 220.918,716.823 220.238,718.183 219.558,720.223 219.558,723.623 220.238,725.663 220.918,727.023 222.278,728.383 223.638,729.063 226.358,729.063 227.718,728.383 229.078,727.023 229.758,725.663 " />
<polyline points="234.518,714.783 234.518,724.983 235.198,727.023 236.558,728.383 238.598,729.063 239.958,729.063 241.998,728.383 243.358,727.023 244.038,724.983 244.038,714.783 " />
<polyline points="249.478,714.783 249.478,729.063 " />
<polyline points="249.478,714.783 255.598,714.783 257.638,715.463 258.318,716.143 258.998,717.503 258.998,718.863 258.318,720.223 257.638,720.903 255.598,721.583 249.478,721.583 " />
<polyline points="254.238,721.583 258.998,729.063 " />
<polyline points="261.718,714.783 267.157,729.063 " />
<polyline points="272.597,714.783 267.157,729.063 " />
<polyline points="275.997,714.783 275.997,729.063 " />
<polyline points="275.997,714.783 284.837,714.783 " />
<polyline points="275.997,721.583 281.437,721.583 " />
<polyline points="275.997,729.063 284.837,729.063 " />
<polyline points="303.197,714.783 303.197,729.063 " />
<polyline points="303.197,714.783 309.317,714.783 311.357,715.463 312.037,716.143 312.717,717.503 312.717,718.863 312.037,720.223 311.357,720.903 309.317,721.583 303.197,721.583 " />
<polyline points="307.957,721.583 312.717,729.063 " />
<polyline points="320.876,714.783 315.437,729.063 " />
<polyline points="320.876,714.783 326.316,729.063 " />
<polyline points="317.476,724.303 324.276,724.303 " />
<polyline points="332.436,714.783 332.436,729.063 " />
<polyline points="327.676,714.783 337.196,714.783 " />
<polyline points="340.596,714.783 340.596,729.063 " />
<polyline points="349.436,714.783 348.076,715.463 346.716,716.823 346.036,718.183 345.356,720.223 345.356,723.623 346.036,725.663 346.716,727.023 348.076,728.383 349.436,729.063 352.156,729.063 353.516,728.383 354.876,727.023 355.556,725.663 356.236,723.623 356.236,720.223 355.556,718.183 354.876,716.823 353.516,715.463 352.156,714.783 349.436,714.783 " />
<polyline points="362.356,712.743 361.676,713.423 360.996,712.743 361.676,712.063 362.356,712.743 362.356,714.103 361.676,715.463 360.996,716.143 " />
<polyline points="168.386,637.046 180.626,637.046 " />
<polyline points="168.386,641.125 180.626,641.125 " />
<polyline points="207.145,637.726 206.465,636.366 204.426,635.686 202.386,635.686 200.346,636.366 199.666,637.726 200.346,639.085 201.706,639.765 205.106,640.445 206.465,641.125 207.145,642.485 207.145,643.165 206.465,644.525 204.426,645.205 202.386,645.205 200.346,644.525 199.666,643.165 " />
<polyline points="211.905,635.686 211.905,649.965 " />
<polyline points="211.905,637.726 213.265,636.366 214.625,635.686 216.665,635.686 218.025,636.366 219.385,637.726 220.065,639.765 220.065,641.125 219.385,643.165 218.025,644.525 216.665,645.205 214.625,645.205 213.265,644.525 211.905,643.165 " />
<polyline points="224.825,630.926 224.825,645.205 " />
<polyline points="229.585,631.606 230.265,632.286 230.945,631.606 230.265,630.926 229.585,631.606 " />
<polyline points="230.265,636.366 230.265,645.205 " />
<polyline points="236.385,630.926 236.385,642.485 237.065,644.525 238.425,645.205 239.785,645.205 " />
<polyline points="234.345,635.686 239.105,635.686 " />
<polyline points="244.545,630.926 244.545,642.485 245.225,644.525 246.585,645.205 247.945,645.205 " />
<polyline points="242.505,635.686 247.265,635.686 " />
<polyline points="251.345,639.765 259.504,639.765 259.504,638.405 258.824,637.046 258.144,636.366 256.784,635.686 254.745,635.686 253.385,636.366 252.025,637.726 251.345,639.765 251.345,641.125 252.025,643.165 253.385,644.525 254.745,645.205 256.784,645.205 258.144,644.525 259.504,643.165 " />
<polyline points="264.264,635.686 264.264,645.205 " />
<polyline points="264.264,639.765 264.944,637.726 266.304,636.366 267.664,635.686 269.704,635.686 " />
<polyline points="286.024,635.686 290.104,645.205 " />
<polyline points="294.184,635.686 290.104,645.205 " />
<polyline points="305.744,635.686 305.744,645.205 " />
<polyline points="305.744,637.726 304.384,636.366 303.024,635.686 300.984,635.686 299.624,636.366 298.264,637.726 297.584,639.765 297.584,641.125 298.264,643.165 299.624,644.525 300.984,645.205 303.024,645.205 304.384,644.525 305.744,643.165 " />
<polyline points="311.183,635.686 311.183,645.205 " />
<polyline points="311.183,638.405 313.223,636.366 314.583,635.686 316.623,635.686 317.983,636.366 318.663,638.405 318.663,645.205 " />
<polyline points="323.423,639.765 331.583,639.765 331.583,638.405 330.903,637.046 330.223,636.366 328.863,635.686 326.823,635.686 325.463,636.366 324.103,637.726 323.423,639.765 323.423,641.125 324.103,643.165 325.463,644.525 326.823,645.205 328.863,645.205 330.223,644.525 331.583,643.165 " />
<polyline points="355.383,628.206 350.623,649.965 " />
<polyline points="359.462,628.206 354.703,649.965 " />
<polyline points="350.623,637.046 360.142,637.046 " />
<polyline points="349.943,641.125 359.462,641.125 " />
<polyline points="366.262,633.646 367.622,632.966 369.662,630.926 369.662,645.205 " />
<polyline points="392.782,635.686 392.782,645.205 " />
<polyline points="392.782,639.765 393.462,637.726 394.822,636.366 396.182,635.686 398.222,635.686 " />
<polyline points="409.101,635.686 409.101,645.205 " />
<polyline points="409.101,637.726 407.741,636.366 406.382,635.686 404.342,635.686 402.982,636.366 401.622,637.726 400.942,639.765 400.942,641.125 401.622,643.165 402.982,644.525 404.342,645.205 406.382,645.205 407.741,644.525 409.101,643.165 " />
<polyline points="422.021,630.926 422.021,645.205 " />
<polyline points="422.021,637.726 420.661,636.366 419.301,635.686 417.261,635.686 415.901,636.366 414.541,637.726 413.861,639.765 413.861,641.125 414.541,643.165 415.901,644.525 417.261,645.205 419.301,645.205 420.661,644.525 422.021,643.165 " />
<polyline points="426.781,631.606 427.461,632.286 428.141,631.606 427.461,630.926 426.781,631.606 " />
<polyline points="427.461,636.366 427.461,645.205 " />
<polyline points="432.901,635.686 432.901,642.485 433.581,644.525 434.941,645.205 436.981,645.205 438.341,644.525 440.381,642.485 " />
<polyline points="440.381,635.686 440.381,645.205 " />
<polyline points="452.621,637.726 451.941,636.366 449.901,635.686 447.861,635.686 445.821,636.366 445.141,637.726 445.821,639.085 447.181,639.765 450.581,640.445 451.941,641.125 452.621,642.485 452.621,643.165 451.941,644.525 449.901,645.205 447.861,645.205 445.821,644.525 445.141,643.165 " />
<polyline points="138.446,607.806 138.446,622.086 " />
<polyline points="138.446,607.806 144.566,607.806 146.606,608.486 147.286,609.166 147.966,610.526 147.966,611.886 147.286,613.246 146.606,613.926 144.566,614.606 138.446,614.606 " />
<polyline points="143.206,614.606 147.966,622.086 " />
<polyline points="167.005,613.926 179.245,613.926 " />
<polyline points="167.005,618.006 179.245,618.006 " />
<polyline points="199.645,607.806 199.645,619.366 200.325,621.406 201.685,622.086 203.045,622.086 " />
<polyline points="197.605,612.566 202.365,612.566 " />
<polyline points="207.125,607.806 207.125,622.086 " />
<polyline points="207.125,615.286 209.164,613.246 210.524,612.566 212.564,612.566 213.924,613.246 214.604,615.286 214.604,622.086 " />
<polyline points="220.044,612.566 220.044,622.086 " />
<polyline points="220.044,616.646 220.724,614.606 222.084,613.246 223.444,612.566 225.484,612.566 " />
<polyline points="231.604,612.566 230.244,613.246 228.884,614.606 228.204,616.646 228.204,618.006 228.884,620.046 230.244,621.406 231.604,622.086 233.644,622.086 235.004,621.406 236.364,620.046 237.044,618.006 237.044,616.646 236.364,614.606 235.004,613.246 233.644,612.566 231.604,612.566 " />
<polyline points="249.284,612.566 249.284,622.086 " />
<polyline points="249.284,614.606 247.924,613.246 246.564,612.566 244.524,612.566 243.164,613.246 241.804,614.606 241.124,616.646 241.124,618.006 241.804,620.046 243.164,621.406 244.524,622.086 246.564,622.086 247.924,621.406 249.284,620.046 " />
<polyline points="255.404,607.806 255.404,619.366 256.084,621.406 257.444,622.086 258.803,622.086 " />
<polyline points="253.364,612.566 258.123,612.566 " />
<polyline points="277.163,612.566 277.163,622.086 " />
<polyline points="277.163,616.646 277.843,614.606 279.203,613.246 280.563,612.566 282.603,612.566 " />
<polyline points="293.483,612.566 293.483,622.086 " />
<polyline points="293.483,614.606 292.123,613.246 290.763,612.566 288.723,612.566 287.363,613.246 286.003,614.606 285.323,616.646 285.323,618.006 286.003,620.046 287.363,621.406 288.723,622.086 290.763,622.086 292.123,621.406 293.483,620.046 " />
<polyline points="306.403,607.806 306.403,622.086 " />
<polyline points="306.403,614.606 305.043,613.246 303.683,612.566 301.643,612.566 300.283,613.246 298.923,614.606 298.243,616.646 298.243,618.006 298.923,620.046 300.283,621.406 301.643,622.086 303.683,622.086 305.043,621.406 306.403,620.046 " />
<polyline points="311.162,608.486 311.842,609.166 312.522,608.486 311.842,607.806 311.162,608.486 " />
<polyline points="311.842,613.246 311.842,622.086 " />
<polyline points="317.282,612.566 317.282,619.366 317.962,621.406 319.322,622.086 321.362,622.086 322.722,621.406 324.762,619.366 " />
<polyline points="324.762,612.566 324.762,622.086 " />
<polyline points="337.002,614.606 336.322,613.246 334.282,612.566 332.242,612.566 330.202,613.246 329.522,614.606 330.202,615.966 331.562,616.646 334.962,617.326 336.322,618.006 337.002,619.366 337.002,620.046 336.322,621.406 334.282,622.086 332.242,622.086 330.202,621.406 329.522,620.046 " />
<polyline points="90.4763,579.417 93.1963,588.937 " />
<polyline points="95.9162,579.417 93.1963,588.937 " />
<polyline points="95.9162,579.417 98.6362,588.937 " />
<polyline points="101.356,579.417 98.6362,588.937 " />
<polyline points="106.116,574.657 106.116,588.937 " />
<polyline points="106.116,582.137 108.156,580.097 109.516,579.417 111.556,579.417 112.916,580.097 113.596,582.137 113.596,588.937 " />
<polyline points="118.356,583.497 126.516,583.497 126.516,582.137 125.836,580.777 125.156,580.097 123.796,579.417 121.756,579.417 120.396,580.097 119.036,581.457 118.356,583.497 118.356,584.857 119.036,586.897 120.396,588.257 121.756,588.937 123.796,588.937 125.156,588.257 126.516,586.897 " />
<polyline points="131.276,579.417 131.276,588.937 " />
<polyline points="131.276,583.497 131.955,581.457 133.315,580.097 134.675,579.417 136.715,579.417 " />
<polyline points="139.435,583.497 147.595,583.497 147.595,582.137 146.915,580.777 146.235,580.097 144.875,579.417 142.835,579.417 141.475,580.097 140.115,581.457 139.435,583.497 139.435,584.857 140.115,586.897 141.475,588.257 142.835,588.937 144.875,588.937 146.235,588.257 147.595,586.897 " />
<polyline points="126.881,489.014 139.121,489.014 " />
<polyline points="126.881,493.094 139.121,493.094 " />
<polyline points="103.228,492.018 104.588,491.338 106.628,489.298 106.628,503.577 " />
<polyline points="91.1563,482.791 91.1563,497.07 " />
<polyline points="91.1563,482.791 97.2762,482.791 99.3161,483.471 99.9961,484.151 100.676,485.511 100.676,486.871 99.9961,488.231 99.3161,488.911 97.2762,489.591 91.1563,489.591 " />
<polyline points="95.9162,489.591 100.676,497.07 " />
<polyline points="149.291,482.791 149.291,497.07 " />
<polyline points="149.291,482.791 155.411,482.791 157.451,483.471 158.131,484.151 158.811,485.511 158.811,486.871 158.131,488.231 157.451,488.911 155.411,489.591 149.291,489.591 " />
<polyline points="154.051,489.591 158.811,497.07 " />
<polyline points="174.451,480.071 162.211,501.83 " />
<polyline points="188.05,486.191 187.37,484.831 186.01,483.471 184.65,482.791 181.93,482.791 180.57,483.471 179.211,484.831 178.531,486.191 177.851,488.231 177.851,491.631 178.531,493.67 179.211,495.03 180.57,496.39 181.93,497.07 184.65,497.07 186.01,496.39 187.37,495.03 188.05,493.67 " />
<polyline points="192.81,482.791 192.81,497.07 " />
<polyline points="192.81,482.791 198.93,482.791 200.97,483.471 201.65,484.151 202.33,485.511 202.33,486.871 201.65,488.231 200.97,488.911 198.93,489.591 192.81,489.591 " />
<polyline points="197.57,489.591 202.33,497.07 " />
<polyline points="149.291,454.32 149.291,468.599 " />
<polyline points="158.811,454.32 149.291,463.839 " />
<polyline points="152.691,460.44 158.811,468.599 " />
<polyline points="192.301,457.72 191.621,456.36 190.261,455 188.901,454.32 186.181,454.32 184.821,455 183.461,456.36 182.781,457.72 182.101,459.76 182.101,463.159 182.781,465.199 183.461,466.559 184.821,467.919 186.181,468.599 188.901,468.599 190.261,467.919 191.621,466.559 192.301,465.199 " />
<polyline points="100.676,457.72 99.9961,456.36 98.6362,455 97.2762,454.32 94.5562,454.32 93.1963,455 91.8363,456.36 91.1563,457.72 90.4763,459.76 90.4763,463.159 91.1563,465.199 91.8363,466.559 93.1963,467.919 94.5562,468.599 97.2762,468.599 98.6362,467.919 99.9961,466.559 100.676,465.199 " />
<polyline points="104.588,465.586 103.228,466.266 101.868,467.626 101.188,469.666 101.188,471.026 101.868,473.066 103.228,474.426 104.588,475.106 106.628,475.106 107.988,474.426 109.348,473.066 110.028,471.026 110.028,469.666 109.348,467.626 107.988,466.266 106.628,465.586 104.588,465.586 " />
<polyline points="126.881,460.543 139.121,460.543 " />
<polyline points="126.881,464.623 139.121,464.623 " />
</g>
<g clip-path="url(#clipId0)" fill="rgb(0,0,0)" stroke="rgb(0,0,0)" stroke-width="0.25" >
<path d="M92.5153,271.783 91.3253,271.783 91.3253,128.391 92.5153,129.581 z" />
<path d="M92.5153,129.581 91.3253,128.391 330.511,128.391 329.321,129.581 z" />
<path d="M329.321,129.581 330.511,128.391 330.511,272.378 329.321,271.188 z" />
<path d="M329.321,271.188 330.511,272.378 91.9203,272.378 91.9203,271.188 z" />
<path d="M91.9203,243.819 91.9203,242.629 329.916,242.629 329.916,243.819 z" />
<path d="M329.916,214.069 329.916,215.259 91.9203,215.259 91.9203,214.069 z" />
<path d="M91.9203,186.7 91.9203,185.51 329.916,185.51 329.916,186.7 z" />
<path d="M721.236,343.104 720.056,343.259 717.647,324.907 718.806,324.596 z" />
<path d="M718.806,324.596 717.647,324.907 710.474,307.633 711.513,307.032 z" />
<path d="M711.513,307.032 710.474,307.633 699.31,293.12 700.158,292.271 z" />
<path d="M700.158,292.271 699.31,293.12 684.533,281.803 685.133,280.764 z" />
<path d="M685.133,280.764 684.533,281.803 667.713,274.834 668.024,273.675 z" />
<path d="M668.024,273.675 667.713,274.834 648.652,272.305 649.842,271.262 z" />
<path d="M649.842,271.262 648.652,272.305 648.652,128.341 649.842,129.631 z" />
<path d="M649.842,129.631 648.652,128.341 683.542,131.145 683.353,132.323 z" />
<path d="M683.353,132.323 683.542,131.145 716.005,139.027 715.634,140.161 z" />
<path d="M715.634,140.161 716.005,139.027 746.963,151.903 746.419,152.966 z" />
<path d="M746.419,152.966 746.963,151.903 775.826,169.649 775.123,170.613 z" />
<path d="M775.123,170.613 775.826,169.649 801.577,191.751 800.731,192.592 z" />
<path d="M800.731,192.592 801.577,191.751 823.379,217.428 822.412,218.128 z" />
<path d="M822.412,218.128 823.379,217.428 840.365,245.152 839.302,245.695 z" />
<path d="M839.302,245.695 840.365,245.152 853.478,276.656 852.343,277.026 z" />
<path d="M852.343,277.026 853.478,276.656 861.457,309.974 860.278,310.16 z" />
<path d="M860.278,310.16 861.457,309.974 864.086,343.777 862.8,342.587 z" />
<path d="M862.8,342.587 864.086,343.777 720.646,343.777 720.646,342.587 z" />
<path d="M749.797,343.115 748.614,343.249 746.104,321.021 747.271,320.753 z" />
<path d="M747.271,320.753 746.104,321.021 738.726,299.987 739.805,299.468 z" />
<path d="M739.805,299.468 738.726,299.987 727.15,281.51 728.087,280.764 z" />
<path d="M728.087,280.764 727.15,281.51 711.023,265.362 711.77,264.425 z" />
<path d="M711.77,264.425 711.023,265.362 692.423,253.694 692.943,252.615 z" />
<path d="M692.943,252.615 692.423,253.694 671.413,246.327 671.68,245.159 z" />
<path d="M671.68,245.159 671.413,246.327 649.181,243.815 649.314,242.633 z" />
<path d="M649.189,215.257 649.306,214.072 674.548,216.57 674.315,217.743 z" />
<path d="M674.315,217.743 674.548,216.57 698.499,223.829 698.042,224.934 z" />
<path d="M698.042,224.934 698.499,223.829 720.976,235.824 720.312,236.818 z" />
<path d="M720.312,236.818 720.976,235.824 740.546,251.883 739.7,252.729 z" />
<path d="M739.7,252.729 740.546,251.883 756.492,271.284 755.498,271.948 z" />
<path d="M755.498,271.948 756.492,271.284 768.598,293.925 767.493,294.383 z" />
<path d="M767.493,294.383 768.598,293.925 775.854,317.853 774.681,318.087 z" />
<path d="M774.681,318.087 775.854,317.853 778.357,343.123 777.173,343.241 z" />
<path d="M806.917,343.13 805.732,343.234 803.364,316.091 804.541,315.884 z" />
<path d="M804.541,315.884 803.364,316.091 796.312,289.722 797.434,289.313 z" />
<path d="M797.434,289.313 796.312,289.722 784.673,264.786 785.707,264.189 z" />
<path d="M785.707,264.189 784.673,264.786 769.348,242.874 770.263,242.106 z" />
<path d="M770.263,242.106 769.348,242.874 749.623,223.137 750.39,222.222 z" />
<path d="M750.39,222.222 749.623,223.137 727.59,207.726 728.187,206.691 z" />
<path d="M728.187,206.691 727.59,207.726 702.769,196.14 703.177,195.017 z" />
<path d="M703.177,195.017 702.769,196.14 676.253,189.05 676.46,187.874 z" />
<path d="M676.46,187.874 676.253,189.05 649.196,186.698 649.299,185.512 z" />
</g>
</svg>
