<?xml version="1.0" standalone="no"?>
<svg viewBox="0 0 1024 768" version="1.1" xmlns="http://www.w3.org/2000/svg" xmlns:xlink="http://www.w3.org/1999/xlink" stroke-linecap="round" stroke-linejoin="round" fill-rule="evenodd" xml:space="preserve" >
<defs >
<clipPath id="clipId0" >
<path d="M0,768 1024,768 1024,0 0,0 z" />
</clipPath>
</defs>
<g clip-path="url(#clipId0)" fill="none" stroke="rgb(0,0,0)" stroke-width="0.1" />
<g clip-path="url(#clipId0)" fill="none" stroke="rgb(0,0,0)" stroke-width="0.25" >
<polyline points="277.967,243.433 247.844,243.433 " />
<polyline points="277.967,243.433 277.967,273.557 " />
<polyline points="458.708,62.6923 458.708,273.557 " />
<polyline points="458.708,62.6923 247.844,62.6923 " />
<polyline points="277.967,243.433 458.708,62.6923 " />
<path d="M378.925,178.623  A36.1482,36.1482 0 0,0 342.777,142.475 " />
<path d="M404.486,153.063  A36.1482,36.1482 0 0,0 368.338,116.915 " />
<path d="M430.047,127.502  A36.1482,36.1482 0 0,0 393.899,91.3539 " />
<path d="M455.607,101.942  A36.1482,36.1482 0 0,0 419.459,65.7933 " />
<path d="M353.365,204.184  A36.1482,36.1482 0 0,0 317.217,168.036 " />
<path d="M327.804,229.745  A36.1482,36.1482 0 0,0 291.656,193.596 " />
<path d="M302.244,255.305  A36.1482,36.1482 0 0,0 266.095,219.157 " />
<polyline points="458.708,273.557 277.967,273.557 " />
<polyline points="247.844,62.6923 247.844,243.433 " />
<path d="M1013.96,306.214  A108.445,108.445 0 0,0 905.516,197.77 " />
<path d="M915.978,404.197  A108.445,108.445 0 0,0 807.534,295.752 " />
<polyline points="807.534,422.271 807.534,386.123 " />
<polyline points="789.46,404.197 825.608,404.197 " />
<polyline points="843.682,404.197 934.052,404.197 " />
<polyline points="807.534,368.049 807.534,277.678 " />
<polyline points="992.754,208.326 861.871,77.4425 " />
<polyline points="894.772,306.308 763.888,175.425 " />
<polyline points="864.427,105.559 843.148,126.838 " />
<polyline points="792.005,177.981 813.284,156.702 " />
</g>
<g clip-path="url(#clipId0)" fill="rgb(0,0,0)" stroke="rgb(0,0,0)" stroke-width="0.25" >
<path d="M866.557,107.689 862.297,103.429 877.207,92.7789 877.207,92.7789 z" />
<path d="M794.135,180.111 789.875,175.851 779.225,190.761 779.225,190.761 z" />
</g>
<g clip-path="url(#clipId0)" fill="none" stroke="rgb(0,0,0)" stroke-width="0.25" >
<polyline points="835.532,141.34 834.671,139.618 832.089,138.758 829.507,138.758 826.925,139.618 826.064,141.34 826.925,143.061 828.646,143.922 832.95,144.782 834.671,145.643 835.532,147.364 835.532,148.225 834.671,149.946 832.089,150.807 829.507,150.807 826.925,149.946 826.064,148.225 " />
</g>
<g clip-path="url(#clipId0)" fill="rgb(0,0,0)" stroke="rgb(0,0,0)" stroke-width="0.25" >
<path d="M876.948,346.252 880.653,351.003 893.054,337.514 893.054,337.514 z" />
</g>
<g clip-path="url(#clipId0)" fill="none" stroke="rgb(0,0,0)" stroke-width="0.25" >
<polyline points="878.8,348.628 756.047,444.343 " />
<polyline points="756.047,444.343 737.973,444.343 " />
<polyline points="721.075,439.982 721.075,452.031 " />
<polyline points="721.075,445.146 721.936,442.564 723.657,440.842 725.378,439.982 727.96,439.982 " />
<polyline points="145.582,178.854 143.86,179.715 142.139,181.436 141.278,184.018 141.278,185.74 142.139,188.322 143.86,190.043 145.582,190.904 148.164,190.904 149.885,190.043 151.606,188.322 152.467,185.74 152.467,184.018 151.606,181.436 149.885,179.715 148.164,178.854 145.582,178.854 " />
<polyline points="178.637,153.063 94.2488,153.063 " />
</g>
<g clip-path="url(#clipId0)" fill="rgb(0,0,0)" stroke="rgb(0,0,0)" stroke-width="0.25" >
<path d="M178.637,150.05 178.637,156.075 196.711,153.063 196.711,153.063 z" />
</g>
<g clip-path="url(#clipId0)" fill="none" stroke="rgb(0,0,0)" stroke-width="0.25" >
<polyline points="302.244,255.305 302.244,237.231 " />
<polyline points="266.095,219.157 284.169,219.157 " />
<path d="M302.244,237.231  A18.0741,18.0741 0 0,0 284.169,219.157 " />
<polyline points="291.656,193.596 309.73,193.596 " />
<path d="M327.804,211.671  A18.0741,18.0741 0 0,0 309.73,193.596 " />
<polyline points="327.804,229.745 327.804,211.671 " />
<polyline points="317.217,168.036 335.291,168.036 " />
<path d="M353.365,186.11  A18.0741,18.0741 0 0,0 335.291,168.036 " />
<polyline points="353.365,204.184 353.365,186.11 " />
<polyline points="342.777,142.475 360.851,142.475 " />
<path d="M378.925,160.549  A18.0741,18.0741 0 0,0 360.851,142.475 " />
<polyline points="378.925,178.623 378.925,160.549 " />
<polyline points="368.338,116.915 386.412,116.915 " />
<path d="M404.486,134.989  A18.0741,18.0741 0 0,0 386.412,116.915 " />
<polyline points="404.486,153.063 404.486,134.989 " />
<polyline points="393.899,91.3539 411.973,91.3539 " />
<path d="M430.047,109.428  A18.0741,18.0741 0 0,0 411.973,91.3539 " />
<polyline points="430.047,127.502 430.047,109.428 " />
<polyline points="419.459,65.7933 437.533,65.7933 " />
<path d="M455.607,83.8674  A18.0741,18.0741 0 0,0 437.533,65.7933 " />
<polyline points="455.607,101.942 455.607,83.8674 " />
<polyline points="915.978,404.197 915.978,349.974 " />
<polyline points="807.534,295.752 861.756,295.752 " />
<path d="M915.978,349.974  A54.2223,54.2223 0 0,0 861.756,295.752 " />
<polyline points="905.516,197.77 959.739,197.77 " />
<path d="M1013.96,251.992  A54.2223,54.2223 0 0,0 959.739,197.77 " />
<polyline points="1013.96,306.214 1013.96,251.992 " />
<polyline points="36.9796,62.6923 36.9796,116.533 " />
<polyline points="247.844,62.6923 36.9796,62.6923 " />
<polyline points="247.844,243.433 36.9796,243.433 " />
<polyline points="125.793,111.049 124.072,111.91 122.351,113.631 121.49,115.353 120.629,117.935 120.629,122.238 121.49,124.82 122.351,126.541 124.072,128.263 125.793,129.123 129.236,129.123 130.957,128.263 132.679,126.541 133.539,124.82 134.4,122.238 134.4,117.935 133.539,115.353 132.679,113.631 130.957,111.91 129.236,111.049 125.793,111.049 " />
<polyline points="128.375,125.681 133.539,130.845 " />
<polyline points="36.6335,584.741 36.6335,596.791 " />
<polyline points="36.6335,589.905 37.4941,587.323 39.2155,585.602 40.9368,584.741 43.5188,584.741 " />
<polyline points="65.8963,586.463 81.3884,586.463 " />
<polyline points="65.8963,591.627 81.3884,591.627 " />
<polyline points="114.094,578.717 105.487,590.766 118.397,590.766 " />
<polyline points="114.094,578.717 114.094,596.791 " />
<polyline points="124.422,595.069 123.561,595.93 124.422,596.791 125.283,595.93 124.422,595.069 " />
<polyline points="141.635,578.717 133.029,578.717 132.168,586.463 133.029,585.602 135.611,584.741 138.193,584.741 140.775,585.602 142.496,587.323 143.357,589.905 143.357,591.627 142.496,594.209 140.775,595.93 138.193,596.791 135.611,596.791 133.029,595.93 132.168,595.069 131.307,593.348 " />
<polyline points="173.48,575.274 171.759,576.995 170.037,579.577 168.316,583.02 167.455,587.323 167.455,590.766 168.316,595.069 170.037,598.512 171.759,601.094 173.48,602.815 " />
<polyline points="181.226,582.159 182.948,581.299 185.53,578.717 185.53,596.791 " />
<polyline points="198.44,582.159 200.161,581.299 202.743,578.717 202.743,596.791 " />
<polyline points="218.235,578.717 215.653,579.577 213.932,582.159 213.071,586.463 213.071,589.045 213.932,593.348 215.653,595.93 218.235,596.791 219.956,596.791 222.538,595.93 224.26,593.348 225.12,589.045 225.12,586.463 224.26,582.159 222.538,579.577 219.956,578.717 218.235,578.717 " />
<polyline points="230.284,575.274 232.006,576.995 233.727,579.577 235.448,583.02 236.309,587.323 236.309,590.766 235.448,595.069 233.727,598.512 232.006,601.094 230.284,602.815 " />
<polyline points="244.916,595.93 244.055,596.791 243.195,595.93 244.055,595.069 244.916,595.93 244.916,597.651 244.055,599.373 243.195,600.233 " />
<polyline points="278.482,587.323 277.621,585.602 275.039,584.741 272.457,584.741 269.875,585.602 269.015,587.323 269.875,589.045 271.597,589.905 275.9,590.766 277.621,591.627 278.482,593.348 278.482,594.209 277.621,595.93 275.039,596.791 272.457,596.791 269.875,595.93 269.015,594.209 " />
<polyline points="302.581,586.463 318.073,586.463 " />
<polyline points="302.581,591.627 318.073,591.627 " />
<polyline points="343.893,578.717 353.36,578.717 348.196,585.602 350.778,585.602 352.5,586.463 353.36,587.323 354.221,589.905 354.221,591.627 353.36,594.209 351.639,595.93 349.057,596.791 346.475,596.791 343.893,595.93 343.032,595.069 342.172,593.348 " />
<polyline points="361.106,595.069 360.246,595.93 361.106,596.791 361.967,595.93 361.106,595.069 " />
<polyline points="368.852,583.02 368.852,582.159 369.713,580.438 370.574,579.577 372.295,578.717 375.738,578.717 377.459,579.577 378.32,580.438 379.181,582.159 379.181,583.881 378.32,585.602 376.599,588.184 367.992,596.791 380.041,596.791 " />
<polyline points="395.533,578.717 386.927,578.717 386.066,586.463 386.927,585.602 389.509,584.741 392.091,584.741 394.673,585.602 396.394,587.323 397.255,589.905 397.255,591.627 396.394,594.209 394.673,595.93 392.091,596.791 389.509,596.791 386.927,595.93 386.066,595.069 385.205,593.348 " />
<polyline points="427.378,575.274 425.657,576.995 423.935,579.577 422.214,583.02 421.353,587.323 421.353,590.766 422.214,595.069 423.935,598.512 425.657,601.094 427.378,602.815 " />
<polyline points="436.845,578.717 434.263,579.577 433.403,581.299 433.403,583.02 434.263,584.741 435.985,585.602 439.428,586.463 442.01,587.323 443.731,589.045 444.592,590.766 444.592,593.348 443.731,595.069 442.87,595.93 440.288,596.791 436.845,596.791 434.263,595.93 433.403,595.069 432.542,593.348 432.542,590.766 433.403,589.045 435.124,587.323 437.706,586.463 441.149,585.602 442.87,584.741 443.731,583.02 443.731,581.299 442.87,579.577 440.288,578.717 436.845,578.717 " />
<polyline points="454.92,578.717 452.338,579.577 450.616,582.159 449.756,586.463 449.756,589.045 450.616,593.348 452.338,595.93 454.92,596.791 456.641,596.791 459.223,595.93 460.944,593.348 461.805,589.045 461.805,586.463 460.944,582.159 459.223,579.577 456.641,578.717 454.92,578.717 " />
<polyline points="466.969,575.274 468.69,576.995 470.412,579.577 472.133,583.02 472.994,587.323 472.994,590.766 472.133,595.069 470.412,598.512 468.69,601.094 466.969,602.815 " />
<polyline points="497.092,579.577 497.953,580.438 498.814,579.577 497.953,578.717 497.092,579.577 " />
<polyline points="497.953,585.602 497.953,596.791 " />
<polyline points="504.839,584.741 504.839,596.791 " />
<polyline points="504.839,588.184 507.421,585.602 509.142,584.741 511.724,584.741 513.445,585.602 514.306,588.184 514.306,596.791 " />
<polyline points="522.052,595.069 521.191,595.93 522.052,596.791 522.913,595.93 522.052,595.069 " />
<polyline points="535.823,575.274 534.101,576.995 532.38,579.577 530.659,583.02 529.798,587.323 529.798,590.766 530.659,595.069 532.38,598.512 534.101,601.094 535.823,602.815 " />
<polyline points="541.847,584.741 541.847,596.791 " />
<polyline points="541.847,588.184 544.429,585.602 546.151,584.741 548.733,584.741 550.454,585.602 551.315,588.184 551.315,596.791 " />
<polyline points="551.315,588.184 553.897,585.602 555.618,584.741 558.2,584.741 559.921,585.602 560.782,588.184 560.782,596.791 " />
<polyline points="567.667,584.741 567.667,596.791 " />
<polyline points="567.667,588.184 570.25,585.602 571.971,584.741 574.553,584.741 576.274,585.602 577.135,588.184 577.135,596.791 " />
<polyline points="577.135,588.184 579.717,585.602 581.438,584.741 584.02,584.741 585.742,585.602 586.602,588.184 586.602,596.791 " />
<polyline points="592.627,575.274 594.348,576.995 596.07,579.577 597.791,583.02 598.652,587.323 598.652,590.766 597.791,595.069 596.07,598.512 594.348,601.094 592.627,602.815 " />
<polyline points="126.795,164.885 119.91,182.96 " />
<polyline points="126.795,164.885 133.68,182.96 " />
<polyline points="122.492,176.935 131.098,176.935 " />
<polyline points="36.9796,116.533 63.1565,130.856 " />
<polyline points="63.1565,130.856 10.0392,143.495 " />
<polyline points="10.0392,143.495 36.9796,160.346 " />
<polyline points="36.9796,160.346 36.9796,243.433 " />
<polyline points="277.967,273.557 277.967,393.609 " />
<polyline points="375.621,443.088 458.708,443.088 " />
<polyline points="331.808,443.088 346.131,416.911 " />
<polyline points="277.967,443.088 331.808,443.088 " />
<polyline points="358.77,470.028 375.621,443.088 " />
<polyline points="346.131,416.911 358.77,470.028 " />
<polyline points="458.708,273.557 458.708,393.609 " />
<polyline points="320.861,343.907 325.164,361.981 " />
<polyline points="329.468,343.907 325.164,361.981 " />
<polyline points="329.468,343.907 333.771,361.981 " />
<polyline points="338.075,343.907 333.771,361.981 " />
<polyline points="360.452,349.932 369.919,361.981 " />
<polyline points="369.919,349.932 360.452,361.981 " />
<polyline points="394.018,343.907 394.018,361.981 " />
<polyline points="406.068,343.907 406.068,361.981 " />
<polyline points="394.018,352.514 406.068,352.514 " />
<polyline points="458.708,393.609 458.708,443.088 " />
<polyline points="458.708,443.088 488.832,443.088 " />
<polyline points="277.967,393.609 277.967,443.088 " />
<polyline points="277.967,443.088 247.844,443.088 " />
<polyline points="36.9796,62.6923 36.9796,32.5688 " />
<polyline points="36.9796,243.433 36.9796,273.557 " />
<polyline points="878.7,715.234 877.438,712.709 874.913,710.185 872.389,708.923 867.34,708.923 864.815,710.185 862.29,712.709 861.028,715.234 859.766,719.021 859.766,725.333 861.028,729.12 862.29,731.644 864.815,734.169 867.34,735.431 872.389,735.431 874.913,734.169 877.438,731.644 878.7,729.12 " />
<polyline points="887.537,708.923 887.537,735.431 " />
<polyline points="887.537,708.923 898.897,708.923 902.684,710.185 903.947,711.447 905.209,713.972 905.209,716.496 903.947,719.021 902.684,720.283 898.897,721.546 887.537,721.546 " />
<polyline points="896.373,721.546 905.209,735.431 " />
<polyline points="915.308,708.923 929.193,708.923 921.619,719.021 925.406,719.021 927.931,720.283 929.193,721.546 930.455,725.333 930.455,727.857 929.193,731.644 926.668,734.169 922.882,735.431 919.095,735.431 915.308,734.169 914.045,732.907 912.783,730.382 " />
<polyline points="939.292,724.07 962.013,724.07 " />
<polyline points="974.637,713.972 977.161,712.709 980.948,708.923 980.948,735.431 " />
<polyline points="1012.51,712.709 1011.24,710.185 1007.46,708.923 1004.93,708.923 1001.15,710.185 998.621,713.972 997.358,720.283 997.358,726.595 998.621,731.644 1001.15,734.169 1004.93,735.431 1006.19,735.431 1009.98,734.169 1012.51,731.644 1013.77,727.857 1013.77,726.595 1012.51,722.808 1009.98,720.283 1006.19,719.021 1004.93,719.021 1001.15,720.283 998.621,722.808 997.358,726.595 " />
</g>
</svg>
