<?xml version="1.0" standalone="no"?>
<svg viewBox="0 0 1024 768" version="1.1" xmlns="http://www.w3.org/2000/svg" xmlns:xlink="http://www.w3.org/1999/xlink" stroke-linecap="round" stroke-linejoin="round" fill-rule="evenodd" xml:space="preserve" >
<defs >
<clipPath id="clipId0" >
<path d="M0,768 1024,768 1024,0 0,0 z" />
</clipPath>
</defs>
<g clip-path="url(#clipId0)" fill="none" stroke="rgb(0,0,0)" stroke-width="0.1" />
<g clip-path="url(#clipId0)" fill="none" stroke="rgb(0,0,0)" stroke-width="0.25" >
<polyline points="261.526,263.23 235.598,263.23 " />
<polyline points="261.526,263.23 261.526,289.158 " />
<polyline points="417.093,107.663 417.093,289.158 " />
<polyline points="417.093,107.663 235.598,107.663 " />
<polyline points="261.526,263.23 417.093,107.663 " />
<path d="M348.422,207.447  A31.1134,31.1134 0 0,0 317.309,176.334 " />
<path d="M370.423,185.447  A31.1134,31.1134 0 0,0 339.309,154.333 " />
<path d="M392.423,163.446  A31.1134,31.1134 0 0,0 361.31,132.333 " />
<path d="M414.424,141.446  A31.1134,31.1134 0 0,0 383.31,110.332 " />
<path d="M326.422,229.448  A31.1134,31.1134 0 0,0 295.308,198.334 " />
<path d="M304.421,251.448  A31.1134,31.1134 0 0,0 273.308,220.335 " />
<path d="M282.42,273.449  A31.1134,31.1134 0 0,0 251.307,242.335 " />
<polyline points="417.093,289.158 261.526,289.158 " />
<polyline points="235.598,107.663 235.598,263.23 " />
<path d="M922.645,291.117  A93.3403,93.3403 0 0,0 829.305,197.777 " />
<path d="M838.31,375.452  A93.3403,93.3403 0 0,0 744.97,282.112 " />
<polyline points="744.97,391.009 744.97,359.896 " />
<polyline points="729.413,375.452 760.526,375.452 " />
<polyline points="776.083,375.452 853.867,375.452 " />
<polyline points="744.97,344.339 744.97,266.555 " />
<polyline points="829.305,260.004 829.305,182.22 " />
<polyline points="860.418,291.117 938.202,291.117 " />
<polyline points="813.748,291.117 844.862,291.117 " />
<polyline points="829.305,306.674 829.305,275.56 " />
<polyline points="890.723,220.532 778.069,107.878 " />
<polyline points="806.388,304.867 693.734,192.213 " />
<polyline points="780.269,132.079 761.954,150.394 " />
<polyline points="717.934,194.414 736.249,176.098 " />
</g>
<g clip-path="url(#clipId0)" fill="rgb(0,0,0)" stroke="rgb(0,0,0)" stroke-width="0.25" >
<path d="M782.103,133.912 778.436,130.245 791.269,121.078 791.269,121.078 z" />
<path d="M719.768,196.247 716.101,192.58 706.934,205.414 706.934,205.414 z" />
</g>
<g clip-path="url(#clipId0)" fill="none" stroke="rgb(0,0,0)" stroke-width="0.25" >
<polyline points="755.399,162.876 754.658,161.394 752.435,160.653 750.213,160.653 747.991,161.394 747.25,162.876 747.991,164.357 749.472,165.098 753.176,165.839 754.658,166.58 755.399,168.061 755.399,168.802 754.658,170.284 752.435,171.024 750.213,171.024 747.991,170.284 747.25,168.802 " />
<polyline points="929.127,291.117 941.402,291.117 " />
</g>
<g clip-path="url(#clipId0)" fill="rgb(0,0,0)" stroke="rgb(0,0,0)" stroke-width="0.25" >
<path d="M889.051,241.243 892.24,245.333 902.913,233.722 902.913,233.722 z" />
</g>
<g clip-path="url(#clipId0)" fill="none" stroke="rgb(0,0,0)" stroke-width="0.25" >
<polyline points="934.961,208.733 829.305,291.117 " />
<polyline points="950.518,208.733 934.961,208.733 " />
<polyline points="961.144,204.961 961.144,215.332 " />
<polyline points="961.144,209.405 961.885,207.183 963.367,205.701 964.848,204.961 967.071,204.961 " />
<polyline points="149.085,214.926 147.603,215.667 146.122,217.149 145.381,219.371 145.381,220.853 146.122,223.075 147.603,224.557 149.085,225.297 151.307,225.297 152.789,224.557 154.271,223.075 155.011,220.853 155.011,219.371 154.271,217.149 152.789,215.667 151.307,214.926 149.085,214.926 " />
<polyline points="179.674,190.256 107.039,190.256 " />
</g>
<g clip-path="url(#clipId0)" fill="rgb(0,0,0)" stroke="rgb(0,0,0)" stroke-width="0.25" >
<path d="M179.674,187.663 179.674,192.848 195.231,190.256 195.231,190.256 z" />
</g>
<g clip-path="url(#clipId0)" fill="none" stroke="rgb(0,0,0)" stroke-width="0.25" >
<polyline points="674.964,270.62 587.054,270.62 " />
</g>
<g clip-path="url(#clipId0)" fill="rgb(0,0,0)" stroke="rgb(0,0,0)" stroke-width="0.25" >
<path d="M674.964,268.027 674.964,273.213 690.52,270.62 690.52,270.62 z" />
</g>
<g clip-path="url(#clipId0)" fill="none" stroke="rgb(0,0,0)" stroke-width="0.25" >
<polyline points="595.777,248.198 589.85,263.755 " />
<polyline points="595.777,248.198 601.703,263.755 " />
<polyline points="592.073,258.57 599.481,258.57 " />
<polyline points="605.407,248.198 605.407,263.755 " />
<polyline points="611.333,248.198 611.333,263.755 " />
<polyline points="611.333,248.198 618.001,248.198 620.223,248.939 620.964,249.68 621.705,251.162 621.705,252.643 620.964,254.125 620.223,254.866 618.001,255.606 611.333,255.606 " />
<polyline points="616.519,255.606 621.705,263.755 " />
<polyline points="592.073,276.777 592.073,292.333 " />
<polyline points="592.073,276.777 601.703,276.777 " />
<polyline points="592.073,284.185 597.999,284.185 " />
<polyline points="605.407,276.777 605.407,292.333 614.297,292.333 " />
<polyline points="621.705,276.777 620.223,277.518 618.741,278.999 618.001,280.481 617.26,282.703 617.26,286.407 618.001,288.629 618.741,290.111 620.223,291.593 621.705,292.333 624.668,292.333 626.149,291.593 627.631,290.111 628.372,288.629 629.113,286.407 629.113,282.703 628.372,280.481 627.631,278.999 626.149,277.518 624.668,276.777 621.705,276.777 " />
<polyline points="632.817,276.777 636.521,292.333 " />
<polyline points="640.225,276.777 636.521,292.333 " />
<polyline points="640.225,276.777 643.928,292.333 " />
<polyline points="647.632,276.777 643.928,292.333 " />
<polyline points="129.683,161.175 128.202,161.916 126.72,163.398 125.979,164.879 125.238,167.102 125.238,170.806 125.979,173.028 126.72,174.51 128.202,175.991 129.683,176.732 132.646,176.732 134.128,175.991 135.61,174.51 136.35,173.028 137.091,170.806 137.091,167.102 136.35,164.879 135.61,163.398 134.128,161.916 132.646,161.175 129.683,161.175 " />
<polyline points="131.906,173.769 136.35,178.214 " />
<polyline points="39.011,107.663 39.011,161.992 " />
<polyline points="235.598,107.663 39.011,107.663 " />
<polyline points="235.598,263.23 39.011,263.23 " />
<polyline points="35.1997,558.59 35.1997,568.961 " />
<polyline points="35.1997,563.035 35.9405,560.813 37.4221,559.331 38.9037,558.59 41.1261,558.59 " />
<polyline points="60.3868,560.072 73.7211,560.072 " />
<polyline points="60.3868,564.517 73.7211,564.517 " />
<polyline points="95.2042,557.109 95.2042,556.368 95.945,554.886 96.6858,554.146 98.1674,553.405 101.131,553.405 102.612,554.146 103.353,554.886 104.094,556.368 104.094,557.85 103.353,559.331 101.871,561.554 94.4634,568.961 104.835,568.961 " />
<polyline points="110.761,567.48 110.02,568.221 110.761,568.961 111.502,568.221 110.761,567.48 " />
<polyline points="121.132,553.405 118.91,554.146 117.428,556.368 116.687,560.072 116.687,562.294 117.428,565.998 118.91,568.221 121.132,568.961 122.614,568.961 124.836,568.221 126.318,565.998 127.058,562.294 127.058,560.072 126.318,556.368 124.836,554.146 122.614,553.405 121.132,553.405 " />
<polyline points="152.986,550.442 151.505,551.923 150.023,554.146 148.542,557.109 147.801,560.813 147.801,563.776 148.542,567.48 150.023,570.443 151.505,572.665 152.986,574.147 " />
<polyline points="166.321,553.405 158.913,553.405 158.172,560.072 158.913,559.331 161.135,558.59 163.357,558.59 165.58,559.331 167.061,560.813 167.802,563.035 167.802,564.517 167.061,566.739 165.58,568.221 163.357,568.961 161.135,568.961 158.913,568.221 158.172,567.48 157.431,565.998 " />
<polyline points="176.692,553.405 174.469,554.146 172.988,556.368 172.247,560.072 172.247,562.294 172.988,565.998 174.469,568.221 176.692,568.961 178.173,568.961 180.396,568.221 181.877,565.998 182.618,562.294 182.618,560.072 181.877,556.368 180.396,554.146 178.173,553.405 176.692,553.405 " />
<polyline points="187.063,550.442 188.545,551.923 190.026,554.146 191.508,557.109 192.248,560.813 192.248,563.776 191.508,567.48 190.026,570.443 188.545,572.665 187.063,574.147 " />
<polyline points="199.656,568.221 198.916,568.961 198.175,568.221 198.916,567.48 199.656,568.221 199.656,569.702 198.916,571.184 198.175,571.925 " />
<polyline points="228.547,560.813 227.807,559.331 225.584,558.59 223.362,558.59 221.14,559.331 220.399,560.813 221.14,562.294 222.621,563.035 226.325,563.776 227.807,564.517 228.547,565.998 228.547,566.739 227.807,568.221 225.584,568.961 223.362,568.961 221.14,568.221 220.399,566.739 " />
<polyline points="249.29,560.072 262.624,560.072 " />
<polyline points="249.29,564.517 262.624,564.517 " />
<polyline points="285.589,556.368 287.07,555.627 289.293,553.405 289.293,568.961 " />
<polyline points="299.664,567.48 298.923,568.221 299.664,568.961 300.405,568.221 299.664,567.48 " />
<polyline points="314.48,553.405 307.072,553.405 306.331,560.072 307.072,559.331 309.294,558.59 311.517,558.59 313.739,559.331 315.221,560.813 315.961,563.035 315.961,564.517 315.221,566.739 313.739,568.221 311.517,568.961 309.294,568.961 307.072,568.221 306.331,567.48 305.59,565.998 " />
<polyline points="341.889,550.442 340.408,551.923 338.926,554.146 337.445,557.109 336.704,560.813 336.704,563.776 337.445,567.48 338.926,570.443 340.408,572.665 341.889,574.147 " />
<polyline points="353.742,553.405 346.334,563.776 357.446,563.776 " />
<polyline points="353.742,553.405 353.742,568.961 " />
<polyline points="365.595,553.405 363.372,554.146 361.891,556.368 361.15,560.072 361.15,562.294 361.891,565.998 363.372,568.221 365.595,568.961 367.076,568.961 369.299,568.221 370.78,565.998 371.521,562.294 371.521,560.072 370.78,556.368 369.299,554.146 367.076,553.405 365.595,553.405 " />
<polyline points="375.966,550.442 377.448,551.923 378.929,554.146 380.411,557.109 381.152,560.813 381.152,563.776 380.411,567.48 378.929,570.443 377.448,572.665 375.966,574.147 " />
<polyline points="132.356,201.877 126.43,217.434 " />
<polyline points="132.356,201.877 138.282,217.434 " />
<polyline points="128.652,212.248 136.06,212.248 " />
<polyline points="39.011,161.992 67.0298,175.457 " />
<polyline points="64.899,175.457 10.0392,190.846 " />
<polyline points="10.0392,190.846 36.8803,205.273 " />
<polyline points="39.011,205.273 39.011,263.23 " />
<polyline points="261.526,289.158 261.526,394.769 " />
<polyline points="261.526,433.097 315.854,433.097 " />
<polyline points="315.854,433.097 329.319,405.079 " />
<polyline points="329.319,405.079 344.708,459.939 " />
<polyline points="344.708,459.939 359.135,433.097 " />
<polyline points="359.135,433.097 417.093,433.097 " />
<polyline points="417.093,289.158 417.093,394.769 " />
<polyline points="299.436,349.178 303.14,364.734 " />
<polyline points="306.844,349.178 303.14,364.734 " />
<polyline points="306.844,349.178 310.548,364.734 " />
<polyline points="314.252,349.178 310.548,364.734 " />
<polyline points="333.512,354.363 341.661,364.734 " />
<polyline points="341.661,354.363 333.512,364.734 " />
<polyline points="362.404,349.178 362.404,364.734 " />
<polyline points="372.775,349.178 372.775,364.734 " />
<polyline points="362.404,356.586 372.775,356.586 " />
<polyline points="39.011,107.663 39.011,81.7351 " />
<polyline points="39.011,263.23 39.011,289.158 " />
<polyline points="417.093,433.097 443.021,433.097 " />
<polyline points="261.526,433.097 235.598,433.097 " />
<polyline points="417.093,394.769 417.093,433.097 " />
<polyline points="261.526,394.769 261.526,433.097 " />
</g>
<g clip-path="url(#clipId0)" fill="none" stroke="rgb(0,255,0)" stroke-width="0.25" >
<polyline points="920.522,668.881 919.435,666.708 917.262,664.535 915.089,663.448 910.743,663.448 908.57,664.535 906.397,666.708 905.311,668.881 904.224,672.14 904.224,677.573 905.311,680.832 906.397,683.005 908.57,685.178 910.743,686.265 915.089,686.265 917.262,685.178 919.435,683.005 920.522,680.832 " />
<polyline points="928.127,663.448 928.127,686.265 " />
<polyline points="928.127,663.448 937.906,663.448 941.165,664.535 942.252,665.621 943.338,667.794 943.338,669.967 942.252,672.14 941.165,673.227 937.906,674.313 928.127,674.313 " />
<polyline points="935.733,674.313 943.338,686.265 " />
<polyline points="952.03,663.448 963.982,663.448 957.463,672.14 960.722,672.14 962.895,673.227 963.982,674.313 965.068,677.573 965.068,679.746 963.982,683.005 961.809,685.178 958.549,686.265 955.29,686.265 952.03,685.178 950.944,684.092 949.857,681.919 " />
<polyline points="972.674,676.486 992.231,676.486 " />
<polyline points="1013.96,671.054 1012.87,674.313 1010.7,676.486 1007.44,677.573 1006.36,677.573 1003.1,676.486 1000.92,674.313 999.836,671.054 999.836,669.967 1000.92,666.708 1003.1,664.535 1006.36,663.448 1007.44,663.448 1010.7,664.535 1012.87,666.708 1013.96,671.054 1013.96,676.486 1012.87,681.919 1010.7,685.178 1007.44,686.265 1005.27,686.265 1002.01,685.178 1000.92,683.005 " />
</g>
</svg>
