<?xml version="1.0" standalone="no"?>
<svg viewBox="0 0 1024 768" version="1.1" xmlns="http://www.w3.org/2000/svg" xmlns:xlink="http://www.w3.org/1999/xlink" stroke-linecap="round" stroke-linejoin="round" fill-rule="evenodd" xml:space="preserve" >
<defs >
<clipPath id="clipId0" >
<path d="M0,768 1024,768 1024,0 0,0 z" />
</clipPath>
</defs>
<g clip-path="url(#clipId0)" fill="none" stroke="rgb(0,0,0)" stroke-width="0.1" />
<g clip-path="url(#clipId0)" fill="none" stroke="rgb(0,0,0)" stroke-width="0.25" >
<polyline points="281.282,261.894 253.079,261.894 " />
<polyline points="281.282,261.894 281.282,290.098 " />
<polyline points="450.505,92.672 450.505,290.098 " />
<polyline points="450.505,92.672 253.079,92.672 " />
<polyline points="281.282,261.894 450.505,92.672 " />
<path d="M375.806,201.215  A33.8445,33.8445 0 0,0 341.962,167.37 " />
<path d="M399.738,177.283  A33.8445,33.8445 0 0,0 365.894,143.439 " />
<path d="M423.67,153.352  A33.8445,33.8445 0 0,0 389.825,119.507 " />
<path d="M447.601,129.42  A33.8445,33.8445 0 0,0 413.757,95.5754 " />
<path d="M351.875,225.147  A33.8445,33.8445 0 0,0 318.03,191.302 " />
<path d="M327.943,249.078  A33.8445,33.8445 0 0,0 294.099,215.234 " />
<path d="M304.011,273.01  A33.8445,33.8445 0 0,0 270.167,239.165 " />
<polyline points="450.505,290.098 281.282,290.098 " />
<polyline points="253.079,92.672 253.079,261.894 " />
<path d="M919.31,287.597  A101.533,101.533 0 0,0 817.776,186.063 " />
<path d="M827.572,379.335  A101.533,101.533 0 0,0 726.038,277.801 " />
<polyline points="726.038,396.257 726.038,362.412 " />
<polyline points="709.116,379.335 742.96,379.335 " />
<polyline points="759.883,379.335 844.494,379.335 " />
<polyline points="726.038,345.49 726.038,260.879 " />
<polyline points="817.776,253.752 817.776,169.141 " />
<polyline points="851.621,287.597 936.232,287.597 " />
<polyline points="800.854,287.597 834.698,287.597 " />
<polyline points="817.776,304.519 817.776,270.674 " />
<polyline points="898.492,224.713 775.95,102.171 " />
<polyline points="778.343,128.496 758.42,148.419 " />
<polyline points="710.537,196.302 730.46,176.379 " />
</g>
<g clip-path="url(#clipId0)" fill="rgb(0,0,0)" stroke="rgb(0,0,0)" stroke-width="0.25" >
<path d="M780.337,130.49 776.349,126.502 790.309,116.53 790.309,116.53 z" />
<path d="M712.531,198.297 708.542,194.308 698.571,208.268 698.571,208.268 z" />
</g>
<g clip-path="url(#clipId0)" fill="none" stroke="rgb(0,0,0)" stroke-width="0.25" >
<polyline points="751.289,161.996 750.484,160.385 748.066,159.579 745.649,159.579 743.231,160.385 742.425,161.996 743.231,163.608 744.843,164.414 748.872,165.219 750.484,166.025 751.289,167.637 751.289,168.443 750.484,170.054 748.066,170.86 745.649,170.86 743.231,170.054 742.425,168.443 " />
<polyline points="827.572,379.335 827.572,424.461 " />
<polyline points="919.31,287.597 919.31,332.723 " />
<polyline points="926.361,332.723 1013.96,332.723 " />
<polyline points="926.361,287.597 1013.96,287.597 " />
<polyline points="993.654,270.674 993.654,253.752 " />
<polyline points="993.654,349.645 993.654,366.567 " />
</g>
<g clip-path="url(#clipId0)" fill="rgb(0,0,0)" stroke="rgb(0,0,0)" stroke-width="0.25" >
<path d="M996.474,270.674 990.834,270.674 993.654,287.597 993.654,287.597 z" />
<path d="M996.474,349.645 990.834,349.645 993.654,332.723 993.654,332.723 z" />
</g>
<g clip-path="url(#clipId0)" fill="none" stroke="rgb(0,0,0)" stroke-width="0.25" >
<polyline points="991.01,301.627 991.01,318.549 1000.68,318.549 " />
</g>
<g clip-path="url(#clipId0)" fill="rgb(0,0,0)" stroke="rgb(0,0,0)" stroke-width="0.25" >
<path d="M882.767,233.345 886.235,237.793 897.846,225.164 897.846,225.164 z" />
</g>
<g clip-path="url(#clipId0)" fill="none" stroke="rgb(0,0,0)" stroke-width="0.25" >
<polyline points="932.706,197.982 817.776,287.597 " />
<polyline points="949.629,197.982 932.706,197.982 " />
<polyline points="961.188,193.878 961.188,205.159 " />
<polyline points="961.188,198.712 961.994,196.295 963.606,194.683 965.217,193.878 967.635,193.878 " />
</g>
<g clip-path="url(#clipId0)" fill="rgb(0,0,0)" stroke="rgb(0,0,0)" stroke-width="0.25" >
<path d="M812.146,409.405 815.414,414.002 827.572,401.898 827.572,401.898 z" />
</g>
<g clip-path="url(#clipId0)" fill="none" stroke="rgb(0,0,0)" stroke-width="0.25" >
<polyline points="813.78,411.703 737.94,465.624 " />
<polyline points="737.94,465.624 770.213,465.624 " />
<polyline points="793.581,457.163 793.581,474.086 " />
<polyline points="787.941,457.163 799.222,457.163 " />
<polyline points="803.251,457.163 803.251,474.086 " />
<polyline points="803.251,457.163 810.504,457.163 812.921,457.969 813.727,458.775 814.533,460.387 814.533,461.998 813.727,463.61 812.921,464.416 810.504,465.222 803.251,465.222 " />
<polyline points="808.892,465.222 814.533,474.086 " />
<polyline points="824.203,457.163 817.756,474.086 " />
<polyline points="824.203,457.163 830.649,474.086 " />
<polyline points="820.174,468.445 828.232,468.445 " />
<polyline points="834.678,457.163 834.678,474.086 " />
<polyline points="841.125,457.163 841.125,474.086 850.795,474.086 " />
<polyline points="854.824,457.163 854.824,474.086 " />
<polyline points="861.27,457.163 861.27,474.086 " />
<polyline points="861.27,457.163 872.552,474.086 " />
<polyline points="872.552,457.163 872.552,474.086 " />
<polyline points="890.28,461.192 889.474,459.581 887.863,457.969 886.251,457.163 883.028,457.163 881.416,457.969 879.804,459.581 878.998,461.192 878.193,463.61 878.193,467.639 878.998,470.056 879.804,471.668 881.416,473.28 883.028,474.086 886.251,474.086 887.863,473.28 889.474,471.668 890.28,470.056 890.28,467.639 " />
<polyline points="886.251,467.639 890.28,467.639 " />
<polyline points="912.843,457.163 912.843,474.086 " />
<polyline points="912.843,457.163 923.319,457.163 " />
<polyline points="912.843,465.222 919.29,465.222 " />
<polyline points="912.843,474.086 923.319,474.086 " />
<polyline points="928.154,457.163 928.154,474.086 " />
<polyline points="928.154,457.163 933.794,457.163 936.212,457.969 937.823,459.581 938.629,461.192 939.435,463.61 939.435,467.639 938.629,470.056 937.823,471.668 936.212,473.28 933.794,474.086 928.154,474.086 " />
<polyline points="956.357,461.192 955.551,459.581 953.94,457.969 952.328,457.163 949.105,457.163 947.493,457.969 945.882,459.581 945.076,461.192 944.27,463.61 944.27,467.639 945.076,470.056 945.882,471.668 947.493,473.28 949.105,474.086 952.328,474.086 953.94,473.28 955.551,471.668 956.357,470.056 956.357,467.639 " />
<polyline points="952.328,467.639 956.357,467.639 " />
<polyline points="961.998,457.163 961.998,474.086 " />
<polyline points="961.998,457.163 972.474,457.163 " />
<polyline points="961.998,465.222 968.445,465.222 " />
<polyline points="961.998,474.086 972.474,474.086 " />
<polyline points="152.019,209.351 150.407,210.156 148.795,211.768 147.99,214.186 147.99,215.797 148.795,218.215 150.407,219.826 152.019,220.632 154.436,220.632 156.048,219.826 157.66,218.215 158.465,215.797 158.465,214.186 157.66,211.768 156.048,210.156 154.436,209.351 152.019,209.351 " />
<polyline points="180.657,182.514 101.647,182.514 " />
</g>
<g clip-path="url(#clipId0)" fill="rgb(0,0,0)" stroke="rgb(0,0,0)" stroke-width="0.25" >
<path d="M180.657,179.694 180.657,185.335 197.579,182.514 197.579,182.514 z" />
</g>
<g clip-path="url(#clipId0)" fill="none" stroke="rgb(0,0,0)" stroke-width="0.25" >
<polyline points="649.887,265.301 554.262,265.301 " />
</g>
<g clip-path="url(#clipId0)" fill="rgb(0,0,0)" stroke="rgb(0,0,0)" stroke-width="0.25" >
<path d="M649.887,262.48 649.887,268.121 666.81,265.301 666.81,265.301 z" />
</g>
<g clip-path="url(#clipId0)" fill="none" stroke="rgb(0,0,0)" stroke-width="0.25" >
<polyline points="563.75,240.911 557.303,257.833 " />
<polyline points="563.75,240.911 570.196,257.833 " />
<polyline points="559.721,252.192 567.779,252.192 " />
<polyline points="574.225,240.911 574.225,257.833 " />
<polyline points="580.672,240.911 580.672,257.833 " />
<polyline points="580.672,240.911 587.924,240.911 590.342,241.717 591.148,242.522 591.953,244.134 591.953,245.746 591.148,247.357 590.342,248.163 587.924,248.969 580.672,248.969 " />
<polyline points="586.313,248.969 591.953,257.833 " />
<polyline points="559.721,271.997 559.721,288.92 " />
<polyline points="559.721,271.997 570.196,271.997 " />
<polyline points="559.721,280.056 566.167,280.056 " />
<polyline points="574.225,271.997 574.225,288.92 583.895,288.92 " />
<polyline points="591.953,271.997 590.342,272.803 588.73,274.415 587.924,276.027 587.118,278.444 587.118,282.473 587.924,284.891 588.73,286.502 590.342,288.114 591.953,288.92 595.177,288.92 596.788,288.114 598.4,286.502 599.206,284.891 600.012,282.473 600.012,278.444 599.206,276.027 598.4,274.415 596.788,272.803 595.177,271.997 591.953,271.997 " />
<polyline points="604.041,271.997 608.07,288.92 " />
<polyline points="612.099,271.997 608.07,288.92 " />
<polyline points="612.099,271.997 616.128,288.92 " />
<polyline points="620.157,271.997 616.128,288.92 " />
<polyline points="130.914,150.882 129.302,151.687 127.691,153.299 126.885,154.911 126.079,157.328 126.079,161.357 126.885,163.775 127.691,165.386 129.302,166.998 130.914,167.804 134.137,167.804 135.749,166.998 137.36,165.386 138.166,163.775 138.972,161.357 138.972,157.328 138.166,154.911 137.36,153.299 135.749,151.687 134.137,150.882 130.914,150.882 " />
<polyline points="133.331,164.581 138.166,169.416 " />
<polyline points="39.2363,92.672 39.2363,151.769 " />
<polyline points="253.079,92.672 39.2363,92.672 " />
<polyline points="253.079,261.894 39.2363,261.894 " />
<polyline points="44.3616,566.967 44.3616,578.248 " />
<polyline points="44.3616,571.801 45.1675,569.384 46.7791,567.772 48.3907,566.967 50.8082,566.967 " />
<polyline points="71.7595,568.578 86.2643,568.578 " />
<polyline points="71.7595,573.413 86.2643,573.413 " />
<polyline points="116.886,561.326 108.827,572.607 120.915,572.607 " />
<polyline points="116.886,561.326 116.886,578.248 " />
<polyline points="126.555,576.636 125.75,577.442 126.555,578.248 127.361,577.442 126.555,576.636 " />
<polyline points="142.672,561.326 134.614,561.326 133.808,568.578 134.614,567.772 137.031,566.967 139.448,566.967 141.866,567.772 143.478,569.384 144.283,571.801 144.283,573.413 143.478,575.831 141.866,577.442 139.448,578.248 137.031,578.248 134.614,577.442 133.808,576.636 133.002,575.025 " />
<polyline points="172.487,558.103 170.876,559.714 169.264,562.132 167.652,565.355 166.846,569.384 166.846,572.607 167.652,576.636 169.264,579.86 170.876,582.277 172.487,583.889 " />
<polyline points="179.74,564.549 181.351,563.743 183.769,561.326 183.769,578.248 " />
<polyline points="195.856,564.549 197.468,563.743 199.885,561.326 199.885,578.248 " />
<polyline points="214.39,561.326 211.972,562.132 210.361,564.549 209.555,568.578 209.555,570.996 210.361,575.025 211.972,577.442 214.39,578.248 216.001,578.248 218.419,577.442 220.031,575.025 220.836,570.996 220.836,568.578 220.031,564.549 218.419,562.132 216.001,561.326 214.39,561.326 " />
<polyline points="225.671,558.103 227.283,559.714 228.895,562.132 230.506,565.355 231.312,569.384 231.312,572.607 230.506,576.636 228.895,579.86 227.283,582.277 225.671,583.889 " />
<polyline points="239.37,577.442 238.564,578.248 237.759,577.442 238.564,576.636 239.37,577.442 239.37,579.054 238.564,580.665 237.759,581.471 " />
<polyline points="270.797,569.384 269.991,567.772 267.574,566.967 265.157,566.967 262.739,567.772 261.933,569.384 262.739,570.996 264.351,571.801 268.38,572.607 269.991,573.413 270.797,575.025 270.797,575.831 269.991,577.442 267.574,578.248 265.157,578.248 262.739,577.442 261.933,575.831 " />
<polyline points="293.36,568.578 307.865,568.578 " />
<polyline points="293.36,573.413 307.865,573.413 " />
<polyline points="331.234,565.355 331.234,564.549 332.04,562.937 332.846,562.132 334.457,561.326 337.68,561.326 339.292,562.132 340.098,562.937 340.904,564.549 340.904,566.161 340.098,567.772 338.486,570.19 330.428,578.248 341.71,578.248 " />
<polyline points="348.156,576.636 347.35,577.442 348.156,578.248 348.962,577.442 348.156,576.636 " />
<polyline points="355.408,565.355 355.408,564.549 356.214,562.937 357.02,562.132 358.632,561.326 361.855,561.326 363.467,562.132 364.273,562.937 365.078,564.549 365.078,566.161 364.273,567.772 362.661,570.19 354.603,578.248 365.884,578.248 " />
<polyline points="380.389,561.326 372.331,561.326 371.525,568.578 372.331,567.772 374.748,566.967 377.166,566.967 379.583,567.772 381.195,569.384 382.001,571.801 382.001,573.413 381.195,575.831 379.583,577.442 377.166,578.248 374.748,578.248 372.331,577.442 371.525,576.636 370.719,575.025 " />
<polyline points="410.204,558.103 408.593,559.714 406.981,562.132 405.369,565.355 404.564,569.384 404.564,572.607 405.369,576.636 406.981,579.86 408.593,582.277 410.204,583.889 " />
<polyline points="425.515,563.743 424.709,562.132 422.292,561.326 420.68,561.326 418.263,562.132 416.651,564.549 415.845,568.578 415.845,572.607 416.651,575.831 418.263,577.442 420.68,578.248 421.486,578.248 423.903,577.442 425.515,575.831 426.321,573.413 426.321,572.607 425.515,570.19 423.903,568.578 421.486,567.772 420.68,567.772 418.263,568.578 416.651,570.19 415.845,572.607 " />
<polyline points="435.991,561.326 433.573,562.132 431.961,564.549 431.156,568.578 431.156,570.996 431.961,575.025 433.573,577.442 435.991,578.248 437.602,578.248 440.02,577.442 441.631,575.025 442.437,570.996 442.437,568.578 441.631,564.549 440.02,562.132 437.602,561.326 435.991,561.326 " />
<polyline points="447.272,558.103 448.884,559.714 450.495,562.132 452.107,565.355 452.913,569.384 452.913,572.607 452.107,576.636 450.495,579.86 448.884,582.277 447.272,583.889 " />
<polyline points="460.971,577.442 460.165,578.248 459.359,577.442 460.165,576.636 460.971,577.442 460.971,579.054 460.165,580.665 459.359,581.471 " />
<polyline points="484.34,561.326 484.34,578.248 494.01,578.248 " />
<polyline points="514.961,568.578 529.466,568.578 " />
<polyline points="514.961,573.413 529.466,573.413 " />
<polyline points="556.864,561.326 554.446,562.132 552.835,564.549 552.029,568.578 552.029,570.996 552.835,575.025 554.446,577.442 556.864,578.248 558.475,578.248 560.893,577.442 562.504,575.025 563.31,570.996 563.31,568.578 562.504,564.549 560.893,562.132 558.475,561.326 556.864,561.326 " />
<polyline points="569.757,576.636 568.951,577.442 569.757,578.248 570.563,577.442 569.757,576.636 " />
<polyline points="581.038,561.326 578.621,562.132 577.009,564.549 576.203,568.578 576.203,570.996 577.009,575.025 578.621,577.442 581.038,578.248 582.65,578.248 585.067,577.442 586.679,575.025 587.485,570.996 587.485,568.578 586.679,564.549 585.067,562.132 582.65,561.326 581.038,561.326 " />
<polyline points="609.242,562.132 610.048,562.937 610.854,562.132 610.048,561.326 609.242,562.132 " />
<polyline points="610.048,567.772 610.048,578.248 " />
<polyline points="616.494,566.967 616.494,578.248 " />
<polyline points="616.494,570.19 618.912,567.772 620.524,566.967 622.941,566.967 624.553,567.772 625.358,570.19 625.358,578.248 " />
<polyline points="632.611,576.636 631.805,577.442 632.611,578.248 633.417,577.442 632.611,576.636 " />
<polyline points="645.504,558.103 643.892,559.714 642.281,562.132 640.669,565.355 639.863,569.384 639.863,572.607 640.669,576.636 642.281,579.86 643.892,582.277 645.504,583.889 " />
<polyline points="651.145,566.967 651.145,578.248 " />
<polyline points="651.145,570.19 653.562,567.772 655.174,566.967 657.591,566.967 659.203,567.772 660.009,570.19 660.009,578.248 " />
<polyline points="660.009,570.19 662.426,567.772 664.038,566.967 666.455,566.967 668.067,567.772 668.873,570.19 668.873,578.248 " />
<polyline points="675.319,566.967 675.319,578.248 " />
<polyline points="675.319,570.19 677.737,567.772 679.348,566.967 681.766,566.967 683.378,567.772 684.183,570.19 684.183,578.248 " />
<polyline points="684.183,570.19 686.601,567.772 688.213,566.967 690.63,566.967 692.242,567.772 693.047,570.19 693.047,578.248 " />
<polyline points="698.688,558.103 700.3,559.714 701.911,562.132 703.523,565.355 704.329,569.384 704.329,572.607 703.523,576.636 701.911,579.86 700.3,582.277 698.688,583.889 " />
<polyline points="133.821,195.156 127.375,212.078 " />
<polyline points="133.821,195.156 140.268,212.078 " />
<polyline points="129.792,206.438 137.85,206.438 " />
<polyline points="39.2363,151.769 69.7145,166.417 " />
<polyline points="69.7145,166.417 10.0392,183.156 " />
<polyline points="10.0392,183.156 39.2363,198.85 " />
<polyline points="39.2363,198.85 39.2363,261.894 " />
<polyline points="281.282,290.098 281.282,404.98 " />
<polyline points="281.282,446.672 340.38,446.672 " />
<polyline points="340.38,446.672 355.027,416.194 " />
<polyline points="355.027,416.194 371.767,475.869 " />
<polyline points="371.767,475.869 387.46,446.672 " />
<polyline points="387.46,446.672 450.505,446.672 " />
<polyline points="450.505,290.098 450.505,404.98 " />
<polyline points="322.52,355.386 326.549,372.308 " />
<polyline points="330.579,355.386 326.549,372.308 " />
<polyline points="330.579,355.386 334.608,372.308 " />
<polyline points="338.637,355.386 334.608,372.308 " />
<polyline points="359.588,361.027 368.452,372.308 " />
<polyline points="368.452,361.027 359.588,372.308 " />
<polyline points="391.015,355.386 391.015,372.308 " />
<polyline points="402.297,355.386 402.297,372.308 " />
<polyline points="391.015,363.444 402.297,363.444 " />
<polyline points="39.2363,122.221 39.2363,94.017 " />
<polyline points="39.2363,92.672 39.2363,64.4683 " />
<polyline points="39.2363,261.894 39.2363,290.098 " />
<polyline points="450.505,446.672 478.708,446.672 " />
<polyline points="478.708,446.672 448.388,446.672 " />
<polyline points="281.282,446.672 253.079,446.672 " />
<polyline points="450.505,404.98 450.505,446.672 " />
<polyline points="450.505,446.672 478.708,446.672 " />
<polyline points="281.282,404.98 281.282,446.672 " />
<polyline points="281.282,446.672 253.079,446.672 " />
<polyline points="805.214,314.911 684.212,193.909 " />
<polyline points="893.822,684.622 892.64,682.258 890.276,679.894 887.912,678.712 883.185,678.712 880.821,679.894 878.457,682.258 877.275,684.622 876.094,688.167 876.094,694.077 877.275,697.622 878.457,699.986 880.821,702.35 883.185,703.532 887.912,703.532 890.276,702.35 892.64,699.986 893.822,697.622 " />
<polyline points="902.095,678.712 902.095,703.532 " />
<polyline points="902.095,678.712 912.731,678.712 916.277,679.894 917.459,681.076 918.641,683.44 918.641,685.804 917.459,688.167 916.277,689.349 912.731,690.531 902.095,690.531 " />
<polyline points="910.368,690.531 918.641,703.532 " />
<polyline points="928.096,678.712 941.096,678.712 934.005,688.167 937.551,688.167 939.915,689.349 941.096,690.531 942.278,694.077 942.278,696.44 941.096,699.986 938.733,702.35 935.187,703.532 931.641,703.532 928.096,702.35 926.914,701.168 925.732,698.804 " />
<polyline points="950.551,692.895 971.825,692.895 " />
<polyline points="983.644,683.44 986.007,682.258 989.553,678.712 989.553,703.532 " />
<polyline points="1007.28,683.44 1009.64,682.258 1013.19,678.712 1013.19,703.532 " />
</g>
</svg>
