<?xml version="1.0" standalone="no"?>
<svg viewBox="0 0 1024 768" version="1.1" xmlns="http://www.w3.org/2000/svg" xmlns:xlink="http://www.w3.org/1999/xlink" stroke-linecap="round" stroke-linejoin="round" fill-rule="evenodd" xml:space="preserve" >
<defs >
<clipPath id="clipId0" >
<path d="M0,768 1024,768 1024,0 0,0 z" />
</clipPath>
</defs>
<g clip-path="url(#clipId0)" fill="none" stroke="rgb(0,0,0)" stroke-width="0.1" />
<g clip-path="url(#clipId0)" fill="none" stroke="rgb(0,0,0)" stroke-width="0.25" >
<polyline points="162.556,297.108 146.697,297.108 " />
<polyline points="162.556,297.108 162.556,312.967 " />
<polyline points="257.707,201.956 257.707,312.967 " />
<polyline points="257.707,201.956 146.697,201.956 " />
<polyline points="162.556,297.108 257.707,201.956 " />
<path d="M215.705,262.989  A19.0303,19.0303 0 0,0 196.675,243.958 " />
<path d="M229.162,249.532  A19.0303,19.0303 0 0,0 210.132,230.502 " />
<path d="M242.618,236.076  A19.0303,19.0303 0 0,0 223.588,217.045 " />
<path d="M256.075,222.619  A19.0303,19.0303 0 0,0 237.045,203.589 " />
<path d="M202.249,276.445  A19.0303,19.0303 0 0,0 183.219,257.415 " />
<path d="M188.793,289.902  A19.0303,19.0303 0 0,0 169.762,270.871 " />
<path d="M175.336,303.358  A19.0303,19.0303 0 0,0 156.306,284.328 " />
<polyline points="257.707,312.967 162.556,312.967 " />
<polyline points="146.697,201.956 146.697,297.108 " />
<path d="M535.646,314.165  A57.091,57.091 0 0,0 478.555,257.074 " />
<path d="M484.063,365.748  A57.091,57.091 0 0,0 426.972,308.657 " />
<polyline points="426.972,375.263 426.972,356.233 " />
<polyline points="417.457,365.748 436.488,365.748 " />
<polyline points="446.003,365.748 493.578,365.748 " />
<polyline points="426.972,346.718 426.972,299.142 " />
<polyline points="478.555,295.135 478.555,247.559 " />
<polyline points="497.586,314.165 545.162,314.165 " />
<polyline points="469.04,314.165 488.071,314.165 " />
<polyline points="478.555,323.68 478.555,304.65 " />
<polyline points="516.121,270.992 447.217,202.088 " />
<polyline points="464.538,322.575 395.634,253.671 " />
<polyline points="448.563,216.89 437.361,228.092 " />
<polyline points="410.436,255.017 421.639,243.814 " />
</g>
<g clip-path="url(#clipId0)" fill="rgb(0,0,0)" stroke="rgb(0,0,0)" stroke-width="0.25" >
<path d="M449.684,218.011 447.442,215.769 455.291,210.162 455.291,210.162 z" />
<path d="M411.558,256.138 409.315,253.895 403.708,261.745 403.708,261.745 z" />
</g>
<g clip-path="url(#clipId0)" fill="none" stroke="rgb(0,0,0)" stroke-width="0.25" >
<polyline points="433.351,235.727 432.898,234.821 431.539,234.368 430.179,234.368 428.82,234.821 428.367,235.727 428.82,236.633 429.726,237.086 431.992,237.539 432.898,237.992 433.351,238.899 433.351,239.352 432.898,240.258 431.539,240.711 430.179,240.711 428.82,240.258 428.367,239.352 " />
<polyline points="484.063,365.748 484.063,391.122 " />
<polyline points="535.646,314.165 535.646,339.539 " />
<polyline points="539.611,339.539 588.868,339.539 " />
<polyline points="539.611,314.165 588.868,314.165 " />
<polyline points="577.449,304.65 577.449,295.135 " />
<polyline points="577.449,349.054 577.449,358.569 " />
</g>
<g clip-path="url(#clipId0)" fill="rgb(0,0,0)" stroke="rgb(0,0,0)" stroke-width="0.25" >
<path d="M579.035,304.65 575.864,304.65 577.449,314.165 577.449,314.165 z" />
<path d="M579.035,349.054 575.864,349.054 577.449,339.539 577.449,339.539 z" />
</g>
<g clip-path="url(#clipId0)" fill="none" stroke="rgb(0,0,0)" stroke-width="0.25" >
<polyline points="575.963,322.054 575.963,331.569 581.4,331.569 " />
</g>
<g clip-path="url(#clipId0)" fill="rgb(0,0,0)" stroke="rgb(0,0,0)" stroke-width="0.25" >
<path d="M515.099,283.66 517.049,286.161 523.578,279.06 523.578,279.06 z" />
</g>
<g clip-path="url(#clipId0)" fill="none" stroke="rgb(0,0,0)" stroke-width="0.25" >
<polyline points="543.179,263.775 478.555,314.165 " />
<polyline points="552.694,263.775 543.179,263.775 " />
<polyline points="559.194,261.468 559.194,267.811 " />
<polyline points="559.194,264.186 559.647,262.827 560.554,261.921 561.46,261.468 562.819,261.468 " />
</g>
<g clip-path="url(#clipId0)" fill="rgb(0,0,0)" stroke="rgb(0,0,0)" stroke-width="0.25" >
<path d="M475.389,382.656 477.227,385.241 484.063,378.435 484.063,378.435 z" />
</g>
<g clip-path="url(#clipId0)" fill="none" stroke="rgb(0,0,0)" stroke-width="0.25" >
<polyline points="476.308,383.948 433.665,414.268 " />
<polyline points="433.665,414.268 451.811,414.268 " />
<polyline points="464.951,409.51 464.951,419.025 " />
<polyline points="461.779,409.51 468.123,409.51 " />
<polyline points="470.388,409.51 470.388,419.025 " />
<polyline points="470.388,409.51 474.466,409.51 475.826,409.963 476.279,410.416 476.732,411.322 476.732,412.229 476.279,413.135 475.826,413.588 474.466,414.041 470.388,414.041 " />
<polyline points="473.56,414.041 476.732,419.025 " />
<polyline points="482.169,409.51 478.544,419.025 " />
<polyline points="482.169,409.51 485.794,419.025 " />
<polyline points="479.903,415.853 484.435,415.853 " />
<polyline points="488.059,409.51 488.059,419.025 " />
<polyline points="491.684,409.51 491.684,419.025 497.121,419.025 " />
<polyline points="499.387,409.51 499.387,419.025 " />
<polyline points="503.012,409.51 503.012,419.025 " />
<polyline points="503.012,409.51 509.355,419.025 " />
<polyline points="509.355,409.51 509.355,419.025 " />
<polyline points="519.323,411.776 518.87,410.869 517.964,409.963 517.058,409.51 515.246,409.51 514.339,409.963 513.433,410.869 512.98,411.776 512.527,413.135 512.527,415.4 512.98,416.76 513.433,417.666 514.339,418.572 515.246,419.025 517.058,419.025 517.964,418.572 518.87,417.666 519.323,416.76 519.323,415.4 " />
<polyline points="517.058,415.4 519.323,415.4 " />
<polyline points="532.01,409.51 532.01,419.025 " />
<polyline points="532.01,409.51 537.901,409.51 " />
<polyline points="532.01,414.041 535.635,414.041 " />
<polyline points="532.01,419.025 537.901,419.025 " />
<polyline points="540.619,409.51 540.619,419.025 " />
<polyline points="540.619,409.51 543.791,409.51 545.15,409.963 546.057,410.869 546.51,411.776 546.963,413.135 546.963,415.4 546.51,416.76 546.057,417.666 545.15,418.572 543.791,419.025 540.619,419.025 " />
<polyline points="556.478,411.776 556.025,410.869 555.119,409.963 554.212,409.51 552.4,409.51 551.494,409.963 550.588,410.869 550.134,411.776 549.681,413.135 549.681,415.4 550.134,416.76 550.588,417.666 551.494,418.572 552.4,419.025 554.212,419.025 555.119,418.572 556.025,417.666 556.478,416.76 556.478,415.4 " />
<polyline points="554.212,415.4 556.478,415.4 " />
<polyline points="559.65,409.51 559.65,419.025 " />
<polyline points="559.65,409.51 565.54,409.51 " />
<polyline points="559.65,414.041 563.274,414.041 " />
<polyline points="559.65,419.025 565.54,419.025 " />
<polyline points="97.6922,267.563 96.786,268.016 95.8798,268.923 95.4267,270.282 95.4267,271.188 95.8798,272.547 96.786,273.454 97.6922,273.907 99.0515,273.907 99.9577,273.454 100.864,272.547 101.317,271.188 101.317,270.282 100.864,268.923 99.9577,268.016 99.0515,267.563 97.6922,267.563 " />
<polyline points="116.402,252.474 71.9752,252.474 " />
</g>
<g clip-path="url(#clipId0)" fill="rgb(0,0,0)" stroke="rgb(0,0,0)" stroke-width="0.25" >
<path d="M116.402,250.888 116.402,254.059 125.917,252.474 125.917,252.474 z" />
</g>
<g clip-path="url(#clipId0)" fill="none" stroke="rgb(0,0,0)" stroke-width="0.25" >
<polyline points="384.154,301.628 330.385,301.628 " />
</g>
<g clip-path="url(#clipId0)" fill="rgb(0,0,0)" stroke="rgb(0,0,0)" stroke-width="0.25" >
<path d="M384.154,300.042 384.154,303.214 393.669,301.628 393.669,301.628 z" />
</g>
<g clip-path="url(#clipId0)" fill="none" stroke="rgb(0,0,0)" stroke-width="0.25" >
<polyline points="335.72,287.914 332.095,297.429 " />
<polyline points="335.72,287.914 339.344,297.429 " />
<polyline points="333.454,294.257 337.985,294.257 " />
<polyline points="341.61,287.914 341.61,297.429 " />
<polyline points="345.235,287.914 345.235,297.429 " />
<polyline points="345.235,287.914 349.313,287.914 350.672,288.367 351.125,288.82 351.578,289.726 351.578,290.633 351.125,291.539 350.672,291.992 349.313,292.445 345.235,292.445 " />
<polyline points="348.406,292.445 351.578,297.429 " />
<polyline points="333.454,305.394 333.454,314.909 " />
<polyline points="333.454,305.394 339.344,305.394 " />
<polyline points="333.454,309.925 337.079,309.925 " />
<polyline points="341.61,305.394 341.61,314.909 347.047,314.909 " />
<polyline points="351.578,305.394 350.672,305.847 349.766,306.753 349.313,307.659 348.86,309.018 348.86,311.284 349.313,312.643 349.766,313.55 350.672,314.456 351.578,314.909 353.391,314.909 354.297,314.456 355.203,313.55 355.656,312.643 356.109,311.284 356.109,309.018 355.656,307.659 355.203,306.753 354.297,305.847 353.391,305.394 351.578,305.394 " />
<polyline points="358.375,305.394 360.64,314.909 " />
<polyline points="362.906,305.394 360.64,314.909 " />
<polyline points="362.906,305.394 365.171,314.909 " />
<polyline points="367.437,305.394 365.171,314.909 " />
<polyline points="85.8251,234.687 84.9189,235.14 84.0127,236.046 83.5596,236.952 83.1065,238.312 83.1065,240.577 83.5596,241.937 84.0127,242.843 84.9189,243.749 85.8251,244.202 87.6376,244.202 88.5438,243.749 89.45,242.843 89.9031,241.937 90.3562,240.577 90.3562,238.312 89.9031,236.952 89.45,236.046 88.5438,235.14 87.6376,234.687 85.8251,234.687 " />
<polyline points="87.1844,242.39 89.9031,245.108 " />
<polyline points="26.4563,201.956 26.4563,235.186 " />
<polyline points="146.697,201.956 26.4563,201.956 " />
<polyline points="146.697,297.108 26.4563,297.108 " />
<polyline points="20.2153,484.275 20.2153,490.618 " />
<polyline points="20.2153,486.994 20.6684,485.634 21.5747,484.728 22.4809,484.275 23.8402,484.275 " />
<polyline points="35.6208,485.181 43.7767,485.181 " />
<polyline points="35.6208,487.9 43.7767,487.9 " />
<polyline points="56.9167,483.369 56.9167,482.916 57.3698,482.009 57.8229,481.556 58.7291,481.103 60.5415,481.103 61.4477,481.556 61.9008,482.009 62.3539,482.916 62.3539,483.822 61.9008,484.728 60.9946,486.087 56.4636,490.618 62.807,490.618 " />
<polyline points="66.4318,489.712 65.9787,490.165 66.4318,490.618 66.8849,490.165 66.4318,489.712 " />
<polyline points="72.7753,481.103 71.416,481.556 70.5098,482.916 70.0567,485.181 70.0567,486.54 70.5098,488.806 71.416,490.165 72.7753,490.618 73.6815,490.618 75.0408,490.165 75.947,488.806 76.4001,486.54 76.4001,485.181 75.947,482.916 75.0408,481.556 73.6815,481.103 72.7753,481.103 " />
<polyline points="92.2587,479.291 91.3525,480.197 90.4463,481.556 89.5401,483.369 89.087,485.634 89.087,487.447 89.5401,489.712 90.4463,491.525 91.3525,492.884 92.2587,493.79 " />
<polyline points="100.415,481.103 95.8835,481.103 95.4304,485.181 95.8835,484.728 97.2428,484.275 98.6021,484.275 99.9614,484.728 100.868,485.634 101.321,486.994 101.321,487.9 100.868,489.259 99.9614,490.165 98.6021,490.618 97.2428,490.618 95.8835,490.165 95.4304,489.712 94.9773,488.806 " />
<polyline points="106.758,481.103 105.399,481.556 104.492,482.916 104.039,485.181 104.039,486.54 104.492,488.806 105.399,490.165 106.758,490.618 107.664,490.618 109.023,490.165 109.93,488.806 110.383,486.54 110.383,485.181 109.93,482.916 109.023,481.556 107.664,481.103 106.758,481.103 " />
<polyline points="113.101,479.291 114.008,480.197 114.914,481.556 115.82,483.369 116.273,485.634 116.273,487.447 115.82,489.712 114.914,491.525 114.008,492.884 113.101,493.79 " />
<polyline points="120.804,490.165 120.351,490.618 119.898,490.165 120.351,489.712 120.804,490.165 120.804,491.072 120.351,491.978 119.898,492.431 " />
<polyline points="138.475,485.634 138.022,484.728 136.663,484.275 135.303,484.275 133.944,484.728 133.491,485.634 133.944,486.54 134.85,486.994 137.116,487.447 138.022,487.9 138.475,488.806 138.475,489.259 138.022,490.165 136.663,490.618 135.303,490.618 133.944,490.165 133.491,489.259 " />
<polyline points="151.162,485.181 159.318,485.181 " />
<polyline points="151.162,487.9 159.318,487.9 " />
<polyline points="173.364,482.916 174.27,482.463 175.63,481.103 175.63,490.618 " />
<polyline points="181.973,489.712 181.52,490.165 181.973,490.618 182.426,490.165 181.973,489.712 " />
<polyline points="191.035,481.103 186.504,481.103 186.051,485.181 186.504,484.728 187.863,484.275 189.223,484.275 190.582,484.728 191.488,485.634 191.941,486.994 191.941,487.9 191.488,489.259 190.582,490.165 189.223,490.618 187.863,490.618 186.504,490.165 186.051,489.712 185.598,488.806 " />
<polyline points="207.8,479.291 206.894,480.197 205.988,481.556 205.081,483.369 204.628,485.634 204.628,487.447 205.081,489.712 205.988,491.525 206.894,492.884 207.8,493.79 " />
<polyline points="215.05,481.103 210.519,487.447 217.315,487.447 " />
<polyline points="215.05,481.103 215.05,490.618 " />
<polyline points="222.299,481.103 220.94,481.556 220.034,482.916 219.581,485.181 219.581,486.54 220.034,488.806 220.94,490.165 222.299,490.618 223.205,490.618 224.565,490.165 225.471,488.806 225.924,486.54 225.924,485.181 225.471,482.916 224.565,481.556 223.205,481.103 222.299,481.103 " />
<polyline points="228.643,479.291 229.549,480.197 230.455,481.556 231.361,483.369 231.814,485.634 231.814,487.447 231.361,489.712 230.455,491.525 229.549,492.884 228.643,493.79 " />
<polyline points="236.345,490.165 235.892,490.618 235.439,490.165 235.892,489.712 236.345,490.165 236.345,491.072 235.892,491.978 235.439,492.431 " />
<polyline points="249.485,481.103 249.485,490.618 254.923,490.618 " />
<polyline points="266.703,485.181 274.859,485.181 " />
<polyline points="266.703,487.9 274.859,487.9 " />
<polyline points="290.265,481.103 288.905,481.556 287.999,482.916 287.546,485.181 287.546,486.54 287.999,488.806 288.905,490.165 290.265,490.618 291.171,490.618 292.53,490.165 293.436,488.806 293.889,486.54 293.889,485.181 293.436,482.916 292.53,481.556 291.171,481.103 290.265,481.103 " />
<polyline points="297.514,489.712 297.061,490.165 297.514,490.618 297.967,490.165 297.514,489.712 " />
<polyline points="307.483,481.103 302.952,490.618 " />
<polyline points="301.139,481.103 307.483,481.103 " />
<polyline points="315.638,481.103 311.107,481.103 310.654,485.181 311.107,484.728 312.467,484.275 313.826,484.275 315.185,484.728 316.091,485.634 316.545,486.994 316.545,487.9 316.091,489.259 315.185,490.165 313.826,490.618 312.467,490.618 311.107,490.165 310.654,489.712 310.201,488.806 " />
<polyline points="332.403,479.291 331.497,480.197 330.591,481.556 329.685,483.369 329.231,485.634 329.231,487.447 329.685,489.712 330.591,491.525 331.497,492.884 332.403,493.79 " />
<polyline points="335.575,483.369 335.575,482.916 336.028,482.009 336.481,481.556 337.387,481.103 339.2,481.103 340.106,481.556 340.559,482.009 341.012,482.916 341.012,483.822 340.559,484.728 339.653,486.087 335.122,490.618 341.465,490.618 " />
<polyline points="346.902,481.103 345.543,481.556 344.637,482.916 344.184,485.181 344.184,486.54 344.637,488.806 345.543,490.165 346.902,490.618 347.809,490.618 349.168,490.165 350.074,488.806 350.527,486.54 350.527,485.181 350.074,482.916 349.168,481.556 347.809,481.103 346.902,481.103 " />
<polyline points="353.246,479.291 354.152,480.197 355.058,481.556 355.965,483.369 356.418,485.634 356.418,487.447 355.965,489.712 355.058,491.525 354.152,492.884 353.246,493.79 " />
<polyline points="369.105,481.556 369.558,482.009 370.011,481.556 369.558,481.103 369.105,481.556 " />
<polyline points="369.558,484.728 369.558,490.618 " />
<polyline points="373.182,484.275 373.182,490.618 " />
<polyline points="373.182,486.087 374.542,484.728 375.448,484.275 376.807,484.275 377.713,484.728 378.167,486.087 378.167,490.618 " />
<polyline points="382.245,489.712 381.791,490.165 382.245,490.618 382.698,490.165 382.245,489.712 " />
<polyline points="389.494,479.291 388.588,480.197 387.682,481.556 386.776,483.369 386.322,485.634 386.322,487.447 386.776,489.712 387.682,491.525 388.588,492.884 389.494,493.79 " />
<polyline points="392.666,484.275 392.666,490.618 " />
<polyline points="392.666,486.087 394.025,484.728 394.931,484.275 396.291,484.275 397.197,484.728 397.65,486.087 397.65,490.618 " />
<polyline points="397.65,486.087 399.009,484.728 399.916,484.275 401.275,484.275 402.181,484.728 402.634,486.087 402.634,490.618 " />
<polyline points="406.259,484.275 406.259,490.618 " />
<polyline points="406.259,486.087 407.618,484.728 408.524,484.275 409.884,484.275 410.79,484.728 411.243,486.087 411.243,490.618 " />
<polyline points="411.243,486.087 412.602,484.728 413.509,484.275 414.868,484.275 415.774,484.728 416.227,486.087 416.227,490.618 " />
<polyline points="419.399,479.291 420.305,480.197 421.211,481.556 422.118,483.369 422.571,485.634 422.571,487.447 422.118,489.712 421.211,491.525 420.305,492.884 419.399,493.79 " />
<polyline points="965.479,400.692 965.026,399.786 964.119,398.88 963.213,398.427 961.401,398.427 960.495,398.88 959.588,399.786 959.135,400.692 958.682,402.051 958.682,404.317 959.135,405.676 959.588,406.582 960.495,407.489 961.401,407.942 963.213,407.942 964.119,407.489 965.026,406.582 965.479,405.676 " />
<polyline points="968.651,398.427 968.651,407.942 " />
<polyline points="968.651,398.427 972.728,398.427 974.088,398.88 974.541,399.333 974.994,400.239 974.994,401.145 974.541,402.051 974.088,402.504 972.728,402.958 968.651,402.958 " />
<polyline points="971.822,402.958 974.994,407.942 " />
<polyline points="978.619,398.427 983.603,398.427 980.884,402.051 982.244,402.051 983.15,402.504 983.603,402.958 984.056,404.317 984.056,405.223 983.603,406.582 982.697,407.489 981.337,407.942 979.978,407.942 978.619,407.489 978.166,407.035 977.713,406.129 " />
<polyline points="987.228,403.864 995.384,403.864 " />
<polyline points="999.915,400.239 1000.82,399.786 1002.18,398.427 1002.18,407.942 " />
<polyline points="1010.34,398.427 1008.98,398.88 1008.07,400.239 1007.62,402.504 1007.62,403.864 1008.07,406.129 1008.98,407.489 1010.34,407.942 1011.24,407.942 1012.6,407.489 1013.51,406.129 1013.96,403.864 1013.96,402.504 1013.51,400.239 1012.6,398.88 1011.24,398.427 1010.34,398.427 " />
<polyline points="87.46,259.582 83.8351,269.097 " />
<polyline points="87.46,259.582 91.0848,269.097 " />
<polyline points="85.1944,265.925 89.7255,265.925 " />
<polyline points="26.4563,235.186 43.5939,243.422 " />
<polyline points="43.5939,243.422 10.0392,252.835 " />
<polyline points="10.0392,252.835 26.4563,261.659 " />
<polyline points="26.4563,261.659 26.4563,297.108 " />
<polyline points="162.556,312.967 162.556,377.563 " />
<polyline points="162.556,407.518 195.786,407.518 " />
<polyline points="195.786,407.518 204.021,390.381 " />
<polyline points="204.021,390.381 213.434,423.935 " />
<polyline points="213.434,423.935 222.258,407.518 " />
<polyline points="222.258,407.518 257.707,407.518 " />
<polyline points="257.707,312.967 257.707,377.563 " />
<polyline points="185.743,350.98 188.009,360.495 " />
<polyline points="190.274,350.98 188.009,360.495 " />
<polyline points="190.274,350.98 192.54,360.495 " />
<polyline points="194.805,350.98 192.54,360.495 " />
<polyline points="206.586,354.151 211.57,360.495 " />
<polyline points="211.57,354.151 206.586,360.495 " />
<polyline points="224.257,350.98 224.257,360.495 " />
<polyline points="230.601,350.98 230.601,360.495 " />
<polyline points="224.257,355.511 230.601,355.511 " />
<polyline points="26.4563,201.956 26.4563,186.098 " />
<polyline points="26.4563,297.108 26.4563,312.967 " />
<polyline points="257.707,407.518 273.566,407.518 " />
<polyline points="162.556,407.518 146.697,407.518 " />
<polyline points="257.707,377.563 257.707,407.518 " />
<polyline points="162.556,377.563 162.556,407.518 " />
<polyline points="162.556,407.518 146.697,407.518 " />
<polyline points="517.405,571.269 516.74,569.94 515.411,568.611 514.082,567.947 511.424,567.947 510.095,568.611 508.766,569.94 508.101,571.269 507.437,573.263 507.437,576.586 508.101,578.579 508.766,579.909 510.095,581.238 511.424,581.902 514.082,581.902 515.411,581.238 516.74,579.909 517.405,578.579 " />
<polyline points="522.057,567.947 522.057,581.902 " />
<polyline points="522.057,567.947 528.038,567.947 530.031,568.611 530.696,569.276 531.361,570.605 531.361,571.934 530.696,573.263 530.031,573.928 528.038,574.592 522.057,574.592 " />
<polyline points="526.709,574.592 531.361,581.902 " />
<polyline points="536.677,567.947 543.987,567.947 540,573.263 541.993,573.263 543.322,573.928 543.987,574.592 544.652,576.586 544.652,577.915 543.987,579.909 542.658,581.238 540.664,581.902 538.671,581.902 536.677,581.238 536.012,580.573 535.348,579.244 " />
<polyline points="549.303,575.921 561.265,575.921 " />
<polyline points="567.911,570.605 569.24,569.94 571.234,567.947 571.234,581.902 " />
<polyline points="583.196,567.947 581.202,568.611 579.873,570.605 579.208,573.928 579.208,575.921 579.873,579.244 581.202,581.238 583.196,581.902 584.525,581.902 586.518,581.238 587.847,579.244 588.512,575.921 588.512,573.928 587.847,570.605 586.518,568.611 584.525,567.947 583.196,567.947 " />
</g>
</svg>
