<?xml version="1.0" standalone="no"?>
<svg viewBox="0 0 1024 768" version="1.1" xmlns="http://www.w3.org/2000/svg" xmlns:xlink="http://www.w3.org/1999/xlink" stroke-linecap="round" stroke-linejoin="round" fill-rule="evenodd" xml:space="preserve" >
<defs >
<clipPath id="clipId0" >
<path d="M0,768 1024,768 1024,0 0,0 z" />
</clipPath>
</defs>
<g clip-path="url(#clipId0)" fill="none" stroke="rgb(0,0,0)" stroke-width="0.1" />
<g clip-path="url(#clipId0)" fill="none" stroke="rgb(0,0,0)" stroke-width="0.25" >
<path d="M711.101,339.257  A99.5184,99.5184 0 0,0 611.582,239.739 " />
<path d="M910.138,339.257  A298.555,298.555 0 0,0 611.582,40.7022 " />
<path d="M810.619,339.257  A199.037,199.037 0 0,0 611.582,140.221 " stroke-dasharray="132.691139,26.538228,26.538228,26.538228" />
<polyline points="910.138,339.257 711.101,339.257 " />
<polyline points="611.582,40.7022 611.582,239.739 " />
<polyline points="704.466,339.257 591.679,339.257 " />
<polyline points="611.582,246.373 611.582,339.257 " />
<polyline points="346.989,182.218 345.093,183.166 343.197,185.062 342.25,187.905 342.25,189.801 343.197,192.644 345.093,194.54 346.989,195.487 349.832,195.487 351.728,194.54 353.623,192.644 354.571,189.801 354.571,187.905 353.623,185.062 351.728,183.166 349.832,182.218 346.989,182.218 " />
<polyline points="423.756,140.221 320.309,140.221 " />
</g>
<g clip-path="url(#clipId0)" fill="rgb(0,0,0)" stroke="rgb(0,0,0)" stroke-width="0.25" >
<path d="M404.673,136.903 404.673,143.538 424.577,140.221 424.577,140.221 z" />
</g>
<g clip-path="url(#clipId0)" fill="none" stroke="rgb(0,0,0)" stroke-width="0.25" >
<polyline points="113.558,40.7022 113.558,114.803 " />
<polyline points="279.855,40.7022 611.582,40.7022 " />
<polyline points="279.855,239.739 611.582,239.739 " />
<path d="M669.616,319.618  A61.2668,61.2668 0 0,0 669.616,319.616 " />
<path d="M631.224,281.224  A61.2668,61.2668 0 0,0 631.222,281.223 " />
</g>
<g clip-path="url(#clipId0)" fill="rgb(0,0,0)" stroke="rgb(0,0,0)" stroke-width="0.25" >
<path d="M666.343,320.157 672.889,319.079 672.849,339.257 672.849,339.257 z" />
<path d="M630.683,284.497 631.761,277.95 611.582,277.99 611.582,277.99 z" />
</g>
<g clip-path="url(#clipId0)" fill="none" stroke="rgb(0,0,0)" stroke-width="0.25" >
<circle cx="650.885" cy="296.379" r="9.95184" />
<polyline points="640.933,296.379 660.837,296.379 " />
<polyline points="324.307,97.1414 322.411,98.0892 320.515,99.9848 319.568,101.88 318.62,104.724 318.62,109.463 319.568,112.306 320.515,114.202 322.411,116.097 324.307,117.045 328.098,117.045 329.993,116.097 331.889,114.202 332.837,112.306 333.785,109.463 333.785,104.724 332.837,101.88 331.889,99.9848 329.993,98.0892 328.098,97.1414 324.307,97.1414 " />
<polyline points="327.15,113.254 332.837,118.941 " />
<polyline points="324.359,161.705 316.777,181.608 " />
<polyline points="324.359,161.705 331.941,181.608 " />
<polyline points="319.62,174.974 329.098,174.974 " />
<polyline points="113.558,114.803 154.296,128.425 " />
<polyline points="154.296,128.425 80.6897,150.22 " />
<polyline points="80.6897,150.22 113.558,166.566 " />
<polyline points="113.558,166.566 113.558,239.739 " />
<polyline points="711.101,546.154 711.101,339.257 " />
<polyline points="910.138,546.154 910.138,339.257 " />
<polyline points="836.964,546.154 910.138,546.154 " />
<polyline points="820.618,579.023 836.964,546.154 " />
<polyline points="798.823,505.416 820.618,579.023 " />
<polyline points="785.202,546.154 798.823,505.416 " />
<polyline points="711.101,546.154 785.202,546.154 " />
<polyline points="755.95,429.993 760.689,449.896 " />
<polyline points="765.428,429.993 760.689,449.896 " />
<polyline points="765.428,429.993 770.167,449.896 " />
<polyline points="774.906,429.993 770.167,449.896 " />
<polyline points="799.549,436.627 809.974,449.896 " />
<polyline points="809.974,436.627 799.549,449.896 " />
<polyline points="836.513,429.993 836.513,449.896 " />
<polyline points="849.782,429.993 849.782,449.896 " />
<polyline points="836.513,439.471 849.782,439.471 " />
<polyline points="768.151,252.224 611.146,339.479 " />
<polyline points="611.169,339.518 591.265,339.518 " />
</g>
<g clip-path="url(#clipId0)" fill="rgb(0,0,0)" stroke="rgb(0,0,0)" stroke-width="0.25" >
<path d="M769.762,255.124 766.539,249.325 785.548,242.555 785.548,242.555 z" />
</g>
<g clip-path="url(#clipId0)" fill="none" stroke="rgb(0,0,0)" stroke-width="0.25" >
<polyline points="611.582,339.257 611.582,359.161 " />
<polyline points="727.413,247.092 726.432,264.757 " />
<polyline points="726.992,254.663 728.464,250.948 731.128,248.564 733.721,247.442 737.507,247.653 " />
<polyline points="113.558,40.7022 113.558,7.52941 " />
<polyline points="113.558,239.739 113.558,272.912 " />
<polyline points="910.138,546.154 943.31,546.154 " />
<polyline points="711.101,546.154 677.928,546.154 " />
<polyline points="258.956,538.261 258.956,558.165 " />
<polyline points="258.956,541.104 260.852,539.209 262.747,538.261 265.591,538.261 267.486,539.209 269.382,541.104 270.33,543.948 270.33,545.843 269.382,548.687 267.486,550.582 265.591,551.53 262.747,551.53 260.852,550.582 258.956,548.687 " />
<polyline points="112.808,538.261 110.912,539.209 109.016,541.104 108.069,543.948 108.069,545.843 109.016,548.687 110.912,550.582 112.808,551.53 115.651,551.53 117.547,550.582 119.442,548.687 120.39,545.843 120.39,543.948 119.442,541.104 117.547,539.209 115.651,538.261 112.808,538.261 " />
<polyline points="279.855,40.7022 113.558,40.7022 " />
<polyline points="279.855,239.739 113.558,239.739 " />
<polyline points="320.309,140.221 287.136,140.221 " />
<polyline points="287.136,140.221 253.963,140.221 " />
<polyline points="105.929,520.019 104.981,518.124 103.085,516.228 101.19,515.28 97.3984,515.28 95.5028,516.228 93.6072,518.124 92.6594,520.019 91.7116,522.863 91.7116,527.602 92.6594,530.445 93.6072,532.341 95.5028,534.236 97.3984,535.184 101.19,535.184 103.085,534.236 104.981,532.341 105.929,530.445 " />
<polyline points="152.37,523.811 169.431,523.811 " />
<polyline points="152.37,529.497 169.431,529.497 " />
<polyline points="196.917,515.28 196.917,535.184 " />
<polyline points="210.186,515.28 196.917,528.55 " />
<polyline points="201.656,523.811 210.186,535.184 " />
<polyline points="249.993,520.019 249.045,518.124 247.15,516.228 245.254,515.28 241.463,515.28 239.567,516.228 237.672,518.124 236.724,520.019 235.776,522.863 235.776,527.602 236.724,530.445 237.672,532.341 239.567,534.236 241.463,535.184 245.254,535.184 247.15,534.236 249.045,532.341 249.993,530.445 " />
<polyline points="94.4378,639.061 98.229,652.331 " />
<polyline points="102.02,639.061 98.229,652.331 " />
<polyline points="102.02,639.061 105.811,652.331 " />
<polyline points="109.602,639.061 105.811,652.331 " />
<polyline points="116.237,632.427 116.237,652.331 " />
<polyline points="116.237,642.853 119.08,640.009 120.976,639.061 123.819,639.061 125.715,640.009 126.663,642.853 126.663,652.331 " />
<polyline points="133.297,644.748 144.671,644.748 144.671,642.853 143.723,640.957 142.775,640.009 140.88,639.061 138.036,639.061 136.141,640.009 134.245,641.905 133.297,644.748 133.297,646.644 134.245,649.487 136.141,651.383 138.036,652.331 140.88,652.331 142.775,651.383 144.671,649.487 " />
<polyline points="151.305,639.061 151.305,652.331 " />
<polyline points="151.305,644.748 152.253,641.905 154.149,640.009 156.044,639.061 158.888,639.061 " />
<polyline points="162.679,644.748 174.052,644.748 174.052,642.853 173.105,640.957 172.157,640.009 170.261,639.061 167.418,639.061 165.522,640.009 163.627,641.905 162.679,644.748 162.679,646.644 163.627,649.487 165.522,651.383 167.418,652.331 170.261,652.331 172.157,651.383 174.052,649.487 " />
<polyline points="95.3856,692.362 95.3856,712.266 " />
<polyline points="108.655,692.362 95.3856,705.631 " />
<polyline points="100.125,700.892 108.655,712.266 " />
<polyline points="135.193,700.892 152.253,700.892 " />
<polyline points="135.193,706.579 152.253,706.579 " />
<polyline points="190.165,698.997 190.165,712.266 " />
<polyline points="190.165,701.84 188.269,699.945 186.374,698.997 183.53,698.997 181.635,699.945 179.739,701.84 178.791,704.684 178.791,706.579 179.739,709.423 181.635,711.318 183.53,712.266 186.374,712.266 188.269,711.318 190.165,709.423 " />
<polyline points="197.747,698.997 197.747,712.266 " />
<polyline points="197.747,702.788 200.591,699.945 202.486,698.997 205.33,698.997 207.225,699.945 208.173,702.788 208.173,712.266 " />
<polyline points="226.181,698.997 226.181,714.161 225.233,717.005 224.286,717.953 222.39,718.9 219.547,718.9 217.651,717.953 " />
<polyline points="226.181,701.84 224.286,699.945 222.39,698.997 219.547,698.997 217.651,699.945 215.755,701.84 214.808,704.684 214.808,706.579 215.755,709.423 217.651,711.318 219.547,712.266 222.39,712.266 224.286,711.318 226.181,709.423 " />
<polyline points="233.763,692.362 233.763,712.266 " />
<polyline points="240.398,704.684 251.772,704.684 251.772,702.788 250.824,700.892 249.876,699.945 247.98,698.997 245.137,698.997 243.241,699.945 241.346,701.84 240.398,704.684 240.398,706.579 241.346,709.423 243.241,711.318 245.137,712.266 247.98,712.266 249.876,711.318 251.772,709.423 " />
<polyline points="283.997,692.362 282.101,692.362 280.205,693.31 279.258,696.153 279.258,712.266 " />
<polyline points="276.414,698.997 283.049,698.997 " />
<polyline points="300.109,698.997 300.109,712.266 " />
<polyline points="300.109,701.84 298.213,699.945 296.318,698.997 293.474,698.997 291.579,699.945 289.683,701.84 288.736,704.684 288.736,706.579 289.683,709.423 291.579,711.318 293.474,712.266 296.318,712.266 298.213,711.318 300.109,709.423 " />
<polyline points="318.117,701.84 316.222,699.945 314.326,698.997 311.483,698.997 309.587,699.945 307.691,701.84 306.744,704.684 306.744,706.579 307.691,709.423 309.587,711.318 311.483,712.266 314.326,712.266 316.222,711.318 318.117,709.423 " />
<polyline points="325.699,692.362 325.699,708.475 326.647,711.318 328.543,712.266 330.438,712.266 " />
<polyline points="322.856,698.997 329.491,698.997 " />
<polyline points="339.916,698.997 338.021,699.945 336.125,701.84 335.177,704.684 335.177,706.579 336.125,709.423 338.021,711.318 339.916,712.266 342.76,712.266 344.655,711.318 346.551,709.423 347.499,706.579 347.499,704.684 346.551,701.84 344.655,699.945 342.76,698.997 339.916,698.997 " />
<polyline points="354.133,698.997 354.133,712.266 " />
<polyline points="354.133,704.684 355.081,701.84 356.977,699.945 358.872,698.997 361.716,698.997 " />
<polyline points="803.612,738.229 802.222,735.449 799.442,732.669 796.661,731.279 791.101,731.279 788.321,732.669 785.541,735.449 784.151,738.229 782.76,742.399 782.76,749.35 784.151,753.52 785.541,756.3 788.321,759.08 791.101,760.471 796.661,760.471 799.442,759.08 802.222,756.3 803.612,753.52 " />
<polyline points="813.343,731.279 813.343,760.471 " />
<polyline points="813.343,731.279 825.853,731.279 830.024,732.669 831.414,734.059 832.804,736.839 832.804,739.619 831.414,742.399 830.024,743.789 825.853,745.18 813.343,745.18 " />
<polyline points="823.073,745.18 832.804,760.471 " />
<polyline points="843.925,731.279 859.216,731.279 850.875,742.399 855.046,742.399 857.826,743.789 859.216,745.18 860.606,749.35 860.606,752.13 859.216,756.3 856.436,759.08 852.265,760.471 848.095,760.471 843.925,759.08 842.535,757.69 841.145,754.91 " />
<polyline points="870.337,747.96 895.358,747.96 " />
<polyline points="909.259,736.839 912.04,735.449 916.21,731.279 916.21,760.471 " />
</g>
</svg>
