<?xml version="1.0" standalone="no"?>
<svg viewBox="0 0 1024 768" version="1.1" xmlns="http://www.w3.org/2000/svg" xmlns:xlink="http://www.w3.org/1999/xlink" stroke-linecap="round" stroke-linejoin="round" fill-rule="evenodd" xml:space="preserve" >
<defs >
<clipPath id="clipId0" >
<path d="M0,768 1024,768 1024,0 0,0 z" />
</clipPath>
</defs>
<g clip-path="url(#clipId0)" fill="none" stroke="rgb(0,0,0)" stroke-width="0.1" />
<g clip-path="url(#clipId0)" fill="none" stroke="rgb(0,0,0)" stroke-width="0.25" >
<polyline points="619.673,301.794 519.623,301.794 " />
<polyline points="537.279,219.4 537.279,319.45 " />
</g>
<g clip-path="url(#clipId0)" fill="rgb(0,0,0)" stroke="rgb(0,0,0)" stroke-width="0.25" >
<path d="M589.298,253.936 585.136,249.775 599.702,239.371 599.702,239.371 z" />
</g>
<g clip-path="url(#clipId0)" fill="none" stroke="rgb(0,0,0)" stroke-width="0.25" >
<polyline points="587.217,251.856 582.176,256.897 " />
<polyline points="567.389,264.435 567.389,276.205 " />
<polyline points="567.389,269.479 568.23,266.957 569.912,265.275 571.593,264.435 574.115,264.435 " />
<polyline points="559.894,279.178 537.279,301.794 " />
<polyline points="625.558,367.622 625.558,301.794 " />
<polyline points="802.117,367.622 802.117,36.9559 " />
<polyline points="802.117,36.9559 471.45,36.9559 " />
<polyline points="537.279,213.515 471.45,213.515 " />
<polyline points="625.558,341.039 802.117,341.039 " />
<polyline points="498.051,213.515 498.051,36.9559 " />
<path d="M625.558,301.794  A88.2794,88.2794 0 0,0 537.279,213.515 " />
</g>
<g clip-path="url(#clipId0)" fill="rgb(0,0,0)" stroke="rgb(0,0,0)" stroke-width="0.25" >
<path d="M435.061,128.178 435.061,122.293 452.716,125.235 452.716,125.235 z" />
</g>
<g clip-path="url(#clipId0)" fill="none" stroke="rgb(0,0,0)" stroke-width="0.25" >
<polyline points="386.262,171.535 384.581,172.376 382.899,174.058 382.058,176.58 382.058,178.261 382.899,180.784 384.581,182.465 386.262,183.306 388.784,183.306 390.466,182.465 392.147,180.784 392.988,178.261 392.988,176.58 392.147,174.058 390.466,172.376 388.784,171.535 386.262,171.535 " />
<polyline points="224.522,213.515 224.522,153.888 " />
<polyline points="471.45,36.9559 224.522,36.9559 " />
<polyline points="471.45,213.515 224.522,213.515 " />
<polyline points="364.54,95.1881 362.858,96.0289 361.177,97.7104 360.336,99.3919 359.495,101.914 359.495,106.118 360.336,108.64 361.177,110.322 362.858,112.003 364.54,112.844 367.903,112.844 369.584,112.003 371.266,110.322 372.107,108.64 372.947,106.118 372.947,101.914 372.107,99.3919 371.266,97.7104 369.584,96.0289 367.903,95.1881 364.54,95.1881 " />
<polyline points="367.062,109.481 372.107,114.525 " />
<polyline points="367.4,151.998 360.674,169.654 " />
<polyline points="367.4,151.998 374.126,169.654 " />
<polyline points="363.196,163.769 371.604,163.769 " />
<polyline points="625.558,367.622 625.558,482.554 " />
<polyline points="802.117,317.62 802.117,482.554 " />
<polyline points="224.522,83.8043 260.169,105.554 " />
<polyline points="260.169,105.554 192.457,129.721 " />
<polyline points="192.457,129.721 224.522,153.888 " />
<polyline points="224.522,83.8043 224.522,36.9559 " />
<polyline points="672.406,596.137 625.558,596.137 " />
<polyline points="802.117,596.137 742.49,596.137 " />
<polyline points="694.156,560.491 718.323,628.203 " />
<polyline points="718.323,628.203 742.49,596.137 " />
<polyline points="672.406,596.137 694.156,560.491 " />
<polyline points="665.706,445.565 669.91,463.221 " />
<polyline points="674.114,445.565 669.91,463.221 " />
<polyline points="674.114,445.565 678.317,463.221 " />
<polyline points="682.521,445.565 678.317,463.221 " />
<polyline points="704.381,451.45 713.629,463.221 " />
<polyline points="713.629,451.45 704.381,463.221 " />
<polyline points="737.17,445.565 737.17,463.221 " />
<polyline points="748.941,445.565 748.941,463.221 " />
<polyline points="737.17,453.972 748.941,453.972 " />
<polyline points="224.522,36.9559 224.522,7.52941 " />
<polyline points="224.522,213.515 224.522,242.941 " />
<polyline points="802.117,596.137 831.543,596.137 " />
<polyline points="831.543,596.137 802.117,596.137 " />
<polyline points="625.558,596.137 596.132,596.137 " />
<polyline points="802.117,596.137 765.593,596.137 " />
<polyline points="802.117,482.554 802.117,596.137 " />
<polyline points="802.117,596.137 802.117,59.6377 " />
<polyline points="625.558,482.554 625.558,596.137 " />
<polyline points="625.558,596.137 642.26,596.137 " />
<polyline points="439.123,124.888 303.698,124.888 " />
<polyline points="303.698,124.888 306.117,124.888 " />
<polyline points="722.495,740.741 721.262,738.275 718.796,735.808 716.329,734.575 711.397,734.575 708.931,735.808 706.465,738.275 705.231,740.741 703.998,744.44 703.998,750.606 705.231,754.305 706.465,756.771 708.931,759.237 711.397,760.471 716.329,760.471 718.796,759.237 721.262,756.771 722.495,754.305 " />
<polyline points="731.127,734.575 731.127,760.471 " />
<polyline points="731.127,734.575 742.225,734.575 745.924,735.808 747.157,737.042 748.39,739.508 748.39,741.974 747.157,744.44 745.924,745.673 742.225,746.906 731.127,746.906 " />
<polyline points="739.759,746.906 748.39,760.471 " />
<polyline points="758.255,734.575 771.819,734.575 764.421,744.44 768.12,744.44 770.586,745.673 771.819,746.906 773.052,750.606 773.052,753.072 771.819,756.771 769.353,759.237 765.654,760.471 761.954,760.471 758.255,759.237 757.022,758.004 755.789,755.538 " />
<polyline points="781.684,749.373 803.88,749.373 " />
<polyline points="829.775,734.575 817.444,760.471 " />
<polyline points="812.512,734.575 829.775,734.575 " />
</g>
</svg>
