<?xml version="1.0" standalone="no"?>
<svg viewBox="0 0 1024 768" version="1.1" xmlns="http://www.w3.org/2000/svg" xmlns:xlink="http://www.w3.org/1999/xlink" stroke-linecap="round" stroke-linejoin="round" fill-rule="evenodd" xml:space="preserve" >
<defs >
<clipPath id="clipId0" >
<path d="M0,768 1024,768 1024,0 0,0 z" />
</clipPath>
</defs>
<g clip-path="url(#clipId0)" fill="none" stroke="rgb(0,0,0)" stroke-width="0.1" />
<g clip-path="url(#clipId0)" fill="none" stroke="rgb(0,0,0)" stroke-width="0.25" >
<polyline points="281.365,255.43 250.859,255.43 " />
<polyline points="281.365,255.43 281.365,285.935 " />
<polyline points="464.397,72.3972 464.397,285.935 " />
<polyline points="464.397,72.3972 250.859,72.3972 " />
<polyline points="281.365,255.43 464.397,72.3972 " />
<path d="M383.603,189.798  A36.6065,36.6065 0 0,0 346.996,153.192 " />
<path d="M409.488,163.914  A36.6065,36.6065 0 0,0 372.881,127.307 " />
<path d="M435.372,138.029  A36.6065,36.6065 0 0,0 398.766,101.422 " />
<path d="M461.257,112.144  A36.6065,36.6065 0 0,0 424.651,75.5375 " />
<path d="M357.718,215.683  A36.6065,36.6065 0 0,0 321.112,179.076 " />
<path d="M331.833,241.568  A36.6065,36.6065 0 0,0 295.227,204.961 " />
<path d="M305.949,267.452  A36.6065,36.6065 0 0,0 269.342,230.846 " />
<polyline points="464.397,285.935 281.365,285.935 " />
<polyline points="250.859,72.3972 250.859,255.43 " />
<path d="M1011.65,303.975  A109.82,109.82 0 0,0 901.829,194.156 " />
<path d="M912.424,403.2  A109.82,109.82 0 0,0 802.604,293.381 " />
<polyline points="802.604,421.503 802.604,384.897 " />
<polyline points="784.301,403.2 820.908,403.2 " />
<polyline points="839.211,403.2 930.727,403.2 " />
<polyline points="802.604,366.594 802.604,275.077 " />
<polyline points="990.173,204.846 857.63,72.3028 " />
<polyline points="890.948,304.071 758.405,171.528 " />
<polyline points="860.219,100.776 838.67,122.325 " />
<polyline points="786.879,174.116 808.427,152.567 " />
</g>
<g clip-path="url(#clipId0)" fill="rgb(0,0,0)" stroke="rgb(0,0,0)" stroke-width="0.25" >
<path d="M862.376,102.933 858.062,98.6189 873.161,87.8336 873.161,87.8336 z" />
<path d="M789.036,176.273 784.722,171.959 773.936,187.058 773.936,187.058 z" />
</g>
<g clip-path="url(#clipId0)" fill="none" stroke="rgb(0,0,0)" stroke-width="0.25" >
<polyline points="830.957,137.01 830.086,135.267 827.471,134.395 824.856,134.395 822.241,135.267 821.37,137.01 822.241,138.753 823.984,139.625 828.342,140.497 830.086,141.368 830.957,143.111 830.957,143.983 830.086,145.726 827.471,146.598 824.856,146.598 822.241,145.726 821.37,143.983 " />
</g>
<g clip-path="url(#clipId0)" fill="rgb(0,0,0)" stroke="rgb(0,0,0)" stroke-width="0.25" >
<path d="M872.899,344.521 876.65,349.332 889.208,335.672 889.208,335.672 z" />
</g>
<g clip-path="url(#clipId0)" fill="none" stroke="rgb(0,0,0)" stroke-width="0.25" >
<polyline points="874.774,346.927 750.465,443.855 " />
<polyline points="750.465,443.855 732.161,443.855 " />
<polyline points="715.049,439.439 715.049,451.641 " />
<polyline points="715.049,444.668 715.921,442.054 717.664,440.311 719.407,439.439 722.022,439.439 " />
<polyline points="127.244,192.537 125.501,193.409 123.758,195.152 122.887,197.767 122.887,199.51 123.758,202.125 125.501,203.868 127.244,204.74 129.859,204.74 131.602,203.868 133.346,202.125 134.217,199.51 134.217,197.767 133.346,195.152 131.602,193.409 129.859,192.537 127.244,192.537 " />
<polyline points="193.31,163.914 107.851,163.914 " />
</g>
<g clip-path="url(#clipId0)" fill="rgb(0,0,0)" stroke="rgb(0,0,0)" stroke-width="0.25" >
<path d="M193.31,160.863 193.31,166.964 211.613,163.914 211.613,163.914 z" />
</g>
<g clip-path="url(#clipId0)" fill="none" stroke="rgb(0,0,0)" stroke-width="0.25" >
<polyline points="305.949,267.452 305.949,249.149 " />
<polyline points="269.342,230.846 287.645,230.846 " />
<path d="M305.949,249.149  A18.3033,18.3033 0 0,0 287.645,230.846 " />
<polyline points="295.227,204.961 313.53,204.961 " />
<path d="M331.833,223.264  A18.3033,18.3033 0 0,0 313.53,204.961 " />
<polyline points="331.833,241.568 331.833,223.264 " />
<polyline points="321.112,179.076 339.415,179.076 " />
<path d="M357.718,197.38  A18.3033,18.3033 0 0,0 339.415,179.076 " />
<polyline points="357.718,215.683 357.718,197.38 " />
<polyline points="346.996,153.192 365.3,153.192 " />
<path d="M383.603,171.495  A18.3033,18.3033 0 0,0 365.3,153.192 " />
<polyline points="383.603,189.798 383.603,171.495 " />
<polyline points="372.881,127.307 391.184,127.307 " />
<path d="M409.488,145.61  A18.3033,18.3033 0 0,0 391.184,127.307 " />
<polyline points="409.488,163.914 409.488,145.61 " />
<polyline points="398.766,101.422 417.069,101.422 " />
<path d="M435.372,119.725  A18.3033,18.3033 0 0,0 417.069,101.422 " />
<polyline points="435.372,138.029 435.372,119.725 " />
<polyline points="424.651,75.5375 442.954,75.5375 " />
<path d="M461.257,93.8408  A18.3033,18.3033 0 0,0 442.954,75.5375 " />
<polyline points="461.257,112.144 461.257,93.8408 " />
<polyline points="912.424,403.2 912.424,348.29 " />
<polyline points="802.604,293.381 857.514,293.381 " />
<path d="M912.424,348.29  A54.9098,54.9098 0 0,0 857.514,293.381 " />
<polyline points="901.829,194.156 956.739,194.156 " />
<path d="M1011.65,249.066  A54.9098,54.9098 0 0,0 956.739,194.156 " />
<polyline points="1011.65,303.975 1011.65,249.066 " />
<polyline points="37.3212,72.3972 37.3212,126.92 " />
<polyline points="250.859,72.3972 37.3212,72.3972 " />
<polyline points="250.859,255.43 37.3212,255.43 " />
<polyline points="107.205,123.872 105.462,124.744 103.719,126.487 102.847,128.23 101.976,130.845 101.976,135.203 102.847,137.818 103.719,139.561 105.462,141.304 107.205,142.176 110.692,142.176 112.435,141.304 114.178,139.561 115.05,137.818 115.921,135.203 115.921,130.845 115.05,128.23 114.178,126.487 112.435,124.744 110.692,123.872 107.205,123.872 " />
<polyline points="109.82,138.689 115.05,143.919 " />
<polyline points="39.4777,555.971 39.4777,568.173 " />
<polyline points="39.4777,561.2 40.3492,558.585 42.0924,556.842 43.8356,555.971 46.4503,555.971 " />
<polyline points="69.1115,557.714 84.8,557.714 " />
<polyline points="69.1115,562.943 84.8,562.943 " />
<polyline points="110.076,554.227 110.076,553.356 110.948,551.613 111.819,550.741 113.562,549.87 117.049,549.87 118.792,550.741 119.663,551.613 120.535,553.356 120.535,555.099 119.663,556.842 117.92,559.457 109.204,568.173 121.407,568.173 " />
<polyline points="128.379,566.43 127.508,567.301 128.379,568.173 129.251,567.301 128.379,566.43 " />
<polyline points="140.581,549.87 137.967,550.741 136.224,553.356 135.352,557.714 135.352,560.329 136.224,564.686 137.967,567.301 140.581,568.173 142.325,568.173 144.939,567.301 146.683,564.686 147.554,560.329 147.554,557.714 146.683,553.356 144.939,550.741 142.325,549.87 140.581,549.87 " />
<polyline points="178.06,546.383 176.316,548.126 174.573,550.741 172.83,554.227 171.958,558.585 171.958,562.072 172.83,566.43 174.573,569.916 176.316,572.531 178.06,574.274 " />
<polyline points="193.748,549.87 185.032,549.87 184.161,557.714 185.032,556.842 187.647,555.971 190.262,555.971 192.876,556.842 194.62,558.585 195.491,561.2 195.491,562.943 194.62,565.558 192.876,567.301 190.262,568.173 187.647,568.173 185.032,567.301 184.161,566.43 183.289,564.686 " />
<polyline points="205.95,549.87 203.336,550.741 201.592,553.356 200.721,557.714 200.721,560.329 201.592,564.686 203.336,567.301 205.95,568.173 207.693,568.173 210.308,567.301 212.051,564.686 212.923,560.329 212.923,557.714 212.051,553.356 210.308,550.741 207.693,549.87 205.95,549.87 " />
<polyline points="218.152,546.383 219.896,548.126 221.639,550.741 223.382,554.227 224.254,558.585 224.254,562.072 223.382,566.43 221.639,569.916 219.896,572.531 218.152,574.274 " />
<polyline points="232.969,567.301 232.098,568.173 231.226,567.301 232.098,566.43 232.969,567.301 232.969,569.044 232.098,570.788 231.226,571.659 " />
<polyline points="266.961,558.585 266.09,556.842 263.475,555.971 260.86,555.971 258.245,556.842 257.374,558.585 258.245,560.329 259.988,561.2 264.346,562.072 266.09,562.943 266.961,564.686 266.961,565.558 266.09,567.301 263.475,568.173 260.86,568.173 258.245,567.301 257.374,565.558 " />
<polyline points="291.366,557.714 307.054,557.714 " />
<polyline points="291.366,562.943 307.054,562.943 " />
<polyline points="332.33,554.227 332.33,553.356 333.202,551.613 334.073,550.741 335.816,549.87 339.303,549.87 341.046,550.741 341.917,551.613 342.789,553.356 342.789,555.099 341.917,556.842 340.174,559.457 331.458,568.173 343.661,568.173 " />
<polyline points="350.633,566.43 349.762,567.301 350.633,568.173 351.505,567.301 350.633,566.43 " />
<polyline points="360.221,553.356 361.964,552.484 364.579,549.87 364.579,568.173 " />
<polyline points="375.909,554.227 375.909,553.356 376.781,551.613 377.652,550.741 379.396,549.87 382.882,549.87 384.625,550.741 385.497,551.613 386.368,553.356 386.368,555.099 385.497,556.842 383.753,559.457 375.038,568.173 387.24,568.173 " />
<polyline points="402.928,549.87 394.212,549.87 393.341,557.714 394.212,556.842 396.827,555.971 399.442,555.971 402.057,556.842 403.8,558.585 404.671,561.2 404.671,562.943 403.8,565.558 402.057,567.301 399.442,568.173 396.827,568.173 394.212,567.301 393.341,566.43 392.469,564.686 " />
<polyline points="435.177,546.383 433.434,548.126 431.691,550.741 429.947,554.227 429.076,558.585 429.076,562.072 429.947,566.43 431.691,569.916 433.434,572.531 435.177,574.274 " />
<polyline points="451.737,552.484 450.865,550.741 448.251,549.87 446.508,549.87 443.893,550.741 442.15,553.356 441.278,557.714 441.278,562.072 442.15,565.558 443.893,567.301 446.508,568.173 447.379,568.173 449.994,567.301 451.737,565.558 452.609,562.943 452.609,562.072 451.737,559.457 449.994,557.714 447.379,556.842 446.508,556.842 443.893,557.714 442.15,559.457 441.278,562.072 " />
<polyline points="463.068,549.87 460.453,550.741 458.71,553.356 457.838,557.714 457.838,560.329 458.71,564.686 460.453,567.301 463.068,568.173 464.811,568.173 467.426,567.301 469.169,564.686 470.04,560.329 470.04,557.714 469.169,553.356 467.426,550.741 464.811,549.87 463.068,549.87 " />
<polyline points="475.27,546.383 477.013,548.126 478.756,550.741 480.499,554.227 481.371,558.585 481.371,562.072 480.499,566.43 478.756,569.916 477.013,572.531 475.27,574.274 " />
<polyline points="505.775,550.741 506.647,551.613 507.518,550.741 506.647,549.87 505.775,550.741 " />
<polyline points="506.647,556.842 506.647,568.173 " />
<polyline points="513.62,555.971 513.62,568.173 " />
<polyline points="513.62,559.457 516.234,556.842 517.977,555.971 520.592,555.971 522.335,556.842 523.207,559.457 523.207,568.173 " />
<polyline points="531.051,566.43 530.18,567.301 531.051,568.173 531.923,567.301 531.051,566.43 " />
<polyline points="544.997,546.383 543.253,548.126 541.51,550.741 539.767,554.227 538.895,558.585 538.895,562.072 539.767,566.43 541.51,569.916 543.253,572.531 544.997,574.274 " />
<polyline points="551.098,555.971 551.098,568.173 " />
<polyline points="551.098,559.457 553.712,556.842 555.456,555.971 558.07,555.971 559.813,556.842 560.685,559.457 560.685,568.173 " />
<polyline points="560.685,559.457 563.3,556.842 565.043,555.971 567.658,555.971 569.401,556.842 570.272,559.457 570.272,568.173 " />
<polyline points="577.245,555.971 577.245,568.173 " />
<polyline points="577.245,559.457 579.86,556.842 581.603,555.971 584.218,555.971 585.961,556.842 586.833,559.457 586.833,568.173 " />
<polyline points="586.833,559.457 589.447,556.842 591.191,555.971 593.805,555.971 595.548,556.842 596.42,559.457 596.42,568.173 " />
<polyline points="602.521,546.383 604.264,548.126 606.007,550.741 607.751,554.227 608.622,558.585 608.622,562.072 607.751,566.43 606.007,569.916 604.264,572.531 602.521,574.274 " />
<polyline points="108.22,178.391 101.247,196.695 " />
<polyline points="108.22,178.391 115.192,196.695 " />
<polyline points="103.862,190.594 112.578,190.594 " />
<polyline points="37.3212,126.92 63.8301,141.425 " />
<polyline points="63.8301,141.425 10.0392,154.224 " />
<polyline points="10.0392,154.224 37.3212,171.289 " />
<polyline points="37.3212,171.289 37.3212,255.43 " />
<polyline points="281.365,285.935 281.365,407.51 " />
<polyline points="380.257,432.563 464.397,432.563 " />
<polyline points="335.888,432.563 350.393,406.054 " />
<polyline points="281.365,432.563 335.888,432.563 " />
<polyline points="363.192,459.845 380.257,432.563 " />
<polyline points="350.393,406.054 363.192,459.845 " />
<polyline points="464.397,285.935 464.397,407.51 " />
<polyline points="324.802,349.662 329.16,367.965 " />
<polyline points="333.518,349.662 329.16,367.965 " />
<polyline points="333.518,349.662 337.876,367.965 " />
<polyline points="342.234,349.662 337.876,367.965 " />
<polyline points="364.895,355.763 374.483,367.965 " />
<polyline points="374.483,355.763 364.895,367.965 " />
<polyline points="398.887,349.662 398.887,367.965 " />
<polyline points="411.089,349.662 411.089,367.965 " />
<polyline points="398.887,358.378 411.089,358.378 " />
<polyline points="281.365,407.51 281.365,432.563 " />
<polyline points="281.365,432.563 250.859,432.563 " />
<polyline points="464.397,407.51 464.397,432.563 " />
<polyline points="464.397,432.563 494.903,432.563 " />
<polyline points="37.3212,72.3972 37.3212,41.8917 " />
<polyline points="37.3212,255.43 37.3212,285.935 " />
<polyline points="877.18,705.655 875.902,703.098 873.345,700.542 870.789,699.264 865.675,699.264 863.119,700.542 860.562,703.098 859.284,705.655 858.005,709.49 858.005,715.882 859.284,719.717 860.562,722.273 863.119,724.83 865.675,726.108 870.789,726.108 873.345,724.83 875.902,722.273 877.18,719.717 " />
<polyline points="886.128,699.264 886.128,726.108 " />
<polyline points="886.128,699.264 897.633,699.264 901.468,700.542 902.747,701.82 904.025,704.377 904.025,706.933 902.747,709.49 901.468,710.768 897.633,712.047 886.128,712.047 " />
<polyline points="895.077,712.047 904.025,726.108 " />
<polyline points="914.252,699.264 928.313,699.264 920.643,709.49 924.478,709.49 927.035,710.768 928.313,712.047 929.591,715.882 929.591,718.438 928.313,722.273 925.756,724.83 921.921,726.108 918.087,726.108 914.252,724.83 912.973,723.552 911.695,720.995 " />
<polyline points="938.54,714.603 961.55,714.603 " />
<polyline points="974.333,704.377 976.889,703.098 980.724,699.264 980.724,726.108 " />
<polyline points="1011.4,699.264 998.621,699.264 997.343,710.768 998.621,709.49 1002.46,708.212 1006.29,708.212 1010.13,709.49 1012.68,712.047 1013.96,715.882 1013.96,718.438 1012.68,722.273 1010.13,724.83 1006.29,726.108 1002.46,726.108 998.621,724.83 997.343,723.552 996.064,720.995 " />
</g>
</svg>
