<?xml version="1.0" standalone="no"?>
<svg viewBox="0 0 1024 768" version="1.1" xmlns="http://www.w3.org/2000/svg" xmlns:xlink="http://www.w3.org/1999/xlink" stroke-linecap="round" stroke-linejoin="round" fill-rule="evenodd" xml:space="preserve" >
<defs >
<clipPath id="clipId0" >
<path d="M0,768 1024,768 1024,0 0,0 z" />
</clipPath>
</defs>
<g clip-path="url(#clipId0)" fill="none" stroke="rgb(0,0,0)" stroke-width="0.1" />
<g clip-path="url(#clipId0)" fill="none" stroke="rgb(0,0,0)" stroke-width="0.25" >
<polyline points="242.404,408.716 240.993,409.422 239.582,410.833 238.877,412.949 238.877,414.36 239.582,416.477 240.993,417.887 242.404,418.593 244.521,418.593 245.931,417.887 247.342,416.477 248.048,414.36 248.048,412.949 247.342,410.833 245.931,409.422 244.521,408.716 242.404,408.716 " />
<polyline points="284.42,379.295 212.487,379.295 " />
</g>
<g clip-path="url(#clipId0)" fill="rgb(0,0,0)" stroke="rgb(0,0,0)" stroke-width="0.25" >
<path d="M284.42,376.826 284.42,381.764 299.235,379.295 299.235,379.295 z" />
</g>
<g clip-path="url(#clipId0)" fill="none" stroke="rgb(0,0,0)" stroke-width="0.25" >
<polyline points="767.759,118.64 767.759,305.222 " />
<polyline points="767.759,305.222 619.612,305.222 " />
<polyline points="703.61,305.222 703.61,490.406 " />
<polyline points="703.61,490.406 407.315,490.406 " />
<polyline points="407.315,490.406 407.315,342.259 " />
<polyline points="407.315,342.259 555.463,342.259 " />
<polyline points="555.463,342.259 555.463,268.185 " />
<polyline points="619.612,118.64 767.759,118.64 " />
<polyline points="427.163,7.52941 575.311,7.52941 " />
<polyline points="427.163,268.185 427.163,7.52941 " />
<polyline points="279.016,268.185 427.163,268.185 " />
<polyline points="279.016,416.332 279.016,268.185 " />
<polyline points="407.315,490.406 279.016,416.332 " />
<polyline points="407.315,342.259 279.016,268.185 " />
<polyline points="555.463,342.259 427.163,268.185 " />
<polyline points="619.612,118.64 427.163,7.52941 " />
<polyline points="767.759,118.64 575.311,7.52941 " />
<polyline points="619.612,305.222 555.463,268.185 " />
<polyline points="619.612,118.64 619.612,305.222 " />
<polyline points="315.25,379.295 582.379,379.295 " stroke-dasharray="111.110305,22.222061,22.222061,22.222061" />
<polyline points="693.686,231.148 565.387,157.075 " stroke-dasharray="111.110305,22.222061,22.222061,22.222061" />
<polyline points="565.387,395.74 565.387,145.485 " stroke-dasharray="111.110305,22.222061,22.222061,22.222061" />
<polyline points="703.61,268.185 555.463,268.185 " stroke-dasharray="22.222061,11.111031" />
<polyline points="767.759,305.222 703.61,268.185 " stroke-dasharray="22.222061,11.111031" />
<polyline points="703.61,305.222 703.61,268.185 " stroke-dasharray="22.222061,11.111031" />
<polyline points="470.334,475.591 470.334,438.554 " />
<polyline points="470.334,357.073 470.334,394.11 " />
</g>
<g clip-path="url(#clipId0)" fill="rgb(0,0,0)" stroke="rgb(0,0,0)" stroke-width="0.25" >
<path d="M472.804,475.591 467.865,475.591 470.334,490.406 470.334,490.406 z" />
<path d="M472.804,357.073 467.865,357.073 470.334,342.259 470.334,342.259 z" />
</g>
<g clip-path="url(#clipId0)" fill="none" stroke="rgb(0,0,0)" stroke-width="0.25" >
<polyline points="466.807,408.925 470.334,423.739 " />
<polyline points="473.862,408.925 470.334,423.739 " />
<polyline points="473.862,408.925 477.389,423.739 " />
<polyline points="480.916,408.925 477.389,423.739 " />
<polyline points="402.689,296.536 402.689,311.35 " />
<polyline points="412.566,296.536 412.566,311.35 " />
<polyline points="402.689,303.59 412.566,303.59 " />
</g>
<g clip-path="url(#clipId0)" fill="rgb(0,0,0)" stroke="rgb(0,0,0)" stroke-width="0.25" >
<path d="M356.1,273.454 353.631,277.731 342.035,268.185 342.035,268.185 z" />
<path d="M458.739,332.713 456.27,336.989 470.334,342.259 470.334,342.259 z" />
</g>
<g clip-path="url(#clipId0)" fill="none" stroke="rgb(0,0,0)" stroke-width="0.25" >
<polyline points="354.865,275.592 386.94,294.111 " />
<polyline points="457.505,334.851 425.43,316.333 " />
<polyline points="619.612,311.395 619.612,385.066 " />
<polyline points="767.759,311.395 767.759,385.066 " />
<polyline points="634.427,367.288 652.549,367.288 " />
<polyline points="752.944,367.288 692.055,367.288 " />
</g>
<g clip-path="url(#clipId0)" fill="rgb(0,0,0)" stroke="rgb(0,0,0)" stroke-width="0.25" >
<path d="M634.427,369.757 634.427,364.819 619.612,367.288 619.612,367.288 z" />
<path d="M752.944,369.757 752.944,364.819 767.759,367.288 767.759,367.288 z" />
</g>
<g clip-path="url(#clipId0)" fill="none" stroke="rgb(0,0,0)" stroke-width="0.25" >
<polyline points="668.775,359.881 672.302,374.695 " />
<polyline points="675.829,359.881 672.302,374.695 " />
<polyline points="675.829,359.881 679.357,374.695 " />
<polyline points="682.884,359.881 679.357,374.695 " />
<polyline points="773.932,118.64 848.344,118.64 " />
<polyline points="773.932,305.222 848.344,305.222 " />
<polyline points="830.567,118.64 830.567,208.926 " />
<polyline points="830.567,290.407 830.567,253.37 " />
</g>
<g clip-path="url(#clipId0)" fill="rgb(0,0,0)" stroke="rgb(0,0,0)" stroke-width="0.25" >
<path d="M833.036,133.454 828.097,133.454 830.567,118.64 830.567,118.64 z" />
<path d="M833.036,290.407 828.097,290.407 830.567,305.222 830.567,305.222 z" />
</g>
<g clip-path="url(#clipId0)" fill="none" stroke="rgb(0,0,0)" stroke-width="0.25" >
<polyline points="826.334,223.741 826.334,238.556 " />
<polyline points="836.21,223.741 836.21,238.556 " />
<polyline points="826.334,230.795 836.21,230.795 " />
<polyline points="559.214,157.075 313.644,157.075 " />
<polyline points="331.421,171.889 331.421,213.531 " />
<polyline points="331.421,364.481 331.421,257.975 " />
</g>
<g clip-path="url(#clipId0)" fill="rgb(0,0,0)" stroke="rgb(0,0,0)" stroke-width="0.25" >
<path d="M333.89,171.889 328.952,171.889 331.421,157.075 331.421,157.075 z" />
<path d="M333.89,364.481 328.952,364.481 331.421,379.295 331.421,379.295 z" />
</g>
<g clip-path="url(#clipId0)" fill="none" stroke="rgb(0,0,0)" stroke-width="0.25" >
<polyline points="330.01,228.345 330.01,243.16 338.476,243.16 " />
<polyline points="227.223,353.979 225.812,354.685 224.401,356.096 223.696,357.506 222.99,359.623 222.99,363.15 223.696,365.267 224.401,366.677 225.812,368.088 227.223,368.794 230.045,368.794 231.456,368.088 232.867,366.677 233.572,365.267 234.278,363.15 234.278,359.623 233.572,357.506 232.867,356.096 231.456,354.685 230.045,353.979 227.223,353.979 " />
<polyline points="229.339,365.972 233.572,370.205 " />
</g>
<g clip-path="url(#clipId0)" fill="rgb(0,0,0)" stroke="rgb(0,0,0)" stroke-width="0.25" >
<path d="M682.09,221.603 679.621,225.879 693.686,231.148 693.686,231.148 z" />
</g>
<g clip-path="url(#clipId0)" fill="none" stroke="rgb(0,0,0)" stroke-width="0.25" >
<polyline points="227.299,395.688 221.655,410.503 " />
<polyline points="227.299,395.688 232.942,410.503 " />
<polyline points="223.771,405.565 230.826,405.565 " />
<polyline points="183.119,575.295 182.414,573.884 181.003,572.473 179.592,571.768 176.77,571.768 175.359,572.473 173.948,573.884 173.243,575.295 172.537,577.412 172.537,580.939 173.243,583.055 173.948,584.466 175.359,585.877 176.77,586.583 179.592,586.583 181.003,585.877 182.414,584.466 183.119,583.055 " />
<polyline points="190.879,576.706 189.468,577.412 188.057,578.822 187.352,580.939 187.352,582.35 188.057,584.466 189.468,585.877 190.879,586.583 192.996,586.583 194.407,585.877 195.817,584.466 196.523,582.35 196.523,580.939 195.817,578.822 194.407,577.412 192.996,576.706 190.879,576.706 " />
<polyline points="216.276,578.117 228.974,578.117 " />
<polyline points="216.276,582.35 228.974,582.35 " />
<polyline points="249.433,571.768 249.433,586.583 " />
<polyline points="259.309,571.768 249.433,581.644 " />
<polyline points="252.96,578.117 259.309,586.583 " />
<polyline points="264.247,576.706 264.247,586.583 " />
<polyline points="264.247,580.939 264.953,578.822 266.364,577.412 267.775,576.706 269.891,576.706 " />
<polyline points="298.11,575.295 297.404,573.884 295.993,572.473 294.582,571.768 291.76,571.768 290.349,572.473 288.939,573.884 288.233,575.295 287.528,577.412 287.528,580.939 288.233,583.055 288.939,584.466 290.349,585.877 291.76,586.583 294.582,586.583 295.993,585.877 297.404,584.466 298.11,583.055 " />
<polyline points="303.048,576.706 303.048,591.521 " />
<polyline points="303.048,578.822 304.459,577.412 305.87,576.706 307.986,576.706 309.397,577.412 310.808,578.822 311.513,580.939 311.513,582.35 310.808,584.466 309.397,585.877 307.986,586.583 305.87,586.583 304.459,585.877 303.048,584.466 " />
<polyline points="171.832,619.739 175.359,634.554 " />
<polyline points="178.886,619.739 175.359,634.554 " />
<polyline points="178.886,619.739 182.414,634.554 " />
<polyline points="185.941,619.739 182.414,634.554 " />
<polyline points="190.174,619.739 190.174,634.554 " />
<polyline points="200.05,619.739 200.05,634.554 " />
<polyline points="190.174,626.794 200.05,626.794 " />
<polyline points="205.694,619.739 205.694,634.554 " />
<polyline points="205.694,619.739 214.865,619.739 " />
<polyline points="205.694,626.794 211.338,626.794 " />
<polyline points="205.694,634.554 214.865,634.554 " />
<polyline points="219.098,619.739 219.098,634.554 " />
<polyline points="219.098,619.739 225.447,619.739 227.563,620.445 228.269,621.15 228.974,622.561 228.974,623.972 228.269,625.383 227.563,626.088 225.447,626.794 219.098,626.794 " />
<polyline points="224.036,626.794 228.974,634.554 " />
<polyline points="233.912,619.739 233.912,634.554 " />
<polyline points="233.912,619.739 243.083,619.739 " />
<polyline points="233.912,626.794 239.556,626.794 " />
<polyline points="233.912,634.554 243.083,634.554 " />
<polyline points="202.872,643.725 202.872,658.54 " />
<polyline points="212.749,643.725 202.872,653.601 " />
<polyline points="206.399,650.074 212.749,658.54 " />
<polyline points="217.687,648.663 217.687,658.54 " />
<polyline points="217.687,652.896 218.392,650.78 219.803,649.369 221.214,648.663 223.331,648.663 " />
<polyline points="241.673,650.074 254.371,650.074 " />
<polyline points="241.673,654.307 254.371,654.307 " />
<polyline points="274.829,643.725 274.829,658.54 " />
<polyline points="274.829,643.725 281.178,643.725 283.295,644.43 284,645.136 284.706,646.547 284.706,647.958 284,649.369 283.295,650.074 281.178,650.78 274.829,650.78 " />
<polyline points="279.768,650.78 284.706,658.54 " />
<polyline points="289.644,643.725 289.644,658.54 " />
<polyline points="289.644,643.725 298.815,643.725 " />
<polyline points="289.644,650.78 295.288,650.78 " />
<polyline points="289.644,658.54 298.815,658.54 " />
<polyline points="300.931,643.725 306.575,650.78 306.575,658.54 " />
<polyline points="312.219,643.725 306.575,650.78 " />
<polyline points="315.746,643.725 315.746,658.54 " />
<polyline points="315.746,643.725 325.623,658.54 " />
<polyline points="325.623,643.725 325.623,658.54 " />
<polyline points="334.794,643.725 333.383,644.43 331.972,645.841 331.266,647.252 330.561,649.369 330.561,652.896 331.266,655.012 331.972,656.423 333.383,657.834 334.794,658.54 337.615,658.54 339.026,657.834 340.437,656.423 341.143,655.012 341.848,652.896 341.848,649.369 341.143,647.252 340.437,645.841 339.026,644.43 337.615,643.725 334.794,643.725 " />
<polyline points="346.786,643.725 346.786,658.54 355.252,658.54 " />
<polyline points="358.779,643.725 358.779,658.54 " />
<polyline points="358.779,643.725 363.718,643.725 365.834,644.43 367.245,645.841 367.95,647.252 368.656,649.369 368.656,652.896 367.95,655.012 367.245,656.423 365.834,657.834 363.718,658.54 358.779,658.54 " />
<polyline points="382.765,645.841 381.354,644.43 379.238,643.725 376.416,643.725 374.299,644.43 372.889,645.841 372.889,647.252 373.594,648.663 374.299,649.369 375.71,650.074 379.943,651.485 381.354,652.191 382.06,652.896 382.765,654.307 382.765,656.423 381.354,657.834 379.238,658.54 376.416,658.54 374.299,657.834 372.889,656.423 " />
<polyline points="402.518,643.725 402.518,658.54 " />
<polyline points="402.518,643.725 412.394,658.54 " />
<polyline points="412.394,643.725 412.394,658.54 " />
<polyline points="421.565,643.725 420.154,644.43 418.744,645.841 418.038,647.252 417.333,649.369 417.333,652.896 418.038,655.012 418.744,656.423 420.154,657.834 421.565,658.54 424.387,658.54 425.798,657.834 427.209,656.423 427.915,655.012 428.62,652.896 428.62,649.369 427.915,647.252 427.209,645.841 425.798,644.43 424.387,643.725 421.565,643.725 " />
<polyline points="434.264,657.129 433.558,657.834 434.264,658.54 434.969,657.834 434.264,657.129 " />
<polyline points="465.304,647.252 464.599,645.841 463.188,644.43 461.777,643.725 458.955,643.725 457.544,644.43 456.133,645.841 455.428,647.252 454.722,649.369 454.722,652.896 455.428,655.012 456.133,656.423 457.544,657.834 458.955,658.54 461.777,658.54 463.188,657.834 464.599,656.423 465.304,655.012 " />
<polyline points="473.77,643.725 472.359,644.43 470.948,645.841 470.242,647.252 469.537,649.369 469.537,652.896 470.242,655.012 470.948,656.423 472.359,657.834 473.77,658.54 476.591,658.54 478.002,657.834 479.413,656.423 480.119,655.012 480.824,652.896 480.824,649.369 480.119,647.252 479.413,645.841 478.002,644.43 476.591,643.725 473.77,643.725 " />
<polyline points="485.762,643.725 485.762,658.54 " />
<polyline points="485.762,643.725 492.112,643.725 494.228,644.43 494.933,645.136 495.639,646.547 495.639,647.958 494.933,649.369 494.228,650.074 492.112,650.78 485.762,650.78 " />
<polyline points="490.701,650.78 495.639,658.54 " />
<polyline points="500.577,643.725 500.577,658.54 " />
<polyline points="500.577,643.725 506.926,643.725 509.043,644.43 509.748,645.136 510.454,646.547 510.454,647.958 509.748,649.369 509.043,650.074 506.926,650.78 500.577,650.78 " />
<polyline points="505.515,650.78 510.454,658.54 " />
<polyline points="515.392,643.725 515.392,658.54 " />
<polyline points="515.392,643.725 524.563,643.725 " />
<polyline points="515.392,650.78 521.036,650.78 " />
<polyline points="515.392,658.54 524.563,658.54 " />
<polyline points="538.672,647.252 537.967,645.841 536.556,644.43 535.145,643.725 532.323,643.725 530.912,644.43 529.501,645.841 528.796,647.252 528.09,649.369 528.09,652.896 528.796,655.012 529.501,656.423 530.912,657.834 532.323,658.54 535.145,658.54 536.556,657.834 537.967,656.423 538.672,655.012 " />
<polyline points="546.432,643.725 546.432,658.54 " />
<polyline points="541.494,643.725 551.37,643.725 " />
<polyline points="554.898,643.725 554.898,658.54 " />
<polyline points="564.069,643.725 562.658,644.43 561.247,645.841 560.541,647.252 559.836,649.369 559.836,652.896 560.541,655.012 561.247,656.423 562.658,657.834 564.069,658.54 566.891,658.54 568.302,657.834 569.712,656.423 570.418,655.012 571.123,652.896 571.123,649.369 570.418,647.252 569.712,645.841 568.302,644.43 566.891,643.725 564.069,643.725 " />
<polyline points="576.062,643.725 576.062,658.54 " />
<polyline points="576.062,643.725 585.938,658.54 " />
<polyline points="585.938,643.725 585.938,658.54 " />
<polyline points="606.397,643.725 606.397,658.54 " />
<polyline points="606.397,643.725 615.568,643.725 " />
<polyline points="606.397,650.78 612.04,650.78 " />
<polyline points="622.622,643.725 616.978,658.54 " />
<polyline points="622.622,643.725 628.266,658.54 " />
<polyline points="619.095,653.601 626.149,653.601 " />
<polyline points="641.67,647.252 640.964,645.841 639.553,644.43 638.142,643.725 635.32,643.725 633.91,644.43 632.499,645.841 631.793,647.252 631.088,649.369 631.088,652.896 631.793,655.012 632.499,656.423 633.91,657.834 635.32,658.54 638.142,658.54 639.553,657.834 640.964,656.423 641.67,655.012 " />
<polyline points="649.43,643.725 649.43,658.54 " />
<polyline points="644.491,643.725 654.368,643.725 " />
<polyline points="661.423,643.725 660.012,644.43 658.601,645.841 657.895,647.252 657.19,649.369 657.19,652.896 657.895,655.012 658.601,656.423 660.012,657.834 661.423,658.54 664.244,658.54 665.655,657.834 667.066,656.423 667.772,655.012 668.477,652.896 668.477,649.369 667.772,647.252 667.066,645.841 665.655,644.43 664.244,643.725 661.423,643.725 " />
<polyline points="673.415,643.725 673.415,658.54 " />
<polyline points="673.415,643.725 679.765,643.725 681.881,644.43 682.586,645.136 683.292,646.547 683.292,647.958 682.586,649.369 681.881,650.074 679.765,650.78 673.415,650.78 " />
<polyline points="678.354,650.78 683.292,658.54 " />
<polyline points="212.487,379.295 187.796,379.295 " />
<polyline points="741.458,743.916 740.423,741.846 738.354,739.777 736.284,738.742 732.146,738.742 730.076,739.777 728.007,741.846 726.972,743.916 725.938,747.02 725.938,752.193 726.972,755.297 728.007,757.367 730.076,759.436 732.146,760.471 736.284,760.471 738.354,759.436 740.423,757.367 741.458,755.297 " />
<polyline points="748.7,738.742 748.7,760.471 " />
<polyline points="748.7,738.742 758.013,738.742 761.117,739.777 762.151,740.812 763.186,742.881 763.186,744.95 762.151,747.02 761.117,748.054 758.013,749.089 748.7,749.089 " />
<polyline points="755.943,749.089 763.186,760.471 " />
<polyline points="771.463,738.742 782.845,738.742 776.637,747.02 779.741,747.02 781.81,748.054 782.845,749.089 783.879,752.193 783.879,754.263 782.845,757.367 780.775,759.436 777.671,760.471 774.567,760.471 771.463,759.436 770.429,758.401 769.394,756.332 " />
<polyline points="791.122,751.158 809.746,751.158 " />
<polyline points="820.093,742.881 822.163,741.846 825.267,738.742 825.267,760.471 " />
<polyline points="842.856,738.742 839.752,739.777 838.717,741.846 838.717,743.916 839.752,745.985 841.821,747.02 845.96,748.054 849.064,749.089 851.134,751.158 852.168,753.228 852.168,756.332 851.134,758.401 850.099,759.436 846.995,760.471 842.856,760.471 839.752,759.436 838.717,758.401 837.683,756.332 837.683,753.228 838.717,751.158 840.787,749.089 843.891,748.054 848.03,747.02 850.099,745.985 851.134,743.916 851.134,741.846 850.099,739.777 846.995,738.742 842.856,738.742 " />
</g>
</svg>
