<?xml version="1.0" standalone="no"?>
<svg viewBox="0 0 1024 768" version="1.1" xmlns="http://www.w3.org/2000/svg" xmlns:xlink="http://www.w3.org/1999/xlink" stroke-linecap="round" stroke-linejoin="round" fill-rule="evenodd" xml:space="preserve" >
<defs >
<clipPath id="clipId0" >
<path d="M0,768 1024,768 1024,0 0,0 z" />
</clipPath>
</defs>
<g clip-path="url(#clipId0)" fill="none" stroke="rgb(0,0,0)" stroke-width="0.1" />
<g clip-path="url(#clipId0)" fill="none" stroke="rgb(0,0,0)" stroke-width="0.25" >
<polyline points="580.885,51.7972 910.157,381.068 " />
<polyline points="493.494,262.779 760.97,530.255 " />
<polyline points="115.225,51.7972 580.885,51.7972 " />
<polyline points="115.225,262.779 493.494,262.779 " />
<polyline points="537.19,157.288 282.144,157.288 " stroke-dasharray="140.654706,28.130941,28.130941,28.130941" />
<polyline points="228.015,204.687 226.006,205.692 223.996,207.701 222.992,210.715 222.992,212.725 223.996,215.739 226.006,217.748 228.015,218.753 231.029,218.753 233.038,217.748 235.048,215.739 236.052,212.725 236.052,210.715 235.048,207.701 233.038,205.692 231.029,204.687 228.015,204.687 " />
<polyline points="244.37,157.288 145.862,157.288 " />
</g>
<g clip-path="url(#clipId0)" fill="rgb(0,0,0)" stroke="rgb(0,0,0)" stroke-width="0.25" >
<path d="M244.37,153.772 244.37,160.805 265.468,157.288 265.468,157.288 z" />
</g>
<g clip-path="url(#clipId0)" fill="none" stroke="rgb(0,0,0)" stroke-width="0.25" >
<polyline points="537.19,157.288 860.428,480.526 " stroke-dasharray="140.654706,28.130941,28.130941,28.130941" />
<polyline points="493.494,262.779 580.885,51.7972 " />
<path d="M699.932,141.082  A148.808,148.808 0 0,0 710.334,125.193 " />
<polyline points="755.011,51.7972 589.676,51.7972 " />
</g>
<g clip-path="url(#clipId0)" fill="rgb(0,0,0)" stroke="rgb(0,0,0)" stroke-width="0.25" >
<path d="M697.276,138.778 702.589,143.386 686.109,157.021 686.109,157.021 z" />
<path d="M724.69,72.593 731.705,73.0916 729.694,51.7972 729.694,51.7972 z" />
</g>
<g clip-path="url(#clipId0)" fill="none" stroke="rgb(0,0,0)" stroke-width="0.25" >
<path d="M724.813,89.596  A148.808,148.808 0 0,0 728.198,72.8423 " />
<polyline points="115.225,307.047 115.225,176.158 " />
<polyline points="82.5413,176.158 147.909,138.418 " />
<polyline points="82.5413,176.158 115.225,176.158 " />
<polyline points="147.909,138.418 115.225,138.418 " />
<polyline points="115.225,138.418 115.225,7.52941 " />
<polyline points="848.906,442.319 941.459,349.766 " />
<polyline points="872.018,465.43 848.906,442.319 " />
<polyline points="799.109,445.894 822.22,469.005 " />
<polyline points="799.109,445.894 872.018,465.43 " />
<polyline points="729.668,561.557 822.22,469.005 " />
<polyline points="200.381,109.479 198.371,110.484 196.362,112.493 195.357,114.502 194.353,117.516 194.353,122.54 195.357,125.554 196.362,127.563 198.371,129.572 200.381,130.577 204.399,130.577 206.409,129.572 208.418,127.563 209.423,125.554 210.427,122.54 210.427,117.516 209.423,114.502 208.418,112.493 206.409,110.484 204.399,109.479 200.381,109.479 " />
<polyline points="203.395,126.558 209.423,132.586 " />
<circle cx="720.661" cy="107.842" r="10.5491" />
<polyline points="710.112,107.842 731.21,107.842 " />
<polyline points="201.312,180.784 193.274,201.883 " />
<polyline points="201.312,180.784 209.349,201.883 " />
<polyline points="196.288,194.85 206.335,194.85 " />
<polyline points="860.428,480.526 885.292,505.391 " />
<polyline points="332.339,102.791 337.363,123.889 " />
<polyline points="342.386,102.791 337.363,123.889 " />
<polyline points="342.386,102.791 347.409,123.889 " />
<polyline points="352.433,102.791 347.409,123.889 " />
<polyline points="378.554,109.824 389.606,123.889 " />
<polyline points="389.606,109.824 378.554,123.889 " />
<polyline points="417.737,102.791 417.737,123.889 " />
<polyline points="431.802,102.791 431.802,123.889 " />
<polyline points="417.737,112.838 431.802,112.838 " />
<polyline points="810.55,736.894 809.076,733.947 806.129,731 803.182,729.527 797.288,729.527 794.341,731 791.394,733.947 789.921,736.894 788.447,741.315 788.447,748.682 789.921,753.103 791.394,756.05 794.341,758.997 797.288,760.471 803.182,760.471 806.129,758.997 809.076,756.05 810.55,753.103 " />
<polyline points="820.865,729.527 820.865,760.471 " />
<polyline points="820.865,729.527 834.126,729.527 838.547,731 840.02,732.474 841.494,735.421 841.494,738.368 840.02,741.315 838.547,742.788 834.126,744.262 820.865,744.262 " />
<polyline points="831.179,744.262 841.494,760.471 " />
<polyline points="853.282,729.527 869.491,729.527 860.65,741.315 865.07,741.315 868.017,742.788 869.491,744.262 870.964,748.682 870.964,751.629 869.491,756.05 866.544,758.997 862.123,760.471 857.703,760.471 853.282,758.997 851.809,757.524 850.335,754.576 " />
<polyline points="881.279,747.209 907.803,747.209 " />
<polyline points="937.273,733.947 935.8,731 931.379,729.527 928.432,729.527 924.011,731 921.064,735.421 919.591,742.788 919.591,750.156 921.064,756.05 924.011,758.997 928.432,760.471 929.905,760.471 934.326,758.997 937.273,756.05 938.747,751.629 938.747,750.156 937.273,745.735 934.326,742.788 929.905,741.315 928.432,741.315 924.011,742.788 921.064,745.735 919.591,750.156 " />
</g>
</svg>
