<?xml version="1.0" standalone="no"?>
<svg viewBox="0 0 1024 768" version="1.1" xmlns="http://www.w3.org/2000/svg" xmlns:xlink="http://www.w3.org/1999/xlink" stroke-linecap="round" stroke-linejoin="round" fill-rule="evenodd" xml:space="preserve" >
<defs >
<clipPath id="clipId0" >
<path d="M0,768 1024,768 1024,0 0,0 z" />
</clipPath>
</defs>
<g clip-path="url(#clipId0)" fill="none" stroke="rgb(0,0,0)" stroke-width="0.1" />
<g clip-path="url(#clipId0)" fill="none" stroke="rgb(0,0,0)" stroke-width="0.5" >
<path d="M748.195,337.662  A76.7551,76.7551 0 0,0 671.44,260.906 " />
<path d="M901.705,337.662  A230.265,230.265 0 0,0 671.44,107.396 " />
</g>
<g clip-path="url(#clipId0)" fill="none" stroke="rgb(0,0,0)" stroke-width="0.25" >
<path d="M824.95,337.662  A153.51,153.51 0 0,0 671.44,184.151 " stroke-dasharray="76.755119,12.792520,12.792520,12.792520" />
</g>
<g clip-path="url(#clipId0)" fill="none" stroke="rgb(0,0,0)" stroke-width="0.5" >
<polyline points="901.705,337.662 748.195,337.662 " />
<polyline points="671.44,107.396 671.44,260.906 " />
</g>
<g clip-path="url(#clipId0)" fill="none" stroke="rgb(0,0,0)" stroke-width="0.25" >
<polyline points="572.485,212.35 571.023,213.081 569.561,214.543 568.83,216.736 568.83,218.198 569.561,220.391 571.023,221.853 572.485,222.584 574.678,222.584 576.14,221.853 577.602,220.391 578.333,218.198 578.333,216.736 577.602,214.543 576.14,213.081 574.678,212.35 572.485,212.35 " />
<polyline points="614.885,184.151 535.1,184.151 " />
</g>
<g clip-path="url(#clipId0)" fill="rgb(0,0,0)" stroke="rgb(0,0,0)" stroke-width="0.25" >
<path d="M614.885,181.593 614.885,186.71 630.236,184.151 630.236,184.151 z" />
</g>
<g clip-path="url(#clipId0)" fill="none" stroke="rgb(0,0,0)" stroke-width="0.5" >
<polyline points="313.432,107.396 313.432,260.906 " />
<polyline points="57.5819,107.396 57.5819,260.906 " />
<polyline points="57.5819,107.396 313.432,107.396 " />
<polyline points="57.5819,260.906 313.432,260.906 " />
</g>
<g clip-path="url(#clipId0)" fill="none" stroke="rgb(0,0,0)" stroke-width="0.25" >
<polyline points="313.432,267.303 313.432,339.61 " />
<polyline points="57.5819,267.303 57.5819,339.61 " />
<polyline points="298.081,321.189 205.975,321.189 " />
<polyline points="72.9329,321.189 165.039,321.189 " />
</g>
<g clip-path="url(#clipId0)" fill="rgb(0,0,0)" stroke="rgb(0,0,0)" stroke-width="0.25" >
<path d="M298.081,323.747 298.081,318.63 313.432,321.189 313.432,321.189 z" />
<path d="M72.9329,323.747 72.9329,318.63 57.5819,321.189 57.5819,321.189 z" />
</g>
<g clip-path="url(#clipId0)" fill="none" stroke="rgb(0,0,0)" stroke-width="0.25" >
<polyline points="183.314,313.513 183.314,328.864 " />
<polyline points="193.548,313.513 193.548,328.864 " />
<polyline points="183.314,320.823 193.548,320.823 " />
<polyline points="319.829,107.396 392.372,107.396 " />
<polyline points="319.829,260.906 392.372,260.906 " />
<polyline points="373.951,122.747 373.951,161.125 " />
<polyline points="373.951,245.555 373.951,207.178 " />
</g>
<g clip-path="url(#clipId0)" fill="rgb(0,0,0)" stroke="rgb(0,0,0)" stroke-width="0.25" >
<path d="M376.509,122.747 371.392,122.747 373.951,107.396 373.951,107.396 z" />
<path d="M376.509,245.555 371.392,245.555 373.951,260.906 373.951,260.906 z" />
</g>
<g clip-path="url(#clipId0)" fill="none" stroke="rgb(0,0,0)" stroke-width="0.25" >
<polyline points="368.103,176.476 371.758,191.827 " />
<polyline points="375.413,176.476 371.758,191.827 " />
<polyline points="375.413,176.476 379.068,191.827 " />
<polyline points="382.723,176.476 379.068,191.827 " />
<polyline points="128.026,365.42 128.026,380.771 " />
<polyline points="128.026,365.42 137.529,365.42 " />
<polyline points="128.026,372.73 133.874,372.73 " />
<polyline points="141.184,365.42 141.184,380.771 " />
<polyline points="141.184,365.42 147.763,365.42 149.956,366.151 150.687,366.882 151.418,368.344 151.418,369.806 150.687,371.268 149.956,371.999 147.763,372.73 141.184,372.73 " />
<polyline points="146.301,372.73 151.418,380.771 " />
<polyline points="160.19,365.42 158.728,366.151 157.266,367.613 156.535,369.075 155.804,371.268 155.804,374.923 156.535,377.116 157.266,378.578 158.728,380.04 160.19,380.771 163.114,380.771 164.576,380.04 166.038,378.578 166.769,377.116 167.5,374.923 167.5,371.268 166.769,369.075 166.038,367.613 164.576,366.151 163.114,365.42 160.19,365.42 " />
<polyline points="172.617,365.42 172.617,380.771 " />
<polyline points="172.617,365.42 182.851,380.771 " />
<polyline points="182.851,365.42 182.851,380.771 " />
<polyline points="191.623,365.42 191.623,380.771 " />
<polyline points="186.506,365.42 196.74,365.42 " />
<polyline points="213.553,365.42 219.401,380.771 " />
<polyline points="225.249,365.42 219.401,380.771 " />
<polyline points="228.904,365.42 228.904,380.771 " />
<polyline points="234.752,365.42 234.752,380.771 " />
<polyline points="234.752,365.42 244.255,365.42 " />
<polyline points="234.752,372.73 240.6,372.73 " />
<polyline points="234.752,380.771 244.255,380.771 " />
<polyline points="247.179,365.42 250.834,380.771 " />
<polyline points="254.489,365.42 250.834,380.771 " />
<polyline points="254.489,365.42 258.144,380.771 " />
<polyline points="261.799,365.42 258.144,380.771 " />
<polyline points="763.806,579.454 762.344,577.992 760.151,577.261 757.227,577.261 755.034,577.992 753.572,579.454 753.572,580.916 754.303,582.378 755.034,583.109 756.496,583.84 760.882,585.302 762.344,586.033 763.075,586.764 763.806,588.226 763.806,590.419 762.344,591.881 760.151,592.612 757.227,592.612 755.034,591.881 753.572,590.419 " />
<polyline points="768.923,577.261 768.923,592.612 " />
<polyline points="774.771,577.261 774.771,592.612 " />
<polyline points="774.771,577.261 779.888,577.261 782.081,577.992 783.543,579.454 784.274,580.916 785.005,583.109 785.005,586.764 784.274,588.957 783.543,590.419 782.081,591.881 779.888,592.612 774.771,592.612 " />
<polyline points="790.122,577.261 790.122,592.612 " />
<polyline points="790.122,577.261 799.625,577.261 " />
<polyline points="790.122,584.571 795.97,584.571 " />
<polyline points="790.122,592.612 799.625,592.612 " />
<polyline points="817.169,577.261 823.017,592.612 " />
<polyline points="828.865,577.261 823.017,592.612 " />
<polyline points="832.52,577.261 832.52,592.612 " />
<polyline points="838.368,577.261 838.368,592.612 " />
<polyline points="838.368,577.261 847.871,577.261 " />
<polyline points="838.368,584.571 844.216,584.571 " />
<polyline points="838.368,592.612 847.871,592.612 " />
<polyline points="850.795,577.261 854.45,592.612 " />
<polyline points="858.105,577.261 854.45,592.612 " />
<polyline points="858.105,577.261 861.76,592.612 " />
<polyline points="865.415,577.261 861.76,592.612 " />
<polyline points="743.078,337.662 656.089,337.662 " />
<polyline points="671.44,266.023 671.44,353.013 " />
<polyline points="748.195,344.058 748.195,408.129 " />
<polyline points="732.844,389.708 730.285,389.708 " />
<polyline points="671.44,389.708 689.349,389.708 " />
</g>
<g clip-path="url(#clipId0)" fill="rgb(0,0,0)" stroke="rgb(0,0,0)" stroke-width="0.25" >
<path d="M732.844,392.266 732.844,387.149 748.195,389.708 748.195,389.708 z" />
</g>
<g clip-path="url(#clipId0)" fill="none" stroke="rgb(0,0,0)" stroke-width="0.25" >
<polyline points="707.624,382.032 707.624,397.383 " />
<polyline points="707.624,382.032 714.203,382.032 716.396,382.763 717.127,383.494 717.858,384.956 717.858,386.418 717.127,387.88 716.396,388.611 714.203,389.342 707.624,389.342 " />
<polyline points="712.741,389.342 717.858,397.383 " />
<polyline points="717.858,426.719 717.858,442.07 " />
<polyline points="717.858,426.719 724.437,426.719 726.63,427.45 727.361,428.181 728.092,429.643 728.092,431.105 727.361,432.567 726.63,433.298 724.437,434.029 717.858,434.029 " />
<polyline points="722.975,434.029 728.092,442.07 " />
<polyline points="671.44,359.409 671.44,551.451 " />
<polyline points="824.95,344.058 824.95,551.451 " />
<polyline points="671.44,533.03 729.92,533.03 " />
<polyline points="809.599,533.03 766.47,533.03 " />
</g>
<g clip-path="url(#clipId0)" fill="rgb(0,0,0)" stroke="rgb(0,0,0)" stroke-width="0.25" >
<path d="M809.599,535.589 809.599,530.472 824.95,533.03 824.95,533.03 z" />
</g>
<g clip-path="url(#clipId0)" fill="none" stroke="rgb(0,0,0)" stroke-width="0.25" >
<polyline points="748.195,530.472 748.195,540.706 " />
<polyline points="748.195,534.858 748.926,532.665 750.388,531.203 751.85,530.472 754.043,530.472 " />
<polyline points="734.545,438.209 736.007,437.478 738.2,435.285 738.2,450.636 " />
</g>
<g clip-path="url(#clipId0)" fill="none" stroke="rgb(0,0,0)" stroke-width="0.5" >
<polyline points="313.432,230.204 57.5819,230.204 " />
</g>
<g clip-path="url(#clipId0)" fill="rgb(0,0,0)" stroke="rgb(0,0,0)" stroke-width="0.25" >
<path d="M129.99,217.235 125.319,215.146 121.389,230.204 121.389,230.204 z" />
</g>
<g clip-path="url(#clipId0)" fill="none" stroke="rgb(0,0,0)" stroke-width="0.25" >
<polyline points="127.655,216.19 202.486,48.831 " />
<polyline points="202.486,48.831 217.837,48.831 " />
<polyline points="245.615,43.3485 244.153,41.8865 241.96,41.1555 239.036,41.1555 236.843,41.8865 235.381,43.3485 235.381,44.8105 236.112,46.2725 236.843,47.0035 238.305,47.7345 242.691,49.1965 244.153,49.9275 244.884,50.6585 245.615,52.1205 245.615,54.3135 244.153,55.7755 241.96,56.5065 239.036,56.5065 236.843,55.7755 235.381,54.3135 " />
<polyline points="250.732,41.1555 250.732,56.5065 " />
<polyline points="250.732,41.1555 257.311,41.1555 259.504,41.8865 260.235,42.6175 260.966,44.0795 260.966,46.2725 260.235,47.7345 259.504,48.4655 257.311,49.1965 250.732,49.1965 " />
<polyline points="266.083,41.1555 266.083,56.5065 274.855,56.5065 " />
<polyline points="278.51,41.1555 278.51,56.5065 " />
<polyline points="287.282,41.1555 287.282,56.5065 " />
<polyline points="282.165,41.1555 292.399,41.1555 " />
<polyline points="298.978,41.1555 298.978,56.5065 " />
<polyline points="293.861,41.1555 304.095,41.1555 " />
<polyline points="307.75,41.1555 307.75,56.5065 " />
<polyline points="307.75,41.1555 317.253,41.1555 " />
<polyline points="307.75,48.4655 313.598,48.4655 " />
<polyline points="307.75,56.5065 317.253,56.5065 " />
<polyline points="321.639,41.1555 321.639,56.5065 " />
<polyline points="321.639,41.1555 328.218,41.1555 330.411,41.8865 331.142,42.6175 331.873,44.0795 331.873,45.5415 331.142,47.0035 330.411,47.7345 328.218,48.4655 321.639,48.4655 " />
<polyline points="326.756,48.4655 331.873,56.5065 " />
<polyline points="350.148,41.1555 355.996,56.5065 " />
<polyline points="361.844,41.1555 355.996,56.5065 " />
<polyline points="369.154,41.1555 363.306,56.5065 " />
<polyline points="369.154,41.1555 375.002,56.5065 " />
<polyline points="365.499,51.3895 372.809,51.3895 " />
<polyline points="378.657,41.1555 378.657,56.5065 " />
<polyline points="378.657,41.1555 388.891,56.5065 " />
<polyline points="388.891,41.1555 388.891,56.5065 " />
<polyline points="394.739,41.1555 394.739,56.5065 " />
<polyline points="394.739,41.1555 404.242,41.1555 " />
<polyline points="394.739,48.4655 400.587,48.4655 " />
<polyline points="394.739,56.5065 404.242,56.5065 " />
<polyline points="429.096,38.2315 423.979,61.6235 " />
<polyline points="433.482,38.2315 428.365,61.6235 " />
<polyline points="423.979,47.7345 434.213,47.7345 " />
<polyline points="423.248,52.1205 433.482,52.1205 " />
<polyline points="440.792,44.0795 442.254,43.3485 444.447,41.1555 444.447,56.5065 " />
</g>
<g clip-path="url(#clipId0)" fill="none" stroke="rgb(0,0,0)" stroke-width="0.5" >
<polyline points="313.432,199.502 57.5819,199.502 " />
<path d="M778.897,337.662  A107.457,107.457 0 0,0 671.44,230.204 " />
<path d="M809.599,337.662  A138.159,138.159 0 0,0 671.44,199.502 " />
</g>
<g clip-path="url(#clipId0)" fill="rgb(0,0,0)" stroke="rgb(0,0,0)" stroke-width="0.25" >
<path d="M111.409,186.533 106.737,184.444 102.807,199.502 102.807,199.502 z" />
</g>
<g clip-path="url(#clipId0)" fill="none" stroke="rgb(0,0,0)" stroke-width="0.25" >
<polyline points="109.073,185.488 183.904,18.1289 " />
<polyline points="183.904,18.1289 199.255,18.1289 " />
<polyline points="227.033,12.6464 225.571,11.1844 223.378,10.4534 220.454,10.4534 218.261,11.1844 216.799,12.6464 216.799,14.1084 217.53,15.5704 218.261,16.3014 219.723,17.0324 224.109,18.4944 225.571,19.2254 226.302,19.9564 227.033,21.4184 227.033,23.6114 225.571,25.0734 223.378,25.8044 220.454,25.8044 218.261,25.0734 216.799,23.6114 " />
<polyline points="232.15,10.4534 232.15,25.8044 " />
<polyline points="232.15,10.4534 238.729,10.4534 240.922,11.1844 241.653,11.9154 242.384,13.3774 242.384,15.5704 241.653,17.0324 240.922,17.7634 238.729,18.4944 232.15,18.4944 " />
<polyline points="247.501,10.4534 247.501,25.8044 256.273,25.8044 " />
<polyline points="259.928,10.4534 259.928,25.8044 " />
<polyline points="268.7,10.4534 268.7,25.8044 " />
<polyline points="263.583,10.4534 273.817,10.4534 " />
<polyline points="280.396,10.4534 280.396,25.8044 " />
<polyline points="275.279,10.4534 285.513,10.4534 " />
<polyline points="289.168,10.4534 289.168,25.8044 " />
<polyline points="289.168,10.4534 298.671,10.4534 " />
<polyline points="289.168,17.7634 295.016,17.7634 " />
<polyline points="289.168,25.8044 298.671,25.8044 " />
<polyline points="303.057,10.4534 303.057,25.8044 " />
<polyline points="303.057,10.4534 309.636,10.4534 311.829,11.1844 312.56,11.9154 313.291,13.3774 313.291,14.8394 312.56,16.3014 311.829,17.0324 309.636,17.7634 303.057,17.7634 " />
<polyline points="308.174,17.7634 313.291,25.8044 " />
<polyline points="331.566,10.4534 337.414,25.8044 " />
<polyline points="343.262,10.4534 337.414,25.8044 " />
<polyline points="350.572,10.4534 344.724,25.8044 " />
<polyline points="350.572,10.4534 356.42,25.8044 " />
<polyline points="346.917,20.6874 354.227,20.6874 " />
<polyline points="360.075,10.4534 360.075,25.8044 " />
<polyline points="360.075,10.4534 370.309,25.8044 " />
<polyline points="370.309,10.4534 370.309,25.8044 " />
<polyline points="376.157,10.4534 376.157,25.8044 " />
<polyline points="376.157,10.4534 385.66,10.4534 " />
<polyline points="376.157,17.7634 382.005,17.7634 " />
<polyline points="376.157,25.8044 385.66,25.8044 " />
<polyline points="410.514,7.52941 405.397,30.9214 " />
<polyline points="414.9,7.52941 409.783,30.9214 " />
<polyline points="405.397,17.0324 415.631,17.0324 " />
<polyline points="404.666,21.4184 414.9,21.4184 " />
<polyline points="420.748,14.1084 420.748,13.3774 421.479,11.9154 422.21,11.1844 423.672,10.4534 426.596,10.4534 428.058,11.1844 428.789,11.9154 429.52,13.3774 429.52,14.8394 428.789,16.3014 427.327,18.4944 420.017,25.8044 430.251,25.8044 " />
<polyline points="778.897,344.058 778.897,452.815 " />
<polyline points="671.44,434.394 699.583,434.394 " />
<polyline points="763.546,434.394 750.753,434.394 " />
</g>
<g clip-path="url(#clipId0)" fill="rgb(0,0,0)" stroke="rgb(0,0,0)" stroke-width="0.25" >
<path d="M763.546,436.953 763.546,431.836 778.897,434.394 778.897,434.394 z" />
</g>
<g clip-path="url(#clipId0)" fill="none" stroke="rgb(0,0,0)" stroke-width="0.25" >
<polyline points="809.599,344.058 809.599,502.603 " />
<polyline points="671.44,484.181 712.741,484.181 " />
<polyline points="794.248,484.181 768.297,484.181 " />
</g>
<g clip-path="url(#clipId0)" fill="rgb(0,0,0)" stroke="rgb(0,0,0)" stroke-width="0.25" >
<path d="M794.248,486.74 794.248,481.623 809.599,484.181 809.599,484.181 z" />
</g>
<g clip-path="url(#clipId0)" fill="none" stroke="rgb(0,0,0)" stroke-width="0.25" >
<polyline points="731.016,476.506 731.016,491.857 " />
<polyline points="731.016,476.506 737.595,476.506 739.788,477.237 740.519,477.968 741.25,479.43 741.25,480.892 740.519,482.354 739.788,483.085 737.595,483.816 731.016,483.816 " />
<polyline points="736.133,483.816 741.25,491.857 " />
<polyline points="746.241,488.727 746.241,487.996 746.972,486.534 747.703,485.803 749.165,485.072 752.089,485.072 753.551,485.803 754.282,486.534 755.013,487.996 755.013,489.458 754.282,490.92 752.82,493.113 745.51,500.423 755.744,500.423 " />
<polyline points="671.709,389.565 702.038,389.565 " />
</g>
<g clip-path="url(#clipId0)" fill="rgb(0,0,0)" stroke="rgb(0,0,0)" stroke-width="0.25" >
<path d="M687.06,436.565 687.06,431.448 671.709,434.006 671.709,434.006 z" />
<path d="M688.071,487.179 688.071,482.062 672.72,484.62 672.72,484.62 z" />
<path d="M687.06,535.323 687.06,530.206 671.709,532.765 671.709,532.765 z" />
<path d="M687.06,392.123 687.06,387.006 671.709,389.565 671.709,389.565 z" />
</g>
<g clip-path="url(#clipId0)" fill="none" stroke="rgb(0,0,0)" stroke-width="0.25" >
<polyline points="554.051,150.926 552.589,151.657 551.127,153.119 550.396,154.581 549.665,156.774 549.665,160.429 550.396,162.622 551.127,164.084 552.589,165.546 554.051,166.277 556.975,166.277 558.437,165.546 559.899,164.084 560.63,162.622 561.361,160.429 561.361,156.774 560.63,154.581 559.899,153.119 558.437,151.657 556.975,150.926 554.051,150.926 " />
<polyline points="556.244,163.353 560.63,167.739 " />
<polyline points="551.469,194.413 545.621,209.764 " />
<polyline points="551.469,194.413 557.317,209.764 " />
<polyline points="547.814,204.647 555.124,204.647 " />
<polyline points="908.101,337.662 967.058,337.662 " />
<polyline points="671.44,101 671.44,42.0434 " />
<path d="M948.211,322.316  A277.197,277.197 0 0,0 882.087,157.478 " />
<path d="M856.892,131.638  A277.197,277.197 0 0,0 686.785,60.8896 " />
</g>
<g clip-path="url(#clipId0)" fill="rgb(0,0,0)" stroke="rgb(0,0,0)" stroke-width="0.25" >
<path d="M950.769,322.246 945.654,322.387 948.637,337.662 948.637,337.662 z" />
<path d="M686.714,63.4472 686.856,58.3321 671.44,60.4646 671.44,60.4646 z" />
</g>
<g clip-path="url(#clipId0)" fill="none" stroke="rgb(0,0,0)" stroke-width="0.25" >
<polyline points="870.489,132.917 869.027,133.648 867.565,135.11 866.834,136.572 866.103,138.765 866.103,142.42 866.834,144.613 867.565,146.075 869.027,147.537 870.489,148.268 873.413,148.268 874.875,147.537 876.337,146.075 877.068,144.613 877.799,142.42 877.799,138.765 877.068,136.572 876.337,135.11 874.875,133.648 873.413,132.917 870.489,132.917 " />
<polyline points="864.733,140.183 879.441,140.183 " />
<polyline points="866.665,745.787 865.934,744.325 864.472,742.863 863.01,742.132 860.086,742.132 858.624,742.863 857.162,744.325 856.431,745.787 855.7,747.98 855.7,751.635 856.431,753.828 857.162,755.29 858.624,756.752 860.086,757.483 863.01,757.483 864.472,756.752 865.934,755.29 866.665,753.828 " />
<polyline points="871.782,742.132 871.782,757.483 " />
<polyline points="871.782,742.132 878.361,742.132 880.554,742.863 881.285,743.594 882.016,745.056 882.016,746.518 881.285,747.98 880.554,748.711 878.361,749.442 871.782,749.442 " />
<polyline points="876.899,749.442 882.016,757.483 " />
<polyline points="887.864,742.132 895.905,742.132 891.519,747.98 893.712,747.98 895.174,748.711 895.905,749.442 896.636,751.635 896.636,753.097 895.905,755.29 894.443,756.752 892.25,757.483 890.057,757.483 887.864,756.752 887.133,756.021 886.402,754.559 " />
<polyline points="901.753,750.904 914.911,750.904 " />
<polyline points="927.338,742.132 920.028,752.366 930.993,752.366 " />
<polyline points="927.338,742.132 927.338,757.483 " />
<polyline points="175.981,500.669 175.981,516.02 " />
<polyline points="175.981,502.862 177.443,501.4 178.906,500.669 181.099,500.669 182.561,501.4 184.023,502.862 184.754,505.055 184.754,506.517 184.023,508.71 182.561,510.172 181.099,510.903 178.906,510.903 177.443,510.172 175.981,508.71 " />
<polyline points="289.44,552.408 289.44,551.677 290.171,550.215 290.902,549.484 292.364,548.753 295.288,548.753 296.75,549.484 297.481,550.215 298.212,551.677 298.212,553.139 297.481,554.601 296.019,556.795 288.709,564.105 298.943,564.105 " />
<polyline points="203.322,564.262 216.48,564.262 " />
<polyline points="203.322,568.648 216.48,568.648 " />
<polyline points="227.414,557.572 227.414,572.923 " />
<polyline points="227.414,557.572 233.993,557.572 236.186,558.303 236.917,559.034 237.648,560.496 237.648,561.958 236.917,563.42 236.186,564.151 233.993,564.882 227.414,564.882 " />
<polyline points="232.531,564.882 237.648,572.923 " />
<polyline points="254.461,554.648 241.303,578.04 " />
<polyline points="269.081,561.227 268.35,559.765 266.888,558.303 265.426,557.572 262.502,557.572 261.04,558.303 259.578,559.765 258.847,561.227 258.116,563.42 258.116,567.075 258.847,569.268 259.578,570.73 261.04,572.192 262.502,572.923 265.426,572.923 266.888,572.192 268.35,570.73 269.081,569.268 " />
<polyline points="274.198,557.572 274.198,572.923 " />
<polyline points="274.198,557.572 280.777,557.572 282.97,558.303 283.701,559.034 284.432,560.496 284.432,561.958 283.701,563.42 282.97,564.151 280.777,564.882 274.198,564.882 " />
<polyline points="279.315,564.882 284.432,572.923 " />
<polyline points="132.906,567.491 134.368,566.76 136.561,564.567 136.561,579.918 " />
<polyline points="119.929,557.572 119.929,572.923 " />
<polyline points="119.929,557.572 126.508,557.572 128.701,558.303 129.432,559.034 130.163,560.496 130.163,561.958 129.432,563.42 128.701,564.151 126.508,564.882 119.929,564.882 " />
<polyline points="125.046,564.882 130.163,572.923 " />
<polyline points="160.45,554.648 147.292,578.04 " />
<polyline points="175.07,561.227 174.339,559.765 172.877,558.303 171.415,557.572 168.491,557.572 167.029,558.303 165.567,559.765 164.836,561.227 164.105,563.42 164.105,567.075 164.836,569.268 165.567,570.73 167.029,572.192 168.491,572.923 171.415,572.923 172.877,572.192 174.339,570.73 175.07,569.268 " />
<polyline points="180.187,557.572 180.187,572.923 " />
<polyline points="180.187,557.572 186.766,557.572 188.959,558.303 189.69,559.034 190.421,560.496 190.421,561.958 189.69,563.42 188.959,564.151 186.766,564.882 180.187,564.882 " />
<polyline points="185.304,564.882 190.421,572.923 " />
<polyline points="57.7666,557.572 57.7666,572.923 " />
<polyline points="57.7666,557.572 64.3456,557.572 66.5386,558.303 67.2696,559.034 68.0006,560.496 68.0006,561.958 67.2696,563.42 66.5386,564.151 64.3456,564.882 57.7666,564.882 " />
<polyline points="62.8836,564.882 68.0006,572.923 " />
<polyline points="69.2823,568.222 69.2823,567.491 70.0133,566.029 70.7443,565.298 72.2063,564.567 75.1303,564.567 76.5923,565.298 77.3233,566.029 78.0543,567.491 78.0543,568.953 77.3233,570.415 75.8613,572.608 68.5513,579.918 78.7853,579.918 " />
<polyline points="96.1715,564.262 109.33,564.262 " />
<polyline points="96.1715,568.648 109.33,568.648 " />
<polyline points="140.791,692.793 153.949,692.793 " />
<polyline points="140.791,697.179 153.949,697.179 " />
<polyline points="182.458,693.524 181.727,692.062 179.534,691.331 177.341,691.331 175.148,692.062 174.417,693.524 175.148,694.986 176.61,695.717 180.265,696.448 181.727,697.179 182.458,698.641 182.458,699.372 181.727,700.834 179.534,701.565 177.341,701.565 175.148,700.834 174.417,699.372 " />
<polyline points="187.575,691.331 187.575,706.682 " />
<polyline points="187.575,693.524 189.037,692.062 190.499,691.331 192.692,691.331 194.154,692.062 195.616,693.524 196.347,695.717 196.347,697.179 195.616,699.372 194.154,700.834 192.692,701.565 190.499,701.565 189.037,700.834 187.575,699.372 " />
<polyline points="201.464,686.214 201.464,701.565 " />
<polyline points="206.581,686.945 207.312,687.676 208.043,686.945 207.312,686.214 206.581,686.945 " />
<polyline points="207.312,692.062 207.312,701.565 " />
<polyline points="213.891,686.214 213.891,698.641 214.622,700.834 216.084,701.565 217.546,701.565 " />
<polyline points="211.698,691.331 216.815,691.331 " />
<polyline points="222.663,686.214 222.663,698.641 223.394,700.834 224.856,701.565 226.318,701.565 " />
<polyline points="220.47,691.331 225.587,691.331 " />
<polyline points="229.973,695.717 238.745,695.717 238.745,694.255 238.014,692.793 237.283,692.062 235.821,691.331 233.628,691.331 232.166,692.062 230.704,693.524 229.973,695.717 229.973,697.179 230.704,699.372 232.166,700.834 233.628,701.565 235.821,701.565 237.283,700.834 238.745,699.372 " />
<polyline points="243.862,691.331 243.862,701.565 " />
<polyline points="243.862,695.717 244.593,693.524 246.055,692.062 247.517,691.331 249.71,691.331 " />
<polyline points="267.254,691.331 271.64,701.565 " />
<polyline points="276.026,691.331 271.64,701.565 " />
<polyline points="288.453,691.331 288.453,701.565 " />
<polyline points="288.453,693.524 286.991,692.062 285.529,691.331 283.336,691.331 281.874,692.062 280.412,693.524 279.681,695.717 279.681,697.179 280.412,699.372 281.874,700.834 283.336,701.565 285.529,701.565 286.991,700.834 288.453,699.372 " />
<polyline points="294.301,691.331 294.301,701.565 " />
<polyline points="294.301,694.255 296.494,692.062 297.956,691.331 300.149,691.331 301.611,692.062 302.342,694.255 302.342,701.565 " />
<polyline points="307.459,695.717 316.231,695.717 316.231,694.255 315.5,692.793 314.769,692.062 313.307,691.331 311.114,691.331 309.652,692.062 308.19,693.524 307.459,695.717 307.459,697.179 308.19,699.372 309.652,700.834 311.114,701.565 313.307,701.565 314.769,700.834 316.231,699.372 " />
<polyline points="341.816,683.29 336.699,706.682 " />
<polyline points="346.202,683.29 341.085,706.682 " />
<polyline points="336.699,692.793 346.933,692.793 " />
<polyline points="335.968,697.179 346.202,697.179 " />
<polyline points="352.05,689.869 352.05,689.138 352.781,687.676 353.512,686.945 354.974,686.214 357.898,686.214 359.36,686.945 360.091,687.676 360.822,689.138 360.822,690.6 360.091,692.062 358.629,694.255 351.319,701.565 361.553,701.565 " />
<polyline points="382.021,691.331 382.021,701.565 " />
<polyline points="382.021,695.717 382.752,693.524 384.214,692.062 385.676,691.331 387.869,691.331 " />
<polyline points="399.565,691.331 399.565,701.565 " />
<polyline points="399.565,693.524 398.103,692.062 396.641,691.331 394.448,691.331 392.986,692.062 391.524,693.524 390.793,695.717 390.793,697.179 391.524,699.372 392.986,700.834 394.448,701.565 396.641,701.565 398.103,700.834 399.565,699.372 " />
<polyline points="413.454,686.214 413.454,701.565 " />
<polyline points="413.454,693.524 411.992,692.062 410.53,691.331 408.337,691.331 406.875,692.062 405.413,693.524 404.682,695.717 404.682,697.179 405.413,699.372 406.875,700.834 408.337,701.565 410.53,701.565 411.992,700.834 413.454,699.372 " />
<polyline points="418.571,686.945 419.302,687.676 420.033,686.945 419.302,686.214 418.571,686.945 " />
<polyline points="419.302,692.062 419.302,701.565 " />
<polyline points="425.15,691.331 425.15,698.641 425.881,700.834 427.343,701.565 429.536,701.565 430.998,700.834 433.191,698.641 " />
<polyline points="433.191,691.331 433.191,701.565 " />
<polyline points="446.349,693.524 445.618,692.062 443.425,691.331 441.232,691.331 439.039,692.062 438.308,693.524 439.039,694.986 440.501,695.717 444.156,696.448 445.618,697.179 446.349,698.641 446.349,699.372 445.618,700.834 443.425,701.565 441.232,701.565 439.039,700.834 438.308,699.372 " />
<polyline points="106.544,686.102 106.544,701.453 " />
<polyline points="106.544,686.102 113.123,686.102 115.316,686.833 116.047,687.564 116.778,689.026 116.778,690.488 116.047,691.95 115.316,692.681 113.123,693.412 106.544,693.412 " />
<polyline points="111.661,693.412 116.778,701.453 " />
<polyline points="118.059,696.752 118.059,696.021 118.79,694.559 119.521,693.828 120.983,693.097 123.907,693.097 125.37,693.828 126.101,694.559 126.832,696.021 126.832,697.483 126.101,698.945 124.639,701.138 117.328,708.448 127.563,708.448 " />
<polyline points="103.591,740.003 103.591,755.354 " />
<polyline points="113.825,740.003 103.591,750.237 " />
<polyline points="107.246,746.582 113.825,755.354 " />
<polyline points="119.521,665.414 120.983,664.683 123.176,662.49 123.176,677.841 " />
<polyline points="106.544,655.495 106.544,670.846 " />
<polyline points="106.544,655.495 113.123,655.495 115.316,656.226 116.047,656.957 116.778,658.419 116.778,659.881 116.047,661.343 115.316,662.074 113.123,662.805 106.544,662.805 " />
<polyline points="111.661,662.805 116.778,670.846 " />
<polyline points="138.053,746.582 151.211,746.582 " />
<polyline points="138.053,750.968 151.211,750.968 " />
<polyline points="180.451,745.12 180.451,755.354 " />
<polyline points="180.451,747.313 178.989,745.851 177.527,745.12 175.334,745.12 173.872,745.851 172.41,747.313 171.679,749.506 171.679,750.968 172.41,753.161 173.872,754.623 175.334,755.354 177.527,755.354 178.989,754.623 180.451,753.161 " />
<polyline points="186.299,745.12 186.299,755.354 " />
<polyline points="186.299,748.044 188.492,745.851 189.954,745.12 192.147,745.12 193.609,745.851 194.34,748.044 194.34,755.354 " />
<polyline points="208.229,745.12 208.229,756.816 207.498,759.009 206.767,759.74 205.305,760.471 203.112,760.471 201.65,759.74 " />
<polyline points="208.229,747.313 206.767,745.851 205.305,745.12 203.112,745.12 201.65,745.851 200.188,747.313 199.457,749.506 199.457,750.968 200.188,753.161 201.65,754.623 203.112,755.354 205.305,755.354 206.767,754.623 208.229,753.161 " />
<polyline points="214.077,740.003 214.077,755.354 " />
<polyline points="219.194,749.506 227.966,749.506 227.966,748.044 227.235,746.582 226.504,745.851 225.042,745.12 222.849,745.12 221.387,745.851 219.925,747.313 219.194,749.506 219.194,750.968 219.925,753.161 221.387,754.623 222.849,755.354 225.042,755.354 226.504,754.623 227.966,753.161 " />
<polyline points="252.82,740.003 251.358,740.003 249.896,740.734 249.165,742.927 249.165,755.354 " />
<polyline points="246.972,745.12 252.089,745.12 " />
<polyline points="265.247,745.12 265.247,755.354 " />
<polyline points="265.247,747.313 263.785,745.851 262.323,745.12 260.13,745.12 258.668,745.851 257.206,747.313 256.475,749.506 256.475,750.968 257.206,753.161 258.668,754.623 260.13,755.354 262.323,755.354 263.785,754.623 265.247,753.161 " />
<polyline points="279.136,747.313 277.674,745.851 276.212,745.12 274.019,745.12 272.557,745.851 271.095,747.313 270.364,749.506 270.364,750.968 271.095,753.161 272.557,754.623 274.019,755.354 276.212,755.354 277.674,754.623 279.136,753.161 " />
<polyline points="284.984,740.003 284.984,752.43 285.715,754.623 287.177,755.354 288.639,755.354 " />
<polyline points="282.791,745.12 287.908,745.12 " />
<polyline points="295.949,745.12 294.487,745.851 293.025,747.313 292.294,749.506 292.294,750.968 293.025,753.161 294.487,754.623 295.949,755.354 298.142,755.354 299.604,754.623 301.066,753.161 301.797,750.968 301.797,749.506 301.066,747.313 299.604,745.851 298.142,745.12 295.949,745.12 " />
<polyline points="306.914,745.12 306.914,755.354 " />
<polyline points="306.914,749.506 307.645,747.313 309.107,745.851 310.569,745.12 312.762,745.12 " />
<polyline points="117.585,718.804 116.854,717.342 115.392,715.88 113.93,715.149 111.006,715.149 109.544,715.88 108.082,717.342 107.351,718.804 106.62,720.997 106.62,724.652 107.351,726.845 108.082,728.307 109.544,729.769 111.006,730.5 113.93,730.5 115.392,729.769 116.854,728.307 117.585,726.845 " />
<polyline points="122.702,715.149 122.702,730.5 " />
<polyline points="122.702,715.149 129.281,715.149 131.474,715.88 132.205,716.611 132.936,718.073 132.936,719.535 132.205,720.997 131.474,721.728 129.281,722.459 122.702,722.459 " />
<polyline points="127.819,722.459 132.936,730.5 " />
<polyline points="153.404,721.728 166.562,721.728 " />
<polyline points="153.404,726.114 166.562,726.114 " />
<polyline points="187.761,712.956 188.492,713.687 189.223,712.956 188.492,712.225 187.761,712.956 187.761,714.418 188.492,715.88 189.223,716.611 " />
<polyline points="206.767,718.804 206.036,717.342 204.574,715.88 203.112,715.149 200.188,715.149 198.726,715.88 197.264,717.342 196.533,718.804 195.802,720.997 195.802,724.652 196.533,726.845 197.264,728.307 198.726,729.769 200.188,730.5 203.112,730.5 204.574,729.769 206.036,728.307 206.767,726.845 " />
<polyline points="211.884,715.149 211.884,726.114 212.615,728.307 214.077,729.769 216.27,730.5 217.732,730.5 219.925,729.769 221.387,728.307 222.118,726.114 222.118,715.149 " />
<polyline points="227.966,715.149 227.966,730.5 " />
<polyline points="227.966,715.149 234.545,715.149 236.738,715.88 237.469,716.611 238.2,718.073 238.2,719.535 237.469,720.997 236.738,721.728 234.545,722.459 227.966,722.459 " />
<polyline points="233.083,722.459 238.2,730.5 " />
<polyline points="241.124,715.149 246.972,730.5 " />
<polyline points="252.82,715.149 246.972,730.5 " />
<polyline points="256.475,715.149 256.475,730.5 " />
<polyline points="256.475,715.149 265.978,715.149 " />
<polyline points="256.475,722.459 262.323,722.459 " />
<polyline points="256.475,730.5 265.978,730.5 " />
<polyline points="285.715,715.149 285.715,730.5 " />
<polyline points="285.715,715.149 292.294,715.149 294.487,715.88 295.218,716.611 295.949,718.073 295.949,719.535 295.218,720.997 294.487,721.728 292.294,722.459 285.715,722.459 " />
<polyline points="290.832,722.459 295.949,730.5 " />
<polyline points="304.721,715.149 298.873,730.5 " />
<polyline points="304.721,715.149 310.569,730.5 " />
<polyline points="301.066,725.383 308.376,725.383 " />
<polyline points="317.148,715.149 317.148,730.5 " />
<polyline points="312.031,715.149 322.265,715.149 " />
<polyline points="325.92,715.149 325.92,730.5 " />
<polyline points="335.423,715.149 333.961,715.88 332.499,717.342 331.768,718.804 331.037,720.997 331.037,724.652 331.768,726.845 332.499,728.307 333.961,729.769 335.423,730.5 338.347,730.5 339.809,729.769 341.271,728.307 342.002,726.845 342.733,724.652 342.733,720.997 342.002,718.804 341.271,717.342 339.809,715.88 338.347,715.149 335.423,715.149 " />
<polyline points="349.312,712.956 348.581,713.687 347.85,712.956 348.581,712.225 349.312,712.956 349.312,714.418 348.581,715.88 347.85,716.611 " />
<polyline points="140.791,662.186 153.949,662.186 " />
<polyline points="140.791,666.572 153.949,666.572 " />
<polyline points="182.458,662.917 181.727,661.455 179.534,660.724 177.341,660.724 175.148,661.455 174.417,662.917 175.148,664.379 176.61,665.11 180.265,665.841 181.727,666.572 182.458,668.034 182.458,668.765 181.727,670.227 179.534,670.958 177.341,670.958 175.148,670.227 174.417,668.765 " />
<polyline points="187.575,660.724 187.575,676.075 " />
<polyline points="187.575,662.917 189.037,661.455 190.499,660.724 192.692,660.724 194.154,661.455 195.616,662.917 196.347,665.11 196.347,666.572 195.616,668.765 194.154,670.227 192.692,670.958 190.499,670.958 189.037,670.227 187.575,668.765 " />
<polyline points="201.464,655.607 201.464,670.958 " />
<polyline points="206.581,656.338 207.312,657.069 208.043,656.338 207.312,655.607 206.581,656.338 " />
<polyline points="207.312,661.455 207.312,670.958 " />
<polyline points="213.891,655.607 213.891,668.034 214.622,670.227 216.084,670.958 217.546,670.958 " />
<polyline points="211.698,660.724 216.815,660.724 " />
<polyline points="222.663,655.607 222.663,668.034 223.394,670.227 224.856,670.958 226.318,670.958 " />
<polyline points="220.47,660.724 225.587,660.724 " />
<polyline points="229.973,665.11 238.745,665.11 238.745,663.648 238.014,662.186 237.283,661.455 235.821,660.724 233.628,660.724 232.166,661.455 230.704,662.917 229.973,665.11 229.973,666.572 230.704,668.765 232.166,670.227 233.628,670.958 235.821,670.958 237.283,670.227 238.745,668.765 " />
<polyline points="243.862,660.724 243.862,670.958 " />
<polyline points="243.862,665.11 244.593,662.917 246.055,661.455 247.517,660.724 249.71,660.724 " />
<polyline points="267.254,660.724 271.64,670.958 " />
<polyline points="276.026,660.724 271.64,670.958 " />
<polyline points="288.453,660.724 288.453,670.958 " />
<polyline points="288.453,662.917 286.991,661.455 285.529,660.724 283.336,660.724 281.874,661.455 280.412,662.917 279.681,665.11 279.681,666.572 280.412,668.765 281.874,670.227 283.336,670.958 285.529,670.958 286.991,670.227 288.453,668.765 " />
<polyline points="294.301,660.724 294.301,670.958 " />
<polyline points="294.301,663.648 296.494,661.455 297.956,660.724 300.149,660.724 301.611,661.455 302.342,663.648 302.342,670.958 " />
<polyline points="307.459,665.11 316.231,665.11 316.231,663.648 315.5,662.186 314.769,661.455 313.307,660.724 311.114,660.724 309.652,661.455 308.19,662.917 307.459,665.11 307.459,666.572 308.19,668.765 309.652,670.227 311.114,670.958 313.307,670.958 314.769,670.227 316.231,668.765 " />
<polyline points="341.816,652.683 336.699,676.075 " />
<polyline points="346.202,652.683 341.085,676.075 " />
<polyline points="336.699,662.186 346.933,662.186 " />
<polyline points="335.968,666.572 346.202,666.572 " />
<polyline points="353.512,658.531 354.974,657.8 357.167,655.607 357.167,670.958 " />
<polyline points="382.021,660.724 382.021,670.958 " />
<polyline points="382.021,665.11 382.752,662.917 384.214,661.455 385.676,660.724 387.869,660.724 " />
<polyline points="399.565,660.724 399.565,670.958 " />
<polyline points="399.565,662.917 398.103,661.455 396.641,660.724 394.448,660.724 392.986,661.455 391.524,662.917 390.793,665.11 390.793,666.572 391.524,668.765 392.986,670.227 394.448,670.958 396.641,670.958 398.103,670.227 399.565,668.765 " />
<polyline points="413.454,655.607 413.454,670.958 " />
<polyline points="413.454,662.917 411.992,661.455 410.53,660.724 408.337,660.724 406.875,661.455 405.413,662.917 404.682,665.11 404.682,666.572 405.413,668.765 406.875,670.227 408.337,670.958 410.53,670.958 411.992,670.227 413.454,668.765 " />
<polyline points="418.571,656.338 419.302,657.069 420.033,656.338 419.302,655.607 418.571,656.338 " />
<polyline points="419.302,661.455 419.302,670.958 " />
<polyline points="425.15,660.724 425.15,668.034 425.881,670.227 427.343,670.958 429.536,670.958 430.998,670.227 433.191,668.034 " />
<polyline points="433.191,660.724 433.191,670.958 " />
<polyline points="446.349,662.917 445.618,661.455 443.425,660.724 441.232,660.724 439.039,661.455 438.308,662.917 439.039,664.379 440.501,665.11 444.156,665.841 445.618,666.572 446.349,668.034 446.349,668.765 445.618,670.227 443.425,670.958 441.232,670.958 439.039,670.227 438.308,668.765 " />
<polyline points="108.604,630.753 108.604,646.104 " />
<polyline points="108.604,630.753 115.183,630.753 117.376,631.484 118.107,632.215 118.838,633.677 118.838,635.139 118.107,636.601 117.376,637.332 115.183,638.063 108.604,638.063 " />
<polyline points="113.721,638.063 118.838,646.104 " />
<polyline points="139.306,637.332 152.464,637.332 " />
<polyline points="139.306,641.718 152.464,641.718 " />
<polyline points="174.394,630.753 174.394,643.18 175.125,645.373 176.587,646.104 178.049,646.104 " />
<polyline points="172.201,635.87 177.318,635.87 " />
<polyline points="182.435,630.753 182.435,646.104 " />
<polyline points="182.435,638.794 184.628,636.601 186.09,635.87 188.283,635.87 189.745,636.601 190.476,638.794 190.476,646.104 " />
<polyline points="196.324,635.87 196.324,646.104 " />
<polyline points="196.324,640.256 197.055,638.063 198.517,636.601 199.979,635.87 202.172,635.87 " />
<polyline points="208.751,635.87 207.289,636.601 205.827,638.063 205.096,640.256 205.096,641.718 205.827,643.911 207.289,645.373 208.751,646.104 210.944,646.104 212.406,645.373 213.868,643.911 214.599,641.718 214.599,640.256 213.868,638.063 212.406,636.601 210.944,635.87 208.751,635.87 " />
<polyline points="227.757,635.87 227.757,646.104 " />
<polyline points="227.757,638.063 226.295,636.601 224.833,635.87 222.64,635.87 221.178,636.601 219.716,638.063 218.985,640.256 218.985,641.718 219.716,643.911 221.178,645.373 222.64,646.104 224.833,646.104 226.295,645.373 227.757,643.911 " />
<polyline points="234.336,630.753 234.336,643.18 235.067,645.373 236.529,646.104 237.991,646.104 " />
<polyline points="232.143,635.87 237.26,635.87 " />
<polyline points="257.728,635.87 257.728,646.104 " />
<polyline points="257.728,640.256 258.459,638.063 259.921,636.601 261.383,635.87 263.576,635.87 " />
<polyline points="275.272,635.87 275.272,646.104 " />
<polyline points="275.272,638.063 273.81,636.601 272.348,635.87 270.155,635.87 268.693,636.601 267.231,638.063 266.5,640.256 266.5,641.718 267.231,643.911 268.693,645.373 270.155,646.104 272.348,646.104 273.81,645.373 275.272,643.911 " />
<polyline points="289.161,630.753 289.161,646.104 " />
<polyline points="289.161,638.063 287.699,636.601 286.237,635.87 284.044,635.87 282.582,636.601 281.12,638.063 280.389,640.256 280.389,641.718 281.12,643.911 282.582,645.373 284.044,646.104 286.237,646.104 287.699,645.373 289.161,643.911 " />
<polyline points="294.278,631.484 295.009,632.215 295.74,631.484 295.009,630.753 294.278,631.484 " />
<polyline points="295.009,636.601 295.009,646.104 " />
<polyline points="300.857,635.87 300.857,643.18 301.588,645.373 303.05,646.104 305.243,646.104 306.705,645.373 308.898,643.18 " />
<polyline points="308.898,635.87 308.898,646.104 " />
<polyline points="322.056,638.063 321.325,636.601 319.132,635.87 316.939,635.87 314.746,636.601 314.015,638.063 314.746,639.525 316.208,640.256 319.863,640.987 321.325,641.718 322.056,643.18 322.056,643.911 321.325,645.373 319.132,646.104 316.939,646.104 314.746,645.373 314.015,643.911 " />
<polyline points="57.0356,600.234 59.9596,610.468 " />
<polyline points="62.8836,600.234 59.9596,610.468 " />
<polyline points="62.8836,600.234 65.8076,610.468 " />
<polyline points="68.7316,600.234 65.8076,610.468 " />
<polyline points="73.8486,595.117 73.8486,610.468 " />
<polyline points="73.8486,603.158 76.0416,600.965 77.5036,600.234 79.6966,600.234 81.1586,600.965 81.8896,603.158 81.8896,610.468 " />
<polyline points="87.0066,604.62 95.7786,604.62 95.7786,603.158 95.0476,601.696 94.3166,600.965 92.8546,600.234 90.6616,600.234 89.1996,600.965 87.7376,602.427 87.0066,604.62 87.0066,606.082 87.7376,608.275 89.1996,609.737 90.6616,610.468 92.8546,610.468 94.3166,609.737 95.7786,608.275 " />
<polyline points="100.896,600.234 100.896,610.468 " />
<polyline points="100.896,604.62 101.627,602.427 103.089,600.965 104.551,600.234 106.744,600.234 " />
<polyline points="109.668,604.62 118.44,604.62 118.44,603.158 117.709,601.696 116.978,600.965 115.516,600.234 113.323,600.234 111.861,600.965 110.399,602.427 109.668,604.62 109.668,606.082 110.399,608.275 111.861,609.737 113.323,610.468 115.516,610.468 116.978,609.737 118.44,608.275 " />
<polyline points="96.1715,533.655 109.33,533.655 " />
<polyline points="96.1715,538.041 109.33,538.041 " />
<polyline points="70.7443,536.884 72.2063,536.153 74.3993,533.96 74.3993,549.311 " />
<polyline points="57.7666,526.965 57.7666,542.316 " />
<polyline points="57.7666,526.965 64.3456,526.965 66.5386,527.696 67.2696,528.427 68.0006,529.889 68.0006,531.351 67.2696,532.813 66.5386,533.544 64.3456,534.275 57.7666,534.275 " />
<polyline points="62.8836,534.275 68.0006,542.316 " />
<polyline points="120.263,526.965 120.263,542.316 " />
<polyline points="120.263,526.965 126.842,526.965 129.035,527.696 129.766,528.427 130.497,529.889 130.497,531.351 129.766,532.813 129.035,533.544 126.842,534.275 120.263,534.275 " />
<polyline points="125.38,534.275 130.497,542.316 " />
<polyline points="147.31,524.041 134.152,547.433 " />
<polyline points="161.93,530.62 161.199,529.158 159.737,527.696 158.275,526.965 155.351,526.965 153.889,527.696 152.427,529.158 151.696,530.62 150.965,532.813 150.965,536.468 151.696,538.661 152.427,540.123 153.889,541.585 155.351,542.316 158.275,542.316 159.737,541.585 161.199,540.123 161.93,538.661 " />
<polyline points="167.047,526.965 167.047,542.316 " />
<polyline points="167.047,526.965 173.626,526.965 175.819,527.696 176.55,528.427 177.281,529.889 177.281,531.351 176.55,532.813 175.819,533.544 173.626,534.275 167.047,534.275 " />
<polyline points="172.164,534.275 177.281,542.316 " />
<polyline points="120.263,496.358 120.263,511.709 " />
<polyline points="130.497,496.358 120.263,506.592 " />
<polyline points="123.918,502.937 130.497,511.709 " />
<polyline points="166.499,500.013 165.768,498.551 164.306,497.089 162.844,496.358 159.92,496.358 158.458,497.089 156.996,498.551 156.265,500.013 155.534,502.206 155.534,505.861 156.265,508.054 156.996,509.516 158.458,510.978 159.92,511.709 162.844,511.709 164.306,510.978 165.768,509.516 166.499,508.054 " />
<polyline points="68.0006,500.013 67.2696,498.551 65.8076,497.089 64.3456,496.358 61.4216,496.358 59.9596,497.089 58.4976,498.551 57.7666,500.013 57.0356,502.206 57.0356,505.861 57.7666,508.054 58.4976,509.516 59.9596,510.978 61.4216,511.709 64.3456,511.709 65.8076,510.978 67.2696,509.516 68.0006,508.054 " />
<polyline points="72.2063,508.47 70.7443,509.201 69.2823,510.663 68.5513,512.856 68.5513,514.318 69.2823,516.511 70.7443,517.973 72.2063,518.704 74.3993,518.704 75.8613,517.973 77.3233,516.511 78.0543,514.318 78.0543,512.856 77.3233,510.663 75.8613,509.201 74.3993,508.47 72.2063,508.47 " />
<polyline points="96.1715,503.048 109.33,503.048 " />
<polyline points="96.1715,507.434 109.33,507.434 " />
</g>
<g clip-path="url(#clipId0)" fill="rgb(0,0,0)" stroke="rgb(0,0,0)" stroke-width="0.25" >
<path d="M58.2215,260.906 56.9423,260.906 56.9423,106.757 58.2215,108.036 z" />
<path d="M58.2215,108.036 56.9423,106.757 314.072,106.757 312.793,108.036 z" />
<path d="M312.793,108.036 314.072,106.757 314.072,261.546 312.793,260.267 z" />
<path d="M312.793,260.267 314.072,261.546 57.5819,261.546 57.5819,260.267 z" />
<path d="M57.5819,230.844 57.5819,229.565 313.432,229.565 313.432,230.844 z" />
<path d="M313.432,198.863 313.432,200.142 57.5819,200.142 57.5819,198.863 z" />
<path d="M670.8,107.396 672.079,107.396 672.079,260.333 670.8,261.48 z" />
<path d="M670.8,261.48 672.079,260.333 688.202,262.1 687.919,263.356 z" />
<path d="M687.919,263.356 688.202,262.1 705.109,267.97 704.55,269.13 z" />
<path d="M704.55,269.13 705.109,267.97 720.066,277.445 719.258,278.448 z" />
<path d="M719.258,278.448 720.066,277.445 732.257,289.788 731.246,290.586 z" />
<path d="M731.246,290.586 732.257,289.788 741.252,304.244 740.091,304.798 z" />
<path d="M740.091,304.798 741.252,304.244 746.937,320.612 745.682,320.897 z" />
<path d="M745.682,320.897 746.937,320.612 748.767,337.022 747.622,338.301 z" />
<path d="M747.622,338.301 748.767,337.022 901.023,337.022 902.387,338.301 z" />
<path d="M902.387,338.301 901.023,337.022 899.191,308.395 900.463,308.23 z" />
<path d="M900.463,308.23 899.191,308.395 893.198,278.074 894.436,277.743 z" />
<path d="M894.436,277.743 893.198,278.074 883.605,249.837 884.789,249.346 z" />
<path d="M884.789,249.346 883.605,249.837 870.136,222.565 871.245,221.923 z" />
<path d="M871.245,221.923 870.136,222.565 853.543,197.784 854.558,197.002 z" />
<path d="M854.558,197.002 853.543,197.784 833.145,174.632 834.049,173.723 z" />
<path d="M834.049,173.723 833.145,174.632 810.916,155.251 811.695,154.232 z" />
<path d="M811.695,154.232 810.916,155.251 786.163,138.75 786.803,137.639 z" />
<path d="M786.803,137.639 786.163,138.75 759.215,125.476 759.705,124.291 z" />
<path d="M759.705,124.291 759.215,125.476 730.994,115.895 731.326,114.656 z" />
<path d="M731.326,114.656 730.994,115.895 701.392,109.999 701.56,108.728 z" />
<path d="M701.56,108.728 701.392,109.999 671.398,108.034 671.481,106.758 z" />
<path d="M779.533,337.599 778.26,337.724 776.229,316.961 777.49,316.711 z" />
<path d="M777.49,316.711 776.229,316.961 770.165,296.887 771.353,296.396 z" />
<path d="M771.353,296.396 770.165,296.887 760.266,278.339 761.335,277.626 z" />
<path d="M761.335,277.626 760.266,278.339 747.041,262.205 747.95,261.296 z" />
<path d="M747.95,261.296 747.041,262.205 730.771,248.841 731.485,247.772 z" />
<path d="M731.485,247.772 730.771,248.841 712.145,238.907 712.636,237.719 z" />
<path d="M712.636,237.719 712.145,238.907 692.304,232.905 692.554,231.644 z" />
<path d="M692.554,231.644 692.304,232.905 671.377,230.841 671.502,229.568 z" />
<path d="M671.389,200.14 671.49,198.865 693.134,200.567 692.933,201.834 z" />
<path d="M692.933,201.834 693.134,200.567 714.292,205.641 713.896,206.862 z" />
<path d="M713.896,206.862 714.292,205.641 734.352,213.937 733.77,215.081 z" />
<path d="M733.77,215.081 734.352,213.937 752.872,225.259 752.119,226.298 z" />
<path d="M752.119,226.298 752.872,225.259 769.586,239.514 768.679,240.422 z" />
<path d="M768.679,240.422 769.586,239.514 783.632,255.94 782.595,256.695 z" />
<path d="M782.595,256.695 783.632,255.94 795.127,274.676 793.984,275.259 z" />
<path d="M793.984,275.259 795.127,274.676 803.407,294.647 802.187,295.044 z" />
<path d="M802.187,295.044 803.407,294.647 808.557,316.111 807.29,316.311 z" />
<path d="M807.29,316.311 808.557,316.111 810.236,337.612 808.961,337.711 z" />
</g>
</svg>
