<?xml version="1.0" standalone="no"?>
<svg viewBox="0 0 1024 768" version="1.1" xmlns="http://www.w3.org/2000/svg" xmlns:xlink="http://www.w3.org/1999/xlink" stroke-linecap="round" stroke-linejoin="round" fill-rule="evenodd" xml:space="preserve" >
<defs >
<clipPath id="clipId0" >
<path d="M0,768 1024,768 1024,0 0,0 z" />
</clipPath>
</defs>
<g clip-path="url(#clipId0)" fill="none" stroke="rgb(0,0,0)" stroke-width="0.1" />
<g clip-path="url(#clipId0)" fill="none" stroke="rgb(0,0,0)" stroke-width="0.25" >
<polyline points="68.518,241.401 66.9523,242.184 65.3865,243.749 64.6037,246.098 64.6037,247.664 65.3865,250.012 66.9523,251.578 68.518,252.361 70.8666,252.361 72.4323,251.578 73.9981,250.012 74.7809,247.664 74.7809,246.098 73.9981,243.749 72.4323,242.184 70.8666,241.401 68.518,241.401 " />
<polyline points="99.3153,208.972 10.0392,208.972 " />
</g>
<g clip-path="url(#clipId0)" fill="rgb(0,0,0)" stroke="rgb(0,0,0)" stroke-width="0.25" >
<path d="M99.3153,206.232 99.3153,211.712 115.755,208.972 115.755,208.972 z" />
</g>
<g clip-path="url(#clipId0)" fill="none" stroke="rgb(0,0,0)" stroke-width="0.25" >
<polyline points="188.055,194.268 137.119,223.676 " />
<polyline points="188.055,194.268 162.587,194.268 " />
<polyline points="137.119,223.676 162.587,223.676 " />
<polyline points="162.587,107.104 162.587,194.268 " />
<polyline points="162.587,223.676 162.587,312.494 " />
<polyline points="520.739,344.027 520.739,234.425 " />
<polyline points="630.34,344.027 630.34,234.425 " />
<polyline points="520.739,344.027 630.34,344.027 " />
<polyline points="520.739,234.425 630.34,234.425 " />
<path d="M630.34,234.425  A82.2011,82.2011 0 0,0 688.465,210.349 " />
<path d="M630.34,344.027  A191.803,191.803 0 0,0 765.965,287.849 " />
<polyline points="765.965,287.849 688.465,210.349 " />
<path d="M824.09,154.171  A191.803,191.803 0 0,0 688.465,210.349 " />
<path d="M824.09,263.773  A82.2011,82.2011 0 0,0 765.965,287.849 " />
<polyline points="824.09,154.171 824.09,263.773 " />
<polyline points="326.989,154.171 326.989,263.773 " />
<path d="M385.114,287.849  A82.2011,82.2011 0 0,0 326.989,263.773 " />
<path d="M462.614,210.349  A191.803,191.803 0 0,0 326.989,154.171 " />
<polyline points="385.114,287.849 462.614,210.349 " />
<path d="M385.114,287.849  A191.803,191.803 0 0,0 520.739,344.027 " />
<path d="M462.614,210.349  A82.2011,82.2011 0 0,0 520.739,234.425 " />
<polyline points="824.09,263.773 988.493,263.773 " />
<polyline points="824.09,154.171 988.493,154.171 " />
<polyline points="326.989,263.773 162.587,263.773 " />
<polyline points="326.989,154.171 162.587,154.171 " />
<polyline points="988.493,223.676 988.493,312.494 " />
<polyline points="988.493,107.104 988.493,194.268 " />
<polyline points="963.024,223.676 988.493,223.676 " />
<polyline points="1013.96,194.268 988.493,194.268 " />
<polyline points="1013.96,194.268 963.024,223.676 " />
<polyline points="750.089,154.171 400.991,154.171 " />
<path d="M630.34,289.226  A137.002,137.002 0 0,0 727.215,249.099 " stroke-dasharray="54.800740,10.960148,10.960148,10.960148" />
<path d="M824.09,208.972  A137.002,137.002 0 0,0 727.215,249.099 " stroke-dasharray="54.800740,10.960148,10.960148,10.960148" />
<path d="M423.864,249.099  A137.002,137.002 0 0,0 326.989,208.972 " stroke-dasharray="54.800740,10.960148,10.960148,10.960148" />
<path d="M423.864,249.099  A137.002,137.002 0 0,0 520.739,289.226 " stroke-dasharray="54.800740,10.960148,10.960148,10.960148" />
</g>
<g clip-path="url(#clipId0)" fill="rgb(0,0,0)" stroke="rgb(0,0,0)" stroke-width="0.25" >
<path d="M679.112,262.515 674.05,264.614 682.879,278.751 682.879,278.751 z" />
</g>
<g clip-path="url(#clipId0)" fill="none" stroke="rgb(0,0,0)" stroke-width="0.25" >
<polyline points="676.581,263.565 649.781,198.933 " />
<polyline points="641.557,180.817 641.319,191.774 " />
<polyline points="641.455,185.513 642.289,183.182 643.888,181.65 645.471,180.902 647.819,180.953 " />
<polyline points="638.877,172.637 631.217,154.163 " />
<polyline points="520.739,355.377 520.739,421.93 " />
<polyline points="630.34,355.377 630.34,421.93 " />
<polyline points="613.9,402.202 520.739,402.202 " />
</g>
<g clip-path="url(#clipId0)" fill="rgb(0,0,0)" stroke="rgb(0,0,0)" stroke-width="0.25" >
<path d="M537.179,404.942 537.179,399.462 520.739,402.202 520.739,402.202 z" />
<path d="M613.9,404.942 613.9,399.462 630.34,402.202 630.34,402.202 z" />
</g>
<g clip-path="url(#clipId0)" fill="none" stroke="rgb(0,0,0)" stroke-width="0.25" >
<polyline points="575.54,217.985 575.54,209.393 " />
<polyline points="575.54,170.612 575.54,179.471 " />
</g>
<g clip-path="url(#clipId0)" fill="rgb(0,0,0)" stroke="rgb(0,0,0)" stroke-width="0.25" >
<path d="M578.28,217.985 572.8,217.985 575.54,234.425 575.54,234.425 z" />
<path d="M578.28,170.612 572.8,170.612 575.54,154.171 575.54,154.171 z" />
</g>
<g clip-path="url(#clipId0)" fill="none" stroke="rgb(0,0,0)" stroke-width="0.25" >
<polyline points="571.715,186.036 571.715,202.476 581.11,202.476 " />
</g>
<g clip-path="url(#clipId0)" fill="rgb(0,0,0)" stroke="rgb(0,0,0)" stroke-width="0.25" >
<path d="M375.486,235.602 370.501,233.324 379.827,219.51 379.827,219.51 z" />
</g>
<g clip-path="url(#clipId0)" fill="none" stroke="rgb(0,0,0)" stroke-width="0.25" >
<polyline points="372.754,234.498 343.67,298.135 " />
<polyline points="334.959,304.988 334.807,315.947 " />
<polyline points="334.894,309.685 335.709,307.347 337.297,305.803 338.873,305.042 341.222,305.075 " />
<polyline points="331.837,324.026 323.525,342.216 " />
<polyline points="49.8385,176.657 48.2728,177.44 46.7071,179.005 45.9242,180.571 45.1413,182.92 45.1413,186.834 45.9242,189.183 46.7071,190.748 48.2728,192.314 49.8385,193.097 52.97,193.097 54.5357,192.314 56.1015,190.748 56.8843,189.183 57.6672,186.834 57.6672,182.92 56.8843,180.571 56.1015,179.005 54.5357,177.44 52.97,176.657 49.8385,176.657 " />
<polyline points="52.1871,189.966 56.8843,194.663 " />
<polyline points="613.9,402.202 669.74,402.202 " />
<polyline points="685.27,394.73 686.835,393.947 689.184,391.598 689.184,408.038 " />
<polyline points="699.361,395.512 699.361,394.73 700.144,393.164 700.927,392.381 702.493,391.598 705.624,391.598 707.19,392.381 707.973,393.164 708.756,394.73 708.756,396.295 707.973,397.861 706.407,400.21 698.578,408.038 709.539,408.038 " />
<polyline points="730.676,392.381 731.459,393.164 732.242,392.381 731.459,391.598 730.676,392.381 " />
<polyline points="731.459,397.861 731.459,408.038 " />
<polyline points="737.722,397.078 737.722,408.038 " />
<polyline points="737.722,400.21 740.07,397.861 741.636,397.078 743.985,397.078 745.551,397.861 746.333,400.21 746.333,408.038 " />
<polyline points="753.379,406.473 752.596,407.256 753.379,408.038 754.162,407.256 753.379,406.473 " />
<polyline points="765.905,388.467 764.339,390.032 762.774,392.381 761.208,395.512 760.425,399.427 760.425,402.558 761.208,406.473 762.774,409.604 764.339,411.953 765.905,413.518 " />
<polyline points="772.168,391.598 780.78,391.598 776.082,397.861 778.431,397.861 779.997,398.644 780.78,399.427 781.562,401.775 781.562,403.341 780.78,405.69 779.214,407.256 776.865,408.038 774.517,408.038 772.168,407.256 771.385,406.473 770.602,404.907 " />
<polyline points="790.957,391.598 788.608,392.381 787.042,394.73 786.26,398.644 786.26,400.993 787.042,404.907 788.608,407.256 790.957,408.038 792.523,408.038 794.871,407.256 796.437,404.907 797.22,400.993 797.22,398.644 796.437,394.73 794.871,392.381 792.523,391.598 790.957,391.598 " />
<polyline points="806.614,391.598 804.266,392.381 802.7,394.73 801.917,398.644 801.917,400.993 802.7,404.907 804.266,407.256 806.614,408.038 808.18,408.038 810.529,407.256 812.094,404.907 812.877,400.993 812.877,398.644 812.094,394.73 810.529,392.381 808.18,391.598 806.614,391.598 " />
<polyline points="818.357,397.078 818.357,408.038 " />
<polyline points="818.357,400.21 820.706,397.861 822.272,397.078 824.62,397.078 826.186,397.861 826.969,400.21 826.969,408.038 " />
<polyline points="826.969,400.21 829.317,397.861 830.883,397.078 833.232,397.078 834.797,397.861 835.58,400.21 835.58,408.038 " />
<polyline points="841.843,397.078 841.843,408.038 " />
<polyline points="841.843,400.21 844.192,397.861 845.758,397.078 848.106,397.078 849.672,397.861 850.455,400.21 850.455,408.038 " />
<polyline points="850.455,400.21 852.803,397.861 854.369,397.078 856.718,397.078 858.283,397.861 859.066,400.21 859.066,408.038 " />
<polyline points="864.546,388.467 866.112,390.032 867.678,392.381 869.244,395.512 870.026,399.427 870.026,402.558 869.244,406.473 867.678,409.604 866.112,411.953 864.546,413.518 " />
<polyline points="52.2082,225.289 45.9453,241.73 " />
<polyline points="52.2082,225.289 58.4712,241.73 " />
<polyline points="48.2939,236.25 56.1226,236.25 " />
<polyline points="867.832,642.524 866.684,640.228 864.387,637.932 862.091,636.783 857.498,636.783 855.202,637.932 852.905,640.228 851.757,642.524 850.609,645.969 850.609,651.71 851.757,655.155 852.905,657.451 855.202,659.747 857.498,660.896 862.091,660.896 864.387,659.747 866.684,657.451 867.832,655.155 " />
<polyline points="875.869,636.783 875.869,660.896 " />
<polyline points="875.869,636.783 886.203,636.783 889.648,637.932 890.796,639.08 891.944,641.376 891.944,643.673 890.796,645.969 889.648,647.117 886.203,648.265 875.869,648.265 " />
<polyline points="883.907,648.265 891.944,660.896 " />
<polyline points="901.13,636.783 913.76,636.783 906.871,645.969 910.316,645.969 912.612,647.117 913.76,648.265 914.908,651.71 914.908,654.006 913.76,657.451 911.464,659.747 908.019,660.896 904.575,660.896 901.13,659.747 899.982,658.599 898.834,656.303 " />
<polyline points="922.946,650.562 943.614,650.562 " />
<polyline points="955.096,641.376 957.392,640.228 960.837,636.783 960.837,660.896 " />
<polyline points="989.542,644.821 988.394,648.265 986.097,650.562 982.653,651.71 981.504,651.71 978.06,650.562 975.763,648.265 974.615,644.821 974.615,643.673 975.763,640.228 978.06,637.932 981.504,636.783 982.653,636.783 986.097,637.932 988.394,640.228 989.542,644.821 989.542,650.562 988.394,656.303 986.097,659.747 982.653,660.896 980.356,660.896 976.912,659.747 975.763,657.451 " />
</g>
<g clip-path="url(#clipId0)" fill="none" stroke="rgb(0,0,0)" stroke-width="0.1" >
<polyline points="315.849,342.213 331.209,342.213 " />
<polyline points="323.529,349.893 323.529,334.533 " />
<polyline points="623.518,154.171 638.878,154.171 " />
<polyline points="631.198,161.851 631.198,146.491 " />
</g>
<g clip-path="url(#clipId0)" fill="none" stroke="rgb(0,0,0)" stroke-width="0.25" >
<polyline points="213.725,198.902 217.639,215.342 " />
<polyline points="221.554,198.902 217.639,215.342 " />
<polyline points="221.554,198.902 225.468,215.342 " />
<polyline points="229.382,198.902 225.468,215.342 " />
<polyline points="249.737,204.382 258.349,215.342 " />
<polyline points="258.349,204.382 249.737,215.342 " />
<polyline points="280.269,198.902 280.269,215.342 " />
<polyline points="291.229,198.902 291.229,215.342 " />
<polyline points="280.269,206.73 291.229,206.73 " />
<polyline points="163.5,531.942 163.5,548.382 172.894,548.382 " />
<polyline points="189.334,528.81 175.243,553.862 " />
<polyline points="192.466,531.942 196.38,548.382 " />
<polyline points="200.294,531.942 196.38,548.382 " />
<polyline points="200.294,531.942 204.209,548.382 " />
<polyline points="208.123,531.942 204.209,548.382 " />
<polyline points="229.261,538.988 243.352,538.988 " />
<polyline points="229.261,543.685 243.352,543.685 " />
<polyline points="267.621,535.073 269.187,534.29 271.535,531.942 271.535,548.382 " />
<polyline points="282.496,546.816 281.713,547.599 282.496,548.382 283.278,547.599 282.496,546.816 " />
<polyline points="298.153,531.942 290.324,531.942 289.541,538.988 290.324,538.205 292.673,537.422 295.021,537.422 297.37,538.205 298.936,539.77 299.719,542.119 299.719,543.685 298.936,546.033 297.37,547.599 295.021,548.382 292.673,548.382 290.324,547.599 289.541,546.816 288.758,545.251 " />
<polyline points="163.5,567.56 163.5,584.001 " />
<polyline points="174.46,567.56 174.46,584.001 " />
<polyline points="163.5,575.389 174.46,575.389 " />
<polyline points="193.249,564.429 179.157,589.481 " />
<polyline points="196.38,567.56 200.294,584.001 " />
<polyline points="204.209,567.56 200.294,584.001 " />
<polyline points="204.209,567.56 208.123,584.001 " />
<polyline points="212.037,567.56 208.123,584.001 " />
<polyline points="233.175,569.909 245.701,576.955 233.175,584.001 " />
<polyline points="269.97,570.692 271.535,569.909 273.884,567.56 273.884,584.001 " />
<polyline points="170.255,609.431 170.255,620.391 " />
<polyline points="170.255,614.128 171.038,611.779 172.604,610.213 174.169,609.431 176.518,609.431 " />
<polyline points="192.958,600.819 178.867,625.871 " />
<polyline points="196.09,603.951 200.004,620.391 " />
<polyline points="203.918,603.951 200.004,620.391 " />
<polyline points="203.918,603.951 207.833,620.391 " />
<polyline points="211.747,603.951 207.833,620.391 " />
<polyline points="232.884,610.996 246.976,610.996 " />
<polyline points="232.884,615.694 246.976,615.694 " />
<polyline points="271.245,607.082 272.811,606.299 275.159,603.951 275.159,620.391 " />
<polyline points="286.119,618.825 285.337,619.608 286.119,620.391 286.902,619.608 286.119,618.825 " />
<polyline points="301.777,603.951 293.948,603.951 293.165,610.996 293.948,610.213 296.297,609.431 298.645,609.431 300.994,610.213 302.56,611.779 303.343,614.128 303.343,615.694 302.56,618.042 300.994,619.608 298.645,620.391 296.297,620.391 293.948,619.608 293.165,618.825 292.382,617.259 " />
</g>
</svg>
