<?xml version="1.0" standalone="no"?>
<svg viewBox="0 0 1024 768" version="1.1" xmlns="http://www.w3.org/2000/svg" xmlns:xlink="http://www.w3.org/1999/xlink" stroke-linecap="round" stroke-linejoin="round" fill-rule="evenodd" xml:space="preserve" >
<defs >
<clipPath id="clipId0" >
<path d="M0,768 1024,768 1024,0 0,0 z" />
</clipPath>
</defs>
<g clip-path="url(#clipId0)" fill="none" stroke="rgb(0,0,0)" stroke-width="0.1" />
<g clip-path="url(#clipId0)" fill="none" stroke="rgb(0,0,0)" stroke-width="0.25" >
<polyline points="638.009,390.757 638.009,320.699 " />
<polyline points="825.911,390.757 825.911,38.8464 " />
<polyline points="825.911,38.8464 474,38.8464 " />
<polyline points="544.058,226.748 474,226.748 " />
<polyline points="638.009,367.61 825.911,367.61 " />
<polyline points="497.163,226.748 497.163,38.8464 " />
</g>
<g clip-path="url(#clipId0)" fill="rgb(0,0,0)" stroke="rgb(0,0,0)" stroke-width="0.25" >
<path d="M404.389,133.357 404.389,127.094 423.179,130.225 423.179,130.225 z" />
</g>
<g clip-path="url(#clipId0)" fill="none" stroke="rgb(0,0,0)" stroke-width="0.25" >
<polyline points="404.389,130.225 317.181,130.225 " />
<polyline points="359.359,169.243 357.569,170.138 355.78,171.928 354.885,174.612 354.885,176.402 355.78,179.086 357.569,180.875 359.359,181.77 362.043,181.77 363.833,180.875 365.622,179.086 366.517,176.402 366.517,174.612 365.622,171.928 363.833,170.138 362.043,169.243 359.359,169.243 " />
<polyline points="638.009,320.699 544.058,226.748 " />
<polyline points="632.473,326.235 560.623,398.085 " />
<polyline points="538.522,232.284 466.673,304.134 " />
<polyline points="563.281,368.854 550.261,355.834 " />
<polyline points="495.903,301.476 508.923,314.497 " />
</g>
<g clip-path="url(#clipId0)" fill="rgb(0,0,0)" stroke="rgb(0,0,0)" stroke-width="0.25" >
<path d="M561.066,371.068 565.495,366.64 576.567,382.141 576.567,382.141 z" />
<path d="M493.689,303.691 498.118,299.262 482.617,288.19 482.617,288.19 z" />
</g>
<g clip-path="url(#clipId0)" fill="none" stroke="rgb(0,0,0)" stroke-width="0.25" >
<polyline points="527.802,325.77 527.802,344.56 538.54,344.56 " />
<polyline points="203.086,226.748 203.086,161.212 " />
<polyline points="474,38.8464 203.086,38.8464 " />
<polyline points="474,226.748 203.086,226.748 " />
<polyline points="337.433,92.78 335.644,93.6747 333.854,95.4643 332.959,97.2538 332.065,99.9381 332.065,104.412 332.959,107.096 333.854,108.886 335.644,110.675 337.433,111.57 341.012,111.57 342.802,110.675 344.591,108.886 345.486,107.096 346.381,104.412 346.381,99.9381 345.486,97.2538 344.591,95.4643 342.802,93.6747 341.012,92.78 337.433,92.78 " />
<polyline points="340.118,107.991 345.486,113.36 " />
<polyline points="337.637,151.702 330.479,170.492 " />
<polyline points="337.637,151.702 344.795,170.492 " />
<polyline points="333.163,164.229 342.111,164.229 " />
<polyline points="203.086,89.1979 243.982,107.201 " />
<polyline points="243.982,107.201 166.772,135.493 " />
<polyline points="166.772,135.493 203.086,161.212 " />
<polyline points="203.086,89.1979 203.086,38.8464 " />
<polyline points="638.009,390.757 638.009,530.503 " />
<polyline points="825.911,390.757 825.911,530.503 " />
<polyline points="734.655,582.248 760.374,545.935 " />
<polyline points="706.364,505.038 734.655,582.248 " />
<polyline points="825.911,545.935 760.374,545.935 " />
<polyline points="688.36,545.935 706.364,505.038 " />
<polyline points="688.36,545.935 638.009,545.935 " />
<polyline points="688.479,433.049 692.953,451.839 " />
<polyline points="697.426,433.049 692.953,451.839 " />
<polyline points="697.426,433.049 701.9,451.839 " />
<polyline points="706.374,433.049 701.9,451.839 " />
<polyline points="729.638,439.313 739.481,451.839 " />
<polyline points="739.481,439.313 729.638,451.839 " />
<polyline points="764.534,433.049 764.534,451.839 " />
<polyline points="777.061,433.049 777.061,451.839 " />
<polyline points="764.534,441.997 777.061,441.997 " />
<polyline points="203.086,38.8464 203.086,7.52941 " />
<polyline points="203.086,226.748 203.086,258.065 " />
<polyline points="825.911,545.935 857.228,545.935 " />
<polyline points="638.009,545.935 606.692,545.935 " />
<polyline points="825.911,530.503 825.911,545.935 " />
<polyline points="638.009,530.503 638.009,545.935 " />
<polyline points="317.181,130.225 287.772,130.349 " />
<polyline points="741.195,739.473 739.883,736.849 737.258,734.224 734.633,732.912 729.384,732.912 726.759,734.224 724.135,736.849 722.822,739.473 721.51,743.41 721.51,749.972 722.822,753.909 724.135,756.534 726.759,759.158 729.384,760.471 734.633,760.471 737.258,759.158 739.883,756.534 741.195,753.909 " />
<polyline points="750.381,732.912 750.381,760.471 " />
<polyline points="750.381,732.912 762.192,732.912 766.129,734.224 767.442,735.536 768.754,738.161 768.754,740.786 767.442,743.41 766.129,744.723 762.192,746.035 750.381,746.035 " />
<polyline points="759.568,746.035 768.754,760.471 " />
<polyline points="779.253,732.912 793.688,732.912 785.814,743.41 789.751,743.41 792.376,744.723 793.688,746.035 795.001,749.972 795.001,752.597 793.688,756.534 791.064,759.158 787.127,760.471 783.19,760.471 779.253,759.158 777.94,757.846 776.628,755.221 " />
<polyline points="804.187,748.66 827.809,748.66 " />
<polyline points="843.557,732.912 839.62,734.224 838.308,736.849 838.308,739.473 839.62,742.098 842.245,743.41 847.494,744.723 851.431,746.035 854.055,748.66 855.368,751.284 855.368,755.221 854.055,757.846 852.743,759.158 848.806,760.471 843.557,760.471 839.62,759.158 838.308,757.846 836.995,755.221 836.995,751.284 838.308,748.66 840.932,746.035 844.869,744.723 850.119,743.41 852.743,742.098 854.055,739.473 854.055,736.849 852.743,734.224 848.806,732.912 843.557,732.912 " />
</g>
</svg>
