<?xml version="1.0" standalone="no"?>
<svg viewBox="0 0 1024 768" version="1.1" xmlns="http://www.w3.org/2000/svg" xmlns:xlink="http://www.w3.org/1999/xlink" stroke-linecap="round" stroke-linejoin="round" fill-rule="evenodd" xml:space="preserve" >
<defs >
<clipPath id="clipId0" >
<path d="M0,768 1024,768 1024,0 0,0 z" />
</clipPath>
</defs>
<g clip-path="url(#clipId0)" fill="none" stroke="rgb(0,0,0)" stroke-width="0.1" />
<g clip-path="url(#clipId0)" fill="none" stroke="rgb(0,0,0)" stroke-width="0.25" >
<polyline points="53.6345,431.449 422.038,431.449 " />
<polyline points="53.6345,471.068 53.6345,237.318 " />
<polyline points="53.6345,39.2244 425.283,39.2244 " />
<polyline points="960.632,471.068 960.632,245.241 " />
<polyline points="53.6345,193.737 53.6345,7.52941 " />
<polyline points="53.6345,237.318 17.9445,229.394 " />
<polyline points="17.9445,229.394 99.058,213.547 " />
<polyline points="99.058,213.547 53.6345,193.737 " />
<polyline points="924.942,237.318 1006.06,221.47 " />
<polyline points="1006.06,221.47 960.632,201.661 " />
<polyline points="960.632,245.241 924.942,237.318 " />
<polyline points="960.632,201.661 960.632,7.52941 " />
<polyline points="422.038,166.004 545.447,166.004 " />
<polyline points="545.447,166.004 545.447,39.2244 " />
<polyline points="422.038,39.2244 422.038,300.708 " />
<polyline points="422.038,300.708 545.447,300.708 " />
<polyline points="545.447,166.004 545.447,304.669 " />
<polyline points="422.038,300.708 422.038,431.449 " />
<polyline points="545.447,300.708 545.447,431.449 " />
<polyline points="590.754,431.449 960.632,431.449 " />
<polyline points="422.038,431.449 590.754,431.449 " />
<polyline points="590.754,39.2244 960.632,39.2244 " />
<polyline points="425.283,39.2244 590.754,39.2244 " />
</g>
<g clip-path="url(#clipId0)" fill="rgb(0,0,0)" stroke="rgb(0,0,0)" stroke-width="0.25" >
<path d="M809.406,225.311 809.406,233.477 833.905,229.394 833.905,229.394 z" />
</g>
<g clip-path="url(#clipId0)" fill="none" stroke="rgb(0,0,0)" stroke-width="0.25" >
<polyline points="809.406,229.394 724.719,229.394 " />
</g>
<g clip-path="url(#clipId0)" fill="rgb(0,0,0)" stroke="rgb(0,0,0)" stroke-width="0.25" >
<path d="M517.967,229.273 517.967,237.439 542.466,233.356 542.466,233.356 z" />
</g>
<g clip-path="url(#clipId0)" fill="none" stroke="rgb(0,0,0)" stroke-width="0.25" >
<polyline points="517.967,233.356 430.36,233.356 " />
<polyline points="421.932,233.356 421.932,233.356 " />
<polyline points="440.58,166.004 545.447,61.1367 " />
<polyline points="422.038,160.486 543.3,39.2244 " />
<polyline points="422.038,136.426 519.24,39.2244 " />
<polyline points="422.038,112.367 495.181,39.2244 " />
<polyline points="422.038,88.307 471.121,39.2244 " />
<polyline points="422.038,64.2474 447.061,39.2244 " />
<polyline points="464.639,166.004 545.447,85.1964 " />
<polyline points="488.699,166.004 545.447,109.256 " />
<polyline points="512.759,166.004 545.447,133.316 " />
<polyline points="536.818,166.004 545.447,157.375 " />
<polyline points="439.79,431.449 545.447,325.793 " />
<polyline points="422.038,425.142 546.472,300.708 " />
<polyline points="422.038,401.082 522.413,300.708 " />
<polyline points="422.038,377.023 498.353,300.708 " />
<polyline points="422.038,352.963 474.294,300.708 " />
<polyline points="422.038,328.903 450.234,300.708 " />
<polyline points="422.038,304.844 426.174,300.708 " />
<polyline points="463.85,431.449 545.447,349.852 " />
<polyline points="487.91,431.449 545.447,373.912 " />
<polyline points="511.969,431.449 545.447,397.972 " />
<polyline points="536.029,431.449 545.447,422.031 " />
<polyline points="732.877,193.164 725.099,213.579 " />
<polyline points="732.877,193.164 740.654,213.579 " />
<polyline points="728.016,206.774 737.737,206.774 " />
<polyline points="752.168,206.787 750.418,207.37 749.252,209.12 748.668,212.037 748.668,213.787 749.252,216.703 750.418,218.453 752.168,219.036 753.335,219.036 755.085,218.453 756.251,216.703 756.834,213.787 756.834,212.037 756.251,209.12 755.085,207.37 753.335,206.787 752.168,206.787 " />
<polyline points="730.896,241.438 728.952,242.41 727.008,244.354 726.036,246.298 725.063,249.215 725.063,254.076 726.036,256.992 727.008,258.936 728.952,260.881 730.896,261.853 734.785,261.853 736.729,260.881 738.674,258.936 739.646,256.992 740.618,254.076 740.618,249.215 739.646,246.298 738.674,244.354 736.729,242.41 734.785,241.438 730.896,241.438 " />
<polyline points="733.813,257.964 739.646,263.797 " />
<polyline points="476.105,199.797 468.328,220.212 " />
<polyline points="476.105,199.797 483.882,220.212 " />
<polyline points="471.244,213.407 480.966,213.407 " />
<polyline points="492.57,215.085 493.737,214.502 495.487,212.752 495.487,225.001 " />
<polyline points="430.365,249.029 435.226,269.444 " />
<polyline points="440.087,249.029 435.226,269.444 " />
<polyline points="440.087,249.029 444.948,269.444 " />
<polyline points="449.808,249.029 444.948,269.444 " />
<polyline points="475.084,255.834 485.778,269.444 " />
<polyline points="485.778,255.834 475.084,269.444 " />
<polyline points="512.998,249.029 512.998,269.444 " />
<polyline points="526.609,249.029 526.609,269.444 " />
<polyline points="512.998,258.75 526.609,258.75 " />
<polyline points="454.632,265.419 455.799,264.835 457.549,263.086 457.549,275.335 " />
<polyline points="535.61,264.317 536.777,263.733 538.527,261.984 538.527,274.233 " />
<polyline points="54.3285,634.451 54.3285,654.867 65.9943,654.867 " />
<polyline points="86.4096,630.563 68.9108,661.672 " />
<polyline points="92.2425,634.451 92.2425,654.867 " />
<polyline points="92.2425,634.451 99.0476,634.451 101.964,635.423 103.908,637.368 104.881,639.312 105.853,642.228 105.853,647.089 104.881,650.006 103.908,651.95 101.964,653.894 99.0476,654.867 92.2425,654.867 " />
<polyline points="112.658,634.451 112.658,654.867 " />
<polyline points="112.658,645.145 115.574,642.228 117.519,641.256 120.435,641.256 122.379,642.228 123.352,645.145 123.352,654.867 " />
<polyline points="151.544,637.368 167.099,646.117 151.544,654.867 " />
<polyline points="200.152,634.451 197.235,635.423 195.291,638.34 194.319,643.201 194.319,646.117 195.291,650.978 197.235,653.894 200.152,654.867 202.096,654.867 205.013,653.894 206.957,650.978 207.929,646.117 207.929,643.201 206.957,638.34 205.013,635.423 202.096,634.451 200.152,634.451 " />
<polyline points="215.706,652.922 214.734,653.894 215.706,654.867 216.678,653.894 215.706,652.922 " />
<polyline points="229.316,634.451 226.4,635.423 224.456,638.34 223.484,643.201 223.484,646.117 224.456,650.978 226.4,653.894 229.316,654.867 231.261,654.867 234.177,653.894 236.122,650.978 237.094,646.117 237.094,643.201 236.122,638.34 234.177,635.423 231.261,634.451 229.316,634.451 " />
<polyline points="245.843,638.34 247.787,637.368 250.704,634.451 250.704,654.867 " />
<polyline points="274.036,634.451 264.314,634.451 263.342,643.201 264.314,642.228 267.231,641.256 270.147,641.256 273.064,642.228 275.008,644.173 275.98,647.089 275.98,649.034 275.008,651.95 273.064,653.894 270.147,654.867 267.231,654.867 264.314,653.894 263.342,652.922 262.37,650.978 " />
<polyline points="54.3285,685.723 54.3285,706.138 " />
<polyline points="54.3285,685.723 61.1336,685.723 64.05,686.695 65.9943,688.639 66.9665,690.584 67.9386,693.5 67.9386,698.361 66.9665,701.277 65.9943,703.222 64.05,705.166 61.1336,706.138 54.3285,706.138 " />
<polyline points="74.7437,685.723 74.7437,706.138 " />
<polyline points="74.7437,696.417 77.6602,693.5 79.6045,692.528 82.521,692.528 84.4653,693.5 85.4374,696.417 85.4374,706.138 " />
<polyline points="113.63,694.472 131.129,694.472 " />
<polyline points="113.63,700.305 131.129,700.305 " />
<polyline points="159.321,690.584 159.321,689.612 160.293,687.667 161.266,686.695 163.21,685.723 167.099,685.723 169.043,686.695 170.015,687.667 170.987,689.612 170.987,691.556 170.015,693.5 168.071,696.417 158.349,706.138 171.959,706.138 " />
<polyline points="183.625,685.723 175.848,706.138 " />
<polyline points="183.625,685.723 191.402,706.138 " />
<polyline points="178.764,699.333 188.486,699.333 " />
<polyline points="232.233,681.834 214.734,712.943 " />
<polyline points="244.871,681.834 242.927,683.779 240.982,686.695 239.038,690.584 238.066,695.444 238.066,699.333 239.038,704.194 240.982,708.082 242.927,710.999 244.871,712.943 " />
<polyline points="251.676,685.723 251.676,706.138 " />
<polyline points="265.286,685.723 265.286,706.138 " />
<polyline points="251.676,695.444 265.286,695.444 " />
<polyline points="302.228,688.639 302.228,706.138 " />
<polyline points="293.479,697.389 310.978,697.389 " />
<polyline points="337.226,685.723 342.087,706.138 " />
<polyline points="346.947,685.723 342.087,706.138 " />
<polyline points="346.947,685.723 351.808,706.138 " />
<polyline points="356.669,685.723 351.808,706.138 " />
<polyline points="381.945,681.834 383.889,683.779 385.834,686.695 387.778,690.584 388.75,695.444 388.75,699.333 387.778,704.194 385.834,708.082 383.889,710.999 381.945,712.943 " />
<polyline points="197.983,701.779 199.149,701.195 200.899,699.445 200.899,711.695 " />
<polyline points="272.878,701.779 274.045,701.195 275.795,699.445 275.795,711.695 " />
<polyline points="365.512,702.265 366.678,701.682 368.428,699.932 368.428,712.181 " />
<polyline points="422.038,439.956 422.038,515.376 " />
<polyline points="545.601,439.956 545.601,515.376 " />
<polyline points="446.537,490.877 470.764,490.877 " />
<polyline points="521.103,490.877 505.069,490.877 " />
</g>
<g clip-path="url(#clipId0)" fill="rgb(0,0,0)" stroke="rgb(0,0,0)" stroke-width="0.25" >
<path d="M446.537,494.96 446.537,486.794 422.038,490.877 422.038,490.877 z" />
<path d="M521.103,494.96 521.103,486.794 545.601,490.877 545.601,490.877 z" />
</g>
<g clip-path="url(#clipId0)" fill="none" stroke="rgb(0,0,0)" stroke-width="0.25" >
<polyline points="484.235,478.628 484.235,503.126 500.568,503.126 " />
</g>
<g clip-path="url(#clipId0)" fill="none" stroke="rgb(0,0,0)" stroke-width="0.1" >
<polyline points="422.038,431.449 422.038,431.449 " />
<polyline points="590.754,431.449 590.754,431.449 " />
<polyline points="545.601,490.877 545.601,490.877 " />
</g>
<g clip-path="url(#clipId0)" fill="none" stroke="rgb(0,0,0)" stroke-width="0.25" >
<polyline points="219.217,246.818 217.467,247.402 216.3,249.152 215.717,252.068 215.717,253.818 216.3,256.734 217.467,258.484 219.217,259.068 220.383,259.068 222.133,258.484 223.3,256.734 223.883,253.818 223.883,252.068 223.3,249.152 222.133,247.402 220.383,246.818 219.217,246.818 " />
<polyline points="320.864,248.645 319.114,249.228 317.948,250.978 317.364,253.894 317.364,255.644 317.948,258.561 319.114,260.311 320.864,260.894 322.031,260.894 323.781,260.311 324.947,258.561 325.531,255.644 325.531,253.894 324.947,250.978 323.781,249.228 322.031,248.645 320.864,248.645 " />
<polyline points="724.719,229.394 678.673,229.394 " />
<polyline points="192.909,222.129 197.77,242.544 " />
<polyline points="202.631,222.129 197.77,242.544 " />
<polyline points="202.631,222.129 207.492,242.544 " />
<polyline points="212.352,222.129 207.492,242.544 " />
<polyline points="258.044,228.934 268.737,242.544 " />
<polyline points="268.737,228.934 258.044,242.544 " />
<polyline points="295.958,222.129 295.958,242.544 " />
<polyline points="309.568,222.129 309.568,242.544 " />
<polyline points="295.958,231.85 309.568,231.85 " />
<polyline points="838.557,737.657 837.131,734.806 834.28,731.954 831.428,730.528 825.725,730.528 822.873,731.954 820.022,734.806 818.596,737.657 817.17,741.935 817.17,749.064 818.596,753.341 820.022,756.193 822.873,759.045 825.725,760.471 831.428,760.471 834.28,759.045 837.131,756.193 838.557,753.341 " />
<polyline points="848.538,730.528 848.538,760.471 " />
<polyline points="848.538,730.528 861.371,730.528 865.648,731.954 867.074,733.38 868.5,736.232 868.5,739.083 867.074,741.935 865.648,743.361 861.371,744.786 848.538,744.786 " />
<polyline points="858.519,744.786 868.5,760.471 " />
<polyline points="895.59,734.806 894.165,731.954 889.887,730.528 887.035,730.528 882.758,731.954 879.906,736.232 878.48,743.361 878.48,750.49 879.906,756.193 882.758,759.045 887.035,760.471 888.461,760.471 892.739,759.045 895.59,756.193 897.016,751.916 897.016,750.49 895.59,746.212 892.739,743.361 888.461,741.935 887.035,741.935 882.758,743.361 879.906,746.212 878.48,750.49 " />
<polyline points="906.997,747.638 932.662,747.638 " />
<polyline points="945.494,730.528 961.179,730.528 952.624,741.935 956.901,741.935 959.753,743.361 961.179,744.786 962.604,749.064 962.604,751.916 961.179,756.193 958.327,759.045 954.049,760.471 949.772,760.471 945.494,759.045 944.069,757.619 942.643,754.767 " />
</g>
</svg>
