<?xml version="1.0" standalone="no"?>
<svg viewBox="0 0 1024 768" version="1.1" xmlns="http://www.w3.org/2000/svg" xmlns:xlink="http://www.w3.org/1999/xlink" stroke-linecap="round" stroke-linejoin="round" fill-rule="evenodd" xml:space="preserve" >
<defs >
<clipPath id="clipId0" >
<path d="M0,768 1024,768 1024,0 0,0 z" />
</clipPath>
</defs>
<g clip-path="url(#clipId0)" fill="none" stroke="rgb(0,0,0)" stroke-width="0.1" />
<g clip-path="url(#clipId0)" fill="none" stroke="rgb(0,0,0)" stroke-width="0.25" >
<polyline points="991.655,180.973 511.695,180.973 " />
<polyline points="611.551,72.5628 606.066,86.9616 " />
<polyline points="611.551,72.5628 617.037,86.9616 " />
<polyline points="608.123,82.162 614.98,82.162 " />
<polyline points="626.615,89.8361 625.243,90.5218 623.872,91.8931 623.186,93.95 623.186,95.3214 623.872,97.3783 625.243,98.7496 626.615,99.4353 628.672,99.4353 630.043,98.7496 631.414,97.3783 632.1,95.3214 632.1,93.95 631.414,91.8931 630.043,90.5218 628.672,89.8361 626.615,89.8361 " />
<polyline points="687.142,108.979 569.549,108.979 " />
</g>
<g clip-path="url(#clipId0)" fill="rgb(0,0,0)" stroke="rgb(0,0,0)" stroke-width="0.25" >
<path d="M687.142,106.579 687.142,111.379 701.541,108.979 701.541,108.979 z" />
</g>
<g clip-path="url(#clipId0)" fill="none" stroke="rgb(0,0,0)" stroke-width="0.25" >
<polyline points="991.655,36.9849 511.695,36.9849 " />
<polyline points="344.627,180.973 344.627,36.9849 " />
<polyline points="344.627,36.9849 200.639,36.9849 " />
<polyline points="200.639,36.9849 200.639,180.973 " />
<polyline points="200.639,180.973 344.627,180.973 " />
<polyline points="969.349,96.1006 1013.96,121.857 " />
<polyline points="969.349,96.1006 991.655,96.1006 " />
<polyline points="1013.96,121.857 991.655,121.857 " />
<polyline points="991.655,8.18728 991.655,96.1006 " />
<polyline points="991.655,121.857 991.655,209.77 " />
<polyline points="511.695,121.857 511.695,209.77 " />
<polyline points="511.695,8.18728 511.695,96.1006 " />
<polyline points="534.001,121.857 511.695,121.857 " />
<polyline points="489.39,96.1006 511.695,96.1006 " />
<polyline points="489.39,96.1006 534.001,121.857 " />
<polyline points="751.675,180.973 751.675,36.9849 " stroke-dasharray="23.997980,11.998990" />
<polyline points="991.655,345.4 991.655,433.313 " />
<polyline points="991.655,231.73 991.655,319.643 " />
<polyline points="1013.96,345.4 991.655,345.4 " />
<polyline points="969.349,319.643 991.655,319.643 " />
<polyline points="969.349,319.643 1013.96,345.4 " />
<polyline points="991.655,260.528 646.038,260.528 " />
</g>
<g clip-path="url(#clipId0)" fill="rgb(0,0,0)" stroke="rgb(0,0,0)" stroke-width="0.25" >
<path d="M816.907,325.902 816.907,321.102 802.508,323.502 802.508,323.502 z" />
</g>
<g clip-path="url(#clipId0)" fill="none" stroke="rgb(0,0,0)" stroke-width="0.25" >
<polyline points="816.907,323.502 952.306,323.502 " />
<polyline points="867.841,309.437 866.469,310.123 865.098,311.494 864.413,313.551 864.413,314.922 865.098,316.979 866.469,318.351 867.841,319.036 869.898,319.036 871.269,318.351 872.64,316.979 873.326,314.922 873.326,313.551 872.64,311.494 871.269,310.123 869.898,309.437 867.841,309.437 " />
<polyline points="854.75,292.164 849.264,306.563 " />
<polyline points="854.75,292.164 860.235,306.563 " />
<polyline points="851.321,301.763 858.178,301.763 " />
<polyline points="991.655,404.516 646.038,404.516 " />
<polyline points="511.695,368.519 511.695,296.525 " stroke-dasharray="23.997980,11.998990" />
<polyline points="511.695,368.519 646.038,404.516 " />
<polyline points="511.695,296.525 646.038,260.528 " />
<polyline points="646.038,404.516 646.038,260.528 " />
<polyline points="502.616,487.963 991.254,487.963 " />
<polyline points="430.622,703.944 430.622,415.969 " stroke-dasharray="23.997980,11.998990" />
<polyline points="502.616,631.95 991.254,631.95 " />
<polyline points="502.616,631.95 502.616,487.963 " />
<polyline points="648.25,515.657 642.765,530.056 " />
<polyline points="648.25,515.657 653.736,530.056 " />
<polyline points="644.822,525.256 651.679,525.256 " />
<polyline points="663.314,527.018 661.942,527.703 660.571,529.075 659.885,531.132 659.885,532.503 660.571,534.56 661.942,535.931 663.314,536.617 665.371,536.617 666.742,535.931 668.113,534.56 668.799,532.503 668.799,531.132 668.113,529.075 666.742,527.703 665.371,527.018 663.314,527.018 " />
<polyline points="600.555,550.241 735.954,550.241 " />
</g>
<g clip-path="url(#clipId0)" fill="rgb(0,0,0)" stroke="rgb(0,0,0)" stroke-width="0.25" >
<path d="M600.555,552.641 600.555,547.841 586.156,550.241 586.156,550.241 z" />
</g>
<g clip-path="url(#clipId0)" fill="none" stroke="rgb(0,0,0)" stroke-width="0.25" >
<polyline points="10.88,629.605 10.88,639.205 " />
<polyline points="10.88,632.348 12.937,630.291 14.3083,629.605 16.3652,629.605 17.7366,630.291 18.4222,632.348 18.4222,639.205 " />
<polyline points="38.3063,630.977 50.6481,630.977 " />
<polyline points="38.3063,635.091 50.6481,635.091 " />
<polyline points="74.6461,624.806 73.2747,624.806 71.9034,625.491 71.2178,627.548 71.2178,639.205 " />
<polyline points="69.1608,629.605 73.9604,629.605 " />
<polyline points="78.76,629.605 78.76,639.205 " />
<polyline points="78.76,633.719 79.4457,631.662 80.817,630.291 82.1883,629.605 84.2452,629.605 " />
<polyline points="86.9879,633.719 95.2158,633.719 95.2158,632.348 94.5301,630.977 93.8444,630.291 92.4731,629.605 90.4162,629.605 89.0448,630.291 87.6735,631.662 86.9879,633.719 86.9879,635.091 87.6735,637.148 89.0448,638.519 90.4162,639.205 92.4731,639.205 93.8444,638.519 95.2158,637.148 " />
<polyline points="99.3297,633.719 107.558,633.719 107.558,632.348 106.872,630.977 106.186,630.291 104.815,629.605 102.758,629.605 101.387,630.291 100.015,631.662 99.3297,633.719 99.3297,635.091 100.015,637.148 101.387,638.519 102.758,639.205 104.815,639.205 106.186,638.519 107.558,637.148 " />
<polyline points="134.298,629.605 134.298,639.205 " />
<polyline points="134.298,631.662 132.927,630.291 131.556,629.605 129.499,629.605 128.127,630.291 126.756,631.662 126.07,633.719 126.07,635.091 126.756,637.148 128.127,638.519 129.499,639.205 131.556,639.205 132.927,638.519 134.298,637.148 " />
<polyline points="139.783,629.605 139.783,639.205 " />
<polyline points="139.783,633.719 140.469,631.662 141.84,630.291 143.212,629.605 145.269,629.605 " />
<polyline points="148.011,633.719 156.239,633.719 156.239,632.348 155.554,630.977 154.868,630.291 153.497,629.605 151.44,629.605 150.068,630.291 148.697,631.662 148.011,633.719 148.011,635.091 148.697,637.148 150.068,638.519 151.44,639.205 153.497,639.205 154.868,638.519 156.239,637.148 " />
<polyline points="168.581,629.605 168.581,639.205 " />
<polyline points="168.581,631.662 167.21,630.291 165.838,629.605 163.781,629.605 162.41,630.291 161.039,631.662 160.353,633.719 160.353,635.091 161.039,637.148 162.41,638.519 163.781,639.205 165.838,639.205 167.21,638.519 168.581,637.148 " />
<polyline points="188.465,629.605 188.465,639.205 " />
<polyline points="188.465,633.719 189.151,631.662 190.522,630.291 191.893,629.605 193.95,629.605 " />
<polyline points="204.921,629.605 204.921,639.205 " />
<polyline points="204.921,631.662 203.549,630.291 202.178,629.605 200.121,629.605 198.75,630.291 197.379,631.662 196.693,633.719 196.693,635.091 197.379,637.148 198.75,638.519 200.121,639.205 202.178,639.205 203.549,638.519 204.921,637.148 " />
<polyline points="211.092,624.806 211.092,636.462 211.777,638.519 213.149,639.205 214.52,639.205 " />
<polyline points="209.035,629.605 213.834,629.605 " />
<polyline points="217.948,625.491 218.634,626.177 219.32,625.491 218.634,624.806 217.948,625.491 " />
<polyline points="218.634,630.291 218.634,639.205 " />
<polyline points="226.862,629.605 225.49,630.291 224.119,631.662 223.434,633.719 223.434,635.091 224.119,637.148 225.49,638.519 226.862,639.205 228.919,639.205 230.29,638.519 231.661,637.148 232.347,635.091 232.347,633.719 231.661,631.662 230.29,630.291 228.919,629.605 226.862,629.605 " />
<polyline points="254.288,629.605 252.917,630.291 251.545,631.662 250.86,633.719 250.86,635.091 251.545,637.148 252.917,638.519 254.288,639.205 256.345,639.205 257.716,638.519 259.088,637.148 259.773,635.091 259.773,633.719 259.088,631.662 257.716,630.291 256.345,629.605 254.288,629.605 " />
<polyline points="268.687,624.806 267.316,624.806 265.944,625.491 265.259,627.548 265.259,639.205 " />
<polyline points="263.202,629.605 268.001,629.605 " />
<polyline points="294.056,631.662 293.37,630.291 291.314,629.605 289.257,629.605 287.2,630.291 286.514,631.662 287.2,633.034 288.571,633.719 291.999,634.405 293.37,635.091 294.056,636.462 294.056,637.148 293.37,638.519 291.314,639.205 289.257,639.205 287.2,638.519 286.514,637.148 " />
<polyline points="306.398,631.662 305.027,630.291 303.655,629.605 301.598,629.605 300.227,630.291 298.856,631.662 298.17,633.719 298.17,635.091 298.856,637.148 300.227,638.519 301.598,639.205 303.655,639.205 305.027,638.519 306.398,637.148 " />
<polyline points="311.198,629.605 311.198,639.205 " />
<polyline points="311.198,633.719 311.883,631.662 313.255,630.291 314.626,629.605 316.683,629.605 " />
<polyline points="319.425,633.719 327.653,633.719 327.653,632.348 326.968,630.977 326.282,630.291 324.911,629.605 322.854,629.605 321.482,630.291 320.111,631.662 319.425,633.719 319.425,635.091 320.111,637.148 321.482,638.519 322.854,639.205 324.911,639.205 326.282,638.519 327.653,637.148 " />
<polyline points="331.767,633.719 339.995,633.719 339.995,632.348 339.309,630.977 338.624,630.291 337.253,629.605 335.196,629.605 333.824,630.291 332.453,631.662 331.767,633.719 331.767,635.091 332.453,637.148 333.824,638.519 335.196,639.205 337.253,639.205 338.624,638.519 339.995,637.148 " />
<polyline points="344.795,629.605 344.795,639.205 " />
<polyline points="344.795,632.348 346.852,630.291 348.223,629.605 350.28,629.605 351.651,630.291 352.337,632.348 352.337,639.205 " />
<polyline points="37.8842,654.289 50.226,654.289 " />
<polyline points="37.8842,658.403 50.226,658.403 " />
<polyline points="77.6523,652.918 77.6523,662.517 " />
<polyline points="77.6523,654.975 76.281,653.603 74.9097,652.918 72.8527,652.918 71.4814,653.603 70.1101,654.975 69.4244,657.032 69.4244,658.403 70.1101,660.46 71.4814,661.831 72.8527,662.517 74.9097,662.517 76.281,661.831 77.6523,660.46 " />
<polyline points="83.1375,652.918 83.1375,662.517 " />
<polyline points="83.1375,657.032 83.8232,654.975 85.1945,653.603 86.5658,652.918 88.6228,652.918 " />
<polyline points="91.3654,657.032 99.5933,657.032 99.5933,655.66 98.9076,654.289 98.222,653.603 96.8507,652.918 94.7937,652.918 93.4224,653.603 92.0511,654.975 91.3654,657.032 91.3654,658.403 92.0511,660.46 93.4224,661.831 94.7937,662.517 96.8507,662.517 98.222,661.831 99.5933,660.46 " />
<polyline points="111.935,652.918 111.935,662.517 " />
<polyline points="111.935,654.975 110.564,653.603 109.192,652.918 107.136,652.918 105.764,653.603 104.393,654.975 103.707,657.032 103.707,658.403 104.393,660.46 105.764,661.831 107.136,662.517 109.192,662.517 110.564,661.831 111.935,660.46 " />
<polyline points="134.562,652.918 133.19,653.603 131.819,654.975 131.134,657.032 131.134,658.403 131.819,660.46 133.19,661.831 134.562,662.517 136.619,662.517 137.99,661.831 139.361,660.46 140.047,658.403 140.047,657.032 139.361,654.975 137.99,653.603 136.619,652.918 134.562,652.918 " />
<polyline points="148.961,648.118 147.589,648.118 146.218,648.804 145.532,650.861 145.532,662.517 " />
<polyline points="143.475,652.918 148.275,652.918 " />
<polyline points="175.016,648.118 175.016,662.517 " />
<polyline points="175.016,654.975 173.644,653.603 172.273,652.918 170.216,652.918 168.845,653.603 167.473,654.975 166.788,657.032 166.788,658.403 167.473,660.46 168.845,661.831 170.216,662.517 172.273,662.517 173.644,661.831 175.016,660.46 " />
<polyline points="180.501,652.918 180.501,659.774 181.186,661.831 182.558,662.517 184.615,662.517 185.986,661.831 188.043,659.774 " />
<polyline points="188.043,652.918 188.043,662.517 " />
<polyline points="201.07,654.975 199.699,653.603 198.328,652.918 196.271,652.918 194.9,653.603 193.528,654.975 192.843,657.032 192.843,658.403 193.528,660.46 194.9,661.831 196.271,662.517 198.328,662.517 199.699,661.831 201.07,660.46 " />
<polyline points="206.556,648.118 206.556,659.774 207.241,661.831 208.613,662.517 209.984,662.517 " />
<polyline points="204.499,652.918 209.298,652.918 " />
<polyline points="37.8842,677.601 50.226,677.601 " />
<polyline points="37.8842,681.715 50.226,681.715 " />
<polyline points="77.6523,678.287 76.281,676.916 74.9097,676.23 72.8527,676.23 71.4814,676.916 70.1101,678.287 69.4244,680.344 69.4244,681.715 70.1101,683.772 71.4814,685.144 72.8527,685.829 74.9097,685.829 76.281,685.144 77.6523,683.772 " />
<polyline points="82.4519,676.23 82.4519,685.829 " />
<polyline points="82.4519,680.344 83.1375,678.287 84.5089,676.916 85.8802,676.23 87.9371,676.23 " />
<polyline points="94.1081,676.23 92.7367,676.916 91.3654,678.287 90.6798,680.344 90.6798,681.715 91.3654,683.772 92.7367,685.144 94.1081,685.829 96.165,685.829 97.5363,685.144 98.9076,683.772 99.5933,681.715 99.5933,680.344 98.9076,678.287 97.5363,676.916 96.165,676.23 94.1081,676.23 " />
<polyline points="111.249,678.287 110.564,676.916 108.507,676.23 106.45,676.23 104.393,676.916 103.707,678.287 104.393,679.658 105.764,680.344 109.192,681.03 110.564,681.715 111.249,683.087 111.249,683.772 110.564,685.144 108.507,685.829 106.45,685.829 104.393,685.144 103.707,683.772 " />
<polyline points="122.906,678.287 122.22,676.916 120.163,676.23 118.106,676.23 116.049,676.916 115.363,678.287 116.049,679.658 117.42,680.344 120.849,681.03 122.22,681.715 122.906,683.087 122.906,683.772 122.22,685.144 120.163,685.829 118.106,685.829 116.049,685.144 115.363,683.772 " />
<polyline points="127.705,679.658 140.047,679.658 " />
<polyline points="152.389,678.287 151.703,676.916 149.646,676.23 147.589,676.23 145.532,676.916 144.847,678.287 145.532,679.658 146.904,680.344 150.332,681.03 151.703,681.715 152.389,683.087 152.389,683.772 151.703,685.144 149.646,685.829 147.589,685.829 145.532,685.144 144.847,683.772 " />
<polyline points="156.503,680.344 164.731,680.344 164.731,678.973 164.045,677.601 163.359,676.916 161.988,676.23 159.931,676.23 158.56,676.916 157.188,678.287 156.503,680.344 156.503,681.715 157.188,683.772 158.56,685.144 159.931,685.829 161.988,685.829 163.359,685.144 164.731,683.772 " />
<polyline points="177.072,678.287 175.701,676.916 174.33,676.23 172.273,676.23 170.902,676.916 169.53,678.287 168.845,680.344 168.845,681.715 169.53,683.772 170.902,685.144 172.273,685.829 174.33,685.829 175.701,685.144 177.072,683.772 " />
<polyline points="182.558,671.43 182.558,683.087 183.243,685.144 184.615,685.829 185.986,685.829 " />
<polyline points="180.501,676.23 185.3,676.23 " />
<polyline points="189.414,672.116 190.1,672.802 190.786,672.116 190.1,671.43 189.414,672.116 " />
<polyline points="190.1,676.916 190.1,685.829 " />
<polyline points="198.328,676.23 196.957,676.916 195.585,678.287 194.9,680.344 194.9,681.715 195.585,683.772 196.957,685.144 198.328,685.829 200.385,685.829 201.756,685.144 203.127,683.772 203.813,681.715 203.813,680.344 203.127,678.287 201.756,676.916 200.385,676.23 198.328,676.23 " />
<polyline points="208.613,676.23 208.613,685.829 " />
<polyline points="208.613,678.973 210.67,676.916 212.041,676.23 214.098,676.23 215.469,676.916 216.155,678.973 216.155,685.829 " />
<polyline points="229.182,676.23 229.182,685.829 " />
<polyline points="229.182,678.287 227.811,676.916 226.44,676.23 224.383,676.23 223.011,676.916 221.64,678.287 220.955,680.344 220.955,681.715 221.64,683.772 223.011,685.144 224.383,685.829 226.44,685.829 227.811,685.144 229.182,683.772 " />
<polyline points="234.668,671.43 234.668,685.829 " />
<polyline points="262.094,676.23 262.094,685.829 " />
<polyline points="262.094,678.287 260.723,676.916 259.351,676.23 257.294,676.23 255.923,676.916 254.552,678.287 253.866,680.344 253.866,681.715 254.552,683.772 255.923,685.144 257.294,685.829 259.351,685.829 260.723,685.144 262.094,683.772 " />
<polyline points="267.579,676.23 267.579,685.829 " />
<polyline points="267.579,680.344 268.265,678.287 269.636,676.916 271.007,676.23 273.064,676.23 " />
<polyline points="275.807,680.344 284.035,680.344 284.035,678.973 283.349,677.601 282.664,676.916 281.292,676.23 279.235,676.23 277.864,676.916 276.493,678.287 275.807,680.344 275.807,681.715 276.493,683.772 277.864,685.144 279.235,685.829 281.292,685.829 282.664,685.144 284.035,683.772 " />
<polyline points="296.377,676.23 296.377,685.829 " />
<polyline points="296.377,678.287 295.005,676.916 293.634,676.23 291.577,676.23 290.206,676.916 288.835,678.287 288.149,680.344 288.149,681.715 288.835,683.772 290.206,685.144 291.577,685.829 293.634,685.829 295.005,685.144 296.377,683.772 " />
<polyline points="319.003,676.23 317.632,676.916 316.261,678.287 315.575,680.344 315.575,681.715 316.261,683.772 317.632,685.144 319.003,685.829 321.06,685.829 322.432,685.144 323.803,683.772 324.489,681.715 324.489,680.344 323.803,678.287 322.432,676.916 321.06,676.23 319.003,676.23 " />
<polyline points="333.402,671.43 332.031,671.43 330.66,672.116 329.974,674.173 329.974,685.829 " />
<polyline points="327.917,676.23 332.717,676.23 " />
<polyline points="75.4311,694.743 75.4311,709.142 " />
<polyline points="75.4311,701.599 74.0598,700.228 72.6885,699.542 70.6315,699.542 69.2602,700.228 67.8889,701.599 67.2032,703.656 67.2032,705.028 67.8889,707.085 69.2602,708.456 70.6315,709.142 72.6885,709.142 74.0598,708.456 75.4311,707.085 " />
<polyline points="80.9164,699.542 80.9164,706.399 81.602,708.456 82.9733,709.142 85.0303,709.142 86.4016,708.456 88.4586,706.399 " />
<polyline points="88.4586,699.542 88.4586,709.142 " />
<polyline points="101.486,701.599 100.115,700.228 98.7435,699.542 96.6865,699.542 95.3152,700.228 93.9439,701.599 93.2582,703.656 93.2582,705.028 93.9439,707.085 95.3152,708.456 96.6865,709.142 98.7435,709.142 100.115,708.456 101.486,707.085 " />
<polyline points="106.971,694.743 106.971,706.399 107.657,708.456 109.028,709.142 110.4,709.142 " />
<polyline points="104.914,699.542 109.714,699.542 " />
<polyline points="131.655,699.542 130.284,700.228 128.912,701.599 128.227,703.656 128.227,705.028 128.912,707.085 130.284,708.456 131.655,709.142 133.712,709.142 135.083,708.456 136.455,707.085 137.14,705.028 137.14,703.656 136.455,701.599 135.083,700.228 133.712,699.542 131.655,699.542 " />
<polyline points="141.94,699.542 141.94,709.142 " />
<polyline points="141.94,703.656 142.625,701.599 143.997,700.228 145.368,699.542 147.425,699.542 " />
<polyline points="169.366,694.743 167.995,694.743 166.623,695.428 165.938,697.485 165.938,709.142 " />
<polyline points="163.881,699.542 168.68,699.542 " />
<polyline points="172.794,695.428 173.48,696.114 174.166,695.428 173.48,694.743 172.794,695.428 " />
<polyline points="173.48,700.228 173.48,709.142 " />
<polyline points="179.651,694.743 179.651,706.399 180.337,708.456 181.708,709.142 183.079,709.142 " />
<polyline points="177.594,699.542 182.394,699.542 " />
<polyline points="187.879,694.743 187.879,706.399 188.564,708.456 189.936,709.142 191.307,709.142 " />
<polyline points="185.822,699.542 190.621,699.542 " />
<polyline points="194.735,695.428 195.421,696.114 196.107,695.428 195.421,694.743 194.735,695.428 " />
<polyline points="195.421,700.228 195.421,709.142 " />
<polyline points="200.906,699.542 200.906,709.142 " />
<polyline points="200.906,702.285 202.963,700.228 204.335,699.542 206.392,699.542 207.763,700.228 208.449,702.285 208.449,709.142 " />
<polyline points="221.476,699.542 221.476,710.513 220.79,712.57 220.105,713.255 218.733,713.941 216.676,713.941 215.305,713.255 " />
<polyline points="221.476,701.599 220.105,700.228 218.733,699.542 216.676,699.542 215.305,700.228 213.934,701.599 213.248,703.656 213.248,705.028 213.934,707.085 215.305,708.456 216.676,709.142 218.733,709.142 220.105,708.456 221.476,707.085 " />
<polyline points="240.674,699.542 243.417,709.142 " />
<polyline points="246.16,699.542 243.417,709.142 " />
<polyline points="246.16,699.542 248.902,709.142 " />
<polyline points="251.645,699.542 248.902,709.142 " />
<polyline points="256.444,694.743 256.444,709.142 " />
<polyline points="256.444,702.285 258.501,700.228 259.873,699.542 261.93,699.542 263.301,700.228 263.987,702.285 263.987,709.142 " />
<polyline points="268.786,703.656 277.014,703.656 277.014,702.285 276.329,700.914 275.643,700.228 274.272,699.542 272.215,699.542 270.843,700.228 269.472,701.599 268.786,703.656 268.786,705.028 269.472,707.085 270.843,708.456 272.215,709.142 274.272,709.142 275.643,708.456 277.014,707.085 " />
<polyline points="281.814,699.542 281.814,709.142 " />
<polyline points="281.814,703.656 282.499,701.599 283.871,700.228 285.242,699.542 287.299,699.542 " />
<polyline points="290.042,703.656 298.27,703.656 298.27,702.285 297.584,700.914 296.898,700.228 295.527,699.542 293.47,699.542 292.099,700.228 290.727,701.599 290.042,703.656 290.042,705.028 290.727,707.085 292.099,708.456 293.47,709.142 295.527,709.142 296.898,708.456 298.27,707.085 " />
<polyline points="74.7455,724.912 74.0598,723.54 72.0028,722.855 69.9459,722.855 67.8889,723.54 67.2032,724.912 67.8889,726.283 69.2602,726.969 72.6885,727.654 74.0598,728.34 74.7455,729.711 74.7455,730.397 74.0598,731.768 72.0028,732.454 69.9459,732.454 67.8889,731.768 67.2032,730.397 " />
<polyline points="87.0873,724.912 85.716,723.54 84.3447,722.855 82.2877,722.855 80.9164,723.54 79.5451,724.912 78.8594,726.969 78.8594,728.34 79.5451,730.397 80.9164,731.768 82.2877,732.454 84.3447,732.454 85.716,731.768 87.0873,730.397 " />
<polyline points="91.8869,722.855 91.8869,732.454 " />
<polyline points="91.8869,726.969 92.5725,724.912 93.9439,723.54 95.3152,722.855 97.3721,722.855 " />
<polyline points="100.115,726.969 108.343,726.969 108.343,725.597 107.657,724.226 106.971,723.54 105.6,722.855 103.543,722.855 102.172,723.54 100.8,724.912 100.115,726.969 100.115,728.34 100.8,730.397 102.172,731.768 103.543,732.454 105.6,732.454 106.971,731.768 108.343,730.397 " />
<polyline points="112.457,726.969 120.684,726.969 120.684,725.597 119.999,724.226 119.313,723.54 117.942,722.855 115.885,722.855 114.514,723.54 113.142,724.912 112.457,726.969 112.457,728.34 113.142,730.397 114.514,731.768 115.885,732.454 117.942,732.454 119.313,731.768 120.684,730.397 " />
<polyline points="125.484,722.855 125.484,732.454 " />
<polyline points="125.484,725.597 127.541,723.54 128.912,722.855 130.969,722.855 132.341,723.54 133.026,725.597 133.026,732.454 " />
<polyline points="152.225,718.741 152.91,719.426 153.596,718.741 152.91,718.055 152.225,718.741 " />
<polyline points="152.91,723.54 152.91,732.454 " />
<polyline points="165.252,724.912 164.566,723.54 162.51,722.855 160.453,722.855 158.396,723.54 157.71,724.912 158.396,726.283 159.767,726.969 163.195,727.654 164.566,728.34 165.252,729.711 165.252,730.397 164.566,731.768 162.51,732.454 160.453,732.454 158.396,731.768 157.71,730.397 " />
<polyline points="184.451,718.055 184.451,732.454 " />
<polyline points="192.678,722.855 191.307,723.54 189.936,724.912 189.25,726.969 189.25,728.34 189.936,730.397 191.307,731.768 192.678,732.454 194.735,732.454 196.107,731.768 197.478,730.397 198.164,728.34 198.164,726.969 197.478,724.912 196.107,723.54 194.735,722.855 192.678,722.855 " />
<polyline points="210.505,724.912 209.134,723.54 207.763,722.855 205.706,722.855 204.335,723.54 202.963,724.912 202.278,726.969 202.278,728.34 202.963,730.397 204.335,731.768 205.706,732.454 207.763,732.454 209.134,731.768 210.505,730.397 " />
<polyline points="222.847,722.855 222.847,732.454 " />
<polyline points="222.847,724.912 221.476,723.54 220.105,722.855 218.048,722.855 216.676,723.54 215.305,724.912 214.619,726.969 214.619,728.34 215.305,730.397 216.676,731.768 218.048,732.454 220.105,732.454 221.476,731.768 222.847,730.397 " />
<polyline points="229.018,718.055 229.018,729.711 229.704,731.768 231.075,732.454 232.446,732.454 " />
<polyline points="226.961,722.855 231.761,722.855 " />
<polyline points="235.875,726.969 244.103,726.969 244.103,725.597 243.417,724.226 242.731,723.54 241.36,722.855 239.303,722.855 237.932,723.54 236.56,724.912 235.875,726.969 235.875,728.34 236.56,730.397 237.932,731.768 239.303,732.454 241.36,732.454 242.731,731.768 244.103,730.397 " />
<polyline points="256.444,718.055 256.444,732.454 " />
<polyline points="256.444,724.912 255.073,723.54 253.702,722.855 251.645,722.855 250.274,723.54 248.902,724.912 248.217,726.969 248.217,728.34 248.902,730.397 250.274,731.768 251.645,732.454 253.702,732.454 255.073,731.768 256.444,730.397 " />
<polyline points="26.6434,659.879 25.272,660.565 23.9007,661.936 23.2151,663.993 23.2151,665.364 23.9007,667.421 25.272,668.793 26.6434,669.478 28.7003,669.478 30.0716,668.793 31.443,667.421 32.1286,665.364 32.1286,663.993 31.443,661.936 30.0716,660.565 28.7003,659.879 26.6434,659.879 " />
<polyline points="15.5245,648.518 10.0392,662.917 " />
<polyline points="15.5245,648.518 21.0097,662.917 " />
<polyline points="12.0962,658.117 18.9528,658.117 " />
<polyline points="25.272,681.026 26.6434,680.341 28.7003,678.284 28.7003,692.682 " />
<polyline points="15.5245,671.723 10.0392,686.121 " />
<polyline points="15.5245,671.723 21.0097,686.121 " />
<polyline points="12.0962,681.322 18.9528,681.322 " />
</g>
<g clip-path="url(#clipId0)" fill="rgb(0,0,0)" stroke="rgb(0,0,0)" stroke-width="0.25" >
<path d="M740.569,154.777 744.241,157.867 751.675,145.304 751.675,145.304 z" />
</g>
<g clip-path="url(#clipId0)" fill="none" stroke="rgb(0,0,0)" stroke-width="0.25" >
<polyline points="742.405,156.322 690.545,217.956 " />
<polyline points="690.545,217.956 676.146,217.956 " />
<polyline points="594.553,212.813 593.181,211.442 591.124,210.757 588.382,210.757 586.325,211.442 584.954,212.813 584.954,214.185 585.639,215.556 586.325,216.242 587.696,216.927 591.81,218.299 593.181,218.984 593.867,219.67 594.553,221.041 594.553,223.098 593.181,224.47 591.124,225.155 588.382,225.155 586.325,224.47 584.954,223.098 " />
<polyline points="608.952,214.185 608.266,212.813 606.895,211.442 605.523,210.757 602.781,210.757 601.409,211.442 600.038,212.813 599.352,214.185 598.667,216.242 598.667,219.67 599.352,221.727 600.038,223.098 601.409,224.47 602.781,225.155 605.523,225.155 606.895,224.47 608.266,223.098 608.952,221.727 " />
<polyline points="613.751,210.757 613.751,225.155 " />
<polyline points="613.751,210.757 619.922,210.757 621.979,211.442 622.665,212.128 623.35,213.499 623.35,214.87 622.665,216.242 621.979,216.927 619.922,217.613 613.751,217.613 " />
<polyline points="618.551,217.613 623.35,225.155 " />
<polyline points="628.15,210.757 628.15,225.155 " />
<polyline points="628.15,210.757 637.063,210.757 " />
<polyline points="628.15,217.613 633.635,217.613 " />
<polyline points="628.15,225.155 637.063,225.155 " />
<polyline points="641.177,210.757 641.177,225.155 " />
<polyline points="641.177,210.757 650.091,210.757 " />
<polyline points="641.177,217.613 646.663,217.613 " />
<polyline points="641.177,225.155 650.091,225.155 " />
<polyline points="654.205,210.757 654.205,225.155 " />
<polyline points="654.205,210.757 663.804,225.155 " />
<polyline points="663.804,210.757 663.804,225.155 " />
</g>
<g clip-path="url(#clipId0)" fill="rgb(0,0,0)" stroke="rgb(0,0,0)" stroke-width="0.25" >
<path d="M502.075,322.505 499.034,326.218 511.695,333.483 511.695,333.483 z" />
</g>
<g clip-path="url(#clipId0)" fill="none" stroke="rgb(0,0,0)" stroke-width="0.25" >
<polyline points="500.555,324.361 450.267,283.186 " />
<polyline points="446.323,283.186 431.924,283.186 " />
<polyline points="350.331,278.044 348.96,276.672 346.903,275.987 344.16,275.987 342.103,276.672 340.732,278.044 340.732,279.415 341.417,280.786 342.103,281.472 343.474,282.158 347.588,283.529 348.96,284.215 349.645,284.9 350.331,286.272 350.331,288.329 348.96,289.7 346.903,290.386 344.16,290.386 342.103,289.7 340.732,288.329 " />
<polyline points="364.73,279.415 364.044,278.044 362.673,276.672 361.301,275.987 358.559,275.987 357.187,276.672 355.816,278.044 355.13,279.415 354.445,281.472 354.445,284.9 355.13,286.957 355.816,288.329 357.187,289.7 358.559,290.386 361.301,290.386 362.673,289.7 364.044,288.329 364.73,286.957 " />
<polyline points="369.529,275.987 369.529,290.386 " />
<polyline points="369.529,275.987 375.7,275.987 377.757,276.672 378.443,277.358 379.128,278.729 379.128,280.101 378.443,281.472 377.757,282.158 375.7,282.843 369.529,282.843 " />
<polyline points="374.329,282.843 379.128,290.386 " />
<polyline points="383.928,275.987 383.928,290.386 " />
<polyline points="383.928,275.987 392.842,275.987 " />
<polyline points="383.928,282.843 389.413,282.843 " />
<polyline points="383.928,290.386 392.842,290.386 " />
<polyline points="396.955,275.987 396.955,290.386 " />
<polyline points="396.955,275.987 405.869,275.987 " />
<polyline points="396.955,282.843 402.441,282.843 " />
<polyline points="396.955,290.386 405.869,290.386 " />
<polyline points="409.983,275.987 409.983,290.386 " />
<polyline points="409.983,275.987 419.582,290.386 " />
<polyline points="419.582,275.987 419.582,290.386 " />
<polyline points="428.908,745.757 430.279,745.071 432.336,743.014 432.336,757.413 " />
<circle cx="430.622" cy="750.214" r="9.59919" />
<polyline points="430.622,740.614 430.622,711.572 " />
<circle cx="511.709" cy="416.487" r="9.59919" />
<polyline points="509.995,412.031 511.366,411.345 513.423,409.288 513.423,423.687 " />
<polyline points="215.686,180.973 344.627,52.032 " />
<polyline points="200.639,179.051 342.705,36.9849 " />
<polyline points="200.639,162.082 325.736,36.9849 " />
<polyline points="200.639,145.112 308.767,36.9849 " />
<polyline points="200.639,128.143 291.798,36.9849 " />
<polyline points="200.639,111.174 274.829,36.9849 " />
<polyline points="200.639,94.205 257.859,36.9849 " />
<polyline points="200.639,77.2359 240.89,36.9849 " />
<polyline points="200.639,60.2668 223.921,36.9849 " />
<polyline points="200.639,43.2976 206.952,36.9849 " />
<polyline points="232.655,180.973 344.627,69.0011 " />
<polyline points="249.625,180.973 344.627,85.9702 " />
<polyline points="266.594,180.973 344.627,102.939 " />
<polyline points="283.563,180.973 344.627,119.908 " />
<polyline points="300.532,180.973 344.627,136.878 " />
<polyline points="317.501,180.973 344.627,153.847 " />
<polyline points="334.47,180.973 344.627,170.816 " />
<polyline points="330.426,180.973 200.639,51.1862 " />
<polyline points="313.457,180.973 200.639,68.1553 " />
<polyline points="296.487,180.973 200.639,85.1245 " />
<polyline points="279.518,180.973 200.639,102.094 " />
<polyline points="262.549,180.973 200.639,119.063 " />
<polyline points="245.58,180.973 200.639,136.032 " />
<polyline points="228.611,180.973 200.639,153.001 " />
<polyline points="211.642,180.973 200.639,169.97 " />
<polyline points="344.627,178.205 203.407,36.9849 " />
<polyline points="344.627,161.236 220.376,36.9849 " />
<polyline points="344.627,144.267 237.345,36.9849 " />
<polyline points="344.627,127.298 254.314,36.9849 " />
<polyline points="344.627,110.328 271.284,36.9849 " />
<polyline points="344.627,93.3593 288.253,36.9849 " />
<polyline points="344.627,76.3901 305.222,36.9849 " />
<polyline points="344.627,59.421 322.191,36.9849 " />
<polyline points="344.627,42.4519 339.16,36.9849 " />
<polyline points="968.948,547.078 1013.56,572.835 " />
<polyline points="968.948,547.078 991.254,547.078 " />
<polyline points="1013.56,572.835 991.254,572.835 " />
<polyline points="991.254,459.165 991.254,547.078 " />
<polyline points="991.254,572.835 991.254,660.748 " />
<polyline points="609.667,119.729 608.296,120.414 606.924,121.786 606.239,123.157 605.553,125.214 605.553,128.642 606.239,130.699 606.924,132.07 608.296,133.442 609.667,134.127 612.41,134.127 613.781,133.442 615.152,132.07 615.838,130.699 616.524,128.642 616.524,125.214 615.838,123.157 615.152,121.786 613.781,120.414 612.41,119.729 609.667,119.729 " />
<polyline points="611.724,131.385 615.838,135.499 " />
<polyline points="852.865,357.01 851.494,357.696 850.123,359.067 849.437,360.439 848.751,362.496 848.751,365.924 849.437,367.981 850.123,369.352 851.494,370.723 852.865,371.409 855.608,371.409 856.979,370.723 858.351,369.352 859.036,367.981 859.722,365.924 859.722,362.496 859.036,360.439 858.351,359.067 856.979,357.696 855.608,357.01 852.865,357.01 " />
<polyline points="854.922,368.667 859.036,372.78 " />
<polyline points="647.154,580.234 645.783,580.92 644.412,582.291 643.726,583.662 643.04,585.719 643.04,589.147 643.726,591.204 644.412,592.576 645.783,593.947 647.154,594.633 649.897,594.633 651.268,593.947 652.64,592.576 653.325,591.204 654.011,589.147 654.011,585.719 653.325,583.662 652.64,582.291 651.268,580.92 649.897,580.234 647.154,580.234 " />
<polyline points="649.211,591.89 653.325,596.004 " />
<polyline points="819.779,101.416 819.779,115.815 " />
<polyline points="829.379,101.416 829.379,115.815 " />
<polyline points="819.779,108.273 829.379,108.273 " />
<polyline points="862.976,106.216 870.518,115.815 " />
<polyline points="870.518,106.216 862.976,115.815 " />
<polyline points="888.345,101.416 891.773,115.815 " />
<polyline points="895.202,101.416 891.773,115.815 " />
<polyline points="895.202,101.416 898.63,115.815 " />
<polyline points="902.058,101.416 898.63,115.815 " />
<polyline points="840.513,118.907 839.141,119.592 837.77,120.964 837.084,123.021 837.084,124.392 837.77,126.449 839.141,127.82 840.513,128.506 842.57,128.506 843.941,127.82 845.312,126.449 845.998,124.392 845.998,123.021 845.312,120.964 843.941,119.592 842.57,118.907 840.513,118.907 " />
<polyline points="906.484,120.262 905.112,120.948 903.741,122.319 903.055,124.376 903.055,125.748 903.741,127.805 905.112,129.176 906.484,129.862 908.541,129.862 909.912,129.176 911.283,127.805 911.969,125.748 911.969,124.376 911.283,122.319 909.912,120.948 908.541,120.262 906.484,120.262 " />
<polyline points="763.341,339.073 761.97,339.759 760.598,341.13 759.913,343.187 759.913,344.558 760.598,346.615 761.97,347.987 763.341,348.672 765.398,348.672 766.769,347.987 768.14,346.615 768.826,344.558 768.826,343.187 768.14,341.13 766.769,339.759 765.398,339.073 763.341,339.073 " />
<polyline points="691.453,339.688 690.082,340.374 688.711,341.745 688.025,343.802 688.025,345.173 688.711,347.23 690.082,348.602 691.453,349.287 693.51,349.287 694.881,348.602 696.253,347.23 696.938,345.173 696.938,343.802 696.253,341.745 694.881,340.374 693.51,339.688 691.453,339.688 " />
<polyline points="672.692,322.198 672.692,336.596 " />
<polyline points="682.291,322.198 682.291,336.596 " />
<polyline points="672.692,329.054 682.291,329.054 " />
<polyline points="715.888,326.997 723.431,336.596 " />
<polyline points="723.431,326.997 715.888,336.596 " />
<polyline points="741.258,322.198 744.686,336.596 " />
<polyline points="748.114,322.198 744.686,336.596 " />
<polyline points="748.114,322.198 751.543,336.596 " />
<polyline points="754.971,322.198 751.543,336.596 " />
<polyline points="902.614,565.892 901.243,566.578 899.872,567.949 899.186,570.006 899.186,571.377 899.872,573.434 901.243,574.806 902.614,575.491 904.671,575.491 906.043,574.806 907.414,573.434 908.1,571.377 908.1,570.006 907.414,567.949 906.043,566.578 904.671,565.892 902.614,565.892 " />
<polyline points="828.755,568.478 827.383,569.164 826.012,570.535 825.326,572.592 825.326,573.963 826.012,576.02 827.383,577.392 828.755,578.077 830.812,578.077 832.183,577.392 833.554,576.02 834.24,573.963 834.24,572.592 833.554,570.535 832.183,569.164 830.812,568.478 828.755,568.478 " />
<polyline points="809.994,550.988 809.994,565.386 " />
<polyline points="819.593,550.988 819.593,565.386 " />
<polyline points="809.994,557.844 819.593,557.844 " />
<polyline points="853.19,555.787 860.732,565.386 " />
<polyline points="860.732,555.787 853.19,565.386 " />
<polyline points="878.559,550.988 881.987,565.386 " />
<polyline points="885.416,550.988 881.987,565.386 " />
<polyline points="885.416,550.988 888.844,565.386 " />
<polyline points="892.272,550.988 888.844,565.386 " />
<polyline points="339.224,308.706 339.224,323.105 " />
<polyline points="348.823,308.706 348.823,323.105 " />
<polyline points="339.224,315.562 348.823,315.562 " />
<polyline points="382.421,313.505 389.963,323.105 " />
<polyline points="389.963,313.505 382.421,323.105 " />
<polyline points="407.79,308.706 411.218,323.105 " />
<polyline points="414.646,308.706 411.218,323.105 " />
<polyline points="414.646,308.706 418.075,323.105 " />
<polyline points="421.503,308.706 418.075,323.105 " />
<polyline points="356.614,321.428 357.985,320.742 360.042,318.685 360.042,333.084 " />
<polyline points="429.841,324.755 431.213,324.069 433.27,322.012 433.27,336.411 " />
<polyline points="430.622,415.969 502.616,487.963 " />
<polyline points="430.622,703.944 502.616,631.95 " />
<polyline points="725.771,567.802 590.372,567.802 " />
</g>
<g clip-path="url(#clipId0)" fill="rgb(0,0,0)" stroke="rgb(0,0,0)" stroke-width="0.25" >
<path d="M725.771,565.402 725.771,570.202 740.17,567.802 740.17,567.802 z" />
</g>
<g clip-path="url(#clipId0)" fill="none" stroke="rgb(0,0,0)" stroke-width="0.25" >
<polyline points="936.245,340.362 800.846,340.362 " />
</g>
<g clip-path="url(#clipId0)" fill="rgb(0,0,0)" stroke="rgb(0,0,0)" stroke-width="0.25" >
<path d="M936.245,337.962 936.245,342.762 950.644,340.362 950.644,340.362 z" />
</g>
<g clip-path="url(#clipId0)" fill="none" stroke="rgb(0,0,0)" stroke-width="0.25" >
<polyline points="446.323,283.186 450.267,283.186 " />
</g>
<g clip-path="url(#clipId0)" fill="rgb(0,0,0)" stroke="rgb(0,0,0)" stroke-width="0.25" >
<path d="M421.111,512.47 418.07,516.183 430.731,523.449 430.731,523.449 z" />
</g>
<g clip-path="url(#clipId0)" fill="none" stroke="rgb(0,0,0)" stroke-width="0.25" >
<polyline points="419.591,514.441 369.303,473.266 " />
<polyline points="365.359,473.266 350.96,473.266 " />
<polyline points="269.9,467.857 268.529,466.485 266.472,465.8 263.729,465.8 261.672,466.485 260.301,467.857 260.301,469.228 260.987,470.599 261.672,471.285 263.044,471.971 267.158,473.342 268.529,474.028 269.215,474.713 269.9,476.085 269.9,478.142 268.529,479.513 266.472,480.198 263.729,480.198 261.672,479.513 260.301,478.142 " />
<polyline points="284.299,469.228 283.613,467.857 282.242,466.485 280.871,465.8 278.128,465.8 276.757,466.485 275.385,467.857 274.7,469.228 274.014,471.285 274.014,474.713 274.7,476.77 275.385,478.142 276.757,479.513 278.128,480.198 280.871,480.198 282.242,479.513 283.613,478.142 284.299,476.77 " />
<polyline points="289.099,465.8 289.099,480.198 " />
<polyline points="289.099,465.8 295.27,465.8 297.326,466.485 298.012,467.171 298.698,468.542 298.698,469.914 298.012,471.285 297.326,471.971 295.27,472.656 289.099,472.656 " />
<polyline points="293.898,472.656 298.698,480.198 " />
<polyline points="303.497,465.8 303.497,480.198 " />
<polyline points="303.497,465.8 312.411,465.8 " />
<polyline points="303.497,472.656 308.983,472.656 " />
<polyline points="303.497,480.198 312.411,480.198 " />
<polyline points="316.525,465.8 316.525,480.198 " />
<polyline points="316.525,465.8 325.438,465.8 " />
<polyline points="316.525,472.656 322.01,472.656 " />
<polyline points="316.525,480.198 325.438,480.198 " />
<polyline points="329.552,465.8 329.552,480.198 " />
<polyline points="329.552,465.8 339.152,480.198 " />
<polyline points="339.152,465.8 339.152,480.198 " />
<polyline points="256.393,495.586 256.393,509.985 " />
<polyline points="265.992,495.586 265.992,509.985 " />
<polyline points="256.393,502.443 265.992,502.443 " />
<polyline points="299.589,500.386 307.131,509.985 " />
<polyline points="307.131,500.386 299.589,509.985 " />
<polyline points="324.958,495.586 328.387,509.985 " />
<polyline points="331.815,495.586 328.387,509.985 " />
<polyline points="331.815,495.586 335.243,509.985 " />
<polyline points="338.671,495.586 335.243,509.985 " />
<polyline points="273.783,508.308 275.154,507.623 277.211,505.566 277.211,519.965 " />
<polyline points="347.01,511.635 348.381,510.949 350.438,508.892 350.438,523.291 " />
<polyline points="365.359,473.266 369.303,473.266 " />
</g>
<g clip-path="url(#clipId0)" fill="none" stroke="rgb(0,0,0)" stroke-width="0.1" >
<polyline points="646.038,332.522 646.038,332.522 " />
<polyline points="502.616,559.956 502.616,559.956 " />
</g>
<g clip-path="url(#clipId0)" fill="none" stroke="rgb(0,0,0)" stroke-width="0.25" >
<polyline points="511.811,376.833 511.811,406.05 " />
<polyline points="911.087,743.471 910.082,741.46 908.07,739.449 906.059,738.443 902.037,738.443 900.025,739.449 898.014,741.46 897.009,743.471 896.003,746.488 896.003,751.516 897.009,754.533 898.014,756.544 900.025,758.556 902.037,759.561 906.059,759.561 908.07,758.556 910.082,756.544 911.087,754.533 " />
<polyline points="918.127,738.443 918.127,759.561 " />
<polyline points="918.127,738.443 927.177,738.443 930.194,739.449 931.2,740.454 932.206,742.466 932.206,744.477 931.2,746.488 930.194,747.494 927.177,748.499 918.127,748.499 " />
<polyline points="925.166,748.499 932.206,759.561 " />
<polyline points="951.313,741.46 950.307,739.449 947.29,738.443 945.279,738.443 942.262,739.449 940.251,742.466 939.245,747.494 939.245,752.522 940.251,756.544 942.262,758.556 945.279,759.561 946.284,759.561 949.301,758.556 951.313,756.544 952.318,753.528 952.318,752.522 951.313,749.505 949.301,747.494 946.284,746.488 945.279,746.488 942.262,747.494 940.251,749.505 939.245,752.522 " />
<polyline points="959.358,750.511 977.459,750.511 " />
<polyline points="987.515,742.466 989.526,741.46 992.543,738.443 992.543,759.561 " />
</g>
</svg>
