<?xml version="1.0" standalone="no"?>
<svg viewBox="0 0 1024 768" version="1.1" xmlns="http://www.w3.org/2000/svg" xmlns:xlink="http://www.w3.org/1999/xlink" stroke-linecap="round" stroke-linejoin="round" fill-rule="evenodd" xml:space="preserve" >
<defs >
<clipPath id="clipId0" >
<path d="M0,768 1024,768 1024,0 0,0 z" />
</clipPath>
</defs>
<g clip-path="url(#clipId0)" fill="none" stroke="rgb(0,0,0)" stroke-width="0.1" />
<g clip-path="url(#clipId0)" fill="none" stroke="rgb(0,0,0)" stroke-width="0.25" >
<polyline points="517.083,339.486 31.3122,339.486 " />
<polyline points="174.669,238.742 169.117,253.316 " />
<polyline points="174.669,238.742 180.221,253.316 " />
<polyline points="171.199,248.458 178.139,248.458 " />
<polyline points="187.791,247.539 186.542,247.956 185.709,249.205 185.293,251.287 185.293,252.536 185.709,254.618 186.542,255.867 187.791,256.283 188.624,256.283 189.873,255.867 190.706,254.618 191.122,252.536 191.122,251.287 190.706,249.205 189.873,247.956 188.624,247.539 187.791,247.539 " />
<polyline points="232.836,266.62 178.966,266.62 " />
</g>
<g clip-path="url(#clipId0)" fill="rgb(0,0,0)" stroke="rgb(0,0,0)" stroke-width="0.25" >
<path d="M232.836,264.192 232.836,269.049 247.409,266.62 247.409,266.62 z" />
</g>
<g clip-path="url(#clipId0)" fill="none" stroke="rgb(0,0,0)" stroke-width="0.25" >
<polyline points="517.083,193.755 31.3122,193.755 " />
<polyline points="919.939,339.398 919.939,193.666 " />
<polyline points="919.939,193.666 681.565,193.666 " />
<polyline points="681.565,193.666 681.565,339.398 " />
<polyline points="681.565,339.398 919.939,339.398 " />
<polyline points="494.507,253.586 539.659,279.655 " />
<polyline points="494.507,253.586 517.083,253.586 " />
<polyline points="539.659,279.655 517.083,279.655 " />
<polyline points="517.083,164.609 517.083,253.586 " />
<polyline points="517.083,279.655 517.083,368.632 " />
<polyline points="31.3122,279.655 31.3122,368.632 " />
<polyline points="31.3122,164.609 31.3122,253.586 " />
<polyline points="53.888,279.655 31.3122,279.655 " />
<polyline points="10.0392,254.396 31.3122,254.396 " />
<polyline points="10.0392,254.396 53.7708,279.644 " />
<polyline points="87.5671,486.307 75.0758,508.514 " />
<polyline points="135.583,493.412 124.48,499.658 135.583,505.904 " />
<polyline points="159.178,491.331 157.096,492.025 155.708,494.106 155.014,497.576 155.014,499.658 155.708,503.128 157.096,505.21 159.178,505.904 160.566,505.904 162.648,505.21 164.036,503.128 164.73,499.658 164.73,497.576 164.036,494.106 162.648,492.025 160.566,491.331 159.178,491.331 " />
<polyline points="170.281,504.516 169.587,505.21 170.281,505.904 170.975,505.21 170.281,504.516 " />
<polyline points="176.527,494.8 176.527,494.106 177.221,492.718 177.915,492.025 179.303,491.331 182.079,491.331 183.466,492.025 184.16,492.718 184.854,494.106 184.854,495.494 184.16,496.882 182.772,498.964 175.833,505.904 185.548,505.904 " />
<circle cx="388.348" cy="229.855" r="19.4308" />
<polyline points="668.912,229.767 932.593,229.767 " stroke-dasharray="91.082049,18.216410,18.216410,18.216410" />
<polyline points="681.565,215.399 919.939,215.399 " />
<polyline points="681.565,244.697 919.939,244.697 " />
<polyline points="358.517,229.855 418.178,229.855 " />
<polyline points="388.348,259.686 388.348,200.024 " />
<polyline points="668.912,266.532 932.593,266.532 " stroke-dasharray="91.082049,18.216410,18.216410,18.216410" />
<polyline points="800.752,359.396 800.752,173.668 " stroke-dasharray="91.082049,18.216410,18.216410,18.216410" />
<polyline points="368.917,216.428 368.917,121.867 " />
<polyline points="407.779,216.428 407.779,121.867 " />
<polyline points="422.352,139.355 436.925,139.355 " />
<polyline points="354.344,139.355 339.771,139.355 " />
</g>
<g clip-path="url(#clipId0)" fill="rgb(0,0,0)" stroke="rgb(0,0,0)" stroke-width="0.25" >
<path d="M422.352,141.784 422.352,136.926 407.779,139.355 407.779,139.355 z" />
<path d="M354.344,141.784 354.344,136.926 368.917,139.355 368.917,139.355 z" />
</g>
<g clip-path="url(#clipId0)" fill="none" stroke="rgb(0,0,0)" stroke-width="0.25" >
<polyline points="391.493,132.069 391.493,146.642 " />
<polyline points="391.493,139.008 390.105,137.62 388.717,136.926 386.636,136.926 385.248,137.62 383.86,139.008 383.166,141.09 383.166,142.478 383.86,144.56 385.248,145.948 386.636,146.642 388.717,146.642 390.105,145.948 391.493,144.56 " />
<polyline points="919.939,345.47 919.939,414.113 " />
<polyline points="681.565,345.47 681.565,414.113 " />
<polyline points="905.366,396.626 819.489,396.626 " />
<polyline points="696.138,396.626 782.015,396.626 " />
</g>
<g clip-path="url(#clipId0)" fill="rgb(0,0,0)" stroke="rgb(0,0,0)" stroke-width="0.25" >
<path d="M905.366,399.054 905.366,394.197 919.939,396.626 919.939,396.626 z" />
<path d="M696.138,399.054 696.138,394.197 681.565,396.626 681.565,396.626 z" />
</g>
<g clip-path="url(#clipId0)" fill="none" stroke="rgb(0,0,0)" stroke-width="0.25" >
<polyline points="797.976,389.339 801.446,403.912 " />
<polyline points="804.916,389.339 801.446,403.912 " />
<polyline points="804.916,389.339 808.386,403.912 " />
<polyline points="811.856,389.339 808.386,403.912 " />
<polyline points="662.84,229.767 608.311,229.767 " />
<polyline points="662.84,266.532 608.311,266.532 " />
<polyline points="625.799,281.105 625.799,295.678 " />
<polyline points="625.799,215.193 625.799,200.62 " />
</g>
<g clip-path="url(#clipId0)" fill="rgb(0,0,0)" stroke="rgb(0,0,0)" stroke-width="0.25" >
<path d="M628.228,281.105 623.37,281.105 625.799,266.532 625.799,266.532 z" />
<path d="M628.228,215.193 623.37,215.193 625.799,229.767 625.799,229.767 z" />
</g>
<g clip-path="url(#clipId0)" fill="none" stroke="rgb(0,0,0)" stroke-width="0.25" >
<polyline points="622.359,241.918 626.523,251.634 " />
<polyline points="630.687,241.918 626.523,251.634 625.135,254.409 623.747,255.797 622.359,256.491 621.665,256.491 " />
<polyline points="926.011,339.398 1006.91,339.398 " />
<polyline points="926.011,193.666 1006.91,193.666 " />
<polyline points="989.421,324.825 989.421,288.392 " />
<polyline points="989.421,208.24 989.421,244.672 " />
</g>
<g clip-path="url(#clipId0)" fill="rgb(0,0,0)" stroke="rgb(0,0,0)" stroke-width="0.25" >
<path d="M991.85,324.825 986.992,324.825 989.421,339.398 989.421,339.398 z" />
<path d="M991.85,208.24 986.992,208.24 989.421,193.666 989.421,193.666 z" />
</g>
<g clip-path="url(#clipId0)" fill="none" stroke="rgb(0,0,0)" stroke-width="0.25" >
<polyline points="987.339,259.246 987.339,273.819 " />
<polyline points="997.055,259.246 997.055,273.819 " />
<polyline points="987.339,266.185 997.055,266.185 " />
<polyline points="106.37,500.468 105.121,500.885 104.289,502.134 103.872,504.216 103.872,505.465 104.289,507.547 105.121,508.796 106.37,509.212 107.203,509.212 108.452,508.796 109.285,507.547 109.701,505.465 109.701,504.216 109.285,502.134 108.452,500.885 107.203,500.468 106.37,500.468 " />
<polyline points="94.031,491.21 88.4794,505.783 " />
<polyline points="94.031,491.21 99.5827,505.783 " />
<polyline points="90.5612,500.925 97.5008,500.925 " />
<polyline points="173.037,274.644 171.649,275.337 170.261,276.725 169.567,278.113 168.873,280.195 168.873,283.665 169.567,285.747 170.261,287.135 171.649,288.523 173.037,289.217 175.813,289.217 177.201,288.523 178.589,287.135 179.283,285.747 179.977,283.665 179.977,280.195 179.283,278.113 178.589,276.725 177.201,275.337 175.813,274.644 173.037,274.644 " />
<polyline points="175.119,286.441 179.283,290.605 " />
<polyline points="775.552,244.697 804.85,215.399 " />
<polyline points="758.378,244.697 787.675,215.399 " />
<polyline points="741.203,244.697 770.501,215.399 " />
<polyline points="724.029,244.697 753.326,215.399 " />
<polyline points="706.854,244.697 736.152,215.399 " />
<polyline points="689.679,244.697 718.977,215.399 " />
<polyline points="681.565,235.636 701.802,215.399 " />
<polyline points="681.565,218.462 684.628,215.399 " />
<polyline points="792.727,244.697 822.025,215.399 " />
<polyline points="809.902,244.697 839.199,215.399 " />
<polyline points="827.076,244.697 856.374,215.399 " />
<polyline points="844.251,244.697 873.548,215.399 " />
<polyline points="861.425,244.697 890.723,215.399 " />
<polyline points="878.6,244.697 907.898,215.399 " />
<polyline points="895.775,244.697 919.939,220.532 " />
<polyline points="912.949,244.697 919.939,237.707 " />
<polyline points="83.7156,594.311 82.3277,592.923 80.2458,592.229 77.47,592.229 75.3881,592.923 74.0002,594.311 74.0002,595.699 74.6942,597.087 75.3881,597.781 76.7761,598.475 80.9398,599.863 82.3277,600.556 83.0217,601.25 83.7156,602.638 83.7156,604.72 82.3277,606.108 80.2458,606.802 77.47,606.802 75.3881,606.108 74.0002,604.72 " />
<polyline points="88.5734,597.087 88.5734,606.802 " />
<polyline points="88.5734,599.863 90.6552,597.781 92.0431,597.087 94.125,597.087 95.5129,597.781 96.2069,599.863 96.2069,606.802 " />
<polyline points="96.2069,599.863 98.2888,597.781 99.6767,597.087 101.759,597.087 103.146,597.781 103.84,599.863 103.84,606.802 " />
<polyline points="123.965,598.475 136.456,598.475 " />
<polyline points="123.965,602.638 136.456,602.638 " />
<polyline points="164.215,592.229 164.215,606.802 " />
<polyline points="164.215,599.169 162.827,597.781 161.439,597.087 159.357,597.087 157.969,597.781 156.581,599.169 155.887,601.25 155.887,602.638 156.581,604.72 157.969,606.108 159.357,606.802 161.439,606.802 162.827,606.108 164.215,604.72 " />
<polyline points="182.952,592.229 186.421,606.802 " />
<polyline points="189.891,592.229 186.421,606.802 " />
<polyline points="189.891,592.229 193.361,606.802 " />
<polyline points="196.831,592.229 193.361,606.802 " />
<polyline points="82.0758,626.702 82.0758,641.275 " />
<polyline points="82.0758,626.702 88.3214,626.702 90.4033,627.396 91.0973,628.09 91.7912,629.478 91.7912,630.866 91.0973,632.253 90.4033,632.947 88.3214,633.641 82.0758,633.641 " />
<polyline points="86.9335,633.641 91.7912,641.275 " />
<polyline points="95.955,635.723 104.282,635.723 104.282,634.335 103.589,632.947 102.895,632.253 101.507,631.559 99.4248,631.559 98.0369,632.253 96.6489,633.641 95.955,635.723 95.955,637.111 96.6489,639.193 98.0369,640.581 99.4248,641.275 101.507,641.275 102.895,640.581 104.282,639.193 " />
<polyline points="123.713,632.947 136.205,632.947 " />
<polyline points="123.713,637.111 136.205,637.111 " />
<polyline points="160.493,626.702 159.105,626.702 157.717,627.396 157.023,629.478 157.023,641.275 " />
<polyline points="154.941,631.559 159.799,631.559 " />
<polyline points="169.515,623.926 168.127,625.314 166.739,627.396 165.351,630.172 164.657,633.641 164.657,636.417 165.351,639.887 166.739,642.663 168.127,644.745 169.515,646.133 " />
<polyline points="182.006,626.702 182.006,641.275 " />
<polyline points="182.006,633.641 180.618,632.253 179.23,631.559 177.148,631.559 175.76,632.253 174.372,633.641 173.678,635.723 173.678,637.111 174.372,639.193 175.76,640.581 177.148,641.275 179.23,641.275 180.618,640.581 182.006,639.193 " />
<polyline points="188.945,640.581 188.251,641.275 187.557,640.581 188.251,639.887 188.945,640.581 188.945,641.969 188.251,643.357 187.557,644.051 " />
<polyline points="192.415,626.702 197.967,641.275 " />
<polyline points="203.519,626.702 197.967,641.275 " />
<polyline points="220.868,623.926 222.255,625.314 223.643,627.396 225.031,630.172 225.725,633.641 225.725,636.417 225.031,639.887 223.643,642.663 222.255,644.745 220.868,646.133 " />
<polyline points="206.787,636.41 205.538,636.827 204.705,638.076 204.288,640.158 204.288,641.407 204.705,643.489 205.538,644.738 206.787,645.154 207.619,645.154 208.869,644.738 209.701,643.489 210.118,641.407 210.118,640.158 209.701,638.076 208.869,636.827 207.619,636.41 206.787,636.41 " />
<polyline points="32.4986,556.317 35.2744,566.033 " />
<polyline points="38.0502,556.317 35.2744,566.033 " />
<polyline points="38.0502,556.317 40.8261,566.033 " />
<polyline points="43.6019,556.317 40.8261,566.033 " />
<polyline points="48.4596,551.459 48.4596,566.033 " />
<polyline points="48.4596,559.093 50.5415,557.011 51.9294,556.317 54.0113,556.317 55.3992,557.011 56.0932,559.093 56.0932,566.033 " />
<polyline points="60.9509,560.481 69.2784,560.481 69.2784,559.093 68.5844,557.705 67.8905,557.011 66.5025,556.317 64.4207,556.317 63.0327,557.011 61.6448,558.399 60.9509,560.481 60.9509,561.869 61.6448,563.951 63.0327,565.339 64.4207,566.033 66.5025,566.033 67.8905,565.339 69.2784,563.951 " />
<polyline points="74.1361,556.317 74.1361,566.033 " />
<polyline points="74.1361,560.481 74.83,558.399 76.218,557.011 77.6059,556.317 79.6878,556.317 " />
<polyline points="82.4636,560.481 90.7911,560.481 90.7911,559.093 90.0971,557.705 89.4032,557.011 88.0153,556.317 85.9334,556.317 84.5455,557.011 83.1575,558.399 82.4636,560.481 82.4636,561.869 83.1575,563.951 84.5455,565.339 85.9334,566.033 88.0153,566.033 89.4032,565.339 90.7911,563.951 " />
<polyline points="96.3428,556.317 95.6488,557.011 96.3428,557.705 97.0367,557.011 96.3428,556.317 " />
<polyline points="96.3428,564.645 95.6488,565.339 96.3428,566.033 97.0367,565.339 96.3428,564.645 " />
<polyline points="178.966,266.62 137.591,266.62 " />
<polyline points="31.3122,253.586 31.3122,254.396 " />
<polyline points="924.394,623.524 923.376,621.489 921.34,619.453 919.305,618.435 915.234,618.435 913.198,619.453 911.162,621.489 910.145,623.524 909.127,626.578 909.127,631.667 910.145,634.72 911.162,636.756 913.198,638.791 915.234,639.809 919.305,639.809 921.34,638.791 923.376,636.756 924.394,634.72 " />
<polyline points="931.519,618.435 931.519,639.809 " />
<polyline points="931.519,618.435 940.679,618.435 943.732,619.453 944.75,620.471 945.768,622.506 945.768,624.542 944.75,626.578 943.732,627.595 940.679,628.613 931.519,628.613 " />
<polyline points="938.643,628.613 945.768,639.809 " />
<polyline points="965.106,621.489 964.088,619.453 961.035,618.435 958.999,618.435 955.946,619.453 953.91,622.506 952.892,627.595 952.892,632.685 953.91,636.756 955.946,638.791 958.999,639.809 960.017,639.809 963.07,638.791 965.106,636.756 966.124,633.702 966.124,632.685 965.106,629.631 963.07,627.595 960.017,626.578 958.999,626.578 955.946,627.595 953.91,629.631 952.892,632.685 " />
<polyline points="973.249,630.649 991.569,630.649 " />
<polyline points="1008.87,618.435 998.694,632.685 1013.96,632.685 " />
<polyline points="1008.87,618.435 1008.87,639.809 " />
<polyline points="43.5332,493.218 42.1453,491.83 40.0634,491.136 37.2876,491.136 35.2057,491.83 33.8178,493.218 33.8178,494.606 34.5118,495.994 35.2057,496.687 36.5937,497.381 40.7574,498.769 42.1453,499.463 42.8393,500.157 43.5332,501.545 43.5332,503.627 42.1453,505.015 40.0634,505.709 37.2876,505.709 35.2057,505.015 33.8178,503.627 " />
<polyline points="48.3909,495.994 48.3909,505.709 " />
<polyline points="48.3909,498.769 50.4728,496.687 51.8607,495.994 53.9426,495.994 55.3305,496.687 56.0245,498.769 56.0245,505.709 " />
<polyline points="56.0245,498.769 58.1064,496.687 59.4943,495.994 61.5762,495.994 62.9641,496.687 63.658,498.769 63.658,505.709 " />
</g>
</svg>
