<?xml version="1.0" standalone="no"?>
<svg viewBox="0 0 1024 768" version="1.1" xmlns="http://www.w3.org/2000/svg" xmlns:xlink="http://www.w3.org/1999/xlink" stroke-linecap="round" stroke-linejoin="round" fill-rule="evenodd" xml:space="preserve" >
<defs >
<clipPath id="clipId0" >
<path d="M0,768 1024,768 1024,0 0,0 z" />
</clipPath>
</defs>
<g clip-path="url(#clipId0)" fill="none" stroke="rgb(0,0,0)" stroke-width="0.1" />
<g clip-path="url(#clipId0)" fill="none" stroke="rgb(0,0,0)" stroke-width="0.25" >
<polyline points="535.957,251.729 33.9622,251.729 " />
<polyline points="535.957,406.157 33.9622,406.157 " />
<polyline points="153.505,328.943 74.5536,328.943 " />
</g>
<g clip-path="url(#clipId0)" fill="rgb(0,0,0)" stroke="rgb(0,0,0)" stroke-width="0.25" >
<path d="M153.505,326.37 153.505,331.517 168.947,328.943 168.947,328.943 z" />
</g>
<g clip-path="url(#clipId0)" fill="none" stroke="rgb(0,0,0)" stroke-width="0.25" >
<polyline points="730.843,251.729 730.843,406.157 " />
<polyline points="1013.96,251.729 1013.96,406.157 " />
<polyline points="730.843,406.157 1013.96,406.157 " />
<polyline points="730.843,251.729 1013.96,251.729 " />
<polyline points="33.9622,231.702 33.9622,315.131 " />
<polyline points="57.8853,315.131 33.9622,315.131 " />
<polyline points="10.0392,342.755 33.9622,342.755 " />
<polyline points="10.0392,342.755 57.8853,315.131 " />
<polyline points="33.9622,342.755 33.9622,424.631 " />
<polyline points="562.86,342.755 562.86,424.631 " />
<polyline points="538.937,342.755 586.783,315.131 " />
<polyline points="538.937,342.755 562.86,342.755 " />
<polyline points="586.783,315.131 562.86,315.131 " />
<polyline points="562.86,231.702 562.86,315.131 " />
<polyline points="259.222,406.157 259.222,251.729 " />
<polyline points="336.436,406.157 336.436,251.729 " stroke-dasharray="25.737961,12.868981" />
<polyline points="765.314,406.157 765.314,251.729 " />
<polyline points="362.174,406.157 362.174,251.729 " />
<polyline points="765.314,272.32 993.37,272.32 " />
<polyline points="993.37,272.32 993.37,385.567 " />
<polyline points="765.314,385.567 993.37,385.567 " />
<polyline points="811.826,272.32 811.826,385.567 " />
<polyline points="876.449,272.32 876.449,385.567 " />
<polyline points="941.073,272.32 941.073,385.567 " />
<polyline points="737.02,251.729 737.02,406.157 " />
</g>
<g clip-path="url(#clipId0)" fill="rgb(0,0,0)" stroke="rgb(0,0,0)" stroke-width="0.25" >
<path d="M748.806,259.597 743.962,261.338 751.609,274.999 751.609,274.999 z" />
</g>
<g clip-path="url(#clipId0)" fill="none" stroke="rgb(0,0,0)" stroke-width="0.25" >
<polyline points="746.384,260.467 707.432,152.127 " />
</g>
<g clip-path="url(#clipId0)" fill="rgb(0,0,0)" stroke="rgb(0,0,0)" stroke-width="0.25" >
<path d="M857.638,408.189 861.621,411.45 869.414,397.872 869.414,397.872 z" />
</g>
<g clip-path="url(#clipId0)" fill="none" stroke="rgb(0,0,0)" stroke-width="0.25" >
<polyline points="859.63,409.819 781.06,505.76 " />
<polyline points="800.498,406.157 821.089,385.567 " />
<polyline points="934.336,272.32 954.926,251.729 " />
<polyline points="782.299,406.157 802.889,385.567 " />
<polyline points="916.136,272.32 936.727,251.729 " />
<polyline points="765.314,404.942 784.69,385.567 " />
<polyline points="897.937,272.32 918.527,251.729 " />
<polyline points="765.314,386.743 766.49,385.567 " />
<polyline points="879.737,272.32 900.328,251.729 " />
<polyline points="861.538,272.32 882.128,251.729 " />
<polyline points="843.338,272.32 863.929,251.729 " />
<polyline points="825.139,272.32 845.729,251.729 " />
<polyline points="806.939,272.32 827.53,251.729 " />
<polyline points="788.74,272.32 809.33,251.729 " />
<polyline points="770.54,272.32 791.131,251.729 " />
<polyline points="765.314,259.346 772.931,251.729 " />
<polyline points="818.698,406.157 839.288,385.567 " />
<polyline points="952.535,272.32 973.125,251.729 " />
<polyline points="836.897,406.157 857.488,385.567 " />
<polyline points="970.735,272.32 991.325,251.729 " />
<polyline points="855.097,406.157 875.687,385.567 " />
<polyline points="988.934,272.32 1009.52,251.729 " />
<polyline points="873.296,406.157 893.887,385.567 " />
<polyline points="993.37,286.083 1013.96,265.493 " />
<polyline points="891.496,406.157 912.086,385.567 " />
<polyline points="993.37,304.282 1013.96,283.692 " />
<polyline points="909.695,406.157 930.286,385.567 " />
<polyline points="993.37,322.482 1013.96,301.892 " />
<polyline points="927.895,406.157 948.485,385.567 " />
<polyline points="993.37,340.681 1013.96,320.091 " />
<polyline points="946.094,406.157 966.684,385.567 " />
<polyline points="993.37,358.881 1013.96,338.291 " />
<polyline points="964.294,406.157 984.884,385.567 " />
<polyline points="993.37,377.08 1013.96,356.49 " />
<polyline points="982.493,406.157 1013.96,374.69 " />
<polyline points="1000.69,406.157 1013.96,392.889 " />
<polyline points="112.756,306.277 111.285,307.012 109.815,308.483 109.079,309.954 108.344,312.16 108.344,315.837 109.079,318.043 109.815,319.513 111.285,320.984 112.756,321.72 115.698,321.72 117.168,320.984 118.639,319.513 119.374,318.043 120.11,315.837 120.11,312.16 119.374,309.954 118.639,308.483 117.168,307.012 115.698,306.277 112.756,306.277 " />
<polyline points="114.962,318.778 119.374,323.19 " />
<polyline points="114.331,337.861 108.448,353.304 " />
<polyline points="114.331,337.861 120.214,353.304 " />
<polyline points="110.654,348.157 118.007,348.157 " />
<polyline points="127.444,347.221 126.12,347.662 125.238,348.986 124.796,351.192 124.796,352.516 125.238,354.722 126.12,356.046 127.444,356.487 128.326,356.487 129.65,356.046 130.532,354.722 130.973,352.516 130.973,351.192 130.532,348.986 129.65,347.662 128.326,347.221 127.444,347.221 " />
<polyline points="841.572,272.32 841.572,385.567 " />
<polyline points="786.725,272.32 786.725,385.567 " />
<polyline points="908.938,272.32 908.938,385.567 " />
<polyline points="417.632,318.994 421.309,334.437 " />
<polyline points="424.986,318.994 421.309,334.437 " />
<polyline points="424.986,318.994 428.663,334.437 " />
<polyline points="432.34,318.994 428.663,334.437 " />
<polyline points="451.459,324.142 459.548,334.437 " />
<polyline points="459.548,324.142 451.459,334.437 " />
<polyline points="480.139,318.994 480.139,334.437 " />
<polyline points="490.434,318.994 490.434,334.437 " />
<polyline points="480.139,326.348 490.434,326.348 " />
</g>
<g clip-path="url(#clipId0)" fill="rgb(0,0,0)" stroke="rgb(0,0,0)" stroke-width="0.25" >
<path d="M765.314,300.57 765.314,294.393 969.063,294.393 969.063,300.57 z" />
<polygon points="969.063,300.57 969.799,300.541 969.315,294.383 969.063,294.393 " />
<polygon points="969.799,300.541 970.531,300.454 969.564,294.353 969.315,294.383 " />
<polygon points="970.531,300.454 971.253,300.311 969.811,294.304 969.564,294.353 " />
<polygon points="971.253,300.311 971.962,300.111 970.053,294.236 969.811,294.304 " />
<polygon points="971.962,300.111 972.653,299.856 970.289,294.149 970.053,294.236 " />
<polygon points="972.653,299.856 973.321,299.548 970.517,294.044 970.289,294.149 " />
<polygon points="973.321,299.548 973.964,299.188 970.736,293.921 970.517,294.044 " />
<polygon points="973.964,299.188 974.576,298.779 970.945,293.781 970.736,293.921 " />
<polygon points="974.576,298.779 975.155,298.323 971.143,293.626 970.945,293.781 " />
<polygon points="975.155,298.323 975.695,297.823 971.328,293.455 971.143,293.626 " />
<polygon points="975.695,297.823 976.195,297.282 971.498,293.27 971.328,293.455 " />
<polygon points="976.195,297.282 976.651,296.704 971.654,293.073 971.498,293.27 " />
<polygon points="976.651,296.704 977.06,296.091 971.793,292.864 971.654,293.073 " />
<polygon points="977.06,296.091 977.42,295.449 971.916,292.645 971.793,292.864 " />
<polygon points="977.42,295.449 977.728,294.78 972.022,292.416 971.916,292.645 " />
<polygon points="977.728,294.78 977.983,294.089 972.109,292.18 972.022,292.416 " />
<polygon points="977.983,294.089 978.183,293.38 972.177,291.938 972.109,292.18 " />
<polygon points="978.183,293.38 978.327,292.658 972.226,291.692 972.177,291.938 " />
<polygon points="978.327,292.658 978.413,291.927 972.255,291.442 972.226,291.692 " />
<polygon points="978.413,291.927 978.442,291.191 972.265,291.191 972.255,291.442 " />
<polygon points="978.442,291.191 978.413,290.455 972.255,290.94 972.265,291.191 " />
<polygon points="978.413,290.455 978.327,289.724 972.226,290.69 972.255,290.94 " />
<polygon points="978.327,289.724 978.183,289.001 972.177,290.443 972.226,290.69 " />
<polygon points="978.183,289.001 977.983,288.293 972.109,290.202 972.177,290.443 " />
<polygon points="977.983,288.293 977.728,287.602 972.022,289.966 972.109,290.202 " />
<polygon points="977.728,287.602 977.42,286.933 971.916,289.737 972.022,289.966 " />
<polygon points="977.42,286.933 977.06,286.29 971.793,289.518 971.916,289.737 " />
<polygon points="977.06,286.29 976.651,285.678 971.654,289.309 971.793,289.518 " />
<polygon points="976.651,285.678 976.195,285.1 971.498,289.112 971.654,289.309 " />
<polygon points="976.195,285.1 975.695,284.559 971.328,288.927 971.498,289.112 " />
<polygon points="975.695,284.559 975.155,284.059 971.143,288.756 971.328,288.927 " />
<polygon points="975.155,284.059 974.576,283.603 970.945,288.601 971.143,288.756 " />
<polygon points="974.576,283.603 973.964,283.194 970.736,288.461 970.945,288.601 " />
<polygon points="973.964,283.194 973.321,282.834 970.517,288.338 970.736,288.461 " />
<polygon points="973.321,282.834 972.653,282.526 970.289,288.233 970.517,288.338 " />
<polygon points="972.653,282.526 971.962,282.271 970.053,288.146 970.289,288.233 " />
<polygon points="971.962,282.271 971.253,282.071 969.811,288.078 970.053,288.146 " />
<polygon points="971.253,282.071 970.531,281.927 969.564,288.029 969.811,288.078 " />
<polygon points="970.531,281.927 969.799,281.841 969.315,287.999 969.564,288.029 " />
<polygon points="969.799,281.841 969.063,281.812 969.063,287.989 969.315,287.999 " />
<path d="M969.063,281.812 969.063,287.989 765.314,287.989 765.314,281.812 z" />
<path d="M765.314,325.731 765.314,319.554 969.063,319.554 969.063,325.731 z" />
<polygon points="969.063,325.731 969.799,325.702 969.315,319.544 969.063,319.554 " />
<polygon points="969.799,325.702 970.531,325.616 969.564,319.515 969.315,319.544 " />
<polygon points="970.531,325.616 971.253,325.472 969.811,319.466 969.564,319.515 " />
<polygon points="971.253,325.472 971.962,325.272 970.053,319.397 969.811,319.466 " />
<polygon points="971.962,325.272 972.653,325.017 970.289,319.31 970.053,319.397 " />
<polygon points="972.653,325.017 973.321,324.709 970.517,319.205 970.289,319.31 " />
<polygon points="973.321,324.709 973.964,324.349 970.736,319.082 970.517,319.205 " />
<polygon points="973.964,324.349 974.576,323.94 970.945,318.943 970.736,319.082 " />
<polygon points="974.576,323.94 975.155,323.484 971.143,318.787 970.945,318.943 " />
<polygon points="975.155,323.484 975.695,322.984 971.328,318.616 971.143,318.787 " />
<polygon points="975.695,322.984 976.195,322.443 971.498,318.432 971.328,318.616 " />
<polygon points="976.195,322.443 976.651,321.865 971.654,318.234 971.498,318.432 " />
<polygon points="976.651,321.865 977.06,321.253 971.793,318.025 971.654,318.234 " />
<polygon points="977.06,321.253 977.42,320.61 971.916,317.806 971.793,318.025 " />
<polygon points="977.42,320.61 977.728,319.942 972.022,317.578 971.916,317.806 " />
<polygon points="977.728,319.942 977.983,319.251 972.109,317.342 972.022,317.578 " />
<polygon points="977.983,319.251 978.183,318.542 972.177,317.1 972.109,317.342 " />
<polygon points="978.183,318.542 978.327,317.82 972.226,316.853 972.177,317.1 " />
<polygon points="978.327,317.82 978.413,317.088 972.255,316.604 972.226,316.853 " />
<polygon points="978.413,317.088 978.442,316.352 972.265,316.352 972.255,316.604 " />
<polygon points="978.442,316.352 978.413,315.616 972.255,316.101 972.265,316.352 " />
<polygon points="978.413,315.616 978.327,314.885 972.226,315.851 972.255,316.101 " />
<polygon points="978.327,314.885 978.183,314.163 972.177,315.605 972.226,315.851 " />
<polygon points="978.183,314.163 977.983,313.454 972.109,315.363 972.177,315.605 " />
<polygon points="977.983,313.454 977.728,312.763 972.022,315.127 972.109,315.363 " />
<polygon points="977.728,312.763 977.42,312.094 971.916,314.899 972.022,315.127 " />
<polygon points="977.42,312.094 977.06,311.452 971.793,314.679 971.916,314.899 " />
<polygon points="977.06,311.452 976.651,310.84 971.654,314.47 971.793,314.679 " />
<polygon points="976.651,310.84 976.195,310.261 971.498,314.273 971.654,314.47 " />
<polygon points="976.195,310.261 975.695,309.72 971.328,314.088 971.498,314.273 " />
<polygon points="975.695,309.72 975.155,309.221 971.143,313.918 971.328,314.088 " />
<polygon points="975.155,309.221 974.576,308.765 970.945,313.762 971.143,313.918 " />
<polygon points="974.576,308.765 973.964,308.356 970.736,313.622 970.945,313.762 " />
<polygon points="973.964,308.356 973.321,307.996 970.517,313.5 970.736,313.622 " />
<polygon points="973.321,307.996 972.653,307.687 970.289,313.394 970.517,313.5 " />
<polygon points="972.653,307.687 971.962,307.432 970.053,313.307 970.289,313.394 " />
<polygon points="971.962,307.432 971.253,307.233 969.811,313.239 970.053,313.307 " />
<polygon points="971.253,307.233 970.531,307.089 969.564,313.19 969.811,313.239 " />
<polygon points="970.531,307.089 969.799,307.002 969.315,313.16 969.564,313.19 " />
<polygon points="969.799,307.002 969.063,306.973 969.063,313.151 969.315,313.16 " />
<path d="M969.063,306.973 969.063,313.151 765.314,313.151 765.314,306.973 z" />
<path d="M765.314,350.893 765.314,344.716 969.063,344.716 969.063,350.893 z" />
<polygon points="969.063,350.893 969.799,350.864 969.315,344.706 969.063,344.716 " />
<polygon points="969.799,350.864 970.531,350.777 969.564,344.676 969.315,344.706 " />
<polygon points="970.531,350.777 971.253,350.634 969.811,344.627 969.564,344.676 " />
<polygon points="971.253,350.634 971.962,350.434 970.053,344.559 969.811,344.627 " />
<polygon points="971.962,350.434 972.653,350.179 970.289,344.472 970.053,344.559 " />
<polygon points="972.653,350.179 973.321,349.87 970.517,344.367 970.289,344.472 " />
<polygon points="973.321,349.87 973.964,349.511 970.736,344.244 970.517,344.367 " />
<polygon points="973.964,349.511 974.576,349.101 970.945,344.104 970.736,344.244 " />
<polygon points="974.576,349.101 975.155,348.646 971.143,343.948 970.945,344.104 " />
<polygon points="975.155,348.646 975.695,348.146 971.328,343.778 971.143,343.948 " />
<polygon points="975.695,348.146 976.195,347.605 971.498,343.593 971.328,343.778 " />
<polygon points="976.195,347.605 976.651,347.027 971.654,343.396 971.498,343.593 " />
<polygon points="976.651,347.027 977.06,346.414 971.793,343.187 971.654,343.396 " />
<polygon points="977.06,346.414 977.42,345.772 971.916,342.967 971.793,343.187 " />
<polygon points="977.42,345.772 977.728,345.103 972.022,342.739 971.916,342.967 " />
<polygon points="977.728,345.103 977.983,344.412 972.109,342.503 972.022,342.739 " />
<polygon points="977.983,344.412 978.183,343.703 972.177,342.261 972.109,342.503 " />
<polygon points="978.183,343.703 978.327,342.981 972.226,342.015 972.177,342.261 " />
<polygon points="978.327,342.981 978.413,342.25 972.255,341.765 972.226,342.015 " />
<polygon points="978.413,342.25 978.442,341.514 972.265,341.514 972.255,341.765 " />
<polygon points="978.442,341.514 978.413,340.778 972.255,341.263 972.265,341.514 " />
<polygon points="978.413,340.778 978.327,340.047 972.226,341.013 972.255,341.263 " />
<polygon points="978.327,340.047 978.183,339.324 972.177,340.766 972.226,341.013 " />
<polygon points="978.183,339.324 977.983,338.616 972.109,340.524 972.177,340.766 " />
<polygon points="977.983,338.616 977.728,337.925 972.022,340.289 972.109,340.524 " />
<polygon points="977.728,337.925 977.42,337.256 971.916,340.06 972.022,340.289 " />
<polygon points="977.42,337.256 977.06,336.613 971.793,339.841 971.916,340.06 " />
<polygon points="977.06,336.613 976.651,336.001 971.654,339.632 971.793,339.841 " />
<polygon points="976.651,336.001 976.195,335.423 971.498,339.434 971.654,339.632 " />
<polygon points="976.195,335.423 975.695,334.882 971.328,339.25 971.498,339.434 " />
<polygon points="975.695,334.882 975.155,334.382 971.143,339.079 971.328,339.25 " />
<polygon points="975.155,334.382 974.576,333.926 970.945,338.923 971.143,339.079 " />
<polygon points="974.576,333.926 973.964,333.517 970.736,338.784 970.945,338.923 " />
<polygon points="973.964,333.517 973.321,333.157 970.517,338.661 970.736,338.784 " />
<polygon points="973.321,333.157 972.653,332.849 970.289,338.556 970.517,338.661 " />
<polygon points="972.653,332.849 971.962,332.594 970.053,338.469 970.289,338.556 " />
<polygon points="971.962,332.594 971.253,332.394 969.811,338.4 970.053,338.469 " />
<polygon points="971.253,332.394 970.531,332.25 969.564,338.351 969.811,338.4 " />
<polygon points="970.531,332.25 969.799,332.164 969.315,338.322 969.564,338.351 " />
<polygon points="969.799,332.164 969.063,332.135 969.063,338.312 969.315,338.322 " />
<path d="M969.063,332.135 969.063,338.312 765.314,338.312 765.314,332.135 z" />
<path d="M765.314,376.054 765.314,369.877 969.063,369.877 969.063,376.054 z" />
<polygon points="969.063,376.054 969.799,376.025 969.315,369.867 969.063,369.877 " />
<polygon points="969.799,376.025 970.531,375.939 969.564,369.838 969.315,369.867 " />
<polygon points="970.531,375.939 971.253,375.795 969.811,369.789 969.564,369.838 " />
<polygon points="971.253,375.795 971.962,375.595 970.053,369.72 969.811,369.789 " />
<polygon points="971.962,375.595 972.653,375.34 970.289,369.633 970.053,369.72 " />
<polygon points="972.653,375.34 973.321,375.032 970.517,369.528 970.289,369.633 " />
<polygon points="973.321,375.032 973.964,374.672 970.736,369.405 970.517,369.528 " />
<polygon points="973.964,374.672 974.576,374.263 970.945,369.266 970.736,369.405 " />
<polygon points="974.576,374.263 975.155,373.807 971.143,369.11 970.945,369.266 " />
<polygon points="975.155,373.807 975.695,373.307 971.328,368.939 971.143,369.11 " />
<polygon points="975.695,373.307 976.195,372.766 971.498,368.755 971.328,368.939 " />
<polygon points="976.195,372.766 976.651,372.188 971.654,368.557 971.498,368.755 " />
<polygon points="976.651,372.188 977.06,371.576 971.793,368.348 971.654,368.557 " />
<polygon points="977.06,371.576 977.42,370.933 971.916,368.129 971.793,368.348 " />
<polygon points="977.42,370.933 977.728,370.264 972.022,367.9 971.916,368.129 " />
<polygon points="977.728,370.264 977.983,369.573 972.109,367.665 972.022,367.9 " />
<polygon points="977.983,369.573 978.183,368.865 972.177,367.423 972.109,367.665 " />
<polygon points="978.183,368.865 978.327,368.142 972.226,367.176 972.177,367.423 " />
<polygon points="978.327,368.142 978.413,367.411 972.255,366.926 972.226,367.176 " />
<polygon points="978.413,367.411 978.442,366.675 972.265,366.675 972.255,366.926 " />
<polygon points="978.442,366.675 978.413,365.939 972.255,366.424 972.265,366.675 " />
<polygon points="978.413,365.939 978.327,365.208 972.226,366.174 972.255,366.424 " />
<polygon points="978.327,365.208 978.183,364.486 972.177,365.928 972.226,366.174 " />
<polygon points="978.183,364.486 977.983,363.777 972.109,365.686 972.177,365.928 " />
<polygon points="977.983,363.777 977.728,363.086 972.022,365.45 972.109,365.686 " />
<polygon points="977.728,363.086 977.42,362.417 971.916,365.222 972.022,365.45 " />
<polygon points="977.42,362.417 977.06,361.775 971.793,365.002 971.916,365.222 " />
<polygon points="977.06,361.775 976.651,361.162 971.654,364.793 971.793,365.002 " />
<polygon points="976.651,361.162 976.195,360.584 971.498,364.596 971.654,364.793 " />
<polygon points="976.195,360.584 975.695,360.043 971.328,364.411 971.498,364.596 " />
<polygon points="975.695,360.043 975.155,359.543 971.143,364.241 971.328,364.411 " />
<polygon points="975.155,359.543 974.576,359.088 970.945,364.085 971.143,364.241 " />
<polygon points="974.576,359.088 973.964,358.678 970.736,363.945 970.945,364.085 " />
<polygon points="973.964,358.678 973.321,358.319 970.517,363.822 970.736,363.945 " />
<polygon points="973.321,358.319 972.653,358.01 970.289,363.717 970.517,363.822 " />
<polygon points="972.653,358.01 971.962,357.755 970.053,363.63 970.289,363.717 " />
<polygon points="971.962,357.755 971.253,357.555 969.811,363.562 970.053,363.63 " />
<polygon points="971.253,357.555 970.531,357.412 969.564,363.513 969.811,363.562 " />
<polygon points="970.531,357.412 969.799,357.325 969.315,363.483 969.564,363.513 " />
<polygon points="969.799,357.325 969.063,357.296 969.063,363.473 969.315,363.483 " />
<path d="M969.063,357.296 969.063,363.473 765.314,363.473 765.314,357.296 z" />
<polygon points="307.609,284.901 307.647,285.384 310.698,284.901 310.698,284.901 " />
<polygon points="307.647,285.384 307.76,285.855 310.698,284.901 310.698,284.901 " />
<polygon points="307.76,285.855 307.946,286.303 310.698,284.901 310.698,284.901 " />
<polygon points="307.946,286.303 308.199,286.716 310.698,284.901 310.698,284.901 " />
<polygon points="308.199,286.716 308.514,287.085 310.698,284.901 310.698,284.901 " />
<polygon points="308.514,287.085 308.882,287.399 310.698,284.901 310.698,284.901 " />
<polygon points="308.882,287.399 309.296,287.652 310.698,284.901 310.698,284.901 " />
<polygon points="309.296,287.652 309.743,287.838 310.698,284.901 310.698,284.901 " />
<polygon points="309.743,287.838 310.215,287.951 310.698,284.901 310.698,284.901 " />
<polygon points="310.215,287.951 310.698,287.989 310.698,284.901 310.698,284.901 " />
<polygon points="310.698,287.989 311.181,287.951 310.698,284.901 310.698,284.901 " />
<polygon points="311.181,287.951 311.652,287.838 310.698,284.901 310.698,284.901 " />
<polygon points="311.652,287.838 312.1,287.652 310.698,284.901 310.698,284.901 " />
<polygon points="312.1,287.652 312.513,287.399 310.698,284.901 310.698,284.901 " />
<polygon points="312.513,287.399 312.882,287.085 310.698,284.901 310.698,284.901 " />
<polygon points="312.882,287.085 313.196,286.716 310.698,284.901 310.698,284.901 " />
<polygon points="313.196,286.716 313.45,286.303 310.698,284.901 310.698,284.901 " />
<polygon points="313.45,286.303 313.635,285.855 310.698,284.901 310.698,284.901 " />
<polygon points="313.635,285.855 313.748,285.384 310.698,284.901 310.698,284.901 " />
<polygon points="313.748,285.384 313.786,284.901 310.698,284.901 310.698,284.901 " />
<polygon points="313.786,284.901 313.748,284.417 310.698,284.901 310.698,284.901 " />
<polygon points="313.748,284.417 313.635,283.946 310.698,284.901 310.698,284.901 " />
<polygon points="313.635,283.946 313.45,283.498 310.698,284.901 310.698,284.901 " />
<polygon points="313.45,283.498 313.196,283.085 310.698,284.901 310.698,284.901 " />
<polygon points="313.196,283.085 312.882,282.717 310.698,284.901 310.698,284.901 " />
<polygon points="312.882,282.717 312.513,282.402 310.698,284.901 310.698,284.901 " />
<polygon points="312.513,282.402 312.1,282.149 310.698,284.901 310.698,284.901 " />
<polygon points="312.1,282.149 311.652,281.963 310.698,284.901 310.698,284.901 " />
<polygon points="311.652,281.963 311.181,281.85 310.698,284.901 310.698,284.901 " />
<polygon points="311.181,281.85 310.698,281.812 310.698,284.901 310.698,284.901 " />
<polygon points="310.698,281.812 310.215,281.85 310.698,284.901 310.698,284.901 " />
<polygon points="310.215,281.85 309.743,281.963 310.698,284.901 310.698,284.901 " />
<polygon points="309.743,281.963 309.296,282.149 310.698,284.901 310.698,284.901 " />
<polygon points="309.296,282.149 308.882,282.402 310.698,284.901 310.698,284.901 " />
<polygon points="308.882,282.402 308.514,282.717 310.698,284.901 310.698,284.901 " />
<polygon points="308.514,282.717 308.199,283.085 310.698,284.901 310.698,284.901 " />
<polygon points="308.199,283.085 307.946,283.498 310.698,284.901 310.698,284.901 " />
<polygon points="307.946,283.498 307.76,283.946 310.698,284.901 310.698,284.901 " />
<polygon points="307.76,283.946 307.647,284.417 310.698,284.901 310.698,284.901 " />
<polygon points="307.647,284.417 307.609,284.901 310.698,284.901 310.698,284.901 " />
<polygon points="281.871,284.901 281.909,285.384 284.96,284.901 284.96,284.901 " />
<polygon points="281.909,285.384 282.022,285.855 284.96,284.901 284.96,284.901 " />
<polygon points="282.022,285.855 282.208,286.303 284.96,284.901 284.96,284.901 " />
<polygon points="282.208,286.303 282.461,286.716 284.96,284.901 284.96,284.901 " />
<polygon points="282.461,286.716 282.776,287.085 284.96,284.901 284.96,284.901 " />
<polygon points="282.776,287.085 283.144,287.399 284.96,284.901 284.96,284.901 " />
<polygon points="283.144,287.399 283.558,287.652 284.96,284.901 284.96,284.901 " />
<polygon points="283.558,287.652 284.005,287.838 284.96,284.901 284.96,284.901 " />
<polygon points="284.005,287.838 284.477,287.951 284.96,284.901 284.96,284.901 " />
<polygon points="284.477,287.951 284.96,287.989 284.96,284.901 284.96,284.901 " />
<polygon points="284.96,287.989 285.443,287.951 284.96,284.901 284.96,284.901 " />
<polygon points="285.443,287.951 285.914,287.838 284.96,284.901 284.96,284.901 " />
<polygon points="285.914,287.838 286.362,287.652 284.96,284.901 284.96,284.901 " />
<polygon points="286.362,287.652 286.775,287.399 284.96,284.901 284.96,284.901 " />
<polygon points="286.775,287.399 287.144,287.085 284.96,284.901 284.96,284.901 " />
<polygon points="287.144,287.085 287.459,286.716 284.96,284.901 284.96,284.901 " />
<polygon points="287.459,286.716 287.712,286.303 284.96,284.901 284.96,284.901 " />
<polygon points="287.712,286.303 287.897,285.855 284.96,284.901 284.96,284.901 " />
<polygon points="287.897,285.855 288.01,285.384 284.96,284.901 284.96,284.901 " />
<polygon points="288.01,285.384 288.048,284.901 284.96,284.901 284.96,284.901 " />
<polygon points="288.048,284.901 288.01,284.417 284.96,284.901 284.96,284.901 " />
<polygon points="288.01,284.417 287.897,283.946 284.96,284.901 284.96,284.901 " />
<polygon points="287.897,283.946 287.712,283.498 284.96,284.901 284.96,284.901 " />
<polygon points="287.712,283.498 287.459,283.085 284.96,284.901 284.96,284.901 " />
<polygon points="287.459,283.085 287.144,282.717 284.96,284.901 284.96,284.901 " />
<polygon points="287.144,282.717 286.775,282.402 284.96,284.901 284.96,284.901 " />
<polygon points="286.775,282.402 286.362,282.149 284.96,284.901 284.96,284.901 " />
<polygon points="286.362,282.149 285.914,281.963 284.96,284.901 284.96,284.901 " />
<polygon points="285.914,281.963 285.443,281.85 284.96,284.901 284.96,284.901 " />
<polygon points="285.443,281.85 284.96,281.812 284.96,284.901 284.96,284.901 " />
<polygon points="284.96,281.812 284.477,281.85 284.96,284.901 284.96,284.901 " />
<polygon points="284.477,281.85 284.005,281.963 284.96,284.901 284.96,284.901 " />
<polygon points="284.005,281.963 283.558,282.149 284.96,284.901 284.96,284.901 " />
<polygon points="283.558,282.149 283.144,282.402 284.96,284.901 284.96,284.901 " />
<polygon points="283.144,282.402 282.776,282.717 284.96,284.901 284.96,284.901 " />
<polygon points="282.776,282.717 282.461,283.085 284.96,284.901 284.96,284.901 " />
<polygon points="282.461,283.085 282.208,283.498 284.96,284.901 284.96,284.901 " />
<polygon points="282.208,283.498 282.022,283.946 284.96,284.901 284.96,284.901 " />
<polygon points="282.022,283.946 281.909,284.417 284.96,284.901 284.96,284.901 " />
<polygon points="281.909,284.417 281.871,284.901 284.96,284.901 284.96,284.901 " />
<polygon points="281.871,297.481 281.909,297.964 284.96,297.481 284.96,297.481 " />
<polygon points="281.909,297.964 282.022,298.436 284.96,297.481 284.96,297.481 " />
<polygon points="282.022,298.436 282.208,298.883 284.96,297.481 284.96,297.481 " />
<polygon points="282.208,298.883 282.461,299.297 284.96,297.481 284.96,297.481 " />
<polygon points="282.461,299.297 282.776,299.665 284.96,297.481 284.96,297.481 " />
<polygon points="282.776,299.665 283.144,299.98 284.96,297.481 284.96,297.481 " />
<polygon points="283.144,299.98 283.558,300.233 284.96,297.481 284.96,297.481 " />
<polygon points="283.558,300.233 284.005,300.419 284.96,297.481 284.96,297.481 " />
<polygon points="284.005,300.419 284.477,300.532 284.96,297.481 284.96,297.481 " />
<polygon points="284.477,300.532 284.96,300.57 284.96,297.481 284.96,297.481 " />
<polygon points="284.96,300.57 285.443,300.532 284.96,297.481 284.96,297.481 " />
<polygon points="285.443,300.532 285.914,300.419 284.96,297.481 284.96,297.481 " />
<polygon points="285.914,300.419 286.362,300.233 284.96,297.481 284.96,297.481 " />
<polygon points="286.362,300.233 286.775,299.98 284.96,297.481 284.96,297.481 " />
<polygon points="286.775,299.98 287.144,299.665 284.96,297.481 284.96,297.481 " />
<polygon points="287.144,299.665 287.459,299.297 284.96,297.481 284.96,297.481 " />
<polygon points="287.459,299.297 287.712,298.883 284.96,297.481 284.96,297.481 " />
<polygon points="287.712,298.883 287.897,298.436 284.96,297.481 284.96,297.481 " />
<polygon points="287.897,298.436 288.01,297.964 284.96,297.481 284.96,297.481 " />
<polygon points="288.01,297.964 288.048,297.481 284.96,297.481 284.96,297.481 " />
<polygon points="288.048,297.481 288.01,296.998 284.96,297.481 284.96,297.481 " />
<polygon points="288.01,296.998 287.897,296.527 284.96,297.481 284.96,297.481 " />
<polygon points="287.897,296.527 287.712,296.079 284.96,297.481 284.96,297.481 " />
<polygon points="287.712,296.079 287.459,295.666 284.96,297.481 284.96,297.481 " />
<polygon points="287.459,295.666 287.144,295.297 284.96,297.481 284.96,297.481 " />
<polygon points="287.144,295.297 286.775,294.983 284.96,297.481 284.96,297.481 " />
<polygon points="286.775,294.983 286.362,294.729 284.96,297.481 284.96,297.481 " />
<polygon points="286.362,294.729 285.914,294.544 284.96,297.481 284.96,297.481 " />
<polygon points="285.914,294.544 285.443,294.431 284.96,297.481 284.96,297.481 " />
<polygon points="285.443,294.431 284.96,294.393 284.96,297.481 284.96,297.481 " />
<polygon points="284.96,294.393 284.477,294.431 284.96,297.481 284.96,297.481 " />
<polygon points="284.477,294.431 284.005,294.544 284.96,297.481 284.96,297.481 " />
<polygon points="284.005,294.544 283.558,294.729 284.96,297.481 284.96,297.481 " />
<polygon points="283.558,294.729 283.144,294.983 284.96,297.481 284.96,297.481 " />
<polygon points="283.144,294.983 282.776,295.297 284.96,297.481 284.96,297.481 " />
<polygon points="282.776,295.297 282.461,295.666 284.96,297.481 284.96,297.481 " />
<polygon points="282.461,295.666 282.208,296.079 284.96,297.481 284.96,297.481 " />
<polygon points="282.208,296.079 282.022,296.527 284.96,297.481 284.96,297.481 " />
<polygon points="282.022,296.527 281.909,296.998 284.96,297.481 284.96,297.481 " />
<polygon points="281.909,296.998 281.871,297.481 284.96,297.481 284.96,297.481 " />
<polygon points="307.609,297.481 307.647,297.964 310.698,297.481 310.698,297.481 " />
<polygon points="307.647,297.964 307.76,298.436 310.698,297.481 310.698,297.481 " />
<polygon points="307.76,298.436 307.946,298.883 310.698,297.481 310.698,297.481 " />
<polygon points="307.946,298.883 308.199,299.297 310.698,297.481 310.698,297.481 " />
<polygon points="308.199,299.297 308.514,299.665 310.698,297.481 310.698,297.481 " />
<polygon points="308.514,299.665 308.882,299.98 310.698,297.481 310.698,297.481 " />
<polygon points="308.882,299.98 309.296,300.233 310.698,297.481 310.698,297.481 " />
<polygon points="309.296,300.233 309.743,300.419 310.698,297.481 310.698,297.481 " />
<polygon points="309.743,300.419 310.215,300.532 310.698,297.481 310.698,297.481 " />
<polygon points="310.215,300.532 310.698,300.57 310.698,297.481 310.698,297.481 " />
<polygon points="310.698,300.57 311.181,300.532 310.698,297.481 310.698,297.481 " />
<polygon points="311.181,300.532 311.652,300.419 310.698,297.481 310.698,297.481 " />
<polygon points="311.652,300.419 312.1,300.233 310.698,297.481 310.698,297.481 " />
<polygon points="312.1,300.233 312.513,299.98 310.698,297.481 310.698,297.481 " />
<polygon points="312.513,299.98 312.882,299.665 310.698,297.481 310.698,297.481 " />
<polygon points="312.882,299.665 313.196,299.297 310.698,297.481 310.698,297.481 " />
<polygon points="313.196,299.297 313.45,298.883 310.698,297.481 310.698,297.481 " />
<polygon points="313.45,298.883 313.635,298.436 310.698,297.481 310.698,297.481 " />
<polygon points="313.635,298.436 313.748,297.964 310.698,297.481 310.698,297.481 " />
<polygon points="313.748,297.964 313.786,297.481 310.698,297.481 310.698,297.481 " />
<polygon points="313.786,297.481 313.748,296.998 310.698,297.481 310.698,297.481 " />
<polygon points="313.748,296.998 313.635,296.527 310.698,297.481 310.698,297.481 " />
<polygon points="313.635,296.527 313.45,296.079 310.698,297.481 310.698,297.481 " />
<polygon points="313.45,296.079 313.196,295.666 310.698,297.481 310.698,297.481 " />
<polygon points="313.196,295.666 312.882,295.297 310.698,297.481 310.698,297.481 " />
<polygon points="312.882,295.297 312.513,294.983 310.698,297.481 310.698,297.481 " />
<polygon points="312.513,294.983 312.1,294.729 310.698,297.481 310.698,297.481 " />
<polygon points="312.1,294.729 311.652,294.544 310.698,297.481 310.698,297.481 " />
<polygon points="311.652,294.544 311.181,294.431 310.698,297.481 310.698,297.481 " />
<polygon points="311.181,294.431 310.698,294.393 310.698,297.481 310.698,297.481 " />
<polygon points="310.698,294.393 310.215,294.431 310.698,297.481 310.698,297.481 " />
<polygon points="310.215,294.431 309.743,294.544 310.698,297.481 310.698,297.481 " />
<polygon points="309.743,294.544 309.296,294.729 310.698,297.481 310.698,297.481 " />
<polygon points="309.296,294.729 308.882,294.983 310.698,297.481 310.698,297.481 " />
<polygon points="308.882,294.983 308.514,295.297 310.698,297.481 310.698,297.481 " />
<polygon points="308.514,295.297 308.199,295.666 310.698,297.481 310.698,297.481 " />
<polygon points="308.199,295.666 307.946,296.079 310.698,297.481 310.698,297.481 " />
<polygon points="307.946,296.079 307.76,296.527 310.698,297.481 310.698,297.481 " />
<polygon points="307.76,296.527 307.647,296.998 310.698,297.481 310.698,297.481 " />
<polygon points="307.647,296.998 307.609,297.481 310.698,297.481 310.698,297.481 " />
<polygon points="307.609,310.062 307.647,310.545 310.698,310.062 310.698,310.062 " />
<polygon points="307.647,310.545 307.76,311.016 310.698,310.062 310.698,310.062 " />
<polygon points="307.76,311.016 307.946,311.464 310.698,310.062 310.698,310.062 " />
<polygon points="307.946,311.464 308.199,311.877 310.698,310.062 310.698,310.062 " />
<polygon points="308.199,311.877 308.514,312.246 310.698,310.062 310.698,310.062 " />
<polygon points="308.514,312.246 308.882,312.561 310.698,310.062 310.698,310.062 " />
<polygon points="308.882,312.561 309.296,312.814 310.698,310.062 310.698,310.062 " />
<polygon points="309.296,312.814 309.743,312.999 310.698,310.062 310.698,310.062 " />
<polygon points="309.743,312.999 310.215,313.113 310.698,310.062 310.698,310.062 " />
<polygon points="310.215,313.113 310.698,313.151 310.698,310.062 310.698,310.062 " />
<polygon points="310.698,313.151 311.181,313.113 310.698,310.062 310.698,310.062 " />
<polygon points="311.181,313.113 311.652,312.999 310.698,310.062 310.698,310.062 " />
<polygon points="311.652,312.999 312.1,312.814 310.698,310.062 310.698,310.062 " />
<polygon points="312.1,312.814 312.513,312.561 310.698,310.062 310.698,310.062 " />
<polygon points="312.513,312.561 312.882,312.246 310.698,310.062 310.698,310.062 " />
<polygon points="312.882,312.246 313.196,311.877 310.698,310.062 310.698,310.062 " />
<polygon points="313.196,311.877 313.45,311.464 310.698,310.062 310.698,310.062 " />
<polygon points="313.45,311.464 313.635,311.016 310.698,310.062 310.698,310.062 " />
<polygon points="313.635,311.016 313.748,310.545 310.698,310.062 310.698,310.062 " />
<polygon points="313.748,310.545 313.786,310.062 310.698,310.062 310.698,310.062 " />
<polygon points="313.786,310.062 313.748,309.579 310.698,310.062 310.698,310.062 " />
<polygon points="313.748,309.579 313.635,309.108 310.698,310.062 310.698,310.062 " />
<polygon points="313.635,309.108 313.45,308.66 310.698,310.062 310.698,310.062 " />
<polygon points="313.45,308.66 313.196,308.247 310.698,310.062 310.698,310.062 " />
<polygon points="313.196,308.247 312.882,307.878 310.698,310.062 310.698,310.062 " />
<polygon points="312.882,307.878 312.513,307.563 310.698,310.062 310.698,310.062 " />
<polygon points="312.513,307.563 312.1,307.31 310.698,310.062 310.698,310.062 " />
<polygon points="312.1,307.31 311.652,307.125 310.698,310.062 310.698,310.062 " />
<polygon points="311.652,307.125 311.181,307.011 310.698,310.062 310.698,310.062 " />
<polygon points="311.181,307.011 310.698,306.973 310.698,310.062 310.698,310.062 " />
<polygon points="310.698,306.973 310.215,307.011 310.698,310.062 310.698,310.062 " />
<polygon points="310.215,307.011 309.743,307.125 310.698,310.062 310.698,310.062 " />
<polygon points="309.743,307.125 309.296,307.31 310.698,310.062 310.698,310.062 " />
<polygon points="309.296,307.31 308.882,307.563 310.698,310.062 310.698,310.062 " />
<polygon points="308.882,307.563 308.514,307.878 310.698,310.062 310.698,310.062 " />
<polygon points="308.514,307.878 308.199,308.247 310.698,310.062 310.698,310.062 " />
<polygon points="308.199,308.247 307.946,308.66 310.698,310.062 310.698,310.062 " />
<polygon points="307.946,308.66 307.76,309.108 310.698,310.062 310.698,310.062 " />
<polygon points="307.76,309.108 307.647,309.579 310.698,310.062 310.698,310.062 " />
<polygon points="307.647,309.579 307.609,310.062 310.698,310.062 310.698,310.062 " />
<polygon points="281.871,322.643 281.909,323.126 284.96,322.643 284.96,322.643 " />
<polygon points="281.909,323.126 282.022,323.597 284.96,322.643 284.96,322.643 " />
<polygon points="282.022,323.597 282.208,324.045 284.96,322.643 284.96,322.643 " />
<polygon points="282.208,324.045 282.461,324.458 284.96,322.643 284.96,322.643 " />
<polygon points="282.461,324.458 282.776,324.827 284.96,322.643 284.96,322.643 " />
<polygon points="282.776,324.827 283.144,325.141 284.96,322.643 284.96,322.643 " />
<polygon points="283.144,325.141 283.558,325.395 284.96,322.643 284.96,322.643 " />
<polygon points="283.558,325.395 284.005,325.58 284.96,322.643 284.96,322.643 " />
<polygon points="284.005,325.58 284.477,325.693 284.96,322.643 284.96,322.643 " />
<polygon points="284.477,325.693 284.96,325.731 284.96,322.643 284.96,322.643 " />
<polygon points="284.96,325.731 285.443,325.693 284.96,322.643 284.96,322.643 " />
<polygon points="285.443,325.693 285.914,325.58 284.96,322.643 284.96,322.643 " />
<polygon points="285.914,325.58 286.362,325.395 284.96,322.643 284.96,322.643 " />
<polygon points="286.362,325.395 286.775,325.141 284.96,322.643 284.96,322.643 " />
<polygon points="286.775,325.141 287.144,324.827 284.96,322.643 284.96,322.643 " />
<polygon points="287.144,324.827 287.459,324.458 284.96,322.643 284.96,322.643 " />
<polygon points="287.459,324.458 287.712,324.045 284.96,322.643 284.96,322.643 " />
<polygon points="287.712,324.045 287.897,323.597 284.96,322.643 284.96,322.643 " />
<polygon points="287.897,323.597 288.01,323.126 284.96,322.643 284.96,322.643 " />
<polygon points="288.01,323.126 288.048,322.643 284.96,322.643 284.96,322.643 " />
<polygon points="288.048,322.643 288.01,322.16 284.96,322.643 284.96,322.643 " />
<polygon points="288.01,322.16 287.897,321.688 284.96,322.643 284.96,322.643 " />
<polygon points="287.897,321.688 287.712,321.241 284.96,322.643 284.96,322.643 " />
<polygon points="287.712,321.241 287.459,320.827 284.96,322.643 284.96,322.643 " />
<polygon points="287.459,320.827 287.144,320.459 284.96,322.643 284.96,322.643 " />
<polygon points="287.144,320.459 286.775,320.144 284.96,322.643 284.96,322.643 " />
<polygon points="286.775,320.144 286.362,319.891 284.96,322.643 284.96,322.643 " />
<polygon points="286.362,319.891 285.914,319.705 284.96,322.643 284.96,322.643 " />
<polygon points="285.914,319.705 285.443,319.592 284.96,322.643 284.96,322.643 " />
<polygon points="285.443,319.592 284.96,319.554 284.96,322.643 284.96,322.643 " />
<polygon points="284.96,319.554 284.477,319.592 284.96,322.643 284.96,322.643 " />
<polygon points="284.477,319.592 284.005,319.705 284.96,322.643 284.96,322.643 " />
<polygon points="284.005,319.705 283.558,319.891 284.96,322.643 284.96,322.643 " />
<polygon points="283.558,319.891 283.144,320.144 284.96,322.643 284.96,322.643 " />
<polygon points="283.144,320.144 282.776,320.459 284.96,322.643 284.96,322.643 " />
<polygon points="282.776,320.459 282.461,320.827 284.96,322.643 284.96,322.643 " />
<polygon points="282.461,320.827 282.208,321.241 284.96,322.643 284.96,322.643 " />
<polygon points="282.208,321.241 282.022,321.688 284.96,322.643 284.96,322.643 " />
<polygon points="282.022,321.688 281.909,322.16 284.96,322.643 284.96,322.643 " />
<polygon points="281.909,322.16 281.871,322.643 284.96,322.643 284.96,322.643 " />
<polygon points="307.609,335.223 307.647,335.707 310.698,335.223 310.698,335.223 " />
<polygon points="307.647,335.707 307.76,336.178 310.698,335.223 310.698,335.223 " />
<polygon points="307.76,336.178 307.946,336.626 310.698,335.223 310.698,335.223 " />
<polygon points="307.946,336.626 308.199,337.039 310.698,335.223 310.698,335.223 " />
<polygon points="308.199,337.039 308.514,337.407 310.698,335.223 310.698,335.223 " />
<polygon points="308.514,337.407 308.882,337.722 310.698,335.223 310.698,335.223 " />
<polygon points="308.882,337.722 309.296,337.975 310.698,335.223 310.698,335.223 " />
<polygon points="309.296,337.975 309.743,338.161 310.698,335.223 310.698,335.223 " />
<polygon points="309.743,338.161 310.215,338.274 310.698,335.223 310.698,335.223 " />
<polygon points="310.215,338.274 310.698,338.312 310.698,335.223 310.698,335.223 " />
<polygon points="310.698,338.312 311.181,338.274 310.698,335.223 310.698,335.223 " />
<polygon points="311.181,338.274 311.652,338.161 310.698,335.223 310.698,335.223 " />
<polygon points="311.652,338.161 312.1,337.975 310.698,335.223 310.698,335.223 " />
<polygon points="312.1,337.975 312.513,337.722 310.698,335.223 310.698,335.223 " />
<polygon points="312.513,337.722 312.882,337.407 310.698,335.223 310.698,335.223 " />
<polygon points="312.882,337.407 313.196,337.039 310.698,335.223 310.698,335.223 " />
<polygon points="313.196,337.039 313.45,336.626 310.698,335.223 310.698,335.223 " />
<polygon points="313.45,336.626 313.635,336.178 310.698,335.223 310.698,335.223 " />
<polygon points="313.635,336.178 313.748,335.707 310.698,335.223 310.698,335.223 " />
<polygon points="313.748,335.707 313.786,335.223 310.698,335.223 310.698,335.223 " />
<polygon points="313.786,335.223 313.748,334.74 310.698,335.223 310.698,335.223 " />
<polygon points="313.748,334.74 313.635,334.269 310.698,335.223 310.698,335.223 " />
<polygon points="313.635,334.269 313.45,333.821 310.698,335.223 310.698,335.223 " />
<polygon points="313.45,333.821 313.196,333.408 310.698,335.223 310.698,335.223 " />
<polygon points="313.196,333.408 312.882,333.039 310.698,335.223 310.698,335.223 " />
<polygon points="312.882,333.039 312.513,332.725 310.698,335.223 310.698,335.223 " />
<polygon points="312.513,332.725 312.1,332.472 310.698,335.223 310.698,335.223 " />
<polygon points="312.1,332.472 311.652,332.286 310.698,335.223 310.698,335.223 " />
<polygon points="311.652,332.286 311.181,332.173 310.698,335.223 310.698,335.223 " />
<polygon points="311.181,332.173 310.698,332.135 310.698,335.223 310.698,335.223 " />
<polygon points="310.698,332.135 310.215,332.173 310.698,335.223 310.698,335.223 " />
<polygon points="310.215,332.173 309.743,332.286 310.698,335.223 310.698,335.223 " />
<polygon points="309.743,332.286 309.296,332.472 310.698,335.223 310.698,335.223 " />
<polygon points="309.296,332.472 308.882,332.725 310.698,335.223 310.698,335.223 " />
<polygon points="308.882,332.725 308.514,333.039 310.698,335.223 310.698,335.223 " />
<polygon points="308.514,333.039 308.199,333.408 310.698,335.223 310.698,335.223 " />
<polygon points="308.199,333.408 307.946,333.821 310.698,335.223 310.698,335.223 " />
<polygon points="307.946,333.821 307.76,334.269 310.698,335.223 310.698,335.223 " />
<polygon points="307.76,334.269 307.647,334.74 310.698,335.223 310.698,335.223 " />
<polygon points="307.647,334.74 307.609,335.223 310.698,335.223 310.698,335.223 " />
<polygon points="281.871,347.804 281.909,348.287 284.96,347.804 284.96,347.804 " />
<polygon points="281.909,348.287 282.022,348.759 284.96,347.804 284.96,347.804 " />
<polygon points="282.022,348.759 282.208,349.206 284.96,347.804 284.96,347.804 " />
<polygon points="282.208,349.206 282.461,349.62 284.96,347.804 284.96,347.804 " />
<polygon points="282.461,349.62 282.776,349.988 284.96,347.804 284.96,347.804 " />
<polygon points="282.776,349.988 283.144,350.303 284.96,347.804 284.96,347.804 " />
<polygon points="283.144,350.303 283.558,350.556 284.96,347.804 284.96,347.804 " />
<polygon points="283.558,350.556 284.005,350.742 284.96,347.804 284.96,347.804 " />
<polygon points="284.005,350.742 284.477,350.855 284.96,347.804 284.96,347.804 " />
<polygon points="284.477,350.855 284.96,350.893 284.96,347.804 284.96,347.804 " />
<polygon points="284.96,350.893 285.443,350.855 284.96,347.804 284.96,347.804 " />
<polygon points="285.443,350.855 285.914,350.742 284.96,347.804 284.96,347.804 " />
<polygon points="285.914,350.742 286.362,350.556 284.96,347.804 284.96,347.804 " />
<polygon points="286.362,350.556 286.775,350.303 284.96,347.804 284.96,347.804 " />
<polygon points="286.775,350.303 287.144,349.988 284.96,347.804 284.96,347.804 " />
<polygon points="287.144,349.988 287.459,349.62 284.96,347.804 284.96,347.804 " />
<polygon points="287.459,349.62 287.712,349.206 284.96,347.804 284.96,347.804 " />
<polygon points="287.712,349.206 287.897,348.759 284.96,347.804 284.96,347.804 " />
<polygon points="287.897,348.759 288.01,348.287 284.96,347.804 284.96,347.804 " />
<polygon points="288.01,348.287 288.048,347.804 284.96,347.804 284.96,347.804 " />
<polygon points="288.048,347.804 288.01,347.321 284.96,347.804 284.96,347.804 " />
<polygon points="288.01,347.321 287.897,346.85 284.96,347.804 284.96,347.804 " />
<polygon points="287.897,346.85 287.712,346.402 284.96,347.804 284.96,347.804 " />
<polygon points="287.712,346.402 287.459,345.989 284.96,347.804 284.96,347.804 " />
<polygon points="287.459,345.989 287.144,345.62 284.96,347.804 284.96,347.804 " />
<polygon points="287.144,345.62 286.775,345.305 284.96,347.804 284.96,347.804 " />
<polygon points="286.775,345.305 286.362,345.052 284.96,347.804 284.96,347.804 " />
<polygon points="286.362,345.052 285.914,344.867 284.96,347.804 284.96,347.804 " />
<polygon points="285.914,344.867 285.443,344.754 284.96,347.804 284.96,347.804 " />
<polygon points="285.443,344.754 284.96,344.716 284.96,347.804 284.96,347.804 " />
<polygon points="284.96,344.716 284.477,344.754 284.96,347.804 284.96,347.804 " />
<polygon points="284.477,344.754 284.005,344.867 284.96,347.804 284.96,347.804 " />
<polygon points="284.005,344.867 283.558,345.052 284.96,347.804 284.96,347.804 " />
<polygon points="283.558,345.052 283.144,345.305 284.96,347.804 284.96,347.804 " />
<polygon points="283.144,345.305 282.776,345.62 284.96,347.804 284.96,347.804 " />
<polygon points="282.776,345.62 282.461,345.989 284.96,347.804 284.96,347.804 " />
<polygon points="282.461,345.989 282.208,346.402 284.96,347.804 284.96,347.804 " />
<polygon points="282.208,346.402 282.022,346.85 284.96,347.804 284.96,347.804 " />
<polygon points="282.022,346.85 281.909,347.321 284.96,347.804 284.96,347.804 " />
<polygon points="281.909,347.321 281.871,347.804 284.96,347.804 284.96,347.804 " />
<polygon points="307.609,360.385 307.647,360.868 310.698,360.385 310.698,360.385 " />
<polygon points="307.647,360.868 307.76,361.339 310.698,360.385 310.698,360.385 " />
<polygon points="307.76,361.339 307.946,361.787 310.698,360.385 310.698,360.385 " />
<polygon points="307.946,361.787 308.199,362.2 310.698,360.385 310.698,360.385 " />
<polygon points="308.199,362.2 308.514,362.569 310.698,360.385 310.698,360.385 " />
<polygon points="308.514,362.569 308.882,362.884 310.698,360.385 310.698,360.385 " />
<polygon points="308.882,362.884 309.296,363.137 310.698,360.385 310.698,360.385 " />
<polygon points="309.296,363.137 309.743,363.322 310.698,360.385 310.698,360.385 " />
<polygon points="309.743,363.322 310.215,363.435 310.698,360.385 310.698,360.385 " />
<polygon points="310.215,363.435 310.698,363.473 310.698,360.385 310.698,360.385 " />
<polygon points="310.698,363.473 311.181,363.435 310.698,360.385 310.698,360.385 " />
<polygon points="311.181,363.435 311.652,363.322 310.698,360.385 310.698,360.385 " />
<polygon points="311.652,363.322 312.1,363.137 310.698,360.385 310.698,360.385 " />
<polygon points="312.1,363.137 312.513,362.884 310.698,360.385 310.698,360.385 " />
<polygon points="312.513,362.884 312.882,362.569 310.698,360.385 310.698,360.385 " />
<polygon points="312.882,362.569 313.196,362.2 310.698,360.385 310.698,360.385 " />
<polygon points="313.196,362.2 313.45,361.787 310.698,360.385 310.698,360.385 " />
<polygon points="313.45,361.787 313.635,361.339 310.698,360.385 310.698,360.385 " />
<polygon points="313.635,361.339 313.748,360.868 310.698,360.385 310.698,360.385 " />
<polygon points="313.748,360.868 313.786,360.385 310.698,360.385 310.698,360.385 " />
<polygon points="313.786,360.385 313.748,359.902 310.698,360.385 310.698,360.385 " />
<polygon points="313.748,359.902 313.635,359.43 310.698,360.385 310.698,360.385 " />
<polygon points="313.635,359.43 313.45,358.983 310.698,360.385 310.698,360.385 " />
<polygon points="313.45,358.983 313.196,358.569 310.698,360.385 310.698,360.385 " />
<polygon points="313.196,358.569 312.882,358.201 310.698,360.385 310.698,360.385 " />
<polygon points="312.882,358.201 312.513,357.886 310.698,360.385 310.698,360.385 " />
<polygon points="312.513,357.886 312.1,357.633 310.698,360.385 310.698,360.385 " />
<polygon points="312.1,357.633 311.652,357.447 310.698,360.385 310.698,360.385 " />
<polygon points="311.652,357.447 311.181,357.334 310.698,360.385 310.698,360.385 " />
<polygon points="311.181,357.334 310.698,357.296 310.698,360.385 310.698,360.385 " />
<polygon points="310.698,357.296 310.215,357.334 310.698,360.385 310.698,360.385 " />
<polygon points="310.215,357.334 309.743,357.447 310.698,360.385 310.698,360.385 " />
<polygon points="309.743,357.447 309.296,357.633 310.698,360.385 310.698,360.385 " />
<polygon points="309.296,357.633 308.882,357.886 310.698,360.385 310.698,360.385 " />
<polygon points="308.882,357.886 308.514,358.201 310.698,360.385 310.698,360.385 " />
<polygon points="308.514,358.201 308.199,358.569 310.698,360.385 310.698,360.385 " />
<polygon points="308.199,358.569 307.946,358.983 310.698,360.385 310.698,360.385 " />
<polygon points="307.946,358.983 307.76,359.43 310.698,360.385 310.698,360.385 " />
<polygon points="307.76,359.43 307.647,359.902 310.698,360.385 310.698,360.385 " />
<polygon points="307.647,359.902 307.609,360.385 310.698,360.385 310.698,360.385 " />
<polygon points="307.609,372.966 307.647,373.449 310.698,372.966 310.698,372.966 " />
<polygon points="307.647,373.449 307.76,373.92 310.698,372.966 310.698,372.966 " />
<polygon points="307.76,373.92 307.946,374.368 310.698,372.966 310.698,372.966 " />
<polygon points="307.946,374.368 308.199,374.781 310.698,372.966 310.698,372.966 " />
<polygon points="308.199,374.781 308.514,375.15 310.698,372.966 310.698,372.966 " />
<polygon points="308.514,375.15 308.882,375.464 310.698,372.966 310.698,372.966 " />
<polygon points="308.882,375.464 309.296,375.718 310.698,372.966 310.698,372.966 " />
<polygon points="309.296,375.718 309.743,375.903 310.698,372.966 310.698,372.966 " />
<polygon points="309.743,375.903 310.215,376.016 310.698,372.966 310.698,372.966 " />
<polygon points="310.215,376.016 310.698,376.054 310.698,372.966 310.698,372.966 " />
<polygon points="310.698,376.054 311.181,376.016 310.698,372.966 310.698,372.966 " />
<polygon points="311.181,376.016 311.652,375.903 310.698,372.966 310.698,372.966 " />
<polygon points="311.652,375.903 312.1,375.718 310.698,372.966 310.698,372.966 " />
<polygon points="312.1,375.718 312.513,375.464 310.698,372.966 310.698,372.966 " />
<polygon points="312.513,375.464 312.882,375.15 310.698,372.966 310.698,372.966 " />
<polygon points="312.882,375.15 313.196,374.781 310.698,372.966 310.698,372.966 " />
<polygon points="313.196,374.781 313.45,374.368 310.698,372.966 310.698,372.966 " />
<polygon points="313.45,374.368 313.635,373.92 310.698,372.966 310.698,372.966 " />
<polygon points="313.635,373.92 313.748,373.449 310.698,372.966 310.698,372.966 " />
<polygon points="313.748,373.449 313.786,372.966 310.698,372.966 310.698,372.966 " />
<polygon points="313.786,372.966 313.748,372.482 310.698,372.966 310.698,372.966 " />
<polygon points="313.748,372.482 313.635,372.011 310.698,372.966 310.698,372.966 " />
<polygon points="313.635,372.011 313.45,371.563 310.698,372.966 310.698,372.966 " />
<polygon points="313.45,371.563 313.196,371.15 310.698,372.966 310.698,372.966 " />
<polygon points="313.196,371.15 312.882,370.782 310.698,372.966 310.698,372.966 " />
<polygon points="312.882,370.782 312.513,370.467 310.698,372.966 310.698,372.966 " />
<polygon points="312.513,370.467 312.1,370.214 310.698,372.966 310.698,372.966 " />
<polygon points="312.1,370.214 311.652,370.028 310.698,372.966 310.698,372.966 " />
<polygon points="311.652,370.028 311.181,369.915 310.698,372.966 310.698,372.966 " />
<polygon points="311.181,369.915 310.698,369.877 310.698,372.966 310.698,372.966 " />
<polygon points="310.698,369.877 310.215,369.915 310.698,372.966 310.698,372.966 " />
<polygon points="310.215,369.915 309.743,370.028 310.698,372.966 310.698,372.966 " />
<polygon points="309.743,370.028 309.296,370.214 310.698,372.966 310.698,372.966 " />
<polygon points="309.296,370.214 308.882,370.467 310.698,372.966 310.698,372.966 " />
<polygon points="308.882,370.467 308.514,370.782 310.698,372.966 310.698,372.966 " />
<polygon points="308.514,370.782 308.199,371.15 310.698,372.966 310.698,372.966 " />
<polygon points="308.199,371.15 307.946,371.563 310.698,372.966 310.698,372.966 " />
<polygon points="307.946,371.563 307.76,372.011 310.698,372.966 310.698,372.966 " />
<polygon points="307.76,372.011 307.647,372.482 310.698,372.966 310.698,372.966 " />
<polygon points="307.647,372.482 307.609,372.966 310.698,372.966 310.698,372.966 " />
<polygon points="281.871,372.966 281.909,373.449 284.96,372.966 284.96,372.966 " />
<polygon points="281.909,373.449 282.022,373.92 284.96,372.966 284.96,372.966 " />
<polygon points="282.022,373.92 282.208,374.368 284.96,372.966 284.96,372.966 " />
<polygon points="282.208,374.368 282.461,374.781 284.96,372.966 284.96,372.966 " />
<polygon points="282.461,374.781 282.776,375.15 284.96,372.966 284.96,372.966 " />
<polygon points="282.776,375.15 283.144,375.464 284.96,372.966 284.96,372.966 " />
<polygon points="283.144,375.464 283.558,375.718 284.96,372.966 284.96,372.966 " />
<polygon points="283.558,375.718 284.005,375.903 284.96,372.966 284.96,372.966 " />
<polygon points="284.005,375.903 284.477,376.016 284.96,372.966 284.96,372.966 " />
<polygon points="284.477,376.016 284.96,376.054 284.96,372.966 284.96,372.966 " />
<polygon points="284.96,376.054 285.443,376.016 284.96,372.966 284.96,372.966 " />
<polygon points="285.443,376.016 285.914,375.903 284.96,372.966 284.96,372.966 " />
<polygon points="285.914,375.903 286.362,375.718 284.96,372.966 284.96,372.966 " />
<polygon points="286.362,375.718 286.775,375.464 284.96,372.966 284.96,372.966 " />
<polygon points="286.775,375.464 287.144,375.15 284.96,372.966 284.96,372.966 " />
<polygon points="287.144,375.15 287.459,374.781 284.96,372.966 284.96,372.966 " />
<polygon points="287.459,374.781 287.712,374.368 284.96,372.966 284.96,372.966 " />
<polygon points="287.712,374.368 287.897,373.92 284.96,372.966 284.96,372.966 " />
<polygon points="287.897,373.92 288.01,373.449 284.96,372.966 284.96,372.966 " />
<polygon points="288.01,373.449 288.048,372.966 284.96,372.966 284.96,372.966 " />
<polygon points="288.048,372.966 288.01,372.482 284.96,372.966 284.96,372.966 " />
<polygon points="288.01,372.482 287.897,372.011 284.96,372.966 284.96,372.966 " />
<polygon points="287.897,372.011 287.712,371.563 284.96,372.966 284.96,372.966 " />
<polygon points="287.712,371.563 287.459,371.15 284.96,372.966 284.96,372.966 " />
<polygon points="287.459,371.15 287.144,370.782 284.96,372.966 284.96,372.966 " />
<polygon points="287.144,370.782 286.775,370.467 284.96,372.966 284.96,372.966 " />
<polygon points="286.775,370.467 286.362,370.214 284.96,372.966 284.96,372.966 " />
<polygon points="286.362,370.214 285.914,370.028 284.96,372.966 284.96,372.966 " />
<polygon points="285.914,370.028 285.443,369.915 284.96,372.966 284.96,372.966 " />
<polygon points="285.443,369.915 284.96,369.877 284.96,372.966 284.96,372.966 " />
<polygon points="284.96,369.877 284.477,369.915 284.96,372.966 284.96,372.966 " />
<polygon points="284.477,369.915 284.005,370.028 284.96,372.966 284.96,372.966 " />
<polygon points="284.005,370.028 283.558,370.214 284.96,372.966 284.96,372.966 " />
<polygon points="283.558,370.214 283.144,370.467 284.96,372.966 284.96,372.966 " />
<polygon points="283.144,370.467 282.776,370.782 284.96,372.966 284.96,372.966 " />
<polygon points="282.776,370.782 282.461,371.15 284.96,372.966 284.96,372.966 " />
<polygon points="282.461,371.15 282.208,371.563 284.96,372.966 284.96,372.966 " />
<polygon points="282.208,371.563 282.022,372.011 284.96,372.966 284.96,372.966 " />
<polygon points="282.022,372.011 281.909,372.482 284.96,372.966 284.96,372.966 " />
<polygon points="281.909,372.482 281.871,372.966 284.96,372.966 284.96,372.966 " />
<polygon points="281.871,360.385 281.909,360.868 284.96,360.385 284.96,360.385 " />
<polygon points="281.909,360.868 282.022,361.339 284.96,360.385 284.96,360.385 " />
<polygon points="282.022,361.339 282.208,361.787 284.96,360.385 284.96,360.385 " />
<polygon points="282.208,361.787 282.461,362.2 284.96,360.385 284.96,360.385 " />
<polygon points="282.461,362.2 282.776,362.569 284.96,360.385 284.96,360.385 " />
<polygon points="282.776,362.569 283.144,362.884 284.96,360.385 284.96,360.385 " />
<polygon points="283.144,362.884 283.558,363.137 284.96,360.385 284.96,360.385 " />
<polygon points="283.558,363.137 284.005,363.322 284.96,360.385 284.96,360.385 " />
<polygon points="284.005,363.322 284.477,363.435 284.96,360.385 284.96,360.385 " />
<polygon points="284.477,363.435 284.96,363.473 284.96,360.385 284.96,360.385 " />
<polygon points="284.96,363.473 285.443,363.435 284.96,360.385 284.96,360.385 " />
<polygon points="285.443,363.435 285.914,363.322 284.96,360.385 284.96,360.385 " />
<polygon points="285.914,363.322 286.362,363.137 284.96,360.385 284.96,360.385 " />
<polygon points="286.362,363.137 286.775,362.884 284.96,360.385 284.96,360.385 " />
<polygon points="286.775,362.884 287.144,362.569 284.96,360.385 284.96,360.385 " />
<polygon points="287.144,362.569 287.459,362.2 284.96,360.385 284.96,360.385 " />
<polygon points="287.459,362.2 287.712,361.787 284.96,360.385 284.96,360.385 " />
<polygon points="287.712,361.787 287.897,361.339 284.96,360.385 284.96,360.385 " />
<polygon points="287.897,361.339 288.01,360.868 284.96,360.385 284.96,360.385 " />
<polygon points="288.01,360.868 288.048,360.385 284.96,360.385 284.96,360.385 " />
<polygon points="288.048,360.385 288.01,359.902 284.96,360.385 284.96,360.385 " />
<polygon points="288.01,359.902 287.897,359.43 284.96,360.385 284.96,360.385 " />
<polygon points="287.897,359.43 287.712,358.983 284.96,360.385 284.96,360.385 " />
<polygon points="287.712,358.983 287.459,358.569 284.96,360.385 284.96,360.385 " />
<polygon points="287.459,358.569 287.144,358.201 284.96,360.385 284.96,360.385 " />
<polygon points="287.144,358.201 286.775,357.886 284.96,360.385 284.96,360.385 " />
<polygon points="286.775,357.886 286.362,357.633 284.96,360.385 284.96,360.385 " />
<polygon points="286.362,357.633 285.914,357.447 284.96,360.385 284.96,360.385 " />
<polygon points="285.914,357.447 285.443,357.334 284.96,360.385 284.96,360.385 " />
<polygon points="285.443,357.334 284.96,357.296 284.96,360.385 284.96,360.385 " />
<polygon points="284.96,357.296 284.477,357.334 284.96,360.385 284.96,360.385 " />
<polygon points="284.477,357.334 284.005,357.447 284.96,360.385 284.96,360.385 " />
<polygon points="284.005,357.447 283.558,357.633 284.96,360.385 284.96,360.385 " />
<polygon points="283.558,357.633 283.144,357.886 284.96,360.385 284.96,360.385 " />
<polygon points="283.144,357.886 282.776,358.201 284.96,360.385 284.96,360.385 " />
<polygon points="282.776,358.201 282.461,358.569 284.96,360.385 284.96,360.385 " />
<polygon points="282.461,358.569 282.208,358.983 284.96,360.385 284.96,360.385 " />
<polygon points="282.208,358.983 282.022,359.43 284.96,360.385 284.96,360.385 " />
<polygon points="282.022,359.43 281.909,359.902 284.96,360.385 284.96,360.385 " />
<polygon points="281.909,359.902 281.871,360.385 284.96,360.385 284.96,360.385 " />
<polygon points="307.609,347.804 307.647,348.287 310.698,347.804 310.698,347.804 " />
<polygon points="307.647,348.287 307.76,348.759 310.698,347.804 310.698,347.804 " />
<polygon points="307.76,348.759 307.946,349.206 310.698,347.804 310.698,347.804 " />
<polygon points="307.946,349.206 308.199,349.62 310.698,347.804 310.698,347.804 " />
<polygon points="308.199,349.62 308.514,349.988 310.698,347.804 310.698,347.804 " />
<polygon points="308.514,349.988 308.882,350.303 310.698,347.804 310.698,347.804 " />
<polygon points="308.882,350.303 309.296,350.556 310.698,347.804 310.698,347.804 " />
<polygon points="309.296,350.556 309.743,350.742 310.698,347.804 310.698,347.804 " />
<polygon points="309.743,350.742 310.215,350.855 310.698,347.804 310.698,347.804 " />
<polygon points="310.215,350.855 310.698,350.893 310.698,347.804 310.698,347.804 " />
<polygon points="310.698,350.893 311.181,350.855 310.698,347.804 310.698,347.804 " />
<polygon points="311.181,350.855 311.652,350.742 310.698,347.804 310.698,347.804 " />
<polygon points="311.652,350.742 312.1,350.556 310.698,347.804 310.698,347.804 " />
<polygon points="312.1,350.556 312.513,350.303 310.698,347.804 310.698,347.804 " />
<polygon points="312.513,350.303 312.882,349.988 310.698,347.804 310.698,347.804 " />
<polygon points="312.882,349.988 313.196,349.62 310.698,347.804 310.698,347.804 " />
<polygon points="313.196,349.62 313.45,349.206 310.698,347.804 310.698,347.804 " />
<polygon points="313.45,349.206 313.635,348.759 310.698,347.804 310.698,347.804 " />
<polygon points="313.635,348.759 313.748,348.287 310.698,347.804 310.698,347.804 " />
<polygon points="313.748,348.287 313.786,347.804 310.698,347.804 310.698,347.804 " />
<polygon points="313.786,347.804 313.748,347.321 310.698,347.804 310.698,347.804 " />
<polygon points="313.748,347.321 313.635,346.85 310.698,347.804 310.698,347.804 " />
<polygon points="313.635,346.85 313.45,346.402 310.698,347.804 310.698,347.804 " />
<polygon points="313.45,346.402 313.196,345.989 310.698,347.804 310.698,347.804 " />
<polygon points="313.196,345.989 312.882,345.62 310.698,347.804 310.698,347.804 " />
<polygon points="312.882,345.62 312.513,345.305 310.698,347.804 310.698,347.804 " />
<polygon points="312.513,345.305 312.1,345.052 310.698,347.804 310.698,347.804 " />
<polygon points="312.1,345.052 311.652,344.867 310.698,347.804 310.698,347.804 " />
<polygon points="311.652,344.867 311.181,344.754 310.698,347.804 310.698,347.804 " />
<polygon points="311.181,344.754 310.698,344.716 310.698,347.804 310.698,347.804 " />
<polygon points="310.698,344.716 310.215,344.754 310.698,347.804 310.698,347.804 " />
<polygon points="310.215,344.754 309.743,344.867 310.698,347.804 310.698,347.804 " />
<polygon points="309.743,344.867 309.296,345.052 310.698,347.804 310.698,347.804 " />
<polygon points="309.296,345.052 308.882,345.305 310.698,347.804 310.698,347.804 " />
<polygon points="308.882,345.305 308.514,345.62 310.698,347.804 310.698,347.804 " />
<polygon points="308.514,345.62 308.199,345.989 310.698,347.804 310.698,347.804 " />
<polygon points="308.199,345.989 307.946,346.402 310.698,347.804 310.698,347.804 " />
<polygon points="307.946,346.402 307.76,346.85 310.698,347.804 310.698,347.804 " />
<polygon points="307.76,346.85 307.647,347.321 310.698,347.804 310.698,347.804 " />
<polygon points="307.647,347.321 307.609,347.804 310.698,347.804 310.698,347.804 " />
<polygon points="281.871,335.223 281.909,335.707 284.96,335.223 284.96,335.223 " />
<polygon points="281.909,335.707 282.022,336.178 284.96,335.223 284.96,335.223 " />
<polygon points="282.022,336.178 282.208,336.626 284.96,335.223 284.96,335.223 " />
<polygon points="282.208,336.626 282.461,337.039 284.96,335.223 284.96,335.223 " />
<polygon points="282.461,337.039 282.776,337.407 284.96,335.223 284.96,335.223 " />
<polygon points="282.776,337.407 283.144,337.722 284.96,335.223 284.96,335.223 " />
<polygon points="283.144,337.722 283.558,337.975 284.96,335.223 284.96,335.223 " />
<polygon points="283.558,337.975 284.005,338.161 284.96,335.223 284.96,335.223 " />
<polygon points="284.005,338.161 284.477,338.274 284.96,335.223 284.96,335.223 " />
<polygon points="284.477,338.274 284.96,338.312 284.96,335.223 284.96,335.223 " />
<polygon points="284.96,338.312 285.443,338.274 284.96,335.223 284.96,335.223 " />
<polygon points="285.443,338.274 285.914,338.161 284.96,335.223 284.96,335.223 " />
<polygon points="285.914,338.161 286.362,337.975 284.96,335.223 284.96,335.223 " />
<polygon points="286.362,337.975 286.775,337.722 284.96,335.223 284.96,335.223 " />
<polygon points="286.775,337.722 287.144,337.407 284.96,335.223 284.96,335.223 " />
<polygon points="287.144,337.407 287.459,337.039 284.96,335.223 284.96,335.223 " />
<polygon points="287.459,337.039 287.712,336.626 284.96,335.223 284.96,335.223 " />
<polygon points="287.712,336.626 287.897,336.178 284.96,335.223 284.96,335.223 " />
<polygon points="287.897,336.178 288.01,335.707 284.96,335.223 284.96,335.223 " />
<polygon points="288.01,335.707 288.048,335.223 284.96,335.223 284.96,335.223 " />
<polygon points="288.048,335.223 288.01,334.74 284.96,335.223 284.96,335.223 " />
<polygon points="288.01,334.74 287.897,334.269 284.96,335.223 284.96,335.223 " />
<polygon points="287.897,334.269 287.712,333.821 284.96,335.223 284.96,335.223 " />
<polygon points="287.712,333.821 287.459,333.408 284.96,335.223 284.96,335.223 " />
<polygon points="287.459,333.408 287.144,333.039 284.96,335.223 284.96,335.223 " />
<polygon points="287.144,333.039 286.775,332.725 284.96,335.223 284.96,335.223 " />
<polygon points="286.775,332.725 286.362,332.472 284.96,335.223 284.96,335.223 " />
<polygon points="286.362,332.472 285.914,332.286 284.96,335.223 284.96,335.223 " />
<polygon points="285.914,332.286 285.443,332.173 284.96,335.223 284.96,335.223 " />
<polygon points="285.443,332.173 284.96,332.135 284.96,335.223 284.96,335.223 " />
<polygon points="284.96,332.135 284.477,332.173 284.96,335.223 284.96,335.223 " />
<polygon points="284.477,332.173 284.005,332.286 284.96,335.223 284.96,335.223 " />
<polygon points="284.005,332.286 283.558,332.472 284.96,335.223 284.96,335.223 " />
<polygon points="283.558,332.472 283.144,332.725 284.96,335.223 284.96,335.223 " />
<polygon points="283.144,332.725 282.776,333.039 284.96,335.223 284.96,335.223 " />
<polygon points="282.776,333.039 282.461,333.408 284.96,335.223 284.96,335.223 " />
<polygon points="282.461,333.408 282.208,333.821 284.96,335.223 284.96,335.223 " />
<polygon points="282.208,333.821 282.022,334.269 284.96,335.223 284.96,335.223 " />
<polygon points="282.022,334.269 281.909,334.74 284.96,335.223 284.96,335.223 " />
<polygon points="281.909,334.74 281.871,335.223 284.96,335.223 284.96,335.223 " />
<polygon points="307.609,322.643 307.647,323.126 310.698,322.643 310.698,322.643 " />
<polygon points="307.647,323.126 307.76,323.597 310.698,322.643 310.698,322.643 " />
<polygon points="307.76,323.597 307.946,324.045 310.698,322.643 310.698,322.643 " />
<polygon points="307.946,324.045 308.199,324.458 310.698,322.643 310.698,322.643 " />
<polygon points="308.199,324.458 308.514,324.827 310.698,322.643 310.698,322.643 " />
<polygon points="308.514,324.827 308.882,325.141 310.698,322.643 310.698,322.643 " />
<polygon points="308.882,325.141 309.296,325.395 310.698,322.643 310.698,322.643 " />
<polygon points="309.296,325.395 309.743,325.58 310.698,322.643 310.698,322.643 " />
<polygon points="309.743,325.58 310.215,325.693 310.698,322.643 310.698,322.643 " />
<polygon points="310.215,325.693 310.698,325.731 310.698,322.643 310.698,322.643 " />
<polygon points="310.698,325.731 311.181,325.693 310.698,322.643 310.698,322.643 " />
<polygon points="311.181,325.693 311.652,325.58 310.698,322.643 310.698,322.643 " />
<polygon points="311.652,325.58 312.1,325.395 310.698,322.643 310.698,322.643 " />
<polygon points="312.1,325.395 312.513,325.141 310.698,322.643 310.698,322.643 " />
<polygon points="312.513,325.141 312.882,324.827 310.698,322.643 310.698,322.643 " />
<polygon points="312.882,324.827 313.196,324.458 310.698,322.643 310.698,322.643 " />
<polygon points="313.196,324.458 313.45,324.045 310.698,322.643 310.698,322.643 " />
<polygon points="313.45,324.045 313.635,323.597 310.698,322.643 310.698,322.643 " />
<polygon points="313.635,323.597 313.748,323.126 310.698,322.643 310.698,322.643 " />
<polygon points="313.748,323.126 313.786,322.643 310.698,322.643 310.698,322.643 " />
<polygon points="313.786,322.643 313.748,322.16 310.698,322.643 310.698,322.643 " />
<polygon points="313.748,322.16 313.635,321.688 310.698,322.643 310.698,322.643 " />
<polygon points="313.635,321.688 313.45,321.241 310.698,322.643 310.698,322.643 " />
<polygon points="313.45,321.241 313.196,320.827 310.698,322.643 310.698,322.643 " />
<polygon points="313.196,320.827 312.882,320.459 310.698,322.643 310.698,322.643 " />
<polygon points="312.882,320.459 312.513,320.144 310.698,322.643 310.698,322.643 " />
<polygon points="312.513,320.144 312.1,319.891 310.698,322.643 310.698,322.643 " />
<polygon points="312.1,319.891 311.652,319.705 310.698,322.643 310.698,322.643 " />
<polygon points="311.652,319.705 311.181,319.592 310.698,322.643 310.698,322.643 " />
<polygon points="311.181,319.592 310.698,319.554 310.698,322.643 310.698,322.643 " />
<polygon points="310.698,319.554 310.215,319.592 310.698,322.643 310.698,322.643 " />
<polygon points="310.215,319.592 309.743,319.705 310.698,322.643 310.698,322.643 " />
<polygon points="309.743,319.705 309.296,319.891 310.698,322.643 310.698,322.643 " />
<polygon points="309.296,319.891 308.882,320.144 310.698,322.643 310.698,322.643 " />
<polygon points="308.882,320.144 308.514,320.459 310.698,322.643 310.698,322.643 " />
<polygon points="308.514,320.459 308.199,320.827 310.698,322.643 310.698,322.643 " />
<polygon points="308.199,320.827 307.946,321.241 310.698,322.643 310.698,322.643 " />
<polygon points="307.946,321.241 307.76,321.688 310.698,322.643 310.698,322.643 " />
<polygon points="307.76,321.688 307.647,322.16 310.698,322.643 310.698,322.643 " />
<polygon points="307.647,322.16 307.609,322.643 310.698,322.643 310.698,322.643 " />
<polygon points="281.871,310.062 281.909,310.545 284.96,310.062 284.96,310.062 " />
<polygon points="281.909,310.545 282.022,311.016 284.96,310.062 284.96,310.062 " />
<polygon points="282.022,311.016 282.208,311.464 284.96,310.062 284.96,310.062 " />
<polygon points="282.208,311.464 282.461,311.877 284.96,310.062 284.96,310.062 " />
<polygon points="282.461,311.877 282.776,312.246 284.96,310.062 284.96,310.062 " />
<polygon points="282.776,312.246 283.144,312.561 284.96,310.062 284.96,310.062 " />
<polygon points="283.144,312.561 283.558,312.814 284.96,310.062 284.96,310.062 " />
<polygon points="283.558,312.814 284.005,312.999 284.96,310.062 284.96,310.062 " />
<polygon points="284.005,312.999 284.477,313.113 284.96,310.062 284.96,310.062 " />
<polygon points="284.477,313.113 284.96,313.151 284.96,310.062 284.96,310.062 " />
<polygon points="284.96,313.151 285.443,313.113 284.96,310.062 284.96,310.062 " />
<polygon points="285.443,313.113 285.914,312.999 284.96,310.062 284.96,310.062 " />
<polygon points="285.914,312.999 286.362,312.814 284.96,310.062 284.96,310.062 " />
<polygon points="286.362,312.814 286.775,312.561 284.96,310.062 284.96,310.062 " />
<polygon points="286.775,312.561 287.144,312.246 284.96,310.062 284.96,310.062 " />
<polygon points="287.144,312.246 287.459,311.877 284.96,310.062 284.96,310.062 " />
<polygon points="287.459,311.877 287.712,311.464 284.96,310.062 284.96,310.062 " />
<polygon points="287.712,311.464 287.897,311.016 284.96,310.062 284.96,310.062 " />
<polygon points="287.897,311.016 288.01,310.545 284.96,310.062 284.96,310.062 " />
<polygon points="288.01,310.545 288.048,310.062 284.96,310.062 284.96,310.062 " />
<polygon points="288.048,310.062 288.01,309.579 284.96,310.062 284.96,310.062 " />
<polygon points="288.01,309.579 287.897,309.108 284.96,310.062 284.96,310.062 " />
<polygon points="287.897,309.108 287.712,308.66 284.96,310.062 284.96,310.062 " />
<polygon points="287.712,308.66 287.459,308.247 284.96,310.062 284.96,310.062 " />
<polygon points="287.459,308.247 287.144,307.878 284.96,310.062 284.96,310.062 " />
<polygon points="287.144,307.878 286.775,307.563 284.96,310.062 284.96,310.062 " />
<polygon points="286.775,307.563 286.362,307.31 284.96,310.062 284.96,310.062 " />
<polygon points="286.362,307.31 285.914,307.125 284.96,310.062 284.96,310.062 " />
<polygon points="285.914,307.125 285.443,307.011 284.96,310.062 284.96,310.062 " />
<polygon points="285.443,307.011 284.96,306.973 284.96,310.062 284.96,310.062 " />
<polygon points="284.96,306.973 284.477,307.011 284.96,310.062 284.96,310.062 " />
<polygon points="284.477,307.011 284.005,307.125 284.96,310.062 284.96,310.062 " />
<polygon points="284.005,307.125 283.558,307.31 284.96,310.062 284.96,310.062 " />
<polygon points="283.558,307.31 283.144,307.563 284.96,310.062 284.96,310.062 " />
<polygon points="283.144,307.563 282.776,307.878 284.96,310.062 284.96,310.062 " />
<polygon points="282.776,307.878 282.461,308.247 284.96,310.062 284.96,310.062 " />
<polygon points="282.461,308.247 282.208,308.66 284.96,310.062 284.96,310.062 " />
<polygon points="282.208,308.66 282.022,309.108 284.96,310.062 284.96,310.062 " />
<polygon points="282.022,309.108 281.909,309.579 284.96,310.062 284.96,310.062 " />
<polygon points="281.909,309.579 281.871,310.062 284.96,310.062 284.96,310.062 " />
</g>
<g clip-path="url(#clipId0)" fill="none" stroke="rgb(0,0,0)" stroke-width="0.25" >
<polyline points="707.432,152.127 733.17,152.127 " />
<polyline points="763.452,149.185 762.716,147.714 761.245,146.244 759.775,145.508 756.833,145.508 755.362,146.244 753.892,147.714 753.156,149.185 752.421,151.391 752.421,155.068 753.156,157.274 753.892,158.745 755.362,160.216 756.833,160.951 759.775,160.951 761.245,160.216 762.716,158.745 763.452,157.274 " />
<polyline points="772.276,145.508 770.805,146.244 769.334,147.714 768.599,149.185 767.864,151.391 767.864,155.068 768.599,157.274 769.334,158.745 770.805,160.216 772.276,160.951 775.217,160.951 776.688,160.216 778.159,158.745 778.894,157.274 779.63,155.068 779.63,151.391 778.894,149.185 778.159,147.714 776.688,146.244 775.217,145.508 772.276,145.508 " />
<polyline points="784.777,145.508 784.777,160.951 " />
<polyline points="784.777,145.508 795.072,160.951 " />
<polyline points="795.072,145.508 795.072,160.951 " />
<polyline points="803.897,145.508 803.897,160.951 " />
<polyline points="798.749,145.508 809.044,145.508 " />
<polyline points="812.721,145.508 812.721,160.951 " />
<polyline points="812.721,145.508 819.34,145.508 821.546,146.244 822.281,146.979 823.017,148.45 823.017,149.92 822.281,151.391 821.546,152.126 819.34,152.862 812.721,152.862 " />
<polyline points="817.869,152.862 823.017,160.951 " />
<polyline points="831.841,145.508 830.37,146.244 828.899,147.714 828.164,149.185 827.429,151.391 827.429,155.068 828.164,157.274 828.899,158.745 830.37,160.216 831.841,160.951 834.782,160.951 836.253,160.216 837.724,158.745 838.459,157.274 839.195,155.068 839.195,151.391 838.459,149.185 837.724,147.714 836.253,146.244 834.782,145.508 831.841,145.508 " />
<polyline points="844.342,145.508 844.342,160.951 853.167,160.951 " />
<polyline points="882.582,149.185 881.846,147.714 880.375,146.244 878.905,145.508 875.963,145.508 874.492,146.244 873.022,147.714 872.286,149.185 871.551,151.391 871.551,155.068 872.286,157.274 873.022,158.745 874.492,160.216 875.963,160.951 878.905,160.951 880.375,160.216 881.846,158.745 882.582,157.274 " />
<polyline points="891.406,145.508 885.523,160.951 " />
<polyline points="891.406,145.508 897.289,160.951 " />
<polyline points="887.729,155.803 895.083,155.803 " />
<polyline points="900.966,145.508 900.966,160.951 " />
<polyline points="900.966,145.508 907.584,145.508 909.79,146.244 910.526,146.979 911.261,148.45 911.261,149.92 910.526,151.391 909.79,152.126 907.584,152.862 " />
<polyline points="900.966,152.862 907.584,152.862 909.79,153.597 910.526,154.333 911.261,155.803 911.261,158.009 910.526,159.48 909.79,160.216 907.584,160.951 900.966,160.951 " />
<polyline points="916.409,145.508 916.409,160.951 " />
<polyline points="922.292,145.508 922.292,160.951 " />
<polyline points="922.292,145.508 932.587,160.951 " />
<polyline points="932.587,145.508 932.587,160.951 " />
<polyline points="938.47,145.508 938.47,160.951 " />
<polyline points="938.47,145.508 948.029,145.508 " />
<polyline points="938.47,152.862 944.353,152.862 " />
<polyline points="938.47,160.951 948.029,160.951 " />
<polyline points="955.383,145.508 955.383,160.951 " />
<polyline points="950.236,145.508 960.531,145.508 " />
</g>
<g clip-path="url(#clipId0)" fill="rgb(0,0,0)" stroke="rgb(0,0,0)" stroke-width="0.25" >
<path d="M297.914,236.242 293.014,237.821 300.202,251.729 300.202,251.729 z" />
</g>
<g clip-path="url(#clipId0)" fill="none" stroke="rgb(0,0,0)" stroke-width="0.25" >
<polyline points="295.464,237.031 246.396,84.7954 " />
<polyline points="246.396,84.7954 272.134,84.7954 " />
<polyline points="284.341,77.074 284.341,92.5168 " />
<polyline points="284.341,77.074 293.901,77.074 " />
<polyline points="284.341,84.4277 290.224,84.4277 " />
<polyline points="297.577,77.074 297.577,92.5168 " />
<polyline points="303.46,77.074 303.46,92.5168 " />
<polyline points="303.46,77.074 313.756,92.5168 " />
<polyline points="313.756,77.074 313.756,92.5168 " />
<polyline points="319.639,77.074 319.639,92.5168 " />
<polyline points="319.639,77.074 329.934,92.5168 " />
<polyline points="329.934,77.074 329.934,92.5168 " />
<polyline points="335.817,77.074 335.817,92.5168 " />
<polyline points="335.817,77.074 345.376,77.074 " />
<polyline points="335.817,84.4277 341.7,84.4277 " />
<polyline points="335.817,92.5168 345.376,92.5168 " />
<polyline points="349.789,77.074 349.789,92.5168 " />
<polyline points="349.789,77.074 354.936,77.074 357.142,77.8094 358.613,79.2802 359.349,80.7509 360.084,82.957 360.084,86.6339 359.349,88.84 358.613,90.3107 357.142,91.7814 354.936,92.5168 349.789,92.5168 " />
<polyline points="383.616,77.074 383.616,92.5168 " />
<polyline points="378.468,77.074 388.763,77.074 " />
<polyline points="392.44,77.074 392.44,88.1046 393.176,90.3107 394.646,91.7814 396.852,92.5168 398.323,92.5168 400.529,91.7814 402,90.3107 402.735,88.1046 402.735,77.074 " />
<polyline points="408.618,77.074 408.618,92.5168 " />
<polyline points="408.618,77.074 415.237,77.074 417.443,77.8094 418.178,78.5448 418.914,80.0155 418.914,81.4863 418.178,82.957 417.443,83.6924 415.237,84.4277 " />
<polyline points="408.618,84.4277 415.237,84.4277 417.443,85.1631 418.178,85.8985 418.914,87.3692 418.914,89.5753 418.178,91.0461 417.443,91.7814 415.237,92.5168 408.618,92.5168 " />
<polyline points="424.061,77.074 424.061,92.5168 " />
<polyline points="424.061,77.074 433.621,77.074 " />
<polyline points="424.061,84.4277 429.944,84.4277 " />
<polyline points="424.061,92.5168 433.621,92.5168 " />
<polyline points="453.476,77.074 453.476,92.5168 " />
<polyline points="453.476,77.074 463.036,77.074 " />
<polyline points="453.476,84.4277 459.359,84.4277 " />
<polyline points="453.476,92.5168 463.036,92.5168 " />
<polyline points="467.448,77.074 467.448,92.5168 476.272,92.5168 " />
<polyline points="479.949,77.074 479.949,92.5168 " />
<polyline points="479.949,77.074 489.509,77.074 " />
<polyline points="479.949,84.4277 485.832,84.4277 " />
<polyline points="479.949,92.5168 489.509,92.5168 " />
<polyline points="504.216,80.7509 503.481,79.2802 502.01,77.8094 500.54,77.074 497.598,77.074 496.127,77.8094 494.657,79.2802 493.921,80.7509 493.186,82.957 493.186,86.6339 493.921,88.84 494.657,90.3107 496.127,91.7814 497.598,92.5168 500.54,92.5168 502.01,91.7814 503.481,90.3107 504.216,88.84 " />
<polyline points="512.306,77.074 512.306,92.5168 " />
<polyline points="507.158,77.074 517.453,77.074 " />
<polyline points="521.13,77.074 521.13,92.5168 " />
<polyline points="521.13,77.074 527.748,77.074 529.954,77.8094 530.69,78.5448 531.425,80.0155 531.425,81.4863 530.69,82.957 529.954,83.6924 527.748,84.4277 521.13,84.4277 " />
<polyline points="526.278,84.4277 531.425,92.5168 " />
<polyline points="536.573,77.074 536.573,92.5168 " />
<polyline points="552.751,80.7509 552.016,79.2802 550.545,77.8094 549.074,77.074 546.133,77.074 544.662,77.8094 543.191,79.2802 542.456,80.7509 541.72,82.957 541.72,86.6339 542.456,88.84 543.191,90.3107 544.662,91.7814 546.133,92.5168 549.074,92.5168 550.545,91.7814 552.016,90.3107 552.751,88.84 " />
<polyline points="583.636,80.7509 582.901,79.2802 581.43,77.8094 579.96,77.074 577.018,77.074 575.547,77.8094 574.077,79.2802 573.341,80.7509 572.606,82.957 572.606,86.6339 573.341,88.84 574.077,90.3107 575.547,91.7814 577.018,92.5168 579.96,92.5168 581.43,91.7814 582.901,90.3107 583.636,88.84 " />
<polyline points="592.461,77.074 590.99,77.8094 589.519,79.2802 588.784,80.7509 588.049,82.957 588.049,86.6339 588.784,88.84 589.519,90.3107 590.99,91.7814 592.461,92.5168 595.402,92.5168 596.873,91.7814 598.344,90.3107 599.079,88.84 599.815,86.6339 599.815,82.957 599.079,80.7509 598.344,79.2802 596.873,77.8094 595.402,77.074 592.461,77.074 " />
<polyline points="604.962,77.074 604.962,92.5168 " />
<polyline points="610.845,77.074 610.845,92.5168 619.67,92.5168 " />
<polyline points="781.06,505.76 806.798,505.76 " />
<polyline points="826.528,499.899 826.528,515.342 " />
<polyline points="832.411,499.899 832.411,515.342 " />
<polyline points="832.411,499.899 842.706,515.342 " />
<polyline points="842.706,499.899 842.706,515.342 " />
<polyline points="858.149,502.105 856.678,500.634 854.472,499.899 851.531,499.899 849.325,500.634 847.854,502.105 847.854,503.576 848.589,505.047 849.325,505.782 850.795,506.517 855.208,507.988 856.678,508.723 857.414,509.459 858.149,510.93 858.149,513.136 856.678,514.606 854.472,515.342 851.531,515.342 849.325,514.606 847.854,513.136 " />
<polyline points="863.297,499.899 863.297,510.93 864.032,513.136 865.503,514.606 867.709,515.342 869.18,515.342 871.386,514.606 872.856,513.136 873.592,510.93 873.592,499.899 " />
<polyline points="879.475,499.899 879.475,515.342 888.299,515.342 " />
<polyline points="895.653,499.899 889.77,515.342 " />
<polyline points="895.653,499.899 901.536,515.342 " />
<polyline points="891.976,510.194 899.33,510.194 " />
<polyline points="908.154,499.899 908.154,515.342 " />
<polyline points="903.007,499.899 913.302,499.899 " />
<polyline points="916.979,499.899 916.979,515.342 " />
<polyline points="926.538,499.899 925.068,500.634 923.597,502.105 922.862,503.576 922.126,505.782 922.126,509.459 922.862,511.665 923.597,513.136 925.068,514.606 926.538,515.342 929.48,515.342 930.951,514.606 932.421,513.136 933.157,511.665 933.892,509.459 933.892,505.782 933.157,503.576 932.421,502.105 930.951,500.634 929.48,499.899 926.538,499.899 " />
<polyline points="939.04,499.899 939.04,515.342 " />
<polyline points="939.04,499.899 949.335,515.342 " />
<polyline points="949.335,499.899 949.335,515.342 " />
<polyline points="535.957,406.157 562.86,406.157 " />
<polyline points="535.957,251.729 562.86,251.729 " />
<polyline points="916.372,673.669 915.294,671.512 913.136,669.355 910.979,668.277 906.665,668.277 904.508,669.355 902.351,671.512 901.272,673.669 900.194,676.905 900.194,682.298 901.272,685.533 902.351,687.69 904.508,689.847 906.665,690.926 910.979,690.926 913.136,689.847 915.294,687.69 916.372,685.533 " />
<polyline points="923.922,668.277 923.922,690.926 " />
<polyline points="923.922,668.277 933.629,668.277 936.864,669.355 937.943,670.434 939.021,672.591 939.021,674.748 937.943,676.905 936.864,677.983 933.629,679.062 923.922,679.062 " />
<polyline points="931.472,679.062 939.021,690.926 " />
<polyline points="950.885,668.277 947.65,669.355 946.571,671.512 946.571,673.669 947.65,675.826 949.807,676.905 954.121,677.983 957.357,679.062 959.514,681.219 960.592,683.376 960.592,686.612 959.514,688.769 958.435,689.847 955.2,690.926 950.885,690.926 947.65,689.847 946.571,688.769 945.493,686.612 945.493,683.376 946.571,681.219 948.728,679.062 951.964,677.983 956.278,676.905 958.435,675.826 959.514,673.669 959.514,671.512 958.435,669.355 955.2,668.277 950.885,668.277 " />
<polyline points="968.142,681.219 987.556,681.219 " />
<polyline points="1009.13,671.512 1008.05,669.355 1004.81,668.277 1002.66,668.277 999.42,669.355 997.263,672.591 996.184,677.983 996.184,683.376 997.263,687.69 999.42,689.847 1002.66,690.926 1003.73,690.926 1006.97,689.847 1009.13,687.69 1010.21,684.455 1010.21,683.376 1009.13,680.141 1006.97,677.983 1003.73,676.905 1002.66,676.905 999.42,677.983 997.263,680.141 996.184,683.376 " />
</g>
</svg>
