<?xml version="1.0" standalone="no"?>
<svg viewBox="0 0 1024 768" version="1.1" xmlns="http://www.w3.org/2000/svg" xmlns:xlink="http://www.w3.org/1999/xlink" stroke-linecap="round" stroke-linejoin="round" fill-rule="evenodd" xml:space="preserve" >
<defs >
<clipPath id="clipId0" >
<path d="M0,768 1024,768 1024,0 0,0 z" />
</clipPath>
</defs>
<g clip-path="url(#clipId0)" fill="none" stroke="rgb(0,0,0)" stroke-width="0.1" />
<g clip-path="url(#clipId0)" fill="none" stroke="rgb(0,0,0)" stroke-width="0.25" >
<polyline points="121.471,180.45 921.879,180.45 " />
<polyline points="121.471,382.275 921.879,382.275 " />
<polyline points="982.695,142.65 982.695,263.311 " />
<polyline points="178.879,281.363 124.425,281.363 " />
</g>
<g clip-path="url(#clipId0)" fill="rgb(0,0,0)" stroke="rgb(0,0,0)" stroke-width="0.25" >
<path d="M178.879,277.999 178.879,284.726 199.062,281.363 199.062,281.363 z" />
</g>
<g clip-path="url(#clipId0)" fill="none" stroke="rgb(0,0,0)" stroke-width="0.25" >
<polyline points="251.502,382.275 251.502,180.45 " />
<polyline points="791.848,382.275 791.848,180.45 " />
<polyline points="318.777,247.725 724.573,247.725 " stroke-dasharray="33.637498,16.818749" />
<polyline points="318.777,315 724.573,315 " stroke-dasharray="33.637498,16.818749" />
<polyline points="318.777,348.638 724.573,348.638 " stroke-dasharray="33.637498,16.818749" />
<polyline points="318.777,214.088 724.573,214.088 " stroke-dasharray="33.637498,16.818749" />
</g>
<g clip-path="url(#clipId0)" fill="rgb(0,0,0)" stroke="rgb(0,0,0)" stroke-width="0.25" >
<path d="M552.823,180.394 559.017,183.018 548.048,200.29 548.048,200.29 z" />
</g>
<g clip-path="url(#clipId0)" fill="none" stroke="rgb(0,0,0)" stroke-width="0.25" >
<polyline points="555.92,181.706 596.161,86.7056 " />
<polyline points="596.161,86.7056 575.979,86.7056 " />
<polyline points="131.919,79.4975 129.997,77.5754 127.114,76.6143 123.269,76.6143 120.386,77.5754 118.464,79.4975 118.464,81.4197 119.425,83.3418 120.386,84.3029 122.308,85.264 128.075,87.1861 129.997,88.1472 130.958,89.1083 131.919,91.0304 131.919,93.9136 129.997,95.8358 127.114,96.7968 123.269,96.7968 120.386,95.8358 118.464,93.9136 " />
<polyline points="143.452,76.6143 141.53,77.5754 139.608,79.4975 138.647,81.4197 137.686,84.3029 137.686,89.1083 138.647,91.9915 139.608,93.9136 141.53,95.8358 143.452,96.7968 147.296,96.7968 149.218,95.8358 151.141,93.9136 152.102,91.9915 153.063,89.1083 153.063,84.3029 152.102,81.4197 151.141,79.4975 149.218,77.5754 147.296,76.6143 143.452,76.6143 " />
<polyline points="159.79,76.6143 159.79,91.0304 160.751,93.9136 162.673,95.8358 165.557,96.7968 167.479,96.7968 170.362,95.8358 172.284,93.9136 173.245,91.0304 173.245,76.6143 " />
<polyline points="180.934,76.6143 180.934,96.7968 " />
<polyline points="180.934,76.6143 194.389,96.7968 " />
<polyline points="194.389,76.6143 194.389,96.7968 " />
<polyline points="202.077,76.6143 202.077,96.7968 " />
<polyline points="202.077,76.6143 208.805,76.6143 211.688,77.5754 213.61,79.4975 214.571,81.4197 215.532,84.3029 215.532,89.1083 214.571,91.9915 213.61,93.9136 211.688,95.8358 208.805,96.7968 202.077,96.7968 " />
<polyline points="247.248,76.6143 239.559,96.7968 " />
<polyline points="247.248,76.6143 254.936,96.7968 " />
<polyline points="242.442,90.0693 252.053,90.0693 " />
<polyline points="259.742,76.6143 259.742,96.7968 " />
<polyline points="259.742,76.6143 268.391,76.6143 271.274,77.5754 272.236,78.5365 273.197,80.4586 273.197,82.3808 272.236,84.3029 271.274,85.264 268.391,86.225 " />
<polyline points="259.742,86.225 268.391,86.225 271.274,87.1861 272.236,88.1472 273.197,90.0693 273.197,92.9525 272.236,94.8747 271.274,95.8358 268.391,96.7968 259.742,96.7968 " />
<polyline points="292.418,79.4975 290.496,77.5754 287.613,76.6143 283.768,76.6143 280.885,77.5754 278.963,79.4975 278.963,81.4197 279.924,83.3418 280.885,84.3029 282.807,85.264 288.574,87.1861 290.496,88.1472 291.457,89.1083 292.418,91.0304 292.418,93.9136 290.496,95.8358 287.613,96.7968 283.768,96.7968 280.885,95.8358 278.963,93.9136 " />
<polyline points="303.951,76.6143 302.029,77.5754 300.107,79.4975 299.146,81.4197 298.184,84.3029 298.184,89.1083 299.146,91.9915 300.107,93.9136 302.029,95.8358 303.951,96.7968 307.795,96.7968 309.717,95.8358 311.639,93.9136 312.601,91.9915 313.562,89.1083 313.562,84.3029 312.601,81.4197 311.639,79.4975 309.717,77.5754 307.795,76.6143 303.951,76.6143 " />
<polyline points="320.289,76.6143 320.289,96.7968 " />
<polyline points="320.289,76.6143 328.939,76.6143 331.822,77.5754 332.783,78.5365 333.744,80.4586 333.744,82.3808 332.783,84.3029 331.822,85.264 328.939,86.225 320.289,86.225 " />
<polyline points="327.017,86.225 333.744,96.7968 " />
<polyline points="340.472,76.6143 340.472,96.7968 " />
<polyline points="340.472,76.6143 349.121,76.6143 352.004,77.5754 352.966,78.5365 353.927,80.4586 353.927,82.3808 352.966,84.3029 352.004,85.264 349.121,86.225 " />
<polyline points="340.472,86.225 349.121,86.225 352.004,87.1861 352.966,88.1472 353.927,90.0693 353.927,92.9525 352.966,94.8747 352.004,95.8358 349.121,96.7968 340.472,96.7968 " />
<polyline points="360.654,76.6143 360.654,96.7968 " />
<polyline points="368.343,76.6143 368.343,96.7968 " />
<polyline points="368.343,76.6143 381.798,96.7968 " />
<polyline points="381.798,76.6143 381.798,96.7968 " />
<polyline points="402.941,81.4197 401.98,79.4975 400.058,77.5754 398.136,76.6143 394.292,76.6143 392.369,77.5754 390.447,79.4975 389.486,81.4197 388.525,84.3029 388.525,89.1083 389.486,91.9915 390.447,93.9136 392.369,95.8358 394.292,96.7968 398.136,96.7968 400.058,95.8358 401.98,93.9136 402.941,91.9915 402.941,89.1083 " />
<polyline points="398.136,89.1083 402.941,89.1083 " />
<polyline points="429.851,76.6143 429.851,96.7968 " />
<polyline points="429.851,76.6143 437.54,96.7968 " />
<polyline points="445.228,76.6143 437.54,96.7968 " />
<polyline points="445.228,76.6143 445.228,96.7968 " />
<polyline points="457.722,76.6143 450.034,96.7968 " />
<polyline points="457.722,76.6143 465.411,96.7968 " />
<polyline points="452.917,90.0693 462.528,90.0693 " />
<polyline points="474.061,76.6143 474.061,96.7968 " />
<polyline points="467.333,76.6143 480.788,76.6143 " />
<polyline points="485.593,76.6143 485.593,96.7968 " />
<polyline points="485.593,76.6143 498.087,76.6143 " />
<polyline points="485.593,86.225 493.282,86.225 " />
<polyline points="485.593,96.7968 498.087,96.7968 " />
<polyline points="503.854,76.6143 503.854,96.7968 " />
<polyline points="503.854,76.6143 512.503,76.6143 515.387,77.5754 516.348,78.5365 517.309,80.4586 517.309,82.3808 516.348,84.3029 515.387,85.264 512.503,86.225 503.854,86.225 " />
<polyline points="510.581,86.225 517.309,96.7968 " />
<polyline points="524.036,76.6143 524.036,96.7968 " />
<polyline points="536.53,76.6143 528.842,96.7968 " />
<polyline points="536.53,76.6143 544.219,96.7968 " />
<polyline points="531.725,90.0693 541.336,90.0693 " />
<polyline points="549.024,76.6143 549.024,96.7968 560.557,96.7968 " />
<path d="M318.777,247.725  A33.6375,33.6375 0 0,0 318.777,315 " stroke-dasharray="33.637498,16.818749" />
<path d="M724.573,315  A33.6375,33.6375 0 0,0 724.573,247.725 " stroke-dasharray="33.637498,16.818749" />
<path d="M285.14,180.45  A33.6375,33.6375 0 0,0 318.777,214.088 " stroke-dasharray="33.637498,16.818749" />
<path d="M318.777,348.638  A33.6375,33.6375 0 0,0 285.14,382.275 " stroke-dasharray="33.637498,16.818749" />
<path d="M724.573,214.088  A33.6375,33.6375 0 0,0 758.211,180.45 " stroke-dasharray="33.637498,16.818749" />
<path d="M758.211,382.275  A33.6375,33.6375 0 0,0 724.573,348.638 " stroke-dasharray="33.637498,16.818749" />
<polyline points="1013.96,263.311 951.43,299.414 " />
<polyline points="1013.96,263.311 982.695,263.311 " />
<polyline points="951.43,299.414 982.695,299.414 " />
<polyline points="982.695,299.414 982.695,420.075 " />
<polyline points="41.3047,299.414 41.3047,420.075 " />
<polyline points="10.0392,299.414 41.3047,299.414 " />
<polyline points="72.5702,263.311 41.3047,263.311 " />
<polyline points="72.5702,263.311 10.0392,299.414 " />
<polyline points="41.3047,142.65 41.3047,263.311 " />
<polyline points="482.595,214.088 516.233,180.45 " />
<polyline points="458.81,214.088 492.447,180.45 " />
<polyline points="435.024,214.088 468.662,180.45 " />
<polyline points="411.239,214.088 444.877,180.45 " />
<polyline points="387.454,214.088 421.091,180.45 " />
<polyline points="363.669,214.088 397.306,180.45 " />
<polyline points="339.883,214.088 373.521,180.45 " />
<polyline points="316.197,213.988 349.735,180.45 " />
<polyline points="298.85,207.55 325.95,180.45 " />
<polyline points="288.183,194.432 302.165,180.45 " />
<polyline points="506.38,214.088 540.018,180.45 " />
<polyline points="530.166,214.088 563.803,180.45 " />
<polyline points="553.951,214.088 587.588,180.45 " />
<polyline points="577.736,214.088 611.374,180.45 " />
<polyline points="601.522,214.088 635.159,180.45 " />
<polyline points="625.307,214.088 658.944,180.45 " />
<polyline points="649.092,214.088 682.73,180.45 " />
<polyline points="672.878,214.088 706.515,180.45 " />
<polyline points="696.663,214.088 730.3,180.45 " />
<polyline points="720.448,214.088 754.086,180.45 " />
<polyline points="529.084,214.088 495.446,180.45 " />
<polyline points="505.299,214.088 471.661,180.45 " />
<polyline points="481.513,214.088 447.876,180.45 " />
<polyline points="457.728,214.088 424.091,180.45 " />
<polyline points="433.943,214.088 400.305,180.45 " />
<polyline points="410.157,214.088 376.52,180.45 " />
<polyline points="386.372,214.088 352.735,180.45 " />
<polyline points="362.587,214.088 328.949,180.45 " />
<polyline points="338.802,214.088 305.164,180.45 " />
<polyline points="314.778,213.849 285.378,184.45 " />
<polyline points="552.869,214.088 519.232,180.45 " />
<polyline points="576.655,214.088 543.017,180.45 " />
<polyline points="600.44,214.088 566.802,180.45 " />
<polyline points="624.225,214.088 590.588,180.45 " />
<polyline points="648.011,214.088 614.373,180.45 " />
<polyline points="671.796,214.088 638.158,180.45 " />
<polyline points="695.581,214.088 661.944,180.45 " />
<polyline points="719.366,214.088 685.729,180.45 " />
<polyline points="739.606,210.542 709.514,180.45 " />
<polyline points="752.318,199.469 733.3,180.45 " />
<polyline points="758.193,181.558 757.085,180.45 " />
<polyline points="476.824,315 544.099,247.725 " />
<polyline points="453.038,315 520.313,247.725 " />
<polyline points="429.253,315 496.528,247.725 " />
<polyline points="405.468,315 472.743,247.725 " />
<polyline points="381.683,315 448.958,247.725 " />
<polyline points="357.897,315 425.172,247.725 " />
<polyline points="334.112,315 401.387,247.725 " />
<polyline points="311.193,314.134 377.602,247.725 " />
<polyline points="295.703,305.838 353.816,247.725 " />
<polyline points="286.598,291.159 330.031,247.725 " />
<polyline points="289.961,264.01 301.424,252.547 " />
<polyline points="500.609,315 567.884,247.725 " />
<polyline points="524.394,315 591.669,247.725 " />
<polyline points="548.18,315 615.455,247.725 " />
<polyline points="571.965,315 639.24,247.725 " />
<polyline points="595.75,315 663.025,247.725 " />
<polyline points="619.536,315 686.811,247.725 " />
<polyline points="643.321,315 710.596,247.725 " />
<polyline points="667.106,315 733.244,248.862 " />
<polyline points="690.892,315 748.337,257.555 " />
<polyline points="714.677,315 757.055,272.622 " />
<polyline points="747.309,306.153 749.364,304.098 " />
<polyline points="534.855,315 467.58,247.725 " />
<polyline points="511.07,315 443.795,247.725 " />
<polyline points="487.285,315 420.01,247.725 " />
<polyline points="463.499,315 396.224,247.725 " />
<polyline points="439.714,315 372.439,247.725 " />
<polyline points="415.929,315 348.654,247.725 " />
<polyline points="392.143,315 324.868,247.725 " />
<polyline points="368.358,315 304.339,250.981 " />
<polyline points="344.573,315 291.396,261.824 " />
<polyline points="320.788,315 285.196,279.409 " />
<polyline points="558.641,315 491.366,247.725 " />
<polyline points="582.426,315 515.151,247.725 " />
<polyline points="606.211,315 538.936,247.725 " />
<polyline points="629.996,315 562.721,247.725 " />
<polyline points="653.782,315 586.507,247.725 " />
<polyline points="677.567,315 610.292,247.725 " />
<polyline points="701.352,315 634.077,247.725 " />
<polyline points="725.133,314.995 657.863,247.725 " />
<polyline points="743.257,309.334 681.648,247.725 " />
<polyline points="754.476,296.768 705.433,247.725 " />
<polyline points="757.834,276.34 729.596,248.102 " />
<polyline points="504.69,382.275 538.328,348.638 " />
<polyline points="480.905,382.275 514.542,348.638 " />
<polyline points="457.119,382.275 490.757,348.638 " />
<polyline points="433.334,382.275 466.972,348.638 " />
<polyline points="409.549,382.275 443.186,348.638 " />
<polyline points="385.763,382.275 419.401,348.638 " />
<polyline points="361.978,382.275 395.616,348.638 " />
<polyline points="338.193,382.275 371.83,348.638 " />
<polyline points="314.408,382.275 348.045,348.638 " />
<polyline points="290.622,382.275 324.26,348.638 " />
<polyline points="528.475,382.275 562.113,348.638 " />
<polyline points="552.261,382.275 585.898,348.638 " />
<polyline points="576.046,382.275 609.683,348.638 " />
<polyline points="599.831,382.275 633.469,348.638 " />
<polyline points="623.617,382.275 657.254,348.638 " />
<polyline points="647.402,382.275 681.039,348.638 " />
<polyline points="671.187,382.275 704.825,348.638 " />
<polyline points="694.972,382.275 728.392,348.855 " />
<polyline points="718.758,382.275 745.272,355.76 " />
<polyline points="742.543,382.275 755.581,369.237 " />
<polyline points="530.774,382.275 497.137,348.638 " />
<polyline points="506.989,382.275 473.352,348.638 " />
<polyline points="483.204,382.275 449.566,348.638 " />
<polyline points="459.418,382.275 425.781,348.638 " />
<polyline points="435.633,382.275 401.996,348.638 " />
<polyline points="411.848,382.275 378.21,348.638 " />
<polyline points="388.063,382.275 354.425,348.638 " />
<polyline points="364.277,382.275 330.64,348.638 " />
<polyline points="340.492,382.275 308.472,350.255 " />
<polyline points="316.707,382.275 293.979,359.548 " />
<polyline points="292.921,382.275 285.884,375.238 " />
<polyline points="554.56,382.275 520.922,348.638 " />
<polyline points="578.345,382.275 544.707,348.638 " />
<polyline points="602.13,382.275 568.493,348.638 " />
<polyline points="625.916,382.275 592.278,348.638 " />
<polyline points="649.701,382.275 616.063,348.638 " />
<polyline points="673.486,382.275 639.849,348.638 " />
<polyline points="697.271,382.275 663.634,348.638 " />
<polyline points="721.057,382.275 687.419,348.638 " />
<polyline points="744.842,382.275 711.205,348.638 " />
<polyline points="755.576,369.223 737.625,351.273 " />
<polyline points="135.15,250.657 133.228,251.618 131.306,253.54 130.344,255.462 129.383,258.345 129.383,263.151 130.344,266.034 131.306,267.956 133.228,269.878 135.15,270.839 138.994,270.839 140.916,269.878 142.838,267.956 143.799,266.034 144.761,263.151 144.761,258.345 143.799,255.462 142.838,253.54 140.916,251.618 138.994,250.657 135.15,250.657 " />
<polyline points="138.033,266.995 143.799,272.761 " />
<polyline points="137.453,290.355 129.765,310.537 " />
<polyline points="137.453,290.355 145.142,310.537 " />
<polyline points="132.648,303.81 142.259,303.81 " />
<polyline points="155.368,303.245 153.638,303.821 152.485,305.551 151.908,308.434 151.908,310.164 152.485,313.048 153.638,314.778 155.368,315.354 156.521,315.354 158.251,314.778 159.404,313.048 159.981,310.164 159.981,308.434 159.404,305.551 158.251,303.821 156.521,303.245 155.368,303.245 " />
<polyline points="251.502,390.684 251.502,495.593 " />
<polyline points="791.848,390.684 791.848,495.593 " />
<polyline points="271.685,471.374 503.799,471.374 " />
<polyline points="771.666,471.374 539.551,471.374 " />
</g>
<g clip-path="url(#clipId0)" fill="rgb(0,0,0)" stroke="rgb(0,0,0)" stroke-width="0.25" >
<path d="M271.685,468.01 271.685,474.738 251.502,471.374 251.502,471.374 z" />
<path d="M771.666,468.01 771.666,474.738 791.848,471.374 791.848,471.374 z" />
</g>
<g clip-path="url(#clipId0)" fill="none" stroke="rgb(0,0,0)" stroke-width="0.25" >
<polyline points="515.909,461.283 515.909,481.465 527.442,481.465 " />
<polyline points="820.1,275.236 824.906,295.419 " />
<polyline points="829.711,275.236 824.906,295.419 " />
<polyline points="829.711,275.236 834.516,295.419 " />
<polyline points="839.322,275.236 834.516,295.419 " />
<polyline points="864.309,281.964 874.881,295.419 " />
<polyline points="874.881,281.964 864.309,295.419 " />
<polyline points="901.791,275.236 901.791,295.419 " />
<polyline points="915.246,275.236 915.246,295.419 " />
<polyline points="901.791,284.847 915.246,284.847 " />
<polyline points="921.879,180.45 982.695,180.45 " />
<polyline points="921.879,382.275 982.695,382.275 " />
<polyline points="982.695,382.275 982.695,390.273 " />
<polyline points="121.471,382.275 41.3047,382.275 " />
<polyline points="121.471,180.45 41.3047,180.45 " />
<polyline points="124.425,281.363 90.7871,281.363 " />
<polyline points="860.624,668.833 859.214,666.013 856.395,663.194 853.576,661.785 847.938,661.785 845.119,663.194 842.299,666.013 840.89,668.833 839.48,673.061 839.48,680.109 840.89,684.338 842.299,687.157 845.119,689.976 847.938,691.386 853.576,691.386 856.395,689.976 859.214,687.157 860.624,684.338 " />
<polyline points="870.491,661.785 870.491,691.386 " />
<polyline points="870.491,661.785 883.177,661.785 887.406,663.194 888.815,664.604 890.225,667.423 890.225,670.242 888.815,673.061 887.406,674.471 883.177,675.88 870.491,675.88 " />
<polyline points="880.358,675.88 890.225,691.386 " />
<polyline points="905.73,661.785 901.501,663.194 900.092,666.013 900.092,668.833 901.501,671.652 904.321,673.061 909.959,674.471 914.188,675.88 917.007,678.7 918.416,681.519 918.416,685.747 917.007,688.567 915.597,689.976 911.368,691.386 905.73,691.386 901.501,689.976 900.092,688.567 898.682,685.747 898.682,681.519 900.092,678.7 902.911,675.88 907.14,674.471 912.778,673.061 915.597,671.652 917.007,668.833 917.007,666.013 915.597,663.194 911.368,661.785 905.73,661.785 " />
<polyline points="928.283,678.7 953.656,678.7 " />
<polyline points="964.932,668.833 964.932,667.423 966.342,664.604 967.751,663.194 970.57,661.785 976.209,661.785 979.028,663.194 980.437,664.604 981.847,667.423 981.847,670.242 980.437,673.061 977.618,677.29 963.523,691.386 983.257,691.386 " />
</g>
</svg>
