<?xml version="1.0" standalone="no"?>
<svg viewBox="0 0 1024 768" version="1.1" xmlns="http://www.w3.org/2000/svg" xmlns:xlink="http://www.w3.org/1999/xlink" stroke-linecap="round" stroke-linejoin="round" fill-rule="evenodd" xml:space="preserve" >
<defs >
<clipPath id="clipId0" >
<path d="M0,768 1024,768 1024,0 0,0 z" />
</clipPath>
</defs>
<g clip-path="url(#clipId0)" fill="none" stroke="rgb(0,0,0)" stroke-width="0.1" />
<g clip-path="url(#clipId0)" fill="none" stroke="rgb(0,0,0)" stroke-width="0.25" >
<polyline points="530.882,253.006 33.7314,253.006 " />
<polyline points="530.882,405.943 33.7314,405.943 " />
<polyline points="188.452,329.475 110.263,329.475 " />
</g>
<g clip-path="url(#clipId0)" fill="rgb(0,0,0)" stroke="rgb(0,0,0)" stroke-width="0.25" >
<path d="M188.452,326.926 188.452,332.024 203.746,329.475 203.746,329.475 z" />
</g>
<g clip-path="url(#clipId0)" fill="none" stroke="rgb(0,0,0)" stroke-width="0.25" >
<polyline points="733.575,253.006 733.575,405.943 " />
<polyline points="1013.96,253.006 1013.96,405.943 " />
<polyline points="733.575,405.943 1013.96,405.943 " />
<polyline points="733.575,253.006 1013.96,253.006 " />
<polyline points="33.7314,233.172 33.7314,315.796 " />
<polyline points="57.4235,315.796 33.7314,315.796 " />
<polyline points="10.0392,343.153 33.7314,343.153 " />
<polyline points="10.0392,343.153 57.4235,315.796 " />
<polyline points="33.7314,343.153 33.7314,424.239 " />
<polyline points="574.48,343.153 574.48,424.239 " />
<polyline points="550.788,343.153 598.172,315.796 " />
<polyline points="550.788,343.153 574.48,343.153 " />
<polyline points="598.172,315.796 574.48,315.796 " />
<polyline points="574.48,233.172 574.48,315.796 " />
<polyline points="256.817,405.943 256.817,253.006 " />
<polyline points="333.286,405.943 333.286,253.006 " stroke-dasharray="22.940616,11.470308" />
<polyline points="767.714,405.943 767.714,253.006 " />
<polyline points="416.126,405.943 416.126,253.006 " />
<polyline points="767.714,273.398 993.569,273.398 " />
<polyline points="993.569,273.398 993.569,385.552 " />
<polyline points="767.714,385.552 993.569,385.552 " />
<polyline points="813.777,273.398 813.777,385.552 " />
<polyline points="877.776,273.398 877.776,385.552 " />
<polyline points="941.776,273.398 941.776,385.552 " />
<polyline points="739.693,253.006 739.693,405.943 " />
</g>
<g clip-path="url(#clipId0)" fill="rgb(0,0,0)" stroke="rgb(0,0,0)" stroke-width="0.25" >
<path d="M751.365,260.797 746.568,262.522 754.141,276.051 754.141,276.051 z" />
</g>
<g clip-path="url(#clipId0)" fill="none" stroke="rgb(0,0,0)" stroke-width="0.25" >
<polyline points="748.966,261.66 710.39,154.365 " />
</g>
<g clip-path="url(#clipId0)" fill="rgb(0,0,0)" stroke="rgb(0,0,0)" stroke-width="0.25" >
<path d="M859.147,407.955 863.091,411.185 870.809,397.738 870.809,397.738 z" />
</g>
<g clip-path="url(#clipId0)" fill="none" stroke="rgb(0,0,0)" stroke-width="0.25" >
<polyline points="861.119,409.57 783.308,504.585 " />
<polyline points="802.558,405.943 822.95,385.552 " />
<polyline points="935.104,273.398 955.496,253.006 " />
<polyline points="784.534,405.943 804.926,385.552 " />
<polyline points="917.08,273.398 937.472,253.006 " />
<polyline points="767.714,404.74 786.902,385.552 " />
<polyline points="899.056,273.398 919.448,253.006 " />
<polyline points="767.714,386.716 768.878,385.552 " />
<polyline points="881.033,273.398 901.424,253.006 " />
<polyline points="863.009,273.398 883.4,253.006 " />
<polyline points="844.985,273.398 865.376,253.006 " />
<polyline points="826.961,273.398 847.353,253.006 " />
<polyline points="808.937,273.398 829.329,253.006 " />
<polyline points="790.913,273.398 811.305,253.006 " />
<polyline points="772.889,273.398 793.281,253.006 " />
<polyline points="767.714,260.549 775.257,253.006 " />
<polyline points="820.582,405.943 840.974,385.552 " />
<polyline points="953.128,273.398 973.52,253.006 " />
<polyline points="838.606,405.943 858.998,385.552 " />
<polyline points="971.152,273.398 991.543,253.006 " />
<polyline points="856.63,405.943 877.021,385.552 " />
<polyline points="989.176,273.398 1009.57,253.006 " />
<polyline points="874.654,405.943 895.045,385.552 " />
<polyline points="993.569,287.028 1013.96,266.636 " />
<polyline points="892.678,405.943 913.069,385.552 " />
<polyline points="993.569,305.052 1013.96,284.66 " />
<polyline points="910.701,405.943 931.093,385.552 " />
<polyline points="993.569,323.076 1013.96,302.684 " />
<polyline points="928.725,405.943 949.117,385.552 " />
<polyline points="993.569,341.1 1013.96,320.708 " />
<polyline points="946.749,405.943 967.141,385.552 " />
<polyline points="993.569,359.123 1013.96,338.732 " />
<polyline points="964.773,405.943 985.165,385.552 " />
<polyline points="993.569,377.147 1013.96,356.756 " />
<polyline points="982.797,405.943 1013.96,374.779 " />
<polyline points="1000.82,405.943 1013.96,392.803 " />
<polyline points="132.983,305.027 131.526,305.755 130.069,307.212 129.341,308.668 128.613,310.853 128.613,314.494 129.341,316.679 130.069,318.136 131.526,319.592 132.983,320.321 135.896,320.321 137.352,319.592 138.809,318.136 139.537,316.679 140.265,314.494 140.265,310.853 139.537,308.668 138.809,307.212 137.352,305.755 135.896,305.027 132.983,305.027 " />
<polyline points="135.167,317.408 139.537,321.777 " />
<polyline points="134.533,334.491 128.707,349.785 " />
<polyline points="134.533,334.491 140.359,349.785 " />
<polyline points="130.892,344.687 138.174,344.687 " />
<polyline points="147.059,342.862 145.748,343.299 144.874,344.609 144.437,346.794 144.437,348.105 144.874,350.29 145.748,351.601 147.059,352.038 147.933,352.038 149.244,351.601 150.118,350.29 150.555,348.105 150.555,346.794 150.118,344.609 149.244,343.299 147.933,342.862 147.059,342.862 " />
<polyline points="844.416,273.398 844.416,385.552 " />
<polyline points="908.771,273.398 908.771,385.552 " />
</g>
<g clip-path="url(#clipId0)" fill="rgb(0,0,0)" stroke="rgb(0,0,0)" stroke-width="0.25" >
<path d="M767.714,326.294 767.714,320.176 971.485,320.176 971.485,326.294 z" />
<polygon points="971.485,326.294 972.214,326.265 971.734,320.166 971.485,320.176 " />
<polygon points="972.214,326.265 972.938,326.179 971.981,320.137 971.734,320.166 " />
<polygon points="972.938,326.179 973.653,326.037 972.225,320.088 971.981,320.137 " />
<polygon points="973.653,326.037 974.355,325.839 972.465,320.021 972.225,320.088 " />
<polygon points="974.355,325.839 975.039,325.587 972.698,319.935 972.465,320.021 " />
<polygon points="975.039,325.587 975.702,325.281 972.925,319.83 972.698,319.935 " />
<polygon points="975.702,325.281 976.338,324.925 973.142,319.709 972.925,319.83 " />
<polygon points="976.338,324.925 976.945,324.52 973.349,319.571 973.142,319.709 " />
<polygon points="976.945,324.52 977.517,324.068 973.544,319.416 973.349,319.571 " />
<polygon points="977.517,324.068 978.053,323.573 973.727,319.247 973.544,319.416 " />
<polygon points="978.053,323.573 978.548,323.038 973.896,319.065 973.727,319.247 " />
<polygon points="978.548,323.038 978.999,322.465 974.05,318.869 973.896,319.065 " />
<polygon points="978.999,322.465 979.405,321.858 974.189,318.662 974.05,318.869 " />
<polygon points="979.405,321.858 979.761,321.222 974.31,318.445 974.189,318.662 " />
<polygon points="979.761,321.222 980.066,320.56 974.414,318.219 974.31,318.445 " />
<polygon points="980.066,320.56 980.319,319.875 974.501,317.985 974.414,318.219 " />
<polygon points="980.319,319.875 980.517,319.174 974.568,317.745 974.501,317.985 " />
<polygon points="980.517,319.174 980.659,318.458 974.617,317.501 974.568,317.745 " />
<polygon points="980.659,318.458 980.745,317.734 974.646,317.254 974.617,317.501 " />
<polygon points="980.745,317.734 980.773,317.005 974.656,317.005 974.646,317.254 " />
<polygon points="980.773,317.005 980.745,316.276 974.646,316.756 974.656,317.005 " />
<polygon points="980.745,316.276 980.659,315.552 974.617,316.509 974.646,316.756 " />
<polygon points="980.659,315.552 980.517,314.837 974.568,316.265 974.617,316.509 " />
<polygon points="980.517,314.837 980.319,314.135 974.501,316.025 974.568,316.265 " />
<polygon points="980.319,314.135 980.066,313.451 974.414,315.792 974.501,316.025 " />
<polygon points="980.066,313.451 979.761,312.788 974.31,315.566 974.414,315.792 " />
<polygon points="979.761,312.788 979.405,312.152 974.189,315.348 974.31,315.566 " />
<polygon points="979.405,312.152 978.999,311.546 974.05,315.141 974.189,315.348 " />
<polygon points="978.999,311.546 978.548,310.973 973.896,314.946 974.05,315.141 " />
<polygon points="978.548,310.973 978.053,310.437 973.727,314.763 973.896,314.946 " />
<polygon points="978.053,310.437 977.517,309.942 973.544,314.594 973.727,314.763 " />
<polygon points="977.517,309.942 976.945,309.491 973.349,314.44 973.544,314.594 " />
<polygon points="976.945,309.491 976.338,309.086 973.142,314.302 973.349,314.44 " />
<polygon points="976.338,309.086 975.702,308.729 972.925,314.18 973.142,314.302 " />
<polygon points="975.702,308.729 975.039,308.424 972.698,314.076 972.925,314.18 " />
<polygon points="975.039,308.424 974.355,308.171 972.465,313.989 972.698,314.076 " />
<polygon points="974.355,308.171 973.653,307.973 972.225,313.922 972.465,313.989 " />
<polygon points="973.653,307.973 972.938,307.831 971.981,313.873 972.225,313.922 " />
<polygon points="972.938,307.831 972.214,307.745 971.734,313.844 971.981,313.873 " />
<polygon points="972.214,307.745 971.485,307.717 971.485,313.834 971.734,313.844 " />
<path d="M971.485,307.717 971.485,313.834 789.798,313.834 789.798,307.717 z" />
<polygon points="789.798,313.834 789.069,313.806 789.549,307.707 789.798,307.717 " />
<polygon points="789.069,313.806 788.345,313.72 789.302,307.678 789.549,307.707 " />
<polygon points="788.345,313.72 787.63,313.578 789.058,307.629 789.302,307.678 " />
<polygon points="787.63,313.578 786.928,313.38 788.818,307.562 789.058,307.629 " />
<polygon points="786.928,313.38 786.244,313.127 788.585,307.475 788.818,307.562 " />
<polygon points="786.244,313.127 785.581,312.822 788.359,307.371 788.585,307.475 " />
<polygon points="785.581,312.822 784.945,312.466 788.141,307.25 788.359,307.371 " />
<polygon points="784.945,312.466 784.339,312.06 787.934,307.111 788.141,307.25 " />
<polygon points="784.339,312.06 783.766,311.609 787.739,306.957 787.934,307.111 " />
<polygon points="783.766,311.609 783.23,311.114 787.556,306.788 787.739,306.957 " />
<polygon points="783.23,311.114 782.735,310.578 787.387,306.605 787.556,306.788 " />
<polygon points="782.735,310.578 782.284,310.005 787.233,306.41 787.387,306.605 " />
<polygon points="782.284,310.005 781.878,309.399 787.094,306.203 787.233,306.41 " />
<polygon points="781.878,309.399 781.522,308.763 786.973,305.985 787.094,306.203 " />
<polygon points="781.522,308.763 781.217,308.1 786.869,305.759 786.973,305.985 " />
<polygon points="781.217,308.1 780.964,307.416 786.782,305.526 786.869,305.759 " />
<polygon points="780.964,307.416 780.766,306.714 786.715,305.286 786.782,305.526 " />
<polygon points="780.766,306.714 780.624,305.999 786.666,305.042 786.715,305.286 " />
<polygon points="780.624,305.999 780.538,305.275 786.637,304.795 786.666,305.042 " />
<polygon points="780.538,305.275 780.51,304.546 786.627,304.546 786.637,304.795 " />
<polygon points="780.51,304.546 780.538,303.817 786.637,304.297 786.627,304.546 " />
<polygon points="780.538,303.817 780.624,303.093 786.666,304.05 786.637,304.297 " />
<polygon points="780.624,303.093 780.766,302.378 786.715,303.806 786.666,304.05 " />
<polygon points="780.766,302.378 780.964,301.676 786.782,303.566 786.715,303.806 " />
<polygon points="780.964,301.676 781.217,300.991 786.869,303.332 786.782,303.566 " />
<polygon points="781.217,300.991 781.522,300.329 786.973,303.106 786.869,303.332 " />
<polygon points="781.522,300.329 781.878,299.693 787.094,302.889 786.973,303.106 " />
<polygon points="781.878,299.693 782.284,299.086 787.233,302.682 787.094,302.889 " />
<polygon points="782.284,299.086 782.735,298.514 787.387,302.487 787.233,302.682 " />
<polygon points="782.735,298.514 783.23,297.978 787.556,302.304 787.387,302.487 " />
<polygon points="783.23,297.978 783.766,297.483 787.739,302.135 787.556,302.304 " />
<polygon points="783.766,297.483 784.339,297.031 787.934,301.981 787.739,302.135 " />
<polygon points="784.339,297.031 784.945,296.626 788.141,301.842 787.934,301.981 " />
<polygon points="784.945,296.626 785.581,296.27 788.359,301.721 788.141,301.842 " />
<polygon points="785.581,296.27 786.244,295.965 788.585,301.616 788.359,301.721 " />
<polygon points="786.244,295.965 786.928,295.712 788.818,301.53 788.585,301.616 " />
<polygon points="786.928,295.712 787.63,295.514 789.058,301.463 788.818,301.53 " />
<polygon points="787.63,295.514 788.345,295.372 789.302,301.414 789.058,301.463 " />
<polygon points="788.345,295.372 789.069,295.286 789.549,301.385 789.302,301.414 " />
<polygon points="789.069,295.286 789.798,295.257 789.798,301.375 789.549,301.385 " />
<path d="M789.798,301.375 789.798,295.257 971.485,295.257 971.485,301.375 z" />
<polygon points="971.485,301.375 972.214,301.346 971.734,295.248 971.485,295.257 " />
<polygon points="972.214,301.346 972.938,301.261 971.981,295.218 971.734,295.248 " />
<polygon points="972.938,301.261 973.653,301.118 972.225,295.17 971.981,295.218 " />
<polygon points="973.653,301.118 974.355,300.92 972.465,295.102 972.225,295.17 " />
<polygon points="974.355,300.92 975.039,300.668 972.698,295.016 972.465,295.102 " />
<polygon points="975.039,300.668 975.702,300.363 972.925,294.912 972.698,295.016 " />
<polygon points="975.702,300.363 976.338,300.006 973.142,294.79 972.925,294.912 " />
<polygon points="976.338,300.006 976.945,299.601 973.349,294.652 973.142,294.79 " />
<polygon points="976.945,299.601 977.517,299.15 973.544,294.498 973.349,294.652 " />
<polygon points="977.517,299.15 978.053,298.654 973.727,294.329 973.544,294.498 " />
<polygon points="978.053,298.654 978.548,298.119 973.896,294.146 973.727,294.329 " />
<polygon points="978.548,298.119 978.999,297.546 974.05,293.95 973.896,294.146 " />
<polygon points="978.999,297.546 979.405,296.94 974.189,293.743 974.05,293.95 " />
<polygon points="979.405,296.94 979.761,296.303 974.31,293.526 974.189,293.743 " />
<polygon points="979.761,296.303 980.066,295.641 974.414,293.3 974.31,293.526 " />
<polygon points="980.066,295.641 980.319,294.957 974.501,293.066 974.414,293.3 " />
<polygon points="980.319,294.957 980.517,294.255 974.568,292.827 974.501,293.066 " />
<polygon points="980.517,294.255 980.659,293.54 974.617,292.583 974.568,292.827 " />
<polygon points="980.659,293.54 980.745,292.815 974.646,292.335 974.617,292.583 " />
<polygon points="980.745,292.815 980.773,292.087 974.656,292.087 974.646,292.335 " />
<polygon points="980.773,292.087 980.745,291.358 974.646,291.838 974.656,292.087 " />
<polygon points="980.745,291.358 980.659,290.634 974.617,291.591 974.646,291.838 " />
<polygon points="980.659,290.634 980.517,289.918 974.568,291.346 974.617,291.591 " />
<polygon points="980.517,289.918 980.319,289.216 974.501,291.107 974.568,291.346 " />
<polygon points="980.319,289.216 980.066,288.532 974.414,290.873 974.501,291.107 " />
<polygon points="980.066,288.532 979.761,287.87 974.31,290.647 974.414,290.873 " />
<polygon points="979.761,287.87 979.405,287.233 974.189,290.43 974.31,290.647 " />
<polygon points="979.405,287.233 978.999,286.627 974.05,290.223 974.189,290.43 " />
<polygon points="978.999,286.627 978.548,286.054 973.896,290.027 974.05,290.223 " />
<polygon points="978.548,286.054 978.053,285.519 973.727,289.844 973.896,290.027 " />
<polygon points="978.053,285.519 977.517,285.024 973.544,289.675 973.727,289.844 " />
<polygon points="977.517,285.024 976.945,284.572 973.349,289.521 973.544,289.675 " />
<polygon points="976.945,284.572 976.338,284.167 973.142,289.383 973.349,289.521 " />
<polygon points="976.338,284.167 975.702,283.811 972.925,289.261 973.142,289.383 " />
<polygon points="975.702,283.811 975.039,283.505 972.698,289.157 972.925,289.261 " />
<polygon points="975.039,283.505 974.355,283.253 972.465,289.071 972.698,289.157 " />
<polygon points="974.355,283.253 973.653,283.055 972.225,289.003 972.465,289.071 " />
<polygon points="973.653,283.055 972.938,282.913 971.981,288.955 972.225,289.003 " />
<polygon points="972.938,282.913 972.214,282.827 971.734,288.925 971.981,288.955 " />
<polygon points="972.214,282.827 971.485,282.798 971.485,288.916 971.734,288.925 " />
<path d="M971.485,282.798 971.485,288.916 767.714,288.916 767.714,282.798 z" />
<path d="M767.714,376.131 767.714,370.013 971.485,370.013 971.485,376.131 z" />
<polygon points="971.485,376.131 972.214,376.102 971.734,370.004 971.485,370.013 " />
<polygon points="972.214,376.102 972.938,376.016 971.981,369.974 971.734,370.004 " />
<polygon points="972.938,376.016 973.653,375.874 972.225,369.926 971.981,369.974 " />
<polygon points="973.653,375.874 974.355,375.676 972.465,369.858 972.225,369.926 " />
<polygon points="974.355,375.676 975.039,375.424 972.698,369.772 972.465,369.858 " />
<polygon points="975.039,375.424 975.702,375.118 972.925,369.668 972.698,369.772 " />
<polygon points="975.702,375.118 976.338,374.762 973.142,369.546 972.925,369.668 " />
<polygon points="976.338,374.762 976.945,374.357 973.349,369.408 973.142,369.546 " />
<polygon points="976.945,374.357 977.517,373.905 973.544,369.254 973.349,369.408 " />
<polygon points="977.517,373.905 978.053,373.41 973.727,369.085 973.544,369.254 " />
<polygon points="978.053,373.41 978.548,372.875 973.896,368.902 973.727,369.085 " />
<polygon points="978.548,372.875 978.999,372.302 974.05,368.706 973.896,368.902 " />
<polygon points="978.999,372.302 979.405,371.696 974.189,368.499 974.05,368.706 " />
<polygon points="979.405,371.696 979.761,371.059 974.31,368.282 974.189,368.499 " />
<polygon points="979.761,371.059 980.066,370.397 974.414,368.056 974.31,368.282 " />
<polygon points="980.066,370.397 980.319,369.713 974.501,367.822 974.414,368.056 " />
<polygon points="980.319,369.713 980.517,369.011 974.568,367.583 974.501,367.822 " />
<polygon points="980.517,369.011 980.659,368.295 974.617,367.338 974.568,367.583 " />
<polygon points="980.659,368.295 980.745,367.571 974.646,367.091 974.617,367.338 " />
<polygon points="980.745,367.571 980.773,366.842 974.656,366.842 974.646,367.091 " />
<polygon points="980.773,366.842 980.745,366.114 974.646,366.594 974.656,366.842 " />
<polygon points="980.745,366.114 980.659,365.389 974.617,366.346 974.646,366.594 " />
<polygon points="980.659,365.389 980.517,364.674 974.568,366.102 974.617,366.346 " />
<polygon points="980.517,364.674 980.319,363.972 974.501,365.863 974.568,366.102 " />
<polygon points="980.319,363.972 980.066,363.288 974.414,365.629 974.501,365.863 " />
<polygon points="980.066,363.288 979.761,362.626 974.31,365.403 974.414,365.629 " />
<polygon points="979.761,362.626 979.405,361.989 974.189,365.186 974.31,365.403 " />
<polygon points="979.405,361.989 978.999,361.383 974.05,364.979 974.189,365.186 " />
<polygon points="978.999,361.383 978.548,360.81 973.896,364.783 974.05,364.979 " />
<polygon points="978.548,360.81 978.053,360.275 973.727,364.6 973.896,364.783 " />
<polygon points="978.053,360.275 977.517,359.779 973.544,364.431 973.727,364.6 " />
<polygon points="977.517,359.779 976.945,359.328 973.349,364.277 973.544,364.431 " />
<polygon points="976.945,359.328 976.338,358.923 973.142,364.139 973.349,364.277 " />
<polygon points="976.338,358.923 975.702,358.566 972.925,364.017 973.142,364.139 " />
<polygon points="975.702,358.566 975.039,358.261 972.698,363.913 972.925,364.017 " />
<polygon points="975.039,358.261 974.355,358.009 972.465,363.827 972.698,363.913 " />
<polygon points="974.355,358.009 973.653,357.811 972.225,363.759 972.465,363.827 " />
<polygon points="973.653,357.811 972.938,357.668 971.981,363.711 972.225,363.759 " />
<polygon points="972.938,357.668 972.214,357.583 971.734,363.681 971.981,363.711 " />
<polygon points="972.214,357.583 971.485,357.554 971.485,363.672 971.734,363.681 " />
<path d="M971.485,357.554 971.485,363.672 789.798,363.672 789.798,357.554 z" />
<polygon points="789.798,363.672 789.069,363.643 789.549,357.544 789.798,357.554 " />
<polygon points="789.069,363.643 788.345,363.557 789.302,357.515 789.549,357.544 " />
<polygon points="788.345,363.557 787.63,363.415 789.058,357.466 789.302,357.515 " />
<polygon points="787.63,363.415 786.928,363.217 788.818,357.399 789.058,357.466 " />
<polygon points="786.928,363.217 786.244,362.964 788.585,357.313 788.818,357.399 " />
<polygon points="786.244,362.964 785.581,362.659 788.359,357.208 788.585,357.313 " />
<polygon points="785.581,362.659 784.945,362.303 788.141,357.087 788.359,357.208 " />
<polygon points="784.945,362.303 784.339,361.898 787.934,356.948 788.141,357.087 " />
<polygon points="784.339,361.898 783.766,361.446 787.739,356.794 787.934,356.948 " />
<polygon points="783.766,361.446 783.23,360.951 787.556,356.625 787.739,356.794 " />
<polygon points="783.23,360.951 782.735,360.415 787.387,356.442 787.556,356.625 " />
<polygon points="782.735,360.415 782.284,359.843 787.233,356.247 787.387,356.442 " />
<polygon points="782.284,359.843 781.878,359.236 787.094,356.04 787.233,356.247 " />
<polygon points="781.878,359.236 781.522,358.6 786.973,355.823 787.094,356.04 " />
<polygon points="781.522,358.6 781.217,357.938 786.869,355.597 786.973,355.823 " />
<polygon points="781.217,357.938 780.964,357.253 786.782,355.363 786.869,355.597 " />
<polygon points="780.964,357.253 780.766,356.551 786.715,355.123 786.782,355.363 " />
<polygon points="780.766,356.551 780.624,355.836 786.666,354.879 786.715,355.123 " />
<polygon points="780.624,355.836 780.538,355.112 786.637,354.632 786.666,354.879 " />
<polygon points="780.538,355.112 780.51,354.383 786.627,354.383 786.637,354.632 " />
<polygon points="780.51,354.383 780.538,353.654 786.637,354.134 786.627,354.383 " />
<polygon points="780.538,353.654 780.624,352.93 786.666,353.887 786.637,354.134 " />
<polygon points="780.624,352.93 780.766,352.215 786.715,353.643 786.666,353.887 " />
<polygon points="780.766,352.215 780.964,351.513 786.782,353.403 786.715,353.643 " />
<polygon points="780.964,351.513 781.217,350.829 786.869,353.17 786.782,353.403 " />
<polygon points="781.217,350.829 781.522,350.166 786.973,352.944 786.869,353.17 " />
<polygon points="781.522,350.166 781.878,349.53 787.094,352.726 786.973,352.944 " />
<polygon points="781.878,349.53 782.284,348.924 787.233,352.519 787.094,352.726 " />
<polygon points="782.284,348.924 782.735,348.351 787.387,352.324 787.233,352.519 " />
<polygon points="782.735,348.351 783.23,347.815 787.556,352.141 787.387,352.324 " />
<polygon points="783.23,347.815 783.766,347.32 787.739,351.972 787.556,352.141 " />
<polygon points="783.766,347.32 784.339,346.869 787.934,351.818 787.739,351.972 " />
<polygon points="784.339,346.869 784.945,346.463 788.141,351.679 787.934,351.818 " />
<polygon points="784.945,346.463 785.581,346.107 788.359,351.558 788.141,351.679 " />
<polygon points="785.581,346.107 786.244,345.802 788.585,351.454 788.359,351.558 " />
<polygon points="786.244,345.802 786.928,345.549 788.818,351.367 788.585,351.454 " />
<polygon points="786.928,345.549 787.63,345.351 789.058,351.3 788.818,351.367 " />
<polygon points="787.63,345.351 788.345,345.209 789.302,351.251 789.058,351.3 " />
<polygon points="788.345,345.209 789.069,345.123 789.549,351.222 789.302,351.251 " />
<polygon points="789.069,345.123 789.798,345.095 789.798,351.212 789.549,351.222 " />
<path d="M789.798,351.212 789.798,345.095 971.485,345.095 971.485,351.212 z" />
<polygon points="971.485,351.212 972.214,351.184 971.734,345.085 971.485,345.095 " />
<polygon points="972.214,351.184 972.938,351.098 971.981,345.056 971.734,345.085 " />
<polygon points="972.938,351.098 973.653,350.956 972.225,345.007 971.981,345.056 " />
<polygon points="973.653,350.956 974.355,350.758 972.465,344.94 972.225,345.007 " />
<polygon points="974.355,350.758 975.039,350.505 972.698,344.853 972.465,344.94 " />
<polygon points="975.039,350.505 975.702,350.2 972.925,344.749 972.698,344.853 " />
<polygon points="975.702,350.2 976.338,349.843 973.142,344.627 972.925,344.749 " />
<polygon points="976.338,349.843 976.945,349.438 973.349,344.489 973.142,344.627 " />
<polygon points="976.945,349.438 977.517,348.987 973.544,344.335 973.349,344.489 " />
<polygon points="977.517,348.987 978.053,348.492 973.727,344.166 973.544,344.335 " />
<polygon points="978.053,348.492 978.548,347.956 973.896,343.983 973.727,344.166 " />
<polygon points="978.548,347.956 978.999,347.383 974.05,343.788 973.896,343.983 " />
<polygon points="978.999,347.383 979.405,346.777 974.189,343.581 974.05,343.788 " />
<polygon points="979.405,346.777 979.761,346.141 974.31,343.363 974.189,343.581 " />
<polygon points="979.761,346.141 980.066,345.478 974.414,343.137 974.31,343.363 " />
<polygon points="980.066,345.478 980.319,344.794 974.501,342.904 974.414,343.137 " />
<polygon points="980.319,344.794 980.517,344.092 974.568,342.664 974.501,342.904 " />
<polygon points="980.517,344.092 980.659,343.377 974.617,342.42 974.568,342.664 " />
<polygon points="980.659,343.377 980.745,342.653 974.646,342.173 974.617,342.42 " />
<polygon points="980.745,342.653 980.773,341.924 974.656,341.924 974.646,342.173 " />
<polygon points="980.773,341.924 980.745,341.195 974.646,341.675 974.656,341.924 " />
<polygon points="980.745,341.195 980.659,340.471 974.617,341.428 974.646,341.675 " />
<polygon points="980.659,340.471 980.517,339.755 974.568,341.184 974.617,341.428 " />
<polygon points="980.517,339.755 980.319,339.054 974.501,340.944 974.568,341.184 " />
<polygon points="980.319,339.054 980.066,338.369 974.414,340.71 974.501,340.944 " />
<polygon points="980.066,338.369 979.761,337.707 974.31,340.484 974.414,340.71 " />
<polygon points="979.761,337.707 979.405,337.071 974.189,340.267 974.31,340.484 " />
<polygon points="979.405,337.071 978.999,336.464 974.05,340.06 974.189,340.267 " />
<polygon points="978.999,336.464 978.548,335.891 973.896,339.864 974.05,340.06 " />
<polygon points="978.548,335.891 978.053,335.356 973.727,339.682 973.896,339.864 " />
<polygon points="978.053,335.356 977.517,334.861 973.544,339.513 973.727,339.682 " />
<polygon points="977.517,334.861 976.945,334.409 973.349,339.358 973.544,339.513 " />
<polygon points="976.945,334.409 976.338,334.004 973.142,339.22 973.349,339.358 " />
<polygon points="976.338,334.004 975.702,333.648 972.925,339.099 973.142,339.22 " />
<polygon points="975.702,333.648 975.039,333.342 972.698,338.994 972.925,339.099 " />
<polygon points="975.039,333.342 974.355,333.09 972.465,338.908 972.698,338.994 " />
<polygon points="974.355,333.09 973.653,332.892 972.225,338.841 972.465,338.908 " />
<polygon points="973.653,332.892 972.938,332.75 971.981,338.792 972.225,338.841 " />
<polygon points="972.938,332.75 972.214,332.664 971.734,338.763 971.981,338.792 " />
<polygon points="972.214,332.664 971.485,332.635 971.485,338.753 971.734,338.763 " />
<path d="M971.485,332.635 971.485,338.753 767.714,338.753 767.714,332.635 z" />
<polygon points="279.248,285.857 279.286,286.335 282.307,285.857 282.307,285.857 " />
<polygon points="279.286,286.335 279.398,286.802 282.307,285.857 282.307,285.857 " />
<polygon points="279.398,286.802 279.581,287.246 282.307,285.857 282.307,285.857 " />
<polygon points="279.581,287.246 279.832,287.655 282.307,285.857 282.307,285.857 " />
<polygon points="279.832,287.655 280.144,288.02 282.307,285.857 282.307,285.857 " />
<polygon points="280.144,288.02 280.509,288.332 282.307,285.857 282.307,285.857 " />
<polygon points="280.509,288.332 280.918,288.582 282.307,285.857 282.307,285.857 " />
<polygon points="280.918,288.582 281.361,288.766 282.307,285.857 282.307,285.857 " />
<polygon points="281.361,288.766 281.828,288.878 282.307,285.857 282.307,285.857 " />
<polygon points="281.828,288.878 282.307,288.916 282.307,285.857 282.307,285.857 " />
<polygon points="282.307,288.916 282.785,288.878 282.307,285.857 282.307,285.857 " />
<polygon points="282.785,288.878 283.252,288.766 282.307,285.857 282.307,285.857 " />
<polygon points="283.252,288.766 283.695,288.582 282.307,285.857 282.307,285.857 " />
<polygon points="283.695,288.582 284.105,288.332 282.307,285.857 282.307,285.857 " />
<polygon points="284.105,288.332 284.47,288.02 282.307,285.857 282.307,285.857 " />
<polygon points="284.47,288.02 284.781,287.655 282.307,285.857 282.307,285.857 " />
<polygon points="284.781,287.655 285.032,287.246 282.307,285.857 282.307,285.857 " />
<polygon points="285.032,287.246 285.216,286.802 282.307,285.857 282.307,285.857 " />
<polygon points="285.216,286.802 285.328,286.335 282.307,285.857 282.307,285.857 " />
<polygon points="285.328,286.335 285.365,285.857 282.307,285.857 282.307,285.857 " />
<polygon points="285.365,285.857 285.328,285.378 282.307,285.857 282.307,285.857 " />
<polygon points="285.328,285.378 285.216,284.912 282.307,285.857 282.307,285.857 " />
<polygon points="285.216,284.912 285.032,284.468 282.307,285.857 282.307,285.857 " />
<polygon points="285.032,284.468 284.781,284.059 282.307,285.857 282.307,285.857 " />
<polygon points="284.781,284.059 284.47,283.694 282.307,285.857 282.307,285.857 " />
<polygon points="284.47,283.694 284.105,283.382 282.307,285.857 282.307,285.857 " />
<polygon points="284.105,283.382 283.695,283.132 282.307,285.857 282.307,285.857 " />
<polygon points="283.695,283.132 283.252,282.948 282.307,285.857 282.307,285.857 " />
<polygon points="283.252,282.948 282.785,282.836 282.307,285.857 282.307,285.857 " />
<polygon points="282.785,282.836 282.307,282.798 282.307,285.857 282.307,285.857 " />
<polygon points="282.307,282.798 281.828,282.836 282.307,285.857 282.307,285.857 " />
<polygon points="281.828,282.836 281.361,282.948 282.307,285.857 282.307,285.857 " />
<polygon points="281.361,282.948 280.918,283.132 282.307,285.857 282.307,285.857 " />
<polygon points="280.918,283.132 280.509,283.382 282.307,285.857 282.307,285.857 " />
<polygon points="280.509,283.382 280.144,283.694 282.307,285.857 282.307,285.857 " />
<polygon points="280.144,283.694 279.832,284.059 282.307,285.857 282.307,285.857 " />
<polygon points="279.832,284.059 279.581,284.468 282.307,285.857 282.307,285.857 " />
<polygon points="279.581,284.468 279.398,284.912 282.307,285.857 282.307,285.857 " />
<polygon points="279.398,284.912 279.286,285.378 282.307,285.857 282.307,285.857 " />
<polygon points="279.286,285.378 279.248,285.857 282.307,285.857 282.307,285.857 " />
<polygon points="304.738,285.857 304.775,286.335 307.796,285.857 307.796,285.857 " />
<polygon points="304.775,286.335 304.887,286.802 307.796,285.857 307.796,285.857 " />
<polygon points="304.887,286.802 305.071,287.246 307.796,285.857 307.796,285.857 " />
<polygon points="305.071,287.246 305.322,287.655 307.796,285.857 307.796,285.857 " />
<polygon points="305.322,287.655 305.633,288.02 307.796,285.857 307.796,285.857 " />
<polygon points="305.633,288.02 305.998,288.332 307.796,285.857 307.796,285.857 " />
<polygon points="305.998,288.332 306.408,288.582 307.796,285.857 307.796,285.857 " />
<polygon points="306.408,288.582 306.851,288.766 307.796,285.857 307.796,285.857 " />
<polygon points="306.851,288.766 307.318,288.878 307.796,285.857 307.796,285.857 " />
<polygon points="307.318,288.878 307.796,288.916 307.796,285.857 307.796,285.857 " />
<polygon points="307.796,288.916 308.275,288.878 307.796,285.857 307.796,285.857 " />
<polygon points="308.275,288.878 308.741,288.766 307.796,285.857 307.796,285.857 " />
<polygon points="308.741,288.766 309.185,288.582 307.796,285.857 307.796,285.857 " />
<polygon points="309.185,288.582 309.594,288.332 307.796,285.857 307.796,285.857 " />
<polygon points="309.594,288.332 309.959,288.02 307.796,285.857 307.796,285.857 " />
<polygon points="309.959,288.02 310.271,287.655 307.796,285.857 307.796,285.857 " />
<polygon points="310.271,287.655 310.522,287.246 307.796,285.857 307.796,285.857 " />
<polygon points="310.522,287.246 310.705,286.802 307.796,285.857 307.796,285.857 " />
<polygon points="310.705,286.802 310.817,286.335 307.796,285.857 307.796,285.857 " />
<polygon points="310.817,286.335 310.855,285.857 307.796,285.857 307.796,285.857 " />
<polygon points="310.855,285.857 310.817,285.378 307.796,285.857 307.796,285.857 " />
<polygon points="310.817,285.378 310.705,284.912 307.796,285.857 307.796,285.857 " />
<polygon points="310.705,284.912 310.522,284.468 307.796,285.857 307.796,285.857 " />
<polygon points="310.522,284.468 310.271,284.059 307.796,285.857 307.796,285.857 " />
<polygon points="310.271,284.059 309.959,283.694 307.796,285.857 307.796,285.857 " />
<polygon points="309.959,283.694 309.594,283.382 307.796,285.857 307.796,285.857 " />
<polygon points="309.594,283.382 309.185,283.132 307.796,285.857 307.796,285.857 " />
<polygon points="309.185,283.132 308.741,282.948 307.796,285.857 307.796,285.857 " />
<polygon points="308.741,282.948 308.275,282.836 307.796,285.857 307.796,285.857 " />
<polygon points="308.275,282.836 307.796,282.798 307.796,285.857 307.796,285.857 " />
<polygon points="307.796,282.798 307.318,282.836 307.796,285.857 307.796,285.857 " />
<polygon points="307.318,282.836 306.851,282.948 307.796,285.857 307.796,285.857 " />
<polygon points="306.851,282.948 306.408,283.132 307.796,285.857 307.796,285.857 " />
<polygon points="306.408,283.132 305.998,283.382 307.796,285.857 307.796,285.857 " />
<polygon points="305.998,283.382 305.633,283.694 307.796,285.857 307.796,285.857 " />
<polygon points="305.633,283.694 305.322,284.059 307.796,285.857 307.796,285.857 " />
<polygon points="305.322,284.059 305.071,284.468 307.796,285.857 307.796,285.857 " />
<polygon points="305.071,284.468 304.887,284.912 307.796,285.857 307.796,285.857 " />
<polygon points="304.887,284.912 304.775,285.378 307.796,285.857 307.796,285.857 " />
<polygon points="304.775,285.378 304.738,285.857 307.796,285.857 307.796,285.857 " />
<polygon points="304.738,298.316 304.775,298.795 307.796,298.316 307.796,298.316 " />
<polygon points="304.775,298.795 304.887,299.261 307.796,298.316 307.796,298.316 " />
<polygon points="304.887,299.261 305.071,299.705 307.796,298.316 307.796,298.316 " />
<polygon points="305.071,299.705 305.322,300.114 307.796,298.316 307.796,298.316 " />
<polygon points="305.322,300.114 305.633,300.479 307.796,298.316 307.796,298.316 " />
<polygon points="305.633,300.479 305.998,300.791 307.796,298.316 307.796,298.316 " />
<polygon points="305.998,300.791 306.408,301.042 307.796,298.316 307.796,298.316 " />
<polygon points="306.408,301.042 306.851,301.225 307.796,298.316 307.796,298.316 " />
<polygon points="306.851,301.225 307.318,301.337 307.796,298.316 307.796,298.316 " />
<polygon points="307.318,301.337 307.796,301.375 307.796,298.316 307.796,298.316 " />
<polygon points="307.796,301.375 308.275,301.337 307.796,298.316 307.796,298.316 " />
<polygon points="308.275,301.337 308.741,301.225 307.796,298.316 307.796,298.316 " />
<polygon points="308.741,301.225 309.185,301.042 307.796,298.316 307.796,298.316 " />
<polygon points="309.185,301.042 309.594,300.791 307.796,298.316 307.796,298.316 " />
<polygon points="309.594,300.791 309.959,300.479 307.796,298.316 307.796,298.316 " />
<polygon points="309.959,300.479 310.271,300.114 307.796,298.316 307.796,298.316 " />
<polygon points="310.271,300.114 310.522,299.705 307.796,298.316 307.796,298.316 " />
<polygon points="310.522,299.705 310.705,299.261 307.796,298.316 307.796,298.316 " />
<polygon points="310.705,299.261 310.817,298.795 307.796,298.316 307.796,298.316 " />
<polygon points="310.817,298.795 310.855,298.316 307.796,298.316 307.796,298.316 " />
<polygon points="310.855,298.316 310.817,297.838 307.796,298.316 307.796,298.316 " />
<polygon points="310.817,297.838 310.705,297.371 307.796,298.316 307.796,298.316 " />
<polygon points="310.705,297.371 310.522,296.928 307.796,298.316 307.796,298.316 " />
<polygon points="310.522,296.928 310.271,296.518 307.796,298.316 307.796,298.316 " />
<polygon points="310.271,296.518 309.959,296.153 307.796,298.316 307.796,298.316 " />
<polygon points="309.959,296.153 309.594,295.842 307.796,298.316 307.796,298.316 " />
<polygon points="309.594,295.842 309.185,295.591 307.796,298.316 307.796,298.316 " />
<polygon points="309.185,295.591 308.741,295.407 307.796,298.316 307.796,298.316 " />
<polygon points="308.741,295.407 308.275,295.295 307.796,298.316 307.796,298.316 " />
<polygon points="308.275,295.295 307.796,295.257 307.796,298.316 307.796,298.316 " />
<polygon points="307.796,295.257 307.318,295.295 307.796,298.316 307.796,298.316 " />
<polygon points="307.318,295.295 306.851,295.407 307.796,298.316 307.796,298.316 " />
<polygon points="306.851,295.407 306.408,295.591 307.796,298.316 307.796,298.316 " />
<polygon points="306.408,295.591 305.998,295.842 307.796,298.316 307.796,298.316 " />
<polygon points="305.998,295.842 305.633,296.153 307.796,298.316 307.796,298.316 " />
<polygon points="305.633,296.153 305.322,296.518 307.796,298.316 307.796,298.316 " />
<polygon points="305.322,296.518 305.071,296.928 307.796,298.316 307.796,298.316 " />
<polygon points="305.071,296.928 304.887,297.371 307.796,298.316 307.796,298.316 " />
<polygon points="304.887,297.371 304.775,297.838 307.796,298.316 307.796,298.316 " />
<polygon points="304.775,297.838 304.738,298.316 307.796,298.316 307.796,298.316 " />
<polygon points="279.248,298.316 279.286,298.795 282.307,298.316 282.307,298.316 " />
<polygon points="279.286,298.795 279.398,299.261 282.307,298.316 282.307,298.316 " />
<polygon points="279.398,299.261 279.581,299.705 282.307,298.316 282.307,298.316 " />
<polygon points="279.581,299.705 279.832,300.114 282.307,298.316 282.307,298.316 " />
<polygon points="279.832,300.114 280.144,300.479 282.307,298.316 282.307,298.316 " />
<polygon points="280.144,300.479 280.509,300.791 282.307,298.316 282.307,298.316 " />
<polygon points="280.509,300.791 280.918,301.042 282.307,298.316 282.307,298.316 " />
<polygon points="280.918,301.042 281.361,301.225 282.307,298.316 282.307,298.316 " />
<polygon points="281.361,301.225 281.828,301.337 282.307,298.316 282.307,298.316 " />
<polygon points="281.828,301.337 282.307,301.375 282.307,298.316 282.307,298.316 " />
<polygon points="282.307,301.375 282.785,301.337 282.307,298.316 282.307,298.316 " />
<polygon points="282.785,301.337 283.252,301.225 282.307,298.316 282.307,298.316 " />
<polygon points="283.252,301.225 283.695,301.042 282.307,298.316 282.307,298.316 " />
<polygon points="283.695,301.042 284.105,300.791 282.307,298.316 282.307,298.316 " />
<polygon points="284.105,300.791 284.47,300.479 282.307,298.316 282.307,298.316 " />
<polygon points="284.47,300.479 284.781,300.114 282.307,298.316 282.307,298.316 " />
<polygon points="284.781,300.114 285.032,299.705 282.307,298.316 282.307,298.316 " />
<polygon points="285.032,299.705 285.216,299.261 282.307,298.316 282.307,298.316 " />
<polygon points="285.216,299.261 285.328,298.795 282.307,298.316 282.307,298.316 " />
<polygon points="285.328,298.795 285.365,298.316 282.307,298.316 282.307,298.316 " />
<polygon points="285.365,298.316 285.328,297.838 282.307,298.316 282.307,298.316 " />
<polygon points="285.328,297.838 285.216,297.371 282.307,298.316 282.307,298.316 " />
<polygon points="285.216,297.371 285.032,296.928 282.307,298.316 282.307,298.316 " />
<polygon points="285.032,296.928 284.781,296.518 282.307,298.316 282.307,298.316 " />
<polygon points="284.781,296.518 284.47,296.153 282.307,298.316 282.307,298.316 " />
<polygon points="284.47,296.153 284.105,295.842 282.307,298.316 282.307,298.316 " />
<polygon points="284.105,295.842 283.695,295.591 282.307,298.316 282.307,298.316 " />
<polygon points="283.695,295.591 283.252,295.407 282.307,298.316 282.307,298.316 " />
<polygon points="283.252,295.407 282.785,295.295 282.307,298.316 282.307,298.316 " />
<polygon points="282.785,295.295 282.307,295.257 282.307,298.316 282.307,298.316 " />
<polygon points="282.307,295.257 281.828,295.295 282.307,298.316 282.307,298.316 " />
<polygon points="281.828,295.295 281.361,295.407 282.307,298.316 282.307,298.316 " />
<polygon points="281.361,295.407 280.918,295.591 282.307,298.316 282.307,298.316 " />
<polygon points="280.918,295.591 280.509,295.842 282.307,298.316 282.307,298.316 " />
<polygon points="280.509,295.842 280.144,296.153 282.307,298.316 282.307,298.316 " />
<polygon points="280.144,296.153 279.832,296.518 282.307,298.316 282.307,298.316 " />
<polygon points="279.832,296.518 279.581,296.928 282.307,298.316 282.307,298.316 " />
<polygon points="279.581,296.928 279.398,297.371 282.307,298.316 282.307,298.316 " />
<polygon points="279.398,297.371 279.286,297.838 282.307,298.316 282.307,298.316 " />
<polygon points="279.286,297.838 279.248,298.316 282.307,298.316 282.307,298.316 " />
<polygon points="279.248,310.776 279.286,311.254 282.307,310.776 282.307,310.776 " />
<polygon points="279.286,311.254 279.398,311.721 282.307,310.776 282.307,310.776 " />
<polygon points="279.398,311.721 279.581,312.164 282.307,310.776 282.307,310.776 " />
<polygon points="279.581,312.164 279.832,312.573 282.307,310.776 282.307,310.776 " />
<polygon points="279.832,312.573 280.144,312.938 282.307,310.776 282.307,310.776 " />
<polygon points="280.144,312.938 280.509,313.25 282.307,310.776 282.307,310.776 " />
<polygon points="280.509,313.25 280.918,313.501 282.307,310.776 282.307,310.776 " />
<polygon points="280.918,313.501 281.361,313.685 282.307,310.776 282.307,310.776 " />
<polygon points="281.361,313.685 281.828,313.797 282.307,310.776 282.307,310.776 " />
<polygon points="281.828,313.797 282.307,313.834 282.307,310.776 282.307,310.776 " />
<polygon points="282.307,313.834 282.785,313.797 282.307,310.776 282.307,310.776 " />
<polygon points="282.785,313.797 283.252,313.685 282.307,310.776 282.307,310.776 " />
<polygon points="283.252,313.685 283.695,313.501 282.307,310.776 282.307,310.776 " />
<polygon points="283.695,313.501 284.105,313.25 282.307,310.776 282.307,310.776 " />
<polygon points="284.105,313.25 284.47,312.938 282.307,310.776 282.307,310.776 " />
<polygon points="284.47,312.938 284.781,312.573 282.307,310.776 282.307,310.776 " />
<polygon points="284.781,312.573 285.032,312.164 282.307,310.776 282.307,310.776 " />
<polygon points="285.032,312.164 285.216,311.721 282.307,310.776 282.307,310.776 " />
<polygon points="285.216,311.721 285.328,311.254 282.307,310.776 282.307,310.776 " />
<polygon points="285.328,311.254 285.365,310.776 282.307,310.776 282.307,310.776 " />
<polygon points="285.365,310.776 285.328,310.297 282.307,310.776 282.307,310.776 " />
<polygon points="285.328,310.297 285.216,309.83 282.307,310.776 282.307,310.776 " />
<polygon points="285.216,309.83 285.032,309.387 282.307,310.776 282.307,310.776 " />
<polygon points="285.032,309.387 284.781,308.978 282.307,310.776 282.307,310.776 " />
<polygon points="284.781,308.978 284.47,308.613 282.307,310.776 282.307,310.776 " />
<polygon points="284.47,308.613 284.105,308.301 282.307,310.776 282.307,310.776 " />
<polygon points="284.105,308.301 283.695,308.05 282.307,310.776 282.307,310.776 " />
<polygon points="283.695,308.05 283.252,307.867 282.307,310.776 282.307,310.776 " />
<polygon points="283.252,307.867 282.785,307.754 282.307,310.776 282.307,310.776 " />
<polygon points="282.785,307.754 282.307,307.717 282.307,310.776 282.307,310.776 " />
<polygon points="282.307,307.717 281.828,307.754 282.307,310.776 282.307,310.776 " />
<polygon points="281.828,307.754 281.361,307.867 282.307,310.776 282.307,310.776 " />
<polygon points="281.361,307.867 280.918,308.05 282.307,310.776 282.307,310.776 " />
<polygon points="280.918,308.05 280.509,308.301 282.307,310.776 282.307,310.776 " />
<polygon points="280.509,308.301 280.144,308.613 282.307,310.776 282.307,310.776 " />
<polygon points="280.144,308.613 279.832,308.978 282.307,310.776 282.307,310.776 " />
<polygon points="279.832,308.978 279.581,309.387 282.307,310.776 282.307,310.776 " />
<polygon points="279.581,309.387 279.398,309.83 282.307,310.776 282.307,310.776 " />
<polygon points="279.398,309.83 279.286,310.297 282.307,310.776 282.307,310.776 " />
<polygon points="279.286,310.297 279.248,310.776 282.307,310.776 282.307,310.776 " />
<polygon points="304.738,310.776 304.775,311.254 307.796,310.776 307.796,310.776 " />
<polygon points="304.775,311.254 304.887,311.721 307.796,310.776 307.796,310.776 " />
<polygon points="304.887,311.721 305.071,312.164 307.796,310.776 307.796,310.776 " />
<polygon points="305.071,312.164 305.322,312.573 307.796,310.776 307.796,310.776 " />
<polygon points="305.322,312.573 305.633,312.938 307.796,310.776 307.796,310.776 " />
<polygon points="305.633,312.938 305.998,313.25 307.796,310.776 307.796,310.776 " />
<polygon points="305.998,313.25 306.408,313.501 307.796,310.776 307.796,310.776 " />
<polygon points="306.408,313.501 306.851,313.685 307.796,310.776 307.796,310.776 " />
<polygon points="306.851,313.685 307.318,313.797 307.796,310.776 307.796,310.776 " />
<polygon points="307.318,313.797 307.796,313.834 307.796,310.776 307.796,310.776 " />
<polygon points="307.796,313.834 308.275,313.797 307.796,310.776 307.796,310.776 " />
<polygon points="308.275,313.797 308.741,313.685 307.796,310.776 307.796,310.776 " />
<polygon points="308.741,313.685 309.185,313.501 307.796,310.776 307.796,310.776 " />
<polygon points="309.185,313.501 309.594,313.25 307.796,310.776 307.796,310.776 " />
<polygon points="309.594,313.25 309.959,312.938 307.796,310.776 307.796,310.776 " />
<polygon points="309.959,312.938 310.271,312.573 307.796,310.776 307.796,310.776 " />
<polygon points="310.271,312.573 310.522,312.164 307.796,310.776 307.796,310.776 " />
<polygon points="310.522,312.164 310.705,311.721 307.796,310.776 307.796,310.776 " />
<polygon points="310.705,311.721 310.817,311.254 307.796,310.776 307.796,310.776 " />
<polygon points="310.817,311.254 310.855,310.776 307.796,310.776 307.796,310.776 " />
<polygon points="310.855,310.776 310.817,310.297 307.796,310.776 307.796,310.776 " />
<polygon points="310.817,310.297 310.705,309.83 307.796,310.776 307.796,310.776 " />
<polygon points="310.705,309.83 310.522,309.387 307.796,310.776 307.796,310.776 " />
<polygon points="310.522,309.387 310.271,308.978 307.796,310.776 307.796,310.776 " />
<polygon points="310.271,308.978 309.959,308.613 307.796,310.776 307.796,310.776 " />
<polygon points="309.959,308.613 309.594,308.301 307.796,310.776 307.796,310.776 " />
<polygon points="309.594,308.301 309.185,308.05 307.796,310.776 307.796,310.776 " />
<polygon points="309.185,308.05 308.741,307.867 307.796,310.776 307.796,310.776 " />
<polygon points="308.741,307.867 308.275,307.754 307.796,310.776 307.796,310.776 " />
<polygon points="308.275,307.754 307.796,307.717 307.796,310.776 307.796,310.776 " />
<polygon points="307.796,307.717 307.318,307.754 307.796,310.776 307.796,310.776 " />
<polygon points="307.318,307.754 306.851,307.867 307.796,310.776 307.796,310.776 " />
<polygon points="306.851,307.867 306.408,308.05 307.796,310.776 307.796,310.776 " />
<polygon points="306.408,308.05 305.998,308.301 307.796,310.776 307.796,310.776 " />
<polygon points="305.998,308.301 305.633,308.613 307.796,310.776 307.796,310.776 " />
<polygon points="305.633,308.613 305.322,308.978 307.796,310.776 307.796,310.776 " />
<polygon points="305.322,308.978 305.071,309.387 307.796,310.776 307.796,310.776 " />
<polygon points="305.071,309.387 304.887,309.83 307.796,310.776 307.796,310.776 " />
<polygon points="304.887,309.83 304.775,310.297 307.796,310.776 307.796,310.776 " />
<polygon points="304.775,310.297 304.738,310.776 307.796,310.776 307.796,310.776 " />
<polygon points="304.738,323.235 304.775,323.713 307.796,323.235 307.796,323.235 " />
<polygon points="304.775,323.713 304.887,324.18 307.796,323.235 307.796,323.235 " />
<polygon points="304.887,324.18 305.071,324.623 307.796,323.235 307.796,323.235 " />
<polygon points="305.071,324.623 305.322,325.033 307.796,323.235 307.796,323.235 " />
<polygon points="305.322,325.033 305.633,325.398 307.796,323.235 307.796,323.235 " />
<polygon points="305.633,325.398 305.998,325.709 307.796,323.235 307.796,323.235 " />
<polygon points="305.998,325.709 306.408,325.96 307.796,323.235 307.796,323.235 " />
<polygon points="306.408,325.96 306.851,326.144 307.796,323.235 307.796,323.235 " />
<polygon points="306.851,326.144 307.318,326.256 307.796,323.235 307.796,323.235 " />
<polygon points="307.318,326.256 307.796,326.294 307.796,323.235 307.796,323.235 " />
<polygon points="307.796,326.294 308.275,326.256 307.796,323.235 307.796,323.235 " />
<polygon points="308.275,326.256 308.741,326.144 307.796,323.235 307.796,323.235 " />
<polygon points="308.741,326.144 309.185,325.96 307.796,323.235 307.796,323.235 " />
<polygon points="309.185,325.96 309.594,325.709 307.796,323.235 307.796,323.235 " />
<polygon points="309.594,325.709 309.959,325.398 307.796,323.235 307.796,323.235 " />
<polygon points="309.959,325.398 310.271,325.033 307.796,323.235 307.796,323.235 " />
<polygon points="310.271,325.033 310.522,324.623 307.796,323.235 307.796,323.235 " />
<polygon points="310.522,324.623 310.705,324.18 307.796,323.235 307.796,323.235 " />
<polygon points="310.705,324.18 310.817,323.713 307.796,323.235 307.796,323.235 " />
<polygon points="310.817,323.713 310.855,323.235 307.796,323.235 307.796,323.235 " />
<polygon points="310.855,323.235 310.817,322.756 307.796,323.235 307.796,323.235 " />
<polygon points="310.817,322.756 310.705,322.29 307.796,323.235 307.796,323.235 " />
<polygon points="310.705,322.29 310.522,321.846 307.796,323.235 307.796,323.235 " />
<polygon points="310.522,321.846 310.271,321.437 307.796,323.235 307.796,323.235 " />
<polygon points="310.271,321.437 309.959,321.072 307.796,323.235 307.796,323.235 " />
<polygon points="309.959,321.072 309.594,320.76 307.796,323.235 307.796,323.235 " />
<polygon points="309.594,320.76 309.185,320.509 307.796,323.235 307.796,323.235 " />
<polygon points="309.185,320.509 308.741,320.326 307.796,323.235 307.796,323.235 " />
<polygon points="308.741,320.326 308.275,320.214 307.796,323.235 307.796,323.235 " />
<polygon points="308.275,320.214 307.796,320.176 307.796,323.235 307.796,323.235 " />
<polygon points="307.796,320.176 307.318,320.214 307.796,323.235 307.796,323.235 " />
<polygon points="307.318,320.214 306.851,320.326 307.796,323.235 307.796,323.235 " />
<polygon points="306.851,320.326 306.408,320.509 307.796,323.235 307.796,323.235 " />
<polygon points="306.408,320.509 305.998,320.76 307.796,323.235 307.796,323.235 " />
<polygon points="305.998,320.76 305.633,321.072 307.796,323.235 307.796,323.235 " />
<polygon points="305.633,321.072 305.322,321.437 307.796,323.235 307.796,323.235 " />
<polygon points="305.322,321.437 305.071,321.846 307.796,323.235 307.796,323.235 " />
<polygon points="305.071,321.846 304.887,322.29 307.796,323.235 307.796,323.235 " />
<polygon points="304.887,322.29 304.775,322.756 307.796,323.235 307.796,323.235 " />
<polygon points="304.775,322.756 304.738,323.235 307.796,323.235 307.796,323.235 " />
<polygon points="279.248,335.694 279.286,336.173 282.307,335.694 282.307,335.694 " />
<polygon points="279.286,336.173 279.398,336.639 282.307,335.694 282.307,335.694 " />
<polygon points="279.398,336.639 279.581,337.083 282.307,335.694 282.307,335.694 " />
<polygon points="279.581,337.083 279.832,337.492 282.307,335.694 282.307,335.694 " />
<polygon points="279.832,337.492 280.144,337.857 282.307,335.694 282.307,335.694 " />
<polygon points="280.144,337.857 280.509,338.169 282.307,335.694 282.307,335.694 " />
<polygon points="280.509,338.169 280.918,338.42 282.307,335.694 282.307,335.694 " />
<polygon points="280.918,338.42 281.361,338.603 282.307,335.694 282.307,335.694 " />
<polygon points="281.361,338.603 281.828,338.715 282.307,335.694 282.307,335.694 " />
<polygon points="281.828,338.715 282.307,338.753 282.307,335.694 282.307,335.694 " />
<polygon points="282.307,338.753 282.785,338.715 282.307,335.694 282.307,335.694 " />
<polygon points="282.785,338.715 283.252,338.603 282.307,335.694 282.307,335.694 " />
<polygon points="283.252,338.603 283.695,338.42 282.307,335.694 282.307,335.694 " />
<polygon points="283.695,338.42 284.105,338.169 282.307,335.694 282.307,335.694 " />
<polygon points="284.105,338.169 284.47,337.857 282.307,335.694 282.307,335.694 " />
<polygon points="284.47,337.857 284.781,337.492 282.307,335.694 282.307,335.694 " />
<polygon points="284.781,337.492 285.032,337.083 282.307,335.694 282.307,335.694 " />
<polygon points="285.032,337.083 285.216,336.639 282.307,335.694 282.307,335.694 " />
<polygon points="285.216,336.639 285.328,336.173 282.307,335.694 282.307,335.694 " />
<polygon points="285.328,336.173 285.365,335.694 282.307,335.694 282.307,335.694 " />
<polygon points="285.365,335.694 285.328,335.216 282.307,335.694 282.307,335.694 " />
<polygon points="285.328,335.216 285.216,334.749 282.307,335.694 282.307,335.694 " />
<polygon points="285.216,334.749 285.032,334.306 282.307,335.694 282.307,335.694 " />
<polygon points="285.032,334.306 284.781,333.896 282.307,335.694 282.307,335.694 " />
<polygon points="284.781,333.896 284.47,333.531 282.307,335.694 282.307,335.694 " />
<polygon points="284.47,333.531 284.105,333.22 282.307,335.694 282.307,335.694 " />
<polygon points="284.105,333.22 283.695,332.969 282.307,335.694 282.307,335.694 " />
<polygon points="283.695,332.969 283.252,332.785 282.307,335.694 282.307,335.694 " />
<polygon points="283.252,332.785 282.785,332.673 282.307,335.694 282.307,335.694 " />
<polygon points="282.785,332.673 282.307,332.635 282.307,335.694 282.307,335.694 " />
<polygon points="282.307,332.635 281.828,332.673 282.307,335.694 282.307,335.694 " />
<polygon points="281.828,332.673 281.361,332.785 282.307,335.694 282.307,335.694 " />
<polygon points="281.361,332.785 280.918,332.969 282.307,335.694 282.307,335.694 " />
<polygon points="280.918,332.969 280.509,333.22 282.307,335.694 282.307,335.694 " />
<polygon points="280.509,333.22 280.144,333.531 282.307,335.694 282.307,335.694 " />
<polygon points="280.144,333.531 279.832,333.896 282.307,335.694 282.307,335.694 " />
<polygon points="279.832,333.896 279.581,334.306 282.307,335.694 282.307,335.694 " />
<polygon points="279.581,334.306 279.398,334.749 282.307,335.694 282.307,335.694 " />
<polygon points="279.398,334.749 279.286,335.216 282.307,335.694 282.307,335.694 " />
<polygon points="279.286,335.216 279.248,335.694 282.307,335.694 282.307,335.694 " />
<polygon points="304.738,348.153 304.775,348.632 307.796,348.153 307.796,348.153 " />
<polygon points="304.775,348.632 304.887,349.099 307.796,348.153 307.796,348.153 " />
<polygon points="304.887,349.099 305.071,349.542 307.796,348.153 307.796,348.153 " />
<polygon points="305.071,349.542 305.322,349.951 307.796,348.153 307.796,348.153 " />
<polygon points="305.322,349.951 305.633,350.316 307.796,348.153 307.796,348.153 " />
<polygon points="305.633,350.316 305.998,350.628 307.796,348.153 307.796,348.153 " />
<polygon points="305.998,350.628 306.408,350.879 307.796,348.153 307.796,348.153 " />
<polygon points="306.408,350.879 306.851,351.063 307.796,348.153 307.796,348.153 " />
<polygon points="306.851,351.063 307.318,351.175 307.796,348.153 307.796,348.153 " />
<polygon points="307.318,351.175 307.796,351.212 307.796,348.153 307.796,348.153 " />
<polygon points="307.796,351.212 308.275,351.175 307.796,348.153 307.796,348.153 " />
<polygon points="308.275,351.175 308.741,351.063 307.796,348.153 307.796,348.153 " />
<polygon points="308.741,351.063 309.185,350.879 307.796,348.153 307.796,348.153 " />
<polygon points="309.185,350.879 309.594,350.628 307.796,348.153 307.796,348.153 " />
<polygon points="309.594,350.628 309.959,350.316 307.796,348.153 307.796,348.153 " />
<polygon points="309.959,350.316 310.271,349.951 307.796,348.153 307.796,348.153 " />
<polygon points="310.271,349.951 310.522,349.542 307.796,348.153 307.796,348.153 " />
<polygon points="310.522,349.542 310.705,349.099 307.796,348.153 307.796,348.153 " />
<polygon points="310.705,349.099 310.817,348.632 307.796,348.153 307.796,348.153 " />
<polygon points="310.817,348.632 310.855,348.153 307.796,348.153 307.796,348.153 " />
<polygon points="310.855,348.153 310.817,347.675 307.796,348.153 307.796,348.153 " />
<polygon points="310.817,347.675 310.705,347.208 307.796,348.153 307.796,348.153 " />
<polygon points="310.705,347.208 310.522,346.765 307.796,348.153 307.796,348.153 " />
<polygon points="310.522,346.765 310.271,346.356 307.796,348.153 307.796,348.153 " />
<polygon points="310.271,346.356 309.959,345.991 307.796,348.153 307.796,348.153 " />
<polygon points="309.959,345.991 309.594,345.679 307.796,348.153 307.796,348.153 " />
<polygon points="309.594,345.679 309.185,345.428 307.796,348.153 307.796,348.153 " />
<polygon points="309.185,345.428 308.741,345.244 307.796,348.153 307.796,348.153 " />
<polygon points="308.741,345.244 308.275,345.132 307.796,348.153 307.796,348.153 " />
<polygon points="308.275,345.132 307.796,345.095 307.796,348.153 307.796,348.153 " />
<polygon points="307.796,345.095 307.318,345.132 307.796,348.153 307.796,348.153 " />
<polygon points="307.318,345.132 306.851,345.244 307.796,348.153 307.796,348.153 " />
<polygon points="306.851,345.244 306.408,345.428 307.796,348.153 307.796,348.153 " />
<polygon points="306.408,345.428 305.998,345.679 307.796,348.153 307.796,348.153 " />
<polygon points="305.998,345.679 305.633,345.991 307.796,348.153 307.796,348.153 " />
<polygon points="305.633,345.991 305.322,346.356 307.796,348.153 307.796,348.153 " />
<polygon points="305.322,346.356 305.071,346.765 307.796,348.153 307.796,348.153 " />
<polygon points="305.071,346.765 304.887,347.208 307.796,348.153 307.796,348.153 " />
<polygon points="304.887,347.208 304.775,347.675 307.796,348.153 307.796,348.153 " />
<polygon points="304.775,347.675 304.738,348.153 307.796,348.153 307.796,348.153 " />
<polygon points="279.248,360.613 279.286,361.091 282.307,360.613 282.307,360.613 " />
<polygon points="279.286,361.091 279.398,361.558 282.307,360.613 282.307,360.613 " />
<polygon points="279.398,361.558 279.581,362.001 282.307,360.613 282.307,360.613 " />
<polygon points="279.581,362.001 279.832,362.411 282.307,360.613 282.307,360.613 " />
<polygon points="279.832,362.411 280.144,362.776 282.307,360.613 282.307,360.613 " />
<polygon points="280.144,362.776 280.509,363.087 282.307,360.613 282.307,360.613 " />
<polygon points="280.509,363.087 280.918,363.338 282.307,360.613 282.307,360.613 " />
<polygon points="280.918,363.338 281.361,363.522 282.307,360.613 282.307,360.613 " />
<polygon points="281.361,363.522 281.828,363.634 282.307,360.613 282.307,360.613 " />
<polygon points="281.828,363.634 282.307,363.672 282.307,360.613 282.307,360.613 " />
<polygon points="282.307,363.672 282.785,363.634 282.307,360.613 282.307,360.613 " />
<polygon points="282.785,363.634 283.252,363.522 282.307,360.613 282.307,360.613 " />
<polygon points="283.252,363.522 283.695,363.338 282.307,360.613 282.307,360.613 " />
<polygon points="283.695,363.338 284.105,363.087 282.307,360.613 282.307,360.613 " />
<polygon points="284.105,363.087 284.47,362.776 282.307,360.613 282.307,360.613 " />
<polygon points="284.47,362.776 284.781,362.411 282.307,360.613 282.307,360.613 " />
<polygon points="284.781,362.411 285.032,362.001 282.307,360.613 282.307,360.613 " />
<polygon points="285.032,362.001 285.216,361.558 282.307,360.613 282.307,360.613 " />
<polygon points="285.216,361.558 285.328,361.091 282.307,360.613 282.307,360.613 " />
<polygon points="285.328,361.091 285.365,360.613 282.307,360.613 282.307,360.613 " />
<polygon points="285.365,360.613 285.328,360.134 282.307,360.613 282.307,360.613 " />
<polygon points="285.328,360.134 285.216,359.668 282.307,360.613 282.307,360.613 " />
<polygon points="285.216,359.668 285.032,359.224 282.307,360.613 282.307,360.613 " />
<polygon points="285.032,359.224 284.781,358.815 282.307,360.613 282.307,360.613 " />
<polygon points="284.781,358.815 284.47,358.45 282.307,360.613 282.307,360.613 " />
<polygon points="284.47,358.45 284.105,358.138 282.307,360.613 282.307,360.613 " />
<polygon points="284.105,358.138 283.695,357.887 282.307,360.613 282.307,360.613 " />
<polygon points="283.695,357.887 283.252,357.704 282.307,360.613 282.307,360.613 " />
<polygon points="283.252,357.704 282.785,357.592 282.307,360.613 282.307,360.613 " />
<polygon points="282.785,357.592 282.307,357.554 282.307,360.613 282.307,360.613 " />
<polygon points="282.307,357.554 281.828,357.592 282.307,360.613 282.307,360.613 " />
<polygon points="281.828,357.592 281.361,357.704 282.307,360.613 282.307,360.613 " />
<polygon points="281.361,357.704 280.918,357.887 282.307,360.613 282.307,360.613 " />
<polygon points="280.918,357.887 280.509,358.138 282.307,360.613 282.307,360.613 " />
<polygon points="280.509,358.138 280.144,358.45 282.307,360.613 282.307,360.613 " />
<polygon points="280.144,358.45 279.832,358.815 282.307,360.613 282.307,360.613 " />
<polygon points="279.832,358.815 279.581,359.224 282.307,360.613 282.307,360.613 " />
<polygon points="279.581,359.224 279.398,359.668 282.307,360.613 282.307,360.613 " />
<polygon points="279.398,359.668 279.286,360.134 282.307,360.613 282.307,360.613 " />
<polygon points="279.286,360.134 279.248,360.613 282.307,360.613 282.307,360.613 " />
<polygon points="304.738,373.072 304.775,373.551 307.796,373.072 307.796,373.072 " />
<polygon points="304.775,373.551 304.887,374.017 307.796,373.072 307.796,373.072 " />
<polygon points="304.887,374.017 305.071,374.461 307.796,373.072 307.796,373.072 " />
<polygon points="305.071,374.461 305.322,374.87 307.796,373.072 307.796,373.072 " />
<polygon points="305.322,374.87 305.633,375.235 307.796,373.072 307.796,373.072 " />
<polygon points="305.633,375.235 305.998,375.547 307.796,373.072 307.796,373.072 " />
<polygon points="305.998,375.547 306.408,375.797 307.796,373.072 307.796,373.072 " />
<polygon points="306.408,375.797 306.851,375.981 307.796,373.072 307.796,373.072 " />
<polygon points="306.851,375.981 307.318,376.093 307.796,373.072 307.796,373.072 " />
<polygon points="307.318,376.093 307.796,376.131 307.796,373.072 307.796,373.072 " />
<polygon points="307.796,376.131 308.275,376.093 307.796,373.072 307.796,373.072 " />
<polygon points="308.275,376.093 308.741,375.981 307.796,373.072 307.796,373.072 " />
<polygon points="308.741,375.981 309.185,375.797 307.796,373.072 307.796,373.072 " />
<polygon points="309.185,375.797 309.594,375.547 307.796,373.072 307.796,373.072 " />
<polygon points="309.594,375.547 309.959,375.235 307.796,373.072 307.796,373.072 " />
<polygon points="309.959,375.235 310.271,374.87 307.796,373.072 307.796,373.072 " />
<polygon points="310.271,374.87 310.522,374.461 307.796,373.072 307.796,373.072 " />
<polygon points="310.522,374.461 310.705,374.017 307.796,373.072 307.796,373.072 " />
<polygon points="310.705,374.017 310.817,373.551 307.796,373.072 307.796,373.072 " />
<polygon points="310.817,373.551 310.855,373.072 307.796,373.072 307.796,373.072 " />
<polygon points="310.855,373.072 310.817,372.594 307.796,373.072 307.796,373.072 " />
<polygon points="310.817,372.594 310.705,372.127 307.796,373.072 307.796,373.072 " />
<polygon points="310.705,372.127 310.522,371.683 307.796,373.072 307.796,373.072 " />
<polygon points="310.522,371.683 310.271,371.274 307.796,373.072 307.796,373.072 " />
<polygon points="310.271,371.274 309.959,370.909 307.796,373.072 307.796,373.072 " />
<polygon points="309.959,370.909 309.594,370.597 307.796,373.072 307.796,373.072 " />
<polygon points="309.594,370.597 309.185,370.347 307.796,373.072 307.796,373.072 " />
<polygon points="309.185,370.347 308.741,370.163 307.796,373.072 307.796,373.072 " />
<polygon points="308.741,370.163 308.275,370.051 307.796,373.072 307.796,373.072 " />
<polygon points="308.275,370.051 307.796,370.013 307.796,373.072 307.796,373.072 " />
<polygon points="307.796,370.013 307.318,370.051 307.796,373.072 307.796,373.072 " />
<polygon points="307.318,370.051 306.851,370.163 307.796,373.072 307.796,373.072 " />
<polygon points="306.851,370.163 306.408,370.347 307.796,373.072 307.796,373.072 " />
<polygon points="306.408,370.347 305.998,370.597 307.796,373.072 307.796,373.072 " />
<polygon points="305.998,370.597 305.633,370.909 307.796,373.072 307.796,373.072 " />
<polygon points="305.633,370.909 305.322,371.274 307.796,373.072 307.796,373.072 " />
<polygon points="305.322,371.274 305.071,371.683 307.796,373.072 307.796,373.072 " />
<polygon points="305.071,371.683 304.887,372.127 307.796,373.072 307.796,373.072 " />
<polygon points="304.887,372.127 304.775,372.594 307.796,373.072 307.796,373.072 " />
<polygon points="304.775,372.594 304.738,373.072 307.796,373.072 307.796,373.072 " />
<polygon points="279.248,373.072 279.286,373.551 282.307,373.072 282.307,373.072 " />
<polygon points="279.286,373.551 279.398,374.017 282.307,373.072 282.307,373.072 " />
<polygon points="279.398,374.017 279.581,374.461 282.307,373.072 282.307,373.072 " />
<polygon points="279.581,374.461 279.832,374.87 282.307,373.072 282.307,373.072 " />
<polygon points="279.832,374.87 280.144,375.235 282.307,373.072 282.307,373.072 " />
<polygon points="280.144,375.235 280.509,375.547 282.307,373.072 282.307,373.072 " />
<polygon points="280.509,375.547 280.918,375.797 282.307,373.072 282.307,373.072 " />
<polygon points="280.918,375.797 281.361,375.981 282.307,373.072 282.307,373.072 " />
<polygon points="281.361,375.981 281.828,376.093 282.307,373.072 282.307,373.072 " />
<polygon points="281.828,376.093 282.307,376.131 282.307,373.072 282.307,373.072 " />
<polygon points="282.307,376.131 282.785,376.093 282.307,373.072 282.307,373.072 " />
<polygon points="282.785,376.093 283.252,375.981 282.307,373.072 282.307,373.072 " />
<polygon points="283.252,375.981 283.695,375.797 282.307,373.072 282.307,373.072 " />
<polygon points="283.695,375.797 284.105,375.547 282.307,373.072 282.307,373.072 " />
<polygon points="284.105,375.547 284.47,375.235 282.307,373.072 282.307,373.072 " />
<polygon points="284.47,375.235 284.781,374.87 282.307,373.072 282.307,373.072 " />
<polygon points="284.781,374.87 285.032,374.461 282.307,373.072 282.307,373.072 " />
<polygon points="285.032,374.461 285.216,374.017 282.307,373.072 282.307,373.072 " />
<polygon points="285.216,374.017 285.328,373.551 282.307,373.072 282.307,373.072 " />
<polygon points="285.328,373.551 285.365,373.072 282.307,373.072 282.307,373.072 " />
<polygon points="285.365,373.072 285.328,372.594 282.307,373.072 282.307,373.072 " />
<polygon points="285.328,372.594 285.216,372.127 282.307,373.072 282.307,373.072 " />
<polygon points="285.216,372.127 285.032,371.683 282.307,373.072 282.307,373.072 " />
<polygon points="285.032,371.683 284.781,371.274 282.307,373.072 282.307,373.072 " />
<polygon points="284.781,371.274 284.47,370.909 282.307,373.072 282.307,373.072 " />
<polygon points="284.47,370.909 284.105,370.597 282.307,373.072 282.307,373.072 " />
<polygon points="284.105,370.597 283.695,370.347 282.307,373.072 282.307,373.072 " />
<polygon points="283.695,370.347 283.252,370.163 282.307,373.072 282.307,373.072 " />
<polygon points="283.252,370.163 282.785,370.051 282.307,373.072 282.307,373.072 " />
<polygon points="282.785,370.051 282.307,370.013 282.307,373.072 282.307,373.072 " />
<polygon points="282.307,370.013 281.828,370.051 282.307,373.072 282.307,373.072 " />
<polygon points="281.828,370.051 281.361,370.163 282.307,373.072 282.307,373.072 " />
<polygon points="281.361,370.163 280.918,370.347 282.307,373.072 282.307,373.072 " />
<polygon points="280.918,370.347 280.509,370.597 282.307,373.072 282.307,373.072 " />
<polygon points="280.509,370.597 280.144,370.909 282.307,373.072 282.307,373.072 " />
<polygon points="280.144,370.909 279.832,371.274 282.307,373.072 282.307,373.072 " />
<polygon points="279.832,371.274 279.581,371.683 282.307,373.072 282.307,373.072 " />
<polygon points="279.581,371.683 279.398,372.127 282.307,373.072 282.307,373.072 " />
<polygon points="279.398,372.127 279.286,372.594 282.307,373.072 282.307,373.072 " />
<polygon points="279.286,372.594 279.248,373.072 282.307,373.072 282.307,373.072 " />
<polygon points="304.738,360.613 304.775,361.091 307.796,360.613 307.796,360.613 " />
<polygon points="304.775,361.091 304.887,361.558 307.796,360.613 307.796,360.613 " />
<polygon points="304.887,361.558 305.071,362.001 307.796,360.613 307.796,360.613 " />
<polygon points="305.071,362.001 305.322,362.411 307.796,360.613 307.796,360.613 " />
<polygon points="305.322,362.411 305.633,362.776 307.796,360.613 307.796,360.613 " />
<polygon points="305.633,362.776 305.998,363.087 307.796,360.613 307.796,360.613 " />
<polygon points="305.998,363.087 306.408,363.338 307.796,360.613 307.796,360.613 " />
<polygon points="306.408,363.338 306.851,363.522 307.796,360.613 307.796,360.613 " />
<polygon points="306.851,363.522 307.318,363.634 307.796,360.613 307.796,360.613 " />
<polygon points="307.318,363.634 307.796,363.672 307.796,360.613 307.796,360.613 " />
<polygon points="307.796,363.672 308.275,363.634 307.796,360.613 307.796,360.613 " />
<polygon points="308.275,363.634 308.741,363.522 307.796,360.613 307.796,360.613 " />
<polygon points="308.741,363.522 309.185,363.338 307.796,360.613 307.796,360.613 " />
<polygon points="309.185,363.338 309.594,363.087 307.796,360.613 307.796,360.613 " />
<polygon points="309.594,363.087 309.959,362.776 307.796,360.613 307.796,360.613 " />
<polygon points="309.959,362.776 310.271,362.411 307.796,360.613 307.796,360.613 " />
<polygon points="310.271,362.411 310.522,362.001 307.796,360.613 307.796,360.613 " />
<polygon points="310.522,362.001 310.705,361.558 307.796,360.613 307.796,360.613 " />
<polygon points="310.705,361.558 310.817,361.091 307.796,360.613 307.796,360.613 " />
<polygon points="310.817,361.091 310.855,360.613 307.796,360.613 307.796,360.613 " />
<polygon points="310.855,360.613 310.817,360.134 307.796,360.613 307.796,360.613 " />
<polygon points="310.817,360.134 310.705,359.668 307.796,360.613 307.796,360.613 " />
<polygon points="310.705,359.668 310.522,359.224 307.796,360.613 307.796,360.613 " />
<polygon points="310.522,359.224 310.271,358.815 307.796,360.613 307.796,360.613 " />
<polygon points="310.271,358.815 309.959,358.45 307.796,360.613 307.796,360.613 " />
<polygon points="309.959,358.45 309.594,358.138 307.796,360.613 307.796,360.613 " />
<polygon points="309.594,358.138 309.185,357.887 307.796,360.613 307.796,360.613 " />
<polygon points="309.185,357.887 308.741,357.704 307.796,360.613 307.796,360.613 " />
<polygon points="308.741,357.704 308.275,357.592 307.796,360.613 307.796,360.613 " />
<polygon points="308.275,357.592 307.796,357.554 307.796,360.613 307.796,360.613 " />
<polygon points="307.796,357.554 307.318,357.592 307.796,360.613 307.796,360.613 " />
<polygon points="307.318,357.592 306.851,357.704 307.796,360.613 307.796,360.613 " />
<polygon points="306.851,357.704 306.408,357.887 307.796,360.613 307.796,360.613 " />
<polygon points="306.408,357.887 305.998,358.138 307.796,360.613 307.796,360.613 " />
<polygon points="305.998,358.138 305.633,358.45 307.796,360.613 307.796,360.613 " />
<polygon points="305.633,358.45 305.322,358.815 307.796,360.613 307.796,360.613 " />
<polygon points="305.322,358.815 305.071,359.224 307.796,360.613 307.796,360.613 " />
<polygon points="305.071,359.224 304.887,359.668 307.796,360.613 307.796,360.613 " />
<polygon points="304.887,359.668 304.775,360.134 307.796,360.613 307.796,360.613 " />
<polygon points="304.775,360.134 304.738,360.613 307.796,360.613 307.796,360.613 " />
<polygon points="279.248,348.153 279.286,348.632 282.307,348.153 282.307,348.153 " />
<polygon points="279.286,348.632 279.398,349.099 282.307,348.153 282.307,348.153 " />
<polygon points="279.398,349.099 279.581,349.542 282.307,348.153 282.307,348.153 " />
<polygon points="279.581,349.542 279.832,349.951 282.307,348.153 282.307,348.153 " />
<polygon points="279.832,349.951 280.144,350.316 282.307,348.153 282.307,348.153 " />
<polygon points="280.144,350.316 280.509,350.628 282.307,348.153 282.307,348.153 " />
<polygon points="280.509,350.628 280.918,350.879 282.307,348.153 282.307,348.153 " />
<polygon points="280.918,350.879 281.361,351.063 282.307,348.153 282.307,348.153 " />
<polygon points="281.361,351.063 281.828,351.175 282.307,348.153 282.307,348.153 " />
<polygon points="281.828,351.175 282.307,351.212 282.307,348.153 282.307,348.153 " />
<polygon points="282.307,351.212 282.785,351.175 282.307,348.153 282.307,348.153 " />
<polygon points="282.785,351.175 283.252,351.063 282.307,348.153 282.307,348.153 " />
<polygon points="283.252,351.063 283.695,350.879 282.307,348.153 282.307,348.153 " />
<polygon points="283.695,350.879 284.105,350.628 282.307,348.153 282.307,348.153 " />
<polygon points="284.105,350.628 284.47,350.316 282.307,348.153 282.307,348.153 " />
<polygon points="284.47,350.316 284.781,349.951 282.307,348.153 282.307,348.153 " />
<polygon points="284.781,349.951 285.032,349.542 282.307,348.153 282.307,348.153 " />
<polygon points="285.032,349.542 285.216,349.099 282.307,348.153 282.307,348.153 " />
<polygon points="285.216,349.099 285.328,348.632 282.307,348.153 282.307,348.153 " />
<polygon points="285.328,348.632 285.365,348.153 282.307,348.153 282.307,348.153 " />
<polygon points="285.365,348.153 285.328,347.675 282.307,348.153 282.307,348.153 " />
<polygon points="285.328,347.675 285.216,347.208 282.307,348.153 282.307,348.153 " />
<polygon points="285.216,347.208 285.032,346.765 282.307,348.153 282.307,348.153 " />
<polygon points="285.032,346.765 284.781,346.356 282.307,348.153 282.307,348.153 " />
<polygon points="284.781,346.356 284.47,345.991 282.307,348.153 282.307,348.153 " />
<polygon points="284.47,345.991 284.105,345.679 282.307,348.153 282.307,348.153 " />
<polygon points="284.105,345.679 283.695,345.428 282.307,348.153 282.307,348.153 " />
<polygon points="283.695,345.428 283.252,345.244 282.307,348.153 282.307,348.153 " />
<polygon points="283.252,345.244 282.785,345.132 282.307,348.153 282.307,348.153 " />
<polygon points="282.785,345.132 282.307,345.095 282.307,348.153 282.307,348.153 " />
<polygon points="282.307,345.095 281.828,345.132 282.307,348.153 282.307,348.153 " />
<polygon points="281.828,345.132 281.361,345.244 282.307,348.153 282.307,348.153 " />
<polygon points="281.361,345.244 280.918,345.428 282.307,348.153 282.307,348.153 " />
<polygon points="280.918,345.428 280.509,345.679 282.307,348.153 282.307,348.153 " />
<polygon points="280.509,345.679 280.144,345.991 282.307,348.153 282.307,348.153 " />
<polygon points="280.144,345.991 279.832,346.356 282.307,348.153 282.307,348.153 " />
<polygon points="279.832,346.356 279.581,346.765 282.307,348.153 282.307,348.153 " />
<polygon points="279.581,346.765 279.398,347.208 282.307,348.153 282.307,348.153 " />
<polygon points="279.398,347.208 279.286,347.675 282.307,348.153 282.307,348.153 " />
<polygon points="279.286,347.675 279.248,348.153 282.307,348.153 282.307,348.153 " />
<polygon points="304.738,335.694 304.775,336.173 307.796,335.694 307.796,335.694 " />
<polygon points="304.775,336.173 304.887,336.639 307.796,335.694 307.796,335.694 " />
<polygon points="304.887,336.639 305.071,337.083 307.796,335.694 307.796,335.694 " />
<polygon points="305.071,337.083 305.322,337.492 307.796,335.694 307.796,335.694 " />
<polygon points="305.322,337.492 305.633,337.857 307.796,335.694 307.796,335.694 " />
<polygon points="305.633,337.857 305.998,338.169 307.796,335.694 307.796,335.694 " />
<polygon points="305.998,338.169 306.408,338.42 307.796,335.694 307.796,335.694 " />
<polygon points="306.408,338.42 306.851,338.603 307.796,335.694 307.796,335.694 " />
<polygon points="306.851,338.603 307.318,338.715 307.796,335.694 307.796,335.694 " />
<polygon points="307.318,338.715 307.796,338.753 307.796,335.694 307.796,335.694 " />
<polygon points="307.796,338.753 308.275,338.715 307.796,335.694 307.796,335.694 " />
<polygon points="308.275,338.715 308.741,338.603 307.796,335.694 307.796,335.694 " />
<polygon points="308.741,338.603 309.185,338.42 307.796,335.694 307.796,335.694 " />
<polygon points="309.185,338.42 309.594,338.169 307.796,335.694 307.796,335.694 " />
<polygon points="309.594,338.169 309.959,337.857 307.796,335.694 307.796,335.694 " />
<polygon points="309.959,337.857 310.271,337.492 307.796,335.694 307.796,335.694 " />
<polygon points="310.271,337.492 310.522,337.083 307.796,335.694 307.796,335.694 " />
<polygon points="310.522,337.083 310.705,336.639 307.796,335.694 307.796,335.694 " />
<polygon points="310.705,336.639 310.817,336.173 307.796,335.694 307.796,335.694 " />
<polygon points="310.817,336.173 310.855,335.694 307.796,335.694 307.796,335.694 " />
<polygon points="310.855,335.694 310.817,335.216 307.796,335.694 307.796,335.694 " />
<polygon points="310.817,335.216 310.705,334.749 307.796,335.694 307.796,335.694 " />
<polygon points="310.705,334.749 310.522,334.306 307.796,335.694 307.796,335.694 " />
<polygon points="310.522,334.306 310.271,333.896 307.796,335.694 307.796,335.694 " />
<polygon points="310.271,333.896 309.959,333.531 307.796,335.694 307.796,335.694 " />
<polygon points="309.959,333.531 309.594,333.22 307.796,335.694 307.796,335.694 " />
<polygon points="309.594,333.22 309.185,332.969 307.796,335.694 307.796,335.694 " />
<polygon points="309.185,332.969 308.741,332.785 307.796,335.694 307.796,335.694 " />
<polygon points="308.741,332.785 308.275,332.673 307.796,335.694 307.796,335.694 " />
<polygon points="308.275,332.673 307.796,332.635 307.796,335.694 307.796,335.694 " />
<polygon points="307.796,332.635 307.318,332.673 307.796,335.694 307.796,335.694 " />
<polygon points="307.318,332.673 306.851,332.785 307.796,335.694 307.796,335.694 " />
<polygon points="306.851,332.785 306.408,332.969 307.796,335.694 307.796,335.694 " />
<polygon points="306.408,332.969 305.998,333.22 307.796,335.694 307.796,335.694 " />
<polygon points="305.998,333.22 305.633,333.531 307.796,335.694 307.796,335.694 " />
<polygon points="305.633,333.531 305.322,333.896 307.796,335.694 307.796,335.694 " />
<polygon points="305.322,333.896 305.071,334.306 307.796,335.694 307.796,335.694 " />
<polygon points="305.071,334.306 304.887,334.749 307.796,335.694 307.796,335.694 " />
<polygon points="304.887,334.749 304.775,335.216 307.796,335.694 307.796,335.694 " />
<polygon points="304.775,335.216 304.738,335.694 307.796,335.694 307.796,335.694 " />
<polygon points="279.248,323.235 279.286,323.713 282.307,323.235 282.307,323.235 " />
<polygon points="279.286,323.713 279.398,324.18 282.307,323.235 282.307,323.235 " />
<polygon points="279.398,324.18 279.581,324.623 282.307,323.235 282.307,323.235 " />
<polygon points="279.581,324.623 279.832,325.033 282.307,323.235 282.307,323.235 " />
<polygon points="279.832,325.033 280.144,325.398 282.307,323.235 282.307,323.235 " />
<polygon points="280.144,325.398 280.509,325.709 282.307,323.235 282.307,323.235 " />
<polygon points="280.509,325.709 280.918,325.96 282.307,323.235 282.307,323.235 " />
<polygon points="280.918,325.96 281.361,326.144 282.307,323.235 282.307,323.235 " />
<polygon points="281.361,326.144 281.828,326.256 282.307,323.235 282.307,323.235 " />
<polygon points="281.828,326.256 282.307,326.294 282.307,323.235 282.307,323.235 " />
<polygon points="282.307,326.294 282.785,326.256 282.307,323.235 282.307,323.235 " />
<polygon points="282.785,326.256 283.252,326.144 282.307,323.235 282.307,323.235 " />
<polygon points="283.252,326.144 283.695,325.96 282.307,323.235 282.307,323.235 " />
<polygon points="283.695,325.96 284.105,325.709 282.307,323.235 282.307,323.235 " />
<polygon points="284.105,325.709 284.47,325.398 282.307,323.235 282.307,323.235 " />
<polygon points="284.47,325.398 284.781,325.033 282.307,323.235 282.307,323.235 " />
<polygon points="284.781,325.033 285.032,324.623 282.307,323.235 282.307,323.235 " />
<polygon points="285.032,324.623 285.216,324.18 282.307,323.235 282.307,323.235 " />
<polygon points="285.216,324.18 285.328,323.713 282.307,323.235 282.307,323.235 " />
<polygon points="285.328,323.713 285.365,323.235 282.307,323.235 282.307,323.235 " />
<polygon points="285.365,323.235 285.328,322.756 282.307,323.235 282.307,323.235 " />
<polygon points="285.328,322.756 285.216,322.29 282.307,323.235 282.307,323.235 " />
<polygon points="285.216,322.29 285.032,321.846 282.307,323.235 282.307,323.235 " />
<polygon points="285.032,321.846 284.781,321.437 282.307,323.235 282.307,323.235 " />
<polygon points="284.781,321.437 284.47,321.072 282.307,323.235 282.307,323.235 " />
<polygon points="284.47,321.072 284.105,320.76 282.307,323.235 282.307,323.235 " />
<polygon points="284.105,320.76 283.695,320.509 282.307,323.235 282.307,323.235 " />
<polygon points="283.695,320.509 283.252,320.326 282.307,323.235 282.307,323.235 " />
<polygon points="283.252,320.326 282.785,320.214 282.307,323.235 282.307,323.235 " />
<polygon points="282.785,320.214 282.307,320.176 282.307,323.235 282.307,323.235 " />
<polygon points="282.307,320.176 281.828,320.214 282.307,323.235 282.307,323.235 " />
<polygon points="281.828,320.214 281.361,320.326 282.307,323.235 282.307,323.235 " />
<polygon points="281.361,320.326 280.918,320.509 282.307,323.235 282.307,323.235 " />
<polygon points="280.918,320.509 280.509,320.76 282.307,323.235 282.307,323.235 " />
<polygon points="280.509,320.76 280.144,321.072 282.307,323.235 282.307,323.235 " />
<polygon points="280.144,321.072 279.832,321.437 282.307,323.235 282.307,323.235 " />
<polygon points="279.832,321.437 279.581,321.846 282.307,323.235 282.307,323.235 " />
<polygon points="279.581,321.846 279.398,322.29 282.307,323.235 282.307,323.235 " />
<polygon points="279.398,322.29 279.286,322.756 282.307,323.235 282.307,323.235 " />
<polygon points="279.286,322.756 279.248,323.235 282.307,323.235 282.307,323.235 " />
</g>
<g clip-path="url(#clipId0)" fill="none" stroke="rgb(0,0,0)" stroke-width="0.25" >
<polyline points="447.958,311.55 451.6,326.844 " />
<polyline points="455.241,311.55 451.6,326.844 " />
<polyline points="455.241,311.55 458.883,326.844 " />
<polyline points="462.524,311.55 458.883,326.844 " />
<polyline points="481.459,316.648 489.47,326.844 " />
<polyline points="489.47,316.648 481.459,326.844 " />
<polyline points="509.862,311.55 509.862,326.844 " />
<polyline points="520.058,311.55 520.058,326.844 " />
<polyline points="509.862,318.833 520.058,318.833 " />
<polyline points="288.763,235.034 250.187,127.739 " />
</g>
<g clip-path="url(#clipId0)" fill="rgb(0,0,0)" stroke="rgb(0,0,0)" stroke-width="0.25" >
<path d="M291.162,234.172 286.365,235.897 293.938,249.426 293.938,249.426 z" />
</g>
<g clip-path="url(#clipId0)" fill="none" stroke="rgb(0,0,0)" stroke-width="0.25" >
<polyline points="110.263,329.475 100.067,329.475 " />
<polyline points="100.067,329.475 84.7732,329.475 " />
<polyline points="250.187,127.739 236.848,80.4215 " />
<polyline points="236.848,80.4215 267.436,80.4215 " />
<polyline points="296.689,72.7746 295.233,73.5029 293.776,74.9594 293.048,76.416 292.32,78.6008 292.32,82.2422 293.048,84.427 293.776,85.8835 295.233,87.3401 296.689,88.0684 299.603,88.0684 301.059,87.3401 302.516,85.8835 303.244,84.427 303.972,82.2422 303.972,78.6008 303.244,76.416 302.516,74.9594 301.059,73.5029 299.603,72.7746 296.689,72.7746 " />
<polyline points="309.07,72.7746 309.07,88.0684 " />
<polyline points="309.07,72.7746 315.625,72.7746 317.809,73.5029 318.538,74.2312 319.266,75.6877 319.266,77.8725 318.538,79.3291 317.809,80.0573 315.625,80.7856 309.07,80.7856 " />
<polyline points="324.364,72.7746 324.364,88.0684 " />
<polyline points="324.364,72.7746 333.831,72.7746 " />
<polyline points="324.364,80.0573 330.19,80.0573 " />
<polyline points="324.364,88.0684 333.831,88.0684 " />
<polyline points="338.201,72.7746 338.201,88.0684 " />
<polyline points="338.201,72.7746 348.397,88.0684 " />
<polyline points="348.397,72.7746 348.397,88.0684 " />
<polyline points="369.517,72.7746 369.517,88.0684 " />
<polyline points="369.517,72.7746 378.984,72.7746 " />
<polyline points="369.517,80.0573 375.343,80.0573 " />
<polyline points="369.517,88.0684 378.984,88.0684 " />
<polyline points="383.354,72.7746 383.354,88.0684 392.093,88.0684 " />
<polyline points="395.735,72.7746 395.735,88.0684 " />
<polyline points="395.735,72.7746 405.202,72.7746 " />
<polyline points="395.735,80.0573 401.561,80.0573 " />
<polyline points="395.735,88.0684 405.202,88.0684 " />
<polyline points="419.768,76.416 419.039,74.9594 417.583,73.5029 416.126,72.7746 413.213,72.7746 411.757,73.5029 410.3,74.9594 409.572,76.416 408.844,78.6008 408.844,82.2422 409.572,84.427 410.3,85.8835 411.757,87.3401 413.213,88.0684 416.126,88.0684 417.583,87.3401 419.039,85.8835 419.768,84.427 " />
<polyline points="427.779,72.7746 427.779,88.0684 " />
<polyline points="422.681,72.7746 432.877,72.7746 " />
<polyline points="436.518,72.7746 436.518,88.0684 " />
<polyline points="436.518,72.7746 443.072,72.7746 445.257,73.5029 445.986,74.2312 446.714,75.6877 446.714,77.1443 445.986,78.6008 445.257,79.3291 443.072,80.0573 436.518,80.0573 " />
<polyline points="441.616,80.0573 446.714,88.0684 " />
<polyline points="451.812,72.7746 451.812,88.0684 " />
<polyline points="467.834,76.416 467.105,74.9594 465.649,73.5029 464.192,72.7746 461.279,72.7746 459.823,73.5029 458.366,74.9594 457.638,76.416 456.91,78.6008 456.91,82.2422 457.638,84.427 458.366,85.8835 459.823,87.3401 461.279,88.0684 464.192,88.0684 465.649,87.3401 467.105,85.8835 467.834,84.427 " />
<polyline points="498.421,76.416 497.693,74.9594 496.236,73.5029 494.78,72.7746 491.867,72.7746 490.41,73.5029 488.954,74.9594 488.225,76.416 487.497,78.6008 487.497,82.2422 488.225,84.427 488.954,85.8835 490.41,87.3401 491.867,88.0684 494.78,88.0684 496.236,87.3401 497.693,85.8835 498.421,84.427 " />
<polyline points="507.16,72.7746 505.704,73.5029 504.247,74.9594 503.519,76.416 502.791,78.6008 502.791,82.2422 503.519,84.427 504.247,85.8835 505.704,87.3401 507.16,88.0684 510.074,88.0684 511.53,87.3401 512.987,85.8835 513.715,84.427 514.443,82.2422 514.443,78.6008 513.715,76.416 512.987,74.9594 511.53,73.5029 510.074,72.7746 507.16,72.7746 " />
<polyline points="519.541,72.7746 519.541,88.0684 " />
<polyline points="525.367,72.7746 525.367,88.0684 534.107,88.0684 " />
<polyline points="530.882,253.006 574.48,253.006 " />
<polyline points="530.882,405.943 574.48,405.943 " />
<polyline points="710.39,154.365 751.173,154.365 " />
<polyline points="782.824,151.066 782.096,149.609 780.639,148.153 779.183,147.424 776.269,147.424 774.813,148.153 773.356,149.609 772.628,151.066 771.9,153.251 771.9,156.892 772.628,159.077 773.356,160.533 774.813,161.99 776.269,162.718 779.183,162.718 780.639,161.99 782.096,160.533 782.824,159.077 " />
<polyline points="791.563,147.424 790.107,148.153 788.65,149.609 787.922,151.066 787.194,153.251 787.194,156.892 787.922,159.077 788.65,160.533 790.107,161.99 791.563,162.718 794.476,162.718 795.933,161.99 797.389,160.533 798.118,159.077 798.846,156.892 798.846,153.251 798.118,151.066 797.389,149.609 795.933,148.153 794.476,147.424 791.563,147.424 " />
<polyline points="803.944,147.424 803.944,162.718 " />
<polyline points="803.944,147.424 814.14,162.718 " />
<polyline points="814.14,147.424 814.14,162.718 " />
<polyline points="822.879,147.424 822.879,162.718 " />
<polyline points="817.781,147.424 827.977,147.424 " />
<polyline points="831.618,147.424 831.618,162.718 " />
<polyline points="831.618,147.424 838.173,147.424 840.358,148.153 841.086,148.881 841.814,150.337 841.814,151.794 841.086,153.251 840.358,153.979 838.173,154.707 831.618,154.707 " />
<polyline points="836.716,154.707 841.814,162.718 " />
<polyline points="850.553,147.424 849.097,148.153 847.64,149.609 846.912,151.066 846.184,153.251 846.184,156.892 846.912,159.077 847.64,160.533 849.097,161.99 850.553,162.718 853.466,162.718 854.923,161.99 856.38,160.533 857.108,159.077 857.836,156.892 857.836,153.251 857.108,151.066 856.38,149.609 854.923,148.153 853.466,147.424 850.553,147.424 " />
<polyline points="862.934,147.424 862.934,162.718 871.673,162.718 " />
<polyline points="890.608,147.424 890.608,162.718 " />
<polyline points="890.608,147.424 897.163,147.424 899.348,148.153 900.076,148.881 900.804,150.337 900.804,152.522 900.076,153.979 899.348,154.707 897.163,155.435 890.608,155.435 " />
<polyline points="909.544,147.424 903.717,162.718 " />
<polyline points="909.544,147.424 915.37,162.718 " />
<polyline points="905.902,157.62 913.185,157.62 " />
<polyline points="919.011,147.424 919.011,162.718 " />
<polyline points="919.011,147.424 929.207,162.718 " />
<polyline points="929.207,147.424 929.207,162.718 " />
<polyline points="935.033,147.424 935.033,162.718 " />
<polyline points="935.033,147.424 944.501,147.424 " />
<polyline points="935.033,154.707 940.859,154.707 " />
<polyline points="935.033,162.718 944.501,162.718 " />
<polyline points="948.87,147.424 948.87,162.718 957.61,162.718 " />
<polyline points="783.308,504.585 813.895,504.585 " />
<polyline points="835.603,495.975 835.603,511.268 " />
<polyline points="841.429,495.975 841.429,511.268 " />
<polyline points="841.429,495.975 851.625,511.268 " />
<polyline points="851.625,495.975 851.625,511.268 " />
<polyline points="866.919,498.159 865.462,496.703 863.278,495.975 860.365,495.975 858.18,496.703 856.723,498.159 856.723,499.616 857.451,501.072 858.18,501.801 859.636,502.529 864.006,503.986 865.462,504.714 866.191,505.442 866.919,506.899 866.919,509.083 865.462,510.54 863.278,511.268 860.365,511.268 858.18,510.54 856.723,509.083 " />
<polyline points="872.017,495.975 872.017,506.899 872.745,509.083 874.202,510.54 876.387,511.268 877.843,511.268 880.028,510.54 881.485,509.083 882.213,506.899 882.213,495.975 " />
<polyline points="888.039,495.975 888.039,511.268 896.778,511.268 " />
<polyline points="904.061,495.975 898.235,511.268 " />
<polyline points="904.061,495.975 909.887,511.268 " />
<polyline points="900.42,506.17 907.702,506.17 " />
<polyline points="916.442,495.975 916.442,511.268 " />
<polyline points="911.344,495.975 921.54,495.975 " />
<polyline points="925.181,495.975 925.181,511.268 " />
<polyline points="934.648,495.975 933.192,496.703 931.735,498.159 931.007,499.616 930.279,501.801 930.279,505.442 931.007,507.627 931.735,509.083 933.192,510.54 934.648,511.268 937.562,511.268 939.018,510.54 940.475,509.083 941.203,507.627 941.931,505.442 941.931,501.801 941.203,499.616 940.475,498.159 939.018,496.703 937.562,495.975 934.648,495.975 " />
<polyline points="947.029,495.975 947.029,511.268 " />
<polyline points="947.029,495.975 957.225,511.268 " />
<polyline points="957.225,495.975 957.225,511.268 " />
<polyline points="919.736,678.135 918.668,675.999 916.532,673.863 914.395,672.795 910.123,672.795 907.987,673.863 905.85,675.999 904.782,678.135 903.714,681.34 903.714,686.68 904.782,689.885 905.85,692.021 907.987,694.157 910.123,695.225 914.395,695.225 916.532,694.157 918.668,692.021 919.736,689.885 " />
<polyline points="927.213,672.795 927.213,695.225 " />
<polyline points="927.213,672.795 936.826,672.795 940.031,673.863 941.099,674.931 942.167,677.067 942.167,679.203 941.099,681.34 940.031,682.408 936.826,683.476 927.213,683.476 " />
<polyline points="934.69,683.476 942.167,695.225 " />
<polyline points="953.916,672.795 950.712,673.863 949.644,675.999 949.644,678.135 950.712,680.272 952.848,681.34 957.121,682.408 960.325,683.476 962.461,685.612 963.53,687.748 963.53,690.953 962.461,693.089 961.393,694.157 958.189,695.225 953.916,695.225 950.712,694.157 949.644,693.089 948.576,690.953 948.576,687.748 949.644,685.612 951.78,683.476 954.984,682.408 959.257,681.34 961.393,680.272 962.461,678.135 962.461,675.999 961.393,673.863 958.189,672.795 953.916,672.795 " />
<polyline points="971.006,685.612 990.233,685.612 " />
<polyline points="1010.53,672.795 999.846,672.795 998.778,682.408 999.846,681.34 1003.05,680.272 1006.25,680.272 1009.46,681.34 1011.6,683.476 1012.66,686.68 1012.66,688.817 1011.6,692.021 1009.46,694.157 1006.25,695.225 1003.05,695.225 999.846,694.157 998.778,693.089 997.71,690.953 " />
</g>
</svg>
