<?xml version="1.0" standalone="no"?>
<svg viewBox="0 0 1024 768" version="1.1" xmlns="http://www.w3.org/2000/svg" xmlns:xlink="http://www.w3.org/1999/xlink" stroke-linecap="round" stroke-linejoin="round" fill-rule="evenodd" xml:space="preserve" >
<defs >
<clipPath id="clipId0" >
<path d="M0,768 1024,768 1024,0 0,0 z" />
</clipPath>
</defs>
<g clip-path="url(#clipId0)" fill="none" stroke="rgb(0,0,0)" stroke-width="0.1" />
<g clip-path="url(#clipId0)" fill="none" stroke="rgb(0,0,0)" stroke-width="0.25" >
<polyline points="42.7924,221.633 285.458,221.633 " />
<polyline points="42.7924,378.439 285.458,378.439 " />
<polyline points="227.069,300.036 166.429,300.036 " />
</g>
<g clip-path="url(#clipId0)" fill="rgb(0,0,0)" stroke="rgb(0,0,0)" stroke-width="0.25" >
<path d="M227.069,297.423 227.069,302.65 242.749,300.036 242.749,300.036 z" />
</g>
<g clip-path="url(#clipId0)" fill="none" stroke="rgb(0,0,0)" stroke-width="0.25" >
<polyline points="285.458,430.708 285.458,169.364 " />
<polyline points="755.878,430.708 755.878,169.364 " />
<polyline points="285.458,169.364 912.684,169.364 " />
<polyline points="285.458,430.708 912.684,430.708 " />
<polyline points="285.458,195.498 755.878,195.498 " />
<polyline points="285.458,404.574 755.878,404.574 " />
<polyline points="520.668,430.708 520.668,169.364 " />
<polyline points="370.773,278.806 370.773,294.487 " />
<polyline points="370.773,278.806 377.493,278.806 379.733,279.553 380.48,280.3 381.227,281.793 381.227,283.287 380.48,284.78 379.733,285.527 377.493,286.273 " />
<polyline points="370.773,286.273 377.493,286.273 379.733,287.02 380.48,287.767 381.227,289.26 381.227,291.5 380.48,292.994 379.733,293.74 377.493,294.487 370.773,294.487 " />
<polyline points="390.187,278.806 384.213,294.487 " />
<polyline points="390.187,278.806 396.16,294.487 " />
<polyline points="386.453,289.26 393.92,289.26 " />
<polyline points="409.601,281.046 408.108,279.553 405.868,278.806 402.881,278.806 400.641,279.553 399.147,281.046 399.147,282.54 399.894,284.033 400.641,284.78 402.134,285.527 406.614,287.02 408.108,287.767 408.854,288.513 409.601,290.007 409.601,292.247 408.108,293.74 405.868,294.487 402.881,294.487 400.641,293.74 399.147,292.247 " />
<polyline points="414.828,278.806 414.828,294.487 " />
<polyline points="431.255,282.54 430.509,281.046 429.015,279.553 427.522,278.806 424.535,278.806 423.042,279.553 421.548,281.046 420.801,282.54 420.055,284.78 420.055,288.513 420.801,290.754 421.548,292.247 423.042,293.74 424.535,294.487 427.522,294.487 429.015,293.74 430.509,292.247 431.255,290.754 " />
<polyline points="350.391,304.194 344.418,319.875 " />
<polyline points="350.391,304.194 356.365,319.875 " />
<polyline points="346.658,314.648 354.125,314.648 " />
<polyline points="369.806,306.434 368.312,304.941 366.072,304.194 363.085,304.194 360.845,304.941 359.352,306.434 359.352,307.928 360.099,309.421 360.845,310.168 362.339,310.914 366.819,312.408 368.312,313.154 369.059,313.901 369.806,315.395 369.806,317.635 368.312,319.128 366.072,319.875 363.085,319.875 360.845,319.128 359.352,317.635 " />
<polyline points="384.74,306.434 383.246,304.941 381.006,304.194 378.019,304.194 375.779,304.941 374.286,306.434 374.286,307.928 375.032,309.421 375.779,310.168 377.273,310.914 381.753,312.408 383.246,313.154 383.993,313.901 384.74,315.395 384.74,317.635 383.246,319.128 381.006,319.875 378.019,319.875 375.779,319.128 374.286,317.635 " />
<polyline points="389.966,304.194 389.966,319.875 " />
<polyline points="389.966,304.194 399.673,304.194 " />
<polyline points="389.966,311.661 395.94,311.661 " />
<polyline points="389.966,319.875 399.673,319.875 " />
<polyline points="404.154,304.194 404.154,319.875 " />
<polyline points="404.154,304.194 410.127,319.875 " />
<polyline points="416.101,304.194 410.127,319.875 " />
<polyline points="416.101,304.194 416.101,319.875 " />
<polyline points="422.074,304.194 422.074,319.875 " />
<polyline points="422.074,304.194 428.795,304.194 431.035,304.941 431.781,305.687 432.528,307.181 432.528,308.674 431.781,310.168 431.035,310.914 428.795,311.661 " />
<polyline points="422.074,311.661 428.795,311.661 431.035,312.408 431.781,313.154 432.528,314.648 432.528,316.888 431.781,318.381 431.035,319.128 428.795,319.875 422.074,319.875 " />
<polyline points="437.755,304.194 437.755,319.875 446.715,319.875 " />
<polyline points="448.209,304.194 454.182,311.661 454.182,319.875 " />
<polyline points="460.156,304.194 454.182,311.661 " />
<polyline points="572.263,292.655 566.289,308.336 " />
<polyline points="572.263,292.655 578.237,308.336 " />
<polyline points="568.529,303.109 575.996,303.109 " />
<polyline points="584.957,292.655 584.957,308.336 " />
<polyline points="579.73,292.655 590.184,292.655 " />
<polyline points="596.904,292.655 596.904,308.336 " />
<polyline points="591.677,292.655 602.131,292.655 " />
<polyline points="605.864,292.655 605.864,308.336 " />
<polyline points="605.864,292.655 615.571,292.655 " />
<polyline points="605.864,300.122 611.838,300.122 " />
<polyline points="605.864,308.336 615.571,308.336 " />
<polyline points="620.052,292.655 620.052,308.336 " />
<polyline points="620.052,292.655 630.505,308.336 " />
<polyline points="630.505,292.655 630.505,308.336 " />
<polyline points="636.479,292.655 636.479,303.856 637.226,306.096 638.719,307.589 640.959,308.336 642.453,308.336 644.693,307.589 646.186,306.096 646.933,303.856 646.933,292.655 " />
<polyline points="656.64,292.655 650.666,308.336 " />
<polyline points="656.64,292.655 662.613,308.336 " />
<polyline points="652.906,303.109 660.373,303.109 " />
<polyline points="669.334,292.655 669.334,308.336 " />
<polyline points="664.107,292.655 674.56,292.655 " />
<polyline points="682.027,292.655 680.534,293.402 679.041,294.895 678.294,296.389 677.547,298.629 677.547,302.362 678.294,304.602 679.041,306.096 680.534,307.589 682.027,308.336 685.014,308.336 686.508,307.589 688.001,306.096 688.748,304.602 689.494,302.362 689.494,298.629 688.748,296.389 688.001,294.895 686.508,293.402 685.014,292.655 682.027,292.655 " />
<polyline points="694.721,292.655 694.721,308.336 " />
<polyline points="694.721,292.655 701.442,292.655 703.682,293.402 704.428,294.149 705.175,295.642 705.175,297.135 704.428,298.629 703.682,299.375 701.442,300.122 694.721,300.122 " />
<polyline points="699.948,300.122 705.175,308.336 " />
</g>
<g clip-path="url(#clipId0)" fill="rgb(0,0,0)" stroke="rgb(0,0,0)" stroke-width="0.25" >
<path d="M622.714,430.647 618.277,433.409 612.21,418.715 612.21,418.715 z" />
</g>
<g clip-path="url(#clipId0)" fill="none" stroke="rgb(0,0,0)" stroke-width="0.25" >
<polyline points="620.495,432.028 659.559,494.791 " />
<polyline points="659.559,494.791 643.878,494.791 " />
<polyline points="304.763,489.191 303.269,487.697 301.029,486.951 298.042,486.951 295.802,487.697 294.309,489.191 294.309,490.684 295.056,492.178 295.802,492.924 297.296,493.671 301.776,495.164 303.269,495.911 304.016,496.658 304.763,498.151 304.763,500.391 303.269,501.885 301.029,502.631 298.042,502.631 295.802,501.885 294.309,500.391 " />
<polyline points="313.723,486.951 312.23,487.697 310.736,489.191 309.99,490.684 309.243,492.924 309.243,496.658 309.99,498.898 310.736,500.391 312.23,501.885 313.723,502.631 316.71,502.631 318.203,501.885 319.697,500.391 320.443,498.898 321.19,496.658 321.19,492.924 320.443,490.684 319.697,489.191 318.203,487.697 316.71,486.951 313.723,486.951 " />
<polyline points="326.417,486.951 326.417,498.151 327.164,500.391 328.657,501.885 330.897,502.631 332.391,502.631 334.631,501.885 336.124,500.391 336.871,498.151 336.871,486.951 " />
<polyline points="342.844,486.951 342.844,502.631 " />
<polyline points="342.844,486.951 353.298,502.631 " />
<polyline points="353.298,486.951 353.298,502.631 " />
<polyline points="359.272,486.951 359.272,502.631 " />
<polyline points="359.272,486.951 364.499,486.951 366.739,487.697 368.232,489.191 368.979,490.684 369.725,492.924 369.725,496.658 368.979,498.898 368.232,500.391 366.739,501.885 364.499,502.631 359.272,502.631 " />
<polyline points="394.366,486.951 388.393,502.631 " />
<polyline points="394.366,486.951 400.34,502.631 " />
<polyline points="390.633,497.405 398.1,497.405 " />
<polyline points="404.073,486.951 404.073,502.631 " />
<polyline points="404.073,486.951 410.794,486.951 413.034,487.697 413.781,488.444 414.527,489.938 414.527,491.431 413.781,492.924 413.034,493.671 410.794,494.418 " />
<polyline points="404.073,494.418 410.794,494.418 413.034,495.164 413.781,495.911 414.527,497.405 414.527,499.645 413.781,501.138 413.034,501.885 410.794,502.631 404.073,502.631 " />
<polyline points="429.461,489.191 427.968,487.697 425.728,486.951 422.741,486.951 420.501,487.697 419.007,489.191 419.007,490.684 419.754,492.178 420.501,492.924 421.994,493.671 426.474,495.164 427.968,495.911 428.714,496.658 429.461,498.151 429.461,500.391 427.968,501.885 425.728,502.631 422.741,502.631 420.501,501.885 419.007,500.391 " />
<polyline points="438.422,486.951 436.928,487.697 435.435,489.191 434.688,490.684 433.941,492.924 433.941,496.658 434.688,498.898 435.435,500.391 436.928,501.885 438.422,502.631 441.408,502.631 442.902,501.885 444.395,500.391 445.142,498.898 445.889,496.658 445.889,492.924 445.142,490.684 444.395,489.191 442.902,487.697 441.408,486.951 438.422,486.951 " />
<polyline points="451.115,486.951 451.115,502.631 " />
<polyline points="451.115,486.951 457.836,486.951 460.076,487.697 460.822,488.444 461.569,489.938 461.569,491.431 460.822,492.924 460.076,493.671 457.836,494.418 451.115,494.418 " />
<polyline points="456.342,494.418 461.569,502.631 " />
<polyline points="466.796,486.951 466.796,502.631 " />
<polyline points="466.796,486.951 473.516,486.951 475.756,487.697 476.503,488.444 477.25,489.938 477.25,491.431 476.503,492.924 475.756,493.671 473.516,494.418 " />
<polyline points="466.796,494.418 473.516,494.418 475.756,495.164 476.503,495.911 477.25,497.405 477.25,499.645 476.503,501.138 475.756,501.885 473.516,502.631 466.796,502.631 " />
<polyline points="482.477,486.951 482.477,502.631 " />
<polyline points="482.477,486.951 492.184,486.951 " />
<polyline points="482.477,494.418 488.45,494.418 " />
<polyline points="482.477,502.631 492.184,502.631 " />
<polyline points="496.664,486.951 496.664,502.631 " />
<polyline points="496.664,486.951 503.384,486.951 505.624,487.697 506.371,488.444 507.118,489.938 507.118,491.431 506.371,492.924 505.624,493.671 503.384,494.418 496.664,494.418 " />
<polyline points="501.891,494.418 507.118,502.631 " />
<polyline points="528.025,486.951 528.025,502.631 " />
<polyline points="528.025,486.951 533.999,502.631 " />
<polyline points="539.972,486.951 533.999,502.631 " />
<polyline points="539.972,486.951 539.972,502.631 " />
<polyline points="549.679,486.951 543.706,502.631 " />
<polyline points="549.679,486.951 555.653,502.631 " />
<polyline points="545.946,497.405 553.413,497.405 " />
<polyline points="562.373,486.951 562.373,502.631 " />
<polyline points="557.146,486.951 567.6,486.951 " />
<polyline points="571.334,486.951 571.334,502.631 " />
<polyline points="571.334,486.951 581.041,486.951 " />
<polyline points="571.334,494.418 577.307,494.418 " />
<polyline points="571.334,502.631 581.041,502.631 " />
<polyline points="585.521,486.951 585.521,502.631 " />
<polyline points="585.521,486.951 592.241,486.951 594.481,487.697 595.228,488.444 595.975,489.938 595.975,491.431 595.228,492.924 594.481,493.671 592.241,494.418 585.521,494.418 " />
<polyline points="590.748,494.418 595.975,502.631 " />
<polyline points="601.202,486.951 601.202,502.631 " />
<polyline points="610.909,486.951 604.935,502.631 " />
<polyline points="610.909,486.951 616.882,502.631 " />
<polyline points="607.175,497.405 614.642,497.405 " />
<polyline points="620.616,486.951 620.616,502.631 629.576,502.631 " />
<polyline points="496.41,430.708 522.544,404.574 " />
<polyline points="477.93,430.708 504.064,404.574 " />
<polyline points="459.45,430.708 485.585,404.574 " />
<polyline points="440.97,430.708 467.105,404.574 " />
<polyline points="422.491,430.708 448.625,404.574 " />
<polyline points="404.011,430.708 430.145,404.574 " />
<polyline points="385.531,430.708 411.665,404.574 " />
<polyline points="367.051,430.708 393.186,404.574 " />
<polyline points="348.571,430.708 374.706,404.574 " />
<polyline points="330.091,430.708 356.226,404.574 " />
<polyline points="311.612,430.708 337.746,404.574 " />
<polyline points="293.132,430.708 319.266,404.574 " />
<polyline points="285.458,419.902 300.786,404.574 " />
<polyline points="514.89,430.708 541.024,404.574 " />
<polyline points="533.369,430.708 559.504,404.574 " />
<polyline points="551.849,430.708 577.984,404.574 " />
<polyline points="570.329,430.708 596.463,404.574 " />
<polyline points="588.809,430.708 614.943,404.574 " />
<polyline points="607.289,430.708 633.423,404.574 " />
<polyline points="625.769,430.708 651.903,404.574 " />
<polyline points="644.248,430.708 670.383,404.574 " />
<polyline points="662.728,430.708 688.863,404.574 " />
<polyline points="681.208,430.708 707.342,404.574 " />
<polyline points="699.688,430.708 725.822,404.574 " />
<polyline points="718.168,430.708 744.302,404.574 " />
<polyline points="736.647,430.708 755.878,411.478 " />
<polyline points="755.127,430.708 755.878,429.958 " />
<polyline points="528.814,430.708 502.68,404.574 " />
<polyline points="510.335,430.708 484.2,404.574 " />
<polyline points="491.855,430.708 465.72,404.574 " />
<polyline points="473.375,430.708 447.241,404.574 " />
<polyline points="454.895,430.708 428.761,404.574 " />
<polyline points="436.415,430.708 410.281,404.574 " />
<polyline points="417.936,430.708 391.801,404.574 " />
<polyline points="399.456,430.708 373.321,404.574 " />
<polyline points="380.976,430.708 354.841,404.574 " />
<polyline points="362.496,430.708 336.362,404.574 " />
<polyline points="344.016,430.708 317.882,404.574 " />
<polyline points="325.536,430.708 299.402,404.574 " />
<polyline points="307.057,430.708 285.458,409.11 " />
<polyline points="288.577,430.708 285.458,427.59 " />
<polyline points="547.294,430.708 521.16,404.574 " />
<polyline points="565.774,430.708 539.64,404.574 " />
<polyline points="584.254,430.708 558.119,404.574 " />
<polyline points="602.734,430.708 576.599,404.574 " />
<polyline points="621.213,430.708 595.079,404.574 " />
<polyline points="639.693,430.708 613.559,404.574 " />
<polyline points="658.173,430.708 632.039,404.574 " />
<polyline points="676.653,430.708 650.519,404.574 " />
<polyline points="695.133,430.708 668.998,404.574 " />
<polyline points="713.613,430.708 687.478,404.574 " />
<polyline points="732.092,430.708 705.958,404.574 " />
<polyline points="750.572,430.708 724.438,404.574 " />
<polyline points="755.878,417.534 742.918,404.574 " />
<polyline points="496.41,195.498 522.544,169.364 " />
<polyline points="477.93,195.498 504.064,169.364 " />
<polyline points="459.45,195.498 485.585,169.364 " />
<polyline points="440.97,195.498 467.105,169.364 " />
<polyline points="422.491,195.498 448.625,169.364 " />
<polyline points="404.011,195.498 430.145,169.364 " />
<polyline points="385.531,195.498 411.665,169.364 " />
<polyline points="367.051,195.498 393.186,169.364 " />
<polyline points="348.571,195.498 374.706,169.364 " />
<polyline points="330.091,195.498 356.226,169.364 " />
<polyline points="311.612,195.498 337.746,169.364 " />
<polyline points="293.132,195.498 319.266,169.364 " />
<polyline points="285.458,184.692 300.786,169.364 " />
<polyline points="514.89,195.498 541.024,169.364 " />
<polyline points="533.369,195.498 559.504,169.364 " />
<polyline points="551.849,195.498 577.984,169.364 " />
<polyline points="570.329,195.498 596.463,169.364 " />
<polyline points="588.809,195.498 614.943,169.364 " />
<polyline points="607.289,195.498 633.423,169.364 " />
<polyline points="625.769,195.498 651.903,169.364 " />
<polyline points="644.248,195.498 670.383,169.364 " />
<polyline points="662.728,195.498 688.863,169.364 " />
<polyline points="681.208,195.498 707.342,169.364 " />
<polyline points="699.688,195.498 725.822,169.364 " />
<polyline points="718.168,195.498 744.302,169.364 " />
<polyline points="736.647,195.498 755.878,176.268 " />
<polyline points="755.127,195.498 755.878,194.748 " />
<polyline points="528.814,195.498 502.68,169.364 " />
<polyline points="510.335,195.498 484.2,169.364 " />
<polyline points="491.855,195.498 465.72,169.364 " />
<polyline points="473.375,195.498 447.241,169.364 " />
<polyline points="454.895,195.498 428.761,169.364 " />
<polyline points="436.415,195.498 410.281,169.364 " />
<polyline points="417.936,195.498 391.801,169.364 " />
<polyline points="399.456,195.498 373.321,169.364 " />
<polyline points="380.976,195.498 354.841,169.364 " />
<polyline points="362.496,195.498 336.362,169.364 " />
<polyline points="344.016,195.498 317.882,169.364 " />
<polyline points="325.536,195.498 299.402,169.364 " />
<polyline points="307.057,195.498 285.458,173.9 " />
<polyline points="288.577,195.498 285.458,192.38 " />
<polyline points="547.294,195.498 521.16,169.364 " />
<polyline points="565.774,195.498 539.64,169.364 " />
<polyline points="584.254,195.498 558.119,169.364 " />
<polyline points="602.734,195.498 576.599,169.364 " />
<polyline points="621.213,195.498 595.079,169.364 " />
<polyline points="639.693,195.498 613.559,169.364 " />
<polyline points="658.173,195.498 632.039,169.364 " />
<polyline points="676.653,195.498 650.519,169.364 " />
<polyline points="695.133,195.498 668.998,169.364 " />
<polyline points="713.613,195.498 687.478,169.364 " />
<polyline points="732.092,195.498 705.958,169.364 " />
<polyline points="750.572,195.498 724.438,169.364 " />
<polyline points="755.878,182.324 742.918,169.364 " />
<polyline points="965.378,286.011 1013.96,314.061 " />
<polyline points="965.378,286.011 989.669,286.011 " />
<polyline points="1013.96,314.061 989.669,314.061 " />
<polyline points="989.669,143.623 989.669,286.011 " />
<polyline points="989.669,314.061 989.669,454.088 " />
<polyline points="195.054,269.124 193.56,269.871 192.067,271.365 191.32,272.858 190.574,275.098 190.574,278.832 191.32,281.072 192.067,282.565 193.56,284.058 195.054,284.805 198.041,284.805 199.534,284.058 201.027,282.565 201.774,281.072 202.521,278.832 202.521,275.098 201.774,272.858 201.027,271.365 199.534,269.871 198.041,269.124 195.054,269.124 " />
<polyline points="197.294,281.818 201.774,286.299 " />
<polyline points="265.47,378.439 265.47,221.633 " />
</g>
<g clip-path="url(#clipId0)" fill="none" stroke="rgb(0,0,0)" stroke-width="0.1" >
<polyline points="42.7924,300.036 42.7924,300.036 " />
</g>
<g clip-path="url(#clipId0)" fill="none" stroke="rgb(0,0,0)" stroke-width="0.25" >
<path d="M42.7924,221.633  A41.2011,41.2011 0 0,0 42.7924,300.036 " />
<path d="M42.7924,378.439  A54.8394,54.8394 0 0,0 42.7924,300.036 " />
<path d="M42.7924,300.036  A39.8364,39.8364 0 0,0 42.7924,378.439 " />
<polyline points="491.424,92.9605 491.424,108.641 " />
<polyline points="486.197,92.9605 496.65,92.9605 " />
<polyline points="500.384,92.9605 500.384,108.641 " />
<polyline points="500.384,92.9605 510.091,92.9605 " />
<polyline points="500.384,100.427 506.357,100.427 " />
<polyline points="500.384,108.641 510.091,108.641 " />
<polyline points="514.571,92.9605 514.571,108.641 " />
<polyline points="514.571,92.9605 521.291,92.9605 523.532,93.7072 524.278,94.4539 525.025,95.9473 525.025,97.4407 524.278,98.9341 523.532,99.6808 521.291,100.427 514.571,100.427 " />
<polyline points="519.798,100.427 525.025,108.641 " />
<polyline points="530.252,92.9605 530.252,108.641 " />
<polyline points="530.252,92.9605 536.225,108.641 " />
<polyline points="542.199,92.9605 536.225,108.641 " />
<polyline points="542.199,92.9605 542.199,108.641 " />
<polyline points="548.173,92.9605 548.173,108.641 " />
<polyline points="554.146,92.9605 554.146,108.641 " />
<polyline points="554.146,92.9605 564.6,108.641 " />
<polyline points="564.6,92.9605 564.6,108.641 " />
<polyline points="574.307,92.9605 568.333,108.641 " />
<polyline points="574.307,92.9605 580.28,108.641 " />
<polyline points="570.573,103.414 578.04,103.414 " />
<polyline points="584.014,92.9605 584.014,108.641 592.974,108.641 " />
<polyline points="622.842,96.694 622.096,95.2006 620.602,93.7072 619.109,92.9605 616.122,92.9605 614.629,93.7072 613.135,95.2006 612.388,96.694 611.642,98.9341 611.642,102.668 612.388,104.908 613.135,106.401 614.629,107.894 616.122,108.641 619.109,108.641 620.602,107.894 622.096,106.401 622.842,104.908 " />
<polyline points="631.803,92.9605 630.309,93.7072 628.816,95.2006 628.069,96.694 627.322,98.9341 627.322,102.668 628.069,104.908 628.816,106.401 630.309,107.894 631.803,108.641 634.789,108.641 636.283,107.894 637.776,106.401 638.523,104.908 639.27,102.668 639.27,98.9341 638.523,96.694 637.776,95.2006 636.283,93.7072 634.789,92.9605 631.803,92.9605 " />
<polyline points="644.496,92.9605 644.496,108.641 " />
<polyline points="644.496,92.9605 654.95,108.641 " />
<polyline points="654.95,92.9605 654.95,108.641 " />
<polyline points="663.911,92.9605 663.911,108.641 " />
<polyline points="658.684,92.9605 669.137,92.9605 " />
<polyline points="672.871,92.9605 672.871,108.641 " />
<polyline points="672.871,92.9605 679.591,92.9605 681.831,93.7072 682.578,94.4539 683.325,95.9473 683.325,97.4407 682.578,98.9341 681.831,99.6808 679.591,100.427 672.871,100.427 " />
<polyline points="678.098,100.427 683.325,108.641 " />
<polyline points="692.285,92.9605 690.792,93.7072 689.298,95.2006 688.552,96.694 687.805,98.9341 687.805,102.668 688.552,104.908 689.298,106.401 690.792,107.894 692.285,108.641 695.272,108.641 696.765,107.894 698.259,106.401 699.005,104.908 699.752,102.668 699.752,98.9341 699.005,96.694 698.259,95.2006 696.765,93.7072 695.272,92.9605 692.285,92.9605 " />
<polyline points="704.979,92.9605 704.979,108.641 713.939,108.641 " />
<polyline points="733.353,92.9605 733.353,104.161 734.1,106.401 735.594,107.894 737.834,108.641 739.327,108.641 741.567,107.894 743.061,106.401 743.807,104.161 743.807,92.9605 " />
<polyline points="749.781,92.9605 749.781,108.641 " />
<polyline points="749.781,92.9605 760.235,108.641 " />
<polyline points="760.235,92.9605 760.235,108.641 " />
<polyline points="766.208,92.9605 766.208,108.641 " />
<polyline points="775.168,92.9605 775.168,108.641 " />
<polyline points="769.942,92.9605 780.395,92.9605 " />
<polyline points="119.873,362.759 119.873,317.285 " />
<polyline points="119.873,237.314 119.873,282.787 " />
</g>
<g clip-path="url(#clipId0)" fill="rgb(0,0,0)" stroke="rgb(0,0,0)" stroke-width="0.25" >
<path d="M117.26,362.759 122.487,362.759 119.873,378.439 119.873,378.439 z" />
<path d="M117.26,237.314 122.487,237.314 119.873,221.633 119.873,221.633 z" />
</g>
<g clip-path="url(#clipId0)" fill="none" stroke="rgb(0,0,0)" stroke-width="0.25" >
<polyline points="114.646,292.196 114.646,307.876 " />
<polyline points="114.646,292.196 119.873,292.196 122.113,292.942 123.607,294.436 124.353,295.929 125.1,298.169 125.1,301.903 124.353,304.143 123.607,305.636 122.113,307.13 119.873,307.876 114.646,307.876 " />
<polyline points="132.47,301.262 131.126,301.71 130.23,303.054 129.782,305.294 129.782,306.638 130.23,308.878 131.126,310.222 132.47,310.67 133.366,310.67 134.71,310.222 135.606,308.878 136.054,306.638 136.054,305.294 135.606,303.054 134.71,301.71 133.366,301.262 132.47,301.262 " />
<polyline points="836.724,293.77 836.724,309.451 " />
<polyline points="836.724,293.77 841.951,293.77 844.191,294.517 845.685,296.01 846.431,297.504 847.178,299.744 847.178,303.477 846.431,305.717 845.685,307.211 844.191,308.704 841.951,309.451 836.724,309.451 " />
<polyline points="852.405,293.77 852.405,304.971 853.152,307.211 854.645,308.704 856.885,309.451 858.378,309.451 860.619,308.704 862.112,307.211 862.859,304.971 862.859,293.77 " />
<polyline points="879.286,297.504 878.539,296.01 877.046,294.517 875.552,293.77 872.566,293.77 871.072,294.517 869.579,296.01 868.832,297.504 868.086,299.744 868.086,303.477 868.832,305.717 869.579,307.211 871.072,308.704 872.566,309.451 875.552,309.451 877.046,308.704 878.539,307.211 879.286,305.717 " />
<polyline points="887.5,293.77 887.5,309.451 " />
<polyline points="882.273,293.77 892.727,293.77 " />
</g>
<g clip-path="url(#clipId0)" fill="rgb(0,0,0)" stroke="rgb(0,0,0)" stroke-width="0.25" >
<path d="M445.562,160.581 440.461,159.438 439.582,175.311 439.582,175.311 z" />
</g>
<g clip-path="url(#clipId0)" fill="none" stroke="rgb(0,0,0)" stroke-width="0.25" >
<polyline points="443.011,160.01 454.05,100.218 " />
<polyline points="454.05,100.218 469.731,100.218 " />
<polyline points="912.684,169.364 989.669,169.364 " />
<polyline points="912.684,430.708 989.669,430.708 " />
<polyline points="895.545,657.517 894.45,655.327 892.26,653.136 890.07,652.041 885.689,652.041 883.499,653.136 881.308,655.327 880.213,657.517 879.118,660.802 879.118,666.278 880.213,669.564 881.308,671.754 883.499,673.944 885.689,675.039 890.07,675.039 892.26,673.944 894.45,671.754 895.545,669.564 " />
<polyline points="903.211,652.041 903.211,675.039 " />
<polyline points="903.211,652.041 913.068,652.041 916.353,653.136 917.448,654.232 918.544,656.422 918.544,658.612 917.448,660.802 916.353,661.898 913.068,662.993 903.211,662.993 " />
<polyline points="910.877,662.993 918.544,675.039 " />
<polyline points="930.59,652.041 927.305,653.136 926.21,655.327 926.21,657.517 927.305,659.707 929.495,660.802 933.876,661.898 937.161,662.993 939.352,665.183 940.447,667.373 940.447,670.659 939.352,672.849 938.256,673.944 934.971,675.039 930.59,675.039 927.305,673.944 926.21,672.849 925.115,670.659 925.115,667.373 926.21,665.183 928.4,662.993 931.685,661.898 936.066,660.802 938.256,659.707 939.352,657.517 939.352,655.327 938.256,653.136 934.971,652.041 930.59,652.041 " />
<polyline points="948.113,665.183 967.826,665.183 " />
<polyline points="989.729,659.707 988.634,662.993 986.443,665.183 983.158,666.278 982.063,666.278 978.777,665.183 976.587,662.993 975.492,659.707 975.492,658.612 976.587,655.327 978.777,653.136 982.063,652.041 983.158,652.041 986.443,653.136 988.634,655.327 989.729,659.707 989.729,665.183 988.634,670.659 986.443,673.944 983.158,675.039 980.967,675.039 977.682,673.944 976.587,671.754 " />
</g>
</svg>
