<?xml version="1.0" standalone="no"?>
<svg viewBox="0 0 1024 768" version="1.1" xmlns="http://www.w3.org/2000/svg" xmlns:xlink="http://www.w3.org/1999/xlink" stroke-linecap="round" stroke-linejoin="round" fill-rule="evenodd" xml:space="preserve" >
<defs >
<clipPath id="clipId0" >
<path d="M0,768 1024,768 1024,0 0,0 z" />
</clipPath>
</defs>
<g clip-path="url(#clipId0)" fill="none" stroke="rgb(0,0,0)" stroke-width="0.1" />
<g clip-path="url(#clipId0)" fill="none" stroke="rgb(0,0,0)" stroke-width="0.25" >
<polyline points="41.4779,168.212 846.318,168.212 " />
<polyline points="41.4779,371.154 846.318,371.154 " />
<polyline points="982.522,130.202 982.522,251.532 " />
<polyline points="182.594,269.683 127.838,269.683 " />
</g>
<g clip-path="url(#clipId0)" fill="rgb(0,0,0)" stroke="rgb(0,0,0)" stroke-width="0.25" >
<path d="M182.594,266.301 182.594,273.065 202.888,269.683 202.888,269.683 z" />
</g>
<g clip-path="url(#clipId0)" fill="none" stroke="rgb(0,0,0)" stroke-width="0.25" >
<polyline points="244.5,371.154 244.5,168.212 " />
<polyline points="787.839,371.154 787.839,168.212 " />
<polyline points="312.148,235.859 720.191,235.859 " stroke-dasharray="33.823770,16.911885" />
<polyline points="312.148,303.507 720.191,303.507 " stroke-dasharray="33.823770,16.911885" />
<polyline points="312.148,337.331 720.191,337.331 " stroke-dasharray="33.823770,16.911885" />
<polyline points="312.148,202.035 720.191,202.035 " stroke-dasharray="33.823770,16.911885" />
</g>
<g clip-path="url(#clipId0)" fill="rgb(0,0,0)" stroke="rgb(0,0,0)" stroke-width="0.25" >
<path d="M547.49,168.155 553.719,170.794 542.688,188.161 542.688,188.161 z" />
</g>
<g clip-path="url(#clipId0)" fill="none" stroke="rgb(0,0,0)" stroke-width="0.25" >
<polyline points="550.604,169.474 591.068,73.9481 " />
<polyline points="591.068,73.9481 570.774,73.9481 " />
<polyline points="124.255,66.7001 122.322,64.7673 119.423,63.801 115.557,63.801 112.658,64.7673 110.726,66.7001 110.726,68.6329 111.692,70.5657 112.658,71.5321 114.591,72.4985 120.389,74.4313 122.322,75.3977 123.289,76.3641 124.255,78.2969 124.255,81.196 122.322,83.1288 119.423,84.0952 115.557,84.0952 112.658,83.1288 110.726,81.196 " />
<polyline points="135.852,63.801 133.919,64.7673 131.986,66.7001 131.02,68.6329 130.053,71.5321 130.053,76.3641 131.02,79.2632 131.986,81.196 133.919,83.1288 135.852,84.0952 139.717,84.0952 141.65,83.1288 143.583,81.196 144.549,79.2632 145.516,76.3641 145.516,71.5321 144.549,68.6329 143.583,66.7001 141.65,64.7673 139.717,63.801 135.852,63.801 " />
<polyline points="152.28,63.801 152.28,78.2969 153.247,81.196 155.18,83.1288 158.079,84.0952 160.012,84.0952 162.911,83.1288 164.844,81.196 165.81,78.2969 165.81,63.801 " />
<polyline points="173.541,63.801 173.541,84.0952 " />
<polyline points="173.541,63.801 187.071,84.0952 " />
<polyline points="187.071,63.801 187.071,84.0952 " />
<polyline points="194.802,63.801 194.802,84.0952 " />
<polyline points="194.802,63.801 201.567,63.801 204.466,64.7673 206.398,66.7001 207.365,68.6329 208.331,71.5321 208.331,76.3641 207.365,79.2632 206.398,81.196 204.466,83.1288 201.567,84.0952 194.802,84.0952 " />
<polyline points="240.222,63.801 232.491,84.0952 " />
<polyline points="240.222,63.801 247.953,84.0952 " />
<polyline points="235.39,77.3305 245.054,77.3305 " />
<polyline points="252.785,63.801 252.785,84.0952 " />
<polyline points="252.785,63.801 261.483,63.801 264.382,64.7673 265.348,65.7337 266.315,67.6665 266.315,69.5993 265.348,71.5321 264.382,72.4985 261.483,73.4649 " />
<polyline points="252.785,73.4649 261.483,73.4649 264.382,74.4313 265.348,75.3977 266.315,77.3305 266.315,80.2296 265.348,82.1624 264.382,83.1288 261.483,84.0952 252.785,84.0952 " />
<polyline points="285.643,66.7001 283.71,64.7673 280.811,63.801 276.945,63.801 274.046,64.7673 272.113,66.7001 272.113,68.6329 273.08,70.5657 274.046,71.5321 275.979,72.4985 281.777,74.4313 283.71,75.3977 284.676,76.3641 285.643,78.2969 285.643,81.196 283.71,83.1288 280.811,84.0952 276.945,84.0952 274.046,83.1288 272.113,81.196 " />
<polyline points="297.239,63.801 295.307,64.7673 293.374,66.7001 292.407,68.6329 291.441,71.5321 291.441,76.3641 292.407,79.2632 293.374,81.196 295.307,83.1288 297.239,84.0952 301.105,84.0952 303.038,83.1288 304.971,81.196 305.937,79.2632 306.903,76.3641 306.903,71.5321 305.937,68.6329 304.971,66.7001 303.038,64.7673 301.105,63.801 297.239,63.801 " />
<polyline points="313.668,63.801 313.668,84.0952 " />
<polyline points="313.668,63.801 322.366,63.801 325.265,64.7673 326.231,65.7337 327.198,67.6665 327.198,69.5993 326.231,71.5321 325.265,72.4985 322.366,73.4649 313.668,73.4649 " />
<polyline points="320.433,73.4649 327.198,84.0952 " />
<polyline points="333.962,63.801 333.962,84.0952 " />
<polyline points="333.962,63.801 342.66,63.801 345.559,64.7673 346.526,65.7337 347.492,67.6665 347.492,69.5993 346.526,71.5321 345.559,72.4985 342.66,73.4649 " />
<polyline points="333.962,73.4649 342.66,73.4649 345.559,74.4313 346.526,75.3977 347.492,77.3305 347.492,80.2296 346.526,82.1624 345.559,83.1288 342.66,84.0952 333.962,84.0952 " />
<polyline points="354.257,63.801 354.257,84.0952 " />
<polyline points="361.988,63.801 361.988,84.0952 " />
<polyline points="361.988,63.801 375.517,84.0952 " />
<polyline points="375.517,63.801 375.517,84.0952 " />
<polyline points="396.778,68.6329 395.812,66.7001 393.879,64.7673 391.946,63.801 388.08,63.801 386.148,64.7673 384.215,66.7001 383.248,68.6329 382.282,71.5321 382.282,76.3641 383.248,79.2632 384.215,81.196 386.148,83.1288 388.08,84.0952 391.946,84.0952 393.879,83.1288 395.812,81.196 396.778,79.2632 396.778,76.3641 " />
<polyline points="391.946,76.3641 396.778,76.3641 " />
<polyline points="423.837,63.801 423.837,84.0952 " />
<polyline points="423.837,63.801 431.568,84.0952 " />
<polyline points="439.299,63.801 431.568,84.0952 " />
<polyline points="439.299,63.801 439.299,84.0952 " />
<polyline points="451.862,63.801 444.131,84.0952 " />
<polyline points="451.862,63.801 459.594,84.0952 " />
<polyline points="447.03,77.3305 456.694,77.3305 " />
<polyline points="468.291,63.801 468.291,84.0952 " />
<polyline points="461.526,63.801 475.056,63.801 " />
<polyline points="479.888,63.801 479.888,84.0952 " />
<polyline points="479.888,63.801 492.451,63.801 " />
<polyline points="479.888,73.4649 487.619,73.4649 " />
<polyline points="479.888,84.0952 492.451,84.0952 " />
<polyline points="498.249,63.801 498.249,84.0952 " />
<polyline points="498.249,63.801 506.947,63.801 509.846,64.7673 510.812,65.7337 511.779,67.6665 511.779,69.5993 510.812,71.5321 509.846,72.4985 506.947,73.4649 498.249,73.4649 " />
<polyline points="505.014,73.4649 511.779,84.0952 " />
<polyline points="518.544,63.801 518.544,84.0952 " />
<polyline points="531.107,63.801 523.376,84.0952 " />
<polyline points="531.107,63.801 538.838,84.0952 " />
<polyline points="526.275,77.3305 535.939,77.3305 " />
<polyline points="543.67,63.801 543.67,84.0952 555.266,84.0952 " />
<path d="M312.148,235.859  A33.8238,33.8238 0 0,0 312.148,303.507 " stroke-dasharray="33.823770,16.911885" />
<path d="M720.191,303.507  A33.8238,33.8238 0 0,0 720.191,235.859 " stroke-dasharray="33.823770,16.911885" />
<path d="M278.324,168.212  A33.8238,33.8238 0 0,0 312.148,202.035 " stroke-dasharray="33.823770,16.911885" />
<path d="M312.148,337.331  A33.8238,33.8238 0 0,0 278.324,371.154 " stroke-dasharray="33.823770,16.911885" />
<path d="M720.191,202.035  A33.8238,33.8238 0 0,0 754.015,168.212 " stroke-dasharray="33.823770,16.911885" />
<path d="M754.015,371.154  A33.8238,33.8238 0 0,0 720.191,337.331 " stroke-dasharray="33.823770,16.911885" />
<polyline points="1013.96,251.532 951.083,287.834 " />
<polyline points="1013.96,251.532 982.522,251.532 " />
<polyline points="951.083,287.834 982.522,287.834 " />
<polyline points="982.522,287.834 982.522,409.164 " />
<polyline points="41.4779,287.834 41.4779,409.164 " />
<polyline points="10.0392,287.834 41.4779,287.834 " />
<polyline points="72.9165,251.532 41.4779,251.532 " />
<polyline points="72.9165,251.532 10.0392,287.834 " />
<polyline points="41.4779,130.202 41.4779,251.532 " />
<polyline points="476.873,202.035 510.697,168.212 " />
<polyline points="452.956,202.035 486.78,168.212 " />
<polyline points="429.039,202.035 462.863,168.212 " />
<polyline points="405.122,202.035 438.946,168.212 " />
<polyline points="381.205,202.035 415.029,168.212 " />
<polyline points="357.288,202.035 391.112,168.212 " />
<polyline points="333.371,202.035 367.195,168.212 " />
<polyline points="309.553,201.936 343.278,168.212 " />
<polyline points="292.111,195.462 319.361,168.212 " />
<polyline points="281.384,182.271 295.444,168.212 " />
<polyline points="500.79,202.035 534.614,168.212 " />
<polyline points="524.707,202.035 558.531,168.212 " />
<polyline points="548.624,202.035 582.448,168.212 " />
<polyline points="572.541,202.035 606.365,168.212 " />
<polyline points="596.458,202.035 630.282,168.212 " />
<polyline points="620.375,202.035 654.199,168.212 " />
<polyline points="644.292,202.035 678.116,168.212 " />
<polyline points="668.209,202.035 702.033,168.212 " />
<polyline points="692.126,202.035 725.95,168.212 " />
<polyline points="716.043,202.035 749.867,168.212 " />
<polyline points="523.619,202.035 489.795,168.212 " />
<polyline points="499.702,202.035 465.878,168.212 " />
<polyline points="475.785,202.035 441.961,168.212 " />
<polyline points="451.868,202.035 418.044,168.212 " />
<polyline points="427.951,202.035 394.127,168.212 " />
<polyline points="404.034,202.035 370.21,168.212 " />
<polyline points="380.117,202.035 346.293,168.212 " />
<polyline points="356.2,202.035 322.376,168.212 " />
<polyline points="332.283,202.035 298.459,168.212 " />
<polyline points="308.126,201.796 278.564,172.233 " />
<polyline points="547.536,202.035 513.713,168.212 " />
<polyline points="571.453,202.035 537.63,168.212 " />
<polyline points="595.37,202.035 561.547,168.212 " />
<polyline points="619.287,202.035 585.464,168.212 " />
<polyline points="643.204,202.035 609.381,168.212 " />
<polyline points="667.121,202.035 633.298,168.212 " />
<polyline points="691.038,202.035 657.215,168.212 " />
<polyline points="714.955,202.035 681.132,168.212 " />
<polyline points="735.307,198.47 705.049,168.212 " />
<polyline points="748.09,187.336 728.966,168.212 " />
<polyline points="753.997,169.326 752.883,168.212 " />
<polyline points="471.07,303.507 538.717,235.859 " />
<polyline points="447.153,303.507 514.8,235.859 " />
<polyline points="423.236,303.507 490.883,235.859 " />
<polyline points="399.319,303.507 466.966,235.859 " />
<polyline points="375.402,303.507 443.049,235.859 " />
<polyline points="351.485,303.507 419.132,235.859 " />
<polyline points="327.568,303.507 395.215,235.859 " />
<polyline points="304.522,302.636 371.298,235.859 " />
<polyline points="288.946,294.294 347.381,235.859 " />
<polyline points="279.79,279.533 323.464,235.859 " />
<polyline points="283.172,252.234 294.699,240.708 " />
<polyline points="494.987,303.507 562.634,235.859 " />
<polyline points="518.904,303.507 586.551,235.859 " />
<polyline points="542.821,303.507 610.468,235.859 " />
<polyline points="566.738,303.507 634.385,235.859 " />
<polyline points="590.655,303.507 658.302,235.859 " />
<polyline points="614.572,303.507 682.219,235.859 " />
<polyline points="638.489,303.507 706.136,235.859 " />
<polyline points="662.406,303.507 728.91,237.002 " />
<polyline points="686.323,303.507 744.086,245.744 " />
<polyline points="710.24,303.507 752.853,260.894 " />
<polyline points="743.053,294.611 745.119,292.544 " />
<polyline points="529.422,303.507 461.775,235.859 " />
<polyline points="505.505,303.507 437.858,235.859 " />
<polyline points="481.588,303.507 413.941,235.859 " />
<polyline points="457.671,303.507 390.024,235.859 " />
<polyline points="433.754,303.507 366.107,235.859 " />
<polyline points="409.837,303.507 342.19,235.859 " />
<polyline points="385.92,303.507 318.273,235.859 " />
<polyline points="362.003,303.507 297.63,239.133 " />
<polyline points="338.086,303.507 284.615,250.036 " />
<polyline points="314.169,303.507 278.381,267.719 " />
<polyline points="553.34,303.507 485.692,235.859 " />
<polyline points="577.257,303.507 509.609,235.859 " />
<polyline points="601.174,303.507 533.526,235.859 " />
<polyline points="625.091,303.507 557.443,235.859 " />
<polyline points="649.008,303.507 581.36,235.859 " />
<polyline points="672.925,303.507 605.277,235.859 " />
<polyline points="696.842,303.507 629.194,235.859 " />
<polyline points="720.754,303.502 653.111,235.859 " />
<polyline points="738.978,297.809 677.028,235.859 " />
<polyline points="750.259,285.173 700.945,235.859 " />
<polyline points="753.636,264.633 725.241,236.238 " />
<polyline points="499.09,371.154 532.914,337.331 " />
<polyline points="475.173,371.154 508.997,337.331 " />
<polyline points="451.256,371.154 485.08,337.331 " />
<polyline points="427.339,371.154 461.163,337.331 " />
<polyline points="403.422,371.154 437.246,337.331 " />
<polyline points="379.505,371.154 413.329,337.331 " />
<polyline points="355.588,371.154 389.412,337.331 " />
<polyline points="331.671,371.154 365.495,337.331 " />
<polyline points="307.754,371.154 341.578,337.331 " />
<polyline points="283.837,371.154 317.661,337.331 " />
<polyline points="523.007,371.154 556.831,337.331 " />
<polyline points="546.924,371.154 580.748,337.331 " />
<polyline points="570.841,371.154 604.665,337.331 " />
<polyline points="594.758,371.154 628.582,337.331 " />
<polyline points="618.675,371.154 652.499,337.331 " />
<polyline points="642.592,371.154 676.416,337.331 " />
<polyline points="666.509,371.154 700.333,337.331 " />
<polyline points="690.426,371.154 724.031,337.549 " />
<polyline points="714.343,371.154 741.005,344.493 " />
<polyline points="738.26,371.154 751.371,358.044 " />
<polyline points="525.319,371.154 491.495,337.331 " />
<polyline points="501.402,371.154 467.578,337.331 " />
<polyline points="477.485,371.154 443.661,337.331 " />
<polyline points="453.568,371.154 419.744,337.331 " />
<polyline points="429.651,371.154 395.827,337.331 " />
<polyline points="405.734,371.154 371.91,337.331 " />
<polyline points="381.817,371.154 347.993,337.331 " />
<polyline points="357.9,371.154 324.076,337.331 " />
<polyline points="333.983,371.154 301.785,338.957 " />
<polyline points="310.066,371.154 287.212,348.301 " />
<polyline points="286.149,371.154 279.073,364.078 " />
<polyline points="549.236,371.154 515.412,337.331 " />
<polyline points="573.153,371.154 539.329,337.331 " />
<polyline points="597.07,371.154 563.246,337.331 " />
<polyline points="620.987,371.154 587.163,337.331 " />
<polyline points="644.904,371.154 611.08,337.331 " />
<polyline points="668.821,371.154 634.997,337.331 " />
<polyline points="692.738,371.154 658.914,337.331 " />
<polyline points="716.655,371.154 682.831,337.331 " />
<polyline points="740.572,371.154 706.748,337.331 " />
<polyline points="751.365,358.03 733.315,339.981 " />
<polyline points="130.283,238.807 128.35,239.774 126.418,241.706 125.451,243.639 124.485,246.538 124.485,251.37 125.451,254.269 126.418,256.202 128.35,258.135 130.283,259.101 134.149,259.101 136.082,258.135 138.014,256.202 138.981,254.269 139.947,251.37 139.947,246.538 138.981,243.639 138.014,241.706 136.082,239.774 134.149,238.807 130.283,238.807 " />
<polyline points="133.182,255.236 138.981,261.034 " />
<polyline points="132.599,278.725 124.868,299.019 " />
<polyline points="132.599,278.725 140.331,299.019 " />
<polyline points="127.767,292.255 137.431,292.255 " />
<polyline points="150.613,291.686 148.874,292.266 147.714,294.006 147.134,296.905 147.134,298.644 147.714,301.543 148.874,303.283 150.613,303.863 151.773,303.863 153.513,303.283 154.672,301.543 155.252,298.644 155.252,296.905 154.672,294.006 153.513,292.266 151.773,291.686 150.613,291.686 " />
<polyline points="244.5,379.61 244.5,485.1 " />
<polyline points="787.839,379.61 787.839,485.1 " />
<polyline points="264.794,460.747 498.195,460.747 " />
<polyline points="767.545,460.747 534.144,460.747 " />
</g>
<g clip-path="url(#clipId0)" fill="rgb(0,0,0)" stroke="rgb(0,0,0)" stroke-width="0.25" >
<path d="M264.794,457.364 264.794,464.129 244.5,460.747 244.5,460.747 z" />
<path d="M767.545,457.364 767.545,464.129 787.839,460.747 787.839,460.747 z" />
</g>
<g clip-path="url(#clipId0)" fill="none" stroke="rgb(0,0,0)" stroke-width="0.25" >
<polyline points="510.371,450.6 510.371,470.894 521.968,470.894 " />
<polyline points="816.247,263.523 821.079,283.817 " />
<polyline points="825.911,263.523 821.079,283.817 " />
<polyline points="825.911,263.523 830.743,283.817 " />
<polyline points="835.575,263.523 830.743,283.817 " />
<polyline points="860.701,270.287 871.331,283.817 " />
<polyline points="871.331,270.287 860.701,283.817 " />
<polyline points="898.39,263.523 898.39,283.817 " />
<polyline points="911.92,263.523 911.92,283.817 " />
<polyline points="898.39,273.187 911.92,273.187 " />
<polyline points="127.838,269.683 94.0139,269.683 " />
<polyline points="846.318,168.212 982.522,168.212 " />
<polyline points="846.318,371.154 982.522,371.154 " />
<polyline points="868.114,681.521 866.696,678.686 863.862,675.852 861.027,674.434 855.357,674.434 852.523,675.852 849.688,678.686 848.27,681.521 846.853,685.773 846.853,692.86 848.27,697.112 849.688,699.947 852.523,702.782 855.357,704.199 861.027,704.199 863.862,702.782 866.696,699.947 868.114,697.112 " />
<polyline points="878.035,674.434 878.035,704.199 " />
<polyline points="878.035,674.434 890.792,674.434 895.044,675.852 896.461,677.269 897.879,680.104 897.879,682.938 896.461,685.773 895.044,687.191 890.792,688.608 878.035,688.608 " />
<polyline points="887.957,688.608 897.879,704.199 " />
<polyline points="913.47,674.434 909.218,675.852 907.8,678.686 907.8,681.521 909.218,684.356 912.052,685.773 917.722,687.191 921.974,688.608 924.809,691.443 926.226,694.277 926.226,698.53 924.809,701.364 923.391,702.782 919.139,704.199 913.47,704.199 909.218,702.782 907.8,701.364 906.383,698.53 906.383,694.277 907.8,691.443 910.635,688.608 914.887,687.191 920.557,685.773 923.391,684.356 924.809,681.521 924.809,678.686 923.391,675.852 919.139,674.434 913.47,674.434 " />
<polyline points="936.148,691.443 961.661,691.443 " />
<polyline points="975.834,680.104 978.669,678.686 982.921,674.434 982.921,704.199 " />
</g>
</svg>
