<?xml version="1.0" standalone="no"?>
<svg viewBox="0 0 1024 768" version="1.1" xmlns="http://www.w3.org/2000/svg" xmlns:xlink="http://www.w3.org/1999/xlink" stroke-linecap="round" stroke-linejoin="round" fill-rule="evenodd" xml:space="preserve" >
<defs >
<clipPath id="clipId0" >
<path d="M0,768 1024,768 1024,0 0,0 z" />
</clipPath>
</defs>
<g clip-path="url(#clipId0)" fill="none" stroke="rgb(0,0,0)" stroke-width="0.1" />
<g clip-path="url(#clipId0)" fill="none" stroke="rgb(0,0,0)" stroke-width="0.25" >
<polyline points="99.2955,166.97 924.704,166.97 " />
<polyline points="99.2955,375.099 924.704,375.099 " />
<polyline points="981.719,127.989 981.719,252.42 " />
<polyline points="187.004,271.035 130.848,271.035 " />
</g>
<g clip-path="url(#clipId0)" fill="rgb(0,0,0)" stroke="rgb(0,0,0)" stroke-width="0.25" >
<path d="M187.004,267.566 187.004,274.504 207.816,271.035 207.816,271.035 z" />
</g>
<g clip-path="url(#clipId0)" fill="none" stroke="rgb(0,0,0)" stroke-width="0.25" >
<polyline points="233.388,375.099 233.388,166.97 " />
<polyline points="790.612,375.099 790.612,166.97 " />
<polyline points="302.764,236.347 721.236,236.347 " stroke-dasharray="34.688176,17.344088" />
<polyline points="302.764,305.723 721.236,305.723 " stroke-dasharray="34.688176,17.344088" />
<polyline points="302.764,340.411 721.236,340.411 " stroke-dasharray="34.688176,17.344088" />
<polyline points="302.764,201.658 721.236,201.658 " stroke-dasharray="34.688176,17.344088" />
</g>
<g clip-path="url(#clipId0)" fill="rgb(0,0,0)" stroke="rgb(0,0,0)" stroke-width="0.25" >
<path d="M544.12,166.912 550.509,169.618 539.197,187.43 539.197,187.43 z" />
</g>
<g clip-path="url(#clipId0)" fill="none" stroke="rgb(0,0,0)" stroke-width="0.25" >
<polyline points="547.315,168.265 588.813,70.2975 " />
<polyline points="588.813,70.2975 568,70.2975 " />
<polyline points="110.07,62.8643 108.088,60.8822 105.114,59.8911 101.15,59.8911 98.1766,60.8822 96.1944,62.8643 96.1944,64.8465 97.1855,66.8287 98.1766,67.8198 100.159,68.8109 106.105,70.7931 108.088,71.7842 109.079,72.7752 110.07,74.7574 110.07,77.7307 108.088,79.7129 105.114,80.704 101.15,80.704 98.1766,79.7129 96.1944,77.7307 " />
<polyline points="121.963,59.8911 119.981,60.8822 117.998,62.8643 117.007,64.8465 116.016,67.8198 116.016,72.7752 117.007,75.7485 117.998,77.7307 119.981,79.7129 121.963,80.704 125.927,80.704 127.909,79.7129 129.892,77.7307 130.883,75.7485 131.874,72.7752 131.874,67.8198 130.883,64.8465 129.892,62.8643 127.909,60.8822 125.927,59.8911 121.963,59.8911 " />
<polyline points="138.811,59.8911 138.811,74.7574 139.802,77.7307 141.785,79.7129 144.758,80.704 146.74,80.704 149.713,79.7129 151.695,77.7307 152.687,74.7574 152.687,59.8911 " />
<polyline points="160.615,59.8911 160.615,80.704 " />
<polyline points="160.615,59.8911 174.491,80.704 " />
<polyline points="174.491,59.8911 174.491,80.704 " />
<polyline points="182.419,59.8911 182.419,80.704 " />
<polyline points="182.419,59.8911 189.357,59.8911 192.33,60.8822 194.312,62.8643 195.303,64.8465 196.295,67.8198 196.295,72.7752 195.303,75.7485 194.312,77.7307 192.33,79.7129 189.357,80.704 182.419,80.704 " />
<polyline points="229.001,59.8911 221.072,80.704 " />
<polyline points="229.001,59.8911 236.929,80.704 " />
<polyline points="224.045,73.7663 233.956,73.7663 " />
<polyline points="241.885,59.8911 241.885,80.704 " />
<polyline points="241.885,59.8911 250.805,59.8911 253.778,60.8822 254.769,61.8733 255.76,63.8554 255.76,65.8376 254.769,67.8198 253.778,68.8109 250.805,69.802 " />
<polyline points="241.885,69.802 250.805,69.802 253.778,70.7931 254.769,71.7842 255.76,73.7663 255.76,76.7396 254.769,78.7218 253.778,79.7129 250.805,80.704 241.885,80.704 " />
<polyline points="275.582,62.8643 273.6,60.8822 270.626,59.8911 266.662,59.8911 263.689,60.8822 261.707,62.8643 261.707,64.8465 262.698,66.8287 263.689,67.8198 265.671,68.8109 271.617,70.7931 273.6,71.7842 274.591,72.7752 275.582,74.7574 275.582,77.7307 273.6,79.7129 270.626,80.704 266.662,80.704 263.689,79.7129 261.707,77.7307 " />
<polyline points="287.475,59.8911 285.493,60.8822 283.511,62.8643 282.519,64.8465 281.528,67.8198 281.528,72.7752 282.519,75.7485 283.511,77.7307 285.493,79.7129 287.475,80.704 291.439,80.704 293.421,79.7129 295.404,77.7307 296.395,75.7485 297.386,72.7752 297.386,67.8198 296.395,64.8465 295.404,62.8643 293.421,60.8822 291.439,59.8911 287.475,59.8911 " />
<polyline points="304.323,59.8911 304.323,80.704 " />
<polyline points="304.323,59.8911 313.243,59.8911 316.217,60.8822 317.208,61.8733 318.199,63.8554 318.199,65.8376 317.208,67.8198 316.217,68.8109 313.243,69.802 304.323,69.802 " />
<polyline points="311.261,69.802 318.199,80.704 " />
<polyline points="325.136,59.8911 325.136,80.704 " />
<polyline points="325.136,59.8911 334.056,59.8911 337.029,60.8822 338.021,61.8733 339.012,63.8554 339.012,65.8376 338.021,67.8198 337.029,68.8109 334.056,69.802 " />
<polyline points="325.136,69.802 334.056,69.802 337.029,70.7931 338.021,71.7842 339.012,73.7663 339.012,76.7396 338.021,78.7218 337.029,79.7129 334.056,80.704 325.136,80.704 " />
<polyline points="345.949,59.8911 345.949,80.704 " />
<polyline points="353.878,59.8911 353.878,80.704 " />
<polyline points="353.878,59.8911 367.753,80.704 " />
<polyline points="367.753,59.8911 367.753,80.704 " />
<polyline points="389.557,64.8465 388.566,62.8643 386.584,60.8822 384.602,59.8911 380.637,59.8911 378.655,60.8822 376.673,62.8643 375.682,64.8465 374.691,67.8198 374.691,72.7752 375.682,75.7485 376.673,77.7307 378.655,79.7129 380.637,80.704 384.602,80.704 386.584,79.7129 388.566,77.7307 389.557,75.7485 389.557,72.7752 " />
<polyline points="384.602,72.7752 389.557,72.7752 " />
<polyline points="417.308,59.8911 417.308,80.704 " />
<polyline points="417.308,59.8911 425.237,80.704 " />
<polyline points="433.165,59.8911 425.237,80.704 " />
<polyline points="433.165,59.8911 433.165,80.704 " />
<polyline points="446.049,59.8911 438.121,80.704 " />
<polyline points="446.049,59.8911 453.978,80.704 " />
<polyline points="441.094,73.7663 451.005,73.7663 " />
<polyline points="462.898,59.8911 462.898,80.704 " />
<polyline points="455.96,59.8911 469.836,59.8911 " />
<polyline points="474.791,59.8911 474.791,80.704 " />
<polyline points="474.791,59.8911 487.675,59.8911 " />
<polyline points="474.791,69.802 482.72,69.802 " />
<polyline points="474.791,80.704 487.675,80.704 " />
<polyline points="493.622,59.8911 493.622,80.704 " />
<polyline points="493.622,59.8911 502.542,59.8911 505.515,60.8822 506.506,61.8733 507.497,63.8554 507.497,65.8376 506.506,67.8198 505.515,68.8109 502.542,69.802 493.622,69.802 " />
<polyline points="500.559,69.802 507.497,80.704 " />
<polyline points="514.435,59.8911 514.435,80.704 " />
<polyline points="527.319,59.8911 519.39,80.704 " />
<polyline points="527.319,59.8911 535.248,80.704 " />
<polyline points="522.363,73.7663 532.274,73.7663 " />
<polyline points="540.203,59.8911 540.203,80.704 552.096,80.704 " />
<path d="M302.764,236.347  A34.6882,34.6882 0 0,0 302.764,305.723 " stroke-dasharray="34.688176,17.344088" />
<path d="M721.236,305.723  A34.6882,34.6882 0 0,0 721.236,236.347 " stroke-dasharray="34.688176,17.344088" />
<path d="M268.076,166.97  A34.6882,34.6882 0 0,0 302.764,201.658 " stroke-dasharray="34.688176,17.344088" />
<path d="M302.764,340.411  A34.6882,34.6882 0 0,0 268.076,375.099 " stroke-dasharray="34.688176,17.344088" />
<path d="M721.236,201.658  A34.6882,34.6882 0 0,0 755.924,166.97 " stroke-dasharray="34.688176,17.344088" />
<path d="M755.924,375.099  A34.6882,34.6882 0 0,0 721.236,340.411 " stroke-dasharray="34.688176,17.344088" />
<polyline points="1013.96,252.42 949.477,289.65 " />
<polyline points="1013.96,252.42 981.719,252.42 " />
<polyline points="949.477,289.65 981.719,289.65 " />
<polyline points="981.719,289.65 981.719,414.08 " />
<polyline points="42.2813,289.65 42.2813,414.08 " />
<polyline points="10.0392,289.65 42.2813,289.65 " />
<polyline points="74.5234,252.42 42.2813,252.42 " />
<polyline points="74.5234,252.42 10.0392,289.65 " />
<polyline points="42.2813,127.989 42.2813,252.42 " />
<polyline points="471.699,201.658 506.387,166.97 " />
<polyline points="447.171,201.658 481.859,166.97 " />
<polyline points="422.643,201.658 457.331,166.97 " />
<polyline points="398.114,201.658 432.803,166.97 " />
<polyline points="373.586,201.658 408.274,166.97 " />
<polyline points="349.058,201.658 383.746,166.97 " />
<polyline points="324.53,201.658 359.218,166.97 " />
<polyline points="300.104,201.556 334.69,166.97 " />
<polyline points="282.215,194.917 310.161,166.97 " />
<polyline points="271.215,181.389 285.633,166.97 " />
<polyline points="496.227,201.658 530.916,166.97 " />
<polyline points="520.756,201.658 555.444,166.97 " />
<polyline points="545.284,201.658 579.972,166.97 " />
<polyline points="569.812,201.658 604.5,166.97 " />
<polyline points="594.34,201.658 629.029,166.97 " />
<polyline points="618.869,201.658 653.557,166.97 " />
<polyline points="643.397,201.658 678.085,166.97 " />
<polyline points="667.925,201.658 702.613,166.97 " />
<polyline points="692.453,201.658 727.141,166.97 " />
<polyline points="716.982,201.658 751.67,166.97 " />
<polyline points="519.64,201.658 484.952,166.97 " />
<polyline points="495.112,201.658 460.424,166.97 " />
<polyline points="470.584,201.658 435.895,166.97 " />
<polyline points="446.055,201.658 411.367,166.97 " />
<polyline points="421.527,201.658 386.839,166.97 " />
<polyline points="396.999,201.658 362.311,166.97 " />
<polyline points="372.471,201.658 337.782,166.97 " />
<polyline points="347.942,201.658 313.254,166.97 " />
<polyline points="323.414,201.658 288.726,166.97 " />
<polyline points="298.64,201.412 268.322,171.095 " />
<polyline points="544.168,201.658 509.48,166.97 " />
<polyline points="568.697,201.658 534.008,166.97 " />
<polyline points="593.225,201.658 558.537,166.97 " />
<polyline points="617.753,201.658 583.065,166.97 " />
<polyline points="642.281,201.658 607.593,166.97 " />
<polyline points="666.81,201.658 632.121,166.97 " />
<polyline points="691.338,201.658 656.65,166.97 " />
<polyline points="715.866,201.658 681.178,166.97 " />
<polyline points="736.738,198.002 705.706,166.97 " />
<polyline points="749.847,186.583 730.234,166.97 " />
<polyline points="755.905,168.113 754.763,166.97 " />
<polyline points="465.748,305.723 535.124,236.347 " />
<polyline points="441.219,305.723 510.596,236.347 " />
<polyline points="416.691,305.723 486.067,236.347 " />
<polyline points="392.163,305.723 461.539,236.347 " />
<polyline points="367.635,305.723 437.011,236.347 " />
<polyline points="343.106,305.723 412.483,236.347 " />
<polyline points="318.578,305.723 387.954,236.347 " />
<polyline points="294.943,304.83 363.426,236.347 " />
<polyline points="278.969,296.275 338.898,236.347 " />
<polyline points="269.58,281.137 314.37,236.347 " />
<polyline points="273.048,253.14 284.869,241.319 " />
<polyline points="490.276,305.723 559.652,236.347 " />
<polyline points="514.804,305.723 584.18,236.347 " />
<polyline points="539.332,305.723 608.709,236.347 " />
<polyline points="563.861,305.723 633.237,236.347 " />
<polyline points="588.389,305.723 657.765,236.347 " />
<polyline points="612.917,305.723 682.293,236.347 " />
<polyline points="637.445,305.723 706.822,236.347 " />
<polyline points="661.974,305.723 730.178,237.519 " />
<polyline points="686.502,305.723 745.741,246.484 " />
<polyline points="711.03,305.723 754.732,262.021 " />
<polyline points="744.681,296.6 746.801,294.48 " />
<polyline points="525.592,305.723 456.215,236.347 " />
<polyline points="501.063,305.723 431.687,236.347 " />
<polyline points="476.535,305.723 407.159,236.347 " />
<polyline points="452.007,305.723 382.631,236.347 " />
<polyline points="427.479,305.723 358.102,236.347 " />
<polyline points="402.95,305.723 333.574,236.347 " />
<polyline points="378.422,305.723 309.046,236.347 " />
<polyline points="353.894,305.723 287.875,239.704 " />
<polyline points="329.366,305.723 274.528,250.885 " />
<polyline points="304.837,305.723 268.135,269.02 " />
<polyline points="550.12,305.723 480.744,236.347 " />
<polyline points="574.648,305.723 505.272,236.347 " />
<polyline points="599.176,305.723 529.8,236.347 " />
<polyline points="623.705,305.723 554.328,236.347 " />
<polyline points="648.233,305.723 578.857,236.347 " />
<polyline points="672.761,305.723 603.385,236.347 " />
<polyline points="697.289,305.723 627.913,236.347 " />
<polyline points="721.813,305.718 652.441,236.347 " />
<polyline points="740.503,299.88 676.97,236.347 " />
<polyline points="752.072,286.921 701.498,236.347 " />
<polyline points="755.535,265.856 726.415,236.735 " />
<polyline points="494.484,375.099 529.172,340.411 " />
<polyline points="469.956,375.099 504.644,340.411 " />
<polyline points="445.428,375.099 480.116,340.411 " />
<polyline points="420.899,375.099 455.588,340.411 " />
<polyline points="396.371,375.099 431.059,340.411 " />
<polyline points="371.843,375.099 406.531,340.411 " />
<polyline points="347.315,375.099 382.003,340.411 " />
<polyline points="322.786,375.099 357.475,340.411 " />
<polyline points="298.258,375.099 332.946,340.411 " />
<polyline points="273.73,375.099 308.418,340.411 " />
<polyline points="519.012,375.099 553.701,340.411 " />
<polyline points="543.541,375.099 578.229,340.411 " />
<polyline points="568.069,375.099 602.757,340.411 " />
<polyline points="592.597,375.099 627.285,340.411 " />
<polyline points="617.125,375.099 651.814,340.411 " />
<polyline points="641.654,375.099 676.342,340.411 " />
<polyline points="666.182,375.099 700.87,340.411 " />
<polyline points="690.71,375.099 725.174,340.635 " />
<polyline points="715.238,375.099 742.581,347.756 " />
<polyline points="739.767,375.099 753.212,361.654 " />
<polyline points="521.383,375.099 486.695,340.411 " />
<polyline points="496.855,375.099 462.167,340.411 " />
<polyline points="472.327,375.099 437.639,340.411 " />
<polyline points="447.799,375.099 413.11,340.411 " />
<polyline points="423.27,375.099 388.582,340.411 " />
<polyline points="398.742,375.099 364.054,340.411 " />
<polyline points="374.214,375.099 339.526,340.411 " />
<polyline points="349.686,375.099 314.997,340.411 " />
<polyline points="325.157,375.099 292.137,342.079 " />
<polyline points="300.629,375.099 277.192,351.662 " />
<polyline points="276.101,375.099 268.844,367.842 " />
<polyline points="545.912,375.099 511.223,340.411 " />
<polyline points="570.44,375.099 535.752,340.411 " />
<polyline points="594.968,375.099 560.28,340.411 " />
<polyline points="619.496,375.099 584.808,340.411 " />
<polyline points="644.025,375.099 609.336,340.411 " />
<polyline points="668.553,375.099 633.865,340.411 " />
<polyline points="693.081,375.099 658.393,340.411 " />
<polyline points="717.609,375.099 682.921,340.411 " />
<polyline points="742.138,375.099 707.449,340.411 " />
<polyline points="753.206,361.64 734.695,343.129 " />
<polyline points="139.058,239.37 137.075,240.361 135.093,242.343 134.102,244.325 133.111,247.298 133.111,252.254 134.102,255.227 135.093,257.209 137.075,259.192 139.058,260.183 143.022,260.183 145.004,259.192 146.986,257.209 147.977,255.227 148.969,252.254 148.969,247.298 147.977,244.325 146.986,242.343 145.004,240.361 143.022,239.37 139.058,239.37 " />
<polyline points="142.031,256.218 147.977,262.165 " />
<polyline points="141.433,280.308 133.504,301.121 " />
<polyline points="141.433,280.308 149.362,301.121 " />
<polyline points="136.478,294.183 146.388,294.183 " />
<polyline points="159.907,293.6 158.123,294.195 156.934,295.979 156.339,298.952 156.339,300.736 156.934,303.709 158.123,305.493 159.907,306.088 161.097,306.088 162.881,305.493 164.07,303.709 164.665,300.736 164.665,298.952 164.07,295.979 162.881,294.195 161.097,293.6 159.907,293.6 " />
<polyline points="233.388,383.771 233.388,491.957 " />
<polyline points="790.612,383.771 790.612,491.957 " />
<polyline points="254.201,466.981 493.566,466.981 " />
<polyline points="769.799,466.981 530.434,466.981 " />
</g>
<g clip-path="url(#clipId0)" fill="rgb(0,0,0)" stroke="rgb(0,0,0)" stroke-width="0.25" >
<path d="M254.201,463.513 254.201,470.45 233.388,466.981 233.388,466.981 z" />
<path d="M769.799,463.513 769.799,470.45 790.612,466.981 790.612,466.981 z" />
</g>
<g clip-path="url(#clipId0)" fill="none" stroke="rgb(0,0,0)" stroke-width="0.25" >
<polyline points="506.053,456.575 506.053,477.388 517.947,477.388 " />
<polyline points="816.896,261.868 821.851,282.681 " />
<polyline points="826.807,261.868 821.851,282.681 " />
<polyline points="826.807,261.868 831.762,282.681 " />
<polyline points="836.717,261.868 831.762,282.681 " />
<polyline points="862.486,268.806 873.388,282.681 " />
<polyline points="873.388,268.806 862.486,282.681 " />
<polyline points="901.138,261.868 901.138,282.681 " />
<polyline points="915.014,261.868 915.014,282.681 " />
<polyline points="901.138,271.779 915.014,271.779 " />
<polyline points="924.704,166.97 981.719,166.97 " />
<polyline points="924.704,375.099 981.719,375.099 " />
<polyline points="99.2955,166.97 42.2813,166.97 " />
<polyline points="99.2955,375.099 42.2813,375.099 " />
<polyline points="130.848,271.035 96.1599,271.035 " />
<polyline points="861.536,684.851 860.082,681.944 857.175,679.037 854.268,677.583 848.453,677.583 845.546,679.037 842.639,681.944 841.185,684.851 839.732,689.212 839.732,696.48 841.185,700.841 842.639,703.748 845.546,706.655 848.453,708.109 854.268,708.109 857.175,706.655 860.082,703.748 861.536,700.841 " />
<polyline points="871.711,677.583 871.711,708.109 " />
<polyline points="871.711,677.583 884.793,677.583 889.154,679.037 890.608,680.491 892.061,683.398 892.061,686.305 890.608,689.212 889.154,690.666 884.793,692.119 871.711,692.119 " />
<polyline points="881.886,692.119 892.061,708.109 " />
<polyline points="908.051,677.583 903.69,679.037 902.237,681.944 902.237,684.851 903.69,687.759 906.597,689.212 912.412,690.666 916.773,692.119 919.68,695.027 921.133,697.934 921.133,702.295 919.68,705.202 918.226,706.655 913.865,708.109 908.051,708.109 903.69,706.655 902.237,705.202 900.783,702.295 900.783,697.934 902.237,695.027 905.144,692.119 909.505,690.666 915.319,689.212 918.226,687.759 919.68,684.851 919.68,681.944 918.226,679.037 913.865,677.583 908.051,677.583 " />
<polyline points="931.309,695.027 957.473,695.027 " />
<polyline points="982.185,677.583 967.649,697.934 989.453,697.934 " />
<polyline points="982.185,677.583 982.185,708.109 " />
</g>
</svg>
