<?xml version="1.0" standalone="no"?>
<svg viewBox="0 0 1024 768" version="1.1" xmlns="http://www.w3.org/2000/svg" xmlns:xlink="http://www.w3.org/1999/xlink" stroke-linecap="round" stroke-linejoin="round" fill-rule="evenodd" xml:space="preserve" >
<defs >
<clipPath id="clipId0" >
<path d="M0,768 1024,768 1024,0 0,0 z" />
</clipPath>
</defs>
<g clip-path="url(#clipId0)" fill="none" stroke="rgb(0,0,0)" stroke-width="0.1" />
<g clip-path="url(#clipId0)" fill="none" stroke="rgb(0,0,0)" stroke-width="0.25" >
<polyline points="422.252,7.52941 422.252,206.545 " />
<polyline points="540.648,7.52941 540.648,206.545 " />
<polyline points="171.855,258.343 441.356,258.343 " />
<polyline points="422.252,199.145 540.648,199.145 " />
<polyline points="422.252,554.333 540.648,554.333 " />
<polyline points="540.648,546.933 540.648,735.778 " />
<polyline points="422.252,546.933 422.252,735.778 " />
<polyline points="372.921,206.545 589.98,206.545 " />
<polyline points="372.921,208.716 589.98,208.716 " />
<polyline points="589.98,206.545 589.98,208.716 " />
<polyline points="372.921,206.545 372.921,208.716 " />
<polyline points="545.581,180.893 545.581,195.692 " />
<polyline points="551.501,201.612 566.3,201.612 " />
<polyline points="540.648,176.946 541.635,176.946 " />
<polyline points="570.247,205.559 570.247,206.545 " />
<path d="M545.581,180.893  A3.94653,3.94653 0 0,0 541.635,176.946 " />
<path d="M570.247,205.559  A3.94653,3.94653 0 0,0 566.3,201.612 " />
<path d="M545.581,195.692  A5.91979,5.91979 0 0,0 551.501,201.612 " />
<polyline points="558.901,190.868 558.901,221.313 " />
<polyline points="555.583,197.665 562.218,197.665 " />
<polyline points="562.748,198.293 562.748,201.612 " />
<polyline points="555.053,198.293 555.053,201.612 " />
<polyline points="560.775,198.293 560.775,201.612 " />
<polyline points="557.026,198.293 557.026,201.612 " />
<polyline points="555.053,198.293 562.748,198.293 " />
<path d="M557.026,198.293  A1.08911,1.08911 0 0,0 555.053,198.293 " />
<path d="M560.775,198.293  A3.11226,3.11226 0 0,0 557.026,198.293 " />
<path d="M562.748,198.293  A1.08911,1.08911 0 0,0 560.775,198.293 " />
<polyline points="555.053,198.293 555.583,197.665 " />
<polyline points="562.748,198.293 562.218,197.665 " />
<polyline points="562.748,212.034 562.218,212.662 " />
<polyline points="555.053,212.034 555.583,212.662 " />
<path d="M560.775,212.034  A1.08911,1.08911 0 0,0 562.748,212.034 " />
<path d="M557.026,212.034  A3.11226,3.11226 0 0,0 560.775,212.034 " />
<path d="M555.053,212.034  A1.08911,1.08911 0 0,0 557.026,212.034 " />
<polyline points="555.053,212.034 562.748,212.034 " />
<polyline points="557.026,212.034 557.026,208.716 " />
<polyline points="560.775,212.034 560.775,208.716 " />
<polyline points="555.053,212.034 555.053,208.716 " />
<polyline points="562.748,212.034 562.748,208.716 " />
<polyline points="555.583,212.662 562.218,212.662 " />
<polyline points="561.367,214.636 561.367,212.662 " />
<polyline points="556.434,214.636 556.434,212.662 " />
<polyline points="557.421,213.649 560.381,213.649 " />
<polyline points="556.434,214.636 561.367,214.636 " />
<polyline points="557.421,215.622 560.381,215.622 " />
<polyline points="561.367,214.636 560.381,215.622 " />
<polyline points="556.434,214.636 557.421,215.622 " />
<polyline points="406.466,214.636 405.479,215.622 " />
<polyline points="401.533,214.636 402.52,215.622 " />
<polyline points="405.479,215.622 402.52,215.622 " />
<polyline points="406.466,214.636 401.533,214.636 " />
<polyline points="405.479,213.649 402.52,213.649 " />
<polyline points="406.466,214.636 406.466,212.662 " />
<polyline points="401.533,214.636 401.533,212.662 " />
<polyline points="407.317,212.662 400.682,212.662 " />
<polyline points="400.152,212.034 400.152,208.716 " />
<polyline points="407.847,212.034 407.847,208.716 " />
<polyline points="402.125,212.034 402.125,208.716 " />
<polyline points="405.874,212.034 405.874,208.716 " />
<polyline points="407.847,212.034 400.152,212.034 " />
<path d="M405.874,212.034  A1.08911,1.08911 0 0,0 407.847,212.034 " />
<path d="M402.125,212.034  A3.11226,3.11226 0 0,0 405.874,212.034 " />
<path d="M400.152,212.034  A1.08911,1.08911 0 0,0 402.125,212.034 " />
<polyline points="407.847,212.034 407.317,212.662 " />
<polyline points="400.152,212.034 400.682,212.662 " />
<polyline points="400.152,198.293 400.682,197.665 " />
<polyline points="407.847,198.293 407.317,197.665 " />
<path d="M402.125,198.293  A1.08911,1.08911 0 0,0 400.152,198.293 " />
<path d="M405.874,198.293  A3.11226,3.11226 0 0,0 402.125,198.293 " />
<path d="M407.847,198.293  A1.08911,1.08911 0 0,0 405.874,198.293 " />
<polyline points="407.847,198.293 400.152,198.293 " />
<polyline points="405.874,198.293 405.874,201.612 " />
<polyline points="402.125,198.293 402.125,201.612 " />
<polyline points="407.847,198.293 407.847,201.612 " />
<polyline points="400.152,198.293 400.152,201.612 " />
<polyline points="407.317,197.665 400.682,197.665 " />
<polyline points="403.999,190.868 403.999,221.313 " />
<path d="M411.399,201.612  A5.91979,5.91979 0 0,0 417.319,195.692 " />
<path d="M396.6,201.612  A3.94653,3.94653 0 0,0 392.653,205.559 " />
<path d="M421.266,176.946  A3.94653,3.94653 0 0,0 417.319,180.893 " />
<polyline points="392.653,205.559 392.653,206.545 " />
<polyline points="422.252,176.946 421.266,176.946 " />
<polyline points="411.399,201.612 396.6,201.612 " />
<polyline points="417.319,180.893 417.319,195.692 " />
<polyline points="417.319,572.585 417.319,557.786 " />
<polyline points="411.399,551.866 396.6,551.866 " />
<polyline points="422.252,576.532 421.266,576.532 " />
<polyline points="392.653,547.92 392.653,546.933 " />
<path d="M417.319,572.585  A3.94653,3.94653 0 0,0 421.266,576.532 " />
<path d="M392.653,547.92  A3.94653,3.94653 0 0,0 396.6,551.866 " />
<path d="M417.319,557.786  A5.91979,5.91979 0 0,0 411.399,551.866 " />
<polyline points="403.999,562.61 403.999,532.165 " />
<polyline points="407.317,555.813 400.682,555.813 " />
<polyline points="400.152,555.185 400.152,551.866 " />
<polyline points="407.847,555.185 407.847,551.866 " />
<polyline points="402.125,555.185 402.125,551.866 " />
<polyline points="405.874,555.185 405.874,551.866 " />
<polyline points="407.847,555.185 400.152,555.185 " />
<path d="M405.874,555.185  A1.08911,1.08911 0 0,0 407.847,555.185 " />
<path d="M402.125,555.185  A3.11226,3.11226 0 0,0 405.874,555.185 " />
<path d="M400.152,555.185  A1.08911,1.08911 0 0,0 402.125,555.185 " />
<polyline points="407.847,555.185 407.317,555.813 " />
<polyline points="400.152,555.185 400.682,555.813 " />
<polyline points="400.152,541.444 400.682,540.816 " />
<polyline points="407.847,541.444 407.317,540.816 " />
<path d="M402.125,541.444  A1.08911,1.08911 0 0,0 400.152,541.444 " />
<path d="M405.874,541.444  A3.11226,3.11226 0 0,0 402.125,541.444 " />
<path d="M407.847,541.444  A1.08911,1.08911 0 0,0 405.874,541.444 " />
<polyline points="407.847,541.444 400.152,541.444 " />
<polyline points="405.874,541.444 405.874,544.762 " />
<polyline points="402.125,541.444 402.125,544.762 " />
<polyline points="407.847,541.444 407.847,544.762 " />
<polyline points="400.152,541.444 400.152,544.762 " />
<polyline points="407.317,540.816 400.682,540.816 " />
<polyline points="401.533,538.843 401.533,540.816 " />
<polyline points="406.466,538.843 406.466,540.816 " />
<polyline points="405.479,539.829 402.52,539.829 " />
<polyline points="406.466,538.843 401.533,538.843 " />
<polyline points="405.479,537.856 402.52,537.856 " />
<polyline points="401.533,538.843 402.52,537.856 " />
<polyline points="406.466,538.843 405.479,537.856 " />
<polyline points="556.434,538.843 557.421,537.856 " />
<polyline points="561.367,538.843 560.381,537.856 " />
<polyline points="557.421,537.856 560.381,537.856 " />
<polyline points="556.434,538.843 561.367,538.843 " />
<polyline points="557.421,539.829 560.381,539.829 " />
<polyline points="556.434,538.843 556.434,540.816 " />
<polyline points="561.367,538.843 561.367,540.816 " />
<polyline points="555.583,540.816 562.218,540.816 " />
<polyline points="562.748,541.444 562.748,544.762 " />
<polyline points="555.053,541.444 555.053,544.762 " />
<polyline points="560.775,541.444 560.775,544.762 " />
<polyline points="557.026,541.444 557.026,544.762 " />
<polyline points="555.053,541.444 562.748,541.444 " />
<path d="M557.026,541.444  A1.08911,1.08911 0 0,0 555.053,541.444 " />
<path d="M560.775,541.444  A3.11226,3.11226 0 0,0 557.026,541.444 " />
<path d="M562.748,541.444  A1.08911,1.08911 0 0,0 560.775,541.444 " />
<polyline points="555.053,541.444 555.583,540.816 " />
<polyline points="562.748,541.444 562.218,540.816 " />
<polyline points="562.748,555.185 562.218,555.813 " />
<polyline points="555.053,555.185 555.583,555.813 " />
<path d="M560.775,555.185  A1.08911,1.08911 0 0,0 562.748,555.185 " />
<path d="M557.026,555.185  A3.11226,3.11226 0 0,0 560.775,555.185 " />
<path d="M555.053,555.185  A1.08911,1.08911 0 0,0 557.026,555.185 " />
<polyline points="555.053,555.185 562.748,555.185 " />
<polyline points="557.026,555.185 557.026,551.866 " />
<polyline points="560.775,555.185 560.775,551.866 " />
<polyline points="555.053,555.185 555.053,551.866 " />
<polyline points="562.748,555.185 562.748,551.866 " />
<polyline points="555.583,555.813 562.218,555.813 " />
<polyline points="558.901,562.61 558.901,532.165 " />
<path d="M551.501,551.866  A5.91979,5.91979 0 0,0 545.581,557.786 " />
<path d="M566.3,551.866  A3.94653,3.94653 0 0,0 570.247,547.92 " />
<path d="M541.635,576.532  A3.94653,3.94653 0 0,0 545.581,572.585 " />
<polyline points="570.247,547.92 570.247,546.933 " />
<polyline points="540.648,576.532 541.635,576.532 " />
<polyline points="551.501,551.866 566.3,551.866 " />
<polyline points="545.581,572.585 545.581,557.786 " />
<polyline points="372.921,546.933 372.921,544.762 " />
<polyline points="589.98,546.933 589.98,544.762 " />
<polyline points="372.921,544.762 589.98,544.762 " />
<polyline points="372.921,546.933 589.98,546.933 " />
<polyline points="446.918,208.716 446.918,261.797 " />
<polyline points="456.784,210.689 456.784,542.789 " />
<polyline points="459.251,210.689 459.251,542.789 " />
<polyline points="171.855,260.317 441.356,260.317 " />
<polyline points="448.891,210.689 448.891,261.797 " />
<polyline points="441.356,258.343 441.356,260.317 " />
<polyline points="437.409,262.783 437.409,264.756 " />
<path d="M441.356,260.317  A0.986631,0.986631 0 0,0 441.356,258.343 " />
<path d="M437.409,260.317  A3.45321,3.45321 0 0,0 437.409,267.223 " />
<polyline points="437.409,267.223 443.576,267.223 " />
<path d="M443.576,267.223  A1.23329,1.23329 0 0,0 443.576,264.756 " />
<polyline points="445.931,264.756 437.409,264.756 " />
<path d="M437.409,262.783  A0.986631,0.986631 0 1,0 437.409,264.756 " />
<polyline points="437.409,262.783 445.931,262.783 " />
<path d="M441.356,262.783  A3.45321,3.45321 0 1,0 441.356,255.877 " />
<polyline points="441.356,255.877 435.19,255.877 " />
<path d="M435.19,255.877  A1.23329,1.23329 0 1,0 435.19,258.343 " />
<path d="M445.931,262.783  A0.986631,0.986631 0 0,0 446.918,261.796 " />
<path d="M445.931,264.756  A2.95989,2.95989 0 0,0 448.891,261.796 " />
<polyline points="446.918,264.587 446.918,522.933 " />
<path d="M514.009,261.796  A2.95989,2.95989 0 0,0 516.969,264.756 " />
<path d="M515.982,261.796  A0.986631,0.986631 0 0,0 516.969,262.783 " />
<path d="M527.711,258.343  A1.23329,1.23329 0 1,0 527.711,255.877 " />
<polyline points="521.544,255.877 527.711,255.877 " />
<path d="M521.544,255.877  A3.45321,3.45321 0 1,0 521.544,262.783 " />
<polyline points="525.491,262.783 516.969,262.783 " />
<path d="M525.491,264.756  A0.986631,0.986631 0 1,0 525.491,262.783 " />
<polyline points="516.969,264.756 525.491,264.756 " />
<path d="M519.324,264.756  A1.23329,1.23329 0 1,0 519.324,267.223 " />
<polyline points="525.491,267.223 519.324,267.223 " />
<path d="M525.491,267.223  A3.45321,3.45321 0 0,0 525.491,260.317 " />
<path d="M521.544,258.343  A0.986631,0.986631 0 0,0 521.544,260.317 " />
<polyline points="525.491,262.783 525.491,264.756 " />
<polyline points="521.544,258.343 521.544,260.317 " />
<polyline points="515.982,264.587 515.982,522.933 " />
<polyline points="514.009,210.689 514.009,261.797 " />
<polyline points="822.286,260.317 521.544,260.317 " />
<polyline points="503.649,210.689 503.649,542.789 " />
<polyline points="506.116,210.689 506.116,542.789 " />
<polyline points="515.982,208.716 515.982,261.797 " />
<polyline points="822.286,258.343 521.544,258.343 " />
<polyline points="448.891,210.689 514.009,210.689 " />
<polyline points="508.414,215.27 509.178,216.033 " />
<polyline points="512.232,215.27 511.468,216.033 " />
<polyline points="509.178,216.033 511.468,216.033 " />
<polyline points="508.414,215.27 512.232,215.27 " />
<polyline points="509.178,214.506 511.468,214.506 " />
<polyline points="508.414,215.27 508.414,213.743 " />
<polyline points="512.232,215.27 512.232,213.743 " />
<polyline points="507.756,213.743 512.89,213.743 " />
<polyline points="513.301,213.257 513.301,210.689 " />
<polyline points="507.345,213.257 507.345,210.689 " />
<polyline points="511.774,213.257 511.774,210.689 " />
<polyline points="508.872,213.257 508.872,210.689 " />
<polyline points="507.345,213.257 513.301,213.257 " />
<path d="M507.345,213.257  A0.842782,0.842782 0 0,0 508.872,213.257 " />
<path d="M508.872,213.257  A2.40836,2.40836 0 0,0 511.774,213.257 " />
<path d="M511.774,213.257  A0.842782,0.842782 0 0,0 513.301,213.257 " />
<polyline points="507.345,213.257 507.756,213.743 " />
<polyline points="513.301,213.257 512.89,213.743 " />
<polyline points="513.301,203.977 512.89,203.491 " />
<polyline points="507.345,203.977 507.756,203.491 " />
<path d="M513.301,203.977  A0.842782,0.842782 0 0,0 511.774,203.977 " />
<path d="M511.774,203.977  A2.40836,2.40836 0 0,0 508.872,203.977 " />
<path d="M508.872,203.977  A0.842782,0.842782 0 0,0 507.345,203.977 " />
<polyline points="507.345,203.977 513.301,203.977 " />
<polyline points="508.872,203.977 508.872,206.545 " />
<polyline points="511.774,203.977 511.774,206.545 " />
<polyline points="507.345,203.977 507.345,206.545 " />
<polyline points="513.301,203.977 513.301,206.545 " />
<polyline points="507.756,203.491 512.89,203.491 " />
<polyline points="455.144,203.491 450.01,203.491 " />
<polyline points="449.599,203.977 449.599,206.545 " />
<polyline points="455.555,203.977 455.555,206.545 " />
<polyline points="451.126,203.977 451.126,206.545 " />
<polyline points="454.028,203.977 454.028,206.545 " />
<polyline points="455.555,203.977 449.599,203.977 " />
<path d="M455.555,203.977  A0.842782,0.842782 0 0,0 454.028,203.977 " />
<path d="M454.028,203.977  A2.40836,2.40836 0 0,0 451.126,203.977 " />
<path d="M451.126,203.977  A0.842782,0.842782 0 0,0 449.599,203.977 " />
<polyline points="455.555,203.977 455.144,203.491 " />
<polyline points="449.599,203.977 450.01,203.491 " />
<polyline points="449.599,213.257 450.01,213.743 " />
<polyline points="455.555,213.257 455.144,213.743 " />
<path d="M449.599,213.257  A0.842782,0.842782 0 0,0 451.126,213.257 " />
<path d="M451.126,213.257  A2.40836,2.40836 0 0,0 454.028,213.257 " />
<path d="M454.028,213.257  A0.842782,0.842782 0 0,0 455.555,213.257 " />
<polyline points="455.555,213.257 449.599,213.257 " />
<polyline points="454.028,213.257 454.028,210.689 " />
<polyline points="451.126,213.257 451.126,210.689 " />
<polyline points="455.555,213.257 455.555,210.689 " />
<polyline points="449.599,213.257 449.599,210.689 " />
<polyline points="455.144,213.743 450.01,213.743 " />
<polyline points="450.668,215.27 450.668,213.743 " />
<polyline points="454.486,215.27 454.486,213.743 " />
<polyline points="453.722,214.506 451.432,214.506 " />
<polyline points="454.486,215.27 450.668,215.27 " />
<polyline points="453.722,216.033 451.432,216.033 " />
<polyline points="450.668,215.27 451.432,216.033 " />
<polyline points="454.486,215.27 453.722,216.033 " />
<path d="M468.627,213.383  A4.96236,4.96236 0 1,0 468.627,217.919 " />
<path d="M494.273,212.957  A4.96236,4.96236 0 0,0 503.649,210.689 " />
<path d="M494.273,222.882  A4.96236,4.96236 0 1,0 494.273,218.346 " />
<polyline points="464.213,215.651 498.687,220.614 " />
<polyline points="498.687,220.614 464.213,225.576 " />
<polyline points="464.213,225.576 498.687,230.538 " />
<polyline points="498.687,230.538 464.213,235.501 " />
<polyline points="464.213,235.501 498.687,240.463 " />
<polyline points="498.687,240.463 464.213,245.426 " />
<polyline points="464.213,245.426 498.687,250.388 " />
<polyline points="498.687,250.388 464.213,255.35 " />
<polyline points="464.213,255.35 498.687,260.313 " />
<polyline points="498.687,260.313 464.213,265.275 " />
<polyline points="498.687,210.689 464.213,215.651 " />
<path d="M468.627,223.308  A4.96236,4.96236 0 1,0 468.627,227.844 " />
<path d="M468.627,233.233  A4.96236,4.96236 0 1,0 468.627,237.769 " />
<path d="M494.273,232.806  A4.96236,4.96236 0 1,0 494.273,228.271 " />
<path d="M468.627,243.158  A4.96236,4.96236 0 1,0 468.627,247.693 " />
<path d="M494.273,242.731  A4.96236,4.96236 0 1,0 494.273,238.195 " />
<path d="M468.627,253.082  A4.96236,4.96236 0 1,0 468.627,257.618 " />
<path d="M494.273,252.656  A4.96236,4.96236 0 1,0 494.273,248.12 " />
<path d="M468.627,263.007  A4.96236,4.96236 0 1,0 468.627,267.543 " />
<path d="M494.273,262.581  A4.96236,4.96236 0 1,0 494.273,258.045 " />
<polyline points="822.286,529.176 521.544,529.176 " />
<polyline points="515.982,544.762 515.982,525.723 " />
<polyline points="822.286,527.203 521.544,527.203 " />
<polyline points="514.009,542.789 514.009,525.723 " />
<polyline points="521.544,529.176 521.544,527.203 " />
<polyline points="525.491,524.737 525.491,522.763 " />
<path d="M521.544,527.203  A0.986631,0.986631 0 0,0 521.544,529.176 " />
<path d="M525.491,527.203  A3.45321,3.45321 0 0,0 525.491,520.297 " />
<polyline points="525.491,520.297 519.324,520.297 " />
<path d="M519.324,520.297  A1.23329,1.23329 0 1,0 519.324,522.763 " />
<polyline points="516.969,522.763 525.491,522.763 " />
<path d="M525.491,524.737  A0.986631,0.986631 0 1,0 525.491,522.763 " />
<polyline points="525.491,524.737 516.969,524.737 " />
<path d="M521.544,524.737  A3.45321,3.45321 0 1,0 521.544,531.643 " />
<polyline points="521.544,531.643 527.711,531.643 " />
<path d="M527.711,531.643  A1.23329,1.23329 0 1,0 527.711,529.176 " />
<path d="M516.969,524.737  A0.986631,0.986631 0 0,0 515.982,525.723 " />
<path d="M516.969,522.763  A2.95989,2.95989 0 0,0 514.009,525.723 " />
<path d="M448.891,525.723  A2.95989,2.95989 0 0,0 445.931,522.763 " />
<path d="M446.918,525.723  A0.986631,0.986631 0 0,0 445.931,524.737 " />
<path d="M435.19,529.176  A1.23329,1.23329 0 1,0 435.19,531.643 " />
<polyline points="441.356,531.643 435.19,531.643 " />
<path d="M441.356,531.643  A3.45321,3.45321 0 1,0 441.356,524.737 " />
<polyline points="437.409,524.737 445.931,524.737 " />
<path d="M437.409,522.763  A0.986631,0.986631 0 1,0 437.409,524.737 " />
<polyline points="445.931,522.763 437.409,522.763 " />
<path d="M443.576,522.763  A1.23329,1.23329 0 1,0 443.576,520.297 " />
<polyline points="437.409,520.297 443.576,520.297 " />
<path d="M437.409,520.297  A3.45321,3.45321 0 0,0 437.409,527.203 " />
<path d="M441.356,529.176  A0.986631,0.986631 0 0,0 441.356,527.203 " />
<polyline points="437.409,524.737 437.409,522.763 " />
<polyline points="441.356,529.176 441.356,527.203 " />
<polyline points="448.891,542.789 448.891,525.723 " />
<polyline points="171.855,527.203 441.356,527.203 " />
<polyline points="171.855,529.176 441.356,529.176 " />
<polyline points="454.486,538.208 453.722,537.445 " />
<polyline points="450.668,538.208 451.432,537.445 " />
<polyline points="453.722,537.445 451.432,537.445 " />
<polyline points="454.486,538.208 450.668,538.208 " />
<polyline points="453.722,538.972 451.432,538.972 " />
<polyline points="454.486,538.208 454.486,539.735 " />
<polyline points="450.668,538.208 450.668,539.735 " />
<polyline points="455.144,539.735 450.01,539.735 " />
<polyline points="449.599,540.221 449.599,542.789 " />
<polyline points="455.555,540.221 455.555,542.789 " />
<polyline points="451.126,540.221 451.126,542.789 " />
<polyline points="454.028,540.221 454.028,542.789 " />
<polyline points="455.555,540.221 449.599,540.221 " />
<path d="M455.555,540.221  A0.842782,0.842782 0 0,0 454.028,540.221 " />
<path d="M454.028,540.221  A2.40836,2.40836 0 0,0 451.126,540.221 " />
<path d="M451.126,540.221  A0.842782,0.842782 0 0,0 449.599,540.221 " />
<polyline points="455.555,540.221 455.144,539.735 " />
<polyline points="449.599,540.221 450.01,539.735 " />
<polyline points="449.599,549.501 450.01,549.987 " />
<polyline points="455.555,549.501 455.144,549.987 " />
<path d="M449.599,549.501  A0.842782,0.842782 0 0,0 451.126,549.501 " />
<path d="M451.126,549.501  A2.40836,2.40836 0 0,0 454.028,549.501 " />
<path d="M454.028,549.501  A0.842782,0.842782 0 0,0 455.555,549.501 " />
<polyline points="455.555,549.501 449.599,549.501 " />
<polyline points="454.028,549.501 454.028,546.933 " />
<polyline points="451.126,549.501 451.126,546.933 " />
<polyline points="455.555,549.501 455.555,546.933 " />
<polyline points="449.599,549.501 449.599,546.933 " />
<polyline points="455.144,549.987 450.01,549.987 " />
<polyline points="507.756,549.987 512.89,549.987 " />
<polyline points="513.301,549.501 513.301,546.933 " />
<polyline points="507.345,549.501 507.345,546.933 " />
<polyline points="511.774,549.501 511.774,546.933 " />
<polyline points="508.872,549.501 508.872,546.933 " />
<polyline points="507.345,549.501 513.301,549.501 " />
<path d="M507.345,549.501  A0.842782,0.842782 0 0,0 508.872,549.501 " />
<path d="M508.872,549.501  A2.40836,2.40836 0 0,0 511.774,549.501 " />
<path d="M511.774,549.501  A0.842782,0.842782 0 0,0 513.301,549.501 " />
<polyline points="507.345,549.501 507.756,549.987 " />
<polyline points="513.301,549.501 512.89,549.987 " />
<polyline points="513.301,540.221 512.89,539.735 " />
<polyline points="507.345,540.221 507.756,539.735 " />
<path d="M513.301,540.221  A0.842782,0.842782 0 0,0 511.774,540.221 " />
<path d="M511.774,540.221  A2.40836,2.40836 0 0,0 508.872,540.221 " />
<path d="M508.872,540.221  A0.842782,0.842782 0 0,0 507.345,540.221 " />
<polyline points="507.345,540.221 513.301,540.221 " />
<polyline points="508.872,540.221 508.872,542.789 " />
<polyline points="511.774,540.221 511.774,542.789 " />
<polyline points="507.345,540.221 507.345,542.789 " />
<polyline points="513.301,540.221 513.301,542.789 " />
<polyline points="507.756,539.735 512.89,539.735 " />
<polyline points="512.232,538.208 512.232,539.735 " />
<polyline points="508.414,538.208 508.414,539.735 " />
<polyline points="509.178,538.972 511.468,538.972 " />
<polyline points="508.414,538.208 512.232,538.208 " />
<polyline points="509.178,537.445 511.468,537.445 " />
<polyline points="512.232,538.208 511.468,537.445 " />
<polyline points="508.414,538.208 509.178,537.445 " />
<polyline points="448.891,542.789 514.009,542.789 " />
</g>
<g clip-path="url(#clipId0)" fill="rgb(0,0,0)" stroke="rgb(0,0,0)" stroke-width="0.25" >
<path d="M374.04,194.124 371.051,195.173 375.693,203.616 375.693,203.616 z" />
</g>
<g clip-path="url(#clipId0)" fill="none" stroke="rgb(0,0,0)" stroke-width="0.25" >
<polyline points="372.546,194.649 358.101,153.493 " />
<polyline points="358.101,153.493 348.597,153.493 " />
<polyline points="446.918,525.723 446.918,544.762 " />
<polyline points="822.286,232.448 822.286,315.744 " />
<polyline points="822.286,315.744 809.715,321.901 " />
<polyline points="809.715,321.901 835.129,329.869 " />
<polyline points="835.129,329.869 822.286,335.754 " />
<polyline points="822.286,335.754 822.286,451.766 " />
<polyline points="835.129,457.651 822.286,451.766 " />
<polyline points="809.715,465.619 835.129,457.651 " />
<polyline points="822.286,471.775 809.715,465.619 " />
<polyline points="822.286,471.775 822.286,555.071 " />
<polyline points="171.855,471.775 171.855,555.071 " />
<polyline points="171.855,471.775 184.427,465.619 " />
<polyline points="184.427,465.619 159.012,457.651 " />
<polyline points="159.012,457.651 171.855,451.766 " />
<polyline points="171.855,335.754 171.855,451.766 " />
<polyline points="159.012,329.869 171.855,335.754 " />
<polyline points="184.427,321.901 159.012,329.869 " />
<polyline points="171.855,315.744 184.427,321.901 " />
<polyline points="171.855,232.448 171.855,315.744 " />
</g>
<g clip-path="url(#clipId0)" fill="rgb(0,0,0)" stroke="rgb(0,0,0)" stroke-width="0.25" >
<path d="M553.231,182.054 550.67,180.19 546.357,188.805 546.357,188.805 z" />
</g>
<g clip-path="url(#clipId0)" fill="none" stroke="rgb(0,0,0)" stroke-width="0.25" >
<polyline points="551.95,181.122 585.231,135.403 " />
<polyline points="585.231,135.403 594.735,135.403 " />
</g>
<g clip-path="url(#clipId0)" fill="rgb(0,0,0)" stroke="rgb(0,0,0)" stroke-width="0.25" >
<path d="M526.142,279.524 529.24,278.862 525.705,269.899 525.705,269.899 z" />
</g>
<g clip-path="url(#clipId0)" fill="none" stroke="rgb(0,0,0)" stroke-width="0.25" >
<polyline points="527.691,279.193 535.424,315.39 " />
<polyline points="535.424,315.39 544.928,315.39 " />
</g>
<g clip-path="url(#clipId0)" fill="rgb(0,0,0)" stroke="rgb(0,0,0)" stroke-width="0.25" >
<path d="M390.685,520.98 387.801,519.668 385.307,528.975 385.307,528.975 z" />
</g>
<g clip-path="url(#clipId0)" fill="none" stroke="rgb(0,0,0)" stroke-width="0.25" >
<polyline points="389.243,520.324 409.604,475.572 " />
<polyline points="400.1,475.572 409.604,475.572 " />
</g>
<g clip-path="url(#clipId0)" fill="rgb(0,0,0)" stroke="rgb(0,0,0)" stroke-width="0.25" >
<path d="M515.844,420.708 518.314,418.724 511.127,412.306 511.127,412.306 z" />
</g>
<g clip-path="url(#clipId0)" fill="none" stroke="rgb(0,0,0)" stroke-width="0.25" >
<polyline points="517.079,419.716 531.779,438.019 " />
<polyline points="531.779,438.019 558.856,438.019 " />
<polyline points="422.252,700.9 540.648,582.504 " />
<polyline points="422.252,666.017 533.937,554.333 " />
<polyline points="422.252,631.135 499.054,554.333 " />
<polyline points="422.252,596.252 464.172,554.333 " />
<polyline points="422.252,561.369 429.289,554.333 " />
<polyline points="422.257,735.778 540.648,617.387 " />
<polyline points="457.139,735.778 540.648,652.27 " />
<polyline points="492.022,735.778 540.648,687.152 " />
<polyline points="526.905,735.778 540.648,722.035 " />
<polyline points="422.252,177.66 540.648,59.2641 " />
<polyline points="422.252,142.777 540.648,24.3814 " />
<polyline points="422.252,107.894 522.617,7.52941 " />
<polyline points="422.252,73.0118 487.735,7.52941 " />
<polyline points="422.252,38.1291 452.852,7.52941 " />
<polyline points="435.649,199.145 540.648,94.1467 " />
<polyline points="470.532,199.145 540.648,129.029 " />
<polyline points="505.415,199.145 540.648,163.912 " />
<polyline points="540.297,199.145 540.648,198.795 " />
</g>
<g clip-path="url(#clipId0)" fill="rgb(0,0,0)" stroke="rgb(0,0,0)" stroke-width="0.25" >
<path d="M337.579,391.465 337.579,392.89 242.697,392.89 242.697,391.465 z" />
<path d="M337.579,387.724 337.579,396.631 364.299,392.178 364.299,392.178 z" />
</g>
<g clip-path="url(#clipId0)" fill="none" stroke="rgb(0,0,0)" stroke-width="0.25" >
<polyline points="274.349,146.749 272.992,145.391 270.955,144.712 268.24,144.712 266.203,145.391 264.846,146.749 264.846,148.107 265.524,149.464 266.203,150.143 267.561,150.822 271.634,152.18 272.992,152.858 273.671,153.537 274.349,154.895 274.349,156.932 272.992,158.289 270.955,158.968 268.24,158.968 266.203,158.289 264.846,156.932 " />
<polyline points="278.422,144.712 278.422,158.968 286.569,158.968 " />
<polyline points="289.963,158.968 289.963,144.712 298.788,144.712 " />
<polyline points="289.963,151.501 295.394,151.501 " />
<polyline points="289.963,158.968 298.788,158.968 " />
<polyline points="302.861,158.968 302.861,144.712 311.686,144.712 " />
<polyline points="302.861,151.501 308.292,151.501 " />
<polyline points="302.861,158.968 311.686,158.968 " />
<polyline points="315.759,144.712 321.19,158.968 326.62,144.712 " />
<polyline points="329.336,158.968 329.336,144.712 338.161,144.712 " />
<polyline points="329.336,151.501 334.766,151.501 " />
<polyline points="329.336,158.968 338.161,158.968 " />
<polyline points="601.597,141.774 601.597,127.519 607.028,141.774 612.458,127.519 612.458,141.774 " />
<polyline points="621.962,127.519 620.604,128.197 619.247,129.555 618.568,130.913 617.889,132.949 617.889,136.343 618.568,138.38 619.247,139.738 620.604,141.095 621.962,141.774 624.677,141.774 626.035,141.095 627.393,139.738 628.072,138.38 628.751,136.343 628.751,132.949 628.072,130.913 627.393,129.555 626.035,128.197 624.677,127.519 621.962,127.519 " />
<polyline points="632.824,127.519 632.824,137.701 633.502,139.738 634.86,141.095 636.897,141.774 638.254,141.774 640.291,141.095 641.649,139.738 642.327,137.701 642.327,127.519 " />
<polyline points="647.758,141.774 647.758,127.519 657.262,141.774 657.262,127.519 " />
<polyline points="667.445,127.519 667.445,141.774 " />
<polyline points="662.693,127.519 672.196,127.519 " />
<polyline points="674.912,141.774 674.912,127.519 " />
<polyline points="680.343,141.774 680.343,127.519 689.846,141.774 689.846,127.519 " />
<polyline points="705.46,130.913 704.781,129.555 703.423,128.197 702.065,127.519 699.35,127.519 697.992,128.197 696.635,129.555 695.956,130.913 695.277,132.949 695.277,136.343 695.956,138.38 696.635,139.738 697.992,141.095 699.35,141.774 702.065,141.774 703.423,141.095 704.781,139.738 705.46,138.38 705.46,136.343 702.065,136.343 " />
<polyline points="722.431,141.774 727.861,127.519 733.292,141.774 " />
<polyline points="724.467,137.022 731.256,137.022 " />
<polyline points="737.365,141.774 737.365,127.519 746.869,141.774 746.869,127.519 " />
<polyline points="762.482,130.913 761.804,129.555 760.446,128.197 759.088,127.519 756.373,127.519 755.015,128.197 753.657,129.555 752.979,130.913 752.3,132.949 752.3,136.343 752.979,138.38 753.657,139.738 755.015,141.095 756.373,141.774 759.088,141.774 760.446,141.095 761.804,139.738 762.482,138.38 762.482,136.343 759.088,136.343 " />
<polyline points="766.555,127.519 766.555,141.774 774.702,141.774 " />
<polyline points="778.096,141.774 778.096,127.519 786.921,127.519 " />
<polyline points="778.096,134.307 783.527,134.307 " />
<polyline points="778.096,141.774 786.921,141.774 " />
<polyline points="808.644,124.803 807.286,126.161 805.928,128.197 804.571,130.913 803.892,134.307 803.892,137.022 804.571,140.417 805.928,143.132 807.286,145.168 808.644,146.526 " />
<polyline points="818.147,127.519 818.147,141.774 " />
<polyline points="813.396,127.519 822.899,127.519 " />
<polyline points="825.615,127.519 831.045,134.307 836.476,127.519 " />
<polyline points="831.045,134.307 831.045,141.774 " />
<polyline points="839.192,141.774 839.192,127.519 845.301,127.519 847.338,128.197 848.017,128.876 848.695,130.234 848.695,132.27 848.017,133.628 847.338,134.307 845.301,134.986 839.192,134.986 " />
<polyline points="854.126,140.417 853.447,141.095 854.126,141.774 854.805,141.095 " />
<polyline points="860.236,124.803 861.593,126.161 862.951,128.197 864.309,130.913 864.988,134.307 864.988,137.022 864.309,140.417 862.951,143.132 861.593,145.168 860.236,146.526 " />
<polyline points="554.281,308.143 553.602,308.822 552.923,308.143 553.602,307.465 554.281,308.143 554.281,309.501 553.602,310.859 552.923,311.538 " />
<polyline points="558.354,308.143 557.675,308.822 556.996,308.143 557.675,307.465 558.354,308.143 558.354,309.501 557.675,310.859 556.996,311.538 " />
<polyline points="572.61,312.216 571.252,310.859 569.215,310.18 566.5,310.18 564.464,310.859 563.106,312.216 563.106,313.574 563.785,314.932 564.464,315.611 565.821,316.29 569.894,317.647 571.252,318.326 571.931,319.005 572.61,320.363 572.61,322.399 571.252,323.757 569.215,324.436 566.5,324.436 564.464,323.757 563.106,322.399 " />
<polyline points="578.04,308.143 577.362,308.822 576.683,308.143 577.362,307.465 578.04,308.143 578.04,309.501 577.362,310.859 576.683,311.538 " />
<polyline points="582.113,308.143 581.435,308.822 580.756,308.143 581.435,307.465 582.113,308.143 582.113,309.501 581.435,310.859 580.756,311.538 " />
<polyline points="609.267,312.216 607.909,310.859 605.873,310.18 603.158,310.18 601.121,310.859 599.763,312.216 599.763,313.574 600.442,314.932 601.121,315.611 602.479,316.29 606.552,317.647 607.909,318.326 608.588,319.005 609.267,320.363 609.267,322.399 607.909,323.757 605.873,324.436 603.158,324.436 601.121,323.757 599.763,322.399 " />
<polyline points="613.34,310.18 613.34,324.436 621.486,324.436 " />
<polyline points="624.88,324.436 624.88,310.18 " />
<polyline points="630.311,324.436 630.311,310.18 636.421,310.18 638.457,310.859 639.136,311.538 639.815,312.895 639.815,314.932 639.136,316.29 638.457,316.968 636.421,317.647 630.311,317.647 " />
<polyline points="577.212,430.879 577.212,445.134 " />
<polyline points="572.46,430.879 581.964,430.879 " />
<polyline points="584.679,430.879 590.11,437.667 595.541,430.879 " />
<polyline points="590.11,437.667 590.11,445.134 " />
<polyline points="598.256,445.134 598.256,430.879 604.366,430.879 606.402,431.558 607.081,432.236 607.76,433.594 607.76,435.631 607.081,436.988 606.402,437.667 604.366,438.346 598.256,438.346 " />
<polyline points="612.512,445.134 612.512,430.879 621.337,430.879 " />
<polyline points="612.512,437.667 617.943,437.667 " />
<polyline points="612.512,445.134 621.337,445.134 " />
<polyline points="639.666,428.842 638.987,429.521 638.308,428.842 638.987,428.163 639.666,428.842 639.666,430.2 638.987,431.558 638.308,432.236 " />
<polyline points="643.739,428.842 643.06,429.521 642.381,428.842 643.06,428.163 643.739,428.842 643.739,430.2 643.06,431.558 642.381,432.236 " />
<polyline points="658.673,434.273 657.994,432.915 656.637,431.558 655.279,430.879 652.564,430.879 651.206,431.558 649.848,432.915 649.169,434.273 648.491,436.309 648.491,439.704 649.169,441.74 649.848,443.098 651.206,444.456 652.564,445.134 655.279,445.134 656.637,444.456 657.994,443.098 658.673,441.74 " />
<polyline points="664.104,428.842 663.425,429.521 662.746,428.842 663.425,428.163 664.104,428.842 664.104,430.2 663.425,431.558 662.746,432.236 " />
<polyline points="668.177,428.842 667.498,429.521 666.819,428.842 667.498,428.163 668.177,428.842 668.177,430.2 667.498,431.558 666.819,432.236 " />
<polyline points="685.827,445.134 685.827,430.879 694.652,430.879 " />
<polyline points="685.827,437.667 691.258,437.667 " />
<polyline points="698.046,445.134 698.046,430.879 " />
<polyline points="703.477,445.134 703.477,430.879 709.586,430.879 711.623,431.558 712.302,432.236 712.981,433.594 712.981,434.952 712.302,436.309 711.623,436.988 709.586,437.667 703.477,437.667 " />
<polyline points="708.229,437.667 712.981,445.134 " />
<polyline points="717.732,445.134 717.732,430.879 726.557,430.879 " />
<polyline points="717.732,437.667 723.163,437.667 " />
<polyline points="717.732,445.134 726.557,445.134 " />
<polyline points="572.46,469.573 572.46,455.317 577.212,455.317 579.249,455.996 580.606,457.354 581.285,458.711 581.964,460.748 581.964,464.142 581.285,466.179 580.606,467.536 579.249,468.894 577.212,469.573 572.46,469.573 " />
<polyline points="586.716,469.573 592.147,455.317 597.577,469.573 " />
<polyline points="588.752,464.821 595.541,464.821 " />
<polyline points="601.65,469.573 601.65,455.317 607.081,469.573 612.512,455.317 612.512,469.573 " />
<polyline points="617.943,469.573 617.943,455.317 624.052,455.317 626.089,455.996 626.768,456.675 627.446,458.032 627.446,460.069 626.768,461.427 626.089,462.105 624.052,462.784 617.943,462.784 " />
<polyline points="632.198,469.573 632.198,455.317 641.023,455.317 " />
<polyline points="632.198,462.105 637.629,462.105 " />
<polyline points="632.198,469.573 641.023,469.573 " />
<polyline points="645.096,469.573 645.096,455.317 651.206,455.317 653.242,455.996 653.921,456.675 654.6,458.032 654.6,459.39 653.921,460.748 653.242,461.427 651.206,462.105 645.096,462.105 " />
<polyline points="649.848,462.105 654.6,469.573 " />
<polyline points="677.002,452.602 675.644,453.959 674.287,455.996 672.929,458.711 672.25,462.105 672.25,464.821 672.929,468.215 674.287,470.93 675.644,472.967 677.002,474.325 " />
<polyline points="681.754,455.317 687.185,469.573 692.615,455.317 " />
<polyline points="695.331,469.573 695.331,455.317 704.156,455.317 " />
<polyline points="695.331,462.105 700.761,462.105 " />
<polyline points="695.331,469.573 704.156,469.573 " />
<polyline points="708.229,469.573 708.229,455.317 714.338,455.317 716.375,455.996 717.054,456.675 717.732,458.032 717.732,459.39 717.054,460.748 716.375,461.427 714.338,462.105 708.229,462.105 " />
<polyline points="712.981,462.105 717.732,469.573 " />
<polyline points="727.236,455.317 727.236,469.573 " />
<polyline points="722.484,455.317 731.988,455.317 " />
<polyline points="735.382,468.215 734.704,468.894 735.382,469.573 736.061,468.894 " />
<polyline points="576.533,479.755 575.176,480.434 573.818,481.792 573.139,483.15 572.46,485.186 572.46,488.58 573.139,490.617 573.818,491.975 575.176,493.332 576.533,494.011 579.249,494.011 580.606,493.332 581.964,491.975 582.643,490.617 583.322,488.58 583.322,485.186 582.643,483.15 581.964,481.792 580.606,480.434 579.249,479.755 576.533,479.755 " />
<polyline points="587.395,494.011 587.395,479.755 593.504,479.755 595.541,480.434 596.22,481.113 596.899,482.471 596.899,483.828 596.22,485.186 595.541,485.865 593.504,486.544 587.395,486.544 " />
<polyline points="592.147,486.544 596.899,494.011 " />
<polyline points="614.548,494.011 614.548,479.755 " />
<polyline points="624.052,479.755 624.052,494.011 " />
<polyline points="614.548,486.544 624.052,486.544 " />
<polyline points="633.556,479.755 632.198,480.434 630.841,481.792 630.162,483.15 629.483,485.186 629.483,488.58 630.162,490.617 630.841,491.975 632.198,493.332 633.556,494.011 636.271,494.011 637.629,493.332 638.987,491.975 639.666,490.617 640.344,488.58 640.344,485.186 639.666,483.15 638.987,481.792 637.629,480.434 636.271,479.755 633.556,479.755 " />
<polyline points="644.418,494.011 644.418,479.755 650.527,479.755 652.564,480.434 653.242,481.113 653.921,482.471 653.921,483.828 653.242,485.186 652.564,485.865 650.527,486.544 644.418,486.544 " />
<polyline points="649.169,486.544 653.921,494.011 " />
<polyline points="658.673,494.011 658.673,479.755 " />
<polyline points="664.104,479.755 673.608,479.755 664.104,494.011 673.608,494.011 " />
<polyline points="678.36,492.653 677.681,493.332 678.36,494.011 679.038,493.332 " />
<polyline points="684.469,477.04 685.827,478.398 687.185,480.434 688.542,483.15 689.221,486.544 689.221,489.259 688.542,492.653 687.185,495.369 685.827,497.405 684.469,498.763 " />
<polyline points="243.39,478.213 243.39,463.957 248.142,463.957 250.178,464.636 251.536,465.993 252.215,467.351 252.894,469.388 252.894,472.782 252.215,474.818 251.536,476.176 250.178,477.534 248.142,478.213 243.39,478.213 " />
<polyline points="257.645,463.957 257.645,474.14 258.324,476.176 259.682,477.534 261.719,478.213 263.076,478.213 265.113,477.534 266.47,476.176 267.149,474.14 267.149,463.957 " />
<polyline points="282.763,467.351 282.084,465.993 280.726,464.636 279.368,463.957 276.653,463.957 275.295,464.636 273.938,465.993 273.259,467.351 272.58,469.388 272.58,472.782 273.259,474.818 273.938,476.176 275.295,477.534 276.653,478.213 279.368,478.213 280.726,477.534 282.084,476.176 282.763,474.818 " />
<polyline points="291.588,463.957 291.588,478.213 " />
<polyline points="286.836,463.957 296.339,463.957 " />
<polyline points="316.705,461.242 315.347,462.599 313.989,464.636 312.632,467.351 311.953,470.745 311.953,473.461 312.632,476.855 313.989,479.57 315.347,481.607 316.705,482.965 " />
<polyline points="321.457,463.957 324.851,478.213 328.245,463.957 331.639,478.213 335.033,463.957 " />
<polyline points="350.647,478.213 358.114,468.709 " />
<polyline points="358.114,478.213 350.647,468.709 " />
<polyline points="375.085,478.213 375.085,463.957 " />
<polyline points="384.589,463.957 384.589,478.213 " />
<polyline points="375.085,470.745 384.589,470.745 " />
<polyline points="390.02,461.242 391.377,462.599 392.735,464.636 394.093,467.351 394.772,470.745 394.772,473.461 394.093,476.855 392.735,479.57 391.377,481.607 390.02,482.965 " />
<polyline points="286.321,366.72 284.963,367.399 283.605,368.756 282.926,370.114 282.248,372.151 282.248,375.545 282.926,377.581 283.605,378.939 284.963,380.297 286.321,380.976 289.036,380.976 290.394,380.297 291.751,378.939 292.43,377.581 293.109,375.545 293.109,372.151 292.43,370.114 291.751,368.756 290.394,367.399 289.036,366.72 286.321,366.72 " />
<polyline points="288.357,378.26 292.43,382.333 " />
<polyline points="282.248,416.03 287.678,401.774 293.109,416.03 " />
<polyline points="284.284,411.278 291.073,411.278 " />
<polyline points="303.164,416.248 301.807,416.927 300.449,418.285 299.77,420.321 299.77,421.679 300.449,423.716 301.807,425.073 303.164,425.752 305.201,425.752 306.559,425.073 307.916,423.716 308.595,421.679 308.595,420.321 307.916,418.285 306.559,416.927 305.201,416.248 303.164,416.248 " />
</g>
<g clip-path="url(#clipId0)" fill="rgb(0,0,0)" stroke="rgb(0,0,0)" stroke-width="0.25" >
<path d="M413.868,652.045 415.861,654.507 422.252,647.297 422.252,647.297 z" />
</g>
<g clip-path="url(#clipId0)" fill="none" stroke="rgb(0,0,0)" stroke-width="0.25" >
<polyline points="414.864,653.276 357.148,699.982 " />
<polyline points="357.148,699.982 341.527,699.982 " />
<polyline points="180.718,707.109 180.718,692.854 189.543,692.854 " />
<polyline points="180.718,699.642 186.149,699.642 " />
<polyline points="192.937,707.109 192.937,692.854 " />
<polyline points="198.368,707.109 198.368,692.854 204.478,692.854 206.514,693.533 207.193,694.211 207.872,695.569 207.872,696.927 207.193,698.284 206.514,698.963 204.478,699.642 198.368,699.642 " />
<polyline points="203.12,699.642 207.872,707.109 " />
<polyline points="212.624,707.109 212.624,692.854 221.449,692.854 " />
<polyline points="212.624,699.642 218.054,699.642 " />
<polyline points="212.624,707.109 221.449,707.109 " />
<polyline points="238.42,707.109 238.42,692.854 244.529,692.854 246.566,693.533 247.245,694.211 247.924,695.569 247.924,696.927 247.245,698.284 246.566,698.963 244.529,699.642 " />
<polyline points="238.42,699.642 244.529,699.642 246.566,700.321 247.245,701 247.924,702.357 247.924,704.394 247.245,705.752 246.566,706.431 244.529,707.109 238.42,707.109 " />
<polyline points="252.675,707.109 258.106,692.854 263.537,707.109 " />
<polyline points="254.712,702.357 261.5,702.357 " />
<polyline points="267.61,707.109 267.61,692.854 273.72,692.854 275.756,693.533 276.435,694.211 277.114,695.569 277.114,696.927 276.435,698.284 275.756,698.963 273.72,699.642 267.61,699.642 " />
<polyline points="272.362,699.642 277.114,707.109 " />
<polyline points="281.866,707.109 281.866,692.854 287.975,692.854 290.012,693.533 290.691,694.211 291.369,695.569 291.369,696.927 290.691,698.284 290.012,698.963 287.975,699.642 281.866,699.642 " />
<polyline points="286.618,699.642 291.369,707.109 " />
<polyline points="296.121,707.109 296.121,692.854 " />
<polyline points="301.552,707.109 301.552,692.854 310.377,692.854 " />
<polyline points="301.552,699.642 306.983,699.642 " />
<polyline points="301.552,707.109 310.377,707.109 " />
<polyline points="314.45,707.109 314.45,692.854 320.56,692.854 322.596,693.533 323.275,694.211 323.954,695.569 323.954,696.927 323.275,698.284 322.596,698.963 320.56,699.642 314.45,699.642 " />
<polyline points="319.202,699.642 323.954,707.109 " />
<polyline points="737.214,744.54 736.219,742.549 734.227,740.558 732.236,739.562 728.254,739.562 726.262,740.558 724.271,742.549 723.275,744.54 722.28,747.527 722.28,752.506 723.275,755.492 724.271,757.484 726.262,759.475 728.254,760.471 732.236,760.471 734.227,759.475 736.219,757.484 737.214,755.492 " stroke-dasharray="59.398676,11.879735,11.879735,11.879735" />
<polyline points="743.188,760.471 743.188,739.562 752.149,739.562 755.136,740.558 756.131,741.554 757.127,743.545 757.127,745.536 756.131,747.527 755.136,748.523 752.149,749.519 743.188,749.519 " stroke-dasharray="59.398676,11.879735,11.879735,11.879735" />
<polyline points="750.157,749.519 757.127,760.471 " stroke-dasharray="59.398676,11.879735,11.879735,11.879735" />
<polyline points="777.04,746.532 776.044,749.519 774.053,751.51 771.066,752.506 770.07,752.506 767.083,751.51 765.092,749.519 764.096,746.532 764.096,745.536 765.092,742.549 767.083,740.558 770.07,739.562 771.066,739.562 774.053,740.558 776.044,742.549 777.04,746.532 777.04,751.51 776.044,756.488 774.053,759.475 771.066,760.471 769.075,760.471 766.088,759.475 765.092,757.484 " stroke-dasharray="59.398676,11.879735,11.879735,11.879735" />
<polyline points="784.009,751.51 801.931,751.51 " stroke-dasharray="59.398676,11.879735,11.879735,11.879735" />
<polyline points="809.896,739.562 823.834,739.562 813.878,760.471 " stroke-dasharray="59.398676,11.879735,11.879735,11.879735" />
</g>
</svg>
