<?xml version="1.0" standalone="no"?>
<svg viewBox="0 0 1024 768" version="1.1" xmlns="http://www.w3.org/2000/svg" xmlns:xlink="http://www.w3.org/1999/xlink" stroke-linecap="round" stroke-linejoin="round" fill-rule="evenodd" xml:space="preserve" >
<defs >
<clipPath id="clipId0" >
<path d="M0,768 1024,768 1024,0 0,0 z" />
</clipPath>
</defs>
<g clip-path="url(#clipId0)" fill="none" stroke="rgb(0,0,0)" stroke-width="0.1" />
<g clip-path="url(#clipId0)" fill="none" stroke="rgb(0,0,0)" stroke-width="0.25" >
<polyline points="429.231,7.52941 429.231,206.956 " />
<polyline points="547.871,7.52941 547.871,206.956 " />
<polyline points="229.189,258.861 448.374,258.861 " />
<polyline points="429.231,199.541 547.871,199.541 " />
<polyline points="429.231,555.263 547.871,555.263 " />
<polyline points="547.871,547.848 547.871,737.083 " />
<polyline points="429.231,547.848 429.231,737.083 " />
<polyline points="379.798,206.956 597.305,206.956 " />
<polyline points="379.798,209.131 597.305,209.131 " />
<polyline points="597.305,206.956 597.305,209.131 " />
<polyline points="379.798,206.956 379.798,209.131 " />
<polyline points="552.815,181.25 552.815,196.08 " />
<polyline points="558.747,202.012 573.577,202.012 " />
<polyline points="547.871,177.296 548.86,177.296 " />
<polyline points="577.531,205.967 577.531,206.956 " />
<path d="M552.815,181.25  A3.95467,3.95467 0 0,0 548.86,177.296 " />
<path d="M577.531,205.967  A3.95467,3.95467 0 0,0 573.577,202.012 " />
<path d="M552.815,196.08  A5.932,5.932 0 0,0 558.747,202.012 " />
<polyline points="566.162,191.246 566.162,221.754 " />
<polyline points="562.837,198.058 569.486,198.058 " />
<polyline points="570.017,198.687 570.017,202.012 " />
<polyline points="562.306,198.687 562.306,202.012 " />
<polyline points="568.04,198.687 568.04,202.012 " />
<polyline points="564.283,198.687 564.283,202.012 " />
<polyline points="562.306,198.687 570.017,198.687 " />
<path d="M564.283,198.687  A1.09135,1.09135 0 0,0 562.306,198.687 " />
<path d="M568.04,198.687  A3.11868,3.11868 0 0,0 564.283,198.687 " />
<path d="M570.017,198.687  A1.09135,1.09135 0 0,0 568.04,198.687 " />
<polyline points="562.306,198.687 562.837,198.058 " />
<polyline points="570.017,198.687 569.486,198.058 " />
<polyline points="570.017,212.456 569.486,213.086 " />
<polyline points="562.306,212.456 562.837,213.086 " />
<path d="M568.04,212.456  A1.09135,1.09135 0 0,0 570.017,212.456 " />
<path d="M564.283,212.456  A3.11868,3.11868 0 0,0 568.04,212.456 " />
<path d="M562.306,212.456  A1.09135,1.09135 0 0,0 564.283,212.456 " />
<polyline points="562.306,212.456 570.017,212.456 " />
<polyline points="564.283,212.456 564.283,209.131 " />
<polyline points="568.04,212.456 568.04,209.131 " />
<polyline points="562.306,212.456 562.306,209.131 " />
<polyline points="570.017,212.456 570.017,209.131 " />
<polyline points="562.837,213.086 569.486,213.086 " />
<polyline points="568.633,215.063 568.633,213.086 " />
<polyline points="563.69,215.063 563.69,213.086 " />
<polyline points="564.679,214.074 567.645,214.074 " />
<polyline points="563.69,215.063 568.633,215.063 " />
<polyline points="564.679,216.052 567.645,216.052 " />
<polyline points="568.633,215.063 567.645,216.052 " />
<polyline points="563.69,215.063 564.679,216.052 " />
<polyline points="413.412,215.063 412.424,216.052 " />
<polyline points="408.469,215.063 409.458,216.052 " />
<polyline points="412.424,216.052 409.458,216.052 " />
<polyline points="413.412,215.063 408.469,215.063 " />
<polyline points="412.424,214.074 409.458,214.074 " />
<polyline points="413.412,215.063 413.412,213.086 " />
<polyline points="408.469,215.063 408.469,213.086 " />
<polyline points="414.265,213.086 407.616,213.086 " />
<polyline points="407.085,212.456 407.085,209.131 " />
<polyline points="414.797,212.456 414.797,209.131 " />
<polyline points="409.062,212.456 409.062,209.131 " />
<polyline points="412.819,212.456 412.819,209.131 " />
<polyline points="414.797,212.456 407.085,212.456 " />
<path d="M412.819,212.456  A1.09135,1.09135 0 0,0 414.797,212.456 " />
<path d="M409.062,212.456  A3.11868,3.11868 0 0,0 412.819,212.456 " />
<path d="M407.085,212.456  A1.09135,1.09135 0 0,0 409.062,212.456 " />
<polyline points="414.797,212.456 414.265,213.086 " />
<polyline points="407.085,212.456 407.616,213.086 " />
<polyline points="407.085,198.687 407.616,198.058 " />
<polyline points="414.797,198.687 414.265,198.058 " />
<path d="M409.062,198.687  A1.09135,1.09135 0 0,0 407.085,198.687 " />
<path d="M412.819,198.687  A3.11868,3.11868 0 0,0 409.062,198.687 " />
<path d="M414.797,198.687  A1.09135,1.09135 0 0,0 412.819,198.687 " />
<polyline points="414.797,198.687 407.085,198.687 " />
<polyline points="412.819,198.687 412.819,202.012 " />
<polyline points="409.062,198.687 409.062,202.012 " />
<polyline points="414.797,198.687 414.797,202.012 " />
<polyline points="407.085,198.687 407.085,202.012 " />
<polyline points="414.265,198.058 407.616,198.058 " />
<polyline points="410.941,191.246 410.941,221.754 " />
<path d="M418.356,202.012  A5.932,5.932 0 0,0 424.288,196.08 " />
<path d="M403.526,202.012  A3.95467,3.95467 0 0,0 399.571,205.967 " />
<path d="M428.242,177.296  A3.95467,3.95467 0 0,0 424.288,181.25 " />
<polyline points="399.571,205.967 399.571,206.956 " />
<polyline points="429.231,177.296 428.242,177.296 " />
<polyline points="418.356,202.012 403.526,202.012 " />
<polyline points="424.288,181.25 424.288,196.08 " />
<polyline points="424.288,573.554 424.288,558.724 " />
<polyline points="418.356,552.792 403.526,552.792 " />
<polyline points="429.231,577.508 428.242,577.508 " />
<polyline points="399.571,548.837 399.571,547.848 " />
<path d="M424.288,573.554  A3.95467,3.95467 0 0,0 428.242,577.508 " />
<path d="M399.571,548.837  A3.95467,3.95467 0 0,0 403.526,552.792 " />
<path d="M424.288,558.724  A5.932,5.932 0 0,0 418.356,552.792 " />
<polyline points="410.941,563.558 410.941,533.05 " />
<polyline points="414.265,556.746 407.616,556.746 " />
<polyline points="407.085,556.117 407.085,552.792 " />
<polyline points="414.797,556.117 414.797,552.792 " />
<polyline points="409.062,556.117 409.062,552.792 " />
<polyline points="412.819,556.117 412.819,552.792 " />
<polyline points="414.797,556.117 407.085,556.117 " />
<path d="M412.819,556.117  A1.09135,1.09135 0 0,0 414.797,556.117 " />
<path d="M409.062,556.117  A3.11868,3.11868 0 0,0 412.819,556.117 " />
<path d="M407.085,556.117  A1.09135,1.09135 0 0,0 409.062,556.117 " />
<polyline points="414.797,556.117 414.265,556.746 " />
<polyline points="407.085,556.117 407.616,556.746 " />
<polyline points="407.085,542.545 407.616,541.916 " />
<polyline points="414.797,542.545 414.265,541.916 " />
<path d="M409.062,542.545  A1.09135,1.09135 0 0,0 407.085,542.545 " />
<path d="M412.819,542.545  A3.11868,3.11868 0 0,0 409.062,542.545 " />
<path d="M414.797,542.545  A1.09135,1.09135 0 0,0 412.819,542.545 " />
<polyline points="414.797,542.545 407.085,542.545 " />
<polyline points="412.819,542.545 412.819,545.871 " />
<polyline points="409.062,542.545 409.062,545.871 " />
<polyline points="414.797,542.545 414.797,545.871 " />
<polyline points="407.085,542.545 407.085,545.871 " />
<polyline points="414.265,541.916 407.616,541.916 " />
<polyline points="408.469,539.939 408.469,541.916 " />
<polyline points="413.412,539.939 413.412,541.916 " />
<polyline points="412.424,540.928 409.458,540.928 " />
<polyline points="413.412,539.939 408.469,539.939 " />
<polyline points="412.424,538.95 409.458,538.95 " />
<polyline points="408.469,539.939 409.458,538.95 " />
<polyline points="413.412,539.939 412.424,538.95 " />
<polyline points="563.69,539.939 564.679,538.95 " />
<polyline points="568.633,539.939 567.645,538.95 " />
<polyline points="564.679,538.95 567.645,538.95 " />
<polyline points="563.69,539.939 568.633,539.939 " />
<polyline points="564.679,540.928 567.645,540.928 " />
<polyline points="563.69,539.939 563.69,541.916 " />
<polyline points="568.633,539.939 568.633,541.916 " />
<polyline points="562.837,541.916 569.486,541.916 " />
<polyline points="570.017,542.545 570.017,545.871 " />
<polyline points="562.306,542.545 562.306,545.871 " />
<polyline points="568.04,542.545 568.04,545.871 " />
<polyline points="564.283,542.545 564.283,545.871 " />
<polyline points="562.306,542.545 570.017,542.545 " />
<path d="M564.283,542.545  A1.09135,1.09135 0 0,0 562.306,542.545 " />
<path d="M568.04,542.545  A3.11868,3.11868 0 0,0 564.283,542.545 " />
<path d="M570.017,542.545  A1.09135,1.09135 0 0,0 568.04,542.545 " />
<polyline points="562.306,542.545 562.837,541.916 " />
<polyline points="570.017,542.545 569.486,541.916 " />
<polyline points="570.017,556.117 569.486,556.746 " />
<polyline points="562.306,556.117 562.837,556.746 " />
<path d="M568.04,556.117  A1.09135,1.09135 0 0,0 570.017,556.117 " />
<path d="M564.283,556.117  A3.11868,3.11868 0 0,0 568.04,556.117 " />
<path d="M562.306,556.117  A1.09135,1.09135 0 0,0 564.283,556.117 " />
<polyline points="562.306,556.117 570.017,556.117 " />
<polyline points="564.283,556.117 564.283,552.792 " />
<polyline points="568.04,556.117 568.04,552.792 " />
<polyline points="562.306,556.117 562.306,552.792 " />
<polyline points="570.017,556.117 570.017,552.792 " />
<polyline points="562.837,556.746 569.486,556.746 " />
<polyline points="566.162,563.558 566.162,533.05 " />
<path d="M558.747,552.792  A5.932,5.932 0 0,0 552.815,558.724 " />
<path d="M573.577,552.792  A3.95467,3.95467 0 0,0 577.531,548.837 " />
<path d="M548.86,577.508  A3.95467,3.95467 0 0,0 552.815,573.554 " />
<polyline points="577.531,548.837 577.531,547.848 " />
<polyline points="547.871,577.508 548.86,577.508 " />
<polyline points="558.747,552.792 573.577,552.792 " />
<polyline points="552.815,573.554 552.815,558.724 " />
<polyline points="379.798,545.871 597.305,545.871 " />
<polyline points="379.798,547.848 597.305,547.848 " />
<polyline points="453.948,209.131 453.948,262.321 " />
<polyline points="463.835,211.108 463.835,543.894 " />
<polyline points="466.306,211.108 466.306,543.894 " />
<polyline points="229.189,260.838 448.374,260.838 " />
<polyline points="455.925,211.108 455.925,262.321 " />
<polyline points="448.374,258.861 448.374,260.838 " />
<polyline points="444.42,263.31 444.42,265.287 " />
<path d="M448.374,260.838  A0.988667,0.988667 0 0,0 448.374,258.861 " />
<path d="M444.42,260.838  A3.46034,3.46034 0 0,0 444.42,267.759 " />
<polyline points="444.42,267.759 450.599,267.759 " />
<path d="M450.599,267.759  A1.23583,1.23583 0 0,0 450.599,265.287 " />
<polyline points="452.959,265.287 444.42,265.287 " />
<path d="M444.42,263.31  A0.988667,0.988667 0 1,0 444.42,265.287 " />
<polyline points="444.42,263.31 452.959,263.31 " />
<path d="M448.374,263.31  A3.46034,3.46034 0 1,0 448.374,256.389 " />
<polyline points="448.374,256.389 442.195,256.389 " />
<path d="M442.195,256.389  A1.23583,1.23583 0 1,0 442.195,258.861 " />
<path d="M452.959,263.31  A0.988667,0.988667 0 0,0 453.948,262.321 " />
<path d="M452.959,265.287  A2.966,2.966 0 0,0 455.925,262.321 " />
<polyline points="453.948,265.118 453.948,545.871 " />
<path d="M521.177,262.321  A2.966,2.966 0 0,0 524.143,265.287 " />
<path d="M523.155,262.321  A0.988667,0.988667 0 0,0 524.143,263.31 " />
<path d="M534.907,258.861  A1.23583,1.23583 0 1,0 534.907,256.389 " />
<polyline points="528.728,256.389 534.907,256.389 " />
<path d="M528.728,256.389  A3.46034,3.46034 0 1,0 528.728,263.31 " />
<polyline points="532.683,263.31 524.143,263.31 " />
<path d="M532.683,265.287  A0.988667,0.988667 0 1,0 532.683,263.31 " />
<polyline points="524.143,265.287 532.683,265.287 " />
<path d="M526.503,265.287  A1.23583,1.23583 0 1,0 526.503,267.759 " />
<polyline points="532.683,267.759 526.503,267.759 " />
<path d="M532.683,267.759  A3.46034,3.46034 0 0,0 532.683,260.838 " />
<path d="M528.728,258.861  A0.988667,0.988667 0 0,0 528.728,260.838 " />
<polyline points="532.683,263.31 532.683,265.287 " />
<polyline points="528.728,258.861 528.728,260.838 " />
<polyline points="523.155,265.118 523.155,545.871 " />
<polyline points="521.177,211.108 521.177,262.321 " />
<polyline points="747.913,260.838 528.728,260.838 " />
<polyline points="510.796,211.108 510.796,543.894 " />
<polyline points="513.268,211.108 513.268,543.894 " />
<polyline points="523.155,209.131 523.155,262.321 " />
<polyline points="747.913,258.861 528.728,258.861 " />
<polyline points="455.925,211.108 521.177,211.108 " />
<polyline points="515.571,215.699 516.336,216.464 " />
<polyline points="519.396,215.699 518.631,216.464 " />
<polyline points="516.336,216.464 518.631,216.464 " />
<polyline points="515.571,215.699 519.396,215.699 " />
<polyline points="516.336,214.934 518.631,214.934 " />
<polyline points="515.571,215.699 515.571,214.168 " />
<polyline points="519.396,215.699 519.396,214.168 " />
<polyline points="514.911,214.168 520.056,214.168 " />
<polyline points="520.468,213.682 520.468,211.108 " />
<polyline points="514.5,213.682 514.5,211.108 " />
<polyline points="518.937,213.682 518.937,211.108 " />
<polyline points="516.03,213.682 516.03,211.108 " />
<polyline points="514.5,213.682 520.468,213.682 " />
<path d="M514.5,213.682  A0.844521,0.844521 0 0,0 516.03,213.682 " />
<path d="M516.03,213.682  A2.41333,2.41333 0 0,0 518.937,213.682 " />
<path d="M518.937,213.682  A0.844521,0.844521 0 0,0 520.468,213.682 " />
<polyline points="514.5,213.682 514.911,214.168 " />
<polyline points="520.468,213.682 520.056,214.168 " />
<polyline points="520.468,204.382 520.056,203.896 " />
<polyline points="514.5,204.382 514.911,203.896 " />
<path d="M520.468,204.382  A0.844521,0.844521 0 0,0 518.937,204.382 " />
<path d="M518.937,204.382  A2.41333,2.41333 0 0,0 516.03,204.382 " />
<path d="M516.03,204.382  A0.844521,0.844521 0 0,0 514.5,204.382 " />
<polyline points="514.5,204.382 520.468,204.382 " />
<polyline points="516.03,204.382 516.03,206.956 " />
<polyline points="518.937,204.382 518.937,206.956 " />
<polyline points="514.5,204.382 514.5,206.956 " />
<polyline points="520.468,204.382 520.468,206.956 " />
<polyline points="514.911,203.896 520.056,203.896 " />
<polyline points="462.191,203.896 457.046,203.896 " />
<polyline points="456.635,204.382 456.635,206.956 " />
<polyline points="462.602,204.382 462.602,206.956 " />
<polyline points="458.165,204.382 458.165,206.956 " />
<polyline points="461.072,204.382 461.072,206.956 " />
<polyline points="462.602,204.382 456.635,204.382 " />
<path d="M462.602,204.382  A0.844521,0.844521 0 0,0 461.072,204.382 " />
<path d="M461.072,204.382  A2.41333,2.41333 0 0,0 458.165,204.382 " />
<path d="M458.165,204.382  A0.844521,0.844521 0 0,0 456.635,204.382 " />
<polyline points="462.602,204.382 462.191,203.896 " />
<polyline points="456.635,204.382 457.046,203.896 " />
<polyline points="456.635,213.682 457.046,214.168 " />
<polyline points="462.602,213.682 462.191,214.168 " />
<path d="M456.635,213.682  A0.844521,0.844521 0 0,0 458.165,213.682 " />
<path d="M458.165,213.682  A2.41333,2.41333 0 0,0 461.072,213.682 " />
<path d="M461.072,213.682  A0.844521,0.844521 0 0,0 462.602,213.682 " />
<polyline points="462.602,213.682 456.635,213.682 " />
<polyline points="461.072,213.682 461.072,211.108 " />
<polyline points="458.165,213.682 458.165,211.108 " />
<polyline points="462.602,213.682 462.602,211.108 " />
<polyline points="456.635,213.682 456.635,211.108 " />
<polyline points="462.191,214.168 457.046,214.168 " />
<polyline points="457.706,215.699 457.706,214.168 " />
<polyline points="461.531,215.699 461.531,214.168 " />
<polyline points="460.766,214.934 458.471,214.934 " />
<polyline points="461.531,215.699 457.706,215.699 " />
<polyline points="460.766,216.464 458.471,216.464 " />
<polyline points="457.706,215.699 458.471,216.464 " />
<polyline points="461.531,215.699 460.766,216.464 " />
<path d="M475.702,213.808  A4.9726,4.9726 0 1,0 475.702,218.353 " />
<path d="M501.401,213.381  A4.9726,4.9726 0 0,0 510.796,211.108 " />
<path d="M501.401,223.326  A4.9726,4.9726 0 1,0 501.401,218.781 " />
<polyline points="471.279,216.081 505.824,221.053 " />
<polyline points="505.824,221.053 471.279,226.026 " />
<polyline points="471.279,226.026 505.824,230.999 " />
<polyline points="505.824,230.999 471.279,235.971 " />
<polyline points="471.279,235.971 505.824,240.944 " />
<polyline points="505.824,240.944 471.279,245.916 " />
<polyline points="471.279,245.916 505.824,250.889 " />
<polyline points="505.824,250.889 471.279,255.862 " />
<polyline points="471.279,255.862 505.824,260.834 " />
<polyline points="505.824,260.834 471.279,265.807 " />
<polyline points="505.824,211.108 471.279,216.081 " />
<path d="M475.702,223.753  A4.9726,4.9726 0 1,0 475.702,228.299 " />
<path d="M475.702,233.699  A4.9726,4.9726 0 1,0 475.702,238.244 " />
<path d="M501.401,233.271  A4.9726,4.9726 0 1,0 501.401,228.726 " />
<path d="M475.702,243.644  A4.9726,4.9726 0 1,0 475.702,248.189 " />
<path d="M501.401,243.216  A4.9726,4.9726 0 1,0 501.401,238.671 " />
<path d="M475.702,253.589  A4.9726,4.9726 0 1,0 475.702,258.134 " />
<path d="M501.401,253.162  A4.9726,4.9726 0 1,0 501.401,248.616 " />
<path d="M475.702,263.534  A4.9726,4.9726 0 1,0 475.702,268.079 " />
<path d="M501.401,263.107  A4.9726,4.9726 0 1,0 501.401,258.562 " />
<polyline points="747.913,552.297 593.35,552.297 " />
<polyline points="747.913,550.32 593.35,550.32 " />
<polyline points="521.177,543.894 521.177,532.024 " />
<polyline points="593.35,552.297 593.35,550.32 " />
<polyline points="597.305,547.848 597.305,545.871 " />
<path d="M593.35,550.32  A0.988667,0.988667 0 0,0 593.35,552.297 " />
<path d="M597.305,550.32  A3.46034,3.46034 0 0,0 597.305,543.399 " />
<polyline points="597.305,543.399 591.125,543.399 " />
<path d="M591.125,543.399  A1.23583,1.23583 0 1,0 591.125,545.871 " />
<path d="M597.305,547.848  A0.988667,0.988667 0 1,0 597.305,545.871 " />
<path d="M593.35,547.848  A3.46034,3.46034 0 1,0 593.35,554.769 " />
<polyline points="593.35,554.769 599.529,554.769 " />
<path d="M599.529,554.769  A1.23583,1.23583 0 1,0 599.529,552.297 " />
<path d="M377.573,552.297  A1.23583,1.23583 0 1,0 377.573,554.769 " />
<polyline points="383.752,554.769 377.573,554.769 " />
<path d="M383.752,554.769  A3.46034,3.46034 0 1,0 383.752,547.848 " />
<path d="M379.798,545.871  A0.988667,0.988667 0 1,0 379.798,547.848 " />
<path d="M385.977,545.871  A1.23583,1.23583 0 1,0 385.977,543.399 " />
<polyline points="379.798,543.399 385.977,543.399 " />
<path d="M379.798,543.399  A3.46034,3.46034 0 0,0 379.798,550.32 " />
<path d="M383.752,552.297  A0.988667,0.988667 0 0,0 383.752,550.32 " />
<polyline points="379.798,547.848 379.798,545.871 " />
<polyline points="383.752,552.297 383.752,550.32 " />
<polyline points="455.925,543.894 455.925,532.024 " />
<polyline points="229.189,550.32 383.752,550.32 " />
<polyline points="229.189,552.297 383.752,552.297 " />
<polyline points="461.531,539.303 460.766,538.538 " />
<polyline points="457.706,539.303 458.471,538.538 " />
<polyline points="460.766,538.538 458.471,538.538 " />
<polyline points="461.531,539.303 457.706,539.303 " />
<polyline points="460.766,540.068 458.471,540.068 " />
<polyline points="461.531,539.303 461.531,540.833 " />
<polyline points="457.706,539.303 457.706,540.833 " />
<polyline points="462.191,540.833 457.046,540.833 " />
<polyline points="456.635,541.32 456.635,543.894 " />
<polyline points="462.602,541.32 462.602,543.894 " />
<polyline points="458.165,541.32 458.165,543.894 " />
<polyline points="461.072,541.32 461.072,543.894 " />
<polyline points="462.602,541.32 456.635,541.32 " />
<path d="M462.602,541.32  A0.844521,0.844521 0 0,0 461.072,541.32 " />
<path d="M461.072,541.32  A2.41333,2.41333 0 0,0 458.165,541.32 " />
<path d="M458.165,541.32  A0.844521,0.844521 0 0,0 456.635,541.32 " />
<polyline points="462.602,541.32 462.191,540.833 " />
<polyline points="456.635,541.32 457.046,540.833 " />
<polyline points="456.635,550.422 457.046,550.909 " />
<polyline points="462.602,550.422 462.191,550.909 " />
<path d="M456.635,550.422  A0.844521,0.844521 0 0,0 458.165,550.422 " />
<path d="M458.165,550.422  A2.41333,2.41333 0 0,0 461.072,550.422 " />
<path d="M461.072,550.422  A0.844521,0.844521 0 0,0 462.602,550.422 " />
<polyline points="462.602,550.422 456.635,550.422 " />
<polyline points="461.072,550.422 461.072,547.848 " />
<polyline points="458.165,550.422 458.165,547.848 " />
<polyline points="462.602,550.422 462.602,547.848 " />
<polyline points="456.635,550.422 456.635,547.848 " />
<polyline points="462.191,550.909 457.046,550.909 " />
<polyline points="514.911,550.909 520.056,550.909 " />
<polyline points="520.468,550.422 520.468,547.848 " />
<polyline points="514.5,550.422 514.5,547.848 " />
<polyline points="518.937,550.422 518.937,547.848 " />
<polyline points="516.03,550.422 516.03,547.848 " />
<polyline points="514.5,550.422 520.468,550.422 " />
<path d="M514.5,550.422  A0.844521,0.844521 0 0,0 516.03,550.422 " />
<path d="M516.03,550.422  A2.41333,2.41333 0 0,0 518.937,550.422 " />
<path d="M518.937,550.422  A0.844521,0.844521 0 0,0 520.468,550.422 " />
<polyline points="514.5,550.422 514.911,550.909 " />
<polyline points="520.468,550.422 520.056,550.909 " />
<polyline points="520.468,541.32 520.056,540.833 " />
<polyline points="514.5,541.32 514.911,540.833 " />
<path d="M520.468,541.32  A0.844521,0.844521 0 0,0 518.937,541.32 " />
<path d="M518.937,541.32  A2.41333,2.41333 0 0,0 516.03,541.32 " />
<path d="M516.03,541.32  A0.844521,0.844521 0 0,0 514.5,541.32 " />
<polyline points="514.5,541.32 520.468,541.32 " />
<polyline points="516.03,541.32 516.03,543.894 " />
<polyline points="518.937,541.32 518.937,543.894 " />
<polyline points="514.5,541.32 514.5,543.894 " />
<polyline points="520.468,541.32 520.468,543.894 " />
<polyline points="514.911,540.833 520.056,540.833 " />
<polyline points="519.396,539.303 519.396,540.833 " />
<polyline points="515.571,539.303 515.571,540.833 " />
<polyline points="516.336,540.068 518.631,540.068 " />
<polyline points="515.571,539.303 519.396,539.303 " />
<polyline points="516.336,538.538 518.631,538.538 " />
<polyline points="519.396,539.303 518.631,538.538 " />
<polyline points="515.571,539.303 516.336,538.538 " />
<polyline points="455.925,543.894 521.177,543.894 " />
</g>
<g clip-path="url(#clipId0)" fill="rgb(0,0,0)" stroke="rgb(0,0,0)" stroke-width="0.25" >
<path d="M558.987,184.732 555.977,183.724 554.457,193.258 554.457,193.258 z" />
</g>
<g clip-path="url(#clipId0)" fill="none" stroke="rgb(0,0,0)" stroke-width="0.25" >
<polyline points="557.482,184.228 580.9,114.33 " />
<polyline points="580.9,114.33 590.424,114.33 " />
</g>
<g clip-path="url(#clipId0)" fill="rgb(0,0,0)" stroke="rgb(0,0,0)" stroke-width="0.25" >
<path d="M382.028,197.575 379.032,198.626 383.684,207.087 383.684,207.087 z" />
</g>
<g clip-path="url(#clipId0)" fill="none" stroke="rgb(0,0,0)" stroke-width="0.25" >
<polyline points="380.53,198.101 366.055,156.859 " />
<polyline points="364.947,153.794 355.424,153.794 " />
<polyline points="521.177,532.024 523.155,532.024 " />
<polyline points="455.925,532.024 453.948,532.024 " />
</g>
<g clip-path="url(#clipId0)" fill="rgb(0,0,0)" stroke="rgb(0,0,0)" stroke-width="0.25" >
<path d="M524.685,360.651 527.127,362.68 519.819,368.99 519.819,368.99 z" />
</g>
<g clip-path="url(#clipId0)" fill="none" stroke="rgb(0,0,0)" stroke-width="0.25" >
<polyline points="525.906,361.666 555.083,326.557 " />
<polyline points="555.083,326.557 564.606,326.557 " />
<polyline points="818.351,228.342 818.351,322.007 " />
</g>
<g clip-path="url(#clipId0)" fill="rgb(0,0,0)" stroke="rgb(0,0,0)" stroke-width="0.25" >
<path d="M599.05,533.632 595.954,532.931 595.4,542.57 595.4,542.57 z" />
</g>
<g clip-path="url(#clipId0)" fill="none" stroke="rgb(0,0,0)" stroke-width="0.25" >
<polyline points="597.502,533.281 606.176,494.948 " />
<polyline points="606.176,494.948 615.7,494.948 " />
<polyline points="818.351,322.007 807.466,327.02 " />
<polyline points="807.466,327.02 829.337,335.273 " />
<polyline points="829.337,335.273 818.351,339.552 " />
<polyline points="818.351,339.552 818.351,471.606 " />
<polyline points="829.337,475.885 818.351,471.606 " />
<polyline points="807.466,484.138 829.337,475.885 " />
<polyline points="818.351,489.151 807.466,484.138 " />
<polyline points="818.351,489.151 818.351,582.816 " />
<polyline points="168.534,489.151 168.534,582.816 " />
<polyline points="168.534,489.151 179.419,484.138 " />
<polyline points="179.419,484.138 157.548,475.885 " />
<polyline points="157.548,475.885 168.534,471.606 " />
<polyline points="168.534,339.552 168.534,471.606 " />
<polyline points="157.548,335.273 168.534,339.552 " />
<polyline points="179.419,327.02 157.548,335.273 " />
<polyline points="168.534,322.007 179.419,327.02 " />
<polyline points="168.534,228.342 168.534,322.007 " />
</g>
<g clip-path="url(#clipId0)" fill="rgb(0,0,0)" stroke="rgb(0,0,0)" stroke-width="0.25" >
<path d="M555.256,635.087 552.81,633.063 547.96,641.411 547.96,641.411 z" />
</g>
<g clip-path="url(#clipId0)" fill="none" stroke="rgb(0,0,0)" stroke-width="0.25" >
<polyline points="554.033,634.075 578.293,604.769 " />
<polyline points="578.293,604.769 587.817,604.769 " />
</g>
<g clip-path="url(#clipId0)" fill="rgb(0,0,0)" stroke="rgb(0,0,0)" stroke-width="0.25" >
<path d="M304.286,560.839 307.338,559.967 303.194,551.246 303.194,551.246 z" />
</g>
<g clip-path="url(#clipId0)" fill="none" stroke="rgb(0,0,0)" stroke-width="0.25" >
<polyline points="305.812,560.403 329.613,643.647 " />
<polyline points="320.09,643.647 329.613,643.647 " />
<polyline points="429.231,178.011 547.871,59.3708 " />
<polyline points="429.231,143.056 547.871,24.4161 " />
<polyline points="429.231,108.102 529.803,7.52941 " />
<polyline points="429.231,73.1469 494.849,7.52941 " />
<polyline points="429.231,38.1922 459.894,7.52941 " />
<polyline points="442.656,199.541 547.871,94.3255 " />
<polyline points="477.611,199.541 547.871,129.28 " />
<polyline points="512.565,199.541 547.871,164.235 " />
<polyline points="547.52,199.541 547.871,199.189 " />
<polyline points="429.231,702.133 547.871,583.493 " />
<polyline points="429.231,667.179 541.146,555.263 " />
<polyline points="429.231,632.224 506.192,555.263 " />
<polyline points="429.231,597.269 471.237,555.263 " />
<polyline points="429.231,562.315 436.282,555.263 " />
<polyline points="429.236,737.083 547.871,618.448 " />
<polyline points="464.19,737.083 547.871,653.402 " />
<polyline points="499.145,737.083 547.871,688.357 " />
<polyline points="534.1,737.083 547.871,723.312 " />
</g>
<g clip-path="url(#clipId0)" fill="rgb(0,0,0)" stroke="rgb(0,0,0)" stroke-width="0.25" >
<path d="M347.081,398.948 347.081,407.874 373.856,403.411 373.856,403.411 z" />
</g>
<g clip-path="url(#clipId0)" fill="none" stroke="rgb(0,0,0)" stroke-width="0.25" >
<polyline points="280.416,147.506 279.055,146.146 277.014,145.465 274.294,145.465 272.253,146.146 270.892,147.506 270.892,148.867 271.573,150.227 272.253,150.907 273.613,151.588 277.695,152.948 279.055,153.628 279.735,154.309 280.416,155.669 280.416,157.71 279.055,159.07 277.014,159.751 274.294,159.751 272.253,159.07 270.892,157.71 " />
<polyline points="284.497,145.465 284.497,159.751 292.66,159.751 " />
<polyline points="296.061,159.751 296.061,145.465 304.904,145.465 " />
<polyline points="296.061,152.268 301.503,152.268 " />
<polyline points="296.061,159.751 304.904,159.751 " />
<polyline points="308.986,159.751 308.986,145.465 317.829,145.465 " />
<polyline points="308.986,152.268 314.428,152.268 " />
<polyline points="308.986,159.751 317.829,159.751 " />
<polyline points="321.911,145.465 327.352,159.751 332.794,145.465 " />
<polyline points="335.515,159.751 335.515,145.465 344.359,145.465 " />
<polyline points="335.515,152.268 340.957,152.268 " />
<polyline points="335.515,159.751 344.359,159.751 " />
<polyline points="602.517,124.646 602.517,110.36 607.959,124.646 613.401,110.36 613.401,124.646 " />
<polyline points="622.925,110.36 621.564,111.041 620.204,112.401 619.523,113.762 618.843,115.802 618.843,119.204 619.523,121.244 620.204,122.605 621.564,123.965 622.925,124.646 625.646,124.646 627.006,123.965 628.367,122.605 629.047,121.244 629.727,119.204 629.727,115.802 629.047,113.762 628.367,112.401 627.006,111.041 625.646,110.36 622.925,110.36 " />
<polyline points="633.809,110.36 633.809,120.564 634.489,122.605 635.849,123.965 637.89,124.646 639.25,124.646 641.291,123.965 642.652,122.605 643.332,120.564 643.332,110.36 " />
<polyline points="648.774,124.646 648.774,110.36 658.297,124.646 658.297,110.36 " />
<polyline points="668.501,110.36 668.501,124.646 " />
<polyline points="663.739,110.36 673.263,110.36 " />
<polyline points="675.984,124.646 675.984,110.36 " />
<polyline points="681.426,124.646 681.426,110.36 690.949,124.646 690.949,110.36 " />
<polyline points="706.595,113.762 705.914,112.401 704.554,111.041 703.193,110.36 700.472,110.36 699.112,111.041 697.751,112.401 697.071,113.762 696.391,115.802 696.391,119.204 697.071,121.244 697.751,122.605 699.112,123.965 700.472,124.646 703.193,124.646 704.554,123.965 705.914,122.605 706.595,121.244 706.595,119.204 703.193,119.204 " />
<polyline points="723.601,124.646 729.043,110.36 734.484,124.646 " />
<polyline points="725.641,119.884 732.444,119.884 " />
<polyline points="738.566,124.646 738.566,110.36 748.089,124.646 748.089,110.36 " />
<polyline points="763.735,113.762 763.055,112.401 761.694,111.041 760.334,110.36 757.613,110.36 756.252,111.041 754.892,112.401 754.212,113.762 753.531,115.802 753.531,119.204 754.212,121.244 754.892,122.605 756.252,123.965 757.613,124.646 760.334,124.646 761.694,123.965 763.055,122.605 763.735,121.244 763.735,119.204 760.334,119.204 " />
<polyline points="767.816,110.36 767.816,124.646 775.979,124.646 " />
<polyline points="779.38,124.646 779.38,110.36 788.224,110.36 " />
<polyline points="779.38,117.163 784.822,117.163 " />
<polyline points="779.38,124.646 788.224,124.646 " />
<polyline points="809.991,107.639 808.631,109 807.27,111.041 805.91,113.762 805.23,117.163 805.23,119.884 805.91,123.285 807.27,126.006 808.631,128.047 809.991,129.407 " />
<polyline points="819.515,110.36 819.515,124.646 " />
<polyline points="814.753,110.36 824.277,110.36 " />
<polyline points="826.997,110.36 832.439,117.163 837.881,110.36 " />
<polyline points="832.439,117.163 832.439,124.646 " />
<polyline points="840.602,124.646 840.602,110.36 846.725,110.36 848.765,111.041 849.445,111.721 850.126,113.081 850.126,115.122 849.445,116.483 848.765,117.163 846.725,117.843 840.602,117.843 " />
<polyline points="855.568,123.285 854.887,123.965 855.568,124.646 856.248,123.965 " />
<polyline points="861.69,107.639 863.05,109 864.411,111.041 865.771,113.762 866.452,117.163 866.452,119.884 865.771,123.285 864.411,126.006 863.05,128.047 861.69,129.407 " />
<polyline points="286.582,373.781 285.222,374.461 283.861,375.822 283.181,377.182 282.501,379.223 282.501,382.624 283.181,384.665 283.861,386.025 285.222,387.386 286.582,388.066 289.303,388.066 290.664,387.386 292.024,386.025 292.704,384.665 293.385,382.624 293.385,379.223 292.704,377.182 292.024,375.822 290.664,374.461 289.303,373.781 286.582,373.781 " />
<polyline points="288.623,385.345 292.704,389.427 " />
<polyline points="284.457,425.126 289.899,410.841 295.341,425.126 " />
<polyline points="286.497,420.365 293.3,420.365 " />
<polyline points="305.423,423.423 304.063,424.103 302.702,425.464 302.022,427.504 302.022,428.865 302.702,430.906 304.063,432.266 305.423,432.946 307.464,432.946 308.824,432.266 310.185,430.906 310.865,428.865 310.865,427.504 310.185,425.464 308.824,424.103 307.464,423.423 305.423,423.423 " />
<polyline points="574.105,322.974 574.105,337.259 " />
<polyline points="569.343,322.974 578.867,322.974 " />
<polyline points="581.587,322.974 587.029,329.777 592.471,322.974 " />
<polyline points="587.029,329.777 587.029,337.259 " />
<polyline points="595.192,337.259 595.192,322.974 601.315,322.974 603.355,323.654 604.036,324.335 604.716,325.695 604.716,327.736 604.036,329.096 603.355,329.777 601.315,330.457 595.192,330.457 " />
<polyline points="609.477,337.259 609.477,322.974 618.321,322.974 " />
<polyline points="609.477,329.777 614.919,329.777 " />
<polyline points="609.477,337.259 618.321,337.259 " />
<polyline points="636.687,320.933 636.007,321.614 635.327,320.933 636.007,320.253 636.687,320.933 636.687,322.294 636.007,323.654 635.327,324.335 " />
<polyline points="640.769,320.933 640.088,321.614 639.408,320.933 640.088,320.253 640.769,320.933 640.769,322.294 640.088,323.654 639.408,324.335 " />
<polyline points="645.53,337.259 645.53,322.974 651.652,322.974 653.693,323.654 654.373,324.335 655.054,325.695 655.054,327.056 654.373,328.416 653.693,329.096 651.652,329.777 " />
<polyline points="645.53,329.777 651.652,329.777 653.693,330.457 654.373,331.137 655.054,332.498 655.054,334.538 654.373,335.899 653.693,336.579 651.652,337.259 645.53,337.259 " />
<polyline points="661.176,320.933 660.496,321.614 659.815,320.933 660.496,320.253 661.176,320.933 661.176,322.294 660.496,323.654 659.815,324.335 " />
<polyline points="665.257,320.933 664.577,321.614 663.897,320.933 664.577,320.253 665.257,320.933 665.257,322.294 664.577,323.654 663.897,324.335 " />
<polyline points="682.944,337.259 682.944,322.974 691.787,322.974 " />
<polyline points="682.944,329.777 688.386,329.777 " />
<polyline points="695.188,337.259 695.188,322.974 " />
<polyline points="700.63,337.259 700.63,322.974 706.752,322.974 708.793,323.654 709.473,324.335 710.153,325.695 710.153,327.056 709.473,328.416 708.793,329.096 706.752,329.777 700.63,329.777 " />
<polyline points="705.392,329.777 710.153,337.259 " />
<polyline points="714.915,337.259 714.915,322.974 723.758,322.974 " />
<polyline points="714.915,329.777 720.357,329.777 " />
<polyline points="714.915,337.259 723.758,337.259 " />
<polyline points="569.343,361.748 569.343,347.463 574.105,347.463 576.146,348.143 577.506,349.504 578.186,350.864 578.867,352.905 578.867,356.306 578.186,358.347 577.506,359.707 576.146,361.068 574.105,361.748 569.343,361.748 " />
<polyline points="583.628,361.748 589.07,347.463 594.512,361.748 " />
<polyline points="585.669,356.986 592.471,356.986 " />
<polyline points="598.594,361.748 598.594,347.463 604.036,361.748 609.477,347.463 609.477,361.748 " />
<polyline points="614.919,361.748 614.919,347.463 621.042,347.463 623.082,348.143 623.763,348.823 624.443,350.184 624.443,352.225 623.763,353.585 623.082,354.265 621.042,354.946 614.919,354.946 " />
<polyline points="629.204,361.748 629.204,347.463 638.048,347.463 " />
<polyline points="629.204,354.265 634.646,354.265 " />
<polyline points="629.204,361.748 638.048,361.748 " />
<polyline points="642.129,361.748 642.129,347.463 648.251,347.463 650.292,348.143 650.972,348.823 651.652,350.184 651.652,351.544 650.972,352.905 650.292,353.585 648.251,354.265 642.129,354.265 " />
<polyline points="646.891,354.265 651.652,361.748 " />
<polyline points="674.101,344.742 672.74,346.102 671.38,348.143 670.019,350.864 669.339,354.265 669.339,356.986 670.019,360.388 671.38,363.109 672.74,365.149 674.101,366.51 " />
<polyline points="678.862,347.463 684.304,361.748 689.746,347.463 " />
<polyline points="692.467,361.748 692.467,347.463 701.31,347.463 " />
<polyline points="692.467,354.265 697.909,354.265 " />
<polyline points="692.467,361.748 701.31,361.748 " />
<polyline points="705.392,361.748 705.392,347.463 711.514,347.463 713.555,348.143 714.235,348.823 714.915,350.184 714.915,351.544 714.235,352.905 713.555,353.585 711.514,354.265 705.392,354.265 " />
<polyline points="710.153,354.265 714.915,361.748 " />
<polyline points="724.438,347.463 724.438,361.748 " />
<polyline points="719.677,347.463 729.2,347.463 " />
<polyline points="732.601,360.388 731.921,361.068 732.601,361.748 733.282,361.068 " />
<polyline points="573.425,371.952 572.064,372.632 570.704,373.992 570.023,375.353 569.343,377.394 569.343,380.795 570.023,382.836 570.704,384.196 572.064,385.557 573.425,386.237 576.146,386.237 577.506,385.557 578.867,384.196 579.547,382.836 580.227,380.795 580.227,377.394 579.547,375.353 578.867,373.992 577.506,372.632 576.146,371.952 573.425,371.952 " />
<polyline points="584.308,386.237 584.308,371.952 590.431,371.952 592.471,372.632 593.152,373.312 593.832,374.673 593.832,376.033 593.152,377.394 592.471,378.074 590.431,378.754 584.308,378.754 " />
<polyline points="589.07,378.754 593.832,386.237 " />
<polyline points="611.518,386.237 611.518,371.952 " />
<polyline points="621.042,371.952 621.042,386.237 " />
<polyline points="611.518,378.754 621.042,378.754 " />
<polyline points="630.565,371.952 629.204,372.632 627.844,373.992 627.164,375.353 626.484,377.394 626.484,380.795 627.164,382.836 627.844,384.196 629.204,385.557 630.565,386.237 633.286,386.237 634.646,385.557 636.007,384.196 636.687,382.836 637.367,380.795 637.367,377.394 636.687,375.353 636.007,373.992 634.646,372.632 633.286,371.952 630.565,371.952 " />
<polyline points="641.449,386.237 641.449,371.952 647.571,371.952 649.612,372.632 650.292,373.312 650.972,374.673 650.972,376.033 650.292,377.394 649.612,378.074 647.571,378.754 641.449,378.754 " />
<polyline points="646.211,378.754 650.972,386.237 " />
<polyline points="655.734,386.237 655.734,371.952 " />
<polyline points="661.176,371.952 670.699,371.952 661.176,386.237 670.699,386.237 " />
<polyline points="675.461,384.876 674.781,385.557 675.461,386.237 676.141,385.557 " />
<polyline points="681.583,369.231 682.944,370.591 684.304,372.632 685.665,375.353 686.345,378.754 686.345,381.475 685.665,384.876 684.304,387.597 682.944,389.638 681.583,390.998 " />
<polyline points="625.316,486.741 624.636,487.421 623.955,486.741 624.636,486.06 625.316,486.741 625.316,488.101 624.636,489.461 623.955,490.142 " />
<polyline points="629.397,486.741 628.717,487.421 628.037,486.741 628.717,486.06 629.397,486.741 629.397,488.101 628.717,489.461 628.037,490.142 " />
<polyline points="643.682,490.822 642.322,489.461 640.281,488.781 637.56,488.781 635.52,489.461 634.159,490.822 634.159,492.182 634.839,493.543 635.52,494.223 636.88,494.903 640.962,496.264 642.322,496.944 643.002,497.624 643.682,498.985 643.682,501.026 642.322,502.386 640.281,503.066 637.56,503.066 635.52,502.386 634.159,501.026 " />
<polyline points="649.124,486.741 648.444,487.421 647.764,486.741 648.444,486.06 649.124,486.741 649.124,488.101 648.444,489.461 647.764,490.142 " />
<polyline points="653.206,486.741 652.526,487.421 651.845,486.741 652.526,486.06 653.206,486.741 653.206,488.101 652.526,489.461 651.845,490.142 " />
<polyline points="680.416,490.822 679.055,489.461 677.014,488.781 674.293,488.781 672.253,489.461 670.892,490.822 670.892,492.182 671.572,493.543 672.253,494.223 673.613,494.903 677.695,496.264 679.055,496.944 679.735,497.624 680.416,498.985 680.416,501.026 679.055,502.386 677.014,503.066 674.293,503.066 672.253,502.386 670.892,501.026 " />
<polyline points="684.497,488.781 684.497,503.066 692.66,503.066 " />
<polyline points="696.061,503.066 696.061,488.781 " />
<polyline points="701.503,503.066 701.503,488.781 707.625,488.781 709.666,489.461 710.346,490.142 711.027,491.502 711.027,493.543 710.346,494.903 709.666,495.584 707.625,496.264 701.503,496.264 " />
<polyline points="595.498,612.832 595.498,598.547 604.341,598.547 " />
<polyline points="595.498,605.349 600.94,605.349 " />
<polyline points="607.743,612.832 607.743,598.547 " />
<polyline points="613.185,612.832 613.185,598.547 619.307,598.547 621.347,599.227 622.028,599.908 622.708,601.268 622.708,602.628 622.028,603.989 621.347,604.669 619.307,605.349 613.185,605.349 " />
<polyline points="617.946,605.349 622.708,612.832 " />
<polyline points="627.47,612.832 627.47,598.547 636.313,598.547 " />
<polyline points="627.47,605.349 632.912,605.349 " />
<polyline points="627.47,612.832 636.313,612.832 " />
<polyline points="653.319,612.832 653.319,598.547 659.441,598.547 661.482,599.227 662.162,599.908 662.842,601.268 662.842,602.628 662.162,603.989 661.482,604.669 659.441,605.349 " />
<polyline points="653.319,605.349 659.441,605.349 661.482,606.03 662.162,606.71 662.842,608.07 662.842,610.111 662.162,611.472 661.482,612.152 659.441,612.832 653.319,612.832 " />
<polyline points="667.604,612.832 673.046,598.547 678.488,612.832 " />
<polyline points="669.645,608.07 676.447,608.07 " />
<polyline points="682.569,612.832 682.569,598.547 688.692,598.547 690.732,599.227 691.412,599.908 692.093,601.268 692.093,602.628 691.412,603.989 690.732,604.669 688.692,605.349 682.569,605.349 " />
<polyline points="687.331,605.349 692.093,612.832 " />
<polyline points="696.854,612.832 696.854,598.547 702.977,598.547 705.017,599.227 705.698,599.908 706.378,601.268 706.378,602.628 705.698,603.989 705.017,604.669 702.977,605.349 696.854,605.349 " />
<polyline points="701.616,605.349 706.378,612.832 " />
<polyline points="711.14,612.832 711.14,598.547 " />
<polyline points="716.581,612.832 716.581,598.547 725.425,598.547 " />
<polyline points="716.581,605.349 722.023,605.349 " />
<polyline points="716.581,612.832 725.425,612.832 " />
<polyline points="729.506,612.832 729.506,598.547 735.628,598.547 737.669,599.227 738.349,599.908 739.029,601.268 739.029,602.628 738.349,603.989 737.669,604.669 735.628,605.349 729.506,605.349 " />
<polyline points="734.268,605.349 739.029,612.832 " />
<polyline points="160.571,649.966 160.571,635.681 165.332,635.681 167.373,636.361 168.734,637.721 169.414,639.082 170.094,641.122 170.094,644.524 169.414,646.564 168.734,647.925 167.373,649.285 165.332,649.966 160.571,649.966 " />
<polyline points="174.856,635.681 174.856,645.884 175.536,647.925 176.896,649.285 178.937,649.966 180.298,649.966 182.338,649.285 183.699,647.925 184.379,645.884 184.379,635.681 " />
<polyline points="200.025,639.082 199.344,637.721 197.984,636.361 196.624,635.681 193.903,635.681 192.542,636.361 191.182,637.721 190.501,639.082 189.821,641.122 189.821,644.524 190.501,646.564 191.182,647.925 192.542,649.285 193.903,649.966 196.624,649.966 197.984,649.285 199.344,647.925 200.025,646.564 " />
<polyline points="208.868,635.681 208.868,649.966 " />
<polyline points="204.106,635.681 213.63,635.681 " />
<polyline points="234.037,632.96 232.676,634.32 231.316,636.361 229.955,639.082 229.275,642.483 229.275,645.204 229.955,648.605 231.316,651.326 232.676,653.367 234.037,654.727 " />
<polyline points="238.799,635.681 242.2,649.966 245.601,635.681 249.002,649.966 252.403,635.681 " />
<polyline points="268.049,649.966 275.532,640.442 " />
<polyline points="275.532,649.966 268.049,640.442 " />
<polyline points="292.538,649.966 292.538,635.681 " />
<polyline points="302.061,635.681 302.061,649.966 " />
<polyline points="292.538,642.483 302.061,642.483 " />
<polyline points="307.503,632.96 308.864,634.32 310.224,636.361 311.585,639.082 312.265,642.483 312.265,645.204 311.585,648.605 310.224,651.326 308.864,653.367 307.503,654.727 " />
<polyline points="229.189,550.32 168.534,550.32 " />
<polyline points="229.189,552.297 168.534,552.297 " />
<polyline points="229.189,258.861 168.534,258.861 " />
<polyline points="229.189,260.838 168.534,260.838 " />
<polyline points="747.913,552.297 818.351,552.297 " />
<polyline points="747.913,550.32 818.351,550.32 " />
<polyline points="747.913,260.838 818.351,260.838 " />
<polyline points="747.913,258.861 818.351,258.861 " />
<polyline points="348.531,403.649 252.313,403.649 " />
<polyline points="366.055,156.859 364.947,153.794 " />
<polyline points="732.543,744.508 731.546,742.512 729.55,740.517 727.555,739.519 723.564,739.519 721.569,740.517 719.573,742.512 718.576,744.508 717.578,747.501 717.578,752.489 718.576,755.482 719.573,757.478 721.569,759.473 723.564,760.471 727.555,760.471 729.55,759.473 731.546,757.478 732.543,755.482 " stroke-dasharray="59.521244,11.904249,11.904249,11.904249" />
<polyline points="738.529,760.471 738.529,739.519 747.509,739.519 750.502,740.517 751.499,741.514 752.497,743.51 752.497,745.505 751.499,747.501 750.502,748.498 747.509,749.496 738.529,749.496 " stroke-dasharray="59.521244,11.904249,11.904249,11.904249" />
<polyline points="745.513,749.496 752.497,760.471 " stroke-dasharray="59.521244,11.904249,11.904249,11.904249" />
<polyline points="772.451,746.503 771.453,749.496 769.458,751.491 766.465,752.489 765.467,752.489 762.474,751.491 760.479,749.496 759.481,746.503 759.481,745.505 760.479,742.512 762.474,740.517 765.467,739.519 766.465,739.519 769.458,740.517 771.453,742.512 772.451,746.503 772.451,751.491 771.453,756.48 769.458,759.473 766.465,760.471 764.469,760.471 761.476,759.473 760.479,757.478 " stroke-dasharray="59.521244,11.904249,11.904249,11.904249" />
<polyline points="779.435,751.491 797.393,751.491 " stroke-dasharray="59.521244,11.904249,11.904249,11.904249" />
<polyline points="817.347,742.512 816.349,740.517 813.356,739.519 811.361,739.519 808.368,740.517 806.372,743.51 805.375,748.498 805.375,753.487 806.372,757.478 808.368,759.473 811.361,760.471 812.358,760.471 815.352,759.473 817.347,757.478 818.345,754.484 818.345,753.487 817.347,750.494 815.352,748.498 812.358,747.501 811.361,747.501 808.368,748.498 806.372,750.494 805.375,753.487 " stroke-dasharray="59.521244,11.904249,11.904249,11.904249" />
</g>
</svg>
