<?xml version="1.0" standalone="no"?>
<svg viewBox="0 0 1024 768" version="1.1" xmlns="http://www.w3.org/2000/svg" xmlns:xlink="http://www.w3.org/1999/xlink" stroke-linecap="round" stroke-linejoin="round" fill-rule="evenodd" xml:space="preserve" >
<defs >
<clipPath id="clipId0" >
<path d="M0,768 1024,768 1024,0 0,0 z" />
</clipPath>
</defs>
<g clip-path="url(#clipId0)" fill="none" stroke="rgb(0,0,0)" stroke-width="0.1" />
<g clip-path="url(#clipId0)" fill="none" stroke="rgb(0,0,0)" stroke-width="0.25" >
<polyline points="918.977,490.596 80.2294,490.596 " />
<polyline points="840.677,309.582 670.46,309.582 " />
</g>
<g clip-path="url(#clipId0)" fill="rgb(0,0,0)" stroke="rgb(0,0,0)" stroke-width="0.25" >
<path d="M840.677,306.565 840.677,312.599 858.778,309.582 858.778,309.582 z" />
</g>
<g clip-path="url(#clipId0)" fill="none" stroke="rgb(0,0,0)" stroke-width="0.25" >
<polyline points="918.977,128.567 80.2294,128.567 " />
<polyline points="957.877,202.885 1013.96,235.264 " />
<polyline points="957.877,202.885 985.919,202.885 " />
<polyline points="1013.96,235.264 985.919,235.264 " />
<polyline points="985.919,92.3644 985.919,202.885 " />
<polyline points="985.919,235.264 985.919,383.899 " />
<polyline points="38.0809,235.264 38.0809,383.899 " />
<polyline points="38.0809,92.3644 38.0809,202.885 " />
<polyline points="66.1225,235.264 38.0809,235.264 " />
<polyline points="10.0392,202.885 38.0809,202.885 " />
<polyline points="10.0392,202.885 66.1225,235.264 " />
<polyline points="10.0392,383.899 66.1225,416.279 " />
<polyline points="10.0392,383.899 38.0809,383.899 " />
<polyline points="66.1225,416.279 38.0809,416.279 " />
<polyline points="38.0809,526.799 38.0809,416.279 " />
<polyline points="985.919,526.799 985.919,416.279 " />
<polyline points="1013.96,416.279 985.919,416.279 " />
<polyline points="957.877,383.899 985.919,383.899 " />
<polyline points="957.877,383.899 1013.96,416.279 " />
</g>
<g clip-path="url(#clipId0)" fill="rgb(0,0,0)" stroke="rgb(0,0,0)" stroke-width="0.25" >
<polygon points="468.236,430.258 468.269,430.889 474.27,430.258 474.27,430.258 " />
<polygon points="468.269,430.889 468.368,431.512 474.27,430.258 474.27,430.258 " />
<polygon points="468.368,431.512 468.531,432.122 474.27,430.258 474.27,430.258 " />
<polygon points="468.531,432.122 468.758,432.712 474.27,430.258 474.27,430.258 " />
<polygon points="468.758,432.712 469.044,433.275 474.27,430.258 474.27,430.258 " />
<polygon points="469.044,433.275 469.388,433.804 474.27,430.258 474.27,430.258 " />
<polygon points="469.388,433.804 469.786,434.295 474.27,430.258 474.27,430.258 " />
<polygon points="469.786,434.295 470.232,434.742 474.27,430.258 474.27,430.258 " />
<polygon points="470.232,434.742 470.723,435.139 474.27,430.258 474.27,430.258 " />
<polygon points="470.723,435.139 471.253,435.483 474.27,430.258 474.27,430.258 " />
<polygon points="471.253,435.483 471.816,435.77 474.27,430.258 474.27,430.258 " />
<polygon points="471.816,435.77 472.405,435.996 474.27,430.258 474.27,430.258 " />
<polygon points="472.405,435.996 473.015,436.16 474.27,430.258 474.27,430.258 " />
<polygon points="473.015,436.16 473.639,436.259 474.27,430.258 474.27,430.258 " />
<polygon points="473.639,436.259 474.27,436.292 474.27,430.258 474.27,430.258 " />
<polygon points="474.27,436.292 474.901,436.259 474.27,430.258 474.27,430.258 " />
<polygon points="474.901,436.259 475.524,436.16 474.27,430.258 474.27,430.258 " />
<polygon points="475.524,436.16 476.134,435.996 474.27,430.258 474.27,430.258 " />
<polygon points="476.134,435.996 476.724,435.77 474.27,430.258 474.27,430.258 " />
<polygon points="476.724,435.77 477.287,435.483 474.27,430.258 474.27,430.258 " />
<polygon points="477.287,435.483 477.816,435.139 474.27,430.258 474.27,430.258 " />
<polygon points="477.816,435.139 478.307,434.742 474.27,430.258 474.27,430.258 " />
<polygon points="478.307,434.742 478.754,434.295 474.27,430.258 474.27,430.258 " />
<polygon points="478.754,434.295 479.151,433.804 474.27,430.258 474.27,430.258 " />
<polygon points="479.151,433.804 479.495,433.275 474.27,430.258 474.27,430.258 " />
<polygon points="479.495,433.275 479.782,432.712 474.27,430.258 474.27,430.258 " />
<polygon points="479.782,432.712 480.008,432.122 474.27,430.258 474.27,430.258 " />
<polygon points="480.008,432.122 480.172,431.512 474.27,430.258 474.27,430.258 " />
<polygon points="480.172,431.512 480.271,430.889 474.27,430.258 474.27,430.258 " />
<polygon points="480.271,430.889 480.304,430.258 474.27,430.258 474.27,430.258 " />
<polygon points="480.304,430.258 480.271,429.627 474.27,430.258 474.27,430.258 " />
<polygon points="480.271,429.627 480.172,429.003 474.27,430.258 474.27,430.258 " />
<polygon points="480.172,429.003 480.008,428.393 474.27,430.258 474.27,430.258 " />
<polygon points="480.008,428.393 479.782,427.804 474.27,430.258 474.27,430.258 " />
<polygon points="479.782,427.804 479.495,427.241 474.27,430.258 474.27,430.258 " />
<polygon points="479.495,427.241 479.151,426.711 474.27,430.258 474.27,430.258 " />
<polygon points="479.151,426.711 478.754,426.22 474.27,430.258 474.27,430.258 " />
<polygon points="478.754,426.22 478.307,425.774 474.27,430.258 474.27,430.258 " />
<polygon points="478.307,425.774 477.816,425.376 474.27,430.258 474.27,430.258 " />
<polygon points="477.816,425.376 477.287,425.032 474.27,430.258 474.27,430.258 " />
<polygon points="477.287,425.032 476.724,424.746 474.27,430.258 474.27,430.258 " />
<polygon points="476.724,424.746 476.134,424.519 474.27,430.258 474.27,430.258 " />
<polygon points="476.134,424.519 475.524,424.356 474.27,430.258 474.27,430.258 " />
<polygon points="475.524,424.356 474.901,424.257 474.27,430.258 474.27,430.258 " />
<polygon points="474.901,424.257 474.27,424.224 474.27,430.258 474.27,430.258 " />
<polygon points="474.27,424.224 473.639,424.257 474.27,430.258 474.27,430.258 " />
<polygon points="473.639,424.257 473.015,424.356 474.27,430.258 474.27,430.258 " />
<polygon points="473.015,424.356 472.405,424.519 474.27,430.258 474.27,430.258 " />
<polygon points="472.405,424.519 471.816,424.746 474.27,430.258 474.27,430.258 " />
<polygon points="471.816,424.746 471.253,425.032 474.27,430.258 474.27,430.258 " />
<polygon points="471.253,425.032 470.723,425.376 474.27,430.258 474.27,430.258 " />
<polygon points="470.723,425.376 470.232,425.774 474.27,430.258 474.27,430.258 " />
<polygon points="470.232,425.774 469.786,426.22 474.27,430.258 474.27,430.258 " />
<polygon points="469.786,426.22 469.388,426.711 474.27,430.258 474.27,430.258 " />
<polygon points="469.388,426.711 469.044,427.241 474.27,430.258 474.27,430.258 " />
<polygon points="469.044,427.241 468.758,427.804 474.27,430.258 474.27,430.258 " />
<polygon points="468.758,427.804 468.531,428.393 474.27,430.258 474.27,430.258 " />
<polygon points="468.531,428.393 468.368,429.003 474.27,430.258 474.27,430.258 " />
<polygon points="468.368,429.003 468.269,429.627 474.27,430.258 474.27,430.258 " />
<polygon points="468.269,429.627 468.236,430.258 474.27,430.258 474.27,430.258 " />
<polygon points="468.236,309.582 468.269,310.212 474.27,309.582 474.27,309.582 " />
<polygon points="468.269,310.212 468.368,310.836 474.27,309.582 474.27,309.582 " />
<polygon points="468.368,310.836 468.531,311.446 474.27,309.582 474.27,309.582 " />
<polygon points="468.531,311.446 468.758,312.036 474.27,309.582 474.27,309.582 " />
<polygon points="468.758,312.036 469.044,312.599 474.27,309.582 474.27,309.582 " />
<polygon points="469.044,312.599 469.388,313.128 474.27,309.582 474.27,309.582 " />
<polygon points="469.388,313.128 469.786,313.619 474.27,309.582 474.27,309.582 " />
<polygon points="469.786,313.619 470.232,314.066 474.27,309.582 474.27,309.582 " />
<polygon points="470.232,314.066 470.723,314.463 474.27,309.582 474.27,309.582 " />
<polygon points="470.723,314.463 471.253,314.807 474.27,309.582 474.27,309.582 " />
<polygon points="471.253,314.807 471.816,315.094 474.27,309.582 474.27,309.582 " />
<polygon points="471.816,315.094 472.405,315.32 474.27,309.582 474.27,309.582 " />
<polygon points="472.405,315.32 473.015,315.484 474.27,309.582 474.27,309.582 " />
<polygon points="473.015,315.484 473.639,315.582 474.27,309.582 474.27,309.582 " />
<polygon points="473.639,315.582 474.27,315.615 474.27,309.582 474.27,309.582 " />
<polygon points="474.27,315.615 474.901,315.582 474.27,309.582 474.27,309.582 " />
<polygon points="474.901,315.582 475.524,315.484 474.27,309.582 474.27,309.582 " />
<polygon points="475.524,315.484 476.134,315.32 474.27,309.582 474.27,309.582 " />
<polygon points="476.134,315.32 476.724,315.094 474.27,309.582 474.27,309.582 " />
<polygon points="476.724,315.094 477.287,314.807 474.27,309.582 474.27,309.582 " />
<polygon points="477.287,314.807 477.816,314.463 474.27,309.582 474.27,309.582 " />
<polygon points="477.816,314.463 478.307,314.066 474.27,309.582 474.27,309.582 " />
<polygon points="478.307,314.066 478.754,313.619 474.27,309.582 474.27,309.582 " />
<polygon points="478.754,313.619 479.151,313.128 474.27,309.582 474.27,309.582 " />
<polygon points="479.151,313.128 479.495,312.599 474.27,309.582 474.27,309.582 " />
<polygon points="479.495,312.599 479.782,312.036 474.27,309.582 474.27,309.582 " />
<polygon points="479.782,312.036 480.008,311.446 474.27,309.582 474.27,309.582 " />
<polygon points="480.008,311.446 480.172,310.836 474.27,309.582 474.27,309.582 " />
<polygon points="480.172,310.836 480.271,310.212 474.27,309.582 474.27,309.582 " />
<polygon points="480.271,310.212 480.304,309.582 474.27,309.582 474.27,309.582 " />
<polygon points="480.304,309.582 480.271,308.951 474.27,309.582 474.27,309.582 " />
<polygon points="480.271,308.951 480.172,308.327 474.27,309.582 474.27,309.582 " />
<polygon points="480.172,308.327 480.008,307.717 474.27,309.582 474.27,309.582 " />
<polygon points="480.008,307.717 479.782,307.127 474.27,309.582 474.27,309.582 " />
<polygon points="479.782,307.127 479.495,306.565 474.27,309.582 474.27,309.582 " />
<polygon points="479.495,306.565 479.151,306.035 474.27,309.582 474.27,309.582 " />
<polygon points="479.151,306.035 478.754,305.544 474.27,309.582 474.27,309.582 " />
<polygon points="478.754,305.544 478.307,305.098 474.27,309.582 474.27,309.582 " />
<polygon points="478.307,305.098 477.816,304.7 474.27,309.582 474.27,309.582 " />
<polygon points="477.816,304.7 477.287,304.356 474.27,309.582 474.27,309.582 " />
<polygon points="477.287,304.356 476.724,304.069 474.27,309.582 474.27,309.582 " />
<polygon points="476.724,304.069 476.134,303.843 474.27,309.582 474.27,309.582 " />
<polygon points="476.134,303.843 475.524,303.68 474.27,309.582 474.27,309.582 " />
<polygon points="475.524,303.68 474.901,303.581 474.27,309.582 474.27,309.582 " />
<polygon points="474.901,303.581 474.27,303.548 474.27,309.582 474.27,309.582 " />
<polygon points="474.27,303.548 473.639,303.581 474.27,309.582 474.27,309.582 " />
<polygon points="473.639,303.581 473.015,303.68 474.27,309.582 474.27,309.582 " />
<polygon points="473.015,303.68 472.405,303.843 474.27,309.582 474.27,309.582 " />
<polygon points="472.405,303.843 471.816,304.069 474.27,309.582 474.27,309.582 " />
<polygon points="471.816,304.069 471.253,304.356 474.27,309.582 474.27,309.582 " />
<polygon points="471.253,304.356 470.723,304.7 474.27,309.582 474.27,309.582 " />
<polygon points="470.723,304.7 470.232,305.098 474.27,309.582 474.27,309.582 " />
<polygon points="470.232,305.098 469.786,305.544 474.27,309.582 474.27,309.582 " />
<polygon points="469.786,305.544 469.388,306.035 474.27,309.582 474.27,309.582 " />
<polygon points="469.388,306.035 469.044,306.565 474.27,309.582 474.27,309.582 " />
<polygon points="469.044,306.565 468.758,307.127 474.27,309.582 474.27,309.582 " />
<polygon points="468.758,307.127 468.531,307.717 474.27,309.582 474.27,309.582 " />
<polygon points="468.531,307.717 468.368,308.327 474.27,309.582 474.27,309.582 " />
<polygon points="468.368,308.327 468.269,308.951 474.27,309.582 474.27,309.582 " />
<polygon points="468.269,308.951 468.236,309.582 474.27,309.582 474.27,309.582 " />
<polygon points="468.236,188.905 468.269,189.536 474.27,188.905 474.27,188.905 " />
<polygon points="468.269,189.536 468.368,190.16 474.27,188.905 474.27,188.905 " />
<polygon points="468.368,190.16 468.531,190.77 474.27,188.905 474.27,188.905 " />
<polygon points="468.531,190.77 468.758,191.36 474.27,188.905 474.27,188.905 " />
<polygon points="468.758,191.36 469.044,191.922 474.27,188.905 474.27,188.905 " />
<polygon points="469.044,191.922 469.388,192.452 474.27,188.905 474.27,188.905 " />
<polygon points="469.388,192.452 469.786,192.943 474.27,188.905 474.27,188.905 " />
<polygon points="469.786,192.943 470.232,193.389 474.27,188.905 474.27,188.905 " />
<polygon points="470.232,193.389 470.723,193.787 474.27,188.905 474.27,188.905 " />
<polygon points="470.723,193.787 471.253,194.131 474.27,188.905 474.27,188.905 " />
<polygon points="471.253,194.131 471.816,194.418 474.27,188.905 474.27,188.905 " />
<polygon points="471.816,194.418 472.405,194.644 474.27,188.905 474.27,188.905 " />
<polygon points="472.405,194.644 473.015,194.807 474.27,188.905 474.27,188.905 " />
<polygon points="473.015,194.807 473.639,194.906 474.27,188.905 474.27,188.905 " />
<polygon points="473.639,194.906 474.27,194.939 474.27,188.905 474.27,188.905 " />
<polygon points="474.27,194.939 474.901,194.906 474.27,188.905 474.27,188.905 " />
<polygon points="474.901,194.906 475.524,194.807 474.27,188.905 474.27,188.905 " />
<polygon points="475.524,194.807 476.134,194.644 474.27,188.905 474.27,188.905 " />
<polygon points="476.134,194.644 476.724,194.418 474.27,188.905 474.27,188.905 " />
<polygon points="476.724,194.418 477.287,194.131 474.27,188.905 474.27,188.905 " />
<polygon points="477.287,194.131 477.816,193.787 474.27,188.905 474.27,188.905 " />
<polygon points="477.816,193.787 478.307,193.389 474.27,188.905 474.27,188.905 " />
<polygon points="478.307,193.389 478.754,192.943 474.27,188.905 474.27,188.905 " />
<polygon points="478.754,192.943 479.151,192.452 474.27,188.905 474.27,188.905 " />
<polygon points="479.151,192.452 479.495,191.922 474.27,188.905 474.27,188.905 " />
<polygon points="479.495,191.922 479.782,191.36 474.27,188.905 474.27,188.905 " />
<polygon points="479.782,191.36 480.008,190.77 474.27,188.905 474.27,188.905 " />
<polygon points="480.008,190.77 480.172,190.16 474.27,188.905 474.27,188.905 " />
<polygon points="480.172,190.16 480.271,189.536 474.27,188.905 474.27,188.905 " />
<polygon points="480.271,189.536 480.304,188.905 474.27,188.905 474.27,188.905 " />
<polygon points="480.304,188.905 480.271,188.275 474.27,188.905 474.27,188.905 " />
<polygon points="480.271,188.275 480.172,187.651 474.27,188.905 474.27,188.905 " />
<polygon points="480.172,187.651 480.008,187.041 474.27,188.905 474.27,188.905 " />
<polygon points="480.008,187.041 479.782,186.451 474.27,188.905 474.27,188.905 " />
<polygon points="479.782,186.451 479.495,185.889 474.27,188.905 474.27,188.905 " />
<polygon points="479.495,185.889 479.151,185.359 474.27,188.905 474.27,188.905 " />
<polygon points="479.151,185.359 478.754,184.868 474.27,188.905 474.27,188.905 " />
<polygon points="478.754,184.868 478.307,184.421 474.27,188.905 474.27,188.905 " />
<polygon points="478.307,184.421 477.816,184.024 474.27,188.905 474.27,188.905 " />
<polygon points="477.816,184.024 477.287,183.68 474.27,188.905 474.27,188.905 " />
<polygon points="477.287,183.68 476.724,183.393 474.27,188.905 474.27,188.905 " />
<polygon points="476.724,183.393 476.134,183.167 474.27,188.905 474.27,188.905 " />
<polygon points="476.134,183.167 475.524,183.003 474.27,188.905 474.27,188.905 " />
<polygon points="475.524,183.003 474.901,182.905 474.27,188.905 474.27,188.905 " />
<polygon points="474.901,182.905 474.27,182.872 474.27,188.905 474.27,188.905 " />
<polygon points="474.27,182.872 473.639,182.905 474.27,188.905 474.27,188.905 " />
<polygon points="473.639,182.905 473.015,183.003 474.27,188.905 474.27,188.905 " />
<polygon points="473.015,183.003 472.405,183.167 474.27,188.905 474.27,188.905 " />
<polygon points="472.405,183.167 471.816,183.393 474.27,188.905 474.27,188.905 " />
<polygon points="471.816,183.393 471.253,183.68 474.27,188.905 474.27,188.905 " />
<polygon points="471.253,183.68 470.723,184.024 474.27,188.905 474.27,188.905 " />
<polygon points="470.723,184.024 470.232,184.421 474.27,188.905 474.27,188.905 " />
<polygon points="470.232,184.421 469.786,184.868 474.27,188.905 474.27,188.905 " />
<polygon points="469.786,184.868 469.388,185.359 474.27,188.905 474.27,188.905 " />
<polygon points="469.388,185.359 469.044,185.889 474.27,188.905 474.27,188.905 " />
<polygon points="469.044,185.889 468.758,186.451 474.27,188.905 474.27,188.905 " />
<polygon points="468.758,186.451 468.531,187.041 474.27,188.905 474.27,188.905 " />
<polygon points="468.531,187.041 468.368,187.651 474.27,188.905 474.27,188.905 " />
<polygon points="468.368,187.651 468.269,188.275 474.27,188.905 474.27,188.905 " />
<polygon points="468.269,188.275 468.236,188.905 474.27,188.905 474.27,188.905 " />
</g>
<g clip-path="url(#clipId0)" fill="none" stroke="rgb(0,0,0)" stroke-width="0.25" >
<polyline points="474.27,140.635 474.27,478.528 " stroke-dasharray="75.422648,15.084530,15.084530,15.084530" />
<polyline points="486.337,478.528 462.202,478.528 " />
<polyline points="462.202,478.528 462.202,490.596 " stroke-dasharray="75.422648,15.084530,15.084530,15.084530" />
<polyline points="486.337,478.528 486.337,490.596 " stroke-dasharray="75.422648,15.084530,15.084530,15.084530" />
<polyline points="486.337,140.635 486.337,128.567 " stroke-dasharray="75.422648,15.084530,15.084530,15.084530" />
<polyline points="462.202,140.635 462.202,128.567 " stroke-dasharray="75.422648,15.084530,15.084530,15.084530" />
<polyline points="486.337,140.635 462.202,140.635 " />
<polyline points="439.515,430.258 327.356,430.258 " />
<path d="M344.598,448.316  A130.924,130.924 0 0,0 347.386,462.53 " />
<polyline points="366.333,538.194 405.473,499.055 " />
</g>
<g clip-path="url(#clipId0)" fill="rgb(0,0,0)" stroke="rgb(0,0,0)" stroke-width="0.25" >
<path d="M347.607,448.107 341.588,448.525 343.346,430.258 343.346,430.258 z" />
<path d="M372.084,507.2 367.533,511.162 381.693,522.835 381.693,522.835 z" />
</g>
<g clip-path="url(#clipId0)" fill="none" stroke="rgb(0,0,0)" stroke-width="0.25" >
<path d="M359.824,493.844  A130.924,130.924 0 0,0 369.809,509.181 " />
<polyline points="731.212,271.23 729.488,272.092 727.764,273.816 726.902,275.54 726.04,278.126 726.04,282.435 726.902,285.021 727.764,286.745 729.488,288.469 731.212,289.331 734.66,289.331 736.384,288.469 738.108,286.745 738.97,285.021 739.832,282.435 739.832,278.126 738.97,275.54 738.108,273.816 736.384,272.092 734.66,271.23 731.212,271.23 " />
<polyline points="733.798,285.883 738.97,291.055 " />
<polyline points="739.842,327.435 732.947,345.537 " />
<polyline points="739.842,327.435 746.738,345.537 " />
<polyline points="735.532,339.503 744.152,339.503 " />
<polyline points="761.995,344.007 760.271,344.869 758.547,346.593 757.685,349.179 757.685,350.903 758.547,353.489 760.271,355.213 761.995,356.075 764.581,356.075 766.305,355.213 768.029,353.489 768.891,350.903 768.891,349.179 768.029,346.593 766.305,344.869 764.581,344.007 761.995,344.007 " />
<polyline points="349.694,467.949 347.97,468.811 346.247,470.534 345.385,472.258 344.523,474.844 344.523,479.154 345.385,481.74 346.247,483.464 347.97,485.188 349.694,486.05 353.142,486.05 354.866,485.188 356.59,483.464 357.452,481.74 358.314,479.154 358.314,474.844 357.452,472.258 356.59,470.534 354.866,468.811 353.142,467.949 349.694,467.949 " />
<polyline points="342.862,476.869 359.881,476.869 " />
<polyline points="188.752,299.372 188.752,317.473 " />
<polyline points="200.82,299.372 200.82,317.473 " />
<polyline points="188.752,307.992 200.82,307.992 " />
<polyline points="224.955,305.406 234.437,317.473 " />
<polyline points="234.437,305.406 224.955,317.473 " />
<polyline points="256.848,299.372 261.158,317.473 " />
<polyline points="265.468,299.372 261.158,317.473 " />
<polyline points="265.468,299.372 269.777,317.473 " />
<polyline points="274.087,299.372 269.777,317.473 " />
<polyline points="918.977,128.567 985.919,128.567 " />
<polyline points="918.977,490.596 985.919,490.596 " />
<polyline points="80.2294,128.567 38.0809,128.567 " />
<polyline points="80.2294,490.596 38.0809,490.596 " />
</g>
<g clip-path="url(#clipId0)" fill="rgb(0,0,0)" stroke="rgb(0,0,0)" stroke-width="0.25" >
<path d="M472.242,121.787 466.498,123.634 474.913,139.942 474.913,139.942 z" />
</g>
<g clip-path="url(#clipId0)" fill="none" stroke="rgb(0,0,0)" stroke-width="0.25" >
<polyline points="469.37,122.71 452.599,70.5681 " />
<polyline points="452.599,70.5681 452.599,70.5681 " />
<polyline points="452.599,70.5681 470.7,70.5681 " />
<polyline points="496.214,64.1033 494.491,62.3793 491.905,61.5174 488.457,61.5174 485.871,62.3793 484.147,64.1033 484.147,65.8272 485.009,67.5512 485.871,68.4131 487.595,69.2751 492.767,70.9991 494.491,71.861 495.352,72.723 496.214,74.447 496.214,77.0329 494.491,78.7568 491.905,79.6188 488.457,79.6188 485.871,78.7568 484.147,77.0329 " />
<polyline points="502.248,61.5174 502.248,79.6188 512.592,79.6188 " />
<polyline points="516.902,61.5174 516.902,79.6188 " />
<polyline points="523.798,61.5174 523.798,79.6188 " />
<polyline points="523.798,61.5174 531.555,61.5174 534.141,62.3793 535.003,63.2413 535.865,64.9652 535.865,67.5512 535.003,69.2751 534.141,70.1371 531.555,70.9991 523.798,70.9991 " />
<polyline points="560,61.5174 560,79.6188 " />
<polyline points="566.896,61.5174 566.896,79.6188 " />
<polyline points="566.896,61.5174 578.964,79.6188 " />
<polyline points="578.964,61.5174 578.964,79.6188 " />
<polyline points="603.961,61.5174 603.961,79.6188 " />
<polyline points="603.961,61.5174 615.167,61.5174 " />
<polyline points="603.961,70.1371 610.857,70.1371 " />
<polyline points="619.477,61.5174 619.477,79.6188 " />
<polyline points="619.477,61.5174 627.234,61.5174 629.82,62.3793 630.682,63.2413 631.544,64.9652 631.544,66.6892 630.682,68.4131 629.82,69.2751 627.234,70.1371 619.477,70.1371 " />
<polyline points="625.51,70.1371 631.544,79.6188 " />
<polyline points="641.888,61.5174 634.992,79.6188 " />
<polyline points="641.888,61.5174 648.784,79.6188 " />
<polyline points="637.578,73.585 646.198,73.585 " />
<polyline points="653.094,61.5174 653.094,79.6188 " />
<polyline points="653.094,61.5174 659.989,79.6188 " />
<polyline points="666.885,61.5174 659.989,79.6188 " />
<polyline points="666.885,61.5174 666.885,79.6188 " />
<polyline points="673.781,61.5174 673.781,79.6188 " />
<polyline points="673.781,61.5174 684.987,61.5174 " />
<polyline points="673.781,70.1371 680.677,70.1371 " />
<polyline points="673.781,79.6188 684.987,79.6188 " />
<polyline points="712.57,61.5174 710.846,62.3793 709.122,64.1033 708.26,65.8272 707.398,68.4131 707.398,72.723 708.26,75.3089 709.122,77.0329 710.846,78.7568 712.57,79.6188 716.018,79.6188 717.742,78.7568 719.466,77.0329 720.327,75.3089 721.189,72.723 721.189,68.4131 720.327,65.8272 719.466,64.1033 717.742,62.3793 716.018,61.5174 712.57,61.5174 " />
<polyline points="727.223,61.5174 727.223,79.6188 " />
<polyline points="727.223,61.5174 734.981,61.5174 737.567,62.3793 738.429,63.2413 739.291,64.9652 739.291,66.6892 738.429,68.4131 737.567,69.2751 734.981,70.1371 727.223,70.1371 " />
<polyline points="733.257,70.1371 739.291,79.6188 " />
<polyline points="763.426,61.5174 763.426,79.6188 " />
<polyline points="763.426,61.5174 774.632,61.5174 " />
<polyline points="763.426,70.1371 770.322,70.1371 " />
<polyline points="778.942,61.5174 778.942,79.6188 789.285,79.6188 " />
<polyline points="797.905,61.5174 791.009,79.6188 " />
<polyline points="797.905,61.5174 804.801,79.6188 " />
<polyline points="793.595,73.585 802.215,73.585 " />
<polyline points="809.111,61.5174 809.111,79.6188 " />
<polyline points="809.111,61.5174 821.178,79.6188 " />
<polyline points="821.178,61.5174 821.178,79.6188 " />
<polyline points="840.142,65.8272 839.28,64.1033 837.556,62.3793 835.832,61.5174 832.384,61.5174 830.66,62.3793 828.936,64.1033 828.074,65.8272 827.212,68.4131 827.212,72.723 828.074,75.3089 828.936,77.0329 830.66,78.7568 832.384,79.6188 835.832,79.6188 837.556,78.7568 839.28,77.0329 840.142,75.3089 840.142,72.723 " />
<polyline points="835.832,72.723 840.142,72.723 " />
<polyline points="846.176,61.5174 846.176,79.6188 " />
<polyline points="846.176,61.5174 857.381,61.5174 " />
<polyline points="846.176,70.1371 853.071,70.1371 " />
<polyline points="846.176,79.6188 857.381,79.6188 " />
<polyline points="880.654,61.5174 880.654,79.6188 " />
<polyline points="880.654,61.5174 887.55,79.6188 " />
<polyline points="894.446,61.5174 887.55,79.6188 " />
<polyline points="894.446,61.5174 894.446,79.6188 " />
<polyline points="905.652,61.5174 903.928,62.3793 902.204,64.1033 901.342,65.8272 900.48,68.4131 900.48,72.723 901.342,75.3089 902.204,77.0329 903.928,78.7568 905.652,79.6188 909.1,79.6188 910.824,78.7568 912.547,77.0329 913.409,75.3089 914.271,72.723 914.271,68.4131 913.409,65.8272 912.547,64.1033 910.824,62.3793 909.1,61.5174 905.652,61.5174 " />
<polyline points="920.305,61.5174 920.305,74.447 921.167,77.0329 922.891,78.7568 925.477,79.6188 927.201,79.6188 929.787,78.7568 931.511,77.0329 932.373,74.447 932.373,61.5174 " />
<polyline points="939.269,61.5174 939.269,79.6188 " />
<polyline points="939.269,61.5174 951.336,79.6188 " />
<polyline points="951.336,61.5174 951.336,79.6188 " />
<polyline points="961.68,61.5174 961.68,79.6188 " />
<polyline points="955.646,61.5174 967.714,61.5174 " />
<polyline points="972.024,61.5174 972.024,79.6188 " />
<polyline points="972.024,61.5174 983.229,61.5174 " />
<polyline points="972.024,70.1371 978.919,70.1371 " />
<polyline points="972.024,79.6188 983.229,79.6188 " />
<polyline points="988.401,61.5174 988.401,79.6188 " />
<polyline points="988.401,61.5174 994.435,61.5174 997.021,62.3793 998.745,64.1033 999.607,65.8272 1000.47,68.4131 1000.47,72.723 999.607,75.3089 998.745,77.0329 997.021,78.7568 994.435,79.6188 988.401,79.6188 " />
<polyline points="879.485,686.255 878.22,683.727 875.692,681.198 873.163,679.934 868.107,679.934 865.578,681.198 863.05,683.727 861.785,686.255 860.521,690.048 860.521,696.369 861.785,700.162 863.05,702.69 865.578,705.218 868.107,706.483 873.163,706.483 875.692,705.218 878.22,702.69 879.485,700.162 " />
<polyline points="888.334,679.934 888.334,706.483 " />
<polyline points="888.334,679.934 899.712,679.934 903.505,681.198 904.769,682.462 906.033,684.991 906.033,687.519 904.769,690.048 903.505,691.312 899.712,692.576 888.334,692.576 " />
<polyline points="897.184,692.576 906.033,706.483 " />
<polyline points="930.054,688.783 928.789,692.576 926.261,695.105 922.468,696.369 921.204,696.369 917.411,695.105 914.883,692.576 913.619,688.783 913.619,687.519 914.883,683.727 917.411,681.198 921.204,679.934 922.468,679.934 926.261,681.198 928.789,683.727 930.054,688.783 930.054,695.105 928.789,701.426 926.261,705.218 922.468,706.483 919.94,706.483 916.147,705.218 914.883,702.69 " />
<polyline points="940.168,695.105 962.924,695.105 " />
<polyline points="984.415,679.934 971.773,697.633 990.737,697.633 " />
<polyline points="984.415,679.934 984.415,706.483 " />
<path d="M438.667,275.781  A279.966,279.966 0 0,0 507.409,346.212 " />
<path d="M507.409,346.212  A163.296,163.296 0 0,0 438.667,275.781 " />
<path d="M438.667,222.706  A163.296,163.296 0 0,0 507.409,152.275 " />
<path d="M507.409,152.275  A279.966,279.966 0 0,0 438.667,222.706 " />
<path d="M439.454,463.27  A163.296,163.296 0 0,0 508.197,392.84 " />
<path d="M508.197,392.84  A279.966,279.966 0 0,0 439.454,463.27 " />
</g>
</svg>
