<?xml version="1.0" standalone="no"?>
<svg viewBox="0 0 1024 768" version="1.1" xmlns="http://www.w3.org/2000/svg" xmlns:xlink="http://www.w3.org/1999/xlink" stroke-linecap="round" stroke-linejoin="round" fill-rule="evenodd" xml:space="preserve" >
<defs >
<clipPath id="clipId0" >
<path d="M0,768 1024,768 1024,0 0,0 z" />
</clipPath>
</defs>
<g clip-path="url(#clipId0)" fill="none" stroke="rgb(0,0,0)" stroke-width="0.1" />
<g clip-path="url(#clipId0)" fill="none" stroke="rgb(0,0,0)" stroke-width="0.25" >
<polyline points="852.818,362.313 163.28,362.313 " />
<polyline points="776.217,213.501 636.281,213.501 " />
</g>
<g clip-path="url(#clipId0)" fill="rgb(0,0,0)" stroke="rgb(0,0,0)" stroke-width="0.25" >
<path d="M776.217,211.021 776.217,215.981 791.099,213.501 791.099,213.501 z" />
</g>
<g clip-path="url(#clipId0)" fill="none" stroke="rgb(0,0,0)" stroke-width="0.25" >
<polyline points="852.818,64.6883 163.28,64.6883 " />
<polyline points="874.607,125.785 920.713,152.404 " />
<polyline points="874.607,125.785 897.66,125.785 " />
<polyline points="920.713,152.404 897.66,152.404 " />
<polyline points="897.66,34.9258 897.66,125.785 " />
<polyline points="897.66,152.404 897.66,274.597 " />
<polyline points="118.439,152.404 118.439,274.597 " />
<polyline points="118.439,34.9258 118.439,125.785 " />
<polyline points="141.492,152.404 118.439,152.404 " />
<polyline points="95.3854,125.785 118.439,125.785 " />
<polyline points="95.3854,125.785 141.492,152.404 " />
<polyline points="95.3854,274.597 141.492,301.217 " />
<polyline points="95.3854,274.597 118.439,274.597 " />
<polyline points="141.492,301.217 118.439,301.217 " />
<polyline points="118.439,392.076 118.439,301.217 " />
<polyline points="897.66,392.076 897.66,301.217 " />
<polyline points="920.713,301.217 897.66,301.217 " />
<polyline points="874.607,274.597 897.66,274.597 " />
<polyline points="874.607,274.597 920.713,301.217 " />
<polyline points="462.67,337.262 511.775,288.156 " />
<polyline points="462.67,238.054 511.775,188.948 " />
<polyline points="462.67,138.845 511.775,89.7397 " />
</g>
<g clip-path="url(#clipId0)" fill="rgb(0,0,0)" stroke="rgb(0,0,0)" stroke-width="0.25" >
<polygon points="482.262,312.709 482.301,313.331 487.222,312.709 487.222,312.709 " />
<polygon points="482.301,313.331 482.418,313.943 487.222,312.709 487.222,312.709 " />
<polygon points="482.418,313.943 482.61,314.535 487.222,312.709 487.222,312.709 " />
<polygon points="482.61,314.535 482.876,315.099 487.222,312.709 487.222,312.709 " />
<polygon points="482.876,315.099 483.209,315.625 487.222,312.709 487.222,312.709 " />
<polygon points="483.209,315.625 483.606,316.105 487.222,312.709 487.222,312.709 " />
<polygon points="483.606,316.105 484.061,316.531 487.222,312.709 487.222,312.709 " />
<polygon points="484.061,316.531 484.564,316.897 487.222,312.709 487.222,312.709 " />
<polygon points="484.564,316.897 485.11,317.198 487.222,312.709 487.222,312.709 " />
<polygon points="485.11,317.198 485.69,317.427 487.222,312.709 487.222,312.709 " />
<polygon points="485.69,317.427 486.293,317.582 487.222,312.709 487.222,312.709 " />
<polygon points="486.293,317.582 486.911,317.66 487.222,312.709 487.222,312.709 " />
<polygon points="486.911,317.66 487.534,317.66 487.222,312.709 487.222,312.709 " />
<polygon points="487.534,317.66 488.152,317.582 487.222,312.709 487.222,312.709 " />
<polygon points="488.152,317.582 488.755,317.427 487.222,312.709 487.222,312.709 " />
<polygon points="488.755,317.427 489.334,317.198 487.222,312.709 487.222,312.709 " />
<polygon points="489.334,317.198 489.88,316.897 487.222,312.709 487.222,312.709 " />
<polygon points="489.88,316.897 490.384,316.531 487.222,312.709 487.222,312.709 " />
<polygon points="490.384,316.531 490.838,316.105 487.222,312.709 487.222,312.709 " />
<polygon points="490.838,316.105 491.235,315.625 487.222,312.709 487.222,312.709 " />
<polygon points="491.235,315.625 491.569,315.099 487.222,312.709 487.222,312.709 " />
<polygon points="491.569,315.099 491.834,314.535 487.222,312.709 487.222,312.709 " />
<polygon points="491.834,314.535 492.027,313.943 487.222,312.709 487.222,312.709 " />
<polygon points="492.027,313.943 492.144,313.331 487.222,312.709 487.222,312.709 " />
<polygon points="492.144,313.331 492.183,312.709 487.222,312.709 487.222,312.709 " />
<polygon points="492.183,312.709 492.144,312.088 487.222,312.709 487.222,312.709 " />
<polygon points="492.144,312.088 492.027,311.476 487.222,312.709 487.222,312.709 " />
<polygon points="492.027,311.476 491.834,310.883 487.222,312.709 487.222,312.709 " />
<polygon points="491.834,310.883 491.569,310.32 487.222,312.709 487.222,312.709 " />
<polygon points="491.569,310.32 491.235,309.794 487.222,312.709 487.222,312.709 " />
<polygon points="491.235,309.794 490.838,309.314 487.222,312.709 487.222,312.709 " />
<polygon points="490.838,309.314 490.384,308.887 487.222,312.709 487.222,312.709 " />
<polygon points="490.384,308.887 489.88,308.521 487.222,312.709 487.222,312.709 " />
<polygon points="489.88,308.521 489.334,308.221 487.222,312.709 487.222,312.709 " />
<polygon points="489.334,308.221 488.755,307.992 487.222,312.709 487.222,312.709 " />
<polygon points="488.755,307.992 488.152,307.837 487.222,312.709 487.222,312.709 " />
<polygon points="488.152,307.837 487.534,307.759 487.222,312.709 487.222,312.709 " />
<polygon points="487.534,307.759 486.911,307.759 487.222,312.709 487.222,312.709 " />
<polygon points="486.911,307.759 486.293,307.837 487.222,312.709 487.222,312.709 " />
<polygon points="486.293,307.837 485.69,307.992 487.222,312.709 487.222,312.709 " />
<polygon points="485.69,307.992 485.11,308.221 487.222,312.709 487.222,312.709 " />
<polygon points="485.11,308.221 484.564,308.521 487.222,312.709 487.222,312.709 " />
<polygon points="484.564,308.521 484.061,308.887 487.222,312.709 487.222,312.709 " />
<polygon points="484.061,308.887 483.606,309.314 487.222,312.709 487.222,312.709 " />
<polygon points="483.606,309.314 483.209,309.794 487.222,312.709 487.222,312.709 " />
<polygon points="483.209,309.794 482.876,310.32 487.222,312.709 487.222,312.709 " />
<polygon points="482.876,310.32 482.61,310.883 487.222,312.709 487.222,312.709 " />
<polygon points="482.61,310.883 482.418,311.476 487.222,312.709 487.222,312.709 " />
<polygon points="482.418,311.476 482.301,312.088 487.222,312.709 487.222,312.709 " />
<polygon points="482.301,312.088 482.262,312.709 487.222,312.709 487.222,312.709 " />
<polygon points="482.262,213.501 482.301,214.123 487.222,213.501 487.222,213.501 " />
<polygon points="482.301,214.123 482.418,214.734 487.222,213.501 487.222,213.501 " />
<polygon points="482.418,214.734 482.61,215.327 487.222,213.501 487.222,213.501 " />
<polygon points="482.61,215.327 482.876,215.891 487.222,213.501 487.222,213.501 " />
<polygon points="482.876,215.891 483.209,216.417 487.222,213.501 487.222,213.501 " />
<polygon points="483.209,216.417 483.606,216.896 487.222,213.501 487.222,213.501 " />
<polygon points="483.606,216.896 484.061,217.323 487.222,213.501 487.222,213.501 " />
<polygon points="484.061,217.323 484.564,217.689 487.222,213.501 487.222,213.501 " />
<polygon points="484.564,217.689 485.11,217.989 487.222,213.501 487.222,213.501 " />
<polygon points="485.11,217.989 485.69,218.218 487.222,213.501 487.222,213.501 " />
<polygon points="485.69,218.218 486.293,218.373 487.222,213.501 487.222,213.501 " />
<polygon points="486.293,218.373 486.911,218.451 487.222,213.501 487.222,213.501 " />
<polygon points="486.911,218.451 487.534,218.451 487.222,213.501 487.222,213.501 " />
<polygon points="487.534,218.451 488.152,218.373 487.222,213.501 487.222,213.501 " />
<polygon points="488.152,218.373 488.755,218.218 487.222,213.501 487.222,213.501 " />
<polygon points="488.755,218.218 489.334,217.989 487.222,213.501 487.222,213.501 " />
<polygon points="489.334,217.989 489.88,217.689 487.222,213.501 487.222,213.501 " />
<polygon points="489.88,217.689 490.384,217.323 487.222,213.501 487.222,213.501 " />
<polygon points="490.384,217.323 490.838,216.896 487.222,213.501 487.222,213.501 " />
<polygon points="490.838,216.896 491.235,216.417 487.222,213.501 487.222,213.501 " />
<polygon points="491.235,216.417 491.569,215.891 487.222,213.501 487.222,213.501 " />
<polygon points="491.569,215.891 491.834,215.327 487.222,213.501 487.222,213.501 " />
<polygon points="491.834,215.327 492.027,214.734 487.222,213.501 487.222,213.501 " />
<polygon points="492.027,214.734 492.144,214.123 487.222,213.501 487.222,213.501 " />
<polygon points="492.144,214.123 492.183,213.501 487.222,213.501 487.222,213.501 " />
<polygon points="492.183,213.501 492.144,212.879 487.222,213.501 487.222,213.501 " />
<polygon points="492.144,212.879 492.027,212.267 487.222,213.501 487.222,213.501 " />
<polygon points="492.027,212.267 491.834,211.675 487.222,213.501 487.222,213.501 " />
<polygon points="491.834,211.675 491.569,211.111 487.222,213.501 487.222,213.501 " />
<polygon points="491.569,211.111 491.235,210.585 487.222,213.501 487.222,213.501 " />
<polygon points="491.235,210.585 490.838,210.105 487.222,213.501 487.222,213.501 " />
<polygon points="490.838,210.105 490.384,209.679 487.222,213.501 487.222,213.501 " />
<polygon points="490.384,209.679 489.88,209.313 487.222,213.501 487.222,213.501 " />
<polygon points="489.88,209.313 489.334,209.013 487.222,213.501 487.222,213.501 " />
<polygon points="489.334,209.013 488.755,208.783 487.222,213.501 487.222,213.501 " />
<polygon points="488.755,208.783 488.152,208.628 487.222,213.501 487.222,213.501 " />
<polygon points="488.152,208.628 487.534,208.55 487.222,213.501 487.222,213.501 " />
<polygon points="487.534,208.55 486.911,208.55 487.222,213.501 487.222,213.501 " />
<polygon points="486.911,208.55 486.293,208.628 487.222,213.501 487.222,213.501 " />
<polygon points="486.293,208.628 485.69,208.783 487.222,213.501 487.222,213.501 " />
<polygon points="485.69,208.783 485.11,209.013 487.222,213.501 487.222,213.501 " />
<polygon points="485.11,209.013 484.564,209.313 487.222,213.501 487.222,213.501 " />
<polygon points="484.564,209.313 484.061,209.679 487.222,213.501 487.222,213.501 " />
<polygon points="484.061,209.679 483.606,210.105 487.222,213.501 487.222,213.501 " />
<polygon points="483.606,210.105 483.209,210.585 487.222,213.501 487.222,213.501 " />
<polygon points="483.209,210.585 482.876,211.111 487.222,213.501 487.222,213.501 " />
<polygon points="482.876,211.111 482.61,211.675 487.222,213.501 487.222,213.501 " />
<polygon points="482.61,211.675 482.418,212.267 487.222,213.501 487.222,213.501 " />
<polygon points="482.418,212.267 482.301,212.879 487.222,213.501 487.222,213.501 " />
<polygon points="482.301,212.879 482.262,213.501 487.222,213.501 487.222,213.501 " />
<polygon points="482.262,114.292 482.301,114.914 487.222,114.292 487.222,114.292 " />
<polygon points="482.301,114.914 482.418,115.526 487.222,114.292 487.222,114.292 " />
<polygon points="482.418,115.526 482.61,116.119 487.222,114.292 487.222,114.292 " />
<polygon points="482.61,116.119 482.876,116.682 487.222,114.292 487.222,114.292 " />
<polygon points="482.876,116.682 483.209,117.208 487.222,114.292 487.222,114.292 " />
<polygon points="483.209,117.208 483.606,117.688 487.222,114.292 487.222,114.292 " />
<polygon points="483.606,117.688 484.061,118.115 487.222,114.292 487.222,114.292 " />
<polygon points="484.061,118.115 484.564,118.481 487.222,114.292 487.222,114.292 " />
<polygon points="484.564,118.481 485.11,118.781 487.222,114.292 487.222,114.292 " />
<polygon points="485.11,118.781 485.69,119.01 487.222,114.292 487.222,114.292 " />
<polygon points="485.69,119.01 486.293,119.165 487.222,114.292 487.222,114.292 " />
<polygon points="486.293,119.165 486.911,119.243 487.222,114.292 487.222,114.292 " />
<polygon points="486.911,119.243 487.534,119.243 487.222,114.292 487.222,114.292 " />
<polygon points="487.534,119.243 488.152,119.165 487.222,114.292 487.222,114.292 " />
<polygon points="488.152,119.165 488.755,119.01 487.222,114.292 487.222,114.292 " />
<polygon points="488.755,119.01 489.334,118.781 487.222,114.292 487.222,114.292 " />
<polygon points="489.334,118.781 489.88,118.481 487.222,114.292 487.222,114.292 " />
<polygon points="489.88,118.481 490.384,118.115 487.222,114.292 487.222,114.292 " />
<polygon points="490.384,118.115 490.838,117.688 487.222,114.292 487.222,114.292 " />
<polygon points="490.838,117.688 491.235,117.208 487.222,114.292 487.222,114.292 " />
<polygon points="491.235,117.208 491.569,116.682 487.222,114.292 487.222,114.292 " />
<polygon points="491.569,116.682 491.834,116.119 487.222,114.292 487.222,114.292 " />
<polygon points="491.834,116.119 492.027,115.526 487.222,114.292 487.222,114.292 " />
<polygon points="492.027,115.526 492.144,114.914 487.222,114.292 487.222,114.292 " />
<polygon points="492.144,114.914 492.183,114.292 487.222,114.292 487.222,114.292 " />
<polygon points="492.183,114.292 492.144,113.671 487.222,114.292 487.222,114.292 " />
<polygon points="492.144,113.671 492.027,113.059 487.222,114.292 487.222,114.292 " />
<polygon points="492.027,113.059 491.834,112.466 487.222,114.292 487.222,114.292 " />
<polygon points="491.834,112.466 491.569,111.903 487.222,114.292 487.222,114.292 " />
<polygon points="491.569,111.903 491.235,111.377 487.222,114.292 487.222,114.292 " />
<polygon points="491.235,111.377 490.838,110.897 487.222,114.292 487.222,114.292 " />
<polygon points="490.838,110.897 490.384,110.47 487.222,114.292 487.222,114.292 " />
<polygon points="490.384,110.47 489.88,110.104 487.222,114.292 487.222,114.292 " />
<polygon points="489.88,110.104 489.334,109.804 487.222,114.292 487.222,114.292 " />
<polygon points="489.334,109.804 488.755,109.575 487.222,114.292 487.222,114.292 " />
<polygon points="488.755,109.575 488.152,109.42 487.222,114.292 487.222,114.292 " />
<polygon points="488.152,109.42 487.534,109.342 487.222,114.292 487.222,114.292 " />
<polygon points="487.534,109.342 486.911,109.342 487.222,114.292 487.222,114.292 " />
<polygon points="486.911,109.342 486.293,109.42 487.222,114.292 487.222,114.292 " />
<polygon points="486.293,109.42 485.69,109.575 487.222,114.292 487.222,114.292 " />
<polygon points="485.69,109.575 485.11,109.804 487.222,114.292 487.222,114.292 " />
<polygon points="485.11,109.804 484.564,110.104 487.222,114.292 487.222,114.292 " />
<polygon points="484.564,110.104 484.061,110.47 487.222,114.292 487.222,114.292 " />
<polygon points="484.061,110.47 483.606,110.897 487.222,114.292 487.222,114.292 " />
<polygon points="483.606,110.897 483.209,111.377 487.222,114.292 487.222,114.292 " />
<polygon points="483.209,111.377 482.876,111.903 487.222,114.292 487.222,114.292 " />
<polygon points="482.876,111.903 482.61,112.466 487.222,114.292 487.222,114.292 " />
<polygon points="482.61,112.466 482.418,113.059 487.222,114.292 487.222,114.292 " />
<polygon points="482.418,113.059 482.301,113.671 487.222,114.292 487.222,114.292 " />
<polygon points="482.301,113.671 482.262,114.292 487.222,114.292 487.222,114.292 " />
</g>
<g clip-path="url(#clipId0)" fill="none" stroke="rgb(0,0,0)" stroke-width="0.25" >
<polyline points="487.222,74.6091 487.222,352.393 " stroke-dasharray="62.005229,12.401046,12.401046,12.401046" />
<polyline points="497.143,352.393 477.302,352.393 " />
<polyline points="477.302,352.393 477.302,362.313 " stroke-dasharray="62.005229,12.401046,12.401046,12.401046" />
<polyline points="497.143,352.393 497.143,362.313 " stroke-dasharray="62.005229,12.401046,12.401046,12.401046" />
<polyline points="497.143,74.6091 497.143,64.6883 " stroke-dasharray="62.005229,12.401046,12.401046,12.401046" />
<polyline points="477.302,74.6091 477.302,64.6883 " stroke-dasharray="62.005229,12.401046,12.401046,12.401046" />
<polyline points="497.143,74.6091 477.302,74.6091 " />
<polyline points="458.65,312.709 366.444,312.709 " />
<path d="M380.618,327.555  A107.633,107.633 0 0,0 382.911,339.24 " />
<polyline points="398.487,401.444 430.664,369.267 " />
</g>
<g clip-path="url(#clipId0)" fill="rgb(0,0,0)" stroke="rgb(0,0,0)" stroke-width="0.25" >
<path d="M383.093,327.383 378.144,327.726 379.59,312.709 379.59,312.709 z" />
<path d="M403.215,375.964 399.474,379.221 411.114,388.817 411.114,388.817 z" />
</g>
<g clip-path="url(#clipId0)" fill="none" stroke="rgb(0,0,0)" stroke-width="0.25" >
<path d="M393.136,364.984  A107.633,107.633 0 0,0 401.344,377.592 " />
<circle cx="522.298" cy="277.634" r="24.8021" stroke-dasharray="62.005229,12.401046,12.401046,12.401046,12.401046,12.401046" />
<polyline points="533.221,299.901 588.919,413.446 " />
<polyline points="588.919,413.446 603.8,413.446 " />
<polyline points="631.437,409.549 630.728,408.132 629.311,406.714 627.894,406.006 625.059,406.006 623.642,406.714 622.225,408.132 621.516,409.549 620.807,411.675 620.807,415.218 621.516,417.344 622.225,418.761 623.642,420.178 625.059,420.887 627.894,420.887 629.311,420.178 630.728,418.761 631.437,417.344 " />
<polyline points="636.397,406.006 636.397,420.887 " />
<polyline points="636.397,406.006 642.775,406.006 644.901,406.714 645.609,407.423 646.318,408.84 646.318,410.258 645.609,411.675 644.901,412.384 642.775,413.092 636.397,413.092 " />
<polyline points="641.358,413.092 646.318,420.887 " />
<polyline points="651.278,406.006 651.278,420.887 " />
<polyline points="656.947,406.006 656.947,420.887 " />
<polyline points="656.947,406.006 662.617,420.887 " />
<polyline points="668.286,406.006 662.617,420.887 " />
<polyline points="668.286,406.006 668.286,420.887 " />
<polyline points="673.955,406.006 673.955,420.887 " />
<polyline points="673.955,406.006 680.332,406.006 682.458,406.714 683.167,407.423 683.875,408.84 683.875,410.966 683.167,412.384 682.458,413.092 680.332,413.801 673.955,413.801 " />
<polyline points="688.836,406.006 688.836,420.887 " />
<polyline points="688.836,406.006 698.048,406.006 " />
<polyline points="688.836,413.092 694.505,413.092 " />
<polyline points="688.836,420.887 698.048,420.887 " />
<polyline points="702.3,406.006 702.3,420.887 " />
<polyline points="702.3,406.006 707.26,406.006 709.386,406.714 710.803,408.132 711.512,409.549 712.221,411.675 712.221,415.218 711.512,417.344 710.803,418.761 709.386,420.178 707.26,420.887 702.3,420.887 " />
<polyline points="682.149,181.972 680.732,182.68 679.315,184.098 678.606,185.515 677.898,187.641 677.898,191.184 678.606,193.31 679.315,194.727 680.732,196.144 682.149,196.853 684.984,196.853 686.401,196.144 687.818,194.727 688.527,193.31 689.236,191.184 689.236,187.641 688.527,185.515 687.818,184.098 686.401,182.68 684.984,181.972 682.149,181.972 " />
<polyline points="684.275,194.018 688.527,198.27 " />
<polyline points="689.244,228.178 683.575,243.06 " />
<polyline points="689.244,228.178 694.913,243.06 " />
<polyline points="685.701,238.099 692.788,238.099 " />
<polyline points="707.456,241.802 706.039,242.511 704.622,243.928 703.913,246.054 703.913,247.471 704.622,249.597 706.039,251.015 707.456,251.723 709.582,251.723 710.999,251.015 712.416,249.597 713.125,247.471 713.125,246.054 712.416,243.928 710.999,242.511 709.582,241.802 707.456,241.802 " />
<polyline points="384.808,343.695 383.391,344.403 381.974,345.821 381.265,347.238 380.557,349.364 380.557,352.907 381.265,355.033 381.974,356.45 383.391,357.867 384.808,358.576 387.643,358.576 389.06,357.867 390.478,356.45 391.186,355.033 391.895,352.907 391.895,349.364 391.186,347.238 390.478,345.821 389.06,344.403 387.643,343.695 384.808,343.695 " />
<polyline points="379.192,351.028 393.183,351.028 " />
<path d="M511.775,89.7397  A6.35727,6.35727 0 1,0 519.721,79.8157 " />
<path d="M462.67,138.845  A5.6373,5.6373 0 1,0 456.289,148.083 " />
<path d="M511.775,188.948  A6.12137,6.12137 0 0,0 519.428,179.392 " />
<path d="M462.67,238.054  A5.63741,5.63741 0 1,0 455.609,245.907 " />
<path d="M511.775,288.156  A6.19804,6.19804 0 1,0 520.096,278.968 " />
<path d="M462.67,337.262  A5.84483,5.84483 0 1,0 456.187,346.143 " />
<polyline points="252.497,207.144 252.497,222.026 " />
<polyline points="262.418,207.144 262.418,222.026 " />
<polyline points="252.497,214.231 262.418,214.231 " />
<polyline points="282.26,212.105 290.055,222.026 " />
<polyline points="290.055,212.105 282.26,222.026 " />
<polyline points="308.479,207.144 312.022,222.026 " />
<polyline points="315.565,207.144 312.022,222.026 " />
<polyline points="315.565,207.144 319.108,222.026 " />
<polyline points="322.652,207.144 319.108,222.026 " />
<polyline points="852.818,64.6883 897.66,64.6883 " />
<polyline points="852.818,362.313 897.66,362.313 " />
<polyline points="163.28,64.6883 118.439,64.6883 " />
<polyline points="163.28,362.313 118.439,362.313 " />
<polyline points="623.072,430.495 623.072,445.376 631.576,445.376 " />
<polyline points="635.119,430.495 635.119,445.376 " />
<polyline points="635.119,430.495 644.331,430.495 " />
<polyline points="635.119,437.581 640.788,437.581 " />
<polyline points="635.119,445.376 644.331,445.376 " />
<polyline points="652.126,430.495 646.457,445.376 " />
<polyline points="652.126,430.495 657.795,445.376 " />
<polyline points="648.583,440.416 655.669,440.416 " />
<polyline points="661.338,430.495 661.338,445.376 " />
<polyline points="661.338,430.495 670.551,430.495 " />
<polyline points="661.338,437.581 667.007,437.581 " />
<polyline points="688.975,430.495 688.975,445.376 " />
<polyline points="688.975,430.495 698.187,430.495 " />
<polyline points="688.975,437.581 694.644,437.581 " />
<polyline points="688.975,445.376 698.187,445.376 " />
<polyline points="702.439,430.495 702.439,445.376 " />
<polyline points="702.439,430.495 707.399,430.495 709.525,431.204 710.943,432.621 711.651,434.038 712.36,436.164 712.36,439.707 711.651,441.833 710.943,443.25 709.525,444.668 707.399,445.376 702.439,445.376 " />
<polyline points="727.241,434.038 726.532,432.621 725.115,431.204 723.698,430.495 720.863,430.495 719.446,431.204 718.029,432.621 717.32,434.038 716.612,436.164 716.612,439.707 717.32,441.833 718.029,443.25 719.446,444.668 720.863,445.376 723.698,445.376 725.115,444.668 726.532,443.25 727.241,441.833 727.241,439.707 " />
<polyline points="723.698,439.707 727.241,439.707 " />
<polyline points="732.201,430.495 732.201,445.376 " />
<polyline points="732.201,430.495 741.414,430.495 " />
<polyline points="732.201,437.581 737.871,437.581 " />
<polyline points="732.201,445.376 741.414,445.376 " />
</g>
<g clip-path="url(#clipId0)" fill="rgb(0,0,0)" stroke="rgb(0,0,0)" stroke-width="0.25" >
<path d="M483.511,59.5613 479.044,61.719 487.751,74.0398 487.751,74.0398 z" />
</g>
<g clip-path="url(#clipId0)" fill="none" stroke="rgb(0,0,0)" stroke-width="0.25" >
<polyline points="481.278,60.6401 459.215,14.97 " />
<polyline points="459.215,14.97 484.017,14.97 " />
<polyline points="514.065,9.65531 512.648,8.23804 510.522,7.52941 507.688,7.52941 505.562,8.23804 504.144,9.65531 504.144,11.0726 504.853,12.4898 505.562,13.1985 506.979,13.9071 511.231,15.3244 512.648,16.033 513.357,16.7416 514.065,18.1589 514.065,20.2848 512.648,21.702 510.522,22.4107 507.688,22.4107 505.562,21.702 504.144,20.2848 " />
<polyline points="519.026,7.52941 519.026,22.4107 527.529,22.4107 " />
<polyline points="531.072,7.52941 531.072,22.4107 " />
<polyline points="536.742,7.52941 536.742,22.4107 " />
<polyline points="536.742,7.52941 543.119,7.52941 545.245,8.23804 545.954,8.94667 546.662,10.3639 546.662,12.4898 545.954,13.9071 545.245,14.6157 543.119,15.3244 536.742,15.3244 " />
<polyline points="566.504,7.52941 566.504,22.4107 " />
<polyline points="572.173,7.52941 572.173,22.4107 " />
<polyline points="572.173,7.52941 582.094,22.4107 " />
<polyline points="582.094,7.52941 582.094,22.4107 " />
<polyline points="602.644,7.52941 602.644,22.4107 " />
<polyline points="602.644,7.52941 611.856,7.52941 " />
<polyline points="602.644,14.6157 608.313,14.6157 " />
<polyline points="615.4,7.52941 615.4,22.4107 " />
<polyline points="615.4,7.52941 621.777,7.52941 623.903,8.23804 624.612,8.94667 625.32,10.3639 625.32,11.7812 624.612,13.1985 623.903,13.9071 621.777,14.6157 615.4,14.6157 " />
<polyline points="620.36,14.6157 625.32,22.4107 " />
<polyline points="633.824,7.52941 628.155,22.4107 " />
<polyline points="633.824,7.52941 639.493,22.4107 " />
<polyline points="630.281,17.4502 637.367,17.4502 " />
<polyline points="643.036,7.52941 643.036,22.4107 " />
<polyline points="643.036,7.52941 648.705,22.4107 " />
<polyline points="654.374,7.52941 648.705,22.4107 " />
<polyline points="654.374,7.52941 654.374,22.4107 " />
<polyline points="660.043,7.52941 660.043,22.4107 " />
<polyline points="660.043,7.52941 669.256,7.52941 " />
<polyline points="660.043,14.6157 665.712,14.6157 " />
<polyline points="660.043,22.4107 669.256,22.4107 " />
<polyline points="691.932,7.52941 690.514,8.23804 689.097,9.65531 688.389,11.0726 687.68,13.1985 687.68,16.7416 688.389,18.8675 689.097,20.2848 690.514,21.702 691.932,22.4107 694.766,22.4107 696.184,21.702 697.601,20.2848 698.309,18.8675 699.018,16.7416 699.018,13.1985 698.309,11.0726 697.601,9.65531 696.184,8.23804 694.766,7.52941 691.932,7.52941 " />
<polyline points="703.978,7.52941 703.978,22.4107 " />
<polyline points="703.978,7.52941 710.356,7.52941 712.482,8.23804 713.191,8.94667 713.899,10.3639 713.899,11.7812 713.191,13.1985 712.482,13.9071 710.356,14.6157 703.978,14.6157 " />
<polyline points="708.939,14.6157 713.899,22.4107 " />
<polyline points="733.741,7.52941 733.741,22.4107 " />
<polyline points="733.741,7.52941 742.953,7.52941 " />
<polyline points="733.741,14.6157 739.41,14.6157 " />
<polyline points="746.496,7.52941 746.496,22.4107 755,22.4107 " />
<polyline points="762.086,7.52941 756.417,22.4107 " />
<polyline points="762.086,7.52941 767.755,22.4107 " />
<polyline points="758.543,17.4502 765.629,17.4502 " />
<polyline points="771.298,7.52941 771.298,22.4107 " />
<polyline points="771.298,7.52941 781.219,22.4107 " />
<polyline points="781.219,7.52941 781.219,22.4107 " />
<polyline points="796.809,11.0726 796.101,9.65531 794.683,8.23804 793.266,7.52941 790.431,7.52941 789.014,8.23804 787.597,9.65531 786.888,11.0726 786.18,13.1985 786.18,16.7416 786.888,18.8675 787.597,20.2848 789.014,21.702 790.431,22.4107 793.266,22.4107 794.683,21.702 796.101,20.2848 796.809,18.8675 796.809,16.7416 " />
<polyline points="793.266,16.7416 796.809,16.7416 " />
<polyline points="801.77,7.52941 801.77,22.4107 " />
<polyline points="801.77,7.52941 810.982,7.52941 " />
<polyline points="801.77,14.6157 807.439,14.6157 " />
<polyline points="801.77,22.4107 810.982,22.4107 " />
<polyline points="830.115,7.52941 830.115,22.4107 " />
<polyline points="830.115,7.52941 835.784,22.4107 " />
<polyline points="841.453,7.52941 835.784,22.4107 " />
<polyline points="841.453,7.52941 841.453,22.4107 " />
<polyline points="850.665,7.52941 849.248,8.23804 847.831,9.65531 847.122,11.0726 846.413,13.1985 846.413,16.7416 847.122,18.8675 847.831,20.2848 849.248,21.702 850.665,22.4107 853.5,22.4107 854.917,21.702 856.334,20.2848 857.043,18.8675 857.751,16.7416 857.751,13.1985 857.043,11.0726 856.334,9.65531 854.917,8.23804 853.5,7.52941 850.665,7.52941 " />
<polyline points="862.712,7.52941 862.712,18.1589 863.421,20.2848 864.838,21.702 866.964,22.4107 868.381,22.4107 870.507,21.702 871.924,20.2848 872.633,18.1589 872.633,7.52941 " />
<polyline points="878.302,7.52941 878.302,22.4107 " />
<polyline points="878.302,7.52941 888.223,22.4107 " />
<polyline points="888.223,7.52941 888.223,22.4107 " />
<polyline points="896.726,7.52941 896.726,22.4107 " />
<polyline points="891.766,7.52941 901.687,7.52941 " />
<polyline points="905.23,7.52941 905.23,22.4107 " />
<polyline points="905.23,7.52941 914.442,7.52941 " />
<polyline points="905.23,14.6157 910.899,14.6157 " />
<polyline points="905.23,22.4107 914.442,22.4107 " />
<polyline points="918.694,7.52941 918.694,22.4107 " />
<polyline points="918.694,7.52941 923.654,7.52941 925.78,8.23804 927.197,9.65531 927.906,11.0726 928.615,13.1985 928.615,16.7416 927.906,18.8675 927.197,20.2848 925.78,21.702 923.654,22.4107 918.694,22.4107 " />
<polyline points="806.083,743.841 805.044,741.763 802.965,739.684 800.886,738.645 796.729,738.645 794.65,739.684 792.572,741.763 791.533,743.841 790.493,746.959 790.493,752.156 791.533,755.274 792.572,757.353 794.65,759.431 796.729,760.471 800.886,760.471 802.965,759.431 805.044,757.353 806.083,755.274 " />
<polyline points="813.358,738.645 813.358,760.471 " />
<polyline points="813.358,738.645 822.712,738.645 825.83,739.684 826.87,740.723 827.909,742.802 827.909,744.881 826.87,746.959 825.83,747.999 822.712,749.038 813.358,749.038 " />
<polyline points="820.634,749.038 827.909,760.471 " />
<polyline points="847.656,745.92 846.617,749.038 844.538,751.117 841.42,752.156 840.381,752.156 837.263,751.117 835.184,749.038 834.145,745.92 834.145,744.881 835.184,741.763 837.263,739.684 840.381,738.645 841.42,738.645 844.538,739.684 846.617,741.763 847.656,745.92 847.656,751.117 846.617,756.313 844.538,759.431 841.42,760.471 839.341,760.471 836.224,759.431 835.184,757.353 " />
<polyline points="855.971,751.117 874.679,751.117 " />
<polyline points="884.033,738.645 895.465,738.645 889.229,746.959 892.347,746.959 894.426,747.999 895.465,749.038 896.504,752.156 896.504,754.235 895.465,757.353 893.386,759.431 890.268,760.471 887.15,760.471 884.033,759.431 882.993,758.392 881.954,756.313 " />
</g>
</svg>
