<?xml version="1.0" standalone="no"?>
<svg viewBox="0 0 1024 768" version="1.1" xmlns="http://www.w3.org/2000/svg" xmlns:xlink="http://www.w3.org/1999/xlink" stroke-linecap="round" stroke-linejoin="round" fill-rule="evenodd" xml:space="preserve" >
<defs >
<clipPath id="clipId0" >
<path d="M0,768 1024,768 1024,0 0,0 z" />
</clipPath>
</defs>
<g clip-path="url(#clipId0)" fill="none" stroke="rgb(0,0,0)" stroke-width="0.1" />
<g clip-path="url(#clipId0)" fill="none" stroke="rgb(0,0,0)" stroke-width="0.25" >
<polyline points="464.535,171.509 902.626,171.509 " />
<polyline points="464.535,377.931 902.626,377.931 " />
<polyline points="211.928,469.873 211.928,79.567 " />
<polyline points="990.273,377.931 989.698,377.917 989.125,377.875 988.554,377.805 987.988,377.707 987.427,377.581 986.872,377.428 986.326,377.249 985.79,377.042 985.264,376.81 984.75,376.552 984.249,376.27 983.763,375.963 983.292,375.633 982.838,375.28 982.402,374.905 982.402,374.905 981.664,374.22 980.944,373.516 980.244,372.793 979.564,372.05 978.904,371.29 978.265,370.512 977.647,369.717 977.051,368.906 976.478,368.078 975.926,367.236 975.398,366.379 974.893,365.507 974.413,364.623 973.956,363.726 973.523,362.816 973.523,362.816 972.967,361.572 972.436,360.316 971.931,359.05 971.451,357.774 970.997,356.488 970.569,355.194 970.168,353.891 969.793,352.581 969.444,351.263 969.122,349.938 968.827,348.607 968.559,347.27 968.559,347.27 968.244,345.543 967.957,343.811 967.697,342.075 967.464,340.335 967.258,338.591 967.08,336.844 966.929,335.095 966.805,333.344 966.709,331.591 966.64,329.837 966.599,328.081 966.585,326.326 966.585,326.326 966.599,324.57 966.64,322.815 966.709,321.061 966.805,319.308 966.929,317.556 967.08,315.807 967.258,314.061 967.464,312.317 967.697,310.577 967.957,308.84 968.244,307.109 968.559,305.381 968.559,305.381 968.827,304.045 969.122,302.714 969.444,301.389 969.793,300.071 970.168,298.76 970.569,297.457 970.997,296.163 971.451,294.878 971.931,293.601 972.436,292.335 972.967,291.08 973.523,289.835 973.523,289.835 973.956,288.926 974.413,288.029 974.893,287.144 975.398,286.273 975.926,285.416 976.478,284.573 977.051,283.746 977.647,282.934 978.265,282.139 978.904,281.361 979.564,280.601 980.244,279.859 980.944,279.135 981.664,278.431 982.402,277.746 982.402,277.746 982.838,277.372 983.292,277.019 983.763,276.689 984.249,276.382 984.75,276.099 985.264,275.841 985.79,275.609 986.326,275.403 986.872,275.223 987.427,275.07 987.988,274.944 988.554,274.846 989.125,274.776 989.698,274.734 990.273,274.72 990.273,274.72 990.848,274.734 991.421,274.776 991.992,274.846 992.558,274.944 993.12,275.07 993.674,275.223 994.22,275.403 994.757,275.609 995.282,275.841 995.796,276.099 996.297,276.382 996.783,276.689 997.254,277.019 997.708,277.372 998.144,277.746 998.144,277.746 998.882,278.431 999.602,279.135 1000.3,279.859 1000.98,280.601 1001.64,281.361 1002.28,282.139 1002.9,282.934 1003.49,283.746 1004.07,284.573 1004.62,285.416 1005.15,286.273 1005.65,287.144 1006.13,288.029 1006.59,288.926 1007.02,289.835 1007.02,289.835 1007.58,291.08 1008.11,292.335 1008.62,293.601 1009.1,294.878 1009.55,296.163 1009.98,297.457 1010.38,298.76 1010.75,300.071 1011.1,301.389 1011.42,302.714 1011.72,304.045 1011.99,305.381 1011.99,305.381 1012.3,307.109 1012.59,308.84 1012.85,310.577 1013.08,312.317 1013.29,314.061 1013.47,315.807 1013.62,317.556 1013.74,319.308 1013.84,321.061 1013.91,322.815 1013.95,324.57 1013.96,326.326 1013.96,326.326 1013.95,328.081 1013.91,329.837 1013.84,331.591 1013.74,333.344 1013.62,335.095 1013.47,336.844 1013.29,338.591 1013.08,340.335 1012.85,342.075 1012.59,343.811 1012.3,345.543 1011.99,347.27 1011.99,347.27 1011.72,348.607 1011.42,349.938 1011.1,351.263 1010.75,352.581 1010.38,353.891 1009.98,355.194 1009.55,356.488 1009.1,357.774 1008.62,359.05 1008.11,360.316 1007.58,361.572 1007.02,362.816 1007.02,362.816 1006.59,363.726 1006.13,364.623 1005.65,365.507 1005.15,366.379 1004.62,367.236 1004.07,368.078 1003.49,368.906 1002.9,369.717 1002.28,370.512 1001.64,371.29 1000.98,372.05 1000.3,372.793 999.602,373.516 998.882,374.22 998.144,374.905 998.144,374.905 997.708,375.28 997.254,375.633 996.783,375.963 996.297,376.27 995.796,376.552 995.282,376.81 994.757,377.042 994.22,377.249 993.674,377.428 993.12,377.581 992.558,377.707 991.992,377.805 991.421,377.875 990.848,377.917 990.273,377.931 " />
<polyline points="990.273,274.72 990.848,274.706 991.421,274.664 991.992,274.594 992.558,274.496 993.12,274.37 993.674,274.217 994.22,274.037 994.757,273.831 995.282,273.599 995.796,273.341 996.297,273.058 996.783,272.751 997.254,272.421 997.708,272.068 998.144,271.694 998.144,271.694 998.882,271.009 999.602,270.305 1000.3,269.581 1000.98,268.839 1001.64,268.079 1002.28,267.301 1002.9,266.506 1003.49,265.694 1004.07,264.867 1004.62,264.024 1005.15,263.167 1005.65,262.296 1006.13,261.412 1006.59,260.514 1007.02,259.605 1007.02,259.605 1007.58,258.36 1008.11,257.105 1008.62,255.839 1009.1,254.563 1009.55,253.277 1009.98,251.983 1010.38,250.68 1010.75,249.369 1011.1,248.051 1011.42,246.726 1011.72,245.395 1011.99,244.059 1011.99,244.059 1012.3,242.332 1012.59,240.6 1012.85,238.863 1013.08,237.123 1013.29,235.38 1013.47,233.633 1013.62,231.884 1013.74,230.132 1013.84,228.379 1013.91,226.625 1013.95,224.87 1013.96,223.114 1013.96,223.114 1013.95,221.359 1013.91,219.604 1013.84,217.849 1013.74,216.096 1013.62,214.345 1013.47,212.596 1013.29,210.849 1013.08,209.106 1012.85,207.365 1012.59,205.629 1012.3,203.897 1011.99,202.17 1011.99,202.17 1011.72,200.833 1011.42,199.502 1011.1,198.177 1010.75,196.86 1010.38,195.549 1009.98,194.246 1009.55,192.952 1009.1,191.666 1008.62,190.39 1008.11,189.124 1007.58,187.868 1007.02,186.624 1007.02,186.624 1006.59,185.714 1006.13,184.817 1005.65,183.933 1005.15,183.062 1004.62,182.204 1004.07,181.362 1003.49,180.535 1002.9,179.723 1002.28,178.928 1001.64,178.15 1000.98,177.39 1000.3,176.647 999.602,175.924 998.882,175.22 998.144,174.535 998.144,174.535 997.708,174.16 997.254,173.808 996.783,173.477 996.297,173.171 995.796,172.888 995.282,172.63 994.757,172.398 994.22,172.191 993.674,172.012 993.12,171.859 992.558,171.733 991.992,171.635 991.421,171.565 990.848,171.523 990.273,171.509 " />
<polyline points="990.273,132.847 990.273,416.593 " stroke-dasharray="172.018955,34.403791,34.403791,34.403791" />
<polyline points="750.703,309.407 748.737,310.39 746.771,312.356 745.788,315.305 745.788,317.271 746.771,320.22 748.737,322.186 750.703,323.169 753.652,323.169 755.618,322.186 757.584,320.22 758.567,317.271 758.567,315.305 757.584,312.356 755.618,310.39 753.652,309.407 750.703,309.407 " />
</g>
<g clip-path="url(#clipId0)" fill="rgb(0,0,0)" stroke="rgb(0,0,0)" stroke-width="0.25" >
<path d="M844.496,271.28 844.496,278.16 865.139,274.72 865.139,274.72 z" />
</g>
<g clip-path="url(#clipId0)" fill="none" stroke="rgb(0,0,0)" stroke-width="0.25" >
<polyline points="464.535,171.509 211.928,79.567 " />
<polyline points="464.535,377.931 464.535,171.509 " />
<polyline points="464.535,377.931 211.928,469.873 " />
<polyline points="156.882,469.873 156.882,79.567 " />
<polyline points="211.928,79.567 156.882,79.567 " />
<polyline points="211.928,469.873 156.882,469.873 " />
<path d="M347.223,150.771  A419.608,419.608 0 0,0 329.126,251.785 " />
<path d="M329.126,297.655  A419.608,419.608 0 0,0 347.223,398.669 " />
</g>
<g clip-path="url(#clipId0)" fill="rgb(0,0,0)" stroke="rgb(0,0,0)" stroke-width="0.25" >
<path d="M350.484,151.868 343.962,149.674 353.804,131.206 353.804,131.206 z" />
<path d="M350.484,397.572 343.962,399.766 353.804,418.234 353.804,418.234 z" />
<path d="M237.214,271.28 237.214,278.16 257.856,274.72 257.856,274.72 z" />
</g>
<g clip-path="url(#clipId0)" fill="none" stroke="rgb(0,0,0)" stroke-width="0.25" >
<polyline points="237.214,274.72 49.6652,274.72 " />
</g>
<g clip-path="url(#clipId0)" fill="rgb(0,0,0)" stroke="rgb(0,0,0)" stroke-width="0.25" >
<path d="M143.271,162.682 138.851,167.955 156.882,178.578 156.882,178.578 z" />
</g>
<g clip-path="url(#clipId0)" fill="none" stroke="rgb(0,0,0)" stroke-width="0.25" >
<polyline points="141.061,165.318 66.0682,102.465 " />
<polyline points="66.0682,102.465 45.426,102.465 " />
<polyline points="17.9029,92.1443 10.0392,112.787 " />
<polyline points="17.9029,92.1443 25.7667,112.787 " />
<polyline points="12.9881,105.906 22.8178,105.906 " />
<polyline points="32.0227,105.038 33.9887,104.055 36.9376,101.106 36.9376,121.749 " />
<polyline points="261.824,566.584 253.96,587.226 " />
<polyline points="261.824,566.584 269.688,587.226 " />
<polyline points="256.909,580.346 266.739,580.346 " />
<polyline points="282.229,582.871 280.263,583.854 278.297,585.82 277.314,588.769 277.314,590.735 278.297,593.684 280.263,595.649 282.229,596.632 285.178,596.632 287.144,595.649 289.11,593.684 290.093,590.735 290.093,588.769 289.11,585.82 287.144,583.854 285.178,582.871 282.229,582.871 " />
<polyline points="177.707,579.922 179.672,578.939 182.621,575.99 182.621,596.632 " />
<polyline points="164.922,566.584 157.058,587.226 " />
<polyline points="164.922,566.584 172.786,587.226 " />
<polyline points="160.007,580.346 169.837,580.346 " />
<polyline points="196.866,569.533 212.593,578.38 196.866,587.226 " />
<polyline points="230.2,571.499 230.2,570.516 231.183,568.55 232.166,567.567 234.132,566.584 238.064,566.584 240.03,567.567 241.013,568.55 241.996,570.516 241.996,572.482 241.013,574.448 239.047,577.397 229.217,587.226 242.979,587.226 " />
<polyline points="194.9,590.672 214.559,590.672 " />
<polyline points="729.333,230.042 727.367,231.025 725.401,232.991 724.418,234.957 723.435,237.906 723.435,242.821 724.418,245.77 725.401,247.736 727.367,249.702 729.333,250.685 733.265,250.685 735.231,249.702 737.197,247.736 738.18,245.77 739.163,242.821 739.163,237.906 738.18,234.957 737.197,232.991 735.231,231.025 733.265,230.042 729.333,230.042 " />
<polyline points="732.282,246.753 738.18,252.65 " />
<polyline points="532.567,266.096 532.567,286.738 " />
<polyline points="532.567,266.096 539.448,266.096 542.397,267.078 544.363,269.044 545.346,271.01 546.329,273.959 546.329,278.874 545.346,281.823 544.363,283.789 542.397,285.755 539.448,286.738 532.567,286.738 " />
</g>
<g clip-path="url(#clipId0)" fill="rgb(0,0,0)" stroke="rgb(0,0,0)" stroke-width="0.25" >
<path d="M535.037,191.208 541.917,191.208 538.477,170.566 538.477,170.566 z" />
</g>
<g clip-path="url(#clipId0)" fill="none" stroke="rgb(0,0,0)" stroke-width="0.25" >
<polyline points="538.477,191.208 538.477,254.69 " />
</g>
<g clip-path="url(#clipId0)" fill="rgb(0,0,0)" stroke="rgb(0,0,0)" stroke-width="0.25" >
<path d="M541.917,358.232 535.037,358.232 538.477,378.874 538.477,378.874 z" />
</g>
<g clip-path="url(#clipId0)" fill="none" stroke="rgb(0,0,0)" stroke-width="0.25" >
<polyline points="538.477,358.232 538.477,294.75 " />
<circle cx="328.518" cy="274.72" r="10.3211" />
<polyline points="318.196,274.72 338.839,274.72 " />
<polyline points="731.851,291.731 723.987,312.373 " />
<polyline points="731.851,291.731 739.714,312.373 " />
<polyline points="726.936,305.493 736.765,305.493 " />
<polyline points="902.626,377.931 990.489,377.931 " />
<polyline points="902.626,171.509 990.489,171.509 " />
<polyline points="846.691,274.773 813.036,274.773 " />
<polyline points="813.036,274.773 673.349,274.773 " />
<polyline points="826.137,658.158 826.137,688.433 " />
<polyline points="826.137,658.158 844.879,658.158 " />
<polyline points="826.137,672.574 837.671,672.574 " />
<polyline points="826.137,688.433 844.879,688.433 " />
<polyline points="853.529,658.158 853.529,688.433 " />
<polyline points="853.529,658.158 863.621,658.158 867.946,659.599 870.829,662.483 872.271,665.366 873.713,669.691 873.713,676.899 872.271,681.225 870.829,684.108 867.946,686.991 863.621,688.433 853.529,688.433 " />
<polyline points="886.688,663.924 889.571,662.483 893.896,658.158 893.896,688.433 " />
<polyline points="919.846,658.158 915.521,659.599 912.638,663.924 911.196,671.133 911.196,675.458 912.638,682.666 915.521,686.991 919.846,688.433 922.73,688.433 927.055,686.991 929.938,682.666 931.38,675.458 931.38,671.133 929.938,663.924 927.055,659.599 922.73,658.158 919.846,658.158 " />
<polyline points="941.472,675.458 967.422,675.458 " />
<polyline points="981.839,663.924 984.722,662.483 989.047,658.158 989.047,688.433 " />
</g>
</svg>
