<?xml version="1.0" standalone="no"?>
<svg viewBox="0 0 1024 768" version="1.1" xmlns="http://www.w3.org/2000/svg" xmlns:xlink="http://www.w3.org/1999/xlink" stroke-linecap="round" stroke-linejoin="round" fill-rule="evenodd" xml:space="preserve" >
<defs >
<clipPath id="clipId0" >
<path d="M0,768 1024,768 1024,0 0,0 z" />
</clipPath>
</defs>
<g clip-path="url(#clipId0)" fill="none" stroke="rgb(0,0,0)" stroke-width="0.1" />
<g clip-path="url(#clipId0)" fill="none" stroke="rgb(0,0,0)" stroke-width="0.25" >
<polyline points="277.107,360.839 534.534,360.839 " />
<polyline points="277.107,482.135 534.534,482.135 " />
<polyline points="128.671,536.161 128.671,306.813 " />
<polyline points="571.084,482.135 570.522,482.112 569.963,482.044 569.412,481.93 568.872,481.771 568.346,481.569 567.839,481.325 567.353,481.04 566.892,480.717 566.459,480.357 566.459,480.357 565.742,479.68 565.057,478.971 564.404,478.233 563.785,477.465 563.201,476.67 562.654,475.85 562.145,475.006 561.673,474.14 561.242,473.253 561.242,473.253 560.691,471.996 560.184,470.72 559.721,469.427 559.303,468.119 558.931,466.797 558.605,465.463 558.325,464.118 558.325,464.118 558.018,462.377 557.758,460.627 557.545,458.872 557.379,457.111 557.26,455.347 557.189,453.579 557.165,451.811 557.165,451.811 557.189,450.043 557.26,448.276 557.379,446.511 557.545,444.75 557.758,442.995 558.018,441.245 558.325,439.504 558.325,439.504 558.605,438.159 558.931,436.825 559.303,435.504 559.721,434.195 560.184,432.903 560.691,431.626 561.242,430.369 561.242,430.369 561.673,429.482 562.145,428.616 562.654,427.772 563.201,426.952 563.785,426.157 564.404,425.39 565.057,424.651 565.742,423.942 566.459,423.265 566.459,423.265 566.892,422.905 567.353,422.582 567.839,422.297 568.346,422.053 568.872,421.851 569.412,421.693 569.963,421.579 570.522,421.51 571.084,421.487 571.084,421.487 571.647,421.51 572.206,421.579 572.757,421.693 573.297,421.851 573.823,422.053 574.33,422.297 574.816,422.582 575.277,422.905 575.71,423.265 575.71,423.265 576.426,423.942 577.112,424.651 577.765,425.39 578.384,426.157 578.968,426.952 579.515,427.772 580.024,428.616 580.495,429.482 580.927,430.369 580.927,430.369 581.478,431.626 581.985,432.903 582.448,434.195 582.866,435.504 583.238,436.825 583.564,438.159 583.844,439.504 583.844,439.504 584.151,441.245 584.411,442.995 584.624,444.75 584.79,446.511 584.909,448.276 584.98,450.043 585.004,451.811 585.004,451.811 584.98,453.579 584.909,455.347 584.79,457.111 584.624,458.872 584.411,460.627 584.151,462.377 583.844,464.118 583.844,464.118 583.564,465.463 583.238,466.797 582.866,468.119 582.448,469.427 581.985,470.72 581.478,471.996 580.927,473.253 580.927,473.253 580.495,474.14 580.024,475.006 579.515,475.85 578.968,476.67 578.384,477.465 577.765,478.233 577.112,478.971 576.426,479.68 575.71,480.357 575.71,480.357 575.277,480.717 574.816,481.04 574.33,481.325 573.823,481.569 573.297,481.771 572.757,481.93 572.206,482.044 571.647,482.112 571.084,482.135 " />
<polyline points="571.084,421.487 571.647,421.464 572.206,421.395 572.757,421.281 573.297,421.123 573.823,420.921 574.33,420.676 574.816,420.392 575.277,420.068 575.71,419.709 575.71,419.709 576.426,419.032 577.112,418.323 577.765,417.584 578.384,416.817 578.968,416.022 579.515,415.202 580.024,414.358 580.495,413.492 580.927,412.605 580.927,412.605 581.478,411.347 581.985,410.071 582.448,408.778 582.866,407.47 583.238,406.148 583.564,404.814 583.844,403.47 583.844,403.47 584.151,401.728 584.411,399.979 584.624,398.223 584.79,396.463 584.909,394.698 584.98,392.931 585.004,391.163 585.004,391.163 584.98,389.394 584.909,387.627 584.79,385.863 584.624,384.102 584.411,382.346 584.151,380.597 583.844,378.856 583.844,378.856 583.564,377.511 583.238,376.177 582.866,374.855 582.448,373.547 581.985,372.254 581.478,370.978 580.927,369.72 580.927,369.72 580.495,368.834 580.024,367.968 579.515,367.124 578.968,366.303 578.384,365.509 577.765,364.741 577.112,364.002 576.426,363.294 575.71,362.617 575.71,362.617 575.277,362.257 574.816,361.934 574.33,361.649 573.823,361.405 573.297,361.203 572.757,361.044 572.206,360.93 571.647,360.862 571.084,360.839 " />
<polyline points="571.084,338.121 571.084,504.853 " stroke-dasharray="101.080481,20.216096,20.216096,20.216096" />
<polyline points="429.83,439.689 428.675,440.267 427.52,441.422 426.942,443.155 426.942,444.31 427.52,446.043 428.675,447.198 429.83,447.776 431.563,447.776 432.718,447.198 433.874,446.043 434.451,444.31 434.451,443.155 433.874,441.422 432.718,440.267 431.563,439.689 429.83,439.689 " />
</g>
<g clip-path="url(#clipId0)" fill="rgb(0,0,0)" stroke="rgb(0,0,0)" stroke-width="0.25" >
<path d="M480.44,419.465 480.44,423.509 492.57,421.487 492.57,421.487 z" />
</g>
<g clip-path="url(#clipId0)" fill="none" stroke="rgb(0,0,0)" stroke-width="0.25" >
<polyline points="277.107,360.839 128.671,306.813 " />
<polyline points="277.107,482.135 277.107,360.839 " />
<polyline points="277.107,482.135 128.671,536.161 " />
<polyline points="96.3256,536.161 96.3256,306.813 " />
<polyline points="128.671,306.813 96.3256,306.813 " />
<polyline points="128.671,536.161 96.3256,536.161 " />
<path d="M208.173,348.653  A246.567,246.567 0 0,0 197.538,408.01 " />
<path d="M197.538,434.964  A246.567,246.567 0 0,0 208.173,494.321 " />
</g>
<g clip-path="url(#clipId0)" fill="rgb(0,0,0)" stroke="rgb(0,0,0)" stroke-width="0.25" >
<path d="M210.089,349.297 206.257,348.008 212.04,337.156 212.04,337.156 z" />
<path d="M210.089,493.676 206.257,494.965 212.04,505.818 212.04,505.818 z" />
<path d="M143.53,419.465 143.53,423.509 155.66,421.487 155.66,421.487 z" />
</g>
<g clip-path="url(#clipId0)" fill="none" stroke="rgb(0,0,0)" stroke-width="0.25" >
<polyline points="143.53,421.487 33.3239,421.487 " />
</g>
<g clip-path="url(#clipId0)" fill="rgb(0,0,0)" stroke="rgb(0,0,0)" stroke-width="0.25" >
<path d="M88.3279,355.652 85.7307,358.751 96.3256,364.993 96.3256,364.993 z" />
</g>
<g clip-path="url(#clipId0)" fill="none" stroke="rgb(0,0,0)" stroke-width="0.25" >
<polyline points="87.0293,357.201 42.9626,320.268 " />
<polyline points="42.9626,320.268 30.8329,320.268 " />
<polyline points="14.66,314.203 10.0392,326.333 " />
<polyline points="14.66,314.203 19.2809,326.333 " />
<polyline points="11.772,322.29 17.5481,322.29 " />
<polyline points="22.957,321.78 24.1122,321.202 25.845,319.469 25.845,331.599 " />
<polyline points="157.991,578.048 153.37,590.177 " />
<polyline points="157.991,578.048 162.612,590.177 " />
<polyline points="155.103,586.134 160.879,586.134 " />
<polyline points="169.564,587.618 168.409,588.196 167.254,589.351 166.676,591.084 166.676,592.239 167.254,593.972 168.409,595.127 169.564,595.704 171.297,595.704 172.452,595.127 173.608,593.972 174.185,592.239 174.185,591.084 173.608,589.351 172.452,588.196 171.297,587.618 169.564,587.618 " />
<polyline points="108.563,585.885 109.718,585.307 111.451,583.575 111.451,595.704 " />
<polyline points="101.05,578.048 96.4295,590.177 " />
<polyline points="101.05,578.048 105.671,590.177 " />
<polyline points="98.1623,586.134 103.938,586.134 " />
<polyline points="119.821,579.78 129.063,584.979 119.821,590.177 " />
<polyline points="139.408,580.936 139.408,580.358 139.986,579.203 140.564,578.625 141.719,578.048 144.029,578.048 145.185,578.625 145.762,579.203 146.34,580.358 146.34,581.513 145.762,582.668 144.607,584.401 138.831,590.177 146.917,590.177 " />
<polyline points="118.666,592.202 130.218,592.202 " />
<polyline points="128.671,306.813 277.107,421.487 " />
<polyline points="277.107,421.487 128.671,536.161 " />
<polyline points="417.22,395.234 416.065,395.811 414.91,396.967 414.332,398.122 413.754,399.855 413.754,402.743 414.332,404.475 414.91,405.631 416.065,406.786 417.22,407.363 419.53,407.363 420.686,406.786 421.841,405.631 422.418,404.475 422.996,402.743 422.996,399.855 422.418,398.122 421.841,396.967 420.686,395.811 419.53,395.234 417.22,395.234 " />
<polyline points="418.953,405.053 422.418,408.519 " />
<polyline points="320.939,418.773 320.939,430.903 " />
<polyline points="320.939,418.773 324.982,418.773 326.715,419.351 327.87,420.506 328.447,421.661 329.025,423.394 329.025,426.282 328.447,428.015 327.87,429.17 326.715,430.325 324.982,430.903 320.939,430.903 " />
</g>
<g clip-path="url(#clipId0)" fill="rgb(0,0,0)" stroke="rgb(0,0,0)" stroke-width="0.25" >
<path d="M322.39,372.414 326.433,372.414 324.411,360.285 324.411,360.285 z" />
</g>
<g clip-path="url(#clipId0)" fill="none" stroke="rgb(0,0,0)" stroke-width="0.25" >
<polyline points="324.411,372.414 324.411,412.071 " />
</g>
<g clip-path="url(#clipId0)" fill="rgb(0,0,0)" stroke="rgb(0,0,0)" stroke-width="0.25" >
<path d="M326.433,470.559 322.39,470.559 324.411,482.689 324.411,482.689 z" />
</g>
<g clip-path="url(#clipId0)" fill="none" stroke="rgb(0,0,0)" stroke-width="0.25" >
<polyline points="324.411,470.559 324.411,435.611 " />
<circle cx="197.181" cy="421.487" r="6.06483" />
<polyline points="191.116,421.487 203.246,421.487 " />
<polyline points="418.537,428.146 413.916,440.275 " />
<polyline points="418.537,428.146 423.158,440.275 " />
<polyline points="415.649,436.232 421.425,436.232 " />
<polyline points="534.534,360.839 570.85,360.839 " />
<polyline points="534.534,482.135 570.85,482.135 " />
<polyline points="482.981,421.35 471.52,421.35 " />
<polyline points="1013.96,88.4679 917.328,88.4679 " />
<polyline points="471.52,421.35 376.549,421.35 " />
<polyline points="471.313,661.742 471.313,679.532 " />
<polyline points="471.313,661.742 482.326,661.742 " />
<polyline points="471.313,670.213 478.09,670.213 " />
<polyline points="471.313,679.532 482.326,679.532 " />
<polyline points="487.409,661.742 487.409,679.532 " />
<polyline points="487.409,661.742 493.339,661.742 495.881,662.589 497.575,664.283 498.422,665.978 499.269,668.519 499.269,672.755 498.422,675.296 497.575,676.991 495.881,678.685 493.339,679.532 487.409,679.532 " />
<polyline points="506.894,665.131 508.588,664.283 511.129,661.742 511.129,679.532 " />
<polyline points="526.378,661.742 523.837,662.589 522.142,665.131 521.295,669.366 521.295,671.908 522.142,676.144 523.837,678.685 526.378,679.532 528.072,679.532 530.614,678.685 532.308,676.144 533.155,671.908 533.155,669.366 532.308,665.131 530.614,662.589 528.072,661.742 526.378,661.742 " />
<polyline points="539.085,671.908 554.334,671.908 " />
<polyline points="561.111,665.978 561.111,665.131 561.958,663.436 562.806,662.589 564.5,661.742 567.888,661.742 569.583,662.589 570.43,663.436 571.277,665.131 571.277,666.825 570.43,668.519 568.736,671.061 560.264,679.532 572.124,679.532 " />
</g>
</svg>
