<?xml version="1.0" standalone="no"?>
<svg viewBox="0 0 1024 768" version="1.1" xmlns="http://www.w3.org/2000/svg" xmlns:xlink="http://www.w3.org/1999/xlink" stroke-linecap="round" stroke-linejoin="round" fill-rule="evenodd" xml:space="preserve" >
<defs >
<clipPath id="clipId0" >
<path d="M0,768 1024,768 1024,0 0,0 z" />
</clipPath>
</defs>
<g clip-path="url(#clipId0)" fill="none" stroke="rgb(0,0,0)" stroke-width="0.1" />
<g clip-path="url(#clipId0)" fill="none" stroke="rgb(0,0,0)" stroke-width="0.25" >
<polyline points="879.824,295.301 961.66,295.301 " />
<polyline points="185.095,172.546 920.742,172.546 " />
<polyline points="62.3395,540.812 62.3395,49.7906 " />
<path d="M62.3395,49.7906  A122.755,122.755 0 0,0 185.095,172.546 " />
<path d="M185.095,418.057  A122.755,122.755 0 0,0 62.3395,540.812 " />
<polyline points="185.095,418.057 920.742,418.057 " />
<polyline points="185.095,418.057 185.095,172.546 " />
<polyline points="920.742,418.057 920.172,418.045 919.603,418.01 919.037,417.952 918.473,417.871 917.912,417.767 917.357,417.64 916.807,417.491 916.263,417.319 915.727,417.126 915.2,416.91 914.681,416.674 914.173,416.416 913.676,416.138 913.19,415.84 912.717,415.522 912.257,415.185 911.811,414.83 911.381,414.457 911.381,414.457 910.647,413.78 909.93,413.087 909.228,412.378 908.542,411.653 907.873,410.913 907.22,410.158 906.585,409.388 905.968,408.604 905.368,407.806 904.786,406.996 904.223,406.172 903.679,405.335 903.153,404.487 902.647,403.627 902.161,402.756 901.694,401.874 901.247,400.982 900.821,400.079 900.821,400.079 900.252,398.811 899.705,397.534 899.18,396.247 898.678,394.951 898.199,393.646 897.741,392.334 897.307,391.014 896.896,389.686 896.508,388.352 896.143,387.011 895.801,385.663 895.482,384.311 895.187,382.952 894.916,381.589 894.916,381.589 894.593,379.829 894.295,378.064 894.019,376.296 893.768,374.524 893.541,372.748 893.337,370.97 893.157,369.189 893.001,367.406 892.869,365.621 892.761,363.835 892.677,362.047 892.617,360.258 892.581,358.469 892.569,356.679 892.569,356.679 892.581,354.889 892.617,353.1 892.677,351.311 892.761,349.523 892.869,347.736 893.001,345.951 893.157,344.168 893.337,342.388 893.541,340.609 893.768,338.834 894.019,337.062 894.295,335.294 894.593,333.529 894.916,331.768 894.916,331.768 895.187,330.405 895.482,329.047 895.801,327.694 896.143,326.347 896.508,325.006 896.896,323.672 897.307,322.344 897.741,321.024 898.199,319.711 898.678,318.407 899.18,317.111 899.705,315.824 900.252,314.546 900.821,313.278 900.821,313.278 901.247,312.376 901.694,311.484 902.161,310.602 902.647,309.731 903.153,308.871 903.679,308.022 904.223,307.186 904.786,306.362 905.368,305.551 905.968,304.754 906.585,303.97 907.22,303.2 907.873,302.445 908.542,301.705 909.228,300.98 909.93,300.271 910.647,299.577 911.381,298.901 911.381,298.901 911.811,298.528 912.257,298.172 912.717,297.836 913.19,297.518 913.676,297.22 914.173,296.942 914.681,296.684 915.2,296.447 915.727,296.232 916.263,296.038 916.807,295.867 917.357,295.718 917.912,295.591 918.473,295.487 919.037,295.406 919.603,295.348 920.172,295.313 920.742,295.301 920.742,295.301 921.312,295.313 921.881,295.348 922.448,295.406 923.012,295.487 923.572,295.591 924.127,295.718 924.677,295.867 925.221,296.038 925.757,296.232 926.284,296.447 926.803,296.684 927.311,296.942 927.809,297.22 928.294,297.518 928.767,297.836 929.227,298.172 929.673,298.528 930.103,298.901 930.103,298.901 930.837,299.577 931.554,300.271 932.256,300.98 932.942,301.705 933.611,302.445 934.264,303.2 934.899,303.97 935.517,304.754 936.116,305.551 936.698,306.362 937.261,307.186 937.805,308.022 938.331,308.871 938.837,309.731 939.323,310.602 939.79,311.484 940.237,312.376 940.663,313.278 940.663,313.278 941.232,314.546 941.779,315.824 942.304,317.111 942.806,318.407 943.286,319.711 943.743,321.024 944.177,322.344 944.588,323.672 944.976,325.006 945.341,326.347 945.683,327.694 946.002,329.047 946.297,330.405 946.568,331.768 946.568,331.768 946.891,333.529 947.189,335.294 947.465,337.062 947.716,338.834 947.944,340.609 948.147,342.388 948.327,344.168 948.483,345.951 948.615,347.736 948.723,349.523 948.807,351.311 948.867,353.1 948.903,354.889 948.915,356.679 948.915,356.679 948.903,358.469 948.867,360.258 948.807,362.047 948.723,363.835 948.615,365.621 948.483,367.406 948.327,369.189 948.147,370.97 947.944,372.748 947.716,374.524 947.465,376.296 947.189,378.064 946.891,379.829 946.568,381.589 946.568,381.589 946.297,382.952 946.002,384.311 945.683,385.663 945.341,387.011 944.976,388.352 944.588,389.686 944.177,391.014 943.743,392.334 943.286,393.646 942.806,394.951 942.304,396.247 941.779,397.534 941.232,398.811 940.663,400.079 940.663,400.079 940.237,400.982 939.79,401.874 939.323,402.756 938.837,403.627 938.331,404.487 937.805,405.335 937.261,406.172 936.698,406.996 936.116,407.806 935.517,408.604 934.899,409.388 934.264,410.158 933.611,410.913 932.942,411.653 932.256,412.378 931.554,413.087 930.837,413.78 930.103,414.457 930.103,414.457 929.673,414.83 929.227,415.185 928.767,415.522 928.294,415.84 927.809,416.138 927.311,416.416 926.803,416.674 926.284,416.91 925.757,417.126 925.221,417.319 924.677,417.491 924.127,417.64 923.572,417.767 923.012,417.871 922.448,417.952 921.881,418.01 921.312,418.045 920.742,418.057 " />
<polyline points="920.742,295.301 921.312,295.29 921.881,295.255 922.448,295.197 923.012,295.116 923.572,295.012 924.127,294.885 924.677,294.736 925.221,294.564 925.757,294.37 926.284,294.155 926.803,293.918 927.311,293.661 927.809,293.383 928.294,293.085 928.767,292.767 929.227,292.43 929.673,292.075 930.103,291.702 930.103,291.702 930.837,291.025 931.554,290.332 932.256,289.622 932.942,288.898 933.611,288.157 934.264,287.402 934.899,286.633 935.517,285.849 936.116,285.051 936.698,284.24 937.261,283.416 937.805,282.58 938.331,281.732 938.837,280.872 939.323,280.001 939.79,279.119 940.237,278.226 940.663,277.324 940.663,277.324 941.232,276.056 941.779,274.778 942.304,273.491 942.806,272.195 943.286,270.891 943.743,269.578 944.177,268.258 944.588,266.931 944.976,265.596 945.341,264.255 945.683,262.908 946.002,261.555 946.297,260.197 946.568,258.834 946.568,258.834 946.891,257.074 947.189,255.309 947.465,253.54 947.716,251.768 947.944,249.993 948.147,248.215 948.327,246.434 948.483,244.651 948.615,242.866 948.723,241.079 948.807,239.292 948.867,237.503 948.903,235.713 948.915,233.924 948.915,233.924 948.903,232.134 948.867,230.344 948.807,228.555 948.723,226.768 948.615,224.981 948.483,223.196 948.327,221.413 948.147,219.632 947.944,217.854 947.716,216.079 947.465,214.307 947.189,212.538 946.891,210.774 946.568,209.013 946.568,209.013 946.297,207.65 946.002,206.292 945.683,204.939 945.341,203.592 944.976,202.251 944.588,200.916 944.177,199.589 943.743,198.269 943.286,196.956 942.806,195.652 942.304,194.356 941.779,193.069 941.232,191.791 940.663,190.523 940.663,190.523 940.237,189.621 939.79,188.729 939.323,187.847 938.837,186.975 938.331,186.115 937.805,185.267 937.261,184.431 936.698,183.607 936.116,182.796 935.517,181.998 934.899,181.215 934.264,180.445 933.611,179.69 932.942,178.95 932.256,178.225 931.554,177.515 930.837,176.822 930.103,176.145 930.103,176.145 929.673,175.772 929.227,175.417 928.767,175.08 928.294,174.763 927.809,174.464 927.311,174.186 926.803,173.929 926.284,173.692 925.757,173.477 925.221,173.283 924.677,173.112 924.127,172.962 923.572,172.835 923.012,172.731 922.448,172.65 921.881,172.592 921.312,172.557 920.742,172.546 " />
<polyline points="920.742,126.564 920.742,464.039 " stroke-dasharray="204.592210,40.918442,40.918442,40.918442" />
<circle cx="185.095" cy="49.7906" r="12.2755" />
</g>
<g clip-path="url(#clipId0)" fill="rgb(0,0,0)" stroke="rgb(0,0,0)" stroke-width="0.25" >
<path d="M128.354,130.048 121.874,125.05 110.119,146.988 110.119,146.988 z" />
</g>
<g clip-path="url(#clipId0)" fill="none" stroke="rgb(0,0,0)" stroke-width="0.25" >
<polyline points="125.114,127.549 177.597,59.5103 " />
<polyline points="214.538,11.6213 239.089,11.6213 " />
<polyline points="268.316,7.52941 268.316,23.8968 " />
<polyline points="268.316,14.544 269.485,11.0367 271.824,8.69851 274.162,7.52941 277.669,7.52941 " />
<polyline points="192.592,40.0708 214.538,11.6213 " />
<polyline points="410.809,336.669 408.47,337.839 406.132,340.177 404.963,343.684 404.963,346.022 406.132,349.53 408.47,351.868 410.809,353.037 414.316,353.037 416.654,351.868 418.992,349.53 420.161,346.022 420.161,343.684 418.992,340.177 416.654,337.839 414.316,336.669 410.809,336.669 " />
<polyline points="506.985,295.301 276.118,295.301 " />
</g>
<g clip-path="url(#clipId0)" fill="rgb(0,0,0)" stroke="rgb(0,0,0)" stroke-width="0.25" >
<path d="M506.985,291.209 506.985,299.393 531.536,295.301 531.536,295.301 z" />
</g>
<g clip-path="url(#clipId0)" fill="none" stroke="rgb(0,0,0)" stroke-width="0.25" >
<polyline points="674.927,197.097 674.927,258.475 " />
<polyline points="674.927,393.505 674.927,332.128 " />
</g>
<g clip-path="url(#clipId0)" fill="rgb(0,0,0)" stroke="rgb(0,0,0)" stroke-width="0.25" >
<path d="M679.019,197.097 670.835,197.097 674.927,172.546 674.927,172.546 z" />
<path d="M679.019,393.505 670.835,393.505 674.927,418.057 674.927,418.057 z" />
</g>
<g clip-path="url(#clipId0)" fill="none" stroke="rgb(0,0,0)" stroke-width="0.25" >
<polyline points="671.419,283.026 671.419,307.577 " />
<polyline points="671.419,283.026 679.603,283.026 683.11,284.195 685.449,286.533 686.618,288.871 687.787,292.378 687.787,298.224 686.618,301.731 685.449,304.069 683.11,306.408 679.603,307.577 671.419,307.577 " />
<polyline points="385.392,242.163 383.054,243.332 380.716,245.671 379.546,248.009 378.377,251.516 378.377,257.362 379.546,260.869 380.716,263.207 383.054,265.545 385.392,266.714 390.068,266.714 392.407,265.545 394.745,263.207 395.914,260.869 397.083,257.362 397.083,251.516 395.914,248.009 394.745,245.671 392.407,243.332 390.068,242.163 385.392,242.163 " />
<polyline points="388.899,262.038 395.914,269.053 " />
<polyline points="389.288,317.256 379.936,341.807 " />
<polyline points="389.288,317.256 398.641,341.807 " />
<polyline points="383.443,333.623 395.134,333.623 " />
<polyline points="745.729,724.462 745.729,760.471 " />
<polyline points="745.729,724.462 768.019,724.462 " />
<polyline points="745.729,741.609 759.446,741.609 " />
<polyline points="745.729,760.471 768.019,760.471 " />
<polyline points="778.308,724.462 778.308,760.471 " />
<polyline points="778.308,724.462 790.31,724.462 795.454,726.177 798.884,729.606 800.598,733.036 802.313,738.18 802.313,746.753 800.598,751.897 798.884,755.327 795.454,758.756 790.31,760.471 778.308,760.471 " />
<polyline points="817.745,731.321 821.174,729.606 826.318,724.462 826.318,760.471 " />
<polyline points="848.609,745.038 879.473,745.038 " />
<polyline points="893.191,733.036 893.191,731.321 894.906,727.892 896.62,726.177 900.05,724.462 906.908,724.462 910.338,726.177 912.052,727.892 913.767,731.321 913.767,734.75 912.052,738.18 908.623,743.324 891.476,760.471 915.482,760.471 " />
</g>
</svg>
