<?xml version="1.0" standalone="no"?>
<svg viewBox="0 0 1024 768" version="1.1" xmlns="http://www.w3.org/2000/svg" xmlns:xlink="http://www.w3.org/1999/xlink" stroke-linecap="round" stroke-linejoin="round" fill-rule="evenodd" xml:space="preserve" >
<defs >
<clipPath id="clipId0" >
<path d="M0,768 1024,768 1024,0 0,0 z" />
</clipPath>
</defs>
<g clip-path="url(#clipId0)" fill="none" stroke="rgb(0,0,0)" stroke-width="0.1" />
<g clip-path="url(#clipId0)" fill="none" stroke="rgb(0,0,0)" stroke-width="0.25" >
<polyline points="217.312,406.403 847.182,406.403 " />
<polyline points="217.312,188.836 847.182,188.836 " />
<polyline points="127.972,7.52941 127.972,587.709 " />
</g>
<g clip-path="url(#clipId0)" fill="rgb(0,0,0)" stroke="rgb(0,0,0)" stroke-width="0.25" >
<path d="M515.735,293.993 515.735,301.246 537.492,297.619 537.492,297.619 z" />
</g>
<g clip-path="url(#clipId0)" fill="none" stroke="rgb(0,0,0)" stroke-width="0.25" >
<polyline points="515.735,297.619 378.266,297.619 " />
<polyline points="127.972,85.5276 165.404,48.0964 " />
<polyline points="127.972,59.887 165.404,22.4558 " />
<polyline points="127.972,34.2465 154.689,7.52941 " />
<polyline points="127.972,8.60588 129.049,7.52941 " />
<polyline points="127.972,111.168 165.404,73.737 " />
<polyline points="133.73,131.051 165.404,99.3776 " />
<polyline points="142.339,148.083 165.404,125.018 " />
<polyline points="127.972,509.711 165.404,547.142 " />
<polyline points="127.972,535.352 165.404,572.783 " />
<polyline points="127.972,560.992 154.689,587.709 " />
<polyline points="127.972,586.633 129.049,587.709 " />
<polyline points="127.972,484.071 165.404,521.502 " />
<polyline points="133.73,464.188 165.404,495.861 " />
<polyline points="142.339,447.156 165.404,470.221 " />
<polyline points="426.837,253.914 424.764,254.95 422.692,257.022 421.656,259.094 420.62,262.203 420.62,267.383 421.656,270.491 422.692,272.563 424.764,274.635 426.837,275.671 430.981,275.671 433.053,274.635 435.125,272.563 436.161,270.491 437.197,267.383 437.197,262.203 436.161,259.094 435.125,257.022 433.053,254.95 430.981,253.914 426.837,253.914 " />
<polyline points="429.945,271.527 436.161,277.743 " />
<polyline points="428.773,316.14 420.485,337.896 " />
<polyline points="428.773,316.14 437.061,337.896 " />
<polyline points="423.593,330.644 433.953,330.644 " />
<polyline points="453.363,339.162 451.291,340.198 449.219,342.27 448.183,345.378 448.183,347.45 449.219,350.558 451.291,352.63 453.363,353.666 456.471,353.666 458.543,352.63 460.615,350.558 461.651,347.45 461.651,345.378 460.615,342.27 458.543,340.198 456.471,339.162 453.363,339.162 " />
<polyline points="217.312,188.836 217.312,406.403 " />
<path d="M127.972,99.4964  A89.3393,89.3393 0 0,0 217.312,188.836 " />
<path d="M217.312,406.403  A89.3393,89.3393 0 0,0 127.972,495.743 " />
</g>
<g clip-path="url(#clipId0)" fill="rgb(0,0,0)" stroke="rgb(0,0,0)" stroke-width="0.25" >
<path d="M189.9,433.862 196.678,431.285 185.556,412.238 185.556,412.238 z" />
</g>
<g clip-path="url(#clipId0)" fill="none" stroke="rgb(0,0,0)" stroke-width="0.25" >
<polyline points="193.289,432.574 212.906,484.156 " />
<polyline points="237.127,547.849 258.884,547.849 " />
<polyline points="276.082,544.223 276.082,558.727 " />
<polyline points="276.082,550.439 277.118,547.331 279.19,545.259 281.262,544.223 284.37,544.223 " />
<circle cx="217.312" cy="495.743" r="12.3956" />
<polyline points="221.718,507.329 237.127,547.849 " />
<polyline points="715.921,210.592 715.921,273.687 " />
<polyline points="715.921,384.646 715.921,321.552 " />
</g>
<g clip-path="url(#clipId0)" fill="rgb(0,0,0)" stroke="rgb(0,0,0)" stroke-width="0.25" >
<path d="M712.295,210.592 719.547,210.592 715.921,188.836 715.921,188.836 z" />
<path d="M712.295,384.646 719.547,384.646 715.921,406.403 715.921,406.403 z" />
</g>
<g clip-path="url(#clipId0)" fill="none" stroke="rgb(0,0,0)" stroke-width="0.25" >
<polyline points="708.669,286.741 708.669,308.498 " />
<polyline points="708.669,286.741 715.921,286.741 719.029,287.777 721.101,289.849 722.137,291.921 723.173,295.029 723.173,300.21 722.137,303.318 721.101,305.39 719.029,307.462 715.921,308.498 708.669,308.498 " />
<polyline points="847.182,152.647 847.182,442.592 " stroke-dasharray="90.653139,18.130628,18.130628,18.130628" />
<polyline points="847.182,297.619 847.685,297.632 848.187,297.669 848.687,297.731 849.183,297.817 849.674,297.928 850.159,298.063 850.636,298.222 851.106,298.404 851.566,298.608 852.015,298.836 852.452,299.085 852.877,299.355 853.288,299.646 853.684,299.957 854.064,300.287 854.427,300.636 854.427,300.636 855.15,301.383 855.854,302.149 856.537,302.934 857.199,303.735 857.84,304.554 858.46,305.389 859.057,306.241 859.633,307.107 860.185,307.988 860.714,308.884 861.22,309.793 861.701,310.714 862.159,311.648 862.592,312.594 863,313.55 863,313.55 863.527,314.865 864.029,316.189 864.506,317.522 864.959,318.864 865.388,320.214 865.791,321.572 866.169,322.936 866.522,324.308 866.849,325.686 867.151,327.069 867.427,328.458 867.678,329.852 867.678,329.852 867.977,331.683 868.25,333.518 868.497,335.357 868.718,337.199 868.913,339.044 869.083,340.892 869.226,342.742 869.344,344.594 869.435,346.447 869.5,348.301 869.539,350.156 869.552,352.011 869.552,352.011 869.539,353.867 869.5,355.722 869.435,357.576 869.344,359.429 869.226,361.281 869.083,363.131 868.913,364.978 868.718,366.823 868.497,368.666 868.25,370.504 867.977,372.34 867.678,374.171 867.678,374.171 867.427,375.565 867.151,376.954 866.849,378.337 866.522,379.715 866.169,381.086 865.791,382.451 865.388,383.809 864.959,385.159 864.506,386.5 864.029,387.833 863.527,389.158 863,390.472 863,390.472 862.592,391.429 862.159,392.374 861.701,393.308 861.22,394.23 860.714,395.139 860.185,396.034 859.633,396.916 859.057,397.782 858.46,398.633 857.84,399.469 857.199,400.287 856.537,401.089 855.854,401.873 855.15,402.64 854.427,403.387 854.427,403.387 854.064,403.735 853.684,404.065 853.288,404.376 852.877,404.667 852.452,404.938 852.015,405.187 851.566,405.414 851.106,405.619 850.636,405.801 850.159,405.96 849.674,406.094 849.183,406.205 848.687,406.292 848.187,406.354 847.685,406.391 847.182,406.403 847.182,406.403 846.679,406.391 846.177,406.354 845.677,406.292 845.181,406.205 844.69,406.094 844.205,405.96 843.727,405.801 843.258,405.619 842.798,405.414 842.349,405.187 841.911,404.938 841.487,404.667 841.076,404.376 840.68,404.065 840.3,403.735 839.936,403.387 839.936,403.387 839.213,402.64 838.51,401.873 837.827,401.089 837.165,400.287 836.523,399.469 835.904,398.633 835.306,397.782 834.731,396.916 834.179,396.034 833.649,395.139 833.144,394.23 832.662,393.308 832.205,392.374 831.772,391.429 831.364,390.472 831.364,390.472 830.837,389.158 830.335,387.833 829.857,386.5 829.404,385.159 828.976,383.809 828.573,382.451 828.195,381.086 827.842,379.715 827.514,378.337 827.213,376.954 826.936,375.565 826.685,374.171 826.685,374.171 826.387,372.34 826.114,370.504 825.867,368.666 825.645,366.823 825.45,364.978 825.281,363.131 825.137,361.281 825.02,359.429 824.929,357.576 824.864,355.722 824.824,353.867 824.811,352.011 824.811,352.011 824.824,350.156 824.864,348.301 824.929,346.447 825.02,344.594 825.137,342.742 825.281,340.892 825.45,339.044 825.645,337.199 825.867,335.357 826.114,333.518 826.387,331.683 826.685,329.852 826.685,329.852 826.936,328.458 827.213,327.069 827.514,325.686 827.842,324.308 828.195,322.936 828.573,321.572 828.976,320.214 829.404,318.864 829.857,317.522 830.335,316.189 830.837,314.865 831.364,313.55 831.364,313.55 831.772,312.594 832.205,311.648 832.662,310.714 833.144,309.793 833.649,308.884 834.179,307.988 834.731,307.107 835.306,306.241 835.904,305.389 836.523,304.554 837.165,303.735 837.827,302.934 838.51,302.149 839.213,301.383 839.936,300.636 839.936,300.636 840.3,300.287 840.68,299.957 841.076,299.646 841.487,299.355 841.911,299.085 842.349,298.836 842.798,298.608 843.258,298.404 843.727,298.222 844.205,298.063 844.69,297.928 845.181,297.817 845.677,297.731 846.177,297.669 846.679,297.632 847.182,297.619 " />
<polyline points="847.182,297.619 847.685,297.607 848.187,297.57 848.687,297.508 849.183,297.421 849.674,297.311 850.159,297.176 850.636,297.017 851.106,296.835 851.566,296.63 852.015,296.403 852.452,296.154 852.877,295.884 853.288,295.593 853.684,295.282 854.064,294.952 854.427,294.603 854.427,294.603 855.15,293.856 855.854,293.09 856.537,292.305 857.199,291.504 857.84,290.685 858.46,289.849 859.057,288.998 859.633,288.132 860.185,287.251 860.714,286.355 861.22,285.446 861.701,284.525 862.159,283.591 862.592,282.645 863,281.688 863,281.688 863.527,280.374 864.029,279.05 864.506,277.717 864.959,276.375 865.388,275.025 865.791,273.667 866.169,272.303 866.522,270.931 866.849,269.553 867.151,268.17 867.427,266.781 867.678,265.387 867.678,265.387 867.977,263.556 868.25,261.721 868.497,259.882 868.718,258.04 868.913,256.195 869.083,254.347 869.226,252.497 869.344,250.645 869.435,248.792 869.5,246.938 869.539,245.083 869.552,243.228 869.552,243.228 869.539,241.372 869.5,239.517 869.435,237.663 869.344,235.81 869.226,233.958 869.083,232.108 868.913,230.261 868.718,228.416 868.497,226.573 868.25,224.734 867.977,222.899 867.678,221.068 867.678,221.068 867.427,219.674 867.151,218.285 866.849,216.902 866.522,215.524 866.169,214.152 865.791,212.788 865.388,211.43 864.959,210.08 864.506,208.739 864.029,207.405 863.527,206.081 863,204.767 863,204.767 862.592,203.81 862.159,202.864 861.701,201.93 861.22,201.009 860.714,200.1 860.185,199.205 859.633,198.323 859.057,197.457 858.46,196.606 857.84,195.77 857.199,194.952 856.537,194.15 855.854,193.366 855.15,192.599 854.427,191.852 854.427,191.852 854.064,191.504 853.684,191.173 853.288,190.863 852.877,190.572 852.452,190.301 852.015,190.052 851.566,189.825 851.106,189.62 850.636,189.438 850.159,189.279 849.674,189.144 849.183,189.034 848.687,188.947 848.187,188.885 847.685,188.848 847.182,188.836 " />
<polyline points="798.336,297.619 896.028,297.619 " stroke-dasharray="90.653139,18.130628,18.130628,18.130628" />
<polyline points="695.179,728.561 695.179,760.471 " />
<polyline points="695.179,728.561 714.933,728.561 " />
<polyline points="695.179,743.756 707.335,743.756 " />
<polyline points="695.179,760.471 714.933,760.471 " />
<polyline points="724.05,728.561 724.05,760.471 " />
<polyline points="724.05,728.561 734.687,728.561 739.245,730.08 742.284,733.119 743.804,736.158 745.323,740.717 745.323,748.314 743.804,752.873 742.284,755.912 739.245,758.951 734.687,760.471 724.05,760.471 " />
<polyline points="758.999,734.639 762.038,733.119 766.596,728.561 766.596,760.471 " />
<polyline points="786.35,746.795 813.702,746.795 " />
<polyline points="827.377,728.561 844.092,728.561 834.975,740.717 839.533,740.717 842.572,742.236 844.092,743.756 845.611,748.314 845.611,751.353 844.092,755.912 841.053,758.951 836.494,760.471 831.936,760.471 827.377,758.951 825.858,757.432 824.338,754.393 " />
</g>
</svg>
