<?xml version="1.0" standalone="no"?>
<svg viewBox="0 0 1024 768" version="1.1" xmlns="http://www.w3.org/2000/svg" xmlns:xlink="http://www.w3.org/1999/xlink" stroke-linecap="round" stroke-linejoin="round" fill-rule="evenodd" xml:space="preserve" >
<defs >
<clipPath id="clipId0" >
<path d="M0,768 1024,768 1024,0 0,0 z" />
</clipPath>
</defs>
<g clip-path="url(#clipId0)" fill="none" stroke="rgb(0,0,0)" stroke-width="0.1" />
<g clip-path="url(#clipId0)" fill="none" stroke="rgb(0,0,0)" stroke-width="0.25" >
<polyline points="261.371,401.726 713.003,401.726 " />
<polyline points="261.371,186.71 713.003,186.71 " />
<polyline points="197.008,7.52941 197.008,580.906 " />
<polyline points="197.008,466.09 261.371,401.726 " />
<polyline points="197.008,122.346 261.371,186.71 " />
<polyline points="261.371,401.726 290.573,372.524 " />
<polyline points="261.371,186.71 291.795,217.133 " />
<polyline points="261.371,401.726 261.371,186.71 " />
<path d="M362.927,212.641  A81.7941,81.7941 0 0,0 328.113,223.307 " />
</g>
<g clip-path="url(#clipId0)" fill="rgb(0,0,0)" stroke="rgb(0,0,0)" stroke-width="0.25" >
<path d="M330.292,226.152 325.934,220.462 311.042,236.381 311.042,236.381 z" />
</g>
<g clip-path="url(#clipId0)" fill="none" stroke="rgb(0,0,0)" stroke-width="0.25" >
<path d="M328.113,365.129  A81.7941,81.7941 0 0,0 362.927,375.795 " />
</g>
<g clip-path="url(#clipId0)" fill="rgb(0,0,0)" stroke="rgb(0,0,0)" stroke-width="0.25" >
<path d="M330.292,362.284 325.934,367.974 311.042,352.055 311.042,352.055 z" />
</g>
<g clip-path="url(#clipId0)" fill="none" stroke="rgb(0,0,0)" stroke-width="0.25" >
<polyline points="197.008,589.865 197.008,643.566 " />
<polyline points="261.371,410.685 261.371,643.566 " />
<polyline points="218.509,617.764 304.375,617.764 " />
</g>
<g clip-path="url(#clipId0)" fill="rgb(0,0,0)" stroke="rgb(0,0,0)" stroke-width="0.25" >
<path d="M218.509,621.347 218.509,614.18 197.008,617.764 197.008,617.764 z" />
</g>
<g clip-path="url(#clipId0)" fill="none" stroke="rgb(0,0,0)" stroke-width="0.25" >
<polyline points="329.972,607.013 329.972,628.514 342.258,628.514 " />
</g>
<g clip-path="url(#clipId0)" fill="rgb(0,0,0)" stroke="rgb(0,0,0)" stroke-width="0.25" >
<path d="M239.87,621.347 239.87,614.18 261.371,617.764 261.371,617.764 z" />
</g>
<g clip-path="url(#clipId0)" fill="none" stroke="rgb(0,0,0)" stroke-width="0.25" >
<polyline points="428.814,380.224 428.814,326.47 " />
<polyline points="428.814,208.211 428.814,261.965 " />
</g>
<g clip-path="url(#clipId0)" fill="rgb(0,0,0)" stroke="rgb(0,0,0)" stroke-width="0.25" >
<path d="M432.397,380.224 425.23,380.224 428.814,401.726 428.814,401.726 z" />
<path d="M432.397,208.211 425.23,208.211 428.814,186.71 428.814,186.71 z" />
</g>
<g clip-path="url(#clipId0)" fill="none" stroke="rgb(0,0,0)" stroke-width="0.25" >
<polyline points="425.742,283.467 425.742,304.969 " />
<polyline points="425.742,283.467 432.909,283.467 435.981,284.491 438.029,286.539 439.053,288.586 440.076,291.658 440.076,296.778 439.053,299.849 438.029,301.897 435.981,303.945 432.909,304.969 425.742,304.969 " />
<polyline points="633.262,334.377 631.214,335.401 629.166,337.449 628.142,340.52 628.142,342.568 629.166,345.64 631.214,347.687 633.262,348.711 636.333,348.711 638.381,347.687 640.429,345.64 641.453,342.568 641.453,340.52 640.429,337.449 638.381,335.401 636.333,334.377 633.262,334.377 " />
</g>
<g clip-path="url(#clipId0)" fill="rgb(0,0,0)" stroke="rgb(0,0,0)" stroke-width="0.25" >
<path d="M686.245,290.634 686.245,297.801 707.747,294.218 707.747,294.218 z" />
</g>
<g clip-path="url(#clipId0)" fill="none" stroke="rgb(0,0,0)" stroke-width="0.25" >
<polyline points="686.245,294.218 550.388,294.218 " />
<polyline points="302.102,293.255 323.603,293.255 " />
<polyline points="839.145,294.218 910.817,294.218 " />
<polyline points="874.981,401.726 874.42,401.713 873.859,401.674 873.302,401.61 872.747,401.52 872.198,401.405 871.654,401.265 871.118,401.1 870.589,400.911 870.07,400.697 869.561,400.46 869.063,400.2 868.578,399.917 868.106,399.613 867.649,399.287 867.208,398.94 866.782,398.574 866.782,398.574 866.061,397.906 865.356,397.22 864.67,396.516 864.001,395.795 863.351,395.058 862.72,394.304 862.108,393.534 861.516,392.749 860.944,391.949 860.393,391.135 859.862,390.308 859.353,389.467 858.865,388.613 858.399,387.747 857.955,386.87 857.534,385.982 857.534,385.982 856.998,384.785 856.485,383.579 855.994,382.364 855.526,381.139 855.081,379.906 854.659,378.665 854.26,377.417 853.885,376.161 853.533,374.898 853.205,373.629 852.9,372.354 852.619,371.074 852.363,369.788 852.363,369.788 852.059,368.128 851.78,366.463 851.525,364.794 851.294,363.122 851.087,361.447 850.904,359.768 850.746,358.088 850.612,356.405 850.502,354.721 850.417,353.035 850.356,351.348 850.319,349.66 850.307,347.972 850.307,347.972 850.319,346.284 850.356,344.596 850.417,342.909 850.502,341.223 850.612,339.539 850.746,337.856 850.904,336.175 851.087,334.497 851.294,332.822 851.525,331.15 851.78,329.481 852.059,327.816 852.363,326.155 852.363,326.155 852.619,324.87 852.9,323.59 853.205,322.315 853.533,321.046 853.885,319.783 854.26,318.527 854.659,317.278 855.081,316.037 855.526,314.804 855.994,313.58 856.485,312.364 856.998,311.158 857.534,309.962 857.534,309.962 857.955,309.074 858.399,308.196 858.865,307.331 859.353,306.477 859.862,305.636 860.393,304.808 860.944,303.994 861.516,303.195 862.108,302.41 862.72,301.64 863.351,300.886 864.001,300.149 864.67,299.428 865.356,298.724 866.061,298.038 866.782,297.37 866.782,297.37 867.208,297.004 867.649,296.657 868.106,296.331 868.578,296.026 869.063,295.744 869.561,295.484 870.07,295.246 870.589,295.033 871.118,294.844 871.654,294.679 872.198,294.538 872.747,294.423 873.302,294.334 873.859,294.269 874.42,294.231 874.981,294.218 874.981,294.218 875.542,294.231 876.102,294.269 876.66,294.334 877.214,294.423 877.764,294.538 878.308,294.679 878.844,294.844 879.373,295.033 879.892,295.246 880.401,295.484 880.899,295.744 881.384,296.026 881.855,296.331 882.312,296.657 882.754,297.004 883.18,297.37 883.18,297.37 883.901,298.038 884.605,298.724 885.292,299.428 885.961,300.149 886.611,300.886 887.242,301.64 887.853,302.41 888.445,303.195 889.017,303.994 889.569,304.808 890.099,305.636 890.609,306.477 891.097,307.331 891.563,308.196 892.006,309.074 892.428,309.962 892.428,309.962 892.964,311.158 893.477,312.364 893.968,313.58 894.436,314.804 894.881,316.037 895.303,317.278 895.701,318.527 896.077,319.783 896.429,321.046 896.757,322.315 897.062,323.59 897.342,324.87 897.599,326.155 897.599,326.155 897.902,327.816 898.182,329.481 898.437,331.15 898.668,332.822 898.875,334.497 899.057,336.175 899.216,337.856 899.35,339.539 899.46,341.223 899.545,342.909 899.606,344.596 899.643,346.284 899.655,347.972 899.655,347.972 899.643,349.66 899.606,351.348 899.545,353.035 899.46,354.721 899.35,356.405 899.216,358.088 899.057,359.768 898.875,361.447 898.668,363.122 898.437,364.794 898.182,366.463 897.902,368.128 897.599,369.788 897.599,369.788 897.342,371.074 897.062,372.354 896.757,373.629 896.429,374.898 896.077,376.161 895.701,377.417 895.303,378.665 894.881,379.906 894.436,381.139 893.968,382.364 893.477,383.579 892.964,384.785 892.428,385.982 892.428,385.982 892.006,386.87 891.563,387.747 891.097,388.613 890.609,389.467 890.099,390.308 889.569,391.135 889.017,391.949 888.445,392.749 887.853,393.534 887.242,394.304 886.611,395.058 885.961,395.795 885.292,396.516 884.605,397.22 883.901,397.906 883.18,398.574 883.18,398.574 882.754,398.94 882.312,399.287 881.855,399.613 881.384,399.917 880.899,400.2 880.401,400.46 879.892,400.697 879.373,400.911 878.844,401.1 878.308,401.265 877.764,401.405 877.214,401.52 876.66,401.61 876.102,401.674 875.542,401.713 874.981,401.726 " />
<polyline points="874.981,294.218 875.542,294.205 876.102,294.166 876.66,294.102 877.214,294.012 877.764,293.897 878.308,293.757 878.844,293.592 879.373,293.403 879.892,293.189 880.401,292.952 880.899,292.692 881.384,292.409 881.855,292.104 882.312,291.779 882.754,291.432 883.18,291.065 883.18,291.065 883.901,290.398 884.605,289.712 885.292,289.008 885.961,288.287 886.611,287.549 887.242,286.796 887.853,286.026 888.445,285.241 889.017,284.441 889.569,283.627 890.099,282.799 890.609,281.958 891.097,281.105 891.563,280.239 892.006,279.362 892.428,278.474 892.428,278.474 892.964,277.277 893.477,276.071 893.968,274.856 894.436,273.631 894.881,272.398 895.303,271.157 895.701,269.909 896.077,268.653 896.429,267.39 896.757,266.121 897.062,264.846 897.342,263.566 897.599,262.28 897.599,262.28 897.902,260.62 898.182,258.955 898.437,257.286 898.668,255.614 898.875,253.938 899.057,252.26 899.216,250.58 899.35,248.897 899.46,247.212 899.545,245.526 899.606,243.839 899.643,242.152 899.655,240.464 899.655,240.464 899.643,238.776 899.606,237.088 899.545,235.401 899.46,233.715 899.35,232.031 899.216,230.348 899.057,228.667 898.875,226.989 898.668,225.314 898.437,223.641 898.182,221.973 897.902,220.308 897.599,218.647 897.599,218.647 897.342,217.362 897.062,216.081 896.757,214.807 896.429,213.538 896.077,212.275 895.701,211.019 895.303,209.77 894.881,208.529 894.436,207.296 893.968,206.072 893.477,204.856 892.964,203.65 892.428,202.454 892.428,202.454 892.006,201.566 891.563,200.688 891.097,199.823 890.609,198.969 890.099,198.128 889.569,197.3 889.017,196.486 888.445,195.687 887.853,194.902 887.242,194.132 886.611,193.378 885.961,192.64 885.292,191.92 884.605,191.216 883.901,190.53 883.18,189.862 883.18,189.862 882.754,189.495 882.312,189.149 881.855,188.823 881.384,188.518 880.899,188.236 880.401,187.975 879.892,187.738 879.373,187.525 878.844,187.335 878.308,187.17 877.764,187.03 877.214,186.915 876.66,186.825 876.102,186.761 875.542,186.723 874.981,186.71 " />
<polyline points="874.981,146.439 874.981,441.997 " stroke-dasharray="179.180236,35.836047,35.836047,35.836047" />
<polyline points="197.008,84.613 234,47.6207 " />
<polyline points="197.008,59.2731 234,22.2808 " />
<polyline points="197.008,33.9332 223.411,7.52941 " />
<polyline points="197.008,8.59326 198.071,7.52941 " />
<polyline points="197.008,109.953 234,72.9606 " />
<polyline points="203.481,128.819 234,98.3005 " />
<polyline points="216.151,141.489 234,123.64 " />
<polyline points="228.821,154.159 234,148.98 " />
<polyline points="197.008,503.823 234,540.815 " />
<polyline points="197.008,529.162 234,566.155 " />
<polyline points="197.008,554.502 223.411,580.906 " />
<polyline points="197.008,579.842 198.071,580.906 " />
<polyline points="197.008,478.483 234,515.475 " />
<polyline points="203.481,459.616 234,490.135 " />
<polyline points="216.151,446.946 234,464.795 " />
<polyline points="228.821,434.276 234,439.455 " />
<polyline points="609.697,247.68 607.649,248.704 605.601,250.752 604.577,252.799 603.553,255.871 603.553,260.991 604.577,264.062 605.601,266.11 607.649,268.158 609.697,269.182 613.792,269.182 615.84,268.158 617.888,266.11 618.912,264.062 619.936,260.991 619.936,255.871 618.912,252.799 617.888,250.752 615.84,248.704 613.792,247.68 609.697,247.68 " />
<polyline points="612.768,265.086 618.912,271.229 " />
<circle cx="312.853" cy="293.255" r="10.7508" />
<polyline points="612.054,316.844 603.863,338.346 " />
<polyline points="612.054,316.844 620.245,338.346 " />
<polyline points="606.935,331.179 617.174,331.179 " />
<polyline points="337.539,262.878 368.879,294.218 " />
<polyline points="300.794,226.132 330.04,255.379 " />
<polyline points="342.692,320.405 368.879,294.218 " />
<polyline points="300.697,362.4 335.193,327.904 " />
<polyline points="713.003,186.71 874.674,186.71 " />
<polyline points="713.003,401.726 874.674,401.726 " />
<polyline points="725.906,728.935 725.906,760.471 " />
<polyline points="725.906,728.935 745.428,728.935 " />
<polyline points="725.906,743.952 737.919,743.952 " />
<polyline points="725.906,760.471 745.428,760.471 " />
<polyline points="754.438,728.935 754.438,760.471 " />
<polyline points="754.438,728.935 764.95,728.935 769.455,730.437 772.458,733.44 773.96,736.443 775.462,740.948 775.462,748.457 773.96,752.962 772.458,755.965 769.455,758.969 764.95,760.471 754.438,760.471 " />
<polyline points="788.977,734.942 791.98,733.44 796.486,728.935 796.486,760.471 " />
<polyline points="816.008,746.955 843.038,746.955 " />
<polyline points="871.571,728.935 856.554,728.935 855.052,742.45 856.554,740.948 861.059,739.447 865.564,739.447 870.069,740.948 873.072,743.952 874.574,748.457 874.574,751.46 873.072,755.965 870.069,758.969 865.564,760.471 861.059,760.471 856.554,758.969 855.052,757.467 853.55,754.464 " />
<polyline points="188.049,466.09 113.183,466.09 " />
<polyline points="188.049,122.346 113.183,122.346 " />
<polyline points="138.985,444.588 138.985,317.87 " />
<polyline points="138.985,143.848 138.985,270.566 " />
</g>
<g clip-path="url(#clipId0)" fill="rgb(0,0,0)" stroke="rgb(0,0,0)" stroke-width="0.25" >
<path d="M135.401,444.588 142.569,444.588 138.985,466.09 138.985,466.09 z" />
<path d="M135.401,143.848 142.569,143.848 138.985,122.346 138.985,122.346 z" />
</g>
<g clip-path="url(#clipId0)" fill="none" stroke="rgb(0,0,0)" stroke-width="0.25" >
<polyline points="451.395,303.759 449.347,304.783 447.299,306.83 446.275,309.902 446.275,311.95 447.299,315.022 449.347,317.069 451.395,318.093 454.466,318.093 456.514,317.069 458.562,315.022 459.586,311.95 459.586,309.902 458.562,306.83 456.514,304.783 454.466,303.759 451.395,303.759 " />
<polyline points="159.518,301.022 161.566,299.998 164.638,296.926 164.638,318.428 " />
<polyline points="135.913,283.802 135.913,305.303 " />
<polyline points="135.913,283.802 143.081,283.802 146.152,284.826 148.2,286.873 149.224,288.921 150.248,291.993 150.248,297.112 149.224,300.184 148.2,302.232 146.152,304.28 143.081,305.303 135.913,305.303 " />
</g>
</svg>
