<?xml version="1.0" standalone="no"?>
<svg viewBox="0 0 1024 768" version="1.1" xmlns="http://www.w3.org/2000/svg" xmlns:xlink="http://www.w3.org/1999/xlink" stroke-linecap="round" stroke-linejoin="round" fill-rule="evenodd" xml:space="preserve" >
<defs >
<clipPath id="clipId0" >
<path d="M0,768 1024,768 1024,0 0,0 z" />
</clipPath>
</defs>
<g clip-path="url(#clipId0)" fill="none" stroke="rgb(0,0,0)" stroke-width="0.1" />
<g clip-path="url(#clipId0)" fill="none" stroke="rgb(0,0,0)" stroke-width="0.35" >
<polyline points="346.997,248.841 71.4951,248.841 " />
<polyline points="346.997,406.926 71.4951,406.926 " />
<polyline points="346.997,406.926 346.997,248.841 " />
<polyline points="71.4951,219.233 71.4951,436.534 " stroke-dasharray="131.737980,26.347596,26.347596,26.347596" />
<polyline points="269.457,341.509 267.199,342.638 264.941,344.897 263.811,348.284 263.811,350.543 264.941,353.93 267.199,356.189 269.457,357.318 272.845,357.318 275.103,356.189 277.362,353.93 278.491,350.543 278.491,348.284 277.362,344.897 275.103,342.638 272.845,341.509 269.457,341.509 " />
<polyline points="158.695,327.883 10.0392,327.883 " />
<polyline points="641.989,485.969 932.648,485.969 " />
<polyline points="641.989,169.798 932.648,169.798 " />
<polyline points="346.997,248.841 641.989,169.798 " />
<polyline points="346.997,406.926 641.989,485.969 " />
<polyline points="641.989,485.969 641.989,169.798 " />
</g>
<g clip-path="url(#clipId0)" fill="rgb(0,0,0)" stroke="rgb(0,0,0)" stroke-width="0.35" >
<path d="M990.248,323.931 990.248,331.836 1013.96,327.883 1013.96,327.883 z" />
</g>
<g clip-path="url(#clipId0)" fill="none" stroke="rgb(0,0,0)" stroke-width="0.35" >
<path d="M497.127,430.79  A456.862,456.862 0 0,0 507.929,357.146 " />
<path d="M507.971,299.284  A456.862,456.862 0 0,0 497.127,224.977 " />
<polyline points="104.709,287.32 102.451,288.449 100.193,290.707 99.0635,292.965 97.9343,296.353 97.9343,301.999 99.0635,305.386 100.193,307.645 102.451,309.903 104.709,311.032 109.226,311.032 111.485,309.903 113.743,307.645 114.872,305.386 116.001,301.999 116.001,296.353 114.872,292.965 113.743,290.707 111.485,288.449 109.226,287.32 104.709,287.32 " />
<polyline points="108.097,306.516 114.872,313.291 " />
<circle cx="508.558" cy="326.753" r="11.8564" />
<polyline points="496.701,326.753 520.414,326.753 " />
<polyline points="240.433,318.265 240.433,341.978 " />
<polyline points="240.433,318.265 248.337,318.265 251.725,319.394 253.983,321.653 255.112,323.911 256.241,327.299 256.241,332.945 255.112,336.332 253.983,338.591 251.725,340.849 248.337,341.978 240.433,341.978 " />
<polyline points="721.519,314.107 721.519,337.819 " />
<polyline points="721.519,314.107 729.423,314.107 732.811,315.236 735.069,317.494 736.198,319.752 737.327,323.14 737.327,328.786 736.198,332.173 735.069,334.432 732.811,336.69 729.423,337.819 721.519,337.819 " />
<polyline points="744.392,337.384 746.651,336.254 750.038,332.867 750.038,356.58 " />
<polyline points="89.2091,571.837 77.1644,603.454 " />
<polyline points="89.2091,571.837 101.254,603.454 " />
<polyline points="81.6812,592.915 96.7369,592.915 " />
<polyline points="164.488,565.815 137.388,613.993 " />
<polyline points="181.049,571.837 169.005,603.454 " />
<polyline points="181.049,571.837 193.094,603.454 " />
<polyline points="173.521,592.915 188.577,592.915 " />
<polyline points="287.945,576.354 263.856,589.904 287.945,603.454 " />
<polyline points="337.629,582.376 334.618,583.882 331.607,586.893 330.101,591.409 330.101,594.421 331.607,598.937 334.618,601.948 337.629,603.454 342.146,603.454 345.157,601.948 348.168,598.937 349.674,594.421 349.674,591.409 348.168,586.893 345.157,583.882 342.146,582.376 337.629,582.376 " />
<polyline points="360.213,582.376 360.213,603.454 " />
<polyline points="360.213,591.409 361.718,586.893 364.73,583.882 367.741,582.376 372.258,582.376 " />
<polyline points="411.403,576.354 435.492,589.904 411.403,603.454 " />
<polyline points="482.165,577.859 485.176,576.354 489.693,571.837 489.693,603.454 " />
<polyline points="202.028,598.743 203.835,597.84 206.545,595.13 206.545,614.1 " />
<polyline points="116.224,595.13 113.514,596.033 111.708,598.743 110.804,603.26 110.804,605.97 111.708,610.487 113.514,613.197 116.224,614.1 118.031,614.1 120.741,613.197 122.548,610.487 123.451,605.97 123.451,603.26 122.548,598.743 120.741,596.033 118.031,595.13 116.224,595.13 " />
<polyline points="797.621,344.347 797.621,360.155 " />
<polyline points="792.351,344.347 802.89,344.347 " />
<polyline points="810.418,344.347 808.913,345.1 807.407,346.605 806.654,348.111 805.901,350.369 805.901,354.133 806.654,356.391 807.407,357.897 808.913,359.403 810.418,360.155 813.429,360.155 814.935,359.403 816.44,357.897 817.193,356.391 817.946,354.133 817.946,350.369 817.193,348.111 816.44,346.605 814.935,345.1 813.429,344.347 810.418,344.347 " />
<polyline points="839.024,344.347 839.024,360.155 " />
<polyline points="839.024,344.347 848.81,344.347 " />
<polyline points="839.024,351.875 845.046,351.875 " />
<polyline points="856.338,344.347 850.316,360.155 " />
<polyline points="856.338,344.347 862.361,360.155 " />
<polyline points="852.574,354.886 860.102,354.886 " />
<polyline points="866.125,344.347 866.125,360.155 " />
<polyline points="866.125,344.347 876.664,360.155 " />
<polyline points="876.664,344.347 876.664,360.155 " />
<polyline points="761.854,656.789 761.854,703.161 " />
<polyline points="761.854,656.789 790.561,656.789 " />
<polyline points="761.854,678.871 779.52,678.871 " />
<polyline points="761.854,703.161 790.561,703.161 " />
<polyline points="803.81,656.789 803.81,703.161 " />
<polyline points="803.81,656.789 819.267,656.789 825.892,658.997 830.308,663.414 832.516,667.83 834.724,674.454 834.724,685.495 832.516,692.12 830.308,696.536 825.892,700.953 819.267,703.161 803.81,703.161 " />
<polyline points="870.055,656.789 847.973,687.703 881.096,687.703 " />
<polyline points="870.055,656.789 870.055,703.161 " />
<polyline points="894.345,683.287 934.092,683.287 " />
<polyline points="956.174,665.622 960.59,663.414 967.215,656.789 967.215,703.161 " />
</g>
<g clip-path="url(#clipId0)" fill="rgb(0,0,0)" stroke="rgb(0,0,0)" stroke-width="0.35" >
<path d="M724.436,193.576 732.341,193.576 728.388,169.863 728.388,169.863 z" />
<path d="M494.494,233.649 502.216,231.964 493.3,209.639 493.3,209.639 z" />
</g>
<g clip-path="url(#clipId0)" fill="none" stroke="rgb(0,0,0)" stroke-width="0.35" >
<polyline points="728.388,169.863 728.388,299.204 " />
<polyline points="728.388,353.918 728.388,485.969 " />
</g>
<g clip-path="url(#clipId0)" fill="rgb(0,0,0)" stroke="rgb(0,0,0)" stroke-width="0.35" >
<path d="M502.359,423.86 494.647,422.126 493.3,446.128 493.3,446.128 z" />
<path d="M134.982,323.931 134.982,331.836 158.695,327.883 158.695,327.883 z" />
<path d="M243.807,272.637 251.711,272.637 247.759,248.924 247.759,248.924 z" />
<path d="M251.711,383.136 243.807,383.136 247.759,406.848 247.759,406.848 z" />
</g>
<g clip-path="url(#clipId0)" fill="none" stroke="rgb(0,0,0)" stroke-width="0.35" >
<polyline points="247.759,406.848 247.759,357.585 " />
<polyline points="247.759,304.924 247.759,248.924 " />
</g>
<g clip-path="url(#clipId0)" fill="rgb(0,0,0)" stroke="rgb(0,0,0)" stroke-width="0.35" >
<path d="M732.341,462.256 724.436,462.256 728.388,485.969 728.388,485.969 z" />
</g>
<g clip-path="url(#clipId0)" fill="none" stroke="rgb(0,0,0)" stroke-width="0.35" >
<polyline points="497.127,224.977 493.3,209.639 " />
<polyline points="641.989,169.798 641.989,109.855 " />
<polyline points="346.997,248.841 346.997,190.245 " />
<polyline points="343.583,146.773 340.196,147.902 337.937,151.29 336.808,156.935 336.808,160.323 337.937,165.969 340.196,169.356 343.583,170.486 345.842,170.486 349.229,169.356 351.488,165.969 352.617,160.323 352.617,156.935 351.488,151.29 349.229,147.902 345.842,146.773 343.583,146.773 " />
<polyline points="636.069,69.356 638.327,68.2268 641.714,64.8393 641.714,88.5521 " />
<polyline points="932.648,169.798 932.648,485.969 " />
<path d="M932.648,327.883  A79.0428,38.2058 90 0,0 932.648,169.798 " />
<ellipse rx="79.0428" ry="46.8054" transform="translate(932.648 406.926) rotate(90)" />
<polyline points="1013.96,327.883 793.14,330.546 " />
<path d="M71.4951,248.841  A39.5214,23.1143 90 0,0 71.4951,327.883 " />
<ellipse rx="40.0463" ry="25.031" transform="translate(71.678 366.88) rotate(-89.7383)" />
</g>
</svg>
