<?xml version="1.0" standalone="no"?>
<svg viewBox="0 0 1024 768" version="1.1" xmlns="http://www.w3.org/2000/svg" xmlns:xlink="http://www.w3.org/1999/xlink" stroke-linecap="round" stroke-linejoin="round" fill-rule="evenodd" xml:space="preserve" >
<defs >
<clipPath id="clipId0" >
<path d="M0,768 1024,768 1024,0 0,0 z" />
</clipPath>
</defs>
<g clip-path="url(#clipId0)" fill="none" stroke="rgb(0,0,0)" stroke-width="0.1" />
<g clip-path="url(#clipId0)" fill="none" stroke="rgb(0,0,0)" stroke-width="0.25" >
<polyline points="538.58,51.4592 635.28,284.915 " />
<polyline points="265.069,324.97 498.525,421.67 " />
<polyline points="770.89,51.4592 734.413,51.4592 " />
<polyline points="770.89,284.915 734.413,284.915 " />
<polyline points="498.525,557.28 498.525,520.802 " />
<polyline points="265.069,557.28 265.069,520.802 " />
<polyline points="538.58,51.4592 479.643,110.396 " />
<polyline points="635.28,284.915 498.525,421.67 " />
<polyline points="479.643,110.396 287.529,110.396 " />
<polyline points="324.006,266.033 246.187,266.033 " />
<path d="M731.981,168.187  A350.184,350.184 0 0,0 381.797,518.371 " stroke-dasharray="719.868006,143.973601,143.973601,143.973601" />
<polyline points="770.89,51.4592 770.89,284.915 " />
<polyline points="265.069,557.28 498.525,557.28 " />
<polyline points="246.187,266.033 246.187,110.396 " />
<polyline points="578.048,188.214 232.68,188.214 " stroke-dasharray="719.868006,143.973601,143.973601,143.973601" />
<polyline points="478.325,168.187 782.712,168.187 " stroke-dasharray="719.868006,143.973601,143.973601,143.973601" />
<polyline points="381.797,518.371 381.797,569.859 " stroke-dasharray="719.868006,143.973601,143.973601,143.973601" />
<polyline points="729.549,51.4592 729.549,284.915 " />
<polyline points="734.413,51.4592 734.413,284.915 " />
<path d="M734.413,51.4592  A2.53316,2.53316 0 0,0 729.549,51.4592 " />
<polyline points="729.549,51.4592 538.58,51.4592 " />
<path d="M729.549,284.915  A2.53316,2.53316 0 0,0 734.413,284.915 " />
<polyline points="729.549,284.915 635.28,284.915 " />
<polyline points="287.529,266.033 287.529,110.396 " />
<polyline points="282.665,266.033 282.665,110.396 " />
<path d="M287.529,110.396  A2.53316,2.53316 0 0,0 282.665,110.396 " />
<polyline points="282.665,110.396 246.187,110.396 " />
<path d="M282.665,266.033  A2.53316,2.53316 0 0,0 287.529,266.033 " />
<polyline points="265.069,515.939 498.525,515.939 " />
<polyline points="265.069,520.802 498.525,520.802 " />
<path d="M265.069,515.939  A2.53316,2.53316 0 0,0 265.069,520.802 " />
<polyline points="265.069,515.939 265.069,324.97 " />
<path d="M498.525,520.802  A2.53316,2.53316 0 0,0 498.525,515.939 " />
<polyline points="498.525,515.939 498.525,421.67 " />
</g>
<g clip-path="url(#clipId0)" fill="rgb(0,0,0)" stroke="rgb(0,0,0)" stroke-width="0.25" >
<path d="M377.128,665.474 386.466,665.474 381.797,637.46 381.797,637.46 z" />
</g>
<g clip-path="url(#clipId0)" fill="none" stroke="rgb(0,0,0)" stroke-width="0.25" >
<polyline points="381.797,665.474 381.797,751.573 " />
<polyline points="200.639,110.396 200.639,81.2138 " />
<polyline points="200.639,81.2138 189.959,81.2138 " />
<polyline points="539.764,600.971 539.764,620.426 " />
<polyline points="539.764,600.971 546.249,600.971 549.028,601.898 550.881,603.75 551.808,605.603 552.734,608.382 552.734,613.015 551.808,615.794 550.881,617.647 549.028,619.499 546.249,620.426 539.764,620.426 " />
<polyline points="566.272,617.903 565.578,616.513 563.493,615.818 561.409,615.818 559.324,616.513 558.63,617.903 559.324,619.292 560.714,619.987 564.188,620.682 565.578,621.377 566.272,622.766 566.272,623.461 565.578,624.851 563.493,625.546 561.409,625.546 559.324,624.851 558.63,623.461 " />
<polyline points="498.525,608.983 527.707,608.983 " />
<polyline points="144.587,65.4329 144.587,84.8876 " />
<polyline points="144.587,65.4329 151.072,65.4329 153.851,66.3593 155.704,68.2122 156.631,70.065 157.557,72.8442 157.557,77.4763 156.631,80.2555 155.704,82.1083 153.851,83.9612 151.072,84.8876 144.587,84.8876 " />
<polyline points="164.766,77.7261 164.766,92.3171 " />
<polyline points="164.766,84.6742 166.156,83.2845 167.545,82.5897 169.63,82.5897 171.019,83.2845 172.409,84.6742 173.104,86.7586 173.104,88.1482 172.409,90.2326 171.019,91.6222 169.63,92.3171 167.545,92.3171 166.156,91.6222 164.766,90.2326 " />
<polyline points="814.753,51.4592 814.753,22.2772 " />
<polyline points="814.753,22.2772 828.103,22.2772 " />
<polyline points="836.382,7.52941 836.382,26.9841 " />
<polyline points="836.382,7.52941 842.867,7.52941 845.646,8.45582 847.499,10.3086 848.426,12.1615 849.352,14.9407 849.352,19.5728 848.426,22.352 847.499,24.2048 845.646,26.0576 842.867,26.9841 836.382,26.9841 " />
<polyline points="862.472,24.4926 861.083,23.103 859.693,22.4082 857.609,22.4082 856.219,23.103 854.829,24.4926 854.135,26.577 854.135,27.9666 854.829,30.051 856.219,31.4407 857.609,32.1355 859.693,32.1355 861.083,31.4407 862.472,30.051 " />
</g>
<g clip-path="url(#clipId0)" fill="rgb(0,0,0)" stroke="rgb(0,0,0)" stroke-width="0.25" >
<path d="M500.871,293.864 507.475,287.261 484.364,270.753 484.364,270.753 z" />
</g>
<g clip-path="url(#clipId0)" fill="none" stroke="rgb(0,0,0)" stroke-width="0.25" >
<polyline points="504.173,290.563 631.248,417.638 " />
<polyline points="640.702,424.312 640.702,437.282 " />
<polyline points="640.702,429.871 641.628,427.091 643.481,425.239 645.334,424.312 648.113,424.312 " />
<polyline points="654.826,441.216 731.981,518.371 " />
<polyline points="385.257,19.3075 385.257,18.3811 386.183,16.5283 387.11,15.6018 388.962,14.6754 392.668,14.6754 394.521,15.6018 395.447,16.5283 396.374,18.3811 396.374,20.2339 395.447,22.0867 393.594,24.866 384.33,34.1301 397.3,34.1301 " />
<polyline points="405.638,11.8962 404.711,12.8226 403.785,11.8962 404.711,10.9698 405.638,11.8962 405.638,13.749 404.711,15.6018 403.785,16.5283 " />
<polyline points="411.196,11.8962 410.27,12.8226 409.343,11.8962 410.27,10.9698 411.196,11.8962 411.196,13.749 410.27,15.6018 409.343,16.5283 " />
<polyline points="423.24,10.9698 421.387,12.8226 419.534,15.6018 417.681,19.3075 416.755,23.9395 416.755,27.6452 417.681,32.2773 419.534,35.9829 421.387,38.7621 423.24,40.615 " />
<polyline points="439.915,14.6754 430.651,14.6754 429.725,23.0131 430.651,22.0867 433.43,21.1603 436.209,21.1603 438.989,22.0867 440.841,23.9395 441.768,26.7188 441.768,28.5716 440.841,31.3508 438.989,33.2037 436.209,34.1301 433.43,34.1301 430.651,33.2037 429.725,32.2773 428.798,30.4244 " />
<polyline points="452.885,14.6754 450.106,15.6018 448.253,18.3811 447.326,23.0131 447.326,25.7924 448.253,30.4244 450.106,33.2037 452.885,34.1301 454.738,34.1301 457.517,33.2037 459.37,30.4244 460.296,25.7924 460.296,23.0131 459.37,18.3811 457.517,15.6018 454.738,14.6754 452.885,14.6754 " />
<polyline points="466.781,21.1603 466.781,34.1301 " />
<polyline points="466.781,24.866 469.56,22.0867 471.413,21.1603 474.192,21.1603 476.045,22.0867 476.971,24.866 476.971,34.1301 " />
<polyline points="476.971,24.866 479.751,22.0867 481.604,21.1603 484.383,21.1603 486.236,22.0867 487.162,24.866 487.162,34.1301 " />
<polyline points="494.573,21.1603 494.573,34.1301 " />
<polyline points="494.573,24.866 497.353,22.0867 499.205,21.1603 501.985,21.1603 503.837,22.0867 504.764,24.866 504.764,34.1301 " />
<polyline points="504.764,24.866 507.543,22.0867 509.396,21.1603 512.175,21.1603 514.028,22.0867 514.954,24.866 514.954,34.1301 " />
<polyline points="521.439,10.9698 523.292,12.8226 525.145,15.6018 526.998,19.3075 527.924,23.9395 527.924,27.6452 526.998,32.2773 525.145,35.9829 523.292,38.7621 521.439,40.615 " />
<polyline points="501.584,112.158 512.614,112.158 " />
<polyline points="530.129,106.024 519.938,118.994 " />
<polyline points="519.938,106.024 530.129,106.024 " />
<polyline points="519.938,118.994 530.129,118.994 " />
<polyline points="47.848,736.028 37.6575,748.997 " />
<polyline points="37.6575,736.028 47.848,736.028 " />
<polyline points="37.6575,748.997 47.848,748.997 " />
<polyline points="54.3329,737.88 71.0083,737.88 " />
<polyline points="54.3329,743.439 71.0083,743.439 " />
<polyline points="83.0516,729.543 80.2724,730.469 78.4196,733.248 77.4932,737.88 77.4932,740.66 78.4196,745.292 80.2724,748.071 83.0516,748.997 84.9044,748.997 87.6837,748.071 89.5365,745.292 90.4629,740.66 90.4629,737.88 89.5365,733.248 87.6837,730.469 84.9044,729.543 83.0516,729.543 " />
<polyline points="97.8742,747.145 96.9478,748.071 97.8742,748.997 98.8006,748.071 97.8742,747.145 " />
<polyline points="110.844,729.543 108.065,730.469 106.212,733.248 105.285,737.88 105.285,740.66 106.212,745.292 108.065,748.071 110.844,748.997 112.697,748.997 115.476,748.071 117.329,745.292 118.255,740.66 118.255,737.88 117.329,733.248 115.476,730.469 112.697,729.543 110.844,729.543 " />
<polyline points="128.446,729.543 125.667,730.469 124.74,732.322 124.74,734.175 125.667,736.028 127.519,736.954 131.225,737.88 134.004,738.807 135.857,740.66 136.783,742.512 136.783,745.292 135.857,747.145 134.931,748.071 132.151,748.997 128.446,748.997 125.667,748.071 124.74,747.145 123.814,745.292 123.814,742.512 124.74,740.66 126.593,738.807 129.372,737.88 133.078,736.954 134.931,736.028 135.857,734.175 135.857,732.322 134.931,730.469 132.151,729.543 128.446,729.543 " />
<polyline points="154.385,732.322 153.459,730.469 150.68,729.543 148.827,729.543 146.048,730.469 144.195,733.248 143.268,737.88 143.268,742.512 144.195,746.218 146.048,748.071 148.827,748.997 149.753,748.997 152.532,748.071 154.385,746.218 155.312,743.439 155.312,742.512 154.385,739.733 152.532,737.88 149.753,736.954 148.827,736.954 146.048,737.88 144.195,739.733 143.268,742.512 " />
<polyline points="161.797,729.543 161.797,748.997 " />
<polyline points="161.797,729.543 168.281,729.543 171.061,730.469 172.914,732.322 173.84,734.175 174.766,736.954 174.766,741.586 173.84,744.365 172.914,746.218 171.061,748.071 168.281,748.997 161.797,748.997 " />
<polyline points="187.901,752.828 186.512,751.438 185.122,750.743 183.037,750.743 181.648,751.438 180.258,752.828 179.563,754.912 179.563,756.302 180.258,758.386 181.648,759.776 183.037,760.471 185.122,760.471 186.512,759.776 187.901,758.386 " />
<polyline points="786.454,51.4592 822.534,51.4592 " />
<polyline points="786.454,284.915 822.534,284.915 " />
<polyline points="814.753,79.4739 814.753,256.9 " />
</g>
<g clip-path="url(#clipId0)" fill="rgb(0,0,0)" stroke="rgb(0,0,0)" stroke-width="0.25" >
<path d="M819.422,79.4739 810.083,79.4739 814.753,51.4592 814.753,51.4592 z" />
<path d="M819.422,256.9 810.083,256.9 814.753,284.915 814.753,284.915 z" />
</g>
<g clip-path="url(#clipId0)" fill="none" stroke="rgb(0,0,0)" stroke-width="0.25" >
<polyline points="265.069,572.844 265.069,616.765 " />
<polyline points="498.525,572.844 498.525,616.765 " />
<polyline points="293.084,608.983 470.51,608.983 " />
</g>
<g clip-path="url(#clipId0)" fill="rgb(0,0,0)" stroke="rgb(0,0,0)" stroke-width="0.25" >
<path d="M293.084,613.652 293.084,604.314 265.069,608.983 265.069,608.983 z" />
<path d="M470.51,613.652 470.51,604.314 498.525,608.983 498.525,608.983 z" />
</g>
<g clip-path="url(#clipId0)" fill="none" stroke="rgb(0,0,0)" stroke-width="0.25" >
<polyline points="514.551,188.214 509.366,188.214 " />
<polyline points="514.551,168.187 509.366,168.187 " />
<polyline points="501.584,140.172 501.584,112.158 " />
<polyline points="501.584,216.229 501.584,244.244 " />
</g>
<g clip-path="url(#clipId0)" fill="rgb(0,0,0)" stroke="rgb(0,0,0)" stroke-width="0.25" >
<path d="M506.254,140.172 496.915,140.172 501.584,168.187 501.584,168.187 z" />
<path d="M506.254,216.229 496.915,216.229 501.584,188.214 501.584,188.214 z" />
</g>
<g clip-path="url(#clipId0)" fill="none" stroke="rgb(0,0,0)" stroke-width="0.25" >
<polyline points="324.006,250.469 324.006,21.614 " />
<polyline points="285.097,93.0082 285.097,21.614 " />
<polyline points="257.082,29.3958 229.067,29.3958 " />
<polyline points="352.021,29.3958 380.035,29.3958 " />
</g>
<g clip-path="url(#clipId0)" fill="rgb(0,0,0)" stroke="rgb(0,0,0)" stroke-width="0.25" >
<path d="M257.082,34.0649 257.082,24.7267 285.097,29.3958 285.097,29.3958 z" />
<path d="M352.021,34.0649 352.021,24.7267 324.006,29.3958 324.006,29.3958 z" />
</g>
<g clip-path="url(#clipId0)" fill="none" stroke="rgb(0,0,0)" stroke-width="0.25" >
<polyline points="230.624,110.396 192.858,110.396 " />
<polyline points="230.624,266.033 192.858,266.033 " />
<polyline points="200.639,138.41 200.639,238.018 " />
</g>
<g clip-path="url(#clipId0)" fill="rgb(0,0,0)" stroke="rgb(0,0,0)" stroke-width="0.25" >
<path d="M205.309,138.41 195.97,138.41 200.639,110.396 200.639,110.396 z" />
<path d="M205.309,238.018 195.97,238.018 200.639,266.033 200.639,266.033 z" />
</g>
<g clip-path="url(#clipId0)" fill="none" stroke="rgb(0,0,0)" stroke-width="0.25" >
<polyline points="324.006,266.033 265.069,324.97 " />
<path d="M324.006,266.033  A163.961,163.961 0 0,0 479.643,110.396 " />
<polyline points="868.174,728.388 868.174,753.727 " />
<polyline points="868.174,728.388 883.861,728.388 " />
<polyline points="868.174,740.454 877.827,740.454 " />
<polyline points="868.174,753.727 883.861,753.727 " />
<polyline points="891.1,728.388 891.1,753.727 " />
<polyline points="891.1,728.388 899.547,728.388 903.167,729.594 905.58,732.007 906.787,734.421 907.993,738.041 907.993,744.074 906.787,747.694 905.58,750.107 903.167,752.52 899.547,753.727 891.1,753.727 " />
<polyline points="929.713,728.388 917.646,728.388 916.44,739.247 917.646,738.041 921.266,736.834 924.886,736.834 928.506,738.041 930.919,740.454 932.126,744.074 932.126,746.487 930.919,750.107 928.506,752.52 924.886,753.727 921.266,753.727 917.646,752.52 916.44,751.314 915.233,748.9 " />
<polyline points="940.573,742.867 962.292,742.867 " />
<polyline points="976.772,728.388 973.152,729.594 971.945,732.007 971.945,734.421 973.152,736.834 975.565,738.041 980.392,739.247 984.011,740.454 986.425,742.867 987.631,745.28 987.631,748.9 986.425,751.314 985.218,752.52 981.598,753.727 976.772,753.727 973.152,752.52 971.945,751.314 970.738,748.9 970.738,745.28 971.945,742.867 974.358,740.454 977.978,739.247 982.805,738.041 985.218,736.834 986.425,734.421 986.425,732.007 985.218,729.594 981.598,728.388 976.772,728.388 " />
<polyline points="961.375,166.687 857.502,166.687 " />
</g>
<g clip-path="url(#clipId0)" fill="rgb(0,0,0)" stroke="rgb(0,0,0)" stroke-width="0.25" >
<path d="M961.375,163.087 961.375,170.287 982.974,166.687 982.974,166.687 z" />
</g>
<g clip-path="url(#clipId0)" fill="none" stroke="rgb(0,0,0)" stroke-width="0.25" >
<polyline points="936.831,196.039 936.214,194.805 934.98,193.571 933.746,192.954 931.278,192.954 930.044,193.571 928.81,194.805 928.193,196.039 927.576,197.89 927.576,200.975 928.193,202.826 928.81,204.06 930.044,205.294 931.278,205.911 933.746,205.911 934.98,205.294 936.214,204.06 936.831,202.826 " />
<polyline points="909.697,178.572 901.47,200.168 " />
<polyline points="909.697,178.572 917.924,200.168 " />
<polyline points="904.555,192.969 914.839,192.969 " />
<polyline points="936.831,142.197 936.214,140.963 934.98,139.728 933.746,139.111 931.278,139.111 930.044,139.728 928.81,140.963 928.193,142.197 927.576,144.048 927.576,147.133 928.193,148.984 928.81,150.218 930.044,151.452 931.278,152.069 933.746,152.069 934.98,151.452 936.214,150.218 936.831,148.984 " />
<polyline points="909.697,124.729 907.641,125.758 905.584,127.815 904.555,129.871 903.527,132.957 903.527,138.098 904.555,141.184 905.584,143.24 907.641,145.297 909.697,146.325 913.811,146.325 915.868,145.297 917.924,143.24 918.953,141.184 919.981,138.098 919.981,132.957 918.953,129.871 917.924,127.815 915.868,125.758 913.811,124.729 909.697,124.729 " />
<polyline points="912.782,142.212 918.953,148.382 " />
<polyline points="101.122,159.364 101.122,172.322 " />
<polyline points="101.122,165.535 102.357,164.301 103.591,163.684 105.442,163.684 106.676,164.301 107.91,165.535 108.527,167.386 108.527,168.62 107.91,170.471 106.676,171.705 105.442,172.322 103.591,172.322 102.357,171.705 101.122,170.471 " />
<polyline points="83.814,147.223 81.7572,148.252 79.7005,150.308 78.6721,152.365 77.6437,155.45 77.6437,160.592 78.6721,163.677 79.7005,165.734 81.7572,167.791 83.814,168.819 87.9275,168.819 89.9843,167.791 92.0411,165.734 93.0695,163.677 94.0978,160.592 94.0978,155.45 93.0695,152.365 92.0411,150.308 89.9843,148.252 87.9275,147.223 83.814,147.223 " />
<polyline points="86.8992,164.706 93.0695,170.876 " />
<polyline points="105.329,216.119 105.329,229.077 " />
<polyline points="105.329,222.289 106.563,221.055 107.797,220.438 109.648,220.438 110.882,221.055 112.117,222.289 112.734,224.141 112.734,225.375 112.117,227.226 110.882,228.46 109.648,229.077 107.797,229.077 106.563,228.46 105.329,227.226 " />
<polyline points="88.0207,203.978 79.7936,225.574 " />
<polyline points="88.0207,203.978 96.2478,225.574 " />
<polyline points="82.8788,218.375 93.1626,218.375 " />
<polyline points="358.211,714.572 356.977,713.338 355.125,712.721 352.657,712.721 350.806,713.338 349.572,714.572 349.572,715.806 350.189,717.04 350.806,717.657 352.04,718.274 355.743,719.508 356.977,720.125 357.594,720.742 358.211,721.976 358.211,723.827 356.977,725.061 355.125,725.678 352.657,725.678 350.806,725.061 349.572,723.827 " />
<polyline points="441.034,714.186 439.8,712.952 437.949,712.335 435.481,712.335 433.63,712.952 432.396,714.186 432.396,715.42 433.013,716.654 433.63,717.272 434.864,717.889 438.566,719.123 439.8,719.74 440.417,720.357 441.034,721.591 441.034,723.442 439.8,724.676 437.949,725.293 435.481,725.293 433.63,724.676 432.396,723.442 " />
<polyline points="413.951,698.401 405.724,719.998 " />
<polyline points="413.951,698.401 422.178,719.998 " />
<polyline points="408.809,712.799 419.093,712.799 " />
<polyline points="331.127,698.787 329.071,699.815 327.014,701.872 325.986,703.929 324.957,707.014 324.957,712.156 325.986,715.241 327.014,717.298 329.071,719.355 331.127,720.383 335.241,720.383 337.298,719.355 339.355,717.298 340.383,715.241 341.411,712.156 341.411,707.014 340.383,703.929 339.355,701.872 337.298,699.815 335.241,698.787 331.127,698.787 " />
<polyline points="334.213,716.269 340.383,722.44 " />
<polyline points="140.241,187.97 36.3687,187.97 " />
</g>
<g clip-path="url(#clipId0)" fill="rgb(0,0,0)" stroke="rgb(0,0,0)" stroke-width="0.25" >
<path d="M140.241,184.37 140.241,191.57 161.84,187.97 161.84,187.97 z" />
</g>
<g clip-path="url(#clipId0)" fill="none" stroke="rgb(0,0,0)" stroke-width="0.1" >
<polyline points="721.677,517.249 744.717,517.249 " />
<polyline points="733.197,528.769 733.197,505.729 " />
</g>
</svg>
