<?xml version="1.0" standalone="no"?>
<svg viewBox="0 0 1024 768" version="1.1" xmlns="http://www.w3.org/2000/svg" xmlns:xlink="http://www.w3.org/1999/xlink" stroke-linecap="round" stroke-linejoin="round" fill-rule="evenodd" xml:space="preserve" >
<defs >
<clipPath id="clipId0" >
<path d="M0,768 1024,768 1024,0 0,0 z" />
</clipPath>
</defs>
<g clip-path="url(#clipId0)" fill="none" stroke="rgb(0,0,0)" stroke-width="0.1" />
<g clip-path="url(#clipId0)" fill="none" stroke="rgb(0,0,0)" stroke-width="0.25" >
<polyline points="685.369,384.845 685.369,116.519 " />
<polyline points="685.369,116.519 643.443,116.519 " />
<polyline points="439.403,384.845 439.403,404.411 " />
<polyline points="439.403,451.927 618.287,451.927 " />
<polyline points="618.287,451.927 618.287,410.001 " />
<polyline points="618.287,384.845 637.853,384.845 " />
<polyline points="637.853,116.519 417.043,116.519 " />
<polyline points="417.043,116.519 417.043,384.845 " />
<polyline points="324.805,340.124 282.88,340.124 " />
<polyline points="324.805,161.24 282.88,161.24 " />
<polyline points="282.88,161.24 282.88,340.124 " />
<polyline points="417.043,384.845 329.796,341.222 " />
<polyline points="329.796,160.142 417.043,116.519 " />
<polyline points="528.845,250.682 528.845,228.322 " />
<polyline points="528.845,250.682 551.206,250.682 " />
<polyline points="528.845,250.682 528.845,273.043 " />
<polyline points="528.845,250.682 506.485,250.682 " />
<polyline points="484.124,250.682 352.003,250.682 " />
<polyline points="528.845,295.403 528.845,472.143 " />
<polyline points="573.566,250.682 700.401,250.682 " />
<polyline points="637.853,384.845 637.853,116.519 " />
<polyline points="643.443,384.845 643.443,116.519 " />
<path d="M637.853,384.845  A2.91152,2.91152 0 0,0 643.443,384.845 " />
<polyline points="643.443,384.845 685.369,384.845 " />
<path d="M643.443,116.519  A2.91152,2.91152 0 0,0 637.853,116.519 " />
<polyline points="417.043,384.845 439.403,384.845 " />
<polyline points="439.403,404.411 618.287,404.411 " />
<polyline points="439.403,410.001 618.287,410.001 " />
<path d="M439.403,404.411  A2.91152,2.91152 0 0,0 439.403,410.001 " />
<polyline points="439.403,410.001 439.403,451.927 " />
<path d="M618.287,410.001  A2.91152,2.91152 0 0,0 618.287,404.411 " />
<polyline points="618.287,404.411 618.287,384.845 " />
<polyline points="324.805,161.24 324.805,340.124 " />
<polyline points="330.396,161.24 330.396,340.124 " />
<path d="M324.805,340.124  A2.91152,2.91152 0 0,0 330.396,340.124 " />
<path d="M330.396,161.24  A2.91152,2.91152 0 0,0 324.805,161.24 " />
</g>
<g clip-path="url(#clipId0)" fill="rgb(0,0,0)" stroke="rgb(0,0,0)" stroke-width="0.25" >
<path d="M884.745,245.279 884.745,256.012 916.944,250.646 916.944,250.646 z" />
</g>
<g clip-path="url(#clipId0)" fill="none" stroke="rgb(0,0,0)" stroke-width="0.25" >
<polyline points="884.745,250.646 805.142,250.646 " />
<polyline points="143.963,251.067 64.3593,251.067 " />
</g>
<g clip-path="url(#clipId0)" fill="rgb(0,0,0)" stroke="rgb(0,0,0)" stroke-width="0.25" >
<path d="M143.963,245.7 143.963,256.433 176.162,251.067 176.162,251.067 z" />
<path d="M523.131,580.788 533.864,580.788 528.498,548.589 528.498,548.589 z" />
</g>
<g clip-path="url(#clipId0)" fill="none" stroke="rgb(0,0,0)" stroke-width="0.25" >
<polyline points="528.498,580.788 528.498,660.392 " />
<polyline points="713.14,504.929 715.269,503.864 718.464,500.67 718.464,523.031 " />
<polyline points="734.435,497.476 733.371,498.54 732.306,497.476 733.371,496.411 734.435,497.476 734.435,499.605 733.371,501.735 732.306,502.8 " />
<polyline points="740.824,497.476 739.759,498.54 738.694,497.476 739.759,496.411 740.824,497.476 740.824,499.605 739.759,501.735 738.694,502.8 " />
<polyline points="754.666,496.411 752.537,498.54 750.407,501.735 748.278,505.994 747.213,511.318 747.213,515.577 748.278,520.901 750.407,525.16 752.537,528.354 754.666,530.484 " />
<polyline points="762.12,505.994 762.12,504.929 763.185,502.8 764.249,501.735 766.379,500.67 770.638,500.67 772.768,501.735 773.832,502.8 774.897,504.929 774.897,507.059 773.832,509.188 771.703,512.383 761.055,523.031 775.962,523.031 " />
<polyline points="795.128,500.67 784.48,500.67 783.415,510.253 784.48,509.188 787.675,508.124 790.869,508.124 794.063,509.188 796.193,511.318 797.258,514.512 797.258,516.642 796.193,519.836 794.063,521.966 790.869,523.031 787.675,523.031 784.48,521.966 783.415,520.901 782.351,518.771 " />
<polyline points="804.711,508.124 804.711,523.031 " />
<polyline points="804.711,512.383 807.906,509.188 810.035,508.124 813.229,508.124 815.359,509.188 816.424,512.383 816.424,523.031 " />
<polyline points="816.424,512.383 819.618,509.188 821.748,508.124 824.942,508.124 827.072,509.188 828.136,512.383 828.136,523.031 " />
<polyline points="836.655,508.124 836.655,523.031 " />
<polyline points="836.655,512.383 839.849,509.188 841.979,508.124 845.173,508.124 847.303,509.188 848.367,512.383 848.367,523.031 " />
<polyline points="848.367,512.383 851.562,509.188 853.691,508.124 856.886,508.124 859.015,509.188 860.08,512.383 860.08,523.031 " />
<polyline points="867.534,496.411 869.663,498.54 871.793,501.735 873.922,505.994 874.987,511.318 874.987,515.577 873.922,520.901 871.793,525.16 869.663,528.354 867.534,530.484 " />
<polyline points="182.34,504.929 184.469,503.864 187.664,500.67 187.664,523.031 " />
<polyline points="203.635,497.476 202.571,498.54 201.506,497.476 202.571,496.411 203.635,497.476 203.635,499.605 202.571,501.735 201.506,502.8 " />
<polyline points="210.024,497.476 208.959,498.54 207.895,497.476 208.959,496.411 210.024,497.476 210.024,499.605 208.959,501.735 207.895,502.8 " />
<polyline points="223.866,496.411 221.737,498.54 219.607,501.735 217.478,505.994 216.413,511.318 216.413,515.577 217.478,520.901 219.607,525.16 221.737,528.354 223.866,530.484 " />
<polyline points="231.32,505.994 231.32,504.929 232.385,502.8 233.449,501.735 235.579,500.67 239.838,500.67 241.968,501.735 243.032,502.8 244.097,504.929 244.097,507.059 243.032,509.188 240.903,512.383 230.255,523.031 245.162,523.031 " />
<polyline points="264.328,500.67 253.68,500.67 252.616,510.253 253.68,509.188 256.875,508.124 260.069,508.124 263.263,509.188 265.393,511.318 266.458,514.512 266.458,516.642 265.393,519.836 263.263,521.966 260.069,523.031 256.875,523.031 253.68,521.966 252.616,520.901 251.551,518.771 " />
<polyline points="273.911,508.124 273.911,523.031 " />
<polyline points="273.911,512.383 277.106,509.188 279.235,508.124 282.43,508.124 284.559,509.188 285.624,512.383 285.624,523.031 " />
<polyline points="285.624,512.383 288.818,509.188 290.948,508.124 294.142,508.124 296.272,509.188 297.337,512.383 297.337,523.031 " />
<polyline points="305.855,508.124 305.855,523.031 " />
<polyline points="305.855,512.383 309.049,509.188 311.179,508.124 314.373,508.124 316.503,509.188 317.568,512.383 317.568,523.031 " />
<polyline points="317.568,512.383 320.762,509.188 322.891,508.124 326.086,508.124 328.215,509.188 329.28,512.383 329.28,523.031 " />
<polyline points="336.734,496.411 338.863,498.54 340.993,501.735 343.122,505.994 344.187,511.318 344.187,515.577 343.122,520.901 340.993,525.16 338.863,528.354 336.734,530.484 " />
<polyline points="749.574,455.863 771.934,455.863 " />
<polyline points="797.793,446.364 799.923,445.299 803.117,442.104 803.117,464.465 " />
<polyline points="819.089,438.91 818.024,439.975 816.959,438.91 818.024,437.845 819.089,438.91 819.089,441.04 818.024,443.169 816.959,444.234 " />
<polyline points="825.478,438.91 824.413,439.975 823.348,438.91 824.413,437.845 825.478,438.91 825.478,441.04 824.413,443.169 823.348,444.234 " />
<polyline points="839.32,437.845 837.19,439.975 835.061,443.169 832.931,447.428 831.866,452.752 831.866,457.011 832.931,462.335 835.061,466.595 837.19,469.789 839.32,471.918 " />
<polyline points="846.773,447.428 846.773,446.364 847.838,444.234 848.903,443.169 851.032,442.104 855.292,442.104 857.421,443.169 858.486,444.234 859.551,446.364 859.551,448.493 858.486,450.623 856.356,453.817 845.709,464.465 860.616,464.465 " />
<polyline points="879.782,442.104 869.134,442.104 868.069,451.688 869.134,450.623 872.328,449.558 875.523,449.558 878.717,450.623 880.846,452.752 881.911,455.947 881.911,458.076 880.846,461.271 878.717,463.4 875.523,464.465 872.328,464.465 869.134,463.4 868.069,462.335 867.004,460.206 " />
<polyline points="889.365,449.558 889.365,464.465 " />
<polyline points="889.365,453.817 892.559,450.623 894.689,449.558 897.883,449.558 900.013,450.623 901.077,453.817 901.077,464.465 " />
<polyline points="901.077,453.817 904.272,450.623 906.401,449.558 909.596,449.558 911.725,450.623 912.79,453.817 912.79,464.465 " />
<polyline points="921.308,449.558 921.308,464.465 " />
<polyline points="921.308,453.817 924.503,450.623 926.632,449.558 929.827,449.558 931.956,450.623 933.021,453.817 933.021,464.465 " />
<polyline points="933.021,453.817 936.215,450.623 938.345,449.558 941.539,449.558 943.669,450.623 944.734,453.817 944.734,464.465 " />
<polyline points="952.187,437.845 954.317,439.975 956.446,443.169 958.576,447.428 959.641,452.752 959.641,457.011 958.576,462.335 956.446,466.595 954.317,469.789 952.187,471.918 " />
<polyline points="734.135,239.033 734.135,261.393 " />
<polyline points="734.135,239.033 741.588,239.033 744.783,240.098 746.912,242.227 747.977,244.357 749.042,247.551 749.042,252.875 747.977,256.07 746.912,258.199 744.783,260.329 741.588,261.393 734.135,261.393 " />
<polyline points="763.786,257.754 763.124,256.431 761.8,255.107 760.477,254.445 757.83,254.445 756.507,255.107 755.183,256.431 754.522,257.754 753.86,259.739 753.86,263.048 754.522,265.033 755.183,266.356 756.507,267.68 757.83,268.341 760.477,268.341 761.8,267.68 763.124,266.356 763.786,265.033 " />
<polyline points="831.275,213.967 829.146,215.031 827.016,217.161 825.951,219.29 824.887,222.485 824.887,227.809 825.951,231.003 827.016,233.133 829.146,235.262 831.275,236.327 835.534,236.327 837.664,235.262 839.794,233.133 840.858,231.003 841.923,227.809 841.923,222.485 840.858,219.29 839.794,217.161 837.664,215.031 835.534,213.967 831.275,213.967 " />
<polyline points="834.47,232.068 840.858,238.457 " />
<polyline points="857.829,232.688 857.167,231.364 855.844,230.041 854.52,229.379 851.873,229.379 850.55,230.041 849.226,231.364 848.565,232.688 847.903,234.673 847.903,237.981 848.565,239.966 849.226,241.29 850.55,242.613 851.873,243.275 854.52,243.275 855.844,242.613 857.167,241.29 857.829,239.966 " />
<polyline points="95.0759,214.921 92.9464,215.986 90.8168,218.115 89.752,220.245 88.6872,223.439 88.6872,228.763 89.752,231.958 90.8168,234.087 92.9464,236.217 95.0759,237.282 99.3351,237.282 101.465,236.217 103.594,234.087 104.659,231.958 105.724,228.763 105.724,223.439 104.659,220.245 103.594,218.115 101.465,215.986 99.3351,214.921 95.0759,214.921 " />
<polyline points="98.2703,233.022 104.659,239.411 " />
<polyline points="121.059,234.087 120.26,232.49 117.864,231.691 115.469,231.691 113.073,232.49 112.274,234.087 113.073,235.684 114.67,236.483 118.663,237.282 120.26,238.08 121.059,239.677 121.059,240.476 120.26,242.073 117.864,242.872 115.469,242.872 113.073,242.073 112.274,240.476 " />
<polyline points="491.129,600.561 489,601.625 486.87,603.755 485.806,605.885 484.741,609.079 484.741,614.403 485.806,617.597 486.87,619.727 489,621.856 491.129,622.921 495.389,622.921 497.518,621.856 499.648,619.727 500.713,617.597 501.777,614.403 501.777,609.079 500.713,605.885 499.648,603.755 497.518,601.625 495.389,600.561 491.129,600.561 " />
<polyline points="494.324,618.662 500.713,625.051 " />
<polyline points="508.75,615.973 508.75,629.869 " />
<polyline points="508.75,622.59 510.073,621.267 511.397,620.605 513.382,620.605 514.705,621.267 516.029,622.59 516.69,624.575 516.69,625.899 516.029,627.884 514.705,629.207 513.382,629.869 511.397,629.869 510.073,629.207 508.75,627.884 " />
<polyline points="204.293,239.401 204.293,261.761 " />
<polyline points="204.293,239.401 211.747,239.401 214.941,240.465 217.07,242.595 218.135,244.725 219.2,247.919 219.2,253.243 218.135,256.437 217.07,258.567 214.941,260.696 211.747,261.761 204.293,261.761 " />
<polyline points="233.373,258.567 232.574,256.97 230.179,256.171 227.783,256.171 225.387,256.97 224.589,258.567 225.387,260.164 226.984,260.962 230.977,261.761 232.574,262.56 233.373,264.157 233.373,264.955 232.574,266.553 230.179,267.351 227.783,267.351 225.387,266.553 224.589,264.955 " />
<polyline points="514.754,498.687 514.754,521.047 " />
<polyline points="514.754,498.687 522.208,498.687 525.402,499.752 527.532,501.881 528.597,504.011 529.661,507.205 529.661,512.529 528.597,515.723 527.532,517.853 525.402,519.983 522.208,521.047 514.754,521.047 " />
<polyline points="535.472,514.099 535.472,527.995 " />
<polyline points="535.472,520.717 536.795,519.393 538.119,518.731 540.104,518.731 541.427,519.393 542.751,520.717 543.413,522.702 543.413,524.025 542.751,526.01 541.427,527.334 540.104,527.995 538.119,527.995 536.795,527.334 535.472,526.01 " />
<polyline points="436.051,31.458 436.051,53.8185 " />
<polyline points="436.051,31.458 443.505,31.458 446.699,32.5228 448.829,34.6524 449.893,36.7819 450.958,39.9763 450.958,45.3002 449.893,48.4946 448.829,50.6241 446.699,52.7537 443.505,53.8185 436.051,53.8185 " />
<polyline points="480.772,44.2354 499.938,44.2354 " />
<polyline points="508.457,31.458 508.457,53.8185 " />
<polyline points="508.457,31.458 515.91,31.458 519.105,32.5228 521.234,34.6524 522.299,36.7819 523.364,39.9763 523.364,45.3002 522.299,48.4946 521.234,50.6241 519.105,52.7537 515.91,53.8185 508.457,53.8185 " />
<polyline points="465.702,50.1791 465.04,48.8556 463.717,47.5322 462.393,46.8705 459.746,46.8705 458.423,47.5322 457.1,48.8556 456.438,50.1791 455.776,52.1642 455.776,55.4728 456.438,57.4579 457.1,58.7814 458.423,60.1048 459.746,60.7665 462.393,60.7665 463.717,60.1048 465.04,58.7814 465.702,57.4579 " />
<polyline points="558.337,58.8141 560.467,57.7493 563.661,54.555 563.661,76.9155 " />
<polyline points="577.503,59.8789 577.503,58.8141 578.568,56.6845 579.633,55.6197 581.762,54.555 586.021,54.555 588.151,55.6197 589.216,56.6845 590.281,58.8141 590.281,60.9437 589.216,63.0732 587.086,66.2676 576.438,76.9155 591.345,76.9155 " />
<polyline points="600.928,51.3606 599.864,52.4254 598.799,51.3606 599.864,50.2958 600.928,51.3606 600.928,53.4902 599.864,55.6197 598.799,56.6845 " />
<polyline points="607.317,51.3606 606.252,52.4254 605.188,51.3606 606.252,50.2958 607.317,51.3606 607.317,53.4902 606.252,55.6197 605.188,56.6845 " />
<polyline points="621.159,50.2958 619.03,52.4254 616.9,55.6197 614.771,59.8789 613.706,65.2028 613.706,69.462 614.771,74.7859 616.9,79.045 619.03,82.2394 621.159,84.369 " />
<polyline points="629.678,54.555 641.39,54.555 635.002,63.0732 638.196,63.0732 640.325,64.138 641.39,65.2028 642.455,68.3972 642.455,70.5267 641.39,73.7211 639.261,75.8507 636.066,76.9155 632.872,76.9155 629.678,75.8507 628.613,74.7859 627.548,72.6563 " />
<polyline points="655.233,54.555 652.038,55.6197 649.909,58.8141 648.844,64.138 648.844,67.3324 649.909,72.6563 652.038,75.8507 655.233,76.9155 657.362,76.9155 660.556,75.8507 662.686,72.6563 663.751,67.3324 663.751,64.138 662.686,58.8141 660.556,55.6197 657.362,54.555 655.233,54.555 " />
<polyline points="676.528,54.555 673.334,55.6197 671.204,58.8141 670.14,64.138 670.14,67.3324 671.204,72.6563 673.334,75.8507 676.528,76.9155 678.658,76.9155 681.852,75.8507 683.982,72.6563 685.047,67.3324 685.047,64.138 683.982,58.8141 681.852,55.6197 678.658,54.555 676.528,54.555 " />
<polyline points="692.5,62.0085 692.5,76.9155 " />
<polyline points="692.5,66.2676 695.694,63.0732 697.824,62.0085 701.018,62.0085 703.148,63.0732 704.213,66.2676 704.213,76.9155 " />
<polyline points="704.213,66.2676 707.407,63.0732 709.537,62.0085 712.731,62.0085 714.861,63.0732 715.925,66.2676 715.925,76.9155 " />
<polyline points="724.444,62.0085 724.444,76.9155 " />
<polyline points="724.444,66.2676 727.638,63.0732 729.768,62.0085 732.962,62.0085 735.091,63.0732 736.156,66.2676 736.156,76.9155 " />
<polyline points="736.156,66.2676 739.351,63.0732 741.48,62.0085 744.675,62.0085 746.804,63.0732 747.869,66.2676 747.869,76.9155 " />
<polyline points="755.322,50.2958 757.452,52.4254 759.582,55.6197 761.711,59.8789 762.776,65.2028 762.776,69.462 761.711,74.7859 759.582,79.045 757.452,82.2394 755.322,84.369 " />
<polyline points="793.655,62.0085 793.655,76.9155 " />
<polyline points="793.655,66.2676 796.849,63.0732 798.979,62.0085 802.173,62.0085 804.303,63.0732 805.367,66.2676 805.367,76.9155 " />
<polyline points="805.367,66.2676 808.562,63.0732 810.691,62.0085 813.886,62.0085 816.015,63.0732 817.08,66.2676 817.08,76.9155 " />
<polyline points="837.311,62.0085 837.311,76.9155 " />
<polyline points="837.311,65.2028 835.181,63.0732 833.052,62.0085 829.857,62.0085 827.728,63.0732 825.598,65.2028 824.534,68.3972 824.534,70.5267 825.598,73.7211 827.728,75.8507 829.857,76.9155 833.052,76.9155 835.181,75.8507 837.311,73.7211 " />
<polyline points="844.764,62.0085 856.477,76.9155 " />
<polyline points="856.477,62.0085 844.764,76.9155 " />
<polyline points="864.995,74.7859 863.931,75.8507 864.995,76.9155 866.06,75.8507 864.995,74.7859 " />
<polyline points="537.837,48.8556 536.513,47.5322 534.528,46.8705 531.881,46.8705 529.896,47.5322 528.573,48.8556 528.573,50.1791 529.234,51.5025 529.896,52.1642 531.219,52.8259 535.19,54.1494 536.513,54.8111 537.175,55.4728 537.837,56.7962 537.837,58.7814 536.513,60.1048 534.528,60.7665 531.881,60.7665 529.896,60.1048 528.573,58.7814 " />
<polyline points="640.648,396.425 640.648,516.528 " />
<polyline points="661.492,510.738 682.336,510.738 " />
<polyline points="682.336,510.738 703.952,510.738 " />
</g>
<g clip-path="url(#clipId0)" fill="rgb(0,0,0)" stroke="rgb(0,0,0)" stroke-width="0.25" >
<path d="M661.492,514.212 661.492,507.264 640.648,510.738 640.648,510.738 z" />
</g>
<g clip-path="url(#clipId0)" fill="none" stroke="rgb(0,0,0)" stroke-width="0.1" >
<polyline points="618.287,451.927 618.287,451.927 " />
<polyline points="640.648,384.845 640.648,384.845 " />
<polyline points="640.648,510.738 640.648,510.738 " />
</g>
<g clip-path="url(#clipId0)" fill="none" stroke="rgb(0,0,0)" stroke-width="0.25" >
<polyline points="417.043,398.521 417.043,516.528 " />
<polyline points="396.198,510.738 375.354,510.738 " />
<polyline points="375.354,510.738 357.997,510.738 " />
</g>
<g clip-path="url(#clipId0)" fill="rgb(0,0,0)" stroke="rgb(0,0,0)" stroke-width="0.25" >
<path d="M396.198,514.212 396.198,507.264 417.043,510.738 417.043,510.738 z" />
</g>
<g clip-path="url(#clipId0)" fill="none" stroke="rgb(0,0,0)" stroke-width="0.1" >
<polyline points="439.403,451.927 439.403,451.927 " />
<polyline points="417.043,510.738 417.043,510.738 " />
</g>
<g clip-path="url(#clipId0)" fill="none" stroke="rgb(0,0,0)" stroke-width="0.25" >
<polyline points="696.949,116.519 755.364,116.519 " />
<polyline points="631.963,407.206 755.364,407.206 " />
<polyline points="749.574,428.05 749.574,433.153 " />
<polyline points="749.574,433.153 749.574,455.863 " />
</g>
<g clip-path="url(#clipId0)" fill="rgb(0,0,0)" stroke="rgb(0,0,0)" stroke-width="0.25" >
<path d="M746.1,428.05 753.048,428.05 749.574,407.206 749.574,407.206 z" />
<path d="M746.1,137.363 753.048,137.363 749.574,116.519 749.574,116.519 z" />
</g>
<g clip-path="url(#clipId0)" fill="none" stroke="rgb(0,0,0)" stroke-width="0.1" >
<polyline points="685.369,116.519 685.369,116.519 " />
<polyline points="437.307,407.206 437.307,407.206 " />
</g>
<g clip-path="url(#clipId0)" fill="none" stroke="rgb(0,0,0)" stroke-width="0.25" >
<polyline points="442.952,326.566 442.125,329.048 440.471,330.702 437.99,331.529 437.162,331.529 434.681,330.702 433.027,329.048 432.2,326.566 432.2,325.739 433.027,323.258 434.681,321.603 437.162,320.776 437.99,320.776 440.471,321.603 442.125,323.258 442.952,326.566 442.952,330.702 442.125,334.838 440.471,337.319 437.99,338.146 436.335,338.146 433.854,337.319 433.027,335.665 " />
<polyline points="453.705,320.776 451.224,321.603 449.57,324.085 448.742,328.221 448.742,330.702 449.57,334.838 451.224,337.319 453.705,338.146 455.36,338.146 457.841,337.319 459.495,334.838 460.323,330.702 460.323,328.221 459.495,324.085 457.841,321.603 455.36,320.776 453.705,320.776 " />
<ellipse rx="1.65429" ry="1.65429" cx="465.285" cy="322.431" />
<polyline points="271.299,161.24 215.564,161.24 " />
<polyline points="271.299,340.124 215.564,340.124 " />
<polyline points="221.354,182.084 221.354,228.806 " />
</g>
<g clip-path="url(#clipId0)" fill="rgb(0,0,0)" stroke="rgb(0,0,0)" stroke-width="0.25" >
<path d="M217.88,182.084 224.828,182.084 221.354,161.24 221.354,161.24 z" />
<path d="M217.88,319.28 224.828,319.28 221.354,340.124 221.354,340.124 z" />
</g>
<g clip-path="url(#clipId0)" fill="none" stroke="rgb(0,0,0)" stroke-width="0.1" >
<polyline points="282.88,161.24 282.88,161.24 " />
<polyline points="282.88,340.124 282.88,340.124 " />
<polyline points="221.354,340.124 221.354,340.124 " />
</g>
<g clip-path="url(#clipId0)" fill="none" stroke="rgb(0,0,0)" stroke-width="0.25" >
<polyline points="439.403,463.507 439.403,516.528 " />
<polyline points="618.287,463.507 618.287,516.528 " />
<polyline points="460.247,510.738 502.346,510.738 " />
</g>
<g clip-path="url(#clipId0)" fill="rgb(0,0,0)" stroke="rgb(0,0,0)" stroke-width="0.25" >
<path d="M460.247,514.212 460.247,507.264 439.403,510.738 439.403,510.738 z" />
<path d="M597.443,514.212 597.443,507.264 618.287,510.738 618.287,510.738 z" />
</g>
<g clip-path="url(#clipId0)" fill="none" stroke="rgb(0,0,0)" stroke-width="0.1" >
<polyline points="439.403,451.927 439.403,451.927 " />
<polyline points="618.287,451.927 618.287,451.927 " />
</g>
<g clip-path="url(#clipId0)" fill="none" stroke="rgb(0,0,0)" stroke-width="0.25" >
<polyline points="696.949,384.845 755.364,384.845 " />
<polyline points="696.949,116.519 755.364,116.519 " />
<polyline points="749.574,364.001 749.574,278.764 " />
</g>
<g clip-path="url(#clipId0)" fill="rgb(0,0,0)" stroke="rgb(0,0,0)" stroke-width="0.25" >
<path d="M746.1,364.001 753.048,364.001 749.574,384.845 749.574,384.845 z" />
<path d="M746.1,137.363 753.048,137.363 749.574,116.519 749.574,116.519 z" />
</g>
<g clip-path="url(#clipId0)" fill="none" stroke="rgb(0,0,0)" stroke-width="0.1" >
<polyline points="685.369,384.845 685.369,384.845 " />
<polyline points="685.369,116.519 685.369,116.519 " />
<polyline points="749.574,116.519 749.574,116.519 " />
</g>
<g clip-path="url(#clipId0)" fill="none" stroke="rgb(0,0,0)" stroke-width="0.25" >
<path d="M618.287,384.845  A136.086,136.086 0 0,0 439.403,384.845 " />
<path d="M446.713,271.368  A84.6966,84.6966 0 0,0 508.159,332.814 " />
</g>
<g clip-path="url(#clipId0)" fill="rgb(0,0,0)" stroke="rgb(0,0,0)" stroke-width="0.25" >
<path d="M450.161,270.94 443.266,271.795 444.149,250.682 444.149,250.682 z" />
<path d="M508.587,329.366 507.732,336.261 528.845,335.379 528.845,335.379 z" />
</g>
<g clip-path="url(#clipId0)" fill="none" stroke="rgb(0,0,0)" stroke-width="0.1" >
<polyline points="484.124,250.682 484.124,250.682 " />
<polyline points="352.003,250.682 352.003,250.682 " />
<polyline points="528.845,295.403 528.845,295.403 " />
<polyline points="528.845,472.143 528.845,472.143 " />
</g>
<g clip-path="url(#clipId0)" fill="none" stroke="rgb(0,0,0)" stroke-width="0.25" >
<polyline points="417.043,104.939 417.043,37.6821 " />
<polyline points="327.601,147.564 327.601,37.6821 " />
<polyline points="396.198,43.4721 348.445,43.4721 " />
</g>
<g clip-path="url(#clipId0)" fill="rgb(0,0,0)" stroke="rgb(0,0,0)" stroke-width="0.25" >
<path d="M396.198,46.9461 396.198,39.9981 417.043,43.4721 417.043,43.4721 z" />
<path d="M348.445,46.9461 348.445,39.9981 327.601,43.4721 327.601,43.4721 z" />
</g>
<g clip-path="url(#clipId0)" fill="none" stroke="rgb(0,0,0)" stroke-width="0.25" >
<polyline points="558.374,16.0477 560.503,14.9829 563.698,11.7886 563.698,34.1491 " />
<polyline points="579.67,8.5942 578.605,9.65898 577.54,8.5942 578.605,7.52941 579.67,8.5942 579.67,10.7238 578.605,12.8533 577.54,13.9181 " />
<polyline points="586.058,8.5942 584.993,9.65898 583.929,8.5942 584.993,7.52941 586.058,8.5942 586.058,10.7238 584.993,12.8533 583.929,13.9181 " />
<polyline points="599.9,7.52941 597.771,9.65898 595.641,12.8533 593.512,17.1125 592.447,22.4364 592.447,26.6956 593.512,32.0195 595.641,36.2786 597.771,39.473 599.9,41.6026 " />
<polyline points="607.354,17.1125 607.354,16.0477 608.419,13.9181 609.484,12.8533 611.613,11.7886 615.872,11.7886 618.002,12.8533 619.067,13.9181 620.131,16.0477 620.131,18.1773 619.067,20.3068 616.937,23.5012 606.289,34.1491 621.196,34.1491 " />
<polyline points="640.362,11.7886 629.714,11.7886 628.65,21.3716 629.714,20.3068 632.909,19.2421 636.103,19.2421 639.298,20.3068 641.427,22.4364 642.492,25.6308 642.492,27.7603 641.427,30.9547 639.298,33.0843 636.103,34.1491 632.909,34.1491 629.714,33.0843 628.65,32.0195 627.585,29.8899 " />
<polyline points="649.945,19.2421 649.945,34.1491 " />
<polyline points="649.945,23.5012 653.14,20.3068 655.269,19.2421 658.464,19.2421 660.593,20.3068 661.658,23.5012 661.658,34.1491 " />
<polyline points="661.658,23.5012 664.852,20.3068 666.982,19.2421 670.176,19.2421 672.306,20.3068 673.371,23.5012 673.371,34.1491 " />
<polyline points="681.889,19.2421 681.889,34.1491 " />
<polyline points="681.889,23.5012 685.083,20.3068 687.213,19.2421 690.407,19.2421 692.537,20.3068 693.602,23.5012 693.602,34.1491 " />
<polyline points="693.602,23.5012 696.796,20.3068 698.926,19.2421 702.12,19.2421 704.249,20.3068 705.314,23.5012 705.314,34.1491 " />
<polyline points="712.768,7.52941 714.897,9.65898 717.027,12.8533 719.156,17.1125 720.221,22.4364 720.221,26.6956 719.156,32.0195 717.027,36.2786 714.897,39.473 712.768,41.6026 " />
<polyline points="751.1,19.2421 751.1,34.1491 " />
<polyline points="751.1,23.5012 754.294,20.3068 756.424,19.2421 759.618,19.2421 761.748,20.3068 762.813,23.5012 762.813,34.1491 " />
<polyline points="762.813,23.5012 766.007,20.3068 768.137,19.2421 771.331,19.2421 773.461,20.3068 774.525,23.5012 774.525,34.1491 " />
<polyline points="781.979,12.8533 783.044,13.9181 784.108,12.8533 783.044,11.7886 781.979,12.8533 " />
<polyline points="783.044,20.3068 783.044,34.1491 " />
<polyline points="791.562,19.2421 791.562,34.1491 " />
<polyline points="791.562,23.5012 794.756,20.3068 796.886,19.2421 800.08,19.2421 802.21,20.3068 803.275,23.5012 803.275,34.1491 " />
<polyline points="812.858,32.0195 811.793,33.0843 812.858,34.1491 813.922,33.0843 812.858,32.0195 " />
<polyline points="121.059,279.148 120.26,277.551 117.864,276.752 115.469,276.752 113.073,277.551 112.274,279.148 113.073,280.745 114.67,281.544 118.663,282.342 120.26,283.141 121.059,284.738 121.059,285.537 120.26,287.134 117.864,287.932 115.469,287.932 113.073,287.134 112.274,285.537 " />
<polyline points="95.0759,259.982 86.5576,282.342 " />
<polyline points="95.0759,259.982 103.594,282.342 " />
<polyline points="89.752,274.889 100.4,274.889 " />
<polyline points="221.354,277.652 221.354,319.28 " />
<polyline points="749.574,226.914 749.574,137.363 " />
<polyline points="831.275,262.121 822.757,284.482 " />
<polyline points="831.275,262.121 839.794,284.482 " />
<polyline points="825.951,277.028 836.599,277.028 " />
<polyline points="857.829,280.842 857.167,279.519 855.844,278.195 854.52,277.534 851.873,277.534 850.55,278.195 849.226,279.519 848.565,280.842 847.903,282.827 847.903,286.136 848.565,288.121 849.226,289.445 850.55,290.768 851.873,291.43 854.52,291.43 855.844,290.768 857.167,289.445 857.829,288.121 " />
<polyline points="547.248,600.561 538.73,622.921 " />
<polyline points="547.248,600.561 555.767,622.921 " />
<polyline points="541.925,615.468 552.572,615.468 " />
<polyline points="564.869,615.973 564.869,629.869 " />
<polyline points="564.869,622.59 566.192,621.267 567.516,620.605 569.501,620.605 570.824,621.267 572.148,622.59 572.809,624.575 572.809,625.899 572.148,627.884 570.824,629.207 569.501,629.869 567.516,629.869 566.192,629.207 564.869,627.884 " />
<polyline points="552.949,510.738 597.443,510.738 " />
<polyline points="838.65,734.995 838.65,760.471 " />
<polyline points="838.65,734.995 854.421,734.995 " />
<polyline points="838.65,747.126 848.355,747.126 " />
<polyline points="838.65,760.471 854.421,760.471 " />
<polyline points="861.7,734.995 861.7,760.471 " />
<polyline points="861.7,734.995 870.192,734.995 873.831,736.208 876.258,738.634 877.471,741.06 878.684,744.7 878.684,750.765 877.471,754.405 876.258,756.831 873.831,759.257 870.192,760.471 861.7,760.471 " />
<polyline points="900.521,734.995 888.389,734.995 887.176,745.913 888.389,744.7 892.029,743.487 895.668,743.487 899.307,744.7 901.734,747.126 902.947,750.765 902.947,753.192 901.734,756.831 899.307,759.257 895.668,760.471 892.029,760.471 888.389,759.257 887.176,758.044 885.963,755.618 " />
<polyline points="911.439,749.552 933.276,749.552 " />
<polyline points="944.194,734.995 957.539,734.995 950.26,744.7 953.899,744.7 956.325,745.913 957.539,747.126 958.752,750.765 958.752,753.192 957.539,756.831 955.112,759.257 951.473,760.471 947.833,760.471 944.194,759.257 942.981,758.044 941.768,755.618 " />
</g>
</svg>
