<?xml version="1.0" standalone="no"?>
<svg viewBox="0 0 1024 768" version="1.1" xmlns="http://www.w3.org/2000/svg" xmlns:xlink="http://www.w3.org/1999/xlink" stroke-linecap="round" stroke-linejoin="round" fill-rule="evenodd" xml:space="preserve" >
<defs >
<clipPath id="clipId0" >
<path d="M0,768 1024,768 1024,0 0,0 z" />
</clipPath>
</defs>
<g clip-path="url(#clipId0)" fill="none" stroke="rgb(0,0,0)" stroke-width="0.1" />
<g clip-path="url(#clipId0)" fill="none" stroke="rgb(0,0,0)" stroke-width="0.25" >
<polyline points="346.942,342.87 357.95,342.87 " />
<polyline points="417.184,342.87 417.184,363.658 " />
<polyline points="417.184,414.146 607.254,414.146 " />
<polyline points="607.254,414.146 607.254,369.598 " />
<polyline points="607.254,342.87 628.043,342.87 " />
<polyline points="678.53,342.87 678.53,57.7646 " />
<polyline points="678.53,57.7646 633.983,57.7646 " />
<polyline points="396.395,57.7646 396.395,342.87 " />
<polyline points="390.456,57.7646 390.456,342.87 " />
<path d="M396.395,57.7646  A3.09359,3.09359 0 0,0 390.456,57.7646 " />
<polyline points="390.456,57.7646 370.972,57.7646 " />
<path d="M390.456,342.87  A3.09359,3.09359 0 0,0 396.395,342.87 " />
<polyline points="396.395,342.87 417.184,342.87 " />
<polyline points="633.983,342.87 633.983,57.7646 " />
<polyline points="628.043,342.87 628.043,57.7646 " />
<path d="M633.983,57.7646  A3.09359,3.09359 0 0,0 628.043,57.7646 " />
<path d="M628.043,342.87  A3.09359,3.09359 0 0,0 633.983,342.87 " />
<polyline points="628.043,57.7646 396.395,57.7646 " />
<polyline points="633.983,342.87 678.53,342.87 " />
<polyline points="417.184,363.658 607.254,363.658 " />
<polyline points="417.184,369.598 607.254,369.598 " />
<path d="M607.254,369.598  A3.09359,3.09359 0 0,0 607.254,363.658 " />
<path d="M417.184,363.658  A3.09359,3.09359 0 0,0 417.184,369.598 " />
<polyline points="607.254,363.658 607.254,342.87 " />
<polyline points="417.184,369.598 417.184,414.146 " />
<polyline points="512.219,224.076 512.219,176.558 " />
<polyline points="535.978,200.317 488.461,200.317 " />
<polyline points="512.219,271.593 512.219,426.839 " />
<polyline points="583.495,200.317 688.938,200.317 " />
</g>
<g clip-path="url(#clipId0)" fill="rgb(0,0,0)" stroke="rgb(0,0,0)" stroke-width="0.25" >
<path d="M506.517,566.204 517.921,566.204 512.219,531.991 512.219,531.991 z" />
</g>
<g clip-path="url(#clipId0)" fill="none" stroke="rgb(0,0,0)" stroke-width="0.25" >
<polyline points="512.219,566.204 512.219,666.733 " />
</g>
<g clip-path="url(#clipId0)" fill="rgb(0,0,0)" stroke="rgb(0,0,0)" stroke-width="0.25" >
<path d="M903.359,194.615 903.359,206.019 937.571,200.317 937.571,200.317 z" />
</g>
<g clip-path="url(#clipId0)" fill="none" stroke="rgb(0,0,0)" stroke-width="0.25" >
<polyline points="903.359,200.317 802.83,200.317 " />
<polyline points="759.382,57.7646 759.382,22.1265 " />
<polyline points="759.382,22.1265 773.775,22.1265 " />
<polyline points="505.224,456.286 505.224,480.045 " />
<polyline points="505.224,456.286 513.144,456.286 516.538,457.418 518.801,459.681 519.932,461.943 521.064,465.337 521.064,470.994 519.932,474.388 518.801,476.651 516.538,478.914 513.144,480.045 505.224,480.045 " />
<polyline points="525.61,471.136 525.61,488.955 " />
<polyline points="525.61,479.621 527.307,477.924 529.004,477.075 531.549,477.075 533.246,477.924 534.944,479.621 535.792,482.167 535.792,483.864 534.944,486.409 533.246,488.106 531.549,488.955 529.004,488.955 527.307,488.106 525.61,486.409 " />
<polyline points="147.019,483.476 149.282,482.345 152.676,478.951 152.676,502.709 " />
<polyline points="169.646,475.557 168.515,476.688 167.384,475.557 168.515,474.425 169.646,475.557 169.646,477.819 168.515,480.082 167.384,481.213 " />
<polyline points="176.435,475.557 175.303,476.688 174.172,475.557 175.303,474.425 176.435,475.557 176.435,477.819 175.303,480.082 174.172,481.213 " />
<polyline points="191.142,474.425 188.88,476.688 186.617,480.082 184.354,484.608 183.223,490.264 183.223,494.79 184.354,500.447 186.617,504.972 188.88,508.366 191.142,510.629 " />
<polyline points="199.062,484.608 199.062,483.476 200.193,481.213 201.325,480.082 203.587,478.951 208.113,478.951 210.376,480.082 211.507,481.213 212.638,483.476 212.638,485.739 211.507,488.002 209.244,491.396 197.931,502.709 213.77,502.709 " />
<polyline points="234.134,478.951 222.821,478.951 221.689,489.133 222.821,488.002 226.215,486.87 229.609,486.87 233.003,488.002 235.266,490.264 236.397,493.658 236.397,495.921 235.266,499.315 233.003,501.578 229.609,502.709 226.215,502.709 222.821,501.578 221.689,500.447 220.558,498.184 " />
<polyline points="244.317,486.87 244.317,502.709 " />
<polyline points="244.317,491.396 247.711,488.002 249.973,486.87 253.368,486.87 255.63,488.002 256.762,491.396 256.762,502.709 " />
<polyline points="256.762,491.396 260.156,488.002 262.419,486.87 265.813,486.87 268.075,488.002 269.207,491.396 269.207,502.709 " />
<polyline points="278.258,486.87 278.258,502.709 " />
<polyline points="278.258,491.396 281.652,488.002 283.915,486.87 287.309,486.87 289.571,488.002 290.703,491.396 290.703,502.709 " />
<polyline points="290.703,491.396 294.097,488.002 296.36,486.87 299.754,486.87 302.016,488.002 303.148,491.396 303.148,502.709 " />
<polyline points="311.067,474.425 313.33,476.688 315.593,480.082 317.856,484.608 318.987,490.264 318.987,494.79 317.856,500.447 315.593,504.972 313.33,508.366 311.067,510.629 " />
<polyline points="707.133,483.476 709.396,482.345 712.79,478.951 712.79,502.709 " />
<polyline points="729.761,475.557 728.629,476.688 727.498,475.557 728.629,474.425 729.761,475.557 729.761,477.819 728.629,480.082 727.498,481.213 " />
<polyline points="736.549,475.557 735.417,476.688 734.286,475.557 735.417,474.425 736.549,475.557 736.549,477.819 735.417,480.082 734.286,481.213 " />
<polyline points="751.257,474.425 748.994,476.688 746.731,480.082 744.468,484.608 743.337,490.264 743.337,494.79 744.468,500.447 746.731,504.972 748.994,508.366 751.257,510.629 " />
<polyline points="759.176,484.608 759.176,483.476 760.308,481.213 761.439,480.082 763.702,478.951 768.227,478.951 770.49,480.082 771.621,481.213 772.753,483.476 772.753,485.739 771.621,488.002 769.359,491.396 758.045,502.709 773.884,502.709 " />
<polyline points="794.249,478.951 782.935,478.951 781.804,489.133 782.935,488.002 786.329,486.87 789.723,486.87 793.117,488.002 795.38,490.264 796.511,493.658 796.511,495.921 795.38,499.315 793.117,501.578 789.723,502.709 786.329,502.709 782.935,501.578 781.804,500.447 780.672,498.184 " />
<polyline points="804.431,486.87 804.431,502.709 " />
<polyline points="804.431,491.396 807.825,488.002 810.088,486.87 813.482,486.87 815.745,488.002 816.876,491.396 816.876,502.709 " />
<polyline points="816.876,491.396 820.27,488.002 822.533,486.87 825.927,486.87 828.19,488.002 829.321,491.396 829.321,502.709 " />
<polyline points="838.372,486.87 838.372,502.709 " />
<polyline points="838.372,491.396 841.766,488.002 844.029,486.87 847.423,486.87 849.686,488.002 850.817,491.396 850.817,502.709 " />
<polyline points="850.817,491.396 854.211,488.002 856.474,486.87 859.868,486.87 862.131,488.002 863.262,491.396 863.262,502.709 " />
<polyline points="871.182,474.425 873.444,476.688 875.707,480.082 877.97,484.608 879.101,490.264 879.101,494.79 877.97,500.447 875.707,504.972 873.444,508.366 871.182,510.629 " />
<polyline points="764.235,424.717 766.498,423.585 769.892,420.191 769.892,443.95 " />
<polyline points="786.862,416.797 785.731,417.928 784.6,416.797 785.731,415.666 786.862,416.797 786.862,419.06 785.731,421.323 784.6,422.454 " />
<polyline points="793.651,416.797 792.519,417.928 791.388,416.797 792.519,415.666 793.651,416.797 793.651,419.06 792.519,421.323 791.388,422.454 " />
<polyline points="808.358,415.666 806.096,417.928 803.833,421.323 801.57,425.848 800.439,431.505 800.439,436.03 801.57,441.687 803.833,446.213 806.096,449.607 808.358,451.869 " />
<polyline points="816.278,425.848 816.278,424.717 817.409,422.454 818.541,421.323 820.803,420.191 825.329,420.191 827.592,421.323 828.723,422.454 829.854,424.717 829.854,426.979 828.723,429.242 826.46,432.636 815.147,443.95 830.986,443.95 " />
<polyline points="851.35,420.191 840.037,420.191 838.905,430.373 840.037,429.242 843.431,428.111 846.825,428.111 850.219,429.242 852.482,431.505 853.613,434.899 853.613,437.162 852.482,440.556 850.219,442.819 846.825,443.95 843.431,443.95 840.037,442.819 838.905,441.687 837.774,439.424 " />
<polyline points="861.533,428.111 861.533,443.95 " />
<polyline points="861.533,432.636 864.927,429.242 867.19,428.111 870.584,428.111 872.846,429.242 873.978,432.636 873.978,443.95 " />
<polyline points="873.978,432.636 877.372,429.242 879.635,428.111 883.029,428.111 885.291,429.242 886.423,432.636 886.423,443.95 " />
<polyline points="895.474,428.111 895.474,443.95 " />
<polyline points="895.474,432.636 898.868,429.242 901.131,428.111 904.525,428.111 906.787,429.242 907.919,432.636 907.919,443.95 " />
<polyline points="907.919,432.636 911.313,429.242 913.576,428.111 916.97,428.111 919.233,429.242 920.364,432.636 920.364,443.95 " />
<polyline points="928.283,415.666 930.546,417.928 932.809,421.323 935.072,425.848 936.203,431.505 936.203,436.03 935.072,441.687 932.809,446.213 930.546,449.607 928.283,451.869 " />
<polyline points="736.914,435.053 756.088,435.053 " />
<polyline points="782.402,7.52941 782.402,31.2882 " />
<polyline points="782.402,7.52941 790.321,7.52941 793.715,8.66078 795.978,10.9235 797.109,13.1863 798.241,16.5804 798.241,22.2372 797.109,25.6313 795.978,27.894 793.715,30.1568 790.321,31.2882 782.402,31.2882 " />
<polyline points="813.263,28.3344 811.566,26.6373 809.869,25.7888 807.323,25.7888 805.626,26.6373 803.929,28.3344 803.08,30.88 803.08,32.577 803.929,35.1226 805.626,36.8196 807.323,37.6682 809.869,37.6682 811.566,36.8196 813.263,35.1226 " />
<polyline points="859.622,217.49 850.571,241.248 " />
<polyline points="859.622,217.49 868.673,241.248 " />
<polyline points="853.965,233.329 865.279,233.329 " />
<polyline points="885.928,233.855 884.231,232.158 882.534,231.31 879.988,231.31 878.291,232.158 876.594,233.855 875.746,236.401 875.746,238.098 876.594,240.644 878.291,242.341 879.988,243.189 882.534,243.189 884.231,242.341 885.928,240.644 " />
<polyline points="539.306,592.181 530.255,615.94 " />
<polyline points="539.306,592.181 548.357,615.94 " />
<polyline points="533.649,608.021 544.963,608.021 " />
<polyline points="557.676,612.013 557.676,629.832 " />
<polyline points="557.676,620.498 559.373,618.801 561.07,617.952 563.616,617.952 565.313,618.801 567.01,620.498 567.859,623.043 567.859,624.741 567.01,627.286 565.313,628.983 563.616,629.832 561.07,629.832 559.373,628.983 557.676,627.286 " />
<polyline points="697.537,57.7646 781.32,57.7646 " />
<polyline points="697.537,342.87 781.32,342.87 " />
<polyline points="759.382,91.9772 759.382,308.657 " />
</g>
<g clip-path="url(#clipId0)" fill="rgb(0,0,0)" stroke="rgb(0,0,0)" stroke-width="0.25" >
<path d="M765.084,91.9772 753.68,91.9772 759.382,57.7646 759.382,57.7646 z" />
<path d="M765.084,308.657 753.68,308.657 759.382,342.87 759.382,342.87 z" />
</g>
<g clip-path="url(#clipId0)" fill="none" stroke="rgb(0,0,0)" stroke-width="0.1" >
<polyline points="678.53,57.7646 678.53,57.7646 " />
<polyline points="678.53,342.87 678.53,342.87 " />
<polyline points="759.382,342.87 759.382,342.87 " />
</g>
<g clip-path="url(#clipId0)" fill="none" stroke="rgb(0,0,0)" stroke-width="0.25" >
<polyline points="697.537,342.87 791.353,342.87 " />
<polyline points="628.489,366.628 746.418,366.628 " />
<polyline points="736.914,400.841 736.914,435.053 " />
<polyline points="759.382,308.657 759.382,274.444 " />
</g>
<g clip-path="url(#clipId0)" fill="rgb(0,0,0)" stroke="rgb(0,0,0)" stroke-width="0.25" >
<path d="M742.617,400.841 731.212,400.841 736.914,366.628 736.914,366.628 z" />
<path d="M765.084,308.657 753.68,308.657 759.382,342.87 759.382,342.87 z" />
</g>
<g clip-path="url(#clipId0)" fill="none" stroke="rgb(0,0,0)" stroke-width="0.1" >
<polyline points="678.53,342.87 678.53,342.87 " />
<polyline points="609.482,366.628 609.482,366.628 " />
<polyline points="736.914,366.628 736.914,366.628 " />
</g>
<g clip-path="url(#clipId0)" fill="none" stroke="rgb(0,0,0)" stroke-width="0.25" >
<polyline points="607.254,433.153 607.254,506.642 " />
<polyline points="631.013,364.104 631.013,506.642 " />
<polyline points="665.226,497.139 699.438,497.139 " />
<polyline points="573.042,497.139 538.829,497.139 " />
</g>
<g clip-path="url(#clipId0)" fill="rgb(0,0,0)" stroke="rgb(0,0,0)" stroke-width="0.25" >
<path d="M665.226,502.841 665.226,491.437 631.013,497.139 631.013,497.139 z" />
<path d="M573.042,502.841 573.042,491.437 607.254,497.139 607.254,497.139 z" />
</g>
<g clip-path="url(#clipId0)" fill="none" stroke="rgb(0,0,0)" stroke-width="0.1" >
<polyline points="607.254,414.146 607.254,414.146 " />
<polyline points="631.013,345.097 631.013,345.097 " />
<polyline points="631.013,497.139 631.013,497.139 " />
</g>
<g clip-path="url(#clipId0)" fill="none" stroke="rgb(0,0,0)" stroke-width="0.25" >
<polyline points="417.184,433.153 417.184,506.642 " />
<polyline points="393.426,364.104 393.426,506.642 " />
<polyline points="359.213,497.139 325,497.139 " />
<polyline points="451.397,497.139 485.609,497.139 " />
</g>
<g clip-path="url(#clipId0)" fill="rgb(0,0,0)" stroke="rgb(0,0,0)" stroke-width="0.25" >
<path d="M359.213,502.841 359.213,491.437 393.426,497.139 393.426,497.139 z" />
<path d="M451.397,502.841 451.397,491.437 417.184,497.139 417.184,497.139 z" />
</g>
<g clip-path="url(#clipId0)" fill="none" stroke="rgb(0,0,0)" stroke-width="0.1" >
<polyline points="417.184,414.146 417.184,414.146 " />
<polyline points="393.426,345.097 393.426,345.097 " />
<polyline points="393.426,497.139 393.426,497.139 " />
</g>
<g clip-path="url(#clipId0)" fill="none" stroke="rgb(0,0,0)" stroke-width="0.25" >
<path d="M426.337,233.936  A92.2283,92.2283 0 0,0 478.6,286.2 " />
</g>
<g clip-path="url(#clipId0)" fill="rgb(0,0,0)" stroke="rgb(0,0,0)" stroke-width="0.25" >
<path d="M431.94,232.878 420.734,234.994 419.991,200.317 419.991,200.317 z" />
<path d="M479.658,280.597 477.543,291.803 512.219,292.545 512.219,292.545 z" />
</g>
<g clip-path="url(#clipId0)" fill="none" stroke="rgb(0,0,0)" stroke-width="0.1" >
<polyline points="440.943,200.317 440.943,200.317 " />
<polyline points="384.289,200.317 384.289,200.317 " />
<polyline points="512.219,271.593 512.219,271.593 " />
<polyline points="512.219,426.839 512.219,426.839 " />
<polyline points="607.254,414.146 607.254,414.146 " />
<polyline points="417.184,414.146 417.184,414.146 " />
<polyline points="417.184,497.139 417.184,497.139 " />
</g>
<g clip-path="url(#clipId0)" fill="none" stroke="rgb(0,0,0)" stroke-width="0.25" >
<polyline points="420.426,287.673 419.644,290.017 418.082,291.579 415.739,292.36 414.958,292.36 412.614,291.579 411.052,290.017 410.271,287.673 410.271,286.892 411.052,284.549 412.614,282.987 414.958,282.206 415.739,282.206 418.082,282.987 419.644,284.549 420.426,287.673 420.426,291.579 419.644,295.485 418.082,297.828 415.739,298.609 414.177,298.609 411.833,297.828 411.052,296.266 " />
<polyline points="430.58,282.206 428.237,282.987 426.674,285.33 425.893,289.236 425.893,291.579 426.674,295.485 428.237,297.828 430.58,298.609 432.142,298.609 434.485,297.828 436.048,295.485 436.829,291.579 436.829,289.236 436.048,285.33 434.485,282.987 432.142,282.206 430.58,282.206 " />
<polyline points="449.305,280.9 447.743,281.682 446.181,283.244 445.4,285.587 445.4,287.149 446.181,289.493 447.743,291.055 449.305,291.836 451.649,291.836 453.211,291.055 454.773,289.493 455.554,287.149 455.554,285.587 454.773,283.244 453.211,281.682 451.649,280.9 449.305,280.9 " />
<polyline points="538.829,497.139 485.609,497.139 " />
<polyline points="478.863,596.334 476.78,597.376 474.698,599.459 473.656,601.542 472.615,604.666 472.615,609.874 473.656,612.998 474.698,615.081 476.78,617.164 478.863,618.205 483.029,618.205 485.112,617.164 487.195,615.081 488.237,612.998 489.278,609.874 489.278,604.666 488.237,601.542 487.195,599.459 485.112,597.376 483.029,596.334 478.863,596.334 " />
<polyline points="481.988,614.04 488.237,620.288 " />
</g>
<g clip-path="url(#clipId0)" fill="rgb(0,0,0)" stroke="rgb(0,0,0)" stroke-width="0.25" >
<path d="M325.458,186.496 321.337,191.602 338.715,201.412 338.715,201.412 z" />
</g>
<g clip-path="url(#clipId0)" fill="none" stroke="rgb(0,0,0)" stroke-width="0.25" >
<polyline points="323.398,189.049 280.3,154.263 " />
<polyline points="280.3,154.263 258.429,154.263 " />
<polyline points="258.429,154.263 257.727,154.263 " />
<polyline points="86.4286,145.257 86.4286,164.941 " />
<polyline points="86.4286,145.257 94.8645,145.257 97.6765,146.194 98.6139,147.131 99.5512,149.006 99.5512,150.881 98.6139,152.755 97.6765,153.693 94.8645,154.63 " />
<polyline points="86.4286,154.63 94.8645,154.63 97.6765,155.567 98.6139,156.505 99.5512,158.379 99.5512,161.191 98.6139,163.066 97.6765,164.003 94.8645,164.941 86.4286,164.941 " />
<polyline points="106.113,145.257 106.113,164.941 117.36,164.941 " />
<polyline points="126.734,145.257 119.235,164.941 " />
<polyline points="126.734,145.257 134.232,164.941 " />
<polyline points="122.047,158.379 131.42,158.379 " />
<polyline points="138.919,145.257 138.919,164.941 " />
<polyline points="138.919,145.257 152.042,164.941 " />
<polyline points="152.042,145.257 152.042,164.941 " />
<polyline points="159.54,145.257 159.54,164.941 " />
<polyline points="172.663,145.257 159.54,158.379 " />
<polyline points="164.227,153.693 172.663,164.941 " />
<polyline points="203.595,145.257 201.72,146.194 199.845,148.069 198.908,149.943 197.971,152.755 197.971,157.442 198.908,160.254 199.845,162.129 201.72,164.003 203.595,164.941 207.344,164.941 209.219,164.003 211.093,162.129 212.031,160.254 212.968,157.442 212.968,152.755 212.031,149.943 211.093,148.069 209.219,146.194 207.344,145.257 203.595,145.257 " />
<polyline points="219.529,145.257 219.529,164.941 " />
<polyline points="219.529,145.257 231.715,145.257 " />
<polyline points="219.529,154.63 227.028,154.63 " />
<polyline points="236.401,145.257 236.401,164.941 " />
<polyline points="236.401,145.257 248.587,145.257 " />
<polyline points="236.401,154.63 243.9,154.63 " />
<polyline points="821.85,736.412 821.85,760.471 " />
<polyline points="821.85,736.412 836.744,736.412 " />
<polyline points="821.85,747.869 831.015,747.869 " />
<polyline points="821.85,760.471 836.744,760.471 " />
<polyline points="843.617,736.412 843.617,760.471 " />
<polyline points="843.617,736.412 851.637,736.412 855.074,737.558 857.365,739.849 858.51,742.141 859.656,745.577 859.656,751.306 858.51,754.742 857.365,757.034 855.074,759.325 851.637,760.471 843.617,760.471 " />
<polyline points="880.277,736.412 868.821,736.412 867.675,746.723 868.821,745.577 872.258,744.432 875.695,744.432 879.132,745.577 881.423,747.869 882.569,751.306 882.569,753.597 881.423,757.034 879.132,759.325 875.695,760.471 872.258,760.471 868.821,759.325 867.675,758.179 866.53,755.888 " />
<polyline points="890.588,750.16 911.209,750.16 " />
<polyline points="935.267,736.412 923.811,760.471 " />
<polyline points="919.229,736.412 935.267,736.412 " />
<polyline points="384.429,52.2969 345.908,52.2969 " />
<polyline points="340.44,57.7646 340.44,342.87 " />
<polyline points="345.908,348.337 384.429,348.337 " />
<polyline points="384.429,348.337 384.429,342.87 " />
<polyline points="345.908,348.337 340.44,348.337 " />
<polyline points="340.44,342.87 340.44,348.337 " />
<polyline points="345.908,52.2969 340.44,52.2969 " />
<polyline points="340.44,57.7646 340.44,52.2969 " />
<polyline points="384.199,52.3441 384.199,57.7646 " />
<polyline points="358.113,57.7646 346.072,57.7646 " />
<polyline points="370.972,342.87 390.456,342.87 " />
<polyline points="460.863,200.751 378.092,200.751 " />
<polyline points="583.495,200.317 570.334,200.751 " />
<polyline points="512.219,271.593 512.483,249.668 " />
<polyline points="346.942,342.87 346.942,331.494 " />
<polyline points="346.942,320.821 346.942,307.48 " />
<polyline points="346.942,294.139 346.942,279.019 " />
<polyline points="346.942,264.788 346.942,248.779 " />
<polyline points="346.942,233.659 346.942,215.871 " />
<polyline points="346.942,198.082 346.942,180.294 " />
<polyline points="346.052,164.285 346.052,148.276 " />
<polyline points="346.052,133.156 346.052,115.367 " />
<polyline points="346.052,97.5792 346.052,81.5699 " />
<polyline points="346.052,68.2287 346.052,57.7648 " />
</g>
</svg>
