<?xml version="1.0" standalone="no"?>
<svg viewBox="0 0 1024 768" version="1.1" xmlns="http://www.w3.org/2000/svg" xmlns:xlink="http://www.w3.org/1999/xlink" stroke-linecap="round" stroke-linejoin="round" fill-rule="evenodd" xml:space="preserve" >
<defs >
<clipPath id="clipId0" >
<path d="M0,768 1024,768 1024,0 0,0 z" />
</clipPath>
</defs>
<g clip-path="url(#clipId0)" fill="none" stroke="rgb(0,0,0)" stroke-width="0.1" />
<g clip-path="url(#clipId0)" fill="none" stroke="rgb(0,0,0)" stroke-width="0.25" >
<polyline points="235.282,586.117 215.609,597.475 " />
<polyline points="429.135,586.117 439.736,586.117 " />
<polyline points="241.775,694.289 261.449,682.93 " />
<path d="M429.135,586.117  A158.175,158.175 0 0,0 235.282,586.117 " />
<polyline points="465.482,440.727 442.765,440.727 " />
<polyline points="446.004,513.422 470.235,513.422 " />
<polyline points="447.627,519.48 468.612,507.364 " />
<polyline points="426.642,531.596 212.209,655.399 " />
<polyline points="421.772,513.422 144.445,513.422 " />
</g>
<g clip-path="url(#clipId0)" fill="rgb(0,0,0)" stroke="rgb(0,0,0)" stroke-width="0.25" >
<path d="M567.571,319.887 570.478,324.923 584.134,313.682 584.134,313.682 z" />
</g>
<g clip-path="url(#clipId0)" fill="none" stroke="rgb(0,0,0)" stroke-width="0.25" >
<polyline points="569.025,322.405 515.318,353.413 " />
<polyline points="465.482,586.117 465.482,440.727 " />
<polyline points="193.312,610.348 241.775,694.289 " />
<polyline points="442.765,586.117 442.765,440.727 " />
<polyline points="439.736,586.117 439.736,440.727 " />
<path d="M442.765,440.727  A1.57758,1.57758 0 0,0 439.736,440.727 " />
<polyline points="439.736,440.727 223.166,440.727 " />
<path d="M439.736,586.117  A1.57758,1.57758 0 0,0 442.765,586.117 " />
<polyline points="442.765,586.117 465.482,586.117 " />
<polyline points="223.166,586.117 235.282,586.117 " />
<polyline points="215.609,597.475 264.072,681.416 " />
<polyline points="212.986,598.99 261.449,682.93 " />
<path d="M215.609,597.475  A1.57758,1.57758 0 0,0 212.986,598.99 " />
<polyline points="212.986,598.99 193.312,610.348 " />
<path d="M261.449,682.93  A1.57758,1.57758 0 0,0 264.072,681.416 " />
<polyline points="264.072,681.416 429.135,586.117 " />
<polyline points="223.166,440.727 223.166,586.117 " />
<polyline points="150.472,464.959 150.472,561.885 " />
<polyline points="173.189,464.959 150.472,464.959 " />
<polyline points="150.472,561.885 173.189,561.885 " />
<polyline points="175.893,464.364 223.166,440.727 " />
<polyline points="175.893,562.48 223.166,586.117 " />
<polyline points="176.218,464.959 176.218,561.885 " />
<polyline points="173.189,464.959 173.189,561.885 " />
<path d="M176.218,464.959  A1.57758,1.57758 0 0,0 173.189,464.959 " />
<path d="M173.189,561.885  A1.57758,1.57758 0 0,0 176.218,561.885 " />
<polyline points="128.886,464.959 128.886,441.051 " />
<polyline points="128.886,441.051 121.904,441.051 " />
<polyline points="506.186,409.475 506.186,421.111 " />
<polyline points="506.186,409.475 510.065,409.475 511.727,410.029 512.836,411.137 513.39,412.245 513.944,413.908 513.944,416.678 513.39,418.34 512.836,419.449 511.727,420.557 510.065,421.111 506.186,421.111 " />
<polyline points="173.626,621.714 161.671,601.009 " />
<polyline points="161.671,601.009 154.689,601.009 " />
<polyline points="137.828,595.488 137.828,607.604 " />
<polyline points="137.828,595.488 141.866,595.488 143.597,596.065 144.751,597.219 145.328,598.373 145.905,600.104 145.905,602.989 145.328,604.719 144.751,605.873 143.597,607.027 141.866,607.604 137.828,607.604 " />
<polyline points="148.633,603.061 148.633,612.148 " />
<polyline points="148.633,607.388 149.498,606.522 150.364,606.09 151.662,606.09 152.527,606.522 153.393,607.388 153.825,608.686 153.825,609.551 153.393,610.849 152.527,611.715 151.662,612.148 150.364,612.148 149.498,611.715 148.633,610.849 " />
<polyline points="112.396,445.869 111.963,445.004 110.665,444.571 109.367,444.571 108.069,445.004 107.636,445.869 108.069,446.734 108.934,447.167 111.098,447.6 111.963,448.033 112.396,448.898 112.396,449.331 111.963,450.196 110.665,450.629 109.367,450.629 108.069,450.196 107.636,449.331 " />
<polyline points="96.6143,435.484 96.6143,447.6 " />
<polyline points="96.6143,435.484 100.653,435.484 102.384,436.061 103.538,437.215 104.114,438.369 104.691,440.1 104.691,442.984 104.114,444.715 103.538,445.869 102.384,447.023 100.653,447.6 96.6143,447.6 " />
<polyline points="488.409,416.819 495.391,416.819 " />
<polyline points="488.409,440.727 488.409,416.819 " />
<polyline points="264.423,536.209 265.531,535.655 267.193,533.993 267.193,545.629 " />
<polyline points="275.505,532.331 274.951,532.885 274.397,532.331 274.951,531.777 275.505,532.331 275.505,533.439 274.951,534.547 274.397,535.101 " />
<polyline points="278.829,532.331 278.275,532.885 277.721,532.331 278.275,531.777 278.829,532.331 278.829,533.439 278.275,534.547 277.721,535.101 " />
<polyline points="286.033,531.777 284.924,532.885 283.816,534.547 282.708,536.763 282.154,539.534 282.154,541.75 282.708,544.521 283.816,546.737 284.924,548.399 286.033,549.508 " />
<polyline points="289.911,536.763 289.911,536.209 290.465,535.101 291.019,534.547 292.128,533.993 294.344,533.993 295.452,534.547 296.006,535.101 296.56,536.209 296.56,537.317 296.006,538.426 294.898,540.088 289.357,545.629 297.114,545.629 " />
<polyline points="307.088,533.993 301.547,533.993 300.993,538.98 301.547,538.426 303.21,537.872 304.872,537.872 306.534,538.426 307.642,539.534 308.196,541.196 308.196,542.304 307.642,543.967 306.534,545.075 304.872,545.629 303.21,545.629 301.547,545.075 300.993,544.521 300.439,543.413 " />
<polyline points="312.075,537.872 312.075,545.629 " />
<polyline points="312.075,540.088 313.737,538.426 314.846,537.872 316.508,537.872 317.616,538.426 318.17,540.088 318.17,545.629 " />
<polyline points="318.17,540.088 319.832,538.426 320.941,537.872 322.603,537.872 323.711,538.426 324.265,540.088 324.265,545.629 " />
<polyline points="328.698,537.872 328.698,545.629 " />
<polyline points="328.698,540.088 330.36,538.426 331.468,537.872 333.131,537.872 334.239,538.426 334.793,540.088 334.793,545.629 " />
<polyline points="334.793,540.088 336.455,538.426 337.563,537.872 339.226,537.872 340.334,538.426 340.888,540.088 340.888,545.629 " />
<polyline points="344.767,531.777 345.875,532.885 346.983,534.547 348.091,536.763 348.645,539.534 348.645,541.75 348.091,544.521 346.983,546.737 345.875,548.399 344.767,549.508 " />
<polyline points="333.784,686.94 341.392,686.94 " />
<polyline points="353.147,683.826 353.147,683.272 353.701,682.164 354.255,681.61 355.364,681.056 357.58,681.056 358.688,681.61 359.242,682.164 359.796,683.272 359.796,684.38 359.242,685.488 358.134,687.151 352.593,692.692 360.35,692.692 " />
<polyline points="365.337,679.393 364.783,679.948 364.229,679.393 364.783,678.839 365.337,679.393 365.337,680.502 364.783,681.61 364.229,682.164 " />
<polyline points="368.662,679.393 368.108,679.948 367.554,679.393 368.108,678.839 368.662,679.393 368.662,680.502 368.108,681.61 367.554,682.164 " />
<polyline points="375.865,678.839 374.757,679.948 373.649,681.61 372.54,683.826 371.986,686.597 371.986,688.813 372.54,691.584 373.649,693.8 374.757,695.462 375.865,696.57 " />
<polyline points="385.839,681.056 380.298,681.056 379.744,686.043 380.298,685.488 381.96,684.934 383.622,684.934 385.285,685.488 386.393,686.597 386.947,688.259 386.947,689.367 386.393,691.029 385.285,692.138 383.622,692.692 381.96,692.692 380.298,692.138 379.744,691.584 379.19,690.475 " />
<polyline points="393.596,681.056 391.934,681.61 390.826,683.272 390.272,686.043 390.272,687.705 390.826,690.475 391.934,692.138 393.596,692.692 394.704,692.692 396.367,692.138 397.475,690.475 398.029,687.705 398.029,686.043 397.475,683.272 396.367,681.61 394.704,681.056 393.596,681.056 " />
<polyline points="401.908,684.934 401.908,692.692 " />
<polyline points="401.908,687.151 403.57,685.488 404.678,684.934 406.34,684.934 407.448,685.488 408.003,687.151 408.003,692.692 " />
<polyline points="408.003,687.151 409.665,685.488 410.773,684.934 412.435,684.934 413.544,685.488 414.098,687.151 414.098,692.692 " />
<polyline points="418.53,684.934 418.53,692.692 " />
<polyline points="418.53,687.151 420.193,685.488 421.301,684.934 422.963,684.934 424.071,685.488 424.625,687.151 424.625,692.692 " />
<polyline points="424.625,687.151 426.288,685.488 427.396,684.934 429.058,684.934 430.166,685.488 430.72,687.151 430.72,692.692 " />
<polyline points="434.599,678.839 435.707,679.948 436.816,681.61 437.924,683.826 438.478,686.597 438.478,688.813 437.924,691.584 436.816,693.8 435.707,695.462 434.599,696.57 " />
<polyline points="485.195,615.977 486.303,615.423 487.965,613.76 487.965,625.396 " />
<polyline points="496.277,612.098 495.723,612.652 495.168,612.098 495.723,611.544 496.277,612.098 496.277,613.206 495.723,614.314 495.168,614.869 " />
<polyline points="499.601,612.098 499.047,612.652 498.493,612.098 499.047,611.544 499.601,612.098 499.601,613.206 499.047,614.314 498.493,614.869 " />
<polyline points="506.804,611.544 505.696,612.652 504.588,614.314 503.48,616.531 502.926,619.301 502.926,621.518 503.48,624.288 504.588,626.505 505.696,628.167 506.804,629.275 " />
<polyline points="510.683,616.531 510.683,615.977 511.237,614.869 511.791,614.314 512.899,613.76 515.116,613.76 516.224,614.314 516.778,614.869 517.332,615.977 517.332,617.085 516.778,618.193 515.67,619.855 510.129,625.396 517.886,625.396 " />
<polyline points="527.86,613.76 522.319,613.76 521.765,618.747 522.319,618.193 523.981,617.639 525.644,617.639 527.306,618.193 528.414,619.301 528.968,620.964 528.968,622.072 528.414,623.734 527.306,624.842 525.644,625.396 523.981,625.396 522.319,624.842 521.765,624.288 521.211,623.18 " />
<polyline points="532.847,617.639 532.847,625.396 " />
<polyline points="532.847,619.855 534.509,618.193 535.617,617.639 537.28,617.639 538.388,618.193 538.942,619.855 538.942,625.396 " />
<polyline points="538.942,619.855 540.604,618.193 541.712,617.639 543.375,617.639 544.483,618.193 545.037,619.855 545.037,625.396 " />
<polyline points="549.47,617.639 549.47,625.396 " />
<polyline points="549.47,619.855 551.132,618.193 552.24,617.639 553.903,617.639 555.011,618.193 555.565,619.855 555.565,625.396 " />
<polyline points="555.565,619.855 557.227,618.193 558.335,617.639 559.998,617.639 561.106,618.193 561.66,619.855 561.66,625.396 " />
<polyline points="565.539,611.544 566.647,612.652 567.755,614.314 568.863,616.531 569.417,619.301 569.417,621.518 568.863,624.288 567.755,626.505 566.647,628.167 565.539,629.275 " />
<polyline points="176.435,390.739 176.435,402.375 " />
<polyline points="176.435,390.739 180.314,390.739 181.976,391.293 183.084,392.401 183.638,393.509 184.193,395.172 184.193,397.942 183.638,399.604 183.084,400.713 181.976,401.821 180.314,402.375 176.435,402.375 " />
<polyline points="199.707,397.388 209.681,397.388 " />
<polyline points="214.114,390.739 214.114,402.375 " />
<polyline points="214.114,390.739 217.992,390.739 219.655,391.293 220.763,392.401 221.317,393.509 221.871,395.172 221.871,397.942 221.317,399.604 220.763,400.713 219.655,401.821 217.992,402.375 214.114,402.375 " />
<polyline points="241.264,388.523 240.156,389.631 239.048,391.293 237.94,393.509 237.386,396.28 237.386,398.496 237.94,401.267 239.048,403.483 240.156,405.145 241.264,406.254 " />
<polyline points="246.251,392.955 247.359,392.401 249.022,390.739 249.022,402.375 " />
<polyline points="257.333,389.077 256.779,389.631 256.225,389.077 256.779,388.523 257.333,389.077 257.333,390.185 256.779,391.293 256.225,391.847 " />
<polyline points="260.658,389.077 260.104,389.631 259.549,389.077 260.104,388.523 260.658,389.077 260.658,390.185 260.104,391.293 259.549,391.847 " />
<polyline points="267.861,388.523 266.753,389.631 265.645,391.293 264.536,393.509 263.982,396.28 263.982,398.496 264.536,401.267 265.645,403.483 266.753,405.145 267.861,406.254 " />
<polyline points="271.74,393.509 271.74,392.955 272.294,391.847 272.848,391.293 273.956,390.739 276.172,390.739 277.281,391.293 277.835,391.847 278.389,392.955 278.389,394.064 277.835,395.172 276.726,396.834 271.185,402.375 278.943,402.375 " />
<polyline points="288.917,390.739 283.376,390.739 282.821,395.726 283.376,395.172 285.038,394.618 286.7,394.618 288.362,395.172 289.471,396.28 290.025,397.942 290.025,399.05 289.471,400.713 288.362,401.821 286.7,402.375 285.038,402.375 283.376,401.821 282.821,401.267 282.267,400.159 " />
<polyline points="293.903,394.618 293.903,402.375 " />
<polyline points="293.903,396.834 295.566,395.172 296.674,394.618 298.336,394.618 299.444,395.172 299.998,396.834 299.998,402.375 " />
<polyline points="299.998,396.834 301.661,395.172 302.769,394.618 304.431,394.618 305.539,395.172 306.093,396.834 306.093,402.375 " />
<polyline points="310.526,394.618 310.526,402.375 " />
<polyline points="310.526,396.834 312.189,395.172 313.297,394.618 314.959,394.618 316.067,395.172 316.621,396.834 316.621,402.375 " />
<polyline points="316.621,396.834 318.284,395.172 319.392,394.618 321.054,394.618 322.162,395.172 322.716,396.834 322.716,402.375 " />
<polyline points="326.595,388.523 327.703,389.631 328.811,391.293 329.92,393.509 330.474,396.28 330.474,398.496 329.92,401.267 328.811,403.483 327.703,405.145 326.595,406.254 " />
<polyline points="346.542,394.618 346.542,402.375 " />
<polyline points="346.542,396.834 348.205,395.172 349.313,394.618 350.975,394.618 352.083,395.172 352.637,396.834 352.637,402.375 " />
<polyline points="352.637,396.834 354.3,395.172 355.408,394.618 357.07,394.618 358.178,395.172 358.733,396.834 358.733,402.375 " />
<polyline points="362.611,391.293 363.165,391.847 363.719,391.293 363.165,390.739 362.611,391.293 " />
<polyline points="363.165,395.172 363.165,402.375 " />
<polyline points="367.598,394.618 367.598,402.375 " />
<polyline points="367.598,396.834 369.26,395.172 370.369,394.618 372.031,394.618 373.139,395.172 373.693,396.834 373.693,402.375 " />
<polyline points="378.68,401.267 378.126,401.821 378.68,402.375 379.234,401.821 378.68,401.267 " />
<polyline points="237.418,418.824 236.309,419.378 235.201,420.486 234.647,422.148 234.647,423.256 235.201,424.919 236.309,426.027 237.418,426.581 239.08,426.581 240.188,426.027 241.296,424.919 241.85,423.256 241.85,422.148 241.296,420.486 240.188,419.378 239.08,418.824 237.418,418.824 " />
<polyline points="245.729,418.824 245.729,426.581 " />
<polyline points="245.729,422.148 246.283,420.486 247.391,419.378 248.499,418.824 250.162,418.824 " />
<polyline points="265.676,417.161 266.785,416.607 268.447,414.945 268.447,426.581 " />
<polyline points="275.65,417.715 275.65,417.161 276.204,416.053 276.758,415.499 277.867,414.945 280.083,414.945 281.191,415.499 281.745,416.053 282.299,417.161 282.299,418.27 281.745,419.378 280.637,421.04 275.096,426.581 282.853,426.581 " />
<polyline points="287.84,413.283 287.286,413.837 286.732,413.283 287.286,412.729 287.84,413.283 287.84,414.391 287.286,415.499 286.732,416.053 " />
<polyline points="291.165,413.283 290.611,413.837 290.057,413.283 290.611,412.729 291.165,413.283 291.165,414.391 290.611,415.499 290.057,416.053 " />
<polyline points="298.368,412.729 297.26,413.837 296.152,415.499 295.043,417.715 294.489,420.486 294.489,422.702 295.043,425.473 296.152,427.689 297.26,429.351 298.368,430.46 " />
<polyline points="302.801,414.945 308.896,414.945 305.571,419.378 307.234,419.378 308.342,419.932 308.896,420.486 309.45,422.148 309.45,423.256 308.896,424.919 307.788,426.027 306.125,426.581 304.463,426.581 302.801,426.027 302.247,425.473 301.693,424.365 " />
<polyline points="316.099,414.945 314.437,415.499 313.329,417.161 312.775,419.932 312.775,421.594 313.329,424.365 314.437,426.027 316.099,426.581 317.207,426.581 318.87,426.027 319.978,424.365 320.532,421.594 320.532,419.932 319.978,417.161 318.87,415.499 317.207,414.945 316.099,414.945 " />
<polyline points="327.181,414.945 325.519,415.499 324.411,417.161 323.856,419.932 323.856,421.594 324.411,424.365 325.519,426.027 327.181,426.581 328.289,426.581 329.951,426.027 331.06,424.365 331.614,421.594 331.614,419.932 331.06,417.161 329.951,415.499 328.289,414.945 327.181,414.945 " />
<polyline points="335.492,418.824 335.492,426.581 " />
<polyline points="335.492,421.04 337.155,419.378 338.263,418.824 339.925,418.824 341.033,419.378 341.587,421.04 341.587,426.581 " />
<polyline points="341.587,421.04 343.25,419.378 344.358,418.824 346.02,418.824 347.128,419.378 347.683,421.04 347.683,426.581 " />
<polyline points="352.115,418.824 352.115,426.581 " />
<polyline points="352.115,421.04 353.778,419.378 354.886,418.824 356.548,418.824 357.656,419.378 358.21,421.04 358.21,426.581 " />
<polyline points="358.21,421.04 359.873,419.378 360.981,418.824 362.643,418.824 363.751,419.378 364.305,421.04 364.305,426.581 " />
<polyline points="368.184,412.729 369.292,413.837 370.4,415.499 371.509,417.715 372.063,420.486 372.063,422.702 371.509,425.473 370.4,427.689 369.292,429.351 368.184,430.46 " />
<polyline points="388.131,418.824 388.131,426.581 " />
<polyline points="388.131,421.04 389.794,419.378 390.902,418.824 392.564,418.824 393.672,419.378 394.227,421.04 394.227,426.581 " />
<polyline points="394.227,421.04 395.889,419.378 396.997,418.824 398.659,418.824 399.767,419.378 400.322,421.04 400.322,426.581 " />
<polyline points="410.849,418.824 410.849,426.581 " />
<polyline points="410.849,420.486 409.741,419.378 408.633,418.824 406.971,418.824 405.863,419.378 404.754,420.486 404.2,422.148 404.2,423.256 404.754,424.919 405.863,426.027 406.971,426.581 408.633,426.581 409.741,426.027 410.849,424.919 " />
<polyline points="414.728,418.824 420.823,426.581 " />
<polyline points="420.823,418.824 414.728,426.581 " />
<polyline points="425.256,425.473 424.702,426.027 425.256,426.581 425.81,426.027 425.256,425.473 " />
<polyline points="429.689,412.729 430.797,413.837 431.905,415.499 433.013,417.715 433.567,420.486 433.567,422.702 433.013,425.473 431.905,427.689 430.797,429.351 429.689,430.46 " />
<polyline points="190.996,401.041 190.131,400.175 189.265,399.742 187.967,399.742 187.102,400.175 186.236,401.041 185.804,402.339 185.804,403.204 186.236,404.502 187.102,405.368 187.967,405.8 189.265,405.8 190.131,405.368 190.996,404.502 " />
<polyline points="230.057,401.041 229.624,400.175 228.326,399.742 227.028,399.742 225.729,400.175 225.297,401.041 225.729,401.906 226.595,402.339 228.758,402.771 229.624,403.204 230.057,404.07 230.057,404.502 229.624,405.368 228.326,405.8 227.028,405.8 225.729,405.368 225.297,404.502 " />
<polyline points="429.135,595.809 429.135,625.59 " />
<polyline points="441.251,596.945 441.251,625.59 " />
<polyline points="458.697,620.744 476.144,620.744 " />
<polyline points="411.688,620.744 394.241,620.744 " />
</g>
<g clip-path="url(#clipId0)" fill="rgb(0,0,0)" stroke="rgb(0,0,0)" stroke-width="0.25" >
<path d="M458.697,623.652 458.697,617.836 441.251,620.744 441.251,620.744 z" />
<path d="M411.688,623.652 411.688,617.836 429.135,620.744 429.135,620.744 z" />
</g>
<g clip-path="url(#clipId0)" fill="none" stroke="rgb(0,0,0)" stroke-width="0.1" >
<polyline points="429.135,586.117 429.135,586.117 " />
<polyline points="441.251,587.253 441.251,587.253 " />
<polyline points="441.251,620.744 441.251,620.744 " />
</g>
<g clip-path="url(#clipId0)" fill="none" stroke="rgb(0,0,0)" stroke-width="0.25" >
<polyline points="268.174,691.551 285.004,720.7 " />
<polyline points="240.129,594.511 305.989,708.584 " />
<polyline points="318.675,695.664 333.784,686.94 " />
<polyline points="267.471,725.226 252.362,733.949 " />
</g>
<g clip-path="url(#clipId0)" fill="rgb(0,0,0)" stroke="rgb(0,0,0)" stroke-width="0.25" >
<path d="M320.129,698.182 317.221,693.145 303.566,704.387 303.566,704.387 z" />
<path d="M268.925,727.744 266.017,722.708 282.58,716.503 282.58,716.503 z" />
</g>
<g clip-path="url(#clipId0)" fill="none" stroke="rgb(0,0,0)" stroke-width="0.1" >
<polyline points="263.328,683.157 263.328,683.157 " />
<polyline points="235.282,586.117 235.282,586.117 " />
<polyline points="303.566,704.387 303.566,704.387 " />
</g>
<g clip-path="url(#clipId0)" fill="none" stroke="rgb(0,0,0)" stroke-width="0.25" >
<polyline points="184.918,615.195 169.429,624.137 " />
<polyline points="233.381,699.135 217.892,708.078 " />
<polyline points="182.349,636.824 213.365,690.546 " />
</g>
<g clip-path="url(#clipId0)" fill="rgb(0,0,0)" stroke="rgb(0,0,0)" stroke-width="0.25" >
<path d="M179.831,638.277 184.867,635.37 173.626,621.714 173.626,621.714 z" />
<path d="M210.847,691.999 215.884,689.092 222.089,705.655 222.089,705.655 z" />
</g>
<g clip-path="url(#clipId0)" fill="none" stroke="rgb(0,0,0)" stroke-width="0.1" >
<polyline points="193.312,610.348 193.312,610.348 " />
<polyline points="241.775,694.289 241.775,694.289 " />
<polyline points="222.089,705.655 222.089,705.655 " />
</g>
<g clip-path="url(#clipId0)" fill="none" stroke="rgb(0,0,0)" stroke-width="0.25" >
<polyline points="140.779,464.959 124.04,464.959 " />
<polyline points="140.779,561.885 124.04,561.885 " />
<polyline points="128.886,482.406 128.886,544.438 " />
</g>
<g clip-path="url(#clipId0)" fill="rgb(0,0,0)" stroke="rgb(0,0,0)" stroke-width="0.25" >
<path d="M131.794,482.406 125.978,482.406 128.886,464.959 128.886,464.959 z" />
<path d="M131.794,544.438 125.978,544.438 128.886,561.885 128.886,561.885 z" />
</g>
<g clip-path="url(#clipId0)" fill="none" stroke="rgb(0,0,0)" stroke-width="0.1" >
<polyline points="150.472,464.959 150.472,464.959 " />
<polyline points="150.472,561.885 150.472,561.885 " />
<polyline points="128.886,561.885 128.886,561.885 " />
</g>
<g clip-path="url(#clipId0)" fill="none" stroke="rgb(0,0,0)" stroke-width="0.25" >
<polyline points="223.166,431.035 223.166,408.634 " />
<polyline points="174.703,454.13 174.703,408.634 " />
</g>
<g clip-path="url(#clipId0)" fill="none" stroke="rgb(255,255,0)" stroke-width="0.25" >
<polyline points="205.72,413.48 192.15,413.48 " />
</g>
<g clip-path="url(#clipId0)" fill="rgb(0,0,0)" stroke="rgb(0,0,0)" stroke-width="0.25" >
<path d="M205.72,416.388 205.72,410.572 223.166,413.48 223.166,413.48 z" />
<path d="M192.15,416.388 192.15,410.572 174.703,413.48 174.703,413.48 z" />
</g>
<g clip-path="url(#clipId0)" fill="none" stroke="rgb(0,0,0)" stroke-width="0.1" >
<polyline points="223.166,440.727 223.166,440.727 " />
<polyline points="174.703,463.823 174.703,463.823 " />
<polyline points="174.703,413.48 174.703,413.48 " />
</g>
<g clip-path="url(#clipId0)" fill="none" stroke="rgb(0,0,0)" stroke-width="0.25" >
<path d="M406.626,563.148  A71.5838,71.5838 0 0,0 420.184,574.127 " />
<path d="M394.914,479.817  A71.5838,71.5838 0 0,0 388.662,496.105 " />
</g>
<g clip-path="url(#clipId0)" fill="rgb(0,0,0)" stroke="rgb(0,0,0)" stroke-width="0.25" >
<path d="M408.948,561.398 404.303,564.898 396.126,549.214 396.126,549.214 z" />
<path d="M391.548,496.46 385.776,495.751 386.536,513.422 386.536,513.422 z" />
</g>
<g clip-path="url(#clipId0)" fill="none" stroke="rgb(0,0,0)" stroke-width="0.1" >
<polyline points="421.772,513.422 421.772,513.422 " />
<polyline points="210.742,513.422 210.742,513.422 " />
<polyline points="426.642,531.596 426.642,531.596 " />
<polyline points="219.326,651.29 219.326,651.29 " />
</g>
<g clip-path="url(#clipId0)" fill="none" stroke="rgb(0,0,0)" stroke-width="0.25" >
<polyline points="475.175,440.727 493.255,440.727 " />
<polyline points="475.175,586.117 493.255,586.117 " />
<polyline points="488.409,458.174 488.409,568.67 " />
</g>
<g clip-path="url(#clipId0)" fill="rgb(0,0,0)" stroke="rgb(0,0,0)" stroke-width="0.25" >
<path d="M491.316,458.174 485.501,458.174 488.409,440.727 488.409,440.727 z" />
<path d="M491.316,568.67 485.501,568.67 488.409,586.117 488.409,586.117 z" />
</g>
<g clip-path="url(#clipId0)" fill="none" stroke="rgb(0,0,0)" stroke-width="0.1" >
<polyline points="465.482,440.727 465.482,440.727 " />
<polyline points="465.482,586.117 465.482,586.117 " />
<polyline points="488.409,586.117 488.409,586.117 " />
</g>
<g clip-path="url(#clipId0)" fill="none" stroke="rgb(0,0,0)" stroke-width="0.25" >
<polyline points="235.282,576.424 235.282,544.09 " />
<polyline points="223.166,558.629 223.166,553.782 " />
<polyline points="205.72,548.936 188.273,548.936 " />
<polyline points="252.729,548.936 270.176,548.936 " />
</g>
<g clip-path="url(#clipId0)" fill="rgb(0,0,0)" stroke="rgb(0,0,0)" stroke-width="0.25" >
<path d="M205.72,551.844 205.72,546.028 223.166,548.936 223.166,548.936 z" />
<path d="M252.729,551.844 252.729,546.028 235.282,548.936 235.282,548.936 z" />
</g>
<g clip-path="url(#clipId0)" fill="none" stroke="rgb(0,0,0)" stroke-width="0.1" >
<polyline points="235.282,586.117 235.282,586.117 " />
<polyline points="223.166,548.936 223.166,548.936 " />
<polyline points="223.166,548.936 223.166,548.936 " />
</g>
<g clip-path="url(#clipId0)" fill="none" stroke="rgb(0,0,0)" stroke-width="0.25" >
<polyline points="395.273,466.073 400.295,466.073 397.556,469.725 398.926,469.725 399.839,470.181 400.295,470.638 400.752,472.007 400.752,472.92 400.295,474.29 399.382,475.203 398.013,475.659 396.643,475.659 395.273,475.203 394.817,474.746 394.36,473.833 " />
<polyline points="406.23,466.073 404.86,466.529 403.947,467.899 403.491,470.181 403.491,471.551 403.947,473.833 404.86,475.203 406.23,475.659 407.143,475.659 408.512,475.203 409.425,473.833 409.882,471.551 409.882,470.181 409.425,467.899 408.512,466.529 407.143,466.073 406.23,466.073 " />
<polyline points="417.973,461.827 417.06,462.283 416.147,463.196 415.69,464.566 415.69,465.479 416.147,466.848 417.06,467.761 417.973,468.218 419.342,468.218 420.255,467.761 421.168,466.848 421.625,465.479 421.625,464.566 421.168,463.196 420.255,462.283 419.342,461.827 417.973,461.827 " />
<polyline points="525.381,422.681 524.468,421.768 523.555,421.312 522.186,421.312 521.273,421.768 520.36,422.681 519.903,424.051 519.903,424.964 520.36,426.333 521.273,427.247 522.186,427.703 523.555,427.703 524.468,427.247 525.381,426.333 " />
<polyline points="637.735,213.047 613.848,226.839 " />
<polyline points="822.143,242.468 835.015,242.468 " />
<polyline points="645.618,344.385 669.505,330.594 " />
<polyline points="866.275,65.9428 838.693,65.9428 " />
<polyline points="842.625,154.206 872.046,154.206 " />
<polyline points="844.596,161.561 870.075,146.85 " />
<polyline points="819.116,176.271 610.776,296.557 " />
<polyline points="813.204,154.206 584.225,154.206 " />
<polyline points="866.275,242.468 866.275,65.9428 " />
<polyline points="586.776,242.468 645.618,344.385 " />
<polyline points="838.693,242.468 838.693,65.9428 " />
<polyline points="835.015,242.468 835.015,65.9428 " />
<path d="M838.693,65.9428  A1.91542,1.91542 0 0,0 835.015,65.9428 " />
<path d="M835.015,242.468  A1.91542,1.91542 0 0,0 838.693,242.468 " />
<polyline points="838.693,242.468 866.275,242.468 " />
<polyline points="613.848,226.839 672.69,328.756 " />
<polyline points="610.663,228.677 669.505,330.594 " />
<path d="M613.848,226.839  A1.91542,1.91542 0 0,0 610.663,228.677 " />
<polyline points="610.663,228.677 586.776,242.468 " />
<path d="M669.505,330.594  A1.91542,1.91542 0 0,0 672.69,328.756 " />
<polyline points="672.69,328.756 822.143,242.468 " />
<polyline points="593.603,95.3638 593.603,213.047 " />
<polyline points="621.185,95.3638 593.603,95.3638 " />
<polyline points="593.603,213.047 621.185,213.047 " />
<polyline points="624.863,95.3638 624.863,213.047 " />
<polyline points="621.185,95.3638 621.185,213.047 " />
<path d="M624.863,95.3638  A1.91542,1.91542 0 0,0 621.185,95.3638 " />
<path d="M621.185,213.047  A1.91542,1.91542 0 0,0 624.863,213.047 " />
<polyline points="567.395,95.3638 567.395,66.3355 " />
<polyline points="567.395,66.3355 558.917,66.3355 " />
<polyline points="538.445,59.6325 538.445,74.3429 " />
<polyline points="538.445,59.6325 543.348,59.6325 545.45,60.333 546.851,61.734 547.551,63.135 548.252,65.2365 548.252,68.7389 547.551,70.8404 546.851,72.2414 545.45,73.6424 543.348,74.3429 538.445,74.3429 " />
<polyline points="557.606,72.2414 557.08,71.1907 555.504,70.6653 553.928,70.6653 552.352,71.1907 551.827,72.2414 552.352,73.2922 553.403,73.8176 556.03,74.3429 557.08,74.8683 557.606,75.919 557.606,76.4444 557.08,77.4952 555.504,78.0205 553.928,78.0205 552.352,77.4952 551.827,76.4444 " />
<polyline points="562.874,256.268 548.36,231.129 " />
<polyline points="548.36,231.129 539.882,231.129 " />
<polyline points="519.409,224.426 519.409,239.137 " />
<polyline points="519.409,224.426 524.313,224.426 526.414,225.127 527.815,226.528 528.516,227.929 529.216,230.03 529.216,233.533 528.516,235.634 527.815,237.035 526.414,238.436 524.313,239.137 519.409,239.137 " />
<polyline points="532.529,233.62 532.529,244.653 " />
<polyline points="532.529,238.874 533.579,237.823 534.63,237.298 536.206,237.298 537.257,237.823 538.308,238.874 538.833,240.45 538.833,241.501 538.308,243.077 537.257,244.128 536.206,244.653 534.63,244.653 533.579,244.128 532.529,243.077 " />
<polyline points="906.778,30.2115 906.778,44.922 " />
<polyline points="906.778,30.2115 911.681,30.2115 913.783,30.912 915.184,32.313 915.884,33.714 916.585,35.8155 916.585,39.318 915.884,41.4195 915.184,42.8205 913.783,44.2215 911.681,44.922 906.778,44.922 " />
<polyline points="894.111,36.9146 902.589,36.9146 " />
<polyline points="894.111,65.9428 894.111,36.9146 " />
<polyline points="757.331,335.463 766.569,335.463 " />
<polyline points="624.863,213.047 637.735,213.047 " />
<path d="M822.143,242.468  A204.283,204.283 0 0,0 637.735,213.047 " />
<polyline points="624.775,95.1229 835.015,66.1959 " />
<polyline points="822.143,254.237 822.143,290.396 " />
<polyline points="836.854,255.616 836.854,290.396 " />
<polyline points="858.037,284.511 879.22,284.511 " />
<polyline points="800.96,284.511 779.777,284.511 " />
</g>
<g clip-path="url(#clipId0)" fill="rgb(0,0,0)" stroke="rgb(0,0,0)" stroke-width="0.25" >
<path d="M858.037,288.042 858.037,280.981 836.854,284.511 836.854,284.511 z" />
<path d="M800.96,288.042 800.96,280.981 822.143,284.511 822.143,284.511 z" />
</g>
<g clip-path="url(#clipId0)" fill="none" stroke="rgb(0,0,0)" stroke-width="0.1" >
<polyline points="836.854,284.511 836.854,284.511 " />
</g>
<g clip-path="url(#clipId0)" fill="none" stroke="rgb(0,0,0)" stroke-width="0.25" >
<polyline points="675.946,338.553 696.379,373.945 " />
<polyline points="643.619,223.239 723.583,361.742 " />
<polyline points="738.986,346.055 757.331,335.463 " />
<polyline points="676.817,381.948 658.472,392.54 " />
</g>
<g clip-path="url(#clipId0)" fill="rgb(0,0,0)" stroke="rgb(0,0,0)" stroke-width="0.25" >
<path d="M740.752,349.112 737.221,342.997 720.641,356.646 720.641,356.646 z" />
<path d="M678.582,385.006 675.052,378.891 695.162,371.357 695.162,371.357 z" />
</g>
<g clip-path="url(#clipId0)" fill="none" stroke="rgb(0,0,0)" stroke-width="0.1" >
<polyline points="637.735,213.047 637.735,213.047 " />
<polyline points="720.641,356.646 720.641,356.646 " />
</g>
<g clip-path="url(#clipId0)" fill="none" stroke="rgb(0,0,0)" stroke-width="0.25" >
<polyline points="576.584,248.353 557.778,259.21 " />
<polyline points="635.426,350.27 616.62,361.128 " />
<polyline points="573.465,274.613 611.124,339.84 " />
</g>
<g clip-path="url(#clipId0)" fill="rgb(0,0,0)" stroke="rgb(0,0,0)" stroke-width="0.25" >
<path d="M570.408,276.379 576.523,272.848 562.874,256.268 562.874,256.268 z" />
<path d="M608.067,341.606 614.182,338.075 621.716,358.185 621.716,358.185 z" />
</g>
<g clip-path="url(#clipId0)" fill="none" stroke="rgb(0,0,0)" stroke-width="0.25" >
<polyline points="637.735,201.279 637.735,179.486 " />
<polyline points="658.918,185.37 680.101,185.37 " />
<polyline points="601.841,185.37 580.658,185.37 " />
</g>
<g clip-path="url(#clipId0)" fill="rgb(0,0,0)" stroke="rgb(0,0,0)" stroke-width="0.25" >
<path d="M658.918,188.9 658.918,181.839 637.735,185.37 637.735,185.37 z" />
<path d="M601.841,188.9 601.841,181.839 623.024,185.37 623.024,185.37 z" />
</g>
<g clip-path="url(#clipId0)" fill="none" stroke="rgb(0,0,0)" stroke-width="0.1" >
<polyline points="637.735,185.37 637.735,185.37 " />
</g>
<g clip-path="url(#clipId0)" fill="none" stroke="rgb(0,0,0)" stroke-width="0.25" >
<polyline points="581.835,95.3638 561.511,95.3638 " />
<polyline points="581.835,213.047 561.511,213.047 " />
<polyline points="567.395,116.547 567.395,191.864 " />
</g>
<g clip-path="url(#clipId0)" fill="rgb(0,0,0)" stroke="rgb(0,0,0)" stroke-width="0.25" >
<path d="M570.925,116.547 563.864,116.547 567.395,95.3638 567.395,95.3638 z" />
<path d="M570.925,191.864 563.864,191.864 567.395,213.047 567.395,213.047 z" />
</g>
<g clip-path="url(#clipId0)" fill="none" stroke="rgb(0,0,0)" stroke-width="0.25" >
<path d="M794.814,214.58  A86.914,86.914 0 0,0 811.276,227.912 " />
<path d="M780.594,113.404  A86.914,86.914 0 0,0 773.003,133.18 " />
</g>
<g clip-path="url(#clipId0)" fill="rgb(0,0,0)" stroke="rgb(0,0,0)" stroke-width="0.25" >
<path d="M797.633,212.456 791.994,216.705 782.066,197.663 782.066,197.663 z" />
<path d="M776.507,133.611 769.499,132.75 770.421,154.206 770.421,154.206 z" />
</g>
<g clip-path="url(#clipId0)" fill="none" stroke="rgb(0,0,0)" stroke-width="0.25" >
<polyline points="878.043,65.9428 899.995,65.9428 " />
<polyline points="878.043,242.468 899.995,242.468 " />
<polyline points="894.111,87.1259 894.111,221.285 " />
</g>
<g clip-path="url(#clipId0)" fill="rgb(0,0,0)" stroke="rgb(0,0,0)" stroke-width="0.25" >
<path d="M897.642,87.1259 890.581,87.1259 894.111,65.9428 894.111,65.9428 z" />
<path d="M897.642,221.285 890.581,221.285 894.111,242.468 894.111,242.468 z" />
</g>
<g clip-path="url(#clipId0)" fill="none" stroke="rgb(0,0,0)" stroke-width="0.25" >
<polyline points="773.76,332.049 773.76,331.501 774.307,330.405 774.855,329.857 775.951,329.309 778.142,329.309 779.238,329.857 779.785,330.405 780.333,331.501 780.333,332.596 779.785,333.692 778.69,335.335 773.212,340.814 780.881,340.814 " />
<polyline points="784.168,329.857 784.716,330.405 785.264,329.857 784.716,329.309 784.168,329.857 " />
<polyline points="784.716,333.692 784.716,340.814 " />
<polyline points="789.098,333.144 789.098,340.814 " />
<polyline points="789.098,335.335 790.742,333.692 791.837,333.144 793.481,333.144 794.576,333.692 795.124,335.335 795.124,340.814 " />
<polyline points="800.054,339.718 799.507,340.266 800.054,340.814 800.602,340.266 800.054,339.718 " />
<polyline points="808.819,327.118 807.724,328.214 806.628,329.857 805.533,332.049 804.985,334.788 804.985,336.979 805.533,339.718 806.628,341.909 807.724,343.553 808.819,344.648 " />
<polyline points="818.68,329.309 813.202,329.309 812.654,334.24 813.202,333.692 814.845,333.144 816.489,333.144 818.132,333.692 819.228,334.788 819.776,336.431 819.776,337.527 819.228,339.17 818.132,340.266 816.489,340.814 814.845,340.814 813.202,340.266 812.654,339.718 812.106,338.622 " />
<polyline points="826.349,329.309 824.706,329.857 823.61,331.501 823.063,334.24 823.063,335.883 823.61,338.622 824.706,340.266 826.349,340.814 827.445,340.814 829.088,340.266 830.184,338.622 830.732,335.883 830.732,334.24 830.184,331.501 829.088,329.857 827.445,329.309 826.349,329.309 " />
<polyline points="834.567,333.144 834.567,340.814 " />
<polyline points="834.567,335.335 836.21,333.692 837.306,333.144 838.949,333.144 840.045,333.692 840.593,335.335 840.593,340.814 " />
<polyline points="840.593,335.335 842.236,333.692 843.332,333.144 844.975,333.144 846.071,333.692 846.618,335.335 846.618,340.814 " />
<polyline points="851.001,333.144 851.001,340.814 " />
<polyline points="851.001,335.335 852.644,333.692 853.74,333.144 855.383,333.144 856.479,333.692 857.027,335.335 857.027,340.814 " />
<polyline points="857.027,335.335 858.67,333.692 859.766,333.144 861.409,333.144 862.505,333.692 863.053,335.335 863.053,340.814 " />
<polyline points="866.887,327.118 867.983,328.214 869.079,329.857 870.174,332.049 870.722,334.788 870.722,336.979 870.174,339.718 869.079,341.909 867.983,343.553 866.887,344.648 " />
<polyline points="888.118,280.996 889.213,280.448 890.857,278.804 890.857,290.308 " />
<polyline points="897.431,279.352 897.978,279.9 898.526,279.352 897.978,278.804 897.431,279.352 " />
<polyline points="897.978,283.187 897.978,290.308 " />
<polyline points="902.361,282.639 902.361,290.308 " />
<polyline points="902.361,284.83 904.004,283.187 905.1,282.639 906.743,282.639 907.839,283.187 908.387,284.83 908.387,290.308 " />
<polyline points="913.317,289.213 912.769,289.761 913.317,290.308 913.865,289.761 913.317,289.213 " />
<polyline points="922.082,276.613 920.986,277.709 919.891,279.352 918.795,281.543 918.247,284.282 918.247,286.474 918.795,289.213 919.891,291.404 920.986,293.047 922.082,294.143 " />
<polyline points="925.917,281.543 925.917,280.996 926.465,279.9 927.012,279.352 928.108,278.804 930.299,278.804 931.395,279.352 931.943,279.9 932.491,280.996 932.491,282.091 931.943,283.187 930.847,284.83 925.369,290.308 933.038,290.308 " />
<polyline points="942.899,278.804 937.421,278.804 936.873,283.735 937.421,283.187 939.064,282.639 940.708,282.639 942.351,283.187 943.447,284.282 943.995,285.926 943.995,287.022 943.447,288.665 942.351,289.761 940.708,290.308 939.064,290.308 937.421,289.761 936.873,289.213 936.325,288.117 " />
<polyline points="947.829,282.639 947.829,290.308 " />
<polyline points="947.829,284.83 949.473,283.187 950.568,282.639 952.212,282.639 953.307,283.187 953.855,284.83 953.855,290.308 " />
<polyline points="953.855,284.83 955.499,283.187 956.594,282.639 958.238,282.639 959.333,283.187 959.881,284.83 959.881,290.308 " />
<polyline points="964.264,282.639 964.264,290.308 " />
<polyline points="964.264,284.83 965.907,283.187 967.003,282.639 968.646,282.639 969.742,283.187 970.289,284.83 970.289,290.308 " />
<polyline points="970.289,284.83 971.933,283.187 973.029,282.639 974.672,282.639 975.768,283.187 976.315,284.83 976.315,290.308 " />
<polyline points="980.15,276.613 981.246,277.709 982.341,279.352 983.437,281.543 983.985,284.282 983.985,286.474 983.437,289.213 982.341,291.404 981.246,293.047 980.15,294.143 " />
<polyline points="674.263,169.084 675.359,168.536 677.003,166.893 677.003,178.397 " />
<polyline points="683.576,167.441 684.124,167.988 684.672,167.441 684.124,166.893 683.576,167.441 " />
<polyline points="684.124,171.275 684.124,178.397 " />
<polyline points="688.507,170.727 688.507,178.397 " />
<polyline points="688.507,172.919 690.15,171.275 691.246,170.727 692.889,170.727 693.985,171.275 694.532,172.919 694.532,178.397 " />
<polyline points="699.463,177.301 698.915,177.849 699.463,178.397 700.011,177.849 699.463,177.301 " />
<polyline points="708.228,164.701 707.132,165.797 706.037,167.441 704.941,169.632 704.393,172.371 704.393,174.562 704.941,177.301 706.037,179.492 707.132,181.136 708.228,182.231 " />
<polyline points="712.062,169.632 712.062,169.084 712.61,167.988 713.158,167.441 714.254,166.893 716.445,166.893 717.541,167.441 718.088,167.988 718.636,169.084 718.636,170.18 718.088,171.275 716.993,172.919 711.515,178.397 719.184,178.397 " />
<polyline points="729.045,166.893 723.566,166.893 723.019,171.823 723.566,171.275 725.21,170.727 726.853,170.727 728.497,171.275 729.592,172.371 730.14,174.014 730.14,175.11 729.592,176.753 728.497,177.849 726.853,178.397 725.21,178.397 723.566,177.849 723.019,177.301 722.471,176.206 " />
<polyline points="733.975,170.727 733.975,178.397 " />
<polyline points="733.975,172.919 735.618,171.275 736.714,170.727 738.357,170.727 739.453,171.275 740.001,172.919 740.001,178.397 " />
<polyline points="740.001,172.919 741.644,171.275 742.74,170.727 744.383,170.727 745.479,171.275 746.027,172.919 746.027,178.397 " />
<polyline points="750.409,170.727 750.409,178.397 " />
<polyline points="750.409,172.919 752.053,171.275 753.148,170.727 754.792,170.727 755.887,171.275 756.435,172.919 756.435,178.397 " />
<polyline points="756.435,172.919 758.079,171.275 759.174,170.727 760.818,170.727 761.913,171.275 762.461,172.919 762.461,178.397 " />
<polyline points="766.296,164.701 767.391,165.797 768.487,167.441 769.583,169.632 770.13,172.371 770.13,174.562 769.583,177.301 768.487,179.492 767.391,181.136 766.296,182.231 " />
<polyline points="929.943,44.3394 928.848,43.2438 927.752,42.696 926.108,42.696 925.013,43.2438 923.917,44.3394 923.369,45.9829 923.369,47.0785 923.917,48.7219 925.013,49.8175 926.108,50.3654 927.752,50.3654 928.848,49.8175 929.943,48.7219 " />
<polyline points="772.109,93.693 778.135,93.693 774.848,98.0755 776.492,98.0755 777.587,98.6233 778.135,99.1711 778.683,100.815 778.683,101.91 778.135,103.554 777.039,104.649 775.396,105.197 773.753,105.197 772.109,104.649 771.561,104.101 771.013,103.006 " />
<polyline points="785.257,93.693 783.613,94.2408 782.517,95.8842 781.97,98.6233 781.97,100.267 782.517,103.006 783.613,104.649 785.257,105.197 786.352,105.197 787.996,104.649 789.091,103.006 789.639,100.267 789.639,98.6233 789.091,95.8842 787.996,94.2408 786.352,93.693 785.257,93.693 " />
<polyline points="797.843,91.2241 796.747,91.7719 795.652,92.8675 795.104,94.5109 795.104,95.6066 795.652,97.25 796.747,98.3456 797.843,98.8934 799.487,98.8934 800.582,98.3456 801.678,97.25 802.226,95.6066 802.226,94.5109 801.678,92.8675 800.582,91.7719 799.487,91.2241 797.843,91.2241 " />
<polyline points="928.901,718.581 928.901,737.788 " />
<polyline points="928.901,718.581 940.791,718.581 " />
<polyline points="928.901,727.728 936.218,727.728 " />
<polyline points="928.901,737.788 940.791,737.788 " />
<polyline points="946.279,718.581 946.279,737.788 " />
<polyline points="946.279,718.581 952.681,718.581 955.425,719.496 957.254,721.325 958.169,723.155 959.084,725.898 959.084,730.471 958.169,733.215 957.254,735.045 955.425,736.874 952.681,737.788 946.279,737.788 " />
<polyline points="975.547,718.581 966.401,718.581 965.486,726.813 966.401,725.898 969.144,724.984 971.888,724.984 974.632,725.898 976.461,727.728 977.376,730.471 977.376,732.301 976.461,735.045 974.632,736.874 971.888,737.788 969.144,737.788 966.401,736.874 965.486,735.959 964.571,734.13 " />
<polyline points="983.778,729.557 1000.24,729.557 " />
<polyline points="1009.39,722.24 1011.22,721.325 1013.96,718.581 1013.96,737.788 " />
<polyline points="590.149,513.43 514.563,513.43 " />
</g>
<g clip-path="url(#clipId0)" fill="rgb(0,0,0)" stroke="rgb(0,0,0)" stroke-width="0.25" >
<path d="M590.149,510.811 590.149,516.05 605.866,513.43 605.866,513.43 z" />
</g>
<g clip-path="url(#clipId0)" fill="none" stroke="rgb(0,0,0)" stroke-width="0.25" >
<polyline points="572.289,534.789 571.84,533.891 570.942,532.993 570.044,532.544 568.248,532.544 567.35,532.993 566.452,533.891 566.003,534.789 565.554,536.136 565.554,538.381 566.003,539.728 566.452,540.626 567.35,541.524 568.248,541.973 570.044,541.973 570.942,541.524 571.84,540.626 572.289,539.728 " />
<polyline points="552.544,522.079 546.558,537.793 " />
<polyline points="552.544,522.079 558.531,537.793 " />
<polyline points="548.803,532.555 556.286,532.555 " />
<polyline points="572.289,495.609 571.84,494.711 570.942,493.813 570.044,493.364 568.248,493.364 567.35,493.813 566.452,494.711 566.003,495.609 565.554,496.956 565.554,499.201 566.003,500.548 566.452,501.446 567.35,502.344 568.248,502.793 570.044,502.793 570.942,502.344 571.84,501.446 572.289,500.548 " />
<polyline points="552.544,482.899 551.048,483.647 549.551,485.144 548.803,486.641 548.054,488.886 548.054,492.627 548.803,494.872 549.551,496.369 551.048,497.866 552.544,498.614 555.537,498.614 557.034,497.866 558.531,496.369 559.279,494.872 560.027,492.627 560.027,488.886 559.279,486.641 558.531,485.144 557.034,483.647 555.537,482.899 552.544,482.899 " />
<polyline points="554.789,495.621 559.279,500.111 " />
<polyline points="532.65,318.099 532.65,327.528 " />
<polyline points="532.65,322.589 533.548,321.691 534.446,321.242 535.793,321.242 536.691,321.691 537.589,322.589 538.038,323.936 538.038,324.834 537.589,326.181 536.691,327.079 535.793,327.528 534.446,327.528 533.548,327.079 532.65,326.181 " />
<polyline points="520.055,309.265 518.558,310.013 517.062,311.51 516.313,313.006 515.565,315.251 515.565,318.993 516.313,321.238 517.062,322.735 518.558,324.231 520.055,324.979 523.048,324.979 524.545,324.231 526.041,322.735 526.79,321.238 527.538,318.993 527.538,315.251 526.79,313.006 526.041,311.51 524.545,310.013 523.048,309.265 520.055,309.265 " />
<polyline points="522.3,321.986 526.79,326.476 " />
<polyline points="557.379,360.545 557.379,369.974 " />
<polyline points="557.379,365.035 558.277,364.137 559.175,363.688 560.522,363.688 561.42,364.137 562.318,365.035 562.767,366.382 562.767,367.28 562.318,368.627 561.42,369.525 560.522,369.974 559.175,369.974 558.277,369.525 557.379,368.627 " />
<polyline points="544.784,349.942 538.797,365.657 " />
<polyline points="544.784,349.942 550.77,365.657 " />
<polyline points="541.042,360.419 548.525,360.419 " />
<polyline points="499.748,132.931 498.85,132.033 497.503,131.584 495.707,131.584 494.36,132.033 493.462,132.931 493.462,133.829 493.911,134.727 494.36,135.176 495.258,135.625 497.952,136.523 498.85,136.972 499.299,137.421 499.748,138.319 499.748,139.666 498.85,140.563 497.503,141.012 495.707,141.012 494.36,140.563 493.462,139.666 " />
<polyline points="499.748,175.67 498.85,174.772 497.503,174.323 495.707,174.323 494.36,174.772 493.462,175.67 493.462,176.568 493.911,177.466 494.36,177.915 495.258,178.364 497.952,179.262 498.85,179.711 499.299,180.16 499.748,181.058 499.748,182.405 498.85,183.303 497.503,183.752 495.707,183.752 494.36,183.303 493.462,182.405 " />
<polyline points="526.68,152.157 448.943,152.157 " />
<polyline points="480.04,164.184 474.053,179.898 " />
<polyline points="480.04,164.184 486.027,179.898 " />
<polyline points="476.298,174.66 483.782,174.66 " />
<polyline points="480.04,121.444 478.543,122.193 477.047,123.689 476.298,125.186 475.55,127.431 475.55,131.173 476.298,133.418 477.047,134.914 478.543,136.411 480.04,137.159 483.033,137.159 484.53,136.411 486.027,134.914 486.775,133.418 487.523,131.173 487.523,127.431 486.775,125.186 486.027,123.689 484.53,122.193 483.033,121.444 480.04,121.444 " />
<polyline points="482.285,134.166 486.775,138.656 " />
</g>
<g clip-path="url(#clipId0)" fill="rgb(0,0,0)" stroke="rgb(0,0,0)" stroke-width="0.25" >
<path d="M526.68,149.538 526.68,154.777 542.397,152.157 542.397,152.157 z" />
</g>
<g clip-path="url(#clipId0)" fill="none" stroke="rgb(0,0,0)" stroke-width="0.25" >
<polyline points="956.052,123.878 954.556,124.626 953.059,126.123 952.311,127.619 951.562,129.864 951.562,133.606 952.311,135.851 953.059,137.347 954.556,138.844 956.052,139.592 959.046,139.592 960.542,138.844 962.039,137.347 962.787,135.851 963.536,133.606 963.536,129.864 962.787,127.619 962.039,126.123 960.542,124.626 959.046,123.878 956.052,123.878 " />
<polyline points="958.297,136.599 962.787,141.089 " />
<polyline points="993.657,154.409 918.072,154.409 " />
<polyline points="975.797,175.767 975.348,174.869 974.45,173.971 973.552,173.522 971.756,173.522 970.858,173.971 969.96,174.869 969.511,175.767 969.062,177.114 969.062,179.359 969.511,180.706 969.96,181.604 970.858,182.502 971.756,182.951 973.552,182.951 974.45,182.502 975.348,181.604 975.797,180.706 " />
<polyline points="975.797,136.588 975.348,135.69 974.45,134.792 973.552,134.343 971.756,134.343 970.858,134.792 969.96,135.69 969.511,136.588 969.062,137.935 969.062,140.18 969.511,141.527 969.96,142.425 970.858,143.323 971.756,143.772 973.552,143.772 974.45,143.323 975.348,142.425 975.797,141.527 " />
<polyline points="956.052,163.057 950.066,178.772 " />
<polyline points="956.052,163.057 962.039,178.772 " />
<polyline points="952.311,173.534 959.794,173.534 " />
</g>
<g clip-path="url(#clipId0)" fill="rgb(0,0,0)" stroke="rgb(0,0,0)" stroke-width="0.25" >
<path d="M993.657,151.789 993.657,157.028 1009.37,154.409 1009.37,154.409 z" />
</g>
<g clip-path="url(#clipId0)" fill="none" stroke="rgb(0,0,0)" stroke-width="0.25" >
<polyline points="41.1363,524.974 35.1497,540.689 " />
<polyline points="41.1363,524.974 47.1229,540.689 " />
<polyline points="37.3947,535.45 44.8779,535.45 " />
<polyline points="60.844,536.46 59.946,535.562 58.599,535.113 56.803,535.113 55.456,535.562 54.558,536.46 54.558,537.358 55.007,538.256 55.456,538.705 56.354,539.154 59.048,540.052 59.946,540.501 60.395,540.95 60.844,541.848 60.844,543.195 59.946,544.093 58.599,544.542 56.803,544.542 55.456,544.093 54.558,543.195 " />
<polyline points="87.7769,512.947 10.0392,512.947 " />
<polyline points="41.1363,482.234 39.6396,482.983 38.143,484.479 37.3947,485.976 36.6463,488.221 36.6463,491.963 37.3947,494.208 38.143,495.704 39.6396,497.201 41.1363,497.949 44.1296,497.949 45.6262,497.201 47.1229,495.704 47.8712,494.208 48.6195,491.963 48.6195,488.221 47.8712,485.976 47.1229,484.479 45.6262,482.983 44.1296,482.234 41.1363,482.234 " />
<polyline points="43.3813,494.956 47.8712,499.446 " />
<polyline points="60.844,493.721 59.946,492.823 58.599,492.374 56.803,492.374 55.456,492.823 54.558,493.721 54.558,494.619 55.007,495.517 55.456,495.966 56.354,496.415 59.048,497.313 59.946,497.762 60.395,498.211 60.844,499.109 60.844,500.456 59.946,501.354 58.599,501.803 56.803,501.803 55.456,501.354 54.558,500.456 " />
</g>
<g clip-path="url(#clipId0)" fill="rgb(0,0,0)" stroke="rgb(0,0,0)" stroke-width="0.25" >
<path d="M87.7769,510.328 87.7769,515.567 103.494,512.947 103.494,512.947 z" />
</g>
<g clip-path="url(#clipId0)" fill="none" stroke="rgb(0,0,0)" stroke-width="0.25" >
<polyline points="172.595,679.658 118.889,710.666 " />
<polyline points="123.626,666.518 122.129,667.266 120.632,668.763 119.884,670.259 119.136,672.504 119.136,676.246 119.884,678.491 120.632,679.987 122.129,681.484 123.626,682.232 126.619,682.232 128.116,681.484 129.612,679.987 130.361,678.491 131.109,676.246 131.109,672.504 130.361,670.259 129.612,668.763 128.116,667.266 126.619,666.518 123.626,666.518 " />
<polyline points="125.871,679.239 130.361,683.729 " />
<polyline points="136.221,675.352 136.221,684.781 " />
<polyline points="136.221,679.842 137.119,678.944 138.017,678.495 139.364,678.495 140.262,678.944 141.16,679.842 141.609,681.189 141.609,682.087 141.16,683.434 140.262,684.332 139.364,684.781 138.017,684.781 137.119,684.332 136.221,683.434 " />
<polyline points="148.355,707.195 142.368,722.91 " />
<polyline points="148.355,707.195 154.341,722.91 " />
<polyline points="144.613,717.671 152.096,717.671 " />
</g>
<g clip-path="url(#clipId0)" fill="rgb(0,0,0)" stroke="rgb(0,0,0)" stroke-width="0.25" >
<path d="M171.142,677.14 174.049,682.176 187.705,670.935 187.705,670.935 z" />
</g>
<g clip-path="url(#clipId0)" fill="none" stroke="rgb(0,0,0)" stroke-width="0.25" >
<polyline points="160.95,717.798 160.95,727.227 " />
<polyline points="160.95,722.288 161.848,721.39 162.746,720.941 164.093,720.941 164.991,721.39 165.889,722.288 166.338,723.635 166.338,724.533 165.889,725.88 164.991,726.778 164.093,727.227 162.746,727.227 161.848,726.778 160.95,725.88 " />
</g>
</svg>
