<?xml version="1.0" standalone="no"?>
<svg viewBox="0 0 1024 768" version="1.1" xmlns="http://www.w3.org/2000/svg" xmlns:xlink="http://www.w3.org/1999/xlink" stroke-linecap="round" stroke-linejoin="round" fill-rule="evenodd" xml:space="preserve" >
<defs >
<clipPath id="clipId0" >
<path d="M0,768 1024,768 1024,0 0,0 z" />
</clipPath>
</defs>
<g clip-path="url(#clipId0)" fill="none" stroke="rgb(0,0,0)" stroke-width="0.1" />
<g clip-path="url(#clipId0)" fill="none" stroke="rgb(0,0,0)" stroke-width="0.25" >
<polyline points="619.326,408.632 634.376,408.632 " />
<polyline points="619.326,408.632 473.584,492.777 " />
<polyline points="670.924,202.24 638.675,202.24 " />
<polyline points="619.326,202.24 473.584,118.095 " />
<polyline points="385.282,305.436 370.387,296.836 " />
<polyline points="370.387,296.836 473.584,118.095 " />
<polyline points="385.282,305.436 370.387,314.035 " />
<polyline points="370.387,314.035 473.584,492.777 " />
<polyline points="619.326,202.24 591.369,305.612 " />
<polyline points="591.369,305.612 619.326,408.632 " />
<polyline points="591.369,305.612 385.282,305.436 " />
<polyline points="670.924,408.632 670.924,202.24 " />
<polyline points="638.675,408.632 638.675,202.24 " />
<polyline points="634.376,408.632 634.376,202.24 " />
<path d="M638.675,202.24  A2.2395,2.2395 0 0,0 634.376,202.24 " />
<polyline points="634.376,202.24 619.326,202.24 " />
<path d="M634.376,408.632  A2.2395,2.2395 0 0,0 638.675,408.632 " />
<polyline points="638.675,408.632 670.924,408.632 " />
<polyline points="591.369,305.612 608.568,305.612 " />
<polyline points="642.967,305.612 680.629,305.612 " />
<polyline points="591.369,305.612 576.474,297.013 " />
<polyline points="546.683,279.813 324.071,150.657 " />
<polyline points="591.369,305.612 576.474,314.212 " />
<polyline points="546.683,331.412 295.467,476.452 " />
<polyline points="298.216,215.448 367.014,96.2871 " />
<polyline points="394.942,112.412 367.014,96.2871 " />
<polyline points="326.144,231.572 298.216,215.448 " />
<polyline points="398.688,113.6 473.584,118.095 " />
<polyline points="329.046,234.222 370.387,296.836 " />
<path d="M398.666,114.561  A2.2395,2.2395 0 0,0 394.942,112.412 " />
<polyline points="326.144,231.572 394.942,112.412 " />
<polyline points="329.868,233.722 398.666,114.561 " />
<path d="M326.144,231.572  A2.2395,2.2395 0 0,0 329.868,233.722 " />
<polyline points="277.026,427.518 328.624,516.889 " />
<polyline points="304.954,411.394 277.026,427.518 " />
<polyline points="356.552,500.764 328.624,516.889 " />
<polyline points="307.856,408.744 370.387,314.035 " />
<polyline points="473.584,492.777 360.298,499.576 " />
<path d="M356.552,500.764  A2.2395,2.2395 0 0,0 360.276,498.614 " />
<polyline points="308.678,409.244 360.276,498.614 " />
<polyline points="304.954,411.394 356.552,500.764 " />
<polyline points="342.213,246.567 318.68,246.567 " />
<polyline points="189.541,240.307 191.179,239.488 193.636,237.031 193.636,254.23 " />
<polyline points="205.921,234.574 205.102,235.393 204.283,234.574 205.102,233.755 205.921,234.574 205.921,236.212 205.102,237.85 204.283,238.669 " />
<polyline points="210.835,234.574 210.016,235.393 209.197,234.574 210.016,233.755 210.835,234.574 210.835,236.212 210.016,237.85 209.197,238.669 " />
<polyline points="221.482,233.755 219.844,235.393 218.206,237.85 216.568,241.126 215.749,245.221 215.749,248.497 216.568,252.592 218.206,255.868 219.844,258.326 221.482,259.964 " />
<polyline points="227.215,241.126 227.215,240.307 228.035,238.669 228.854,237.85 230.492,237.031 233.768,237.031 235.406,237.85 236.225,238.669 237.044,240.307 237.044,241.945 236.225,243.583 234.587,246.04 226.396,254.23 237.863,254.23 " />
<polyline points="252.605,237.031 244.415,237.031 243.596,244.402 244.415,243.583 246.872,242.764 249.329,242.764 251.786,243.583 253.424,245.221 254.243,247.678 254.243,249.316 253.424,251.773 251.786,253.411 249.329,254.23 246.872,254.23 244.415,253.411 243.596,252.592 242.777,250.954 " />
<polyline points="259.976,242.764 259.976,254.23 " />
<polyline points="259.976,246.04 262.433,243.583 264.071,242.764 266.528,242.764 268.166,243.583 268.985,246.04 268.985,254.23 " />
<polyline points="268.985,246.04 271.442,243.583 273.08,242.764 275.538,242.764 277.176,243.583 277.995,246.04 277.995,254.23 " />
<polyline points="284.547,242.764 284.547,254.23 " />
<polyline points="284.547,246.04 287.004,243.583 288.642,242.764 291.099,242.764 292.737,243.583 293.556,246.04 293.556,254.23 " />
<polyline points="293.556,246.04 296.013,243.583 297.651,242.764 300.108,242.764 301.746,243.583 302.565,246.04 302.565,254.23 " />
<polyline points="308.298,233.755 309.936,235.393 311.574,237.85 313.212,241.126 314.031,245.221 314.031,248.497 313.212,252.592 311.574,255.868 309.936,258.326 308.298,259.964 " />
<polyline points="343.783,367.024 318.055,367.024 " />
<polyline points="189.541,357.337 191.179,356.518 193.636,354.061 193.636,371.26 " />
<polyline points="205.921,351.603 205.102,352.422 204.283,351.603 205.102,350.784 205.921,351.603 205.921,353.242 205.102,354.88 204.283,355.699 " />
<polyline points="210.835,351.603 210.016,352.422 209.197,351.603 210.016,350.784 210.835,351.603 210.835,353.242 210.016,354.88 209.197,355.699 " />
<polyline points="221.482,350.784 219.844,352.422 218.206,354.88 216.568,358.156 215.749,362.251 215.749,365.527 216.568,369.622 218.206,372.898 219.844,375.355 221.482,376.993 " />
<polyline points="227.215,358.156 227.215,357.337 228.035,355.699 228.854,354.88 230.492,354.061 233.768,354.061 235.406,354.88 236.225,355.699 237.044,357.337 237.044,358.975 236.225,360.613 234.587,363.07 226.396,371.26 237.863,371.26 " />
<polyline points="252.605,354.061 244.415,354.061 243.596,361.432 244.415,360.613 246.872,359.794 249.329,359.794 251.786,360.613 253.424,362.251 254.243,364.708 254.243,366.346 253.424,368.803 251.786,370.441 249.329,371.26 246.872,371.26 244.415,370.441 243.596,369.622 242.777,367.984 " />
<polyline points="259.976,359.794 259.976,371.26 " />
<polyline points="259.976,363.07 262.433,360.613 264.071,359.794 266.528,359.794 268.166,360.613 268.985,363.07 268.985,371.26 " />
<polyline points="268.985,363.07 271.442,360.613 273.08,359.794 275.538,359.794 277.176,360.613 277.995,363.07 277.995,371.26 " />
<polyline points="284.547,359.794 284.547,371.26 " />
<polyline points="284.547,363.07 287.004,360.613 288.642,359.794 291.099,359.794 292.737,360.613 293.556,363.07 293.556,371.26 " />
<polyline points="293.556,363.07 296.013,360.613 297.651,359.794 300.108,359.794 301.746,360.613 302.565,363.07 302.565,371.26 " />
<polyline points="308.298,350.784 309.936,352.422 311.574,354.88 313.212,358.156 314.031,362.251 314.031,365.527 313.212,369.622 311.574,372.898 309.936,375.355 308.298,376.993 " />
<path d="M308.678,409.244  A2.2395,2.2395 0 0,0 304.954,411.394 " />
</g>
<g clip-path="url(#clipId0)" fill="rgb(0,0,0)" stroke="rgb(0,0,0)" stroke-width="0.25" >
<path d="M261.67,110.141 257.543,117.291 281.055,126.1 281.055,126.1 z" />
</g>
<g clip-path="url(#clipId0)" fill="none" stroke="rgb(0,0,0)" stroke-width="0.25" >
<polyline points="259.606,113.716 191.685,74.5015 " />
</g>
<g clip-path="url(#clipId0)" fill="rgb(0,0,0)" stroke="rgb(0,0,0)" stroke-width="0.25" >
<path d="M221.283,514.515 225.411,521.665 244.796,505.706 244.796,505.706 z" />
</g>
<g clip-path="url(#clipId0)" fill="none" stroke="rgb(0,0,0)" stroke-width="0.25" >
<polyline points="223.347,518.09 155.426,557.304 " />
</g>
<g clip-path="url(#clipId0)" fill="rgb(0,0,0)" stroke="rgb(0,0,0)" stroke-width="0.25" >
<path d="M865.086,301.308 865.086,309.564 889.853,305.436 889.853,305.436 z" />
</g>
<g clip-path="url(#clipId0)" fill="none" stroke="rgb(0,0,0)" stroke-width="0.25" >
<polyline points="865.086,305.436 762.506,305.436 " />
<polyline points="238.57,65.8673 238.57,78.7668 " />
<polyline points="238.57,72.0099 239.798,70.7814 241.027,70.1671 242.87,70.1671 244.098,70.7814 245.327,72.0099 245.941,73.8527 245.941,75.0812 245.327,76.924 244.098,78.1525 242.87,78.7668 241.027,78.7668 239.798,78.1525 238.57,76.924 " />
<polyline points="251.469,68.3243 252.698,67.71 254.541,65.8673 254.541,78.7668 " />
<polyline points="210.833,112.777 210.833,125.677 " />
<polyline points="210.833,118.92 212.061,117.691 213.29,117.077 215.133,117.077 216.361,117.691 217.59,118.92 218.204,120.763 218.204,121.991 217.59,123.834 216.361,125.062 215.133,125.677 213.29,125.677 212.061,125.062 210.833,123.834 " />
<polyline points="223.732,115.234 224.961,114.62 226.804,112.777 226.804,125.677 " />
<polyline points="210.137,567.358 210.137,580.258 " />
<polyline points="210.137,573.501 211.366,572.272 212.594,571.658 214.437,571.658 215.665,572.272 216.894,573.501 217.508,575.344 217.508,576.572 216.894,578.415 215.665,579.644 214.437,580.258 212.594,580.258 211.366,579.644 210.137,578.415 " />
<polyline points="221.808,570.43 221.808,569.815 222.422,568.587 223.037,567.973 224.265,567.358 226.722,567.358 227.951,567.973 228.565,568.587 229.179,569.815 229.179,571.044 228.565,572.272 227.336,574.115 221.194,580.258 229.793,580.258 " />
<polyline points="168.697,513.042 168.697,525.941 " />
<polyline points="168.697,519.184 169.926,517.956 171.154,517.341 172.997,517.341 174.226,517.956 175.454,519.184 176.068,521.027 176.068,522.256 175.454,524.098 174.226,525.327 172.997,525.941 171.154,525.941 169.926,525.327 168.697,524.098 " />
<polyline points="180.368,516.113 180.368,515.499 180.982,514.27 181.597,513.656 182.825,513.042 185.282,513.042 186.511,513.656 187.125,514.27 187.739,515.499 187.739,516.727 187.125,517.956 185.897,519.799 179.754,525.941 188.354,525.941 " />
<polyline points="833.746,342.209 832.518,340.981 831.289,340.366 829.446,340.366 828.218,340.981 826.989,342.209 826.375,344.052 826.375,345.28 826.989,347.123 828.218,348.352 829.446,348.966 831.289,348.966 832.518,348.352 833.746,347.123 " />
<polyline points="833.4,285.424 832.171,284.195 830.942,283.581 829.1,283.581 827.871,284.195 826.643,285.424 826.028,287.266 826.028,288.495 826.643,290.338 827.871,291.566 829.1,292.18 830.942,292.18 832.171,291.566 833.4,290.338 " />
<polyline points="326.194,72.7201 339.094,50.3774 " />
<polyline points="339.094,50.3774 348.235,50.3774 " />
<polyline points="286.06,541.463 298.959,563.806 " />
<polyline points="298.959,563.806 306.24,563.806 " />
<polyline points="355.369,37.7272 355.369,54.9265 " />
<polyline points="355.369,37.7272 361.102,37.7272 363.559,38.5462 365.197,40.1842 366.016,41.8223 366.835,44.2793 366.835,48.3744 366.016,50.8315 365.197,52.4695 363.559,54.1075 361.102,54.9265 355.369,54.9265 " />
<polyline points="372.435,48.4768 372.435,61.3763 " />
<polyline points="372.435,54.6194 373.663,53.3909 374.892,52.7766 376.735,52.7766 377.963,53.3909 379.192,54.6194 379.806,56.4622 379.806,57.6907 379.192,59.5335 377.963,60.762 376.735,61.3763 374.892,61.3763 373.663,60.762 372.435,59.5335 " />
<polyline points="385.334,50.9338 386.563,50.3196 388.406,48.4768 388.406,61.3763 " />
<polyline points="313.374,551.155 313.374,568.355 " />
<polyline points="313.374,551.155 319.107,551.155 321.564,551.974 323.202,553.612 324.021,555.25 324.84,557.707 324.84,561.803 324.021,564.26 323.202,565.898 321.564,567.536 319.107,568.355 313.374,568.355 " />
<polyline points="328.597,561.905 328.597,574.804 " />
<polyline points="328.597,568.048 329.826,566.819 331.054,566.205 332.897,566.205 334.126,566.819 335.354,568.048 335.968,569.89 335.968,571.119 335.354,572.962 334.126,574.19 332.897,574.804 331.054,574.804 329.826,574.19 328.597,572.962 " />
<polyline points="340.268,564.976 340.268,564.362 340.882,563.133 341.497,562.519 342.725,561.905 345.182,561.905 346.411,562.519 347.025,563.133 347.639,564.362 347.639,565.591 347.025,566.819 345.797,568.662 339.654,574.804 348.254,574.804 " />
<polyline points="717.79,202.24 717.79,176.441 " />
<polyline points="717.79,176.441 726.189,176.441 " />
<polyline points="756.882,178.533 755.653,177.304 754.425,176.69 752.582,176.69 751.353,177.304 750.125,178.533 749.511,180.375 749.511,181.604 750.125,183.447 751.353,184.675 752.582,185.289 754.425,185.289 755.653,184.675 756.882,183.447 " />
<polyline points="733.323,163.79 733.323,180.99 " />
<polyline points="733.323,163.79 739.056,163.79 741.513,164.609 743.151,166.247 743.97,167.885 744.789,170.342 744.789,174.437 743.97,176.895 743.151,178.533 741.513,180.171 739.056,180.99 733.323,180.99 " />
<polyline points="693.499,451.783 695.137,450.964 697.594,448.507 697.594,465.706 " />
<polyline points="709.879,446.05 709.06,446.869 708.241,446.05 709.06,445.231 709.879,446.05 709.879,447.688 709.06,449.326 708.241,450.145 " />
<polyline points="714.793,446.05 713.974,446.869 713.155,446.05 713.974,445.231 714.793,446.05 714.793,447.688 713.974,449.326 713.155,450.145 " />
<polyline points="725.44,445.231 723.802,446.869 722.164,449.326 720.526,452.602 719.707,456.697 719.707,459.973 720.526,464.068 722.164,467.344 723.802,469.801 725.44,471.439 " />
<polyline points="731.174,452.602 731.174,451.783 731.993,450.145 732.812,449.326 734.45,448.507 737.726,448.507 739.364,449.326 740.183,450.145 741.002,451.783 741.002,453.421 740.183,455.059 738.545,457.516 730.355,465.706 741.821,465.706 " />
<polyline points="756.563,448.507 748.373,448.507 747.554,455.878 748.373,455.059 750.83,454.24 753.287,454.24 755.744,455.059 757.382,456.697 758.201,459.154 758.201,460.792 757.382,463.249 755.744,464.887 753.287,465.706 750.83,465.706 748.373,464.887 747.554,464.068 746.735,462.43 " />
<polyline points="763.934,454.24 763.934,465.706 " />
<polyline points="763.934,457.516 766.391,455.059 768.029,454.24 770.486,454.24 772.124,455.059 772.943,457.516 772.943,465.706 " />
<polyline points="772.943,457.516 775.401,455.059 777.039,454.24 779.496,454.24 781.134,455.059 781.953,457.516 781.953,465.706 " />
<polyline points="788.505,454.24 788.505,465.706 " />
<polyline points="788.505,457.516 790.962,455.059 792.6,454.24 795.057,454.24 796.695,455.059 797.514,457.516 797.514,465.706 " />
<polyline points="797.514,457.516 799.971,455.059 801.609,454.24 804.066,454.24 805.704,455.059 806.523,457.516 806.523,465.706 " />
<polyline points="812.256,445.231 813.894,446.869 815.532,449.326 817.17,452.602 817.989,456.697 817.989,459.973 817.17,464.068 815.532,467.344 813.894,469.801 812.256,471.439 " />
<polyline points="493.862,10.8055 493.862,28.0048 " />
<polyline points="493.862,10.8055 499.596,10.8055 502.053,11.6245 503.691,13.2625 504.51,14.9006 505.329,17.3576 505.329,21.4527 504.51,23.9098 503.691,25.5478 502.053,27.1858 499.596,28.0048 493.862,28.0048 " />
<polyline points="528.261,20.6337 543.003,20.6337 " />
<polyline points="549.556,10.8055 549.556,28.0048 " />
<polyline points="549.556,10.8055 555.289,10.8055 557.746,11.6245 559.384,13.2625 560.203,14.9006 561.022,17.3576 561.022,21.4527 560.203,23.9098 559.384,25.5478 557.746,27.1858 555.289,28.0048 549.556,28.0048 " />
<polyline points="606.887,7.52941 605.249,9.16745 603.611,11.6245 601.973,14.9006 601.154,18.9957 601.154,22.2717 601.973,26.3668 603.611,29.6429 605.249,32.0999 606.887,33.738 " />
<polyline points="614.258,14.0816 615.896,13.2625 618.353,10.8055 618.353,28.0048 " />
<polyline points="630.638,8.34843 629.819,9.16745 629,8.34843 629.819,7.52941 630.638,8.34843 630.638,9.98646 629.819,11.6245 629,12.4435 " />
<polyline points="635.552,8.34843 634.733,9.16745 633.914,8.34843 634.733,7.52941 635.552,8.34843 635.552,9.98646 634.733,11.6245 633.914,12.4435 " />
<polyline points="646.2,7.52941 644.562,9.16745 642.924,11.6245 641.286,14.9006 640.467,18.9957 640.467,22.2717 641.286,26.3668 642.924,29.6429 644.562,32.0999 646.2,33.738 " />
<polyline points="651.933,14.9006 651.933,14.0816 652.752,12.4435 653.571,11.6245 655.209,10.8055 658.485,10.8055 660.123,11.6245 660.942,12.4435 661.761,14.0816 661.761,15.7196 660.942,17.3576 659.304,19.8147 651.114,28.0048 662.58,28.0048 " />
<polyline points="677.322,10.8055 669.132,10.8055 668.313,18.1766 669.132,17.3576 671.589,16.5386 674.046,16.5386 676.503,17.3576 678.141,18.9957 678.96,21.4527 678.96,23.0907 678.141,25.5478 676.503,27.1858 674.046,28.0048 671.589,28.0048 669.132,27.1858 668.313,26.3668 667.494,24.7288 " />
<polyline points="684.694,16.5386 684.694,28.0048 " />
<polyline points="684.694,19.8147 687.151,17.3576 688.789,16.5386 691.246,16.5386 692.884,17.3576 693.703,19.8147 693.703,28.0048 " />
<polyline points="693.703,19.8147 696.16,17.3576 697.798,16.5386 700.255,16.5386 701.893,17.3576 702.712,19.8147 702.712,28.0048 " />
<polyline points="709.264,16.5386 709.264,28.0048 " />
<polyline points="709.264,19.8147 711.721,17.3576 713.359,16.5386 715.816,16.5386 717.454,17.3576 718.273,19.8147 718.273,28.0048 " />
<polyline points="718.273,19.8147 720.73,17.3576 722.368,16.5386 724.825,16.5386 726.463,17.3576 727.282,19.8147 727.282,28.0048 " />
<polyline points="733.016,7.52941 734.654,9.16745 736.292,11.6245 737.93,14.9006 738.749,18.9957 738.749,22.2717 737.93,26.3668 736.292,29.6429 734.654,32.0999 733.016,33.738 " />
<polyline points="762.5,16.5386 762.5,28.0048 " />
<polyline points="762.5,19.8147 764.957,17.3576 766.595,16.5386 769.052,16.5386 770.69,17.3576 771.509,19.8147 771.509,28.0048 " />
<polyline points="771.509,19.8147 773.966,17.3576 775.604,16.5386 778.062,16.5386 779.7,17.3576 780.519,19.8147 780.519,28.0048 " />
<polyline points="786.252,11.6245 787.071,12.4435 787.89,11.6245 787.071,10.8055 786.252,11.6245 " />
<polyline points="787.071,17.3576 787.071,28.0048 " />
<polyline points="793.623,16.5386 793.623,28.0048 " />
<polyline points="793.623,19.8147 796.08,17.3576 797.718,16.5386 800.175,16.5386 801.813,17.3576 802.632,19.8147 802.632,28.0048 " />
<polyline points="810.003,26.3668 809.184,27.1858 810.003,28.0048 810.822,27.1858 810.003,26.3668 " />
<polyline points="837.85,16.5386 836.212,17.3576 834.574,18.9957 833.755,21.4527 833.755,23.0907 834.574,25.5478 836.212,27.1858 837.85,28.0048 840.307,28.0048 841.945,27.1858 843.583,25.5478 844.402,23.0907 844.402,21.4527 843.583,18.9957 841.945,17.3576 840.307,16.5386 837.85,16.5386 " />
<polyline points="850.135,16.5386 850.135,28.0048 " />
<polyline points="850.135,21.4527 850.954,18.9957 852.592,17.3576 854.23,16.5386 856.687,16.5386 " />
<polyline points="601.167,46.866 602.805,46.047 605.262,43.5899 605.262,60.7893 " />
<polyline points="615.91,47.685 615.91,46.866 616.729,45.228 617.548,44.409 619.186,43.5899 622.462,43.5899 624.1,44.409 624.919,45.228 625.738,46.866 625.738,48.5041 624.919,50.1421 623.281,52.5991 615.091,60.7893 626.557,60.7893 " />
<polyline points="633.928,41.1329 633.109,41.9519 632.29,41.1329 633.109,40.3139 633.928,41.1329 633.928,42.7709 633.109,44.409 632.29,45.228 " />
<polyline points="638.842,41.1329 638.023,41.9519 637.204,41.1329 638.023,40.3139 638.842,41.1329 638.842,42.7709 638.023,44.409 637.204,45.228 " />
<polyline points="649.489,40.3139 647.851,41.9519 646.213,44.409 644.575,47.685 643.756,51.7801 643.756,55.0562 644.575,59.1513 646.213,62.4273 647.851,64.8844 649.489,66.5224 " />
<polyline points="656.041,43.5899 665.051,43.5899 660.137,50.1421 662.594,50.1421 664.232,50.9611 665.051,51.7801 665.87,54.2372 665.87,55.8752 665.051,58.3323 663.413,59.9703 660.956,60.7893 658.499,60.7893 656.041,59.9703 655.222,59.1513 654.403,57.5132 " />
<polyline points="675.698,43.5899 673.241,44.409 671.603,46.866 670.784,50.9611 670.784,53.4182 671.603,57.5132 673.241,59.9703 675.698,60.7893 677.336,60.7893 679.793,59.9703 681.431,57.5132 682.25,53.4182 682.25,50.9611 681.431,46.866 679.793,44.409 677.336,43.5899 675.698,43.5899 " />
<polyline points="692.078,43.5899 689.621,44.409 687.983,46.866 687.164,50.9611 687.164,53.4182 687.983,57.5132 689.621,59.9703 692.078,60.7893 693.716,60.7893 696.173,59.9703 697.811,57.5132 698.63,53.4182 698.63,50.9611 697.811,46.866 696.173,44.409 693.716,43.5899 692.078,43.5899 " />
<polyline points="704.363,49.3231 704.363,60.7893 " />
<polyline points="704.363,52.5991 706.821,50.1421 708.459,49.3231 710.916,49.3231 712.554,50.1421 713.373,52.5991 713.373,60.7893 " />
<polyline points="713.373,52.5991 715.83,50.1421 717.468,49.3231 719.925,49.3231 721.563,50.1421 722.382,52.5991 722.382,60.7893 " />
<polyline points="728.934,49.3231 728.934,60.7893 " />
<polyline points="728.934,52.5991 731.391,50.1421 733.029,49.3231 735.486,49.3231 737.124,50.1421 737.943,52.5991 737.943,60.7893 " />
<polyline points="737.943,52.5991 740.4,50.1421 742.038,49.3231 744.495,49.3231 746.133,50.1421 746.952,52.5991 746.952,60.7893 " />
<polyline points="752.686,40.3139 754.324,41.9519 755.962,44.409 757.6,47.685 758.419,51.7801 758.419,55.0562 757.6,59.1513 755.962,62.4273 754.324,64.8844 752.686,66.5224 " />
<polyline points="782.17,49.3231 782.17,60.7893 " />
<polyline points="782.17,52.5991 784.627,50.1421 786.265,49.3231 788.722,49.3231 790.36,50.1421 791.179,52.5991 791.179,60.7893 " />
<polyline points="791.179,52.5991 793.636,50.1421 795.274,49.3231 797.731,49.3231 799.37,50.1421 800.189,52.5991 800.189,60.7893 " />
<polyline points="815.75,49.3231 815.75,60.7893 " />
<polyline points="815.75,51.7801 814.112,50.1421 812.474,49.3231 810.017,49.3231 808.379,50.1421 806.741,51.7801 805.922,54.2372 805.922,55.8752 806.741,58.3323 808.379,59.9703 810.017,60.7893 812.474,60.7893 814.112,59.9703 815.75,58.3323 " />
<polyline points="821.483,49.3231 830.492,60.7893 " />
<polyline points="830.492,49.3231 821.483,60.7893 " />
<polyline points="837.044,59.1513 836.225,59.9703 837.044,60.7893 837.863,59.9703 837.044,59.1513 " />
<polyline points="843.596,40.3139 845.235,41.9519 846.873,44.409 848.511,47.685 849.33,51.7801 849.33,55.0562 848.511,59.1513 846.873,62.4273 845.235,64.8844 843.596,66.5224 " />
<polyline points="516.654,25.7799 515.426,24.5514 514.197,23.9372 512.354,23.9372 511.126,24.5514 509.897,25.7799 509.283,27.6227 509.283,28.8513 509.897,30.6941 511.126,31.9226 512.354,32.5368 514.197,32.5368 515.426,31.9226 516.654,30.6941 " />
<polyline points="566.142,21.7872 566.142,34.6868 " />
<polyline points="566.142,27.9299 567.371,26.7013 568.599,26.0871 570.442,26.0871 571.67,26.7013 572.899,27.9299 573.513,29.7727 573.513,31.0012 572.899,32.844 571.67,34.0725 570.442,34.6868 568.599,34.6868 567.371,34.0725 566.142,32.844 " />
<polyline points="579.042,24.2443 580.27,23.63 582.113,21.7872 582.113,34.6868 " />
<polyline points="467.753,584.248 467.753,601.447 " />
<polyline points="467.753,584.248 473.486,584.248 475.943,585.067 477.581,586.705 478.4,588.343 479.219,590.8 479.219,594.895 478.4,597.352 477.581,598.99 475.943,600.628 473.486,601.447 467.753,601.447 " />
<polyline points="502.152,594.076 516.894,594.076 " />
<polyline points="523.446,584.248 523.446,601.447 " />
<polyline points="523.446,584.248 529.179,584.248 531.636,585.067 533.274,586.705 534.093,588.343 534.912,590.8 534.912,594.895 534.093,597.352 533.274,598.99 531.636,600.628 529.179,601.447 523.446,601.447 " />
<polyline points="580.777,580.972 579.139,582.61 577.501,585.067 575.863,588.343 575.044,592.438 575.044,595.714 575.863,599.809 577.501,603.085 579.139,605.542 580.777,607.18 " />
<polyline points="588.149,587.524 589.787,586.705 592.244,584.248 592.244,601.447 " />
<polyline points="604.529,581.791 603.71,582.61 602.891,581.791 603.71,580.972 604.529,581.791 604.529,583.429 603.71,585.067 602.891,585.886 " />
<polyline points="609.443,581.791 608.624,582.61 607.805,581.791 608.624,580.972 609.443,581.791 609.443,583.429 608.624,585.067 607.805,585.886 " />
<polyline points="620.09,580.972 618.452,582.61 616.814,585.067 615.176,588.343 614.357,592.438 614.357,595.714 615.176,599.809 616.814,603.085 618.452,605.542 620.09,607.18 " />
<polyline points="625.823,588.343 625.823,587.524 626.642,585.886 627.461,585.067 629.099,584.248 632.375,584.248 634.013,585.067 634.833,585.886 635.652,587.524 635.652,589.162 634.833,590.8 633.194,593.257 625.004,601.447 636.471,601.447 " />
<polyline points="651.213,584.248 643.023,584.248 642.204,591.619 643.023,590.8 645.48,589.981 647.937,589.981 650.394,590.8 652.032,592.438 652.851,594.895 652.851,596.533 652.032,598.99 650.394,600.628 647.937,601.447 645.48,601.447 643.023,600.628 642.204,599.809 641.385,598.171 " />
<polyline points="658.584,589.981 658.584,601.447 " />
<polyline points="658.584,593.257 661.041,590.8 662.679,589.981 665.136,589.981 666.774,590.8 667.593,593.257 667.593,601.447 " />
<polyline points="667.593,593.257 670.05,590.8 671.688,589.981 674.145,589.981 675.783,590.8 676.602,593.257 676.602,601.447 " />
<polyline points="683.155,589.981 683.155,601.447 " />
<polyline points="683.155,593.257 685.612,590.8 687.25,589.981 689.707,589.981 691.345,590.8 692.164,593.257 692.164,601.447 " />
<polyline points="692.164,593.257 694.621,590.8 696.259,589.981 698.716,589.981 700.354,590.8 701.173,593.257 701.173,601.447 " />
<polyline points="706.906,580.972 708.544,582.61 710.182,585.067 711.82,588.343 712.639,592.438 712.639,595.714 711.82,599.809 710.182,603.085 708.544,605.542 706.906,607.18 " />
<polyline points="736.391,589.981 736.391,601.447 " />
<polyline points="736.391,593.257 738.848,590.8 740.486,589.981 742.943,589.981 744.581,590.8 745.4,593.257 745.4,601.447 " />
<polyline points="745.4,593.257 747.857,590.8 749.495,589.981 751.952,589.981 753.59,590.8 754.409,593.257 754.409,601.447 " />
<polyline points="760.142,585.067 760.961,585.886 761.78,585.067 760.961,584.248 760.142,585.067 " />
<polyline points="760.961,590.8 760.961,601.447 " />
<polyline points="767.513,589.981 767.513,601.447 " />
<polyline points="767.513,593.257 769.97,590.8 771.608,589.981 774.065,589.981 775.704,590.8 776.523,593.257 776.523,601.447 " />
<polyline points="783.894,599.809 783.075,600.628 783.894,601.447 784.713,600.628 783.894,599.809 " />
<polyline points="811.74,589.981 810.102,590.8 808.464,592.438 807.645,594.895 807.645,596.533 808.464,598.99 810.102,600.628 811.74,601.447 814.197,601.447 815.835,600.628 817.473,598.99 818.292,596.533 818.292,594.895 817.473,592.438 815.835,590.8 814.197,589.981 811.74,589.981 " />
<polyline points="824.026,589.981 824.026,601.447 " />
<polyline points="824.026,594.895 824.845,592.438 826.483,590.8 828.121,589.981 830.578,589.981 " />
<polyline points="490.545,599.222 489.316,597.994 488.088,597.379 486.245,597.379 485.016,597.994 483.788,599.222 483.173,601.065 483.173,602.294 483.788,604.136 485.016,605.365 486.245,605.979 488.088,605.979 489.316,605.365 490.545,604.136 " />
<polyline points="540.479,595.229 540.479,608.129 " />
<polyline points="540.479,601.372 541.708,600.144 542.936,599.529 544.779,599.529 546.008,600.144 547.236,601.372 547.85,603.215 547.85,604.443 547.236,606.286 546.008,607.515 544.779,608.129 542.936,608.129 541.708,607.515 540.479,606.286 " />
<polyline points="552.15,598.301 552.15,597.687 552.765,596.458 553.379,595.844 554.607,595.229 557.064,595.229 558.293,595.844 558.907,596.458 559.521,597.687 559.521,598.915 558.907,600.144 557.679,601.986 551.536,608.129 560.136,608.129 " />
<polyline points="575.058,620.308 576.696,619.489 579.153,617.032 579.153,634.232 " />
<polyline points="589.8,621.127 589.8,620.308 590.619,618.67 591.438,617.851 593.076,617.032 596.352,617.032 597.99,617.851 598.809,618.67 599.628,620.308 599.628,621.946 598.809,623.584 597.171,626.041 588.981,634.232 600.447,634.232 " />
<polyline points="607.818,614.575 606.999,615.394 606.18,614.575 606.999,613.756 607.818,614.575 607.818,616.213 606.999,617.851 606.18,618.67 " />
<polyline points="612.733,614.575 611.914,615.394 611.095,614.575 611.914,613.756 612.733,614.575 612.733,616.213 611.914,617.851 611.095,618.67 " />
<polyline points="623.38,613.756 621.742,615.394 620.104,617.851 618.466,621.127 617.647,625.222 617.647,628.498 618.466,632.594 620.104,635.87 621.742,638.327 623.38,639.965 " />
<polyline points="629.932,617.032 638.941,617.032 634.027,623.584 636.484,623.584 638.122,624.403 638.941,625.222 639.76,627.679 639.76,629.317 638.941,631.775 637.303,633.413 634.846,634.232 632.389,634.232 629.932,633.413 629.113,632.594 628.294,630.955 " />
<polyline points="649.588,617.032 647.131,617.851 645.493,620.308 644.674,624.403 644.674,626.86 645.493,630.955 647.131,633.413 649.588,634.232 651.226,634.232 653.683,633.413 655.322,630.955 656.141,626.86 656.141,624.403 655.322,620.308 653.683,617.851 651.226,617.032 649.588,617.032 " />
<polyline points="665.969,617.032 663.512,617.851 661.874,620.308 661.055,624.403 661.055,626.86 661.874,630.955 663.512,633.413 665.969,634.232 667.607,634.232 670.064,633.413 671.702,630.955 672.521,626.86 672.521,624.403 671.702,620.308 670.064,617.851 667.607,617.032 665.969,617.032 " />
<polyline points="678.254,622.765 678.254,634.232 " />
<polyline points="678.254,626.041 680.711,623.584 682.349,622.765 684.806,622.765 686.444,623.584 687.263,626.041 687.263,634.232 " />
<polyline points="687.263,626.041 689.72,623.584 691.358,622.765 693.815,622.765 695.453,623.584 696.272,626.041 696.272,634.232 " />
<polyline points="702.825,622.765 702.825,634.232 " />
<polyline points="702.825,626.041 705.282,623.584 706.92,622.765 709.377,622.765 711.015,623.584 711.834,626.041 711.834,634.232 " />
<polyline points="711.834,626.041 714.291,623.584 715.929,622.765 718.386,622.765 720.024,623.584 720.843,626.041 720.843,634.232 " />
<polyline points="726.576,613.756 728.214,615.394 729.852,617.851 731.49,621.127 732.309,625.222 732.309,628.498 731.49,632.594 729.852,635.87 728.214,638.327 726.576,639.965 " />
<polyline points="756.061,622.765 756.061,634.232 " />
<polyline points="756.061,626.041 758.518,623.584 760.156,622.765 762.613,622.765 764.251,623.584 765.07,626.041 765.07,634.232 " />
<polyline points="765.07,626.041 767.527,623.584 769.165,622.765 771.622,622.765 773.26,623.584 774.079,626.041 774.079,634.232 " />
<polyline points="789.64,622.765 789.64,634.232 " />
<polyline points="789.64,625.222 788.002,623.584 786.364,622.765 783.907,622.765 782.269,623.584 780.631,625.222 779.812,627.679 779.812,629.317 780.631,631.775 782.269,633.413 783.907,634.232 786.364,634.232 788.002,633.413 789.64,631.775 " />
<polyline points="795.373,622.765 804.383,634.232 " />
<polyline points="804.383,622.765 795.373,634.232 " />
<polyline points="810.935,632.594 810.116,633.413 810.935,634.232 811.754,633.413 810.935,632.594 " />
<polyline points="817.487,613.756 819.125,615.394 820.763,617.851 822.401,621.127 823.22,625.222 823.22,628.498 822.401,632.594 820.763,635.87 819.125,638.327 817.487,639.965 " />
<polyline points="134.473,736.821 134.473,754.021 " />
<polyline points="134.473,736.821 145.939,754.021 " />
<polyline points="145.939,736.821 145.939,754.021 " />
<polyline points="156.587,736.821 154.948,737.64 153.31,739.279 152.491,740.917 151.672,743.374 151.672,747.469 152.491,749.926 153.31,751.564 154.948,753.202 156.587,754.021 159.863,754.021 161.501,753.202 163.139,751.564 163.958,749.926 164.777,747.469 164.777,743.374 163.958,740.917 163.139,739.279 161.501,737.64 159.863,736.821 156.587,736.821 " />
<polyline points="173.786,736.821 173.786,754.021 " />
<polyline points="168.053,736.821 179.519,736.821 " />
<polyline points="183.614,736.821 183.614,754.021 " />
<polyline points="183.614,736.821 194.261,736.821 " />
<polyline points="183.614,745.012 190.166,745.012 " />
<polyline points="183.614,754.021 194.261,754.021 " />
<polyline points="199.994,742.555 199.175,743.374 199.994,744.193 200.813,743.374 199.994,742.555 " />
<polyline points="199.994,752.383 199.175,753.202 199.994,754.021 200.813,753.202 199.994,752.383 " />
<polyline points="241.764,736.821 241.764,754.021 " />
<polyline points="241.764,736.821 247.497,736.821 249.955,737.64 251.593,739.279 252.412,740.917 253.231,743.374 253.231,747.469 252.412,749.926 251.593,751.564 249.955,753.202 247.497,754.021 241.764,754.021 " />
<polyline points="293.362,739.279 306.467,746.65 293.362,754.021 " />
<polyline points="313.019,736.821 313.019,754.021 " />
<polyline points="313.019,736.821 318.752,736.821 321.209,737.64 322.847,739.279 323.666,740.917 324.485,743.374 324.485,747.469 323.666,749.926 322.847,751.564 321.209,753.202 318.752,754.021 313.019,754.021 " />
<polyline points="259.878,747.571 259.878,760.471 " />
<polyline points="259.878,753.714 261.106,752.485 262.335,751.871 264.178,751.871 265.406,752.485 266.635,753.714 267.249,755.556 267.249,756.785 266.635,758.628 265.406,759.856 264.178,760.471 262.335,760.471 261.106,759.856 259.878,758.628 " />
<polyline points="272.777,750.028 274.006,749.414 275.849,747.571 275.849,760.471 " />
<polyline points="330.983,747.571 330.983,760.471 " />
<polyline points="330.983,753.714 332.211,752.485 333.44,751.871 335.283,751.871 336.511,752.485 337.74,753.714 338.354,755.556 338.354,756.785 337.74,758.628 336.511,759.856 335.283,760.471 333.44,760.471 332.211,759.856 330.983,758.628 " />
<polyline points="342.654,750.642 342.654,750.028 343.268,748.8 343.882,748.185 345.111,747.571 347.568,747.571 348.796,748.185 349.411,748.8 350.025,750.028 350.025,751.257 349.411,752.485 348.182,754.328 342.04,760.471 350.639,760.471 " />
<polyline points="293.287,755.11 306.355,755.11 " />
<polyline points="684.684,202.24 724.67,202.24 " />
<polyline points="684.684,408.632 724.67,408.632 " />
<polyline points="717.79,227.007 717.79,383.865 " />
</g>
<g clip-path="url(#clipId0)" fill="rgb(0,0,0)" stroke="rgb(0,0,0)" stroke-width="0.25" >
<path d="M721.918,227.007 713.662,227.007 717.79,202.24 717.79,202.24 z" />
<path d="M721.918,383.865 713.662,383.865 717.79,408.632 717.79,408.632 z" />
</g>
<g clip-path="url(#clipId0)" fill="none" stroke="rgb(0,0,0)" stroke-width="0.25" >
<polyline points="619.326,422.391 619.326,468.775 " />
<polyline points="636.526,424.004 636.526,468.775 " />
<polyline points="661.293,461.895 686.06,461.895 " />
<polyline points="594.559,461.895 569.792,461.895 " />
</g>
<g clip-path="url(#clipId0)" fill="rgb(0,0,0)" stroke="rgb(0,0,0)" stroke-width="0.25" >
<path d="M661.293,466.023 661.293,457.768 636.526,461.895 636.526,461.895 z" />
<path d="M594.559,466.023 594.559,457.768 619.326,461.895 619.326,461.895 z" />
</g>
<g clip-path="url(#clipId0)" fill="none" stroke="rgb(0,0,0)" stroke-width="0.25" >
<polyline points="366.1,513.002 421.469,608.904 " />
<polyline points="480.463,504.693 510.839,557.305 " />
<polyline points="439.478,590.562 462.714,577.147 " />
<polyline points="485.951,563.731 462.714,577.147 " />
</g>
<g clip-path="url(#clipId0)" fill="rgb(0,0,0)" stroke="rgb(0,0,0)" stroke-width="0.25" >
<path d="M441.542,594.137 437.414,586.987 418.029,602.946 418.029,602.946 z" />
<path d="M488.014,567.306 483.887,560.156 507.399,551.347 507.399,551.347 z" />
</g>
<g clip-path="url(#clipId0)" fill="none" stroke="rgb(0,0,0)" stroke-width="0.1" >
<polyline points="507.399,551.347 507.399,551.347 " />
</g>
<g clip-path="url(#clipId0)" fill="none" stroke="rgb(0,0,0)" stroke-width="0.25" >
<polyline points="316.708,523.768 280.102,544.903 " />
<polyline points="265.11,434.398 228.504,455.532 " />
<polyline points="273.676,520.014 246.845,473.541 " />
</g>
<g clip-path="url(#clipId0)" fill="rgb(0,0,0)" stroke="rgb(0,0,0)" stroke-width="0.25" >
<path d="M270.102,522.078 277.251,517.95 286.06,541.463 286.06,541.463 z" />
<path d="M243.271,475.605 250.42,471.477 234.462,452.092 234.462,452.092 z" />
</g>
<g clip-path="url(#clipId0)" fill="none" stroke="rgb(0,0,0)" stroke-width="0.25" >
<polyline points="392.162,317.352 405.016,339.615 " />
<polyline points="377.267,325.952 390.121,348.215 " />
<polyline points="365.232,354.64 343.783,367.024 " />
<polyline points="423.025,321.274 444.474,308.89 " />
</g>
<g clip-path="url(#clipId0)" fill="rgb(0,0,0)" stroke="rgb(0,0,0)" stroke-width="0.25" >
<path d="M367.296,358.215 363.168,351.066 386.681,342.257 386.681,342.257 z" />
<path d="M425.089,324.848 420.961,317.699 401.576,333.657 401.576,333.657 z" />
</g>
<g clip-path="url(#clipId0)" fill="none" stroke="rgb(0,0,0)" stroke-width="0.25" >
<polyline points="392.162,293.52 403.446,273.976 " />
<polyline points="377.267,284.92 388.551,265.376 " />
<polyline points="363.662,258.951 342.213,246.567 " />
<polyline points="421.455,292.317 442.904,304.701 " />
</g>
<g clip-path="url(#clipId0)" fill="rgb(0,0,0)" stroke="rgb(0,0,0)" stroke-width="0.25" >
<path d="M361.598,262.525 365.726,255.376 385.111,271.334 385.111,271.334 z" />
<path d="M419.391,295.892 423.519,288.742 400.006,279.934 400.006,279.934 z" />
</g>
<g clip-path="url(#clipId0)" fill="none" stroke="rgb(0,0,0)" stroke-width="0.25" >
<path d="M498.343,280.266  A96.4167,96.4167 0 0,0 498.343,330.959 " />
</g>
<g clip-path="url(#clipId0)" fill="rgb(0,0,0)" stroke="rgb(0,0,0)" stroke-width="0.25" >
<path d="M502.154,281.854 494.533,278.678 507.869,257.404 507.869,257.404 z" />
<path d="M502.154,329.371 494.533,332.547 507.869,353.821 507.869,353.821 z" />
</g>
<g clip-path="url(#clipId0)" fill="none" stroke="rgb(0,0,0)" stroke-width="0.25" >
<polyline points="480.463,106.179 514.559,47.1229 " />
<polyline points="404.49,100.174 454.979,12.7242 " />
<polyline points="489.67,40.6974 472.988,31.0658 " />
</g>
<g clip-path="url(#clipId0)" fill="rgb(0,0,0)" stroke="rgb(0,0,0)" stroke-width="0.25" >
<path d="M487.607,44.2722 491.734,37.1226 511.119,53.0809 511.119,53.0809 z" />
<path d="M470.924,34.6406 475.052,27.4909 451.539,18.6822 451.539,18.6822 z" />
</g>
<g clip-path="url(#clipId0)" fill="none" stroke="rgb(0,0,0)" stroke-width="0.1" >
<polyline points="451.539,18.6822 451.539,18.6822 " />
</g>
<g clip-path="url(#clipId0)" fill="none" stroke="rgb(0,0,0)" stroke-width="0.25" >
<polyline points="286.3,208.568 251.439,188.441 " />
<polyline points="355.098,89.4074 320.236,69.2802 " />
<polyline points="269.78,170.432 313.811,94.169 " />
</g>
<g clip-path="url(#clipId0)" fill="rgb(0,0,0)" stroke="rgb(0,0,0)" stroke-width="0.25" >
<path d="M273.355,172.496 266.206,168.368 257.397,191.881 257.397,191.881 z" />
<path d="M317.386,96.2329 310.236,92.1051 326.194,72.7201 326.194,72.7201 z" />
</g>
<g clip-path="url(#clipId0)" fill="none" stroke="rgb(0,0,0)" stroke-width="0.25" >
<polyline points="453.204,275.377 452.431,273.831 450.112,273.058 448.566,273.058 446.247,273.831 444.7,276.15 443.927,280.015 443.927,283.88 444.7,286.973 446.247,288.519 448.566,289.292 449.339,289.292 451.658,288.519 453.204,286.973 453.977,284.653 453.977,283.88 453.204,281.561 451.658,280.015 449.339,279.242 448.566,279.242 446.247,280.015 444.7,281.561 443.927,283.88 " />
<polyline points="463.254,273.058 460.934,273.831 459.388,276.15 458.615,280.015 458.615,282.334 459.388,286.199 460.934,288.519 463.254,289.292 464.8,289.292 467.119,288.519 468.665,286.199 469.438,282.334 469.438,280.015 468.665,276.15 467.119,273.831 464.8,273.058 463.254,273.058 " />
<polyline points="479.395,268.541 477.849,269.314 476.303,270.86 475.53,273.179 475.53,274.725 476.303,277.044 477.849,278.59 479.395,279.363 481.714,279.363 483.26,278.59 484.806,277.044 485.58,274.725 485.58,273.179 484.806,270.86 483.26,269.314 481.714,268.541 479.395,268.541 " />
<polyline points="761.779,730.073 761.779,756.529 " />
<polyline points="761.779,730.073 778.156,730.073 " />
<polyline points="761.779,742.671 771.857,742.671 " />
<polyline points="761.779,756.529 778.156,756.529 " />
<polyline points="785.715,730.073 785.715,756.529 " />
<polyline points="785.715,730.073 794.533,730.073 798.313,731.333 800.832,733.853 802.092,736.372 803.352,740.152 803.352,746.45 802.092,750.23 800.832,752.749 798.313,755.269 794.533,756.529 785.715,756.529 " />
<polyline points="826.028,730.073 813.43,730.073 812.17,741.411 813.43,740.152 817.209,738.892 820.989,738.892 824.768,740.152 827.288,742.671 828.547,746.45 828.547,748.97 827.288,752.749 824.768,755.269 820.989,756.529 817.209,756.529 813.43,755.269 812.17,754.009 810.91,751.49 " />
<polyline points="837.366,745.191 860.042,745.191 " />
<polyline points="885.238,738.892 883.978,742.671 881.458,745.191 877.679,746.45 876.419,746.45 872.64,745.191 870.12,742.671 868.86,738.892 868.86,737.632 870.12,733.853 872.64,731.333 876.419,730.073 877.679,730.073 881.458,731.333 883.978,733.853 885.238,738.892 885.238,745.191 883.978,751.49 881.458,755.269 877.679,756.529 875.159,756.529 871.38,755.269 870.12,752.749 " />
<polyline points="805.546,263.316 803.485,264.347 801.423,266.408 800.392,268.47 799.362,271.562 799.362,276.716 800.392,279.808 801.423,281.869 803.485,283.931 805.546,284.961 809.669,284.961 811.73,283.931 813.792,281.869 814.823,279.808 815.853,276.716 815.853,271.562 814.823,268.47 813.792,266.408 811.73,264.347 809.669,263.316 805.546,263.316 " />
<polyline points="808.638,280.838 814.823,287.023 " />
<polyline points="808.017,320.102 799.771,341.747 " />
<polyline points="808.017,320.102 816.263,341.747 " />
<polyline points="802.863,334.532 813.17,334.532 " />
<polyline points="217.542,48.5184 215.481,49.5491 213.419,51.6106 212.388,53.6721 211.358,56.7642 211.358,61.9179 212.388,65.0101 213.419,67.0715 215.481,69.133 217.542,70.1637 221.665,70.1637 223.726,69.133 225.788,67.0715 226.819,65.0101 227.849,61.9179 227.849,56.7642 226.819,53.6721 225.788,51.6106 223.726,49.5491 221.665,48.5184 217.542,48.5184 " />
<polyline points="220.634,66.0408 226.819,72.2252 " />
<polyline points="187.895,95.4283 179.649,117.074 " />
<polyline points="187.895,95.4283 196.141,117.074 " />
<polyline points="182.741,109.858 193.048,109.858 " />
<polyline points="145.895,495.396 143.833,496.427 141.772,498.489 140.741,500.55 139.71,503.642 139.71,508.796 140.741,511.888 141.772,513.949 143.833,516.011 145.895,517.042 150.017,517.042 152.079,516.011 154.14,513.949 155.171,511.888 156.202,508.796 156.202,503.642 155.171,500.55 154.14,498.489 152.079,496.427 150.017,495.396 145.895,495.396 " />
<polyline points="148.987,512.919 155.171,519.103 " />
<polyline points="190.365,549.713 182.12,571.358 " />
<polyline points="190.365,549.713 198.611,571.358 " />
<polyline points="185.212,564.143 195.519,564.143 " />
<polyline points="191.685,74.5015 163.795,62.7569 " />
<polyline points="155.426,557.304 134.147,568.889 " />
</g>
</svg>
