<?xml version="1.0" standalone="no"?>
<svg viewBox="0 0 1024 768" version="1.1" xmlns="http://www.w3.org/2000/svg" xmlns:xlink="http://www.w3.org/1999/xlink" stroke-linecap="round" stroke-linejoin="round" fill-rule="evenodd" xml:space="preserve" >
<defs >
<clipPath id="clipId0" >
<path d="M0,768 1024,768 1024,0 0,0 z" />
</clipPath>
</defs>
<g clip-path="url(#clipId0)" fill="none" stroke="rgb(0,0,0)" stroke-width="0.1" />
<g clip-path="url(#clipId0)" fill="none" stroke="rgb(0,0,0)" stroke-width="0.25" >
<polyline points="325.115,481.551 369.273,481.551 " />
<polyline points="668.841,481.551 668.841,236.033 " />
<polyline points="668.841,236.033 625.175,236.033 " />
<polyline points="325.115,236.033 325.115,481.551 " />
<polyline points="374.069,236.033 374.069,481.551 " />
<polyline points="620.379,236.033 620.379,481.551 " />
<polyline points="398.394,555.207 398.394,510.899 " />
<polyline points="601.047,162.377 601.047,206.685 " />
<polyline points="393.968,162.377 601.047,162.377 " />
<polyline points="393.968,236.033 374.069,236.033 " />
<polyline points="596.092,481.551 596.092,506.103 " />
<polyline points="393.968,236.033 393.968,211.481 " />
<polyline points="596.092,481.551 620.379,481.551 " />
<polyline points="393.968,211.481 601.047,211.481 " />
<polyline points="398.394,506.103 596.092,506.103 " />
<polyline points="398.394,555.207 596.092,555.207 " />
<polyline points="398.394,510.899 596.092,510.899 " />
<polyline points="369.273,236.033 369.273,481.551 " />
<polyline points="393.968,206.685 601.047,206.685 " />
<polyline points="625.175,481.551 668.841,481.551 " />
<path d="M620.379,481.551  A2.46038,2.46038 0 0,0 625.175,481.551 " />
<polyline points="620.379,236.033 601.047,236.033 " />
<polyline points="625.175,236.033 625.175,481.551 " />
<polyline points="601.047,211.481 601.047,236.033 " />
<path d="M601.047,211.481  A2.57979,2.57979 0 0,0 601.047,206.685 " />
<path d="M625.175,236.033  A2.51726,2.51726 0 0,0 620.379,236.033 " />
<polyline points="393.968,206.685 393.968,162.377 " />
<polyline points="369.273,236.033 325.115,236.033 " />
<path d="M374.069,236.033  A2.42867,2.42867 0 0,0 369.273,236.033 " />
<path d="M393.968,206.685  A2.3982,2.3982 0 0,0 393.968,211.481 " />
<polyline points="374.069,481.551 398.394,481.551 " />
<polyline points="398.394,506.103 398.394,481.551 " />
<path d="M369.273,481.551  A2.39816,2.39816 0 0,0 374.069,481.551 " />
<path d="M398.394,506.103  A2.39816,2.39816 0 0,0 398.394,510.899 " />
<polyline points="596.092,510.899 596.092,555.207 " />
<path d="M596.092,510.899  A2.39816,2.39816 0 0,0 596.092,506.103 " />
</g>
<g clip-path="url(#clipId0)" fill="rgb(0,0,0)" stroke="rgb(0,0,0)" stroke-width="0.25" >
<path d="M218.656,355.314 218.656,359.534 231.318,357.424 231.318,357.424 z" />
</g>
<g clip-path="url(#clipId0)" fill="none" stroke="rgb(0,0,0)" stroke-width="0.25" >
<polyline points="218.656,357.424 139.338,357.424 " />
<polyline points="315.764,357.495 679.433,357.495 " stroke-dasharray="124.549254,24.909851,24.909851,24.909851" />
<polyline points="500.071,153.438 500.071,565.336 " stroke-dasharray="124.549254,24.909851,24.909851,24.909851" />
<polyline points="605.671,211.481 738.154,211.481 " />
<polyline points="724.91,200.384 724.91,189.286 " />
<polyline points="724.91,189.286 736.008,189.286 " />
</g>
<g clip-path="url(#clipId0)" fill="rgb(0,0,0)" stroke="rgb(0,0,0)" stroke-width="0.25" >
<path d="M726.76,200.384 723.061,200.384 724.91,211.481 724.91,211.481 z" />
</g>
<g clip-path="url(#clipId0)" fill="none" stroke="rgb(0,0,0)" stroke-width="0.25" >
<polyline points="600.716,506.103 737.12,506.103 " />
<polyline points="673.465,236.033 738.067,236.033 " />
<polyline points="673.465,236.033 738.067,236.033 " />
<polyline points="673.465,481.551 738.067,481.551 " />
<polyline points="724.75,247.13 724.75,338.158 " />
<polyline points="724.75,470.454 724.75,373.798 " />
</g>
<g clip-path="url(#clipId0)" fill="rgb(0,0,0)" stroke="rgb(0,0,0)" stroke-width="0.25" >
<path d="M726.599,247.13 722.9,247.13 724.75,236.033 724.75,236.033 z" />
<path d="M726.599,470.454 722.9,470.454 724.75,481.551 724.75,481.551 z" />
</g>
<g clip-path="url(#clipId0)" fill="none" stroke="rgb(0,0,0)" stroke-width="0.25" >
<polyline points="320.491,236.033 251.551,236.033 " />
<polyline points="320.491,481.551 251.551,481.551 " />
<polyline points="264.868,247.13 264.868,342.69 " />
<polyline points="264.868,470.454 264.868,375.982 " />
</g>
<g clip-path="url(#clipId0)" fill="rgb(0,0,0)" stroke="rgb(0,0,0)" stroke-width="0.25" >
<path d="M266.717,247.13 263.018,247.13 264.868,236.033 264.868,236.033 z" />
<path d="M266.717,470.454 263.018,470.454 264.868,481.551 264.868,481.551 z" />
</g>
<g clip-path="url(#clipId0)" fill="none" stroke="rgb(0,0,0)" stroke-width="0.25" >
<polyline points="601.047,157.754 601.047,99.7538 " />
<polyline points="393.968,157.754 393.968,99.7538 " />
<polyline points="601.047,113.071 521.306,113.071 " />
<polyline points="393.968,113.071 477.012,113.071 " />
</g>
<g clip-path="url(#clipId0)" fill="rgb(0,0,0)" stroke="rgb(0,0,0)" stroke-width="0.25" >
<path d="M589.95,114.92 589.95,111.221 601.047,113.071 601.047,113.071 z" />
<path d="M405.066,114.92 405.066,111.221 393.968,113.071 393.968,113.071 z" />
</g>
<g clip-path="url(#clipId0)" fill="none" stroke="rgb(0,0,0)" stroke-width="0.25" >
<polyline points="596.092,559.831 596.092,622.904 " />
<polyline points="398.394,559.831 398.394,622.904 " />
<polyline points="596.092,609.587 523.811,609.587 " />
<polyline points="398.394,609.587 480.385,609.587 " />
</g>
<g clip-path="url(#clipId0)" fill="rgb(0,0,0)" stroke="rgb(0,0,0)" stroke-width="0.25" >
<path d="M584.995,611.437 584.995,607.738 596.092,609.587 596.092,609.587 z" />
<path d="M409.491,611.437 409.491,607.738 398.394,609.587 398.394,609.587 z" />
</g>
<g clip-path="url(#clipId0)" fill="none" stroke="rgb(0,0,0)" stroke-width="0.25" >
<polyline points="620.644,486.175 620.644,623.207 " />
<polyline points="373.842,486.175 373.842,622.672 " />
</g>
<g clip-path="url(#clipId0)" fill="rgb(0,0,0)" stroke="rgb(0,0,0)" stroke-width="0.25" >
<path d="M723,517.194 726.699,517.194 724.849,506.096 724.849,506.096 z" />
</g>
<g clip-path="url(#clipId0)" fill="none" stroke="rgb(0,0,0)" stroke-width="0.25" >
<polyline points="724.849,517.194 724.849,532.633 " />
<polyline points="724.849,532.633 737.609,532.633 " />
</g>
<g clip-path="url(#clipId0)" fill="rgb(0,0,0)" stroke="rgb(0,0,0)" stroke-width="0.25" >
<path d="M362.428,607.566 362.428,611.265 373.525,609.415 373.525,609.415 z" />
</g>
<g clip-path="url(#clipId0)" fill="none" stroke="rgb(0,0,0)" stroke-width="0.25" >
<polyline points="362.428,609.415 340.226,609.415 " />
</g>
<g clip-path="url(#clipId0)" fill="rgb(0,0,0)" stroke="rgb(0,0,0)" stroke-width="0.25" >
<path d="M631.482,611.8 631.482,608.101 620.385,609.95 620.385,609.95 z" />
</g>
<g clip-path="url(#clipId0)" fill="none" stroke="rgb(0,0,0)" stroke-width="0.25" >
<polyline points="631.482,609.95 644.53,609.95 " />
<polyline points="486.645,120.009 486.645,105.212 491.577,105.212 493.691,105.917 495.1,107.326 495.805,108.735 496.509,110.849 496.509,114.372 495.805,116.486 495.1,117.895 493.691,119.304 491.577,120.009 486.645,120.009 " />
<polyline points="501.79,123.487 501.79,114.609 " />
<polyline points="501.79,118.837 502.636,117.991 503.481,117.569 504.749,117.569 505.595,117.991 506.44,118.837 506.863,120.105 506.863,120.951 506.44,122.219 505.595,123.064 504.749,123.487 503.481,123.487 502.636,123.064 501.79,122.219 " />
<polyline points="509.822,116.3 510.668,115.878 511.936,114.609 511.936,123.487 " />
<polyline points="750.789,184.087 752.198,183.382 754.312,181.268 754.312,196.065 " />
<polyline points="763.472,179.154 762.767,179.859 762.063,179.154 762.767,178.45 763.472,179.154 763.472,180.564 762.767,181.973 762.063,182.677 " />
<polyline points="767.7,179.154 766.995,179.859 766.29,179.154 766.995,178.45 767.7,179.154 767.7,180.564 766.995,181.973 766.29,182.677 " />
<polyline points="790.951,178.45 789.542,179.859 788.133,181.973 786.724,184.791 786.019,188.314 786.019,191.132 786.724,194.655 788.133,197.474 789.542,199.588 790.951,200.997 " />
<polyline points="796.588,184.791 796.588,184.087 797.292,182.677 797.997,181.973 799.406,181.268 802.225,181.268 803.634,181.973 804.338,182.677 805.043,184.087 805.043,185.496 804.338,186.905 802.929,189.019 795.883,196.065 805.748,196.065 " />
<polyline points="818.43,181.268 811.384,181.268 810.68,187.61 811.384,186.905 813.498,186.2 815.612,186.2 817.726,186.905 819.135,188.314 819.839,190.428 819.839,191.837 819.135,193.951 817.726,195.36 815.612,196.065 813.498,196.065 811.384,195.36 810.68,194.655 809.975,193.246 " />
<polyline points="837.454,196.065 837.454,186.2 " />
<polyline points="837.454,189.019 839.568,186.905 840.977,186.2 843.091,186.2 844.5,186.905 845.205,189.019 845.205,196.065 " />
<polyline points="845.205,189.019 847.319,186.905 848.728,186.2 850.841,186.2 852.251,186.905 852.955,189.019 852.955,196.065 " />
<polyline points="858.592,196.065 858.592,186.2 " />
<polyline points="858.592,189.019 860.706,186.905 862.115,186.2 864.229,186.2 865.638,186.905 866.343,189.019 866.343,196.065 " />
<polyline points="866.343,189.019 868.456,186.905 869.865,186.2 871.979,186.2 873.388,186.905 874.093,189.019 874.093,196.065 " />
<polyline points="879.73,178.45 881.139,179.859 882.548,181.973 883.957,184.791 884.662,188.314 884.662,191.132 883.957,194.655 882.548,197.474 881.139,199.588 879.73,200.997 " />
<polyline points="749.838,528.34 751.247,527.635 753.361,525.522 753.361,540.318 " />
<polyline points="762.521,523.408 761.816,524.112 761.112,523.408 761.816,522.703 762.521,523.408 762.521,524.817 761.816,526.226 761.112,526.931 " />
<polyline points="766.748,523.408 766.044,524.112 765.339,523.408 766.044,522.703 766.748,523.408 766.748,524.817 766.044,526.226 765.339,526.931 " />
<polyline points="790,522.703 788.591,524.112 787.182,526.226 785.772,529.045 785.068,532.567 785.068,535.386 785.772,538.909 787.182,541.727 788.591,543.841 790,545.25 " />
<polyline points="795.637,529.045 795.637,528.34 796.341,526.931 797.046,526.226 798.455,525.522 801.273,525.522 802.683,526.226 803.387,526.931 804.092,528.34 804.092,529.749 803.387,531.158 801.978,533.272 794.932,540.318 804.796,540.318 " />
<polyline points="817.479,525.522 810.433,525.522 809.728,531.863 810.433,531.158 812.547,530.454 814.661,530.454 816.774,531.158 818.184,532.567 818.888,534.681 818.888,536.09 818.184,538.204 816.774,539.613 814.661,540.318 812.547,540.318 810.433,539.613 809.728,538.909 809.024,537.5 " />
<polyline points="836.503,540.318 836.503,530.454 " />
<polyline points="836.503,533.272 838.617,531.158 840.026,530.454 842.14,530.454 843.549,531.158 844.254,533.272 844.254,540.318 " />
<polyline points="844.254,533.272 846.367,531.158 847.777,530.454 849.89,530.454 851.299,531.158 852.004,533.272 852.004,540.318 " />
<polyline points="857.641,540.318 857.641,530.454 " />
<polyline points="857.641,533.272 859.755,531.158 861.164,530.454 863.278,530.454 864.687,531.158 865.391,533.272 865.391,540.318 " />
<polyline points="865.391,533.272 867.505,531.158 868.914,530.454 871.028,530.454 872.437,531.158 873.142,533.272 873.142,540.318 " />
<polyline points="878.779,522.703 880.188,524.112 881.597,526.226 883.006,529.045 883.711,532.567 883.711,535.386 883.006,538.909 881.597,541.727 880.188,543.841 878.779,545.25 " />
<polyline points="715.931,364.47 715.931,349.673 720.864,349.673 722.977,350.378 724.386,351.787 725.091,353.196 725.796,355.31 725.796,358.833 725.091,360.947 724.386,362.356 722.977,363.765 720.864,364.47 715.931,364.47 " />
<polyline points="736.087,361.312 735.664,360.467 734.819,359.621 733.973,359.198 732.282,359.198 731.437,359.621 730.591,360.467 730.169,361.312 729.746,362.58 729.746,364.694 730.169,365.962 730.591,366.808 731.437,367.653 732.282,368.076 733.973,368.076 734.819,367.653 735.664,366.808 736.087,365.962 " />
<polyline points="256.049,364.5 256.049,349.704 260.981,349.704 263.095,350.408 264.504,351.817 265.209,353.226 265.914,355.34 265.914,358.863 265.209,360.977 264.504,362.386 263.095,363.795 260.981,364.5 256.049,364.5 " />
<polyline points="276.588,360.257 275.743,359.412 274.474,358.989 272.783,358.989 271.515,359.412 270.67,360.257 270.67,361.103 271.092,361.948 271.515,362.371 272.361,362.794 274.897,363.639 275.743,364.062 276.165,364.485 276.588,365.33 276.588,366.598 275.743,367.444 274.474,367.867 272.783,367.867 271.515,367.444 270.67,366.598 " />
<polyline points="488.627,616.506 488.627,601.71 493.559,601.71 495.672,602.414 497.082,603.823 497.786,605.233 498.491,607.346 498.491,610.869 497.786,612.983 497.082,614.392 495.672,615.802 493.559,616.506 488.627,616.506 " />
<polyline points="503.209,619.062 503.209,610.184 " />
<polyline points="503.209,614.412 504.054,613.566 504.9,613.144 506.168,613.144 507.014,613.566 507.859,614.412 508.282,615.68 508.282,616.526 507.859,617.794 507.014,618.639 506.168,619.062 504.9,619.062 504.054,618.639 503.209,617.794 " />
<polyline points="511.664,612.298 511.664,611.875 512.087,611.03 512.51,610.607 513.355,610.184 515.046,610.184 515.892,610.607 516.314,611.03 516.737,611.875 516.737,612.721 516.314,613.566 515.469,614.835 511.241,619.062 517.16,619.062 " />
<polyline points="658.194,605.888 659.603,605.183 661.717,603.07 661.717,617.866 " />
<polyline points="670.877,600.956 670.172,601.661 669.468,600.956 670.172,600.251 670.877,600.956 670.877,602.365 670.172,603.774 669.468,604.479 " />
<polyline points="675.104,600.956 674.4,601.661 673.695,600.956 674.4,600.251 675.104,600.956 675.104,602.365 674.4,603.774 673.695,604.479 " />
<polyline points="698.356,600.251 696.947,601.661 695.538,603.774 694.128,606.593 693.424,610.116 693.424,612.934 694.128,616.457 695.538,619.275 696.947,621.389 698.356,622.798 " />
<polyline points="703.993,606.593 703.993,605.888 704.697,604.479 705.402,603.774 706.811,603.07 709.63,603.07 711.039,603.774 711.743,604.479 712.448,605.888 712.448,607.297 711.743,608.706 710.334,610.82 703.288,617.866 713.152,617.866 " />
<polyline points="725.835,603.07 718.789,603.07 718.085,609.411 718.789,608.706 720.903,608.002 723.017,608.002 725.131,608.706 726.54,610.116 727.244,612.229 727.244,613.639 726.54,615.752 725.131,617.162 723.017,617.866 720.903,617.866 718.789,617.162 718.085,616.457 717.38,615.048 " />
<polyline points="744.859,617.866 744.859,608.002 " />
<polyline points="744.859,610.82 746.973,608.706 748.382,608.002 750.496,608.002 751.905,608.706 752.61,610.82 752.61,617.866 " />
<polyline points="752.61,610.82 754.723,608.706 756.133,608.002 758.246,608.002 759.656,608.706 760.36,610.82 760.36,617.866 " />
<polyline points="765.997,617.866 765.997,608.002 " />
<polyline points="765.997,610.82 768.111,608.706 769.52,608.002 771.634,608.002 773.043,608.706 773.747,610.82 773.747,617.866 " />
<polyline points="773.747,610.82 775.861,608.706 777.27,608.002 779.384,608.002 780.793,608.706 781.498,610.82 781.498,617.866 " />
<polyline points="787.135,600.251 788.544,601.661 789.953,603.774 791.362,606.593 792.067,610.116 792.067,612.934 791.362,616.457 789.953,619.275 788.544,621.389 787.135,622.798 " />
<polyline points="185.983,604.213 187.392,603.509 189.506,601.395 189.506,616.191 " />
<polyline points="198.666,599.281 197.961,599.986 197.257,599.281 197.961,598.576 198.666,599.281 198.666,600.69 197.961,602.099 197.257,602.804 " />
<polyline points="202.893,599.281 202.189,599.986 201.484,599.281 202.189,598.576 202.893,599.281 202.893,600.69 202.189,602.099 201.484,602.804 " />
<polyline points="226.145,598.576 224.736,599.986 223.326,602.099 221.917,604.918 221.213,608.441 221.213,611.259 221.917,614.782 223.326,617.6 224.736,619.714 226.145,621.123 " />
<polyline points="231.782,604.918 231.782,604.213 232.486,602.804 233.191,602.099 234.6,601.395 237.418,601.395 238.828,602.099 239.532,602.804 240.237,604.213 240.237,605.622 239.532,607.032 238.123,609.145 231.077,616.191 240.941,616.191 " />
<polyline points="253.624,601.395 246.578,601.395 245.873,607.736 246.578,607.032 248.692,606.327 250.806,606.327 252.919,607.032 254.329,608.441 255.033,610.554 255.033,611.964 254.329,614.077 252.919,615.487 250.806,616.191 248.692,616.191 246.578,615.487 245.873,614.782 245.169,613.373 " />
<polyline points="272.648,616.191 272.648,606.327 " />
<polyline points="272.648,609.145 274.762,607.032 276.171,606.327 278.285,606.327 279.694,607.032 280.398,609.145 280.398,616.191 " />
<polyline points="280.398,609.145 282.512,607.032 283.921,606.327 286.035,606.327 287.444,607.032 288.149,609.145 288.149,616.191 " />
<polyline points="293.786,616.191 293.786,606.327 " />
<polyline points="293.786,609.145 295.9,607.032 297.309,606.327 299.422,606.327 300.832,607.032 301.536,609.145 301.536,616.191 " />
<polyline points="301.536,609.145 303.65,607.032 305.059,606.327 307.173,606.327 308.582,607.032 309.287,609.145 309.287,616.191 " />
<polyline points="314.924,598.576 316.333,599.986 317.742,602.099 319.151,604.918 319.856,608.441 319.856,611.259 319.151,614.782 317.742,617.6 316.333,619.714 314.924,621.123 " />
<polyline points="463.309,48.3748 469.51,32.0987 475.71,48.3748 " />
<polyline points="465.634,42.9494 473.385,42.9494 " />
<polyline points="161.195,345.348 167.396,329.072 173.596,345.348 " />
<polyline points="163.52,339.923 171.271,339.923 " />
<polyline points="164.92,364.816 163.37,365.591 161.82,367.141 161.045,368.691 160.27,371.016 160.27,374.891 161.045,377.217 161.82,378.767 163.37,380.317 164.92,381.092 168.021,381.092 169.571,380.317 171.121,378.767 171.896,377.217 172.671,374.891 172.671,371.016 171.896,368.691 171.121,367.141 169.571,365.591 168.021,364.816 164.92,364.816 " />
<polyline points="167.246,377.992 171.896,382.642 " />
<polyline points="513.467,672.169 511.916,672.944 510.366,674.494 509.591,676.045 508.816,678.37 508.816,682.245 509.591,684.57 510.366,686.12 511.916,687.67 513.467,688.445 516.567,688.445 518.117,687.67 519.667,686.12 520.442,684.57 521.217,682.245 521.217,678.37 520.442,676.045 519.667,674.494 518.117,672.944 516.567,672.169 513.467,672.169 " />
<polyline points="515.792,685.345 520.442,689.996 " />
<polyline points="526.924,51.8568 526.924,42.0912 " />
<polyline points="526.924,46.7415 527.854,45.8114 528.784,45.3464 530.179,45.3464 531.109,45.8114 532.04,46.7415 532.505,48.1366 532.505,49.0666 532.04,50.4617 531.109,51.3918 530.179,51.8568 528.784,51.8568 527.854,51.3918 526.924,50.4617 " />
<polyline points="535.76,43.9513 536.69,43.4863 538.085,42.0912 538.085,51.8568 " />
<polyline points="513.874,32.3501 512.324,33.1251 510.774,34.6752 509.999,36.2254 509.224,38.5505 509.224,42.4258 509.999,44.7509 510.774,46.301 512.324,47.8511 513.874,48.6262 516.975,48.6262 518.525,47.8511 520.075,46.301 520.85,44.7509 521.625,42.4258 521.625,38.5505 520.85,36.2254 520.075,34.6752 518.525,33.1251 516.975,32.3501 513.874,32.3501 " />
<polyline points="516.2,45.526 520.85,50.1763 " />
<polyline points="479.358,53.0129 479.358,43.2472 " />
<polyline points="479.358,47.8975 480.288,46.9675 481.218,46.5024 482.613,46.5024 483.543,46.9675 484.474,47.8975 484.939,49.2926 484.939,50.2227 484.474,51.6178 483.543,52.5478 482.613,53.0129 481.218,53.0129 480.288,52.5478 479.358,51.6178 " />
<polyline points="488.194,45.1073 489.124,44.6423 490.519,43.2472 490.519,53.0129 " />
<polyline points="526.267,692.018 526.267,682.252 " />
<polyline points="526.267,686.902 527.197,685.972 528.127,685.507 529.522,685.507 530.452,685.972 531.382,686.902 531.847,688.297 531.847,689.228 531.382,690.623 530.452,691.553 529.522,692.018 528.127,692.018 527.197,691.553 526.267,690.623 " />
<polyline points="535.568,684.577 535.568,684.112 536.033,683.182 536.498,682.717 537.428,682.252 539.288,682.252 540.218,682.717 540.683,683.182 541.148,684.112 541.148,685.042 540.683,685.972 539.753,687.367 535.103,692.018 541.613,692.018 " />
<polyline points="475.865,691.666 475.865,681.9 " />
<polyline points="475.865,686.55 476.795,685.62 477.725,685.155 479.12,685.155 480.05,685.62 480.98,686.55 481.445,687.946 481.445,688.876 480.98,690.271 480.05,691.201 479.12,691.666 477.725,691.666 476.795,691.201 475.865,690.271 " />
<polyline points="485.165,684.225 485.165,683.76 485.63,682.83 486.095,682.365 487.025,681.9 488.886,681.9 489.816,682.365 490.281,682.83 490.746,683.76 490.746,684.69 490.281,685.62 489.351,687.016 484.7,691.666 491.211,691.666 " />
<polyline points="458.054,688.807 464.255,672.531 470.455,688.807 " />
<polyline points="460.379,683.381 468.13,683.381 " />
<polyline points="185.545,341.325 184.615,340.395 183.22,339.93 181.36,339.93 179.964,340.395 179.034,341.325 179.034,342.255 179.499,343.185 179.964,343.65 180.895,344.115 183.685,345.045 184.615,345.51 185.08,345.975 185.545,346.905 185.545,348.3 184.615,349.23 183.22,349.695 181.36,349.695 179.964,349.23 179.034,348.3 " />
<polyline points="184.511,375.365 183.58,374.435 182.185,373.97 180.325,373.97 178.93,374.435 178,375.365 178,376.295 178.465,377.225 178.93,377.69 179.86,378.155 182.65,379.085 183.58,379.55 184.046,380.015 184.511,380.945 184.511,382.34 183.58,383.27 182.185,383.735 180.325,383.735 178.93,383.27 178,382.34 " />
<path d="M596.092,481.551  A228.39,228.39 0 0,0 398.394,481.551 " />
<path d="M393.968,236.033  A307.842,307.842 0 0,0 601.047,236.033 " />
<polyline points="820.372,376.295 819.907,375.365 818.977,374.435 818.047,373.97 816.187,373.97 815.256,374.435 814.326,375.365 813.861,376.295 813.396,377.69 813.396,380.015 813.861,381.41 814.326,382.34 815.256,383.27 816.187,383.735 818.047,383.735 818.977,383.27 819.907,382.34 820.372,381.41 " />
<polyline points="821.406,342.255 820.941,341.325 820.011,340.395 819.081,339.93 817.221,339.93 816.291,340.395 815.361,341.325 814.896,342.255 814.431,343.65 814.431,345.975 814.896,347.37 815.361,348.3 816.291,349.23 817.221,349.695 819.081,349.695 820.011,349.23 820.941,348.3 821.406,347.37 " />
<polyline points="800.317,364.816 798.767,365.591 797.216,367.141 796.441,368.691 795.666,371.016 795.666,374.891 796.441,377.217 797.216,378.767 798.767,380.317 800.317,381.092 803.417,381.092 804.967,380.317 806.517,378.767 807.292,377.217 808.067,374.891 808.067,371.016 807.292,368.691 806.517,367.141 804.967,365.591 803.417,364.816 800.317,364.816 " />
<polyline points="802.642,377.992 807.292,382.642 " />
<polyline points="796.591,345.348 802.792,329.072 808.992,345.348 " />
<polyline points="798.917,339.923 806.667,339.923 " />
<polyline points="843.919,357.424 764.601,357.424 " />
</g>
<g clip-path="url(#clipId0)" fill="rgb(0,0,0)" stroke="rgb(0,0,0)" stroke-width="0.25" >
<path d="M843.919,355.314 843.919,359.534 856.581,357.424 856.581,357.424 z" />
</g>
<g clip-path="url(#clipId0)" fill="none" stroke="rgb(0,0,0)" stroke-width="0.25" >
<polyline points="499.381,76.7138 499.381,7.52941 " />
</g>
<g clip-path="url(#clipId0)" fill="rgb(0,0,0)" stroke="rgb(0,0,0)" stroke-width="0.25" >
<path d="M501.492,76.7138 497.271,76.7138 499.381,89.3761 499.381,89.3761 z" />
<path d="M501.492,651.664 497.271,651.664 499.381,639.002 499.381,639.002 z" />
</g>
<g clip-path="url(#clipId0)" fill="none" stroke="rgb(0,0,0)" stroke-width="0.25" >
<polyline points="499.381,651.664 499.381,720.849 " />
<polyline points="159.025,756.618 159.025,740.342 164.45,740.342 166.775,741.117 168.325,742.667 169.1,744.218 169.875,746.543 169.875,750.418 169.1,752.743 168.325,754.293 166.775,755.843 164.45,756.618 159.025,756.618 " />
<polyline points="204.753,747.318 218.704,747.318 " />
<polyline points="204.753,751.968 218.704,751.968 " />
<polyline points="239.63,756.618 239.63,740.342 245.055,740.342 247.38,741.117 248.931,742.667 249.706,744.218 250.481,746.543 250.481,750.418 249.706,752.743 248.931,754.293 247.38,755.843 245.055,756.618 239.63,756.618 " />
<polyline points="285.358,747.318 299.309,747.318 " />
<polyline points="285.358,751.968 299.309,751.968 " />
<polyline points="320.235,756.618 320.235,740.342 325.661,740.342 327.986,741.117 329.536,742.667 330.311,744.218 331.086,746.543 331.086,750.418 330.311,752.743 329.536,754.293 327.986,755.843 325.661,756.618 320.235,756.618 " />
<polyline points="174.763,760.471 174.763,750.705 " />
<polyline points="174.763,755.355 175.693,754.425 176.623,753.96 178.019,753.96 178.949,754.425 179.879,755.355 180.344,756.75 180.344,757.68 179.879,759.075 178.949,760.006 178.019,760.471 176.623,760.471 175.693,760.006 174.763,759.075 " />
<polyline points="255.356,760.471 255.356,750.705 " />
<polyline points="255.356,755.355 256.286,754.425 257.216,753.96 258.611,753.96 259.541,754.425 260.471,755.355 260.936,756.75 260.936,757.68 260.471,759.075 259.541,760.006 258.611,760.471 257.216,760.471 256.286,760.006 255.356,759.075 " />
<polyline points="264.191,752.565 265.121,752.1 266.516,750.705 266.516,760.471 " />
<polyline points="336.549,760.471 336.549,750.705 " />
<polyline points="336.549,755.355 337.479,754.425 338.409,753.96 339.804,753.96 340.734,754.425 341.664,755.355 342.129,756.75 342.129,757.68 341.664,759.075 340.734,760.006 339.804,760.471 338.409,760.471 337.479,760.006 336.549,759.075 " />
<polyline points="345.849,753.03 345.849,752.565 346.314,751.635 346.779,751.17 347.709,750.705 349.569,750.705 350.5,751.17 350.965,751.635 351.43,752.565 351.43,753.495 350.965,754.425 350.035,755.82 345.384,760.471 351.895,760.471 " />
<polyline points="770.694,759.174 770.694,737.253 784.264,737.253 " />
<polyline points="770.694,747.692 779.045,747.692 " />
<polyline points="770.694,759.174 784.264,759.174 " />
<polyline points="790.527,759.174 790.527,737.253 797.834,737.253 800.965,738.297 803.053,740.385 804.097,742.472 805.141,745.604 805.141,750.823 804.097,753.955 803.053,756.042 800.965,758.13 797.834,759.174 790.527,759.174 " />
<polyline points="824.974,737.253 814.535,737.253 813.491,746.648 814.535,745.604 817.667,744.56 820.798,744.56 823.93,745.604 826.017,747.692 827.061,750.823 827.061,752.911 826.017,756.042 823.93,758.13 820.798,759.174 817.667,759.174 814.535,758.13 813.491,757.086 812.447,754.998 " />
<polyline points="833.324,749.779 852.113,749.779 " />
<polyline points="860.464,741.429 862.552,740.385 865.683,737.253 865.683,759.174 " />
<polyline points="877.166,741.429 879.253,740.385 882.385,737.253 882.385,759.174 " />
</g>
</svg>
