<?xml version="1.0" standalone="no"?>
<svg viewBox="0 0 1024 768" version="1.1" xmlns="http://www.w3.org/2000/svg" xmlns:xlink="http://www.w3.org/1999/xlink" stroke-linecap="round" stroke-linejoin="round" fill-rule="evenodd" xml:space="preserve" >
<defs >
<clipPath id="clipId0" >
<path d="M0,768 1024,768 1024,0 0,0 z" />
</clipPath>
</defs>
<g clip-path="url(#clipId0)" fill="none" stroke="rgb(0,0,0)" stroke-width="0.1" />
<g clip-path="url(#clipId0)" fill="none" stroke="rgb(0,0,0)" stroke-width="0.25" >
<polyline points="348.614,244.798 356.113,244.798 " />
<polyline points="396.547,244.798 373.951,267.393 " />
<polyline points="373.951,267.393 464.334,357.776 " />
<polyline points="464.334,357.776 577.312,244.798 " />
<polyline points="577.312,244.798 591.293,244.798 " />
<polyline points="625.245,244.798 625.245,53.067 " />
<polyline points="625.245,53.067 595.287,53.067 " />
<polyline points="328.76,312.585 419.142,402.967 " />
<polyline points="292.803,348.541 401.164,420.946 " />
<polyline points="253.884,442.5 381.705,467.925 " />
<polyline points="373.951,267.393 292.803,348.541 " />
<polyline points="464.334,357.776 401.164,420.946 " />
<polyline points="253.884,525.305 253.884,495.347 " />
<polyline points="381.705,525.305 381.705,495.347 " />
<polyline points="292.803,348.541 253.884,442.5 " />
<polyline points="401.164,420.946 381.705,467.925 " />
<polyline points="253.884,525.305 381.705,525.305 " />
<polyline points="582.795,148.932 566.817,148.932 " />
<polyline points="582.795,148.932 571.497,160.23 " />
<polyline points="582.795,148.932 598.772,148.932 " />
<polyline points="582.795,148.932 594.093,137.635 " />
<polyline points="548.901,182.826 373.951,357.776 " />
<polyline points="534.862,148.932 373.343,148.932 " />
<polyline points="630.727,148.932 640.502,148.932 " />
<polyline points="317.794,493.35 317.794,532.972 " />
<path d="M373.951,357.776  A191.731,191.731 0 0,0 317.794,493.35 " />
</g>
<g clip-path="url(#clipId0)" fill="rgb(0,0,0)" stroke="rgb(0,0,0)" stroke-width="0.25" >
<path d="M352.178,432.325 355.113,425.24 332.389,419.978 332.389,419.978 z" />
</g>
<g clip-path="url(#clipId0)" fill="none" stroke="rgb(0,0,0)" stroke-width="0.25" >
<polyline points="415.034,449.682 415.034,460.334 " />
<polyline points="415.034,454.247 415.795,451.964 417.317,450.443 418.838,449.682 421.121,449.682 " />
<polyline points="595.287,244.798 595.287,53.067 " />
<polyline points="591.293,244.798 591.293,53.067 " />
<path d="M595.287,53.067  A2.08041,2.08041 0 0,0 591.293,53.067 " />
<polyline points="591.293,53.067 382.566,53.067 " />
<path d="M591.293,244.798  A2.08041,2.08041 0 0,0 595.287,244.798 " />
<polyline points="595.287,244.798 625.245,244.798 " />
<path d="M577.312,244.798  A217.731,217.731 0 0,0 396.547,244.798 " />
<polyline points="382.566,53.067 382.566,244.798 " />
<polyline points="378.572,53.067 378.572,244.798 " />
<path d="M382.566,53.067  A2.08041,2.08041 0 0,0 378.572,53.067 " />
<path d="M378.572,244.798  A2.08041,2.08041 0 0,0 382.566,244.798 " />
<polyline points="378.572,53.067 367.99,53.067 " />
<path d="M378.572,244.798  A2.08041,2.08041 0 0,0 382.566,244.798 " />
<polyline points="382.566,244.798 396.547,244.798 " />
<polyline points="253.884,491.353 381.705,491.353 " />
<polyline points="253.884,495.347 381.705,495.347 " />
<path d="M253.884,491.353  A2.08041,2.08041 0 0,0 253.884,495.347 " />
<path d="M381.705,495.347  A2.08041,2.08041 0 0,0 381.705,491.353 " />
<polyline points="253.884,491.353 253.884,442.5 " />
<polyline points="381.705,491.353 381.705,467.925 " />
</g>
<g clip-path="url(#clipId0)" fill="rgb(0,0,0)" stroke="rgb(0,0,0)" stroke-width="0.25" >
<path d="M313.96,601.119 321.629,601.119 317.794,578.112 317.794,578.112 z" />
</g>
<g clip-path="url(#clipId0)" fill="none" stroke="rgb(0,0,0)" stroke-width="0.25" >
<polyline points="317.794,601.119 317.794,666.452 " />
<polyline points="335.691,636.476 329.605,652.454 " />
<polyline points="335.691,636.476 341.778,652.454 " />
<polyline points="331.887,647.128 339.496,647.128 " />
<polyline points="345.81,646.26 345.81,658.243 " />
<polyline points="345.81,651.966 346.951,650.825 348.093,650.254 349.805,650.254 350.946,650.825 352.087,651.966 352.658,653.678 352.658,654.819 352.087,656.531 350.946,657.672 349.805,658.243 348.093,658.243 346.951,657.672 345.81,656.531 " />
<polyline points="835.97,176.566 834.829,175.425 833.688,174.855 831.976,174.855 830.835,175.425 829.694,176.566 829.123,178.278 829.123,179.42 829.694,181.131 830.835,182.273 831.976,182.843 833.688,182.843 834.829,182.273 835.97,181.131 " />
<polyline points="819.004,163.074 812.917,179.052 " />
<polyline points="819.004,163.074 825.091,179.052 " />
<polyline points="815.2,173.726 822.808,173.726 " />
<polyline points="864.249,148.932 768.464,148.932 " />
</g>
<g clip-path="url(#clipId0)" fill="rgb(0,0,0)" stroke="rgb(0,0,0)" stroke-width="0.25" >
<path d="M864.249,145.098 864.249,152.767 887.257,148.932 887.257,148.932 z" />
</g>
<g clip-path="url(#clipId0)" fill="none" stroke="rgb(0,0,0)" stroke-width="0.25" >
<polyline points="583.115,368.364 593.803,368.364 " />
<polyline points="728.518,53.067 728.518,29.1007 " />
<polyline points="728.518,29.1007 736.982,29.1007 " />
<polyline points="745.035,18.5076 745.035,34.4852 " />
<polyline points="745.035,18.5076 750.36,18.5076 752.643,19.2684 754.165,20.7901 754.925,22.3118 755.686,24.5943 755.686,28.3985 754.925,30.681 754.165,32.2027 752.643,33.7243 750.36,34.4852 745.035,34.4852 " />
<polyline points="765.162,32.2027 764.02,31.0614 762.879,30.4908 761.167,30.4908 760.026,31.0614 758.885,32.2027 758.314,33.9145 758.314,35.0558 758.885,36.7677 760.026,37.9089 761.167,38.4796 762.879,38.4796 764.02,37.9089 765.162,36.7677 " />
<polyline points="381.705,561.623 405.671,561.623 " />
<polyline points="411.574,551.761 411.574,567.738 " />
<polyline points="411.574,551.761 416.9,551.761 419.183,552.522 420.704,554.043 421.465,555.565 422.226,557.847 422.226,561.652 421.465,563.934 420.704,565.456 419.183,566.977 416.9,567.738 411.574,567.738 " />
<polyline points="426.684,562.123 426.684,574.106 " />
<polyline points="426.684,567.829 427.825,566.688 428.966,566.117 430.678,566.117 431.819,566.688 432.961,567.829 433.531,569.541 433.531,570.682 432.961,572.394 431.819,573.536 430.678,574.106 428.966,574.106 427.825,573.536 426.684,572.394 " />
<polyline points="135.852,741.995 135.852,753.712 " />
<polyline points="135.852,747.017 136.689,744.506 138.363,742.832 140.037,741.995 142.547,741.995 " />
<polyline points="160.123,732.789 145.058,759.571 " />
<polyline points="165.144,736.137 165.144,753.712 " />
<polyline points="165.144,736.137 171.003,736.137 173.513,736.974 175.187,738.648 176.024,740.322 176.861,742.832 176.861,747.017 176.024,749.528 175.187,751.202 173.513,752.875 171.003,753.712 165.144,753.712 " />
<polyline points="200.295,743.669 215.359,743.669 " />
<polyline points="200.295,748.691 215.359,748.691 " />
<polyline points="223.729,739.485 225.402,738.648 227.913,736.137 227.913,753.712 " />
<polyline points="239.63,752.038 238.793,752.875 239.63,753.712 240.467,752.875 239.63,752.038 " />
<polyline points="256.368,736.137 247.999,736.137 247.162,743.669 247.999,742.832 250.51,741.995 253.021,741.995 255.532,742.832 257.205,744.506 258.042,747.017 258.042,748.691 257.205,751.202 255.532,752.875 253.021,753.712 250.51,753.712 247.999,752.875 247.162,752.038 246.325,750.365 " />
<polyline points="182.03,747.289 182.03,760.471 " />
<polyline points="182.03,753.566 183.286,752.311 184.541,751.683 186.424,751.683 187.68,752.311 188.935,753.566 189.563,755.449 189.563,756.704 188.935,758.588 187.68,759.843 186.424,760.471 184.541,760.471 183.286,759.843 182.03,758.588 " />
<polyline points="473.372,366.814 539.098,432.54 " />
<polyline points="405.585,253.836 561.694,409.945 " />
<polyline points="566.846,384.633 583.115,368.364 " />
<polyline points="511.713,439.766 500.186,451.293 " />
</g>
<g clip-path="url(#clipId0)" fill="rgb(0,0,0)" stroke="rgb(0,0,0)" stroke-width="0.25" >
<path d="M570.453,386.897 565.03,381.474 551.473,400.454 551.473,400.454 z" />
</g>
<g clip-path="url(#clipId0)" fill="none" stroke="rgb(0,0,0)" stroke-width="0.25" >
<polyline points="577.312,257.58 577.312,330.63 " />
<polyline points="593.29,259.078 593.29,330.63 " />
<polyline points="616.297,324.239 639.305,324.239 " />
<polyline points="554.304,324.239 531.297,324.239 " />
</g>
<g clip-path="url(#clipId0)" fill="rgb(0,0,0)" stroke="rgb(0,0,0)" stroke-width="0.25" >
<path d="M616.297,328.074 616.297,320.405 593.29,324.239 593.29,324.239 z" />
<path d="M554.304,328.074 554.304,320.405 577.312,324.239 577.312,324.239 z" />
</g>
<g clip-path="url(#clipId0)" fill="none" stroke="rgb(0,0,0)" stroke-width="0.25" >
<polyline points="644.592,53.067 749.304,53.067 " />
<polyline points="644.592,244.798 749.304,244.798 " />
<polyline points="728.518,76.0747 728.518,221.79 " />
</g>
<g clip-path="url(#clipId0)" fill="rgb(0,0,0)" stroke="rgb(0,0,0)" stroke-width="0.25" >
<path d="M732.352,76.0747 724.683,76.0747 728.518,53.067 728.518,53.067 z" />
<path d="M732.352,221.79 724.683,221.79 728.518,244.798 728.518,244.798 z" />
</g>
<g clip-path="url(#clipId0)" fill="none" stroke="rgb(0,0,0)" stroke-width="0.25" >
<polyline points="253.884,538.087 253.884,568.014 " />
<polyline points="381.705,538.087 381.705,568.014 " />
<polyline points="276.892,561.623 358.697,561.623 " />
</g>
<g clip-path="url(#clipId0)" fill="rgb(0,0,0)" stroke="rgb(0,0,0)" stroke-width="0.25" >
<path d="M276.892,565.458 276.892,557.788 253.884,561.623 253.884,561.623 z" />
<path d="M358.697,565.458 358.697,557.788 381.705,561.623 381.705,561.623 z" />
</g>
<g clip-path="url(#clipId0)" fill="none" stroke="rgb(0,0,0)" stroke-width="0.25" >
<path d="M465.857,171.833  A119.159,119.159 0 0,0 483.914,215.427 " />
</g>
<g clip-path="url(#clipId0)" fill="rgb(0,0,0)" stroke="rgb(0,0,0)" stroke-width="0.25" >
<path d="M469.673,171.462 462.04,172.203 463.636,148.932 463.636,148.932 z" />
<path d="M486.875,212.99 480.954,217.864 498.536,233.191 498.536,233.191 z" />
</g>
<g clip-path="url(#clipId0)" fill="none" stroke="rgb(0,0,0)" stroke-width="0.25" >
<polyline points="396.547,232.016 396.547,13.0312 " />
<polyline points="380.569,38.7871 380.569,13.0312 " />
<polyline points="357.562,19.4222 334.554,19.4222 " />
<polyline points="419.554,19.4222 442.562,19.4222 " />
</g>
<g clip-path="url(#clipId0)" fill="rgb(0,0,0)" stroke="rgb(0,0,0)" stroke-width="0.25" >
<path d="M357.562,23.2568 357.562,15.5876 380.569,19.4222 380.569,19.4222 z" />
<path d="M419.554,23.2568 419.554,15.5876 396.547,19.4222 396.547,19.4222 z" />
</g>
<g clip-path="url(#clipId0)" fill="none" stroke="rgb(0,0,0)" stroke-width="0.25" >
<polyline points="434.078,191.931 426.929,201.941 437.653,201.941 " />
<polyline points="434.078,191.931 434.078,206.945 " />
<polyline points="449.808,191.931 442.658,191.931 441.943,198.366 442.658,197.651 444.803,196.936 446.948,196.936 449.093,197.651 450.523,199.081 451.238,201.226 451.238,202.656 450.523,204.8 449.093,206.23 446.948,206.945 444.803,206.945 442.658,206.23 441.943,205.515 441.228,204.085 " />
<polyline points="588.513,466.039 581.364,476.048 592.088,476.048 " />
<polyline points="588.513,466.039 588.513,481.053 " />
<polyline points="595.663,466.754 596.378,467.469 597.093,466.754 596.378,466.039 595.663,466.754 " />
<polyline points="596.378,471.759 596.378,481.053 " />
<polyline points="602.098,471.044 602.098,481.053 " />
<polyline points="602.098,473.904 604.243,471.759 605.673,471.044 607.818,471.044 609.248,471.759 609.963,473.904 609.963,481.053 " />
<polyline points="616.398,479.623 615.683,480.338 616.398,481.053 617.113,480.338 616.398,479.623 " />
<polyline points="627.837,463.179 626.407,464.609 624.977,466.754 623.547,469.614 622.832,473.189 622.832,476.048 623.547,479.623 624.977,482.483 626.407,484.628 627.837,486.058 " />
<polyline points="634.272,468.899 635.702,468.184 637.847,466.039 637.847,481.053 " />
<polyline points="650.717,466.039 648.572,466.754 647.142,468.899 646.427,472.474 646.427,474.619 647.142,478.193 648.572,480.338 650.717,481.053 652.147,481.053 654.292,480.338 655.722,478.193 656.437,474.619 656.437,472.474 655.722,468.899 654.292,466.754 652.147,466.039 650.717,466.039 " />
<polyline points="665.016,466.039 662.871,466.754 661.441,468.899 660.726,472.474 660.726,474.619 661.441,478.193 662.871,480.338 665.016,481.053 666.446,481.053 668.591,480.338 670.021,478.193 670.736,474.619 670.736,472.474 670.021,468.899 668.591,466.754 666.446,466.039 665.016,466.039 " />
<polyline points="675.741,471.044 675.741,481.053 " />
<polyline points="675.741,473.904 677.886,471.759 679.316,471.044 681.461,471.044 682.891,471.759 683.606,473.904 683.606,481.053 " />
<polyline points="683.606,473.904 685.751,471.759 687.181,471.044 689.326,471.044 690.756,471.759 691.471,473.904 691.471,481.053 " />
<polyline points="697.19,471.044 697.19,481.053 " />
<polyline points="697.19,473.904 699.335,471.759 700.765,471.044 702.91,471.044 704.34,471.759 705.055,473.904 705.055,481.053 " />
<polyline points="705.055,473.904 707.2,471.759 708.63,471.044 710.775,471.044 712.205,471.759 712.92,473.904 712.92,481.053 " />
<polyline points="717.925,463.179 719.355,464.609 720.785,466.754 722.215,469.614 722.93,473.189 722.93,476.048 722.215,479.623 720.785,482.483 719.355,484.628 717.925,486.058 " />
<polyline points="650.975,319.158 652.405,318.443 654.55,316.298 654.55,331.313 " />
<polyline points="663.13,317.013 663.845,317.728 664.56,317.013 663.845,316.298 663.13,317.013 " />
<polyline points="663.845,322.018 663.845,331.313 " />
<polyline points="669.565,321.303 669.565,331.313 " />
<polyline points="669.565,324.163 671.71,322.018 673.14,321.303 675.285,321.303 676.715,322.018 677.43,324.163 677.43,331.313 " />
<polyline points="683.864,329.883 683.149,330.598 683.864,331.313 684.579,330.598 683.864,329.883 " />
<polyline points="695.304,313.438 693.874,314.868 692.444,317.013 691.014,319.873 690.299,323.448 690.299,326.308 691.014,329.883 692.444,332.743 693.874,334.888 695.304,336.318 " />
<polyline points="700.309,319.873 700.309,319.158 701.024,317.728 701.739,317.013 703.169,316.298 706.029,316.298 707.459,317.013 708.174,317.728 708.889,319.158 708.889,320.588 708.174,322.018 706.744,324.163 699.594,331.313 709.604,331.313 " />
<polyline points="722.473,316.298 715.324,316.298 714.609,322.733 715.324,322.018 717.469,321.303 719.613,321.303 721.758,322.018 723.188,323.448 723.903,325.593 723.903,327.023 723.188,329.168 721.758,330.598 719.613,331.313 717.469,331.313 715.324,330.598 714.609,329.883 713.894,328.453 " />
<polyline points="728.908,321.303 728.908,331.313 " />
<polyline points="728.908,324.163 731.053,322.018 732.483,321.303 734.628,321.303 736.058,322.018 736.773,324.163 736.773,331.313 " />
<polyline points="736.773,324.163 738.918,322.018 740.348,321.303 742.493,321.303 743.923,322.018 744.638,324.163 744.638,331.313 " />
<polyline points="750.358,321.303 750.358,331.313 " />
<polyline points="750.358,324.163 752.503,322.018 753.933,321.303 756.077,321.303 757.507,322.018 758.222,324.163 758.222,331.313 " />
<polyline points="758.222,324.163 760.367,322.018 761.797,321.303 763.942,321.303 765.372,322.018 766.087,324.163 766.087,331.313 " />
<polyline points="771.092,313.438 772.522,314.868 773.952,317.013 775.382,319.873 776.097,323.448 776.097,326.308 775.382,329.883 773.952,332.743 772.522,334.888 771.092,336.318 " />
<polyline points="606.108,363.222 606.108,362.507 606.823,361.077 607.538,360.362 608.968,359.647 611.828,359.647 613.258,360.362 613.973,361.077 614.688,362.507 614.688,363.937 613.973,365.367 612.543,367.512 605.393,374.662 615.403,374.662 " />
<polyline points="619.693,360.362 620.408,361.077 621.123,360.362 620.408,359.647 619.693,360.362 " />
<polyline points="620.408,365.367 620.408,374.662 " />
<polyline points="626.128,364.652 626.128,374.662 " />
<polyline points="626.128,367.512 628.273,365.367 629.703,364.652 631.848,364.652 633.278,365.367 633.992,367.512 633.992,374.662 " />
<polyline points="640.427,373.232 639.712,373.947 640.427,374.662 641.142,373.947 640.427,373.232 " />
<polyline points="651.867,356.787 650.437,358.217 649.007,360.362 647.577,363.222 646.862,366.797 646.862,369.657 647.577,373.232 649.007,376.092 650.437,378.237 651.867,379.667 " />
<polyline points="664.737,359.647 657.587,359.647 656.872,366.082 657.587,365.367 659.732,364.652 661.877,364.652 664.022,365.367 665.452,366.797 666.167,368.942 666.167,370.372 665.452,372.517 664.022,373.947 661.877,374.662 659.732,374.662 657.587,373.947 656.872,373.232 656.157,371.802 " />
<polyline points="674.746,359.647 672.601,360.362 671.171,362.507 670.456,366.082 670.456,368.227 671.171,371.802 672.601,373.947 674.746,374.662 676.176,374.662 678.321,373.947 679.751,371.802 680.466,368.227 680.466,366.082 679.751,362.507 678.321,360.362 676.176,359.647 674.746,359.647 " />
<polyline points="685.471,364.652 685.471,374.662 " />
<polyline points="685.471,367.512 687.616,365.367 689.046,364.652 691.191,364.652 692.621,365.367 693.336,367.512 693.336,374.662 " />
<polyline points="693.336,367.512 695.481,365.367 696.911,364.652 699.056,364.652 700.486,365.367 701.201,367.512 701.201,374.662 " />
<polyline points="706.921,364.652 706.921,374.662 " />
<polyline points="706.921,367.512 709.065,365.367 710.495,364.652 712.64,364.652 714.07,365.367 714.785,367.512 714.785,374.662 " />
<polyline points="714.785,367.512 716.93,365.367 718.36,364.652 720.505,364.652 721.935,365.367 722.65,367.512 722.65,374.662 " />
<polyline points="727.655,356.787 729.085,358.217 730.515,360.362 731.945,363.222 732.66,366.797 732.66,369.657 731.945,373.232 730.515,376.092 729.085,378.237 727.655,379.667 " />
<polyline points="452.934,13.2493 454.364,12.5343 456.509,10.3893 456.509,25.4039 " />
<polyline points="465.089,11.1043 465.804,11.8193 466.519,11.1043 465.804,10.3893 465.089,11.1043 " />
<polyline points="465.804,16.1092 465.804,25.4039 " />
<polyline points="471.523,15.3942 471.523,25.4039 " />
<polyline points="471.523,18.2541 473.668,16.1092 475.098,15.3942 477.243,15.3942 478.673,16.1092 479.388,18.2541 479.388,25.4039 " />
<polyline points="485.823,23.974 485.108,24.6889 485.823,25.4039 486.538,24.6889 485.823,23.974 " />
<polyline points="497.263,7.52941 495.833,8.95937 494.403,11.1043 492.973,13.9642 492.258,17.5391 492.258,20.3991 492.973,23.974 494.403,26.8339 495.833,28.9788 497.263,30.4088 " />
<polyline points="502.268,13.9642 502.268,13.2493 502.983,11.8193 503.698,11.1043 505.127,10.3893 507.987,10.3893 509.417,11.1043 510.132,11.8193 510.847,13.2493 510.847,14.6792 510.132,16.1092 508.702,18.2541 501.553,25.4039 511.562,25.4039 " />
<polyline points="524.432,10.3893 517.282,10.3893 516.567,16.8242 517.282,16.1092 519.427,15.3942 521.572,15.3942 523.717,16.1092 525.147,17.5391 525.862,19.6841 525.862,21.114 525.147,23.259 523.717,24.6889 521.572,25.4039 519.427,25.4039 517.282,24.6889 516.567,23.974 515.852,22.544 " />
<polyline points="530.867,15.3942 530.867,25.4039 " />
<polyline points="530.867,18.2541 533.012,16.1092 534.442,15.3942 536.587,15.3942 538.017,16.1092 538.732,18.2541 538.732,25.4039 " />
<polyline points="538.732,18.2541 540.876,16.1092 542.306,15.3942 544.451,15.3942 545.881,16.1092 546.596,18.2541 546.596,25.4039 " />
<polyline points="552.316,15.3942 552.316,25.4039 " />
<polyline points="552.316,18.2541 554.461,16.1092 555.891,15.3942 558.036,15.3942 559.466,16.1092 560.181,18.2541 560.181,25.4039 " />
<polyline points="560.181,18.2541 562.326,16.1092 563.756,15.3942 565.901,15.3942 567.331,16.1092 568.046,18.2541 568.046,25.4039 " />
<polyline points="573.051,7.52941 574.481,8.95937 575.911,11.1043 577.341,13.9642 578.055,17.5391 578.055,20.3991 577.341,23.974 575.911,26.8339 574.481,28.9788 573.051,30.4088 " />
<polyline points="461.566,190.042 460.136,190.756 458.706,192.186 457.991,194.331 457.991,195.761 458.706,197.906 460.136,199.336 461.566,200.051 463.711,200.051 465.141,199.336 466.571,197.906 467.286,195.761 467.286,194.331 466.571,192.186 465.141,190.756 463.711,190.042 461.566,190.042 " />
<polyline points="293.325,637.888 291.895,638.603 290.466,640.033 289.751,641.463 289.036,643.608 289.036,647.183 289.751,649.328 290.466,650.758 291.895,652.188 293.325,652.903 296.185,652.903 297.615,652.188 299.045,650.758 299.76,649.328 300.475,647.183 300.475,643.608 299.76,641.463 299.045,640.033 297.615,638.603 296.185,637.888 293.325,637.888 " />
<polyline points="295.47,650.043 299.76,654.333 " />
<polyline points="616.43,148.932 669.377,148.932 " />
<polyline points="428.078,412.077 493.82,477.819 " />
<polyline points="500.186,451.293 483.74,467.739 " />
</g>
<g clip-path="url(#clipId0)" fill="rgb(0,0,0)" stroke="rgb(0,0,0)" stroke-width="0.25" >
<path d="M497.306,448.714 502.729,454.137 483.749,467.694 483.749,467.694 z" />
<path d="M514.279,442.502 508.856,437.079 527.836,423.522 527.836,423.522 z" />
</g>
<g clip-path="url(#clipId0)" fill="none" stroke="rgb(0,0,0)" stroke-width="0.25" >
<polyline points="511.632,439.224 528.079,422.777 " />
<polyline points="505.784,445.695 552.975,474.405 " />
<polyline points="552.975,474.405 563.799,474.405 " />
<polyline points="534.862,148.932 549.504,148.932 " />
</g>
<g clip-path="url(#clipId0)" fill="rgb(0,0,0)" stroke="rgb(0,0,0)" stroke-width="0.25" >
<path d="M324.33,136.969 329.752,131.546 343.31,150.526 343.31,150.526 z" />
</g>
<g clip-path="url(#clipId0)" fill="none" stroke="rgb(0,0,0)" stroke-width="0.25" >
<polyline points="326.935,134.508 312.779,120.352 " />
<polyline points="312.779,120.352 298.624,106.196 " />
<polyline points="298.624,106.196 293.531,101.103 " />
<polyline points="293.531,101.103 272.593,101.103 " />
<polyline points="134.506,93.9677 134.506,108.982 " />
<polyline points="134.506,93.9677 140.941,93.9677 143.086,94.6827 143.801,95.3977 144.516,96.8277 144.516,98.2576 143.801,99.6876 143.086,100.403 140.941,101.118 " />
<polyline points="134.506,101.118 140.941,101.118 143.086,101.833 143.801,102.547 144.516,103.977 144.516,106.122 143.801,107.552 143.086,108.267 140.941,108.982 134.506,108.982 " />
<polyline points="149.521,93.9677 149.521,108.982 158.1,108.982 " />
<polyline points="165.25,93.9677 159.53,108.982 " />
<polyline points="165.25,93.9677 170.97,108.982 " />
<polyline points="161.675,103.977 168.825,103.977 " />
<polyline points="174.545,93.9677 174.545,108.982 " />
<polyline points="174.545,93.9677 184.555,108.982 " />
<polyline points="184.555,93.9677 184.555,108.982 " />
<polyline points="190.275,93.9677 190.275,108.982 " />
<polyline points="200.284,93.9677 190.275,103.977 " />
<polyline points="193.849,100.403 200.284,108.982 " />
<polyline points="223.879,93.9677 222.449,94.6827 221.019,96.1127 220.304,97.5426 219.589,99.6876 219.589,103.262 220.304,105.407 221.019,106.837 222.449,108.267 223.879,108.982 226.739,108.982 228.169,108.267 229.599,106.837 230.313,105.407 231.028,103.262 231.028,99.6876 230.313,97.5426 229.599,96.1127 228.169,94.6827 226.739,93.9677 223.879,93.9677 " />
<polyline points="236.033,93.9677 236.033,108.982 " />
<polyline points="236.033,93.9677 245.328,93.9677 " />
<polyline points="236.033,101.118 241.753,101.118 " />
<polyline points="248.903,93.9677 248.903,108.982 " />
<polyline points="248.903,93.9677 258.198,93.9677 " />
<polyline points="248.903,101.118 254.623,101.118 " />
<polyline points="785.679,732.987 785.679,755.009 " />
<polyline points="785.679,732.987 799.311,732.987 " />
<polyline points="785.679,743.474 794.068,743.474 " />
<polyline points="785.679,755.009 799.311,755.009 " />
<polyline points="805.603,732.987 805.603,755.009 " />
<polyline points="805.603,732.987 812.943,732.987 816.089,734.036 818.187,736.133 819.235,738.231 820.284,741.376 820.284,746.62 819.235,749.766 818.187,751.863 816.089,753.96 812.943,755.009 805.603,755.009 " />
<polyline points="839.159,732.987 828.673,732.987 827.624,742.425 828.673,741.376 831.819,740.328 834.965,740.328 838.111,741.376 840.208,743.474 841.257,746.62 841.257,748.717 840.208,751.863 838.111,753.96 834.965,755.009 831.819,755.009 828.673,753.96 827.624,752.911 826.576,750.814 " />
<polyline points="848.597,745.571 867.473,745.571 " />
<polyline points="888.445,736.133 887.397,734.036 884.251,732.987 882.153,732.987 879.008,734.036 876.91,737.182 875.862,742.425 875.862,747.668 876.91,751.863 879.008,753.96 882.153,755.009 883.202,755.009 886.348,753.96 888.445,751.863 889.494,748.717 889.494,747.668 888.445,744.522 886.348,742.425 883.202,741.376 882.153,741.376 879.008,742.425 876.91,744.522 875.862,747.668 " />
<polyline points="343.609,53.067 343.609,244.798 " />
<polyline points="375.389,48.0622 348.614,48.0622 " />
<polyline points="348.614,249.803 375.389,249.803 " />
<polyline points="348.614,48.0622 343.609,48.0622 " />
<polyline points="343.609,53.067 343.609,48.0622 " />
<polyline points="375.389,48.0622 375.389,53.067 " />
<polyline points="343.609,244.798 343.609,249.803 " />
<polyline points="348.614,249.803 343.609,249.803 " />
<polyline points="375.389,249.803 375.389,244.798 " />
<polyline points="348.608,218.536 348.608,205.088 " />
<polyline points="348.608,192.921 348.608,177.552 " />
<polyline points="348.688,165.544 348.688,153.377 " />
<polyline points="348.767,142.009 348.767,128.562 " />
<polyline points="348.767,116.712 348.767,103.905 " />
<polyline points="348.847,92.5372 348.847,79.0894 " />
<polyline points="348.614,244.798 348.614,231.76 " />
<polyline points="348.614,53.067 348.614,67.4039 " />
<polyline points="356.113,53.067 348.614,53.067 " />
<polyline points="367.99,244.798 378.572,244.798 " />
</g>
<g clip-path="url(#clipId0)" fill="none" stroke="rgb(0,0,0)" stroke-width="0.1" >
<polyline points="434.751,469.345 457.791,469.345 " />
<polyline points="446.271,480.865 446.271,457.825 " />
</g>
<g clip-path="url(#clipId0)" fill="none" stroke="rgb(0,0,0)" stroke-width="0.25" >
<polyline points="332.389,419.978 405.948,452.001 " />
<polyline points="425.365,460.454 446.124,469.491 " />
</g>
</svg>
