<?xml version="1.0" standalone="no"?>
<svg viewBox="0 0 1024 768" version="1.1" xmlns="http://www.w3.org/2000/svg" xmlns:xlink="http://www.w3.org/1999/xlink" stroke-linecap="round" stroke-linejoin="round" fill-rule="evenodd" xml:space="preserve" >
<defs >
<clipPath id="clipId0" >
<path d="M0,768 1024,768 1024,0 0,0 z" />
</clipPath>
</defs>
<g clip-path="url(#clipId0)" fill="none" stroke="rgb(0,0,0)" stroke-width="0.1" />
<g clip-path="url(#clipId0)" fill="none" stroke="rgb(0,0,0)" stroke-width="0.25" >
<polyline points="606.873,282.406 400.956,282.406 " />
</g>
<g clip-path="url(#clipId0)" fill="rgb(0,0,0)" stroke="rgb(0,0,0)" stroke-width="0.25" >
<path d="M606.873,278.756 606.873,286.056 628.771,282.406 628.771,282.406 z" />
</g>
<g clip-path="url(#clipId0)" fill="none" stroke="rgb(0,0,0)" stroke-width="0.25" >
<polyline points="871.948,355.399 719.862,355.399 " />
<polyline points="871.948,209.413 719.862,209.413 " />
<polyline points="315.482,333.501 315.482,315.253 " />
<polyline points="315.482,231.311 315.482,249.559 " />
</g>
<g clip-path="url(#clipId0)" fill="rgb(0,0,0)" stroke="rgb(0,0,0)" stroke-width="0.25" >
<path d="M319.132,333.501 311.833,333.501 315.482,355.399 315.482,355.399 z" />
<path d="M319.132,231.311 311.833,231.311 315.482,209.413 315.482,209.413 z" />
</g>
<g clip-path="url(#clipId0)" fill="none" stroke="rgb(0,0,0)" stroke-width="0.25" >
<polyline points="323.523,284.088 321.438,285.131 319.352,287.217 318.31,290.345 318.31,292.431 319.352,295.559 321.438,297.644 323.523,298.687 326.652,298.687 328.737,297.644 330.823,295.559 331.865,292.431 331.865,290.345 330.823,287.217 328.737,285.131 326.652,284.088 323.523,284.088 " />
<polyline points="301.4,266.811 301.4,288.709 " />
<polyline points="301.4,266.811 308.699,266.811 311.827,267.854 313.913,269.939 314.956,272.025 315.998,275.153 315.998,280.367 314.956,283.495 313.913,285.581 311.827,287.666 308.699,288.709 301.4,288.709 " />
<polyline points="236.165,362.698 236.165,202.114 " />
<polyline points="31.9371,209.413 236.165,209.413 " />
<polyline points="177.923,355.399 236.165,355.399 " />
<polyline points="177.923,355.399 177.923,413.641 " />
<polyline points="31.9371,209.413 31.9371,413.641 " />
<polyline points="969.805,326.562 1013.96,282.406 " />
<polyline points="969.805,238.25 1013.96,282.406 " />
<polyline points="969.805,326.562 969.805,308.225 " />
<polyline points="936.503,256.587 936.503,308.225 " />
<polyline points="936.503,308.225 969.805,308.225 " />
<polyline points="969.805,256.587 936.503,256.587 " />
<polyline points="969.805,256.587 969.805,238.25 " />
<polyline points="250.764,377.297 250.764,187.515 " />
<polyline points="258.063,377.297 258.063,187.515 " />
<polyline points="250.764,377.297 258.063,377.297 " />
<polyline points="250.764,187.515 258.063,187.515 " />
<polyline points="236.165,362.698 250.764,362.698 " />
<polyline points="236.165,202.114 250.764,202.114 " />
<polyline points="24.6378,413.641 24.6378,428.24 " />
<polyline points="185.222,413.641 185.222,428.24 " />
<polyline points="10.0392,428.24 10.0392,435.539 " />
<polyline points="199.821,428.24 199.821,435.539 " />
<polyline points="199.821,435.539 10.0392,435.539 " />
<polyline points="199.821,428.24 10.0392,428.24 " />
<polyline points="185.222,413.641 24.6378,413.641 " />
<polyline points="719.862,202.114 705.264,202.114 " />
<polyline points="719.862,362.698 705.264,362.698 " />
<polyline points="705.264,187.515 697.964,187.515 " />
<polyline points="705.264,377.297 697.964,377.297 " />
<polyline points="697.964,377.297 697.964,187.515 " />
<polyline points="705.264,377.297 705.264,187.515 " />
<polyline points="719.862,362.698 719.862,202.114 " />
<polyline points="258.063,394.595 258.063,469.837 " />
<polyline points="697.964,394.595 697.964,469.837 " />
<polyline points="279.961,443.559 449.859,443.559 " />
<polyline points="676.067,443.559 506.168,443.559 " />
</g>
<g clip-path="url(#clipId0)" fill="rgb(0,0,0)" stroke="rgb(0,0,0)" stroke-width="0.25" >
<path d="M279.961,447.209 279.961,439.91 258.063,443.559 258.063,443.559 z" />
<path d="M676.067,447.209 676.067,439.91 697.964,443.559 697.964,443.559 z" />
</g>
<g clip-path="url(#clipId0)" fill="none" stroke="rgb(0,0,0)" stroke-width="0.25" >
<polyline points="475.928,432.611 475.928,454.508 488.441,454.508 " />
</g>
<g clip-path="url(#clipId0)" fill="rgb(0,0,0)" stroke="rgb(0,0,0)" stroke-width="0.25" >
<path d="M723.904,190.892 730.572,187.923 736.142,209.413 736.142,209.413 z" />
</g>
<g clip-path="url(#clipId0)" fill="none" stroke="rgb(0,0,0)" stroke-width="0.25" >
<polyline points="727.238,189.407 695.632,118.398 " />
<polyline points="695.632,118.398 673.734,118.398 " />
<polyline points="416.758,107.449 425.1,129.347 " />
<polyline points="433.442,107.449 425.1,129.347 " />
<polyline points="443.869,107.449 435.527,129.347 " />
<polyline points="443.869,107.449 452.211,129.347 " />
<polyline points="438.655,122.048 449.083,122.048 " />
<polyline points="457.425,107.449 457.425,129.347 " />
<polyline points="457.425,107.449 472.024,129.347 " />
<polyline points="472.024,107.449 472.024,129.347 " />
<polyline points="480.366,107.449 480.366,129.347 " />
<polyline points="480.366,107.449 493.921,107.449 " />
<polyline points="480.366,117.877 488.708,117.877 " />
<polyline points="480.366,129.347 493.921,129.347 " />
<polyline points="505.392,107.449 497.05,129.347 " />
<polyline points="505.392,107.449 513.734,129.347 " />
<polyline points="500.178,122.048 510.606,122.048 " />
<polyline points="517.905,107.449 532.503,129.347 " />
<polyline points="532.503,107.449 517.905,129.347 " />
<polyline points="539.803,107.449 539.803,129.347 " />
<polyline points="553.359,107.449 545.017,129.347 " />
<polyline points="553.359,107.449 561.701,129.347 " />
<polyline points="548.145,122.048 558.572,122.048 " />
<polyline points="566.914,107.449 566.914,129.347 579.427,129.347 " />
<polyline points="606.539,107.449 606.539,129.347 " />
<polyline points="606.539,107.449 620.095,107.449 " />
<polyline points="606.539,117.877 614.881,117.877 " />
<polyline points="630.522,107.449 622.18,129.347 " />
<polyline points="630.522,107.449 638.864,129.347 " />
<polyline points="625.309,122.048 635.736,122.048 " />
<polyline points="644.078,107.449 644.078,129.347 " />
<polyline points="644.078,107.449 658.677,129.347 " />
<polyline points="658.677,107.449 658.677,129.347 " />
<polyline points="743.469,340.504 743.469,224.308 " stroke-dasharray="0.000083,8.294644" />
<path d="M730.665,219.514  A44.0084,44.0084 0 0,0 719.862,247.151 " stroke-dasharray="0.000083,8.294644" />
<path d="M743.469,224.308  A7.29929,7.29929 0 0,0 730.665,219.514 " stroke-dasharray="0.000083,8.294644" />
<path d="M730.665,345.298  A7.29929,7.29929 0 0,0 743.469,340.504 " stroke-dasharray="0.000083,8.294644" />
<path d="M719.862,317.661  A44.0084,44.0084 0 0,0 730.665,345.298 " stroke-dasharray="0.000083,8.294644" />
<polyline points="762.133,302.251 852.957,302.251 " stroke-dasharray="0.000083,8.294644" />
<polyline points="762.133,262.561 852.957,262.561 " stroke-dasharray="0.000083,8.294644" />
<polyline points="762.133,317.445 762.133,247.367 " stroke-dasharray="0.000083,8.294644" />
<polyline points="743.469,317.445 762.133,317.445 " stroke-dasharray="0.000083,8.294644" />
<polyline points="743.469,247.367 762.133,247.367 " stroke-dasharray="0.000083,8.294644" />
<polyline points="854.417,300.791 854.417,264.021 " stroke-dasharray="0.000083,8.294644" />
<path d="M852.957,302.251  A1.45986,1.45986 0 0,0 854.417,300.791 " stroke-dasharray="0.000083,8.294644" />
<path d="M854.417,264.021  A1.45986,1.45986 0 0,0 852.957,262.561 " stroke-dasharray="0.000083,8.294644" />
<polyline points="762.133,247.367 795.314,247.367 795.314,214.187 762.133,214.187 762.133,247.367 " />
<polyline points="762.133,317.445 795.314,317.445 795.314,350.625 762.133,350.625 762.133,317.445 " />
<polyline points="743.469,240.21 723.058,231.906 " stroke-dasharray="0.000083,8.294644" />
<polyline points="743.469,324.602 723.058,332.906 " stroke-dasharray="0.000083,8.294644" />
<polyline points="177.923,355.399 31.9371,209.413 " />
<polyline points="871.948,362.698 871.948,202.114 " />
<polyline points="886.547,377.297 886.547,187.515 " />
<polyline points="893.846,377.297 893.846,187.515 " />
<polyline points="886.547,377.297 893.846,377.297 " />
<polyline points="886.547,187.515 893.846,187.515 " />
<polyline points="871.948,362.698 886.547,362.698 " />
<polyline points="871.948,202.114 886.547,202.114 " />
<polyline points="495.521,243.162 493.436,244.205 491.35,246.291 490.308,248.376 489.265,251.504 489.265,256.718 490.308,259.846 491.35,261.932 493.436,264.017 495.521,265.06 499.692,265.06 501.778,264.017 503.863,261.932 504.906,259.846 505.949,256.718 505.949,251.504 504.906,248.376 503.863,246.291 501.778,244.205 499.692,243.162 495.521,243.162 " />
<polyline points="498.65,260.889 504.906,267.146 " />
<polyline points="697.964,209.358 258.063,209.358 " />
<polyline points="697.964,354.988 258.063,354.988 " />
<polyline points="757.611,631.354 757.611,660.551 " />
<polyline points="757.611,631.354 775.685,631.354 " />
<polyline points="757.611,645.257 768.734,645.257 " />
<polyline points="757.611,660.551 775.685,660.551 " />
<polyline points="784.027,631.354 784.027,660.551 " />
<polyline points="784.027,631.354 793.76,631.354 797.931,632.744 800.711,635.525 802.102,638.305 803.492,642.476 803.492,649.428 802.102,653.599 800.711,656.38 797.931,659.161 793.76,660.551 784.027,660.551 " />
<polyline points="831.299,631.354 817.395,660.551 " />
<polyline points="811.834,631.354 831.299,631.354 " />
<polyline points="841.031,648.038 866.057,648.038 " />
<polyline points="893.864,641.086 892.474,645.257 889.693,648.038 885.522,649.428 884.132,649.428 879.961,648.038 877.18,645.257 875.79,641.086 875.79,639.696 877.18,635.525 879.961,632.744 884.132,631.354 885.522,631.354 889.693,632.744 892.474,635.525 893.864,641.086 893.864,648.038 892.474,654.99 889.693,659.161 885.522,660.551 882.741,660.551 878.57,659.161 877.18,656.38 " />
</g>
</svg>
