<?xml version="1.0" standalone="no"?>
<svg viewBox="0 0 1024 768" version="1.1" xmlns="http://www.w3.org/2000/svg" xmlns:xlink="http://www.w3.org/1999/xlink" stroke-linecap="round" stroke-linejoin="round" fill-rule="evenodd" xml:space="preserve" >
<defs >
<clipPath id="clipId0" >
<path d="M0,768 1024,768 1024,0 0,0 z" />
</clipPath>
</defs>
<g clip-path="url(#clipId0)" fill="none" stroke="rgb(0,0,0)" stroke-width="0.1" />
<g clip-path="url(#clipId0)" fill="none" stroke="rgb(0,0,0)" stroke-width="0.25" >
<polyline points="467.014,477.846 532.334,477.846 " />
</g>
<g clip-path="url(#clipId0)" fill="rgb(0,0,0)" stroke="rgb(0,0,0)" stroke-width="0.25" >
<path d="M467.014,474.272 467.014,481.42 445.573,477.846 445.573,477.846 z" />
</g>
<g clip-path="url(#clipId0)" fill="none" stroke="rgb(0,0,0)" stroke-width="0.25" >
<polyline points="638.654,406.375 398.175,406.375 " />
<polyline points="781.597,549.317 398.175,549.317 " />
<polyline points="398.175,604.414 398.175,351.278 " />
<polyline points="251.648,604.414 251.648,351.278 " />
<polyline points="398.175,604.414 251.648,604.414 " />
<polyline points="398.175,351.278 251.648,351.278 " />
<path d="M398.175,549.317  A22.6679,22.6679 0 0,0 352.839,549.317 " stroke-dasharray="15.924953,7.962476" />
<polyline points="352.839,549.317 284.836,549.317 " stroke-dasharray="15.924953,7.962476" />
<polyline points="352.839,406.375 284.836,406.375 " stroke-dasharray="15.924953,7.962476" />
<path d="M352.839,406.375  A22.6679,22.6679 0 0,0 398.175,406.375 " stroke-dasharray="15.924953,7.962476" />
<polyline points="284.836,549.317 284.836,406.375 " stroke-dasharray="15.924953,7.962476" />
<polyline points="583.558,549.317 583.558,406.375 " />
<polyline points="426.974,477.846 215.039,477.846 " stroke-dasharray="79.624764,15.924953,15.924953,15.924953" />
<path d="M583.558,477.846  A126.568,126.568 0 0,0 710.125,351.278 " stroke-dasharray="79.624764,15.924953,15.924953,15.924953" />
<polyline points="710.125,351.278 710.125,331.781 " />
<polyline points="583.558,477.846 559.935,477.846 " />
<polyline points="398.175,337.008 398.175,274.221 " />
<polyline points="583.558,392.105 583.558,274.221 " />
<polyline points="419.617,299.951 463.299,299.951 " />
<polyline points="562.117,299.951 518.434,299.951 " />
</g>
<g clip-path="url(#clipId0)" fill="rgb(0,0,0)" stroke="rgb(0,0,0)" stroke-width="0.25" >
<path d="M419.617,303.525 419.617,296.378 398.175,299.951 398.175,299.951 z" />
<path d="M562.117,303.525 562.117,296.378 583.558,299.951 583.558,299.951 z" />
</g>
<g clip-path="url(#clipId0)" fill="none" stroke="rgb(0,0,0)" stroke-width="0.25" >
<polyline points="488.825,289.23 488.825,310.672 501.077,310.672 " />
<polyline points="781.597,351.278 638.654,351.278 " />
<polyline points="638.654,351.278 638.654,406.375 " />
<polyline points="781.597,351.278 781.597,549.317 " />
<polyline points="638.654,406.375 781.597,549.317 " />
<polyline points="491.04,437.288 488.998,438.309 486.956,440.351 485.935,442.393 484.914,445.456 484.914,450.561 485.935,453.624 486.956,455.666 488.998,457.708 491.04,458.729 495.124,458.729 497.166,457.708 499.208,455.666 500.229,453.624 501.25,450.561 501.25,445.456 500.229,442.393 499.208,440.351 497.166,438.309 495.124,437.288 491.04,437.288 " />
<polyline points="494.103,454.645 500.229,460.771 " />
<polyline points="648.285,732.443 648.285,760.471 " />
<polyline points="648.285,732.443 665.636,732.443 " />
<polyline points="648.285,745.789 658.962,745.789 " />
<polyline points="648.285,760.471 665.636,760.471 " />
<polyline points="673.644,732.443 673.644,760.471 " />
<polyline points="673.644,732.443 682.986,732.443 686.99,733.777 689.66,736.447 690.994,739.116 692.329,743.12 692.329,749.793 690.994,753.797 689.66,756.467 686.99,759.136 682.986,760.471 673.644,760.471 " />
<polyline points="719.022,732.443 705.676,760.471 " />
<polyline points="700.337,732.443 719.022,732.443 " />
<polyline points="728.365,748.459 752.389,748.459 " />
<polyline points="775.078,732.443 761.731,751.128 781.751,751.128 " />
<polyline points="775.078,732.443 775.078,760.471 " />
<polyline points="308.665,79.3188 308.665,96.3009 " />
<polyline points="314.765,79.3188 314.765,96.3009 " />
<polyline points="314.765,79.3188 325.442,96.3009 " />
<polyline points="325.442,79.3188 325.442,96.3009 " />
<polyline points="342.219,83.3621 341.456,81.7448 339.931,80.1275 338.406,79.3188 335.355,79.3188 333.83,80.1275 332.305,81.7448 331.542,83.3621 330.78,85.7882 330.78,89.8315 331.542,92.2575 332.305,93.8749 333.83,95.4922 335.355,96.3009 338.406,96.3009 339.931,95.4922 341.456,93.8749 342.219,92.2575 " />
<polyline points="347.557,79.3188 347.557,96.3009 356.708,96.3009 " />
<polyline points="360.521,79.3188 360.521,91.4489 361.283,93.8749 362.809,95.4922 365.096,96.3009 366.622,96.3009 368.909,95.4922 370.435,93.8749 371.197,91.4489 371.197,79.3188 " />
<polyline points="377.298,79.3188 377.298,96.3009 " />
<polyline points="377.298,79.3188 382.636,79.3188 384.924,80.1275 386.449,81.7448 387.211,83.3621 387.974,85.7882 387.974,89.8315 387.211,92.2575 386.449,93.8749 384.924,95.4922 382.636,96.3009 377.298,96.3009 " />
<polyline points="393.312,79.3188 393.312,96.3009 " />
<polyline points="393.312,79.3188 403.226,79.3188 " />
<polyline points="393.312,87.4055 399.413,87.4055 " />
<polyline points="393.312,96.3009 403.226,96.3009 " />
<polyline points="407.801,79.3188 407.801,96.3009 " />
<polyline points="407.801,79.3188 413.14,79.3188 415.427,80.1275 416.953,81.7448 417.715,83.3621 418.478,85.7882 418.478,89.8315 417.715,92.2575 416.953,93.8749 415.427,95.4922 413.14,96.3009 407.801,96.3009 " />
<polyline points="439.83,79.3188 439.83,96.3009 " />
<polyline points="445.931,79.3188 445.931,96.3009 " />
<polyline points="445.931,79.3188 456.607,96.3009 " />
<polyline points="456.607,79.3188 456.607,96.3009 " />
<polyline points="478.722,79.3188 478.722,96.3009 487.873,96.3009 " />
<polyline points="495.499,79.3188 493.974,80.1275 492.449,81.7448 491.686,83.3621 490.924,85.7882 490.924,89.8315 491.686,92.2575 492.449,93.8749 493.974,95.4922 495.499,96.3009 498.55,96.3009 500.075,95.4922 501.6,93.8749 502.363,92.2575 503.125,89.8315 503.125,85.7882 502.363,83.3621 501.6,81.7448 500.075,80.1275 498.55,79.3188 495.499,79.3188 " />
<polyline points="518.377,81.7448 516.852,80.1275 514.564,79.3188 511.514,79.3188 509.226,80.1275 507.701,81.7448 507.701,83.3621 508.463,84.9795 509.226,85.7882 510.751,86.5968 515.327,88.2142 516.852,89.0228 517.615,89.8315 518.377,91.4489 518.377,93.8749 516.852,95.4922 514.564,96.3009 511.514,96.3009 509.226,95.4922 507.701,93.8749 " />
<polyline points="533.629,81.7448 532.104,80.1275 529.816,79.3188 526.766,79.3188 524.478,80.1275 522.953,81.7448 522.953,83.3621 523.715,84.9795 524.478,85.7882 526.003,86.5968 530.579,88.2142 532.104,89.0228 532.866,89.8315 533.629,91.4489 533.629,93.8749 532.104,95.4922 529.816,96.3009 526.766,96.3009 524.478,95.4922 522.953,93.8749 " />
<polyline points="311.715,48.3901 311.715,65.3721 " />
<polyline points="306.377,48.3901 317.053,48.3901 " />
<polyline points="320.866,48.3901 320.866,65.3721 " />
<polyline points="331.542,48.3901 331.542,65.3721 " />
<polyline points="320.866,56.4768 331.542,56.4768 " />
<polyline points="337.643,48.3901 337.643,65.3721 " />
<polyline points="353.658,50.8161 352.132,49.1987 349.845,48.3901 346.794,48.3901 344.506,49.1987 342.981,50.8161 342.981,52.4334 343.744,54.0507 344.506,54.8594 346.032,55.6681 350.607,57.2854 352.132,58.0941 352.895,58.9028 353.658,60.5201 353.658,62.9461 352.132,64.5635 349.845,65.3721 346.794,65.3721 344.506,64.5635 342.981,62.9461 " />
<polyline points="375.01,48.3901 375.01,65.3721 " />
<polyline points="375.01,48.3901 380.348,48.3901 382.636,49.1987 384.161,50.8161 384.924,52.4334 385.686,54.8594 385.686,58.9028 384.924,61.3288 384.161,62.9461 382.636,64.5635 380.348,65.3721 375.01,65.3721 " />
<polyline points="391.024,48.3901 391.024,60.5201 391.787,62.9461 393.312,64.5635 395.6,65.3721 397.125,65.3721 399.413,64.5635 400.938,62.9461 401.701,60.5201 401.701,48.3901 " />
<polyline points="418.478,52.4334 417.715,50.8161 416.19,49.1987 414.665,48.3901 411.614,48.3901 410.089,49.1987 408.564,50.8161 407.801,52.4334 407.039,54.8594 407.039,58.9028 407.801,61.3288 408.564,62.9461 410.089,64.5635 411.614,65.3721 414.665,65.3721 416.19,64.5635 417.715,62.9461 418.478,61.3288 " />
<polyline points="426.866,48.3901 426.866,65.3721 " />
<polyline points="421.528,48.3901 432.204,48.3901 " />
<polyline points="452.032,48.3901 452.032,65.3721 " />
<polyline points="452.032,48.3901 462.708,65.3721 " />
<polyline points="462.708,48.3901 462.708,65.3721 " />
<polyline points="472.622,48.3901 471.096,49.1987 469.571,50.8161 468.809,52.4334 468.046,54.8594 468.046,58.9028 468.809,61.3288 469.571,62.9461 471.096,64.5635 472.622,65.3721 475.672,65.3721 477.197,64.5635 478.722,62.9461 479.485,61.3288 480.248,58.9028 480.248,54.8594 479.485,52.4334 478.722,50.8161 477.197,49.1987 475.672,48.3901 472.622,48.3901 " />
<polyline points="488.636,48.3901 488.636,65.3721 " />
<polyline points="483.298,48.3901 493.974,48.3901 " />
<polyline points="625.254,125.643 573.217,88.6166 " />
<polyline points="782.127,57.322 782.114,58.0456 782.084,58.7678 782.04,59.4871 781.981,60.2022 781.907,60.9118 781.818,61.6145 781.714,62.3091 781.596,62.9943 781.464,63.6687 781.318,64.3311 781.158,64.9803 780.984,65.6151 780.798,66.2343 780.599,66.8367 780.387,67.4213 780.164,67.9868 779.929,68.5323 779.929,68.5323 779.475,69.5163 779.01,70.4766 778.533,71.4126 778.044,72.3238 777.545,73.2094 777.035,74.069 776.515,74.902 775.985,75.7079 775.445,76.486 774.896,77.2361 774.339,77.9574 773.772,78.6497 773.197,79.3124 772.615,79.9451 772.025,80.5474 771.428,81.119 771.428,81.119 770.625,81.845 769.815,82.5402 768.999,83.2045 768.178,83.8375 767.351,84.4391 766.519,85.009 765.682,85.5471 764.841,86.0532 763.995,86.527 763.146,86.9684 762.292,87.3773 761.436,87.7536 760.576,88.097 760.576,88.097 759.546,88.4738 758.513,88.8223 757.478,89.1422 756.441,89.4337 755.403,89.6965 754.363,89.9308 753.322,90.1364 752.28,90.3132 751.237,90.4614 750.193,90.5807 749.149,90.6713 748.104,90.7331 747.06,90.7661 746.015,90.7703 746.015,90.7703 744.971,90.7456 743.927,90.6922 742.883,90.6099 741.841,90.4988 740.8,90.359 739.759,90.1905 738.72,89.9932 737.683,89.7672 736.648,89.5126 735.614,89.2294 734.583,88.9177 733.553,88.5775 732.527,88.2089 731.503,87.8119 731.503,87.8119 730.71,87.4785 729.921,87.1169 729.134,86.7271 728.352,86.3093 727.573,85.8636 726.798,85.3902 726.028,84.8891 725.262,84.3606 724.501,83.8048 723.745,83.2218 722.994,82.6119 722.248,81.9752 721.508,81.3119 720.774,80.6223 720.774,80.6223 720.222,80.0743 719.676,79.4991 719.137,78.8971 718.606,78.2687 718.082,77.6141 717.566,76.9337 717.058,76.228 716.559,75.4973 716.069,74.742 715.587,73.9627 715.115,73.1597 714.653,72.3334 714.2,71.4844 713.758,70.6132 713.326,69.7202 712.905,68.806 712.494,67.871 712.494,67.871 712.255,67.286 712.03,66.6786 711.818,66.0503 711.621,65.4022 711.438,64.7359 711.271,64.0526 711.119,63.3538 710.983,62.6411 710.863,61.9158 710.759,61.1796 710.672,60.4339 710.602,59.6804 710.549,58.9206 710.513,58.1561 710.494,57.3885 710.492,56.6195 710.492,56.6195 710.506,55.8959 710.535,55.1737 710.579,54.4544 710.638,53.7393 710.713,53.0297 710.802,52.327 710.905,51.6324 711.023,50.9472 711.156,50.2728 711.302,49.6104 711.462,48.9611 711.635,48.3263 711.821,47.7072 712.02,47.1047 712.232,46.5202 712.455,45.9547 712.69,45.4092 712.69,45.4092 713.144,44.4252 713.61,43.4649 714.087,42.5289 714.575,41.6177 715.074,40.7321 715.584,39.8725 716.104,39.0395 716.634,38.2336 717.174,37.4554 717.723,36.7054 718.281,35.984 718.847,35.2918 719.422,34.6291 720.004,33.9964 720.594,33.394 721.191,32.8225 721.191,32.8225 721.995,32.0965 722.805,31.4012 723.62,30.737 724.442,30.104 725.269,29.5024 726.101,28.9324 726.937,28.3944 727.779,27.8883 728.624,27.4145 729.474,26.973 730.327,26.5641 731.183,26.1879 732.043,25.8445 732.043,25.8445 733.074,25.4676 734.107,25.1192 735.142,24.7992 736.178,24.5078 737.217,24.2449 738.257,24.0107 739.298,23.8051 740.34,23.6283 741.383,23.4801 742.427,23.3607 743.471,23.2702 744.515,23.2084 745.56,23.1754 746.604,23.1712 746.604,23.1712 747.649,23.1959 748.693,23.2493 749.736,23.3316 750.778,23.4426 751.82,23.5825 752.86,23.751 753.899,23.9483 754.936,24.1743 755.972,24.4289 757.005,24.712 758.037,25.0238 759.066,25.364 760.093,25.7326 761.117,26.1296 761.117,26.1296 761.909,26.463 762.699,26.8246 763.485,27.2144 764.268,27.6322 765.046,28.0779 765.821,28.5513 766.591,29.0524 767.357,29.5809 768.118,30.1367 768.875,30.7196 769.626,31.3296 770.371,31.9663 771.111,32.6295 771.845,33.3192 771.845,33.3192 772.398,33.8672 772.943,34.4424 773.482,35.0443 774.014,35.6728 774.538,36.3274 775.054,37.0078 775.561,37.7135 776.06,38.4442 776.551,39.1994 777.032,39.9788 777.504,40.7818 777.967,41.6081 778.419,42.457 778.861,43.3283 779.293,44.2213 779.715,45.1355 780.125,46.0704 780.125,46.0704 780.364,46.6555 780.59,47.2629 780.801,47.8912 780.999,48.5393 781.181,49.2056 781.349,49.8889 781.501,50.5876 781.637,51.3004 781.757,52.0257 781.86,52.7619 781.947,53.5076 782.017,54.2611 782.07,55.0209 782.107,55.7854 782.126,56.553 782.127,57.322 " />
<polyline points="612.023,55.6539 808.961,57.5851 " stroke-dasharray="79.624764,15.924953,15.924953,15.924953" />
<polyline points="710.492,56.6195 710.491,55.8957 710.474,55.1731 710.442,54.4531 710.396,53.7369 710.334,53.026 710.257,52.3216 710.166,51.6251 710.06,50.9378 709.939,50.2609 709.805,49.5957 709.656,48.9434 709.494,48.3053 709.318,47.6826 709.13,47.0764 708.928,46.4878 708.715,45.918 708.489,45.368 708.489,45.368 708.053,44.3753 707.604,43.406 707.144,42.4608 706.671,41.5402 706.188,40.6449 705.693,39.7755 705.187,38.9324 704.671,38.1163 704.145,37.3277 703.609,36.567 703.064,35.8348 702.51,35.1316 701.947,34.4577 701.376,33.8137 700.796,33.1999 700.21,32.6168 700.21,32.6168 699.419,31.8751 698.621,31.1641 697.817,30.484 697.007,29.8349 696.191,29.2172 695.369,28.6311 694.542,28.0767 693.709,27.5542 692.872,27.0639 692.03,26.6059 691.184,26.1803 690.335,25.7873 689.481,25.4271 689.481,25.4271 688.457,25.0301 687.431,24.6615 686.401,24.3213 685.37,24.0096 684.336,23.7264 683.301,23.4718 682.263,23.2458 681.225,23.0486 680.184,22.88 679.143,22.7402 678.1,22.6291 677.057,22.5469 676.013,22.4934 674.969,22.4687 674.969,22.4687 673.924,22.4729 672.88,22.5059 671.835,22.5677 670.791,22.6583 669.747,22.7777 668.704,22.9258 667.662,23.1027 666.621,23.3082 665.581,23.5425 664.543,23.8053 663.506,24.0968 662.471,24.4167 661.438,24.7652 660.407,25.142 660.407,25.142 659.609,25.4598 658.814,25.8059 658.021,26.1802 657.231,26.5826 656.445,27.0129 655.662,27.4711 654.883,27.9569 654.108,28.4703 653.337,29.0111 652.571,29.5792 651.809,30.1742 651.053,30.7962 650.302,31.4449 649.556,32.12 649.556,32.12 648.994,32.6571 648.438,33.2214 647.889,33.8128 647.346,34.4307 646.811,35.0749 646.283,35.7451 645.763,36.4407 645.252,37.1615 644.748,37.907 644.253,38.6768 643.767,39.4704 643.291,40.2874 642.823,41.1274 642.366,41.9898 641.919,42.8741 641.481,43.78 641.055,44.7067 641.055,44.7067 640.806,45.287 640.569,45.8898 640.347,46.5139 640.138,47.158 639.944,47.8206 639.765,48.5005 639.601,49.1962 639.452,49.9061 639.32,50.6289 639.203,51.363 639.103,52.1068 639.02,52.8589 638.954,53.6175 638.904,54.3812 638.872,55.1482 638.856,55.917 " />
<polyline points="710.064,105.71 710.92,7.52941 " />
<polyline points="656.636,163.293 693.456,163.293 " />
<polyline points="638.552,223.78 638.552,244.051 " />
</g>
<g clip-path="url(#clipId0)" fill="rgb(0,0,0)" stroke="rgb(0,0,0)" stroke-width="0.25" >
<path d="M656.636,160.097 656.636,166.49 638.552,163.293 638.552,163.293 z" />
<path d="M626.741,123.293 623.767,127.993 638.552,135.105 638.552,135.105 z" />
</g>
<g clip-path="url(#clipId0)" fill="none" stroke="rgb(0,0,0)" stroke-width="0.25" >
<polyline points="710.064,198.101 710.064,259.584 " />
<polyline points="710.335,337.328 710.335,304.04 " />
<polyline points="710.446,289.934 710.446,277.255 " />
<polyline points="704.307,153.705 704.307,172.882 " />
<polyline points="704.307,153.705 710.335,153.705 712.918,154.618 714.64,156.445 715.501,158.271 716.363,161.01 716.363,165.576 715.501,168.316 714.64,170.142 712.918,171.969 710.335,172.882 704.307,172.882 " />
<polyline points="724.78,172.789 722.729,173.876 720.678,176.051 719.653,179.314 719.653,181.488 720.678,184.751 722.729,186.926 724.78,188.013 727.857,188.013 729.908,186.926 731.958,184.751 732.984,181.488 732.984,179.314 731.958,176.051 729.908,173.876 727.857,172.789 724.78,172.789 " />
<polyline points="782.117,223.78 782.117,244.051 " />
<polyline points="764.033,163.293 727.213,163.293 " />
<polyline points="710.064,105.71 710.064,137.844 " />
</g>
<g clip-path="url(#clipId0)" fill="rgb(0,0,0)" stroke="rgb(0,0,0)" stroke-width="0.25" >
<path d="M764.033,160.097 764.033,166.49 782.117,163.293 782.117,163.293 z" />
</g>
<g clip-path="url(#clipId0)" fill="none" stroke="rgb(0,0,0)" stroke-width="0.25" >
<polyline points="573.217,88.6166 549.089,88.6166 " />
<polyline points="638.552,358.094 638.552,55.6757 " />
<polyline points="782.117,358.094 782.117,55.6757 " />
<polyline points="320.298,115.612 319.479,113.974 317.841,112.336 316.203,111.517 312.927,111.517 311.289,112.336 309.651,113.974 308.832,115.612 308.013,118.069 308.013,122.164 308.832,124.621 309.651,126.259 311.289,127.897 312.927,128.716 316.203,128.716 317.841,127.897 319.479,126.259 320.298,124.621 " />
<polyline points="330.126,111.517 328.488,112.336 326.85,113.974 326.031,115.612 325.212,118.069 325.212,122.164 326.031,124.621 326.85,126.259 328.488,127.897 330.126,128.716 333.402,128.716 335.04,127.897 336.678,126.259 337.497,124.621 338.316,122.164 338.316,118.069 337.497,115.612 336.678,113.974 335.04,112.336 333.402,111.517 330.126,111.517 " />
<polyline points="344.049,111.517 344.049,128.716 " />
<polyline points="344.049,111.517 354.696,111.517 " />
<polyline points="344.049,119.707 350.601,119.707 " />
<polyline points="344.049,128.716 354.696,128.716 " />
<polyline points="359.61,111.517 359.61,128.716 " />
<polyline points="359.61,111.517 370.257,111.517 " />
<polyline points="359.61,119.707 366.162,119.707 " />
<polyline points="374.352,111.517 374.352,128.716 " />
<polyline points="374.352,111.517 384.999,111.517 " />
<polyline points="374.352,119.707 380.904,119.707 " />
<polyline points="389.094,111.517 389.094,128.716 " />
<polyline points="407.112,115.612 406.293,113.974 404.655,112.336 403.017,111.517 399.741,111.517 398.103,112.336 396.465,113.974 395.646,115.612 394.827,118.069 394.827,122.164 395.646,124.621 396.465,126.259 398.103,127.897 399.741,128.716 403.017,128.716 404.655,127.897 406.293,126.259 407.112,124.621 " />
<polyline points="412.845,111.517 412.845,128.716 " />
<polyline points="419.397,111.517 419.397,128.716 " />
<polyline points="419.397,111.517 430.044,111.517 " />
<polyline points="419.397,119.707 425.949,119.707 " />
<polyline points="419.397,128.716 430.044,128.716 " />
<polyline points="434.958,111.517 434.958,128.716 " />
<polyline points="434.958,111.517 446.424,128.716 " />
<polyline points="446.424,111.517 446.424,128.716 " />
<polyline points="456.252,111.517 456.252,128.716 " />
<polyline points="450.519,111.517 461.985,111.517 " />
<polyline points="466.899,127.078 466.08,127.897 466.899,128.716 467.718,127.897 466.899,127.078 " />
</g>
</svg>
