<?xml version="1.0" standalone="no"?>
<svg viewBox="0 0 1024 768" version="1.1" xmlns="http://www.w3.org/2000/svg" xmlns:xlink="http://www.w3.org/1999/xlink" stroke-linecap="round" stroke-linejoin="round" fill-rule="evenodd" xml:space="preserve" >
<defs >
<clipPath id="clipId0" >
<path d="M0,768 1024,768 1024,0 0,0 z" />
</clipPath>
</defs>
<g clip-path="url(#clipId0)" fill="none" stroke="rgb(0,0,0)" stroke-width="0.1" />
<g clip-path="url(#clipId0)" fill="none" stroke="rgb(0,0,0)" stroke-width="0.25" >
<polyline points="598.71,279.764 395.609,279.764 " />
</g>
<g clip-path="url(#clipId0)" fill="rgb(0,0,0)" stroke="rgb(0,0,0)" stroke-width="0.25" >
<path d="M598.71,276.164 598.71,283.364 620.309,279.764 620.309,279.764 z" />
</g>
<g clip-path="url(#clipId0)" fill="none" stroke="rgb(0,0,0)" stroke-width="0.25" >
<polyline points="860.16,351.759 710.154,351.759 " />
<polyline points="860.16,207.77 710.154,207.77 " />
<polyline points="860.16,257.446 832.053,257.446 " stroke-dasharray="0.000082,8.181202" />
<polyline points="860.16,302.082 832.053,302.082 " stroke-dasharray="0.000082,8.181202" />
<polyline points="832.053,302.082 832.053,257.446 " stroke-dasharray="0.000082,8.181202" />
<polyline points="838.53,257.446 838.53,207.77 " stroke-dasharray="0.000082,8.181202" />
<polyline points="838.53,302.082 838.53,351.759 " stroke-dasharray="0.000082,8.181202" />
<polyline points="311.305,330.16 311.305,312.162 " />
<polyline points="311.305,229.368 311.305,247.367 " />
</g>
<g clip-path="url(#clipId0)" fill="rgb(0,0,0)" stroke="rgb(0,0,0)" stroke-width="0.25" >
<path d="M314.905,330.16 307.705,330.16 311.305,351.759 311.305,351.759 z" />
<path d="M314.905,229.368 307.705,229.368 311.305,207.77 311.305,207.77 z" />
</g>
<g clip-path="url(#clipId0)" fill="none" stroke="rgb(0,0,0)" stroke-width="0.25" >
<polyline points="319.236,281.424 317.179,282.452 315.122,284.509 314.093,287.595 314.093,289.652 315.122,292.737 317.179,294.794 319.236,295.823 322.321,295.823 324.378,294.794 326.435,292.737 327.464,289.652 327.464,287.595 326.435,284.509 324.378,282.452 322.321,281.424 319.236,281.424 " />
<polyline points="297.415,264.382 297.415,285.981 " />
<polyline points="297.415,264.382 304.614,264.382 307.7,265.411 309.757,267.468 310.785,269.525 311.814,272.61 311.814,277.753 310.785,280.838 309.757,282.895 307.7,284.952 304.614,285.981 297.415,285.981 " />
<polyline points="233.073,358.958 233.073,200.57 " />
<polyline points="31.6376,207.77 233.073,207.77 " />
<polyline points="175.627,351.759 233.073,351.759 " />
<polyline points="175.627,351.759 175.627,409.205 " />
<polyline points="31.6376,207.77 31.6376,409.205 " />
<polyline points="970.409,323.316 1013.96,279.764 " />
<polyline points="970.409,236.212 1013.96,279.764 " />
<polyline points="970.409,323.316 970.409,305.23 " />
<polyline points="937.563,254.298 937.563,305.23 " />
<polyline points="937.563,305.23 970.409,305.23 " />
<polyline points="970.409,254.298 937.563,254.298 " />
<polyline points="970.409,254.298 970.409,236.212 " />
<polyline points="247.471,373.357 247.471,186.171 " />
<polyline points="254.671,373.357 254.671,186.171 " />
<polyline points="247.471,373.357 254.671,373.357 " />
<polyline points="247.471,186.171 254.671,186.171 " />
<polyline points="233.073,358.958 247.471,358.958 " />
<polyline points="233.073,200.57 247.471,200.57 " />
<polyline points="24.4381,409.205 24.4381,423.603 " />
<polyline points="182.826,409.205 182.826,423.603 " />
<polyline points="10.0392,423.603 10.0392,430.803 " />
<polyline points="197.225,423.603 197.225,430.803 " />
<polyline points="197.225,430.803 10.0392,430.803 " />
<polyline points="197.225,423.603 10.0392,423.603 " />
<polyline points="182.826,409.205 24.4381,409.205 " />
<polyline points="710.154,200.57 695.755,200.57 " />
<polyline points="710.154,358.958 695.755,358.958 " />
<polyline points="695.755,186.171 688.556,186.171 " />
<polyline points="695.755,373.357 688.556,373.357 " />
<polyline points="688.556,373.357 688.556,186.171 " />
<polyline points="695.755,373.357 695.755,186.171 " />
<polyline points="710.154,358.958 710.154,200.57 " />
<path d="M753.039,129.705  A42.3295,42.3295 0 0,0 753.039,183.701 " />
<polyline points="818.244,129.705 753.039,129.705 " />
<polyline points="818.244,183.701 753.039,183.701 " />
<path d="M818.244,183.701  A42.3295,42.3295 0 0,0 818.244,129.705 " />
<polyline points="753.039,183.701 753.039,129.705 " />
<polyline points="818.244,183.701 818.244,129.705 " />
<polyline points="846.784,207.77 860.16,257.446 " stroke-dasharray="0.000082,8.181202" />
<polyline points="846.784,351.759 860.16,302.082 " stroke-dasharray="0.000082,8.181202" />
<polyline points="743.465,153.103 738.115,153.103 " />
<polyline points="743.465,160.302 738.115,160.302 " />
<polyline points="738.115,145.904 730.915,145.904 " />
<polyline points="738.115,167.502 736.315,167.502 " />
<polyline points="738.115,145.904 738.115,167.502 " />
<polyline points="730.915,145.904 730.915,167.502 " />
<polyline points="730.915,268.965 730.915,290.563 " stroke-dasharray="0.000082,8.181202" />
<polyline points="738.115,268.965 738.115,290.563 " stroke-dasharray="0.000082,8.181202" />
<polyline points="738.115,290.563 730.915,290.563 " stroke-dasharray="0.000082,8.181202" />
<polyline points="738.115,268.965 736.315,268.965 " stroke-dasharray="0.000082,8.181202" />
<polyline points="832.053,283.364 738.115,283.364 " stroke-dasharray="0.000082,8.181202" />
<polyline points="832.053,276.164 738.115,276.164 " stroke-dasharray="0.000082,8.181202" />
<polyline points="732.715,290.563 732.715,207.77 " stroke-dasharray="0.000082,8.181202" />
<polyline points="736.315,290.563 736.315,207.77 " stroke-dasharray="0.000082,8.181202" />
<polyline points="732.715,268.965 730.915,268.965 " stroke-dasharray="0.000082,8.181202" />
<polyline points="732.715,167.502 730.915,167.502 " />
<polyline points="759.673,183.701 759.673,207.77 " />
<polyline points="811.61,183.701 811.61,207.77 " />
<polyline points="736.315,207.77 736.315,145.904 " />
<polyline points="732.715,207.77 732.715,145.904 " />
<polyline points="254.671,390.419 254.671,464.632 " />
<polyline points="688.556,390.419 688.556,464.632 " />
<polyline points="276.269,438.714 443.844,438.714 " />
<polyline points="666.958,438.714 499.383,438.714 " />
</g>
<g clip-path="url(#clipId0)" fill="rgb(0,0,0)" stroke="rgb(0,0,0)" stroke-width="0.25" >
<path d="M276.269,442.313 276.269,435.114 254.671,438.714 254.671,438.714 z" />
<path d="M666.958,442.313 666.958,435.114 688.556,438.714 688.556,438.714 z" />
</g>
<g clip-path="url(#clipId0)" fill="none" stroke="rgb(0,0,0)" stroke-width="0.25" >
<polyline points="469.556,427.914 469.556,449.513 481.898,449.513 " />
</g>
<g clip-path="url(#clipId0)" fill="rgb(0,0,0)" stroke="rgb(0,0,0)" stroke-width="0.25" >
<path d="M714.14,189.501 720.718,186.574 726.212,207.77 726.212,207.77 z" />
</g>
<g clip-path="url(#clipId0)" fill="none" stroke="rgb(0,0,0)" stroke-width="0.25" >
<polyline points="717.429,188.038 686.255,117.999 " />
<polyline points="686.255,117.999 664.657,117.999 " />
<polyline points="414.254,107.2 414.254,128.798 " />
<polyline points="407.054,107.2 421.453,107.2 " />
<polyline points="426.596,107.2 426.596,122.627 427.624,125.713 429.681,127.77 432.767,128.798 434.824,128.798 437.909,127.77 439.966,125.713 440.995,122.627 440.995,107.2 " />
<polyline points="449.223,107.2 449.223,128.798 " />
<polyline points="449.223,107.2 458.479,107.2 461.565,108.229 462.593,109.257 463.622,111.314 463.622,113.371 462.593,115.428 461.565,116.457 458.479,117.485 " />
<polyline points="449.223,117.485 458.479,117.485 461.565,118.514 462.593,119.542 463.622,121.599 463.622,124.684 462.593,126.741 461.565,127.77 458.479,128.798 449.223,128.798 " />
<polyline points="470.821,107.2 470.821,128.798 " />
<polyline points="470.821,107.2 484.191,107.2 " />
<polyline points="470.821,117.485 479.049,117.485 " />
<polyline points="470.821,128.798 484.191,128.798 " />
<polyline points="495.505,107.2 487.277,128.798 " />
<polyline points="495.505,107.2 503.733,128.798 " />
<polyline points="490.362,121.599 500.647,121.599 " />
<polyline points="507.847,107.2 522.246,128.798 " />
<polyline points="522.246,107.2 507.847,128.798 " />
<polyline points="529.445,107.2 529.445,128.798 " />
<polyline points="542.816,107.2 534.588,128.798 " />
<polyline points="542.816,107.2 551.044,128.798 " />
<polyline points="537.673,121.599 547.958,121.599 " />
<polyline points="556.186,107.2 556.186,128.798 568.528,128.798 " />
<polyline points="595.269,107.2 595.269,128.798 " />
<polyline points="595.269,107.2 608.639,107.2 " />
<polyline points="595.269,117.485 603.497,117.485 " />
<polyline points="618.924,107.2 610.696,128.798 " />
<polyline points="618.924,107.2 627.152,128.798 " />
<polyline points="613.782,121.599 624.067,121.599 " />
<polyline points="632.295,107.2 632.295,128.798 " />
<polyline points="632.295,107.2 646.693,128.798 " />
<polyline points="646.693,107.2 646.693,128.798 " />
<polyline points="175.627,351.759 31.6376,207.77 " />
<polyline points="860.16,358.958 860.16,200.57 " />
<polyline points="874.559,373.357 874.559,186.171 " />
<polyline points="881.759,373.357 881.759,186.171 " />
<polyline points="874.559,373.357 881.759,373.357 " />
<polyline points="874.559,186.171 881.759,186.171 " />
<polyline points="860.16,358.958 874.559,358.958 " />
<polyline points="860.16,200.57 874.559,200.57 " />
<polyline points="478.167,242.453 476.11,243.481 474.053,245.538 473.024,247.595 471.996,250.681 471.996,255.823 473.024,258.909 474.053,260.966 476.11,263.023 478.167,264.051 482.281,264.051 484.338,263.023 486.395,260.966 487.423,258.909 488.452,255.823 488.452,250.681 487.423,247.595 486.395,245.538 484.338,243.481 482.281,242.453 478.167,242.453 " />
<polyline points="481.252,259.937 487.423,266.108 " />
<polyline points="688.556,351.737 254.671,351.737 " />
<polyline points="688.556,207.527 254.671,207.527 " />
<polyline points="745.539,632.002 745.539,660.8 " />
<polyline points="745.539,632.002 763.366,632.002 " />
<polyline points="745.539,645.715 756.509,645.715 " />
<polyline points="745.539,660.8 763.366,660.8 " />
<polyline points="771.594,632.002 771.594,660.8 " />
<polyline points="771.594,632.002 781.193,632.002 785.307,633.373 788.05,636.116 789.421,638.859 790.792,642.973 790.792,649.829 789.421,653.943 788.05,656.686 785.307,659.429 781.193,660.8 771.594,660.8 " />
<polyline points="818.219,632.002 804.505,660.8 " />
<polyline points="799.02,632.002 818.219,632.002 " />
<polyline points="827.818,648.458 852.502,648.458 " />
<polyline points="881.3,632.002 867.586,660.8 " />
<polyline points="862.101,632.002 881.3,632.002 " />
</g>
</svg>
