<?xml version="1.0" standalone="no"?>
<svg viewBox="0 0 1024 768" version="1.1" xmlns="http://www.w3.org/2000/svg" xmlns:xlink="http://www.w3.org/1999/xlink" stroke-linecap="round" stroke-linejoin="round" fill-rule="evenodd" xml:space="preserve" >
<defs >
<clipPath id="clipId0" >
<path d="M0,768 1024,768 1024,0 0,0 z" />
</clipPath>
</defs>
<g clip-path="url(#clipId0)" fill="none" stroke="rgb(0,0,0)" stroke-width="0.1" />
<g clip-path="url(#clipId0)" fill="none" stroke="rgb(0,0,0)" stroke-width="0.25" >
<polyline points="624.51,249.716 432.44,249.716 " />
</g>
<g clip-path="url(#clipId0)" fill="rgb(0,0,0)" stroke="rgb(0,0,0)" stroke-width="0.25" >
<path d="M624.51,246.312 624.51,253.121 644.935,249.716 644.935,249.716 z" />
</g>
<g clip-path="url(#clipId0)" fill="none" stroke="rgb(0,0,0)" stroke-width="0.25" >
<polyline points="871.76,317.801 729.901,317.801 " />
<polyline points="871.76,181.632 729.901,181.632 " />
<polyline points="871.76,228.61 845.179,228.61 " stroke-dasharray="0.000077,7.736861" />
<polyline points="871.76,270.822 845.179,270.822 " stroke-dasharray="0.000077,7.736861" />
<polyline points="845.179,270.822 845.179,228.61 " stroke-dasharray="0.000077,7.736861" />
<polyline points="851.304,228.61 851.304,181.632 " stroke-dasharray="0.000077,7.736861" />
<polyline points="851.304,270.822 851.304,317.801 " stroke-dasharray="0.000077,7.736861" />
<polyline points="352.714,297.375 352.714,280.354 " />
<polyline points="352.714,202.057 352.714,219.078 " />
</g>
<g clip-path="url(#clipId0)" fill="rgb(0,0,0)" stroke="rgb(0,0,0)" stroke-width="0.25" >
<path d="M356.118,297.375 349.31,297.375 352.714,317.801 352.714,317.801 z" />
<path d="M356.118,202.057 349.31,202.057 352.714,181.632 352.714,181.632 z" />
</g>
<g clip-path="url(#clipId0)" fill="none" stroke="rgb(0,0,0)" stroke-width="0.25" >
<polyline points="360.214,251.286 358.269,252.258 356.324,254.204 355.351,257.121 355.351,259.067 356.324,261.985 358.269,263.93 360.214,264.903 363.132,264.903 365.077,263.93 367.023,261.985 367.995,259.067 367.995,257.121 367.023,254.204 365.077,252.258 363.132,251.286 360.214,251.286 " />
<polyline points="339.578,235.17 339.578,255.595 " />
<polyline points="339.578,235.17 346.387,235.17 349.305,236.143 351.25,238.088 352.223,240.033 353.195,242.951 353.195,247.814 352.223,250.732 351.25,252.677 349.305,254.623 346.387,255.595 339.578,255.595 " />
<polyline points="278.731,324.609 278.731,174.823 " />
<polyline points="258.305,317.801 237.88,181.632 " />
<polyline points="237.88,181.632 278.731,181.632 " />
<polyline points="258.305,317.801 278.731,317.801 " />
<polyline points="166.633,409.473 166.633,429.898 " />
<polyline points="30.4645,389.047 30.4645,429.898 " />
<polyline points="166.633,409.473 30.4645,389.047 " />
<polyline points="166.633,409.473 198.222,349.389 " />
<polyline points="198.222,349.389 258.305,317.801 " />
<polyline points="30.4645,389.047 101.936,253.103 " />
<polyline points="101.936,253.103 237.88,181.632 " />
<polyline points="198.222,349.389 101.936,253.103 " />
<polyline points="972.774,290.903 1013.96,249.716 " />
<polyline points="972.774,208.53 1013.96,249.716 " />
<polyline points="972.774,290.903 972.774,273.799 " />
<polyline points="941.712,225.633 941.712,273.799 " />
<polyline points="941.712,273.799 972.774,273.799 " />
<polyline points="972.774,225.633 941.712,225.633 " />
<polyline points="972.774,225.633 972.774,208.53 " />
<polyline points="292.347,338.226 292.347,161.207 " />
<polyline points="299.156,338.226 299.156,161.207 " />
<polyline points="292.347,338.226 299.156,338.226 " />
<polyline points="292.347,161.207 299.156,161.207 " />
<polyline points="278.731,324.609 292.347,324.609 " />
<polyline points="278.731,174.823 292.347,174.823 " />
<polyline points="23.6561,429.898 23.6561,443.515 " />
<polyline points="173.442,429.898 173.442,443.515 " />
<polyline points="10.0392,443.515 10.0392,450.323 " />
<polyline points="187.059,443.515 187.059,450.323 " />
<polyline points="187.059,450.323 10.0392,450.323 " />
<polyline points="187.059,443.515 10.0392,443.515 " />
<polyline points="173.442,429.898 23.6561,429.898 " />
<polyline points="729.901,174.823 716.284,174.823 " />
<polyline points="729.901,324.609 716.284,324.609 " />
<polyline points="716.284,161.207 709.476,161.207 " />
<polyline points="716.284,338.226 709.476,338.226 " />
<polyline points="709.476,338.226 709.476,161.207 " />
<polyline points="716.284,338.226 716.284,161.207 " />
<polyline points="729.901,324.609 729.901,174.823 " />
<path d="M770.457,107.807  A40.0305,40.0305 0 0,0 770.457,158.87 " />
<polyline points="832.12,107.807 770.457,107.807 " />
<polyline points="832.12,158.87 770.457,158.87 " />
<path d="M832.12,158.87  A40.0305,40.0305 0 0,0 832.12,107.807 " />
<polyline points="770.457,158.87 770.457,107.807 " />
<polyline points="832.12,158.87 832.12,107.807 " />
<polyline points="859.11,181.632 871.76,228.61 " stroke-dasharray="0.000077,7.736861" />
<polyline points="859.11,317.801 871.76,270.822 " stroke-dasharray="0.000077,7.736861" />
<polyline points="761.403,129.934 756.343,129.934 " />
<polyline points="761.403,136.743 756.343,136.743 " />
<polyline points="756.343,123.126 749.534,123.126 " />
<polyline points="756.343,143.551 754.641,143.551 " />
<polyline points="756.343,123.126 756.343,143.551 " />
<polyline points="749.534,123.126 749.534,143.551 " />
<polyline points="749.534,239.504 749.534,259.929 " stroke-dasharray="0.000077,7.736861" />
<polyline points="756.343,239.504 756.343,259.929 " stroke-dasharray="0.000077,7.736861" />
<polyline points="756.343,259.929 749.534,259.929 " stroke-dasharray="0.000077,7.736861" />
<polyline points="756.343,239.504 754.641,239.504 " stroke-dasharray="0.000077,7.736861" />
<polyline points="845.179,253.121 756.343,253.121 " stroke-dasharray="0.000077,7.736861" />
<polyline points="845.179,246.312 756.343,246.312 " stroke-dasharray="0.000077,7.736861" />
<polyline points="751.236,259.929 751.236,181.632 " stroke-dasharray="0.000077,7.736861" />
<polyline points="754.641,259.929 754.641,181.632 " stroke-dasharray="0.000077,7.736861" />
<polyline points="751.236,239.504 749.534,239.504 " stroke-dasharray="0.000077,7.736861" />
<polyline points="751.236,143.551 749.534,143.551 " />
<polyline points="776.73,158.87 776.73,181.632 " />
<polyline points="825.847,158.87 825.847,181.632 " />
<polyline points="754.641,181.632 754.641,123.126 " />
<polyline points="751.236,181.632 751.236,123.126 " />
<polyline points="299.156,354.361 299.156,424.543 " />
<polyline points="709.476,354.361 709.476,424.543 " />
<polyline points="319.581,400.033 478.055,400.033 " />
<polyline points="689.05,400.033 530.577,400.033 " />
</g>
<g clip-path="url(#clipId0)" fill="rgb(0,0,0)" stroke="rgb(0,0,0)" stroke-width="0.25" >
<path d="M319.581,403.437 319.581,396.629 299.156,400.033 299.156,400.033 z" />
<path d="M689.05,403.437 689.05,396.629 709.476,400.033 709.476,400.033 z" />
</g>
<g clip-path="url(#clipId0)" fill="none" stroke="rgb(0,0,0)" stroke-width="0.25" >
<polyline points="502.37,389.82 502.37,410.245 514.042,410.245 " />
</g>
<g clip-path="url(#clipId0)" fill="rgb(0,0,0)" stroke="rgb(0,0,0)" stroke-width="0.25" >
<path d="M733.67,164.356 739.891,161.587 745.086,181.632 745.086,181.632 z" />
</g>
<g clip-path="url(#clipId0)" fill="none" stroke="rgb(0,0,0)" stroke-width="0.25" >
<polyline points="736.78,162.972 707.3,96.7372 " />
<polyline points="707.3,96.7372 686.874,96.7372 " />
<polyline points="444.538,86.5246 444.538,106.95 " />
<polyline points="437.73,86.5246 451.347,86.5246 " />
<polyline points="456.21,86.5246 456.21,101.114 457.183,104.032 459.128,105.977 462.046,106.95 463.991,106.95 466.909,105.977 468.854,104.032 469.827,101.114 469.827,86.5246 " />
<polyline points="477.608,86.5246 477.608,106.95 " />
<polyline points="477.608,86.5246 486.362,86.5246 489.279,87.4972 490.252,88.4699 491.225,90.4151 491.225,92.3604 490.252,94.3057 489.279,95.2783 486.362,96.2509 " />
<polyline points="477.608,96.2509 486.362,96.2509 489.279,97.2236 490.252,98.1962 491.225,100.141 491.225,103.059 490.252,105.005 489.279,105.977 486.362,106.95 477.608,106.95 " />
<polyline points="498.033,86.5246 498.033,106.95 " />
<polyline points="498.033,86.5246 510.677,86.5246 " />
<polyline points="498.033,96.2509 505.814,96.2509 " />
<polyline points="498.033,106.95 510.677,106.95 " />
<polyline points="521.376,86.5246 513.595,106.95 " />
<polyline points="521.376,86.5246 529.157,106.95 " />
<polyline points="516.513,100.141 526.24,100.141 " />
<polyline points="533.048,86.5246 546.665,106.95 " />
<polyline points="546.665,86.5246 533.048,106.95 " />
<polyline points="553.473,86.5246 553.473,106.95 " />
<polyline points="566.118,86.5246 558.336,106.95 " />
<polyline points="566.118,86.5246 573.899,106.95 " />
<polyline points="561.254,100.141 570.981,100.141 " />
<polyline points="578.762,86.5246 578.762,106.95 590.433,106.95 " />
<polyline points="615.722,86.5246 615.722,106.95 " />
<polyline points="615.722,86.5246 628.366,86.5246 " />
<polyline points="615.722,96.2509 623.503,96.2509 " />
<polyline points="638.092,86.5246 630.311,106.95 " />
<polyline points="638.092,86.5246 645.874,106.95 " />
<polyline points="633.229,100.141 642.956,100.141 " />
<polyline points="650.737,86.5246 650.737,106.95 " />
<polyline points="650.737,86.5246 664.354,106.95 " />
<polyline points="664.354,86.5246 664.354,106.95 " />
<polyline points="871.76,324.609 871.76,174.823 " />
<polyline points="885.377,338.226 885.377,161.207 " />
<polyline points="892.185,338.226 892.185,161.207 " />
<polyline points="885.377,338.226 892.185,338.226 " />
<polyline points="885.377,161.207 892.185,161.207 " />
<polyline points="871.76,324.609 885.377,324.609 " />
<polyline points="871.76,174.823 885.377,174.823 " />
<polyline points="513.949,215.089 512.004,216.062 510.059,218.007 509.086,219.952 508.114,222.87 508.114,227.733 509.086,230.651 510.059,232.596 512.004,234.542 513.949,235.514 517.84,235.514 519.785,234.542 521.73,232.596 522.703,230.651 523.676,227.733 523.676,222.87 522.703,219.952 521.73,218.007 519.785,216.062 517.84,215.089 513.949,215.089 " />
<polyline points="516.867,231.624 522.703,237.46 " />
<polyline points="299.156,318.075 709.476,318.075 " />
<polyline points="299.156,181.697 709.476,181.697 " />
<polyline points="761.966,654.242 761.966,681.475 " />
<polyline points="761.966,654.242 778.825,654.242 " />
<polyline points="761.966,667.21 772.341,667.21 " />
<polyline points="761.966,681.475 778.825,681.475 " />
<polyline points="786.606,654.242 786.606,681.475 " />
<polyline points="786.606,654.242 795.684,654.242 799.575,655.539 802.168,658.132 803.465,660.726 804.762,664.616 804.762,671.101 803.465,674.991 802.168,677.585 799.575,680.179 795.684,681.475 786.606,681.475 " />
<polyline points="830.699,654.242 817.731,681.475 " />
<polyline points="812.543,654.242 830.699,654.242 " />
<polyline points="839.777,669.804 863.12,669.804 " />
<polyline points="887.76,654.242 874.792,654.242 873.495,665.913 874.792,664.616 878.682,663.32 882.573,663.32 886.463,664.616 889.057,667.21 890.354,671.101 890.354,673.694 889.057,677.585 886.463,680.179 882.573,681.475 878.682,681.475 874.792,680.179 873.495,678.882 872.198,676.288 " />
</g>
</svg>
