<?xml version="1.0" standalone="no"?>
<svg viewBox="0 0 1024 768" version="1.1" xmlns="http://www.w3.org/2000/svg" xmlns:xlink="http://www.w3.org/1999/xlink" stroke-linecap="round" stroke-linejoin="round" fill-rule="evenodd" xml:space="preserve" >
<defs >
<clipPath id="clipId0" >
<path d="M0,768 1024,768 1024,0 0,0 z" />
</clipPath>
</defs>
<g clip-path="url(#clipId0)" fill="none" stroke="rgb(0,0,0)" stroke-width="0.1" />
<g clip-path="url(#clipId0)" fill="none" stroke="rgb(0,0,0)" stroke-width="0.25" >
<polyline points="970.172,232.709 837.125,232.709 " />
<polyline points="970.172,324.045 928.462,324.045 " />
<circle cx="837.125" cy="324.045" r="45.6684" />
<path d="M837.125,232.709  A91.3368,91.3368 0 1,0 924.255,296.644 " />
<polyline points="970.172,324.045 970.172,232.709 " />
<polyline points="625.919,449.634 945.598,449.634 " />
<polyline points="945.598,449.634 945.598,324.045 " />
<polyline points="945.598,198.457 625.919,198.457 " />
<polyline points="625.919,198.457 625.919,264.676 " />
<polyline points="630.485,445.067 941.031,445.067 " />
<polyline points="630.485,203.024 630.485,264.676 " />
<polyline points="941.031,203.024 630.485,203.024 " />
<polyline points="941.031,445.067 941.031,324.045 " />
<polyline points="941.031,232.709 941.031,203.024 " />
<polyline points="945.598,232.709 945.598,198.457 " />
<polyline points="462.157,445.067 462.157,203.024 " />
<polyline points="462.157,203.024 37.4403,203.024 " />
<polyline points="37.4403,203.024 37.4403,445.067 " />
<polyline points="37.4403,445.067 462.157,445.067 " />
<polyline points="32.8734,198.457 32.8734,449.634 " />
<polyline points="466.723,198.457 32.8734,198.457 " />
<polyline points="466.723,449.634 466.723,198.457 " />
<polyline points="32.8734,449.634 466.723,449.634 " />
<polyline points="100.486,445.067 100.486,232.709 " />
<polyline points="191.823,445.067 191.823,232.709 " />
<polyline points="100.486,324.045 191.823,324.045 " />
<polyline points="100.486,232.709 191.823,232.709 " />
<polyline points="191.823,324.045 100.486,232.709 " />
<polyline points="100.486,324.045 191.823,232.709 " />
<polyline points="214.657,278.377 191.823,278.377 " />
<polyline points="214.657,369.714 191.823,369.714 " />
<polyline points="214.657,369.714 214.657,278.377 " />
<polyline points="77.6518,369.714 77.6518,278.377 " />
<polyline points="100.486,369.714 77.6518,369.714 " />
<polyline points="100.486,278.377 77.6518,278.377 " />
<polyline points="399.111,278.377 421.945,278.377 " />
<polyline points="399.111,369.714 421.945,369.714 " />
<polyline points="421.945,369.714 421.945,278.377 " />
<polyline points="284.94,369.714 284.94,278.377 " />
<polyline points="284.94,369.714 307.774,369.714 " />
<polyline points="284.94,278.377 307.774,278.377 " />
<polyline points="399.111,324.045 307.774,232.709 " />
<polyline points="307.774,324.045 399.111,232.709 " />
<polyline points="399.111,232.709 307.774,232.709 " />
<polyline points="399.111,324.045 307.774,324.045 " />
<polyline points="307.774,445.067 307.774,232.709 " />
<polyline points="399.111,445.067 399.111,232.709 " />
<polyline points="37.4403,188.981 37.4403,134.995 " />
<polyline points="77.6518,268.501 77.6518,135.465 " />
<polyline points="91.3523,151.906 105.053,151.906 " />
<polyline points="23.7397,151.906 10.0392,151.906 " />
</g>
<g clip-path="url(#clipId0)" fill="rgb(0,0,0)" stroke="rgb(0,0,0)" stroke-width="0.25" >
<path d="M91.3523,154.189 91.3523,149.623 77.6518,151.906 77.6518,151.906 z" />
<path d="M23.7397,154.189 23.7397,149.623 37.4403,151.906 37.4403,151.906 z" />
</g>
<g clip-path="url(#clipId0)" fill="none" stroke="rgb(0,0,0)" stroke-width="0.25" >
<polyline points="56.3219,143.396 56.3219,158.619 65.0207,158.619 " />
<polyline points="421.945,268.501 421.945,135.465 " />
<polyline points="462.157,188.981 462.157,172.501 " />
<polyline points="475.857,151.906 489.558,151.906 " />
<polyline points="408.244,151.906 394.544,151.906 " />
</g>
<g clip-path="url(#clipId0)" fill="rgb(0,0,0)" stroke="rgb(0,0,0)" stroke-width="0.25" >
<path d="M475.857,154.189 475.857,149.623 462.157,151.906 462.157,151.906 z" />
<path d="M408.244,154.189 408.244,149.623 421.945,151.906 421.945,151.906 z" />
</g>
<g clip-path="url(#clipId0)" fill="none" stroke="rgb(0,0,0)" stroke-width="0.25" >
<polyline points="438.368,142.435 438.368,157.657 447.066,157.657 " />
<polyline points="214.657,268.501 214.657,135.465 " />
<polyline points="284.94,268.501 284.94,135.465 " />
<polyline points="228.358,151.906 230.879,151.906 " />
<polyline points="271.239,151.906 268.718,151.906 " />
</g>
<g clip-path="url(#clipId0)" fill="rgb(0,0,0)" stroke="rgb(0,0,0)" stroke-width="0.25" >
<path d="M228.358,154.189 228.358,149.623 214.657,151.906 214.657,151.906 z" />
<path d="M271.239,154.189 271.239,149.623 284.94,151.906 284.94,151.906 z" />
</g>
<g clip-path="url(#clipId0)" fill="none" stroke="rgb(0,0,0)" stroke-width="0.25" >
<polyline points="279.231,369.714 237.296,369.714 " />
<polyline points="279.231,278.377 237.296,278.377 " />
<polyline points="253.736,356.013 253.736,344.596 " />
<polyline points="253.736,292.077 253.736,303.495 " />
</g>
<g clip-path="url(#clipId0)" fill="rgb(0,0,0)" stroke="rgb(0,0,0)" stroke-width="0.25" >
<path d="M256.02,356.013 251.453,356.013 253.736,369.714 253.736,369.714 z" />
<path d="M256.02,292.077 251.453,292.077 253.736,278.377 253.736,278.377 z" />
</g>
<g clip-path="url(#clipId0)" fill="none" stroke="rgb(0,0,0)" stroke-width="0.25" >
<polyline points="243.057,314.717 243.057,329.94 " />
<polyline points="243.057,314.717 248.131,314.717 250.306,315.442 251.755,316.892 252.48,318.342 253.205,320.516 253.205,324.141 252.48,326.315 251.755,327.765 250.306,329.215 248.131,329.94 243.057,329.94 " />
<polyline points="259.757,323.576 258.452,324.011 257.583,325.315 257.148,327.49 257.148,328.795 257.583,330.97 258.452,332.274 259.757,332.709 260.627,332.709 261.932,332.274 262.802,330.97 263.237,328.795 263.237,327.49 262.802,325.315 261.932,324.011 260.627,323.576 259.757,323.576 " />
<polyline points="597.613,324.045 911.649,324.045 " stroke-dasharray="107.828202,21.565640,21.565640,21.565640" />
<polyline points="625.919,264.676 630.485,264.676 " />
<polyline points="625.919,383.414 630.485,383.414 " />
<polyline points="630.485,383.414 630.485,445.067 " />
<polyline points="625.919,383.414 625.919,449.634 " />
<polyline points="691.24,216.725 691.24,242.984 " />
<polyline points="691.24,310.345 691.24,284.086 " />
</g>
<g clip-path="url(#clipId0)" fill="rgb(0,0,0)" stroke="rgb(0,0,0)" stroke-width="0.25" >
<path d="M693.524,216.725 688.957,216.725 691.24,203.024 691.24,203.024 z" />
<path d="M693.524,310.345 688.957,310.345 691.24,324.045 691.24,324.045 z" />
</g>
<g clip-path="url(#clipId0)" fill="none" stroke="rgb(0,0,0)" stroke-width="0.25" >
<polyline points="656.585,257.794 656.585,273.017 " />
<polyline points="656.585,257.794 666.009,257.794 " />
<polyline points="656.585,265.043 662.384,265.043 " />
<polyline points="656.585,273.017 666.009,273.017 " />
<polyline points="673.982,257.794 672.533,258.519 671.083,259.969 670.358,261.419 669.633,263.593 669.633,267.218 670.358,269.393 671.083,270.842 672.533,272.292 673.982,273.017 676.882,273.017 678.332,272.292 679.782,270.842 680.507,269.393 681.231,267.218 681.231,263.593 680.507,261.419 679.782,259.969 678.332,258.519 676.882,257.794 673.982,257.794 " />
<polyline points="676.157,270.118 680.507,274.467 " />
<polyline points="686.306,257.794 686.306,268.668 687.031,270.842 688.48,272.292 690.655,273.017 692.105,273.017 694.28,272.292 695.729,270.842 696.454,268.668 696.454,257.794 " />
<polyline points="705.878,257.794 700.079,273.017 " />
<polyline points="705.878,257.794 711.677,273.017 " />
<polyline points="702.253,267.943 709.502,267.943 " />
<polyline points="715.302,257.794 715.302,273.017 724,273.017 " />
</g>
<g clip-path="url(#clipId0)" fill="rgb(0,0,0)" stroke="rgb(0,0,0)" stroke-width="0.25" >
<path d="M693.524,431.366 688.957,431.366 691.24,445.067 691.24,445.067 z" />
<path d="M693.524,337.746 688.957,337.746 691.24,324.045 691.24,324.045 z" />
</g>
<g clip-path="url(#clipId0)" fill="none" stroke="rgb(0,0,0)" stroke-width="0.25" >
<polyline points="691.24,431.366 691.24,405.107 " />
<polyline points="691.24,337.746 691.24,364.005 " />
</g>
<g clip-path="url(#clipId0)" fill="rgb(0,0,0)" stroke="rgb(0,0,0)" stroke-width="0.25" >
<path d="M624.276,297.364 624.276,301.931 637.976,299.647 637.976,299.647 z" />
</g>
<g clip-path="url(#clipId0)" fill="none" stroke="rgb(0,0,0)" stroke-width="0.25" >
<polyline points="624.276,299.647 572.655,299.647 " />
<polyline points="624.276,348.444 572.655,348.444 " />
</g>
<g clip-path="url(#clipId0)" fill="rgb(0,0,0)" stroke="rgb(0,0,0)" stroke-width="0.25" >
<path d="M624.276,350.727 624.276,346.16 637.976,348.444 637.976,348.444 z" />
</g>
<g clip-path="url(#clipId0)" fill="none" stroke="rgb(0,0,0)" stroke-width="0.25" >
<path d="M629.5,366.428  A90.3129,90.3129 0 0,0 574.432,397.113 " />
</g>
<g clip-path="url(#clipId0)" fill="rgb(0,0,0)" stroke="rgb(0,0,0)" stroke-width="0.25" >
<path d="M629.674,368.705 629.327,364.151 643.162,365.389 643.162,365.389 z" />
</g>
<g clip-path="url(#clipId0)" fill="none" stroke="rgb(0,0,0)" stroke-width="0.25" >
<path d="M574.432,250.978  A90.3129,90.3129 0 0,0 629.5,281.663 " />
</g>
<g clip-path="url(#clipId0)" fill="rgb(0,0,0)" stroke="rgb(0,0,0)" stroke-width="0.25" >
<path d="M629.674,279.386 629.327,283.94 643.162,282.702 643.162,282.702 z" />
</g>
<g clip-path="url(#clipId0)" fill="none" stroke="rgb(0,0,0)" stroke-width="0.25" >
<polyline points="239.856,147.287 239.856,146.562 240.581,145.112 241.306,144.387 242.756,143.662 245.656,143.662 247.105,144.387 247.83,145.112 248.555,146.562 248.555,148.012 247.83,149.462 246.38,151.636 239.132,158.885 249.28,158.885 " />
<polyline points="254.354,143.662 254.354,158.885 263.053,158.885 " />
</g>
<g clip-path="url(#clipId0)" fill="rgb(0,0,0)" stroke="rgb(0,0,0)" stroke-width="0.25" >
<path d="M1000.26,274.345 1000.26,278.911 1013.96,276.628 1013.96,276.628 z" />
</g>
<g clip-path="url(#clipId0)" fill="none" stroke="rgb(0,0,0)" stroke-width="0.25" >
<polyline points="1000.26,276.628 931.648,276.628 " />
<polyline points="992.216,248.102 990.766,248.827 989.316,250.277 988.591,251.726 987.866,253.901 987.866,257.526 988.591,259.7 989.316,261.15 990.766,262.6 992.216,263.325 995.115,263.325 996.565,262.6 998.015,261.15 998.74,259.7 999.465,257.526 999.465,253.901 998.74,251.726 998.015,250.277 996.565,248.827 995.115,248.102 992.216,248.102 " />
<polyline points="994.39,260.425 998.74,264.775 " />
<polyline points="656.585,378.354 656.585,393.577 " />
<polyline points="656.585,378.354 666.009,378.354 " />
<polyline points="656.585,385.603 662.384,385.603 " />
<polyline points="656.585,393.577 666.009,393.577 " />
<polyline points="673.982,378.354 672.533,379.079 671.083,380.529 670.358,381.979 669.633,384.153 669.633,387.778 670.358,389.952 671.083,391.402 672.533,392.852 673.982,393.577 676.882,393.577 678.332,392.852 679.782,391.402 680.507,389.952 681.231,387.778 681.231,384.153 680.507,381.979 679.782,380.529 678.332,379.079 676.882,378.354 673.982,378.354 " />
<polyline points="676.157,390.677 680.507,395.027 " />
<polyline points="686.306,378.354 686.306,389.227 687.031,391.402 688.48,392.852 690.655,393.577 692.105,393.577 694.28,392.852 695.729,391.402 696.454,389.227 696.454,378.354 " />
<polyline points="705.878,378.354 700.079,393.577 " />
<polyline points="705.878,378.354 711.677,393.577 " />
<polyline points="702.253,388.503 709.502,388.503 " />
<polyline points="715.302,378.354 715.302,393.577 724,393.577 " />
<polyline points="847.215,610.678 847.215,633.005 " />
<polyline points="847.215,610.678 861.036,610.678 " />
<polyline points="847.215,621.31 855.72,621.31 " />
<polyline points="847.215,633.005 861.036,633.005 " />
<polyline points="867.415,610.678 867.415,633.005 " />
<polyline points="867.415,610.678 874.857,610.678 878.047,611.741 880.173,613.867 881.236,615.994 882.299,619.183 882.299,624.499 881.236,627.689 880.173,629.815 878.047,631.941 874.857,633.005 867.415,633.005 " />
<polyline points="903.563,610.678 892.931,633.005 " />
<polyline points="888.679,610.678 903.563,610.678 " />
<polyline points="911.005,623.436 930.143,623.436 " />
<polyline points="940.774,614.931 942.901,613.867 946.09,610.678 946.09,633.005 " />
</g>
<g clip-path="url(#clipId0)" fill="rgb(0,0,0)" stroke="rgb(0,0,0)" stroke-width="0.25" >
<path d="M153.637,425.853 157.701,422.815 146.557,412.139 146.557,412.139 z" />
</g>
<g clip-path="url(#clipId0)" fill="none" stroke="rgb(0,0,0)" stroke-width="0.25" >
<polyline points="155.669,424.334 258.838,562.413 " />
<polyline points="263.32,568.412 294.595,568.412 " />
<polyline points="306.629,560.8 306.629,576.023 " />
<polyline points="306.629,560.8 311.703,560.8 313.878,561.525 315.327,562.975 316.052,564.425 316.777,566.6 316.777,570.224 316.052,572.399 315.327,573.849 313.878,575.298 311.703,576.023 306.629,576.023 " />
<polyline points="320.402,560.8 324.026,576.023 " />
<polyline points="327.651,560.8 324.026,576.023 " />
<polyline points="327.651,560.8 331.275,576.023 " />
<polyline points="334.9,560.8 331.275,576.023 " />
<polyline points="339.249,560.8 339.249,576.023 " />
<polyline points="339.249,560.8 344.323,560.8 346.498,561.525 347.948,562.975 348.673,564.425 349.398,566.6 349.398,570.224 348.673,572.399 347.948,573.849 346.498,575.298 344.323,576.023 339.249,576.023 " />
<polyline points="354.472,560.8 354.472,576.023 " />
<polyline points="375.494,560.8 375.494,576.023 " />
<polyline points="375.494,560.8 384.917,560.8 " />
<polyline points="375.494,568.049 381.293,568.049 " />
<polyline points="392.166,560.8 386.367,576.023 " />
<polyline points="392.166,560.8 397.966,576.023 " />
<polyline points="388.542,570.949 395.791,570.949 " />
<polyline points="401.59,560.8 401.59,576.023 " />
<polyline points="401.59,560.8 411.739,576.023 " />
<polyline points="411.739,560.8 411.739,576.023 " />
<polyline points="426.961,562.975 425.512,561.525 423.337,560.8 420.437,560.8 418.263,561.525 416.813,562.975 416.813,564.425 417.538,565.875 418.263,566.6 419.712,567.325 424.062,568.774 425.512,569.499 426.236,570.224 426.961,571.674 426.961,573.849 425.512,575.298 423.337,576.023 420.437,576.023 418.263,575.298 416.813,573.849 " />
</g>
<g clip-path="url(#clipId0)" fill="rgb(0,0,0)" stroke="rgb(0,0,0)" stroke-width="0.25" >
<path d="M343.201,424.081 347.602,426.606 352.977,412.139 352.977,412.139 z" />
</g>
<g clip-path="url(#clipId0)" fill="none" stroke="rgb(0,0,0)" stroke-width="0.25" >
<polyline points="345.401,425.343 263.32,568.412 " />
<polyline points="258.838,562.413 263.32,568.412 " />
<polyline points="462.157,172.501 462.157,134.995 " />
</g>
</svg>
