<?xml version="1.0" standalone="no"?>
<svg viewBox="0 0 1024 768" version="1.1" xmlns="http://www.w3.org/2000/svg" xmlns:xlink="http://www.w3.org/1999/xlink" stroke-linecap="round" stroke-linejoin="round" fill-rule="evenodd" xml:space="preserve" >
<defs >
<clipPath id="clipId0" >
<path d="M0,768 1024,768 1024,0 0,0 z" />
</clipPath>
</defs>
<g clip-path="url(#clipId0)" fill="none" stroke="rgb(0,0,0)" stroke-width="0.1" />
<g clip-path="url(#clipId0)" fill="none" stroke="rgb(0,0,0)" stroke-width="0.25" >
<polyline points="465.465,486.521 534.39,486.521 " />
</g>
<g clip-path="url(#clipId0)" fill="rgb(0,0,0)" stroke="rgb(0,0,0)" stroke-width="0.25" >
<path d="M465.465,482.75 465.465,490.292 442.841,486.521 442.841,486.521 z" />
</g>
<g clip-path="url(#clipId0)" fill="none" stroke="rgb(0,0,0)" stroke-width="0.25" >
<polyline points="588.44,411.106 392.827,411.106 " />
<polyline points="588.44,561.937 392.827,561.937 " />
<polyline points="392.827,620.074 392.827,352.969 " />
<polyline points="238.213,620.074 238.213,352.969 " />
<polyline points="392.827,620.074 238.213,620.074 " />
<polyline points="392.827,352.969 238.213,352.969 " />
<path d="M392.827,561.937  A23.9189,23.9189 0 0,0 344.989,561.937 " stroke-dasharray="13.945875,6.972937" />
<polyline points="344.989,561.937 273.233,561.937 " stroke-dasharray="13.945875,6.972937" />
<polyline points="344.989,411.106 273.233,411.106 " stroke-dasharray="13.945875,6.972937" />
<path d="M344.989,411.106  A23.9189,23.9189 0 0,0 392.827,411.106 " stroke-dasharray="13.945875,6.972937" />
<polyline points="273.233,561.937 273.233,411.106 " stroke-dasharray="13.945875,6.972937" />
<polyline points="588.44,561.937 588.44,411.106 " />
<polyline points="423.215,486.521 199.584,486.521 " stroke-dasharray="69.729374,13.945875,13.945875,13.945875" />
<polyline points="588.44,486.521 563.514,486.521 " />
<polyline points="392.827,336.67 392.827,270.418 " />
<polyline points="588.44,394.807 588.44,270.418 " />
<polyline points="415.452,297.568 461.545,297.568 " />
<polyline points="565.816,297.568 519.723,297.568 " />
</g>
<g clip-path="url(#clipId0)" fill="rgb(0,0,0)" stroke="rgb(0,0,0)" stroke-width="0.25" >
<path d="M415.452,301.338 415.452,293.797 392.827,297.568 392.827,297.568 z" />
<path d="M565.816,301.338 565.816,293.797 588.44,297.568 588.44,297.568 z" />
</g>
<g clip-path="url(#clipId0)" fill="none" stroke="rgb(0,0,0)" stroke-width="0.25" >
<polyline points="488.479,286.255 488.479,308.88 501.407,308.88 " />
</g>
<g clip-path="url(#clipId0)" fill="rgb(0,0,0)" stroke="rgb(0,0,0)" stroke-width="0.25" >
<path d="M667.302,431.071 661.816,436.247 680.084,450.116 680.084,450.116 z" />
</g>
<g clip-path="url(#clipId0)" fill="none" stroke="rgb(0,0,0)" stroke-width="0.25" >
<polyline points="664.559,433.659 588.44,352.969 " />
<polyline points="618.139,353.969 618.139,369.052 " />
<polyline points="618.139,360.433 619.216,357.201 621.371,355.046 623.526,353.969 626.758,353.969 " />
<polyline points="692.924,533.94 617.509,403.317 " />
<polyline points="769.412,457.453 638.789,382.037 " />
<polyline points="588.44,561.937 692.924,533.94 " />
<polyline points="692.924,533.94 769.412,457.453 " />
<polyline points="588.44,411.106 617.509,403.317 " />
<polyline points="617.509,403.317 638.789,382.037 " />
<polyline points="480.603,438.205 478.448,439.282 476.293,441.437 475.216,443.592 474.138,446.824 474.138,452.21 475.216,455.443 476.293,457.597 478.448,459.752 480.603,460.829 484.912,460.829 487.067,459.752 489.221,457.597 490.299,455.443 491.376,452.21 491.376,446.824 490.299,443.592 489.221,441.437 487.067,439.282 484.912,438.205 480.603,438.205 " />
<polyline points="483.835,456.52 490.299,462.984 " />
<polyline points="301.606,78.2745 301.606,95.0095 " />
<polyline points="307.981,78.2745 307.981,95.0095 " />
<polyline points="307.981,78.2745 319.138,95.0095 " />
<polyline points="319.138,78.2745 319.138,95.0095 " />
<polyline points="336.67,82.259 335.873,80.6652 334.279,79.0714 332.686,78.2745 329.498,78.2745 327.904,79.0714 326.31,80.6652 325.513,82.259 324.716,84.6497 324.716,88.6342 325.513,91.025 326.31,92.6188 327.904,94.2126 329.498,95.0095 332.686,95.0095 334.279,94.2126 335.873,92.6188 336.67,91.025 " />
<polyline points="342.248,78.2745 342.248,95.0095 351.811,95.0095 " />
<polyline points="355.796,78.2745 355.796,90.2281 356.593,92.6188 358.187,94.2126 360.577,95.0095 362.171,95.0095 364.562,94.2126 366.156,92.6188 366.953,90.2281 366.953,78.2745 " />
<polyline points="373.328,78.2745 373.328,95.0095 " />
<polyline points="373.328,78.2745 378.906,78.2745 381.297,79.0714 382.891,80.6652 383.688,82.259 384.484,84.6497 384.484,88.6342 383.688,91.025 382.891,92.6188 381.297,94.2126 378.906,95.0095 373.328,95.0095 " />
<polyline points="390.063,78.2745 390.063,95.0095 " />
<polyline points="390.063,78.2745 400.423,78.2745 " />
<polyline points="390.063,86.2435 396.438,86.2435 " />
<polyline points="390.063,95.0095 400.423,95.0095 " />
<polyline points="405.204,78.2745 405.204,95.0095 " />
<polyline points="405.204,78.2745 410.782,78.2745 413.173,79.0714 414.767,80.6652 415.564,82.259 416.361,84.6497 416.361,88.6342 415.564,91.025 414.767,92.6188 413.173,94.2126 410.782,95.0095 405.204,95.0095 " />
<polyline points="438.674,78.2745 438.674,95.0095 " />
<polyline points="445.049,78.2745 445.049,95.0095 " />
<polyline points="445.049,78.2745 456.206,95.0095 " />
<polyline points="456.206,78.2745 456.206,95.0095 " />
<polyline points="479.316,78.2745 479.316,95.0095 488.879,95.0095 " />
<polyline points="496.848,78.2745 495.255,79.0714 493.661,80.6652 492.864,82.259 492.067,84.6497 492.067,88.6342 492.864,91.025 493.661,92.6188 495.255,94.2126 496.848,95.0095 500.036,95.0095 501.63,94.2126 503.224,92.6188 504.021,91.025 504.817,88.6342 504.817,84.6497 504.021,82.259 503.224,80.6652 501.63,79.0714 500.036,78.2745 496.848,78.2745 " />
<polyline points="520.756,80.6652 519.162,79.0714 516.771,78.2745 513.583,78.2745 511.193,79.0714 509.599,80.6652 509.599,82.259 510.396,83.8528 511.193,84.6497 512.787,85.4466 517.568,87.0404 519.162,87.8373 519.959,88.6342 520.756,90.2281 520.756,92.6188 519.162,94.2126 516.771,95.0095 513.583,95.0095 511.193,94.2126 509.599,92.6188 " />
<polyline points="536.694,80.6652 535.1,79.0714 532.709,78.2745 529.522,78.2745 527.131,79.0714 525.537,80.6652 525.537,82.259 526.334,83.8528 527.131,84.6497 528.725,85.4466 533.506,87.0404 535.1,87.8373 535.897,88.6342 536.694,90.2281 536.694,92.6188 535.1,94.2126 532.709,95.0095 529.522,95.0095 527.131,94.2126 525.537,92.6188 " />
<polyline points="304.794,47.7956 304.794,64.5307 " />
<polyline points="299.215,47.7956 310.372,47.7956 " />
<polyline points="314.357,47.7956 314.357,64.5307 " />
<polyline points="325.513,47.7956 325.513,64.5307 " />
<polyline points="314.357,55.7647 325.513,55.7647 " />
<polyline points="331.889,47.7956 331.889,64.5307 " />
<polyline points="348.624,50.1864 347.03,48.5926 344.639,47.7956 341.452,47.7956 339.061,48.5926 337.467,50.1864 337.467,51.7802 338.264,53.374 339.061,54.1709 340.655,54.9678 345.436,56.5616 347.03,57.3585 347.827,58.1554 348.624,59.7493 348.624,62.14 347.03,63.7338 344.639,64.5307 341.452,64.5307 339.061,63.7338 337.467,62.14 " />
<polyline points="370.937,47.7956 370.937,64.5307 " />
<polyline points="370.937,47.7956 376.515,47.7956 378.906,48.5926 380.5,50.1864 381.297,51.7802 382.094,54.1709 382.094,58.1554 381.297,60.5462 380.5,62.14 378.906,63.7338 376.515,64.5307 370.937,64.5307 " />
<polyline points="387.672,47.7956 387.672,59.7493 388.469,62.14 390.063,63.7338 392.454,64.5307 394.047,64.5307 396.438,63.7338 398.032,62.14 398.829,59.7493 398.829,47.7956 " />
<polyline points="416.361,51.7802 415.564,50.1864 413.97,48.5926 412.376,47.7956 409.189,47.7956 407.595,48.5926 406.001,50.1864 405.204,51.7802 404.407,54.1709 404.407,58.1554 405.204,60.5462 406.001,62.14 407.595,63.7338 409.189,64.5307 412.376,64.5307 413.97,63.7338 415.564,62.14 416.361,60.5462 " />
<polyline points="425.127,47.7956 425.127,64.5307 " />
<polyline points="419.548,47.7956 430.705,47.7956 " />
<polyline points="451.425,47.7956 451.425,64.5307 " />
<polyline points="451.425,47.7956 462.581,64.5307 " />
<polyline points="462.581,47.7956 462.581,64.5307 " />
<polyline points="472.941,47.7956 471.347,48.5926 469.754,50.1864 468.957,51.7802 468.16,54.1709 468.16,58.1554 468.957,60.5462 469.754,62.14 471.347,63.7338 472.941,64.5307 476.129,64.5307 477.723,63.7338 479.316,62.14 480.113,60.5462 480.91,58.1554 480.91,54.1709 480.113,51.7802 479.316,50.1864 477.723,48.5926 476.129,47.7956 472.941,47.7956 " />
<polyline points="489.676,47.7956 489.676,64.5307 " />
<polyline points="484.098,47.7956 495.255,47.7956 " />
<polyline points="632.442,123.925 578.064,87.437 " />
<polyline points="796.375,56.5976 796.359,57.3553 796.325,58.1112 796.273,58.8637 796.204,59.6113 796.117,60.3524 796.012,61.0854 795.891,61.8088 795.752,62.5211 795.597,63.2208 795.426,63.9063 795.238,64.5763 795.035,65.2293 794.817,65.864 794.585,66.479 794.338,67.073 794.077,67.6449 794.077,67.6449 793.571,68.6784 793.051,69.6853 792.517,70.6649 791.97,71.6164 791.41,72.5392 790.837,73.4326 790.253,74.2959 789.656,75.1285 789.049,75.9297 788.431,76.6991 787.802,77.436 787.164,78.1399 786.516,78.8103 785.859,79.4466 785.194,80.0485 785.194,80.0485 784.354,80.7639 783.508,81.449 782.656,82.1036 781.797,82.7275 780.933,83.3203 780.064,83.8819 779.189,84.4122 778.31,84.9109 777.426,85.3778 776.539,85.8128 775.647,86.2158 774.752,86.5865 773.854,86.925 773.854,86.925 772.694,87.3237 771.531,87.69 770.366,88.0238 769.199,88.3249 768.029,88.5934 766.859,88.8291 765.686,89.032 764.513,89.2021 763.339,89.3394 762.164,89.4438 760.988,89.5152 759.813,89.5538 758.637,89.5593 758.637,89.5593 757.462,89.532 756.287,89.4717 755.113,89.3786 753.94,89.2525 752.769,89.0935 751.599,88.9017 750.431,88.6772 749.264,88.4198 748.1,88.1298 746.939,87.8071 745.78,87.4519 744.624,87.0642 743.472,86.644 743.472,86.644 742.58,86.289 741.692,85.9018 740.808,85.4824 739.928,85.031 739.054,84.5478 738.184,84.033 737.319,83.4867 736.46,82.909 735.607,82.3003 734.761,81.6607 733.92,80.9905 733.087,80.2898 732.261,79.559 732.261,79.559 731.607,78.9449 730.962,78.2965 730.327,77.6143 729.701,76.8987 729.087,76.1503 728.483,75.3697 727.89,74.5573 727.309,73.7138 726.741,72.8398 726.185,71.936 725.642,71.003 725.112,70.0415 724.597,69.0523 724.095,68.0359 723.608,66.9932 723.608,66.9932 723.342,66.3774 723.092,65.7368 722.859,65.0727 722.643,64.3869 722.444,63.681 722.264,62.9567 722.102,62.2156 721.959,61.4596 721.836,60.6905 721.732,59.9102 721.649,59.1204 721.585,58.3231 721.541,57.5202 721.518,56.7137 721.516,55.9054 721.516,55.9054 721.532,55.1477 721.565,54.3918 721.617,53.6393 721.687,52.8917 721.774,52.1506 721.878,51.4176 722,50.6942 722.138,49.9819 722.293,49.2823 722.465,48.5967 722.652,47.9267 722.855,47.2737 723.073,46.639 723.306,46.024 723.552,45.43 723.813,44.8581 723.813,44.8581 724.319,43.8246 724.839,42.8177 725.373,41.8382 725.92,40.8866 726.48,39.9638 727.053,39.0704 727.638,38.2071 728.234,37.3745 728.841,36.5733 729.46,35.8039 730.088,35.067 730.727,34.3631 731.374,33.6928 732.031,33.0564 732.696,32.4546 732.696,32.4546 733.536,31.7391 734.382,31.054 735.235,30.3994 736.093,29.7756 736.957,29.1827 737.827,28.6211 738.701,28.0908 739.58,27.5922 740.464,27.1252 741.352,26.6902 742.243,26.2872 743.138,25.9165 744.036,25.578 744.036,25.578 745.197,25.1793 746.359,24.813 747.524,24.4792 748.692,24.1781 749.861,23.9097 751.032,23.6739 752.204,23.471 753.377,23.3009 754.552,23.1636 755.727,23.0593 756.902,22.9878 758.078,22.9493 759.253,22.9437 759.253,22.9437 760.428,22.971 761.603,23.0313 762.777,23.1245 763.95,23.2505 765.121,23.4095 766.291,23.6013 767.46,23.8259 768.626,24.0832 769.79,24.3732 770.952,24.6959 772.11,25.0511 773.266,25.4389 774.419,25.859 774.419,25.859 775.31,26.214 776.198,26.6012 777.082,27.0206 777.962,27.472 778.837,27.9552 779.707,28.47 780.571,29.0164 781.43,29.594 782.283,30.2027 783.13,30.8423 783.97,31.5125 784.803,32.2132 785.63,32.9441 785.63,32.9441 786.283,33.5581 786.928,34.2065 787.564,34.8887 788.189,35.6043 788.804,36.3527 789.408,37.1333 790,37.9457 790.581,38.7892 791.15,39.6632 791.706,40.567 792.248,41.5 792.778,42.4615 793.294,43.4508 793.795,44.4671 794.282,45.5098 794.282,45.5098 794.548,46.1256 794.798,46.7662 795.031,47.4303 795.248,48.1161 795.446,48.822 795.626,49.5464 795.788,50.2874 795.931,51.0434 796.054,51.8125 796.158,52.5929 796.242,53.3826 796.305,54.1799 796.349,54.9828 796.372,55.7893 796.375,56.5976 " />
<polyline points="618.615,54.9538 824.416,56.8569 " stroke-dasharray="69.729374,13.945875,13.945875,13.945875" />
<polyline points="721.516,55.9054 721.514,55.1476 721.494,54.3912 721.456,53.6378 721.4,52.8891 721.327,52.1465 721.236,51.4117 721.128,50.6861 721.003,49.9714 720.861,49.269 720.702,48.5804 720.527,47.9071 720.336,47.2504 720.13,46.6118 719.909,45.9926 719.673,45.3941 719.423,44.8175 719.423,44.8175 718.936,43.7749 718.434,42.7585 717.919,41.7692 717.389,40.8077 716.846,39.8747 716.29,38.9709 715.722,38.097 715.141,37.2535 714.548,36.4411 713.945,35.6604 713.33,34.912 712.704,34.1965 712.069,33.5142 711.424,32.8659 710.77,32.2518 710.77,32.2518 709.944,31.521 709.111,30.8203 708.27,30.15 707.424,29.5104 706.571,28.9017 705.712,28.3241 704.847,27.7778 703.978,27.2629 703.103,26.7797 702.223,26.3284 701.339,25.909 700.451,25.5217 699.559,25.1668 699.559,25.1668 698.407,24.7466 697.251,24.3589 696.092,24.0036 694.931,23.681 693.767,23.3909 692.601,23.1336 691.432,22.909 690.262,22.7172 689.091,22.5583 687.918,22.4322 686.744,22.339 685.569,22.2788 684.394,22.2514 684.394,22.2514 683.218,22.257 682.043,22.2955 680.867,22.367 679.692,22.4714 678.518,22.6086 677.345,22.7787 676.172,22.9817 675.002,23.2174 673.832,23.4859 672.665,23.787 671.5,24.1207 670.337,24.487 669.177,24.8858 669.177,24.8858 668.279,25.2242 667.384,25.595 666.492,25.998 665.605,26.433 664.721,26.8999 663.842,27.3986 662.967,27.9288 662.098,28.4905 661.234,29.0833 660.376,29.7071 659.523,30.3617 658.677,31.0469 657.837,31.7623 657.837,31.7623 657.172,32.3642 656.515,33.0005 655.868,33.6709 655.229,34.3748 654.601,35.1117 653.982,35.881 653.375,36.6823 652.779,37.5149 652.194,38.3782 651.621,39.2716 651.061,40.1944 650.514,41.1459 649.98,42.1255 649.46,43.1324 648.954,44.1659 648.954,44.1659 648.676,44.7766 648.415,45.4126 648.169,46.0722 647.94,46.7539 647.729,47.456 647.535,48.1769 647.36,48.9149 647.203,49.6681 647.065,50.4347 646.947,51.2131 646.849,52.0011 646.77,52.7971 646.712,53.599 646.674,54.405 646.656,55.2131 " />
<polyline points="721.068,104.281 721.963,7.52941 " />
<polyline points="665.236,161.027 703.713,161.027 " />
<polyline points="646.339,220.634 646.339,240.611 " />
</g>
<g clip-path="url(#clipId0)" fill="rgb(0,0,0)" stroke="rgb(0,0,0)" stroke-width="0.25" >
<path d="M665.236,157.878 665.236,164.177 646.339,161.027 646.339,161.027 z" />
<path d="M633.996,121.609 630.888,126.241 646.339,133.249 646.339,133.249 z" />
</g>
<g clip-path="url(#clipId0)" fill="none" stroke="rgb(0,0,0)" stroke-width="0.25" >
<polyline points="721.068,195.329 721.068,255.918 " />
<polyline points="721.351,332.531 721.351,299.727 " />
<polyline points="721.468,285.826 721.468,273.331 " />
<polyline points="715.052,151.579 715.052,170.476 " />
<polyline points="715.052,151.579 721.351,151.579 724.051,152.479 725.851,154.278 726.751,156.078 727.65,158.778 727.65,163.277 726.751,165.977 725.851,167.777 724.051,169.576 721.351,170.476 715.052,170.476 " />
<polyline points="736.447,170.385 734.304,171.457 732.16,173.6 731.089,176.815 731.089,178.958 732.16,182.173 734.304,184.316 736.447,185.387 739.662,185.387 741.805,184.316 743.948,182.173 745.02,178.958 745.02,176.815 743.948,173.6 741.805,171.457 739.662,170.385 736.447,170.385 " />
<polyline points="796.364,220.634 796.364,240.611 " />
<polyline points="777.466,161.027 738.989,161.027 " />
<polyline points="721.068,104.281 721.068,135.948 " />
</g>
<g clip-path="url(#clipId0)" fill="rgb(0,0,0)" stroke="rgb(0,0,0)" stroke-width="0.25" >
<path d="M777.466,157.878 777.466,164.177 796.364,161.027 796.364,161.027 z" />
</g>
<g clip-path="url(#clipId0)" fill="none" stroke="rgb(0,0,0)" stroke-width="0.25" >
<polyline points="578.064,87.437 552.85,87.437 " />
<polyline points="646.339,352.994 646.339,54.9753 " />
<polyline points="796.364,352.994 796.364,54.9753 " />
<polyline points="796.367,352.969 646.577,352.969 " />
<polyline points="769.412,457.453 796.364,352.994 " />
<polyline points="646.577,352.969 638.789,382.037 " />
<polyline points="721.351,332.531 721.351,352.969 " />
<path d="M588.44,486.521  A130.526,130.526 0 0,0 721.351,352.969 " />
<polyline points="682.299,735.926 682.299,760.471 " />
<polyline points="682.299,735.926 697.493,735.926 " />
<polyline points="682.299,747.614 691.649,747.614 " />
<polyline points="682.299,760.471 697.493,760.471 " />
<polyline points="704.506,735.926 704.506,760.471 " />
<polyline points="704.506,735.926 712.687,735.926 716.194,737.095 718.531,739.432 719.7,741.77 720.869,745.276 720.869,751.12 719.7,754.627 718.531,756.964 716.194,759.302 712.687,760.471 704.506,760.471 " />
<polyline points="744.245,735.926 732.557,760.471 " />
<polyline points="727.882,735.926 744.245,735.926 " />
<polyline points="752.426,749.951 773.465,749.951 " />
<polyline points="783.984,735.926 796.841,735.926 789.828,745.276 793.334,745.276 795.672,746.445 796.841,747.614 798.01,751.12 798.01,753.458 796.841,756.964 794.503,759.302 790.997,760.471 787.49,760.471 783.984,759.302 782.815,758.133 781.646,755.795 " />
<polyline points="316.051,111.626 315.255,110.033 313.661,108.439 312.067,107.642 308.879,107.642 307.285,108.439 305.692,110.033 304.895,111.626 304.098,114.017 304.098,118.002 304.895,120.392 305.692,121.986 307.285,123.58 308.879,124.377 312.067,124.377 313.661,123.58 315.255,121.986 316.051,120.392 " />
<polyline points="325.614,107.642 324.02,108.439 322.427,110.033 321.63,111.626 320.833,114.017 320.833,118.002 321.63,120.392 322.427,121.986 324.02,123.58 325.614,124.377 328.802,124.377 330.396,123.58 331.99,121.986 332.786,120.392 333.583,118.002 333.583,114.017 332.786,111.626 331.99,110.033 330.396,108.439 328.802,107.642 325.614,107.642 " />
<polyline points="339.162,107.642 339.162,124.377 " />
<polyline points="339.162,107.642 349.522,107.642 " />
<polyline points="339.162,115.611 345.537,115.611 " />
<polyline points="339.162,124.377 349.522,124.377 " />
<polyline points="354.303,107.642 354.303,124.377 " />
<polyline points="354.303,107.642 364.663,107.642 " />
<polyline points="354.303,115.611 360.678,115.611 " />
<polyline points="368.647,107.642 368.647,124.377 " />
<polyline points="368.647,107.642 379.007,107.642 " />
<polyline points="368.647,115.611 375.023,115.611 " />
<polyline points="382.992,107.642 382.992,124.377 " />
<polyline points="400.524,111.626 399.727,110.033 398.133,108.439 396.539,107.642 393.351,107.642 391.758,108.439 390.164,110.033 389.367,111.626 388.57,114.017 388.57,118.002 389.367,120.392 390.164,121.986 391.758,123.58 393.351,124.377 396.539,124.377 398.133,123.58 399.727,121.986 400.524,120.392 " />
<polyline points="406.102,107.642 406.102,124.377 " />
<polyline points="412.477,107.642 412.477,124.377 " />
<polyline points="412.477,107.642 422.837,107.642 " />
<polyline points="412.477,115.611 418.852,115.611 " />
<polyline points="412.477,124.377 422.837,124.377 " />
<polyline points="427.618,107.642 427.618,124.377 " />
<polyline points="427.618,107.642 438.775,124.377 " />
<polyline points="438.775,107.642 438.775,124.377 " />
<polyline points="448.338,107.642 448.338,124.377 " />
<polyline points="442.76,107.642 453.916,107.642 " />
<polyline points="458.698,122.783 457.901,123.58 458.698,124.377 459.495,123.58 458.698,122.783 " />
</g>
</svg>
