<?xml version="1.0" standalone="no"?>
<svg viewBox="0 0 1024 768" version="1.1" xmlns="http://www.w3.org/2000/svg" xmlns:xlink="http://www.w3.org/1999/xlink" stroke-linecap="round" stroke-linejoin="round" fill-rule="evenodd" xml:space="preserve" >
<defs >
<clipPath id="clipId0" >
<path d="M0,768 1024,768 1024,0 0,0 z" />
</clipPath>
</defs>
<g clip-path="url(#clipId0)" fill="none" stroke="rgb(0,0,0)" stroke-width="0.1" />
<g clip-path="url(#clipId0)" fill="none" stroke="rgb(0,0,0)" stroke-width="0.25" >
<polyline points="620.561,279.746 429.726,279.746 " />
</g>
<g clip-path="url(#clipId0)" fill="rgb(0,0,0)" stroke="rgb(0,0,0)" stroke-width="0.25" >
<path d="M620.561,276.363 620.561,283.128 640.855,279.746 640.855,279.746 z" />
</g>
<g clip-path="url(#clipId0)" fill="none" stroke="rgb(0,0,0)" stroke-width="0.25" >
<polyline points="866.223,347.393 725.276,347.393 " />
<polyline points="866.223,212.099 725.276,212.099 " />
<polyline points="350.512,327.099 350.512,310.187 " />
<polyline points="350.512,232.393 350.512,249.305 " />
</g>
<g clip-path="url(#clipId0)" fill="rgb(0,0,0)" stroke="rgb(0,0,0)" stroke-width="0.25" >
<path d="M353.895,327.099 347.13,327.099 350.512,347.393 350.512,347.393 z" />
<path d="M353.895,232.393 347.13,232.393 350.512,212.099 350.512,212.099 z" />
</g>
<g clip-path="url(#clipId0)" fill="none" stroke="rgb(0,0,0)" stroke-width="0.25" >
<polyline points="357.964,281.305 356.031,282.271 354.099,284.204 353.132,287.103 353.132,289.036 354.099,291.935 356.031,293.868 357.964,294.834 360.863,294.834 362.796,293.868 364.729,291.935 365.695,289.036 365.695,287.103 364.729,284.204 362.796,282.271 360.863,281.305 357.964,281.305 " />
<polyline points="337.461,265.293 337.461,285.587 " />
<polyline points="337.461,265.293 344.226,265.293 347.125,266.259 349.058,268.192 350.024,270.125 350.99,273.024 350.99,277.856 350.024,280.755 349.058,282.688 347.125,284.62 344.226,285.587 337.461,285.587 " />
<polyline points="277.004,354.157 277.004,205.334 " />
<polyline points="256.71,347.393 236.416,212.099 " />
<polyline points="236.416,212.099 277.004,212.099 " />
<polyline points="256.71,347.393 277.004,347.393 " />
<polyline points="165.627,438.476 165.627,458.77 " />
<polyline points="30.3333,418.181 30.3333,458.77 " />
<polyline points="165.627,438.476 30.3333,418.181 " />
<polyline points="165.627,438.476 197.012,378.778 " />
<polyline points="197.012,378.778 256.71,347.393 " />
<polyline points="30.3333,418.181 101.345,283.111 " />
<polyline points="101.345,283.111 236.416,212.099 " />
<polyline points="197.012,378.778 101.345,283.111 " />
<polyline points="973.039,320.667 1013.96,279.746 " />
<polyline points="973.039,238.824 1013.96,279.746 " />
<polyline points="973.039,320.667 973.039,303.674 " />
<polyline points="942.176,255.818 942.176,303.674 " />
<polyline points="942.176,303.674 973.039,303.674 " />
<polyline points="973.039,255.818 942.176,255.818 " />
<polyline points="973.039,255.818 973.039,238.824 " />
<polyline points="290.534,367.687 290.534,191.805 " />
<polyline points="297.298,367.687 297.298,191.805 " />
<polyline points="290.534,367.687 297.298,367.687 " />
<polyline points="290.534,191.805 297.298,191.805 " />
<polyline points="277.004,354.157 290.534,354.157 " />
<polyline points="277.004,205.334 290.534,205.334 " />
<polyline points="23.5686,458.77 23.5686,472.299 " />
<polyline points="172.392,458.77 172.392,472.299 " />
<polyline points="10.0392,472.299 10.0392,479.064 " />
<polyline points="185.921,472.299 185.921,479.064 " />
<polyline points="185.921,479.064 10.0392,479.064 " />
<polyline points="185.921,472.299 10.0392,472.299 " />
<polyline points="172.392,458.77 23.5686,458.77 " />
<polyline points="725.276,205.334 711.746,205.334 " />
<polyline points="725.276,354.157 711.746,354.157 " />
<polyline points="711.746,191.805 704.981,191.805 " />
<polyline points="711.746,367.687 704.981,367.687 " />
<polyline points="704.981,367.687 704.981,191.805 " />
<polyline points="711.746,367.687 711.746,191.805 " />
<polyline points="725.276,354.157 725.276,205.334 " />
<polyline points="297.298,383.718 297.298,453.449 " />
<polyline points="704.981,383.718 704.981,453.449 " />
<polyline points="317.592,429.096 475.047,429.096 " />
<polyline points="684.687,429.096 527.232,429.096 " />
</g>
<g clip-path="url(#clipId0)" fill="rgb(0,0,0)" stroke="rgb(0,0,0)" stroke-width="0.25" >
<path d="M317.592,432.479 317.592,425.714 297.298,429.096 297.298,429.096 z" />
<path d="M684.687,432.479 684.687,425.714 704.981,429.096 704.981,429.096 z" />
</g>
<g clip-path="url(#clipId0)" fill="none" stroke="rgb(0,0,0)" stroke-width="0.25" >
<polyline points="499.207,418.949 499.207,439.243 510.804,439.243 " />
</g>
<g clip-path="url(#clipId0)" fill="rgb(0,0,0)" stroke="rgb(0,0,0)" stroke-width="0.25" >
<path d="M729.021,194.934 735.201,192.183 740.363,212.099 740.363,212.099 z" />
</g>
<g clip-path="url(#clipId0)" fill="none" stroke="rgb(0,0,0)" stroke-width="0.25" >
<polyline points="732.111,193.558 702.82,127.75 " />
<polyline points="702.82,127.75 682.526,127.75 " />
<polyline points="442.148,117.603 449.88,137.897 " />
<polyline points="457.611,117.603 449.88,137.897 " />
<polyline points="467.274,117.603 459.543,137.897 " />
<polyline points="467.274,117.603 475.006,137.897 " />
<polyline points="462.443,131.132 472.106,131.132 " />
<polyline points="479.837,117.603 479.837,137.897 " />
<polyline points="479.837,117.603 493.367,137.897 " />
<polyline points="493.367,117.603 493.367,137.897 " />
<polyline points="501.098,117.603 501.098,137.897 " />
<polyline points="501.098,117.603 513.661,117.603 " />
<polyline points="501.098,127.266 508.829,127.266 " />
<polyline points="501.098,137.897 513.661,137.897 " />
<polyline points="524.291,117.603 516.56,137.897 " />
<polyline points="524.291,117.603 532.022,137.897 " />
<polyline points="519.459,131.132 529.123,131.132 " />
<polyline points="535.888,117.603 549.417,137.897 " />
<polyline points="549.417,117.603 535.888,137.897 " />
<polyline points="556.182,117.603 556.182,137.897 " />
<polyline points="568.745,117.603 561.014,137.897 " />
<polyline points="568.745,117.603 576.476,137.897 " />
<polyline points="563.913,131.132 573.577,131.132 " />
<polyline points="581.308,117.603 581.308,137.897 592.904,137.897 " />
<polyline points="618.03,117.603 618.03,137.897 " />
<polyline points="618.03,117.603 630.593,117.603 " />
<polyline points="618.03,127.266 625.762,127.266 " />
<polyline points="640.257,117.603 632.526,137.897 " />
<polyline points="640.257,117.603 647.988,137.897 " />
<polyline points="635.425,131.132 645.089,131.132 " />
<polyline points="652.82,117.603 652.82,137.897 " />
<polyline points="652.82,117.603 666.35,137.897 " />
<polyline points="666.35,117.603 666.35,137.897 " />
<polyline points="747.153,333.589 747.153,225.903 " stroke-dasharray="0.000077,7.687149" />
<path d="M735.287,221.46  A40.7852,40.7852 0 0,0 725.276,247.073 " stroke-dasharray="0.000077,7.687149" />
<path d="M747.153,225.903  A6.76469,6.76469 0 0,0 735.287,221.46 " stroke-dasharray="0.000077,7.687149" />
<path d="M735.287,338.031  A6.76469,6.76469 0 0,0 747.153,333.589 " stroke-dasharray="0.000077,7.687149" />
<path d="M725.276,312.418  A40.7852,40.7852 0 0,0 735.287,338.031 " stroke-dasharray="0.000077,7.687149" />
<polyline points="764.45,298.137 848.622,298.137 " stroke-dasharray="0.000077,7.687149" />
<polyline points="764.45,261.354 848.622,261.354 " stroke-dasharray="0.000077,7.687149" />
<polyline points="764.45,312.218 764.45,247.273 " stroke-dasharray="0.000077,7.687149" />
<polyline points="747.153,312.218 764.45,312.218 " stroke-dasharray="0.000077,7.687149" />
<polyline points="747.153,247.273 764.45,247.273 " stroke-dasharray="0.000077,7.687149" />
<polyline points="849.975,296.784 849.975,262.707 " stroke-dasharray="0.000077,7.687149" />
<path d="M848.622,298.137  A1.35294,1.35294 0 0,0 849.975,296.784 " stroke-dasharray="0.000077,7.687149" />
<path d="M849.975,262.707  A1.35294,1.35294 0 0,0 848.622,261.354 " stroke-dasharray="0.000077,7.687149" />
<polyline points="764.45,247.273 795.201,247.273 795.201,216.523 764.45,216.523 764.45,247.273 " />
<polyline points="764.45,312.218 795.201,312.218 795.201,342.969 764.45,342.969 764.45,312.218 " />
<polyline points="747.153,240.64 728.238,232.944 " stroke-dasharray="0.000077,7.687149" />
<polyline points="747.153,318.851 728.238,326.547 " stroke-dasharray="0.000077,7.687149" />
<polyline points="866.223,354.157 866.223,205.334 " />
<polyline points="879.752,367.687 879.752,191.805 " />
<polyline points="886.517,367.687 886.517,191.805 " />
<polyline points="879.752,367.687 886.517,367.687 " />
<polyline points="879.752,191.805 886.517,191.805 " />
<polyline points="866.223,354.157 879.752,354.157 " />
<polyline points="866.223,205.334 879.752,205.334 " />
<polyline points="505.033,243.983 503.1,244.949 501.167,246.882 500.201,248.815 499.235,251.714 499.235,256.546 500.201,259.445 501.167,261.378 503.1,263.311 505.033,264.277 508.898,264.277 510.831,263.311 512.764,261.378 513.73,259.445 514.697,256.546 514.697,251.714 513.73,248.815 512.764,246.882 510.831,244.949 508.898,243.983 505.033,243.983 " />
<polyline points="507.932,260.411 513.73,266.21 " />
<polyline points="704.981,347.113 297.298,347.113 " />
<polyline points="704.981,212.149 297.298,212.149 " />
<polyline points="758.164,623.339 758.164,650.397 " />
<polyline points="758.164,623.339 774.915,623.339 " />
<polyline points="758.164,636.224 768.472,636.224 " />
<polyline points="758.164,650.397 774.915,650.397 " />
<polyline points="782.646,623.339 782.646,650.397 " />
<polyline points="782.646,623.339 791.666,623.339 795.531,624.627 798.108,627.204 799.397,629.781 800.685,633.647 800.685,640.089 799.397,643.955 798.108,646.532 795.531,649.109 791.666,650.397 782.646,650.397 " />
<polyline points="826.456,623.339 813.57,650.397 " />
<polyline points="808.416,623.339 826.456,623.339 " />
<polyline points="835.475,638.801 858.668,638.801 " />
<polyline points="874.13,623.339 870.265,624.627 868.976,627.204 868.976,629.781 870.265,632.358 872.842,633.647 877.996,634.935 881.862,636.224 884.439,638.801 885.727,641.378 885.727,645.243 884.439,647.82 883.15,649.109 879.285,650.397 874.13,650.397 870.265,649.109 868.976,647.82 867.688,645.243 867.688,641.378 868.976,638.801 871.553,636.224 875.419,634.935 880.573,633.647 883.15,632.358 884.439,629.781 884.439,627.204 883.15,624.627 879.285,623.339 874.13,623.339 " />
</g>
</svg>
