<?xml version="1.0" standalone="no"?>
<svg viewBox="0 0 1024 768" version="1.1" xmlns="http://www.w3.org/2000/svg" xmlns:xlink="http://www.w3.org/1999/xlink" stroke-linecap="round" stroke-linejoin="round" fill-rule="evenodd" xml:space="preserve" >
<defs >
<clipPath id="clipId0" >
<path d="M0,768 1024,768 1024,0 0,0 z" />
</clipPath>
</defs>
<g clip-path="url(#clipId0)" fill="none" stroke="rgb(0,0,0)" stroke-width="0.1" />
<g clip-path="url(#clipId0)" fill="none" stroke="rgb(0,0,0)" stroke-width="0.35" >
<polyline points="593.628,257.893 702.916,257.893 " stroke-dasharray="58.315278,11.663056,11.663056,11.663056" />
<polyline points="593.628,158.757 703.901,158.757 " stroke-dasharray="58.315278,11.663056,11.663056,11.663056" />
<path d="M607.638,257.893  A40.8207,40.8207 0 1,0 689.279,257.893 " />
<path d="M689.279,158.757  A40.8207,40.8207 0 0,0 607.638,158.757 " />
<polyline points="648.458,208.325 648.458,309.634 " stroke-dasharray="58.315278,11.663056,11.663056,11.663056" />
<polyline points="549.322,170.42 549.322,246.23 " />
<polyline points="648.458,208.325 648.458,108.858 " stroke-dasharray="58.315278,11.663056,11.663056,11.663056" />
<polyline points="607.638,257.893 607.638,158.757 " />
<polyline points="623.415,37.4265 623.415,45.2019 " />
<polyline points="623.415,39.0926 622.304,37.9819 621.194,37.4265 619.527,37.4265 618.417,37.9819 617.306,39.0926 616.751,40.7588 616.751,41.8696 617.306,43.5357 618.417,44.6465 619.527,45.2019 621.194,45.2019 622.304,44.6465 623.415,43.5357 " />
<polyline points="645.619,64.6743 645.619,76.3374 " />
<polyline points="645.619,70.2282 646.729,69.1174 647.84,68.562 649.506,68.562 650.617,69.1174 651.728,70.2282 652.283,71.8943 652.283,73.0051 651.728,74.6712 650.617,75.782 649.506,76.3374 647.84,76.3374 646.729,75.782 645.619,74.6712 " />
<polyline points="689.279,158.757 689.279,257.893 " />
<polyline points="689.279,170.42 689.279,246.23 " />
<polyline points="717.48,200.976 717.48,212.639 " />
<polyline points="717.48,200.976 722.478,200.976 724.144,201.531 724.7,202.087 725.255,203.198 725.255,204.308 724.7,205.419 724.144,205.975 722.478,206.53 " />
<polyline points="717.48,206.53 722.478,206.53 724.144,207.085 724.7,207.641 725.255,208.751 725.255,210.418 724.7,211.528 724.144,212.084 722.478,212.639 717.48,212.639 " />
<polyline points="761.838,203.207 757.395,214.87 " />
<polyline points="761.838,203.207 766.281,214.87 " />
<polyline points="759.061,210.982 764.615,210.982 " />
<polyline points="28.318,158.109 138.591,158.109 " stroke-dasharray="58.315278,11.663056,11.663056,11.663056" />
<path d="M43.5898,257.245  A40.8207,40.8207 0 1,0 125.231,257.245 " />
<path d="M125.231,158.109  A40.8207,40.8207 0 0,0 43.5898,158.109 " />
<polyline points="300.861,203.491 347.271,203.491 " stroke-dasharray="58.315278,11.663056,11.663056,11.663056" />
<polyline points="358.258,203.491 369.895,203.491 " stroke-dasharray="58.315278,11.663056,11.663056,11.663056" />
<polyline points="380.939,203.491 431.809,203.491 " stroke-dasharray="58.315278,11.663056,11.663056,11.663056" />
<polyline points="401.184,100.442 401.184,316.209 " />
<polyline points="402.874,100.769 402.874,316.209 " />
<polyline points="412.118,100.442 412.118,316.209 " />
<polyline points="402.874,316.209 412.118,316.209 " />
<polyline points="331.205,117.937 331.205,298.714 " />
<polyline points="329.747,117.937 329.747,298.714 " />
<polyline points="84.4105,207.677 84.4105,308.986 " stroke-dasharray="58.315278,11.663056,11.663056,11.663056" />
<polyline points="318.928,117.937 318.928,298.714 " />
<polyline points="329.747,298.714 318.813,298.714 " />
<path d="M329.747,298.714  A0.759314,0.759314 0 0,0 331.205,298.714 " />
<polyline points="14.4321,169.772 14.4321,245.582 " />
<polyline points="329.747,117.937 318.813,117.937 " />
<path d="M331.205,117.937  A0.759314,0.759314 0 0,0 329.747,117.937 " />
<polyline points="84.4105,207.677 84.4105,108.21 " stroke-dasharray="58.315278,11.663056,11.663056,11.663056" />
<polyline points="43.5898,257.245 43.5898,158.109 " />
<polyline points="88.0973,35.8163 88.0973,45.9243 " />
<polyline points="88.0973,37.9823 86.6533,36.5383 85.2093,35.8163 83.0433,35.8163 81.5993,36.5383 80.1553,37.9823 79.4333,40.1483 79.4333,41.5923 80.1553,43.7583 81.5993,45.2023 83.0433,45.9243 85.2093,45.9243 86.6533,45.2023 88.0973,43.7583 " />
<polyline points="80.3101,62.9377 80.3101,78.0997 " />
<polyline points="80.3101,70.1577 81.7541,68.7137 83.1981,67.9917 85.3641,67.9917 86.8081,68.7137 88.2521,70.1577 88.9741,72.3237 88.9741,73.7677 88.2521,75.9337 86.8081,77.3777 85.3641,78.0997 83.1981,78.0997 81.7541,77.3777 80.3101,75.9337 " />
<polyline points="179.505,198.302 179.505,209.965 " />
<polyline points="179.505,198.302 184.503,198.302 186.169,198.857 186.725,199.413 187.28,200.523 187.28,201.634 186.725,202.745 186.169,203.3 184.503,203.856 " />
<polyline points="179.505,203.856 184.503,203.856 186.169,204.411 186.725,204.966 187.28,206.077 187.28,207.743 186.725,208.854 186.169,209.409 184.503,209.965 179.505,209.965 " />
<polyline points="317.747,329.723 316.081,330.278 314.97,331.944 314.415,334.721 314.415,336.387 314.97,339.164 316.081,340.83 317.747,341.386 318.858,341.386 320.524,340.83 321.635,339.164 322.19,336.387 322.19,334.721 321.635,331.944 320.524,330.278 318.858,329.723 317.747,329.723 " />
<polyline points="408.682,346.421 409.793,345.865 411.459,344.199 411.459,355.862 " />
<polyline points="84.4105,245.582 84.4105,326.753 " />
<polyline points="125.231,257.245 125.231,158.109 " />
<polyline points="154.389,245.582 154.389,169.772 " />
<polyline points="28.5439,256.925 138.816,256.925 " stroke-dasharray="58.315278,11.663056,11.663056,11.663056" />
<polyline points="84.4105,117.289 183.445,117.289 " />
<polyline points="84.4105,298.066 183.445,298.066 " />
<polyline points="183.445,118.863 183.632,118.676 " />
<polyline points="183.445,120.925 183.877,120.493 " />
<polyline points="183.445,122.987 184.122,122.31 " />
<polyline points="183.445,125.049 184.367,124.127 " />
<polyline points="183.445,127.11 184.611,125.944 " />
<polyline points="183.445,129.172 184.856,127.761 " />
<polyline points="183.445,131.234 185.101,129.578 " />
<polyline points="183.445,133.296 185.345,131.395 " />
<polyline points="183.445,135.357 185.59,133.213 " />
<polyline points="184.949,135.915 185.835,135.03 " />
<polyline points="183.2,119.108 183.445,118.863 " />
<polyline points="182.879,121.491 183.445,120.925 " />
<polyline points="182.558,123.874 183.445,122.987 " />
<polyline points="182.237,126.256 183.445,125.049 " />
<polyline points="181.917,128.639 183.445,127.11 " />
<polyline points="181.596,131.022 183.445,129.172 " />
<polyline points="181.275,133.404 183.445,131.234 " />
<polyline points="180.954,135.787 183.445,133.296 " />
<polyline points="182.887,135.915 183.445,135.357 " />
<polyline points="183.445,117.289 183.445,191.029 " />
<polyline points="183.445,217.778 183.445,298.066 " />
<polyline points="84.4105,108.21 84.4105,91.0112 " />
<polyline points="84.4105,99.7939 220.595,99.7939 " />
<polyline points="220.595,99.7939 220.595,191.029 " />
<polyline points="220.595,217.778 220.595,313.143 " />
<polyline points="84.4105,315.56 220.595,315.56 " />
<polyline points="219.856,199.366 214.968,212.195 " />
<polyline points="219.856,199.366 224.743,212.195 " />
<polyline points="216.801,207.919 222.91,207.919 " />
<polyline points="183.445,117.289 180.937,135.915 " />
<polyline points="183.445,117.289 185.954,135.915 " />
<polyline points="180.937,135.915 185.954,135.915 " />
<polyline points="220.595,101.369 220.782,101.182 " />
<polyline points="220.595,103.43 221.027,102.999 " />
<polyline points="220.595,105.492 221.271,104.816 " />
<polyline points="220.595,107.554 221.516,106.633 " />
<polyline points="220.595,109.616 221.761,108.45 " />
<polyline points="220.595,111.677 222.006,110.267 " />
<polyline points="220.595,113.739 222.25,112.084 " />
<polyline points="220.595,115.801 222.495,113.901 " />
<polyline points="220.595,117.863 222.74,115.718 " />
<polyline points="222.099,118.421 222.985,117.535 " />
<polyline points="220.35,101.614 220.595,101.369 " />
<polyline points="220.029,103.996 220.595,103.43 " />
<polyline points="219.708,106.379 220.595,105.492 " />
<polyline points="219.387,108.762 220.595,107.554 " />
<polyline points="219.066,111.145 220.595,109.616 " />
<polyline points="218.745,113.527 220.595,111.677 " />
<polyline points="218.424,115.91 220.595,113.739 " />
<polyline points="218.103,118.293 220.595,115.801 " />
<polyline points="220.037,118.421 220.595,117.863 " />
<polyline points="220.595,99.7939 218.086,118.421 " />
<polyline points="220.595,99.7939 223.104,118.421 " />
<polyline points="218.086,118.421 223.104,118.421 " />
<polyline points="220.595,313.986 220.408,314.173 " />
<polyline points="220.595,311.924 220.163,312.356 " />
<polyline points="220.595,309.862 219.919,310.539 " />
<polyline points="220.595,307.8 219.674,308.722 " />
<polyline points="220.595,305.739 219.429,306.905 " />
<polyline points="220.595,303.677 219.184,305.088 " />
<polyline points="220.595,301.615 218.94,303.27 " />
<polyline points="220.595,299.553 218.695,301.453 " />
<polyline points="220.595,297.492 218.45,299.636 " />
<polyline points="219.091,296.933 218.206,297.819 " />
<polyline points="220.84,313.741 220.595,313.986 " />
<polyline points="221.161,311.358 220.595,311.924 " />
<polyline points="221.482,308.975 220.595,309.862 " />
<polyline points="221.803,306.593 220.595,307.8 " />
<polyline points="222.124,304.21 220.595,305.739 " />
<polyline points="222.445,301.827 220.595,303.677 " />
<polyline points="222.766,299.444 220.595,301.615 " />
<polyline points="223.087,297.062 220.595,299.553 " />
<polyline points="221.153,296.933 220.595,297.492 " />
<polyline points="220.595,315.56 223.104,296.933 " />
<polyline points="220.595,315.56 218.086,296.933 " />
<polyline points="183.445,296.491 183.258,296.678 " />
<polyline points="183.445,294.429 183.014,294.861 " />
<polyline points="183.445,292.368 182.769,293.044 " />
<polyline points="183.445,290.306 182.524,291.227 " />
<polyline points="183.445,288.244 182.28,289.41 " />
<polyline points="183.445,286.182 182.035,287.593 " />
<polyline points="183.445,284.121 181.79,285.776 " />
<polyline points="183.445,282.059 181.545,283.959 " />
<polyline points="183.445,279.997 181.301,282.142 " />
<polyline points="181.942,279.439 181.056,280.325 " />
<polyline points="183.691,296.246 183.445,296.491 " />
<polyline points="184.011,293.863 183.445,294.429 " />
<polyline points="184.332,291.481 183.445,292.368 " />
<polyline points="184.653,289.098 183.445,290.306 " />
<polyline points="184.974,286.715 183.445,288.244 " />
<polyline points="185.295,284.333 183.445,286.182 " />
<polyline points="185.616,281.95 183.445,284.121 " />
<polyline points="185.937,279.567 183.445,282.059 " />
<polyline points="184.004,279.439 183.445,279.997 " />
<polyline points="183.445,298.066 185.954,279.439 " />
<polyline points="183.445,298.066 180.937,279.439 " />
<polyline points="14.4321,40.5872 75.7351,40.5872 " />
<polyline points="93.5601,40.5872 154.389,40.5872 " />
<polyline points="43.5898,158.109 43.5898,71.0718 " />
<polyline points="43.5898,71.0718 75.7351,71.0718 " />
<polyline points="93.5601,71.0718 125.231,71.0718 " />
<polyline points="125.231,158.109 125.231,71.0718 " />
<path d="M402.874,100.769  A0.843324,0.843324 0 1,0 401.187,100.769 " />
<polyline points="331.205,113.102 331.205,41.5624 " />
<polyline points="349.832,43.066 348.946,43.9519 " />
<polyline points="349.274,41.5624 347.129,43.7072 " />
<polyline points="347.212,41.5624 345.312,43.4625 " />
<polyline points="345.151,41.5624 343.495,43.2177 " />
<polyline points="343.089,41.5624 341.678,42.973 " />
<polyline points="341.027,41.5624 339.861,42.7283 " />
<polyline points="338.965,41.5624 338.044,42.4835 " />
<polyline points="336.903,41.5624 336.227,42.2388 " />
<polyline points="334.842,41.5624 334.41,41.994 " />
<polyline points="332.78,41.5624 332.593,41.7493 " />
<polyline points="349.832,41.0042 349.274,41.5624 " />
<polyline points="349.704,39.0708 347.212,41.5624 " />
<polyline points="347.321,39.3917 345.151,41.5624 " />
<polyline points="344.938,39.7126 343.089,41.5624 " />
<polyline points="342.556,40.0336 341.027,41.5624 " />
<polyline points="340.173,40.3545 338.965,41.5624 " />
<polyline points="337.79,40.6754 336.903,41.5624 " />
<polyline points="335.408,40.9963 334.842,41.5624 " />
<polyline points="333.025,41.3173 332.78,41.5624 " />
<polyline points="331.205,41.5624 349.832,39.0535 " />
<polyline points="331.205,41.5624 349.832,44.0713 " />
<polyline points="349.832,39.0535 349.832,44.0713 " />
<polyline points="382.557,40.0588 383.443,39.1728 " />
<polyline points="383.115,41.5624 385.26,39.4176 " />
<polyline points="385.176,41.5624 387.077,39.6623 " />
<polyline points="387.238,41.5624 388.894,39.907 " />
<polyline points="389.3,41.5624 390.711,40.1518 " />
<polyline points="391.362,41.5624 392.528,40.3965 " />
<polyline points="393.424,41.5624 394.345,40.6413 " />
<polyline points="395.485,41.5624 396.162,40.886 " />
<polyline points="397.547,41.5624 397.979,41.1307 " />
<polyline points="399.609,41.5624 399.796,41.3755 " />
<polyline points="382.557,42.1206 383.115,41.5624 " />
<polyline points="382.685,44.054 385.176,41.5624 " />
<polyline points="385.068,43.733 387.238,41.5624 " />
<polyline points="387.45,43.4121 389.3,41.5624 " />
<polyline points="389.833,43.0912 391.362,41.5624 " />
<polyline points="392.216,42.7703 393.424,41.5624 " />
<polyline points="394.598,42.4494 395.485,41.5624 " />
<polyline points="396.981,42.1284 397.547,41.5624 " />
<polyline points="399.364,41.8075 399.609,41.5624 " />
<polyline points="401.184,41.5624 382.557,44.0713 " />
<polyline points="401.184,41.5624 382.557,39.0535 " />
<polyline points="382.557,44.0713 382.557,39.0535 " />
<polyline points="16.0069,40.5872 15.82,40.4003 " />
<polyline points="18.0686,40.5872 17.637,40.1556 " />
<polyline points="20.1304,40.5872 19.454,39.9108 " />
<polyline points="22.1922,40.5872 21.271,39.6661 " />
<polyline points="24.2539,40.5872 23.088,39.4213 " />
<polyline points="26.3157,40.5872 24.9051,39.1766 " />
<polyline points="28.3774,40.5872 26.7221,38.9319 " />
<polyline points="30.4392,40.5872 28.5391,38.6871 " />
<polyline points="32.5009,40.5872 30.3561,38.4424 " />
<polyline points="33.0591,39.0836 32.1732,38.1977 " />
<polyline points="16.252,40.8323 16.0069,40.5872 " />
<polyline points="18.6347,41.1533 18.0686,40.5872 " />
<polyline points="21.0174,41.4742 20.1304,40.5872 " />
<polyline points="23.4,41.7951 22.1922,40.5872 " />
<polyline points="25.7827,42.116 24.2539,40.5872 " />
<polyline points="28.1654,42.437 26.3157,40.5872 " />
<polyline points="30.5481,42.7579 28.3774,40.5872 " />
<polyline points="32.9308,43.0788 30.4392,40.5872 " />
<polyline points="33.0591,41.1454 32.5009,40.5872 " />
<polyline points="14.4321,40.5872 33.0591,43.0961 " />
<polyline points="33.0591,43.0961 33.0591,38.0783 " />
<polyline points="45.1645,71.0718 44.9776,70.8849 " />
<polyline points="47.2263,71.0718 46.7946,70.6402 " />
<polyline points="49.288,71.0718 48.6116,70.3954 " />
<polyline points="51.3498,71.0718 50.4287,70.1507 " />
<polyline points="53.4116,71.0718 52.2457,69.906 " />
<polyline points="55.4733,71.0718 54.0627,69.6612 " />
<polyline points="57.5351,71.0718 55.8797,69.4165 " />
<polyline points="59.5968,71.0718 57.6968,69.1717 " />
<polyline points="61.6586,71.0718 59.5138,68.927 " />
<polyline points="62.2168,69.5682 61.3308,68.6823 " />
<polyline points="45.4096,71.3169 45.1645,71.0718 " />
<polyline points="47.7923,71.6379 47.2263,71.0718 " />
<polyline points="50.175,71.9588 49.288,71.0718 " />
<polyline points="52.5577,72.2797 51.3498,71.0718 " />
<polyline points="54.9404,72.6006 53.4116,71.0718 " />
<polyline points="57.323,72.9216 55.4733,71.0718 " />
<polyline points="59.7057,73.2425 57.5351,71.0718 " />
<polyline points="62.0884,73.5634 59.5968,71.0718 " />
<polyline points="62.2168,71.63 61.6586,71.0718 " />
<polyline points="43.5898,71.0718 62.2168,73.5807 " />
<polyline points="43.5898,71.0718 62.2168,68.5629 " />
<polyline points="62.2168,73.5807 62.2168,68.5629 " />
<polyline points="152.814,40.5872 153.001,40.7741 " />
<polyline points="150.752,40.5872 151.184,41.0189 " />
<polyline points="148.691,40.5872 149.367,41.2636 " />
<polyline points="146.629,40.5872 147.55,41.5083 " />
<polyline points="144.567,40.5872 145.733,41.7531 " />
<polyline points="142.505,40.5872 143.916,41.9978 " />
<polyline points="140.443,40.5872 142.099,42.2426 " />
<polyline points="138.382,40.5872 140.282,42.4873 " />
<polyline points="136.32,40.5872 138.465,42.732 " />
<polyline points="135.762,42.0908 136.648,42.9768 " />
<polyline points="152.569,40.3421 152.814,40.5872 " />
<polyline points="150.186,40.0212 150.752,40.5872 " />
<polyline points="147.804,39.7002 148.691,40.5872 " />
<polyline points="145.421,39.3793 146.629,40.5872 " />
<polyline points="143.038,39.0584 144.567,40.5872 " />
<polyline points="140.656,38.7375 142.505,40.5872 " />
<polyline points="138.273,38.4166 140.443,40.5872 " />
<polyline points="135.89,38.0956 138.382,40.5872 " />
<polyline points="135.762,40.029 136.32,40.5872 " />
<polyline points="154.389,40.5872 135.762,38.0783 " />
<polyline points="154.389,40.5872 135.762,43.0961 " />
<polyline points="135.762,38.0783 135.762,43.0961 " />
<polyline points="123.656,71.0718 123.843,71.2587 " />
<polyline points="121.595,71.0718 122.026,71.5035 " />
<polyline points="119.533,71.0718 120.209,71.7482 " />
<polyline points="117.471,71.0718 118.392,71.9929 " />
<polyline points="115.409,71.0718 116.575,72.2377 " />
<polyline points="113.348,71.0718 114.758,72.4824 " />
<polyline points="111.286,71.0718 112.941,72.7272 " />
<polyline points="109.224,71.0718 111.124,72.9719 " />
<polyline points="107.162,71.0718 109.307,73.2166 " />
<polyline points="106.604,72.5754 107.49,73.4614 " />
<polyline points="123.411,70.8267 123.656,71.0718 " />
<polyline points="121.029,70.5058 121.595,71.0718 " />
<polyline points="118.646,70.1849 119.533,71.0718 " />
<polyline points="116.263,69.8639 117.471,71.0718 " />
<polyline points="113.881,69.543 115.409,71.0718 " />
<polyline points="111.498,69.2221 113.348,71.0718 " />
<polyline points="109.115,68.9012 111.286,71.0718 " />
<polyline points="106.733,68.5802 109.224,71.0718 " />
<polyline points="106.604,70.5136 107.162,71.0718 " />
<polyline points="125.231,71.0718 106.604,68.5629 " />
<polyline points="125.231,71.0718 106.604,73.5807 " />
<polyline points="106.604,68.5629 106.604,73.5807 " />
<polyline points="448.684,311.374 448.684,244.394 " />
<polyline points="448.684,167.864 448.684,100.769 " />
<polyline points="318.813,117.937 284.855,117.937 " />
<polyline points="318.813,298.714 284.855,298.714 " />
<polyline points="284.855,117.937 284.855,174.359 " />
<polyline points="284.855,244.118 284.855,298.714 " />
<polyline points="412.118,316.209 448.684,316.209 " />
<polyline points="447.181,119.396 446.295,118.51 " />
<polyline points="448.684,118.838 446.539,116.693 " />
<polyline points="448.684,116.776 446.784,114.876 " />
<polyline points="448.684,114.714 447.029,113.059 " />
<polyline points="448.684,112.653 447.274,111.242 " />
<polyline points="448.684,110.591 447.518,109.425 " />
<polyline points="448.684,108.529 447.763,107.608 " />
<polyline points="448.684,106.467 448.008,105.791 " />
<polyline points="448.684,104.406 448.253,103.974 " />
<polyline points="448.684,102.344 448.497,102.157 " />
<polyline points="449.242,119.396 448.684,118.838 " />
<polyline points="451.176,119.268 448.684,116.776 " />
<polyline points="450.855,116.885 448.684,114.714 " />
<polyline points="450.534,114.502 448.684,112.653 " />
<polyline points="450.213,112.12 448.684,110.591 " />
<polyline points="449.892,109.737 448.684,108.529 " />
<polyline points="449.571,107.354 448.684,106.467 " />
<polyline points="449.25,104.972 448.684,104.406 " />
<polyline points="448.929,102.589 448.684,102.344 " />
<polyline points="448.684,100.769 451.193,119.396 " />
<polyline points="448.684,100.769 446.175,119.396 " />
<polyline points="450.188,297.582 451.074,298.468 " />
<polyline points="448.684,298.14 450.829,300.285 " />
<polyline points="448.684,300.202 450.584,302.102 " />
<polyline points="448.684,302.263 450.34,303.919 " />
<polyline points="448.684,304.325 450.095,305.736 " />
<polyline points="448.684,306.387 449.85,307.553 " />
<polyline points="448.684,308.449 449.605,309.37 " />
<polyline points="448.684,310.51 449.361,311.187 " />
<polyline points="448.684,312.572 449.116,313.004 " />
<polyline points="448.684,314.634 448.871,314.821 " />
<polyline points="448.126,297.582 448.684,298.14 " />
<polyline points="446.193,297.71 448.684,300.202 " />
<polyline points="446.514,300.093 448.684,302.263 " />
<polyline points="446.835,302.475 448.684,304.325 " />
<polyline points="447.155,304.858 448.684,306.387 " />
<polyline points="447.476,307.241 448.684,308.449 " />
<polyline points="447.797,309.623 448.684,310.51 " />
<polyline points="448.118,312.006 448.684,312.572 " />
<polyline points="448.439,314.389 448.684,314.634 " />
<polyline points="448.684,316.209 446.175,297.582 " />
<polyline points="448.684,316.209 451.193,297.582 " />
<polyline points="283.351,136.564 282.465,135.678 " />
<polyline points="284.855,136.006 282.71,133.861 " />
<polyline points="284.855,133.944 282.955,132.044 " />
<polyline points="284.855,131.882 283.2,130.227 " />
<polyline points="284.855,129.82 283.444,128.41 " />
<polyline points="284.855,127.759 283.689,126.593 " />
<polyline points="284.855,125.697 283.934,124.776 " />
<polyline points="284.855,123.635 284.179,122.959 " />
<polyline points="284.855,121.573 284.423,121.142 " />
<polyline points="284.855,119.511 284.668,119.325 " />
<polyline points="285.413,136.564 284.855,136.006 " />
<polyline points="287.347,136.435 284.855,133.944 " />
<polyline points="287.026,134.053 284.855,131.882 " />
<polyline points="286.705,131.67 284.855,129.82 " />
<polyline points="286.384,129.287 284.855,127.759 " />
<polyline points="286.063,126.905 284.855,125.697 " />
<polyline points="285.742,124.522 284.855,123.635 " />
<polyline points="285.421,122.139 284.855,121.573 " />
<polyline points="285.1,119.757 284.855,119.511 " />
<polyline points="284.855,117.937 287.364,136.564 " />
<polyline points="284.855,117.937 282.346,136.564 " />
<polyline points="286.359,280.087 287.245,280.973 " />
<polyline points="284.855,280.645 287,282.79 " />
<polyline points="284.855,282.707 286.755,284.607 " />
<polyline points="284.855,284.769 286.51,286.424 " />
<polyline points="284.855,286.831 286.266,288.241 " />
<polyline points="284.855,288.892 286.021,290.058 " />
<polyline points="284.855,290.954 285.776,291.875 " />
<polyline points="284.855,293.016 285.531,293.692 " />
<polyline points="284.855,295.078 285.287,295.509 " />
<polyline points="284.855,297.139 285.042,297.326 " />
<polyline points="284.297,280.087 284.855,280.645 " />
<polyline points="282.363,280.215 284.855,282.707 " />
<polyline points="282.684,282.598 284.855,284.769 " />
<polyline points="283.005,284.981 284.855,286.831 " />
<polyline points="283.326,287.363 284.855,288.892 " />
<polyline points="283.647,289.746 284.855,290.954 " />
<polyline points="283.968,292.129 284.855,293.016 " />
<polyline points="284.289,294.512 284.855,295.078 " />
<polyline points="284.61,296.894 284.855,297.139 " />
<polyline points="284.855,298.714 282.346,280.087 " />
<polyline points="284.855,298.714 287.364,280.087 " />
<polyline points="451.193,119.396 446.175,119.396 " />
<polyline points="446.175,297.582 451.193,297.582 " />
<polyline points="282.346,280.087 287.364,280.087 " />
<polyline points="287.364,136.564 282.346,136.564 " />
<path d="M401.206,316.209  A0.828828,0.828828 0 1,0 402.864,316.209 " />
<polyline points="412.118,319.336 412.118,334.065 " />
<polyline points="318.643,7.52941 317.93,7.52941 " />
<polyline points="180.937,279.439 185.954,279.439 " />
<polyline points="218.086,296.933 223.104,296.933 " />
<polyline points="220.595,99.7939 220.595,191.771 " />
<polyline points="402.874,100.769 448.684,100.769 " />
<polyline points="401.184,41.5624 401.184,97.2762 " />
<polyline points="331.205,117.937 401.187,100.769 " />
<polyline points="331.205,298.714 401.206,316.209 " />
<polyline points="318.813,303.671 318.813,318.494 " />
<polyline points="856.585,203.491 906.151,203.491 " stroke-dasharray="58.315278,11.663056,11.663056,11.663056" />
<polyline points="917.183,203.491 928.048,203.491 " stroke-dasharray="58.315278,11.663056,11.663056,11.663056" />
<polyline points="938.561,203.491 987.533,203.491 " stroke-dasharray="58.315278,11.663056,11.663056,11.663056" />
<polyline points="956.908,100.442 956.908,316.209 " />
<polyline points="958.598,100.769 958.598,316.209 " />
<polyline points="958.598,316.209 967.842,316.209 " />
<polyline points="886.929,117.937 886.929,298.714 " />
<polyline points="885.471,117.937 885.471,298.714 " />
<polyline points="874.652,117.937 874.652,298.714 " />
<polyline points="885.471,298.714 874.537,298.714 " />
<path d="M885.471,298.714  A0.759314,0.759314 0 0,0 886.929,298.714 " />
<polyline points="885.471,117.937 874.537,117.937 " />
<path d="M886.929,117.937  A0.759314,0.759314 0 0,0 885.471,117.937 " />
<path d="M958.598,100.769  A0.843324,0.843324 0 1,0 956.911,100.769 " />
<polyline points="886.929,113.102 886.929,41.5624 " />
<polyline points="905.556,43.066 904.67,43.9519 " />
<polyline points="904.998,41.5624 902.853,43.7072 " />
<polyline points="902.936,41.5624 901.036,43.4625 " />
<polyline points="900.875,41.5624 899.219,43.2177 " />
<polyline points="898.813,41.5624 897.402,42.973 " />
<polyline points="896.751,41.5624 895.585,42.7283 " />
<polyline points="894.689,41.5624 893.768,42.4835 " />
<polyline points="892.628,41.5624 891.951,42.2388 " />
<polyline points="890.566,41.5624 890.134,41.994 " />
<polyline points="888.504,41.5624 888.317,41.7493 " />
<polyline points="905.556,41.0042 904.998,41.5624 " />
<polyline points="905.428,39.0708 902.936,41.5624 " />
<polyline points="903.045,39.3917 900.875,41.5624 " />
<polyline points="900.663,39.7126 898.813,41.5624 " />
<polyline points="898.28,40.0336 896.751,41.5624 " />
<polyline points="895.897,40.3545 894.689,41.5624 " />
<polyline points="893.515,40.6754 892.628,41.5624 " />
<polyline points="891.132,40.9963 890.566,41.5624 " />
<polyline points="888.749,41.3173 888.504,41.5624 " />
<polyline points="886.929,41.5624 905.556,39.0535 " />
<polyline points="886.929,41.5624 905.556,44.0713 " />
<polyline points="905.556,39.0535 905.556,44.0713 " />
<polyline points="938.281,40.0588 939.167,39.1728 " />
<polyline points="938.839,41.5624 940.984,39.4176 " />
<polyline points="940.901,41.5624 942.801,39.6623 " />
<polyline points="942.962,41.5624 944.618,39.907 " />
<polyline points="945.024,41.5624 946.435,40.1518 " />
<polyline points="947.086,41.5624 948.252,40.3965 " />
<polyline points="949.148,41.5624 950.069,40.6413 " />
<polyline points="951.209,41.5624 951.886,40.886 " />
<polyline points="953.271,41.5624 953.703,41.1307 " />
<polyline points="955.333,41.5624 955.52,41.3755 " />
<polyline points="938.281,42.1206 938.839,41.5624 " />
<polyline points="938.409,44.054 940.901,41.5624 " />
<polyline points="940.792,43.733 942.962,41.5624 " />
<polyline points="943.174,43.4121 945.024,41.5624 " />
<polyline points="945.557,43.0912 947.086,41.5624 " />
<polyline points="947.94,42.7703 949.148,41.5624 " />
<polyline points="950.322,42.4494 951.209,41.5624 " />
<polyline points="952.705,42.1284 953.271,41.5624 " />
<polyline points="955.088,41.8075 955.333,41.5624 " />
<polyline points="956.908,41.5624 938.281,44.0713 " />
<polyline points="956.908,41.5624 938.281,39.0535 " />
<polyline points="938.281,44.0713 938.281,39.0535 " />
<polyline points="1004.41,311.374 1004.41,238.453 " />
<polyline points="1004.41,167.864 1004.41,100.769 " />
<polyline points="874.537,117.937 840.579,117.937 " />
<polyline points="874.537,298.714 840.579,298.714 " />
<polyline points="840.579,117.937 840.579,174.359 " />
<polyline points="840.579,244.118 840.579,298.714 " />
<polyline points="967.842,316.209 1004.41,316.209 " />
<polyline points="1002.9,119.396 1002.02,118.51 " />
<polyline points="1004.41,118.838 1002.26,116.693 " />
<polyline points="1004.41,116.776 1002.51,114.876 " />
<polyline points="1004.41,114.714 1002.75,113.059 " />
<polyline points="1004.41,112.653 1003,111.242 " />
<polyline points="1004.41,110.591 1003.24,109.425 " />
<polyline points="1004.41,108.529 1003.49,107.608 " />
<polyline points="1004.41,106.467 1003.73,105.791 " />
<polyline points="1004.41,104.406 1003.98,103.974 " />
<polyline points="1004.41,102.344 1004.22,102.157 " />
<polyline points="1004.97,119.396 1004.41,118.838 " />
<polyline points="1006.9,119.268 1004.41,116.776 " />
<polyline points="1006.58,116.885 1004.41,114.714 " />
<polyline points="1006.26,114.502 1004.41,112.653 " />
<polyline points="1005.94,112.12 1004.41,110.591 " />
<polyline points="1005.62,109.737 1004.41,108.529 " />
<polyline points="1005.3,107.354 1004.41,106.467 " />
<polyline points="1004.97,104.972 1004.41,104.406 " />
<polyline points="1004.65,102.589 1004.41,102.344 " />
<polyline points="1004.41,100.769 1006.92,119.396 " />
<polyline points="1004.41,100.769 1001.9,119.396 " />
<polyline points="1005.91,297.582 1006.8,298.468 " />
<polyline points="1004.41,298.14 1006.55,300.285 " />
<polyline points="1004.41,300.202 1006.31,302.102 " />
<polyline points="1004.41,302.263 1006.06,303.919 " />
<polyline points="1004.41,304.325 1005.82,305.736 " />
<polyline points="1004.41,306.387 1005.57,307.553 " />
<polyline points="1004.41,308.449 1005.33,309.37 " />
<polyline points="1004.41,310.51 1005.08,311.187 " />
<polyline points="1004.41,312.572 1004.84,313.004 " />
<polyline points="1004.41,314.634 1004.6,314.821 " />
<polyline points="1003.85,297.582 1004.41,298.14 " />
<polyline points="1001.92,297.71 1004.41,300.202 " />
<polyline points="1002.24,300.093 1004.41,302.263 " />
<polyline points="1002.56,302.475 1004.41,304.325 " />
<polyline points="1002.88,304.858 1004.41,306.387 " />
<polyline points="1003.2,307.241 1004.41,308.449 " />
<polyline points="1003.52,309.623 1004.41,310.51 " />
<polyline points="1003.84,312.006 1004.41,312.572 " />
<polyline points="1004.16,314.389 1004.41,314.634 " />
<polyline points="1004.41,316.209 1001.9,297.582 " />
<polyline points="1004.41,316.209 1006.92,297.582 " />
<polyline points="839.076,136.564 838.19,135.678 " />
<polyline points="840.579,136.006 838.434,133.861 " />
<polyline points="840.579,133.944 838.679,132.044 " />
<polyline points="840.579,131.882 838.924,130.227 " />
<polyline points="840.579,129.82 839.169,128.41 " />
<polyline points="840.579,127.759 839.413,126.593 " />
<polyline points="840.579,125.697 839.658,124.776 " />
<polyline points="840.579,123.635 839.903,122.959 " />
<polyline points="840.579,121.573 840.147,121.142 " />
<polyline points="840.579,119.511 840.392,119.325 " />
<polyline points="841.137,136.564 840.579,136.006 " />
<polyline points="843.071,136.435 840.579,133.944 " />
<polyline points="842.75,134.053 840.579,131.882 " />
<polyline points="842.429,131.67 840.579,129.82 " />
<polyline points="842.108,129.287 840.579,127.759 " />
<polyline points="841.787,126.905 840.579,125.697 " />
<polyline points="841.466,124.522 840.579,123.635 " />
<polyline points="841.145,122.139 840.579,121.573 " />
<polyline points="840.824,119.757 840.579,119.511 " />
<polyline points="840.579,117.937 843.088,136.564 " />
<polyline points="840.579,117.937 838.07,136.564 " />
<polyline points="842.083,280.087 842.969,280.973 " />
<polyline points="840.579,280.645 842.724,282.79 " />
<polyline points="840.579,282.707 842.479,284.607 " />
<polyline points="840.579,284.769 842.234,286.424 " />
<polyline points="840.579,286.831 841.99,288.241 " />
<polyline points="840.579,288.892 841.745,290.058 " />
<polyline points="840.579,290.954 841.5,291.875 " />
<polyline points="840.579,293.016 841.256,293.692 " />
<polyline points="840.579,295.078 841.011,295.509 " />
<polyline points="840.579,297.139 840.766,297.326 " />
<polyline points="840.021,280.087 840.579,280.645 " />
<polyline points="838.088,280.215 840.579,282.707 " />
<polyline points="838.408,282.598 840.579,284.769 " />
<polyline points="838.729,284.981 840.579,286.831 " />
<polyline points="839.05,287.363 840.579,288.892 " />
<polyline points="839.371,289.746 840.579,290.954 " />
<polyline points="839.692,292.129 840.579,293.016 " />
<polyline points="840.013,294.512 840.579,295.078 " />
<polyline points="840.334,296.894 840.579,297.139 " />
<polyline points="840.579,298.714 838.07,280.087 " />
<polyline points="840.579,298.714 843.088,280.087 " />
<polyline points="1006.92,119.396 1001.9,119.396 " />
<polyline points="1001.9,297.582 1006.92,297.582 " />
<polyline points="838.07,280.087 843.088,280.087 " />
<polyline points="843.088,136.564 838.07,136.564 " />
<path d="M956.93,316.209  A0.828828,0.828828 0 1,0 958.588,316.209 " />
<polyline points="967.842,324.667 967.842,339.395 " />
<polyline points="958.598,100.769 1004.41,100.769 " />
<polyline points="956.908,41.5624 956.908,100.442 " />
<polyline points="886.929,117.937 956.911,100.769 " />
<polyline points="886.929,298.714 956.93,316.209 " />
<polyline points="874.537,305.951 874.537,320.774 " />
<polyline points="401.184,41.5624 331.205,41.5624 " />
<polyline points="331.205,41.5624 352.734,41.5624 " />
<polyline points="301.92,17.5967 303.031,17.0414 304.697,15.3752 304.697,27.0383 " />
<polyline points="311.917,18.1521 311.917,17.5967 312.472,16.486 313.027,15.9306 314.138,15.3752 316.36,15.3752 317.471,15.9306 318.026,16.486 318.581,17.5967 318.581,18.7075 318.026,19.8183 316.915,21.4844 311.361,27.0383 319.137,27.0383 " />
<polyline points="334.132,15.9306 334.687,16.486 335.243,15.9306 334.687,15.3752 334.132,15.9306 " />
<polyline points="334.687,19.8183 334.687,27.0383 " />
<polyline points="339.13,19.2629 339.13,27.0383 " />
<polyline points="339.13,21.4844 340.797,19.8183 341.907,19.2629 343.574,19.2629 344.684,19.8183 345.24,21.4844 345.24,27.0383 " />
<polyline points="350.238,25.9275 349.683,26.4829 350.238,27.0383 350.794,26.4829 350.238,25.9275 " />
<polyline points="370.787,13.1537 369.677,14.2644 368.566,15.9306 367.455,18.1521 366.9,20.929 366.9,23.1506 367.455,25.9275 368.566,28.149 369.677,29.8152 370.787,30.9259 " />
<polyline points="375.23,15.3752 381.34,15.3752 378.007,19.8183 379.673,19.8183 380.784,20.3737 381.34,20.929 381.895,22.5952 381.895,23.706 381.34,25.3721 380.229,26.4829 378.563,27.0383 376.897,27.0383 375.23,26.4829 374.675,25.9275 374.12,24.8167 " />
<polyline points="388.56,15.3752 386.893,15.9306 385.783,17.5967 385.227,20.3737 385.227,22.0398 385.783,24.8167 386.893,26.4829 388.56,27.0383 389.67,27.0383 391.337,26.4829 392.447,24.8167 393.003,22.0398 393.003,20.3737 392.447,17.5967 391.337,15.9306 389.67,15.3752 388.56,15.3752 " />
<polyline points="399.667,15.3752 398.001,15.9306 396.89,17.5967 396.335,20.3737 396.335,22.0398 396.89,24.8167 398.001,26.4829 399.667,27.0383 400.778,27.0383 402.444,26.4829 403.555,24.8167 404.11,22.0398 404.11,20.3737 403.555,17.5967 402.444,15.9306 400.778,15.3752 399.667,15.3752 " />
<polyline points="419.661,19.2629 419.661,27.0383 " />
<polyline points="419.661,21.4844 421.327,19.8183 422.438,19.2629 424.104,19.2629 425.215,19.8183 425.77,21.4844 425.77,27.0383 " />
<polyline points="425.77,21.4844 427.436,19.8183 428.547,19.2629 430.213,19.2629 431.324,19.8183 431.88,21.4844 431.88,27.0383 " />
<polyline points="436.323,19.2629 436.323,27.0383 " />
<polyline points="436.323,21.4844 437.989,19.8183 439.1,19.2629 440.766,19.2629 441.876,19.8183 442.432,21.4844 442.432,27.0383 " />
<polyline points="442.432,21.4844 444.098,19.8183 445.209,19.2629 446.875,19.2629 447.986,19.8183 448.541,21.4844 448.541,27.0383 " />
<polyline points="452.429,13.1537 453.54,14.2644 454.65,15.9306 455.761,18.1521 456.316,20.929 456.316,23.1506 455.761,25.9275 454.65,28.149 453.54,29.8152 452.429,30.9259 " />
<polyline points="843.74,17.543 844.851,16.9877 846.517,15.3215 846.517,26.9846 " />
<polyline points="853.737,18.0984 853.737,17.543 854.292,16.4323 854.848,15.8769 855.958,15.3215 858.18,15.3215 859.291,15.8769 859.846,16.4323 860.401,17.543 860.401,18.6538 859.846,19.7646 858.735,21.4307 853.182,26.9846 860.957,26.9846 " />
<polyline points="875.952,15.8769 876.508,16.4323 877.063,15.8769 876.508,15.3215 875.952,15.8769 " />
<polyline points="876.508,19.7646 876.508,26.9846 " />
<polyline points="880.951,19.2092 880.951,26.9846 " />
<polyline points="880.951,21.4307 882.617,19.7646 883.728,19.2092 885.394,19.2092 886.505,19.7646 887.06,21.4307 887.06,26.9846 " />
<polyline points="892.058,25.8738 891.503,26.4292 892.058,26.9846 892.614,26.4292 892.058,25.8738 " />
<polyline points="912.608,13.1 911.497,14.2107 910.386,15.8769 909.275,18.0984 908.72,20.8753 908.72,23.0969 909.275,25.8738 910.386,28.0953 911.497,29.7615 912.608,30.8723 " />
<polyline points="917.051,15.3215 923.16,15.3215 919.828,19.7646 921.494,19.7646 922.604,20.32 923.16,20.8753 923.715,22.5415 923.715,23.6523 923.16,25.3184 922.049,26.4292 920.383,26.9846 918.717,26.9846 917.051,26.4292 916.495,25.8738 915.94,24.763 " />
<polyline points="930.38,15.3215 928.714,15.8769 927.603,17.543 927.048,20.32 927.048,21.9861 927.603,24.763 928.714,26.4292 930.38,26.9846 931.491,26.9846 933.157,26.4292 934.268,24.763 934.823,21.9861 934.823,20.32 934.268,17.543 933.157,15.8769 931.491,15.3215 930.38,15.3215 " />
<polyline points="941.487,15.3215 939.821,15.8769 938.711,17.543 938.155,20.32 938.155,21.9861 938.711,24.763 939.821,26.4292 941.487,26.9846 942.598,26.9846 944.264,26.4292 945.375,24.763 945.931,21.9861 945.931,20.32 945.375,17.543 944.264,15.8769 942.598,15.3215 941.487,15.3215 " />
<polyline points="961.481,19.2092 961.481,26.9846 " />
<polyline points="961.481,21.4307 963.147,19.7646 964.258,19.2092 965.924,19.2092 967.035,19.7646 967.591,21.4307 967.591,26.9846 " />
<polyline points="967.591,21.4307 969.257,19.7646 970.367,19.2092 972.034,19.2092 973.144,19.7646 973.7,21.4307 973.7,26.9846 " />
<polyline points="978.143,19.2092 978.143,26.9846 " />
<polyline points="978.143,21.4307 979.809,19.7646 980.92,19.2092 982.586,19.2092 983.697,19.7646 984.252,21.4307 984.252,26.9846 " />
<polyline points="984.252,21.4307 985.918,19.7646 987.029,19.2092 988.695,19.2092 989.806,19.7646 990.361,21.4307 990.361,26.9846 " />
<polyline points="994.249,13.1 995.36,14.2107 996.47,15.8769 997.581,18.0984 998.137,20.8753 998.137,23.0969 997.581,25.8738 996.47,28.0953 995.36,29.7615 994.249,30.8723 " />
<polyline points="956.908,41.5624 886.929,41.5624 " />
<polyline points="607.638,158.757 607.638,71.72 " />
<polyline points="549.322,41.2354 609.538,41.2354 " />
<polyline points="631.418,41.2354 689.279,41.2354 " />
<polyline points="607.638,71.72 637.969,71.72 " />
<polyline points="659.267,71.72 689.279,71.72 " />
<polyline points="689.279,71.72 689.279,71.72 " />
<polyline points="550.897,41.2354 550.71,41.0485 " />
<polyline points="552.959,41.2354 552.527,40.8037 " />
<polyline points="555.021,41.2354 554.344,40.559 " />
<polyline points="557.082,41.2354 556.161,40.3143 " />
<polyline points="559.144,41.2354 557.978,40.0695 " />
<polyline points="561.206,41.2354 559.795,39.8248 " />
<polyline points="563.268,41.2354 561.612,39.5801 " />
<polyline points="565.329,41.2354 563.429,39.3353 " />
<polyline points="567.391,41.2354 565.246,39.0906 " />
<polyline points="567.949,39.7318 567.063,38.8459 " />
<polyline points="551.142,41.4805 550.897,41.2354 " />
<polyline points="553.525,41.8014 552.959,41.2354 " />
<polyline points="555.908,42.1224 555.021,41.2354 " />
<polyline points="558.29,42.4433 557.082,41.2354 " />
<polyline points="560.673,42.7642 559.144,41.2354 " />
<polyline points="563.056,43.0851 561.206,41.2354 " />
<polyline points="565.438,43.4061 563.268,41.2354 " />
<polyline points="567.821,43.727 565.329,41.2354 " />
<polyline points="567.949,41.7936 567.391,41.2354 " />
<polyline points="549.322,41.2354 567.949,43.7443 " />
<polyline points="549.322,41.2354 567.949,38.7265 " />
<polyline points="567.949,43.7443 567.949,38.7265 " />
<polyline points="687.704,41.2354 687.891,41.4223 " />
<polyline points="685.643,41.2354 686.074,41.6671 " />
<polyline points="683.581,41.2354 684.257,41.9118 " />
<polyline points="681.519,41.2354 682.44,42.1565 " />
<polyline points="679.457,41.2354 680.623,42.4013 " />
<polyline points="677.395,41.2354 678.806,42.646 " />
<polyline points="675.334,41.2354 676.989,42.8907 " />
<polyline points="673.272,41.2354 675.172,43.1355 " />
<polyline points="671.21,41.2354 673.355,43.3802 " />
<polyline points="670.652,42.739 671.538,43.6249 " />
<polyline points="687.459,40.9903 687.704,41.2354 " />
<polyline points="685.076,40.6694 685.643,41.2354 " />
<polyline points="682.694,40.3484 683.581,41.2354 " />
<polyline points="680.311,40.0275 681.519,41.2354 " />
<polyline points="677.928,39.7066 679.457,41.2354 " />
<polyline points="675.546,39.3857 677.395,41.2354 " />
<polyline points="673.163,39.0647 675.334,41.2354 " />
<polyline points="670.78,38.7438 673.272,41.2354 " />
<polyline points="670.652,40.6772 671.21,41.2354 " />
<polyline points="689.279,41.2354 670.652,38.7265 " />
<polyline points="689.279,41.2354 670.652,43.7443 " />
<polyline points="670.652,38.7265 670.652,43.7443 " />
<polyline points="609.212,71.72 609.025,71.5331 " />
<polyline points="611.274,71.72 610.843,71.2883 " />
<polyline points="613.336,71.72 612.66,71.0436 " />
<polyline points="615.398,71.72 614.477,70.7989 " />
<polyline points="617.459,71.72 616.294,70.5541 " />
<polyline points="619.521,71.72 618.111,70.3094 " />
<polyline points="621.583,71.72 619.928,70.0647 " />
<polyline points="623.645,71.72 621.745,69.8199 " />
<polyline points="625.706,71.72 623.562,69.5752 " />
<polyline points="626.265,70.2164 625.379,69.3305 " />
<polyline points="609.458,71.9651 609.212,71.72 " />
<polyline points="611.84,72.286 611.274,71.72 " />
<polyline points="614.223,72.607 613.336,71.72 " />
<polyline points="616.606,72.9279 615.398,71.72 " />
<polyline points="618.988,73.2488 617.459,71.72 " />
<polyline points="621.371,73.5697 619.521,71.72 " />
<polyline points="623.754,73.8907 621.583,71.72 " />
<polyline points="626.136,74.2116 623.645,71.72 " />
<polyline points="626.265,72.2782 625.706,71.72 " />
<polyline points="607.638,71.72 626.265,74.2289 " />
<polyline points="607.638,71.72 626.265,69.2111 " />
<polyline points="626.265,74.2289 626.265,69.2111 " />
<polyline points="687.704,71.72 687.891,71.9069 " />
<polyline points="685.643,71.72 686.074,72.1517 " />
<polyline points="683.581,71.72 684.257,72.3964 " />
<polyline points="681.519,71.72 682.44,72.6411 " />
<polyline points="679.457,71.72 680.623,72.8859 " />
<polyline points="677.395,71.72 678.806,73.1306 " />
<polyline points="675.334,71.72 676.989,73.3753 " />
<polyline points="673.272,71.72 675.172,73.6201 " />
<polyline points="671.21,71.72 673.355,73.8648 " />
<polyline points="670.652,73.2236 671.538,74.1095 " />
<polyline points="687.459,71.4749 687.704,71.72 " />
<polyline points="685.076,71.154 685.643,71.72 " />
<polyline points="682.694,70.833 683.581,71.72 " />
<polyline points="680.311,70.5121 681.519,71.72 " />
<polyline points="677.928,70.1912 679.457,71.72 " />
<polyline points="675.546,69.8703 677.395,71.72 " />
<polyline points="673.163,69.5493 675.334,71.72 " />
<polyline points="670.78,69.2284 673.272,71.72 " />
<polyline points="670.652,71.1618 671.21,71.72 " />
<polyline points="689.279,71.72 670.652,69.2111 " />
<polyline points="689.279,71.72 670.652,74.2289 " />
<polyline points="670.652,69.2111 670.652,74.2289 " />
<polyline points="648.458,117.937 721.098,117.937 " />
<polyline points="648.458,298.714 721.098,298.714 " />
<polyline points="721.098,117.937 721.098,190.818 " />
<polyline points="721.098,226.112 721.098,298.714 " />
<polyline points="619.301,100.442 761.68,100.442 " />
<polyline points="619.301,316.209 761.68,316.209 " />
<polyline points="761.68,100.442 761.68,190.818 " />
<polyline points="761.68,226.112 761.68,316.209 " />
<polyline points="721.098,119.511 721.285,119.325 " />
<polyline points="721.098,121.573 721.53,121.142 " />
<polyline points="721.098,123.635 721.775,122.959 " />
<polyline points="721.098,125.697 722.019,124.776 " />
<polyline points="721.098,127.758 722.264,126.593 " />
<polyline points="721.098,129.82 722.509,128.41 " />
<polyline points="721.098,131.882 722.754,130.227 " />
<polyline points="721.098,133.944 722.998,132.044 " />
<polyline points="721.098,136.006 723.243,133.861 " />
<polyline points="722.602,136.564 723.488,135.678 " />
<polyline points="720.853,119.757 721.098,119.511 " />
<polyline points="720.532,122.139 721.098,121.573 " />
<polyline points="720.211,124.522 721.098,123.635 " />
<polyline points="719.89,126.905 721.098,125.697 " />
<polyline points="719.57,129.287 721.098,127.758 " />
<polyline points="719.249,131.67 721.098,129.82 " />
<polyline points="718.928,134.053 721.098,131.882 " />
<polyline points="718.607,136.435 721.098,133.944 " />
<polyline points="720.54,136.564 721.098,136.006 " />
<polyline points="721.098,117.937 718.589,136.564 " />
<polyline points="721.098,117.937 723.607,136.564 " />
<polyline points="718.589,136.564 723.607,136.564 " />
<polyline points="761.68,102.017 761.867,101.83 " />
<polyline points="761.68,104.079 762.112,103.647 " />
<polyline points="761.68,106.14 762.357,105.464 " />
<polyline points="761.68,108.202 762.602,107.281 " />
<polyline points="761.68,110.264 762.846,109.098 " />
<polyline points="761.68,112.326 763.091,110.915 " />
<polyline points="761.68,114.387 763.336,112.732 " />
<polyline points="761.68,116.449 763.58,114.549 " />
<polyline points="761.68,118.511 763.825,116.366 " />
<polyline points="763.184,119.069 764.07,118.183 " />
<polyline points="761.435,102.262 761.68,102.017 " />
<polyline points="761.114,104.645 761.68,104.079 " />
<polyline points="760.793,107.027 761.68,106.14 " />
<polyline points="760.472,109.41 761.68,108.202 " />
<polyline points="760.152,111.793 761.68,110.264 " />
<polyline points="759.831,114.175 761.68,112.326 " />
<polyline points="759.51,116.558 761.68,114.387 " />
<polyline points="759.189,118.941 761.68,116.449 " />
<polyline points="761.122,119.069 761.68,118.511 " />
<polyline points="761.68,100.442 759.172,119.069 " />
<polyline points="761.68,100.442 764.189,119.069 " />
<polyline points="759.172,119.069 764.189,119.069 " />
<polyline points="761.68,314.634 761.493,314.821 " />
<polyline points="761.68,312.572 761.249,313.004 " />
<polyline points="761.68,310.51 761.004,311.187 " />
<polyline points="761.68,308.449 760.759,309.37 " />
<polyline points="761.68,306.387 760.515,307.553 " />
<polyline points="761.68,304.325 760.27,305.736 " />
<polyline points="761.68,302.263 760.025,303.919 " />
<polyline points="761.68,300.202 759.78,302.102 " />
<polyline points="761.68,298.14 759.536,300.285 " />
<polyline points="760.177,297.582 759.291,298.468 " />
<polyline points="761.926,314.389 761.68,314.634 " />
<polyline points="762.246,312.006 761.68,312.572 " />
<polyline points="762.567,309.623 761.68,310.51 " />
<polyline points="762.888,307.241 761.68,308.449 " />
<polyline points="763.209,304.858 761.68,306.387 " />
<polyline points="763.53,302.475 761.68,304.325 " />
<polyline points="763.851,300.093 761.68,302.263 " />
<polyline points="764.172,297.71 761.68,300.202 " />
<polyline points="762.239,297.582 761.68,298.14 " />
<polyline points="761.68,316.209 764.189,297.582 " />
<polyline points="761.68,316.209 759.172,297.582 " />
<polyline points="764.189,297.582 759.172,297.582 " />
<polyline points="721.098,297.139 720.911,297.326 " />
<polyline points="721.098,295.078 720.667,295.509 " />
<polyline points="721.098,293.016 720.422,293.692 " />
<polyline points="721.098,290.954 720.177,291.875 " />
<polyline points="721.098,288.892 719.932,290.058 " />
<polyline points="721.098,286.831 719.688,288.241 " />
<polyline points="721.098,284.769 719.443,286.424 " />
<polyline points="721.098,282.707 719.198,284.607 " />
<polyline points="721.098,280.645 718.954,282.79 " />
<polyline points="719.595,280.087 718.709,280.973 " />
<polyline points="721.343,296.894 721.098,297.139 " />
<polyline points="721.664,294.511 721.098,295.078 " />
<polyline points="721.985,292.129 721.098,293.016 " />
<polyline points="722.306,289.746 721.098,290.954 " />
<polyline points="722.627,287.363 721.098,288.892 " />
<polyline points="722.948,284.981 721.098,286.831 " />
<polyline points="723.269,282.598 721.098,284.769 " />
<polyline points="723.59,280.215 721.098,282.707 " />
<polyline points="721.657,280.087 721.098,280.645 " />
<polyline points="721.098,298.714 723.607,280.087 " />
<polyline points="721.098,298.714 718.589,280.087 " />
<polyline points="723.607,280.087 718.589,280.087 " />
<polyline points="346.29,219.416 346.29,228.73 " />
<polyline points="343.185,219.416 349.394,219.416 " />
<polyline points="353.386,222.521 352.499,222.965 351.612,223.852 351.168,225.182 351.168,226.069 351.612,227.4 352.499,228.287 353.386,228.73 354.717,228.73 355.604,228.287 356.491,227.4 356.934,226.069 356.934,225.182 356.491,223.852 355.604,222.965 354.717,222.521 353.386,222.521 " />
<polyline points="369.353,219.416 369.353,228.73 " />
<polyline points="369.353,219.416 375.119,219.416 " />
<polyline points="369.353,223.852 372.901,223.852 " />
<polyline points="382.216,222.521 382.216,228.73 " />
<polyline points="382.216,223.852 381.328,222.965 380.441,222.521 379.111,222.521 378.224,222.965 377.337,223.852 376.893,225.182 376.893,226.069 377.337,227.4 378.224,228.287 379.111,228.73 380.441,228.73 381.328,228.287 382.216,227.4 " />
<polyline points="385.764,222.521 385.764,228.73 " />
<polyline points="385.764,224.295 387.094,222.965 387.981,222.521 389.312,222.521 390.199,222.965 390.643,224.295 390.643,228.73 " />
</g>
<g clip-path="url(#clipId0)" fill="rgb(0,0,0)" stroke="rgb(0,0,0)" stroke-width="0.35" >
<path d="M378.594,187.145 378.594,188.276 336.985,188.276 336.985,187.145 z" />
<path d="M378.594,185.902 378.594,189.52 391.258,187.711 391.258,187.711 z" />
</g>
<g clip-path="url(#clipId0)" fill="none" stroke="rgb(0,0,0)" stroke-width="0.35" >
<polyline points="360.494,155.778 359.15,156.45 357.806,157.794 357.134,159.138 356.462,161.154 356.462,164.514 357.134,166.53 357.806,167.874 359.15,169.219 360.494,169.891 363.182,169.891 364.526,169.219 365.87,167.874 366.542,166.53 367.214,164.514 367.214,161.154 366.542,159.138 365.87,157.794 364.526,156.45 363.182,155.778 360.494,155.778 " />
<polyline points="362.51,167.202 366.542,171.235 " />
<polyline points="28.318,580.234 138.591,580.234 " stroke-dasharray="58.315278,11.663056,11.663056,11.663056" />
<path d="M43.5898,679.37  A40.8207,40.8207 0 0,0 125.231,679.37 " />
<path d="M125.231,580.234  A40.8207,40.8207 0 0,0 43.5898,580.234 " />
<polyline points="345.518,607.473 361.388,607.473 " stroke-dasharray="58.315278,11.663056,11.663056,11.663056" />
<polyline points="376.36,607.473 392.375,607.473 " stroke-dasharray="58.315278,11.663056,11.663056,11.663056" />
<polyline points="408.015,607.473 476.466,607.473 " stroke-dasharray="58.315278,11.663056,11.663056,11.663056" />
<polyline points="445.841,504.424 445.841,720.19 " />
<polyline points="447.531,504.751 447.531,720.19 " />
<polyline points="456.775,504.424 456.775,720.19 " />
<polyline points="447.531,720.19 456.775,720.19 " />
<polyline points="331.205,539.413 331.205,720.19 " />
<polyline points="329.747,539.413 329.747,720.19 " />
<polyline points="84.4105,612.307 84.4105,713.616 " stroke-dasharray="58.315278,11.663056,11.663056,11.663056" />
<polyline points="318.928,539.413 318.928,720.19 " />
<polyline points="329.747,720.19 318.813,720.19 " />
<path d="M329.747,720.19  A0.759314,0.759314 0 0,0 331.205,720.19 " />
<polyline points="14.4321,574.402 14.4321,650.212 " />
<polyline points="329.747,539.413 318.813,539.413 " />
<path d="M331.205,539.413  A0.759314,0.759314 0 0,0 329.747,539.413 " />
<polyline points="84.4105,629.802 84.4105,530.334 " stroke-dasharray="58.315278,11.663056,11.663056,11.663056" />
<polyline points="43.5898,679.37 43.5898,580.234 " />
<polyline points="88.416,440.956 88.416,451.064 " />
<polyline points="88.416,443.122 86.972,441.678 85.528,440.956 83.362,440.956 81.918,441.678 80.474,443.122 79.752,445.288 79.752,446.732 80.474,448.898 81.918,450.342 83.362,451.064 85.528,451.064 86.972,450.342 88.416,448.898 " />
<polyline points="80.6288,467.756 80.6288,482.918 " />
<polyline points="80.6288,474.976 82.0728,473.532 83.5168,472.81 85.6828,472.81 87.1268,473.532 88.5708,474.976 89.2928,477.142 89.2928,478.586 88.5708,480.752 87.1268,482.196 85.6828,482.918 83.5168,482.918 82.0728,482.196 80.6288,480.752 " />
<polyline points="179.505,620.426 179.505,632.089 " />
<polyline points="179.505,620.426 184.503,620.426 186.169,620.982 186.725,621.537 187.28,622.648 187.28,623.759 186.725,624.869 186.169,625.425 184.503,625.98 " />
<polyline points="179.505,625.98 184.503,625.98 186.169,626.535 186.725,627.091 187.28,628.202 187.28,629.868 186.725,630.979 186.169,631.534 184.503,632.089 179.505,632.089 " />
<polyline points="318.637,748.808 316.971,749.363 315.86,751.029 315.305,753.806 315.305,755.472 315.86,758.249 316.971,759.915 318.637,760.471 319.748,760.471 321.414,759.915 322.525,758.249 323.08,755.472 323.08,753.806 322.525,751.029 321.414,749.363 319.748,748.808 318.637,748.808 " />
<polyline points="455.729,748.615 456.84,748.06 458.506,746.394 458.506,758.057 " />
<polyline points="84.4105,667.707 84.4105,748.877 " />
<polyline points="125.231,679.37 125.231,580.234 " />
<polyline points="154.389,650.212 154.389,574.402 " />
<polyline points="28.5439,679.05 138.816,679.05 " stroke-dasharray="58.315278,11.663056,11.663056,11.663056" />
<polyline points="84.4105,539.413 183.445,539.413 " />
<polyline points="183.445,540.988 183.632,540.801 " />
<polyline points="183.445,543.049 183.877,542.618 " />
<polyline points="183.445,545.111 184.122,544.435 " />
<polyline points="183.445,547.173 184.367,546.252 " />
<polyline points="183.445,549.235 184.611,548.069 " />
<polyline points="183.445,551.297 184.856,549.886 " />
<polyline points="183.445,553.358 185.101,551.703 " />
<polyline points="183.445,555.42 185.345,553.52 " />
<polyline points="183.445,557.482 185.59,555.337 " />
<polyline points="184.949,558.04 185.835,557.154 " />
<polyline points="183.2,541.233 183.445,540.988 " />
<polyline points="182.879,543.616 183.445,543.049 " />
<polyline points="182.558,545.998 183.445,545.111 " />
<polyline points="182.237,548.381 183.445,547.173 " />
<polyline points="181.917,550.764 183.445,549.235 " />
<polyline points="181.596,553.146 183.445,551.297 " />
<polyline points="181.275,555.529 183.445,553.358 " />
<polyline points="180.954,557.912 183.445,555.42 " />
<polyline points="182.887,558.04 183.445,557.482 " />
<polyline points="183.445,539.413 183.445,613.153 " />
<polyline points="183.445,639.902 183.445,720.19 " />
<polyline points="84.4105,512.84 84.4105,495.641 " />
<polyline points="84.4105,504.424 220.595,504.424 " />
<polyline points="220.595,504.424 220.595,595.659 " />
<polyline points="220.595,622.408 220.595,717.773 " />
<polyline points="84.4105,720.19 220.595,720.19 " />
<polyline points="219.856,603.996 214.968,616.825 " />
<polyline points="219.856,603.996 224.743,616.825 " />
<polyline points="216.801,612.549 222.91,612.549 " />
<polyline points="183.445,539.413 180.937,558.04 " />
<polyline points="183.445,539.413 185.954,558.04 " />
<polyline points="180.937,558.04 185.954,558.04 " />
<polyline points="220.595,505.999 220.782,505.812 " />
<polyline points="220.595,508.06 221.027,507.629 " />
<polyline points="220.595,510.122 221.271,509.446 " />
<polyline points="220.595,512.184 221.516,511.263 " />
<polyline points="220.595,514.246 221.761,513.08 " />
<polyline points="220.595,516.307 222.006,514.897 " />
<polyline points="220.595,518.369 222.25,516.714 " />
<polyline points="220.595,520.431 222.495,518.531 " />
<polyline points="220.595,522.493 222.74,520.348 " />
<polyline points="222.099,523.051 222.985,522.165 " />
<polyline points="220.35,506.244 220.595,505.999 " />
<polyline points="220.029,508.626 220.595,508.06 " />
<polyline points="219.708,511.009 220.595,510.122 " />
<polyline points="219.387,513.392 220.595,512.184 " />
<polyline points="219.066,515.774 220.595,514.246 " />
<polyline points="218.745,518.157 220.595,516.307 " />
<polyline points="218.424,520.54 220.595,518.369 " />
<polyline points="218.103,522.922 220.595,520.431 " />
<polyline points="220.037,523.051 220.595,522.493 " />
<polyline points="220.595,504.424 218.086,523.051 " />
<polyline points="220.595,504.424 223.104,523.051 " />
<polyline points="218.086,523.051 223.104,523.051 " />
<polyline points="220.595,718.616 220.408,718.803 " />
<polyline points="220.595,716.554 220.163,716.985 " />
<polyline points="220.595,714.492 219.919,715.168 " />
<polyline points="220.595,712.43 219.674,713.351 " />
<polyline points="220.595,710.369 219.429,711.534 " />
<polyline points="220.595,708.307 219.184,709.717 " />
<polyline points="220.595,706.245 218.94,707.9 " />
<polyline points="220.595,704.183 218.695,706.083 " />
<polyline points="220.595,702.122 218.45,704.266 " />
<polyline points="219.091,701.563 218.206,702.449 " />
<polyline points="220.84,718.37 220.595,718.616 " />
<polyline points="221.161,715.988 220.595,716.554 " />
<polyline points="221.482,713.605 220.595,714.492 " />
<polyline points="221.803,711.222 220.595,712.43 " />
<polyline points="222.124,708.84 220.595,710.369 " />
<polyline points="222.445,706.457 220.595,708.307 " />
<polyline points="222.766,704.074 220.595,706.245 " />
<polyline points="223.087,701.692 220.595,704.183 " />
<polyline points="221.153,701.563 220.595,702.122 " />
<polyline points="220.595,720.19 223.104,701.563 " />
<polyline points="220.595,720.19 218.086,701.563 " />
<polyline points="14.4321,445.217 75.7351,445.217 " />
<polyline points="93.5601,445.217 154.389,445.217 " />
<polyline points="43.5898,562.739 43.5898,475.702 " />
<polyline points="43.5898,475.702 75.7351,475.702 " />
<polyline points="93.5601,475.702 125.231,475.702 " />
<polyline points="125.231,562.739 125.231,475.702 " />
<path d="M447.531,504.751  A0.843324,0.843324 0 1,0 445.845,504.751 " />
<polyline points="349.818,447.048 348.933,447.934 " />
<polyline points="349.26,445.544 347.116,447.689 " />
<polyline points="347.199,445.544 345.298,447.444 " />
<polyline points="345.137,445.544 343.481,447.199 " />
<polyline points="343.075,445.544 341.664,446.955 " />
<polyline points="341.013,445.544 339.847,446.71 " />
<polyline points="338.952,445.544 338.03,446.465 " />
<polyline points="336.89,445.544 336.213,446.22 " />
<polyline points="334.828,445.544 334.396,445.976 " />
<polyline points="332.766,445.544 332.579,445.731 " />
<polyline points="349.818,444.986 349.26,445.544 " />
<polyline points="349.69,443.053 347.199,445.544 " />
<polyline points="347.307,443.373 345.137,445.544 " />
<polyline points="344.925,443.694 343.075,445.544 " />
<polyline points="342.542,444.015 341.013,445.544 " />
<polyline points="340.159,444.336 338.952,445.544 " />
<polyline points="337.777,444.657 336.89,445.544 " />
<polyline points="335.394,444.978 334.828,445.544 " />
<polyline points="333.011,445.299 332.766,445.544 " />
<polyline points="331.192,445.544 349.818,443.035 " />
<polyline points="331.192,445.544 349.818,448.053 " />
<polyline points="349.818,443.035 349.818,448.053 " />
<polyline points="427.214,444.041 428.1,443.155 " />
<polyline points="427.772,445.544 429.917,443.399 " />
<polyline points="429.834,445.544 431.734,443.644 " />
<polyline points="431.895,445.544 433.551,443.889 " />
<polyline points="433.957,445.544 435.368,444.133 " />
<polyline points="436.019,445.544 437.185,444.378 " />
<polyline points="438.081,445.544 439.002,444.623 " />
<polyline points="440.142,445.544 440.819,444.868 " />
<polyline points="442.204,445.544 442.636,445.112 " />
<polyline points="444.266,445.544 444.453,445.357 " />
<polyline points="427.214,446.102 427.772,445.544 " />
<polyline points="427.342,448.036 429.834,445.544 " />
<polyline points="429.725,447.715 431.895,445.544 " />
<polyline points="432.107,447.394 433.957,445.544 " />
<polyline points="434.49,447.073 436.019,445.544 " />
<polyline points="436.873,446.752 438.081,445.544 " />
<polyline points="439.255,446.431 440.142,445.544 " />
<polyline points="441.638,446.11 442.204,445.544 " />
<polyline points="444.021,445.789 444.266,445.544 " />
<polyline points="445.841,445.544 427.214,448.053 " />
<polyline points="445.841,445.544 427.214,443.035 " />
<polyline points="427.214,448.053 427.214,443.035 " />
<polyline points="16.0069,445.217 15.82,445.03 " />
<polyline points="18.0686,445.217 17.637,444.785 " />
<polyline points="20.1304,445.217 19.454,444.541 " />
<polyline points="22.1922,445.217 21.271,444.296 " />
<polyline points="24.2539,445.217 23.088,444.051 " />
<polyline points="26.3157,445.217 24.9051,443.807 " />
<polyline points="28.3774,445.217 26.7221,443.562 " />
<polyline points="30.4392,445.217 28.5391,443.317 " />
<polyline points="32.5009,445.217 30.3561,443.072 " />
<polyline points="33.0591,443.714 32.1732,442.828 " />
<polyline points="16.252,445.462 16.0069,445.217 " />
<polyline points="18.6347,445.783 18.0686,445.217 " />
<polyline points="21.0174,446.104 20.1304,445.217 " />
<polyline points="23.4,446.425 22.1922,445.217 " />
<polyline points="25.7827,446.746 24.2539,445.217 " />
<polyline points="28.1654,447.067 26.3157,445.217 " />
<polyline points="30.5481,447.388 28.3774,445.217 " />
<polyline points="32.9308,447.709 30.4392,445.217 " />
<polyline points="33.0591,445.775 32.5009,445.217 " />
<polyline points="14.4321,445.217 33.0591,447.726 " />
<polyline points="14.4321,445.217 33.0591,442.708 " />
<polyline points="33.0591,447.726 33.0591,442.708 " />
<polyline points="45.1645,475.702 44.9776,475.515 " />
<polyline points="47.2263,475.702 46.7946,475.27 " />
<polyline points="49.288,475.702 48.6116,475.025 " />
<polyline points="51.3498,475.702 50.4287,474.781 " />
<polyline points="53.4116,475.702 52.2457,474.536 " />
<polyline points="55.4733,475.702 54.0627,474.291 " />
<polyline points="57.5351,475.702 55.8797,474.046 " />
<polyline points="59.5968,475.702 57.6968,473.802 " />
<polyline points="61.6586,475.702 59.5138,473.557 " />
<polyline points="62.2168,474.198 61.3308,473.312 " />
<polyline points="45.4096,475.947 45.1645,475.702 " />
<polyline points="47.7923,476.268 47.2263,475.702 " />
<polyline points="50.175,476.589 49.288,475.702 " />
<polyline points="52.5577,476.91 51.3498,475.702 " />
<polyline points="54.9404,477.231 53.4116,475.702 " />
<polyline points="57.323,477.551 55.4733,475.702 " />
<polyline points="59.7057,477.872 57.5351,475.702 " />
<polyline points="62.0884,478.193 59.5968,475.702 " />
<polyline points="62.2168,476.26 61.6586,475.702 " />
<polyline points="43.5898,475.702 62.2168,478.211 " />
<polyline points="43.5898,475.702 62.2168,473.193 " />
<polyline points="62.2168,478.211 62.2168,473.193 " />
<polyline points="152.814,445.217 153.001,445.404 " />
<polyline points="150.752,445.217 151.184,445.649 " />
<polyline points="148.691,445.217 149.367,445.894 " />
<polyline points="146.629,445.217 147.55,446.138 " />
<polyline points="144.567,445.217 145.733,446.383 " />
<polyline points="142.505,445.217 143.916,446.628 " />
<polyline points="140.443,445.217 142.099,446.872 " />
<polyline points="138.382,445.217 140.282,447.117 " />
<polyline points="136.32,445.217 138.465,447.362 " />
<polyline points="135.762,446.721 136.648,447.607 " />
<polyline points="152.569,444.972 152.814,445.217 " />
<polyline points="150.186,444.651 150.752,445.217 " />
<polyline points="147.804,444.33 148.691,445.217 " />
<polyline points="145.421,444.009 146.629,445.217 " />
<polyline points="143.038,443.688 144.567,445.217 " />
<polyline points="140.656,443.367 142.505,445.217 " />
<polyline points="138.273,443.046 140.443,445.217 " />
<polyline points="135.89,442.726 138.382,445.217 " />
<polyline points="135.762,444.659 136.32,445.217 " />
<polyline points="154.389,445.217 135.762,442.708 " />
<polyline points="154.389,445.217 135.762,447.726 " />
<polyline points="135.762,442.708 135.762,447.726 " />
<polyline points="123.656,475.702 123.843,475.889 " />
<polyline points="121.595,475.702 122.026,476.133 " />
<polyline points="119.533,475.702 120.209,476.378 " />
<polyline points="117.471,475.702 118.392,476.623 " />
<polyline points="115.409,475.702 116.575,476.868 " />
<polyline points="113.348,475.702 114.758,477.112 " />
<polyline points="111.286,475.702 112.941,477.357 " />
<polyline points="109.224,475.702 111.124,477.602 " />
<polyline points="107.162,475.702 109.307,477.847 " />
<polyline points="106.604,477.205 107.49,478.091 " />
<polyline points="123.411,475.457 123.656,475.702 " />
<polyline points="121.029,475.136 121.595,475.702 " />
<polyline points="118.646,474.815 119.533,475.702 " />
<polyline points="116.263,474.494 117.471,475.702 " />
<polyline points="113.881,474.173 115.409,475.702 " />
<polyline points="111.498,473.852 113.348,475.702 " />
<polyline points="109.115,473.531 111.286,475.702 " />
<polyline points="106.733,473.21 109.224,475.702 " />
<polyline points="106.604,475.144 107.162,475.702 " />
<polyline points="125.231,475.702 106.604,473.193 " />
<polyline points="125.231,475.702 106.604,478.211 " />
<polyline points="106.604,473.193 106.604,478.211 " />
<polyline points="493.341,715.356 493.341,642.435 " />
<polyline points="493.341,571.846 493.341,504.751 " />
<polyline points="318.813,539.413 284.855,539.413 " />
<polyline points="318.813,720.19 284.855,720.19 " />
<polyline points="284.855,539.413 284.855,595.836 " />
<polyline points="284.855,665.595 284.855,720.19 " />
<polyline points="456.775,720.19 493.341,720.19 " />
<polyline points="491.838,523.378 490.952,522.492 " />
<polyline points="493.341,522.82 491.197,520.675 " />
<polyline points="493.341,520.758 491.441,518.858 " />
<polyline points="493.341,518.696 491.686,517.041 " />
<polyline points="493.341,516.634 491.931,515.224 " />
<polyline points="493.341,514.573 492.176,513.407 " />
<polyline points="493.341,512.511 492.42,511.59 " />
<polyline points="493.341,510.449 492.665,509.773 " />
<polyline points="493.341,508.387 492.91,507.956 " />
<polyline points="493.341,506.326 493.155,506.139 " />
<polyline points="493.9,523.378 493.341,522.82 " />
<polyline points="495.833,523.249 493.341,520.758 " />
<polyline points="495.512,520.867 493.341,518.696 " />
<polyline points="495.191,518.484 493.341,516.634 " />
<polyline points="494.87,516.101 493.341,514.573 " />
<polyline points="494.549,513.719 493.341,512.511 " />
<polyline points="494.228,511.336 493.341,510.449 " />
<polyline points="493.907,508.953 493.341,508.387 " />
<polyline points="493.587,506.571 493.341,506.326 " />
<polyline points="493.341,504.751 495.85,523.378 " />
<polyline points="493.341,504.751 490.833,523.378 " />
<polyline points="494.845,701.563 495.731,702.449 " />
<polyline points="493.341,702.122 495.486,704.266 " />
<polyline points="493.341,704.183 495.242,706.083 " />
<polyline points="493.341,706.245 494.997,707.9 " />
<polyline points="493.341,708.307 494.752,709.717 " />
<polyline points="493.341,710.369 494.507,711.534 " />
<polyline points="493.341,712.43 494.263,713.351 " />
<polyline points="493.341,714.492 494.018,715.168 " />
<polyline points="493.341,716.554 493.773,716.985 " />
<polyline points="493.341,718.616 493.528,718.803 " />
<polyline points="492.783,701.563 493.341,702.122 " />
<polyline points="490.85,701.692 493.341,704.183 " />
<polyline points="491.171,704.074 493.341,706.245 " />
<polyline points="491.492,706.457 493.341,708.307 " />
<polyline points="491.813,708.84 493.341,710.369 " />
<polyline points="492.134,711.222 493.341,712.43 " />
<polyline points="492.454,713.605 493.341,714.492 " />
<polyline points="492.775,715.988 493.341,716.554 " />
<polyline points="493.096,718.37 493.341,718.616 " />
<polyline points="493.341,720.19 490.833,701.563 " />
<polyline points="493.341,720.19 495.85,701.563 " />
<polyline points="283.351,558.04 282.465,557.154 " />
<polyline points="284.855,557.482 282.71,555.337 " />
<polyline points="284.855,555.42 282.955,553.52 " />
<polyline points="284.855,553.358 283.2,551.703 " />
<polyline points="284.855,551.297 283.444,549.886 " />
<polyline points="284.855,549.235 283.689,548.069 " />
<polyline points="284.855,547.173 283.934,546.252 " />
<polyline points="284.855,545.111 284.179,544.435 " />
<polyline points="284.855,543.049 284.423,542.618 " />
<polyline points="284.855,540.988 284.668,540.801 " />
<polyline points="285.413,558.04 284.855,557.482 " />
<polyline points="287.347,557.912 284.855,555.42 " />
<polyline points="287.026,555.529 284.855,553.358 " />
<polyline points="286.705,553.146 284.855,551.297 " />
<polyline points="286.384,550.764 284.855,549.235 " />
<polyline points="286.063,548.381 284.855,547.173 " />
<polyline points="285.742,545.998 284.855,545.111 " />
<polyline points="285.421,543.616 284.855,543.049 " />
<polyline points="285.1,541.233 284.855,540.988 " />
<polyline points="284.855,539.413 287.364,558.04 " />
<polyline points="284.855,539.413 282.346,558.04 " />
<polyline points="286.359,701.563 287.245,702.449 " />
<polyline points="284.855,702.122 287,704.266 " />
<polyline points="284.855,704.183 286.755,706.083 " />
<polyline points="284.855,706.245 286.51,707.9 " />
<polyline points="284.855,708.307 286.266,709.717 " />
<polyline points="284.855,710.369 286.021,711.534 " />
<polyline points="284.855,712.43 285.776,713.351 " />
<polyline points="284.855,714.492 285.531,715.168 " />
<polyline points="284.855,716.554 285.287,716.985 " />
<polyline points="284.855,718.616 285.042,718.803 " />
<polyline points="284.297,701.563 284.855,702.122 " />
<polyline points="282.363,701.692 284.855,704.183 " />
<polyline points="282.684,704.074 284.855,706.245 " />
<polyline points="283.005,706.457 284.855,708.307 " />
<polyline points="283.326,708.84 284.855,710.369 " />
<polyline points="283.647,711.222 284.855,712.43 " />
<polyline points="283.968,713.605 284.855,714.492 " />
<polyline points="284.289,715.988 284.855,716.554 " />
<polyline points="284.61,718.37 284.855,718.616 " />
<polyline points="284.855,720.19 282.346,701.563 " />
<polyline points="284.855,720.19 287.364,701.563 " />
<polyline points="495.85,523.378 490.833,523.378 " />
<polyline points="490.833,701.563 495.85,701.563 " />
<polyline points="282.346,701.563 287.364,701.563 " />
<polyline points="287.364,558.04 282.346,558.04 " />
<path d="M445.863,720.19  A0.828828,0.828828 0 1,0 447.521,720.19 " />
<polyline points="456.775,723.318 456.775,738.046 " />
<polyline points="318.643,403.494 317.93,403.494 " />
<polyline points="218.086,701.563 223.104,701.563 " />
<polyline points="220.595,504.424 220.595,596.401 " />
<polyline points="447.531,504.751 493.341,504.751 " />
<polyline points="445.841,445.544 445.841,504.424 " />
<polyline points="318.813,725.147 318.813,739.97 " />
<polyline points="314.288,422.27 315.398,421.715 317.064,420.049 317.064,431.712 " />
<polyline points="326.506,420.049 324.84,420.604 324.284,421.715 324.284,422.826 324.84,423.937 325.951,424.492 328.172,425.047 329.838,425.603 330.949,426.714 331.504,427.824 331.504,429.49 330.949,430.601 330.394,431.157 328.728,431.712 326.506,431.712 324.84,431.157 324.284,430.601 323.729,429.49 323.729,427.824 324.284,426.714 325.395,425.603 327.061,425.047 329.283,424.492 330.394,423.937 330.949,422.826 330.949,421.715 330.394,420.604 328.728,420.049 326.506,420.049 " />
<polyline points="346.5,420.604 347.055,421.16 347.611,420.604 347.055,420.049 346.5,420.604 " />
<polyline points="347.055,424.492 347.055,431.712 " />
<polyline points="351.498,423.937 351.498,431.712 " />
<polyline points="351.498,426.158 353.164,424.492 354.275,423.937 355.941,423.937 357.052,424.492 357.607,426.158 357.607,431.712 " />
<polyline points="362.606,430.601 362.051,431.157 362.606,431.712 363.161,431.157 362.606,430.601 " />
<polyline points="383.155,417.827 382.044,418.938 380.934,420.604 379.823,422.826 379.267,425.603 379.267,427.824 379.823,430.601 380.934,432.823 382.044,434.489 383.155,435.6 " />
<polyline points="392.041,420.049 386.487,427.824 394.818,427.824 " />
<polyline points="392.041,420.049 392.041,431.712 " />
<polyline points="404.26,420.049 398.706,420.049 398.15,425.047 398.706,424.492 400.372,423.937 402.038,423.937 403.704,424.492 404.815,425.603 405.37,427.269 405.37,428.38 404.815,430.046 403.704,431.157 402.038,431.712 400.372,431.712 398.706,431.157 398.15,430.601 397.595,429.49 " />
<polyline points="412.035,420.049 410.369,420.604 409.258,422.27 408.703,425.047 408.703,426.714 409.258,429.49 410.369,431.157 412.035,431.712 413.146,431.712 414.812,431.157 415.923,429.49 416.478,426.714 416.478,425.047 415.923,422.27 414.812,420.604 413.146,420.049 412.035,420.049 " />
<polyline points="432.029,423.937 432.029,431.712 " />
<polyline points="432.029,426.158 433.695,424.492 434.806,423.937 436.472,423.937 437.583,424.492 438.138,426.158 438.138,431.712 " />
<polyline points="438.138,426.158 439.804,424.492 440.915,423.937 442.581,423.937 443.692,424.492 444.247,426.158 444.247,431.712 " />
<polyline points="448.69,423.937 448.69,431.712 " />
<polyline points="448.69,426.158 450.357,424.492 451.467,423.937 453.133,423.937 454.244,424.492 454.8,426.158 454.8,431.712 " />
<polyline points="454.8,426.158 456.466,424.492 457.577,423.937 459.243,423.937 460.353,424.492 460.909,426.158 460.909,431.712 " />
<polyline points="464.797,417.827 465.907,418.938 467.018,420.604 468.129,422.826 468.684,425.603 468.684,427.824 468.129,430.601 467.018,432.823 465.907,434.489 464.797,435.6 " />
<polyline points="331.205,539.413 445.845,504.751 " />
<polyline points="445.841,720.19 331.205,720.19 " />
<polyline points="331.192,538.422 331.192,445.544 " />
<polyline points="445.841,445.544 331.192,445.544 " />
<polyline points="345.518,607.473 304.338,607.473 " />
<polyline points="725.487,684.424 725.487,742.739 " />
<polyline points="725.487,684.424 761.587,684.424 " />
<polyline points="725.487,712.193 747.702,712.193 " />
<polyline points="725.487,742.739 761.587,742.739 " />
<polyline points="778.248,684.424 778.248,742.739 " />
<polyline points="778.248,684.424 814.348,684.424 " />
<polyline points="778.248,712.193 800.464,712.193 " />
<polyline points="853.225,684.424 825.456,723.301 867.11,723.301 " />
<polyline points="853.225,684.424 853.225,742.739 " />
<polyline points="883.771,717.747 933.756,717.747 " />
<polyline points="961.525,695.532 967.079,692.755 975.41,684.424 975.41,742.739 " />
<polyline points="183.445,721.033 183.258,721.22 " />
<polyline points="183.445,718.971 183.014,719.403 " />
<polyline points="183.445,716.909 182.769,717.585 " />
<polyline points="183.445,714.847 182.524,715.768 " />
<polyline points="183.445,712.786 182.28,713.951 " />
<polyline points="183.445,710.724 182.035,712.134 " />
<polyline points="183.445,708.662 181.79,710.317 " />
<polyline points="183.445,706.6 181.545,708.5 " />
<polyline points="183.445,704.539 181.301,706.683 " />
<polyline points="181.942,703.98 181.056,704.866 " />
<polyline points="183.691,720.787 183.445,721.033 " />
<polyline points="184.011,718.405 183.445,718.971 " />
<polyline points="184.332,716.022 183.445,716.909 " />
<polyline points="184.653,713.639 183.445,714.847 " />
<polyline points="184.974,711.257 183.445,712.786 " />
<polyline points="185.295,708.874 183.445,710.724 " />
<polyline points="185.616,706.491 183.445,708.662 " />
<polyline points="185.937,704.109 183.445,706.6 " />
<polyline points="184.004,703.98 183.445,704.539 " />
<polyline points="183.445,722.607 185.954,703.98 " />
<polyline points="183.445,722.607 180.937,703.98 " />
<polyline points="180.937,703.98 185.954,703.98 " />
<polyline points="485.369,630.26 498.199,635.147 " />
<polyline points="485.369,630.26 498.199,625.373 " />
<polyline points="493.922,633.315 493.922,627.205 " />
<polyline points="489.646,610.1 498.199,603.379 " />
<polyline points="489.646,603.379 498.199,610.1 " />
<polyline points="489.646,579.553 498.199,579.553 " />
<polyline points="491.479,579.553 490.257,580.775 489.646,581.997 489.646,583.83 490.257,585.052 491.479,586.274 493.311,586.885 494.533,586.885 496.366,586.274 497.588,585.052 498.199,583.83 498.199,581.997 497.588,580.775 496.366,579.553 " />
<polyline points="278.143,235.463 289.807,235.463 " />
<polyline points="278.143,235.463 278.143,230.465 278.699,228.798 279.254,228.243 280.365,227.688 281.476,227.688 282.587,228.243 283.142,228.798 283.697,230.465 " />
<polyline points="283.697,235.463 283.697,230.465 284.253,228.798 284.808,228.243 285.919,227.688 287.585,227.688 288.696,228.243 289.251,228.798 289.807,230.465 289.807,235.463 " />
<polyline points="282.031,212.692 289.807,206.583 " />
<polyline points="282.031,206.583 289.807,212.692 " />
<polyline points="278.143,191.032 289.807,191.032 " />
<polyline points="283.697,191.032 282.587,189.922 282.031,188.811 282.031,187.145 282.587,186.034 283.697,184.923 285.363,184.368 286.474,184.368 288.14,184.923 289.251,186.034 289.807,187.145 289.807,188.811 289.251,189.922 288.14,191.032 " />
<polyline points="378.133,186.207 379.019,185.321 " />
<polyline points="378.691,187.711 380.836,185.566 " />
<polyline points="380.753,187.711 382.653,185.811 " />
<polyline points="382.814,187.711 384.47,186.055 " />
<polyline points="384.876,187.711 386.287,186.3 " />
<polyline points="386.938,187.711 388.104,186.545 " />
<polyline points="389,187.711 389.921,186.79 " />
<polyline points="391.061,187.711 391.738,187.034 " />
<polyline points="393.123,187.711 393.555,187.279 " />
<polyline points="395.185,187.711 395.372,187.524 " />
<polyline points="378.133,188.269 378.691,187.711 " />
<polyline points="378.261,190.202 380.753,187.711 " />
<polyline points="380.644,189.881 382.814,187.711 " />
<polyline points="383.026,189.561 384.876,187.711 " />
<polyline points="385.409,189.24 386.938,187.711 " />
<polyline points="387.792,188.919 389,187.711 " />
<polyline points="390.174,188.598 391.061,187.711 " />
<polyline points="392.557,188.277 393.123,187.711 " />
<polyline points="394.94,187.956 395.185,187.711 " />
<polyline points="396.76,187.711 378.133,190.22 " />
<polyline points="396.76,187.711 378.133,185.202 " />
<polyline points="378.133,190.22 378.133,185.202 " />
<polyline points="967.842,316.209 967.842,100.769 " />
<polyline points="831.54,233.448 843.203,233.448 " />
<polyline points="831.54,233.448 831.54,228.449 832.095,226.783 832.651,226.228 833.761,225.672 834.872,225.672 835.983,226.228 836.538,226.783 837.094,228.449 " />
<polyline points="837.094,233.448 837.094,228.449 837.649,226.783 838.204,226.228 839.315,225.672 840.981,225.672 842.092,226.228 842.647,226.783 843.203,228.449 843.203,233.448 " />
<polyline points="835.427,210.677 843.203,204.568 " />
<polyline points="835.427,204.568 843.203,210.677 " />
<polyline points="831.54,189.017 843.203,189.017 " />
<polyline points="837.094,189.017 835.983,187.906 835.427,186.795 835.427,185.129 835.983,184.018 837.094,182.908 838.76,182.352 839.871,182.352 841.537,182.908 842.647,184.018 843.203,185.129 843.203,186.795 842.647,187.906 841.537,189.017 " />
<polyline points="996.739,227.73 1009.57,232.618 " />
<polyline points="996.739,227.73 1009.57,222.843 " />
<polyline points="1005.29,230.785 1005.29,224.676 " />
<polyline points="1001.01,207.57 1009.57,200.85 " />
<polyline points="1001.01,200.85 1009.57,207.57 " />
<polyline points="1001.01,177.024 1009.57,177.024 " />
<polyline points="1002.85,177.024 1001.63,178.246 1001.01,179.468 1001.01,181.3 1001.63,182.522 1002.85,183.744 1004.68,184.355 1005.9,184.355 1007.74,183.744 1008.96,182.522 1009.57,181.3 1009.57,179.468 1008.96,178.246 1007.74,177.024 " />
<polyline points="873.471,330.436 871.805,330.991 870.694,332.658 870.139,335.434 870.139,337.101 870.694,339.878 871.805,341.544 873.471,342.099 874.582,342.099 876.248,341.544 877.359,339.878 877.914,337.101 877.914,335.434 877.359,332.658 876.248,330.991 874.582,330.436 873.471,330.436 " />
<polyline points="965.149,352.576 966.26,352.021 967.926,350.355 967.926,362.018 " />
<polyline points="902.014,219.416 902.014,228.73 " />
<polyline points="898.909,219.416 905.118,219.416 " />
<polyline points="909.11,222.521 908.223,222.965 907.336,223.852 906.893,225.182 906.893,226.069 907.336,227.4 908.223,228.287 909.11,228.73 910.441,228.73 911.328,228.287 912.215,227.4 912.658,226.069 912.658,225.182 912.215,223.852 911.328,222.965 910.441,222.521 909.11,222.521 " />
<polyline points="925.077,219.416 925.077,228.73 " />
<polyline points="925.077,219.416 930.843,219.416 " />
<polyline points="925.077,223.852 928.626,223.852 " />
<polyline points="937.94,222.521 937.94,228.73 " />
<polyline points="937.94,223.852 937.053,222.965 936.166,222.521 934.835,222.521 933.948,222.965 933.061,223.852 932.617,225.182 932.617,226.069 933.061,227.4 933.948,228.287 934.835,228.73 936.166,228.73 937.053,228.287 937.94,227.4 " />
<polyline points="941.488,222.521 941.488,228.73 " />
<polyline points="941.488,224.295 942.818,222.965 943.706,222.521 945.036,222.521 945.923,222.965 946.367,224.295 946.367,228.73 " />
</g>
<g clip-path="url(#clipId0)" fill="rgb(0,0,0)" stroke="rgb(0,0,0)" stroke-width="0.35" >
<path d="M934.318,187.145 934.318,188.276 892.71,188.276 892.71,187.145 z" />
<path d="M934.318,185.902 934.318,189.52 946.982,187.711 946.982,187.711 z" />
</g>
<g clip-path="url(#clipId0)" fill="none" stroke="rgb(0,0,0)" stroke-width="0.35" >
<polyline points="916.218,155.778 914.874,156.45 913.53,157.794 912.858,159.138 912.186,161.154 912.186,164.514 912.858,166.53 913.53,167.874 914.874,169.219 916.218,169.891 918.906,169.891 920.25,169.219 921.595,167.874 922.267,166.53 922.939,164.514 922.939,161.154 922.267,159.138 921.595,157.794 920.25,156.45 918.906,155.778 916.218,155.778 " />
<polyline points="918.234,167.202 922.267,171.235 " />
<polyline points="933.857,190.22 933.857,185.202 " />
<polyline points="278.948,657.84 290.611,657.84 " />
<polyline points="278.948,657.84 278.948,652.841 279.504,651.175 280.059,650.62 281.17,650.065 282.28,650.065 283.391,650.62 283.947,651.175 284.502,652.841 " />
<polyline points="284.502,657.84 284.502,652.841 285.057,651.175 285.613,650.62 286.724,650.065 288.39,650.065 289.5,650.62 290.056,651.175 290.611,652.841 290.611,657.84 " />
<polyline points="282.836,635.069 290.611,628.96 " />
<polyline points="282.836,628.96 290.611,635.069 " />
<polyline points="278.948,613.409 290.611,613.409 " />
<polyline points="284.502,613.409 283.391,612.298 282.836,611.188 282.836,609.522 283.391,608.411 284.502,607.3 286.168,606.745 287.279,606.745 288.945,607.3 290.056,608.411 290.611,609.522 290.611,611.188 290.056,612.298 288.945,613.409 " />
<polyline points="371.067,619.531 371.067,628.845 " />
<polyline points="367.962,619.531 374.171,619.531 " />
<polyline points="378.163,622.636 377.276,623.079 376.389,623.966 375.945,625.297 375.945,626.184 376.389,627.514 377.276,628.402 378.163,628.845 379.494,628.845 380.381,628.402 381.268,627.514 381.711,626.184 381.711,625.297 381.268,623.966 380.381,623.079 379.494,622.636 378.163,622.636 " />
<polyline points="394.13,619.531 394.13,628.845 " />
<polyline points="394.13,619.531 399.896,619.531 " />
<polyline points="394.13,623.966 397.678,623.966 " />
<polyline points="406.993,622.636 406.993,628.845 " />
<polyline points="406.993,623.966 406.105,623.079 405.218,622.636 403.888,622.636 403.001,623.079 402.114,623.966 401.67,625.297 401.67,626.184 402.114,627.514 403.001,628.402 403.888,628.845 405.218,628.845 406.105,628.402 406.993,627.514 " />
<polyline points="410.541,622.636 410.541,628.845 " />
<polyline points="410.541,624.41 411.871,623.079 412.758,622.636 414.089,622.636 414.976,623.079 415.42,624.41 415.42,628.845 " />
</g>
<g clip-path="url(#clipId0)" fill="rgb(0,0,0)" stroke="rgb(0,0,0)" stroke-width="0.35" >
<path d="M403.371,587.26 403.371,588.391 361.762,588.391 361.762,587.26 z" />
<path d="M403.371,586.016 403.371,589.634 416.035,587.825 416.035,587.825 z" />
</g>
<g clip-path="url(#clipId0)" fill="none" stroke="rgb(0,0,0)" stroke-width="0.35" >
<polyline points="385.271,555.893 383.927,556.565 382.583,557.909 381.911,559.253 381.239,561.269 381.239,564.629 381.911,566.645 382.583,567.989 383.927,569.333 385.271,570.005 387.959,570.005 389.303,569.333 390.647,567.989 391.319,566.645 391.991,564.629 391.991,561.269 391.319,559.253 390.647,557.909 389.303,556.565 387.959,555.893 385.271,555.893 " />
<polyline points="387.287,567.317 391.319,571.349 " />
<polyline points="402.91,590.334 402.91,585.317 " />
<polyline points="440.712,232.219 453.542,237.106 " />
<polyline points="440.712,232.219 453.542,227.331 " />
<polyline points="449.265,235.273 449.265,229.164 " />
<polyline points="444.989,212.058 453.542,205.338 " />
<polyline points="444.989,205.338 453.542,212.058 " />
<polyline points="444.989,181.512 453.542,181.512 " />
<polyline points="446.821,181.512 445.6,182.734 444.989,183.956 444.989,185.789 445.6,187.011 446.821,188.232 448.654,188.843 449.876,188.843 451.709,188.232 452.931,187.011 453.542,185.789 453.542,183.956 452.931,182.734 451.709,181.512 " />
<path d="M154.389,169.772  A69.9783,69.9783 0 0,0 14.4321,169.772 " />
<polyline points="14.4321,169.772 14.4321,40.5872 " />
<polyline points="154.389,169.772 154.389,40.5872 " />
<path d="M14.4321,245.582  A69.9783,69.9783 0 0,0 154.389,245.582 " />
<path d="M154.389,574.402  A69.9783,69.9783 0 0,0 14.4321,574.402 " />
<polyline points="14.4321,574.402 14.4321,445.217 " />
<polyline points="154.389,574.402 154.389,445.217 " />
<path d="M14.4321,650.212  A69.9783,69.9783 0 0,0 154.389,650.212 " />
<path d="M689.279,170.42  A69.9783,69.9783 0 0,0 549.322,170.42 " />
<path d="M549.322,246.23  A69.9783,69.9783 0 0,0 689.279,246.23 " />
<polyline points="549.322,170.42 549.322,41.2354 " />
<polyline points="689.279,170.42 689.279,41.2354 " />
</g>
</svg>
