<?xml version="1.0" standalone="no"?>
<svg viewBox="0 0 1024 768" version="1.1" xmlns="http://www.w3.org/2000/svg" xmlns:xlink="http://www.w3.org/1999/xlink" stroke-linecap="round" stroke-linejoin="round" fill-rule="evenodd" xml:space="preserve" >
<defs >
<clipPath id="clipId0" >
<path d="M0,768 1024,768 1024,0 0,0 z" />
</clipPath>
</defs>
<g clip-path="url(#clipId0)" fill="none" stroke="rgb(0,0,0)" stroke-width="0.1" />
<g clip-path="url(#clipId0)" fill="none" stroke="rgb(0,0,0)" stroke-width="0.5" >
<polyline points="789.779,110.693 789.779,358.523 " />
<polyline points="573.594,358.523 562.995,369.122 " />
<polyline points="659.095,465.223 765.795,358.523 " />
<polyline points="549.611,358.523 549.611,110.693 " />
<polyline points="549.611,110.693 564.6,110.693 " />
<polyline points="549.611,358.523 564.6,358.523 " />
<polyline points="789.779,358.523 774.789,358.523 " />
<path d="M312.003,166.655  A55.9615,55.9615 0 0,0 200.08,166.655 " />
<path d="M200.08,302.561  A55.9615,55.9615 0 0,0 312.003,302.561 " />
<polyline points="200.08,166.655 200.08,302.561 " />
<polyline points="312.003,166.655 312.003,302.561 " />
<polyline points="564.6,358.523 564.6,110.693 " />
<polyline points="566.599,358.523 566.599,110.693 " />
<polyline points="566.599,110.693 772.79,110.693 " />
<path d="M566.599,110.693  A1.04095,1.04095 0 0,0 564.6,110.693 " />
<polyline points="566.599,358.523 573.594,358.523 " />
<path d="M564.6,358.523  A1.04095,1.04095 0 0,0 566.599,358.523 " />
<polyline points="772.79,110.693 772.79,358.523 " />
<polyline points="774.789,110.693 774.789,358.523 " />
<polyline points="774.789,110.693 789.779,110.693 " />
<path d="M774.789,110.693  A1.04095,1.04095 0 0,0 772.79,110.693 " />
<polyline points="772.79,358.523 765.795,358.523 " />
<path d="M772.79,358.523  A1.04095,1.04095 0 0,0 774.789,358.523 " />
<polyline points="561.582,370.535 657.682,466.636 " />
<polyline points="562.995,369.122 659.095,465.223 " />
<path d="M562.995,369.122  A1.04095,1.04095 0 0,0 561.582,370.535 " />
<path d="M657.682,466.636  A1.04095,1.04095 0 0,0 659.095,465.223 " />
<path d="M224.064,454.623  A33.9178,33.9178 0 0,0 288.02,454.623 " />
<path d="M288.02,403.747  A33.9178,33.9178 0 0,0 224.064,403.747 " />
<polyline points="224.064,403.747 224.064,454.623 " />
<polyline points="288.02,403.747 288.02,454.623 " />
<polyline points="224.064,348.486 224.064,403.747 " />
<polyline points="288.02,348.486 288.02,403.747 " />
<path d="M288.02,391.606  A33.9178,33.9178 0 0,0 224.064,391.606 " />
<path d="M288.02,393.147  A33.9178,33.9178 0 0,0 224.064,393.147 " />
<path d="M765.795,358.523  A465.099,465.099 0 0,0 573.594,358.523 " />
</g>
<g clip-path="url(#clipId0)" fill="none" stroke="rgb(0,0,0)" stroke-width="0.25" >
<polyline points="200.08,166.655 312.003,166.655 " stroke-dasharray="66.620887,13.324177,13.324177,13.324177" />
<polyline points="256.042,110.693 256.042,222.616 " stroke-dasharray="66.620887,13.324177,13.324177,13.324177" />
<polyline points="256.042,110.693 256.042,92.5631 " stroke-dasharray="66.620887,13.324177,13.324177,13.324177" />
<polyline points="200.08,166.655 178.366,166.655 " stroke-dasharray="66.620887,13.324177,13.324177,13.324177" />
<polyline points="312.003,166.655 334.939,166.655 " stroke-dasharray="66.620887,13.324177,13.324177,13.324177" />
<polyline points="200.08,302.561 178.366,302.561 " stroke-dasharray="66.620887,13.324177,13.324177,13.324177" />
<polyline points="200.08,302.561 312.003,302.561 " stroke-dasharray="66.620887,13.324177,13.324177,13.324177" />
<polyline points="256.042,358.523 256.042,246.6 " stroke-dasharray="66.620887,13.324177,13.324177,13.324177" />
<polyline points="256.042,358.523 256.042,477.235 " stroke-dasharray="66.620887,13.324177,13.324177,13.324177" />
<polyline points="312.003,302.561 334.939,302.561 " stroke-dasharray="66.620887,13.324177,13.324177,13.324177" />
<polyline points="256.042,222.616 256.042,246.6 " stroke-dasharray="66.620887,13.324177,13.324177,13.324177" />
<polyline points="668.595,712.504 668.595,760.471 " />
<polyline points="670.879,714.788 670.879,758.186 " />
<polyline points="668.595,712.504 696.005,712.504 " />
<polyline points="670.879,714.788 696.005,714.788 696.005,712.504 " />
<polyline points="670.879,735.345 684.584,735.345 684.584,737.629 " />
<polyline points="670.879,737.629 684.584,737.629 " />
<polyline points="670.879,758.186 696.005,758.186 696.005,760.471 " />
<polyline points="668.595,760.471 696.005,760.471 " />
<polyline points="711.994,712.504 711.994,760.471 " />
<polyline points="714.278,714.788 714.278,760.471 711.994,760.471 " />
<polyline points="711.994,712.504 739.404,712.504 " />
<polyline points="714.278,714.788 739.404,714.788 739.404,712.504 " />
<polyline points="714.278,735.345 727.983,735.345 727.983,737.629 " />
<polyline points="714.278,737.629 727.983,737.629 " />
<polyline points="755.393,712.504 753.109,733.061 " />
<polyline points="757.677,714.788 755.393,730.777 " />
<polyline points="755.393,712.504 778.234,712.504 778.234,714.788 " />
<polyline points="757.677,714.788 778.234,714.788 " />
<polyline points="755.393,730.777 762.245,728.493 769.098,728.493 775.95,730.777 780.518,735.345 782.803,742.197 782.803,746.766 780.518,753.618 775.95,758.186 769.098,760.471 762.245,760.471 755.393,758.186 753.109,755.902 750.824,751.334 753.109,751.334 " />
<polyline points="753.109,733.061 755.393,733.061 759.961,730.777 769.098,730.777 775.95,733.061 780.518,739.913 " />
<polyline points="771.382,730.777 778.234,735.345 780.518,742.197 780.518,746.766 778.234,753.618 771.382,758.186 " />
<polyline points="780.518,749.05 775.95,755.902 769.098,758.186 762.245,758.186 755.393,755.902 753.109,751.334 " />
<polyline points="759.961,758.186 753.109,753.618 " />
<polyline points="798.792,737.629 837.622,737.629 837.622,739.913 " />
<polyline points="798.792,737.629 798.792,739.913 837.622,739.913 " />
<polyline points="858.179,712.504 883.305,712.504 867.316,733.061 " />
<polyline points="858.179,712.504 858.179,714.788 881.021,714.788 " />
<polyline points="881.021,712.504 865.032,733.061 " />
<polyline points="867.316,730.777 871.884,730.777 878.737,733.061 883.305,737.629 885.589,744.482 885.589,746.766 883.305,753.618 878.737,758.186 871.884,760.471 865.032,760.471 858.179,758.186 855.895,755.902 853.611,751.334 855.895,751.334 " />
<polyline points="865.032,733.061 871.884,733.061 878.737,735.345 883.305,742.197 " />
<polyline points="874.168,733.061 881.021,737.629 883.305,744.482 883.305,746.766 881.021,753.618 874.168,758.186 " />
<polyline points="883.305,749.05 878.737,755.902 871.884,758.186 865.032,758.186 858.179,755.902 855.895,751.334 " />
<polyline points="862.748,758.186 855.895,753.618 " />
<polyline points="911.394,294.147 943.372,306.329 " />
<polyline points="911.394,294.147 943.372,281.965 " />
<polyline points="932.713,301.76 932.713,286.533 " />
<polyline points="922.054,243.895 943.372,227.145 " />
<polyline points="922.054,227.145 943.372,243.895 " />
<polyline points="922.054,167.757 943.372,167.757 " />
<polyline points="926.622,167.757 923.576,170.803 922.054,173.848 922.054,178.417 923.576,181.462 926.622,184.508 931.19,186.03 934.236,186.03 938.804,184.508 941.85,181.462 943.372,178.417 943.372,173.848 941.85,170.803 938.804,167.757 " />
</g>
<g clip-path="url(#clipId0)" fill="none" stroke="rgb(0,0,0)" stroke-width="0.5" >
<polyline points="657.682,466.636 561.582,370.535 " />
<polyline points="646.161,478.157 598.111,430.107 " />
<polyline points="646.161,478.157 657.682,466.636 " />
<polyline points="550.358,381.581 598.111,430.107 " />
<polyline points="550.358,381.581 561.582,370.535 " />
</g>
<g clip-path="url(#clipId0)" fill="none" stroke="rgb(0,0,0)" stroke-width="0.25" >
<polyline points="266.238,552.536 263.192,549.491 260.147,547.968 255.579,547.968 252.533,549.491 249.488,552.536 247.965,557.105 247.965,560.15 249.488,564.719 252.533,567.764 255.579,569.287 260.147,569.287 263.192,567.764 266.238,564.719 " />
<polyline points="579.624,364.553 663.601,448.53 " />
</g>
<g clip-path="url(#clipId0)" fill="none" stroke="rgb(0,0,0)" stroke-width="0.5" >
<polyline points="617.705,234.608 492.981,234.608 " />
<polyline points="873.178,234.608 741.72,234.608 " />
<polyline points="651.459,376.28 573.877,453.863 " />
</g>
<g clip-path="url(#clipId0)" fill="rgb(0,0,0)" stroke="rgb(0,0,0)" stroke-width="0.25" >
<path d="M842.479,239.724 842.479,229.491 873.178,234.608 873.178,234.608 z" />
<path d="M587.006,239.724 587.006,229.491 617.705,234.608 617.705,234.608 z" />
</g>
<g clip-path="url(#clipId0)" fill="none" stroke="rgb(0,0,0)" stroke-width="0.5" >
<polyline points="538.224,393.714 480.752,451.186 " />
<polyline points="634.414,489.904 576.942,547.376 " />
<polyline points="576.942,547.376 480.752,451.186 " />
<polyline points="288.02,480.128 288.02,525.055 " />
<polyline points="288.02,525.055 223.842,525.055 " />
<polyline points="223.842,525.055 223.982,480.625 " />
</g>
<g clip-path="url(#clipId0)" fill="rgb(0,0,0)" stroke="rgb(0,0,0)" stroke-width="0.25" >
<path d="M506.077,469.276 498.842,476.511 480.752,451.186 480.752,451.186 z" />
<path d="M551.617,529.286 558.853,522.051 576.942,547.376 576.942,547.376 z" />
<path d="M129.889,141.392 119.656,141.392 124.773,110.693 124.773,110.693 z" />
<path d="M119.656,327.824 129.889,327.824 124.773,358.523 124.773,358.523 z" />
<path d="M318.719,519.938 318.719,530.171 288.02,525.055 288.02,525.055 z" />
<path d="M193.144,530.171 193.144,519.938 223.842,525.055 223.842,525.055 z" />
</g>
<g clip-path="url(#clipId0)" fill="none" stroke="rgb(0,0,0)" stroke-width="0.5" >
<polyline points="789.779,110.693 789.779,358.523 " />
<polyline points="807.992,110.693 887.486,110.693 " />
<polyline points="887.486,110.693 887.486,359.629 " />
<polyline points="887.486,359.47 807.992,358.699 " />
</g>
<g clip-path="url(#clipId0)" fill="rgb(0,0,0)" stroke="rgb(0,0,0)" stroke-width="0.25" >
<path d="M892.603,141.392 882.37,141.392 887.486,110.693 887.486,110.693 z" />
<path d="M882.37,328.93 892.603,328.93 887.486,359.629 887.486,359.629 z" />
</g>
<g clip-path="url(#clipId0)" fill="none" stroke="rgb(0,0,0)" stroke-width="0.25" >
<polyline points="471.49,485.967 472.567,482.737 472.567,478.43 471.49,475.2 467.183,470.893 463.953,469.816 459.646,469.816 456.416,470.893 452.109,473.046 446.725,478.43 444.571,482.737 443.495,485.967 443.495,490.274 444.571,493.504 448.878,497.811 452.109,498.888 456.416,498.888 459.646,497.811 " />
<polyline points="498.409,517.193 495.179,544.112 " />
<polyline points="510.253,529.037 483.335,532.268 " />
<polyline points="549.017,574.261 549.017,569.954 547.94,566.724 544.71,563.494 541.479,562.417 537.172,562.417 532.865,564.57 530.712,566.724 528.558,571.031 528.558,575.338 529.635,578.568 532.865,581.798 536.096,582.875 540.403,582.875 " />
<polyline points="92.8098,214.312 80.6277,246.29 " />
<polyline points="92.8098,214.312 104.992,246.29 " />
<polyline points="85.196,235.631 100.424,235.631 " />
</g>
<g clip-path="url(#clipId0)" fill="none" stroke="rgb(0,0,0)" stroke-width="0.5" >
<polyline points="312.003,144.658 312.003,41.6141 " />
<polyline points="312.003,41.6141 200.08,41.6141 " />
<polyline points="200.08,144.658 200.08,41.6141 " />
</g>
<g clip-path="url(#clipId0)" fill="rgb(0,0,0)" stroke="rgb(0,0,0)" stroke-width="0.25" >
<path d="M281.305,46.7305 281.305,36.4976 312.003,41.6141 312.003,41.6141 z" />
<path d="M230.779,36.4976 230.779,46.7305 200.08,41.6141 200.08,41.6141 z" />
</g>
<g clip-path="url(#clipId0)" fill="none" stroke="rgb(0,0,0)" stroke-width="0.25" >
<polyline points="266.965,7.52941 266.965,28.8481 " />
<polyline points="266.965,12.0977 263.919,9.05217 260.874,7.52941 256.305,7.52941 253.26,9.05217 250.214,12.0977 248.691,16.666 248.691,19.7115 250.214,24.2798 253.26,27.3253 256.305,28.8481 260.874,28.8481 263.919,27.3253 266.965,24.2798 " />
</g>
<g clip-path="url(#clipId0)" fill="none" stroke="rgb(0,0,0)" stroke-width="0.5" >
<polyline points="789.779,110.693 789.779,72.8694 " />
<polyline points="549.611,110.693 549.611,72.8694 " />
<polyline points="674.399,506.395 646.161,478.157 " />
</g>
<g clip-path="url(#clipId0)" fill="none" stroke="rgb(0,0,0)" stroke-width="0.25" >
<polyline points="477.476,168.303 474.43,169.826 471.385,172.872 469.862,175.917 468.339,180.485 468.339,188.099 469.862,192.667 471.385,195.713 474.43,198.759 477.476,200.281 483.567,200.281 486.612,198.759 489.658,195.713 491.18,192.667 492.703,188.099 492.703,180.485 491.18,175.917 489.658,172.872 486.612,169.826 483.567,168.303 477.476,168.303 " />
<polyline points="482.044,194.19 491.18,203.327 " />
<polyline points="541.753,434.381 538.707,435.904 535.661,438.949 534.139,441.995 532.616,446.563 532.616,454.177 534.139,458.745 535.661,461.791 538.707,464.836 541.753,466.359 547.844,466.359 550.889,464.836 553.935,461.791 555.457,458.745 556.98,454.177 556.98,446.563 555.457,441.995 553.935,438.949 550.889,435.904 547.844,434.381 541.753,434.381 " />
<polyline points="546.321,460.268 555.457,469.405 " />
<polyline points="819.674,162.693 816.629,164.216 813.583,167.262 812.061,170.307 810.538,174.876 810.538,182.489 812.061,187.058 813.583,190.103 816.629,193.149 819.674,194.671 825.766,194.671 828.811,193.149 831.857,190.103 833.379,187.058 834.902,182.489 834.902,174.876 833.379,170.307 831.857,167.262 828.811,164.216 825.766,162.693 819.674,162.693 " />
<polyline points="824.243,188.58 833.379,197.717 " />
<polyline points="562.889,40.257 561.366,37.2115 556.798,35.6887 552.23,35.6887 547.662,37.2115 546.139,40.257 547.662,43.3025 550.707,44.8253 558.321,46.3481 561.366,47.8708 562.889,50.9163 562.889,52.4391 561.366,55.4846 556.798,57.0074 552.23,57.0074 547.662,55.4846 546.139,52.4391 " />
<polyline points="680.993,508.857 680.993,540.835 " />
<polyline points="680.993,524.085 684.038,521.039 687.084,519.517 691.652,519.517 694.698,521.039 697.743,524.085 699.266,528.653 699.266,531.699 697.743,536.267 694.698,539.313 691.652,540.835 687.084,540.835 684.038,539.313 680.993,536.267 " />
<polyline points="796.5,40.257 793.454,37.2115 790.409,35.6887 785.841,35.6887 782.795,37.2115 779.75,40.257 778.227,44.8253 778.227,47.8708 779.75,52.4391 782.795,55.4846 785.841,57.0074 790.409,57.0074 793.454,55.4846 796.5,52.4391 " />
<polyline points="519.876,198.677 518.354,195.632 513.785,194.109 509.217,194.109 504.649,195.632 503.126,198.677 504.649,201.723 507.694,203.246 515.308,204.768 518.354,206.291 519.876,209.337 519.876,210.859 518.354,213.905 513.785,215.428 509.217,215.428 504.649,213.905 503.126,210.859 " />
<polyline points="568.61,462.817 568.61,494.795 " />
<polyline points="568.61,478.045 571.656,474.999 574.701,473.476 579.27,473.476 582.315,474.999 585.361,478.045 586.884,482.613 586.884,485.658 585.361,490.227 582.315,493.272 579.27,494.795 574.701,494.795 571.656,493.272 568.61,490.227 " />
<polyline points="863.132,194.445 860.086,191.399 857.041,189.876 852.472,189.876 849.427,191.399 846.381,194.445 844.858,199.013 844.858,202.058 846.381,206.627 849.427,209.672 852.472,211.195 857.041,211.195 860.086,209.672 863.132,206.627 " />
</g>
<g clip-path="url(#clipId0)" fill="rgb(0,0,0)" stroke="rgb(0,0,0)" stroke-width="0.25" >
<path d="M638.261,381.016 645.31,388.433 664.039,363.578 664.039,363.578 z" />
</g>
<g clip-path="url(#clipId0)" fill="none" stroke="rgb(0,0,0)" stroke-width="0.5" >
<polyline points="492.981,234.608 455.728,234.608 " />
<polyline points="232.699,110.693 124.773,110.693 " />
<polyline points="232.699,358.523 124.773,358.523 " />
<polyline points="124.773,110.693 124.773,358.523 " />
</g>
</svg>
