<?xml version="1.0" standalone="no"?>
<svg viewBox="0 0 1024 768" version="1.1" xmlns="http://www.w3.org/2000/svg" xmlns:xlink="http://www.w3.org/1999/xlink" stroke-linecap="round" stroke-linejoin="round" fill-rule="evenodd" xml:space="preserve" >
<defs >
<clipPath id="clipId0" >
<path d="M0,768 1024,768 1024,0 0,0 z" />
</clipPath>
</defs>
<g clip-path="url(#clipId0)" fill="none" stroke="rgb(0,0,0)" stroke-width="0.1" />
<g clip-path="url(#clipId0)" fill="none" stroke="rgb(0,0,0)" stroke-width="0.25" >
<polyline points="90.6084,356.816 90.6084,169.193 " />
<polyline points="90.6084,187.955 898.513,187.955 " />
<polyline points="90.6084,338.054 898.513,338.054 " />
<polyline points="90.6084,169.193 898.513,169.193 " />
<polyline points="90.6084,356.816 898.513,356.816 " />
<polyline points="319.613,169.193 319.613,7.52941 " />
<polyline points="319.613,356.816 319.613,518.48 " />
<polyline points="898.513,422.818 898.513,283.142 " />
<polyline points="863.635,283.142 933.392,242.867 " />
<polyline points="863.635,283.142 898.513,283.142 " />
<polyline points="933.392,242.867 898.513,242.867 " />
<polyline points="898.513,242.867 898.513,103.191 " />
<polyline points="90.6084,366.197 90.6084,450.669 " />
<polyline points="113.123,423.651 176.163,423.651 " />
<polyline points="297.098,423.651 234.058,423.651 " />
</g>
<g clip-path="url(#clipId0)" fill="rgb(0,0,0)" stroke="rgb(0,0,0)" stroke-width="0.25" >
<path d="M113.123,427.404 113.123,419.899 90.6084,423.651 90.6084,423.651 z" />
<path d="M297.098,427.404 297.098,419.899 319.613,423.651 319.613,423.651 z" />
</g>
<g clip-path="url(#clipId0)" fill="none" stroke="rgb(0,0,0)" stroke-width="0.25" >
<polyline points="202.966,412.394 202.966,434.909 215.832,434.909 " />
<polyline points="194.932,210.47 194.932,232.985 " />
<polyline points="194.932,146.679 194.932,124.164 " />
<polyline points="194.932,124.164 172.417,124.164 " />
</g>
<g clip-path="url(#clipId0)" fill="rgb(0,0,0)" stroke="rgb(0,0,0)" stroke-width="0.25" >
<path d="M198.684,210.47 191.179,210.47 194.932,187.955 194.932,187.955 z" />
<path d="M198.684,146.679 191.179,146.679 194.932,169.193 194.932,169.193 z" />
</g>
<g clip-path="url(#clipId0)" fill="none" stroke="rgb(0,0,0)" stroke-width="0.25" >
<polyline points="146.686,112.906 146.686,131.133 147.758,134.349 149.902,135.421 152.047,135.421 " />
<polyline points="143.47,120.411 150.974,120.411 " />
<polyline points="495.36,263.005 253.841,263.005 " />
</g>
<g clip-path="url(#clipId0)" fill="rgb(0,0,0)" stroke="rgb(0,0,0)" stroke-width="0.25" >
<path d="M495.36,259.252 495.36,266.757 517.875,263.005 517.875,263.005 z" />
</g>
<g clip-path="url(#clipId0)" fill="none" stroke="rgb(0,0,0)" stroke-width="0.25" >
<polyline points="627.4,253.193 627.4,275.708 " />
<polyline points="642.41,253.193 642.41,275.708 " />
<polyline points="627.4,263.914 642.41,263.914 " />
<polyline points="672.429,260.698 684.223,275.708 " />
<polyline points="684.223,260.698 672.429,275.708 " />
<polyline points="712.098,253.193 717.459,275.708 " />
<polyline points="722.819,253.193 717.459,275.708 " />
<polyline points="722.819,253.193 728.18,275.708 " />
<polyline points="733.541,253.193 728.18,275.708 " />
<polyline points="319.613,460.73 376.274,404.069 " />
<polyline points="319.613,434.196 376.274,377.535 " />
<polyline points="319.613,407.662 370.46,356.816 " />
<polyline points="319.613,381.129 343.926,356.816 " />
<polyline points="319.613,487.264 376.274,430.603 " />
<polyline points="319.613,513.798 376.274,457.136 " />
<polyline points="341.465,518.48 376.274,483.67 " />
<polyline points="367.999,518.48 376.274,510.204 " />
<polyline points="92.3786,356.816 90.6084,355.046 " />
<polyline points="92.3786,187.955 90.6084,186.185 " />
<polyline points="319.613,115.79 376.274,59.1288 " />
<polyline points="319.613,89.2564 376.274,32.595 " />
<polyline points="319.613,62.7225 374.806,7.52941 " />
<polyline points="319.613,36.1887 348.272,7.52941 " />
<polyline points="319.613,9.65488 321.738,7.52941 " />
<polyline points="319.613,142.324 376.274,85.6627 " />
<polyline points="319.613,168.858 376.274,112.197 " />
<polyline points="345.811,169.193 376.274,138.73 " />
<polyline points="372.345,169.193 376.274,165.264 " />
<polyline points="352.258,221.639 350.114,222.712 347.97,224.856 346.898,227 345.826,230.216 345.826,235.577 346.898,238.793 347.97,240.938 350.114,243.082 352.258,244.154 356.547,244.154 358.691,243.082 360.836,240.938 361.908,238.793 362.98,235.577 362.98,230.216 361.908,227 360.836,224.856 358.691,222.712 356.547,221.639 352.258,221.639 " />
<polyline points="355.475,239.866 361.908,246.298 " />
<polyline points="355.831,280.342 347.254,302.857 " />
<polyline points="355.831,280.342 364.408,302.857 " />
<polyline points="350.471,295.352 361.192,295.352 " />
<polyline points="376.415,298.038 374.27,299.11 372.126,301.254 371.054,304.47 371.054,306.615 372.126,309.831 374.27,311.975 376.415,313.047 379.631,313.047 381.775,311.975 383.92,309.831 384.992,306.615 384.992,304.47 383.92,301.254 381.775,299.11 379.631,298.038 376.415,298.038 " />
<polyline points="752.9,727.449 752.9,760.471 " />
<polyline points="752.9,727.449 773.342,727.449 " />
<polyline points="752.9,743.174 765.48,743.174 " />
<polyline points="752.9,760.471 773.342,760.471 " />
<polyline points="782.777,727.449 782.777,760.471 " />
<polyline points="782.777,727.449 796.929,727.449 801.646,729.021 803.218,730.594 804.791,733.739 804.791,736.884 803.218,740.029 801.646,741.601 796.929,743.174 782.777,743.174 " />
<polyline points="793.784,743.174 804.791,760.471 " />
<polyline points="818.943,733.739 822.088,732.166 826.805,727.449 826.805,760.471 " />
<polyline points="847.247,746.318 875.551,746.318 " />
<polyline points="891.276,733.739 894.421,732.166 899.138,727.449 899.138,760.471 " />
<polyline points="445.872,187.955 427.11,169.193 " />
<polyline points="419.339,187.955 400.576,169.193 " />
<polyline points="392.805,187.955 374.043,169.193 " />
<polyline points="366.271,187.955 347.509,169.193 " />
<polyline points="339.737,187.955 320.975,169.193 " />
<polyline points="313.203,187.955 294.441,169.193 " />
<polyline points="286.669,187.955 267.907,169.193 " />
<polyline points="260.136,187.955 241.373,169.193 " />
<polyline points="233.602,187.955 214.84,169.193 " />
<polyline points="207.068,187.955 188.306,169.193 " />
<polyline points="180.534,187.955 161.772,169.193 " />
<polyline points="154,187.955 135.238,169.193 " />
<polyline points="127.466,187.955 108.704,169.193 " />
<polyline points="100.933,187.955 90.6084,177.631 " />
<polyline points="472.406,187.955 453.644,169.193 " />
<polyline points="498.94,187.955 480.178,169.193 " />
<polyline points="525.474,187.955 506.712,169.193 " />
<polyline points="552.008,187.955 533.246,169.193 " />
<polyline points="578.542,187.955 559.779,169.193 " />
<polyline points="605.075,187.955 586.313,169.193 " />
<polyline points="631.609,187.955 612.847,169.193 " />
<polyline points="658.143,187.955 639.381,169.193 " />
<polyline points="684.677,187.955 665.915,169.193 " />
<polyline points="711.211,187.955 692.449,169.193 " />
<polyline points="737.745,187.955 718.982,169.193 " />
<polyline points="764.278,187.955 745.516,169.193 " />
<polyline points="790.812,187.955 772.05,169.193 " />
<polyline points="817.346,187.955 798.584,169.193 " />
<polyline points="843.88,187.955 825.118,169.193 " />
<polyline points="870.414,187.955 851.652,169.193 " />
<polyline points="896.948,187.955 878.185,169.193 " />
<polyline points="535.131,356.816 516.369,338.054 " />
<polyline points="508.597,356.816 489.835,338.054 " />
<polyline points="482.064,356.816 463.301,338.054 " />
<polyline points="455.53,356.816 436.767,338.054 " />
<polyline points="428.996,356.816 410.234,338.054 " />
<polyline points="402.462,356.816 383.7,338.054 " />
<polyline points="375.928,356.816 357.166,338.054 " />
<polyline points="349.394,356.816 330.632,338.054 " />
<polyline points="322.861,356.816 304.098,338.054 " />
<polyline points="296.327,356.816 277.564,338.054 " />
<polyline points="269.793,356.816 251.031,338.054 " />
<polyline points="243.259,356.816 224.497,338.054 " />
<polyline points="216.725,356.816 197.963,338.054 " />
<polyline points="190.191,356.816 171.429,338.054 " />
<polyline points="163.658,356.816 144.895,338.054 " />
<polyline points="137.124,356.816 118.361,338.054 " />
<polyline points="110.59,356.816 90.6084,336.834 " />
<polyline points="561.665,356.816 542.903,338.054 " />
<polyline points="588.199,356.816 569.437,338.054 " />
<polyline points="614.733,356.816 595.971,338.054 " />
<polyline points="641.267,356.816 622.504,338.054 " />
<polyline points="667.8,356.816 649.038,338.054 " />
<polyline points="694.334,356.816 675.572,338.054 " />
<polyline points="720.868,356.816 702.106,338.054 " />
<polyline points="747.402,356.816 728.64,338.054 " />
<polyline points="773.936,356.816 755.174,338.054 " />
<polyline points="800.47,356.816 781.707,338.054 " />
<polyline points="827.003,356.816 808.241,338.054 " />
<polyline points="853.537,356.816 834.775,338.054 " />
<polyline points="880.071,356.816 861.309,338.054 " />
<polyline points="898.513,348.724 887.843,338.054 " />
<polyline points="100.933,187.955 90.6084,177.631 " />
</g>
</svg>
