<?xml version="1.0" standalone="no"?>
<svg viewBox="0 0 1024 768" version="1.1" xmlns="http://www.w3.org/2000/svg" xmlns:xlink="http://www.w3.org/1999/xlink" stroke-linecap="round" stroke-linejoin="round" fill-rule="evenodd" xml:space="preserve" >
<defs >
<clipPath id="clipId0" >
<path d="M0,768 1024,768 1024,0 0,0 z" />
</clipPath>
</defs>
<g clip-path="url(#clipId0)" fill="none" stroke="rgb(0,0,0)" stroke-width="0.1" />
<g clip-path="url(#clipId0)" fill="none" stroke="rgb(0,0,0)" stroke-width="0.25" >
<polyline points="347.772,172.357 755.35,172.357 " />
<polyline points="347.772,45.5026 755.35,45.5026 " />
<polyline points="309.799,7.52941 309.799,210.331 " />
<polyline points="309.799,210.331 347.772,172.357 " />
<polyline points="309.799,7.52941 347.772,45.5026 " />
<polyline points="347.772,172.357 370.63,149.499 " />
<polyline points="347.772,45.5026 365.622,63.3528 " />
<polyline points="347.772,172.357 347.772,45.5026 " />
<polyline points="755.35,9.12733 755.35,52.61 " />
<polyline points="775.001,52.61 755.35,52.61 " />
<polyline points="735.698,75.3017 755.35,75.3017 " />
<polyline points="735.698,75.3017 775.001,52.61 " />
<polyline points="775.001,142.558 735.698,165.25 " />
<polyline points="775.001,142.558 755.35,142.558 " />
<polyline points="735.698,165.25 755.35,165.25 " />
<polyline points="755.35,75.3017 755.35,142.558 " />
<polyline points="755.35,165.25 755.35,208.733 " />
<path d="M407.688,60.8012  A48.2567,48.2567 0 0,0 387.148,67.0942 " />
</g>
<g clip-path="url(#clipId0)" fill="rgb(0,0,0)" stroke="rgb(0,0,0)" stroke-width="0.25" >
<path d="M388.433,68.7727 385.862,65.4156 377.077,74.8074 377.077,74.8074 z" />
</g>
<g clip-path="url(#clipId0)" fill="none" stroke="rgb(0,0,0)" stroke-width="0.25" >
<path d="M387.148,150.766  A48.2567,48.2567 0 0,0 407.688,157.059 " />
</g>
<g clip-path="url(#clipId0)" fill="rgb(0,0,0)" stroke="rgb(0,0,0)" stroke-width="0.25" >
<path d="M388.433,149.087 385.862,152.444 377.077,143.053 377.077,143.053 z" />
</g>
<g clip-path="url(#clipId0)" fill="none" stroke="rgb(0,0,0)" stroke-width="0.25" >
<polyline points="371.802,108.362 384.488,108.362 " />
<polyline points="309.799,215.616 309.799,247.298 " />
<polyline points="347.772,177.643 347.772,247.298 " />
<polyline points="322.484,232.076 373.143,232.076 " />
</g>
<g clip-path="url(#clipId0)" fill="rgb(0,0,0)" stroke="rgb(0,0,0)" stroke-width="0.25" >
<path d="M322.484,234.19 322.484,229.961 309.799,232.076 309.799,232.076 z" />
</g>
<g clip-path="url(#clipId0)" fill="none" stroke="rgb(0,0,0)" stroke-width="0.25" >
<polyline points="388.245,225.733 388.245,238.418 395.494,238.418 " />
</g>
<g clip-path="url(#clipId0)" fill="rgb(0,0,0)" stroke="rgb(0,0,0)" stroke-width="0.25" >
<path d="M335.086,234.19 335.086,229.961 347.772,232.076 347.772,232.076 z" />
</g>
<g clip-path="url(#clipId0)" fill="none" stroke="rgb(0,0,0)" stroke-width="0.25" >
<polyline points="572.376,108.93 492.223,108.93 " />
</g>
<g clip-path="url(#clipId0)" fill="rgb(0,0,0)" stroke="rgb(0,0,0)" stroke-width="0.25" >
<path d="M572.376,106.816 572.376,111.044 585.061,108.93 585.061,108.93 z" />
</g>
<g clip-path="url(#clipId0)" fill="none" stroke="rgb(0,0,0)" stroke-width="0.25" >
<polyline points="520.542,80.7 519.334,81.3041 518.126,82.5122 517.522,83.7204 516.918,85.5326 516.918,88.5529 517.522,90.3651 518.126,91.5733 519.334,92.7814 520.542,93.3855 522.958,93.3855 524.167,92.7814 525.375,91.5733 525.979,90.3651 526.583,88.5529 526.583,85.5326 525.979,83.7204 525.375,82.5122 524.167,81.3041 522.958,80.7 520.542,80.7 " />
<polyline points="522.354,90.9692 525.979,94.5936 " />
<circle cx="378.145" cy="108.362" r="6.34274" />
<polyline points="522.404,115.075 517.571,127.761 " />
<polyline points="522.404,115.075 527.236,127.761 " />
<polyline points="519.384,123.532 525.424,123.532 " />
<polyline points="538.065,125.977 536.857,126.581 535.649,127.789 535.045,129.601 535.045,130.809 535.649,132.621 536.857,133.83 538.065,134.434 539.877,134.434 541.085,133.83 542.294,132.621 542.898,130.809 542.898,129.601 542.294,127.789 541.085,126.581 539.877,125.977 538.065,125.977 " />
<polyline points="369.341,67.0717 389.795,87.5257 " />
<polyline points="393.927,91.6578 411.199,108.93 " />
<polyline points="396.249,123.88 411.199,108.93 " />
<polyline points="375.382,144.747 392.53,127.599 " />
<polyline points="375.382,458.267 392.53,441.119 " />
<polyline points="396.249,437.4 411.199,422.45 " />
<polyline points="393.927,405.178 411.199,422.45 " />
<polyline points="369.341,380.592 389.795,401.046 " />
<polyline points="538.065,439.497 536.857,440.101 535.649,441.309 535.045,443.121 535.045,444.329 535.649,446.141 536.857,447.349 538.065,447.954 539.877,447.954 541.085,447.349 542.294,446.141 542.898,444.329 542.898,443.121 542.294,441.309 541.085,440.101 539.877,439.497 538.065,439.497 " />
<polyline points="522.404,428.595 517.571,441.281 " />
<polyline points="522.404,428.595 527.236,441.281 " />
<polyline points="519.384,437.052 525.424,437.052 " />
<circle cx="378.145" cy="421.882" r="6.34274" />
<polyline points="520.542,394.22 519.334,394.824 518.126,396.032 517.522,397.24 516.918,399.052 516.918,402.073 517.522,403.885 518.126,405.093 519.334,406.301 520.542,406.905 522.958,406.905 524.167,406.301 525.375,405.093 525.979,403.885 526.583,402.073 526.583,399.052 525.979,397.24 525.375,396.032 524.167,394.824 522.958,394.22 520.542,394.22 " />
<polyline points="522.354,404.489 525.979,408.114 " />
</g>
<g clip-path="url(#clipId0)" fill="rgb(0,0,0)" stroke="rgb(0,0,0)" stroke-width="0.25" >
<path d="M572.376,420.336 572.376,424.564 585.061,422.45 585.061,422.45 z" />
</g>
<g clip-path="url(#clipId0)" fill="none" stroke="rgb(0,0,0)" stroke-width="0.25" >
<polyline points="572.376,422.45 492.223,422.45 " />
<polyline points="371.802,421.882 384.488,421.882 " />
</g>
<g clip-path="url(#clipId0)" fill="rgb(0,0,0)" stroke="rgb(0,0,0)" stroke-width="0.25" >
<path d="M388.433,462.607 385.862,465.964 377.077,456.572 377.077,456.572 z" />
</g>
<g clip-path="url(#clipId0)" fill="none" stroke="rgb(0,0,0)" stroke-width="0.25" >
<path d="M387.148,464.286  A48.2567,48.2567 0 0,0 407.688,470.579 " />
</g>
<g clip-path="url(#clipId0)" fill="rgb(0,0,0)" stroke="rgb(0,0,0)" stroke-width="0.25" >
<path d="M388.433,382.293 385.862,378.936 377.077,388.327 377.077,388.327 z" />
</g>
<g clip-path="url(#clipId0)" fill="none" stroke="rgb(0,0,0)" stroke-width="0.25" >
<path d="M407.688,374.321  A48.2567,48.2567 0 0,0 387.148,380.614 " />
<polyline points="755.35,478.77 755.35,522.253 " />
<polyline points="755.35,388.822 755.35,456.078 " />
<polyline points="735.698,478.77 755.35,478.77 " />
<polyline points="775.001,456.078 755.35,456.078 " />
<polyline points="775.001,456.078 735.698,478.77 " />
<polyline points="735.698,388.822 775.001,366.13 " />
<polyline points="735.698,388.822 755.35,388.822 " />
<polyline points="775.001,366.13 755.35,366.13 " />
<polyline points="755.35,322.647 755.35,366.13 " />
<polyline points="347.772,485.877 347.772,359.022 " />
<polyline points="347.772,359.022 365.622,376.873 " />
<polyline points="347.772,485.877 370.63,463.019 " />
<polyline points="309.799,321.049 347.772,359.022 " />
<polyline points="309.799,523.85 347.772,485.877 " />
<polyline points="309.799,321.049 309.799,523.85 " />
<polyline points="347.772,359.022 755.35,359.022 " />
<polyline points="347.772,485.877 755.35,485.877 " />
<polyline points="661.711,473.192 661.711,436.404 " />
<polyline points="661.711,371.708 661.711,408.496 " />
</g>
<g clip-path="url(#clipId0)" fill="rgb(0,0,0)" stroke="rgb(0,0,0)" stroke-width="0.25" >
<path d="M659.596,473.192 663.825,473.192 661.711,485.877 661.711,485.877 z" />
<path d="M659.596,371.708 663.825,371.708 661.711,359.022 661.711,359.022 z" />
</g>
<g clip-path="url(#clipId0)" fill="none" stroke="rgb(0,0,0)" stroke-width="0.25" >
<polyline points="657.482,416.107 657.482,428.793 " />
<polyline points="665.939,416.107 665.939,428.793 " />
<polyline points="657.482,422.148 665.939,422.148 " />
<polyline points="655.67,102.587 658.69,115.273 " />
<polyline points="661.711,102.587 658.69,115.273 " />
<polyline points="661.711,102.587 664.731,115.273 " />
<polyline points="667.751,102.587 664.731,115.273 " />
</g>
<g clip-path="url(#clipId0)" fill="rgb(0,0,0)" stroke="rgb(0,0,0)" stroke-width="0.25" >
<path d="M659.596,58.188 663.825,58.188 661.711,45.5026 661.711,45.5026 z" />
<path d="M659.596,159.672 663.825,159.672 661.711,172.357 661.711,172.357 z" />
</g>
<g clip-path="url(#clipId0)" fill="none" stroke="rgb(0,0,0)" stroke-width="0.25" >
<polyline points="661.711,58.188 661.711,94.9759 " />
<polyline points="661.711,159.672 661.711,122.884 " />
<polyline points="671.448,738.144 671.448,760.471 " />
<polyline points="671.448,738.144 685.269,738.144 " />
<polyline points="671.448,748.776 679.953,748.776 " />
<polyline points="671.448,760.471 685.269,760.471 " />
<polyline points="691.648,738.144 691.648,760.471 " />
<polyline points="691.648,738.144 701.216,738.144 704.406,739.207 705.469,740.27 706.532,742.397 706.532,744.523 705.469,746.649 704.406,747.713 701.216,748.776 691.648,748.776 " />
<polyline points="699.09,748.776 706.532,760.471 " />
<polyline points="716.1,742.397 718.227,741.334 721.416,738.144 721.416,760.471 " />
<polyline points="735.237,750.902 754.374,750.902 " />
<polyline points="762.88,743.46 762.88,742.397 763.943,740.27 765.006,739.207 767.132,738.144 771.385,738.144 773.511,739.207 774.574,740.27 775.638,742.397 775.638,744.523 774.574,746.649 772.448,749.839 761.817,760.471 776.701,760.471 " />
<polyline points="303.456,210.331 247.299,210.331 " />
<polyline points="303.456,7.52941 247.299,7.52941 " />
<polyline points="265.566,195.108 265.566,125.675 " />
<polyline points="265.566,22.752 265.566,92.1851 " />
</g>
<g clip-path="url(#clipId0)" fill="rgb(0,0,0)" stroke="rgb(0,0,0)" stroke-width="0.25" >
<path d="M263.029,195.108 268.103,195.108 265.566,210.331 265.566,210.331 z" />
<path d="M263.029,22.752 268.103,22.752 265.566,7.52941 265.566,7.52941 z" />
</g>
<g clip-path="url(#clipId0)" fill="none" stroke="rgb(0,0,0)" stroke-width="0.25" >
<polyline points="673.743,116.782 672.535,117.386 671.326,118.594 670.722,120.406 670.722,121.614 671.326,123.427 672.535,124.635 673.743,125.239 675.555,125.239 676.763,124.635 677.971,123.427 678.575,121.614 678.575,120.406 677.971,118.594 676.763,117.386 675.555,116.782 673.743,116.782 " />
<polyline points="276.39,117.76 277.598,117.156 279.411,115.344 279.411,128.03 " />
<polyline points="259.526,105.378 262.546,118.064 " />
<polyline points="265.566,105.378 262.546,118.064 " />
<polyline points="265.566,105.378 268.587,118.064 " />
<polyline points="271.607,105.378 268.587,118.064 " />
<polyline points="673.743,430.302 672.535,430.906 671.326,432.114 670.722,433.926 670.722,435.134 671.326,436.946 672.535,438.155 673.743,438.759 675.555,438.759 676.763,438.155 677.971,436.946 678.575,435.134 678.575,433.926 677.971,432.114 676.763,430.906 675.555,430.302 673.743,430.302 " />
<polyline points="261.338,418.898 261.338,431.583 " />
<polyline points="269.795,418.898 269.795,431.583 " />
<polyline points="261.338,424.939 269.795,424.939 " />
<polyline points="276.39,431.28 277.598,430.676 279.411,428.864 279.411,441.549 " />
</g>
<g clip-path="url(#clipId0)" fill="rgb(0,0,0)" stroke="rgb(0,0,0)" stroke-width="0.25" >
<path d="M263.029,336.272 268.103,336.272 265.566,321.049 265.566,321.049 z" />
<path d="M263.029,508.628 268.103,508.628 265.566,523.85 265.566,523.85 z" />
</g>
<g clip-path="url(#clipId0)" fill="none" stroke="rgb(0,0,0)" stroke-width="0.25" >
<polyline points="265.566,336.272 265.566,405.705 " />
<polyline points="265.566,508.628 265.566,439.195 " />
<polyline points="303.456,321.049 247.299,321.049 " />
<polyline points="303.456,523.85 247.299,523.85 " />
</g>
</svg>
