<?xml version="1.0" standalone="no"?>
<svg viewBox="0 0 1024 768" version="1.1" xmlns="http://www.w3.org/2000/svg" xmlns:xlink="http://www.w3.org/1999/xlink" stroke-linecap="round" stroke-linejoin="round" fill-rule="evenodd" xml:space="preserve" >
<defs >
<clipPath id="clipId0" >
<path d="M0,768 1024,768 1024,0 0,0 z" />
</clipPath>
</defs>
<g clip-path="url(#clipId0)" fill="none" stroke="rgb(0,0,0)" stroke-width="0.1" />
<g clip-path="url(#clipId0)" fill="none" stroke="rgb(0,0,0)" stroke-width="0.25" >
<polyline points="645.891,394.988 382.678,394.988 " />
<polyline points="382.678,394.988 382.678,339.573 " />
<polyline points="382.678,142.85 645.891,142.85 " />
<polyline points="645.891,119.054 645.891,257.021 " />
<polyline points="629.336,268.919 662.447,268.919 " />
<polyline points="645.891,280.817 645.891,418.784 " />
<polyline points="645.891,257.021 629.336,268.919 " />
<polyline points="662.447,268.919 645.891,280.817 " />
<polyline points="239.092,245.123 21.4313,245.123 " />
<polyline points="239.092,292.714 21.4313,292.714 " />
<polyline points="382.678,198.265 239.092,245.123 " />
<polyline points="382.678,339.573 239.092,292.714 " />
<polyline points="382.678,198.265 382.678,142.85 " />
<polyline points="239.092,245.123 239.092,292.714 " />
<polyline points="382.678,198.265 382.678,339.573 " />
</g>
<g clip-path="url(#clipId0)" fill="rgb(0,0,0)" stroke="rgb(0,0,0)" stroke-width="0.25" >
<path d="M519.43,267.924 519.43,272.684 533.707,270.304 533.707,270.304 z" />
</g>
<g clip-path="url(#clipId0)" fill="none" stroke="rgb(0,0,0)" stroke-width="0.25" >
<polyline points="519.43,270.304 429.329,270.304 " />
</g>
<g clip-path="url(#clipId0)" fill="rgb(0,0,0)" stroke="rgb(0,0,0)" stroke-width="0.25" >
<path d="M170.602,274.918 170.602,279.677 184.88,277.297 184.88,277.297 z" />
</g>
<g clip-path="url(#clipId0)" fill="none" stroke="rgb(0,0,0)" stroke-width="0.25" >
<polyline points="170.602,277.297 80.5019,277.297 " />
</g>
<g clip-path="url(#clipId0)" fill="rgb(0,0,0)" stroke="rgb(0,0,0)" stroke-width="0.25" >
<path d="M367.67,420.316 367.67,425.075 381.948,422.695 381.948,422.695 z" />
</g>
<g clip-path="url(#clipId0)" fill="none" stroke="rgb(0,0,0)" stroke-width="0.25" >
<polyline points="367.67,422.695 323.682,422.695 " />
</g>
<g clip-path="url(#clipId0)" fill="rgb(0,0,0)" stroke="rgb(0,0,0)" stroke-width="0.25" >
<path d="M254.733,425.075 254.733,420.316 240.456,422.695 240.456,422.695 z" />
</g>
<g clip-path="url(#clipId0)" fill="none" stroke="rgb(0,0,0)" stroke-width="0.25" >
<polyline points="254.733,422.695 296.453,422.695 " />
<path d="M316.364,302.412  A106.438,106.438 0 0,0 320.944,282.165 " />
</g>
<g clip-path="url(#clipId0)" fill="rgb(0,0,0)" stroke="rgb(0,0,0)" stroke-width="0.25" >
<path d="M314.161,301.514 318.568,303.311 310.973,315.632 310.973,315.632 z" />
<path d="M314.161,236.324 318.568,234.527 310.973,222.205 310.973,222.205 z" />
</g>
<g clip-path="url(#clipId0)" fill="none" stroke="rgb(0,0,0)" stroke-width="0.25" >
<path d="M320.92,255.481  A106.438,106.438 0 0,0 316.364,235.425 " />
<polyline points="314.115,267.882 328.393,267.882 " />
<polyline points="110.599,194.995 109.24,195.675 107.88,197.035 107.2,199.075 107.2,200.434 107.88,202.474 109.24,203.834 110.599,204.514 112.639,204.514 113.999,203.834 115.358,202.474 116.038,200.434 116.038,199.075 115.358,197.035 113.999,195.675 112.639,194.995 110.599,194.995 " />
<polyline points="307.995,415.278 307.995,429.556 316.153,429.556 " />
<polyline points="571.317,250.806 571.317,265.084 " />
<polyline points="566.558,250.806 576.076,250.806 " />
<polyline points="582.875,250.806 581.515,251.486 580.155,252.846 579.475,254.206 578.796,256.245 578.796,259.645 579.475,261.684 580.155,263.044 581.515,264.404 582.875,265.084 585.594,265.084 586.954,264.404 588.314,263.044 588.994,261.684 589.674,259.645 589.674,256.245 588.994,254.206 588.314,252.846 586.954,251.486 585.594,250.806 582.875,250.806 " />
<polyline points="561.79,273.922 561.79,288.2 " />
<polyline points="561.79,273.922 570.629,273.922 " />
<polyline points="561.79,280.721 567.229,280.721 " />
<polyline points="577.427,273.922 571.988,288.2 " />
<polyline points="577.427,273.922 582.866,288.2 " />
<polyline points="574.028,283.441 580.827,283.441 " />
<polyline points="586.266,273.922 586.266,288.2 " />
<polyline points="586.266,273.922 595.784,288.2 " />
<polyline points="595.784,273.922 595.784,288.2 " />
<polyline points="21.4313,245.123 21.4313,259.658 " />
<polyline points="21.4313,306.992 21.4313,277.402 " />
<polyline points="1013.96,142.85 1013.96,394.988 " />
<polyline points="761.823,142.85 761.823,394.988 " />
<polyline points="817.238,198.265 958.545,198.265 " />
<polyline points="864.097,245.123 911.686,245.123 " />
<polyline points="864.097,292.714 911.686,292.714 " />
<polyline points="817.238,339.573 958.545,339.573 " />
<polyline points="761.823,142.85 1013.96,142.85 " />
<polyline points="761.823,394.988 1013.96,394.988 " />
<polyline points="817.238,198.265 817.238,339.573 " />
<polyline points="958.545,198.265 958.545,339.573 " />
<polyline points="864.097,245.123 864.097,292.714 " />
<polyline points="911.686,245.123 911.686,292.714 " />
<polyline points="864.097,245.123 817.238,198.265 " />
<polyline points="864.097,292.714 817.238,339.573 " />
<polyline points="911.686,292.714 958.545,339.573 " />
<polyline points="911.686,245.123 958.545,198.265 " />
<polyline points="239.726,306.324 239.726,383.905 " />
<polyline points="239.726,383.905 239.726,433.778 " />
<polyline points="382.678,403.3 382.678,436.549 " />
<polyline points="118.84,256.001 117.481,256.681 116.121,258.04 115.441,259.4 114.761,261.44 114.761,264.839 115.441,266.879 116.121,268.239 117.481,269.598 118.84,270.278 121.56,270.278 122.92,269.598 124.28,268.239 124.959,266.879 125.639,264.839 125.639,261.44 124.959,259.4 124.28,258.04 122.92,256.681 121.56,256.001 118.84,256.001 " />
<polyline points="120.88,267.559 124.959,271.638 " />
<circle cx="321.254" cy="267.882" r="7.13875" />
<polyline points="179.182,194.995 177.822,195.675 176.463,197.035 175.783,199.075 175.783,200.434 176.463,202.474 177.822,203.834 179.182,204.514 181.222,204.514 182.582,203.834 183.941,202.474 184.621,200.434 184.621,199.075 183.941,197.035 182.582,195.675 181.222,194.995 179.182,194.995 " />
<polyline points="10.0392,277.402 21.4313,277.402 " />
<polyline points="21.4313,259.658 32.8233,259.658 " />
<polyline points="10.0392,277.402 32.8233,259.658 " />
<polyline points="21.4313,259.658 21.4313,230.845 " />
<polyline points="21.4313,277.402 21.4313,292.714 " />
<polyline points="90.1286,182.351 90.1286,196.628 " />
<polyline points="99.6469,182.351 99.6469,196.628 " />
<polyline points="90.1286,189.149 99.6469,189.149 " />
<polyline points="132.961,187.11 140.44,196.628 " />
<polyline points="140.44,187.11 132.961,196.628 " />
<polyline points="158.117,182.351 161.516,196.628 " />
<polyline points="164.916,182.351 161.516,196.628 " />
<polyline points="164.916,182.351 168.315,196.628 " />
<polyline points="171.714,182.351 168.315,196.628 " />
<polyline points="80.5019,277.297 73.2499,277.297 " />
<polyline points="59.9416,529.283 72.1795,529.283 " />
<polyline points="59.9416,533.362 72.1795,533.362 " />
<polyline points="95.2955,523.164 93.9357,523.844 92.5759,525.204 91.896,526.564 91.2162,528.603 91.2162,532.003 91.896,534.042 92.5759,535.402 93.9357,536.762 95.2955,537.442 98.015,537.442 99.3747,536.762 100.735,535.402 101.414,534.042 102.094,532.003 102.094,528.603 101.414,526.564 100.735,525.204 99.3747,523.844 98.015,523.164 95.2955,523.164 " />
<polyline points="106.853,523.164 106.853,537.442 " />
<polyline points="106.853,523.164 112.972,523.164 115.012,523.844 115.692,524.524 116.372,525.884 116.372,527.923 115.692,529.283 115.012,529.963 112.972,530.643 106.853,530.643 " />
<polyline points="123.85,523.164 123.85,537.442 " />
<polyline points="119.091,523.164 128.61,523.164 " />
<polyline points="132.009,523.164 132.009,537.442 " />
<polyline points="137.448,523.164 137.448,537.442 " />
<polyline points="137.448,523.164 142.887,537.442 " />
<polyline points="148.326,523.164 142.887,537.442 " />
<polyline points="148.326,523.164 148.326,537.442 " />
<polyline points="153.765,523.164 153.765,533.362 154.445,535.402 155.805,536.762 157.845,537.442 159.204,537.442 161.244,536.762 162.604,535.402 163.284,533.362 163.284,523.164 " />
<polyline points="168.723,523.164 168.723,537.442 " />
<polyline points="168.723,523.164 174.162,537.442 " />
<polyline points="179.601,523.164 174.162,537.442 " />
<polyline points="179.601,523.164 179.601,537.442 " />
<polyline points="202.717,523.164 197.278,537.442 " />
<polyline points="202.717,523.164 208.156,537.442 " />
<polyline points="199.317,532.683 206.116,532.683 " />
<polyline points="211.555,523.164 211.555,537.442 " />
<polyline points="211.555,523.164 221.073,537.442 " />
<polyline points="221.073,523.164 221.073,537.442 " />
<polyline points="236.031,526.564 235.351,525.204 233.991,523.844 232.631,523.164 229.912,523.164 228.552,523.844 227.192,525.204 226.513,526.564 225.833,528.603 225.833,532.003 226.513,534.042 227.192,535.402 228.552,536.762 229.912,537.442 232.631,537.442 233.991,536.762 235.351,535.402 236.031,534.042 236.031,532.003 " />
<polyline points="232.631,532.003 236.031,532.003 " />
<polyline points="240.79,523.164 240.79,537.442 248.949,537.442 " />
<polyline points="252.348,523.164 252.348,537.442 " />
<polyline points="252.348,523.164 261.186,523.164 " />
<polyline points="252.348,529.963 257.787,529.963 " />
<polyline points="252.348,537.442 261.186,537.442 " />
<circle cx="29.0129" cy="531.96" r="8.06339" />
<polyline points="20.9495,531.96 37.0763,531.96 " />
</g>
<g clip-path="url(#clipId0)" fill="rgb(0,0,0)" stroke="rgb(0,0,0)" stroke-width="0.25" >
<path d="M68.5744,228.563 64.2844,230.623 72.6111,242.463 72.6111,242.463 z" />
</g>
<g clip-path="url(#clipId0)" fill="none" stroke="rgb(0,0,0)" stroke-width="0.25" >
<polyline points="66.4294,229.593 49.1443,193.606 " />
<polyline points="49.1443,193.606 72.6111,193.606 " />
<polyline points="911.627,628.006 911.627,648.946 " />
<polyline points="911.627,628.006 924.59,628.006 " />
<polyline points="911.627,637.978 919.604,637.978 " />
<polyline points="911.627,648.946 924.59,648.946 " />
<polyline points="930.573,628.006 930.573,648.946 " />
<polyline points="930.573,628.006 939.547,628.006 942.539,629.003 943.536,630 944.533,631.995 944.533,633.989 943.536,635.983 942.539,636.98 939.547,637.978 930.573,637.978 " />
<polyline points="937.553,637.978 944.533,648.946 " />
<polyline points="951.513,632.992 951.513,631.995 952.51,630 953.508,629.003 955.502,628.006 959.491,628.006 961.485,629.003 962.482,630 963.479,631.995 963.479,633.989 962.482,635.983 960.488,638.975 950.516,648.946 964.476,648.946 " />
<polyline points="971.456,639.972 989.405,639.972 " />
<polyline points="1006.36,628.006 996.385,641.966 1011.34,641.966 " />
<polyline points="1006.36,628.006 1006.36,648.946 " />
<polyline points="435.155,286.813 435.155,301.09 " />
<polyline points="444.673,286.813 444.673,301.09 " />
<polyline points="435.155,293.611 444.673,293.611 " />
<polyline points="477.987,291.572 485.466,301.09 " />
<polyline points="485.466,291.572 477.987,301.09 " />
<polyline points="503.143,286.813 506.543,301.09 " />
<polyline points="509.942,286.813 506.543,301.09 " />
<polyline points="509.942,286.813 513.341,301.09 " />
<polyline points="516.741,286.813 513.341,301.09 " />
<polyline points="451.615,300.844 452.794,300.255 454.562,298.488 454.562,310.861 " />
<polyline points="522.016,300.844 523.194,300.255 524.962,298.488 524.962,310.861 " />
<polyline points="429.329,270.304 412.88,270.304 " />
<polyline points="235.397,121.789 235.397,136.066 " />
<polyline points="244.915,121.789 244.915,136.066 " />
<polyline points="235.397,128.588 244.915,128.588 " />
<polyline points="278.229,126.548 285.708,136.066 " />
<polyline points="285.708,126.548 278.229,136.066 " />
<polyline points="303.385,121.789 306.784,136.066 " />
<polyline points="310.184,121.789 306.784,136.066 " />
<polyline points="310.184,121.789 313.583,136.066 " />
<polyline points="316.983,121.789 313.583,136.066 " />
<polyline points="321.731,133.074 321.731,132.394 322.411,131.034 323.091,130.354 324.45,129.674 327.17,129.674 328.53,130.354 329.21,131.034 329.89,132.394 329.89,133.754 329.21,135.113 327.85,137.153 321.051,143.952 330.569,143.952 " />
<polyline points="253.148,133.074 253.148,132.394 253.828,131.034 254.508,130.354 255.868,129.674 258.587,129.674 259.947,130.354 260.627,131.034 261.307,132.394 261.307,133.754 260.627,135.113 259.267,137.153 252.468,143.952 261.987,143.952 " />
</g>
<g clip-path="url(#clipId0)" fill="rgb(0,0,0)" stroke="rgb(0,0,0)" stroke-width="0.25" >
<polygon points="380.184,224.529 382.678,238.787 375.694,226.109 " />
</g>
<g clip-path="url(#clipId0)" fill="none" stroke="rgb(0,0,0)" stroke-width="0.25" >
<polyline points="377.939,225.319 344.418,130.051 " />
<polyline points="344.418,130.051 327.894,130.051 " />
</g>
</svg>
