<?xml version="1.0" standalone="no"?>
<svg viewBox="0 0 1024 768" version="1.1" xmlns="http://www.w3.org/2000/svg" xmlns:xlink="http://www.w3.org/1999/xlink" stroke-linecap="round" stroke-linejoin="round" fill-rule="evenodd" xml:space="preserve" >
<defs >
<clipPath id="clipId0" >
<path d="M0,768 1024,768 1024,0 0,0 z" />
</clipPath>
</defs>
<g clip-path="url(#clipId0)" fill="none" stroke="rgb(0,0,0)" stroke-width="0.1" />
<g clip-path="url(#clipId0)" fill="none" stroke="rgb(0,0,0)" stroke-width="0.25" >
<polyline points="506.086,231.283 833.044,231.283 " />
<polyline points="833.044,326.853 506.086,326.853 " />
<polyline points="37.1294,447.763 37.1294,310.729 " />
<polyline points="64.2196,291.26 10.0392,291.26 " />
<polyline points="37.1294,271.792 37.1294,110.373 " />
<polyline points="37.1294,310.729 64.2196,291.26 " />
<polyline points="10.0392,291.26 37.1294,271.792 " />
</g>
<g clip-path="url(#clipId0)" fill="rgb(0,0,0)" stroke="rgb(0,0,0)" stroke-width="0.25" >
<path d="M891.538,274.666 891.538,282.453 914.9,278.559 914.9,278.559 z" />
</g>
<g clip-path="url(#clipId0)" fill="none" stroke="rgb(0,0,0)" stroke-width="0.25" >
<polyline points="891.538,278.559 773.909,278.559 " />
</g>
<g clip-path="url(#clipId0)" fill="rgb(0,0,0)" stroke="rgb(0,0,0)" stroke-width="0.25" >
<path d="M323.181,276.165 323.181,283.952 346.543,280.058 346.543,280.058 z" />
</g>
<g clip-path="url(#clipId0)" fill="none" stroke="rgb(0,0,0)" stroke-width="0.25" >
<polyline points="323.181,280.058 175.75,280.058 " />
<polyline points="646.29,262.628 646.29,285.991 " />
<polyline points="646.29,262.628 654.077,262.628 657.414,263.741 659.639,265.966 660.752,268.191 661.864,271.528 661.864,277.091 660.752,280.428 659.639,282.653 657.414,284.878 654.077,285.991 646.29,285.991 " />
</g>
<g clip-path="url(#clipId0)" fill="rgb(0,0,0)" stroke="rgb(0,0,0)" stroke-width="0.25" >
<path d="M657.7,208.502 649.913,208.502 653.806,231.864 653.806,231.864 z" />
</g>
<g clip-path="url(#clipId0)" fill="none" stroke="rgb(0,0,0)" stroke-width="0.25" >
<polyline points="653.806,208.502 653.806,191.33 " />
</g>
<g clip-path="url(#clipId0)" fill="rgb(0,0,0)" stroke="rgb(0,0,0)" stroke-width="0.25" >
<path d="M649.413,349.629 657.201,349.629 653.307,326.267 653.307,326.267 z" />
</g>
<g clip-path="url(#clipId0)" fill="none" stroke="rgb(0,0,0)" stroke-width="0.25" >
<polyline points="653.307,349.629 653.307,365.462 " />
<polyline points="960.082,251.005 960.082,274.367 " />
<polyline points="952.294,251.005 967.869,251.005 " />
<polyline points="978.994,251.005 976.769,252.118 974.544,254.342 973.431,256.567 972.319,259.905 972.319,265.467 973.431,268.805 974.544,271.03 976.769,273.255 978.994,274.367 983.444,274.367 985.669,273.255 987.894,271.03 989.006,268.805 990.119,265.467 990.119,259.905 989.006,256.567 987.894,254.342 985.669,252.118 983.444,251.005 978.994,251.005 " />
<polyline points="955.632,288.83 955.632,312.192 " />
<polyline points="955.632,288.83 970.094,288.83 " />
<polyline points="955.632,299.955 964.531,299.955 " />
<polyline points="981.219,288.83 972.319,312.192 " />
<polyline points="981.219,288.83 990.119,312.192 " />
<polyline points="975.656,304.405 986.781,304.405 " />
<polyline points="995.681,288.83 995.681,312.192 " />
<polyline points="995.681,288.83 1011.26,312.192 " />
<polyline points="1011.26,288.83 1011.26,312.192 " />
<polyline points="459.428,149.31 459.428,408.825 " />
<polyline points="459.428,408.825 37.1294,408.825 " />
<polyline points="37.1294,149.31 459.428,149.31 " />
<polyline points="459.428,189.949 506.086,231.283 " />
<polyline points="459.428,368.187 506.086,326.853 " />
<polyline points="506.086,231.283 506.086,326.853 " />
<polyline points="506.086,231.283 560.026,279.068 " stroke-dasharray="8.849348,4.424674" />
<polyline points="506.086,326.853 560.026,279.068 " stroke-dasharray="8.849348,4.424674" />
<path d="M540.372,327.257  A42.784,42.784 0 0,0 561.308,337.622 " />
<path d="M562.291,221.635  A42.784,42.784 0 0,0 541.022,231.3 " />
</g>
<g clip-path="url(#clipId0)" fill="rgb(0,0,0)" stroke="rgb(0,0,0)" stroke-width="0.25" >
<path d="M543.675,325.195 537.068,329.318 528.001,307.438 528.001,307.438 z" />
<path d="M544.255,233.47 537.789,229.13 528.001,250.697 528.001,250.697 z" />
</g>
<g clip-path="url(#clipId0)" fill="none" stroke="rgb(0,0,0)" stroke-width="0.25" >
<polyline points="511.379,277.096 534.741,277.096 " />
<polyline points="505.343,343.523 505.343,494.659 " />
<polyline points="459.428,416.653 459.428,494.659 " />
</g>
<g clip-path="url(#clipId0)" fill="rgb(0,0,0)" stroke="rgb(0,0,0)" stroke-width="0.25" >
<path d="M528.705,479.051 528.705,471.264 505.343,475.158 505.343,475.158 z" />
</g>
<g clip-path="url(#clipId0)" fill="none" stroke="rgb(0,0,0)" stroke-width="0.25" >
<polyline points="528.705,475.158 563.236,475.158 " />
</g>
<g clip-path="url(#clipId0)" fill="rgb(0,0,0)" stroke="rgb(0,0,0)" stroke-width="0.25" >
<path d="M436.065,471.264 436.065,479.051 459.428,475.158 459.428,475.158 z" />
</g>
<g clip-path="url(#clipId0)" fill="none" stroke="rgb(0,0,0)" stroke-width="0.25" >
<polyline points="436.065,475.158 399.538,475.158 " />
<polyline points="475.855,462.806 475.855,486.168 489.205,486.168 " />
<path d="M833.044,279.068  A29.362,29.362 0 0,0 833.044,231.283 " />
<path d="M833.044,278.559  A28.2862,28.2862 0 0,0 833.044,326.853 " />
<path d="M833.044,326.853  A29.362,29.362 0 0,0 833.044,279.068 " />
<polyline points="246.853,237.495 244.628,238.607 242.403,240.832 241.29,243.057 240.178,246.395 240.178,251.957 241.29,255.294 242.403,257.519 244.628,259.744 246.853,260.857 251.302,260.857 253.527,259.744 255.752,257.519 256.865,255.294 257.977,251.957 257.977,246.395 256.865,243.057 255.752,240.832 253.527,238.607 251.302,237.495 246.853,237.495 " />
<polyline points="250.19,256.407 256.865,263.082 " />
<polyline points="209.909,323.321 207.684,324.433 205.459,326.658 204.347,329.996 204.347,332.221 205.459,335.558 207.684,337.783 209.909,338.896 213.246,338.896 215.471,337.783 217.696,335.558 218.809,332.221 218.809,329.996 217.696,326.658 215.471,324.433 213.246,323.321 209.909,323.321 " />
<polyline points="316.472,323.321 314.248,324.433 312.023,326.658 310.91,329.996 310.91,332.221 312.023,335.558 314.248,337.783 316.472,338.896 319.81,338.896 322.035,337.783 324.26,335.558 325.372,332.221 325.372,329.996 324.26,326.658 322.035,324.433 319.81,323.321 316.472,323.321 " />
<circle cx="523.06" cy="277.096" r="11.6811" />
<polyline points="674.029,276.82 676.254,275.707 679.592,272.37 679.592,295.732 " />
<polyline points="181.611,299.173 181.611,320.411 " />
<polyline points="195.77,299.173 195.77,320.411 " />
<polyline points="181.611,309.286 195.77,309.286 " />
<polyline points="245.326,306.252 256.451,320.411 " />
<polyline points="256.451,306.252 245.326,320.411 " />
<polyline points="282.746,299.173 287.803,320.411 " />
<polyline points="292.86,299.173 287.803,320.411 " />
<polyline points="292.86,299.173 297.916,320.411 " />
<polyline points="302.973,299.173 297.916,320.411 " />
<polyline points="175.75,280.058 142.657,280.058 " />
<polyline points="867.112,626.477 867.112,657.627 " />
<polyline points="867.112,626.477 886.395,626.477 " />
<polyline points="867.112,641.31 878.979,641.31 " />
<polyline points="867.112,657.627 886.395,657.627 " />
<polyline points="895.295,626.477 895.295,657.627 " />
<polyline points="895.295,626.477 908.645,626.477 913.095,627.961 914.578,629.444 916.062,632.411 916.062,635.377 914.578,638.344 913.095,639.827 908.645,641.31 895.295,641.31 " />
<polyline points="905.678,641.31 916.062,657.627 " />
<polyline points="926.445,633.894 926.445,632.411 927.928,629.444 929.412,627.961 932.378,626.477 938.312,626.477 941.278,627.961 942.761,629.444 944.245,632.411 944.245,635.377 942.761,638.344 939.795,642.794 924.962,657.627 945.728,657.627 " />
<polyline points="956.111,644.277 982.811,644.277 " />
<polyline points="994.678,633.894 994.678,632.411 996.161,629.444 997.644,627.961 1000.61,626.477 1006.54,626.477 1009.51,627.961 1010.99,629.444 1012.48,632.411 1012.48,635.377 1010.99,638.344 1008.03,642.794 993.194,657.627 1013.96,657.627 " />
<polyline points="505.343,343.523 505.343,337.853 " />
<polyline points="383.684,185.421 383.684,184.309 384.796,182.084 385.909,180.971 388.134,179.859 392.584,179.859 394.809,180.971 395.921,182.084 397.034,184.309 397.034,186.534 395.921,188.759 393.696,192.096 382.571,203.221 398.146,203.221 " />
<polyline points="358.169,170.117 358.169,193.48 " />
<polyline points="358.169,170.117 365.956,170.117 369.294,171.23 371.519,173.455 372.631,175.68 373.744,179.017 373.744,184.58 372.631,187.917 371.519,190.142 369.294,192.367 365.956,193.48 358.169,193.48 " />
</g>
<g clip-path="url(#clipId0)" fill="rgb(0,0,0)" stroke="rgb(0,0,0)" stroke-width="0.25" >
<polygon points="454.402,240.913 459.428,261.85 447.884,243.675 " />
</g>
<g clip-path="url(#clipId0)" fill="none" stroke="rgb(0,0,0)" stroke-width="0.25" >
<polyline points="451.143,242.294 426.892,185.048 " />
<polyline points="426.892,185.048 401.572,185.048 " />
</g>
</svg>
