<?xml version="1.0" standalone="no"?>
<svg viewBox="0 0 1024 768" version="1.1" xmlns="http://www.w3.org/2000/svg" xmlns:xlink="http://www.w3.org/1999/xlink" stroke-linecap="round" stroke-linejoin="round" fill-rule="evenodd" xml:space="preserve" >
<defs >
<clipPath id="clipId0" >
<path d="M0,768 1024,768 1024,0 0,0 z" />
</clipPath>
</defs>
<g clip-path="url(#clipId0)" fill="none" stroke="rgb(0,0,0)" stroke-width="0.1" />
<g clip-path="url(#clipId0)" fill="none" stroke="rgb(0,0,0)" stroke-width="0.25" >
<polyline points="742.697,412.643 407.456,412.643 " />
<polyline points="407.456,412.643 407.456,350.145 " />
<polyline points="407.456,128.279 742.697,128.279 " />
<polyline points="742.697,101.442 742.697,257.043 " />
<polyline points="724.025,270.461 761.369,270.461 " />
<polyline points="742.697,283.88 742.697,439.48 " />
<polyline points="742.697,257.043 724.025,270.461 " />
<polyline points="761.369,270.461 742.697,283.88 " />
<polyline points="299.259,243.624 28.7109,243.624 " />
<polyline points="299.259,297.298 28.7109,297.298 " />
<polyline points="407.456,190.777 299.259,243.624 " />
<polyline points="407.456,350.145 299.259,297.298 " />
<polyline points="407.456,190.777 407.456,128.279 " />
<polyline points="299.259,243.624 299.259,297.298 " />
<polyline points="407.456,190.777 407.456,350.145 " />
</g>
<g clip-path="url(#clipId0)" fill="rgb(0,0,0)" stroke="rgb(0,0,0)" stroke-width="0.25" >
<path d="M584.634,269.34 584.634,274.707 600.736,272.024 600.736,272.024 z" />
</g>
<g clip-path="url(#clipId0)" fill="none" stroke="rgb(0,0,0)" stroke-width="0.25" >
<polyline points="584.634,272.024 483.018,272.024 " />
</g>
<g clip-path="url(#clipId0)" fill="rgb(0,0,0)" stroke="rgb(0,0,0)" stroke-width="0.25" >
<path d="M144.471,269.34 144.471,274.707 160.573,272.024 160.573,272.024 z" />
</g>
<g clip-path="url(#clipId0)" fill="none" stroke="rgb(0,0,0)" stroke-width="0.25" >
<polyline points="144.471,272.024 105.036,272.024 " />
</g>
<g clip-path="url(#clipId0)" fill="rgb(0,0,0)" stroke="rgb(0,0,0)" stroke-width="0.25" >
<path d="M388.795,381.835 388.795,387.203 404.897,384.519 404.897,384.519 z" />
</g>
<g clip-path="url(#clipId0)" fill="none" stroke="rgb(0,0,0)" stroke-width="0.25" >
<polyline points="388.795,384.519 369.07,384.519 " />
</g>
<g clip-path="url(#clipId0)" fill="rgb(0,0,0)" stroke="rgb(0,0,0)" stroke-width="0.25" >
<path d="M316.077,387.203 316.077,381.835 299.975,384.519 299.975,384.519 z" />
</g>
<g clip-path="url(#clipId0)" fill="none" stroke="rgb(0,0,0)" stroke-width="0.25" >
<polyline points="316.077,384.519 338.361,384.519 " />
<path d="M358.258,308.235  A120.042,120.042 0 0,0 363.423,285.4 " />
</g>
<g clip-path="url(#clipId0)" fill="rgb(0,0,0)" stroke="rgb(0,0,0)" stroke-width="0.25" >
<path d="M355.773,307.222 360.743,309.249 352.178,323.145 352.178,323.145 z" />
<path d="M355.773,233.7 360.743,231.673 352.178,217.777 352.178,217.777 z" />
</g>
<g clip-path="url(#clipId0)" fill="none" stroke="rgb(0,0,0)" stroke-width="0.25" >
<path d="M363.396,255.307  A120.042,120.042 0 0,0 358.258,232.687 " />
<polyline points="299.062,304.256 299.062,397.958 " />
<polyline points="351.378,376.154 351.378,392.257 360.579,392.257 " />
</g>
<g clip-path="url(#clipId0)" fill="rgb(0,0,0)" stroke="rgb(0,0,0)" stroke-width="0.25" >
<path d="M253.093,228.016 247.725,228.016 250.409,244.118 250.409,244.118 z" />
</g>
<g clip-path="url(#clipId0)" fill="none" stroke="rgb(0,0,0)" stroke-width="0.25" >
<polyline points="250.409,228.016 250.409,206.358 " />
</g>
<g clip-path="url(#clipId0)" fill="rgb(0,0,0)" stroke="rgb(0,0,0)" stroke-width="0.25" >
<path d="M247.725,314.764 253.093,314.764 250.409,298.661 250.409,298.661 z" />
</g>
<g clip-path="url(#clipId0)" fill="none" stroke="rgb(0,0,0)" stroke-width="0.25" >
<polyline points="250.409,314.764 250.409,342.016 " />
<polyline points="632.041,254.442 632.041,270.544 " />
<polyline points="626.674,254.442 637.409,254.442 " />
<polyline points="645.076,254.442 643.543,255.209 642.009,256.742 641.243,258.276 640.476,260.576 640.476,264.41 641.243,266.71 642.009,268.244 643.543,269.777 645.076,270.544 648.144,270.544 649.677,269.777 651.211,268.244 651.977,266.71 652.744,264.41 652.744,260.576 651.977,258.276 651.211,256.742 649.677,255.209 648.144,254.442 645.076,254.442 " />
<polyline points="628.974,280.512 628.974,296.615 " />
<polyline points="628.974,280.512 638.942,280.512 " />
<polyline points="628.974,288.18 635.108,288.18 " />
<polyline points="646.61,280.512 640.476,296.615 " />
<polyline points="646.61,280.512 652.744,296.615 " />
<polyline points="642.776,291.247 650.444,291.247 " />
<polyline points="656.578,280.512 656.578,296.615 " />
<polyline points="656.578,280.512 667.313,296.615 " />
<polyline points="667.313,280.512 667.313,296.615 " />
<polyline points="28.7109,243.624 28.7109,257.043 " />
<polyline points="28.7109,313.401 28.7109,283.88 " />
<polyline points="187.178,261.947 187.178,278.049 " />
<polyline points="197.913,261.947 197.913,278.049 " />
<polyline points="187.178,269.615 197.913,269.615 " />
<polyline points="235.485,267.314 243.92,278.049 " />
<polyline points="243.92,267.314 235.485,278.049 " />
<polyline points="263.856,261.947 267.69,278.049 " />
<polyline points="271.524,261.947 267.69,278.049 " />
<polyline points="271.524,261.947 275.357,278.049 " />
<polyline points="279.191,261.947 275.357,278.049 " />
<polyline points="1013.96,128.279 1013.96,412.643 " />
<polyline points="1013.96,128.279 901.361,128.279 " />
<polyline points="901.361,128.279 901.361,412.643 " />
<polyline points="1013.96,412.643 901.361,412.643 " />
<polyline points="901.361,190.777 1013.96,190.777 " />
<polyline points="901.361,243.624 1013.96,243.624 " />
<polyline points="901.361,297.298 1013.96,297.298 " />
<polyline points="901.361,350.145 1013.96,350.145 " />
<polyline points="901.361,425.142 901.361,484.515 " />
<polyline points="1013.96,425.142 1013.96,484.515 " />
</g>
<g clip-path="url(#clipId0)" fill="rgb(0,0,0)" stroke="rgb(0,0,0)" stroke-width="0.25" >
<path d="M997.858,466.207 997.858,471.574 1013.96,468.891 1013.96,468.891 z" />
</g>
<g clip-path="url(#clipId0)" fill="none" stroke="rgb(0,0,0)" stroke-width="0.25" >
<polyline points="997.858,468.891 981.232,468.891 " />
</g>
<g clip-path="url(#clipId0)" fill="rgb(0,0,0)" stroke="rgb(0,0,0)" stroke-width="0.25" >
<path d="M917.463,471.574 917.463,466.207 901.361,468.891 901.361,468.891 z" />
</g>
<g clip-path="url(#clipId0)" fill="none" stroke="rgb(0,0,0)" stroke-width="0.25" >
<polyline points="917.463,468.891 937.206,468.891 " />
<polyline points="947.819,462.548 951.653,478.651 " />
<polyline points="955.486,462.548 951.653,478.651 " />
<polyline points="955.486,462.548 959.32,478.651 " />
<polyline points="963.154,462.548 959.32,478.651 " />
<circle cx="38.0919" cy="584.214" r="7.57884" />
<polyline points="30.5131,584.214 45.6708,584.214 " />
<polyline points="62.2715,581.623 76.0735,581.623 " />
<polyline points="62.2715,586.223 76.0735,586.223 " />
<polyline points="102.144,574.722 100.61,575.488 99.0768,577.022 98.31,578.556 97.5432,580.856 97.5432,584.69 98.31,586.99 99.0768,588.524 100.61,590.057 102.144,590.824 105.211,590.824 106.745,590.057 108.278,588.524 109.045,586.99 109.812,584.69 109.812,580.856 109.045,578.556 108.278,577.022 106.745,575.488 105.211,574.722 102.144,574.722 " />
<polyline points="115.179,574.722 115.179,590.824 " />
<polyline points="115.179,574.722 122.08,574.722 124.38,575.488 125.147,576.255 125.914,577.789 125.914,580.089 125.147,581.623 124.38,582.389 122.08,583.156 115.179,583.156 " />
<polyline points="134.348,574.722 134.348,590.824 " />
<polyline points="128.981,574.722 139.716,574.722 " />
<polyline points="143.55,574.722 143.55,590.824 " />
<polyline points="149.684,574.722 149.684,590.824 " />
<polyline points="149.684,574.722 155.818,590.824 " />
<polyline points="161.952,574.722 155.818,590.824 " />
<polyline points="161.952,574.722 161.952,590.824 " />
<polyline points="168.087,574.722 168.087,586.223 168.853,588.524 170.387,590.057 172.687,590.824 174.221,590.824 176.521,590.057 178.055,588.524 178.821,586.223 178.821,574.722 " />
<polyline points="184.956,574.722 184.956,590.824 " />
<polyline points="184.956,574.722 191.09,590.824 " />
<polyline points="197.224,574.722 191.09,590.824 " />
<polyline points="197.224,574.722 197.224,590.824 " />
<polyline points="223.294,574.722 217.16,590.824 " />
<polyline points="223.294,574.722 229.429,590.824 " />
<polyline points="219.461,585.457 227.128,585.457 " />
<polyline points="233.263,574.722 233.263,590.824 " />
<polyline points="233.263,574.722 243.997,590.824 " />
<polyline points="243.997,574.722 243.997,590.824 " />
<polyline points="260.866,578.556 260.1,577.022 258.566,575.488 257.033,574.722 253.965,574.722 252.432,575.488 250.898,577.022 250.132,578.556 249.365,580.856 249.365,584.69 250.132,586.99 250.898,588.524 252.432,590.057 253.965,590.824 257.033,590.824 258.566,590.057 260.1,588.524 260.866,586.99 260.866,584.69 " />
<polyline points="257.033,584.69 260.866,584.69 " />
<polyline points="266.234,574.722 266.234,590.824 275.435,590.824 " />
<polyline points="279.269,574.722 279.269,590.824 " />
<polyline points="279.269,574.722 289.237,574.722 " />
<polyline points="279.269,582.389 285.403,582.389 " />
<polyline points="279.269,590.824 289.237,590.824 " />
<polyline points="354.355,271.062 369.513,271.062 " />
<circle cx="361.934" cy="271.062" r="7.57884" />
<polyline points="90.1378,263.459 88.6043,264.226 87.0707,265.759 86.3039,267.293 85.5371,269.593 85.5371,273.427 86.3039,275.727 87.0707,277.261 88.6043,278.794 90.1378,279.561 93.2049,279.561 94.7385,278.794 96.272,277.261 97.0388,275.727 97.8056,273.427 97.8056,269.593 97.0388,267.293 96.272,265.759 94.7385,264.226 93.2049,263.459 90.1378,263.459 " />
<polyline points="92.4381,276.494 97.0388,281.095 " />
<polyline points="282.932,275.078 281.399,275.845 279.865,277.378 279.098,279.679 279.098,281.212 279.865,283.513 281.399,285.046 282.932,285.813 285.233,285.813 286.766,285.046 288.3,283.513 289.067,281.212 289.067,279.679 288.3,277.378 286.766,275.845 285.233,275.078 282.932,275.078 " />
<polyline points="10.0392,270.461 47.3827,270.461 " />
<polyline points="47.3827,270.461 28.7109,283.88 " />
<polyline points="28.7109,257.043 10.0392,270.461 " />
<polyline points="28.7109,257.043 28.7109,227.522 " />
<polyline points="28.7109,283.88 28.7109,297.298 " />
<polyline points="32.5098,617.881 36.3437,633.983 " />
<polyline points="40.1776,617.881 36.3437,633.983 " />
<polyline points="40.1776,617.881 44.0115,633.983 " />
<polyline points="47.8454,617.881 44.0115,633.983 " />
<polyline points="84.6506,624.782 98.4526,624.782 " />
<polyline points="84.6506,629.383 98.4526,629.383 " />
<polyline points="119.156,617.881 122.989,633.983 " />
<polyline points="126.823,617.881 122.989,633.983 " />
<polyline points="126.823,617.881 130.657,633.983 " />
<polyline points="134.491,617.881 130.657,633.983 " />
<polyline points="155.194,624.782 168.996,624.782 " />
<polyline points="155.194,629.383 168.996,629.383 " />
<polyline points="189.699,617.881 193.533,633.983 " />
<polyline points="197.367,617.881 193.533,633.983 " />
<polyline points="197.367,617.881 201.201,633.983 " />
<polyline points="205.034,617.881 201.201,633.983 " />
<polyline points="225.737,624.782 239.539,624.782 " />
<polyline points="225.737,629.383 239.539,629.383 " />
<polyline points="260.242,617.881 264.076,633.983 " />
<polyline points="267.91,617.881 264.076,633.983 " />
<polyline points="267.91,617.881 271.744,633.983 " />
<polyline points="275.578,617.881 271.744,633.983 " />
<polyline points="56.8853,636.43 55.3517,637.197 53.8182,638.731 53.0514,641.031 53.0514,642.564 53.8182,644.865 55.3517,646.398 56.8853,647.165 59.1856,647.165 60.7191,646.398 62.2527,644.865 63.0195,642.564 63.0195,641.031 62.2527,638.731 60.7191,637.197 59.1856,636.43 56.8853,636.43 " />
<polyline points="134.33,634.13 135.863,633.363 138.163,631.063 138.163,647.165 " />
<polyline points="1013.96,243.624 901.361,297.298 " />
<polyline points="901.361,243.624 1013.96,297.298 " />
<polyline points="480.041,288.997 480.041,305.099 " />
<polyline points="490.776,288.997 490.776,305.099 " />
<polyline points="480.041,296.664 490.776,296.664 " />
<polyline points="528.348,294.364 536.783,305.099 " />
<polyline points="536.783,294.364 528.348,305.099 " />
<polyline points="556.719,288.997 560.553,305.099 " />
<polyline points="564.387,288.997 560.553,305.099 " />
<polyline points="564.387,288.997 568.221,305.099 " />
<polyline points="572.055,288.997 568.221,305.099 " />
<polyline points="483.018,272.024 457.125,272.024 " />
<polyline points="497.292,307.75 498.825,306.984 501.126,304.683 501.126,320.786 " />
<polyline points="574.485,307.75 576.018,306.984 578.318,304.683 578.318,320.786 " />
<polyline points="898.313,642.941 898.313,666.558 " />
<polyline points="898.313,642.941 912.933,642.941 " />
<polyline points="898.313,654.187 907.31,654.187 " />
<polyline points="898.313,666.558 912.933,666.558 " />
<polyline points="919.681,642.941 919.681,666.558 " />
<polyline points="919.681,642.941 929.802,642.941 933.176,644.066 934.301,645.19 935.425,647.439 935.425,649.689 934.301,651.938 933.176,653.063 929.802,654.187 919.681,654.187 " />
<polyline points="927.553,654.187 935.425,666.558 " />
<polyline points="943.297,648.564 943.297,647.439 944.422,645.19 945.547,644.066 947.796,642.941 952.294,642.941 954.543,644.066 955.668,645.19 956.793,647.439 956.793,649.689 955.668,651.938 953.419,655.312 942.173,666.558 957.917,666.558 " />
<polyline points="965.789,656.436 986.032,656.436 " />
<polyline points="996.154,642.941 1008.52,642.941 1001.78,651.938 1005.15,651.938 1007.4,653.063 1008.52,654.187 1009.65,657.561 1009.65,659.81 1008.52,663.184 1006.28,665.433 1002.9,666.558 999.528,666.558 996.154,665.433 995.029,664.309 993.905,662.059 " />
<polyline points="206.657,634.897 206.657,634.13 207.424,632.596 208.191,631.83 209.724,631.063 212.791,631.063 214.325,631.83 215.092,632.596 215.858,634.13 215.858,635.663 215.092,637.197 213.558,639.497 205.89,647.165 216.625,647.165 " />
<polyline points="283.155,631.063 291.589,631.063 286.989,637.197 289.289,637.197 290.823,637.964 291.589,638.731 292.356,641.031 292.356,642.564 291.589,644.865 290.056,646.398 287.755,647.165 285.455,647.165 283.155,646.398 282.388,645.632 281.621,644.098 " />
<polyline points="204.638,127.851 204.638,143.953 " />
<polyline points="215.373,127.851 215.373,143.953 " />
<polyline points="204.638,135.519 215.373,135.519 " />
<polyline points="252.945,133.218 261.379,143.953 " />
<polyline points="261.379,133.218 252.945,143.953 " />
<polyline points="281.316,127.851 285.15,143.953 " />
<polyline points="288.983,127.851 285.15,143.953 " />
<polyline points="288.983,127.851 292.817,143.953 " />
<polyline points="296.651,127.851 292.817,143.953 " />
<polyline points="297.325,139.448 297.325,138.682 298.092,137.148 298.859,136.381 300.392,135.615 303.459,135.615 304.993,136.381 305.76,137.148 306.526,138.682 306.526,140.215 305.76,141.749 304.226,144.049 296.558,151.717 307.293,151.717 " />
<polyline points="220.05,139.448 220.05,138.682 220.817,137.148 221.584,136.381 223.117,135.615 226.184,135.615 227.718,136.381 228.485,137.148 229.251,138.682 229.251,140.215 228.485,141.749 226.951,144.049 219.283,151.717 230.018,151.717 " />
</g>
<g clip-path="url(#clipId0)" fill="rgb(0,0,0)" stroke="rgb(0,0,0)" stroke-width="0.25" >
<polygon points="399.285,210.17 407.456,224.302 395.143,213.584 " />
</g>
<g clip-path="url(#clipId0)" fill="none" stroke="rgb(0,0,0)" stroke-width="0.25" >
<polyline points="397.214,211.877 336.962,138.783 " />
<polyline points="336.962,138.783 313.391,138.783 " />
<polyline points="207.855,275.078 206.322,275.845 204.788,277.378 204.021,279.679 204.021,281.212 204.788,283.513 206.322,285.046 207.855,285.813 210.155,285.813 211.689,285.046 213.222,283.513 213.989,281.212 213.989,279.679 213.222,277.378 211.689,275.845 210.155,275.078 207.855,275.078 " />
</g>
</svg>
