<?xml version="1.0" standalone="no"?>
<svg viewBox="0 0 1024 768" version="1.1" xmlns="http://www.w3.org/2000/svg" xmlns:xlink="http://www.w3.org/1999/xlink" stroke-linecap="round" stroke-linejoin="round" fill-rule="evenodd" xml:space="preserve" >
<defs >
<clipPath id="clipId0" >
<path d="M0,768 1024,768 1024,0 0,0 z" />
</clipPath>
</defs>
<g clip-path="url(#clipId0)" fill="none" stroke="rgb(0,0,0)" stroke-width="0.1" />
<g clip-path="url(#clipId0)" fill="none" stroke="rgb(0,0,0)" stroke-width="0.25" >
<polyline points="34.6973,110.935 524.021,110.935 " />
<polyline points="524.021,110.935 524.021,193.47 " />
<polyline points="524.021,486.468 34.6973,486.468 " />
<polyline points="34.6973,521.91 34.6973,316.422 " />
<polyline points="59.3553,298.702 10.0392,298.702 " />
<polyline points="34.6973,280.981 34.6973,75.4937 " />
<polyline points="34.6973,316.422 59.3553,298.702 " />
<polyline points="10.0392,298.702 34.6973,280.981 " />
<polyline points="524.021,403.934 524.021,486.468 " />
<polyline points="524.021,403.934 524.021,383.761 " />
<path d="M908.468,348.32  A30.5186,30.5186 0 0,0 908.468,298.702 " />
<path d="M908.468,249.084  A30.4447,30.4447 0 0,0 908.468,298.702 " />
<path d="M908.468,298.702  A30.5186,30.5186 0 0,0 908.468,249.084 " />
</g>
<g clip-path="url(#clipId0)" fill="rgb(0,0,0)" stroke="rgb(0,0,0)" stroke-width="0.25" >
<path d="M837.451,297.221 837.451,304.309 858.716,300.765 858.716,300.765 z" />
</g>
<g clip-path="url(#clipId0)" fill="none" stroke="rgb(0,0,0)" stroke-width="0.25" >
<polyline points="837.451,300.765 703.256,300.765 " />
</g>
<g clip-path="url(#clipId0)" fill="rgb(0,0,0)" stroke="rgb(0,0,0)" stroke-width="0.25" >
<path d="M319.904,301.348 319.904,308.436 341.169,304.892 341.169,304.892 z" />
</g>
<g clip-path="url(#clipId0)" fill="none" stroke="rgb(0,0,0)" stroke-width="0.25" >
<polyline points="319.904,304.892 185.709,304.892 " />
<polyline points="608.212,287.063 608.212,308.328 " />
<polyline points="608.212,287.063 615.301,287.063 618.338,288.075 620.364,290.101 621.376,292.126 622.389,295.164 622.389,300.227 621.376,303.265 620.364,305.29 618.338,307.315 615.301,308.328 608.212,308.328 " />
</g>
<g clip-path="url(#clipId0)" fill="rgb(0,0,0)" stroke="rgb(0,0,0)" stroke-width="0.25" >
<path d="M616.781,328.213 609.693,328.213 613.237,349.478 613.237,349.478 z" />
</g>
<g clip-path="url(#clipId0)" fill="none" stroke="rgb(0,0,0)" stroke-width="0.25" >
<polyline points="613.237,328.213 613.237,312.583 " />
</g>
<g clip-path="url(#clipId0)" fill="rgb(0,0,0)" stroke="rgb(0,0,0)" stroke-width="0.25" >
<path d="M609.693,271.398 616.781,271.398 613.237,250.133 613.237,250.133 z" />
</g>
<g clip-path="url(#clipId0)" fill="none" stroke="rgb(0,0,0)" stroke-width="0.25" >
<polyline points="613.237,271.398 613.237,282.152 " />
<polyline points="967.381,275.374 967.381,296.638 " />
<polyline points="960.292,275.374 974.469,275.374 " />
<polyline points="984.595,275.374 982.57,276.386 980.545,278.411 979.532,280.437 978.519,283.474 978.519,288.537 979.532,291.575 980.545,293.601 982.57,295.626 984.595,296.638 988.645,296.638 990.671,295.626 992.696,293.601 993.709,291.575 994.721,288.537 994.721,283.474 993.709,280.437 992.696,278.411 990.671,276.386 988.645,275.374 984.595,275.374 " />
<polyline points="963.33,309.802 963.33,331.067 " />
<polyline points="963.33,309.802 976.494,309.802 " />
<polyline points="963.33,319.928 971.431,319.928 " />
<polyline points="986.62,309.802 978.519,331.067 " />
<polyline points="986.62,309.802 994.721,331.067 " />
<polyline points="981.557,323.979 991.683,323.979 " />
<polyline points="999.784,309.802 999.784,331.067 " />
<polyline points="999.784,309.802 1013.96,331.067 " />
<polyline points="1013.96,309.802 1013.96,331.067 " />
<polyline points="559.463,249.084 908.468,249.084 " />
<polyline points="559.463,348.32 908.468,348.32 " />
<polyline points="524.021,213.642 524.021,193.47 " />
<path d="M524.021,213.642  A35.4414,35.4414 0 0,0 559.463,249.084 " />
<path d="M559.463,348.32  A35.4414,35.4414 0 0,0 524.021,383.761 " />
<polyline points="524.021,193.47 524.021,383.761 " />
<polyline points="559.463,249.084 559.463,348.32 " />
</g>
<g clip-path="url(#clipId0)" fill="rgb(0,0,0)" stroke="rgb(0,0,0)" stroke-width="0.25" >
<path d="M549.689,373.572 555.173,369.081 538.958,354.874 538.958,354.874 z" />
</g>
<g clip-path="url(#clipId0)" fill="none" stroke="rgb(0,0,0)" stroke-width="0.25" >
<polyline points="552.431,371.326 578.662,403.356 " />
<polyline points="578.662,403.356 594.543,403.356 " />
<polyline points="619.858,399.812 619.858,413.989 " />
<polyline points="619.858,405.888 620.871,402.85 622.896,400.825 624.921,399.812 627.959,399.812 " />
<polyline points="255.299,262.515 253.274,263.527 251.248,265.553 250.236,267.578 249.223,270.616 249.223,275.679 250.236,278.717 251.248,280.742 253.274,282.767 255.299,283.78 259.349,283.78 261.375,282.767 263.4,280.742 264.412,278.717 265.425,275.679 265.425,270.616 264.412,267.578 263.4,265.553 261.375,263.527 259.349,262.515 255.299,262.515 " />
<polyline points="258.337,279.729 264.412,285.805 " />
<polyline points="210.037,320.768 210.037,342.033 " />
<polyline points="224.214,320.768 224.214,342.033 " />
<polyline points="210.037,330.894 224.214,330.894 " />
<polyline points="252.567,327.856 263.706,342.033 " />
<polyline points="263.706,327.856 252.567,342.033 " />
<polyline points="290.033,320.768 295.097,342.033 " />
<polyline points="300.16,320.768 295.097,342.033 " />
<polyline points="300.16,320.768 305.223,342.033 " />
<polyline points="310.286,320.768 305.223,342.033 " />
<polyline points="234.152,341.94 232.127,342.952 230.102,344.977 229.089,348.015 229.089,350.041 230.102,353.078 232.127,355.104 234.152,356.116 237.19,356.116 239.215,355.104 241.241,353.078 242.253,350.041 242.253,348.015 241.241,344.977 239.215,342.952 237.19,341.94 234.152,341.94 " />
<polyline points="318.641,341.94 316.616,342.952 314.591,344.977 313.578,348.015 313.578,350.041 314.591,353.078 316.616,355.104 318.641,356.116 321.679,356.116 323.704,355.104 325.73,353.078 326.742,350.041 326.742,348.015 325.73,344.977 323.704,342.952 321.679,341.94 318.641,341.94 " />
<polyline points="631.667,295.759 633.692,294.746 636.73,291.708 636.73,312.973 " />
<polyline points="778.092,661.318 778.092,692.506 " />
<polyline points="778.092,661.318 797.399,661.318 " />
<polyline points="778.092,676.169 789.973,676.169 " />
<polyline points="778.092,692.506 797.399,692.506 " />
<polyline points="806.31,661.318 806.31,692.506 " />
<polyline points="806.31,661.318 819.677,661.318 824.132,662.803 825.617,664.288 827.102,667.258 827.102,670.229 825.617,673.199 824.132,674.684 819.677,676.169 806.31,676.169 " />
<polyline points="816.706,676.169 827.102,692.506 " />
<polyline points="837.499,668.744 837.499,667.258 838.984,664.288 840.469,662.803 843.439,661.318 849.38,661.318 852.35,662.803 853.835,664.288 855.321,667.258 855.321,670.229 853.835,673.199 850.865,677.655 836.013,692.506 856.806,692.506 " />
<polyline points="867.202,679.14 893.935,679.14 " />
<polyline points="908.786,667.258 911.757,665.773 916.212,661.318 916.212,692.506 " />
</g>
</svg>
