<?xml version="1.0" standalone="no"?>
<svg viewBox="0 0 1024 768" version="1.1" xmlns="http://www.w3.org/2000/svg" xmlns:xlink="http://www.w3.org/1999/xlink" stroke-linecap="round" stroke-linejoin="round" fill-rule="evenodd" xml:space="preserve" >
<defs >
<clipPath id="clipId0" >
<path d="M0,768 1024,768 1024,0 0,0 z" />
</clipPath>
</defs>
<g clip-path="url(#clipId0)" fill="none" stroke="rgb(0,0,0)" stroke-width="0.1" />
<g clip-path="url(#clipId0)" fill="none" stroke="rgb(0,0,0)" stroke-width="0.25" >
<polyline points="596.589,464.14 807.488,342.377 " />
<polyline points="807.488,342.377 807.488,159.733 " />
<polyline points="807.488,159.733 596.589,281.496 " />
<polyline points="596.589,281.496 596.589,464.14 " />
<polyline points="807.488,159.733 543.864,7.52941 " />
<polyline points="596.589,281.496 438.415,190.174 " />
<polyline points="438.415,190.174 280.24,281.496 " />
<polyline points="280.24,281.496 174.79,220.614 " />
<polyline points="174.79,220.614 543.864,7.52941 " />
<polyline points="174.537,221.532 174.537,404.176 " />
<polyline points="174.79,403.258 280.24,464.14 " />
<polyline points="280.24,464.14 280.24,281.496 " />
<polyline points="437.877,372.28 279.702,463.602 " />
<polyline points="596.589,464.14 438.415,372.818 " />
<polyline points="438.415,372.818 438.415,190.174 " />
<polyline points="174.79,403.258 543.864,190.174 " stroke-dasharray="30.440688,15.220344" />
<polyline points="807.488,342.377 543.864,190.174 " stroke-dasharray="30.440688,15.220344" />
<polyline points="610.685,475.445 759.638,560.833 " />
<polyline points="821.584,353.682 970.537,439.071 " />
<polyline points="759.92,542.732 826.926,504.046 " />
<polyline points="939.185,439.234 872.178,477.92 " />
</g>
<g clip-path="url(#clipId0)" fill="rgb(0,0,0)" stroke="rgb(0,0,0)" stroke-width="0.25" >
<path d="M761.442,545.368 758.398,540.096 744.103,551.864 744.103,551.864 z" />
<path d="M940.707,441.87 937.662,436.597 955.002,430.101 955.002,430.101 z" />
</g>
<g clip-path="url(#clipId0)" fill="none" stroke="rgb(0,0,0)" stroke-width="0.25" >
<polyline points="836.941,481.851 841.29,500.115 " />
<polyline points="845.639,481.851 841.29,500.115 " />
<polyline points="845.639,481.851 849.987,500.115 " />
<polyline points="854.336,481.851 849.987,500.115 " />
<polyline points="821.584,150.928 933.29,86.4341 " />
<polyline points="821.584,333.572 933.29,269.078 " />
<polyline points="923.048,110.612 923.048,156.273 " />
<polyline points="923.048,256.727 923.048,211.066 " />
</g>
<g clip-path="url(#clipId0)" fill="rgb(0,0,0)" stroke="rgb(0,0,0)" stroke-width="0.25" >
<path d="M920.004,110.612 926.092,110.612 923.048,92.3476 923.048,92.3476 z" />
<path d="M920.004,256.727 926.092,256.727 923.048,274.992 923.048,274.992 z" />
</g>
<g clip-path="url(#clipId0)" fill="none" stroke="rgb(0,0,0)" stroke-width="0.25" >
<polyline points="916.818,174.537 916.818,192.802 " />
<polyline points="928.995,174.537 928.995,192.802 " />
<polyline points="916.818,183.235 928.995,183.235 " />
<polyline points="134.901,278.793 139.25,297.057 " />
<polyline points="143.599,278.793 139.25,297.057 " />
<polyline points="143.599,278.793 147.947,297.057 " />
<polyline points="152.296,278.793 147.947,297.057 " />
</g>
<g clip-path="url(#clipId0)" fill="rgb(0,0,0)" stroke="rgb(0,0,0)" stroke-width="0.25" >
<path d="M113.863,274.575 116.907,269.303 99.5674,262.807 99.5674,262.807 z" />
<path d="M185.677,315.86 188.721,310.587 203.017,322.356 203.017,322.356 z" />
</g>
<g clip-path="url(#clipId0)" fill="none" stroke="rgb(0,0,0)" stroke-width="0.25" >
<polyline points="203.017,322.356 168.984,302.707 " />
<polyline points="160.695,227.066 81.7342,272.506 " />
<polyline points="266.145,287.948 184.642,334.855 " />
<polyline points="384.068,429.338 384.068,447.603 " />
<polyline points="396.244,429.338 396.244,447.603 " />
<polyline points="384.068,438.036 396.244,438.036 " />
</g>
<g clip-path="url(#clipId0)" fill="rgb(0,0,0)" stroke="rgb(0,0,0)" stroke-width="0.25" >
<path d="M393.342,511.528 387.254,511.528 390.298,529.793 390.298,529.793 z" />
<path d="M393.342,365.413 387.254,365.413 390.298,347.149 390.298,347.149 z" />
</g>
<g clip-path="url(#clipId0)" fill="none" stroke="rgb(0,0,0)" stroke-width="0.25" >
<polyline points="390.298,511.528 390.298,465.867 " />
<polyline points="390.298,365.413 390.298,411.074 " />
<polyline points="291.834,472.945 403.54,537.438 " />
<polyline points="291.834,290.301 403.54,354.794 " />
<polyline points="211.307,353.417 49.8642,446.626 " />
</g>
<g clip-path="url(#clipId0)" fill="rgb(0,0,0)" stroke="rgb(0,0,0)" stroke-width="0.25" >
<path d="M209.785,350.78 212.829,356.053 227.125,344.284 227.125,344.284 z" />
</g>
<g clip-path="url(#clipId0)" fill="none" stroke="rgb(0,0,0)" stroke-width="0.25" >
<polyline points="161.646,290.703 159.906,291.573 158.167,293.313 157.297,295.922 157.297,297.661 158.167,300.271 159.906,302.01 161.646,302.88 164.255,302.88 165.994,302.01 167.734,300.271 168.604,297.661 168.604,295.922 167.734,293.313 165.994,291.573 164.255,290.703 161.646,290.703 " />
<polyline points="861.946,506.152 863.686,505.282 866.295,502.673 866.295,520.937 " />
<polyline points="130.889,280.054 100.91,262.746 " />
<polyline points="543.864,190.174 543.864,7.52941 " stroke-dasharray="30.440688,15.220344" />
<polyline points="838.512,390.729 702.039,311.936 " />
</g>
<g clip-path="url(#clipId0)" fill="rgb(0,0,0)" stroke="rgb(0,0,0)" stroke-width="0.25" >
<path d="M821.173,384.233 824.217,378.961 838.512,390.729 838.512,390.729 z" />
</g>
<g clip-path="url(#clipId0)" fill="none" stroke="rgb(0,0,0)" stroke-width="0.25" >
<polyline points="772.296,409.861 772.296,428.125 " />
<polyline points="766.208,409.861 778.384,409.861 " />
<polyline points="787.082,409.861 785.342,410.73 783.603,412.47 782.733,414.209 781.863,416.819 781.863,421.167 782.733,423.776 783.603,425.516 785.342,427.255 787.082,428.125 790.561,428.125 792.3,427.255 794.039,425.516 794.909,423.776 795.779,421.167 795.779,416.819 794.909,414.209 794.039,412.47 792.3,410.73 790.561,409.861 787.082,409.861 " />
<polyline points="820.131,409.861 820.131,428.125 " />
<polyline points="820.131,409.861 831.438,409.861 " />
<polyline points="820.131,418.558 827.089,418.558 " />
<polyline points="840.135,409.861 833.177,428.125 " />
<polyline points="840.135,409.861 847.093,428.125 " />
<polyline points="835.787,422.037 844.484,422.037 " />
<polyline points="851.442,409.861 851.442,428.125 " />
<polyline points="851.442,409.861 863.618,428.125 " />
<polyline points="863.618,409.861 863.618,428.125 " />
<polyline points="101.425,375.241 99.6859,376.11 97.9465,377.85 97.0767,379.589 96.207,382.199 96.207,386.547 97.0767,389.156 97.9465,390.896 99.6859,392.635 101.425,393.505 104.904,393.505 106.644,392.635 108.383,390.896 109.253,389.156 110.123,386.547 110.123,382.199 109.253,379.589 108.383,377.85 106.644,376.11 104.904,375.241 101.425,375.241 " />
<polyline points="104.035,390.026 109.253,395.245 " />
<polyline points="390.298,411.074 390.298,416.72 " />
<polyline points="855.504,733.683 855.504,760.471 " />
<polyline points="855.504,733.683 872.087,733.683 " />
<polyline points="855.504,746.439 865.709,746.439 " />
<polyline points="855.504,760.471 872.087,760.471 " />
<polyline points="879.741,733.683 879.741,760.471 " />
<polyline points="879.741,733.683 891.221,733.683 895.048,734.958 896.324,736.234 897.599,738.785 897.599,741.336 896.324,743.888 895.048,745.163 891.221,746.439 879.741,746.439 " />
<polyline points="888.67,746.439 897.599,760.471 " />
<polyline points="907.804,733.683 921.836,733.683 914.182,743.888 918.009,743.888 920.56,745.163 921.836,746.439 923.111,750.266 923.111,752.817 921.836,756.644 919.285,759.195 915.458,760.471 911.631,760.471 907.804,759.195 906.528,757.919 905.253,755.368 " />
<polyline points="932.041,748.99 955.002,748.99 " />
<polyline points="967.758,738.785 970.309,737.51 974.136,733.683 974.136,760.471 " />
</g>
</svg>
