<?xml version="1.0" standalone="no"?>
<svg viewBox="0 0 1024 768" version="1.1" xmlns="http://www.w3.org/2000/svg" xmlns:xlink="http://www.w3.org/1999/xlink" stroke-linecap="round" stroke-linejoin="round" fill-rule="evenodd" xml:space="preserve" >
<defs >
<clipPath id="clipId0" >
<path d="M0,768 1024,768 1024,0 0,0 z" />
</clipPath>
</defs>
<g clip-path="url(#clipId0)" fill="none" stroke="rgb(0,0,0)" stroke-width="0.1" />
<g clip-path="url(#clipId0)" fill="none" stroke="rgb(0,0,0)" stroke-width="0.3" >
<polyline points="245.386,231.768 31.3742,231.768 " />
<polyline points="245.386,369.489 31.3742,369.489 " />
<polyline points="245.386,369.489 245.386,231.768 " />
<polyline points="192.189,300.629 80.1927,300.629 " />
</g>
<g clip-path="url(#clipId0)" fill="rgb(0,0,0)" stroke="rgb(0,0,0)" stroke-width="0.3" >
<path d="M178.417,296.038 178.417,305.219 205.961,300.629 205.961,300.629 z" />
</g>
<g clip-path="url(#clipId0)" fill="none" stroke="rgb(0,0,0)" stroke-width="0.3" >
<polyline points="468.295,438.35 641.666,438.35 " />
<polyline points="468.295,162.907 641.666,162.907 " />
<polyline points="245.386,231.768 468.295,162.907 " />
<polyline points="245.386,369.489 468.295,438.35 " />
<polyline points="468.295,438.35 468.295,162.907 " />
</g>
<g clip-path="url(#clipId0)" fill="rgb(0,0,0)" stroke="rgb(0,0,0)" stroke-width="0.3" >
<path d="M530.997,296.038 530.997,305.219 558.541,300.629 558.541,300.629 z" />
</g>
<g clip-path="url(#clipId0)" fill="none" stroke="rgb(0,0,0)" stroke-width="0.3" >
<polyline points="614.287,307.809 616.911,306.498 620.846,302.563 620.846,330.107 " />
<polyline points="503.66,255.668 503.66,283.212 " />
<polyline points="494.478,255.668 512.841,255.668 " />
<polyline points="525.958,255.668 523.334,256.98 520.711,259.603 519.4,262.226 518.088,266.161 518.088,272.719 519.4,276.654 520.711,279.278 523.334,281.901 525.958,283.212 531.204,283.212 533.827,281.901 536.451,279.278 537.762,276.654 539.074,272.719 539.074,266.161 537.762,262.226 536.451,259.603 533.827,256.98 531.204,255.668 525.958,255.668 " />
<polyline points="483.985,316.3 483.985,343.844 " />
<polyline points="483.985,316.3 501.037,316.3 " />
<polyline points="483.985,329.416 494.478,329.416 " />
<polyline points="514.153,316.3 503.66,343.844 " />
<polyline points="514.153,316.3 524.646,343.844 " />
<polyline points="507.595,334.663 520.711,334.663 " />
<polyline points="531.204,316.3 531.204,343.844 " />
<polyline points="531.204,316.3 549.567,343.844 " />
<polyline points="549.567,316.3 549.567,343.844 " />
<path d="M360.418,390.278  A398.01,398.01 0 0,0 369.656,328.685 " />
<path d="M369.56,271.24  A398.01,398.01 0 0,0 360.418,210.979 " />
</g>
<g clip-path="url(#clipId0)" fill="rgb(0,0,0)" stroke="rgb(0,0,0)" stroke-width="0.3" >
<path d="M359.298,375.805 368.206,378.027 357.084,403.641 357.084,403.641 z" />
<path d="M359.298,225.452 368.206,223.23 357.084,197.616 357.084,197.616 z" />
</g>
<g clip-path="url(#clipId0)" fill="none" stroke="rgb(0,0,0)" stroke-width="0.3" >
<polyline points="641.666,361.773 641.666,465.894 " />
<polyline points="641.666,264.12 641.666,337.137 " />
<polyline points="620.331,361.773 641.666,361.773 " />
<polyline points="663.001,337.137 641.666,337.137 " />
<polyline points="663.001,337.137 620.331,361.773 " />
<polyline points="663.001,239.484 620.331,264.12 " />
<polyline points="663.001,239.484 641.666,239.484 " />
<polyline points="620.331,264.12 641.666,264.12 " />
<polyline points="641.666,135.363 641.666,239.484 " />
<polyline points="131.141,253.342 128.518,254.653 125.895,257.277 124.583,259.9 123.271,263.835 123.271,270.393 124.583,274.328 125.895,276.951 128.518,279.574 131.141,280.886 136.388,280.886 139.011,279.574 141.634,276.951 142.946,274.328 144.257,270.393 144.257,263.835 142.946,259.9 141.634,257.277 139.011,254.653 136.388,253.342 131.141,253.342 " />
<polyline points="135.076,275.639 142.946,283.509 " />
<circle cx="369.428" cy="301.312" r="13.7721" />
<polyline points="355.656,301.312 383.2,301.312 " />
<polyline points="111.975,449.064 109.352,450.375 106.728,452.999 105.417,456.934 105.417,459.557 106.728,463.492 109.352,466.115 111.975,467.427 115.91,467.427 118.533,466.115 121.156,463.492 122.468,459.557 122.468,456.934 121.156,452.999 118.533,450.375 115.91,449.064 111.975,449.064 " />
<polyline points="48.4514,571.142 36.6467,602.13 " />
<polyline points="48.4514,571.142 60.2561,602.13 " />
<polyline points="41.0735,591.8 55.8294,591.8 " />
<polyline points="122.231,565.24 95.6702,612.459 " />
<polyline points="138.462,571.142 126.658,602.13 " />
<polyline points="138.462,571.142 150.267,602.13 " />
<polyline points="131.084,591.8 145.84,591.8 " />
<polyline points="212.242,575.569 188.632,588.849 212.242,602.13 " />
<polyline points="260.936,581.471 257.985,582.947 255.034,585.898 253.558,590.325 253.558,593.276 255.034,597.703 257.985,600.654 260.936,602.13 265.363,602.13 268.314,600.654 271.265,597.703 272.741,593.276 272.741,590.325 271.265,585.898 268.314,582.947 265.363,581.471 260.936,581.471 " />
<polyline points="283.07,581.471 283.07,602.13 " />
<polyline points="283.07,590.325 284.545,585.898 287.496,582.947 290.448,581.471 294.874,581.471 " />
<polyline points="333.24,575.569 356.849,588.849 333.24,602.13 " />
<polyline points="402.592,577.045 405.543,575.569 409.97,571.142 409.97,602.13 " />
<polyline points="74.536,597.432 72.7652,598.318 70.9945,600.088 70.1092,601.859 69.2238,604.515 69.2238,608.942 70.1092,611.598 70.9945,613.369 72.7652,615.139 74.536,616.025 78.0774,616.025 79.8481,615.139 81.6188,613.369 82.5041,611.598 83.3895,608.942 83.3895,604.515 82.5041,601.859 81.6188,600.088 79.8481,598.318 78.0774,597.432 74.536,597.432 " />
</g>
<g clip-path="url(#clipId0)" fill="rgb(0,0,0)" stroke="rgb(0,0,0)" stroke-width="0.3" >
<path d="M601.284,410.957 592.102,410.957 596.693,438.501 596.693,438.501 z" />
</g>
<g clip-path="url(#clipId0)" fill="none" stroke="rgb(0,0,0)" stroke-width="0.3" >
<polyline points="596.693,425.836 596.693,330.591 " />
</g>
<g clip-path="url(#clipId0)" fill="rgb(0,0,0)" stroke="rgb(0,0,0)" stroke-width="0.3" >
<path d="M592.102,190.446 601.284,190.446 596.693,162.902 596.693,162.902 z" />
</g>
<g clip-path="url(#clipId0)" fill="none" stroke="rgb(0,0,0)" stroke-width="0.3" >
<polyline points="596.693,175.422 596.693,271.356 " />
<polyline points="588.134,284.866 588.134,312.411 " />
<polyline points="606.496,284.866 606.496,312.411 " />
<polyline points="588.134,297.983 606.496,297.983 " />
<polyline points="52.7092,289.029 10.0392,313.665 " />
<polyline points="52.7092,289.029 31.3742,289.029 " />
<polyline points="10.0392,313.665 31.3742,313.665 " />
<polyline points="31.3742,217.996 31.3742,289.029 " />
<polyline points="31.3742,313.665 31.3742,383.261 " />
<polyline points="744.927,433.005 744.927,157.562 " />
<polyline points="744.927,157.562 1005.39,157.562 " />
<polyline points="744.927,433.005 1005.39,433.005 " />
<polyline points="1005.39,433.005 1005.39,157.562 " />
<polyline points="1005.39,369.489 744.927,369.489 " />
<polyline points="1005.39,231.768 744.927,231.768 " />
<polyline points="744.927,231.768 1005.39,369.489 " />
<polyline points="744.927,369.489 1005.39,231.768 " />
<polyline points="744.927,505.947 744.927,448.406 " />
<polyline points="1005.39,505.947 1005.39,448.406 " />
</g>
<g clip-path="url(#clipId0)" fill="rgb(0,0,0)" stroke="rgb(0,0,0)" stroke-width="0.3" >
<path d="M772.502,497.174 772.502,487.993 744.958,492.583 744.958,492.583 z" />
</g>
<g clip-path="url(#clipId0)" fill="none" stroke="rgb(0,0,0)" stroke-width="0.3" >
<polyline points="758.73,492.583 833.446,492.583 " />
</g>
<g clip-path="url(#clipId0)" fill="rgb(0,0,0)" stroke="rgb(0,0,0)" stroke-width="0.3" >
<path d="M977.877,487.993 977.877,497.174 1005.42,492.583 1005.42,492.583 z" />
</g>
<g clip-path="url(#clipId0)" fill="none" stroke="rgb(0,0,0)" stroke-width="0.3" >
<polyline points="991.649,492.583 894.968,492.583 " />
<polyline points="849.595,477.123 856.153,504.668 " />
<polyline points="862.711,477.123 856.153,504.668 " />
<polyline points="862.711,477.123 869.27,504.668 " />
<polyline points="875.828,477.123 869.27,504.668 " />
<polyline points="160.983,600.974 162.753,600.088 165.409,597.432 165.409,616.025 " />
<polyline points="245.386,218.489 245.386,83.6347 " />
<polyline points="468.295,149.628 468.295,83.6347 " />
</g>
<g clip-path="url(#clipId0)" fill="rgb(0,0,0)" stroke="rgb(0,0,0)" stroke-width="0.3" >
<path d="M272.931,112.649 272.931,121.83 245.386,117.24 245.386,117.24 z" />
<path d="M440.751,112.649 440.751,121.83 468.295,117.24 468.295,117.24 z" />
</g>
<g clip-path="url(#clipId0)" fill="none" stroke="rgb(0,0,0)" stroke-width="0.3" >
<polyline points="358.058,101.879 358.058,129.423 373.798,129.423 " />
<polyline points="799.273,682.342 799.273,730.82 " />
<polyline points="799.273,682.342 829.283,682.342 " />
<polyline points="799.273,705.427 817.741,705.427 " />
<polyline points="799.273,730.82 829.283,730.82 " />
<polyline points="843.134,682.342 843.134,730.82 " />
<polyline points="843.134,682.342 863.91,682.342 870.835,684.651 873.144,686.959 875.452,691.576 875.452,696.193 873.144,700.81 870.835,703.118 863.91,705.427 843.134,705.427 " />
<polyline points="859.293,705.427 875.452,730.82 " />
<polyline points="912.388,682.342 889.303,714.661 923.93,714.661 " />
<polyline points="912.388,682.342 912.388,730.82 " />
<polyline points="937.781,710.044 979.334,710.044 " />
<polyline points="1002.42,691.576 1007.04,689.268 1013.96,682.342 1013.96,730.82 " />
</g>
<g clip-path="url(#clipId0)" fill="rgb(0,0,0)" stroke="rgb(0,0,0)" stroke-width="0.3" >
<path d="M73.8566,388.209 81.1021,393.848 94.397,369.292 94.397,369.292 z" />
</g>
<g clip-path="url(#clipId0)" fill="none" stroke="rgb(0,0,0)" stroke-width="0.3" >
<polyline points="85.9382,380.16 41.5793,437.154 " />
<polyline points="41.5793,437.154 64.2155,437.154 " />
<polyline points="80.3887,421.943 80.3887,449.488 " />
<polyline points="98.7515,421.943 98.7515,449.488 " />
<polyline points="80.3887,435.06 98.7515,435.06 " />
<polyline points="163.022,431.125 177.449,449.488 " />
<polyline points="177.449,431.125 163.022,449.488 " />
<polyline points="211.552,421.943 218.11,449.488 " />
<polyline points="224.668,421.943 218.11,449.488 " />
<polyline points="224.668,421.943 231.226,449.488 " />
<polyline points="237.785,421.943 231.226,449.488 " />
<polyline points="244.019,449.064 241.396,450.375 238.773,452.999 237.461,456.934 237.461,459.557 238.773,463.492 241.396,466.115 244.019,467.427 247.954,467.427 250.578,466.115 253.201,463.492 254.512,459.557 254.512,456.934 253.201,452.999 250.578,450.375 247.954,449.064 244.019,449.064 " />
<polyline points="38.1223,644.242 45.5003,675.23 " />
<polyline points="52.8782,644.242 45.5003,675.23 " />
<polyline points="52.8782,644.242 60.2561,675.23 " />
<polyline points="67.6341,644.242 60.2561,675.23 " />
<polyline points="107.475,657.523 134.035,657.523 " />
<polyline points="107.475,666.376 134.035,666.376 " />
<polyline points="173.876,644.242 181.254,675.23 " />
<polyline points="188.632,644.242 181.254,675.23 " />
<polyline points="188.632,644.242 196.01,675.23 " />
<polyline points="203.388,644.242 196.01,675.23 " />
<polyline points="243.229,657.523 269.789,657.523 " />
<polyline points="243.229,666.376 269.789,666.376 " />
<polyline points="309.63,644.242 317.008,675.23 " />
<polyline points="324.386,644.242 317.008,675.23 " />
<polyline points="324.386,644.242 331.764,675.23 " />
<polyline points="339.142,644.242 331.764,675.23 " />
<polyline points="79.4109,667.19 76.4598,668.665 73.5086,671.617 72.033,676.043 72.033,678.994 73.5086,683.421 76.4598,686.372 79.4109,687.848 83.8377,687.848 86.7889,686.372 89.74,683.421 91.2156,678.994 91.2156,676.043 89.74,671.617 86.7889,668.665 83.8377,667.19 79.4109,667.19 " />
<polyline points="210.186,662.763 213.137,661.287 217.564,656.861 217.564,687.848 " />
<polyline points="459.602,42.4265 462.225,41.1149 466.16,37.18 466.16,64.7242 " />
<polyline points="241.665,37.18 237.73,38.4916 235.107,42.4265 233.795,48.9847 233.795,52.9196 235.107,59.4777 237.73,63.4126 241.665,64.7242 244.288,64.7242 248.223,63.4126 250.846,59.4777 252.158,52.9196 252.158,48.9847 250.846,42.4265 248.223,38.4916 244.288,37.18 241.665,37.18 " />
<polyline points="558.541,300.629 434.964,300.629 " />
<polyline points="468.295,117.24 375.463,117.24 " />
<polyline points="346.999,117.24 245.386,117.24 " />
</g>
</svg>
