<?xml version="1.0" standalone="no"?>
<svg viewBox="0 0 1024 768" version="1.1" xmlns="http://www.w3.org/2000/svg" xmlns:xlink="http://www.w3.org/1999/xlink" stroke-linecap="round" stroke-linejoin="round" fill-rule="evenodd" xml:space="preserve" >
<defs >
<clipPath id="clipId0" >
<path d="M0,768 1024,768 1024,0 0,0 z" />
</clipPath>
</defs>
<g clip-path="url(#clipId0)" fill="none" stroke="rgb(0,0,0)" stroke-width="0.1" />
<g clip-path="url(#clipId0)" fill="none" stroke="rgb(0,0,0)" stroke-width="0.5" >
<polyline points="343.843,141.319 122.253,141.319 " />
<polyline points="343.843,243.243 122.253,243.243 " />
<polyline points="343.843,243.243 343.843,141.319 " />
</g>
<g clip-path="url(#clipId0)" fill="rgb(0,0,0)" stroke="rgb(0,0,0)" stroke-width="0.5" >
<path d="M208.297,187.868 208.297,195.865 232.288,191.867 232.288,191.867 z" />
</g>
<g clip-path="url(#clipId0)" fill="none" stroke="rgb(0,0,0)" stroke-width="0.5" >
<polyline points="534.035,294.204 749.053,294.204 " />
<polyline points="534.035,90.3567 749.053,90.3567 " />
<polyline points="343.843,141.319 534.035,90.3567 " />
<polyline points="343.843,243.243 534.035,294.204 " />
<polyline points="534.035,294.204 534.035,90.3567 " />
</g>
<g clip-path="url(#clipId0)" fill="rgb(0,0,0)" stroke="rgb(0,0,0)" stroke-width="0.5" >
<path d="M781.094,188.883 781.094,195.678 801.478,192.281 801.478,192.281 z" />
</g>
<g clip-path="url(#clipId0)" fill="none" stroke="rgb(0,0,0)" stroke-width="0.5" >
<polyline points="791.286,192.281 695.442,192.281 " />
<polyline points="618.928,196.644 620.642,195.787 623.212,193.217 623.212,211.21 " />
<path d="M440.637,258.628  A294.556,294.556 0 0,0 447.667,210.104 " />
<path d="M447.62,173.693  A294.556,294.556 0 0,0 440.637,125.933 " />
</g>
<g clip-path="url(#clipId0)" fill="rgb(0,0,0)" stroke="rgb(0,0,0)" stroke-width="0.5" >
<path d="M439.088,247.872 445.734,249.286 438.17,268.517 438.17,268.517 z" />
<path d="M439.808,136.645 446.401,135 438.17,116.044 438.17,116.044 z" />
</g>
<g clip-path="url(#clipId0)" fill="none" stroke="rgb(0,0,0)" stroke-width="0.5" >
<polyline points="138.043,183.165 106.464,201.397 " />
<polyline points="138.043,183.165 122.253,183.165 " />
<polyline points="106.464,201.397 122.253,201.397 " />
<polyline points="122.253,120.934 122.253,183.165 " />
<polyline points="122.253,201.397 122.253,263.627 " />
<polyline points="749.053,52.1777 749.053,332.383 " stroke-dasharray="99.961654,19.992331,19.992331,19.992331" />
<polyline points="749.053,192.281 749.762,192.259 750.469,192.194 751.171,192.086 751.864,191.935 752.547,191.742 753.217,191.508 753.871,191.233 754.507,190.919 755.123,190.566 755.716,190.176 756.285,189.751 756.826,189.292 756.826,189.292 757.734,188.444 758.614,187.566 759.462,186.658 760.28,185.722 761.066,184.759 761.818,183.77 762.537,182.756 763.221,181.718 763.869,180.658 764.481,179.576 765.056,178.475 765.594,177.354 765.594,177.354 766.321,175.713 767.003,174.053 767.64,172.375 768.232,170.68 768.778,168.97 769.278,167.246 769.731,165.509 770.138,163.761 770.497,162.002 770.497,162.002 770.905,159.726 771.265,157.443 771.578,155.153 771.843,152.856 772.059,150.555 772.228,148.249 772.349,145.941 772.421,143.63 772.445,141.319 772.445,141.319 772.421,139.007 772.349,136.697 772.228,134.388 772.059,132.083 771.843,129.781 771.578,127.485 771.265,125.194 770.905,122.911 770.497,120.635 770.497,120.635 770.138,118.877 769.731,117.128 769.278,115.391 768.778,113.667 768.232,111.957 767.64,110.263 767.003,108.585 766.321,106.924 765.594,105.283 765.594,105.283 765.056,104.163 764.481,103.061 763.869,101.979 763.221,100.919 762.537,99.8813 761.818,98.8673 761.066,97.8783 760.28,96.9153 759.462,95.9794 758.614,95.0718 757.734,94.1934 756.826,93.3453 756.826,93.3453 756.285,92.8862 755.716,92.461 755.123,92.0714 754.507,91.7188 753.871,91.4044 753.217,91.1296 752.547,90.8953 751.864,90.7024 751.171,90.5516 750.469,90.4434 749.762,90.3784 749.053,90.3567 " />
<polyline points="749.053,294.204 748.344,294.183 747.637,294.118 746.936,294.01 746.242,293.859 745.559,293.666 744.889,293.432 744.235,293.157 743.599,292.842 742.983,292.49 742.39,292.1 741.821,291.675 741.28,291.216 741.28,291.216 740.372,290.368 739.493,289.489 738.644,288.582 737.826,287.646 737.04,286.683 736.288,285.694 735.569,284.68 734.885,283.642 734.237,282.582 733.625,281.5 733.05,280.399 732.512,279.278 732.512,279.278 731.786,277.637 731.103,275.976 730.466,274.298 729.874,272.604 729.328,270.894 728.828,269.17 728.375,267.433 727.969,265.685 727.61,263.926 727.61,263.926 727.202,261.65 726.841,259.367 726.528,257.077 726.264,254.78 726.047,252.479 725.878,250.173 725.757,247.865 725.685,245.554 725.661,243.243 725.661,243.243 725.685,240.931 725.757,238.62 725.878,236.312 726.047,234.006 726.264,231.705 726.528,229.408 726.841,227.118 727.202,224.835 727.61,222.559 727.61,222.559 727.969,220.801 728.375,219.052 728.828,217.315 729.328,215.591 729.874,213.881 730.466,212.187 731.103,210.509 731.786,208.848 732.512,207.207 732.512,207.207 733.05,206.086 733.625,204.985 734.237,203.903 734.885,202.843 735.569,201.805 736.288,200.791 737.04,199.802 737.826,198.839 738.644,197.903 739.493,196.996 740.372,196.117 741.28,195.269 741.28,195.269 741.821,194.81 742.39,194.385 742.983,193.995 743.599,193.643 744.235,193.328 744.889,193.053 745.559,192.819 746.242,192.626 746.936,192.475 747.637,192.367 748.344,192.302 749.053,192.281 749.053,192.281 749.762,192.302 750.469,192.367 751.171,192.475 751.864,192.626 752.547,192.819 753.217,193.053 753.871,193.328 754.507,193.643 755.123,193.995 755.716,194.385 756.285,194.81 756.826,195.269 756.826,195.269 757.734,196.117 758.614,196.996 759.462,197.903 760.28,198.839 761.066,199.802 761.818,200.791 762.537,201.805 763.221,202.843 763.869,203.903 764.481,204.985 765.056,206.086 765.594,207.207 765.594,207.207 766.321,208.848 767.003,210.509 767.64,212.187 768.232,213.881 768.778,215.591 769.278,217.315 769.731,219.052 770.138,220.801 770.497,222.559 770.497,222.559 770.905,224.835 771.265,227.118 771.578,229.408 771.843,231.705 772.059,234.006 772.228,236.312 772.349,238.62 772.421,240.931 772.445,243.243 772.445,243.243 772.421,245.554 772.349,247.865 772.228,250.173 772.059,252.479 771.843,254.78 771.578,257.077 771.265,259.367 770.905,261.65 770.497,263.926 770.497,263.926 770.138,265.685 769.731,267.433 769.278,269.17 768.778,270.894 768.232,272.604 767.64,274.298 767.003,275.976 766.321,277.637 765.594,279.278 765.594,279.278 765.056,280.399 764.481,281.5 763.869,282.582 763.221,283.642 762.537,284.68 761.818,285.694 761.066,286.683 760.28,287.646 759.462,288.582 758.614,289.489 757.734,290.368 756.826,291.216 756.826,291.216 756.285,291.675 755.716,292.1 755.123,292.49 754.507,292.842 753.871,293.157 753.217,293.432 752.547,293.666 751.864,293.859 751.171,294.01 750.469,294.118 749.762,294.183 749.053,294.204 " />
<polyline points="182.215,163.724 180.501,164.581 178.787,166.294 177.931,168.008 177.074,170.578 177.074,174.862 177.931,177.433 178.787,179.146 180.501,180.86 182.215,181.717 185.642,181.717 187.355,180.86 189.069,179.146 189.926,177.433 190.783,174.862 190.783,170.578 189.926,168.008 189.069,166.294 187.355,164.581 185.642,163.724 182.215,163.724 " />
<polyline points="184.785,178.29 189.926,183.431 " />
<polyline points="598.984,181.656 598.984,199.649 " />
<polyline points="598.984,181.656 604.981,181.656 607.552,182.513 609.266,184.227 610.122,185.94 610.979,188.511 610.979,192.795 610.122,195.365 609.266,197.079 607.552,198.793 604.981,199.649 598.984,199.649 " />
<polyline points="277.729,185.44 277.729,203.433 " />
<polyline points="289.725,185.44 289.725,203.433 " />
<polyline points="277.729,194.008 289.725,194.008 " />
</g>
<g clip-path="url(#clipId0)" fill="rgb(0,0,0)" stroke="rgb(0,0,0)" stroke-width="0.5" >
<path d="M602.536,110.84 609.331,110.84 605.933,90.4556 605.933,90.4556 z" />
</g>
<g clip-path="url(#clipId0)" fill="none" stroke="rgb(0,0,0)" stroke-width="0.5" >
<polyline points="605.933,99.6183 605.933,170.456 " />
</g>
<g clip-path="url(#clipId0)" fill="rgb(0,0,0)" stroke="rgb(0,0,0)" stroke-width="0.5" >
<path d="M609.331,274.005 602.536,274.005 605.933,294.39 605.933,294.39 z" />
</g>
<g clip-path="url(#clipId0)" fill="none" stroke="rgb(0,0,0)" stroke-width="0.5" >
<polyline points="605.933,284.943 605.933,210.937 " />
<polyline points="299.387,199.506 297.674,200.363 295.96,202.077 295.103,204.647 295.103,206.361 295.96,208.931 297.674,210.645 299.387,211.502 301.958,211.502 303.671,210.645 305.385,208.931 306.242,206.361 306.242,204.647 305.385,202.077 303.671,200.363 301.958,199.506 299.387,199.506 " />
<circle cx="447.281" cy="192.691" r="8.99655" />
<polyline points="433.046,193.53 460.036,193.53 " />
<polyline points="133.992,630.951 125.767,652.542 " />
<polyline points="133.992,630.951 142.218,652.542 " />
<polyline points="128.851,645.345 139.133,645.345 " />
<polyline points="185.401,626.838 166.894,659.739 " />
<polyline points="196.711,630.951 188.486,652.542 " />
<polyline points="196.711,630.951 204.937,652.542 " />
<polyline points="191.57,645.345 201.852,645.345 " />
<polyline points="269.712,634.035 253.261,643.289 269.712,652.542 " />
<polyline points="303.642,638.148 301.585,639.176 299.529,641.232 298.501,644.317 298.501,646.373 299.529,649.458 301.585,651.514 303.642,652.542 306.726,652.542 308.782,651.514 310.839,649.458 311.867,646.373 311.867,644.317 310.839,641.232 308.782,639.176 306.726,638.148 303.642,638.148 " />
<polyline points="319.064,638.148 319.064,652.542 " />
<polyline points="319.064,644.317 320.092,641.232 322.149,639.176 324.205,638.148 327.29,638.148 " />
<polyline points="354.022,634.035 370.473,643.289 354.022,652.542 " />
<polyline points="402.347,635.063 404.403,634.035 407.487,630.951 407.487,652.542 " />
<polyline points="153.98,648.276 152.746,648.893 151.512,650.127 150.895,651.361 150.278,653.211 150.278,656.296 150.895,658.147 151.512,659.38 152.746,660.614 153.98,661.231 156.447,661.231 157.681,660.614 158.915,659.38 159.532,658.147 160.149,656.296 160.149,653.211 159.532,651.361 158.915,650.127 157.681,648.893 156.447,648.276 153.98,648.276 " />
<polyline points="215.57,650.744 216.804,650.127 218.654,648.276 218.654,661.231 " />
<polyline points="232.288,191.867 158.263,191.867 " />
</g>
<g clip-path="url(#clipId0)" fill="rgb(0,0,0)" stroke="rgb(0,0,0)" stroke-width="0.5" >
<path d="M279.932,219.252 287.929,219.252 283.93,243.243 283.93,243.243 z" />
<path d="M279.932,165.309 287.929,165.309 283.93,141.319 283.93,141.319 z" />
</g>
<g clip-path="url(#clipId0)" fill="none" stroke="rgb(0,0,0)" stroke-width="0.5" >
<polyline points="283.93,179.598 283.93,153.314 " />
<polyline points="122.253,494.585 122.253,575.116 " />
<polyline points="343.843,556.923 122.253,556.923 " />
</g>
<g clip-path="url(#clipId0)" fill="rgb(0,0,0)" stroke="rgb(0,0,0)" stroke-width="0.5" >
<path d="M279.932,532.932 287.929,532.932 283.93,556.923 283.93,556.923 z" />
</g>
<g clip-path="url(#clipId0)" fill="none" stroke="rgb(0,0,0)" stroke-width="0.5" >
<polyline points="283.93,556.923 283.93,508.787 " />
<polyline points="300.442,490.164 298.728,491.02 297.015,492.734 296.158,495.305 296.158,497.018 297.015,499.589 298.728,501.302 300.442,502.159 303.012,502.159 304.726,501.302 306.44,499.589 307.296,497.018 307.296,495.305 306.44,492.734 304.726,491.02 303.012,490.164 300.442,490.164 " />
<polyline points="283.93,465.101 283.93,414.481 " />
</g>
<g clip-path="url(#clipId0)" fill="rgb(0,0,0)" stroke="rgb(0,0,0)" stroke-width="0.5" >
<path d="M279.932,438.472 287.929,438.472 283.93,414.481 283.93,414.481 z" />
</g>
<g clip-path="url(#clipId0)" fill="none" stroke="rgb(0,0,0)" stroke-width="0.5" >
<polyline points="343.843,414.481 122.253,414.481 " />
<polyline points="181.43,453.955 179.717,454.811 178.003,456.525 177.146,458.239 176.29,460.809 176.29,465.093 177.146,467.664 178.003,469.377 179.717,471.091 181.43,471.948 184.858,471.948 186.571,471.091 188.285,469.377 189.142,467.664 189.999,465.093 189.999,460.809 189.142,458.239 188.285,456.525 186.571,454.811 184.858,453.955 181.43,453.955 " />
<polyline points="184.001,468.52 189.142,473.661 " />
<polyline points="223.191,484.241 161.494,484.241 " />
</g>
<g clip-path="url(#clipId0)" fill="rgb(0,0,0)" stroke="rgb(0,0,0)" stroke-width="0.5" >
<path d="M207.608,480.748 207.608,488.745 231.598,484.746 231.598,484.746 z" />
</g>
<g clip-path="url(#clipId0)" fill="none" stroke="rgb(0,0,0)" stroke-width="0.5" >
<polyline points="138.043,476.353 122.253,476.353 " />
<polyline points="106.464,494.585 122.253,494.585 " />
<polyline points="122.253,398.141 122.253,476.353 " />
<polyline points="138.043,476.353 106.464,494.585 " />
<polyline points="343.843,556.923 343.843,414.481 " />
<polyline points="439.324,486.394 457.317,486.394 " />
<circle cx="448.32" cy="486.394" r="8.99655" />
</g>
<g clip-path="url(#clipId0)" fill="rgb(0,0,0)" stroke="rgb(0,0,0)" stroke-width="0.5" >
<path d="M436.941,420.369 443.472,418.495 434.585,399.838 434.585,399.838 z" />
<path d="M436.652,550.301 443.215,552.061 434.655,570.87 434.655,570.87 z" />
</g>
<g clip-path="url(#clipId0)" fill="none" stroke="rgb(0,0,0)" stroke-width="0.5" >
<path d="M447.683,467.922  A294.556,294.556 0 0,0 435.409,399.588 " />
<path d="M435.338,571.581  A294.556,294.556 0 0,0 447.638,503.76 " />
<polyline points="605.933,578.132 605.933,502.233 " />
</g>
<g clip-path="url(#clipId0)" fill="rgb(0,0,0)" stroke="rgb(0,0,0)" stroke-width="0.5" >
<path d="M609.331,567.019 602.536,567.019 605.933,587.404 605.933,587.404 z" />
</g>
<g clip-path="url(#clipId0)" fill="none" stroke="rgb(0,0,0)" stroke-width="0.5" >
<polyline points="605.933,392.807 605.933,462.15 " />
</g>
<g clip-path="url(#clipId0)" fill="rgb(0,0,0)" stroke="rgb(0,0,0)" stroke-width="0.5" >
<path d="M602.536,404.118 609.331,404.118 605.933,383.733 605.933,383.733 z" />
</g>
<g clip-path="url(#clipId0)" fill="none" stroke="rgb(0,0,0)" stroke-width="0.5" >
<polyline points="599.879,474.181 599.879,492.175 " />
<polyline points="599.879,474.181 605.877,474.181 608.448,475.038 610.161,476.752 611.018,478.465 611.875,481.036 611.875,485.32 611.018,487.89 610.161,489.604 608.448,491.318 605.877,492.175 599.879,492.175 " />
<polyline points="749.053,587.393 748.344,587.371 747.637,587.306 746.936,587.198 746.242,587.048 745.559,586.855 744.889,586.62 744.235,586.345 743.599,586.031 742.983,585.679 742.39,585.289 741.821,584.864 741.28,584.405 741.28,584.405 740.372,583.556 739.493,582.678 738.644,581.77 737.826,580.835 737.04,579.872 736.288,578.883 735.569,577.869 734.885,576.831 734.237,575.771 733.625,574.689 733.05,573.587 732.512,572.467 732.512,572.467 731.786,570.825 731.103,569.165 730.466,567.487 729.874,565.793 729.328,564.083 728.828,562.359 728.375,560.622 727.969,558.873 727.61,557.114 727.61,557.114 727.202,554.839 726.841,552.556 726.528,550.265 726.264,547.969 726.047,545.667 725.878,543.362 725.757,541.053 725.685,538.743 725.661,536.431 725.661,536.431 725.685,534.12 725.757,531.809 725.878,529.501 726.047,527.195 726.264,524.894 726.528,522.597 726.841,520.307 727.202,518.023 727.61,515.748 727.61,515.748 727.969,513.989 728.375,512.241 728.828,510.504 729.328,508.78 729.874,507.07 730.466,505.375 731.103,503.697 731.786,502.037 732.512,500.396 732.512,500.396 733.05,499.275 733.625,498.173 734.237,497.092 734.885,496.032 735.569,494.994 736.288,493.98 737.04,492.991 737.826,492.028 738.644,491.092 739.493,490.184 740.372,489.306 741.28,488.458 741.28,488.458 741.821,487.999 742.39,487.574 742.983,487.184 743.599,486.831 744.235,486.517 744.889,486.242 745.559,486.008 746.242,485.815 746.936,485.664 747.637,485.556 748.344,485.491 749.053,485.469 749.053,485.469 749.762,485.491 750.469,485.556 751.171,485.664 751.864,485.815 752.547,486.008 753.217,486.242 753.871,486.517 754.507,486.831 755.123,487.184 755.716,487.574 756.285,487.999 756.826,488.458 756.826,488.458 757.734,489.306 758.614,490.184 759.462,491.092 760.28,492.028 761.066,492.991 761.818,493.98 762.537,494.994 763.221,496.032 763.869,497.092 764.481,498.173 765.056,499.275 765.594,500.396 765.594,500.396 766.321,502.037 767.003,503.697 767.64,505.375 768.232,507.07 768.778,508.78 769.278,510.504 769.731,512.241 770.138,513.989 770.497,515.748 770.497,515.748 770.905,518.023 771.265,520.307 771.578,522.597 771.843,524.894 772.059,527.195 772.228,529.501 772.349,531.809 772.421,534.12 772.445,536.431 772.445,536.431 772.421,538.743 772.349,541.053 772.228,543.362 772.059,545.667 771.843,547.969 771.578,550.265 771.265,552.556 770.905,554.839 770.497,557.114 770.497,557.114 770.138,558.873 769.731,560.622 769.278,562.359 768.778,564.083 768.232,565.793 767.64,567.487 767.003,569.165 766.321,570.825 765.594,572.467 765.594,572.467 765.056,573.587 764.481,574.689 763.869,575.771 763.221,576.831 762.537,577.869 761.818,578.883 761.066,579.872 760.28,580.835 759.462,581.77 758.614,582.678 757.734,583.556 756.826,584.405 756.826,584.405 756.285,584.864 755.716,585.289 755.123,585.679 754.507,586.031 753.871,586.345 753.217,586.62 752.547,586.855 751.864,587.048 751.171,587.198 750.469,587.306 749.762,587.371 749.053,587.393 " />
<polyline points="749.053,485.469 749.762,485.448 750.469,485.383 751.171,485.274 751.864,485.124 752.547,484.931 753.217,484.696 753.871,484.422 754.507,484.107 755.123,483.755 755.716,483.365 756.285,482.94 756.826,482.481 756.826,482.481 757.734,481.633 758.614,480.754 759.462,479.847 760.28,478.911 761.066,477.948 761.818,476.959 762.537,475.945 763.221,474.907 763.869,473.847 764.481,472.765 765.056,471.663 765.594,470.543 765.594,470.543 766.321,468.902 767.003,467.241 767.64,465.563 768.232,463.869 768.778,462.159 769.278,460.435 769.731,458.698 770.138,456.949 770.497,455.191 770.497,455.191 770.905,452.915 771.265,450.632 771.578,448.341 771.843,446.045 772.059,443.743 772.228,441.438 772.349,439.129 772.421,436.819 772.445,434.507 772.445,434.507 772.421,432.196 772.349,429.885 772.228,427.577 772.059,425.271 771.843,422.97 771.578,420.673 771.265,418.383 770.905,416.1 770.497,413.824 770.497,413.824 770.138,412.065 769.731,410.317 769.278,408.58 768.778,406.856 768.232,405.146 767.64,403.451 767.003,401.773 766.321,400.113 765.594,398.472 765.594,398.472 765.056,397.351 764.481,396.25 763.869,395.168 763.221,394.108 762.537,393.07 761.818,392.056 761.066,391.067 760.28,390.104 759.462,389.168 758.614,388.261 757.734,387.382 756.826,386.534 756.826,386.534 756.285,386.075 755.716,385.65 755.123,385.26 754.507,384.907 753.871,384.593 753.217,384.318 752.547,384.084 751.864,383.891 751.171,383.74 750.469,383.632 749.762,383.567 749.053,383.545 " />
<polyline points="749.053,345.366 749.053,625.572 " stroke-dasharray="99.961654,19.992331,19.992331,19.992331" />
<polyline points="619.824,489.169 621.537,488.312 624.108,485.742 624.108,503.735 " />
<polyline points="791.286,485.469 695.442,485.469 " />
</g>
<g clip-path="url(#clipId0)" fill="rgb(0,0,0)" stroke="rgb(0,0,0)" stroke-width="0.5" >
<path d="M781.094,482.072 781.094,488.867 801.478,485.469 801.478,485.469 z" />
</g>
<g clip-path="url(#clipId0)" fill="none" stroke="rgb(0,0,0)" stroke-width="0.5" >
<polyline points="534.035,587.393 534.035,383.545 " />
<polyline points="534.035,383.545 749.053,383.545 " />
<polyline points="534.035,587.393 749.053,587.393 " />
<polyline points="343.843,414.481 534.035,383.545 " />
<polyline points="343.843,556.923 534.035,587.393 " />
<polyline points="275.203,477.907 279.487,495.9 " />
<polyline points="283.771,477.907 279.487,495.9 " />
<polyline points="283.771,477.907 288.055,495.9 " />
<polyline points="292.339,477.907 288.055,495.9 " />
<polyline points="465.373,492.214 465.373,491.357 466.23,489.643 467.087,488.787 468.801,487.93 472.228,487.93 473.941,488.787 474.798,489.643 475.655,491.357 475.655,493.071 474.798,494.784 473.085,497.355 464.516,505.923 476.512,505.923 " />
<polyline points="463.614,207.619 466.184,206.334 470.04,202.478 470.04,229.468 " />
<polyline points="355.838,331.925 423.24,331.925 " />
<polyline points="522.04,331.925 453.195,331.925 " />
</g>
<g clip-path="url(#clipId0)" fill="rgb(0,0,0)" stroke="rgb(0,0,0)" stroke-width="0.5" >
<path d="M367.834,327.927 367.834,335.924 343.843,331.925 343.843,331.925 z" />
<path d="M510.045,327.927 510.045,335.924 534.035,331.925 534.035,331.925 z" />
</g>
<g clip-path="url(#clipId0)" fill="none" stroke="rgb(0,0,0)" stroke-width="0.5" >
<polyline points="434.984,322.643 434.984,340.636 445.266,340.636 " />
<polyline points="822.225,475.339 822.225,493.333 " />
<polyline points="816.228,475.339 828.223,475.339 " />
<polyline points="836.791,475.339 835.078,476.196 833.364,477.91 832.507,479.624 831.65,482.194 831.65,486.478 832.507,489.048 833.364,490.762 835.078,492.476 836.791,493.333 840.219,493.333 841.932,492.476 843.646,490.762 844.503,489.048 845.359,486.478 845.359,482.194 844.503,479.624 843.646,477.91 841.932,476.196 840.219,475.339 836.791,475.339 " />
<polyline points="869.35,475.339 869.35,493.333 " />
<polyline points="869.35,475.339 880.489,475.339 " />
<polyline points="869.35,483.908 876.205,483.908 " />
<polyline points="889.057,475.339 882.202,493.333 " />
<polyline points="889.057,475.339 895.911,493.333 " />
<polyline points="884.773,487.335 893.341,487.335 " />
<polyline points="900.196,475.339 900.196,493.333 " />
<polyline points="900.196,475.339 912.191,493.333 " />
<polyline points="912.191,475.339 912.191,493.333 " />
<polyline points="718.481,718.247 718.481,760.471 " />
<polyline points="718.481,718.247 744.62,718.247 " />
<polyline points="718.481,738.353 734.566,738.353 " />
<polyline points="718.481,760.471 744.62,760.471 " />
<polyline points="756.684,718.247 756.684,760.471 " />
<polyline points="756.684,718.247 774.78,718.247 780.812,720.257 782.822,722.268 784.833,726.289 784.833,730.311 782.822,734.332 780.812,736.343 774.78,738.353 756.684,738.353 " />
<polyline points="770.758,738.353 784.833,760.471 " />
<polyline points="817.003,718.247 796.897,746.396 827.057,746.396 " />
<polyline points="817.003,718.247 817.003,760.471 " />
<polyline points="839.121,742.375 875.312,742.375 " />
<polyline points="893.408,718.247 915.526,718.247 903.462,734.332 909.494,734.332 913.515,736.343 915.526,738.353 917.536,744.385 917.536,748.407 915.526,754.439 911.504,758.46 905.472,760.471 899.44,760.471 893.408,758.46 891.398,756.449 889.387,752.428 " />
<polyline points="534.533,375.388 534.533,301.503 " />
<polyline points="344.534,252.246 344.534,406.583 " />
<polyline points="283.93,141.319 283.93,178.045 " />
<polyline points="283.93,209.737 283.93,243.243 " />
<polyline points="822.225,182.151 822.225,200.144 " />
<polyline points="816.228,182.151 828.223,182.151 " />
<polyline points="836.791,182.151 835.078,183.008 833.364,184.721 832.507,186.435 831.65,189.005 831.65,193.289 832.507,195.86 833.364,197.573 835.078,199.287 836.791,200.144 840.219,200.144 841.932,199.287 843.646,197.573 844.503,195.86 845.359,193.289 845.359,189.005 844.503,186.435 843.646,184.721 841.932,183.008 840.219,182.151 836.791,182.151 " />
<polyline points="869.35,182.151 869.35,200.144 " />
<polyline points="869.35,182.151 880.489,182.151 " />
<polyline points="869.35,190.719 876.205,190.719 " />
<polyline points="889.057,182.151 882.202,200.144 " />
<polyline points="889.057,182.151 895.911,200.144 " />
<polyline points="884.773,194.146 893.341,194.146 " />
<polyline points="900.196,182.151 900.196,200.144 " />
<polyline points="900.196,182.151 912.191,200.144 " />
<polyline points="912.191,182.151 912.191,200.144 " />
<polyline points="534.035,90.3567 534.035,61.268 " />
<polyline points="343.843,141.319 343.843,61.268 " />
<polyline points="529.009,13.7938 531.58,12.5086 535.436,8.65296 535.436,35.6426 " />
<polyline points="341.381,7.52941 337.525,8.81463 334.954,12.6703 333.669,19.0964 333.669,22.9521 334.954,29.3782 337.525,33.2338 341.381,34.5191 343.951,34.5191 347.807,33.2338 350.377,29.3782 351.662,22.9521 351.662,19.0964 350.377,12.6703 347.807,8.81463 343.951,7.52941 341.381,7.52941 " />
</g>
</svg>
