<?xml version="1.0" standalone="no"?>
<svg viewBox="0 0 1024 768" version="1.1" xmlns="http://www.w3.org/2000/svg" xmlns:xlink="http://www.w3.org/1999/xlink" stroke-linecap="round" stroke-linejoin="round" fill-rule="evenodd" xml:space="preserve" >
<defs >
<clipPath id="clipId0" >
<path d="M0,768 1024,768 1024,0 0,0 z" />
</clipPath>
</defs>
<g clip-path="url(#clipId0)" fill="none" stroke="rgb(0,0,0)" stroke-width="0.1" />
<g clip-path="url(#clipId0)" fill="none" stroke="rgb(0,0,0)" stroke-width="0.5" >
<polyline points="178.788,627.174 178.788,523.545 " />
<polyline points="178.788,523.545 89.0425,471.73 " />
<polyline points="89.0425,471.73 89.0425,575.36 " />
<polyline points="89.0425,575.36 178.788,627.174 " />
<polyline points="268.534,471.73 358.28,523.545 " />
<polyline points="268.534,368.101 268.534,471.73 " />
<polyline points="358.28,419.916 268.534,368.101 " />
<polyline points="358.28,523.545 358.28,419.916 " />
<polyline points="178.788,523.545 358.28,419.916 " />
<polyline points="178.788,627.174 358.28,523.545 " />
<polyline points="89.0425,471.73 268.534,368.101 " />
<polyline points="582.644,497.638 582.644,290.379 " />
<polyline points="582.644,290.379 403.153,186.749 " />
<polyline points="403.153,186.749 403.153,394.008 " stroke-dasharray="25.907362,12.953681" />
<polyline points="400.481,395.551 579.993,499.192 " stroke-dasharray="25.907362,12.953681" />
<polyline points="634.459,260.463 813.95,364.093 " stroke-dasharray="25.907362,12.953681" />
<polyline points="634.459,53.2046 634.459,260.463 " stroke-dasharray="25.907362,12.953681" />
<polyline points="813.95,156.834 634.459,53.2046 " />
<polyline points="813.95,364.093 813.95,156.834 " />
<polyline points="582.644,497.638 813.95,364.093 " />
<polyline points="634.459,260.463 813.95,156.834 " />
<polyline points="403.153,186.749 634.459,53.2046 " />
<polyline points="268.534,368.101 403.153,186.749 " />
<polyline points="358.28,419.916 813.95,156.834 " />
<polyline points="358.28,523.545 582.644,497.638 " />
<polyline points="89.0425,575.36 178.788,523.545 " stroke-dasharray="25.907362,12.953681" />
<polyline points="79.1752,468.492 10.8534,429.046 " />
<polyline points="79.1752,572.121 10.8534,532.676 " />
</g>
<g clip-path="url(#clipId0)" fill="rgb(0,0,0)" stroke="rgb(0,0,0)" stroke-width="0.5" >
<path d="M22.6879,456.952 14.9157,456.952 18.8018,433.635 18.8018,433.635 z" />
<path d="M22.6879,513.948 14.9157,513.948 18.8018,537.265 18.8018,537.265 z" />
</g>
<g clip-path="url(#clipId0)" fill="none" stroke="rgb(0,0,0)" stroke-width="0.5" >
<polyline points="89.0425,460.998 89.0425,345.088 " />
<polyline points="178.788,512.813 178.788,396.903 " />
<polyline points="165.326,399.833 160.458,397.023 " />
</g>
<g clip-path="url(#clipId0)" fill="rgb(0,0,0)" stroke="rgb(0,0,0)" stroke-width="0.5" >
<path d="M107.292,370.815 111.178,364.084 89.0425,355.791 89.0425,355.791 z" />
<path d="M156.652,399.313 160.539,392.582 178.788,407.605 178.788,407.605 z" />
</g>
<g clip-path="url(#clipId0)" fill="none" stroke="rgb(0,0,0)" stroke-width="0.5" >
<polyline points="129.135,564.949 49.6146,610.861 " />
</g>
<g clip-path="url(#clipId0)" fill="rgb(0,0,0)" stroke="rgb(0,0,0)" stroke-width="0.5" >
<path d="M120.461,565.47 124.348,572.201 142.597,557.177 142.597,557.177 z" />
<path d="M858.047,75.5958 861.933,82.3267 880.183,67.3029 880.183,67.3029 z" />
</g>
<g clip-path="url(#clipId0)" fill="none" stroke="rgb(0,0,0)" stroke-width="0.5" >
<polyline points="866.721,75.0751 787.2,120.987 " />
<path d="M470.462,355.147  A196.967,196.967 0 0,0 436.201,319.616 " />
<path d="M470.462,510.591  A196.967,196.967 0 0,0 485.745,449.457 " />
</g>
<g clip-path="url(#clipId0)" fill="rgb(0,0,0)" stroke="rgb(0,0,0)" stroke-width="0.5" >
<path d="M358.179,285.163 359.481,277.501 335.843,277.425 335.843,277.425 z" />
<path d="M473.86,378.54 481.263,376.174 470.462,355.147 470.462,355.147 z" />
<path d="M458.481,334.77 452.52,339.757 470.462,355.147 470.462,355.147 z" />
<path d="M482.273,490.116 474.994,487.392 470.462,510.591 470.462,510.591 z" />
</g>
<g clip-path="url(#clipId0)" fill="none" stroke="rgb(0,0,0)" stroke-width="0.5" >
<path d="M402.237,297.604  A196.967,196.967 0 0,0 335.843,277.425 " />
<polyline points="37.4221,581.133 36.0897,581.799 34.7574,583.131 34.0912,584.464 33.425,586.462 33.425,589.793 34.0912,591.792 34.7574,593.124 36.0897,594.457 37.4221,595.123 40.0869,595.123 41.4193,594.457 42.7516,593.124 43.4178,591.792 44.084,589.793 44.084,586.462 43.4178,584.464 42.7516,583.131 41.4193,581.799 40.0869,581.133 37.4221,581.133 " />
<polyline points="10.0392,564.058 10.0392,587.375 " />
<polyline points="25.5836,564.058 25.5836,587.375 " />
<polyline points="10.0392,575.161 25.5836,575.161 " />
<polyline points="56.272,335.934 54.9396,336.6 53.6072,337.932 52.941,339.265 52.2749,341.263 52.2749,344.594 52.941,346.593 53.6072,347.925 54.9396,349.257 56.272,349.924 58.9367,349.924 60.2691,349.257 61.6015,347.925 62.2677,346.593 62.9339,344.594 62.9339,341.263 62.2677,339.265 61.6015,337.932 60.2691,336.6 58.9367,335.934 56.272,335.934 " />
<polyline points="25.7095,320.777 31.2611,344.094 " />
<polyline points="36.8126,320.777 31.2611,344.094 " />
<polyline points="36.8126,320.777 42.3642,344.094 " />
<polyline points="47.9158,320.777 42.3642,344.094 " />
<polyline points="624.796,621.074 603.477,633.065 624.796,645.057 " />
<polyline points="668.764,626.403 666.099,627.736 663.434,630.401 662.102,634.398 662.102,637.062 663.434,641.06 666.099,643.724 668.764,645.057 672.761,645.057 675.426,643.724 678.091,641.06 679.423,637.062 679.423,634.398 678.091,630.401 675.426,627.736 672.761,626.403 668.764,626.403 " />
<polyline points="688.75,626.403 688.75,645.057 " />
<polyline points="688.75,634.398 690.082,630.401 692.747,627.736 695.412,626.403 699.409,626.403 " />
<polyline points="734.051,621.074 755.369,633.065 734.051,645.057 " />
<polyline points="796.672,622.406 799.337,621.074 803.334,617.077 803.334,645.057 " />
<polyline points="490.167,637.518 488.568,638.317 486.969,639.916 486.17,641.515 485.37,643.913 485.37,647.911 486.17,650.309 486.969,651.908 488.568,653.507 490.167,654.306 493.365,654.306 494.964,653.507 496.562,651.908 497.362,650.309 498.161,647.911 498.161,643.913 497.362,641.515 496.562,639.916 494.964,638.317 493.365,637.518 490.167,637.518 " />
<polyline points="466.191,617.077 455.532,645.057 " />
<polyline points="466.191,617.077 476.85,645.057 " />
<polyline points="459.529,635.73 472.852,635.73 " />
<polyline points="548.608,617.077 537.949,645.057 " />
<polyline points="548.608,617.077 559.267,645.057 " />
<polyline points="541.946,635.73 555.27,635.73 " />
<polyline points="570.186,640.716 571.785,639.916 574.183,637.518 574.183,654.306 " />
<polyline points="532.046,611.747 508.063,654.383 " />
<polyline points="84.0811,601.083 81.8604,602.194 79.6398,604.414 78.5295,606.635 77.4192,609.966 77.4192,615.517 78.5295,618.848 79.6398,621.069 81.8604,623.29 84.0811,624.4 88.5223,624.4 90.743,623.29 92.9636,621.069 94.0739,618.848 95.1842,615.517 95.1842,609.966 94.0739,606.635 92.9636,604.414 90.743,602.194 88.5223,601.083 84.0811,601.083 " />
<polyline points="87.412,619.959 94.0739,626.621 " />
<circle cx="436.708" cy="291.211" r="11.6583" />
<circle cx="510.639" cy="423.313" r="11.6583" />
<polyline points="425.05,291.211 448.366,291.211 " />
<polyline points="498.981,423.313 522.297,423.313 " />
<polyline points="454.632,297.936 455.964,297.27 457.962,295.271 457.962,309.261 " />
<polyline points="528.427,429.75 528.427,429.084 529.093,427.751 529.76,427.085 531.092,426.419 533.757,426.419 535.089,427.085 535.755,427.751 536.422,429.084 536.422,430.416 535.755,431.749 534.423,433.747 527.761,440.409 537.088,440.409 " />
<polyline points="868.595,201.391 868.595,224.707 " />
<polyline points="884.139,201.391 884.139,224.707 " />
<polyline points="868.595,212.494 884.139,212.494 " />
<polyline points="775.235,43.2004 780.786,66.5171 " />
<polyline points="786.338,43.2004 780.786,66.5171 " />
<polyline points="786.338,43.2004 791.889,66.5171 " />
<polyline points="797.441,43.2004 791.889,66.5171 " />
<polyline points="803.448,63.6618 804.78,62.9956 806.779,60.997 806.779,74.987 " />
<polyline points="894.832,221.103 896.165,220.437 898.163,218.438 898.163,232.428 " />
<polyline points="646.258,43.014 717.625,8.29506 " />
<polyline points="888.227,110.935 824.551,149.141 " />
<polyline points="826.673,357.149 888.227,321.066 " />
</g>
<g clip-path="url(#clipId0)" fill="rgb(0,0,0)" stroke="rgb(0,0,0)" stroke-width="0.5" >
<path d="M864.282,98.4871 860.085,105.029 881.809,114.348 881.809,114.348 z" />
</g>
<g clip-path="url(#clipId0)" fill="none" stroke="rgb(0,0,0)" stroke-width="0.5" >
<polyline points="880.961,129.29 880.961,183.694 " />
</g>
<g clip-path="url(#clipId0)" fill="rgb(0,0,0)" stroke="rgb(0,0,0)" stroke-width="0.5" >
<path d="M877.075,137.062 884.847,137.062 880.961,113.745 880.961,113.745 z" />
<path d="M877.075,302.232 884.847,302.232 880.961,325.548 880.961,325.548 z" />
</g>
<g clip-path="url(#clipId0)" fill="none" stroke="rgb(0,0,0)" stroke-width="0.5" >
<polyline points="880.961,247.318 880.961,310.004 " />
<polyline points="281.988,170.739 315.434,151.429 " />
</g>
<g clip-path="url(#clipId0)" fill="rgb(0,0,0)" stroke="rgb(0,0,0)" stroke-width="0.5" >
<path d="M286.776,163.488 290.662,170.218 268.526,178.511 268.526,178.511 z" />
<path d="M381.168,108.99 385.054,115.721 403.304,100.697 403.304,100.697 z" />
</g>
<g clip-path="url(#clipId0)" fill="none" stroke="rgb(0,0,0)" stroke-width="0.5" >
<polyline points="330.487,126.596 330.487,149.912 343.811,149.912 " />
<polyline points="268.375,357.835 268.375,167.709 " />
<polyline points="403.153,176.017 403.153,89.8947 " />
<polyline points="349.698,131.646 389.842,108.47 " />
<polyline points="819.682,74.4731 868.443,105.754 " />
<path d="M484.978,408.877  A196.967,196.967 0 0,0 470.462,355.147 " />
<polyline points="897.378,32.1098 897.378,55.4264 " />
<polyline points="889.605,32.1098 905.15,32.1098 " />
<polyline points="916.253,32.1098 914.032,33.2201 911.812,35.4407 910.701,37.6614 909.591,40.9923 909.591,46.5439 910.701,49.8748 911.812,52.0955 914.032,54.3161 916.253,55.4264 920.694,55.4264 922.915,54.3161 925.136,52.0955 926.246,49.8748 927.356,46.5439 927.356,40.9923 926.246,37.6614 925.136,35.4407 922.915,33.2201 920.694,32.1098 916.253,32.1098 " />
<polyline points="958.445,32.1098 958.445,55.4264 " />
<polyline points="958.445,32.1098 972.879,32.1098 " />
<polyline points="958.445,43.2129 967.328,43.2129 " />
<polyline points="983.982,32.1098 975.1,55.4264 " />
<polyline points="983.982,32.1098 992.865,55.4264 " />
<polyline points="978.431,47.6542 989.534,47.6542 " />
<polyline points="998.416,32.1098 998.416,55.4264 " />
<polyline points="998.416,32.1098 1013.96,55.4264 " />
<polyline points="1013.96,32.1098 1013.96,55.4264 " />
<polyline points="769.093,714.108 769.093,759.705 " />
<polyline points="769.093,714.108 797.32,714.108 " />
<polyline points="769.093,735.821 786.463,735.821 " />
<polyline points="769.093,759.705 797.32,759.705 " />
<polyline points="810.348,714.108 810.348,759.705 " />
<polyline points="810.348,714.108 829.889,714.108 836.403,716.279 838.574,718.451 840.746,722.793 840.746,727.136 838.574,731.478 836.403,733.65 829.889,735.821 810.348,735.821 " />
<polyline points="825.547,735.821 840.746,759.705 " />
<polyline points="875.486,714.108 853.773,744.506 886.343,744.506 " />
<polyline points="875.486,714.108 875.486,759.705 " />
<polyline points="899.37,740.163 938.453,740.163 " />
<polyline points="955.824,724.964 955.824,722.793 957.995,718.451 960.166,716.279 964.509,714.108 973.194,714.108 977.536,716.279 979.708,718.451 981.879,722.793 981.879,727.136 979.708,731.478 975.365,737.992 953.652,759.705 984.05,759.705 " />
<polyline points="402.237,297.604 436.201,319.616 " />
<polyline points="485.745,449.457 484.978,408.877 " />
<polyline points="178.788,407.605 70.2425,344.219 " />
<polyline points="18.8018,433.635 18.8636,554.581 " />
</g>
<g clip-path="url(#clipId0)" fill="rgb(0,0,0)" stroke="rgb(0,0,0)" stroke-width="0.5" >
<path d="M735.152,24.1559 739.348,17.6141 717.625,8.29506 717.625,8.29506 z" />
</g>
<g clip-path="url(#clipId0)" fill="none" stroke="rgb(0,0,0)" stroke-width="0.5" >
<polyline points="761.068,36.357 717.625,8.29506 " />
<polyline points="396.996,57.9655 398.995,56.9662 401.993,53.9683 401.993,74.9533 " />
<polyline points="266.837,127.386 263.839,128.385 261.84,131.383 260.841,136.379 260.841,139.377 261.84,144.374 263.839,147.371 266.837,148.371 268.835,148.371 271.833,147.371 273.832,144.374 274.831,139.377 274.831,136.379 273.832,131.383 271.833,128.385 268.835,127.386 266.837,127.386 " />
</g>
</svg>
