<?xml version="1.0" standalone="no"?>
<svg viewBox="0 0 1024 768" version="1.1" xmlns="http://www.w3.org/2000/svg" xmlns:xlink="http://www.w3.org/1999/xlink" stroke-linecap="round" stroke-linejoin="round" fill-rule="evenodd" xml:space="preserve" >
<defs >
<clipPath id="clipId0" >
<path d="M0,768 1024,768 1024,0 0,0 z" />
</clipPath>
</defs>
<g clip-path="url(#clipId0)" fill="none" stroke="rgb(0,0,0)" stroke-width="0.1" />
<g clip-path="url(#clipId0)" fill="none" stroke="rgb(0,0,0)" stroke-width="0.25" >
<polyline points="956.027,349.753 950.127,365.24 " />
<polyline points="956.027,349.753 961.927,365.24 " />
<polyline points="952.339,360.078 959.715,360.078 " />
<polyline points="972.753,360.49 972.311,359.605 971.426,358.72 970.541,358.277 968.771,358.277 967.886,358.72 967.001,359.605 966.558,360.49 966.116,361.817 966.116,364.03 966.558,365.357 967.001,366.242 967.886,367.127 968.771,367.57 970.541,367.57 971.426,367.127 972.311,366.242 972.753,365.357 " />
<polyline points="972.753,391.202 972.311,390.317 971.426,389.432 970.541,388.989 968.771,388.989 967.886,389.432 967.001,390.317 966.558,391.202 966.116,392.529 966.116,394.742 966.558,396.069 967.001,396.954 967.886,397.839 968.771,398.282 970.541,398.282 971.426,397.839 972.311,396.954 972.753,396.069 " />
<polyline points="491.098,390.228 158.48,165.914 " stroke-dasharray="64.531777,12.906355,12.906355,12.906355" />
<polyline points="371.595,371.905 92.6485,183.787 " />
<polyline points="441.433,294.467 158.95,103.964 " />
<polyline points="32.5028,630.646 32.5028,639.939 " />
<polyline points="32.5028,635.071 33.3878,634.186 34.2728,633.744 35.6003,633.744 36.4853,634.186 37.3703,635.071 37.8128,636.399 37.8128,637.284 37.3703,638.611 36.4853,639.496 35.6003,639.939 34.2728,639.939 33.3878,639.496 32.5028,638.611 " />
<polyline points="40.9104,632.859 40.9104,632.416 41.3529,631.531 41.7954,631.089 42.6804,630.646 44.4504,630.646 45.3354,631.089 45.7779,631.531 46.2204,632.416 46.2204,633.301 45.7779,634.186 44.8929,635.514 40.4679,639.939 46.6629,639.939 " />
<polyline points="53.1445,663.113 53.1445,672.406 " />
<polyline points="53.1445,667.538 54.0295,666.653 54.9145,666.211 56.242,666.211 57.1271,666.653 58.0121,667.538 58.4546,668.866 58.4546,669.751 58.0121,671.078 57.1271,671.963 56.242,672.406 54.9145,672.406 54.0295,671.963 53.1445,671.078 " />
<polyline points="61.5521,665.326 61.5521,664.883 61.9946,663.998 62.4371,663.556 63.3221,663.113 65.0921,663.113 65.9771,663.556 66.4196,663.998 66.8621,664.883 66.8621,665.768 66.4196,666.653 65.5346,667.981 61.1096,672.406 67.3046,672.406 " />
<polyline points="42.7018,653.78 36.8018,669.268 " />
<polyline points="42.7018,653.78 48.6019,669.268 " />
<polyline points="39.0143,664.105 46.3894,664.105 " />
<polyline points="134.485,133.418 174.765,84.9238 " />
<polyline points="76.5039,203.224 116.784,154.73 " />
<polyline points="152.941,148.748 134.485,133.418 " />
<polyline points="98.3274,139.4 116.784,154.73 " />
<polyline points="98.3274,139.4 152.941,148.748 " />
<polyline points="953.869,379.704 952.394,380.442 950.919,381.917 950.181,383.392 949.444,385.604 949.444,389.292 950.181,391.504 950.919,392.979 952.394,394.454 953.869,395.192 956.819,395.192 958.294,394.454 959.769,392.979 960.507,391.504 961.244,389.292 961.244,385.604 960.507,383.392 959.769,381.917 958.294,380.442 956.819,379.704 953.869,379.704 " />
<polyline points="956.082,392.242 960.507,396.667 " />
<polyline points="18.8458,622.197 17.3708,622.935 15.8958,624.41 15.1583,625.885 14.4208,628.097 14.4208,631.785 15.1583,633.997 15.8958,635.472 17.3708,636.947 18.8458,637.685 21.7959,637.685 23.2709,636.947 24.7459,635.472 25.4834,633.997 26.2209,631.785 26.2209,628.097 25.4834,625.885 24.7459,624.41 23.2709,622.935 21.7959,622.197 18.8458,622.197 " />
<polyline points="21.0584,634.735 25.4834,639.16 " />
<polyline points="441.433,294.467 871.194,294.467 " />
<polyline points="871.194,358.053 871.194,263.492 " />
<polyline points="847.202,385.757 895.187,358.053 " />
<polyline points="895.187,358.053 871.194,358.053 " />
<polyline points="847.202,385.757 871.194,385.757 " />
<polyline points="871.194,480.319 871.194,385.757 " />
<polyline points="441.433,449.343 871.194,449.343 " />
<polyline points="41.0253,109.514 41.0253,118.806 " />
<polyline points="41.0253,113.939 41.9103,113.054 42.7953,112.611 44.1228,112.611 45.0078,113.054 45.8928,113.939 46.3353,115.266 46.3353,116.151 45.8928,117.479 45.0078,118.364 44.1228,118.806 42.7953,118.806 41.9103,118.364 41.0253,117.479 " />
<polyline points="50.3179,111.284 51.2029,110.841 52.5304,109.514 52.5304,118.806 " />
<polyline points="29.5843,99.5277 23.6842,115.015 " />
<polyline points="29.5843,99.5277 35.4843,115.015 " />
<polyline points="25.8967,109.853 33.2718,109.853 " />
<polyline points="60.38,82.5091 60.38,91.8017 " />
<polyline points="60.38,86.9342 61.2651,86.0491 62.1501,85.6066 63.4776,85.6066 64.3626,86.0491 65.2476,86.9342 65.6901,88.2617 65.6901,89.1467 65.2476,90.4742 64.3626,91.3592 63.4776,91.8017 62.1501,91.8017 61.2651,91.3592 60.38,90.4742 " />
<polyline points="69.6726,84.2791 70.5576,83.8366 71.8851,82.5091 71.8851,91.8017 " />
<polyline points="47.3763,73.407 45.9013,74.1445 44.4263,75.6195 43.6888,77.0945 42.9513,79.307 42.9513,82.9946 43.6888,85.2071 44.4263,86.6821 45.9013,88.1571 47.3763,88.8946 50.3264,88.8946 51.8014,88.1571 53.2764,86.6821 54.0139,85.2071 54.7514,82.9946 54.7514,79.307 54.0139,77.0945 53.2764,75.6195 51.8014,74.1445 50.3264,73.407 47.3763,73.407 " />
<polyline points="49.5889,85.9446 54.0139,90.3696 " />
<polyline points="441.433,449.343 160.137,639.046 " />
<polyline points="491.098,353.582 158.48,577.896 " stroke-dasharray="64.531777,12.906355,12.906355,12.906355" />
<polyline points="371.595,371.905 92.6485,560.024 " />
<polyline points="98.9353,604.329 153.416,594.233 " />
<polyline points="135.172,609.814 176.112,657.752 " />
<polyline points="153.416,594.233 135.172,609.814 " />
<polyline points="98.9353,604.329 117.18,588.747 " />
<polyline points="76.239,540.81 117.18,588.747 " />
<path d="M227.325,293.27  A164.309,164.309 0 0,0 210.308,340.538 " />
<path d="M207.965,386.823  A164.309,164.309 0 0,0 227.325,450.54 " />
</g>
<g clip-path="url(#clipId0)" fill="rgb(0,0,0)" stroke="rgb(0,0,0)" stroke-width="0.25" >
<path d="M229.53,294.611 225.119,291.93 235.369,280.036 235.369,280.036 z" />
<path d="M229.53,449.199 225.119,451.881 235.369,463.774 235.369,463.774 z" />
<path d="M997.141,369.324 997.141,374.486 1012.63,371.905 1012.63,371.905 z" />
</g>
<g clip-path="url(#clipId0)" fill="none" stroke="rgb(0,0,0)" stroke-width="0.25" >
<polyline points="997.141,371.905 919.095,371.905 " />
</g>
<g clip-path="url(#clipId0)" fill="rgb(0,0,0)" stroke="rgb(0,0,0)" stroke-width="0.25" >
<path d="M83.0516,117.734 80.1955,122.035 94.5253,128.452 94.5253,128.452 z" />
</g>
<g clip-path="url(#clipId0)" fill="none" stroke="rgb(0,0,0)" stroke-width="0.25" >
<polyline points="81.6235,119.884 10.3213,72.5325 " />
</g>
<g clip-path="url(#clipId0)" fill="rgb(0,0,0)" stroke="rgb(0,0,0)" stroke-width="0.25" >
<path d="M75.4119,622.078 78.3585,626.317 89.6025,615.358 89.6025,615.358 z" />
</g>
<g clip-path="url(#clipId0)" fill="none" stroke="rgb(0,0,0)" stroke-width="0.25" >
<polyline points="76.8852,624.197 10.0392,670.661 " />
<polyline points="200.236,359.267 199.499,357.792 197.286,357.055 195.811,357.055 193.599,357.792 192.124,360.005 191.386,363.692 191.386,367.38 192.124,370.33 193.599,371.805 195.811,372.542 196.549,372.542 198.761,371.805 200.236,370.33 200.974,368.117 200.974,367.38 200.236,365.167 198.761,363.692 196.549,362.955 195.811,362.955 193.599,363.692 192.124,365.167 191.386,367.38 " />
<polyline points="209.824,357.055 207.611,357.792 206.136,360.005 205.399,363.692 205.399,365.905 206.136,369.592 207.611,371.805 209.824,372.542 211.299,372.542 213.511,371.805 214.986,369.592 215.724,365.905 215.724,363.692 214.986,360.005 213.511,357.792 211.299,357.055 209.824,357.055 " />
<ellipse rx="1.47501" ry="1.47501" cx="220.149" cy="358.53" />
<polyline points="194.391,159.897 188.788,174.799 " />
<polyline points="200.505,164.021 188.788,174.799 " />
<polyline points="200.505,164.021 194.902,178.923 " />
<polyline points="206.619,168.145 194.902,178.923 " />
<polyline points="219.63,183.148 220.581,196.244 " />
<polyline points="226.355,187.684 213.856,191.708 " />
<polyline points="246.362,194.952 237.701,207.791 " />
<polyline points="254.922,200.725 246.261,213.565 " />
<polyline points="242.238,201.066 250.798,206.84 " />
<polyline points="205.226,178.336 200.029,186.04 " />
<polyline points="202.751,182.004 203.98,181.765 204.961,181.893 206.061,182.636 206.548,183.497 206.787,184.726 206.411,186.074 205.916,186.808 204.807,187.661 203.578,187.9 202.597,187.772 201.497,187.029 201.01,186.168 200.772,184.939 " />
<polyline points="695.441,340.832 699.129,356.32 " />
<polyline points="702.816,340.832 699.129,356.32 " />
<polyline points="702.816,340.832 706.504,356.32 " />
<polyline points="710.191,340.832 706.504,356.32 " />
<polyline points="729.367,345.994 737.479,356.32 " />
<polyline points="737.479,345.994 729.367,356.32 " />
<polyline points="758.129,340.832 758.129,356.32 " />
<polyline points="768.454,340.832 768.454,356.32 " />
<polyline points="758.129,348.207 768.454,348.207 " />
<polyline points="718.61,351.502 718.168,350.617 717.283,349.732 716.398,349.29 714.628,349.29 713.743,349.732 712.858,350.617 712.415,351.502 711.973,352.83 711.973,355.042 712.415,356.37 712.858,357.255 713.743,358.14 714.628,358.582 716.398,358.582 717.283,358.14 718.168,357.255 718.61,356.37 " />
<polyline points="150.779,552.214 162.497,562.992 " />
<polyline points="156.893,548.09 162.497,562.992 " />
<polyline points="156.893,548.09 168.611,558.868 " />
<polyline points="163.008,543.966 168.611,558.868 " />
<polyline points="181.791,537.523 194.291,541.546 " />
<polyline points="188.517,532.987 187.565,546.083 " />
<polyline points="202.75,517.159 211.411,529.999 " />
<polyline points="211.31,511.385 219.97,524.225 " />
<polyline points="206.874,523.273 215.434,517.5 " />
<polyline points="170.893,549.59 176.089,557.293 " />
<polyline points="173.367,553.258 173.606,552.03 174.092,551.168 175.193,550.425 176.174,550.297 177.403,550.536 178.512,551.389 179.007,552.123 179.382,553.471 179.144,554.7 178.657,555.561 177.557,556.304 176.576,556.432 175.347,556.193 " />
<polyline points="838.811,371.905 431.157,371.905 " stroke-dasharray="64.531777,12.906355,12.906355,12.906355" />
<polyline points="695.612,86.8285 689.712,102.316 " />
<polyline points="695.612,86.8285 701.512,102.316 " />
<polyline points="691.925,97.1536 699.3,97.1536 " />
<polyline points="736.175,93.4661 749.45,93.4661 " />
<polyline points="736.175,97.8911 749.45,97.8911 " />
<polyline points="774.526,86.8285 768.626,102.316 " />
<polyline points="774.526,86.8285 780.426,102.316 " />
<polyline points="770.838,97.1536 778.213,97.1536 " />
<polyline points="695.612,118.248 689.712,133.736 " />
<polyline points="695.612,118.248 701.512,133.736 " />
<polyline points="691.925,128.573 699.3,128.573 " />
<polyline points="742.813,120.461 742.813,133.736 " />
<polyline points="736.175,127.098 749.45,127.098 " />
<polyline points="774.526,118.248 768.626,133.736 " />
<polyline points="774.526,118.248 780.426,133.736 " />
<polyline points="770.838,128.573 778.213,128.573 " />
<polyline points="815.088,124.886 828.363,124.886 " />
<polyline points="815.088,129.311 828.363,129.311 " />
<polyline points="853.439,118.248 847.539,133.736 " />
<polyline points="853.439,118.248 859.339,133.736 " />
<polyline points="849.751,128.573 857.126,128.573 " />
<polyline points="705.766,127.336 705.766,136.629 " />
<polyline points="705.766,131.761 706.651,130.876 707.536,130.434 708.864,130.434 709.749,130.876 710.634,131.761 711.076,133.089 711.076,133.974 710.634,135.301 709.749,136.186 708.864,136.629 707.536,136.629 706.651,136.186 705.766,135.301 " />
<polyline points="715.059,129.106 715.944,128.664 717.271,127.336 717.271,136.629 " />
<polyline points="705.895,95.8728 705.895,105.165 " />
<polyline points="705.895,100.298 706.78,99.4128 707.665,98.9703 708.993,98.9703 709.878,99.4128 710.763,100.298 711.205,101.625 711.205,102.51 710.763,103.838 709.878,104.723 708.993,105.165 707.665,105.165 706.78,104.723 705.895,103.838 " />
<polyline points="715.188,97.6428 716.073,97.2003 717.4,95.8728 717.4,105.165 " />
<polyline points="785.138,96.002 785.138,105.295 " />
<polyline points="785.138,100.427 786.023,99.542 786.908,99.0995 788.236,99.0995 789.121,99.542 790.006,100.427 790.448,101.755 790.448,102.64 790.006,103.967 789.121,104.852 788.236,105.295 786.908,105.295 786.023,104.852 785.138,103.967 " />
<polyline points="793.546,98.2145 793.546,97.772 793.989,96.887 794.431,96.4445 795.316,96.002 797.086,96.002 797.971,96.4445 798.414,96.887 798.856,97.772 798.856,98.657 798.414,99.542 797.529,100.87 793.104,105.295 799.299,105.295 " />
<polyline points="785.57,126.904 785.57,136.197 " />
<polyline points="785.57,131.329 786.455,130.444 787.34,130.002 788.668,130.002 789.553,130.444 790.438,131.329 790.88,132.657 790.88,133.542 790.438,134.869 789.553,135.754 788.668,136.197 787.34,136.197 786.455,135.754 785.57,134.869 " />
<polyline points="793.978,129.117 793.978,128.674 794.42,127.789 794.863,127.347 795.748,126.904 797.518,126.904 798.403,127.347 798.845,127.789 799.288,128.674 799.288,129.559 798.845,130.444 797.96,131.772 793.535,136.197 799.73,136.197 " />
<polyline points="870.58,129.035 870.138,128.15 869.253,127.265 868.368,126.822 866.598,126.822 865.713,127.265 864.828,128.15 864.385,129.035 863.943,130.362 863.943,132.575 864.385,133.902 864.828,134.787 865.713,135.672 866.598,136.115 868.368,136.115 869.253,135.672 870.138,134.787 870.58,133.902 " />
<polyline points="906.875,672.752 906.875,695.467 " />
<polyline points="906.875,672.752 920.937,672.752 " />
<polyline points="906.875,683.569 915.528,683.569 " />
<polyline points="906.875,695.467 920.937,695.467 " />
<polyline points="927.427,672.752 927.427,695.467 " />
<polyline points="927.427,672.752 937.162,672.752 940.407,673.834 941.489,674.916 942.57,677.079 942.57,679.242 941.489,681.406 940.407,682.487 937.162,683.569 927.427,683.569 " />
<polyline points="934.998,683.569 942.57,695.467 " />
<polyline points="962.04,672.752 951.224,672.752 950.142,682.487 951.224,681.406 954.469,680.324 957.714,680.324 960.959,681.406 963.122,683.569 964.204,686.814 964.204,688.977 963.122,692.222 960.959,694.386 957.714,695.467 954.469,695.467 951.224,694.386 950.142,693.304 949.06,691.141 " />
<polyline points="971.775,685.732 991.246,685.732 " />
<polyline points="1013.96,672.752 1003.14,695.467 " />
<polyline points="998.817,672.752 1013.96,672.752 " />
</g>
</svg>
