<?xml version="1.0" standalone="no"?>
<svg viewBox="0 0 1024 768" version="1.1" xmlns="http://www.w3.org/2000/svg" xmlns:xlink="http://www.w3.org/1999/xlink" stroke-linecap="round" stroke-linejoin="round" fill-rule="evenodd" xml:space="preserve" >
<defs >
<clipPath id="clipId0" >
<path d="M0,768 1024,768 1024,0 0,0 z" />
</clipPath>
</defs>
<g clip-path="url(#clipId0)" fill="none" stroke="rgb(0,0,0)" stroke-width="0.1" />
<g clip-path="url(#clipId0)" fill="none" stroke="rgb(0,0,0)" stroke-width="0.25" >
<polyline points="396.546,554.277 396.546,426.323 " />
<polyline points="396.546,426.323 219.355,324.023 " />
<polyline points="219.355,324.023 219.355,451.976 " />
<polyline points="219.355,451.976 396.546,554.277 " />
<polyline points="816.382,454.127 642.917,554.277 " />
<polyline points="816.382,326.173 816.382,454.127 " />
<polyline points="642.917,426.323 816.382,326.173 " />
<polyline points="642.917,554.277 642.917,426.323 " />
<polyline points="827.944,463.779 896.194,503.183 " />
<polyline points="654.921,563.674 723.171,603.078 " />
<polyline points="887.713,498.286 816.82,539.216 " />
</g>
<g clip-path="url(#clipId0)" fill="rgb(0,0,0)" stroke="rgb(0,0,0)" stroke-width="0.25" >
<path d="M873.307,503.866 875.678,507.972 886.811,498.807 886.811,498.807 z" />
<path d="M725.823,589.016 728.193,593.122 714.69,598.181 714.69,598.181 z" />
</g>
<g clip-path="url(#clipId0)" fill="none" stroke="rgb(0,0,0)" stroke-width="0.25" >
<polyline points="94.9842,524.244 93.6295,524.921 92.2748,526.276 91.5975,527.631 90.9201,529.663 90.9201,533.049 91.5975,535.081 92.2748,536.436 93.6295,537.791 94.9842,538.468 97.6936,538.468 99.0483,537.791 100.403,536.436 101.08,535.081 101.758,533.049 101.758,529.663 101.08,527.631 100.403,526.276 99.0483,524.921 97.6936,524.244 94.9842,524.244 " />
<polyline points="97.0162,535.759 101.08,539.823 " />
<polyline points="112.723,534.399 112.316,533.586 111.504,532.773 110.691,532.367 109.065,532.367 108.252,532.773 107.44,533.586 107.033,534.399 106.627,535.618 106.627,537.65 107.033,538.869 107.44,539.682 108.252,540.495 109.065,540.901 110.691,540.901 111.504,540.495 112.316,539.682 112.723,538.869 " />
<polyline points="801.192,548.857 801.192,557.391 " />
<polyline points="801.192,552.921 802.005,552.108 802.817,551.701 804.037,551.701 804.849,552.108 805.662,552.921 806.069,554.14 806.069,554.953 805.662,556.172 804.849,556.985 804.037,557.391 802.817,557.391 802.005,556.985 801.192,556.172 " />
<polyline points="808.913,550.889 808.913,550.482 809.32,549.669 809.726,549.263 810.539,548.857 812.165,548.857 812.978,549.263 813.384,549.669 813.79,550.482 813.79,551.295 813.384,552.108 812.571,553.327 808.507,557.391 814.197,557.391 " />
<polyline points="784.188,541.322 787.574,555.547 " />
<polyline points="790.961,541.322 787.574,555.547 " />
<polyline points="790.961,541.322 794.348,555.547 " />
<polyline points="797.734,541.322 794.348,555.547 " />
<polyline points="117.581,575.073 117.174,574.261 116.362,573.448 115.549,573.041 113.923,573.041 113.11,573.448 112.298,574.261 111.891,575.073 111.485,576.293 111.485,578.325 111.891,579.544 112.298,580.357 113.11,581.17 113.923,581.576 115.549,581.576 116.362,581.17 117.174,580.357 117.581,579.544 " />
<polyline points="99.8422,564.918 94.4234,579.143 " />
<polyline points="99.8422,564.918 105.261,579.143 " />
<polyline points="96.4555,574.401 103.229,574.401 " />
<polyline points="910.572,554.625 905.153,568.85 " />
<polyline points="910.572,554.625 915.991,568.85 " />
<polyline points="907.185,564.108 913.959,564.108 " />
<polyline points="926.789,570.899 926.789,579.433 " />
<polyline points="926.789,574.963 927.602,574.15 928.414,573.743 929.634,573.743 930.446,574.15 931.259,574.963 931.666,576.182 931.666,576.995 931.259,578.214 930.446,579.027 929.634,579.433 928.414,579.433 927.602,579.027 926.789,578.214 " />
<polyline points="934.51,572.931 934.51,572.524 934.917,571.711 935.323,571.305 936.136,570.899 937.762,570.899 938.575,571.305 938.981,571.711 939.387,572.524 939.387,573.337 938.981,574.15 938.168,575.369 934.104,579.433 939.794,579.433 " />
<polyline points="927.651,535.411 927.651,543.945 " />
<polyline points="927.651,539.475 928.464,538.662 929.277,538.255 930.496,538.255 931.309,538.662 932.122,539.475 932.528,540.694 932.528,541.507 932.122,542.726 931.309,543.539 930.496,543.945 929.277,543.945 928.464,543.539 927.651,542.726 " />
<polyline points="935.373,537.443 935.373,537.036 935.779,536.223 936.186,535.817 936.998,535.411 938.624,535.411 939.437,535.817 939.843,536.223 940.25,537.036 940.25,537.849 939.843,538.662 939.031,539.881 934.966,543.945 940.656,543.945 " />
<polyline points="915.258,524.399 913.903,525.076 912.548,526.431 911.871,527.785 911.194,529.817 911.194,533.204 911.871,535.236 912.548,536.591 913.903,537.945 915.258,538.623 917.967,538.623 919.322,537.945 920.676,536.591 921.354,535.236 922.031,533.204 922.031,529.817 921.354,527.785 920.676,526.431 919.322,525.076 917.967,524.399 915.258,524.399 " />
<polyline points="917.29,535.913 921.354,539.977 " />
<polyline points="519.731,396.864 516.201,396.885 512.672,396.947 509.144,397.051 505.617,397.195 502.092,397.382 498.57,397.61 495.05,397.879 491.534,398.189 488.022,398.54 484.514,398.933 481.011,399.367 477.513,399.842 474.021,400.358 470.535,400.915 467.057,401.513 463.585,402.152 460.121,402.831 456.665,403.551 453.219,404.311 449.781,405.112 449.781,405.112 446.989,405.801 444.208,406.53 441.438,407.299 438.679,408.109 435.932,408.957 433.197,409.846 430.476,410.774 427.768,411.741 425.075,412.747 422.396,413.792 419.733,414.876 417.085,415.998 414.454,417.158 411.841,418.355 409.244,419.591 406.666,420.864 404.107,422.174 401.566,423.521 399.046,424.904 396.546,426.323 " />
<polyline points="642.917,426.323 640.417,424.904 637.896,423.521 635.356,422.174 632.796,420.864 630.218,419.591 627.622,418.355 625.008,417.158 622.377,415.998 619.73,414.876 617.066,413.792 614.388,412.747 611.694,411.741 608.987,410.774 606.265,409.846 603.531,408.957 600.784,408.109 598.025,407.299 595.254,406.53 592.473,405.801 589.682,405.112 589.682,405.112 586.244,404.311 582.797,403.551 579.341,402.831 575.877,402.152 572.406,401.513 568.927,400.915 565.441,400.358 561.95,399.842 558.452,399.367 554.949,398.933 551.441,398.54 547.929,398.189 544.412,397.879 540.893,397.61 537.37,397.382 533.845,397.195 530.319,397.051 526.79,396.947 523.261,396.885 519.731,396.864 " />
<polyline points="642.917,554.277 639.776,552.791 636.618,551.342 633.443,549.931 630.251,548.558 627.043,547.222 623.819,545.925 620.581,544.666 617.327,543.446 614.06,542.265 610.778,541.122 607.483,540.019 604.176,538.955 600.856,537.93 597.524,536.944 594.18,535.998 590.826,535.092 587.461,534.226 584.086,533.4 580.701,532.614 577.307,531.869 573.905,531.163 570.494,530.499 567.076,529.874 563.651,529.291 560.219,528.748 556.781,528.245 553.337,527.784 549.888,527.364 546.434,526.985 542.975,526.646 539.514,526.349 536.048,526.093 532.58,525.878 529.11,525.705 525.638,525.572 522.164,525.481 518.69,525.431 515.215,525.422 511.741,525.455 508.267,525.529 504.794,525.644 501.323,525.8 497.854,525.998 494.387,526.237 490.924,526.516 487.464,526.838 484.008,527.2 480.557,527.603 477.111,528.047 473.67,528.532 470.236,529.058 466.807,529.624 463.386,530.231 459.972,530.879 456.567,531.568 453.169,532.296 449.781,533.065 449.781,533.065 446.989,533.754 444.208,534.483 441.438,535.253 438.679,536.062 435.932,536.911 433.197,537.799 430.476,538.727 427.768,539.694 425.075,540.701 422.396,541.746 419.733,542.829 417.085,543.951 414.454,545.111 411.841,546.309 409.244,547.544 406.666,548.817 404.107,550.127 401.566,551.474 399.046,552.857 396.546,554.277 " />
<polyline points="637.784,557.24 424.435,680.417 " />
<polyline points="401.678,557.24 615.027,680.417 " />
</g>
<g clip-path="url(#clipId0)" fill="rgb(0,0,0)" stroke="rgb(0,0,0)" stroke-width="0.25" >
<path d="M579.96,677.694 577.886,673.43 591.715,669.34 591.715,669.34 z" />
<path d="M461.49,673.711 459.329,677.932 447.748,669.34 447.748,669.34 z" />
</g>
<g clip-path="url(#clipId0)" fill="none" stroke="rgb(0,0,0)" stroke-width="0.25" >
<path d="M530.467,249.345  A436.871,436.871 0 0,0 392.82,81.6298 " />
<path d="M219.355,451.976  A91.1998,91.1998 0 0,0 242.412,337.335 " />
<polyline points="219.355,309.733 219.355,181.78 " />
<path d="M219.355,324.023  A91.1998,91.1998 0 0,0 219.355,181.78 " />
<path d="M227.261,316.878  A91.1998,91.1998 0 0,0 219.355,309.733 " />
</g>
<g clip-path="url(#clipId0)" fill="rgb(0,0,0)" stroke="rgb(0,0,0)" stroke-width="0.25" >
<path d="M554.306,439.233 558.939,440.239 559.639,425.835 559.639,425.835 z" />
</g>
<g clip-path="url(#clipId0)" fill="none" stroke="rgb(0,0,0)" stroke-width="0.25" >
<polyline points="532.106,552.761 532.106,562.244 " />
<polyline points="532.106,556.825 532.784,554.793 534.138,553.438 535.493,552.761 537.525,552.761 " />
<polyline points="519.731,625.398 530.04,573.849 " />
<polyline points="207.86,459.132 123.908,507.601 " />
<polyline points="385.051,561.433 301.099,609.902 " />
<polyline points="312.528,603.304 229.096,555.135 " />
</g>
<g clip-path="url(#clipId0)" fill="rgb(0,0,0)" stroke="rgb(0,0,0)" stroke-width="0.25" >
<path d="M301.19,594.393 298.913,598.552 312.528,603.304 312.528,603.304 z" />
<path d="M148.778,506.227 146.357,510.304 135.337,501.003 135.337,501.003 z" />
</g>
<g clip-path="url(#clipId0)" fill="none" stroke="rgb(0,0,0)" stroke-width="0.25" >
<polyline points="207.538,319.752 136.028,278.466 " />
<polyline points="207.538,447.706 130.642,403.31 " />
</g>
<g clip-path="url(#clipId0)" fill="rgb(0,0,0)" stroke="rgb(0,0,0)" stroke-width="0.25" >
<path d="M145.69,396.405 140.949,396.405 143.319,410.629 143.319,410.629 z" />
<path d="M140.949,296.9 145.69,296.9 143.319,282.676 143.319,282.676 z" />
</g>
<g clip-path="url(#clipId0)" fill="none" stroke="rgb(0,0,0)" stroke-width="0.25" >
<polyline points="143.319,296.9 143.319,338.228 " />
<polyline points="143.319,368.261 143.319,396.405 " />
<polyline points="198.252,535.136 201.639,549.361 " />
<polyline points="205.025,535.136 201.639,549.361 " />
<polyline points="205.025,535.136 208.412,549.361 " />
<polyline points="211.799,535.136 208.412,549.361 " />
<polyline points="220.464,545.775 220.058,544.962 219.245,544.149 218.432,543.743 216.806,543.743 215.993,544.149 215.181,544.962 214.774,545.775 214.368,546.994 214.368,549.026 214.774,550.245 215.181,551.058 215.993,551.871 216.806,552.277 218.432,552.277 219.245,551.871 220.058,551.058 220.464,550.245 " />
<polyline points="715.932,26.8826 715.932,36.3655 " />
<polyline points="715.932,30.9467 716.609,28.9147 717.964,27.56 719.319,26.8826 721.351,26.8826 " />
<polyline points="735.575,19.4318 723.383,41.1069 " />
<polyline points="738.284,22.1412 741.671,36.3655 " />
<polyline points="745.058,22.1412 741.671,36.3655 " />
<polyline points="745.058,22.1412 748.444,36.3655 " />
<polyline points="751.831,22.1412 748.444,36.3655 " />
<polyline points="784.344,28.2373 796.536,28.2373 " />
<polyline points="784.344,32.3014 796.536,32.3014 " />
<polyline points="817.534,24.8506 818.888,24.1732 820.92,22.1412 820.92,36.3655 " />
<polyline points="830.403,35.0108 829.726,35.6881 830.403,36.3655 831.08,35.6881 830.403,35.0108 " />
<polyline points="843.95,22.1412 837.177,22.1412 836.499,28.2373 837.177,27.56 839.209,26.8826 841.241,26.8826 843.273,27.56 844.627,28.9147 845.305,30.9467 845.305,32.3014 844.627,34.3334 843.273,35.6881 841.241,36.3655 839.209,36.3655 837.177,35.6881 836.499,35.0108 835.822,33.6561 " />
<polyline points="760.83,34.0676 760.424,33.2548 759.611,32.442 758.798,32.0356 757.173,32.0356 756.36,32.442 755.547,33.2548 755.141,34.0676 754.734,35.2868 754.734,37.3189 755.141,38.5381 755.547,39.3509 756.36,40.1637 757.173,40.5701 758.798,40.5701 759.611,40.1637 760.424,39.3509 760.83,38.5381 " />
</g>
<g clip-path="url(#clipId0)" fill="rgb(0,0,0)" stroke="rgb(0,0,0)" stroke-width="0.25" >
<path d="M73.733,575.32 71.3521,571.22 60.2416,580.413 60.2416,580.413 z" />
</g>
<g clip-path="url(#clipId0)" fill="none" stroke="rgb(0,0,0)" stroke-width="0.25" >
<polyline points="72.5425,573.27 137.803,535.376 " />
</g>
<g clip-path="url(#clipId0)" fill="rgb(0,0,0)" stroke="rgb(0,0,0)" stroke-width="0.25" >
<path d="M885.733,534.475 888.103,530.369 874.599,525.311 874.599,525.311 z" />
</g>
<g clip-path="url(#clipId0)" fill="none" stroke="rgb(0,0,0)" stroke-width="0.25" >
<polyline points="886.918,532.422 955.373,571.937 " />
<polyline points="139.373,344.988 139.373,359.212 " />
<polyline points="148.855,344.988 148.855,359.212 " />
<polyline points="139.373,351.761 148.855,351.761 " />
<polyline points="513.281,683.736 512.604,685.768 511.249,687.122 509.217,687.8 508.54,687.8 506.508,687.122 505.153,685.768 504.476,683.736 504.476,683.058 505.153,681.026 506.508,679.672 508.54,678.994 509.217,678.994 511.249,679.672 512.604,681.026 513.281,683.736 513.281,687.122 512.604,690.509 511.249,692.541 509.217,693.219 507.863,693.219 505.83,692.541 505.153,691.186 " />
<polyline points="522.087,678.994 520.055,679.672 518.7,681.704 518.023,685.09 518.023,687.122 518.7,690.509 520.055,692.541 522.087,693.219 523.441,693.219 525.473,692.541 526.828,690.509 527.506,687.122 527.506,685.09 526.828,681.704 525.473,679.672 523.441,678.994 522.087,678.994 " />
<ellipse rx="1.35469" ry="1.35469" cx="531.57" cy="680.349" />
<polyline points="591.715,669.34 589.793,670.426 587.85,671.474 585.888,672.486 583.908,673.461 581.909,674.397 579.893,675.296 577.86,676.156 575.811,676.977 573.747,677.76 571.668,678.503 569.576,679.206 567.47,679.87 565.353,680.494 563.224,681.077 561.084,681.62 " />
<polyline points="491.256,684.232 488.762,683.804 486.275,683.341 483.794,682.841 481.321,682.306 478.856,681.735 478.856,681.735 476.818,681.228 474.789,680.684 472.771,680.104 470.763,679.488 468.767,678.835 466.783,678.147 464.811,677.422 462.853,676.663 460.909,675.868 458.98,675.038 457.066,674.173 455.168,673.274 453.287,672.341 451.422,671.374 449.576,670.374 447.748,669.34 " />
<polyline points="219.355,181.78 392.82,81.6298 " />
</g>
<g clip-path="url(#clipId0)" fill="rgb(0,0,0)" stroke="rgb(0,0,0)" stroke-width="0.25" >
<path d="M230.657,57.6597 228.288,61.7672 241.795,66.8189 241.795,66.8189 z" />
</g>
<g clip-path="url(#clipId0)" fill="none" stroke="rgb(0,0,0)" stroke-width="0.25" >
<polyline points="229.473,59.7135 160.413,19.8918 " />
<polyline points="185.433,7.52941 184.079,8.20676 182.724,9.56145 182.047,10.9161 181.369,12.9482 181.369,16.3349 182.047,18.3669 182.724,19.7216 184.079,21.0763 185.433,21.7537 188.143,21.7537 189.497,21.0763 190.852,19.7216 191.529,18.3669 192.207,16.3349 192.207,12.9482 191.529,10.9161 190.852,9.56145 189.497,8.20676 188.143,7.52941 185.433,7.52941 " />
<polyline points="187.465,19.0443 191.529,23.1084 " />
<polyline points="182.695,44.0922 177.276,58.3164 " />
<polyline points="182.695,44.0922 188.114,58.3164 " />
<polyline points="179.309,53.575 186.082,53.575 " />
<polyline points="197.071,16.8633 197.071,25.3979 " />
<polyline points="197.071,20.9274 197.884,20.1146 198.696,19.7082 199.916,19.7082 200.728,20.1146 201.541,20.9274 201.948,22.1466 201.948,22.9594 201.541,24.1786 200.728,24.9915 199.916,25.3979 198.696,25.3979 197.884,24.9915 197.071,24.1786 " />
<polyline points="205.605,18.4889 206.418,18.0825 207.637,16.8633 207.637,25.3979 " />
<polyline points="193.103,52.9108 193.103,61.4454 " />
<polyline points="193.103,56.9749 193.915,56.1621 194.728,55.7557 195.947,55.7557 196.76,56.1621 197.573,56.9749 197.979,58.1941 197.979,59.0069 197.573,60.2262 196.76,61.039 195.947,61.4454 194.728,61.4454 193.915,61.039 193.103,60.2262 " />
<polyline points="201.637,54.5365 202.45,54.1301 203.669,52.9108 203.669,61.4454 " />
<polyline points="139.54,137.554 205.568,175.082 " />
<polyline points="315.257,37.0942 381.39,74.8482 " />
</g>
<g clip-path="url(#clipId0)" fill="rgb(0,0,0)" stroke="rgb(0,0,0)" stroke-width="0.25" >
<path d="M311.287,47.1771 313.669,51.2769 324.778,42.0821 324.778,42.0821 z" />
</g>
<g clip-path="url(#clipId0)" fill="none" stroke="rgb(0,0,0)" stroke-width="0.25" >
<polyline points="312.478,49.227 260.636,79.3082 " />
</g>
<g clip-path="url(#clipId0)" fill="rgb(0,0,0)" stroke="rgb(0,0,0)" stroke-width="0.25" >
<path d="M163.536,137.951 161.18,133.837 150.015,142.963 150.015,142.963 z" />
</g>
<g clip-path="url(#clipId0)" fill="none" stroke="rgb(0,0,0)" stroke-width="0.25" >
<polyline points="162.358,135.894 217.21,104.528 " />
<polyline points="228.097,83.1908 231.484,97.415 " />
<polyline points="234.871,83.1908 231.484,97.415 " />
<polyline points="234.871,83.1908 238.258,97.415 " />
<polyline points="241.644,83.1908 238.258,97.415 " />
<polyline points="244.342,91.7406 244.342,100.275 " />
<polyline points="244.342,95.8046 245.155,94.9918 245.968,94.5854 247.187,94.5854 248,94.9918 248.813,95.8046 249.219,97.0239 249.219,97.8367 248.813,99.0559 248,99.8687 247.187,100.275 245.968,100.275 245.155,99.8687 244.342,99.0559 " />
<polyline points="252.877,93.3662 253.689,92.9598 254.909,91.7406 254.909,100.275 " />
<path d="M816.382,326.173  A501.298,501.298 0 0,0 530.467,249.345 " />
<polyline points="747.618,493.827 744.222,491.52 740.803,489.247 737.36,487.009 733.895,484.807 730.407,482.64 726.898,480.508 723.367,478.413 719.815,476.353 716.242,474.33 712.648,472.344 709.035,470.394 705.402,468.481 701.749,466.606 698.078,464.767 694.388,462.967 690.679,461.204 686.953,459.479 683.21,457.792 679.45,456.143 675.672,454.533 671.879,452.962 668.07,451.429 664.246,449.935 660.406,448.48 656.552,447.065 652.683,445.689 648.801,444.352 644.905,443.055 640.996,441.798 637.075,440.581 633.141,439.404 629.196,438.267 625.239,437.17 621.271,436.114 617.293,435.099 613.304,434.124 609.306,433.189 605.299,432.296 601.282,431.444 597.257,430.632 593.224,429.862 589.183,429.133 585.135,428.445 581.081,427.798 577.02,427.193 572.953,426.629 568.88,426.107 564.802,425.626 560.72,425.187 556.633,424.79 552.543,424.435 548.449,424.121 544.352,423.849 540.252,423.618 536.151,423.43 532.047,423.283 527.943,423.179 523.837,423.116 519.731,423.095 515.625,423.116 511.52,423.179 507.415,423.283 503.312,423.43 499.21,423.618 495.111,423.849 491.014,424.121 486.92,424.435 482.829,424.79 478.743,425.187 474.66,425.626 470.583,426.107 466.51,426.629 462.443,427.193 458.382,427.798 454.327,428.445 450.279,429.133 446.238,429.862 442.205,430.632 438.18,431.444 434.164,432.296 430.156,433.189 426.158,434.124 422.17,435.099 418.191,436.114 414.223,437.17 410.267,438.267 406.321,439.404 402.388,440.581 398.466,441.798 394.557,443.055 390.662,444.352 386.779,445.689 382.911,447.065 379.057,448.48 375.217,449.935 371.392,451.429 367.583,452.962 363.79,454.533 360.013,456.143 356.252,457.792 352.509,459.479 348.783,461.204 345.075,462.967 341.385,464.767 337.713,466.606 334.061,468.481 330.427,470.394 326.814,472.344 323.221,474.33 319.648,476.353 316.095,478.413 312.564,480.508 309.055,482.64 305.568,484.807 302.102,487.009 298.66,489.247 295.24,491.52 291.844,493.827 " />
<polyline points="189.524,532.288 135.337,501.003 " />
<polyline points="779.461,560.785 725.729,591.807 " />
<polyline points="536.514,541.475 559.639,425.835 " />
<polyline points="719.319,56.3471 717.964,57.0245 716.609,58.3792 715.932,59.7339 715.254,61.7659 715.254,65.1526 715.932,67.1847 716.609,68.5394 717.964,69.8941 719.319,70.5714 722.028,70.5714 723.383,69.8941 724.737,68.5394 725.415,67.1847 726.092,65.1526 726.092,61.7659 725.415,59.7339 724.737,58.3792 723.383,57.0245 722.028,56.3471 719.319,56.3471 " />
<polyline points="721.351,67.862 725.415,71.9261 " />
<polyline points="755.895,53.6378 743.703,75.3128 " />
<polyline points="763.346,56.3471 761.991,57.0245 760.637,58.3792 759.959,59.7339 759.282,61.7659 759.282,65.1526 759.959,67.1847 760.637,68.5394 761.991,69.8941 763.346,70.5714 766.055,70.5714 767.41,69.8941 768.765,68.5394 769.442,67.1847 770.119,65.1526 770.119,61.7659 769.442,59.7339 768.765,58.3792 767.41,57.0245 766.055,56.3471 763.346,56.3471 " />
<polyline points="765.378,67.862 769.442,71.9261 " />
<polyline points="789.085,62.4433 801.277,62.4433 " />
<polyline points="789.085,66.5073 801.277,66.5073 " />
<polyline points="824.307,56.3471 822.952,57.0245 821.598,58.3792 820.92,59.7339 820.243,61.7659 820.243,65.1526 820.92,67.1847 821.598,68.5394 822.952,69.8941 824.307,70.5714 827.016,70.5714 828.371,69.8941 829.726,68.5394 830.403,67.1847 831.08,65.1526 831.08,61.7659 830.403,59.7339 829.726,58.3792 828.371,57.0245 827.016,56.3471 824.307,56.3471 " />
<polyline points="826.339,67.862 830.403,71.9261 " />
<polyline points="860.884,53.6378 848.691,75.3128 " />
<polyline points="868.334,56.3471 866.98,57.0245 865.625,58.3792 864.948,59.7339 864.27,61.7659 864.27,65.1526 864.948,67.1847 865.625,68.5394 866.98,69.8941 868.334,70.5714 871.044,70.5714 872.399,69.8941 873.753,68.5394 874.431,67.1847 875.108,65.1526 875.108,61.7659 874.431,59.7339 873.753,58.3792 872.399,57.0245 871.044,56.3471 868.334,56.3471 " />
<polyline points="870.367,67.862 874.431,71.9261 " />
<polyline points="894.074,62.4433 906.266,62.4433 " />
<polyline points="894.074,66.5073 906.266,66.5073 " />
<polyline points="929.296,56.3471 927.264,57.0245 925.909,59.0565 925.231,62.4433 925.231,64.4753 925.909,67.862 927.264,69.8941 929.296,70.5714 930.65,70.5714 932.682,69.8941 934.037,67.862 934.714,64.4753 934.714,62.4433 934.037,59.0565 932.682,57.0245 930.65,56.3471 929.296,56.3471 " />
<polyline points="940.133,69.2167 939.456,69.8941 940.133,70.5714 940.81,69.8941 940.133,69.2167 " />
<polyline points="953.68,56.3471 946.907,56.3471 946.229,62.4433 946.907,61.7659 948.939,61.0886 950.971,61.0886 953.003,61.7659 954.357,63.1206 955.035,65.1526 955.035,66.5073 954.357,68.5394 953.003,69.8941 950.971,70.5714 948.939,70.5714 946.907,69.8941 946.229,69.2167 945.552,67.862 " />
<polyline points="714.577,90.5531 717.964,104.777 " />
<polyline points="721.351,90.5531 717.964,104.777 " />
<polyline points="721.351,90.5531 724.737,104.777 " />
<polyline points="728.124,90.5531 724.737,104.777 " />
<polyline points="760.637,96.6492 772.829,96.6492 " />
<polyline points="760.637,100.713 772.829,100.713 " />
<polyline points="791.117,90.5531 794.504,104.777 " />
<polyline points="797.891,90.5531 794.504,104.777 " />
<polyline points="797.891,90.5531 801.277,104.777 " />
<polyline points="804.664,90.5531 801.277,104.777 " />
<polyline points="837.177,96.6492 849.369,96.6492 " />
<polyline points="837.177,100.713 849.369,100.713 " />
<polyline points="867.657,90.5531 871.044,104.777 " />
<polyline points="874.431,90.5531 871.044,104.777 " />
<polyline points="874.431,90.5531 877.817,104.777 " />
<polyline points="881.204,90.5531 877.817,104.777 " />
<polyline points="730.278,66.2913 730.278,74.8259 " />
<polyline points="730.278,70.3554 731.091,69.5426 731.903,69.1362 733.123,69.1362 733.935,69.5426 734.748,70.3554 735.155,71.5746 735.155,72.3875 734.748,73.6067 733.935,74.4195 733.123,74.8259 731.903,74.8259 731.091,74.4195 730.278,73.6067 " />
<polyline points="738.812,67.917 739.625,67.5106 740.844,66.2913 740.844,74.8259 " />
<polyline points="780.04,67.7709 779.633,66.9581 778.82,66.1452 778.008,65.7388 776.382,65.7388 775.569,66.1452 774.756,66.9581 774.35,67.7709 773.944,68.9901 773.944,71.0221 774.35,72.2413 774.756,73.0542 775.569,73.867 776.382,74.2734 778.008,74.2734 778.82,73.867 779.633,73.0542 780.04,72.2413 " />
<polyline points="833.405,66.2913 833.405,74.8259 " />
<polyline points="833.405,70.3554 834.218,69.5426 835.031,69.1362 836.25,69.1362 837.063,69.5426 837.875,70.3554 838.282,71.5746 838.282,72.3875 837.875,73.6067 837.063,74.4195 836.25,74.8259 835.031,74.8259 834.218,74.4195 833.405,73.6067 " />
<polyline points="841.127,68.3234 841.127,67.917 841.533,67.1042 841.939,66.6978 842.752,66.2913 844.378,66.2913 845.191,66.6978 845.597,67.1042 846.004,67.917 846.004,68.7298 845.597,69.5426 844.784,70.7618 840.72,74.8259 846.41,74.8259 " />
<polyline points="884.922,68.3234 884.516,67.5106 883.703,66.6978 882.89,66.2913 881.264,66.2913 880.452,66.6978 879.639,67.5106 879.232,68.3234 878.826,69.5426 878.826,71.5746 879.232,72.7939 879.639,73.6067 880.452,74.4195 881.264,74.8259 882.89,74.8259 883.703,74.4195 884.516,73.6067 884.922,72.7939 " />
<polyline points="731.935,100.547 731.935,109.082 " />
<polyline points="731.935,104.611 732.748,103.798 733.561,103.392 734.78,103.392 735.593,103.798 736.406,104.611 736.812,105.83 736.812,106.643 736.406,107.862 735.593,108.675 734.78,109.082 733.561,109.082 732.748,108.675 731.935,107.862 " />
<polyline points="740.47,102.173 741.283,101.766 742.502,100.547 742.502,109.082 " />
<polyline points="807.629,100.547 807.629,109.082 " />
<polyline points="807.629,104.611 808.442,103.798 809.255,103.392 810.474,103.392 811.287,103.798 812.1,104.611 812.506,105.83 812.506,106.643 812.1,107.862 811.287,108.675 810.474,109.082 809.255,109.082 808.442,108.675 807.629,107.862 " />
<polyline points="815.351,102.579 815.351,102.173 815.758,101.36 816.164,100.954 816.977,100.547 818.602,100.547 819.415,100.954 819.822,101.36 820.228,102.173 820.228,102.986 819.822,103.798 819.009,105.018 814.945,109.082 820.634,109.082 " />
<polyline points="884.981,100.547 884.981,109.082 " />
<polyline points="884.981,104.611 885.794,103.798 886.607,103.392 887.826,103.392 888.639,103.798 889.452,104.611 889.858,105.83 889.858,106.643 889.452,107.862 888.639,108.675 887.826,109.082 886.607,109.082 885.794,108.675 884.981,107.862 " />
<polyline points="864.414,739.608 864.414,760.471 " />
<polyline points="864.414,739.608 877.329,739.608 " />
<polyline points="864.414,749.543 872.362,749.543 " />
<polyline points="864.414,760.471 877.329,760.471 " />
<polyline points="883.29,739.608 883.29,760.471 " />
<polyline points="883.29,739.608 892.231,739.608 895.211,740.602 896.204,741.595 897.198,743.582 897.198,745.569 896.204,747.556 895.211,748.549 892.231,749.543 883.29,749.543 " />
<polyline points="890.244,749.543 897.198,760.471 " />
<polyline points="915.08,739.608 905.145,739.608 904.152,748.549 905.145,747.556 908.126,746.562 911.106,746.562 914.086,747.556 916.073,749.543 917.067,752.523 917.067,754.51 916.073,757.49 914.086,759.477 911.106,760.471 908.126,760.471 905.145,759.477 904.152,758.484 903.159,756.497 " />
<polyline points="924.021,751.53 941.903,751.53 " />
<polyline points="958.791,739.608 948.857,753.517 963.758,753.517 " />
<polyline points="958.791,739.608 958.791,760.471 " />
</g>
</svg>
