<?xml version="1.0" standalone="no"?>
<svg viewBox="0 0 1024 768" version="1.1" xmlns="http://www.w3.org/2000/svg" xmlns:xlink="http://www.w3.org/1999/xlink" stroke-linecap="round" stroke-linejoin="round" fill-rule="evenodd" xml:space="preserve" >
<defs >
<clipPath id="clipId0" >
<path d="M0,768 1024,768 1024,0 0,0 z" />
</clipPath>
</defs>
<g clip-path="url(#clipId0)" fill="none" stroke="rgb(0,0,0)" stroke-width="0.1" />
<g clip-path="url(#clipId0)" fill="none" stroke="rgb(0,0,0)" stroke-width="0.25" >
<polyline points="136.75,126.482 863.654,126.482 " />
<polyline points="863.654,314.246 608.337,314.246 " />
<polyline points="136.75,342.695 136.75,235.484 " />
<polyline points="136.75,235.484 118.112,235.484 " />
<polyline points="136.75,201.345 136.75,103.723 " />
<polyline points="155.389,201.345 136.75,201.345 " />
<polyline points="118.112,235.484 155.389,201.345 " />
<polyline points="845.015,235.484 882.292,201.345 " />
<polyline points="882.292,201.345 863.654,201.345 " />
<polyline points="863.654,235.484 845.015,235.484 " />
<polyline points="863.654,201.345 863.654,103.723 " />
<polyline points="863.654,342.695 863.654,235.484 " />
<polyline points="44.3526,189.543 42.9565,190.241 41.5603,191.637 40.8622,193.034 40.1642,195.128 40.1642,198.618 40.8622,200.712 41.5603,202.109 42.9565,203.505 44.3526,204.203 47.1449,204.203 48.5411,203.505 49.9373,202.109 50.6353,200.712 51.3334,198.618 51.3334,195.128 50.6353,193.034 49.9373,191.637 48.5411,190.241 47.1449,189.543 44.3526,189.543 " />
<polyline points="46.4469,201.41 50.6353,205.599 " />
<polyline points="40.6009,245.636 46.1855,230.977 51.7702,245.636 " />
<polyline points="42.6951,240.75 49.6759,240.75 " />
<polyline points="935.192,183.793 933.796,184.491 932.4,185.887 931.702,187.284 931.004,189.378 931.004,192.868 931.702,194.962 932.4,196.359 933.796,197.755 935.192,198.453 937.985,198.453 939.381,197.755 940.777,196.359 941.475,194.962 942.173,192.868 942.173,189.378 941.475,187.284 940.777,185.887 939.381,184.491 937.985,183.793 935.192,183.793 " />
<polyline points="937.287,195.661 941.475,199.849 " />
<polyline points="926.392,250.705 931.977,236.046 937.561,250.705 " />
<polyline points="928.486,245.819 935.467,245.819 " />
<polyline points="456.564,615.608 455.168,616.306 453.772,617.702 453.074,619.098 452.375,621.193 452.375,624.683 453.074,626.777 453.772,628.173 455.168,629.57 456.564,630.268 459.356,630.268 460.752,629.57 462.149,628.173 462.847,626.777 463.545,624.683 463.545,621.193 462.847,619.098 462.149,617.702 460.752,616.306 459.356,615.608 456.564,615.608 " />
<polyline points="458.658,627.475 462.847,631.664 " />
<polyline points="510.177,633.171 515.762,618.511 521.347,633.171 " />
<polyline points="512.272,628.284 519.252,628.284 " />
<polyline points="953.107,194.161 952.688,193.323 951.851,192.485 951.013,192.067 949.338,192.067 948.5,192.485 947.662,193.323 947.243,194.161 946.824,195.417 946.824,197.512 947.243,198.768 947.662,199.606 948.5,200.443 949.338,200.862 951.013,200.862 951.851,200.443 952.688,199.606 953.107,198.768 " />
<polyline points="949.987,248.123 949.569,247.285 948.731,246.447 947.893,246.029 946.218,246.029 945.38,246.447 944.542,247.285 944.124,248.123 943.705,249.379 943.705,251.474 944.124,252.73 944.542,253.568 945.38,254.405 946.218,254.824 947.893,254.824 948.731,254.405 949.569,253.568 949.987,252.73 " />
<polyline points="377.897,314.246 136.75,314.246 " />
<polyline points="469.108,635.156 469.108,626.361 " />
<polyline points="469.108,630.549 469.945,629.711 470.783,629.293 472.04,629.293 472.877,629.711 473.715,630.549 474.134,631.806 474.134,632.643 473.715,633.9 472.877,634.738 472.04,635.156 470.783,635.156 469.945,634.738 469.108,633.9 " />
<polyline points="525.771,635.298 525.771,626.503 " />
<polyline points="525.771,630.691 526.609,629.853 527.446,629.434 528.703,629.434 529.541,629.853 530.378,630.691 530.797,631.948 530.797,632.785 530.378,634.042 529.541,634.88 528.703,635.298 527.446,635.298 526.609,634.88 525.771,634.042 " />
</g>
<g clip-path="url(#clipId0)" fill="rgb(0,0,0)" stroke="rgb(0,0,0)" stroke-width="0.25" >
<path d="M86.3177,216.77 86.3177,222.633 103.909,219.702 103.909,219.702 z" />
</g>
<g clip-path="url(#clipId0)" fill="none" stroke="rgb(0,0,0)" stroke-width="0.25" >
<polyline points="86.3177,219.702 14.8655,219.702 " />
<polyline points="63.6239,200.55 62.7862,199.713 61.5297,199.294 59.8543,199.294 58.5978,199.713 57.7601,200.55 57.7601,201.388 58.1789,202.226 58.5978,202.645 59.4355,203.064 61.9485,203.901 62.7862,204.32 63.2051,204.739 63.6239,205.577 63.6239,206.833 62.7862,207.671 61.5297,208.09 59.8543,208.09 58.5978,207.671 57.7601,206.833 " />
<polyline points="62.8216,240.742 61.9839,239.904 60.7274,239.485 59.052,239.485 57.7954,239.904 56.9577,240.742 56.9577,241.579 57.3766,242.417 57.7954,242.836 58.6331,243.255 61.1462,244.092 61.9839,244.511 62.4028,244.93 62.8216,245.768 62.8216,247.024 61.9839,247.862 60.7274,248.281 59.052,248.281 57.7954,247.862 56.9577,247.024 " />
<polyline points="608.337,314.246 608.337,503.262 " />
<polyline points="377.897,314.246 377.897,500.358 " />
<path d="M377.897,500.358  A72.4714,72.4714 0 0,0 493.117,501.81 " />
<path d="M608.337,503.262  A67.3836,67.3836 0 0,0 493.117,501.81 " />
<path d="M493.117,501.81  A72.4714,72.4714 0 0,0 608.337,503.262 " />
</g>
<g clip-path="url(#clipId0)" fill="rgb(0,0,0)" stroke="rgb(0,0,0)" stroke-width="0.25" >
<path d="M994.564,216.77 994.564,222.633 1012.16,219.702 1012.16,219.702 z" />
</g>
<g clip-path="url(#clipId0)" fill="none" stroke="rgb(0,0,0)" stroke-width="0.25" >
<polyline points="994.564,219.702 911.239,219.702 " />
</g>
<g clip-path="url(#clipId0)" fill="rgb(0,0,0)" stroke="rgb(0,0,0)" stroke-width="0.25" >
<path d="M489.802,570.733 495.666,570.733 492.734,553.141 492.734,553.141 z" />
</g>
<g clip-path="url(#clipId0)" fill="none" stroke="rgb(0,0,0)" stroke-width="0.25" >
<polyline points="492.734,570.733 492.734,661.871 " />
<polyline points="377.897,314.246 608.337,314.246 " />
<polyline points="10.0392,593.598 15.6239,578.939 21.2085,593.598 " />
<polyline points="12.1335,588.712 19.1143,588.712 " />
<polyline points="51.924,585.221 64.4894,585.221 " />
<polyline points="51.924,589.41 64.4894,589.41 " />
<polyline points="83.3376,593.598 88.9222,578.939 94.5068,593.598 " />
<polyline points="85.4318,588.712 92.4126,588.712 " />
<polyline points="10.0392,627.564 15.6239,612.905 21.2085,627.564 " />
<polyline points="12.1335,622.678 19.1143,622.678 " />
<polyline points="51.2259,610.113 38.6605,632.451 " />
<polyline points="54.0182,627.564 59.6029,612.905 65.1875,627.564 " />
<polyline points="56.1125,622.678 63.0933,622.678 " />
<polyline points="95.903,619.188 108.468,619.188 " />
<polyline points="95.903,623.376 108.468,623.376 " />
<polyline points="131.505,612.905 129.411,613.603 128.015,615.697 127.317,619.188 127.317,621.282 128.015,624.772 129.411,626.866 131.505,627.564 132.901,627.564 134.995,626.866 136.392,624.772 137.09,621.282 137.09,619.188 136.392,615.697 134.995,613.603 132.901,612.905 131.505,612.905 " />
<polyline points="141.976,626.168 141.278,626.866 141.976,627.564 142.674,626.866 " />
<polyline points="156.636,612.905 149.655,612.905 148.957,619.188 149.655,618.489 151.749,617.791 153.844,617.791 155.938,618.489 157.334,619.886 158.032,621.98 158.032,623.376 157.334,625.47 155.938,626.866 153.844,627.564 151.749,627.564 149.655,626.866 148.957,626.168 148.259,624.772 " />
<polyline points="31.7071,590.866 30.8694,590.028 29.6128,589.609 27.9375,589.609 26.6809,590.028 25.8432,590.866 25.8432,591.703 26.2621,592.541 26.6809,592.96 27.5186,593.379 30.0317,594.216 30.8694,594.635 31.2882,595.054 31.7071,595.892 31.7071,597.148 30.8694,597.986 29.6128,598.405 27.9375,598.405 26.6809,597.986 25.8432,597.148 " />
<polyline points="105.45,591.111 105.031,590.273 104.193,589.435 103.356,589.016 101.68,589.016 100.842,589.435 100.005,590.273 99.5859,591.111 99.1671,592.367 99.1671,594.461 99.5859,595.718 100.005,596.556 100.842,597.393 101.68,597.812 103.356,597.812 104.193,597.393 105.031,596.556 105.45,595.718 " />
<polyline points="26.9548,632.97 26.9548,624.174 " />
<polyline points="26.9548,628.363 27.7925,627.525 28.6302,627.106 29.8867,627.106 30.7244,627.525 31.5621,628.363 31.9809,629.619 31.9809,630.457 31.5621,631.714 30.7244,632.551 29.8867,632.97 28.6302,632.97 27.7925,632.551 26.9548,631.714 " />
<polyline points="77.1304,625.568 76.7116,624.731 75.8739,623.893 75.0362,623.474 73.3608,623.474 72.5231,623.893 71.6854,624.731 71.2666,625.568 70.8477,626.825 70.8477,628.919 71.2666,630.176 71.6854,631.013 72.5231,631.851 73.3608,632.27 75.0362,632.27 75.8739,631.851 76.7116,631.013 77.1304,630.176 " />
</g>
<g clip-path="url(#clipId0)" fill="rgb(0,0,0)" stroke="rgb(0,0,0)" stroke-width="0.25" >
<path d="M395.454,410.34 395.454,404.476 377.862,407.408 377.862,407.408 z" />
</g>
<g clip-path="url(#clipId0)" fill="none" stroke="rgb(0,0,0)" stroke-width="0.25" >
<polyline points="395.454,407.408 447.756,407.408 " />
</g>
<g clip-path="url(#clipId0)" fill="rgb(0,0,0)" stroke="rgb(0,0,0)" stroke-width="0.25" >
<path d="M588.59,407.321 588.59,413.184 606.182,410.253 606.182,410.253 z" />
</g>
<g clip-path="url(#clipId0)" fill="none" stroke="rgb(0,0,0)" stroke-width="0.25" >
<polyline points="588.59,410.253 538.618,410.253 " />
<polyline points="478.043,410.253 478.043,395.593 482.93,395.593 485.024,396.291 486.42,397.687 487.118,399.083 487.816,401.177 487.816,404.668 487.118,406.762 486.42,408.158 485.024,409.554 482.93,410.253 478.043,410.253 " />
<polyline points="492.986,413.468 492.986,404.672 " />
<polyline points="492.986,408.861 493.824,408.023 494.662,407.604 495.918,407.604 496.756,408.023 497.594,408.861 498.013,410.117 498.013,410.955 497.594,412.212 496.756,413.049 495.918,413.468 494.662,413.468 493.824,413.049 492.986,412.212 " />
<polyline points="455.727,209.312 459.217,223.971 462.707,209.312 466.198,223.971 469.688,209.312 " />
<polyline points="485.744,223.971 493.423,214.198 " />
<polyline points="493.423,223.971 485.744,214.198 " />
<polyline points="510.875,223.971 510.875,209.312 " />
<polyline points="520.648,209.312 520.648,223.971 " />
<polyline points="510.875,216.292 520.648,216.292 " />
<polyline points="911.576,664.277 911.576,642.777 924.886,642.777 " />
<polyline points="911.576,653.015 919.767,653.015 " />
<polyline points="911.576,664.277 924.886,664.277 " />
<polyline points="931.029,664.277 931.029,642.777 940.244,642.777 943.315,643.8 944.339,644.824 945.363,646.872 945.363,648.92 944.339,650.967 943.315,651.991 940.244,653.015 931.029,653.015 " />
<polyline points="938.196,653.015 945.363,664.277 " />
<polyline points="964.816,642.777 954.577,642.777 953.554,651.991 954.577,650.967 957.649,649.944 960.721,649.944 963.792,650.967 965.84,653.015 966.864,656.087 966.864,658.134 965.84,661.206 963.792,663.254 960.721,664.277 957.649,664.277 954.577,663.254 953.554,662.23 952.53,660.182 " />
<polyline points="973.007,655.063 991.436,655.063 " />
<polyline points="1000.65,647.896 1000.65,646.872 1001.67,644.824 1002.7,643.8 1004.75,642.777 1008.84,642.777 1010.89,643.8 1011.91,644.824 1012.94,646.872 1012.94,648.92 1011.91,650.967 1009.87,654.039 999.627,664.277 1013.96,664.277 " />
</g>
</svg>
