<?xml version="1.0" standalone="no"?>
<svg viewBox="0 0 1024 768" version="1.1" xmlns="http://www.w3.org/2000/svg" xmlns:xlink="http://www.w3.org/1999/xlink" stroke-linecap="round" stroke-linejoin="round" fill-rule="evenodd" xml:space="preserve" >
<defs >
<clipPath id="clipId0" >
<path d="M0,768 1024,768 1024,0 0,0 z" />
</clipPath>
</defs>
<g clip-path="url(#clipId0)" fill="none" stroke="rgb(0,0,0)" stroke-width="0.1" />
<g clip-path="url(#clipId0)" fill="none" stroke="rgb(0,0,0)" stroke-width="0.25" >
<polyline points="124.795,78.1038 866.517,78.1038 " />
<polyline points="866.517,269.696 124.795,269.696 " />
<polyline points="410.073,269.696 410.073,459.602 " />
<polyline points="624.031,462.565 624.031,350.977 " />
<polyline points="624.031,350.977 705.957,269.696 " />
<polyline points="624.031,350.977 410.073,350.977 " />
<polyline points="124.795,298.725 124.795,189.328 " />
<polyline points="124.795,189.328 105.776,189.328 " />
<polyline points="124.795,154.493 124.795,54.8805 " />
<polyline points="143.813,154.493 124.795,154.493 " />
<polyline points="105.776,189.328 143.813,154.493 " />
<polyline points="847.499,189.328 885.536,154.493 " />
<polyline points="885.536,154.493 866.517,154.493 " />
<polyline points="866.517,189.328 847.499,189.328 " />
<polyline points="866.517,154.493 866.517,54.8805 " />
<polyline points="866.517,298.725 866.517,189.328 " />
</g>
<g clip-path="url(#clipId0)" fill="rgb(0,0,0)" stroke="rgb(0,0,0)" stroke-width="0.25" >
<path d="M513.118,519.68 519.102,519.68 516.11,501.73 516.11,501.73 z" />
</g>
<g clip-path="url(#clipId0)" fill="none" stroke="rgb(0,0,0)" stroke-width="0.25" >
<polyline points="516.11,519.68 516.11,572.633 " />
</g>
<g clip-path="url(#clipId0)" fill="rgb(0,0,0)" stroke="rgb(0,0,0)" stroke-width="0.25" >
<path d="M985.759,169.247 985.759,175.23 1003.71,172.238 1003.71,172.238 z" />
</g>
<g clip-path="url(#clipId0)" fill="none" stroke="rgb(0,0,0)" stroke-width="0.25" >
<polyline points="985.759,172.238 915.935,172.238 " />
</g>
<g clip-path="url(#clipId0)" fill="rgb(0,0,0)" stroke="rgb(0,0,0)" stroke-width="0.25" >
<path d="M76.0231,172.209 76.0231,178.192 93.9733,175.201 93.9733,175.201 z" />
</g>
<g clip-path="url(#clipId0)" fill="none" stroke="rgb(0,0,0)" stroke-width="0.25" >
<polyline points="76.0231,175.201 26.0632,175.201 " />
<polyline points="946.833,142.467 945.408,143.179 943.983,144.604 943.271,146.029 942.559,148.166 942.559,151.727 943.271,153.864 943.983,155.289 945.408,156.713 946.833,157.426 949.682,157.426 951.107,156.713 952.531,155.289 953.243,153.864 953.956,151.727 953.956,148.166 953.243,146.029 952.531,144.604 951.107,143.179 949.682,142.467 946.833,142.467 " />
<polyline points="948.97,154.576 953.243,158.85 " />
<polyline points="944.985,201.646 950.683,186.688 956.382,201.646 " />
<polyline points="947.122,196.66 954.245,196.66 " />
<polyline points="43.0002,142.467 41.5756,143.179 40.151,144.604 39.4387,146.029 38.7264,148.166 38.7264,151.727 39.4387,153.864 40.151,155.289 41.5756,156.713 43.0002,157.426 45.8495,157.426 47.2741,156.713 48.6987,155.289 49.411,153.864 50.1233,151.727 50.1233,148.166 49.411,146.029 48.6987,144.604 47.2741,143.179 45.8495,142.467 43.0002,142.467 " />
<polyline points="45.1372,154.576 49.411,158.85 " />
<polyline points="43.2013,201.646 48.8998,186.688 54.5982,201.646 " />
<polyline points="45.3382,196.66 52.4613,196.66 " />
<polyline points="486.242,536.376 484.818,537.089 483.393,538.513 482.681,539.938 481.968,542.075 481.968,545.636 482.681,547.773 483.393,549.198 484.818,550.623 486.242,551.335 489.092,551.335 490.516,550.623 491.941,549.198 492.653,547.773 493.365,545.636 493.365,542.075 492.653,539.938 491.941,538.513 490.516,537.089 489.092,536.376 486.242,536.376 " />
<polyline points="488.379,548.486 492.653,552.759 " />
<polyline points="525.722,554.297 531.421,539.339 537.119,554.297 " />
<polyline points="527.859,549.311 534.982,549.311 " />
<polyline points="498.942,555.346 498.942,546.371 " />
<polyline points="498.942,550.645 499.797,549.79 500.652,549.363 501.934,549.363 502.789,549.79 503.644,550.645 504.071,551.927 504.071,552.782 503.644,554.064 502.789,554.919 501.934,555.346 500.652,555.346 499.797,554.919 498.942,554.064 " />
<polyline points="61.3294,152.193 60.4747,151.338 59.1925,150.911 57.483,150.911 56.2008,151.338 55.346,152.193 55.346,153.048 55.7734,153.902 56.2008,154.33 57.0556,154.757 59.6199,155.612 60.4747,156.039 60.9021,156.467 61.3294,157.321 61.3294,158.604 60.4747,159.458 59.1925,159.886 57.483,159.886 56.2008,159.458 55.346,158.604 " />
<polyline points="965.952,156.012 965.525,155.157 964.67,154.302 963.815,153.875 962.106,153.875 961.251,154.302 960.396,155.157 959.969,156.012 959.541,157.294 959.541,159.431 959.969,160.713 960.396,161.568 961.251,162.422 962.106,162.85 963.815,162.85 964.67,162.422 965.525,161.568 965.952,160.713 " />
<polyline points="10.0818,663.646 15.7803,648.688 21.4788,663.646 " stroke-dasharray="0.000249,24.930886" />
<polyline points="12.2187,658.66 19.3418,658.66 " stroke-dasharray="0.000249,24.930886" />
<polyline points="52.8205,655.099 65.6421,655.099 " stroke-dasharray="0.000249,24.930886" />
<polyline points="52.8205,659.372 65.6421,659.372 " stroke-dasharray="0.000249,24.930886" />
<polyline points="84.8745,663.646 90.5729,648.688 96.2714,663.646 " stroke-dasharray="0.000249,24.930886" />
<polyline points="87.0114,658.66 94.1345,658.66 " stroke-dasharray="0.000249,24.930886" />
<polyline points="10.4775,707.193 16.176,692.235 21.8745,707.193 " stroke-dasharray="0.000249,24.930886" />
<polyline points="12.6145,702.207 19.7376,702.207 " stroke-dasharray="0.000249,24.930886" />
<polyline points="52.5039,689.386 39.6823,712.18 " stroke-dasharray="0.000249,24.930886" />
<polyline points="55.3531,707.193 61.0516,692.235 66.7501,707.193 " stroke-dasharray="0.000249,24.930886" />
<polyline points="57.4901,702.207 64.6132,702.207 " stroke-dasharray="0.000249,24.930886" />
<polyline points="98.0918,698.646 110.913,698.646 " stroke-dasharray="0.000249,24.930886" />
<polyline points="98.0918,702.92 110.913,702.92 " stroke-dasharray="0.000249,24.930886" />
<polyline points="134.42,692.235 132.283,692.947 130.858,695.084 130.146,698.646 130.146,700.783 130.858,704.344 132.283,706.481 134.42,707.193 135.844,707.193 137.981,706.481 139.406,704.344 140.118,700.783 140.118,698.646 139.406,695.084 137.981,692.947 135.844,692.235 134.42,692.235 " stroke-dasharray="0.000249,24.930886" />
<polyline points="145.104,705.769 144.392,706.481 145.104,707.193 145.817,706.481 " stroke-dasharray="0.000249,24.930886" />
<polyline points="160.063,692.235 152.94,692.235 152.227,698.646 152.94,697.933 155.077,697.221 157.214,697.221 159.351,697.933 160.775,699.358 161.487,701.495 161.487,702.92 160.775,705.057 159.351,706.481 157.214,707.193 155.077,707.193 152.94,706.481 152.227,705.769 151.515,704.344 " stroke-dasharray="0.000249,24.930886" />
<polyline points="968.378,200.232 967.951,199.377 967.096,198.522 966.241,198.095 964.532,198.095 963.677,198.522 962.822,199.377 962.395,200.232 961.967,201.514 961.967,203.651 962.395,204.933 962.822,205.788 963.677,206.643 964.532,207.07 966.241,207.07 967.096,206.643 967.951,205.788 968.378,204.933 " />
<polyline points="65.8044,199.376 64.9496,198.521 63.6674,198.093 61.9579,198.093 60.6757,198.521 59.8209,199.376 59.8209,200.23 60.2483,201.085 60.6757,201.513 61.5305,201.94 64.0948,202.795 64.9496,203.222 65.377,203.649 65.8044,204.504 65.8044,205.786 64.9496,206.641 63.6674,207.069 61.9579,207.069 60.6757,206.641 59.8209,205.786 " />
<polyline points="32.2591,658.947 31.4043,658.092 30.1221,657.664 28.4126,657.664 27.1304,658.092 26.2757,658.947 26.2757,659.801 26.7031,660.656 27.1304,661.084 27.9852,661.511 30.5495,662.366 31.4043,662.793 31.8317,663.22 32.2591,664.075 32.2591,665.357 31.4043,666.212 30.1221,666.64 28.4126,666.64 27.1304,666.212 26.2757,665.357 " stroke-dasharray="0.000249,24.930886" />
<polyline points="107.898,659.699 107.47,658.845 106.615,657.99 105.761,657.562 104.051,657.562 103.196,657.99 102.342,658.845 101.914,659.699 101.487,660.982 101.487,663.119 101.914,664.401 102.342,665.255 103.196,666.11 104.051,666.538 105.761,666.538 106.615,666.11 107.47,665.255 107.898,664.401 " stroke-dasharray="0.000249,24.930886" />
<polyline points="543.059,555.011 543.059,546.036 " />
<polyline points="543.059,550.31 543.914,549.455 544.769,549.027 546.051,549.027 546.906,549.455 547.76,550.31 548.188,551.592 548.188,552.447 547.76,553.729 546.906,554.583 546.051,555.011 544.769,555.011 543.914,554.583 543.059,553.729 " />
<polyline points="28.2788,713.119 28.2788,704.144 " stroke-dasharray="0.000249,24.930886" />
<polyline points="28.2788,708.418 29.1335,707.563 29.9883,707.136 31.2705,707.136 32.1252,707.563 32.98,708.418 33.4074,709.7 33.4074,710.555 32.98,711.837 32.1252,712.692 31.2705,713.119 29.9883,713.119 29.1335,712.692 28.2788,711.837 " stroke-dasharray="0.000249,24.930886" />
<polyline points="80.0781,706.052 79.6507,705.197 78.7959,704.342 77.9411,703.915 76.2316,703.915 75.3768,704.342 74.522,705.197 74.0946,706.052 73.6673,707.334 73.6673,709.471 74.0946,710.753 74.522,711.608 75.3768,712.462 76.2316,712.89 77.9411,712.89 78.7959,712.462 79.6507,711.608 80.0781,710.753 " stroke-dasharray="0.000249,24.930886" />
<polyline points="380.25,459.602 486.997,459.602 " />
<polyline points="528.24,477.377 528.24,462.565 " />
<polyline points="528.24,462.565 654.396,462.565 " />
<polyline points="486.997,459.602 486.997,444.79 " />
<polyline points="486.997,444.79 528.24,477.377 " />
<polyline points="479.236,164.504 482.797,179.463 486.359,164.504 489.92,179.463 493.482,164.504 " />
<polyline points="509.865,179.463 517.701,169.49 " />
<polyline points="517.701,179.463 509.865,169.49 " />
<polyline points="535.508,179.463 535.508,164.504 " />
<polyline points="545.481,164.504 545.481,179.463 " />
<polyline points="535.508,171.627 545.481,171.627 " />
<polyline points="486.29,424.028 486.29,415.053 " />
<polyline points="486.29,419.327 487.144,418.472 487.999,418.045 489.281,418.045 490.136,418.472 490.991,419.327 491.418,420.609 491.418,421.464 490.991,422.746 490.136,423.601 489.281,424.028 487.999,424.028 487.144,423.601 486.29,422.746 " />
<polyline points="555.585,424.556 555.585,415.581 " />
<polyline points="555.585,419.855 556.44,419 557.294,418.573 558.576,418.573 559.431,419 560.286,419.855 560.713,421.137 560.713,421.992 560.286,423.274 559.431,424.129 558.576,424.556 557.294,424.556 556.44,424.129 555.585,423.274 " />
<polyline points="10.0392,608.25 10.0392,623.208 18.5869,623.208 " stroke-dasharray="0.000249,24.930886" />
<polyline points="35.6824,614.66 48.504,614.66 " stroke-dasharray="0.000249,24.930886" />
<polyline points="35.6824,618.934 48.504,618.934 " stroke-dasharray="0.000249,24.930886" />
<polyline points="72.0103,608.25 69.8733,608.962 68.4487,611.099 67.7364,614.66 67.7364,616.797 68.4487,620.359 69.8733,622.496 72.0103,623.208 73.4349,623.208 75.5718,622.496 76.9965,620.359 77.7088,616.797 77.7088,614.66 76.9965,611.099 75.5718,608.962 73.4349,608.25 72.0103,608.25 " stroke-dasharray="0.000249,24.930886" />
<polyline points="82.6949,621.783 81.9826,622.496 82.6949,623.208 83.4073,622.496 " stroke-dasharray="0.000249,24.930886" />
<polyline points="89.8181,611.811 89.8181,611.099 90.5304,609.674 91.2427,608.962 92.6673,608.25 95.5165,608.25 96.9412,608.962 97.6535,609.674 98.3658,611.099 98.3658,612.523 97.6535,613.948 96.2289,616.085 89.1057,623.208 99.0781,623.208 " stroke-dasharray="0.000249,24.930886" />
<polyline points="111.9,608.25 104.777,608.25 104.064,614.66 104.777,613.948 106.914,613.236 109.05,613.236 111.187,613.948 112.612,615.373 113.324,617.51 113.324,618.934 112.612,621.071 111.187,622.496 109.05,623.208 106.914,623.208 104.777,622.496 104.064,621.783 103.352,620.359 " stroke-dasharray="0.000249,24.930886" />
<polyline points="131.132,608.25 134.694,623.208 138.255,608.25 141.817,623.208 145.378,608.25 " stroke-dasharray="0.000249,24.930886" />
<polyline points="149.652,622.496 148.94,623.208 148.228,622.496 148.94,621.783 149.652,622.496 149.652,623.92 148.94,625.345 148.228,626.057 " stroke-dasharray="0.000249,24.930886" />
<polyline points="170.309,608.25 178.145,608.25 173.871,613.948 176.008,613.948 177.432,614.66 178.145,615.373 178.857,617.51 178.857,618.934 178.145,621.071 176.72,622.496 174.583,623.208 172.446,623.208 170.309,622.496 169.597,621.783 168.885,620.359 " stroke-dasharray="0.000249,24.930886" />
<polyline points="196.665,608.962 197.377,609.674 198.089,608.962 197.377,608.25 196.665,608.962 " stroke-dasharray="0.000249,24.930886" />
<polyline points="197.377,613.236 197.377,623.208 " stroke-dasharray="0.000249,24.930886" />
<polyline points="202.363,623.208 202.363,613.236 " stroke-dasharray="0.000249,24.930886" />
<polyline points="202.363,616.085 204.5,613.948 205.925,613.236 208.062,613.236 209.486,613.948 210.199,616.085 210.199,623.208 " stroke-dasharray="0.000249,24.930886" />
<polyline points="216.609,621.783 215.897,622.496 216.609,623.208 217.322,622.496 " stroke-dasharray="0.000249,24.930886" />
<polyline points="241.54,605.4 240.116,606.825 238.691,608.962 237.266,611.811 236.554,615.373 236.554,618.222 237.266,621.783 238.691,624.633 240.116,626.77 241.54,628.194 " stroke-dasharray="0.000249,24.930886" />
<polyline points="246.526,608.25 256.499,608.25 249.376,623.208 " stroke-dasharray="0.000249,24.930886" />
<polyline points="269.32,608.25 262.197,608.25 261.485,614.66 262.197,613.948 264.334,613.236 266.471,613.236 268.608,613.948 270.033,615.373 270.745,617.51 270.745,618.934 270.033,621.071 268.608,622.496 266.471,623.208 264.334,623.208 262.197,622.496 261.485,621.783 260.773,620.359 " stroke-dasharray="0.000249,24.930886" />
<polyline points="288.553,623.208 288.553,613.236 " stroke-dasharray="0.000249,24.930886" />
<polyline points="288.553,616.085 290.69,613.948 292.114,613.236 294.251,613.236 295.676,613.948 296.388,616.085 296.388,623.208 " stroke-dasharray="0.000249,24.930886" />
<polyline points="296.388,616.085 298.525,613.948 299.95,613.236 302.087,613.236 303.511,613.948 304.224,616.085 304.224,623.208 " stroke-dasharray="0.000249,24.930886" />
<polyline points="309.922,623.208 309.922,613.236 " stroke-dasharray="0.000249,24.930886" />
<polyline points="309.922,616.085 312.059,613.948 313.484,613.236 315.621,613.236 317.045,613.948 317.758,616.085 317.758,623.208 " stroke-dasharray="0.000249,24.930886" />
<polyline points="317.758,616.085 319.895,613.948 321.319,613.236 323.456,613.236 324.881,613.948 325.593,616.085 325.593,623.208 " stroke-dasharray="0.000249,24.930886" />
<polyline points="331.291,605.4 332.716,606.825 334.141,608.962 335.565,611.811 336.278,615.373 336.278,618.222 335.565,621.783 334.141,624.633 332.716,626.77 331.291,628.194 " stroke-dasharray="0.000249,24.930886" />
<polyline points="354.798,623.208 354.798,613.236 " stroke-dasharray="0.000249,24.930886" />
<polyline points="354.798,616.085 356.935,613.948 358.359,613.236 360.496,613.236 361.921,613.948 362.633,616.085 362.633,623.208 " stroke-dasharray="0.000249,24.930886" />
<polyline points="362.633,616.085 364.77,613.948 366.195,613.236 368.332,613.236 369.756,613.948 370.469,616.085 370.469,623.208 " stroke-dasharray="0.000249,24.930886" />
<polyline points="376.167,608.962 376.879,609.674 377.592,608.962 376.879,608.25 376.167,608.962 " stroke-dasharray="0.000249,24.930886" />
<polyline points="376.879,613.236 376.879,623.208 " stroke-dasharray="0.000249,24.930886" />
<polyline points="381.866,623.208 381.866,613.236 " stroke-dasharray="0.000249,24.930886" />
<polyline points="381.866,616.085 384.003,613.948 385.427,613.236 387.564,613.236 388.989,613.948 389.701,616.085 389.701,623.208 " stroke-dasharray="0.000249,24.930886" />
<polyline points="396.112,621.783 395.399,622.496 396.112,623.208 396.824,622.496 " stroke-dasharray="0.000249,24.930886" />
<polyline points="630.264,350.977 768.659,350.977 " />
<polyline points="750.709,368.928 750.709,386.878 " />
<polyline points="750.709,251.746 750.709,233.795 " />
</g>
<g clip-path="url(#clipId0)" fill="rgb(0,0,0)" stroke="rgb(0,0,0)" stroke-width="0.25" >
<path d="M747.717,368.928 753.7,368.928 750.709,350.977 750.709,350.977 z" />
<path d="M747.717,251.746 753.7,251.746 750.709,269.696 750.709,269.696 z" />
</g>
<g clip-path="url(#clipId0)" fill="none" stroke="rgb(0,0,0)" stroke-width="0.25" >
<polyline points="746.521,304.391 746.521,319.35 755.068,319.35 " />
<polyline points="909.488,709.559 909.488,687.619 923.07,687.619 " />
<polyline points="909.488,698.067 917.846,698.067 " />
<polyline points="909.488,709.559 923.07,709.559 " />
<polyline points="929.338,709.559 929.338,687.619 938.741,687.619 941.875,688.664 942.92,689.709 943.964,691.798 943.964,693.888 942.92,695.977 941.875,697.022 938.741,698.067 929.338,698.067 " />
<polyline points="936.651,698.067 943.964,709.559 " />
<polyline points="963.814,687.619 953.367,687.619 952.322,697.022 953.367,695.977 956.501,694.933 959.635,694.933 962.769,695.977 964.859,698.067 965.904,701.201 965.904,703.29 964.859,706.424 962.769,708.514 959.635,709.559 956.501,709.559 953.367,708.514 952.322,707.469 951.277,705.38 " />
<polyline points="972.172,700.156 990.977,700.156 " />
<polyline points="1001.42,687.619 1012.92,687.619 1006.65,695.977 1009.78,695.977 1011.87,697.022 1012.92,698.067 1013.96,701.201 1013.96,703.29 1012.92,706.424 1010.83,708.514 1007.69,709.559 1004.56,709.559 1001.42,708.514 1000.38,707.469 999.335,705.38 " />
<polyline points="26.0632,175.201 10.0451,175.171 " />
<polyline points="466.938,395.67 470.499,410.629 474.061,395.67 477.622,410.629 481.184,395.67 " />
<polyline points="511.101,410.629 518.936,400.657 " />
<polyline points="518.936,410.629 511.101,400.657 " />
<polyline points="536.744,410.629 536.744,395.67 " />
<polyline points="546.717,395.67 546.717,410.629 " />
<polyline points="536.744,402.793 546.717,402.793 " />
</g>
</svg>
