<?xml version="1.0" standalone="no"?>
<svg viewBox="0 0 1024 768" version="1.1" xmlns="http://www.w3.org/2000/svg" xmlns:xlink="http://www.w3.org/1999/xlink" stroke-linecap="round" stroke-linejoin="round" fill-rule="evenodd" xml:space="preserve" >
<defs >
<clipPath id="clipId0" >
<path d="M0,768 1024,768 1024,0 0,0 z" />
</clipPath>
</defs>
<g clip-path="url(#clipId0)" fill="none" stroke="rgb(0,0,0)" stroke-width="0.1" />
<g clip-path="url(#clipId0)" fill="none" stroke="rgb(0,0,0)" stroke-width="0.25" >
<polyline points="137.379,119.474 885.197,119.474 " />
<polyline points="885.197,312.64 671.549,312.64 " />
<polyline points="336.449,312.64 336.449,504.107 " />
<polyline points="137.379,341.908 137.379,231.612 " />
<polyline points="137.379,231.612 118.204,231.612 " />
<polyline points="137.379,196.491 137.379,96.0596 " />
<polyline points="156.554,196.491 137.379,196.491 " />
<polyline points="118.204,231.612 156.554,196.491 " />
<polyline points="866.022,231.612 904.372,196.491 " />
<polyline points="904.372,196.491 885.197,196.491 " />
<polyline points="885.197,231.612 866.022,231.612 " />
<polyline points="885.197,196.491 885.197,96.0596 " />
<polyline points="885.197,341.908 885.197,231.612 " />
<polyline points="963.23,188.111 961.794,188.829 960.358,190.265 959.639,191.702 958.921,193.856 958.921,197.447 959.639,199.601 960.358,201.038 961.794,202.474 963.23,203.192 966.103,203.192 967.539,202.474 968.976,201.038 969.694,199.601 970.412,197.447 970.412,193.856 969.694,191.702 968.976,190.265 967.539,188.829 966.103,188.111 963.23,188.111 " />
<polyline points="965.385,200.32 969.694,204.629 " />
<polyline points="958.378,238.42 964.123,223.339 969.869,238.42 " />
<polyline points="960.533,233.393 967.714,233.393 " />
<polyline points="34.6833,188.783 33.247,189.501 31.8107,190.938 31.0925,192.374 30.3744,194.529 30.3744,198.119 31.0925,200.274 31.8107,201.71 33.247,203.147 34.6833,203.865 37.556,203.865 38.9923,203.147 40.4287,201.71 41.1468,200.274 41.865,198.119 41.865,194.529 41.1468,192.374 40.4287,190.938 38.9923,189.501 37.556,188.783 34.6833,188.783 " />
<polyline points="36.8378,200.992 41.1468,205.301 " />
<polyline points="29.4712,238.638 35.2165,223.556 40.9618,238.638 " />
<polyline points="31.6257,233.611 38.8073,233.611 " />
<polyline points="474.25,575.096 472.814,575.814 471.377,577.251 470.659,578.687 469.941,580.841 469.941,584.432 470.659,586.587 471.377,588.023 472.814,589.459 474.25,590.178 477.123,590.178 478.559,589.459 479.995,588.023 480.713,586.587 481.432,584.432 481.432,580.841 480.713,578.687 479.995,577.251 478.559,575.814 477.123,575.096 474.25,575.096 " />
<polyline points="476.404,587.305 480.713,591.614 " />
<polyline points="516.251,590.791 521.996,575.709 527.742,590.791 " />
<polyline points="518.406,585.764 525.587,585.764 " />
<polyline points="976.816,206.701 976.816,197.652 " />
<polyline points="976.816,201.961 977.678,201.1 978.539,200.669 979.832,200.669 980.694,201.1 981.556,201.961 981.987,203.254 981.987,204.116 981.556,205.409 980.694,206.27 979.832,206.701 978.539,206.701 977.678,206.27 976.816,205.409 " />
<polyline points="985.434,199.807 985.434,199.376 985.865,198.514 986.296,198.083 987.157,197.652 988.881,197.652 989.743,198.083 990.174,198.514 990.605,199.376 990.605,200.238 990.174,201.1 989.312,202.392 985.003,206.701 991.036,206.701 " />
<polyline points="493.187,586.51 492.757,585.648 491.895,584.786 491.033,584.355 489.309,584.355 488.448,584.786 487.586,585.648 487.155,586.51 486.724,587.802 486.724,589.957 487.155,591.25 487.586,592.111 488.448,592.973 489.309,593.404 491.033,593.404 491.895,592.973 492.757,592.111 493.187,591.25 " />
<polyline points="539.338,585.449 538.907,584.587 538.046,583.725 537.184,583.294 535.46,583.294 534.598,583.725 533.737,584.587 533.306,585.449 532.875,586.741 532.875,588.896 533.306,590.188 533.737,591.05 534.598,591.912 535.46,592.343 537.184,592.343 538.046,591.912 538.907,591.05 539.338,590.188 " />
<polyline points="974.661,241.179 974.661,232.13 " />
<polyline points="974.661,236.439 975.523,235.578 976.384,235.147 977.677,235.147 978.539,235.578 979.401,236.439 979.832,237.732 979.832,238.594 979.401,239.887 978.539,240.748 977.677,241.179 976.384,241.179 975.523,240.748 974.661,239.887 " />
<polyline points="983.279,234.285 983.279,233.854 983.71,232.992 984.141,232.561 985.002,232.13 986.726,232.13 987.588,232.561 988.019,232.992 988.45,233.854 988.45,234.716 988.019,235.578 987.157,236.87 982.848,241.179 988.88,241.179 " />
<polyline points="311.313,504.107 472.023,504.107 " />
<polyline points="513.605,522.028 513.605,507.094 " />
<polyline points="513.605,507.094 696.684,507.094 " />
<polyline points="472.023,504.107 472.023,489.173 " />
<polyline points="472.023,489.173 513.605,522.028 " />
<polyline points="671.549,312.64 671.549,507.094 " />
<polyline points="336.449,312.64 137.379,312.64 " />
<polyline points="46.4675,240.751 46.4675,231.702 " />
<polyline points="46.4675,236.011 47.3293,235.149 48.1911,234.718 49.4838,234.718 50.3456,235.149 51.2074,236.011 51.6383,237.303 51.6383,238.165 51.2074,239.458 50.3456,240.32 49.4838,240.751 48.1911,240.751 47.3293,240.32 46.4675,239.458 " />
<polyline points="54.6546,233.425 55.5164,232.994 56.8091,231.702 56.8091,240.751 " />
<polyline points="48.0566,206.232 48.0566,197.183 " />
<polyline points="48.0566,201.492 48.9184,200.63 49.7802,200.199 51.0728,200.199 51.9346,200.63 52.7964,201.492 53.2273,202.785 53.2273,203.646 52.7964,204.939 51.9346,205.801 51.0728,206.232 49.7802,206.232 48.9184,205.801 48.0566,204.939 " />
<polyline points="56.2436,198.907 57.1054,198.476 58.3981,197.183 58.3981,206.232 " />
</g>
<g clip-path="url(#clipId0)" fill="rgb(0,0,0)" stroke="rgb(0,0,0)" stroke-width="0.25" >
<path d="M942.191,218.392 942.191,212.359 924.093,215.375 924.093,215.375 z" />
</g>
<g clip-path="url(#clipId0)" fill="none" stroke="rgb(0,0,0)" stroke-width="0.25" >
<polyline points="942.191,215.375 999.149,215.375 " />
</g>
<g clip-path="url(#clipId0)" fill="rgb(0,0,0)" stroke="rgb(0,0,0)" stroke-width="0.25" >
<path d="M76.245,212.359 76.245,218.392 94.3427,215.375 94.3427,215.375 z" />
</g>
<g clip-path="url(#clipId0)" fill="none" stroke="rgb(0,0,0)" stroke-width="0.25" >
<polyline points="76.245,215.375 22.7342,215.375 " />
</g>
<g clip-path="url(#clipId0)" fill="rgb(0,0,0)" stroke="rgb(0,0,0)" stroke-width="0.25" >
<path d="M509.675,617.018 503.642,617.018 506.658,635.116 506.658,635.116 z" />
</g>
<g clip-path="url(#clipId0)" fill="none" stroke="rgb(0,0,0)" stroke-width="0.25" >
<polyline points="506.658,617.018 506.658,553.967 " />
<polyline points="197.782,205.611 201.373,220.693 204.964,205.611 208.555,220.693 212.146,205.611 " />
<polyline points="242.309,220.693 250.208,210.639 " />
<polyline points="250.208,220.693 242.309,210.639 " />
<polyline points="268.162,220.693 268.162,205.611 " />
<polyline points="278.217,205.611 278.217,220.693 " />
<polyline points="268.162,212.793 278.217,212.793 " />
<polyline points="455.8,418.565 459.391,433.647 462.982,418.565 466.572,433.647 470.163,418.565 " />
<polyline points="500.326,433.647 508.226,423.592 " />
<polyline points="508.226,433.647 500.326,423.592 " />
<polyline points="526.18,433.647 526.18,418.565 " />
<polyline points="536.234,418.565 536.234,433.647 " />
<polyline points="526.18,425.747 536.234,425.747 " />
<polyline points="481.589,430.102 481.158,429.24 480.296,428.378 479.435,427.947 477.711,427.947 476.849,428.378 475.987,429.24 475.557,430.102 475.126,431.394 475.126,433.549 475.557,434.842 475.987,435.703 476.849,436.565 477.711,436.996 479.435,436.996 480.296,436.565 481.158,435.703 481.589,434.842 " />
<polyline points="216.722,224.669 216.722,215.62 " />
<polyline points="216.722,219.929 217.584,219.067 218.446,218.636 219.739,218.636 220.6,219.067 221.462,219.929 221.893,221.222 221.893,222.083 221.462,223.376 220.6,224.238 219.739,224.669 218.446,224.669 217.584,224.238 216.722,223.376 " />
<polyline points="224.909,217.344 225.771,216.913 227.064,215.62 227.064,224.669 " />
<polyline points="735.664,206.712 739.255,221.794 742.846,206.712 746.436,221.794 750.027,206.712 " />
<polyline points="780.19,221.794 788.09,211.74 " />
<polyline points="788.09,221.794 780.19,211.74 " />
<polyline points="806.044,221.794 806.044,206.712 " />
<polyline points="816.098,206.712 816.098,221.794 " />
<polyline points="806.044,213.894 816.098,213.894 " />
<polyline points="753.453,225.128 753.453,216.079 " />
<polyline points="753.453,220.388 754.315,219.526 755.176,219.095 756.469,219.095 757.331,219.526 758.193,220.388 758.624,221.68 758.624,222.542 758.193,223.835 757.331,224.697 756.469,225.128 755.176,225.128 754.315,224.697 753.453,223.835 " />
<polyline points="762.071,218.233 762.071,217.802 762.502,216.941 762.933,216.51 763.794,216.079 765.518,216.079 766.38,216.51 766.811,216.941 767.242,217.802 767.242,218.664 766.811,219.526 765.949,220.819 761.64,225.128 767.672,225.128 " />
<polyline points="999.149,215.375 1013.96,215.375 " />
<polyline points="22.7342,215.375 10.0392,215.375 " />
<polyline points="908.611,671.94 908.611,649.821 922.304,649.821 " />
<polyline points="908.611,660.354 917.037,660.354 " />
<polyline points="908.611,671.94 922.304,671.94 " />
<polyline points="928.624,671.94 928.624,649.821 938.104,649.821 941.264,650.874 942.317,651.928 943.37,654.034 943.37,656.141 942.317,658.247 941.264,659.301 938.104,660.354 928.624,660.354 " />
<polyline points="935.997,660.354 943.37,671.94 " />
<polyline points="963.383,649.821 952.85,649.821 951.797,659.301 952.85,658.247 956.01,657.194 959.17,657.194 962.33,658.247 964.436,660.354 965.49,663.514 965.49,665.621 964.436,668.78 962.33,670.887 959.17,671.94 956.01,671.94 952.85,670.887 951.797,669.834 950.743,667.727 " />
<polyline points="971.809,662.461 990.769,662.461 " />
<polyline points="1011.84,649.821 1001.3,649.821 1000.25,659.301 1001.3,658.247 1004.46,657.194 1007.62,657.194 1010.78,658.247 1012.89,660.354 1013.94,663.514 1013.94,665.621 1012.89,668.78 1010.78,670.887 1007.62,671.94 1004.46,671.94 1001.3,670.887 1000.25,669.834 999.195,667.727 " />
</g>
</svg>
