<?xml version="1.0" standalone="no"?>
<svg viewBox="0 0 1024 768" version="1.1" xmlns="http://www.w3.org/2000/svg" xmlns:xlink="http://www.w3.org/1999/xlink" stroke-linecap="round" stroke-linejoin="round" fill-rule="evenodd" xml:space="preserve" >
<defs >
<clipPath id="clipId0" >
<path d="M0,768 1024,768 1024,0 0,0 z" />
</clipPath>
</defs>
<g clip-path="url(#clipId0)" fill="none" stroke="rgb(0,0,0)" stroke-width="0.1" />
<g clip-path="url(#clipId0)" fill="none" stroke="rgb(0,0,0)" stroke-width="0.25" >
<polyline points="141.205,449.373 339.505,449.373 " />
<polyline points="957.014,346.712 951.316,361.67 " />
<polyline points="957.014,346.712 962.712,361.67 " />
<polyline points="953.452,356.684 960.575,356.684 " />
<polyline points="973.963,356.883 973.536,356.028 972.681,355.173 971.826,354.746 970.117,354.746 969.262,355.173 968.407,356.028 967.98,356.883 967.553,358.165 967.553,360.302 967.98,361.584 968.407,362.439 969.262,363.293 970.117,363.721 971.826,363.721 972.681,363.293 973.536,362.439 973.963,361.584 " />
<polyline points="972.601,399.758 972.174,398.903 971.319,398.048 970.465,397.621 968.755,397.621 967.9,398.048 967.046,398.903 966.618,399.758 966.191,401.04 966.191,403.177 966.618,404.459 967.046,405.314 967.9,406.169 968.755,406.596 970.465,406.596 971.319,406.169 972.174,405.314 972.601,404.459 " />
<polyline points="58.8393,395.965 57.9845,395.111 56.7024,394.683 54.9929,394.683 53.7108,395.111 52.8561,395.965 52.8561,396.82 53.2834,397.675 53.7108,398.102 54.5656,398.529 57.1298,399.384 57.9845,399.812 58.4119,400.239 58.8393,401.094 58.8393,402.376 57.9845,403.231 56.7024,403.658 54.9929,403.658 53.7108,403.231 52.8561,402.376 " />
<polyline points="58.5467,352.913 57.692,352.059 56.4098,351.631 54.7004,351.631 53.4182,352.059 52.5635,352.913 52.5635,353.768 52.9909,354.623 53.4182,355.05 54.273,355.478 56.8372,356.332 57.692,356.76 58.1193,357.187 58.5467,358.042 58.5467,359.324 57.692,360.179 56.4098,360.606 54.7004,360.606 53.4182,360.179 52.5635,359.324 " />
<polyline points="42.0385,341.689 36.3402,356.647 " />
<polyline points="42.0385,341.689 47.7367,356.647 " />
<polyline points="38.477,351.661 45.5999,351.661 " />
<polyline points="517.808,407.584 226.607,116.382 " stroke-dasharray="62.325061,12.465012,12.465012,12.465012" />
<polyline points="339.505,299.793 167.501,127.789 " />
<polyline points="480.531,299.793 238.013,57.276 " />
<polyline points="141.205,299.793 339.505,299.793 " />
<polyline points="123.297,684.959 123.297,693.934 " />
<polyline points="123.297,689.233 124.152,688.378 125.007,687.951 126.289,687.951 127.144,688.378 127.998,689.233 128.426,690.515 128.426,691.37 127.998,692.652 127.144,693.507 126.289,693.934 125.007,693.934 124.152,693.507 123.297,692.652 " />
<polyline points="131.417,687.096 131.417,686.669 131.845,685.814 132.272,685.387 133.127,684.959 134.836,684.959 135.691,685.387 136.118,685.814 136.546,686.669 136.546,687.524 136.118,688.378 135.264,689.66 130.99,693.934 136.973,693.934 " />
<polyline points="155.734,716.105 155.734,725.08 " />
<polyline points="155.734,720.379 156.588,719.524 157.443,719.097 158.725,719.097 159.58,719.524 160.435,720.379 160.862,721.661 160.862,722.516 160.435,723.798 159.58,724.652 158.725,725.08 157.443,725.08 156.588,724.652 155.734,723.798 " />
<polyline points="163.854,718.242 163.854,717.814 164.281,716.96 164.708,716.532 165.563,716.105 167.273,716.105 168.127,716.532 168.555,716.96 168.982,717.814 168.982,718.669 168.555,719.524 167.7,720.806 163.426,725.08 169.409,725.08 " />
<polyline points="146.322,707.006 140.623,721.964 " />
<polyline points="146.322,707.006 152.02,721.964 " />
<polyline points="142.76,716.978 149.883,716.978 " />
<polyline points="118.033,387.962 164.377,361.205 " />
<polyline points="118.033,387.962 141.205,387.962 " />
<polyline points="164.377,361.205 141.205,361.205 " />
<polyline points="141.205,479.29 141.205,387.962 " />
<polyline points="141.205,361.205 141.205,269.877 " />
<polyline points="212.217,83.0724 255.269,40.0201 " />
<polyline points="150.245,145.045 193.297,101.992 " />
<polyline points="228.602,99.4576 212.217,83.0724 " />
<polyline points="176.912,85.6072 193.297,101.992 " />
<polyline points="176.912,85.6072 228.602,99.4576 " />
<polyline points="954.987,388.03 953.562,388.742 952.138,390.167 951.425,391.591 950.713,393.728 950.713,397.289 951.425,399.426 952.138,400.851 953.562,402.275 954.987,402.988 957.836,402.988 959.26,402.275 960.685,400.851 961.397,399.426 962.11,397.289 962.11,393.728 961.397,391.591 960.685,390.167 959.26,388.742 957.836,388.03 954.987,388.03 " />
<polyline points="957.124,400.139 961.397,404.412 " />
<polyline points="40.6355,385.441 39.211,386.154 37.7864,387.578 37.0741,389.003 36.3618,391.14 36.3618,394.701 37.0741,396.838 37.7864,398.263 39.211,399.687 40.6355,400.399 43.4847,400.399 44.9093,399.687 46.3338,398.263 47.0461,396.838 47.7584,394.701 47.7584,391.14 47.0461,389.003 46.3338,387.578 44.9093,386.154 43.4847,385.441 40.6355,385.441 " />
<polyline points="42.7724,397.55 47.0461,401.824 " />
<polyline points="110.738,676.111 109.314,676.824 107.889,678.248 107.177,679.673 106.465,681.81 106.465,685.371 107.177,687.508 107.889,688.933 109.314,690.357 110.738,691.069 113.587,691.069 115.012,690.357 116.437,688.933 117.149,687.508 117.861,685.371 117.861,681.81 117.149,679.673 116.437,678.248 115.012,676.824 113.587,676.111 110.738,676.111 " />
<polyline points="112.875,688.22 117.149,692.494 " />
<polyline points="480.531,299.793 878.147,299.793 " />
<polyline points="855.471,374.583 179.628,374.583 " stroke-dasharray="62.325061,12.465012,12.465012,12.465012" />
<polyline points="878.147,361.205 878.147,269.877 " />
<polyline points="854.975,387.962 901.32,361.205 " />
<polyline points="901.32,361.205 878.147,361.205 " />
<polyline points="854.975,387.962 878.147,387.962 " />
<polyline points="878.147,479.29 878.147,387.962 " />
<polyline points="517.808,341.583 226.607,632.784 " stroke-dasharray="62.325061,12.465012,12.465012,12.465012" />
<polyline points="480.531,449.373 238.013,691.891 " />
<polyline points="339.505,449.373 167.501,621.378 " />
<polyline points="176.912,663.56 228.602,649.709 " />
<polyline points="176.912,663.56 193.297,647.175 " />
<polyline points="228.602,649.709 212.217,666.094 " />
<polyline points="150.245,604.122 193.297,647.175 " />
<polyline points="212.217,666.094 255.269,709.147 " />
<polyline points="480.531,449.373 878.147,449.373 " />
<polyline points="127.967,53.29 127.967,62.2648 " />
<polyline points="127.967,57.5637 128.821,56.7089 129.676,56.2816 130.958,56.2816 131.813,56.7089 132.668,57.5637 133.095,58.8458 133.095,59.7005 132.668,60.9827 131.813,61.8374 130.958,62.2648 129.676,62.2648 128.821,61.8374 127.967,60.9827 " />
<polyline points="136.941,54.9995 137.796,54.5721 139.078,53.29 139.078,62.2648 " />
<polyline points="117.359,43.2666 111.66,58.2246 " />
<polyline points="117.359,43.2666 123.057,58.2246 " />
<polyline points="113.797,53.2386 120.92,53.2386 " />
<polyline points="151.466,27.8226 151.466,36.7974 " />
<polyline points="151.466,32.0963 152.321,31.2416 153.175,30.8142 154.458,30.8142 155.312,31.2416 156.167,32.0963 156.594,33.3784 156.594,34.2332 156.167,35.5153 155.312,36.37 154.458,36.7974 153.175,36.7974 152.321,36.37 151.466,35.5153 " />
<polyline points="160.441,29.5321 161.296,29.1047 162.578,27.8226 162.578,36.7974 " />
<polyline points="138.907,17.8959 137.482,18.6082 136.058,20.0328 135.345,21.4573 134.633,23.5942 134.633,27.1556 135.345,29.2925 136.058,30.7171 137.482,32.1416 138.907,32.8539 141.756,32.8539 143.181,32.1416 144.605,30.7171 145.317,29.2925 146.03,27.1556 146.03,23.5942 145.317,21.4573 144.605,20.0328 143.181,18.6082 141.756,17.8959 138.907,17.8959 " />
<polyline points="141.044,30.0048 145.317,34.2785 " />
<path d="M205.762,464.308  A134.574,134.574 0 0,0 207.986,477.884 " />
<path d="M224.017,518.457  A134.574,134.574 0 0,0 234.374,533.383 " />
</g>
<g clip-path="url(#clipId0)" fill="rgb(0,0,0)" stroke="rgb(0,0,0)" stroke-width="0.25" >
<path d="M208.251,464.17 203.273,464.447 204.931,449.373 204.931,449.373 z" />
<path d="M236.232,531.721 232.516,535.046 244.347,544.532 244.347,544.532 z" />
</g>
<g clip-path="url(#clipId0)" fill="none" stroke="rgb(0,0,0)" stroke-width="0.25" >
<path d="M238.033,219.44  A129.434,129.434 0 0,0 230.42,230.125 " />
<path d="M212.97,272.55  A129.434,129.434 0 0,0 210.935,284.86 " />
</g>
<g clip-path="url(#clipId0)" fill="rgb(0,0,0)" stroke="rgb(0,0,0)" stroke-width="0.25" >
<path d="M239.895,221.098 236.172,217.782 247.981,208.269 247.981,208.269 z" />
<path d="M213.424,285.004 208.446,284.716 210.071,299.793 210.071,299.793 z" />
<path d="M998.889,371.555 998.889,376.541 1013.85,374.048 1013.85,374.048 z" />
</g>
<g clip-path="url(#clipId0)" fill="none" stroke="rgb(0,0,0)" stroke-width="0.25" >
<polyline points="998.889,374.048 920.978,374.048 " />
</g>
<g clip-path="url(#clipId0)" fill="rgb(0,0,0)" stroke="rgb(0,0,0)" stroke-width="0.25" >
<path d="M97.0811,371.555 97.0811,376.541 112.039,374.048 112.039,374.048 z" />
</g>
<g clip-path="url(#clipId0)" fill="none" stroke="rgb(0,0,0)" stroke-width="0.25" >
<polyline points="97.0811,374.048 29.1624,374.048 " />
</g>
<g clip-path="url(#clipId0)" fill="rgb(0,0,0)" stroke="rgb(0,0,0)" stroke-width="0.25" >
<path d="M158.969,683.803 162.192,687.607 171.993,676.035 171.993,676.035 z" />
</g>
<g clip-path="url(#clipId0)" fill="none" stroke="rgb(0,0,0)" stroke-width="0.25" >
<polyline points="160.581,685.705 110.393,728.228 " />
</g>
<g clip-path="url(#clipId0)" fill="rgb(0,0,0)" stroke="rgb(0,0,0)" stroke-width="0.25" >
<path d="M162.6,60.1556 159.246,63.8456 171.993,72.0602 171.993,72.0602 z" />
</g>
<g clip-path="url(#clipId0)" fill="none" stroke="rgb(0,0,0)" stroke-width="0.25" >
<polyline points="160.923,62.0006 113.522,18.9269 " />
<polyline points="251.656,107.632 243.597,120.728 " />
<polyline points="256.692,112.669 243.597,120.728 " />
<polyline points="256.692,112.669 248.634,125.764 " />
<polyline points="261.729,117.706 248.634,125.764 " />
<polyline points="271.299,134.327 269.788,146.918 " />
<polyline points="276.839,139.867 264.247,141.378 " />
<polyline points="294.467,150.444 283.89,161.021 " />
<polyline points="301.518,157.495 290.941,168.072 " />
<polyline points="289.43,155.48 296.482,162.532 " />
<polyline points="257.781,126.741 251.435,133.087 " />
<polyline points="254.759,129.763 255.968,129.763 256.875,130.065 257.781,130.971 258.084,131.878 258.084,133.087 257.479,134.296 256.875,134.9 255.666,135.504 254.457,135.504 253.551,135.202 252.644,134.296 252.342,133.389 252.342,132.18 " />
<polyline points="712.386,344.889 715.948,359.847 " />
<polyline points="719.509,344.889 715.948,359.847 " />
<polyline points="719.509,344.889 723.07,359.847 " />
<polyline points="726.632,344.889 723.07,359.847 " />
<polyline points="745.151,349.875 752.986,359.847 " />
<polyline points="752.986,349.875 745.151,359.847 " />
<polyline points="772.93,344.889 772.93,359.847 " />
<polyline points="782.902,344.889 782.902,359.847 " />
<polyline points="772.93,352.012 782.902,352.012 " />
<polyline points="205.236,346.905 208.798,361.863 " />
<polyline points="212.359,346.905 208.798,361.863 " />
<polyline points="212.359,346.905 215.92,361.863 " />
<polyline points="219.482,346.905 215.92,361.863 " />
<polyline points="238.001,351.891 245.836,361.863 " />
<polyline points="245.836,351.891 238.001,361.863 " />
<polyline points="265.78,346.905 265.78,361.863 " />
<polyline points="275.752,346.905 275.752,361.863 " />
<polyline points="265.78,354.028 275.752,354.028 " />
<polyline points="213.172,245.951 206.05,255.923 216.734,255.923 " />
<polyline points="213.172,245.951 213.172,260.909 " />
<polyline points="228.843,245.951 221.72,245.951 221.008,252.362 221.72,251.649 223.857,250.937 225.994,250.937 228.13,251.649 229.555,253.074 230.267,255.211 230.267,256.635 229.555,258.772 228.13,260.197 225.994,260.909 223.857,260.909 221.72,260.197 221.008,259.484 220.295,258.06 " />
<ellipse rx="1.42457" ry="1.42457" cx="234.541" cy="247.376" />
<polyline points="206.234,493.652 199.111,503.624 209.795,503.624 " />
<polyline points="206.234,493.652 206.234,508.61 " />
<polyline points="221.904,493.652 214.781,493.652 214.069,500.062 214.781,499.35 216.918,498.638 219.055,498.638 221.192,499.35 222.616,500.775 223.328,502.911 223.328,504.336 222.616,506.473 221.192,507.897 219.055,508.61 216.918,508.61 214.781,507.897 214.069,507.185 213.356,505.761 " />
<ellipse rx="1.42457" ry="1.42457" cx="227.602" cy="495.076" />
<polyline points="239.235,597.902 245.581,604.249 " />
<polyline points="242.257,600.924 242.257,599.716 242.559,598.809 243.466,597.902 244.372,597.6 245.581,597.6 246.79,598.205 247.394,598.809 247.999,600.018 247.999,601.227 247.696,602.133 246.79,603.04 245.883,603.342 244.674,603.342 " />
<polyline points="220.778,603.07 233.873,611.128 " />
<polyline points="225.815,598.033 233.873,611.128 " />
<polyline points="225.815,598.033 238.91,606.092 " />
<polyline points="230.851,592.996 238.91,606.092 " />
<polyline points="247.472,583.427 260.064,584.938 " />
<polyline points="253.012,577.886 254.523,590.478 " />
<polyline points="263.589,560.258 274.166,570.835 " />
<polyline points="270.64,553.207 281.217,563.784 " />
<polyline points="268.626,565.295 275.677,558.244 " />
<polyline points="783.303,44.4394 777.605,59.3974 " />
<polyline points="783.303,44.4394 789.002,59.3974 " />
<polyline points="779.742,54.4114 786.865,54.4114 " />
<polyline points="822.479,50.85 835.3,50.85 " />
<polyline points="822.479,55.1237 835.3,55.1237 " />
<polyline points="859.518,44.4394 853.82,59.3974 " />
<polyline points="859.518,44.4394 865.216,59.3974 " />
<polyline points="855.957,54.4114 863.079,54.4114 " />
<polyline points="783.303,73.9397 777.605,88.8977 " />
<polyline points="783.303,73.9397 789.002,88.8977 " />
<polyline points="779.742,83.9117 786.865,83.9117 " />
<polyline points="822.479,80.3503 835.3,80.3503 " />
<polyline points="822.479,84.624 835.3,84.624 " />
<polyline points="859.518,73.9397 853.82,88.8977 " />
<polyline points="859.518,73.9397 865.216,88.8977 " />
<polyline points="855.957,83.9117 863.079,83.9117 " />
<polyline points="794.289,53.8276 794.289,62.8024 " />
<polyline points="794.289,58.1013 795.144,57.2466 795.998,56.8192 797.28,56.8192 798.135,57.2466 798.99,58.1013 799.417,59.3834 799.417,60.2382 798.99,61.5203 798.135,62.375 797.28,62.8024 795.998,62.8024 795.144,62.375 794.289,61.5203 " />
<polyline points="803.264,55.5371 804.118,55.1097 805.4,53.8276 805.4,62.8024 " />
<polyline points="799.845,85.0444 798.99,84.1896 797.708,83.7623 795.998,83.7623 794.716,84.1896 793.861,85.0444 793.861,85.8991 794.289,86.7539 794.716,87.1812 795.571,87.6086 798.135,88.4634 798.99,88.8907 799.417,89.3181 799.845,90.1728 799.845,91.455 798.99,92.3097 797.708,92.7371 795.998,92.7371 794.716,92.3097 793.861,91.455 " />
<polyline points="877.75,85.8991 877.323,85.0444 876.468,84.1896 875.613,83.7623 873.904,83.7623 873.049,84.1896 872.194,85.0444 871.767,85.8991 871.339,87.1812 871.339,89.3181 871.767,90.6002 872.194,91.455 873.049,92.3097 873.904,92.7371 875.613,92.7371 876.468,92.3097 877.323,91.455 877.75,90.6002 " />
<polyline points="871.767,53.8276 871.767,62.8024 " />
<polyline points="871.767,58.1013 872.622,57.2466 873.476,56.8192 874.758,56.8192 875.613,57.2466 876.468,58.1013 876.895,59.3834 876.895,60.2382 876.468,61.5203 875.613,62.375 874.758,62.8024 873.476,62.8024 872.622,62.375 871.767,61.5203 " />
<polyline points="879.887,55.9644 879.887,55.5371 880.314,54.6823 880.742,54.2549 881.596,53.8276 883.306,53.8276 884.161,54.2549 884.588,54.6823 885.015,55.5371 885.015,56.3918 884.588,57.2466 883.733,58.5287 879.459,62.8024 885.443,62.8024 " />
<polyline points="29.1624,374.048 10.0392,373.384 " />
<polyline points="911.581,728.166 911.581,750.104 " />
<polyline points="911.581,728.166 925.162,728.166 " />
<polyline points="911.581,738.613 919.939,738.613 " />
<polyline points="911.581,750.104 925.162,750.104 " />
<polyline points="931.431,728.166 931.431,750.104 " />
<polyline points="931.431,728.166 940.833,728.166 943.967,729.21 945.011,730.255 946.056,732.344 946.056,734.434 945.011,736.523 943.967,737.568 940.833,738.613 931.431,738.613 " />
<polyline points="938.743,738.613 946.056,750.104 " />
<polyline points="964.861,728.166 954.414,728.166 953.369,737.568 954.414,736.523 957.548,735.478 960.682,735.478 963.816,736.523 965.905,738.613 966.95,741.747 966.95,743.836 965.905,746.97 963.816,749.059 960.682,750.104 957.548,750.104 954.414,749.059 953.369,748.015 952.324,745.925 " />
<polyline points="974.263,740.702 993.067,740.702 " />
<polyline points="1013.96,735.478 1012.92,738.613 1010.83,740.702 1007.69,741.747 1006.65,741.747 1003.51,740.702 1001.42,738.613 1000.38,735.478 1000.38,734.434 1001.42,731.3 1003.51,729.21 1006.65,728.166 1007.69,728.166 1010.83,729.21 1012.92,731.3 1013.96,735.478 1013.96,740.702 1012.92,745.925 1010.83,749.059 1007.69,750.104 1005.6,750.104 1002.47,749.059 1001.42,746.97 " />
</g>
</svg>
