<?xml version="1.0" standalone="no"?>
<svg viewBox="0 0 1024 768" version="1.1" xmlns="http://www.w3.org/2000/svg" xmlns:xlink="http://www.w3.org/1999/xlink" stroke-linecap="round" stroke-linejoin="round" fill-rule="evenodd" xml:space="preserve" >
<defs >
<clipPath id="clipId0" >
<path d="M0,768 1024,768 1024,0 0,0 z" />
</clipPath>
</defs>
<g clip-path="url(#clipId0)" fill="none" stroke="rgb(0,0,0)" stroke-width="0.1" />
<g clip-path="url(#clipId0)" fill="none" stroke="rgb(0,0,0)" stroke-width="0.25" >
<polyline points="107.853,39.345 98.6293,63.5562 " />
<polyline points="107.853,39.345 117.076,63.5562 " />
<polyline points="102.088,55.4858 113.617,55.4858 " />
<polyline points="98.3969,585.713 96.2329,586.795 94.0689,588.959 92.9869,591.123 91.9049,594.369 91.9049,599.779 92.9869,603.025 94.0689,605.189 96.2329,607.353 98.3969,608.435 102.725,608.435 104.889,607.353 107.053,605.189 108.135,603.025 109.217,599.779 109.217,594.369 108.135,591.123 107.053,588.959 104.889,586.795 102.725,585.713 98.3969,585.713 " />
<polyline points="101.643,604.107 108.135,610.599 " />
<polyline points="168.71,597.299 101.367,670.021 " />
<polyline points="167.118,70.3981 103.32,7.52941 " />
<path d="M232.433,358.804  A171.047,171.047 0 0,0 271.532,441.432 " />
<polyline points="434.822,394.107 231.525,597.766 " />
<polyline points="170.737,542.532 378.019,334.624 " />
<polyline points="459.679,307.958 226.492,546.721 " stroke-dasharray="138.592008,27.718402,27.718402,27.718402" />
<polyline points="791.243,419.796 791.243,341.372 " />
<polyline points="692.838,714.458 692.838,760.471 " />
<polyline points="695.029,716.649 695.029,758.28 " />
<polyline points="692.838,714.458 719.13,714.458 " />
<polyline points="695.029,716.649 719.13,716.649 719.13,714.458 " />
<polyline points="695.029,736.369 708.175,736.369 708.175,738.56 " />
<polyline points="695.029,738.56 708.175,738.56 " />
<polyline points="695.029,758.28 719.13,758.28 719.13,760.471 " />
<polyline points="692.838,760.471 719.13,760.471 " />
<polyline points="734.468,714.458 734.468,760.471 " />
<polyline points="736.659,716.649 736.659,760.471 734.468,760.471 " />
<polyline points="734.468,714.458 751.997,714.458 758.57,716.649 760.761,718.84 762.952,723.222 762.952,729.796 760.761,734.178 758.57,736.369 751.997,738.56 736.659,738.56 " />
<polyline points="736.659,716.649 751.997,716.649 758.57,718.84 760.761,723.222 760.761,729.796 758.57,734.178 751.997,736.369 736.659,736.369 " />
<polyline points="747.614,738.56 760.761,760.471 762.952,760.471 " />
<polyline points="749.805,738.56 762.952,760.471 " />
<polyline points="780.481,714.458 778.289,734.178 " />
<polyline points="782.672,716.649 780.481,731.987 " />
<polyline points="780.481,714.458 802.391,714.458 802.391,716.649 " />
<polyline points="782.672,716.649 802.391,716.649 " />
<polyline points="780.481,731.987 787.054,729.796 793.627,729.796 800.2,731.987 804.582,736.369 806.773,742.942 806.773,747.324 804.582,753.897 800.2,758.28 793.627,760.471 787.054,760.471 780.481,758.28 778.289,756.088 776.098,751.706 778.289,751.706 " />
<polyline points="778.289,734.178 780.481,734.178 784.863,731.987 793.627,731.987 800.2,734.178 804.582,740.751 " />
<polyline points="795.818,731.987 802.391,736.369 804.582,742.942 804.582,747.324 802.391,753.897 795.818,758.28 " />
<polyline points="804.582,749.515 800.2,756.088 793.627,758.28 787.054,758.28 780.481,756.088 778.289,751.706 " />
<polyline points="784.863,758.28 778.289,753.897 " />
<polyline points="822.111,738.56 859.359,738.56 859.359,740.751 " />
<polyline points="822.111,738.56 822.111,740.751 859.359,740.751 " />
<polyline points="885.652,714.458 879.079,716.649 876.888,721.031 876.888,725.413 879.079,729.796 881.27,731.987 885.652,734.178 894.416,736.369 898.798,738.56 900.99,740.751 903.181,745.133 903.181,751.706 900.99,756.088 894.416,758.28 885.652,758.28 879.079,756.088 876.888,751.706 876.888,745.133 879.079,740.751 881.27,738.56 885.652,736.369 894.416,734.178 898.798,731.987 900.99,729.796 903.181,725.413 903.181,721.031 900.99,716.649 894.416,714.458 885.652,714.458 " />
<polyline points="881.27,716.649 879.079,721.031 879.079,725.413 881.27,729.796 885.652,731.987 894.416,734.178 898.798,736.369 903.181,740.751 905.372,745.133 905.372,751.706 903.181,756.088 900.99,758.28 894.416,760.471 885.652,760.471 879.079,758.28 876.888,756.088 874.697,751.706 874.697,745.133 876.888,740.751 881.27,736.369 885.652,734.178 894.416,731.987 898.798,729.796 900.99,725.413 900.99,721.031 898.798,716.649 " />
<polyline points="900.99,718.84 894.416,716.649 885.652,716.649 879.079,718.84 " />
<polyline points="876.888,753.897 883.461,758.28 " />
<polyline points="896.607,758.28 903.181,753.897 " />
<polyline points="414.867,587.875 414.867,601.54 " />
<polyline points="414.867,594.382 416.169,593.081 417.47,592.43 419.423,592.43 420.724,593.081 422.026,594.382 422.676,596.334 422.676,597.636 422.026,599.588 420.724,600.89 419.423,601.54 417.47,601.54 416.169,600.89 414.867,599.588 " />
<polyline points="428.533,590.478 429.835,589.827 431.787,587.875 431.787,601.54 " />
<polyline points="399.745,574.574 391.069,597.35 " />
<polyline points="399.745,574.574 408.422,597.35 " />
<polyline points="394.323,589.758 405.168,589.758 " />
<polyline points="459.397,584.335 478.92,584.335 " />
<polyline points="459.397,590.843 478.92,590.843 " />
<polyline points="515.796,574.574 507.119,597.35 " />
<polyline points="515.796,574.574 524.472,597.35 " />
<polyline points="510.373,589.758 521.219,589.758 " />
<polyline points="414.677,634.145 414.677,647.81 " />
<polyline points="414.677,640.652 415.979,639.351 417.28,638.7 419.233,638.7 420.534,639.351 421.836,640.652 422.486,642.604 422.486,643.906 421.836,645.858 420.534,647.16 419.233,647.81 417.28,647.81 415.979,647.16 414.677,645.858 " />
<polyline points="428.343,636.748 429.645,636.097 431.597,634.145 431.597,647.81 " />
<polyline points="399.745,620.78 391.069,643.556 " />
<polyline points="399.745,620.78 408.422,643.556 " />
<polyline points="394.323,635.964 405.168,635.964 " />
<polyline points="469.159,624.034 469.159,643.556 " />
<polyline points="459.397,633.795 478.92,633.795 " />
<polyline points="515.796,620.78 507.119,643.556 " />
<polyline points="515.796,620.78 524.472,643.556 " />
<polyline points="510.373,635.964 521.219,635.964 " />
<polyline points="575.448,630.541 594.97,630.541 " />
<polyline points="575.448,637.049 594.97,637.049 " />
<polyline points="631.846,620.78 623.169,643.556 " />
<polyline points="631.846,620.78 640.522,643.556 " />
<polyline points="626.423,635.964 637.269,635.964 " />
<polyline points="657.054,636.643 656.404,635.341 655.102,634.04 653.801,633.389 651.198,633.389 649.896,634.04 648.595,635.341 647.944,636.643 647.293,638.595 647.293,641.848 647.944,643.801 648.595,645.102 649.896,646.404 651.198,647.054 653.801,647.054 655.102,646.404 656.404,645.102 657.054,643.801 " />
<polyline points="532.038,633.51 532.038,647.175 " />
<polyline points="532.038,640.017 533.34,638.716 534.641,638.065 536.593,638.065 537.895,638.716 539.196,640.017 539.847,641.969 539.847,643.271 539.196,645.223 537.895,646.525 536.593,647.175 534.641,647.175 533.34,646.525 532.038,645.223 " />
<polyline points="544.402,636.763 544.402,636.113 545.053,634.811 545.704,634.16 547.005,633.51 549.608,633.51 550.91,634.16 551.561,634.811 552.211,636.113 552.211,637.414 551.561,638.716 550.259,640.668 543.752,647.175 552.862,647.175 " />
<polyline points="531.403,588.065 531.403,601.73 " />
<polyline points="531.403,594.572 532.705,593.271 534.006,592.62 535.958,592.62 537.26,593.271 538.561,594.572 539.212,596.524 539.212,597.826 538.561,599.778 537.26,601.08 535.958,601.73 534.006,601.73 532.705,601.08 531.403,599.778 " />
<polyline points="543.767,591.318 543.767,590.668 544.418,589.366 545.069,588.715 546.37,588.065 548.973,588.065 550.275,588.715 550.925,589.366 551.576,590.668 551.576,591.969 550.925,593.271 549.624,595.223 543.116,601.73 552.227,601.73 " />
<polyline points="118.194,603.304 118.194,616.937 " />
<polyline points="118.194,609.796 119.493,608.498 120.791,607.848 122.739,607.848 124.037,608.498 125.336,609.796 125.985,611.744 125.985,613.042 125.336,614.99 124.037,616.288 122.739,616.937 120.791,616.937 119.493,616.288 118.194,614.99 " />
<polyline points="130.529,606.55 130.529,605.901 131.179,604.602 131.828,603.953 133.126,603.304 135.723,603.304 137.021,603.953 137.671,604.602 138.32,605.901 138.32,607.199 137.671,608.498 136.372,610.445 129.88,616.937 138.969,616.937 " />
<polyline points="210.84,578.999 249.561,614.129 " />
<polyline points="166.732,648.911 166.732,662.544 " />
<polyline points="166.732,655.403 168.031,654.104 169.329,653.455 171.277,653.455 172.575,654.104 173.873,655.403 174.523,657.35 174.523,658.649 173.873,660.596 172.575,661.895 171.277,662.544 169.329,662.544 168.031,661.895 166.732,660.596 " />
<polyline points="179.067,652.157 179.067,651.507 179.716,650.209 180.365,649.56 181.664,648.911 184.261,648.911 185.559,649.56 186.208,650.209 186.857,651.507 186.857,652.806 186.208,654.104 184.91,656.052 178.418,662.544 187.507,662.544 " />
<polyline points="150.843,632.937 142.187,655.659 " />
<polyline points="150.843,632.937 159.499,655.659 " />
<polyline points="145.433,648.085 156.253,648.085 " />
<polyline points="262.939,463.136 280.065,473.396 " />
<polyline points="269.4,456.519 280.065,473.396 " />
<polyline points="269.4,456.519 286.526,466.779 " />
<polyline points="275.861,449.903 286.526,466.779 " />
<polyline points="297.292,437.222 313.662,438.989 " />
<polyline points="304.399,429.943 306.555,446.267 " />
<polyline points="317.858,406.894 331.754,420.462 " />
<polyline points="326.904,397.63 340.799,411.199 " />
<polyline points="324.475,413.355 333.521,404.091 " />
</g>
<g clip-path="url(#clipId0)" fill="rgb(0,0,0)" stroke="rgb(0,0,0)" stroke-width="0.25" >
<path d="M265.097,430.166 261.826,432.929 271.749,441.36 271.749,441.36 z" />
</g>
<g clip-path="url(#clipId0)" fill="none" stroke="rgb(0,0,0)" stroke-width="0.25" >
<polyline points="285.976,456.633 294.313,464.774 " />
<polyline points="289.946,460.509 289.927,458.94 290.306,457.758 291.469,456.567 292.641,456.161 294.21,456.142 295.789,456.908 296.583,457.683 297.386,459.243 297.405,460.813 297.027,461.995 295.864,463.186 294.691,463.592 293.122,463.611 " />
<polyline points="155.101,528.431 193.823,563.561 " />
<polyline points="180.453,578.298 193.823,563.561 " />
<polyline points="180.453,578.298 224.209,564.262 " />
<polyline points="224.209,564.262 210.84,578.999 " />
</g>
<g clip-path="url(#clipId0)" fill="rgb(0,0,0)" stroke="rgb(0,0,0)" stroke-width="0.25" >
<path d="M167.158,595.825 170.263,598.773 177.554,587.984 177.554,587.984 z" />
</g>
<g clip-path="url(#clipId0)" fill="none" stroke="rgb(0,0,0)" stroke-width="0.25" >
<polyline points="758.837,329.884 426.299,329.884 " stroke-dasharray="138.592008,27.718402,27.718402,27.718402" />
<polyline points="434.822,394.107 791.243,394.107 " />
<polyline points="434.822,265.661 791.243,265.661 " />
<polyline points="919.437,331.426 825.651,331.426 " />
<polyline points="857.74,283.713 855.434,284.866 853.128,287.172 851.975,289.478 850.822,292.936 850.822,298.701 851.975,302.16 853.128,304.465 855.434,306.771 857.74,307.924 862.351,307.924 864.657,306.771 866.963,304.465 868.116,302.16 869.269,298.701 869.269,292.936 868.116,289.478 866.963,287.172 864.657,284.866 862.351,283.713 857.74,283.713 " />
<polyline points="861.198,303.313 868.116,310.23 " />
<polyline points="791.243,318.396 791.243,239.972 " />
<polyline points="889.916,374.139 889.25,372.806 887.917,371.474 886.585,370.807 883.92,370.807 882.587,371.474 881.255,372.806 880.589,374.139 879.922,376.137 879.922,379.468 880.589,381.467 881.255,382.8 882.587,384.132 883.92,384.798 886.585,384.798 887.917,384.132 889.25,382.8 889.916,381.467 " />
<polyline points="861.083,350.885 852.2,374.203 " />
<polyline points="861.083,350.885 869.966,374.203 " />
<polyline points="855.531,366.43 866.635,366.43 " />
<polyline points="890.052,302.638 889.386,301.305 888.053,299.973 886.721,299.306 884.056,299.306 882.723,299.973 881.391,301.305 880.725,302.638 880.059,304.636 880.059,307.967 880.725,309.966 881.391,311.298 882.723,312.631 884.056,313.297 886.721,313.297 888.053,312.631 889.386,311.298 890.052,309.966 " />
<polyline points="811.141,318.396 791.243,318.396 " />
<polyline points="771.345,341.372 811.141,318.396 " />
<polyline points="771.345,341.372 791.243,341.372 " />
<polyline points="434.822,265.661 230.709,61.9171 " />
<polyline points="460.814,352.068 222.219,118.71 " stroke-dasharray="138.592008,27.718402,27.718402,27.718402" />
<polyline points="592.435,305.427 591.843,304.242 590.658,303.058 589.473,302.465 587.103,302.465 585.918,303.058 584.734,304.242 584.141,305.427 583.549,307.205 583.549,310.167 584.141,311.944 584.734,313.129 585.918,314.314 587.103,314.906 589.473,314.906 590.658,314.314 591.843,313.129 592.435,311.944 " />
<polyline points="561.959,283.648 566.896,304.383 " />
<polyline points="571.833,283.648 566.896,304.383 " />
<polyline points="571.833,283.648 576.769,304.383 " />
<polyline points="581.706,283.648 576.769,304.383 " />
<polyline points="607.378,290.559 618.239,304.383 " />
<polyline points="618.239,290.559 607.378,304.383 " />
<polyline points="645.885,283.648 645.885,304.383 " />
<polyline points="659.708,283.648 659.708,304.383 " />
<polyline points="645.885,293.522 659.708,293.522 " />
<polyline points="166.574,124.176 378.019,334.624 " />
<polyline points="281.178,125.851 270.39,143.824 " />
<polyline points="288.12,132.642 270.39,143.824 " />
<polyline points="288.12,132.642 277.331,150.614 " />
<polyline points="295.062,139.432 277.331,150.614 " />
<polyline points="308.356,161.946 306.486,179.134 " />
<polyline points="315.992,169.415 298.85,171.664 " />
<polyline points="340.182,183.569 325.922,198.146 " />
<polyline points="349.9,193.076 335.64,207.653 " />
<polyline points="333.391,190.511 343.11,200.017 " />
<path d="M258.065,235.625  A171.047,171.047 0 0,0 231.635,305.493 " />
<polyline points="224.116,328.568 223.137,331.504 221.18,333.461 218.244,334.44 217.265,334.44 214.329,333.461 212.372,331.504 211.394,328.568 211.394,327.59 212.372,324.654 214.329,322.696 217.265,321.718 218.244,321.718 221.18,322.696 223.137,324.654 224.116,328.568 224.116,333.461 223.137,338.355 221.18,341.29 218.244,342.269 216.287,342.269 213.351,341.29 212.372,339.333 " />
<polyline points="236.838,321.718 233.902,322.696 231.945,325.632 230.966,330.525 230.966,333.461 231.945,338.355 233.902,341.29 236.838,342.269 238.795,342.269 241.731,341.29 243.689,338.355 244.667,333.461 244.667,330.525 243.689,325.632 241.731,322.696 238.795,321.718 236.838,321.718 " />
<ellipse rx="1.95727" ry="1.95727" cx="250.539" cy="323.675" />
<polyline points="258.065,235.625 259.55,233.677 " />
</g>
<g clip-path="url(#clipId0)" fill="rgb(0,0,0)" stroke="rgb(0,0,0)" stroke-width="0.25" >
<path d="M260.26,235.152 256.903,232.495 266.554,223.753 266.554,223.753 z" />
</g>
<g clip-path="url(#clipId0)" fill="none" stroke="rgb(0,0,0)" stroke-width="0.25" >
<path d="M266.623,223.753  A171.047,171.047 0 0,0 266.438,223.987 " />
<polyline points="288.521,153.924 281.679,164.068 " />
<polyline points="285.263,158.754 286.88,158.44 288.172,158.609 289.621,159.586 290.262,160.721 290.576,162.338 290.082,164.113 289.43,165.079 287.97,166.202 286.352,166.517 285.06,166.348 283.611,165.371 282.971,164.236 282.656,162.619 " />
</g>
<g clip-path="url(#clipId0)" fill="rgb(0,0,0)" stroke="rgb(0,0,0)" stroke-width="0.25" >
<path d="M168.604,68.8571 165.632,71.9392 176.365,79.3138 176.365,79.3138 z" />
</g>
<g clip-path="url(#clipId0)" fill="none" stroke="rgb(0,0,0)" stroke-width="0.25" >
<polyline points="205.55,86.3421 243.063,49.9243 " />
<polyline points="175.204,88.0695 219.41,100.619 " />
<polyline points="175.204,88.0695 189.064,102.346 " />
<polyline points="151.551,138.764 189.064,102.346 " />
<polyline points="219.41,100.619 205.55,86.3421 " />
<polyline points="148.331,9.5898 146.059,10.7259 143.787,12.9981 142.651,15.2703 141.514,18.6786 141.514,24.3591 142.651,27.7675 143.787,30.0397 146.059,32.3119 148.331,33.448 152.875,33.448 155.148,32.3119 157.42,30.0397 158.556,27.7675 159.692,24.3591 159.692,18.6786 158.556,15.2703 157.42,12.9981 155.148,10.7259 152.875,9.5898 148.331,9.5898 " />
<polyline points="151.739,28.9036 158.556,35.7202 " />
<polyline points="167.85,25.2455 167.85,39.5603 " />
<polyline points="167.85,32.0621 169.214,30.6987 170.577,30.0171 172.622,30.0171 173.985,30.6987 175.349,32.0621 176.03,34.1071 176.03,35.4704 175.349,37.5154 173.985,38.8787 172.622,39.5603 170.577,39.5603 169.214,38.8787 167.85,37.5154 " />
<polyline points="182.165,27.9721 183.529,27.2904 185.574,25.2455 185.574,39.5603 " />
<polyline points="126.856,57.3289 126.856,71.6438 " />
<polyline points="126.856,64.1455 128.22,62.7822 129.583,62.1006 131.628,62.1006 132.991,62.7822 134.355,64.1455 135.036,66.1905 135.036,67.5539 134.355,69.5988 132.991,70.9622 131.628,71.6438 129.583,71.6438 128.22,70.9622 126.856,69.5988 " />
<polyline points="141.171,60.0556 142.535,59.3739 144.58,57.3289 144.58,71.6438 " />
</g>
<g clip-path="url(#clipId0)" fill="rgb(0,0,0)" stroke="rgb(0,0,0)" stroke-width="0.25" >
<path d="M919.437,329.316 919.437,333.536 932.095,331.426 932.095,331.426 z" />
</g>
</svg>
