<?xml version="1.0" standalone="no"?>
<svg viewBox="0 0 1024 768" version="1.1" xmlns="http://www.w3.org/2000/svg" xmlns:xlink="http://www.w3.org/1999/xlink" stroke-linecap="round" stroke-linejoin="round" fill-rule="evenodd" xml:space="preserve" >
<defs >
<clipPath id="clipId0" >
<path d="M0,768 1024,768 1024,0 0,0 z" />
</clipPath>
</defs>
<g clip-path="url(#clipId0)" fill="none" stroke="rgb(0,0,0)" stroke-width="0.1" />
<g clip-path="url(#clipId0)" fill="none" stroke="rgb(0,0,0)" stroke-width="0.25" >
<polyline points="528.211,574.948 526.831,575.639 525.451,577.019 524.761,579.089 524.761,580.47 525.451,582.54 526.831,583.92 528.211,584.611 530.282,584.611 531.662,583.92 533.042,582.54 533.733,580.47 533.733,579.089 533.042,577.019 531.662,575.639 530.282,574.948 528.211,574.948 " />
<polyline points="427.729,552.658 545.621,552.658 " />
</g>
<g clip-path="url(#clipId0)" fill="rgb(0,0,0)" stroke="rgb(0,0,0)" stroke-width="0.25" >
<path d="M427.729,550.243 427.729,555.074 413.236,552.658 413.236,552.658 z" />
</g>
<g clip-path="url(#clipId0)" fill="none" stroke="rgb(0,0,0)" stroke-width="0.25" >
<polyline points="580.245,504.348 329.63,504.348 " />
<polyline points="580.245,600.968 329.63,600.968 " />
<polyline points="329.63,638.21 329.63,467.106 " />
<polyline points="230.587,638.21 230.587,467.106 " />
<polyline points="329.63,638.21 230.587,638.21 " />
<polyline points="329.63,467.106 230.587,467.106 " />
<path d="M329.63,600.968  A15.3221,15.3221 0 0,0 298.986,600.968 " stroke-dasharray="12.077528,6.038764" />
<polyline points="298.986,600.968 253.019,600.968 " stroke-dasharray="12.077528,6.038764" />
<polyline points="298.986,504.348 253.019,504.348 " stroke-dasharray="12.077528,6.038764" />
<path d="M298.986,504.348  A15.3221,15.3221 0 0,0 329.63,504.348 " stroke-dasharray="12.077528,6.038764" />
<polyline points="253.019,600.968 253.019,504.348 " stroke-dasharray="12.077528,6.038764" />
<polyline points="580.245,600.968 580.245,504.348 " />
<path d="M580.245,600.968  A133.862,133.862 0 0,0 714.107,467.106 " />
<path d="M580.245,504.348  A37.2418,37.2418 0 0,0 617.486,467.106 " />
<polyline points="714.107,467.106 617.486,467.106 " />
<polyline points="580.245,492.358 580.245,412.676 " />
<polyline points="469.43,430.068 498.957,430.068 " />
<polyline points="565.752,430.068 536.225,430.068 " />
</g>
<g clip-path="url(#clipId0)" fill="rgb(0,0,0)" stroke="rgb(0,0,0)" stroke-width="0.25" >
<path d="M469.43,432.483 469.43,427.652 454.937,430.068 454.937,430.068 z" />
<path d="M565.752,432.483 565.752,427.652 580.245,430.068 580.245,430.068 z" />
</g>
<g clip-path="url(#clipId0)" fill="none" stroke="rgb(0,0,0)" stroke-width="0.25" >
<polyline points="516.211,422.821 516.211,437.314 524.492,437.314 " />
</g>
<g clip-path="url(#clipId0)" fill="rgb(0,0,0)" stroke="rgb(0,0,0)" stroke-width="0.25" >
<path d="M621.676,524.887 617.657,527.567 627.707,538.285 627.707,538.285 z" />
</g>
<g clip-path="url(#clipId0)" fill="none" stroke="rgb(0,0,0)" stroke-width="0.25" >
<polyline points="619.666,526.227 580.245,467.106 " />
<polyline points="597.327,471.726 597.327,481.388 " />
<polyline points="597.327,475.867 598.017,473.796 599.397,472.416 600.778,471.726 602.848,471.726 " />
<polyline points="454.937,492.358 454.937,412.676 " />
<polyline points="454.937,600.968 454.937,504.348 " />
<polyline points="346.085,600.968 346.085,504.348 " />
<polyline points="346.085,552.658 454.937,504.348 " />
<polyline points="346.085,533.328 454.937,504.348 " />
<polyline points="346.085,518.321 454.937,504.348 " />
<polyline points="346.085,586.995 454.937,600.968 " />
<polyline points="346.085,571.988 454.937,600.968 " />
<polyline points="346.085,552.658 454.937,600.968 " />
<polyline points="714.107,174.463 617.486,174.463 " />
<polyline points="714.107,77.8423 617.486,77.8423 " />
<polyline points="714.107,174.463 714.107,77.8423 " />
<polyline points="617.486,174.463 617.486,77.8423 " />
<polyline points="617.486,65.8523 617.486,7.52941 " />
<polyline points="714.107,65.8523 714.107,7.52941 " />
<polyline points="631.979,24.9211 646.472,24.9211 " />
<polyline points="699.614,24.9211 685.121,24.9211 " />
</g>
<g clip-path="url(#clipId0)" fill="rgb(0,0,0)" stroke="rgb(0,0,0)" stroke-width="0.25" >
<path d="M631.979,27.3366 631.979,22.5055 617.486,24.9211 617.486,24.9211 z" />
<path d="M699.614,27.3366 699.614,22.5055 714.107,24.9211 714.107,24.9211 z" />
</g>
<g clip-path="url(#clipId0)" fill="none" stroke="rgb(0,0,0)" stroke-width="0.25" >
<polyline points="663.726,17.6745 663.726,32.1676 " />
<polyline points="673.388,17.6745 673.388,32.1676 " />
<polyline points="663.726,24.576 673.388,24.576 " />
<polyline points="724.116,174.463 792.575,174.463 " />
<polyline points="724.116,77.8423 792.575,77.8423 " />
<polyline points="775.184,159.97 775.184,147.892 " />
<polyline points="775.184,92.3354 775.184,104.413 " />
</g>
<g clip-path="url(#clipId0)" fill="rgb(0,0,0)" stroke="rgb(0,0,0)" stroke-width="0.25" >
<path d="M777.599,159.97 772.768,159.97 775.184,174.463 775.184,174.463 z" />
<path d="M777.599,92.3354 772.768,92.3354 775.184,77.8423 775.184,77.8423 z" />
</g>
<g clip-path="url(#clipId0)" fill="none" stroke="rgb(0,0,0)" stroke-width="0.25" >
<polyline points="769.143,118.906 769.143,133.399 " />
<polyline points="778.805,118.906 778.805,133.399 " />
<polyline points="769.143,125.807 778.805,125.807 " />
<path d="M592.322,527.303  A61.3968,61.3968 0 0,0 640.442,479.184 " />
<path d="M592.322,576.146  A109.707,109.707 0 0,0 689.285,479.184 " />
<path d="M592.322,551.801  A85.5519,85.5519 0 0,0 664.94,479.184 " />
<polyline points="507.935,518.493 506.554,519.183 505.174,520.563 504.484,521.944 503.794,524.014 503.794,527.465 504.484,529.535 505.174,530.915 506.554,532.296 507.935,532.986 510.695,532.986 512.076,532.296 513.456,530.915 514.146,529.535 514.836,527.465 514.836,524.014 514.146,521.944 513.456,520.563 512.076,519.183 510.695,518.493 507.935,518.493 " />
<polyline points="510.005,530.225 514.146,534.366 " />
<polyline points="508.97,560.487 503.449,574.981 " />
<polyline points="508.97,560.487 514.491,574.981 " />
<polyline points="505.519,570.15 512.421,570.15 " />
<polyline points="585.931,254.615 647.469,254.615 " />
<polyline points="617.486,467.106 617.486,254.615 " />
<polyline points="714.107,467.106 714.107,254.615 " />
<polyline points="647.469,254.615 659.379,226.842 " />
<polyline points="659.379,226.842 673.275,280.403 " />
<polyline points="673.275,280.403 681.215,254.615 " />
<polyline points="681.215,254.615 742.753,254.615 " />
<polyline points="693.204,739.214 693.204,760.471 " />
<polyline points="693.204,739.214 706.363,739.214 " />
<polyline points="693.204,749.336 701.302,749.336 " />
<polyline points="693.204,760.471 706.363,760.471 " />
<polyline points="712.436,739.214 712.436,760.471 " />
<polyline points="712.436,739.214 721.546,739.214 724.583,740.226 725.595,741.239 726.607,743.263 726.607,745.287 725.595,747.312 724.583,748.324 721.546,749.336 712.436,749.336 " />
<polyline points="719.522,749.336 726.607,760.471 " />
<polyline points="746.852,739.214 736.729,760.471 " />
<polyline points="732.681,739.214 746.852,739.214 " />
<polyline points="753.937,751.361 772.157,751.361 " />
<polyline points="780.255,744.275 780.255,743.263 781.267,741.239 782.279,740.226 784.303,739.214 788.352,739.214 790.377,740.226 791.389,741.239 792.401,743.263 792.401,745.287 791.389,747.312 789.365,750.348 779.242,760.471 793.413,760.471 " />
</g>
<g clip-path="url(#clipId0)" fill="rgb(0,0,0)" stroke="rgb(0,0,0)" stroke-width="0.25" >
<path d="M607.43,309.563 604.575,313.46 617.692,320.078 617.692,320.078 z" />
</g>
<g clip-path="url(#clipId0)" fill="none" stroke="rgb(0,0,0)" stroke-width="0.25" >
<polyline points="606.002,311.511 528.363,254.615 " />
<polyline points="528.363,254.615 510.498,254.615 " />
<polyline points="287.734,224.252 287.734,238.745 " />
<polyline points="282.903,224.252 292.565,224.252 " />
<polyline points="296.015,224.252 296.015,238.745 " />
<polyline points="305.678,224.252 305.678,238.745 " />
<polyline points="296.015,231.153 305.678,231.153 " />
<polyline points="311.199,224.252 311.199,238.745 " />
<polyline points="325.692,226.322 324.311,224.942 322.241,224.252 319.48,224.252 317.41,224.942 316.03,226.322 316.03,227.702 316.72,229.083 317.41,229.773 318.79,230.463 322.931,231.843 324.311,232.533 325.002,233.224 325.692,234.604 325.692,236.674 324.311,238.055 322.241,238.745 319.48,238.745 317.41,238.055 316.03,236.674 " />
<polyline points="345.016,224.252 345.016,238.745 " />
<polyline points="345.016,224.252 349.847,224.252 351.917,224.942 353.297,226.322 353.988,227.702 354.678,229.773 354.678,233.224 353.988,235.294 353.297,236.674 351.917,238.055 349.847,238.745 345.016,238.745 " />
<polyline points="359.509,224.252 359.509,234.604 360.199,236.674 361.579,238.055 363.65,238.745 365.03,238.745 367.1,238.055 368.481,236.674 369.171,234.604 369.171,224.252 " />
<polyline points="384.354,227.702 383.664,226.322 382.284,224.942 380.903,224.252 378.143,224.252 376.762,224.942 375.382,226.322 374.692,227.702 374.002,229.773 374.002,233.224 374.692,235.294 375.382,236.674 376.762,238.055 378.143,238.745 380.903,238.745 382.284,238.055 383.664,236.674 384.354,235.294 " />
<polyline points="391.946,224.252 391.946,238.745 " />
<polyline points="387.115,224.252 396.777,224.252 " />
<polyline points="414.72,224.252 414.72,238.745 " />
<polyline points="414.72,224.252 424.382,238.745 " />
<polyline points="424.382,224.252 424.382,238.745 " />
<polyline points="433.354,224.252 431.974,224.942 430.594,226.322 429.904,227.702 429.213,229.773 429.213,233.224 429.904,235.294 430.594,236.674 431.974,238.055 433.354,238.745 436.115,238.745 437.495,238.055 438.875,236.674 439.566,235.294 440.256,233.224 440.256,229.773 439.566,227.702 438.875,226.322 437.495,224.942 436.115,224.252 433.354,224.252 " />
<polyline points="447.847,224.252 447.847,238.745 " />
<polyline points="443.016,224.252 452.678,224.252 " />
<polyline points="284.973,248.663 284.973,263.156 " />
<polyline points="290.494,248.663 290.494,263.156 " />
<polyline points="290.494,248.663 300.156,263.156 " />
<polyline points="300.156,248.663 300.156,263.156 " />
<polyline points="315.34,252.114 314.649,250.734 313.269,249.354 311.889,248.663 309.128,248.663 307.748,249.354 306.368,250.734 305.678,252.114 304.987,254.185 304.987,257.635 305.678,259.706 306.368,261.086 307.748,262.466 309.128,263.156 311.889,263.156 313.269,262.466 314.649,261.086 315.34,259.706 " />
<polyline points="320.171,248.663 320.171,263.156 328.452,263.156 " />
<polyline points="331.903,248.663 331.903,259.016 332.593,261.086 333.973,262.466 336.044,263.156 337.424,263.156 339.495,262.466 340.875,261.086 341.565,259.016 341.565,248.663 " />
<polyline points="347.086,248.663 347.086,263.156 " />
<polyline points="347.086,248.663 351.917,248.663 353.988,249.354 355.368,250.734 356.058,252.114 356.748,254.185 356.748,257.635 356.058,259.706 355.368,261.086 353.988,262.466 351.917,263.156 347.086,263.156 " />
<polyline points="361.579,248.663 361.579,263.156 " />
<polyline points="361.579,248.663 370.551,248.663 " />
<polyline points="361.579,255.565 367.1,255.565 " />
<polyline points="361.579,263.156 370.551,263.156 " />
<polyline points="374.692,248.663 374.692,263.156 " />
<polyline points="374.692,248.663 379.523,248.663 381.593,249.354 382.974,250.734 383.664,252.114 384.354,254.185 384.354,257.635 383.664,259.706 382.974,261.086 381.593,262.466 379.523,263.156 374.692,263.156 " />
<polyline points="403.678,248.663 403.678,263.156 " />
<polyline points="409.199,248.663 409.199,263.156 " />
<polyline points="409.199,248.663 418.861,263.156 " />
<polyline points="418.861,248.663 418.861,263.156 " />
<polyline points="438.875,248.663 438.875,263.156 447.157,263.156 " />
<polyline points="454.059,248.663 452.678,249.354 451.298,250.734 450.608,252.114 449.918,254.185 449.918,257.635 450.608,259.706 451.298,261.086 452.678,262.466 454.059,263.156 456.819,263.156 458.199,262.466 459.58,261.086 460.27,259.706 460.96,257.635 460.96,254.185 460.27,252.114 459.58,250.734 458.199,249.354 456.819,248.663 454.059,248.663 " />
<polyline points="474.763,250.734 473.383,249.354 471.312,248.663 468.552,248.663 466.481,249.354 465.101,250.734 465.101,252.114 465.791,253.494 466.481,254.185 467.861,254.875 472.002,256.255 473.383,256.945 474.073,257.635 474.763,259.016 474.763,261.086 473.383,262.466 471.312,263.156 468.552,263.156 466.481,262.466 465.101,261.086 " />
<polyline points="488.566,250.734 487.185,249.354 485.115,248.663 482.354,248.663 480.284,249.354 478.904,250.734 478.904,252.114 479.594,253.494 480.284,254.185 481.664,254.875 485.805,256.255 487.185,256.945 487.876,257.635 488.566,259.016 488.566,261.086 487.185,262.466 485.115,263.156 482.354,263.156 480.284,262.466 478.904,261.086 " />
<polyline points="296.62,275.919 295.93,274.539 294.55,273.159 293.17,272.468 290.409,272.468 289.029,273.159 287.648,274.539 286.958,275.919 286.268,277.99 286.268,281.44 286.958,283.511 287.648,284.891 289.029,286.271 290.409,286.961 293.17,286.961 294.55,286.271 295.93,284.891 296.62,283.511 " />
<polyline points="304.902,272.468 303.522,273.159 302.141,274.539 301.451,275.919 300.761,277.99 300.761,281.44 301.451,283.511 302.141,284.891 303.522,286.271 304.902,286.961 307.663,286.961 309.043,286.271 310.423,284.891 311.113,283.511 311.803,281.44 311.803,277.99 311.113,275.919 310.423,274.539 309.043,273.159 307.663,272.468 304.902,272.468 " />
<polyline points="316.634,272.468 316.634,286.961 " />
<polyline points="316.634,272.468 325.606,272.468 " />
<polyline points="316.634,279.37 322.156,279.37 " />
<polyline points="316.634,286.961 325.606,286.961 " />
<polyline points="329.747,272.468 329.747,286.961 " />
<polyline points="329.747,272.468 338.719,272.468 " />
<polyline points="329.747,279.37 335.268,279.37 " />
<polyline points="342.17,272.468 342.17,286.961 " />
<polyline points="342.17,272.468 351.142,272.468 " />
<polyline points="342.17,279.37 347.691,279.37 " />
<polyline points="354.592,272.468 354.592,286.961 " />
<polyline points="369.776,275.919 369.085,274.539 367.705,273.159 366.325,272.468 363.564,272.468 362.184,273.159 360.804,274.539 360.114,275.919 359.423,277.99 359.423,281.44 360.114,283.511 360.804,284.891 362.184,286.271 363.564,286.961 366.325,286.961 367.705,286.271 369.085,284.891 369.776,283.511 " />
<polyline points="374.607,272.468 374.607,286.961 " />
<polyline points="380.128,272.468 380.128,286.961 " />
<polyline points="380.128,272.468 389.1,272.468 " />
<polyline points="380.128,279.37 385.649,279.37 " />
<polyline points="380.128,286.961 389.1,286.961 " />
<polyline points="393.241,272.468 393.241,286.961 " />
<polyline points="393.241,272.468 402.903,286.961 " />
<polyline points="402.903,272.468 402.903,286.961 " />
<polyline points="411.184,272.468 411.184,286.961 " />
<polyline points="406.353,272.468 416.015,272.468 " />
<polyline points="420.156,285.581 419.466,286.271 420.156,286.961 420.846,286.271 420.156,285.581 " />
</g>
</svg>
