<?xml version="1.0" standalone="no"?>
<svg viewBox="0 0 1024 768" version="1.1" xmlns="http://www.w3.org/2000/svg" xmlns:xlink="http://www.w3.org/1999/xlink" stroke-linecap="round" stroke-linejoin="round" fill-rule="evenodd" xml:space="preserve" >
<defs >
<clipPath id="clipId0" >
<path d="M0,768 1024,768 1024,0 0,0 z" />
</clipPath>
</defs>
<g clip-path="url(#clipId0)" fill="none" stroke="rgb(0,0,0)" stroke-width="0.1" />
<g clip-path="url(#clipId0)" fill="none" stroke="rgb(0,0,0)" stroke-width="0.5" >
<polyline points="218.245,123.705 651.182,123.705 " />
<polyline points="651.182,123.705 651.182,204.416 " />
<polyline points="651.182,490.938 218.245,490.938 " />
<polyline points="218.245,525.596 218.245,324.65 " />
<polyline points="242.358,307.321 194.132,307.321 " />
<polyline points="218.245,289.992 218.245,89.047 " />
<polyline points="218.245,324.65 242.358,307.321 " />
<polyline points="194.132,307.321 218.245,289.992 " />
<polyline points="651.182,410.227 651.182,490.938 " />
<polyline points="651.182,410.227 651.182,390.501 " />
<path d="M1001.5,355.843  A29.8441,29.8441 0 0,0 1001.5,307.321 " />
<path d="M1001.5,258.8  A29.7717,29.7717 0 0,0 1001.5,307.321 " />
<path d="M1001.5,307.321  A29.8441,29.8441 0 0,0 1001.5,258.8 " />
</g>
<g clip-path="url(#clipId0)" fill="rgb(0,0,0)" stroke="rgb(0,0,0)" stroke-width="0.5" >
<path d="M957.684,309.909 957.684,316.84 978.479,313.375 978.479,313.375 z" />
</g>
<g clip-path="url(#clipId0)" fill="none" stroke="rgb(0,0,0)" stroke-width="0.5" >
<polyline points="957.684,313.375 826.455,313.375 " />
</g>
<g clip-path="url(#clipId0)" fill="rgb(0,0,0)" stroke="rgb(0,0,0)" stroke-width="0.5" >
<path d="M141.268,309.909 141.268,316.84 162.063,313.375 162.063,313.375 z" />
</g>
<g clip-path="url(#clipId0)" fill="none" stroke="rgb(0,0,0)" stroke-width="0.5" >
<polyline points="141.268,313.375 10.0392,313.375 " />
<polyline points="733.512,295.94 733.512,316.735 " />
<polyline points="733.512,295.94 740.444,295.94 743.415,296.93 745.395,298.91 746.385,300.891 747.375,303.862 747.375,308.813 746.385,311.783 745.395,313.764 743.415,315.744 740.444,316.735 733.512,316.735 " />
</g>
<g clip-path="url(#clipId0)" fill="rgb(0,0,0)" stroke="rgb(0,0,0)" stroke-width="0.5" >
<path d="M741.892,336.18 734.96,336.18 738.426,356.975 738.426,356.975 z" />
</g>
<g clip-path="url(#clipId0)" fill="none" stroke="rgb(0,0,0)" stroke-width="0.5" >
<polyline points="738.426,336.18 738.426,320.895 " />
</g>
<g clip-path="url(#clipId0)" fill="rgb(0,0,0)" stroke="rgb(0,0,0)" stroke-width="0.5" >
<path d="M734.96,280.621 741.892,280.621 738.426,259.826 738.426,259.826 z" />
</g>
<g clip-path="url(#clipId0)" fill="none" stroke="rgb(0,0,0)" stroke-width="0.5" >
<polyline points="738.426,280.621 738.426,291.137 " />
<polyline points="45.9029,330.283 45.9029,351.078 " />
<polyline points="45.9029,330.283 58.7759,330.283 " />
<polyline points="45.9029,340.185 53.8247,340.185 " />
<polyline points="68.6782,330.283 60.7563,351.078 " />
<polyline points="68.6782,330.283 76.6,351.078 " />
<polyline points="63.727,344.146 73.6293,344.146 " />
<polyline points="81.5511,330.283 81.5511,351.078 " />
<polyline points="81.5511,330.283 95.4144,351.078 " />
<polyline points="95.4144,330.283 95.4144,351.078 " />
<polyline points="685.84,258.8 1001.5,258.8 " />
<polyline points="685.84,355.843 1001.5,355.843 " />
<polyline points="651.182,224.142 651.182,204.416 " />
<path d="M651.182,224.142  A34.658,34.658 0 0,0 685.84,258.8 " />
<path d="M685.84,355.843  A34.658,34.658 0 0,0 651.182,390.501 " />
<polyline points="651.182,204.416 651.182,390.501 " />
<polyline points="685.84,258.8 685.84,355.843 " />
</g>
<g clip-path="url(#clipId0)" fill="rgb(0,0,0)" stroke="rgb(0,0,0)" stroke-width="0.5" >
<path d="M676.282,380.537 681.645,376.145 665.788,362.252 665.788,362.252 z" />
</g>
<g clip-path="url(#clipId0)" fill="none" stroke="rgb(0,0,0)" stroke-width="0.5" >
<polyline points="678.964,378.341 704.615,409.663 " />
<polyline points="704.615,409.663 720.145,409.663 " />
<polyline points="744.901,406.197 744.901,420.06 " />
<polyline points="744.901,412.138 745.891,409.168 747.872,407.187 749.852,406.197 752.823,406.197 " />
<polyline points="29.263,276.438 29.263,297.233 " />
<polyline points="29.263,276.438 42.136,276.438 " />
<polyline points="29.263,286.34 37.1849,286.34 " />
<polyline points="47.0872,276.438 47.0872,297.233 " />
<polyline points="47.0872,276.438 55.9992,276.438 58.9699,277.428 59.9601,278.418 60.9504,280.399 60.9504,282.379 59.9601,284.36 58.9699,285.35 55.9992,286.34 47.0872,286.34 " />
<polyline points="54.0188,286.34 60.9504,297.233 " />
<polyline points="72.8331,276.438 70.8527,277.428 68.8722,279.408 67.882,281.389 66.8917,284.36 66.8917,289.311 67.882,292.281 68.8722,294.262 70.8527,296.242 72.8331,297.233 76.794,297.233 78.7745,296.242 80.755,294.262 81.7452,292.281 82.7354,289.311 82.7354,284.36 81.7452,281.389 80.755,279.408 78.7745,277.428 76.794,276.438 72.8331,276.438 " />
<polyline points="89.667,276.438 89.667,297.233 " />
<polyline points="89.667,276.438 97.5889,297.233 " />
<polyline points="105.511,276.438 97.5889,297.233 " />
<polyline points="105.511,276.438 105.511,297.233 " />
<polyline points="879.693,273.786 877.713,274.776 875.733,276.757 874.742,278.737 873.752,281.708 873.752,286.659 874.742,289.63 875.733,291.61 877.713,293.59 879.693,294.581 883.654,294.581 885.635,293.59 887.615,291.61 888.606,289.63 889.596,286.659 889.596,281.708 888.606,278.737 887.615,276.757 885.635,274.776 883.654,273.786 879.693,273.786 " />
<polyline points="882.664,290.62 888.606,296.561 " />
<polyline points="757.723,310.425 755.742,311.416 753.762,313.396 752.772,316.367 752.772,318.347 753.762,321.318 755.742,323.298 757.723,324.289 760.693,324.289 762.674,323.298 764.654,321.318 765.645,318.347 765.645,316.367 764.654,313.396 762.674,311.416 760.693,310.425 757.723,310.425 " />
<polyline points="366.001,302.565 366.001,323.36 " />
<polyline points="379.864,302.565 379.864,323.36 " />
<polyline points="366.001,312.468 379.864,312.468 " />
<polyline points="428.386,302.565 442.249,323.36 " />
<polyline points="442.249,302.565 428.386,323.36 " />
<polyline points="467.995,302.565 472.946,323.36 " />
<polyline points="477.897,302.565 472.946,323.36 " />
<polyline points="477.897,302.565 482.848,323.36 " />
<polyline points="487.799,302.565 482.848,323.36 " />
<polyline points="396.376,320.724 398.357,319.733 401.327,316.763 401.327,337.558 " />
<polyline points="504.275,320.724 506.256,319.733 509.227,316.763 509.227,337.558 " />
<polyline points="815.715,639.74 811.358,635.383 804.822,633.204 796.108,633.204 789.573,635.383 785.215,639.74 785.215,644.097 787.394,648.454 789.573,650.632 793.93,652.811 807.001,657.168 811.358,659.346 813.536,661.525 815.715,665.882 815.715,672.418 811.358,676.775 804.822,678.953 796.108,678.953 789.573,676.775 785.215,672.418 " />
<polyline points="830.964,633.204 830.964,678.953 " />
<polyline points="830.964,633.204 846.214,633.204 852.749,635.383 857.106,639.74 859.285,644.097 861.463,650.632 861.463,661.525 859.285,668.061 857.106,672.418 852.749,676.775 846.214,678.953 830.964,678.953 " />
<polyline points="881.07,641.918 885.427,639.74 891.962,633.204 891.962,678.953 " />
<polyline points="920.283,659.346 959.496,659.346 " />
<polyline points="981.281,641.918 985.638,639.74 992.173,633.204 992.173,678.953 " />
</g>
</svg>
