<?xml version="1.0" standalone="no"?>
<svg viewBox="0 0 1024 768" version="1.1" xmlns="http://www.w3.org/2000/svg" xmlns:xlink="http://www.w3.org/1999/xlink" stroke-linecap="round" stroke-linejoin="round" fill-rule="evenodd" xml:space="preserve" >
<defs >
<clipPath id="clipId0" >
<path d="M0,768 1024,768 1024,0 0,0 z" />
</clipPath>
</defs>
<g clip-path="url(#clipId0)" fill="none" stroke="rgb(0,0,0)" stroke-width="0.1" />
<g clip-path="url(#clipId0)" fill="none" stroke="rgb(0,0,0)" stroke-width="0.5" >
<polyline points="210.157,75.7236 626.276,75.7236 " />
<polyline points="626.276,75.7236 626.276,428.691 " />
<polyline points="626.276,428.691 210.157,428.691 " />
<polyline points="210.157,462.002 210.157,268.863 " />
<polyline points="233.334,252.207 186.981,252.207 " />
<polyline points="210.157,235.551 210.157,42.4119 " />
<polyline points="210.157,268.863 233.334,252.207 " />
<polyline points="186.981,252.207 210.157,235.551 " />
<path d="M962.983,332.155  A72.6855,72.6855 0 0,0 962.983,252.207 " />
<path d="M962.983,172.259  A72.4326,72.4326 0 0,0 962.983,252.207 " />
<path d="M962.983,252.207  A72.6855,72.6855 0 0,0 962.983,172.259 " />
</g>
<g clip-path="url(#clipId0)" fill="rgb(0,0,0)" stroke="rgb(0,0,0)" stroke-width="0.5" >
<path d="M993.974,246.326 993.974,252.988 1013.96,249.657 1013.96,249.657 z" />
</g>
<g clip-path="url(#clipId0)" fill="none" stroke="rgb(0,0,0)" stroke-width="0.5" >
<polyline points="993.974,249.657 867.843,249.657 " />
</g>
<g clip-path="url(#clipId0)" fill="rgb(0,0,0)" stroke="rgb(0,0,0)" stroke-width="0.5" >
<path d="M136.17,254.694 136.17,261.356 156.157,258.025 156.157,258.025 z" />
</g>
<g clip-path="url(#clipId0)" fill="none" stroke="rgb(0,0,0)" stroke-width="0.5" >
<polyline points="136.17,258.025 10.0392,258.025 " />
<polyline points="819.057,260.132 817.153,261.084 815.25,262.987 814.298,265.842 814.298,267.746 815.25,270.601 817.153,272.505 819.057,273.457 821.912,273.457 823.816,272.505 825.719,270.601 826.671,267.746 826.671,265.842 825.719,262.987 823.816,261.084 821.912,260.132 819.057,260.132 " />
<polyline points="797.905,241.268 797.905,261.255 " />
<polyline points="797.905,241.268 804.567,241.268 807.422,242.219 809.326,244.123 810.278,246.026 811.229,248.882 811.229,253.64 810.278,256.496 809.326,258.399 807.422,260.303 804.567,261.255 797.905,261.255 " />
</g>
<g clip-path="url(#clipId0)" fill="rgb(0,0,0)" stroke="rgb(0,0,0)" stroke-width="0.5" >
<path d="M805.959,312.505 799.296,312.505 802.628,332.492 802.628,332.492 z" />
</g>
<g clip-path="url(#clipId0)" fill="none" stroke="rgb(0,0,0)" stroke-width="0.5" >
<polyline points="802.628,312.505 802.628,270.752 " />
</g>
<g clip-path="url(#clipId0)" fill="rgb(0,0,0)" stroke="rgb(0,0,0)" stroke-width="0.5" >
<path d="M799.296,192.082 805.959,192.082 802.628,172.095 802.628,172.095 z" />
</g>
<g clip-path="url(#clipId0)" fill="none" stroke="rgb(0,0,0)" stroke-width="0.5" >
<polyline points="802.628,192.082 802.628,231.623 " />
<polyline points="52.6128,274.277 52.6128,294.264 " />
<polyline points="52.6128,274.277 64.9857,274.277 " />
<polyline points="52.6128,283.795 60.2269,283.795 " />
<polyline points="74.5033,274.277 66.8892,294.264 " />
<polyline points="74.5033,274.277 82.1174,294.264 " />
<polyline points="69.7445,287.602 79.2621,287.602 " />
<polyline points="86.8762,274.277 86.8762,294.264 " />
<polyline points="86.8762,274.277 100.201,294.264 " />
<polyline points="100.201,274.277 100.201,294.264 " />
<polyline points="682.544,172.259 682.544,332.155 " />
<polyline points="36.6193,222.523 36.6193,242.51 " />
<polyline points="36.6193,222.523 48.9922,222.523 " />
<polyline points="36.6193,232.041 44.2334,232.041 " />
<polyline points="53.751,222.523 53.751,242.51 " />
<polyline points="53.751,222.523 62.3169,222.523 65.1722,223.475 66.1239,224.427 67.0757,226.33 67.0757,228.234 66.1239,230.137 65.1722,231.089 62.3169,232.041 53.751,232.041 " />
<polyline points="60.4134,232.041 67.0757,242.51 " />
<polyline points="78.4969,222.523 76.5933,223.475 74.6898,225.378 73.738,227.282 72.7863,230.137 72.7863,234.896 73.738,237.751 74.6898,239.655 76.5933,241.558 78.4969,242.51 82.3039,242.51 84.2074,241.558 86.111,239.655 87.0627,237.751 88.0145,234.896 88.0145,230.137 87.0627,227.282 86.111,225.378 84.2074,223.475 82.3039,222.523 78.4969,222.523 " />
<polyline points="94.6768,222.523 94.6768,242.51 " />
<polyline points="94.6768,222.523 102.291,242.51 " />
<polyline points="109.905,222.523 102.291,242.51 " />
<polyline points="109.905,222.523 109.905,242.51 " />
<polyline points="881.791,215.79 879.888,216.742 877.984,218.645 877.032,220.549 876.081,223.404 876.081,228.163 877.032,231.018 877.984,232.922 879.888,234.825 881.791,235.777 885.598,235.777 887.502,234.825 889.405,232.922 890.357,231.018 891.309,228.163 891.309,223.404 890.357,220.549 889.405,218.645 887.502,216.742 885.598,215.79 881.791,215.79 " />
<polyline points="884.646,231.97 890.357,237.681 " />
<polyline points="682.544,172.259 962.983,172.259 " />
<polyline points="682.544,332.155 962.983,332.155 " />
<polyline points="626.276,110.254 682.544,172.259 " />
<polyline points="626.276,394.16 682.544,332.155 " />
<polyline points="682.544,172.259 701.391,193.028 " />
<polyline points="682.544,332.155 705.343,307.032 " />
<path d="M747.563,200.934  A51.8234,51.8234 0 0,0 737.382,203.505 " />
</g>
<g clip-path="url(#clipId0)" fill="rgb(0,0,0)" stroke="rgb(0,0,0)" stroke-width="0.5" >
<path d="M739.103,206.357 735.661,200.653 720.269,213.83 720.269,213.83 z" />
<path d="M739.103,298.057 735.661,303.762 720.269,290.584 720.269,290.584 z" />
</g>
<g clip-path="url(#clipId0)" fill="none" stroke="rgb(0,0,0)" stroke-width="0.5" >
<path d="M737.382,300.909  A51.8234,51.8234 0 0,0 746.701,303.346 " />
<circle cx="709.077" cy="251.569" r="9.99351" />
<polyline points="699.084,251.569 719.071,251.569 " />
<polyline points="348.155,242.891 348.155,262.878 " />
<polyline points="361.479,242.891 361.479,262.878 " />
<polyline points="348.155,252.409 361.479,252.409 " />
<polyline points="408.116,242.891 421.44,262.878 " />
<polyline points="421.44,242.891 408.116,262.878 " />
<polyline points="446.186,242.891 450.945,262.878 " />
<polyline points="455.704,242.891 450.945,262.878 " />
<polyline points="455.704,242.891 460.463,262.878 " />
<polyline points="465.221,242.891 460.463,262.878 " />
<polyline points="382.808,260.344 384.712,259.392 387.567,256.537 387.567,276.524 " />
<polyline points="481.057,263.073 482.961,262.121 485.816,259.266 485.816,279.253 " />
<polyline points="705.875,197.969 728.465,222.862 " />
<polyline points="733.373,228.271 755.095,252.207 " />
<polyline points="738.621,270.361 755.095,252.207 " />
<polyline points="710.676,301.155 733.288,276.238 " />
<polyline points="626.276,450.15 626.276,531.418 " />
<polyline points="682.544,353.615 682.544,531.418 " />
<polyline points="606.289,504.151 586.302,504.151 " />
<polyline points="702.531,504.151 722.518,504.151 " />
</g>
<g clip-path="url(#clipId0)" fill="rgb(0,0,0)" stroke="rgb(0,0,0)" stroke-width="0.5" >
<path d="M606.289,500.82 606.289,507.482 626.276,504.151 626.276,504.151 z" />
<path d="M702.531,500.82 702.531,507.482 682.544,504.151 682.544,504.151 z" />
</g>
<g clip-path="url(#clipId0)" fill="none" stroke="rgb(0,0,0)" stroke-width="0.5" >
<polyline points="626.276,504.151 682.544,504.151 " />
<polyline points="734.51,494.158 734.51,514.145 745.931,514.145 " />
<polyline points="752.37,680.36 747.345,675.335 739.807,672.822 729.757,672.822 722.219,675.335 717.193,680.36 717.193,685.386 719.706,690.411 722.219,692.924 727.244,695.436 742.32,700.462 747.345,702.974 749.858,705.487 752.37,710.512 752.37,718.05 747.345,723.075 739.807,725.588 729.757,725.588 722.219,723.075 717.193,718.05 " />
<polyline points="769.959,672.822 769.959,725.588 " />
<polyline points="769.959,672.822 787.548,672.822 795.086,675.335 800.111,680.36 802.623,685.386 805.136,692.924 805.136,705.487 802.623,713.025 800.111,718.05 795.086,723.075 787.548,725.588 769.959,725.588 " />
<polyline points="827.75,682.873 832.775,680.36 840.313,672.822 840.313,725.588 " />
<polyline points="872.978,702.974 918.206,702.974 " />
<polyline points="938.307,685.386 938.307,682.873 940.819,677.848 943.332,675.335 948.357,672.822 958.408,672.822 963.433,675.335 965.946,677.848 968.459,682.873 968.459,687.898 965.946,692.924 960.921,700.462 935.794,725.588 970.971,725.588 " />
</g>
<g clip-path="url(#clipId0)" fill="rgb(0,0,0)" stroke="rgb(0,0,0)" stroke-width="0.5" >
<polygon points="612.543,179.607 626.276,199.673 606.778,185.145 " />
</g>
<g clip-path="url(#clipId0)" fill="none" stroke="rgb(0,0,0)" stroke-width="0.5" >
<polyline points="609.66,182.376 571.786,142.948 " />
<polyline points="571.786,142.948 551.707,142.948 " />
<polyline points="528.024,150.888 528.024,149.937 528.975,148.033 529.927,147.081 531.831,146.13 535.638,146.13 537.541,147.081 538.493,148.033 539.445,149.937 539.445,151.84 538.493,153.744 536.59,156.599 527.072,166.117 540.397,166.117 " />
<polyline points="510.679,133.928 510.679,153.915 " />
<polyline points="510.679,133.928 517.341,133.928 520.196,134.879 522.1,136.783 523.052,138.687 524.003,141.542 524.003,146.301 523.052,149.156 522.1,151.059 520.196,152.963 517.341,153.915 510.679,153.915 " />
</g>
</svg>
