<?xml version="1.0" standalone="no"?>
<svg viewBox="0 0 1024 768" version="1.1" xmlns="http://www.w3.org/2000/svg" xmlns:xlink="http://www.w3.org/1999/xlink" stroke-linecap="round" stroke-linejoin="round" fill-rule="evenodd" xml:space="preserve" >
<defs >
<clipPath id="clipId0" >
<path d="M0,768 1024,768 1024,0 0,0 z" />
</clipPath>
</defs>
<g clip-path="url(#clipId0)" fill="none" stroke="rgb(0,0,0)" stroke-width="0.1" />
<g clip-path="url(#clipId0)" fill="none" stroke="rgb(0,0,0)" stroke-width="0.25" >
<polyline points="374.624,474.252 374.624,266.465 " />
<polyline points="515.28,266.465 515.28,474.252 " />
<path d="M374.624,612.426  A38.8923,38.8923 0 0,0 444.952,612.426 " />
<path d="M515.28,612.426  A37.5168,37.5168 0 0,0 444.952,612.426 " />
<path d="M444.952,612.426  A38.8923,38.8923 0 0,0 515.28,612.426 " />
</g>
<g clip-path="url(#clipId0)" fill="rgb(0,0,0)" stroke="rgb(0,0,0)" stroke-width="0.25" >
<path d="M442.207,414.804 447.697,414.804 444.952,398.332 444.952,398.332 z" />
</g>
<g clip-path="url(#clipId0)" fill="none" stroke="rgb(0,0,0)" stroke-width="0.25" >
<polyline points="444.952,414.804 444.952,552.79 " />
<polyline points="424.686,493.679 423.117,494.463 421.549,496.032 420.764,498.385 420.764,499.954 421.549,502.307 423.117,503.876 424.686,504.66 427.039,504.66 428.608,503.876 430.177,502.307 430.961,499.954 430.961,498.385 430.177,496.032 428.608,494.463 427.039,493.679 424.686,493.679 " />
<polyline points="374.624,266.465 515.28,266.465 " />
<polyline points="340.474,128.246 549.43,128.246 " />
<polyline points="374.624,266.465 340.474,128.246 " />
<polyline points="515.28,266.465 549.43,128.246 " />
<path d="M522.515,168.52  A390.379,390.379 0 0,0 464.781,161.241 " />
</g>
<g clip-path="url(#clipId0)" fill="rgb(0,0,0)" stroke="rgb(0,0,0)" stroke-width="0.25" >
<path d="M521.913,171.199 523.117,165.841 538.587,172.133 538.587,172.133 z" />
<path d="M367.991,171.199 366.786,165.841 351.317,172.133 351.317,172.133 z" />
</g>
<g clip-path="url(#clipId0)" fill="none" stroke="rgb(0,0,0)" stroke-width="0.25" >
<path d="M419.393,161.575  A390.379,390.379 0 0,0 367.389,168.52 " />
<polyline points="528.067,265.278 639.953,265.278 " />
</g>
<g clip-path="url(#clipId0)" fill="rgb(0,0,0)" stroke="rgb(0,0,0)" stroke-width="0.25" >
<path d="M391.096,328.868 391.096,323.377 374.624,326.123 374.624,326.123 z" />
</g>
<g clip-path="url(#clipId0)" fill="none" stroke="rgb(0,0,0)" stroke-width="0.25" >
<polyline points="391.096,326.123 515.28,326.123 " />
</g>
<g clip-path="url(#clipId0)" fill="rgb(0,0,0)" stroke="rgb(0,0,0)" stroke-width="0.25" >
<path d="M498.808,323.377 498.808,328.868 515.28,326.123 515.28,326.123 z" />
</g>
<g clip-path="url(#clipId0)" fill="none" stroke="rgb(0,0,0)" stroke-width="0.25" >
<polyline points="515.28,326.123 560.035,326.123 " />
<polyline points="572.321,320.321 572.321,336.794 " />
<polyline points="572.321,320.321 577.812,320.321 580.165,321.105 581.734,322.674 582.518,324.243 583.302,326.596 583.302,330.518 582.518,332.872 581.734,334.44 580.165,336.009 577.812,336.794 572.321,336.794 " />
<polyline points="619.444,101.366 619.444,117.839 628.857,117.839 " />
<polyline points="627.166,144.077 627.166,182.331 " />
</g>
<g clip-path="url(#clipId0)" fill="rgb(0,0,0)" stroke="rgb(0,0,0)" stroke-width="0.25" >
<path d="M629.912,248.805 624.421,248.805 627.166,265.278 627.166,265.278 z" />
</g>
<g clip-path="url(#clipId0)" fill="none" stroke="rgb(0,0,0)" stroke-width="0.25" >
<polyline points="627.166,248.805 627.166,218.983 " />
<polyline points="331.184,90.6447 558.72,90.6447 " />
<polyline points="444.952,45.8903 331.184,90.6447 " />
<polyline points="444.952,45.8903 558.72,90.6447 " />
<polyline points="330.95,81.0544 330.95,7.52941 " />
<polyline points="558.711,81.0544 558.711,7.52941 " />
<polyline points="558.711,20.3164 477.555,20.3164 " />
<polyline points="417.342,20.3164 330.95,20.3164 " />
<polyline points="461.847,45.8903 639.868,45.8903 " />
<polyline points="566.565,90.6447 639.868,90.6447 " />
<polyline points="561.329,128.349 639.509,128.349 " />
</g>
<g clip-path="url(#clipId0)" fill="rgb(0,0,0)" stroke="rgb(0,0,0)" stroke-width="0.25" >
<path d="M623.853,62.4943 629.344,62.4943 626.599,46.0217 626.599,46.0217 z" />
</g>
<g clip-path="url(#clipId0)" fill="none" stroke="rgb(0,0,0)" stroke-width="0.25" >
<polyline points="626.599,62.4943 626.599,79.3028 " />
</g>
<g clip-path="url(#clipId0)" fill="rgb(0,0,0)" stroke="rgb(0,0,0)" stroke-width="0.25" >
<path d="M629.344,74.2158 623.853,74.2158 626.599,90.6884 626.599,90.6884 z" />
</g>
<g clip-path="url(#clipId0)" fill="none" stroke="rgb(0,0,0)" stroke-width="0.25" >
<polyline points="646.877,57.6446 644.524,58.429 642.955,60.7822 642.171,64.7042 642.171,67.0575 642.955,70.9795 644.524,73.3328 646.877,74.1172 648.446,74.1172 650.799,73.3328 652.368,70.9795 653.153,67.0575 653.153,64.7042 652.368,60.7822 650.799,58.429 648.446,57.6446 646.877,57.6446 " />
<polyline points="659.428,72.5484 658.643,73.3328 659.428,74.1172 660.212,73.3328 659.428,72.5484 " />
<polyline points="667.272,57.6446 675.9,57.6446 671.194,63.9198 673.547,63.9198 675.116,64.7042 675.9,65.4887 676.685,67.8419 676.685,69.4107 675.9,71.7639 674.332,73.3328 671.978,74.1172 669.625,74.1172 667.272,73.3328 666.487,72.5484 665.703,70.9795 " />
<polyline points="682.176,57.6446 682.176,74.1172 " />
<polyline points="682.176,57.6446 687.667,57.6446 690.02,58.429 691.589,59.9978 692.373,61.5666 693.157,63.9198 693.157,67.8419 692.373,70.1951 691.589,71.7639 690.02,73.3328 687.667,74.1172 682.176,74.1172 " />
</g>
<g clip-path="url(#clipId0)" fill="rgb(0,0,0)" stroke="rgb(0,0,0)" stroke-width="0.25" >
<path d="M624.57,144.821 630.061,144.821 627.316,128.349 627.316,128.349 z" />
<path d="M541.27,17.8775 541.27,23.3683 557.743,20.6229 557.743,20.6229 z" />
<path d="M347.315,23.0837 347.315,17.5928 330.843,20.3383 330.843,20.3383 z" />
</g>
<g clip-path="url(#clipId0)" fill="none" stroke="rgb(0,0,0)" stroke-width="0.25" >
<polyline points="436.528,18.1443 436.528,17.3599 437.313,15.791 438.097,15.0066 439.666,14.2222 442.804,14.2222 444.372,15.0066 445.157,15.791 445.941,17.3599 445.941,18.9287 445.157,20.4975 443.588,22.8507 435.744,30.6948 446.726,30.6948 " />
<polyline points="452.217,14.2222 452.217,30.6948 " />
<polyline points="452.217,14.2222 457.707,14.2222 460.061,15.0066 461.629,16.5754 462.414,18.1443 463.198,20.4975 463.198,24.4195 462.414,26.7728 461.629,28.3416 460.061,29.9104 457.707,30.6948 452.217,30.6948 " />
<polyline points="622.062,192.451 622.062,208.924 " />
<polyline points="622.062,192.451 627.553,192.451 629.906,193.236 631.475,194.805 632.259,196.373 633.043,198.727 633.043,202.649 632.259,205.002 631.475,206.571 629.906,208.14 627.553,208.924 622.062,208.924 " />
<polyline points="425.912,156.736 427.48,155.952 429.834,153.599 429.834,170.071 " />
<polyline points="448.66,153.599 440.815,153.599 440.031,160.658 440.815,159.874 443.169,159.09 445.522,159.09 447.875,159.874 449.444,161.443 450.228,163.796 450.228,165.365 449.444,167.718 447.875,169.287 445.522,170.071 443.169,170.071 440.815,169.287 440.031,168.503 439.247,166.934 " />
<polyline points="463.653,473.95 462.084,474.735 460.515,476.304 459.731,477.873 458.946,480.226 458.946,484.148 459.731,486.501 460.515,488.07 462.084,489.639 463.653,490.423 466.791,490.423 468.359,489.639 469.928,488.07 470.713,486.501 471.497,484.148 471.497,480.226 470.713,477.873 469.928,476.304 468.359,474.735 466.791,473.95 463.653,473.95 " />
<polyline points="466.006,487.285 470.713,491.992 " />
<polyline points="461.587,144.343 460.018,145.127 458.449,146.696 457.665,149.049 457.665,150.618 458.449,152.971 460.018,154.54 461.587,155.324 463.94,155.324 465.509,154.54 467.078,152.971 467.862,150.618 467.862,149.049 467.078,146.696 465.509,145.127 463.94,144.343 461.587,144.343 " />
<polyline points="411.92,472.017 405.644,488.49 " />
<polyline points="411.92,472.017 418.195,488.49 " />
<polyline points="407.998,482.999 415.842,482.999 " />
<polyline points="374.624,474.252 374.581,612.331 " />
<polyline points="515.28,474.252 515.231,611.16 " />
<polyline points="592.098,739.762 589.797,737.461 586.346,736.311 581.744,736.311 578.292,737.461 575.991,739.762 575.991,742.063 577.142,744.364 578.292,745.515 580.593,746.665 587.496,748.966 589.797,750.116 590.947,751.267 592.098,753.568 592.098,757.019 589.797,759.32 586.346,760.471 581.744,760.471 578.292,759.32 575.991,757.019 " />
<polyline points="600.151,736.311 600.151,760.471 " />
<polyline points="600.151,736.311 608.204,736.311 611.656,737.461 613.957,739.762 615.107,742.063 616.258,745.515 616.258,751.267 615.107,754.718 613.957,757.019 611.656,759.32 608.204,760.471 600.151,760.471 " />
<polyline points="624.311,742.063 624.311,740.913 625.461,738.612 626.612,737.461 628.913,736.311 633.515,736.311 635.816,737.461 636.966,738.612 638.117,740.913 638.117,743.214 636.966,745.515 634.665,748.966 623.161,760.471 639.267,760.471 " />
<polyline points="647.32,750.116 668.029,750.116 " />
<polyline points="689.888,736.311 678.383,736.311 677.233,746.665 678.383,745.515 681.834,744.364 685.286,744.364 688.737,745.515 691.038,747.815 692.189,751.267 692.189,753.568 691.038,757.019 688.737,759.32 685.286,760.471 681.834,760.471 678.383,759.32 677.233,758.17 676.082,755.869 " />
</g>
</svg>
