<?xml version="1.0" standalone="no"?>
<svg viewBox="0 0 1024 768" version="1.1" xmlns="http://www.w3.org/2000/svg" xmlns:xlink="http://www.w3.org/1999/xlink" stroke-linecap="round" stroke-linejoin="round" fill-rule="evenodd" xml:space="preserve" >
<defs >
<clipPath id="clipId0" >
<path d="M0,768 1024,768 1024,0 0,0 z" />
</clipPath>
</defs>
<g clip-path="url(#clipId0)" fill="none" stroke="rgb(0,0,0)" stroke-width="0.1" />
<g clip-path="url(#clipId0)" fill="rgb(0,0,0)" stroke="rgb(0,0,0)" stroke-width="0.25" >
<path d="M417.493,491.718 421.092,491.718 419.293,480.922 419.293,480.922 z" />
</g>
<g clip-path="url(#clipId0)" fill="none" stroke="rgb(0,0,0)" stroke-width="0.25" >
<polyline points="419.293,491.718 419.293,581.489 " />
<polyline points="397.519,520.857 401.632,531.653 " />
<polyline points="405.745,520.857 401.632,531.653 " />
<polyline points="706.278,478.09 706.278,488.886 " />
<polyline points="706.278,478.09 709.876,478.09 711.419,478.604 712.447,479.632 712.961,480.66 713.475,482.203 713.475,484.773 712.961,486.315 712.447,487.344 711.419,488.372 709.876,488.886 706.278,488.886 " />
</g>
<g clip-path="url(#clipId0)" fill="rgb(0,0,0)" stroke="rgb(0,0,0)" stroke-width="0.25" >
<path d="M638.078,533.171 640.988,535.289 645.887,525.502 645.887,525.502 z" />
</g>
<g clip-path="url(#clipId0)" fill="none" stroke="rgb(0,0,0)" stroke-width="0.25" >
<polyline points="465.554,593.266 465.554,508.253 " />
<path d="M685.377,610.459  A25.49,25.49 0 0,0 712.504,573.194 " />
<path d="M712.504,573.194  A24.5885,24.5885 0 0,0 685.377,610.459 " />
<path d="M658.25,647.724  A25.49,25.49 0 0,0 685.377,610.459 " />
<polyline points="465.554,394.227 690.277,557.816 " />
<polyline points="636.022,632.346 465.554,508.253 " />
<polyline points="597.986,591.304 645.887,525.502 " />
</g>
<g clip-path="url(#clipId0)" fill="rgb(0,0,0)" stroke="rgb(0,0,0)" stroke-width="0.25" >
<path d="M599.441,592.363 596.531,590.245 591.632,600.032 591.632,600.032 z" />
<path d="M447.728,440.067 449.846,437.157 440.058,432.258 440.058,432.258 z" />
</g>
<g clip-path="url(#clipId0)" fill="none" stroke="rgb(0,0,0)" stroke-width="0.25" >
<polyline points="448.919,438.95 522.034,492.175 " />
<polyline points="465.554,394.227 465.554,287.375 " />
<polyline points="645.887,525.502 675.625,485.38 " />
<polyline points="675.625,485.38 696.89,485.38 " />
<polyline points="500.105,493.255 499.076,493.769 498.048,494.798 497.534,496.34 497.534,497.368 498.048,498.91 499.076,499.939 500.105,500.453 501.647,500.453 502.675,499.939 503.703,498.91 504.218,497.368 504.218,496.34 503.703,494.798 502.675,493.769 501.647,493.255 500.105,493.255 " />
<path d="M476.321,581.868  A74.3992,74.3992 0 0,0 491.467,577.993 " />
</g>
<g clip-path="url(#clipId0)" fill="rgb(0,0,0)" stroke="rgb(0,0,0)" stroke-width="0.25" >
<path d="M476.191,580.074 476.452,583.663 465.554,582.652 465.554,582.652 z" />
<path d="M517.359,559.122 520.107,561.445 525.703,552.039 525.703,552.039 z" />
</g>
<g clip-path="url(#clipId0)" fill="none" stroke="rgb(0,0,0)" stroke-width="0.25" >
<path d="M508.758,568.822  A74.3992,74.3992 0 0,0 518.733,560.283 " />
<polyline points="495.203,573.802 506,573.802 " />
<polyline points="501.134,452.733 500.106,453.247 499.078,454.276 498.564,455.304 498.05,456.846 498.05,459.417 498.564,460.959 499.078,461.987 500.106,463.015 501.134,463.53 503.191,463.53 504.219,463.015 505.247,461.987 505.761,460.959 506.275,459.417 506.275,456.846 505.761,455.304 505.247,454.276 504.219,453.247 503.191,452.733 501.134,452.733 " />
<polyline points="502.677,461.473 505.761,464.558 " />
<circle cx="500.601" cy="573.802" r="5.39808" />
<polyline points="491.711,481.157 487.598,491.954 " />
<polyline points="491.711,481.157 495.823,491.954 " />
<polyline points="489.14,488.355 494.281,488.355 " />
<polyline points="465.554,508.253 465.554,394.227 " />
<polyline points="690.277,557.816 713.45,573.553 " />
<polyline points="636.022,632.346 658.289,647.925 " />
<polyline points="474.441,400.697 479.381,395.757 " />
<polyline points="467.078,395.337 479.381,383.034 " />
<polyline points="465.554,384.139 479.381,370.311 " />
<polyline points="465.554,371.415 479.381,357.587 " />
<polyline points="465.554,358.692 479.381,344.864 " />
<polyline points="465.554,345.968 479.381,332.14 " />
<polyline points="465.554,333.245 479.381,319.417 " />
<polyline points="465.554,320.522 479.381,306.694 " />
<polyline points="465.554,307.798 479.381,293.97 " />
<polyline points="465.554,295.075 479.381,281.247 " />
<polyline points="465.554,593.266 465.554,632.852 " />
<polyline points="465.554,625.883 479.381,612.055 " />
<polyline points="465.554,613.16 479.381,599.332 " />
<polyline points="465.554,600.436 479.381,586.608 " />
<polyline points="465.554,587.713 479.381,573.885 " />
<polyline points="465.554,574.989 479.381,561.161 " />
<polyline points="465.554,562.266 479.381,548.438 " />
<polyline points="465.554,549.543 479.381,535.715 " />
<polyline points="465.554,536.819 479.381,522.991 " />
<polyline points="465.554,524.096 474.722,514.927 " />
<polyline points="465.554,511.372 467.359,509.567 " />
<polyline points="423.679,7.52941 423.679,18.3256 " />
<polyline points="423.679,7.52941 430.363,7.52941 " />
<polyline points="423.679,12.6704 427.792,12.6704 " />
<polyline points="432.933,7.52941 432.933,18.3256 " />
<polyline points="432.933,7.52941 437.56,7.52941 439.102,8.04351 439.616,8.55762 440.13,9.58582 440.13,10.614 439.616,11.6422 439.102,12.1563 437.56,12.6704 432.933,12.6704 " />
<polyline points="436.532,12.6704 440.13,18.3256 " />
<polyline points="443.729,7.52941 443.729,18.3256 " />
<polyline points="443.729,7.52941 450.413,7.52941 " />
<polyline points="443.729,12.6704 447.842,12.6704 " />
<polyline points="443.729,18.3256 450.413,18.3256 " />
<polyline points="453.497,7.52941 453.497,18.3256 " />
<polyline points="453.497,7.52941 460.181,7.52941 " />
<polyline points="453.497,12.6704 457.61,12.6704 " />
<polyline points="453.497,18.3256 460.181,18.3256 " />
<polyline points="474.061,7.52941 474.061,18.3256 " />
<polyline points="474.061,7.52941 477.66,7.52941 479.202,8.04351 480.231,9.07172 480.745,10.0999 481.259,11.6422 481.259,14.2127 480.745,15.7551 480.231,16.7833 479.202,17.8115 477.66,18.3256 474.061,18.3256 " />
<polyline points="484.857,7.52941 484.857,18.3256 " />
<polyline points="495.654,9.07172 494.625,8.04351 493.083,7.52941 491.027,7.52941 489.484,8.04351 488.456,9.07172 488.456,10.0999 488.97,11.1281 489.484,11.6422 490.513,12.1563 493.597,13.1845 494.625,13.6986 495.139,14.2127 495.654,15.241 495.654,16.7833 494.625,17.8115 493.083,18.3256 491.027,18.3256 489.484,17.8115 488.456,16.7833 " />
<polyline points="506.45,10.0999 505.936,9.07172 504.907,8.04351 503.879,7.52941 501.823,7.52941 500.795,8.04351 499.766,9.07172 499.252,10.0999 498.738,11.6422 498.738,14.2127 499.252,15.7551 499.766,16.7833 500.795,17.8115 501.823,18.3256 503.879,18.3256 504.907,17.8115 505.936,16.7833 506.45,15.7551 " />
<polyline points="510.048,7.52941 510.048,18.3256 " />
<polyline points="517.246,7.52941 517.246,18.3256 " />
<polyline points="510.048,12.6704 517.246,12.6704 " />
<polyline points="523.929,7.52941 519.816,18.3256 " />
<polyline points="523.929,7.52941 528.042,18.3256 " />
<polyline points="521.359,14.7268 526.5,14.7268 " />
<polyline points="530.613,7.52941 530.613,18.3256 " />
<polyline points="530.613,7.52941 535.239,7.52941 536.782,8.04351 537.296,8.55762 537.81,9.58582 537.81,10.614 537.296,11.6422 536.782,12.1563 535.239,12.6704 530.613,12.6704 " />
<polyline points="534.211,12.6704 537.81,18.3256 " />
<polyline points="548.606,10.0999 548.092,9.07172 547.064,8.04351 546.036,7.52941 543.979,7.52941 542.951,8.04351 541.923,9.07172 541.409,10.0999 540.895,11.6422 540.895,14.2127 541.409,15.7551 541.923,16.7833 542.951,17.8115 543.979,18.3256 546.036,18.3256 547.064,17.8115 548.092,16.7833 548.606,15.7551 548.606,14.2127 " />
<polyline points="546.036,14.2127 548.606,14.2127 " />
<polyline points="552.205,7.52941 552.205,18.3256 " />
<polyline points="552.205,7.52941 558.888,7.52941 " />
<polyline points="552.205,12.6704 556.318,12.6704 " />
<polyline points="552.205,18.3256 558.888,18.3256 " />
<polyline points="314.566,341.017 308.374,349.861 " />
<polyline points="314.566,341.017 320.041,344.85 " />
<polyline points="311.617,345.228 314.986,347.587 " />
<polyline points="322.147,346.325 315.954,355.168 " />
<polyline points="322.147,346.325 325.937,348.979 326.905,350.284 327.031,351 326.863,352.138 326.273,352.98 325.262,353.527 324.546,353.653 322.988,353.19 319.198,350.536 " />
<polyline points="322.146,352.6 321.85,359.297 " />
<polyline points="330.99,352.517 324.798,361.361 " />
<polyline points="330.99,352.517 336.465,356.351 " />
<polyline points="328.041,356.728 331.41,359.087 " />
<polyline points="324.798,361.361 330.272,365.194 " />
<polyline points="338.992,358.12 332.799,366.964 " />
<polyline points="338.992,358.12 344.466,361.953 " />
<polyline points="336.043,362.331 339.412,364.69 " />
<polyline points="332.799,366.964 338.274,370.797 " />
<polyline points="355.837,369.915 349.644,378.759 " />
<polyline points="355.837,369.915 358.785,371.979 359.753,373.285 360.006,374.717 359.837,375.854 359.374,377.412 357.899,379.518 356.593,380.486 355.583,381.034 354.151,381.286 352.592,380.823 349.644,378.759 " />
<polyline points="364.68,376.107 358.488,384.951 " />
<polyline points="372.64,383.563 372.387,382.131 371.419,380.825 369.734,379.646 368.176,379.182 366.744,379.435 366.154,380.277 365.985,381.414 366.112,382.13 366.659,383.141 368.596,385.753 369.143,386.764 369.27,387.48 369.101,388.617 368.216,389.88 366.784,390.133 365.226,389.669 363.542,388.49 362.573,387.184 362.321,385.752 " />
<polyline points="380.893,390.598 381.062,389.461 380.81,388.029 380.262,387.018 378.578,385.838 377.441,385.67 376.009,385.922 374.998,386.47 373.692,387.438 372.218,389.544 371.754,391.102 371.585,392.239 371.838,393.671 372.385,394.682 374.07,395.861 375.207,396.03 376.639,395.778 377.65,395.23 " />
<polyline points="385.316,390.556 379.123,399.4 " />
<polyline points="391.212,394.685 385.019,403.528 " />
<polyline points="382.367,394.768 388.263,398.896 " />
<polyline points="396.686,398.518 387.125,405.003 " />
<polyline points="396.686,398.518 393.863,409.721 " />
<polyline points="390.452,402.939 394.664,405.888 " />
<polyline points="402.161,402.351 395.968,411.195 " />
<polyline points="402.161,402.351 405.951,405.005 406.92,406.311 407.046,407.027 406.877,408.164 406.287,409.006 405.277,409.554 404.561,409.68 403.002,409.217 399.212,406.563 " />
<polyline points="402.16,408.627 401.864,415.323 " />
<polyline points="415.426,414.778 415.595,413.641 415.342,412.209 414.795,411.198 413.11,410.018 411.973,409.85 410.541,410.102 409.53,410.649 408.224,411.618 406.75,413.724 406.287,415.282 406.118,416.419 406.37,417.851 406.918,418.862 408.602,420.041 409.739,420.21 411.171,419.958 412.182,419.41 413.067,418.147 " />
<polyline points="410.961,416.672 413.067,418.147 " />
<polyline points="419.848,414.736 413.656,423.58 " />
<polyline points="419.848,414.736 425.323,418.57 " />
<polyline points="416.899,418.948 420.269,421.307 " />
<polyline points="413.656,423.58 419.131,427.413 " />
</g>
<g clip-path="url(#clipId0)" fill="rgb(0,0,0)" stroke="rgb(0,0,0)" stroke-width="0.25" >
<path d="M417.493,291.804 421.092,291.804 419.293,281.008 419.293,281.008 z" />
</g>
<g clip-path="url(#clipId0)" fill="none" stroke="rgb(0,0,0)" stroke-width="0.25" >
<polyline points="397.519,320.942 401.632,331.739 " />
<polyline points="405.745,320.942 401.632,331.739 " />
<polyline points="419.293,291.804 419.293,381.575 " />
<polyline points="401.544,604.256 404.115,615.052 " />
<polyline points="406.685,604.256 404.115,615.052 " />
<polyline points="406.685,604.256 409.256,615.052 " />
<polyline points="411.826,604.256 409.256,615.052 " />
<polyline points="414.911,604.256 414.911,615.052 " />
<polyline points="419.024,604.256 419.024,615.052 " />
<polyline points="419.024,604.256 426.221,615.052 " />
<polyline points="426.221,604.256 426.221,615.052 " />
<polyline points="430.334,604.256 430.334,615.052 " />
<polyline points="430.334,604.256 433.932,604.256 435.475,604.77 436.503,605.798 437.017,606.827 437.531,608.369 437.531,610.939 437.017,612.482 436.503,613.51 435.475,614.538 433.932,615.052 430.334,615.052 " />
<polyline points="649.503,746.898 647.995,745.39 645.733,744.636 642.717,744.636 640.455,745.39 638.947,746.898 638.947,748.406 639.701,749.914 640.455,750.668 641.963,751.422 646.487,752.93 647.995,753.684 648.749,754.438 649.503,755.946 649.503,758.209 647.995,759.717 645.733,760.471 642.717,760.471 640.455,759.717 638.947,758.209 " />
<polyline points="654.782,744.636 654.782,760.471 " />
<polyline points="654.782,744.636 660.06,744.636 662.322,745.39 663.83,746.898 664.584,748.406 665.338,750.668 665.338,754.438 664.584,756.701 663.83,758.209 662.322,759.717 660.06,760.471 654.782,760.471 " />
<polyline points="670.616,748.406 670.616,747.652 671.37,746.144 672.124,745.39 673.632,744.636 676.648,744.636 678.156,745.39 678.91,746.144 679.664,747.652 679.664,749.16 678.91,750.668 677.402,752.93 669.862,760.471 680.418,760.471 " />
<polyline points="685.696,753.684 699.269,753.684 " />
<polyline points="705.301,748.406 705.301,747.652 706.055,746.144 706.809,745.39 708.317,744.636 711.333,744.636 712.841,745.39 713.595,746.144 714.349,747.652 714.349,749.16 713.595,750.668 712.087,752.93 704.547,760.471 715.103,760.471 " />
</g>
</svg>
