<?xml version="1.0" standalone="no"?>
<svg viewBox="0 0 1024 768" version="1.1" xmlns="http://www.w3.org/2000/svg" xmlns:xlink="http://www.w3.org/1999/xlink" stroke-linecap="round" stroke-linejoin="round" fill-rule="evenodd" xml:space="preserve" >
<defs >
<clipPath id="clipId0" >
<path d="M0,768 1024,768 1024,0 0,0 z" />
</clipPath>
</defs>
<g clip-path="url(#clipId0)" fill="none" stroke="rgb(0,0,0)" stroke-width="0.1" />
<g clip-path="url(#clipId0)" fill="none" stroke="rgb(0,0,0)" stroke-width="0.25" >
<path d="M313.312,594.798  A22.4773,22.4773 0 0,0 350.237,594.798 " />
<path d="M350.237,594.798  A25.8259,25.8259 0 0,0 313.312,594.798 " />
<path d="M276.386,594.798  A22.4773,22.4773 0 0,0 313.312,594.798 " />
<polyline points="357.623,69.3498 357.623,455.663 " stroke-dasharray="19.725616,9.862808" />
<polyline points="276.435,594.798 276.435,455.663 " />
<polyline points="261.565,455.663 365.058,455.663 " />
<polyline points="261.565,69.3498 365.058,69.3498 " />
<polyline points="261.565,455.663 261.565,69.3498 " />
<polyline points="365.058,69.3498 365.058,455.663 " />
<polyline points="269,455.663 269,69.3498 " stroke-dasharray="19.725616,9.862808" />
<polyline points="350.188,455.663 350.188,594.798 " />
<polyline points="283.871,594.798 283.871,416.074 " stroke-dasharray="19.725616,9.862808" />
<polyline points="342.753,416.074 342.753,594.798 " stroke-dasharray="19.725616,9.862808" />
</g>
<g clip-path="url(#clipId0)" fill="rgb(0,0,0)" stroke="rgb(0,0,0)" stroke-width="0.25" >
<path d="M310.125,42.2236 316.498,42.2236 313.312,23.105 313.312,23.105 z" />
</g>
<g clip-path="url(#clipId0)" fill="none" stroke="rgb(0,0,0)" stroke-width="0.25" >
<polyline points="313.312,42.2236 313.312,161.365 " />
<polyline points="310.462,178.249 310.462,194.181 " />
<polyline points="310.462,178.249 315.773,178.249 318.049,179.007 319.566,180.525 320.325,182.042 321.083,184.318 321.083,188.111 320.325,190.387 319.566,191.905 318.049,193.422 315.773,194.181 310.462,194.181 " />
<polyline points="302.953,117.834 301.436,118.593 299.918,120.11 299.16,122.386 299.16,123.904 299.918,126.18 301.436,127.697 302.953,128.456 305.229,128.456 306.747,127.697 308.264,126.18 309.023,123.904 309.023,122.386 308.264,120.11 306.747,118.593 305.229,117.834 302.953,117.834 " />
<polyline points="371.696,69.3498 424.079,69.3498 " />
<polyline points="364.261,416.074 424.079,416.074 " />
<polyline points="404.96,88.4685 404.96,213.709 " />
<polyline points="404.96,396.955 404.96,267.879 " />
</g>
<g clip-path="url(#clipId0)" fill="rgb(0,0,0)" stroke="rgb(0,0,0)" stroke-width="0.25" >
<path d="M408.147,88.4685 401.774,88.4685 404.96,69.3498 404.96,69.3498 z" />
<path d="M408.147,396.955 401.774,396.955 404.96,416.074 404.96,416.074 z" />
</g>
<g clip-path="url(#clipId0)" fill="none" stroke="rgb(0,0,0)" stroke-width="0.25" >
<polyline points="401.546,232.828 393.959,243.449 405.34,243.449 " />
<polyline points="401.546,232.828 401.546,248.76 " />
<polyline points="409.892,232.828 409.892,248.76 " />
<polyline points="409.892,232.828 415.202,232.828 417.478,233.587 418.996,235.104 419.755,236.621 420.513,238.897 420.513,242.691 419.755,244.967 418.996,246.484 417.478,248.001 415.202,248.76 409.892,248.76 " />
</g>
<g clip-path="url(#clipId0)" fill="none" stroke="rgb(0,0,0)" stroke-width="0.1" >
<polyline points="365.058,69.3498 365.058,69.3498 " />
<polyline points="357.623,416.074 357.623,416.074 " />
<polyline points="404.96,416.074 404.96,416.074 " />
<polyline points="350.188,416.074 350.188,416.074 " />
<polyline points="365.058,455.663 365.058,455.663 " />
</g>
<g clip-path="url(#clipId0)" fill="rgb(0,0,0)" stroke="rgb(0,0,0)" stroke-width="0.25" >
<path d="M338.305,184.417 338.305,190.79 357.424,187.604 357.424,187.604 z" />
</g>
<g clip-path="url(#clipId0)" fill="none" stroke="rgb(0,0,0)" stroke-width="0.25" >
<polyline points="325.034,187.604 357.424,187.604 " />
<polyline points="288.012,187.604 303.442,187.604 " />
</g>
<g clip-path="url(#clipId0)" fill="rgb(0,0,0)" stroke="rgb(0,0,0)" stroke-width="0.25" >
<path d="M288.012,190.79 288.012,184.417 268.893,187.604 268.893,187.604 z" />
</g>
<g clip-path="url(#clipId0)" fill="none" stroke="rgb(0,0,0)" stroke-width="0.25" >
<polyline points="324.944,106.955 323.426,107.714 321.909,109.231 321.15,110.749 320.391,113.025 320.391,116.818 321.15,119.094 321.909,120.612 323.426,122.129 324.944,122.888 327.978,122.888 329.496,122.129 331.013,120.612 331.772,119.094 332.53,116.818 332.53,113.025 331.772,110.749 331.013,109.231 329.496,107.714 327.978,106.955 324.944,106.955 " />
<polyline points="327.22,119.853 331.772,124.405 " />
<polyline points="319.325,7.52941 325.394,23.4616 " />
<polyline points="331.464,7.52941 325.394,23.4616 " />
<polyline points="334.498,17.3922 343.602,17.3922 343.602,15.8749 342.844,14.3575 342.085,13.5988 340.568,12.8402 338.292,12.8402 336.774,13.5988 335.257,15.1162 334.498,17.3922 334.498,18.9096 335.257,21.1856 336.774,22.703 338.292,23.4616 340.568,23.4616 342.085,22.703 343.602,21.1856 " />
<polyline points="288.668,107.084 282.598,123.016 " />
<polyline points="288.668,107.084 294.737,123.016 " />
<polyline points="284.874,117.705 292.461,117.705 " />
<polyline points="255.934,668.131 255.934,684.063 " />
<polyline points="255.934,668.131 261.244,668.131 263.52,668.889 265.038,670.407 265.796,671.924 266.555,674.2 266.555,677.993 265.796,680.269 265.038,681.787 263.52,683.304 261.244,684.063 255.934,684.063 " />
<polyline points="271.107,677.993 280.211,677.993 280.211,676.476 279.453,674.959 278.694,674.2 277.177,673.441 274.901,673.441 273.383,674.2 271.866,675.717 271.107,677.993 271.107,679.511 271.866,681.787 273.383,683.304 274.901,684.063 277.177,684.063 278.694,683.304 280.211,681.787 " />
<polyline points="297.661,665.096 284.005,689.374 " />
<polyline points="302.213,668.131 302.213,684.063 " />
<polyline points="302.213,668.131 307.524,668.131 309.8,668.889 311.317,670.407 312.076,671.924 312.834,674.2 312.834,677.993 312.076,680.269 311.317,681.787 309.8,683.304 307.524,684.063 302.213,684.063 " />
<polyline points="367.459,671.165 368.977,670.407 371.253,668.131 371.253,684.063 " />
<polyline points="264.813,542.643 245.695,542.643 " />
<polyline points="361.872,542.643 380.991,542.643 " />
</g>
<g clip-path="url(#clipId0)" fill="rgb(0,0,0)" stroke="rgb(0,0,0)" stroke-width="0.25" >
<path d="M264.813,539.456 264.813,545.829 283.932,542.643 283.932,542.643 z" />
<path d="M361.872,539.456 361.872,545.829 342.754,542.643 342.754,542.643 z" />
</g>
<g clip-path="url(#clipId0)" fill="none" stroke="rgb(0,0,0)" stroke-width="0.25" >
<polyline points="413.259,534.017 413.259,549.949 " />
<polyline points="413.259,534.017 418.57,534.017 420.846,534.775 422.364,536.293 423.122,537.81 423.881,540.086 423.881,543.879 423.122,546.156 422.364,547.673 420.846,549.19 418.57,549.949 413.259,549.949 " />
<polyline points="429.192,543.121 442.848,543.121 " />
<polyline points="450.435,537.051 451.952,536.293 454.228,534.017 454.228,549.949 " />
<polyline points="479.264,534.775 480.023,535.534 480.782,534.775 480.023,534.017 479.264,534.775 " />
<polyline points="480.023,540.086 480.023,549.949 " />
<polyline points="486.092,539.327 486.092,549.949 " />
<polyline points="486.092,542.362 488.368,540.086 489.886,539.327 492.162,539.327 493.679,540.086 494.438,542.362 494.438,549.949 " />
<polyline points="501.266,548.432 500.507,549.19 501.266,549.949 502.025,549.19 501.266,548.432 " />
<polyline points="529.337,530.982 527.82,532.499 526.302,534.775 524.785,537.81 524.026,541.603 524.026,544.638 524.785,548.432 526.302,551.466 527.82,553.742 529.337,555.26 " />
<polyline points="534.648,537.81 534.648,537.051 535.406,535.534 536.165,534.775 537.683,534.017 540.717,534.017 542.235,534.775 542.993,535.534 543.752,537.051 543.752,538.569 542.993,540.086 541.476,542.362 533.889,549.949 544.511,549.949 " />
<polyline points="558.167,534.017 550.58,534.017 549.821,540.845 550.58,540.086 552.856,539.327 555.132,539.327 557.408,540.086 558.925,541.603 559.684,543.879 559.684,545.397 558.925,547.673 557.408,549.19 555.132,549.949 552.856,549.949 550.58,549.19 549.821,548.432 549.063,546.914 " />
<polyline points="580.927,539.327 580.927,549.949 " />
<polyline points="580.927,542.362 583.203,540.086 584.721,539.327 586.997,539.327 588.514,540.086 589.273,542.362 589.273,549.949 " />
<polyline points="589.273,542.362 591.549,540.086 593.066,539.327 595.342,539.327 596.859,540.086 597.618,542.362 597.618,549.949 " />
<polyline points="603.687,539.327 603.687,549.949 " />
<polyline points="603.687,542.362 605.963,540.086 607.481,539.327 609.757,539.327 611.274,540.086 612.033,542.362 612.033,549.949 " />
<polyline points="612.033,542.362 614.309,540.086 615.826,539.327 618.102,539.327 619.62,540.086 620.378,542.362 620.378,549.949 " />
<polyline points="625.689,530.982 627.206,532.499 628.724,534.775 630.241,537.81 631,541.603 631,544.638 630.241,548.432 628.724,551.466 627.206,553.742 625.689,555.26 " />
<polyline points="328.123,671.98 342.77,671.98 " />
<polyline points="328.123,678.235 342.96,678.235 " />
<polyline points="276.435,452.742 276.435,416.074 " stroke-dasharray="19.725616,9.862808" />
<polyline points="350.188,416.074 350.188,452.742 " stroke-dasharray="19.725616,9.862808" />
<polyline points="276.435,416.074 350.188,416.074 " stroke-dasharray="19.725616,9.862808" />
<polyline points="371.696,416.074 424.079,416.074 " />
<polyline points="371.696,455.663 424.079,455.663 " />
<polyline points="404.96,396.955 404.96,377.836 " />
<polyline points="404.96,474.782 404.96,493.901 " />
<polyline points="424.079,493.901 404.96,493.901 " />
</g>
<g clip-path="url(#clipId0)" fill="rgb(0,0,0)" stroke="rgb(0,0,0)" stroke-width="0.25" >
<path d="M401.774,396.955 408.147,396.955 404.96,416.074 404.96,416.074 z" />
<path d="M401.774,474.782 408.147,474.782 404.96,455.663 404.96,455.663 z" />
</g>
<g clip-path="url(#clipId0)" fill="none" stroke="rgb(0,0,0)" stroke-width="0.25" >
<polyline points="453.838,488.224 453.079,486.707 450.803,485.948 449.286,485.948 447.01,486.707 445.492,488.983 444.734,492.776 444.734,496.57 445.492,499.604 447.01,501.122 449.286,501.88 450.045,501.88 452.321,501.122 453.838,499.604 454.597,497.328 454.597,496.57 453.838,494.294 452.321,492.776 450.045,492.018 449.286,492.018 447.01,492.776 445.492,494.294 444.734,496.57 " />
<polyline points="475.081,486.707 475.84,487.465 476.598,486.707 475.84,485.948 475.081,486.707 " />
<polyline points="475.84,492.018 475.84,501.88 " />
<polyline points="481.909,491.259 481.909,501.88 " />
<polyline points="481.909,494.294 484.185,492.018 485.702,491.259 487.978,491.259 489.496,492.018 490.254,494.294 490.254,501.88 " />
<polyline points="497.083,500.363 496.324,501.122 497.083,501.88 497.841,501.122 497.083,500.363 " />
<polyline points="525.154,482.913 523.636,484.431 522.119,486.707 520.602,489.741 519.843,493.535 519.843,496.57 520.602,500.363 522.119,503.398 523.636,505.674 525.154,507.191 " />
<polyline points="531.982,488.983 533.499,488.224 535.775,485.948 535.775,501.88 " />
<polyline points="553.983,485.948 546.397,485.948 545.638,492.776 546.397,492.018 548.673,491.259 550.949,491.259 553.225,492.018 554.742,493.535 555.501,495.811 555.501,497.328 554.742,499.604 553.225,501.122 550.949,501.88 548.673,501.88 546.397,501.122 545.638,500.363 544.879,498.846 " />
<polyline points="564.605,485.948 562.329,486.707 560.811,488.983 560.053,492.776 560.053,495.052 560.811,498.846 562.329,501.122 564.605,501.88 566.122,501.88 568.398,501.122 569.916,498.846 570.674,495.052 570.674,492.776 569.916,488.983 568.398,486.707 566.122,485.948 564.605,485.948 " />
<polyline points="591.917,491.259 591.917,501.88 " />
<polyline points="591.917,494.294 594.193,492.018 595.711,491.259 597.987,491.259 599.504,492.018 600.263,494.294 600.263,501.88 " />
<polyline points="600.263,494.294 602.539,492.018 604.056,491.259 606.332,491.259 607.849,492.018 608.608,494.294 608.608,501.88 " />
<polyline points="614.677,491.259 614.677,501.88 " />
<polyline points="614.677,494.294 616.954,492.018 618.471,491.259 620.747,491.259 622.264,492.018 623.023,494.294 623.023,501.88 " />
<polyline points="623.023,494.294 625.299,492.018 626.816,491.259 629.092,491.259 630.61,492.018 631.368,494.294 631.368,501.88 " />
<polyline points="636.679,482.913 638.196,484.431 639.714,486.707 641.231,489.741 641.99,493.535 641.99,496.57 641.231,500.363 639.714,503.398 638.196,505.674 636.679,507.191 " />
<polyline points="313.312,210.962 313.312,623.571 " stroke-dasharray="98.628079,19.725616,19.725616,19.725616" />
<polyline points="667.668,737.58 665.125,735.037 661.31,733.765 656.223,733.765 652.408,735.037 649.865,737.58 649.865,740.124 651.136,742.667 652.408,743.939 654.951,745.21 662.582,747.754 665.125,749.025 666.397,750.297 667.668,752.84 667.668,756.656 665.125,759.199 661.31,760.471 656.223,760.471 652.408,759.199 649.865,756.656 " />
<polyline points="676.57,733.765 676.57,760.471 " />
<polyline points="676.57,733.765 685.472,733.765 689.287,735.037 691.83,737.58 693.102,740.124 694.374,743.939 694.374,750.297 693.102,754.112 691.83,756.656 689.287,759.199 685.472,760.471 676.57,760.471 " />
<polyline points="703.276,740.124 703.276,738.852 704.547,736.309 705.819,735.037 708.362,733.765 713.449,733.765 715.992,735.037 717.264,736.309 718.536,738.852 718.536,741.395 717.264,743.939 714.721,747.754 702.004,760.471 719.808,760.471 " />
<polyline points="728.709,749.025 751.6,749.025 " />
<polyline points="777.033,737.58 775.762,735.037 771.947,733.765 769.403,733.765 765.588,735.037 763.045,738.852 761.773,745.21 761.773,751.569 763.045,756.656 765.588,759.199 769.403,760.471 770.675,760.471 774.49,759.199 777.033,756.656 778.305,752.84 778.305,751.569 777.033,747.754 774.49,745.21 770.675,743.939 769.403,743.939 765.588,745.21 763.045,747.754 761.773,751.569 " />
</g>
</svg>
