<?xml version="1.0" standalone="no"?>
<svg viewBox="0 0 1024 768" version="1.1" xmlns="http://www.w3.org/2000/svg" xmlns:xlink="http://www.w3.org/1999/xlink" stroke-linecap="round" stroke-linejoin="round" fill-rule="evenodd" xml:space="preserve" >
<defs >
<clipPath id="clipId0" >
<path d="M0,768 1024,768 1024,0 0,0 z" />
</clipPath>
</defs>
<g clip-path="url(#clipId0)" fill="none" stroke="rgb(0,0,0)" stroke-width="0.1" />
<g clip-path="url(#clipId0)" fill="none" stroke="rgb(0,0,0)" stroke-width="0.25" >
<polyline points="359.233,556.124 359.233,196.751 " />
<polyline points="359.233,196.751 443.665,196.751 " />
<polyline points="443.665,196.751 443.665,556.124 " />
<polyline points="379.471,55.5198 359.233,196.751 " />
<polyline points="423.426,55.5198 443.665,196.751 " />
<polyline points="379.471,55.5198 423.426,55.5198 " />
<path d="M359.233,556.124  A25.6976,25.6976 0 0,0 401.449,556.124 " />
<path d="M443.665,556.124  A29.526,29.526 0 0,0 401.449,556.124 " />
<path d="M401.449,556.124  A25.6976,25.6976 0 0,0 443.665,556.124 " />
<polyline points="403.861,273.225 403.861,378.827 " />
</g>
<g clip-path="url(#clipId0)" fill="rgb(0,0,0)" stroke="rgb(0,0,0)" stroke-width="0.25" >
<path d="M400.825,273.225 406.897,273.225 403.861,255.01 403.861,255.01 z" />
</g>
<g clip-path="url(#clipId0)" fill="none" stroke="rgb(0,0,0)" stroke-width="0.25" >
<polyline points="390.251,325.667 388.805,326.389 387.36,327.835 386.637,330.004 386.637,331.449 387.36,333.618 388.805,335.063 390.251,335.786 392.419,335.786 393.865,335.063 395.311,333.618 396.033,331.449 396.033,330.004 395.311,327.835 393.865,326.389 392.419,325.667 390.251,325.667 " />
<polyline points="412.617,466.408 443.475,466.408 " />
<polyline points="377.345,466.408 392.045,466.408 " />
<polyline points="397.081,459.512 397.081,474.691 " />
<polyline points="397.081,459.512 402.141,459.512 404.31,460.235 405.755,461.68 406.478,463.126 407.201,465.294 407.201,468.908 406.478,471.077 405.755,472.523 404.31,473.968 402.141,474.691 397.081,474.691 " />
</g>
<g clip-path="url(#clipId0)" fill="rgb(0,0,0)" stroke="rgb(0,0,0)" stroke-width="0.25" >
<path d="M377.345,469.444 377.345,463.372 359.13,466.408 359.13,466.408 z" />
<path d="M425.26,463.372 425.26,469.444 443.475,466.408 443.475,466.408 z" />
<path d="M416.701,139.347 416.701,145.418 434.916,142.383 434.916,142.383 z" />
<path d="M385.293,145.418 385.293,139.347 367.078,142.383 367.078,142.383 z" />
</g>
<g clip-path="url(#clipId0)" fill="none" stroke="rgb(0,0,0)" stroke-width="0.25" >
<polyline points="367.024,142.383 434.916,142.383 " />
<polyline points="452.476,133.546 450.308,134.269 449.585,135.714 449.585,137.16 450.308,138.606 451.753,139.328 454.644,140.051 456.813,140.774 458.258,142.22 458.981,143.665 458.981,145.834 458.258,147.279 457.536,148.002 455.367,148.725 452.476,148.725 450.308,148.002 449.585,147.279 448.862,145.834 448.862,143.665 449.585,142.22 451.03,140.774 453.199,140.051 456.09,139.328 457.536,138.606 458.258,137.16 458.258,135.714 457.536,134.269 455.367,133.546 452.476,133.546 " />
<polyline points="464.041,142.22 477.051,142.22 " />
<polyline points="484.28,136.437 485.725,135.714 487.894,133.546 487.894,148.725 " />
<polyline points="505.964,135.714 505.241,134.269 503.073,133.546 501.627,133.546 499.458,134.269 498.013,136.437 497.29,140.051 497.29,143.665 498.013,146.556 499.458,148.002 501.627,148.725 502.35,148.725 504.518,148.002 505.964,146.556 506.687,144.388 506.687,143.665 505.964,141.497 504.518,140.051 502.35,139.328 501.627,139.328 499.458,140.051 498.013,141.497 497.29,143.665 " />
<circle cx="463.497" cy="133.33" r="3.05663" />
<polyline points="379.471,50.3714 379.471,7.52941 " />
<polyline points="423.426,50.3714 423.426,7.52941 " />
<polyline points="379.471,18.2133 423.426,18.2133 " />
</g>
<g clip-path="url(#clipId0)" fill="rgb(0,0,0)" stroke="rgb(0,0,0)" stroke-width="0.25" >
<path d="M405.403,15.1775 405.403,21.2491 423.617,18.2133 423.617,18.2133 z" />
<path d="M397.781,21.2491 397.781,15.1775 379.566,18.2133 379.566,18.2133 z" />
</g>
<g clip-path="url(#clipId0)" fill="none" stroke="rgb(0,0,0)" stroke-width="0.25" >
<polyline points="379.471,18.2133 365.672,18.2133 " />
<polyline points="420.646,317.517 419.201,318.24 417.755,319.685 417.032,321.131 416.31,323.299 416.31,326.913 417.032,329.082 417.755,330.527 419.201,331.973 420.646,332.696 423.538,332.696 424.983,331.973 426.429,330.527 427.152,329.082 427.874,326.913 427.874,323.299 427.152,321.131 426.429,319.685 424.983,318.24 423.538,317.517 420.646,317.517 " />
<polyline points="422.815,329.805 427.152,334.142 " />
<polyline points="328.937,12.1541 328.937,27.3331 " />
<polyline points="328.937,12.1541 333.997,12.1541 336.165,12.877 337.611,14.3226 338.334,15.7682 339.057,17.9366 339.057,21.5506 338.334,23.7191 337.611,25.1647 336.165,26.6103 333.997,27.3331 328.937,27.3331 " />
<polyline points="343.393,21.5506 352.067,21.5506 352.067,20.105 351.344,18.6594 350.622,17.9366 349.176,17.2138 347.007,17.2138 345.562,17.9366 344.116,19.3822 343.393,21.5506 343.393,22.9962 344.116,25.1647 345.562,26.6103 347.007,27.3331 349.176,27.3331 350.622,26.6103 352.067,25.1647 " />
<polyline points="376.225,315.126 370.442,330.305 " />
<polyline points="376.225,315.126 382.007,330.305 " />
<polyline points="372.611,325.245 379.839,325.245 " />
<polyline points="330.663,624.271 330.663,639.45 " />
<polyline points="330.663,624.271 335.723,624.271 337.891,624.994 339.337,626.44 340.06,627.885 340.783,630.054 340.783,633.668 340.06,635.836 339.337,637.282 337.891,638.727 335.723,639.45 330.663,639.45 " />
<polyline points="345.119,633.668 353.793,633.668 353.793,632.222 353.07,630.776 352.347,630.054 350.902,629.331 348.733,629.331 347.288,630.054 345.842,631.499 345.119,633.668 345.119,635.113 345.842,637.282 347.288,638.727 348.733,639.45 350.902,639.45 352.347,638.727 353.793,637.282 " />
<polyline points="370.418,621.38 357.407,644.51 " />
<polyline points="374.754,624.271 374.754,639.45 " />
<polyline points="374.754,624.271 379.814,624.271 381.983,624.994 383.428,626.44 384.151,627.885 384.874,630.054 384.874,633.668 384.151,635.836 383.428,637.282 381.983,638.727 379.814,639.45 374.754,639.45 " />
<polyline points="416.677,626.44 405.112,632.945 416.677,639.45 " />
<polyline points="439.084,627.162 440.53,626.44 442.698,624.271 442.698,639.45 " />
<polyline points="452.818,638.004 452.095,638.727 452.818,639.45 453.54,638.727 452.818,638.004 " />
<polyline points="462.937,624.271 460.769,624.994 459.323,627.162 458.6,630.776 458.6,632.945 459.323,636.559 460.769,638.727 462.937,639.45 464.383,639.45 466.551,638.727 467.997,636.559 468.719,632.945 468.719,630.776 467.997,627.162 466.551,624.994 464.383,624.271 462.937,624.271 " />
<circle cx="511.574" cy="133.33" r="3.05663" />
<polyline points="589.657,738.662 587.234,736.239 583.599,735.028 578.753,735.028 575.118,736.239 572.695,738.662 572.695,741.086 573.906,743.509 575.118,744.72 577.541,745.932 584.811,748.355 587.234,749.567 588.445,750.778 589.657,753.201 589.657,756.836 587.234,759.259 583.599,760.471 578.753,760.471 575.118,759.259 572.695,756.836 " />
<polyline points="598.138,735.028 598.138,760.471 " />
<polyline points="598.138,735.028 606.619,735.028 610.253,736.239 612.676,738.662 613.888,741.086 615.1,744.72 615.1,750.778 613.888,754.413 612.676,756.836 610.253,759.259 606.619,760.471 598.138,760.471 " />
<polyline points="623.581,741.086 623.581,739.874 624.792,737.451 626.004,736.239 628.427,735.028 633.273,735.028 635.696,736.239 636.908,737.451 638.119,739.874 638.119,742.297 636.908,744.72 634.485,748.355 622.369,760.471 639.331,760.471 " />
<polyline points="647.812,749.567 669.62,749.567 " />
<polyline points="695.063,735.028 682.947,760.471 " />
<polyline points="678.101,735.028 695.063,735.028 " />
</g>
</svg>
