<?xml version="1.0" standalone="no"?>
<svg viewBox="0 0 1024 768" version="1.1" xmlns="http://www.w3.org/2000/svg" xmlns:xlink="http://www.w3.org/1999/xlink" stroke-linecap="round" stroke-linejoin="round" fill-rule="evenodd" xml:space="preserve" >
<defs >
<clipPath id="clipId0" >
<path d="M0,768 1024,768 1024,0 0,0 z" />
</clipPath>
</defs>
<g clip-path="url(#clipId0)" fill="none" stroke="rgb(0,0,0)" stroke-width="0.1" />
<g clip-path="url(#clipId0)" fill="none" stroke="rgb(0,0,0)" stroke-width="0.25" >
<polyline points="39.5562,121.018 601.518,121.018 " />
<polyline points="601.518,307.395 39.5562,307.395 " />
<path d="M39.5562,121.018  A51.5342,51.5342 0 0,0 39.5562,214.206 " />
<path d="M39.5562,307.395  A49.7116,49.7116 0 0,0 39.5562,214.206 " />
<path d="M39.5562,214.206  A51.5342,51.5342 0 0,0 39.5562,307.395 " />
</g>
<g clip-path="url(#clipId0)" fill="rgb(0,0,0)" stroke="rgb(0,0,0)" stroke-width="0.25" >
<path d="M292.099,210.569 292.099,217.844 313.926,214.206 313.926,214.206 z" />
</g>
<g clip-path="url(#clipId0)" fill="none" stroke="rgb(0,0,0)" stroke-width="0.25" >
<polyline points="292.099,214.206 109.261,214.206 " />
<polyline points="204.262,254.75 202.183,255.789 200.104,257.868 199.065,260.986 199.065,263.065 200.104,266.183 202.183,268.262 204.262,269.301 207.38,269.301 209.459,268.262 211.538,266.183 212.577,263.065 212.577,260.986 211.538,257.868 209.459,255.789 207.38,254.75 204.262,254.75 " />
<polyline points="177.55,176.218 175.471,177.257 173.393,179.336 172.353,181.414 171.314,184.533 171.314,189.729 172.353,192.848 173.393,194.926 175.471,197.005 177.55,198.045 181.708,198.045 183.786,197.005 185.865,194.926 186.905,192.848 187.944,189.729 187.944,184.533 186.905,181.414 185.865,179.336 183.786,177.257 181.708,176.218 177.55,176.218 " />
<polyline points="180.668,193.887 186.905,200.123 " />
<polyline points="370.177,205.087 370.177,226.914 " />
<polyline points="370.177,205.087 377.453,205.087 380.571,206.126 382.65,208.205 383.689,210.284 384.729,213.402 384.729,218.599 383.689,221.717 382.65,223.796 380.571,225.875 377.453,226.914 370.177,226.914 " />
</g>
<g clip-path="url(#clipId0)" fill="rgb(0,0,0)" stroke="rgb(0,0,0)" stroke-width="0.25" >
<path d="M372.789,142.845 380.064,142.845 376.427,121.018 376.427,121.018 z" />
</g>
<g clip-path="url(#clipId0)" fill="none" stroke="rgb(0,0,0)" stroke-width="0.25" >
<polyline points="376.427,142.845 376.427,197.263 " />
</g>
<g clip-path="url(#clipId0)" fill="rgb(0,0,0)" stroke="rgb(0,0,0)" stroke-width="0.25" >
<path d="M380.064,285.568 372.789,285.568 376.427,307.395 376.427,307.395 z" />
</g>
<g clip-path="url(#clipId0)" fill="none" stroke="rgb(0,0,0)" stroke-width="0.25" >
<polyline points="376.427,285.568 376.427,235.386 " />
<polyline points="181.887,231.6 173.572,253.427 " />
<polyline points="181.887,231.6 190.203,253.427 " />
<polyline points="176.691,246.151 187.084,246.151 " />
<polyline points="735.548,203.002 735.548,224.829 " />
<polyline points="735.548,203.002 749.06,203.002 " />
<polyline points="735.548,213.395 743.863,213.395 " />
<polyline points="754.257,203.002 754.257,224.829 " />
<polyline points="754.257,203.002 763.612,203.002 766.73,204.041 767.769,205.08 768.808,207.159 768.808,209.238 767.769,211.317 766.73,212.356 763.612,213.395 754.257,213.395 " />
<polyline points="761.533,213.395 768.808,224.829 " />
<polyline points="776.084,203.002 776.084,224.829 " />
<polyline points="776.084,203.002 789.596,203.002 " />
<polyline points="776.084,213.395 784.399,213.395 " />
<polyline points="776.084,224.829 789.596,224.829 " />
<polyline points="795.832,203.002 795.832,224.829 " />
<polyline points="795.832,203.002 809.344,203.002 " />
<polyline points="795.832,213.395 804.147,213.395 " />
<polyline points="795.832,224.829 809.344,224.829 " />
<polyline points="837.408,203.002 837.408,224.829 " />
<polyline points="837.408,203.002 844.683,203.002 847.801,204.041 849.88,206.12 850.92,208.199 851.959,211.317 851.959,216.514 850.92,219.632 849.88,221.711 847.801,223.789 844.683,224.829 837.408,224.829 " />
<polyline points="859.235,203.002 859.235,224.829 " />
<polyline points="881.062,206.12 878.983,204.041 875.865,203.002 871.707,203.002 868.589,204.041 866.51,206.12 866.51,208.199 867.55,210.277 868.589,211.317 870.668,212.356 876.904,214.435 878.983,215.474 880.022,216.514 881.062,218.592 881.062,221.711 878.983,223.789 875.865,224.829 871.707,224.829 868.589,223.789 866.51,221.711 " />
<polyline points="902.889,208.199 901.849,206.12 899.771,204.041 897.692,203.002 893.534,203.002 891.455,204.041 889.377,206.12 888.337,208.199 887.298,211.317 887.298,216.514 888.337,219.632 889.377,221.711 891.455,223.789 893.534,224.829 897.692,224.829 899.771,223.789 901.849,221.711 902.889,219.632 " />
<polyline points="910.164,203.002 910.164,224.829 " />
<polyline points="924.716,203.002 924.716,224.829 " />
<polyline points="910.164,213.395 924.716,213.395 " />
<polyline points="938.228,203.002 929.913,224.829 " />
<polyline points="938.228,203.002 946.543,224.829 " />
<polyline points="933.031,217.553 943.425,217.553 " />
<polyline points="951.74,203.002 951.74,224.829 " />
<polyline points="951.74,203.002 961.094,203.002 964.212,204.041 965.252,205.08 966.291,207.159 966.291,209.238 965.252,211.317 964.212,212.356 961.094,213.395 951.74,213.395 " />
<polyline points="959.015,213.395 966.291,224.829 " />
<polyline points="988.118,208.199 987.079,206.12 985,204.041 982.921,203.002 978.763,203.002 976.685,204.041 974.606,206.12 973.567,208.199 972.527,211.317 972.527,216.514 973.567,219.632 974.606,221.711 976.685,223.789 978.763,224.829 982.921,224.829 985,223.789 987.079,221.711 988.118,219.632 988.118,216.514 " />
<polyline points="982.921,216.514 988.118,216.514 " />
<polyline points="995.394,203.002 995.394,224.829 " />
<polyline points="995.394,203.002 1008.91,203.002 " />
<polyline points="995.394,213.395 1003.71,213.395 " />
<polyline points="995.394,224.829 1008.91,224.829 " />
<polyline points="601.518,307.395 601.518,121.018 " />
</g>
<g clip-path="url(#clipId0)" fill="rgb(0,0,0)" stroke="rgb(0,0,0)" stroke-width="0.25" >
<path d="M658.521,210.569 658.521,217.844 680.348,214.206 680.348,214.206 z" />
</g>
<g clip-path="url(#clipId0)" fill="none" stroke="rgb(0,0,0)" stroke-width="0.25" >
<polyline points="658.521,214.206 475.683,214.206 " />
<polyline points="901.708,622.037 898.936,619.265 894.778,617.879 889.235,617.879 885.078,619.265 882.306,622.037 882.306,624.808 883.692,627.58 885.078,628.966 887.849,630.352 896.164,633.123 898.936,634.509 900.322,635.895 901.708,638.667 901.708,642.824 898.936,645.596 894.778,646.982 889.235,646.982 885.078,645.596 882.306,642.824 " />
<polyline points="911.409,617.879 911.409,646.982 " />
<polyline points="911.409,617.879 921.109,617.879 925.267,619.265 928.039,622.037 929.424,624.808 930.81,628.966 930.81,635.895 929.424,640.053 928.039,642.824 925.267,645.596 921.109,646.982 911.409,646.982 " />
<polyline points="940.511,624.808 940.511,623.423 941.897,620.651 943.283,619.265 946.055,617.879 951.598,617.879 954.37,619.265 955.755,620.651 957.141,623.423 957.141,626.194 955.755,628.966 952.984,633.123 939.125,646.982 958.527,646.982 " />
<polyline points="968.228,634.509 993.173,634.509 " />
<polyline points="1007.03,623.423 1009.8,622.037 1013.96,617.879 1013.96,646.982 " />
</g>
</svg>
