<?xml version="1.0" standalone="no"?>
<svg viewBox="0 0 1024 768" version="1.1" xmlns="http://www.w3.org/2000/svg" xmlns:xlink="http://www.w3.org/1999/xlink" stroke-linecap="round" stroke-linejoin="round" fill-rule="evenodd" xml:space="preserve" >
<defs >
<clipPath id="clipId0" >
<path d="M0,768 1024,768 1024,0 0,0 z" />
</clipPath>
</defs>
<g clip-path="url(#clipId0)" fill="none" stroke="rgb(0,0,0)" stroke-width="0.1" />
<g clip-path="url(#clipId0)" fill="none" stroke="rgb(0,0,0)" stroke-width="0.25" >
<polyline points="103.613,215.371 441.74,215.371 " />
<polyline points="441.74,361.442 103.613,361.442 " />
<path d="M33.1729,215.371  A40.3894,40.3894 0 0,0 33.1729,288.407 " />
<path d="M33.1729,361.442  A38.9609,38.9609 0 0,0 33.1729,288.407 " />
<path d="M33.1729,288.407  A40.3894,40.3894 0 0,0 33.1729,361.442 " />
</g>
<g clip-path="url(#clipId0)" fill="rgb(0,0,0)" stroke="rgb(0,0,0)" stroke-width="0.25" >
<path d="M260.173,285.556 260.173,291.258 277.279,288.407 277.279,288.407 z" />
</g>
<g clip-path="url(#clipId0)" fill="none" stroke="rgb(0,0,0)" stroke-width="0.25" >
<polyline points="260.173,288.407 116.875,288.407 " />
<polyline points="177.777,321.089 176.148,321.904 174.518,323.533 173.704,325.977 173.704,327.606 174.518,330.05 176.148,331.679 177.777,332.494 180.221,332.494 181.85,331.679 183.479,330.05 184.294,327.606 184.294,325.977 183.479,323.533 181.85,321.904 180.221,321.089 177.777,321.089 " />
<polyline points="441.74,215.371 441.74,361.442 " />
<polyline points="681.554,56.5272 681.554,389.9 " />
<polyline points="441.74,215.371 630.663,168.695 " />
<polyline points="441.74,361.442 612.143,403.543 " />
<path d="M543.456,368.956  A405.405,405.405 0 0,0 551.411,298.582 " />
</g>
<g clip-path="url(#clipId0)" fill="rgb(0,0,0)" stroke="rgb(0,0,0)" stroke-width="0.25" >
<path d="M540.674,368.331 546.238,369.581 539.704,385.646 539.704,385.646 z" />
<path d="M540.674,208.483 546.238,207.233 539.704,191.168 539.704,191.168 z" />
</g>
<g clip-path="url(#clipId0)" fill="none" stroke="rgb(0,0,0)" stroke-width="0.25" >
<path d="M551.116,269.91  A405.405,405.405 0 0,0 543.456,207.858 " />
<polyline points="442.974,374.721 442.974,590.508 " />
<polyline points="682.221,544.031 682.221,593.828 " />
</g>
<g clip-path="url(#clipId0)" fill="rgb(0,0,0)" stroke="rgb(0,0,0)" stroke-width="0.25" >
<path d="M350.301,235.186 356.003,235.186 353.152,218.079 353.152,218.079 z" />
</g>
<g clip-path="url(#clipId0)" fill="none" stroke="rgb(0,0,0)" stroke-width="0.25" >
<polyline points="353.152,235.186 353.152,364.15 " />
</g>
<g clip-path="url(#clipId0)" fill="rgb(0,0,0)" stroke="rgb(0,0,0)" stroke-width="0.25" >
<path d="M356.003,347.043 350.301,347.043 353.152,364.15 353.152,364.15 z" />
</g>
<g clip-path="url(#clipId0)" fill="none" stroke="rgb(0,0,0)" stroke-width="0.25" >
<polyline points="353.152,364.15 353.152,410.627 " />
<polyline points="353.152,410.627 331.402,410.627 " />
<polyline points="310.192,403.479 310.192,420.586 " />
<polyline points="310.192,403.479 315.894,403.479 318.338,404.294 319.967,405.923 320.782,407.552 321.597,409.996 321.597,414.069 320.782,416.513 319.967,418.142 318.338,419.772 315.894,420.586 310.192,420.586 " />
<polyline points="552.262,566.762 552.262,583.868 562.037,583.868 " />
</g>
<g clip-path="url(#clipId0)" fill="rgb(0,0,0)" stroke="rgb(0,0,0)" stroke-width="0.25" >
<path d="M665.114,577.697 665.114,583.4 682.221,580.548 682.221,580.548 z" />
</g>
<g clip-path="url(#clipId0)" fill="none" stroke="rgb(0,0,0)" stroke-width="0.25" >
<polyline points="665.114,580.548 578.91,580.548 " />
</g>
<g clip-path="url(#clipId0)" fill="rgb(0,0,0)" stroke="rgb(0,0,0)" stroke-width="0.25" >
<path d="M460.08,583.4 460.08,577.697 442.974,580.548 442.974,580.548 z" />
</g>
<g clip-path="url(#clipId0)" fill="none" stroke="rgb(0,0,0)" stroke-width="0.25" >
<polyline points="460.08,580.548 540.848,580.548 " />
<polyline points="741.717,288.407 598.42,288.407 " />
</g>
<g clip-path="url(#clipId0)" fill="rgb(0,0,0)" stroke="rgb(0,0,0)" stroke-width="0.25" >
<path d="M741.717,285.556 741.717,291.258 758.824,288.407 758.824,288.407 z" />
</g>
<g clip-path="url(#clipId0)" fill="none" stroke="rgb(0,0,0)" stroke-width="0.25" >
<polyline points="156.239,251.994 154.609,252.808 152.98,254.438 152.166,256.067 151.351,258.511 151.351,262.584 152.166,265.027 152.98,266.657 154.609,268.286 156.239,269.1 159.497,269.1 161.126,268.286 162.755,266.657 163.57,265.027 164.385,262.584 164.385,258.511 163.57,256.067 162.755,254.438 161.126,252.808 159.497,251.994 156.239,251.994 " />
<polyline points="158.682,265.842 163.57,270.73 " />
<circle cx="551.722" cy="285.087" r="8.55334" />
<polyline points="543.169,285.087 560.276,285.087 " />
<polyline points="155.505,302.116 148.988,319.223 " />
<polyline points="155.505,302.116 162.022,319.223 " />
<polyline points="151.432,313.521 159.578,313.521 " />
<polyline points="333.295,426.612 331.666,427.427 330.036,429.056 329.222,431.5 329.222,433.129 330.036,435.573 331.666,437.202 333.295,438.017 335.739,438.017 337.368,437.202 338.997,435.573 339.812,433.129 339.812,431.5 338.997,429.056 337.368,427.427 335.739,426.612 333.295,426.612 " />
<polyline points="103.613,215.371 33.7258,215.449 " />
<polyline points="103.613,361.442 33.297,361.515 " />
<polyline points="723.904,303.392 723.904,320.498 " />
<polyline points="723.904,303.392 734.494,303.392 " />
<polyline points="723.904,311.538 730.421,311.538 " />
<polyline points="738.567,303.392 738.567,320.498 " />
<polyline points="738.567,303.392 745.898,303.392 748.342,304.206 749.156,305.021 749.971,306.65 749.971,308.279 749.156,309.908 748.342,310.723 745.898,311.538 738.567,311.538 " />
<polyline points="744.269,311.538 749.971,320.498 " />
<polyline points="755.673,303.392 755.673,320.498 " />
<polyline points="755.673,303.392 766.263,303.392 " />
<polyline points="755.673,311.538 762.19,311.538 " />
<polyline points="755.673,320.498 766.263,320.498 " />
<polyline points="771.151,303.392 771.151,320.498 " />
<polyline points="771.151,303.392 781.741,303.392 " />
<polyline points="771.151,311.538 777.668,311.538 " />
<polyline points="771.151,320.498 781.741,320.498 " />
<polyline points="658.288,161.869 681.554,138.604 " />
<polyline points="658.226,141.771 681.554,118.443 " />
<polyline points="658.226,121.611 681.554,98.2827 " />
<polyline points="658.226,101.45 681.554,78.1222 " />
<polyline points="658.226,81.2897 681.554,57.9618 " />
<polyline points="660.935,58.42 662.467,56.8882 " />
<polyline points="630.663,168.695 681.554,158.423 " />
<polyline points="681.554,56.5272 681.552,34.2577 " />
<polyline points="662.467,56.8882 681.552,39.2736 " />
<polyline points="658.226,414.929 681.554,420.693 " />
<polyline points="681.554,420.693 681.554,530.246 " />
<polyline points="658.226,484.498 681.554,461.17 " />
<polyline points="658.226,464.338 681.554,441.01 " />
<polyline points="658.226,444.177 681.554,420.849 " />
<polyline points="658.226,424.017 665.513,416.73 " />
<polyline points="658.226,504.659 681.554,481.331 " />
<polyline points="658.226,524.819 681.554,501.491 " />
<polyline points="672.519,530.686 681.554,521.652 " />
<polyline points="681.554,420.849 681.554,389.9 " />
<polyline points="612.143,403.543 658.226,414.929 " />
<polyline points="908.823,712.237 906.433,709.847 902.849,708.652 898.07,708.652 894.485,709.847 892.096,712.237 892.096,714.626 893.291,717.016 894.485,718.21 896.875,719.405 904.044,721.795 906.433,722.989 907.628,724.184 908.823,726.574 908.823,730.158 906.433,732.548 902.849,733.742 898.07,733.742 894.485,732.548 892.096,730.158 " />
<polyline points="917.186,708.652 917.186,733.742 " />
<polyline points="917.186,708.652 925.549,708.652 929.133,709.847 931.523,712.237 932.718,714.626 933.912,718.21 933.912,724.184 932.718,727.769 931.523,730.158 929.133,732.548 925.549,733.742 917.186,733.742 " />
<polyline points="942.276,714.626 942.276,713.431 943.47,711.042 944.665,709.847 947.055,708.652 951.834,708.652 954.223,709.847 955.418,711.042 956.613,713.431 956.613,715.821 955.418,718.21 953.028,721.795 941.081,733.742 957.807,733.742 " />
<polyline points="966.171,722.989 987.676,722.989 " />
<polyline points="1007.99,708.652 996.039,725.379 1013.96,725.379 " />
<polyline points="1007.99,708.652 1007.99,733.742 " />
<polyline points="688.682,158.423 885.151,158.423 " />
<polyline points="688.682,420.693 885.151,420.693 " />
<polyline points="864.623,175.529 864.623,270.74 " />
<polyline points="864.623,403.586 864.623,308.375 " />
</g>
<g clip-path="url(#clipId0)" fill="rgb(0,0,0)" stroke="rgb(0,0,0)" stroke-width="0.25" >
<path d="M861.772,175.529 867.474,175.529 864.623,158.423 864.623,158.423 z" />
<path d="M861.772,403.586 867.474,403.586 864.623,420.693 864.623,420.693 z" />
</g>
<g clip-path="url(#clipId0)" fill="none" stroke="rgb(0,0,0)" stroke-width="0.25" >
<polyline points="858.921,298.111 867.474,298.111 870.325,295.26 870.325,283.856 867.474,281.004 858.921,281.004 " />
<polyline points="861.772,281.004 861.772,298.111 " />
<polyline points="879.434,296.636 881.063,295.821 883.507,293.377 883.507,310.484 " />
<polyline points="690.118,335.387 690.118,352.494 " />
<polyline points="690.118,335.387 695.82,335.387 698.264,336.201 699.893,337.831 700.707,339.46 701.522,341.904 701.522,345.977 700.707,348.421 699.893,350.05 698.264,351.679 695.82,352.494 690.118,352.494 " />
<polyline points="707.224,335.387 707.224,352.494 " />
<polyline points="724.331,337.831 722.702,336.201 720.258,335.387 716.999,335.387 714.556,336.201 712.926,337.831 712.926,339.46 713.741,341.089 714.556,341.904 716.185,342.718 721.072,344.348 722.702,345.162 723.516,345.977 724.331,347.606 724.331,350.05 722.702,351.679 720.258,352.494 716.999,352.494 714.556,351.679 712.926,350.05 " />
<polyline points="741.438,339.46 740.623,337.831 738.994,336.201 737.365,335.387 734.106,335.387 732.477,336.201 730.848,337.831 730.033,339.46 729.219,341.904 729.219,345.977 730.033,348.421 730.848,350.05 732.477,351.679 734.106,352.494 737.365,352.494 738.994,351.679 740.623,350.05 741.438,348.421 " />
<polyline points="747.14,335.387 747.14,352.494 " />
<polyline points="758.544,335.387 758.544,352.494 " />
<polyline points="747.14,343.533 758.544,343.533 " />
<polyline points="769.134,335.387 762.617,352.494 " />
<polyline points="769.134,335.387 775.651,352.494 " />
<polyline points="765.061,346.791 773.207,346.791 " />
<polyline points="779.724,335.387 779.724,352.494 " />
<polyline points="779.724,335.387 787.055,335.387 789.499,336.201 790.314,337.016 791.128,338.645 791.128,340.275 790.314,341.904 789.499,342.718 787.055,343.533 779.724,343.533 " />
<polyline points="785.426,343.533 791.128,352.494 " />
<polyline points="808.235,339.46 807.421,337.831 805.791,336.201 804.162,335.387 800.904,335.387 799.274,336.201 797.645,337.831 796.831,339.46 796.016,341.904 796.016,345.977 796.831,348.421 797.645,350.05 799.274,351.679 800.904,352.494 804.162,352.494 805.791,351.679 807.421,350.05 808.235,348.421 808.235,345.977 " />
<polyline points="804.162,345.977 808.235,345.977 " />
<polyline points="813.937,335.387 813.937,352.494 " />
<polyline points="813.937,335.387 824.527,335.387 " />
<polyline points="813.937,343.533 820.454,343.533 " />
<polyline points="813.937,352.494 824.527,352.494 " />
</g>
</svg>
