<?xml version="1.0" standalone="no"?>
<svg viewBox="0 0 1024 768" version="1.1" xmlns="http://www.w3.org/2000/svg" xmlns:xlink="http://www.w3.org/1999/xlink" stroke-linecap="round" stroke-linejoin="round" fill-rule="evenodd" xml:space="preserve" >
<defs >
<clipPath id="clipId0" >
<path d="M0,768 1024,768 1024,0 0,0 z" />
</clipPath>
</defs>
<g clip-path="url(#clipId0)" fill="none" stroke="rgb(0,0,0)" stroke-width="0.1" />
<g clip-path="url(#clipId0)" fill="none" stroke="rgb(0,0,0)" stroke-width="0.25" >
<polyline points="36.0992,195.549 416.998,195.549 " />
<polyline points="416.998,360.097 36.0992,360.097 " />
<path d="M36.0992,195.549  A45.4985,45.4985 0 0,0 36.0992,277.823 " />
<path d="M36.0992,360.097  A43.8893,43.8893 0 0,0 36.0992,277.823 " />
<path d="M36.0992,277.823  A45.4985,45.4985 0 0,0 36.0992,360.097 " />
</g>
<g clip-path="url(#clipId0)" fill="rgb(0,0,0)" stroke="rgb(0,0,0)" stroke-width="0.25" >
<path d="M239.931,274.611 239.931,281.035 259.201,277.823 259.201,277.823 z" />
</g>
<g clip-path="url(#clipId0)" fill="none" stroke="rgb(0,0,0)" stroke-width="0.25" >
<polyline points="258.242,277.823 96.8182,277.823 " />
<polyline points="168.336,313.95 166.5,314.868 164.665,316.703 163.748,319.456 163.748,321.291 164.665,324.044 166.5,325.879 168.336,326.797 171.089,326.797 172.924,325.879 174.759,324.044 175.677,321.291 175.677,319.456 174.759,316.703 172.924,314.868 171.089,313.95 168.336,313.95 " />
<polyline points="416.998,195.549 416.998,360.097 " />
<polyline points="687.148,128.803 687.148,426.843 " />
<polyline points="416.998,195.549 687.148,128.803 " />
<polyline points="416.998,360.097 687.148,426.843 " />
<path d="M531.581,368.561  A456.688,456.688 0 0,0 540.542,289.285 " />
</g>
<g clip-path="url(#clipId0)" fill="rgb(0,0,0)" stroke="rgb(0,0,0)" stroke-width="0.25" >
<path d="M528.447,367.857 534.714,369.266 527.354,387.363 527.354,387.363 z" />
<path d="M528.447,187.789 534.714,186.38 527.354,168.283 527.354,168.283 z" />
</g>
<g clip-path="url(#clipId0)" fill="none" stroke="rgb(0,0,0)" stroke-width="0.25" >
<path d="M540.21,256.986  A456.688,456.688 0 0,0 531.581,187.085 " />
</g>
<g clip-path="url(#clipId0)" fill="rgb(0,0,0)" stroke="rgb(0,0,0)" stroke-width="0.25" >
<path d="M721.19,277.661 721.19,284.085 740.46,280.873 740.46,280.873 z" />
</g>
<g clip-path="url(#clipId0)" fill="none" stroke="rgb(0,0,0)" stroke-width="0.25" >
<polyline points="721.19,280.873 595.977,280.873 " />
<polyline points="453.336,128.803 651.681,128.803 " />
<polyline points="453.336,426.843 651.681,426.843 " />
</g>
<g clip-path="url(#clipId0)" fill="rgb(0,0,0)" stroke="rgb(0,0,0)" stroke-width="0.25" >
<path d="M465.361,148.798 471.785,148.798 468.573,129.527 468.573,129.527 z" />
</g>
<g clip-path="url(#clipId0)" fill="none" stroke="rgb(0,0,0)" stroke-width="0.25" >
<polyline points="468.573,148.798 468.573,248.481 " />
</g>
<g clip-path="url(#clipId0)" fill="rgb(0,0,0)" stroke="rgb(0,0,0)" stroke-width="0.25" >
<path d="M471.785,407.642 465.361,407.642 468.573,426.913 468.573,426.913 z" />
</g>
<g clip-path="url(#clipId0)" fill="none" stroke="rgb(0,0,0)" stroke-width="0.25" >
<polyline points="468.573,407.642 468.573,289.785 " />
<polyline points="461.419,263.906 461.419,283.176 " />
<polyline points="461.419,263.906 467.843,263.906 470.596,264.823 472.431,266.659 473.349,268.494 474.266,271.247 474.266,275.835 473.349,278.588 472.431,280.423 470.596,282.259 467.843,283.176 461.419,283.176 " />
<polyline points="482.525,280.603 484.361,279.685 487.114,276.932 487.114,296.203 " />
<polyline points="332.811,263.64 332.811,282.91 " />
<polyline points="332.811,263.64 339.235,263.64 341.987,264.557 343.823,266.393 344.74,268.228 345.658,270.981 345.658,275.569 344.74,278.322 343.823,280.157 341.987,281.993 339.235,282.91 332.811,282.91 " />
<polyline points="147.412,237.271 145.577,238.189 143.741,240.024 142.824,241.859 141.906,244.612 141.906,249.2 142.824,251.953 143.741,253.789 145.577,255.624 147.412,256.542 151.082,256.542 152.918,255.624 154.753,253.789 155.671,251.953 156.588,249.2 156.588,244.612 155.671,241.859 154.753,240.024 152.918,238.189 151.082,237.271 147.412,237.271 " />
<polyline points="150.165,252.871 155.671,258.377 " />
<circle cx="542.089" cy="274.916" r="9.63532" />
<polyline points="532.453,274.916 551.724,274.916 " />
</g>
<g clip-path="url(#clipId0)" fill="rgb(0,0,0)" stroke="rgb(0,0,0)" stroke-width="0.25" >
<path d="M335.473,214.819 341.897,214.819 338.685,195.549 338.685,195.549 z" />
</g>
<g clip-path="url(#clipId0)" fill="none" stroke="rgb(0,0,0)" stroke-width="0.25" >
<polyline points="338.685,214.819 338.685,251.645 " />
</g>
<g clip-path="url(#clipId0)" fill="rgb(0,0,0)" stroke="rgb(0,0,0)" stroke-width="0.25" >
<path d="M341.897,340.826 335.473,340.826 338.685,360.097 338.685,360.097 z" />
</g>
<g clip-path="url(#clipId0)" fill="none" stroke="rgb(0,0,0)" stroke-width="0.25" >
<polyline points="338.685,340.826 338.685,296.522 " />
<polyline points="146.519,290.051 139.177,309.322 " />
<polyline points="146.519,290.051 153.86,309.322 " />
<polyline points="141.93,302.899 151.107,302.899 " />
<polyline points="360.801,282.624 358.965,283.542 357.13,285.377 356.212,288.13 356.212,289.966 357.13,292.719 358.965,294.554 360.801,295.472 363.554,295.472 365.389,294.554 367.224,292.719 368.142,289.966 368.142,288.13 367.224,285.377 365.389,283.542 363.554,282.624 360.801,282.624 " />
<polyline points="771.358,272.724 771.358,291.994 " />
<polyline points="771.358,272.724 783.287,272.724 " />
<polyline points="771.358,281.9 778.699,281.9 " />
<polyline points="787.876,272.724 787.876,291.994 " />
<polyline points="787.876,272.724 796.134,272.724 798.887,273.641 799.805,274.559 800.723,276.394 800.723,278.229 799.805,280.065 798.887,280.982 796.134,281.9 787.876,281.9 " />
<polyline points="794.299,281.9 800.723,291.994 " />
<polyline points="807.146,272.724 807.146,291.994 " />
<polyline points="807.146,272.724 819.076,272.724 " />
<polyline points="807.146,281.9 814.487,281.9 " />
<polyline points="807.146,291.994 819.076,291.994 " />
<polyline points="824.581,272.724 824.581,291.994 " />
<polyline points="824.581,272.724 836.511,272.724 " />
<polyline points="824.581,281.9 831.923,281.9 " />
<polyline points="824.581,291.994 836.511,291.994 " />
<polyline points="861.287,272.724 861.287,291.994 " />
<polyline points="861.287,272.724 867.711,272.724 870.464,273.641 872.299,275.477 873.217,277.312 874.135,280.065 874.135,284.653 873.217,287.406 872.299,289.241 870.464,291.077 867.711,291.994 861.287,291.994 " />
<polyline points="880.558,272.724 880.558,291.994 " />
<polyline points="899.829,275.477 897.993,273.641 895.24,272.724 891.57,272.724 888.817,273.641 886.982,275.477 886.982,277.312 887.899,279.147 888.817,280.065 890.652,280.982 896.158,282.818 897.993,283.735 898.911,284.653 899.829,286.488 899.829,289.241 897.993,291.077 895.24,291.994 891.57,291.994 888.817,291.077 886.982,289.241 " />
<polyline points="919.099,277.312 918.182,275.477 916.346,273.641 914.511,272.724 910.84,272.724 909.005,273.641 907.17,275.477 906.252,277.312 905.335,280.065 905.335,284.653 906.252,287.406 907.17,289.241 909.005,291.077 910.84,291.994 914.511,291.994 916.346,291.077 918.182,289.241 919.099,287.406 " />
<polyline points="925.523,272.724 925.523,291.994 " />
<polyline points="938.37,272.724 938.37,291.994 " />
<polyline points="925.523,281.9 938.37,281.9 " />
<polyline points="950.299,272.724 942.958,291.994 " />
<polyline points="950.299,272.724 957.641,291.994 " />
<polyline points="945.711,285.571 954.888,285.571 " />
<polyline points="962.229,272.724 962.229,291.994 " />
<polyline points="962.229,272.724 970.488,272.724 973.241,273.641 974.158,274.559 975.076,276.394 975.076,278.229 974.158,280.065 973.241,280.982 970.488,281.9 962.229,281.9 " />
<polyline points="968.652,281.9 975.076,291.994 " />
<polyline points="994.347,277.312 993.429,275.477 991.594,273.641 989.758,272.724 986.088,272.724 984.252,273.641 982.417,275.477 981.499,277.312 980.582,280.065 980.582,284.653 981.499,287.406 982.417,289.241 984.252,291.077 986.088,291.994 989.758,291.994 991.594,291.077 993.429,289.241 994.347,287.406 994.347,284.653 " />
<polyline points="989.758,284.653 994.347,284.653 " />
<polyline points="1000.77,272.724 1000.77,291.994 " />
<polyline points="1000.77,272.724 1012.7,272.724 " />
<polyline points="1000.77,281.9 1008.11,281.9 " />
<polyline points="1000.77,291.994 1012.7,291.994 " />
<polyline points="907.513,617.173 905.066,614.726 901.396,613.503 896.502,613.503 892.831,614.726 890.384,617.173 890.384,619.62 891.608,622.067 892.831,623.291 895.278,624.514 902.619,626.961 905.066,628.185 906.29,629.408 907.513,631.856 907.513,635.526 905.066,637.973 901.396,639.197 896.502,639.197 892.831,637.973 890.384,635.526 " />
<polyline points="916.078,613.503 916.078,639.197 " />
<polyline points="916.078,613.503 924.643,613.503 928.314,614.726 930.761,617.173 931.984,619.62 933.208,623.291 933.208,629.408 931.984,633.079 930.761,635.526 928.314,637.973 924.643,639.197 916.078,639.197 " />
<polyline points="941.772,619.62 941.772,618.397 942.996,615.95 944.219,614.726 946.667,613.503 951.561,613.503 954.008,614.726 955.231,615.95 956.455,618.397 956.455,620.844 955.231,623.291 952.784,626.961 940.549,639.197 957.678,639.197 " />
<polyline points="966.243,628.185 988.267,628.185 " />
<polyline points="999.278,613.503 1012.74,613.503 1005.4,623.291 1009.07,623.291 1011.51,624.514 1012.74,625.738 1013.96,629.408 1013.96,631.856 1012.74,635.526 1010.29,637.973 1006.62,639.197 1002.95,639.197 999.278,637.973 998.055,636.75 996.831,634.303 " />
<polyline points="416.998,367.397 416.998,482.663 " />
<polyline points="687.148,434.142 687.148,482.663 " />
<polyline points="434.517,461.641 530.522,461.641 " />
<polyline points="669.629,461.641 564.044,461.641 " />
</g>
<g clip-path="url(#clipId0)" fill="rgb(0,0,0)" stroke="rgb(0,0,0)" stroke-width="0.25" >
<path d="M434.517,458.721 434.517,464.561 416.998,461.641 416.998,461.641 z" />
<path d="M669.629,458.721 669.629,464.561 687.148,461.641 687.148,461.641 z" />
</g>
<g clip-path="url(#clipId0)" fill="none" stroke="rgb(0,0,0)" stroke-width="0.25" >
<polyline points="546.233,452.881 546.233,470.4 557.913,470.4 " />
</g>
</svg>
