<?xml version="1.0" standalone="no"?>
<svg viewBox="0 0 1024 768" version="1.1" xmlns="http://www.w3.org/2000/svg" xmlns:xlink="http://www.w3.org/1999/xlink" stroke-linecap="round" stroke-linejoin="round" fill-rule="evenodd" xml:space="preserve" >
<defs >
<clipPath id="clipId0" >
<path d="M0,768 1024,768 1024,0 0,0 z" />
</clipPath>
</defs>
<g clip-path="url(#clipId0)" fill="none" stroke="rgb(0,0,0)" stroke-width="0.1" />
<g clip-path="url(#clipId0)" fill="none" stroke="rgb(0,0,0)" stroke-width="0.5" >
<polyline points="997.77,374.011 1011.3,374.011 " />
<polyline points="997.77,380.767 1011.3,380.767 " />
<polyline points="997.77,380.767 997.77,374.011 " />
<polyline points="1007.57,377.389 1013.93,377.389 " />
<polyline points="985.164,384.144 972.189,384.144 " />
<polyline points="985.164,370.634 972.189,370.634 " />
<polyline points="997.77,374.011 985.164,370.634 " />
<polyline points="997.77,380.767 985.164,384.144 " />
<polyline points="985.164,384.144 985.164,370.634 " />
<polyline points="969.39,377.389 975.742,377.389 " />
<path d="M990.879,378.396  A19.5221,19.5221 0 0,0 991.355,381.786 " />
<path d="M991.355,372.992  A19.5221,19.5221 0 0,0 990.881,376.346 " />
<polyline points="972.189,368.103 972.189,386.674 " stroke-dasharray="5.629281,1.125856,1.125856,1.125856" />
<polyline points="972.189,377.389 971.674,377.191 971.674,377.191 971.093,376.4 971.093,376.4 970.768,375.382 970.768,375.382 970.639,374.011 970.639,374.011 970.768,372.641 970.768,372.641 971.093,371.623 971.093,371.623 971.674,370.832 971.674,370.832 972.189,370.634 " />
<polyline points="972.189,384.144 972.704,383.946 972.704,383.946 973.285,383.155 973.285,383.155 973.61,382.137 973.61,382.137 973.74,380.767 973.74,380.767 973.61,379.396 973.61,379.396 973.285,378.378 973.285,378.378 972.704,377.587 972.704,377.587 972.189,377.389 972.189,377.389 971.674,377.587 971.674,377.587 971.093,378.378 971.093,378.378 970.768,379.396 970.768,379.396 970.639,380.767 970.639,380.767 970.768,382.137 970.768,382.137 971.093,383.155 971.093,383.155 971.674,383.946 971.674,383.946 972.189,384.144 " />
<circle cx="990.842" cy="377.384" r="0.405308" />
<polyline points="991.248,377.384 990.437,377.384 " />
<path d="M1011.3,377.389  A1.91468,1.91468 0 0,0 1011.3,374.011 " />
<path d="M1011.3,377.389  A1.88987,1.88987 0 0,0 1011.3,380.767 " />
<path d="M1011.3,380.767  A1.91468,1.91468 0 0,0 1011.3,377.389 " />
</g>
<g clip-path="url(#clipId0)" fill="rgb(0,0,0)" stroke="rgb(0,0,0)" stroke-width="0.5" >
<path d="M1002.05,375.028 1001.72,375.028 1001.89,374.015 1001.89,374.015 z" />
</g>
<g clip-path="url(#clipId0)" fill="none" stroke="rgb(0,0,0)" stroke-width="0.5" >
<polyline points="1001.64,376.916 1001.64,377.727 " />
<polyline points="1001.64,376.916 1001.91,376.916 1002.03,376.955 1002.1,377.032 1002.14,377.109 1002.18,377.225 1002.18,377.418 1002.14,377.534 1002.1,377.611 1002.03,377.688 1001.91,377.727 1001.64,377.727 " />
<polyline points="967.544,376.189 967.544,376.865 " />
<polyline points="967.544,376.189 967.962,376.189 " />
<polyline points="967.544,376.511 967.801,376.511 " />
<polyline points="968.123,376.189 968.123,376.865 " />
<polyline points="968.123,376.189 968.412,376.189 968.509,376.221 968.541,376.253 968.573,376.318 968.573,376.382 968.541,376.446 968.509,376.479 968.412,376.511 968.123,376.511 " />
<polyline points="968.348,376.511 968.573,376.865 " />
<polyline points="968.959,376.189 968.895,376.221 968.83,376.286 968.798,376.35 968.766,376.446 968.766,376.607 968.798,376.704 968.83,376.768 968.895,376.832 968.959,376.865 969.088,376.865 969.152,376.832 969.216,376.768 969.248,376.704 969.281,376.607 969.281,376.446 969.248,376.35 969.216,376.286 969.152,376.221 969.088,376.189 968.959,376.189 " />
<polyline points="969.506,376.189 969.506,376.865 " />
<polyline points="969.506,376.189 969.763,376.865 " />
<polyline points="970.02,376.189 969.763,376.865 " />
<polyline points="970.02,376.189 970.02,376.865 " />
<polyline points="967.866,377.807 967.866,378.483 " />
<polyline points="967.866,377.807 968.284,377.807 " />
<polyline points="967.866,378.129 968.123,378.129 " />
<polyline points="968.606,377.807 968.348,378.483 " />
<polyline points="968.606,377.807 968.863,378.483 " />
<polyline points="968.445,378.257 968.766,378.257 " />
<polyline points="969.024,377.807 969.024,378.483 " />
<polyline points="969.024,377.807 969.474,378.483 " />
<polyline points="969.474,377.807 969.474,378.483 " />
<polyline points="1002.65,378.074 1002.57,378.035 1002.49,377.958 1002.45,377.842 1002.45,377.765 1002.49,377.649 1002.57,377.572 1002.65,377.533 1002.76,377.533 1002.84,377.572 1002.92,377.649 1002.95,377.765 1002.95,377.842 1002.92,377.958 1002.84,378.035 1002.76,378.074 1002.65,378.074 " />
<polyline points="980.135,377.748 980.135,376.937 " />
<polyline points="980.135,377.748 980.405,377.748 980.521,377.709 980.598,377.632 980.637,377.555 980.675,377.439 980.675,377.246 980.637,377.13 980.598,377.053 980.521,376.976 980.405,376.937 980.135,376.937 " />
<polyline points="969.39,377.389 967.562,377.389 " />
<polyline points="973.69,375.742 973.595,375.789 973.501,375.884 973.454,375.978 973.407,376.12 973.407,376.356 973.454,376.497 973.501,376.591 973.595,376.686 973.69,376.733 973.879,376.733 973.973,376.686 974.067,376.591 974.114,376.497 974.162,376.356 974.162,376.12 974.114,375.978 974.067,375.884 973.973,375.789 973.879,375.742 973.69,375.742 " />
<polyline points="973.831,376.544 974.114,376.827 " />
<polyline points="985.164,384.426 985.164,387.953 " />
<polyline points="997.77,381.048 997.77,387.953 " />
<polyline points="980.956,377.589 981.018,377.558 981.111,377.465 981.111,378.113 " />
<polyline points="969.515,393.719 968.949,395.205 " />
<polyline points="969.515,393.719 970.081,395.205 " />
<polyline points="969.161,394.709 969.869,394.709 " />
<polyline points="973.053,393.436 971.78,395.7 " />
<polyline points="973.832,393.719 973.266,395.205 " />
<polyline points="973.832,393.719 974.398,395.205 " />
<polyline points="973.478,394.709 974.186,394.709 " />
<polyline points="977.37,393.931 976.238,394.568 977.37,395.205 " />
<polyline points="979.706,394.214 979.564,394.285 979.423,394.426 979.352,394.639 979.352,394.78 979.423,394.992 979.564,395.134 979.706,395.205 979.918,395.205 980.059,395.134 980.201,394.992 980.272,394.78 980.272,394.639 980.201,394.426 980.059,394.285 979.918,394.214 979.706,394.214 " />
<polyline points="980.767,394.214 980.767,395.205 " />
<polyline points="980.767,394.639 980.838,394.426 980.979,394.285 981.121,394.214 981.333,394.214 " />
<polyline points="983.173,393.931 984.306,394.568 983.173,395.205 " />
<polyline points="986.499,394.002 986.641,393.931 986.853,393.719 986.853,395.205 " />
<polyline points="970.922,395.159 970.752,395.216 970.639,395.385 970.582,395.668 970.582,395.838 970.639,396.121 970.752,396.291 970.922,396.348 971.035,396.348 971.205,396.291 971.318,396.121 971.375,395.838 971.375,395.668 971.318,395.385 971.205,395.216 971.035,395.159 970.922,395.159 " />
<polyline points="974.964,395.712 975.077,395.655 975.247,395.486 975.247,396.674 " />
<polyline points="1002.95,397.581 1002.69,397.323 1002.31,397.195 1001.79,397.195 1001.41,397.323 1001.15,397.581 1001.15,397.838 1001.28,398.095 1001.41,398.224 1001.67,398.353 1002.44,398.61 1002.69,398.739 1002.82,398.867 1002.95,399.125 1002.95,399.511 1002.69,399.768 1002.31,399.897 1001.79,399.897 1001.41,399.768 1001.15,399.511 " />
<polyline points="1003.85,397.195 1003.85,399.897 " />
<polyline points="1003.85,397.195 1004.75,397.195 1005.14,397.323 1005.4,397.581 1005.53,397.838 1005.65,398.224 1005.65,398.867 1005.53,399.253 1005.4,399.511 1005.14,399.768 1004.75,399.897 1003.85,399.897 " />
<polyline points="1007.71,397.195 1006.43,398.996 1008.36,398.996 " />
<polyline points="1007.71,397.195 1007.71,399.897 " />
<polyline points="1009.13,398.739 1011.44,398.739 " />
<polyline points="1012.73,397.709 1012.99,397.581 1013.37,397.195 1013.37,399.897 " />
<polyline points="984.946,388.864 985.048,388.813 985.203,388.658 985.203,389.739 " />
<polyline points="997.648,388.599 997.494,388.65 997.391,388.804 997.339,389.062 997.339,389.216 997.391,389.474 997.494,389.628 997.648,389.679 997.751,389.679 997.905,389.628 998.008,389.474 998.06,389.216 998.06,389.062 998.008,388.804 997.905,388.65 997.751,388.599 997.648,388.599 " />
<polyline points="991.338,386.478 991.338,387.559 991.956,387.559 " />
</g>
<g clip-path="url(#clipId0)" fill="rgb(0,0,0)" stroke="rgb(0,0,0)" stroke-width="0.5" >
<path d="M10.0392,380.929 10.0392,380.591 11.0525,380.76 11.0525,380.76 z" />
<path d="M1012.95,377.506 1012.95,377.168 1013.96,377.337 1013.96,377.337 z" />
<path d="M986.178,386.973 986.178,387.311 985.164,387.142 985.164,387.142 z" />
<path d="M996.756,387.311 996.756,386.973 997.77,387.142 997.77,387.142 z" />
<path d="M980.186,383.158 980.524,383.158 980.355,384.172 980.355,384.172 z" />
<path d="M991.139,381.482 991.473,381.427 991.473,382.454 991.473,382.454 z" />
<path d="M991.469,373.35 991.136,373.295 991.469,372.323 991.469,372.323 z" />
</g>
<g clip-path="url(#clipId0)" fill="none" stroke="rgb(0,0,0)" stroke-width="0.5" >
<polyline points="980.355,384.172 980.355,378.18 " />
<polyline points="980.355,376.6 980.355,370.634 " />
</g>
<g clip-path="url(#clipId0)" fill="rgb(0,0,0)" stroke="rgb(0,0,0)" stroke-width="0.5" >
<path d="M980.524,371.647 980.186,371.647 980.355,370.634 980.355,370.634 z" />
<path d="M974.729,377.558 974.729,377.22 975.742,377.389 975.742,377.389 z" />
</g>
<g clip-path="url(#clipId0)" fill="none" stroke="rgb(0,0,0)" stroke-width="0.5" >
<polyline points="991.246,372.964 991.469,372.323 " />
<polyline points="991.355,381.786 991.473,382.454 " />
<polyline points="985.164,387.142 990.618,387.142 " />
<polyline points="992.459,387.142 997.77,387.142 " />
<polyline points="1001.89,374.015 1001.89,376.519 " />
<polyline points="1001.89,378.057 1001.89,380.76 " />
</g>
<g clip-path="url(#clipId0)" fill="rgb(0,0,0)" stroke="rgb(0,0,0)" stroke-width="0.5" >
<path d="M1001.72,379.746 1002.05,379.746 1001.89,380.76 1001.89,380.76 z" />
</g>
</svg>
