<?xml version="1.0" standalone="no"?>
<svg viewBox="0 0 1024 768" version="1.1" xmlns="http://www.w3.org/2000/svg" xmlns:xlink="http://www.w3.org/1999/xlink" stroke-linecap="round" stroke-linejoin="round" fill-rule="evenodd" xml:space="preserve" >
<defs >
<clipPath id="clipId0" >
<path d="M0,768 1024,768 1024,0 0,0 z" />
</clipPath>
</defs>
<g clip-path="url(#clipId0)" fill="none" stroke="rgb(0,0,0)" stroke-width="0.1" />
<g clip-path="url(#clipId0)" fill="none" stroke="rgb(0,0,0)" stroke-width="0.35" >
<polyline points="640.387,134.35 856.445,134.35 " />
<polyline points="640.387,243.602 856.445,243.602 " />
<polyline points="640.387,243.602 640.387,134.35 " />
<polyline points="436.52,298.227 283.533,298.227 " />
<polyline points="436.52,79.7237 283.533,79.7237 " />
<polyline points="640.387,134.35 436.52,79.7237 " />
<polyline points="640.387,243.602 436.52,298.227 " />
<polyline points="436.52,298.227 436.52,79.7237 " />
</g>
<g clip-path="url(#clipId0)" fill="rgb(0,0,0)" stroke="rgb(0,0,0)" stroke-width="0.35" >
<path d="M888.992,186.559 888.992,193.114 908.657,189.836 908.657,189.836 z" />
</g>
<g clip-path="url(#clipId0)" fill="none" stroke="rgb(0,0,0)" stroke-width="0.35" >
<path d="M528.968,205.781  A315.734,315.734 0 0,0 536.634,260.093 " />
<path d="M536.634,117.858  A315.734,315.734 0 0,0 528.994,171.685 " />
<polyline points="688.906,181.928 688.906,196.097 " />
<polyline points="688.906,181.928 693.628,181.928 695.652,182.603 697.002,183.952 697.676,185.302 698.351,187.326 698.351,190.699 697.676,192.723 697.002,194.073 695.652,195.422 693.628,196.097 688.906,196.097 " />
<polyline points="705.96,195.754 704.61,196.429 703.261,197.778 702.586,199.802 702.586,201.151 703.261,203.175 704.61,204.525 705.96,205.2 707.984,205.2 709.333,204.525 710.683,203.175 711.357,201.151 711.357,199.802 710.683,197.778 709.333,196.429 707.984,195.754 705.96,195.754 " />
<circle cx="528.21" cy="188.224" r="7.08415" />
<polyline points="521.126,188.224 535.294,188.224 " />
<polyline points="415.401,188.638 416.751,187.963 418.775,185.939 418.775,200.107 " />
<polyline points="398.861,177.698 398.861,191.867 " />
<polyline points="408.306,177.698 408.306,191.867 " />
<polyline points="398.861,184.445 408.306,184.445 " />
<polyline points="542.213,194.006 543.562,193.332 545.586,191.308 545.586,205.476 " />
<polyline points="540.447,507.284 540.447,506.609 541.122,505.26 541.796,504.585 543.146,503.91 545.844,503.91 547.194,504.585 547.869,505.26 548.543,506.609 548.543,507.958 547.869,509.308 546.519,511.332 539.772,518.079 549.218,518.079 " />
<polyline points="399.17,491.703 402.543,505.871 " />
<polyline points="405.917,491.703 402.543,505.871 " />
<polyline points="405.917,491.703 409.29,505.871 " />
<polyline points="412.663,491.703 409.29,505.871 " />
<polyline points="421.316,502.642 422.665,501.967 424.689,499.943 424.689,514.112 " />
<polyline points="520.71,500.826 534.878,500.826 " />
<circle cx="527.794" cy="500.826" r="7.08415" />
<path d="M541.226,413.074  A315.734,315.734 0 0,0 529.091,482.759 " />
<path d="M529.021,519.516  A315.734,315.734 0 0,0 541.097,589.966 " />
<polyline points="640.387,570.002 640.387,432.57 " />
<polyline points="640.387,570.002 856.445,570.002 " />
<polyline points="640.387,432.57 856.445,432.57 " />
<polyline points="704.216,506.262 703.091,506.825 701.967,507.949 701.405,509.636 701.405,510.76 701.967,512.447 703.091,513.571 704.216,514.134 705.902,514.134 707.027,513.571 708.151,512.447 708.714,510.76 708.714,509.636 708.151,507.949 707.027,506.825 705.902,506.262 704.216,506.262 " />
<polyline points="690.004,494.741 690.004,506.548 " />
<polyline points="690.004,494.741 693.94,494.741 695.626,495.303 696.751,496.428 697.313,497.552 697.875,499.239 697.875,502.05 697.313,503.737 696.751,504.861 695.626,505.986 693.94,506.548 690.004,506.548 " />
<polyline points="436.52,610.992 436.52,392.489 " />
<polyline points="436.52,392.489 283.533,392.489 " />
<polyline points="436.52,610.992 283.533,610.992 " />
<polyline points="640.387,432.57 436.52,392.489 " />
<polyline points="436.52,610.992 640.387,570.002 " />
<polyline points="316.503,166.574 315.154,167.248 313.805,168.598 313.13,169.947 312.455,171.971 312.455,175.344 313.13,177.368 313.805,178.718 315.154,180.067 316.503,180.742 319.202,180.742 320.551,180.067 321.901,178.718 322.575,177.368 323.25,175.344 323.25,171.971 322.575,169.947 321.901,168.598 320.551,167.248 319.202,166.574 316.503,166.574 " />
<polyline points="318.527,178.043 322.575,182.091 " />
<polyline points="794.564,189.836 908.657,189.836 " />
<polyline points="116.175,181.829 116.175,196.942 " />
<polyline points="116.175,181.829 125.531,181.829 " />
<polyline points="116.175,189.026 121.933,189.026 " />
<polyline points="129.129,181.829 129.129,196.942 " />
<polyline points="129.129,181.829 135.606,181.829 137.765,182.549 138.485,183.268 139.205,184.708 139.205,186.147 138.485,187.586 137.765,188.306 135.606,189.026 129.129,189.026 " />
<polyline points="134.167,189.026 139.205,196.942 " />
<polyline points="147.841,181.829 146.401,182.549 144.962,183.988 144.242,185.427 143.523,187.586 143.523,191.185 144.242,193.344 144.962,194.783 146.401,196.222 147.841,196.942 150.719,196.942 152.158,196.222 153.598,194.783 154.317,193.344 155.037,191.185 155.037,187.586 154.317,185.427 153.598,183.988 152.158,182.549 150.719,181.829 147.841,181.829 " />
<polyline points="160.075,181.829 160.075,196.942 " />
<polyline points="160.075,181.829 165.832,196.942 " />
<polyline points="171.589,181.829 165.832,196.942 " />
<polyline points="171.589,181.829 171.589,196.942 " />
<polyline points="192.459,181.829 192.459,196.942 " />
<polyline points="192.459,181.829 201.815,181.829 " />
<polyline points="192.459,189.026 198.217,189.026 " />
<polyline points="209.012,181.829 203.254,196.942 " />
<polyline points="209.012,181.829 214.769,196.942 " />
<polyline points="205.413,191.904 212.61,191.904 " />
<polyline points="218.367,181.829 218.367,196.942 " />
<polyline points="218.367,181.829 228.442,196.942 " />
<polyline points="228.442,181.829 228.442,196.942 " />
<polyline points="266.32,179.204 283.244,179.204 " />
<polyline points="300.169,198.747 283.244,198.747 " />
<polyline points="283.244,198.747 283.244,333.026 " />
<polyline points="283.244,179.204 283.244,45.7098 " />
<polyline points="266.32,179.204 300.169,198.747 " />
<polyline points="857.159,111.396 857.159,269.919 " />
<path d="M857.159,189.836  A27.7456,15.7426 89.2623 0,0 857.159,134.369 " />
<ellipse rx="27.7456" ry="15.7426" transform="translate(856.572 217.56) rotate(89.2623)" />
<polyline points="856.716,412.154 856.716,591.564 " />
<path d="M856.716,501.74  A34.5856,15.7426 89.7751 0,0 856.716,432.574 " />
<ellipse rx="34.5856" ry="15.7426" transform="translate(856.581 535.582) rotate(89.7751)" />
<polyline points="794.564,502.288 908.657,502.288 " />
<polyline points="283.682,359.456 283.682,491.969 " />
<polyline points="283.682,511.512 283.682,649.175 " />
<polyline points="266.757,491.969 283.682,491.969 " />
<polyline points="300.607,511.512 283.682,511.512 " />
<polyline points="266.757,491.969 300.607,511.512 " />
<polyline points="709.494,719.99 704.996,715.492 698.25,713.243 689.254,713.243 682.507,715.492 678.009,719.99 678.009,724.488 680.258,728.985 682.507,731.234 687.005,733.483 700.498,737.981 704.996,740.23 707.245,742.479 709.494,746.977 709.494,753.724 704.996,758.222 698.25,760.471 689.254,760.471 682.507,758.222 678.009,753.724 " />
<polyline points="725.237,713.243 725.237,760.471 " />
<polyline points="725.237,713.243 740.979,713.243 747.726,715.492 752.224,719.99 754.473,724.488 756.722,731.234 756.722,742.479 754.473,749.226 752.224,753.724 747.726,758.222 740.979,760.471 725.237,760.471 " />
<polyline points="792.705,713.243 770.216,744.728 803.95,744.728 " />
<polyline points="792.705,713.243 792.705,760.471 " />
<polyline points="817.443,740.23 857.924,740.23 " />
<polyline points="875.916,724.488 875.916,722.239 878.164,717.741 880.413,715.492 884.911,713.243 893.907,713.243 898.405,715.492 900.654,717.741 902.903,722.239 902.903,726.737 900.654,731.234 896.156,737.981 873.667,760.471 905.152,760.471 " />
<polyline points="125.238,675.027 115.343,701.002 " />
<polyline points="125.238,675.027 135.133,701.002 " />
<polyline points="119.053,692.344 131.423,692.344 " />
<polyline points="187.084,670.079 164.819,709.66 " />
<polyline points="200.69,675.027 190.795,701.002 " />
<polyline points="200.69,675.027 210.585,701.002 " />
<polyline points="194.505,692.344 206.874,692.344 " />
<polyline points="288.511,678.738 268.72,689.87 288.511,701.002 " />
<polyline points="329.329,683.685 326.855,684.922 324.381,687.396 323.145,691.107 323.145,693.581 324.381,697.291 326.855,699.765 329.329,701.002 333.04,701.002 335.514,699.765 337.988,697.291 339.224,693.581 339.224,691.107 337.988,687.396 335.514,684.922 333.04,683.685 329.329,683.685 " />
<polyline points="347.883,683.685 347.883,701.002 " />
<polyline points="347.883,691.107 349.12,687.396 351.594,684.922 354.067,683.685 357.778,683.685 " />
<polyline points="389.938,678.738 409.729,689.87 389.938,701.002 " />
<polyline points="448.073,679.974 450.547,678.738 454.258,675.027 454.258,701.002 " />
<polyline points="146.997,692.204 144.029,693.193 142.05,696.162 141.06,701.11 141.06,704.078 142.05,709.026 144.029,711.995 146.997,712.984 148.976,712.984 151.945,711.995 153.924,709.026 154.914,704.078 154.914,701.11 153.924,696.162 151.945,693.193 148.976,692.204 146.997,692.204 " />
<polyline points="217.167,702.507 219.146,701.518 222.115,698.549 222.115,719.329 " />
<polyline points="436.52,79.7237 640.387,134.35 " />
<polyline points="436.52,69.513 436.52,37.4948 " />
<polyline points="640.387,120.366 640.387,36.553 " />
<polyline points="436.52,51.6205 525.005,51.2117 " />
<polyline points="551.433,51.0897 640.387,50.6787 " />
<polyline points="433.417,10.9496 435.037,10.14 437.465,7.71116 437.465,24.7131 " />
<polyline points="639.397,7.52941 636.968,8.33903 635.349,10.7679 634.539,14.816 634.539,17.2448 635.349,21.2929 636.968,23.7218 639.397,24.5314 641.016,24.5314 643.445,23.7218 645.064,21.2929 645.874,17.2448 645.874,14.816 645.064,10.7679 643.445,8.33903 641.016,7.52941 639.397,7.52941 " />
<polyline points="535.441,43.2915 535.441,60.2934 545.157,60.2934 " />
</g>
<g clip-path="url(#clipId0)" fill="rgb(0,0,0)" stroke="rgb(0,0,0)" stroke-width="0.35" >
<path d="M689.602,154.015 696.157,154.015 692.88,134.35 692.88,134.35 z" />
<path d="M696.157,223.828 689.602,223.828 692.88,243.493 692.88,243.493 z" />
<path d="M532.158,125.879 538.582,127.182 539.278,107.258 539.278,107.258 z" />
<path d="M538.631,250.818 532.19,252.037 539.067,270.75 539.067,270.75 z" />
<path d="M401.919,99.2097 408.474,99.2097 405.196,79.5444 405.196,79.5444 z" />
<path d="M407.859,282.292 401.304,282.292 404.582,301.957 404.582,301.957 z" />
<path d="M455.037,54.346 455.037,47.7909 435.372,51.0685 435.372,51.0685 z" />
<path d="M620.722,47.4012 620.722,53.9563 640.387,50.6787 640.387,50.6787 z" />
<path d="M339.262,186.94 339.262,193.496 358.927,190.218 358.927,190.218 z" />
<path d="M401.965,412.21 408.52,412.21 405.242,392.545 405.242,392.545 z" />
<path d="M408.506,591.436 401.951,591.436 405.228,611.102 405.228,611.102 z" />
<path d="M533.95,431.636 540.363,432.992 541.226,413.074 541.226,413.074 z" />
<path d="M539.734,570.563 533.382,572.184 541.423,590.428 541.423,590.428 z" />
<path d="M689.493,452.235 696.048,452.235 692.771,432.57 692.771,432.57 z" />
<path d="M696.048,550.337 689.493,550.337 692.771,570.002 692.771,570.002 z" />
<path d="M888.992,499.01 888.992,505.565 908.657,502.288 908.657,502.288 z" />
</g>
<g clip-path="url(#clipId0)" fill="none" stroke="rgb(0,0,0)" stroke-width="0.35" >
<polyline points="692.771,432.57 692.771,486.512 " />
<polyline points="692.771,515.724 692.771,570.002 " />
<polyline points="405.242,392.545 405.242,482.487 " />
<polyline points="405.242,514.504 405.242,610.992 " />
<polyline points="692.88,134.35 692.88,176.898 " />
<polyline points="692.88,203.182 692.88,243.602 " />
<polyline points="405.196,79.5444 405.196,171.695 " />
<polyline points="405.196,202.316 405.196,298.227 " />
<polyline points="549.142,111.956 539.278,107.258 " />
<polyline points="536.634,260.093 539.067,270.75 " />
<polyline points="116.613,494.594 116.613,509.707 " />
<polyline points="116.613,494.594 125.969,494.594 " />
<polyline points="116.613,501.79 122.371,501.79 " />
<polyline points="129.567,494.594 129.567,509.707 " />
<polyline points="129.567,494.594 136.044,494.594 138.203,495.314 138.923,496.033 139.642,497.472 139.642,498.912 138.923,500.351 138.203,501.071 136.044,501.79 129.567,501.79 " />
<polyline points="134.605,501.79 139.642,509.707 " />
<polyline points="148.278,494.594 146.839,495.314 145.4,496.753 144.68,498.192 143.96,500.351 143.96,503.949 144.68,506.108 145.4,507.548 146.839,508.987 148.278,509.707 151.157,509.707 152.596,508.987 154.036,507.548 154.755,506.108 155.475,503.949 155.475,500.351 154.755,498.192 154.036,496.753 152.596,495.314 151.157,494.594 148.278,494.594 " />
<polyline points="160.513,494.594 160.513,509.707 " />
<polyline points="160.513,494.594 166.27,509.707 " />
<polyline points="172.027,494.594 166.27,509.707 " />
<polyline points="172.027,494.594 172.027,509.707 " />
<polyline points="192.897,494.594 192.897,509.707 " />
<polyline points="192.897,494.594 202.253,494.594 " />
<polyline points="192.897,501.79 198.655,501.79 " />
<polyline points="209.449,494.594 203.692,509.707 " />
<polyline points="209.449,494.594 215.207,509.707 " />
<polyline points="205.851,504.669 213.048,504.669 " />
<polyline points="218.805,494.594 218.805,509.707 " />
<polyline points="218.805,494.594 228.88,509.707 " />
<polyline points="228.88,494.594 228.88,509.707 " />
<polyline points="266.757,491.969 283.682,491.969 " />
<polyline points="300.607,511.512 283.682,511.512 " />
<polyline points="266.757,491.969 300.607,511.512 " />
<polyline points="241.856,190.218 358.927,190.218 " />
<polyline points="317.591,477.07 316.242,477.744 314.893,479.094 314.218,480.443 313.543,482.467 313.543,485.841 314.218,487.865 314.893,489.214 316.242,490.563 317.591,491.238 320.29,491.238 321.639,490.563 322.989,489.214 323.663,487.865 324.338,485.841 324.338,482.467 323.663,480.443 322.989,479.094 321.639,477.744 320.29,477.07 317.591,477.07 " />
<polyline points="319.615,488.539 323.663,492.587 " />
</g>
<g clip-path="url(#clipId0)" fill="rgb(0,0,0)" stroke="rgb(0,0,0)" stroke-width="0.35" >
<path d="M340.35,497.437 340.35,503.992 360.015,500.714 360.015,500.714 z" />
</g>
<g clip-path="url(#clipId0)" fill="none" stroke="rgb(0,0,0)" stroke-width="0.35" >
<polyline points="242.944,500.714 360.015,500.714 " />
</g>
</svg>
