<?xml version="1.0" standalone="no"?>
<svg viewBox="0 0 1024 768" version="1.1" xmlns="http://www.w3.org/2000/svg" xmlns:xlink="http://www.w3.org/1999/xlink" stroke-linecap="round" stroke-linejoin="round" fill-rule="evenodd" xml:space="preserve" >
<defs >
<clipPath id="clipId0" >
<path d="M0,768 1024,768 1024,0 0,0 z" />
</clipPath>
</defs>
<g clip-path="url(#clipId0)" fill="none" stroke="rgb(0,0,0)" stroke-width="0.1" />
<g clip-path="url(#clipId0)" fill="none" stroke="rgb(0,0,0)" stroke-width="0.25" >
<polyline points="236.865,132.963 236.865,380.193 " />
<polyline points="236.865,380.193 275.495,380.193 " />
<polyline points="236.865,132.963 275.495,132.963 " />
<polyline points="552.366,380.193 531.764,380.193 " />
<polyline points="531.764,380.193 559.079,407.509 " />
<polyline points="590.036,438.466 473.491,555.011 " />
<polyline points="298.673,380.193 442.534,524.054 " />
<polyline points="552.366,132.963 552.366,380.193 " />
<polyline points="637.351,174.168 675.981,174.168 " />
<polyline points="637.351,338.988 675.981,338.988 " />
<polyline points="552.366,132.963 632.754,173.157 " />
<polyline points="632.754,340 552.366,380.193 " />
<polyline points="675.981,174.168 675.981,338.988 " />
<path d="M531.764,380.193  A169.022,169.022 0 0,0 298.673,380.193 " />
<polyline points="291.603,256.578 312.206,256.578 " />
<polyline points="291.603,256.578 271.001,256.578 " />
<polyline points="291.603,256.578 277.035,242.01 " />
<polyline points="291.603,256.578 306.171,271.147 " />
<polyline points="320.74,285.715 553.83,518.805 " />
<polyline points="332.808,256.578 699.155,256.578 " />
<polyline points="250.398,256.578 212.677,256.578 " />
<polyline points="280.646,132.963 280.646,380.193 " />
<polyline points="275.495,132.963 275.495,380.193 " />
<path d="M280.646,132.963  A2.68262,2.68262 0 0,0 275.495,132.963 " />
<path d="M275.495,380.193  A2.68262,2.68262 0 0,0 280.646,380.193 " />
<polyline points="280.646,132.963 552.366,132.963 " />
<polyline points="280.646,380.193 298.673,380.193 " />
<polyline points="637.351,174.168 637.351,338.988 " />
<polyline points="632.201,174.168 632.201,338.988 " />
<path d="M637.351,174.168  A2.68262,2.68262 0 0,0 632.201,174.168 " />
<path d="M632.201,338.988  A2.68262,2.68262 0 0,0 637.351,338.988 " />
<path d="M562.721,411.151  A2.68262,2.68262 0 0,0 559.079,407.509 " />
<polyline points="559.079,407.509 442.534,524.054 " />
<polyline points="562.721,411.151 446.176,527.696 " />
<polyline points="562.721,411.151 590.036,438.466 " />
<path d="M442.534,524.054  A2.68262,2.68262 0 0,0 446.176,527.696 " />
<polyline points="446.176,527.696 473.491,555.011 " />
<polyline points="353.256,280.354 355.218,279.373 358.161,276.43 358.161,297.033 " />
<polyline points="372.877,273.487 371.896,274.468 370.915,273.487 371.896,272.506 372.877,273.487 372.877,275.449 371.896,277.411 370.915,278.392 " />
<polyline points="378.764,273.487 377.783,274.468 376.802,273.487 377.783,272.506 378.764,273.487 378.764,275.449 377.783,277.411 376.802,278.392 " />
<polyline points="391.518,272.506 389.556,274.468 387.593,277.411 385.631,281.335 384.65,286.241 384.65,290.165 385.631,295.07 387.593,298.995 389.556,301.938 391.518,303.9 " />
<polyline points="398.385,281.335 398.385,280.354 399.366,278.392 400.347,277.411 402.309,276.43 406.234,276.43 408.196,277.411 409.177,278.392 410.158,280.354 410.158,282.316 409.177,284.279 407.215,287.222 397.404,297.033 411.139,297.033 " />
<polyline points="428.798,276.43 418.988,276.43 418.007,285.26 418.988,284.279 421.931,283.298 424.874,283.298 427.817,284.279 429.779,286.241 430.761,289.184 430.761,291.146 429.779,294.089 427.817,296.051 424.874,297.033 421.931,297.033 418.988,296.051 418.007,295.07 417.026,293.108 " />
<polyline points="437.628,283.298 437.628,297.033 " />
<polyline points="437.628,287.222 440.571,284.279 442.533,283.298 445.477,283.298 447.439,284.279 448.42,287.222 448.42,297.033 " />
<polyline points="448.42,287.222 451.363,284.279 453.325,283.298 456.268,283.298 458.231,284.279 459.212,287.222 459.212,297.033 " />
<polyline points="467.06,283.298 467.06,297.033 " />
<polyline points="467.06,287.222 470.003,284.279 471.966,283.298 474.909,283.298 476.871,284.279 477.852,287.222 477.852,297.033 " />
<polyline points="477.852,287.222 480.795,284.279 482.757,283.298 485.701,283.298 487.663,284.279 488.644,287.222 488.644,297.033 " />
<polyline points="495.511,272.506 497.473,274.468 499.436,277.411 501.398,281.335 502.379,286.241 502.379,290.165 501.398,295.07 499.436,298.995 497.473,301.938 495.511,303.9 " />
<polyline points="57.6396,454.11 59.6017,453.129 62.5449,450.186 62.5449,470.788 " />
<polyline points="77.261,447.242 76.2799,448.223 75.2989,447.242 76.2799,446.261 77.261,447.242 77.261,449.204 76.2799,451.167 75.2989,452.148 " />
<polyline points="83.1474,447.242 82.1664,448.223 81.1853,447.242 82.1664,446.261 83.1474,447.242 83.1474,449.204 82.1664,451.167 81.1853,452.148 " />
<polyline points="95.9014,446.261 93.9392,448.223 91.9771,451.167 90.0149,455.091 89.0339,459.996 89.0339,463.921 90.0149,468.826 91.9771,472.75 93.9392,475.693 95.9014,477.656 " />
<polyline points="102.769,455.091 102.769,454.11 103.75,452.148 104.731,451.167 106.693,450.186 110.617,450.186 112.58,451.167 113.561,452.148 114.542,454.11 114.542,456.072 113.561,458.034 111.599,460.977 101.788,470.788 115.523,470.788 " />
<polyline points="133.182,450.186 123.371,450.186 122.39,459.015 123.371,458.034 126.315,457.053 129.258,457.053 132.201,458.034 134.163,459.996 135.144,462.939 135.144,464.902 134.163,467.845 132.201,469.807 129.258,470.788 126.315,470.788 123.371,469.807 122.39,468.826 121.409,466.864 " />
<polyline points="142.012,457.053 142.012,470.788 " />
<polyline points="142.012,460.977 144.955,458.034 146.917,457.053 149.86,457.053 151.822,458.034 152.804,460.977 152.804,470.788 " />
<polyline points="152.804,460.977 155.747,458.034 157.709,457.053 160.652,457.053 162.614,458.034 163.595,460.977 163.595,470.788 " />
<polyline points="171.444,457.053 171.444,470.788 " />
<polyline points="171.444,460.977 174.387,458.034 176.349,457.053 179.292,457.053 181.255,458.034 182.236,460.977 182.236,470.788 " />
<polyline points="182.236,460.977 185.179,458.034 187.141,457.053 190.084,457.053 192.046,458.034 193.027,460.977 193.027,470.788 " />
<polyline points="199.895,446.261 201.857,448.223 203.819,451.167 205.781,455.091 206.762,459.996 206.762,463.921 205.781,468.826 203.819,472.75 201.857,475.693 199.895,477.656 " />
<polyline points="301.173,524.755 282.687,524.755 " />
<polyline points="120.162,521.132 120.162,520.151 121.143,518.189 122.124,517.207 124.086,516.226 128.01,516.226 129.973,517.207 130.954,518.189 131.935,520.151 131.935,522.113 130.954,524.075 128.991,527.018 119.181,536.829 132.916,536.829 " />
<polyline points="141.745,513.283 140.764,514.264 139.783,513.283 140.764,512.302 141.745,513.283 141.745,515.245 140.764,517.207 139.783,518.189 " />
<polyline points="147.632,513.283 146.651,514.264 145.67,513.283 146.651,512.302 147.632,513.283 147.632,515.245 146.651,517.207 145.67,518.189 " />
<polyline points="160.386,512.302 158.424,514.264 156.461,517.207 154.499,521.132 153.518,526.037 153.518,529.961 154.499,534.867 156.461,538.791 158.424,541.734 160.386,543.696 " />
<polyline points="178.045,516.226 168.234,516.226 167.253,525.056 168.234,524.075 171.178,523.094 174.121,523.094 177.064,524.075 179.026,526.037 180.007,528.98 180.007,530.942 179.026,533.886 177.064,535.848 174.121,536.829 171.178,536.829 168.234,535.848 167.253,534.867 166.272,532.905 " />
<polyline points="191.78,516.226 188.837,517.207 186.875,520.151 185.894,525.056 185.894,527.999 186.875,532.905 188.837,535.848 191.78,536.829 193.742,536.829 196.685,535.848 198.648,532.905 199.629,527.999 199.629,525.056 198.648,520.151 196.685,517.207 193.742,516.226 191.78,516.226 " />
<polyline points="206.496,523.094 206.496,536.829 " />
<polyline points="206.496,527.018 209.439,524.075 211.401,523.094 214.345,523.094 216.307,524.075 217.288,527.018 217.288,536.829 " />
<polyline points="217.288,527.018 220.231,524.075 222.193,523.094 225.136,523.094 227.099,524.075 228.08,527.018 228.08,536.829 " />
<polyline points="235.928,523.094 235.928,536.829 " />
<polyline points="235.928,527.018 238.871,524.075 240.834,523.094 243.777,523.094 245.739,524.075 246.72,527.018 246.72,536.829 " />
<polyline points="246.72,527.018 249.663,524.075 251.625,523.094 254.569,523.094 256.531,524.075 257.512,527.018 257.512,536.829 " />
<polyline points="264.379,512.302 266.341,514.264 268.304,517.207 270.266,521.132 271.247,526.037 271.247,529.961 270.266,534.867 268.304,538.791 266.341,541.734 264.379,543.696 " />
<polyline points="726.916,174.168 726.916,143.265 " />
<polyline points="726.916,143.265 747.518,143.265 " />
<polyline points="756.222,129.693 756.222,150.295 " />
<polyline points="756.222,129.693 763.089,129.693 766.033,130.674 767.995,132.636 768.976,134.598 769.957,137.542 769.957,142.447 768.976,145.39 767.995,147.352 766.033,149.314 763.089,150.295 756.222,150.295 " />
<polyline points="781.637,147.701 780.901,146.23 778.694,145.494 776.486,145.494 774.279,146.23 773.543,147.701 774.279,149.173 775.751,149.909 779.43,150.644 780.901,151.38 781.637,152.852 781.637,153.588 780.901,155.059 778.694,155.795 776.486,155.795 774.279,155.059 773.543,153.588 " />
<polyline points="626.532,474.962 648.384,453.109 " />
<polyline points="648.384,453.109 668.987,453.109 " />
<polyline points="179.839,132.963 179.839,102.06 " />
<polyline points="179.839,102.06 159.236,102.06 " />
<polyline points="677.69,439.538 677.69,460.14 " />
<polyline points="677.69,439.538 684.558,439.538 687.501,440.519 689.463,442.481 690.444,444.443 691.425,447.386 691.425,452.292 690.444,455.235 689.463,457.197 687.501,459.159 684.558,460.14 677.69,460.14 " />
<polyline points="696.302,452.763 696.302,468.215 " />
<polyline points="696.302,460.121 697.774,458.65 699.245,457.914 701.453,457.914 702.924,458.65 704.396,460.121 705.132,462.329 705.132,463.8 704.396,466.008 702.924,467.479 701.453,468.215 699.245,468.215 697.774,467.479 696.302,466.008 " />
<polyline points="128.534,88.488 128.534,109.09 " />
<polyline points="128.534,88.488 135.401,88.488 138.344,89.4691 140.306,91.4312 141.287,93.3934 142.269,96.3366 142.269,101.242 141.287,104.185 140.306,106.147 138.344,108.109 135.401,109.09 128.534,109.09 " />
<polyline points="154.317,106.496 152.845,105.025 151.373,104.289 149.166,104.289 147.694,105.025 146.223,106.496 145.487,108.704 145.487,110.175 146.223,112.383 147.694,113.854 149.166,114.59 151.373,114.59 152.845,113.854 154.317,112.383 " />
<polyline points="547.753,33.8626 547.753,54.4651 " />
<polyline points="547.753,33.8626 554.62,33.8626 557.563,34.8437 559.526,36.8058 560.507,38.7679 561.488,41.7112 561.488,46.6165 560.507,49.5597 559.526,51.5219 557.563,53.484 554.62,54.4651 547.753,54.4651 " />
<polyline points="588.958,45.6354 606.617,45.6354 " />
<polyline points="614.466,33.8626 614.466,54.4651 " />
<polyline points="614.466,33.8626 621.333,33.8626 624.276,34.8437 626.238,36.8058 627.219,38.7679 628.201,41.7112 628.201,46.6165 627.219,49.5597 626.238,51.5219 624.276,53.484 621.333,54.4651 614.466,54.4651 " />
<polyline points="662.538,29.9383 660.576,31.9004 658.614,34.8437 656.652,38.7679 655.671,43.6733 655.671,47.5976 656.652,52.5029 658.614,56.4272 660.576,59.3704 662.538,61.3326 " />
<polyline points="671.368,37.7869 673.33,36.8058 676.273,33.8626 676.273,54.4651 " />
<polyline points="690.989,30.9194 690.008,31.9004 689.027,30.9194 690.008,29.9383 690.989,30.9194 690.989,32.8815 690.008,34.8437 689.027,35.8247 " />
<polyline points="696.876,30.9194 695.894,31.9004 694.913,30.9194 695.894,29.9383 696.876,30.9194 696.876,32.8815 695.894,34.8437 694.913,35.8247 " />
<polyline points="709.629,29.9383 707.667,31.9004 705.705,34.8437 703.743,38.7679 702.762,43.6733 702.762,47.5976 703.743,52.5029 705.705,56.4272 707.667,59.3704 709.629,61.3326 " />
<polyline points="716.497,38.7679 716.497,37.7869 717.478,35.8247 718.459,34.8437 720.421,33.8626 724.346,33.8626 726.308,34.8437 727.289,35.8247 728.27,37.7869 728.27,39.749 727.289,41.7112 725.327,44.6544 715.516,54.4651 729.251,54.4651 " />
<polyline points="746.91,33.8626 737.099,33.8626 736.118,42.6922 737.099,41.7112 740.043,40.7301 742.986,40.7301 745.929,41.7112 747.891,43.6733 748.872,46.6165 748.872,48.5787 747.891,51.5219 745.929,53.484 742.986,54.4651 740.043,54.4651 737.099,53.484 736.118,52.5029 735.137,50.5408 " />
<polyline points="755.74,40.7301 755.74,54.4651 " />
<polyline points="755.74,44.6544 758.683,41.7112 760.645,40.7301 763.588,40.7301 765.551,41.7112 766.532,44.6544 766.532,54.4651 " />
<polyline points="766.532,44.6544 769.475,41.7112 771.437,40.7301 774.38,40.7301 776.342,41.7112 777.323,44.6544 777.323,54.4651 " />
<polyline points="785.172,40.7301 785.172,54.4651 " />
<polyline points="785.172,44.6544 788.115,41.7112 790.077,40.7301 793.021,40.7301 794.983,41.7112 795.964,44.6544 795.964,54.4651 " />
<polyline points="795.964,44.6544 798.907,41.7112 800.869,40.7301 803.812,40.7301 805.774,41.7112 806.756,44.6544 806.756,54.4651 " />
<polyline points="813.623,29.9383 815.585,31.9004 817.547,34.8437 819.509,38.7679 820.491,43.6733 820.491,47.5976 819.509,52.5029 817.547,56.4272 815.585,59.3704 813.623,61.3326 " />
<polyline points="848.942,40.7301 848.942,54.4651 " />
<polyline points="848.942,44.6544 851.885,41.7112 853.847,40.7301 856.79,40.7301 858.752,41.7112 859.733,44.6544 859.733,54.4651 " />
<polyline points="859.733,44.6544 862.677,41.7112 864.639,40.7301 867.582,40.7301 869.544,41.7112 870.525,44.6544 870.525,54.4651 " />
<polyline points="877.393,34.8437 878.374,35.8247 879.355,34.8437 878.374,33.8626 877.393,34.8437 " />
<polyline points="878.374,41.7112 878.374,54.4651 " />
<polyline points="886.222,40.7301 886.222,54.4651 " />
<polyline points="886.222,44.6544 889.166,41.7112 891.128,40.7301 894.071,40.7301 896.033,41.7112 897.014,44.6544 897.014,54.4651 " />
<polyline points="905.844,52.5029 904.863,53.484 905.844,54.4651 906.825,53.484 905.844,52.5029 " />
<polyline points="661.546,80.7352 659.584,81.7162 657.622,83.6784 656.641,86.6216 656.641,88.5837 657.622,91.527 659.584,93.4891 661.546,94.4702 664.489,94.4702 666.452,93.4891 668.414,91.527 669.395,88.5837 669.395,86.6216 668.414,83.6784 666.452,81.7162 664.489,80.7352 661.546,80.7352 " />
<polyline points="676.262,80.7352 676.262,94.4702 " />
<polyline points="676.262,86.6216 677.243,83.6784 679.206,81.7162 681.168,80.7352 684.111,80.7352 " />
<polyline points="711.581,77.792 713.543,76.8109 716.486,73.8677 716.486,94.4702 " />
<polyline points="729.24,78.773 729.24,77.792 730.221,75.8298 731.202,74.8487 733.164,73.8677 737.089,73.8677 739.051,74.8487 740.032,75.8298 741.013,77.792 741.013,79.7541 740.032,81.7162 738.07,84.6595 728.259,94.4702 741.994,94.4702 " />
<polyline points="750.824,70.9245 749.843,71.9055 748.862,70.9245 749.843,69.9434 750.824,70.9245 750.824,72.8866 749.843,74.8487 748.862,75.8298 " />
<polyline points="756.71,70.9245 755.729,71.9055 754.748,70.9245 755.729,69.9434 756.71,70.9245 756.71,72.8866 755.729,74.8487 754.748,75.8298 " />
<polyline points="769.464,69.9434 767.502,71.9055 765.54,74.8487 763.578,78.773 762.597,83.6784 762.597,87.6027 763.578,92.508 765.54,96.4323 767.502,99.3755 769.464,101.338 " />
<polyline points="777.313,73.8677 788.104,73.8677 782.218,81.7162 785.161,81.7162 787.123,82.6973 788.104,83.6784 789.085,86.6216 789.085,88.5837 788.104,91.527 786.142,93.4891 783.199,94.4702 780.256,94.4702 777.313,93.4891 776.332,92.508 775.35,90.5459 " />
<polyline points="800.858,73.8677 797.915,74.8487 795.953,77.792 794.972,82.6973 794.972,85.6405 795.953,90.5459 797.915,93.4891 800.858,94.4702 802.82,94.4702 805.764,93.4891 807.726,90.5459 808.707,85.6405 808.707,82.6973 807.726,77.792 805.764,74.8487 802.82,73.8677 800.858,73.8677 " />
<polyline points="820.48,73.8677 817.537,74.8487 815.574,77.792 814.593,82.6973 814.593,85.6405 815.574,90.5459 817.537,93.4891 820.48,94.4702 822.442,94.4702 825.385,93.4891 827.347,90.5459 828.328,85.6405 828.328,82.6973 827.347,77.792 825.385,74.8487 822.442,73.8677 820.48,73.8677 " />
<polyline points="835.196,80.7352 835.196,94.4702 " />
<polyline points="835.196,84.6595 838.139,81.7162 840.101,80.7352 843.044,80.7352 845.007,81.7162 845.988,84.6595 845.988,94.4702 " />
<polyline points="845.988,84.6595 848.931,81.7162 850.893,80.7352 853.836,80.7352 855.798,81.7162 856.779,84.6595 856.779,94.4702 " />
<polyline points="864.628,80.7352 864.628,94.4702 " />
<polyline points="864.628,84.6595 867.571,81.7162 869.533,80.7352 872.477,80.7352 874.439,81.7162 875.42,84.6595 875.42,94.4702 " />
<polyline points="875.42,84.6595 878.363,81.7162 880.325,80.7352 883.268,80.7352 885.23,81.7162 886.212,84.6595 886.212,94.4702 " />
<polyline points="893.079,69.9434 895.041,71.9055 897.003,74.8487 898.965,78.773 899.947,83.6784 899.947,87.6027 898.965,92.508 897.003,96.4323 895.041,99.3755 893.079,101.338 " />
<polyline points="928.398,80.7352 928.398,94.4702 " />
<polyline points="928.398,84.6595 931.341,81.7162 933.303,80.7352 936.246,80.7352 938.208,81.7162 939.189,84.6595 939.189,94.4702 " />
<polyline points="939.189,84.6595 942.133,81.7162 944.095,80.7352 947.038,80.7352 949,81.7162 949.981,84.6595 949.981,94.4702 " />
<polyline points="968.622,80.7352 968.622,94.4702 " />
<polyline points="968.622,83.6784 966.659,81.7162 964.697,80.7352 961.754,80.7352 959.792,81.7162 957.83,83.6784 956.849,86.6216 956.849,88.5837 957.83,91.527 959.792,93.4891 961.754,94.4702 964.697,94.4702 966.659,93.4891 968.622,91.527 " />
<polyline points="975.489,80.7352 986.281,94.4702 " />
<polyline points="986.281,80.7352 975.489,94.4702 " />
<polyline points="994.129,92.508 993.148,93.4891 994.129,94.4702 995.11,93.4891 994.129,92.508 " />
<polyline points="1001.98,69.9434 1003.94,71.9055 1005.9,74.8487 1007.86,78.773 1008.85,83.6784 1008.85,87.6027 1007.86,92.508 1005.9,96.4323 1003.94,99.3755 1001.98,101.338 " />
<polyline points="573.536,51.8707 572.064,50.3991 570.593,49.6633 568.385,49.6633 566.914,50.3991 565.442,51.8707 564.706,54.0781 564.706,55.5498 565.442,57.7572 566.914,59.2288 568.385,59.9646 570.593,59.9646 572.064,59.2288 573.536,57.7572 " />
<polyline points="639.668,51.8707 638.932,50.3991 636.725,49.6633 634.517,49.6633 632.31,50.3991 631.574,51.8707 632.31,53.3423 633.781,54.0781 637.46,54.814 638.932,55.5498 639.668,57.0214 639.668,57.7572 638.932,59.2288 636.725,59.9646 634.517,59.9646 632.31,59.2288 631.574,57.7572 " />
</g>
<g clip-path="url(#clipId0)" fill="rgb(0,0,0)" stroke="rgb(0,0,0)" stroke-width="0.25" >
<path d="M656.732,614.702 649.739,621.695 674.214,639.176 674.214,639.176 z" />
</g>
<g clip-path="url(#clipId0)" fill="none" stroke="rgb(0,0,0)" stroke-width="0.25" >
<path d="M343.626,238.319  A55.1344,55.1344 0 0,0 334.644,222.121 " />
<path d="M297.672,311.378  A55.1344,55.1344 0 0,0 315.478,306.276 " />
</g>
<g clip-path="url(#clipId0)" fill="rgb(0,0,0)" stroke="rgb(0,0,0)" stroke-width="0.25" >
<path d="M340.583,238.838 346.67,237.801 346.738,256.578 346.738,256.578 z" />
<path d="M313.693,303.757 317.263,308.794 330.589,295.564 330.589,295.564 z" />
</g>
<g clip-path="url(#clipId0)" fill="none" stroke="rgb(0,0,0)" stroke-width="0.25" >
<polyline points="552.366,122.673 552.366,72.1433 " />
<polyline points="632.754,162.867 632.754,72.1433 " />
<polyline points="570.889,77.2884 614.231,77.2884 " />
</g>
<g clip-path="url(#clipId0)" fill="rgb(0,0,0)" stroke="rgb(0,0,0)" stroke-width="0.25" >
<path d="M570.889,74.2014 570.889,80.3755 552.366,77.2884 552.366,77.2884 z" />
<path d="M614.231,74.2014 614.231,80.3755 632.754,77.2884 632.754,77.2884 z" />
</g>
<g clip-path="url(#clipId0)" fill="none" stroke="rgb(0,0,0)" stroke-width="0.25" >
<polyline points="524.487,387.47 340.55,571.408 " />
<polyline points="331.09,554.672 317.993,541.575 " />
<polyline points="384.6,608.182 397.698,621.279 " />
<polyline points="317.993,541.575 301.173,524.755 " />
</g>
<g clip-path="url(#clipId0)" fill="rgb(0,0,0)" stroke="rgb(0,0,0)" stroke-width="0.25" >
<path d="M328.907,556.855 333.273,552.489 344.188,567.769 344.188,567.769 z" />
<path d="M382.418,610.365 386.783,605.999 371.503,595.085 371.503,595.085 z" />
</g>
<g clip-path="url(#clipId0)" fill="none" stroke="rgb(0,0,0)" stroke-width="0.25" >
<polyline points="436.459,530.129 367.865,598.723 " />
<polyline points="280.646,390.484 280.646,471.491 " />
<polyline points="298.673,390.484 298.673,471.491 " />
<polyline points="262.123,466.346 243.601,466.346 " />
<polyline points="317.195,466.346 335.718,466.346 " />
</g>
<g clip-path="url(#clipId0)" fill="rgb(0,0,0)" stroke="rgb(0,0,0)" stroke-width="0.25" >
<path d="M262.123,463.259 262.123,469.433 280.646,466.346 280.646,466.346 z" />
<path d="M317.195,463.259 317.195,469.433 298.673,466.346 298.673,466.346 z" />
</g>
<g clip-path="url(#clipId0)" fill="none" stroke="rgb(0,0,0)" stroke-width="0.25" >
<polyline points="531.764,369.903 531.764,299.844 " />
<polyline points="570.889,304.989 589.411,304.989 " />
<polyline points="513.241,304.989 494.719,304.989 " />
<polyline points="589.411,304.989 607.934,304.989 " />
</g>
<g clip-path="url(#clipId0)" fill="rgb(0,0,0)" stroke="rgb(0,0,0)" stroke-width="0.25" >
<path d="M570.889,308.077 570.889,301.902 552.366,304.989 552.366,304.989 z" />
<path d="M513.241,308.077 513.241,301.902 531.764,304.989 531.764,304.989 z" />
</g>
<g clip-path="url(#clipId0)" fill="none" stroke="rgb(0,0,0)" stroke-width="0.25" >
<polyline points="686.271,174.168 731.039,174.168 " />
<polyline points="686.271,338.988 731.039,338.988 " />
<polyline points="725.894,192.691 725.894,320.466 " />
</g>
<g clip-path="url(#clipId0)" fill="rgb(0,0,0)" stroke="rgb(0,0,0)" stroke-width="0.25" >
<path d="M728.981,192.691 722.807,192.691 725.894,174.168 725.894,174.168 z" />
<path d="M728.981,320.466 722.807,320.466 725.894,338.988 725.894,338.988 z" />
</g>
<g clip-path="url(#clipId0)" fill="none" stroke="rgb(0,0,0)" stroke-width="0.25" >
<polyline points="226.575,132.963 173.562,132.963 " />
<polyline points="226.575,380.193 173.562,380.193 " />
<polyline points="178.707,151.486 178.707,361.671 " />
</g>
<g clip-path="url(#clipId0)" fill="rgb(0,0,0)" stroke="rgb(0,0,0)" stroke-width="0.25" >
<path d="M181.794,151.486 175.62,151.486 178.707,132.963 178.707,132.963 z" />
<path d="M181.794,361.671 175.62,361.671 178.707,380.193 178.707,380.193 z" />
</g>
<g clip-path="url(#clipId0)" fill="none" stroke="rgb(0,0,0)" stroke-width="0.25" >
<polyline points="597.313,445.742 630.388,478.818 " />
<polyline points="480.767,562.288 513.843,595.363 " />
<polyline points="613.652,488.277 523.302,578.627 " />
</g>
<g clip-path="url(#clipId0)" fill="rgb(0,0,0)" stroke="rgb(0,0,0)" stroke-width="0.25" >
<path d="M615.835,490.46 611.469,486.094 626.75,475.18 626.75,475.18 z" />
<path d="M525.485,580.81 521.119,576.445 510.204,591.725 510.204,591.725 z" />
</g>
<g clip-path="url(#clipId0)" fill="none" stroke="rgb(0,0,0)" stroke-width="0.25" >
<polyline points="314.954,196.637 307.604,206.928 318.629,206.928 " />
<polyline points="314.954,196.637 314.954,212.073 " />
<polyline points="331.124,196.637 323.774,196.637 323.039,203.253 323.774,202.518 325.979,201.783 328.184,201.783 330.389,202.518 331.859,203.988 332.594,206.193 332.594,207.663 331.859,209.868 330.389,211.338 328.184,212.073 325.979,212.073 323.774,211.338 323.039,210.603 322.304,209.133 " />
<polyline points="339.528,188.401 338.058,189.136 336.588,190.606 335.853,192.811 335.853,194.281 336.588,196.486 338.058,197.956 339.528,198.691 341.733,198.691 343.203,197.956 344.673,196.486 345.408,194.281 345.408,192.811 344.673,190.606 343.203,189.136 341.733,188.401 339.528,188.401 " />
<polyline points="926.64,718.657 924.484,716.501 921.25,715.423 916.938,715.423 913.704,716.501 911.548,718.657 911.548,720.813 912.626,722.969 913.704,724.047 915.86,725.125 922.328,727.281 924.484,728.359 925.562,729.437 926.64,731.594 926.64,734.828 924.484,736.984 921.25,738.062 916.938,738.062 913.704,736.984 911.548,734.828 " />
<polyline points="934.187,715.423 934.187,738.062 " />
<polyline points="934.187,715.423 941.733,715.423 944.967,716.501 947.123,718.657 948.201,720.813 949.279,724.047 949.279,729.437 948.201,732.672 947.123,734.828 944.967,736.984 941.733,738.062 934.187,738.062 " />
<polyline points="968.684,715.423 957.903,715.423 956.825,725.125 957.903,724.047 961.137,722.969 964.371,722.969 967.606,724.047 969.762,726.203 970.84,729.437 970.84,731.594 969.762,734.828 967.606,736.984 964.371,738.062 961.137,738.062 957.903,736.984 956.825,735.906 955.747,733.75 " />
<polyline points="978.386,728.359 997.79,728.359 " />
<polyline points="1008.57,719.735 1010.73,718.657 1013.96,715.423 1013.96,738.062 " />
<polyline points="106.553,257.595 10.0392,257.595 " />
</g>
<g clip-path="url(#clipId0)" fill="rgb(0,0,0)" stroke="rgb(0,0,0)" stroke-width="0.25" >
<path d="M106.553,254.251 106.553,260.94 135.258,259.826 135.258,259.826 z" />
</g>
<g clip-path="url(#clipId0)" fill="none" stroke="rgb(0,0,0)" stroke-width="0.25" >
<polyline points="83.7478,284.868 83.1745,283.721 82.0278,282.575 80.8812,282.001 78.5879,282.001 77.4413,282.575 76.2947,283.721 75.7213,284.868 75.148,286.588 75.148,289.454 75.7213,291.174 76.2947,292.321 77.4413,293.468 78.5879,294.041 80.8812,294.041 82.0278,293.468 83.1745,292.321 83.7478,291.174 " />
<polyline points="58.5362,268.638 50.892,288.704 " />
<polyline points="58.5362,268.638 66.1804,288.704 " />
<polyline points="53.7586,282.016 63.3139,282.016 " />
<polyline points="83.7478,234.84 83.1745,233.694 82.0278,232.547 80.8812,231.974 78.5879,231.974 77.4413,232.547 76.2947,233.694 75.7213,234.84 75.148,236.56 75.148,239.427 75.7213,241.147 76.2947,242.293 77.4413,243.44 78.5879,244.013 80.8812,244.013 82.0278,243.44 83.1745,242.293 83.7478,241.147 " />
<polyline points="58.5362,218.611 56.6252,219.566 54.7141,221.477 53.7586,223.388 52.8031,226.255 52.8031,231.032 53.7586,233.899 54.7141,235.81 56.6252,237.721 58.5362,238.677 62.3583,238.677 64.2694,237.721 66.1804,235.81 67.136,233.899 68.0915,231.032 68.0915,226.255 67.136,223.388 66.1804,221.477 64.2694,219.566 62.3583,218.611 58.5362,218.611 " />
<polyline points="61.4028,234.854 67.136,240.588 " />
<polyline points="663.924,575.648 663.924,587.688 " />
<polyline points="663.924,581.381 665.071,580.235 666.218,579.661 667.938,579.661 669.084,580.235 670.231,581.381 670.804,583.101 670.804,584.248 670.231,585.968 669.084,587.114 667.938,587.688 666.218,587.688 665.071,587.114 663.924,585.968 " />
<polyline points="647.842,564.367 645.931,565.323 644.02,567.234 643.064,569.145 642.109,572.011 642.109,576.789 643.064,579.656 644.02,581.567 645.931,583.478 647.842,584.433 651.664,584.433 653.575,583.478 655.486,581.567 656.442,579.656 657.397,576.789 657.397,572.011 656.442,569.145 655.486,567.234 653.575,565.323 651.664,564.367 647.842,564.367 " />
<polyline points="650.709,580.611 656.442,586.344 " />
<polyline points="621.262,610.136 621.262,622.176 " />
<polyline points="621.262,615.869 622.408,614.723 623.555,614.149 625.275,614.149 626.422,614.723 627.568,615.869 628.141,617.589 628.141,618.736 627.568,620.456 626.422,621.603 625.275,622.176 623.555,622.176 622.408,621.603 621.262,620.456 " />
<polyline points="605.179,598.855 597.535,618.921 " />
<polyline points="605.179,598.855 612.824,618.921 " />
<polyline points="600.402,612.233 609.957,612.233 " />
<polyline points="837.255,232.224 836.109,231.077 834.389,230.504 832.095,230.504 830.375,231.077 829.229,232.224 829.229,233.37 829.802,234.517 830.375,235.09 831.522,235.664 834.962,236.81 836.109,237.384 836.682,237.957 837.255,239.104 837.255,240.823 836.109,241.97 834.389,242.543 832.095,242.543 830.375,241.97 829.229,240.823 " />
<polyline points="837.255,286.797 836.109,285.65 834.389,285.077 832.095,285.077 830.375,285.65 829.229,286.797 829.229,287.943 829.802,289.09 830.375,289.663 831.522,290.237 834.962,291.383 836.109,291.957 836.682,292.53 837.255,293.677 837.255,295.397 836.109,296.543 834.389,297.117 832.095,297.117 830.375,296.543 829.229,295.397 " />
<polyline points="871.645,256.774 772.383,256.774 " />
<polyline points="812.091,272.13 804.446,292.196 " />
<polyline points="812.091,272.13 819.735,292.196 " />
<polyline points="807.313,285.508 816.868,285.508 " />
<polyline points="812.091,217.557 810.18,218.513 808.269,220.424 807.313,222.335 806.358,225.201 806.358,229.979 807.313,232.846 808.269,234.757 810.18,236.668 812.091,237.623 815.913,237.623 817.824,236.668 819.735,234.757 820.69,232.846 821.646,229.979 821.646,225.201 820.69,222.335 819.735,220.424 817.824,218.513 815.913,217.557 812.091,217.557 " />
<polyline points="814.957,233.801 820.69,239.534 " />
</g>
<g clip-path="url(#clipId0)" fill="rgb(0,0,0)" stroke="rgb(0,0,0)" stroke-width="0.25" >
<path d="M871.645,253.429 871.645,260.119 891.714,256.774 891.714,256.774 z" />
</g>
<g clip-path="url(#clipId0)" fill="none" stroke="rgb(0,0,0)" stroke-width="0.25" >
<polyline points="653.811,618.383 592.461,557.073 " />
</g>
</svg>
