<?xml version="1.0" standalone="no"?>
<svg viewBox="0 0 1024 768" version="1.1" xmlns="http://www.w3.org/2000/svg" xmlns:xlink="http://www.w3.org/1999/xlink" stroke-linecap="round" stroke-linejoin="round" fill-rule="evenodd" xml:space="preserve" >
<defs >
<clipPath id="clipId0" >
<path d="M0,768 1024,768 1024,0 0,0 z" />
</clipPath>
</defs>
<g clip-path="url(#clipId0)" fill="none" stroke="rgb(0,0,0)" stroke-width="0.1" />
<g clip-path="url(#clipId0)" fill="none" stroke="rgb(0,0,0)" stroke-width="0.25" >
<polyline points="238.747,281.619 238.747,489.63 " />
<polyline points="238.747,489.63 271.249,489.63 " />
<polyline points="238.747,281.619 271.249,281.619 " />
<polyline points="481.427,281.619 481.427,489.63 " />
<polyline points="481.427,281.619 464.092,281.619 " />
<polyline points="481.427,489.63 464.092,489.63 " />
<polyline points="552.93,316.287 585.432,316.287 " />
<polyline points="552.93,454.961 585.432,454.961 " />
<polyline points="585.432,316.287 585.432,454.961 " />
<polyline points="481.427,281.619 549.062,315.436 " />
<polyline points="549.062,455.812 481.427,489.63 " />
<polyline points="275.582,281.619 275.582,489.63 " />
<polyline points="271.249,281.619 271.249,489.63 " />
<path d="M275.582,281.619  A2.25706,2.25706 0 0,0 271.249,281.619 " />
<polyline points="275.582,281.619 290.75,281.619 " />
<path d="M271.249,489.63  A2.25706,2.25706 0 0,0 275.582,489.63 " />
<polyline points="552.93,316.287 552.93,454.961 " />
<polyline points="548.597,316.287 548.597,454.961 " />
<path d="M552.93,316.287  A2.25706,2.25706 0 0,0 548.597,316.287 " />
<path d="M548.597,454.961  A2.25706,2.25706 0 0,0 552.93,454.961 " />
<polyline points="275.582,489.63 290.75,489.63 " />
</g>
<g clip-path="url(#clipId0)" fill="rgb(0,0,0)" stroke="rgb(0,0,0)" stroke-width="0.25" >
<path d="M120.549,381.464 120.549,389.784 145.511,385.624 145.511,385.624 z" />
</g>
<g clip-path="url(#clipId0)" fill="none" stroke="rgb(0,0,0)" stroke-width="0.25" >
<polyline points="120.549,385.624 37.8554,385.624 " />
<polyline points="377.421,32.4907 377.421,94.2007 " />
</g>
<g clip-path="url(#clipId0)" fill="rgb(0,0,0)" stroke="rgb(0,0,0)" stroke-width="0.25" >
<path d="M373.261,32.4907 381.581,32.4907 377.421,7.52941 377.421,7.52941 z" />
</g>
<g clip-path="url(#clipId0)" fill="none" stroke="rgb(0,0,0)" stroke-width="0.25" >
<polyline points="741.944,385.624 668.754,385.624 " />
</g>
<g clip-path="url(#clipId0)" fill="rgb(0,0,0)" stroke="rgb(0,0,0)" stroke-width="0.25" >
<path d="M741.944,381.464 741.944,389.784 766.905,385.624 766.905,385.624 z" />
</g>
<g clip-path="url(#clipId0)" fill="none" stroke="rgb(0,0,0)" stroke-width="0.25" >
<polyline points="121.838,237.154 113.583,248.71 125.965,248.71 " />
<polyline points="121.838,237.154 121.838,254.488 " />
<polyline points="132.568,234.678 131.743,235.503 130.918,234.678 131.743,233.852 132.568,234.678 132.568,236.329 131.743,237.979 130.918,238.805 " />
<polyline points="137.521,234.678 136.696,235.503 135.87,234.678 136.696,233.852 137.521,234.678 137.521,236.329 136.696,237.979 135.87,238.805 " />
<polyline points="148.252,233.852 146.601,235.503 144.95,237.979 143.299,241.281 142.474,245.408 142.474,248.71 143.299,252.837 144.95,256.139 146.601,258.615 148.252,260.266 " />
<polyline points="155.681,240.456 157.332,239.63 159.808,237.154 159.808,254.488 " />
<polyline points="174.666,237.154 172.19,237.979 170.539,240.456 169.713,244.583 169.713,247.059 170.539,251.186 172.19,253.663 174.666,254.488 176.317,254.488 178.793,253.663 180.444,251.186 181.269,247.059 181.269,244.583 180.444,240.456 178.793,237.979 176.317,237.154 174.666,237.154 " />
<polyline points="191.175,237.154 188.698,237.979 187.048,240.456 186.222,244.583 186.222,247.059 187.048,251.186 188.698,253.663 191.175,254.488 192.826,254.488 195.302,253.663 196.953,251.186 197.778,247.059 197.778,244.583 196.953,240.456 195.302,237.979 192.826,237.154 191.175,237.154 " />
<polyline points="203.556,242.932 203.556,254.488 " />
<polyline points="203.556,246.234 206.033,243.758 207.684,242.932 210.16,242.932 211.811,243.758 212.636,246.234 212.636,254.488 " />
<polyline points="212.636,246.234 215.113,243.758 216.763,242.932 219.24,242.932 220.891,243.758 221.716,246.234 221.716,254.488 " />
<polyline points="228.32,242.932 228.32,254.488 " />
<polyline points="228.32,246.234 230.796,243.758 232.447,242.932 234.923,242.932 236.574,243.758 237.399,246.234 237.399,254.488 " />
<polyline points="237.399,246.234 239.876,243.758 241.527,242.932 244.003,242.932 245.654,243.758 246.479,246.234 246.479,254.488 " />
<polyline points="252.257,233.852 253.908,235.503 255.559,237.979 257.21,241.281 258.035,245.408 258.035,248.71 257.21,252.837 255.559,256.139 253.908,258.615 252.257,260.266 " />
<polyline points="361.038,123.27 361.038,140.604 " />
<polyline points="361.038,123.27 366.816,123.27 369.292,124.095 370.943,125.746 371.769,127.397 372.594,129.873 372.594,134.001 371.769,136.477 370.943,138.128 369.292,139.779 366.816,140.604 361.038,140.604 " />
<polyline points="381.244,135.482 381.244,145.726 " />
<polyline points="381.244,140.36 382.219,139.385 383.195,138.897 384.659,138.897 385.634,139.385 386.61,140.36 387.098,141.824 387.098,142.799 386.61,144.263 385.634,145.238 384.659,145.726 383.195,145.726 382.219,145.238 381.244,144.263 " />
<polyline points="390.512,137.921 390.512,137.433 391,136.458 391.488,135.97 392.464,135.482 394.415,135.482 395.39,135.97 395.878,136.458 396.366,137.433 396.366,138.409 395.878,139.385 394.903,140.848 390.024,145.726 396.854,145.726 " />
<polyline points="331.28,47.4204 329.629,48.2459 327.978,49.8967 327.153,51.5476 326.327,54.0239 326.327,58.1511 327.153,60.6275 327.978,62.2783 329.629,63.9292 331.28,64.7547 334.582,64.7547 336.232,63.9292 337.883,62.2783 338.709,60.6275 339.534,58.1511 339.534,54.0239 338.709,51.5476 337.883,49.8967 336.232,48.2459 334.582,47.4204 331.28,47.4204 " />
<polyline points="333.756,61.4529 338.709,66.4055 " />
<polyline points="346.939,59.6326 346.939,69.8767 " />
<polyline points="346.939,64.5108 347.914,63.5351 348.89,63.0473 350.353,63.0473 351.329,63.5351 352.305,64.5108 352.792,65.9742 352.792,66.9498 352.305,68.4133 351.329,69.3889 350.353,69.8767 348.89,69.8767 347.914,69.3889 346.939,68.4133 " />
<polyline points="356.207,62.0717 356.207,61.5839 356.695,60.6083 357.183,60.1205 358.158,59.6326 360.11,59.6326 361.085,60.1205 361.573,60.6083 362.061,61.5839 362.061,62.5595 361.573,63.5351 360.597,64.9986 355.719,69.8767 362.549,69.8767 " />
<polyline points="208.246,391.939 207.758,390.963 206.783,389.988 205.807,389.5 203.856,389.5 202.88,389.988 201.905,390.963 201.417,391.939 200.929,393.402 200.929,395.842 201.417,397.305 201.905,398.281 202.88,399.256 203.856,399.744 205.807,399.744 206.783,399.256 207.758,398.281 208.246,397.305 " />
<polyline points="183.967,377.288 183.967,394.622 " />
<polyline points="183.967,377.288 189.745,377.288 192.221,378.113 193.872,379.764 194.697,381.415 195.523,383.891 195.523,388.019 194.697,390.495 193.872,392.146 192.221,393.797 189.745,394.622 183.967,394.622 " />
<polyline points="71.4325,393.204 64.8289,410.538 " />
<polyline points="71.4325,393.204 78.036,410.538 " />
<polyline points="67.3053,404.76 75.5597,404.76 " />
<polyline points="93.4095,407.855 92.9217,406.88 91.9461,405.904 90.9705,405.416 89.0192,405.416 88.0436,405.904 87.068,406.88 86.5802,407.855 86.0923,409.319 86.0923,411.758 86.5802,413.221 87.068,414.197 88.0436,415.173 89.0192,415.66 90.9705,415.66 91.9461,415.173 92.9217,414.197 93.4095,413.221 " />
<polyline points="717.329,370.038 716.353,369.062 714.89,368.574 712.939,368.574 711.475,369.062 710.5,370.038 710.5,371.013 710.987,371.989 711.475,372.477 712.451,372.965 715.378,373.94 716.353,374.428 716.841,374.916 717.329,375.891 717.329,377.355 716.353,378.33 714.89,378.818 712.939,378.818 711.475,378.33 710.5,377.355 " />
<polyline points="695.596,356.362 693.945,357.187 692.294,358.838 691.469,360.489 690.643,362.966 690.643,367.093 691.469,369.569 692.294,371.22 693.945,372.871 695.596,373.696 698.898,373.696 700.548,372.871 702.199,371.22 703.025,369.569 703.85,367.093 703.85,362.966 703.025,360.489 702.199,358.838 700.548,357.187 698.898,356.362 695.596,356.362 " />
<polyline points="698.072,370.395 703.025,375.347 " />
<polyline points="614.63,375.783 614.63,393.117 " />
<polyline points="614.63,375.783 620.408,375.783 622.884,376.608 624.535,378.259 625.361,379.91 626.186,382.386 626.186,386.513 625.361,388.99 624.535,390.641 622.884,392.291 620.408,393.117 614.63,393.117 " />
<polyline points="638.666,389.458 637.69,388.483 636.227,387.995 634.275,387.995 632.812,388.483 631.836,389.458 631.836,390.434 632.324,391.409 632.812,391.897 633.788,392.385 636.714,393.361 637.69,393.849 638.178,394.336 638.666,395.312 638.666,396.775 637.69,397.751 636.227,398.239 634.275,398.239 632.812,397.751 631.836,396.775 " />
<polyline points="377.421,385.624 360.087,385.624 " />
<polyline points="342.753,385.624 221.413,385.624 " />
<polyline points="377.421,385.624 377.421,402.958 " />
<polyline points="377.421,385.624 394.755,385.624 " />
<polyline points="412.09,385.624 602.766,385.624 " />
<polyline points="377.421,385.624 377.421,368.29 " />
<polyline points="377.421,350.956 377.421,160.279 " />
<polyline points="89.9438,126.181 89.9438,125.356 90.7693,123.705 91.5947,122.88 93.2456,122.054 96.5473,122.054 98.1982,122.88 99.0237,123.705 99.8491,125.356 99.8491,127.007 99.0237,128.658 97.3728,131.134 89.1184,139.388 100.675,139.388 " />
<polyline points="108.104,119.578 107.278,120.403 106.453,119.578 107.278,118.752 108.104,119.578 108.104,121.229 107.278,122.88 106.453,123.705 " />
<polyline points="113.056,119.578 112.231,120.403 111.405,119.578 112.231,118.752 113.056,119.578 113.056,121.229 112.231,122.88 111.405,123.705 " />
<polyline points="123.787,118.752 122.136,120.403 120.485,122.88 118.834,126.181 118.009,130.309 118.009,133.61 118.834,137.738 120.485,141.039 122.136,143.516 123.787,145.167 " />
<polyline points="138.645,122.054 130.39,122.054 129.565,129.483 130.39,128.658 132.867,127.832 135.343,127.832 137.819,128.658 139.47,130.309 140.296,132.785 140.296,134.436 139.47,136.912 137.819,138.563 135.343,139.388 132.867,139.388 130.39,138.563 129.565,137.738 128.74,136.087 " />
<polyline points="150.201,122.054 147.725,122.88 146.074,125.356 145.248,129.483 145.248,131.96 146.074,136.087 147.725,138.563 150.201,139.388 151.852,139.388 154.328,138.563 155.979,136.087 156.804,131.96 156.804,129.483 155.979,125.356 154.328,122.88 151.852,122.054 150.201,122.054 " />
<polyline points="162.583,127.832 162.583,139.388 " />
<polyline points="162.583,131.134 165.059,128.658 166.71,127.832 169.186,127.832 170.837,128.658 171.662,131.134 171.662,139.388 " />
<polyline points="171.662,131.134 174.139,128.658 175.79,127.832 178.266,127.832 179.917,128.658 180.742,131.134 180.742,139.388 " />
<polyline points="187.346,127.832 187.346,139.388 " />
<polyline points="187.346,131.134 189.822,128.658 191.473,127.832 193.949,127.832 195.6,128.658 196.426,131.134 196.426,139.388 " />
<polyline points="196.426,131.134 198.902,128.658 200.553,127.832 203.029,127.832 204.68,128.658 205.505,131.134 205.505,139.388 " />
<polyline points="211.284,118.752 212.934,120.403 214.585,122.88 216.236,126.181 217.062,130.309 217.062,133.61 216.236,137.738 214.585,141.039 212.934,143.516 211.284,145.167 " />
<polyline points="537.645,126.917 537.645,126.092 538.47,124.441 539.295,123.615 540.946,122.79 544.248,122.79 545.899,123.615 546.724,124.441 547.55,126.092 547.55,127.742 546.724,129.393 545.074,131.87 536.819,140.124 548.375,140.124 " />
<polyline points="555.804,120.313 554.979,121.139 554.153,120.313 554.979,119.488 555.804,120.313 555.804,121.964 554.979,123.615 554.153,124.441 " />
<polyline points="560.757,120.313 559.931,121.139 559.106,120.313 559.931,119.488 560.757,120.313 560.757,121.964 559.931,123.615 559.106,124.441 " />
<polyline points="571.488,119.488 569.837,121.139 568.186,123.615 566.535,126.917 565.71,131.044 565.71,134.346 566.535,138.473 568.186,141.775 569.837,144.251 571.488,145.902 " />
<polyline points="586.346,122.79 578.091,122.79 577.266,130.219 578.091,129.393 580.568,128.568 583.044,128.568 585.52,129.393 587.171,131.044 587.996,133.52 587.996,135.171 587.171,137.648 585.52,139.299 583.044,140.124 580.568,140.124 578.091,139.299 577.266,138.473 576.44,136.822 " />
<polyline points="597.902,122.79 595.425,123.615 593.775,126.092 592.949,130.219 592.949,132.695 593.775,136.822 595.425,139.299 597.902,140.124 599.553,140.124 602.029,139.299 603.68,136.822 604.505,132.695 604.505,130.219 603.68,126.092 602.029,123.615 599.553,122.79 597.902,122.79 " />
<polyline points="610.283,128.568 610.283,140.124 " />
<polyline points="610.283,131.87 612.76,129.393 614.411,128.568 616.887,128.568 618.538,129.393 619.363,131.87 619.363,140.124 " />
<polyline points="619.363,131.87 621.84,129.393 623.49,128.568 625.967,128.568 627.618,129.393 628.443,131.87 628.443,140.124 " />
<polyline points="635.047,128.568 635.047,140.124 " />
<polyline points="635.047,131.87 637.523,129.393 639.174,128.568 641.65,128.568 643.301,129.393 644.126,131.87 644.126,140.124 " />
<polyline points="644.126,131.87 646.603,129.393 648.254,128.568 650.73,128.568 652.381,129.393 653.206,131.87 653.206,140.124 " />
<polyline points="658.984,119.488 660.635,121.139 662.286,123.615 663.937,126.917 664.762,131.044 664.762,134.346 663.937,138.473 662.286,141.775 660.635,144.251 658.984,145.902 " />
<polyline points="567.871,234.023 567.871,251.357 " />
<polyline points="567.871,234.023 573.649,234.023 576.125,234.848 577.776,236.499 578.601,238.15 579.427,240.626 579.427,244.754 578.601,247.23 577.776,248.881 576.125,250.532 573.649,251.357 567.871,251.357 " />
<polyline points="602.539,243.928 617.397,243.928 " />
<polyline points="624,234.023 624,251.357 " />
<polyline points="624,234.023 629.779,234.023 632.255,234.848 633.906,236.499 634.731,238.15 635.557,240.626 635.557,244.754 634.731,247.23 633.906,248.881 632.255,250.532 629.779,251.357 624,251.357 " />
<polyline points="670.163,255.226 671.814,254.401 674.291,251.924 674.291,269.259 " />
<polyline points="685.021,256.052 685.021,255.226 685.847,253.575 686.672,252.75 688.323,251.924 691.625,251.924 693.276,252.75 694.101,253.575 694.927,255.226 694.927,256.877 694.101,258.528 692.45,261.004 684.196,269.259 695.752,269.259 " />
<polyline points="703.181,249.448 702.356,250.274 701.53,249.448 702.356,248.623 703.181,249.448 703.181,251.099 702.356,252.75 701.53,253.575 " />
<polyline points="708.134,249.448 707.308,250.274 706.483,249.448 707.308,248.623 708.134,249.448 708.134,251.099 707.308,252.75 706.483,253.575 " />
<polyline points="718.864,248.623 717.214,250.274 715.563,252.75 713.912,256.052 713.086,260.179 713.086,263.481 713.912,267.608 715.563,270.91 717.214,273.386 718.864,275.037 " />
<polyline points="725.468,251.924 734.548,251.924 729.595,258.528 732.071,258.528 733.722,259.353 734.548,260.179 735.373,262.655 735.373,264.306 734.548,266.782 732.897,268.433 730.421,269.259 727.944,269.259 725.468,268.433 724.642,267.608 723.817,265.957 " />
<polyline points="745.279,251.924 742.802,252.75 741.151,255.226 740.326,259.353 740.326,261.83 741.151,265.957 742.802,268.433 745.279,269.259 746.929,269.259 749.406,268.433 751.057,265.957 751.882,261.83 751.882,259.353 751.057,255.226 749.406,252.75 746.929,251.924 745.279,251.924 " />
<polyline points="761.787,251.924 759.311,252.75 757.66,255.226 756.835,259.353 756.835,261.83 757.66,265.957 759.311,268.433 761.787,269.259 763.438,269.259 765.915,268.433 767.565,265.957 768.391,261.83 768.391,259.353 767.565,255.226 765.915,252.75 763.438,251.924 761.787,251.924 " />
<polyline points="774.169,257.703 774.169,269.259 " />
<polyline points="774.169,261.004 776.645,258.528 778.296,257.703 780.772,257.703 782.423,258.528 783.249,261.004 783.249,269.259 " />
<polyline points="783.249,261.004 785.725,258.528 787.376,257.703 789.852,257.703 791.503,258.528 792.329,261.004 792.329,269.259 " />
<polyline points="798.932,257.703 798.932,269.259 " />
<polyline points="798.932,261.004 801.408,258.528 803.059,257.703 805.536,257.703 807.187,258.528 808.012,261.004 808.012,269.259 " />
<polyline points="808.012,261.004 810.488,258.528 812.139,257.703 814.616,257.703 816.266,258.528 817.092,261.004 817.092,269.259 " />
<polyline points="822.87,248.623 824.521,250.274 826.172,252.75 827.823,256.052 828.648,260.179 828.648,263.481 827.823,267.608 826.172,270.91 824.521,273.386 822.87,275.037 " />
<polyline points="852.586,257.703 852.586,269.259 " />
<polyline points="852.586,261.004 855.062,258.528 856.713,257.703 859.189,257.703 860.84,258.528 861.666,261.004 861.666,269.259 " />
<polyline points="861.666,261.004 864.142,258.528 865.793,257.703 868.269,257.703 869.92,258.528 870.745,261.004 870.745,269.259 " />
<polyline points="886.429,257.703 886.429,269.259 " />
<polyline points="886.429,260.179 884.778,258.528 883.127,257.703 880.651,257.703 879,258.528 877.349,260.179 876.524,262.655 876.524,264.306 877.349,266.782 879,268.433 880.651,269.259 883.127,269.259 884.778,268.433 886.429,266.782 " />
<polyline points="892.207,257.703 901.287,269.259 " />
<polyline points="901.287,257.703 892.207,269.259 " />
<polyline points="907.89,267.608 907.065,268.433 907.89,269.259 908.716,268.433 907.89,267.608 " />
<polyline points="591.239,248.776 590.751,247.8 589.775,246.825 588.799,246.337 586.848,246.337 585.873,246.825 584.897,247.8 584.409,248.776 583.921,250.239 583.921,252.678 584.409,254.142 584.897,255.117 585.873,256.093 586.848,256.581 588.799,256.581 589.775,256.093 590.751,255.117 591.239,254.142 " />
<polyline points="647.809,247.8 646.833,246.825 645.37,246.337 643.419,246.337 641.955,246.825 640.98,247.8 640.98,248.776 641.467,249.752 641.955,250.239 642.931,250.727 645.858,251.703 646.833,252.191 647.321,252.678 647.809,253.654 647.809,255.117 646.833,256.093 645.37,256.581 643.419,256.581 641.955,256.093 640.98,255.117 " />
<polyline points="481.427,272.306 481.427,239.318 " />
<polyline points="550.764,305.349 550.764,239.318 " />
<polyline points="498.19,243.975 534.001,243.975 " />
</g>
<g clip-path="url(#clipId0)" fill="rgb(0,0,0)" stroke="rgb(0,0,0)" stroke-width="0.25" >
<path d="M498.19,241.181 498.19,246.769 481.427,243.975 481.427,243.975 z" />
<path d="M534.001,241.181 534.001,246.769 550.764,243.975 550.764,243.975 z" />
</g>
<g clip-path="url(#clipId0)" fill="none" stroke="rgb(0,0,0)" stroke-width="0.25" >
<polyline points="290.75,281.619 307.594,214.24 " />
<polyline points="447.248,214.24 464.092,281.619 " />
<polyline points="308.084,177.613 446.758,177.613 " />
<polyline points="308.084,210.115 308.084,177.613 " />
<polyline points="446.758,177.613 446.758,210.115 " />
<polyline points="308.084,210.115 446.758,210.115 " />
<polyline points="308.084,214.448 446.758,214.448 " />
<path d="M308.084,210.115  A2.25706,2.25706 0 0,0 308.084,214.448 " />
<path d="M446.758,214.448  A2.25706,2.25706 0 0,0 446.758,210.115 " />
<polyline points="377.421,420.293 377.421,610.969 " />
<polyline points="290.75,489.63 307.594,557.008 " />
<path d="M308.084,556.8  A2.25706,2.25706 0 0,0 308.084,561.133 " />
<polyline points="308.084,561.133 308.084,593.635 " />
<polyline points="308.084,561.133 446.758,561.133 " />
<polyline points="308.084,556.8 446.758,556.8 " />
<polyline points="308.084,593.635 446.758,593.635 " />
<polyline points="446.758,593.635 446.758,561.133 " />
<path d="M446.758,561.133  A2.25706,2.25706 0 0,0 446.758,556.8 " />
<polyline points="447.248,557.008 464.092,489.63 " />
<polyline points="377.421,734.02 377.421,672.31 " />
</g>
<g clip-path="url(#clipId0)" fill="rgb(0,0,0)" stroke="rgb(0,0,0)" stroke-width="0.25" >
<path d="M373.261,734.02 381.581,734.02 377.421,758.982 377.421,758.982 z" />
</g>
<g clip-path="url(#clipId0)" fill="none" stroke="rgb(0,0,0)" stroke-width="0.25" >
<polyline points="124.873,516.57 116.619,528.126 129,528.126 " />
<polyline points="124.873,516.57 124.873,533.904 " />
<polyline points="135.604,514.094 134.778,514.919 133.953,514.094 134.778,513.268 135.604,514.094 135.604,515.744 134.778,517.395 133.953,518.221 " />
<polyline points="140.557,514.094 139.731,514.919 138.906,514.094 139.731,513.268 140.557,514.094 140.557,515.744 139.731,517.395 138.906,518.221 " />
<polyline points="151.287,513.268 149.636,514.919 147.986,517.395 146.335,520.697 145.509,524.824 145.509,528.126 146.335,532.253 147.986,535.555 149.636,538.031 151.287,539.682 " />
<polyline points="158.716,519.872 160.367,519.046 162.843,516.57 162.843,533.904 " />
<polyline points="177.701,516.57 175.225,517.395 173.574,519.872 172.749,523.999 172.749,526.475 173.574,530.602 175.225,533.079 177.701,533.904 179.352,533.904 181.829,533.079 183.479,530.602 184.305,526.475 184.305,523.999 183.479,519.872 181.829,517.395 179.352,516.57 177.701,516.57 " />
<polyline points="194.21,516.57 191.734,517.395 190.083,519.872 189.258,523.999 189.258,526.475 190.083,530.602 191.734,533.079 194.21,533.904 195.861,533.904 198.337,533.079 199.988,530.602 200.814,526.475 200.814,523.999 199.988,519.872 198.337,517.395 195.861,516.57 194.21,516.57 " />
<polyline points="206.592,522.348 206.592,533.904 " />
<polyline points="206.592,525.65 209.068,523.173 210.719,522.348 213.195,522.348 214.846,523.173 215.672,525.65 215.672,533.904 " />
<polyline points="215.672,525.65 218.148,523.173 219.799,522.348 222.275,522.348 223.926,523.173 224.752,525.65 224.752,533.904 " />
<polyline points="231.355,522.348 231.355,533.904 " />
<polyline points="231.355,525.65 233.831,523.173 235.482,522.348 237.959,522.348 239.609,523.173 240.435,525.65 240.435,533.904 " />
<polyline points="240.435,525.65 242.911,523.173 244.562,522.348 247.038,522.348 248.689,523.173 249.515,525.65 249.515,533.904 " />
<polyline points="255.293,513.268 256.944,514.919 258.595,517.395 260.245,520.697 261.071,524.824 261.071,528.126 260.245,532.253 258.595,535.555 256.944,538.031 255.293,539.682 " />
<polyline points="89.9438,631.767 89.9438,630.942 90.7693,629.291 91.5947,628.466 93.2456,627.64 96.5473,627.64 98.1982,628.466 99.0237,629.291 99.8491,630.942 99.8491,632.593 99.0237,634.244 97.3728,636.72 89.1184,644.974 100.675,644.974 " />
<polyline points="108.104,625.164 107.278,625.989 106.453,625.164 107.278,624.338 108.104,625.164 108.104,626.815 107.278,628.466 106.453,629.291 " />
<polyline points="113.056,625.164 112.231,625.989 111.405,625.164 112.231,624.338 113.056,625.164 113.056,626.815 112.231,628.466 111.405,629.291 " />
<polyline points="123.787,624.338 122.136,625.989 120.485,628.466 118.834,631.767 118.009,635.895 118.009,639.196 118.834,643.324 120.485,646.625 122.136,649.102 123.787,650.753 " />
<polyline points="138.645,627.64 130.39,627.64 129.565,635.069 130.39,634.244 132.867,633.418 135.343,633.418 137.819,634.244 139.47,635.895 140.296,638.371 140.296,640.022 139.47,642.498 137.819,644.149 135.343,644.974 132.867,644.974 130.39,644.149 129.565,643.324 128.74,641.673 " />
<polyline points="150.201,627.64 147.725,628.466 146.074,630.942 145.248,635.069 145.248,637.545 146.074,641.673 147.725,644.149 150.201,644.974 151.852,644.974 154.328,644.149 155.979,641.673 156.804,637.545 156.804,635.069 155.979,630.942 154.328,628.466 151.852,627.64 150.201,627.64 " />
<polyline points="162.583,633.418 162.583,644.974 " />
<polyline points="162.583,636.72 165.059,634.244 166.71,633.418 169.186,633.418 170.837,634.244 171.662,636.72 171.662,644.974 " />
<polyline points="171.662,636.72 174.139,634.244 175.79,633.418 178.266,633.418 179.917,634.244 180.742,636.72 180.742,644.974 " />
<polyline points="187.346,633.418 187.346,644.974 " />
<polyline points="187.346,636.72 189.822,634.244 191.473,633.418 193.949,633.418 195.6,634.244 196.426,636.72 196.426,644.974 " />
<polyline points="196.426,636.72 198.902,634.244 200.553,633.418 203.029,633.418 204.68,634.244 205.505,636.72 205.505,644.974 " />
<polyline points="211.284,624.338 212.934,625.989 214.585,628.466 216.236,631.767 217.062,635.895 217.062,639.196 216.236,643.324 214.585,646.625 212.934,649.102 211.284,650.753 " />
<polyline points="363.418,628.303 363.418,645.637 " />
<polyline points="363.418,628.303 369.196,628.303 371.672,629.128 373.323,630.779 374.148,632.43 374.974,634.907 374.974,639.034 374.148,641.51 373.323,643.161 371.672,644.812 369.196,645.637 363.418,645.637 " />
<polyline points="380.815,641.071 380.815,651.315 " />
<polyline points="380.815,645.949 381.791,644.973 382.766,644.486 384.23,644.486 385.205,644.973 386.181,645.949 386.669,647.412 386.669,648.388 386.181,649.852 385.205,650.827 384.23,651.315 382.766,651.315 381.791,650.827 380.815,649.852 " />
<polyline points="391.059,643.022 392.035,642.534 393.498,641.071 393.498,651.315 " />
<polyline points="537.645,632.503 537.645,631.677 538.47,630.027 539.295,629.201 540.946,628.376 544.248,628.376 545.899,629.201 546.724,630.027 547.55,631.677 547.55,633.328 546.724,634.979 545.074,637.456 536.819,645.71 548.375,645.71 " />
<polyline points="555.804,625.899 554.979,626.725 554.153,625.899 554.979,625.074 555.804,625.899 555.804,627.55 554.979,629.201 554.153,630.027 " />
<polyline points="560.757,625.899 559.931,626.725 559.106,625.899 559.931,625.074 560.757,625.899 560.757,627.55 559.931,629.201 559.106,630.027 " />
<polyline points="571.488,625.074 569.837,626.725 568.186,629.201 566.535,632.503 565.71,636.63 565.71,639.932 566.535,644.059 568.186,647.361 569.837,649.837 571.488,651.488 " />
<polyline points="586.346,628.376 578.091,628.376 577.266,635.805 578.091,634.979 580.568,634.154 583.044,634.154 585.52,634.979 587.171,636.63 587.996,639.106 587.996,640.757 587.171,643.234 585.52,644.885 583.044,645.71 580.568,645.71 578.091,644.885 577.266,644.059 576.44,642.408 " />
<polyline points="597.902,628.376 595.425,629.201 593.775,631.677 592.949,635.805 592.949,638.281 593.775,642.408 595.425,644.885 597.902,645.71 599.553,645.71 602.029,644.885 603.68,642.408 604.505,638.281 604.505,635.805 603.68,631.677 602.029,629.201 599.553,628.376 597.902,628.376 " />
<polyline points="610.283,634.154 610.283,645.71 " />
<polyline points="610.283,637.456 612.76,634.979 614.411,634.154 616.887,634.154 618.538,634.979 619.363,637.456 619.363,645.71 " />
<polyline points="619.363,637.456 621.84,634.979 623.49,634.154 625.967,634.154 627.618,634.979 628.443,637.456 628.443,645.71 " />
<polyline points="635.047,634.154 635.047,645.71 " />
<polyline points="635.047,637.456 637.523,634.979 639.174,634.154 641.65,634.154 643.301,634.979 644.126,637.456 644.126,645.71 " />
<polyline points="644.126,637.456 646.603,634.979 648.254,634.154 650.73,634.154 652.381,634.979 653.206,637.456 653.206,645.71 " />
<polyline points="658.984,625.074 660.635,626.725 662.286,629.201 663.937,632.503 664.762,636.63 664.762,639.932 663.937,644.059 662.286,647.361 660.635,649.837 658.984,651.488 " />
<polyline points="337.539,691.743 335.888,692.569 334.238,694.22 333.412,695.87 332.587,698.347 332.587,702.474 333.412,704.95 334.238,706.601 335.888,708.252 337.539,709.077 340.841,709.077 342.492,708.252 344.143,706.601 344.968,704.95 345.794,702.474 345.794,698.347 344.968,695.87 344.143,694.22 342.492,692.569 340.841,691.743 337.539,691.743 " />
<polyline points="340.016,705.776 344.968,710.728 " />
<polyline points="351.704,704.511 351.704,714.755 " />
<polyline points="351.704,709.389 352.679,708.414 353.655,707.926 355.118,707.926 356.094,708.414 357.069,709.389 357.557,710.853 357.557,711.828 357.069,713.292 356.094,714.267 355.118,714.755 353.655,714.755 352.679,714.267 351.704,713.292 " />
<polyline points="361.948,706.462 362.923,705.975 364.387,704.511 364.387,714.755 " />
<polyline points="594.745,316.287 632.96,316.287 " />
<polyline points="594.745,454.961 632.96,454.961 " />
<polyline points="628.304,333.05 628.304,365.853 " />
<polyline points="628.304,438.198 628.304,405.57 " />
</g>
<g clip-path="url(#clipId0)" fill="rgb(0,0,0)" stroke="rgb(0,0,0)" stroke-width="0.25" >
<path d="M631.097,333.05 625.51,333.05 628.304,316.287 628.304,316.287 z" />
<path d="M631.097,438.198 625.51,438.198 628.304,454.961 628.304,454.961 z" />
</g>
<g clip-path="url(#clipId0)" fill="none" stroke="rgb(0,0,0)" stroke-width="0.1" >
<polyline points="585.432,316.287 585.432,316.287 " />
<polyline points="585.432,454.961 585.432,454.961 " />
<polyline points="628.304,454.961 628.304,454.961 " />
</g>
<g clip-path="url(#clipId0)" fill="none" stroke="rgb(0,0,0)" stroke-width="0.25" >
<polyline points="481.427,272.306 481.427,128.175 " />
<polyline points="498.19,132.831 514.953,132.831 " />
<polyline points="514.953,132.831 524.096,132.831 " />
</g>
<g clip-path="url(#clipId0)" fill="rgb(0,0,0)" stroke="rgb(0,0,0)" stroke-width="0.25" >
<path d="M498.19,135.625 498.19,130.037 481.427,132.831 481.427,132.831 z" />
</g>
<g clip-path="url(#clipId0)" fill="none" stroke="rgb(0,0,0)" stroke-width="0.1" >
<polyline points="446.758,177.613 446.758,177.613 " />
<polyline points="481.427,281.619 481.427,281.619 " />
<polyline points="481.427,132.831 481.427,132.831 " />
</g>
<g clip-path="url(#clipId0)" fill="none" stroke="rgb(0,0,0)" stroke-width="0.25" >
<polyline points="446.758,168.3 446.758,128.175 " />
</g>
<g clip-path="url(#clipId0)" fill="rgb(0,0,0)" stroke="rgb(0,0,0)" stroke-width="0.25" >
<path d="M429.995,135.625 429.995,130.037 446.758,132.831 446.758,132.831 z" />
</g>
<g clip-path="url(#clipId0)" fill="none" stroke="rgb(0,0,0)" stroke-width="0.1" >
<polyline points="308.084,177.613 308.084,177.613 " />
<polyline points="446.758,177.613 446.758,177.613 " />
</g>
<g clip-path="url(#clipId0)" fill="none" stroke="rgb(0,0,0)" stroke-width="0.25" >
<polyline points="273.416,270.681 273.416,128.175 " />
<polyline points="308.084,168.3 308.084,128.175 " />
<polyline points="256.653,132.831 239.89,132.831 " />
<polyline points="308.084,132.831 349.078,132.831 " />
</g>
<g clip-path="url(#clipId0)" fill="rgb(0,0,0)" stroke="rgb(0,0,0)" stroke-width="0.25" >
<path d="M324.847,135.625 324.847,130.037 308.084,132.831 308.084,132.831 z" />
<path d="M256.653,135.625 256.653,130.037 273.416,132.831 273.416,132.831 z" />
</g>
<g clip-path="url(#clipId0)" fill="none" stroke="rgb(0,0,0)" stroke-width="0.1" >
<polyline points="273.416,279.994 273.416,279.994 " />
<polyline points="308.084,177.613 308.084,177.613 " />
</g>
<g clip-path="url(#clipId0)" fill="none" stroke="rgb(0,0,0)" stroke-width="0.25" >
<polyline points="229.434,489.63 191.718,489.63 " />
<polyline points="196.375,298.382 196.375,370.298 " />
<polyline points="196.375,472.867 196.375,406.899 " />
</g>
<g clip-path="url(#clipId0)" fill="rgb(0,0,0)" stroke="rgb(0,0,0)" stroke-width="0.25" >
<path d="M199.169,298.382 193.581,298.382 196.375,281.619 196.375,281.619 z" />
<path d="M199.169,472.867 193.581,472.867 196.375,489.63 196.375,489.63 z" />
</g>
<g clip-path="url(#clipId0)" fill="none" stroke="rgb(0,0,0)" stroke-width="0.1" >
<polyline points="238.747,281.619 238.747,281.619 " />
<polyline points="238.747,489.63 238.747,489.63 " />
<polyline points="196.375,489.63 196.375,489.63 " />
</g>
<g clip-path="url(#clipId0)" fill="none" stroke="rgb(0,0,0)" stroke-width="0.25" >
<polyline points="273.416,500.568 273.416,643.074 " />
<polyline points="308.084,602.948 308.084,643.074 " />
<polyline points="324.847,638.417 352.051,638.417 " />
<polyline points="256.653,638.417 239.89,638.417 " />
</g>
<g clip-path="url(#clipId0)" fill="rgb(0,0,0)" stroke="rgb(0,0,0)" stroke-width="0.25" >
<path d="M324.847,641.211 324.847,635.623 308.084,638.417 308.084,638.417 z" />
<path d="M256.653,641.211 256.653,635.623 273.416,638.417 273.416,638.417 z" />
</g>
<g clip-path="url(#clipId0)" fill="none" stroke="rgb(0,0,0)" stroke-width="0.1" >
<polyline points="273.416,491.255 273.416,491.255 " />
<polyline points="308.084,593.635 308.084,593.635 " />
</g>
<g clip-path="url(#clipId0)" fill="none" stroke="rgb(0,0,0)" stroke-width="0.25" >
<polyline points="446.758,602.948 446.758,643.074 " />
<polyline points="481.427,498.942 481.427,643.074 " />
<polyline points="498.19,638.417 514.953,638.417 " />
<polyline points="514.953,638.417 524.096,638.417 " />
</g>
<g clip-path="url(#clipId0)" fill="rgb(0,0,0)" stroke="rgb(0,0,0)" stroke-width="0.25" >
<path d="M498.19,641.211 498.19,635.623 481.427,638.417 481.427,638.417 z" />
<path d="M429.995,641.211 429.995,635.623 446.758,638.417 446.758,638.417 z" />
</g>
<g clip-path="url(#clipId0)" fill="none" stroke="rgb(0,0,0)" stroke-width="0.1" >
<polyline points="446.758,593.635 446.758,593.635 " />
<polyline points="481.427,489.63 481.427,489.63 " />
<polyline points="481.427,638.417 481.427,638.417 " />
</g>
<g clip-path="url(#clipId0)" fill="none" stroke="rgb(0,0,0)" stroke-width="0.25" >
<path d="M441.687,368.995  A66.3821,66.3821 0 0,0 394.05,321.359 " />
</g>
<g clip-path="url(#clipId0)" fill="rgb(0,0,0)" stroke="rgb(0,0,0)" stroke-width="0.25" >
<path d="M438.915,369.348 444.458,368.643 443.803,385.624 443.803,385.624 z" />
<path d="M393.697,324.13 394.403,318.587 377.421,319.242 377.421,319.242 z" />
</g>
<g clip-path="url(#clipId0)" fill="none" stroke="rgb(0,0,0)" stroke-width="0.1" >
<polyline points="412.09,385.624 412.09,385.624 " />
<polyline points="585.432,385.624 585.432,385.624 " />
<polyline points="377.421,350.956 377.421,350.956 " />
<polyline points="377.421,160.279 377.421,160.279 " />
</g>
<g clip-path="url(#clipId0)" fill="none" stroke="rgb(0,0,0)" stroke-width="0.25" >
<path d="M394.05,449.89  A66.3821,66.3821 0 0,0 441.687,402.253 " />
</g>
<g clip-path="url(#clipId0)" fill="rgb(0,0,0)" stroke="rgb(0,0,0)" stroke-width="0.25" >
<path d="M393.697,447.118 394.403,452.661 377.421,452.006 377.421,452.006 z" />
<path d="M438.915,401.9 444.458,402.606 443.803,385.624 443.803,385.624 z" />
</g>
<g clip-path="url(#clipId0)" fill="none" stroke="rgb(0,0,0)" stroke-width="0.1" >
<polyline points="412.09,385.624 412.09,385.624 " />
<polyline points="585.432,385.624 585.432,385.624 " />
<polyline points="377.421,420.293 377.421,420.293 " />
<polyline points="377.421,558.967 377.421,558.967 " />
</g>
<g clip-path="url(#clipId0)" fill="none" stroke="rgb(0,0,0)" stroke-width="0.25" >
<polyline points="229.434,281.619 191.718,281.619 " />
<polyline points="297.146,212.282 191.718,212.282 " />
</g>
<g clip-path="url(#clipId0)" fill="rgb(0,0,0)" stroke="rgb(0,0,0)" stroke-width="0.25" >
<path d="M199.169,195.519 193.581,195.519 196.375,212.282 196.375,212.282 z" />
</g>
<g clip-path="url(#clipId0)" fill="none" stroke="rgb(0,0,0)" stroke-width="0.1" >
<polyline points="238.747,281.619 238.747,281.619 " />
<polyline points="306.459,212.282 306.459,212.282 " />
<polyline points="196.375,212.282 196.375,212.282 " />
</g>
<g clip-path="url(#clipId0)" fill="none" stroke="rgb(0,0,0)" stroke-width="0.25" >
<polyline points="229.434,489.63 191.718,489.63 " />
<polyline points="297.146,558.967 191.718,558.967 " />
</g>
<g clip-path="url(#clipId0)" fill="rgb(0,0,0)" stroke="rgb(0,0,0)" stroke-width="0.25" >
<path d="M199.169,575.73 193.581,575.73 196.375,558.967 196.375,558.967 z" />
</g>
<g clip-path="url(#clipId0)" fill="none" stroke="rgb(0,0,0)" stroke-width="0.1" >
<polyline points="238.747,489.63 238.747,489.63 " />
<polyline points="306.459,558.967 306.459,558.967 " />
<polyline points="196.375,558.967 196.375,558.967 " />
</g>
<g clip-path="url(#clipId0)" fill="none" stroke="rgb(0,0,0)" stroke-width="0.25" >
<path d="M290.75,281.619  A159.603,159.603 0 0,0 464.092,281.619 " />
<path d="M464.092,489.63  A150.787,150.787 0 0,0 290.75,489.63 " />
<polyline points="442.816,327.065 442.151,329.061 440.821,330.391 438.825,331.057 438.16,331.057 436.164,330.391 434.834,329.061 434.169,327.065 434.169,326.4 434.834,324.405 436.164,323.074 438.16,322.409 438.825,322.409 440.821,323.074 442.151,324.405 442.816,327.065 442.816,330.391 442.151,333.717 440.821,335.713 438.825,336.378 437.495,336.378 435.499,335.713 434.834,334.383 " />
<polyline points="451.464,322.409 449.468,323.074 448.138,325.07 447.473,328.396 447.473,330.391 448.138,333.717 449.468,335.713 451.464,336.378 452.794,336.378 454.79,335.713 456.12,333.717 456.786,330.391 456.786,328.396 456.12,325.07 454.79,323.074 452.794,322.409 451.464,322.409 " />
<ellipse rx="1.3304" ry="1.3304" cx="460.777" cy="323.739" />
<polyline points="442.003,437.756 441.338,439.752 440.007,441.082 438.012,441.747 437.347,441.747 435.351,441.082 434.021,439.752 433.355,437.756 433.355,437.091 434.021,435.095 435.351,433.765 437.347,433.1 438.012,433.1 440.007,433.765 441.338,435.095 442.003,437.756 442.003,441.082 441.338,444.408 440.007,446.404 438.012,447.069 436.681,447.069 434.686,446.404 434.021,445.073 " />
<polyline points="450.651,433.1 448.655,433.765 447.325,435.761 446.659,439.087 446.659,441.082 447.325,444.408 448.655,446.404 450.651,447.069 451.981,447.069 453.977,446.404 455.307,444.408 455.972,441.082 455.972,439.087 455.307,435.761 453.977,433.765 451.981,433.1 450.651,433.1 " />
<ellipse rx="1.3304" ry="1.3304" cx="459.963" cy="434.43" />
<polyline points="196.375,178.284 196.375,195.519 " />
<polyline points="93.4095,372.052 92.9217,371.077 91.9461,370.101 90.9705,369.613 89.0192,369.613 88.0436,370.101 87.068,371.077 86.5802,372.052 86.0923,373.516 86.0923,375.955 86.5802,377.418 87.068,378.394 88.0436,379.369 89.0192,379.857 90.9705,379.857 91.9461,379.369 92.9217,378.394 93.4095,377.418 " />
<polyline points="71.4325,357.401 69.7816,358.226 68.1307,359.877 67.3053,361.528 66.4798,364.004 66.4798,368.132 67.3053,370.608 68.1307,372.259 69.7816,373.91 71.4325,374.735 74.7342,374.735 76.3851,373.91 78.036,372.259 78.8614,370.608 79.6869,368.132 79.6869,364.004 78.8614,361.528 78.036,359.877 76.3851,358.226 74.7342,357.401 71.4325,357.401 " />
<polyline points="73.9088,371.433 78.8614,376.386 " />
<polyline points="410.879,59.6326 410.879,69.8767 " />
<polyline points="410.879,64.5108 411.855,63.5351 412.831,63.0473 414.294,63.0473 415.27,63.5351 416.245,64.5108 416.733,65.9742 416.733,66.9498 416.245,68.4133 415.27,69.3889 414.294,69.8767 412.831,69.8767 411.855,69.3889 410.879,68.4133 " />
<polyline points="420.148,62.0717 420.148,61.5839 420.636,60.6083 421.123,60.1205 422.099,59.6326 424.05,59.6326 425.026,60.1205 425.514,60.6083 426.002,61.5839 426.002,62.5595 425.514,63.5351 424.538,64.9986 419.66,69.8767 426.489,69.8767 " />
<polyline points="395.221,47.4204 388.617,64.7547 " />
<polyline points="395.221,47.4204 401.824,64.7547 " />
<polyline points="391.093,58.9766 399.348,58.9766 " />
<polyline points="405.423,132.831 446.758,132.831 " />
<polyline points="196.375,597.681 196.375,575.73 " />
<polyline points="410.559,704.511 410.559,714.755 " />
<polyline points="410.559,709.389 411.535,708.414 412.51,707.926 413.974,707.926 414.95,708.414 415.925,709.389 416.413,710.853 416.413,711.828 415.925,713.292 414.95,714.267 413.974,714.755 412.51,714.755 411.535,714.267 410.559,713.292 " />
<polyline points="420.803,706.462 421.779,705.975 423.242,704.511 423.242,714.755 " />
<polyline points="396.395,691.743 389.791,709.077 " />
<polyline points="396.395,691.743 402.998,709.077 " />
<polyline points="392.268,703.299 400.522,703.299 " />
<polyline points="402.686,638.417 446.758,638.417 " />
<polyline points="670.37,220.728 672.021,219.902 674.498,217.426 674.498,234.76 " />
<polyline points="686.879,214.949 686.054,215.775 685.228,214.949 686.054,214.124 686.879,214.949 686.879,216.6 686.054,218.251 685.228,219.077 " />
<polyline points="691.832,214.949 691.006,215.775 690.181,214.949 691.006,214.124 691.832,214.949 691.832,216.6 691.006,218.251 690.181,219.077 " />
<polyline points="702.562,214.124 700.912,215.775 699.261,218.251 697.61,221.553 696.784,225.68 696.784,228.982 697.61,233.109 699.261,236.411 700.912,238.887 702.562,240.538 " />
<polyline points="708.341,221.553 708.341,220.728 709.166,219.077 709.991,218.251 711.642,217.426 714.944,217.426 716.595,218.251 717.42,219.077 718.246,220.728 718.246,222.378 717.42,224.029 715.77,226.506 707.515,234.76 719.071,234.76 " />
<polyline points="733.929,217.426 725.675,217.426 724.849,224.855 725.675,224.029 728.151,223.204 730.627,223.204 733.104,224.029 734.755,225.68 735.58,228.157 735.58,229.807 734.755,232.284 733.104,233.935 730.627,234.76 728.151,234.76 725.675,233.935 724.849,233.109 724.024,231.458 " />
<polyline points="741.358,223.204 741.358,234.76 " />
<polyline points="741.358,226.506 743.835,224.029 745.485,223.204 747.962,223.204 749.613,224.029 750.438,226.506 750.438,234.76 " />
<polyline points="750.438,226.506 752.914,224.029 754.565,223.204 757.042,223.204 758.692,224.029 759.518,226.506 759.518,234.76 " />
<polyline points="766.121,223.204 766.121,234.76 " />
<polyline points="766.121,226.506 768.598,224.029 770.249,223.204 772.725,223.204 774.376,224.029 775.201,226.506 775.201,234.76 " />
<polyline points="775.201,226.506 777.678,224.029 779.328,223.204 781.805,223.204 783.456,224.029 784.281,226.506 784.281,234.76 " />
<polyline points="790.059,214.124 791.71,215.775 793.361,218.251 795.012,221.553 795.837,225.68 795.837,228.982 795.012,233.109 793.361,236.411 791.71,238.887 790.059,240.538 " />
<polyline points="819.775,223.204 819.775,234.76 " />
<polyline points="819.775,226.506 822.251,224.029 823.902,223.204 826.379,223.204 828.029,224.029 828.855,226.506 828.855,234.76 " />
<polyline points="828.855,226.506 831.331,224.029 832.982,223.204 835.458,223.204 837.109,224.029 837.935,226.506 837.935,234.76 " />
<polyline points="843.713,218.251 844.538,219.077 845.364,218.251 844.538,217.426 843.713,218.251 " />
<polyline points="844.538,224.029 844.538,234.76 " />
<polyline points="851.142,223.204 851.142,234.76 " />
<polyline points="851.142,226.506 853.618,224.029 855.269,223.204 857.745,223.204 859.396,224.029 860.222,226.506 860.222,234.76 " />
<polyline points="867.651,233.109 866.825,233.935 867.651,234.76 868.476,233.935 867.651,233.109 " />
<polyline points="895.716,223.204 894.065,224.029 892.414,225.68 891.588,228.157 891.588,229.807 892.414,232.284 894.065,233.935 895.716,234.76 898.192,234.76 899.843,233.935 901.494,232.284 902.319,229.807 902.319,228.157 901.494,225.68 899.843,224.029 898.192,223.204 895.716,223.204 " />
<polyline points="908.097,223.204 908.097,234.76 " />
<polyline points="908.097,228.157 908.923,225.68 910.574,224.029 912.224,223.204 914.701,223.204 " />
<polyline points="717.329,407.605 716.353,406.629 714.89,406.141 712.939,406.141 711.475,406.629 710.5,407.605 710.5,408.58 710.987,409.556 711.475,410.044 712.451,410.531 715.378,411.507 716.353,411.995 716.841,412.483 717.329,413.458 717.329,414.922 716.353,415.897 714.89,416.385 712.939,416.385 711.475,415.897 710.5,414.922 " />
<polyline points="695.596,393.929 688.992,411.263 " />
<polyline points="695.596,393.929 702.199,411.263 " />
<polyline points="691.469,405.485 699.723,405.485 " />
<polyline points="881.753,742.909 879.802,740.958 876.875,739.982 872.972,739.982 870.045,740.958 868.094,742.909 868.094,744.861 869.07,746.812 870.045,747.787 871.997,748.763 877.85,750.714 879.802,751.69 880.777,752.666 881.753,754.617 881.753,757.544 879.802,759.495 876.875,760.471 872.972,760.471 870.045,759.495 868.094,757.544 " />
<polyline points="888.582,739.982 888.582,760.471 " />
<polyline points="888.582,739.982 895.412,739.982 898.338,740.958 900.29,742.909 901.265,744.861 902.241,747.787 902.241,752.666 901.265,755.592 900.29,757.544 898.338,759.495 895.412,760.471 888.582,760.471 " />
<polyline points="919.802,739.982 910.046,739.982 909.07,748.763 910.046,747.787 912.973,746.812 915.9,746.812 918.827,747.787 920.778,749.739 921.753,752.666 921.753,754.617 920.778,757.544 918.827,759.495 915.9,760.471 912.973,760.471 910.046,759.495 909.07,758.519 908.095,756.568 " />
<polyline points="928.583,751.69 946.144,751.69 " />
<polyline points="953.949,744.861 953.949,743.885 954.925,741.934 955.9,740.958 957.852,739.982 961.754,739.982 963.705,740.958 964.681,741.934 965.657,743.885 965.657,745.836 964.681,747.787 962.73,750.714 952.973,760.471 966.632,760.471 " />
<polyline points="984.193,739.982 974.437,739.982 973.462,748.763 974.437,747.787 977.364,746.812 980.291,746.812 983.218,747.787 985.169,749.739 986.145,752.666 986.145,754.617 985.169,757.544 983.218,759.495 980.291,760.471 977.364,760.471 974.437,759.495 973.462,758.519 972.486,756.568 " />
<polyline points="663.988,212.485 663.988,240.867 " />
<polyline points="663.988,212.485 670.197,212.485 " />
<polyline points="663.988,240.867 670.197,240.867 " />
<polyline points="917.156,248.814 917.156,277.196 " />
<polyline points="910.948,248.814 917.156,248.814 " />
<polyline points="910.948,277.196 917.156,277.196 " />
</g>
</svg>
