<?xml version="1.0" standalone="no"?>
<svg viewBox="0 0 1024 768" version="1.1" xmlns="http://www.w3.org/2000/svg" xmlns:xlink="http://www.w3.org/1999/xlink" stroke-linecap="round" stroke-linejoin="round" fill-rule="evenodd" xml:space="preserve" >
<defs >
<clipPath id="clipId0" >
<path d="M0,768 1024,768 1024,0 0,0 z" />
</clipPath>
</defs>
<g clip-path="url(#clipId0)" fill="none" stroke="rgb(0,0,0)" stroke-width="0.1" />
<g clip-path="url(#clipId0)" fill="none" stroke="rgb(0,0,0)" stroke-width="0.25" >
<polyline points="280.087,85.54 280.087,313.967 " />
<polyline points="280.087,313.967 315.779,313.967 " />
<polyline points="337.194,313.967 355.692,387.959 " />
<polyline points="356.229,392.489 356.229,428.181 " />
<polyline points="356.229,428.181 508.514,428.181 " />
<polyline points="508.514,428.181 508.514,392.489 " />
<polyline points="509.052,387.959 527.55,313.967 " />
<polyline points="527.55,313.967 546.586,313.967 " />
<polyline points="546.586,85.54 320.537,85.54 " />
<polyline points="546.586,313.967 546.586,85.54 " />
<polyline points="625.107,123.611 660.799,123.611 " />
<polyline points="625.107,275.896 660.799,275.896 " />
<polyline points="660.799,275.896 660.799,123.611 " />
<polyline points="546.586,85.54 620.859,122.677 " />
<polyline points="620.859,276.831 546.586,313.967 " />
<polyline points="432.372,199.754 432.372,180.718 " />
<polyline points="432.372,199.754 413.336,199.754 " />
<polyline points="432.372,199.754 432.372,218.789 " />
<polyline points="432.372,199.754 451.407,199.754 " />
<polyline points="394.301,199.754 262.15,199.754 " />
<polyline points="432.372,237.825 432.372,449.676 " />
<polyline points="470.443,199.754 676.948,199.754 " />
<polyline points="320.537,85.54 320.537,313.967 " />
<polyline points="315.779,85.54 315.779,313.967 " />
<path d="M320.537,85.54  A2.4786,2.4786 0 0,0 315.779,85.54 " />
<polyline points="315.779,85.54 280.087,85.54 " />
<path d="M315.779,313.967  A2.4786,2.4786 0 0,0 320.537,313.967 " />
<polyline points="320.537,313.967 337.194,313.967 " />
<polyline points="625.107,275.896 625.107,123.611 " />
<polyline points="620.349,275.896 620.349,123.611 " />
<path d="M625.107,123.611  A2.4786,2.4786 0 0,0 620.349,123.611 " />
<path d="M620.349,275.896  A2.4786,2.4786 0 0,0 625.107,275.896 " />
<polyline points="356.229,387.731 508.514,387.731 " />
<polyline points="356.229,392.489 508.514,392.489 " />
<path d="M356.229,387.731  A2.4786,2.4786 0 0,0 356.229,392.489 " />
<path d="M508.514,392.489  A2.4786,2.4786 0 0,0 508.514,387.731 " />
<polyline points="546.586,74.4496 546.586,39.0393 " />
<polyline points="622.728,110.736 622.728,39.0393 " />
<polyline points="566.548,44.5845 602.765,44.5845 " />
</g>
<g clip-path="url(#clipId0)" fill="rgb(0,0,0)" stroke="rgb(0,0,0)" stroke-width="0.25" >
<path d="M566.548,41.2574 566.548,47.9116 546.586,44.5845 546.586,44.5845 z" />
<path d="M602.765,41.2574 602.765,47.9116 622.728,44.5845 622.728,44.5845 z" />
</g>
<g clip-path="url(#clipId0)" fill="none" stroke="rgb(0,0,0)" stroke-width="0.25" >
<polyline points="710.299,123.611 710.299,95.0578 " />
<polyline points="710.299,95.0578 729.335,95.0578 " />
<polyline points="268.996,313.967 225.766,313.967 " />
<polyline points="343.354,390.11 225.766,390.11 " />
<polyline points="231.311,333.93 231.311,370.147 " />
</g>
<g clip-path="url(#clipId0)" fill="rgb(0,0,0)" stroke="rgb(0,0,0)" stroke-width="0.25" >
<path d="M227.984,333.93 234.638,333.93 231.311,313.967 231.311,313.967 z" />
<path d="M227.984,370.147 234.638,370.147 231.311,390.11 231.311,390.11 z" />
</g>
<g clip-path="url(#clipId0)" fill="none" stroke="rgb(0,0,0)" stroke-width="0.25" >
<polyline points="231.311,85.54 231.311,56.9865 " />
<polyline points="231.311,56.9865 212.276,56.9865 " />
<polyline points="231.311,390.11 231.311,418.663 " />
<polyline points="231.311,418.663 212.276,418.663 " />
<polyline points="451.407,476.136 505.248,529.977 " />
<polyline points="505.248,529.977 524.284,529.977 " />
<polyline points="548.699,11.1552 548.699,30.1909 " />
<polyline points="548.699,11.1552 555.044,11.1552 557.764,12.0617 559.577,13.8746 560.483,15.6875 561.39,18.4069 561.39,22.9392 560.483,25.6586 559.577,27.4715 557.764,29.2844 555.044,30.1909 548.699,30.1909 " />
<polyline points="586.77,22.0327 603.087,22.0327 " />
<polyline points="610.338,11.1552 610.338,30.1909 " />
<polyline points="610.338,11.1552 616.684,11.1552 619.403,12.0617 621.216,13.8746 622.122,15.6875 623.029,18.4069 623.029,22.9392 622.122,25.6586 621.216,27.4715 619.403,29.2844 616.684,30.1909 610.338,30.1909 " />
<polyline points="654.755,7.52941 652.942,9.34233 651.129,12.0617 649.316,15.6875 648.41,20.2198 648.41,23.8457 649.316,28.378 651.129,32.0038 652.942,34.7232 654.755,36.5361 " />
<polyline points="662.913,14.7811 664.726,13.8746 667.445,11.1552 667.445,30.1909 " />
<polyline points="681.042,8.43587 680.136,9.34233 679.229,8.43587 680.136,7.52941 681.042,8.43587 681.042,10.2488 680.136,12.0617 679.229,12.9682 " />
<polyline points="686.481,8.43587 685.574,9.34233 684.668,8.43587 685.574,7.52941 686.481,8.43587 686.481,10.2488 685.574,12.0617 684.668,12.9682 " />
<polyline points="698.265,7.52941 696.452,9.34233 694.639,12.0617 692.826,15.6875 691.92,20.2198 691.92,23.8457 692.826,28.378 694.639,32.0038 696.452,34.7232 698.265,36.5361 " />
<polyline points="704.61,15.6875 704.61,14.7811 705.516,12.9682 706.423,12.0617 708.236,11.1552 711.862,11.1552 713.675,12.0617 714.581,12.9682 715.488,14.7811 715.488,16.594 714.581,18.4069 712.768,21.1263 703.704,30.1909 716.394,30.1909 " />
<polyline points="732.71,11.1552 723.646,11.1552 722.739,19.3134 723.646,18.4069 726.365,17.5005 729.084,17.5005 731.804,18.4069 733.617,20.2198 734.523,22.9392 734.523,24.7521 733.617,27.4715 731.804,29.2844 729.084,30.1909 726.365,30.1909 723.646,29.2844 722.739,28.378 721.833,26.565 " />
<polyline points="740.868,17.5005 740.868,30.1909 " />
<polyline points="740.868,21.1263 743.588,18.4069 745.401,17.5005 748.12,17.5005 749.933,18.4069 750.839,21.1263 750.839,30.1909 " />
<polyline points="750.839,21.1263 753.559,18.4069 755.372,17.5005 758.091,17.5005 759.904,18.4069 760.81,21.1263 760.81,30.1909 " />
<polyline points="768.062,17.5005 768.062,30.1909 " />
<polyline points="768.062,21.1263 770.781,18.4069 772.594,17.5005 775.314,17.5005 777.127,18.4069 778.033,21.1263 778.033,30.1909 " />
<polyline points="778.033,21.1263 780.753,18.4069 782.565,17.5005 785.285,17.5005 787.098,18.4069 788.004,21.1263 788.004,30.1909 " />
<polyline points="794.349,7.52941 796.162,9.34233 797.975,12.0617 799.788,15.6875 800.695,20.2198 800.695,23.8457 799.788,28.378 797.975,32.0038 796.162,34.7232 794.349,36.5361 " />
<polyline points="826.982,17.5005 826.982,30.1909 " />
<polyline points="826.982,21.1263 829.701,18.4069 831.514,17.5005 834.234,17.5005 836.046,18.4069 836.953,21.1263 836.953,30.1909 " />
<polyline points="836.953,21.1263 839.672,18.4069 841.485,17.5005 844.205,17.5005 846.018,18.4069 846.924,21.1263 846.924,30.1909 " />
<polyline points="853.269,12.0617 854.176,12.9682 855.082,12.0617 854.176,11.1552 853.269,12.0617 " />
<polyline points="854.176,18.4069 854.176,30.1909 " />
<polyline points="861.427,17.5005 861.427,30.1909 " />
<polyline points="861.427,21.1263 864.147,18.4069 865.96,17.5005 868.679,17.5005 870.492,18.4069 871.398,21.1263 871.398,30.1909 " />
<polyline points="879.556,28.378 878.65,29.2844 879.556,30.1909 880.463,29.2844 879.556,28.378 " />
<polyline points="653.131,52.3707 651.318,53.2772 649.505,55.0901 648.599,57.8095 648.599,59.6224 649.505,62.3418 651.318,64.1547 653.131,65.0611 655.851,65.0611 657.664,64.1547 659.477,62.3418 660.383,59.6224 660.383,57.8095 659.477,55.0901 657.664,53.2772 655.851,52.3707 653.131,52.3707 " />
<polyline points="666.728,52.3707 666.728,65.0611 " />
<polyline points="666.728,57.8095 667.635,55.0901 669.448,53.2772 671.26,52.3707 673.98,52.3707 " />
<polyline points="699.361,49.6514 701.174,48.7449 703.893,46.0255 703.893,65.0611 " />
<polyline points="715.677,50.5578 715.677,49.6514 716.583,47.8384 717.49,46.932 719.303,46.0255 722.929,46.0255 724.742,46.932 725.648,47.8384 726.554,49.6514 726.554,51.4643 725.648,53.2772 723.835,55.9966 714.77,65.0611 727.461,65.0611 " />
<polyline points="735.619,43.3061 734.713,44.2126 733.806,43.3061 734.713,42.3997 735.619,43.3061 735.619,45.1191 734.713,46.932 733.806,47.8384 " />
<polyline points="741.058,43.3061 740.151,44.2126 739.245,43.3061 740.151,42.3997 741.058,43.3061 741.058,45.1191 740.151,46.932 739.245,47.8384 " />
<polyline points="752.842,42.3997 751.029,44.2126 749.216,46.932 747.403,50.5578 746.497,55.0901 746.497,58.7159 747.403,63.2482 749.216,66.8741 751.029,69.5934 752.842,71.4064 " />
<polyline points="760.093,46.0255 770.064,46.0255 764.626,53.2772 767.345,53.2772 769.158,54.1836 770.064,55.0901 770.971,57.8095 770.971,59.6224 770.064,62.3418 768.252,64.1547 765.532,65.0611 762.813,65.0611 760.093,64.1547 759.187,63.2482 758.28,61.4353 " />
<polyline points="781.848,46.0255 779.129,46.932 777.316,49.6514 776.41,54.1836 776.41,56.903 777.316,61.4353 779.129,64.1547 781.848,65.0611 783.661,65.0611 786.381,64.1547 788.194,61.4353 789.1,56.903 789.1,54.1836 788.194,49.6514 786.381,46.932 783.661,46.0255 781.848,46.0255 " />
<polyline points="799.978,46.0255 797.258,46.932 795.445,49.6514 794.539,54.1836 794.539,56.903 795.445,61.4353 797.258,64.1547 799.978,65.0611 801.79,65.0611 804.51,64.1547 806.323,61.4353 807.229,56.903 807.229,54.1836 806.323,49.6514 804.51,46.932 801.79,46.0255 799.978,46.0255 " />
<polyline points="813.574,52.3707 813.574,65.0611 " />
<polyline points="813.574,55.9966 816.294,53.2772 818.107,52.3707 820.826,52.3707 822.639,53.2772 823.545,55.9966 823.545,65.0611 " />
<polyline points="823.545,55.9966 826.265,53.2772 828.078,52.3707 830.797,52.3707 832.61,53.2772 833.517,55.9966 833.517,65.0611 " />
<polyline points="840.768,52.3707 840.768,65.0611 " />
<polyline points="840.768,55.9966 843.488,53.2772 845.3,52.3707 848.02,52.3707 849.833,53.2772 850.739,55.9966 850.739,65.0611 " />
<polyline points="850.739,55.9966 853.459,53.2772 855.272,52.3707 857.991,52.3707 859.804,53.2772 860.71,55.9966 860.71,65.0611 " />
<polyline points="867.055,42.3997 868.868,44.2126 870.681,46.932 872.494,50.5578 873.401,55.0901 873.401,58.7159 872.494,63.2482 870.681,66.8741 868.868,69.5934 867.055,71.4064 " />
<polyline points="899.688,52.3707 899.688,65.0611 " />
<polyline points="899.688,55.9966 902.407,53.2772 904.22,52.3707 906.94,52.3707 908.753,53.2772 909.659,55.9966 909.659,65.0611 " />
<polyline points="909.659,55.9966 912.378,53.2772 914.191,52.3707 916.911,52.3707 918.724,53.2772 919.63,55.9966 919.63,65.0611 " />
<polyline points="936.853,52.3707 936.853,65.0611 " />
<polyline points="936.853,55.0901 935.04,53.2772 933.227,52.3707 930.508,52.3707 928.695,53.2772 926.882,55.0901 925.975,57.8095 925.975,59.6224 926.882,62.3418 928.695,64.1547 930.508,65.0611 933.227,65.0611 935.04,64.1547 936.853,62.3418 " />
<polyline points="943.198,52.3707 953.169,65.0611 " />
<polyline points="953.169,52.3707 943.198,65.0611 " />
<polyline points="960.421,63.2482 959.514,64.1547 960.421,65.0611 961.327,64.1547 960.421,63.2482 " />
<polyline points="967.672,42.3997 969.485,44.2126 971.298,46.932 973.111,50.5578 974.018,55.0901 974.018,58.7159 973.111,63.2482 971.298,66.8741 969.485,69.5934 967.672,71.4064 " />
<polyline points="573.039,27.5196 571.679,26.1599 570.319,25.48 568.28,25.48 566.92,26.1599 565.56,27.5196 564.881,29.5591 564.881,30.9188 565.56,32.9583 566.92,34.318 568.28,34.9978 570.319,34.9978 571.679,34.318 573.039,32.9583 " />
<polyline points="635.709,27.5196 635.029,26.1599 632.99,25.48 630.95,25.48 628.911,26.1599 628.231,27.5196 628.911,28.8793 630.271,29.5591 633.67,30.2389 635.029,30.9188 635.709,32.2785 635.709,32.9583 635.029,34.318 632.99,34.9978 630.95,34.9978 628.911,34.318 628.231,32.9583 " />
<polyline points="738.093,82.0275 738.093,101.063 " />
<polyline points="738.093,82.0275 744.438,82.0275 747.157,82.9339 748.97,84.7468 749.877,86.5598 750.783,89.2791 750.783,93.8114 749.877,96.5308 748.97,98.3437 747.157,100.157 744.438,101.063 738.093,101.063 " />
<polyline points="762.092,98.3918 761.413,97.0321 759.373,96.3523 757.334,96.3523 755.294,97.0321 754.614,98.3918 755.294,99.7515 756.654,100.431 760.053,101.111 761.413,101.791 762.092,103.151 762.092,103.831 761.413,105.19 759.373,105.87 757.334,105.87 755.294,105.19 754.614,103.831 " />
<polyline points="206.391,60.3205 205.031,58.9609 203.672,58.281 201.632,58.281 200.272,58.9609 198.913,60.3205 198.233,62.3601 198.233,63.7198 198.913,65.7593 200.272,67.119 201.632,67.7988 203.672,67.7988 205.031,67.119 206.391,65.7593 " />
<polyline points="182.051,43.9562 182.051,62.9918 " />
<polyline points="182.051,43.9562 188.397,43.9562 191.116,44.8627 192.929,46.6756 193.835,48.4885 194.742,51.2079 194.742,55.7402 193.835,58.4596 192.929,60.2725 191.116,62.0854 188.397,62.9918 182.051,62.9918 " />
<polyline points="551.05,528.892 551.05,543.169 " />
<polyline points="551.05,535.69 552.409,534.331 553.769,533.651 555.808,533.651 557.168,534.331 558.528,535.69 559.208,537.73 559.208,539.09 558.528,541.129 557.168,542.489 555.808,543.169 553.769,543.169 552.409,542.489 551.05,541.129 " />
<polyline points="533.042,516.947 533.042,535.982 " />
<polyline points="533.042,516.947 539.387,516.947 542.107,517.853 543.92,519.666 544.826,521.479 545.732,524.198 545.732,528.731 544.826,531.45 543.92,533.263 542.107,535.076 539.387,535.982 533.042,535.982 " />
<polyline points="611.84,470.191 611.84,469.284 612.747,467.472 613.653,466.565 615.466,465.659 619.092,465.659 620.905,466.565 621.811,467.472 622.718,469.284 622.718,471.097 621.811,472.91 619.999,475.63 610.934,484.694 623.624,484.694 " />
<polyline points="631.782,462.939 630.876,463.846 629.97,462.939 630.876,462.033 631.782,462.939 631.782,464.752 630.876,466.565 629.97,467.472 " />
<polyline points="637.221,462.939 636.315,463.846 635.408,462.939 636.315,462.033 637.221,462.939 637.221,464.752 636.315,466.565 635.408,467.472 " />
<polyline points="649.005,462.033 647.192,463.846 645.379,466.565 643.566,470.191 642.66,474.723 642.66,478.349 643.566,482.881 645.379,486.507 647.192,489.227 649.005,491.039 " />
<polyline points="665.321,465.659 656.257,465.659 655.35,473.817 656.257,472.91 658.976,472.004 661.696,472.004 664.415,472.91 666.228,474.723 667.134,477.443 667.134,479.256 666.228,481.975 664.415,483.788 661.696,484.694 658.976,484.694 656.257,483.788 655.35,482.881 654.444,481.068 " />
<polyline points="678.012,465.659 675.292,466.565 673.48,469.284 672.573,473.817 672.573,476.536 673.48,481.068 675.292,483.788 678.012,484.694 679.825,484.694 682.544,483.788 684.357,481.068 685.264,476.536 685.264,473.817 684.357,469.284 682.544,466.565 679.825,465.659 678.012,465.659 " />
<polyline points="691.609,472.004 691.609,484.694 " />
<polyline points="691.609,475.63 694.328,472.91 696.141,472.004 698.86,472.004 700.673,472.91 701.58,475.63 701.58,484.694 " />
<polyline points="701.58,475.63 704.299,472.91 706.112,472.004 708.831,472.004 710.644,472.91 711.551,475.63 711.551,484.694 " />
<polyline points="718.802,472.004 718.802,484.694 " />
<polyline points="718.802,475.63 721.522,472.91 723.335,472.004 726.054,472.004 727.867,472.91 728.774,475.63 728.774,484.694 " />
<polyline points="728.774,475.63 731.493,472.91 733.306,472.004 736.025,472.004 737.838,472.91 738.745,475.63 738.745,484.694 " />
<polyline points="745.09,462.033 746.903,463.846 748.716,466.565 750.529,470.191 751.435,474.723 751.435,478.349 750.529,482.881 748.716,486.507 746.903,489.227 745.09,491.039 " />
<polyline points="56.8927,408.851 47.8281,421.541 61.425,421.541 " />
<polyline points="56.8927,408.851 56.8927,427.887 " />
<polyline points="68.6766,406.132 67.7702,407.038 66.8637,406.132 67.7702,405.225 68.6766,406.132 68.6766,407.945 67.7702,409.757 66.8637,410.664 " />
<polyline points="74.1154,406.132 73.2089,407.038 72.3025,406.132 73.2089,405.225 74.1154,406.132 74.1154,407.945 73.2089,409.757 72.3025,410.664 " />
<polyline points="85.8993,405.225 84.0864,407.038 82.2735,409.757 80.4606,413.383 79.5541,417.916 79.5541,421.541 80.4606,426.074 82.2735,429.7 84.0864,432.419 85.8993,434.232 " />
<polyline points="94.0575,412.477 95.8704,411.57 98.5898,408.851 98.5898,427.887 " />
<polyline points="114.906,408.851 112.187,409.757 110.374,412.477 109.467,417.009 109.467,419.729 110.374,424.261 112.187,426.98 114.906,427.887 116.719,427.887 119.438,426.98 121.251,424.261 122.158,419.729 122.158,417.009 121.251,412.477 119.438,409.757 116.719,408.851 114.906,408.851 " />
<polyline points="133.035,408.851 130.316,409.757 128.503,412.477 127.596,417.009 127.596,419.729 128.503,424.261 130.316,426.98 133.035,427.887 134.848,427.887 137.567,426.98 139.38,424.261 140.287,419.729 140.287,417.009 139.38,412.477 137.567,409.757 134.848,408.851 133.035,408.851 " />
<polyline points="146.632,415.196 146.632,427.887 " />
<polyline points="146.632,418.822 149.351,416.103 151.164,415.196 153.884,415.196 155.697,416.103 156.603,418.822 156.603,427.887 " />
<polyline points="156.603,418.822 159.322,416.103 161.135,415.196 163.855,415.196 165.668,416.103 166.574,418.822 166.574,427.887 " />
<polyline points="173.826,415.196 173.826,427.887 " />
<polyline points="173.826,418.822 176.545,416.103 178.358,415.196 181.077,415.196 182.89,416.103 183.797,418.822 183.797,427.887 " />
<polyline points="183.797,418.822 186.516,416.103 188.329,415.196 191.049,415.196 192.861,416.103 193.768,418.822 193.768,427.887 " />
<polyline points="200.113,405.225 201.926,407.038 203.739,409.757 205.552,413.383 206.458,417.916 206.458,421.541 205.552,426.074 203.739,429.7 201.926,432.419 200.113,434.232 " />
<polyline points="110.774,470.191 110.774,469.284 111.68,467.472 112.587,466.565 114.4,465.659 118.026,465.659 119.839,466.565 120.745,467.472 121.651,469.284 121.651,471.097 120.745,472.91 118.932,475.63 109.868,484.694 122.558,484.694 " />
<polyline points="130.716,462.939 129.81,463.846 128.903,462.939 129.81,462.033 130.716,462.939 130.716,464.752 129.81,466.565 128.903,467.472 " />
<polyline points="136.155,462.939 135.248,463.846 134.342,462.939 135.248,462.033 136.155,462.939 136.155,464.752 135.248,466.565 134.342,467.472 " />
<polyline points="147.939,462.033 146.126,463.846 144.313,466.565 142.5,470.191 141.594,474.723 141.594,478.349 142.5,482.881 144.313,486.507 146.126,489.227 147.939,491.039 " />
<polyline points="164.255,465.659 155.19,465.659 154.284,473.817 155.19,472.91 157.91,472.004 160.629,472.004 163.349,472.91 165.161,474.723 166.068,477.443 166.068,479.256 165.161,481.975 163.349,483.788 160.629,484.694 157.91,484.694 155.19,483.788 154.284,482.881 153.378,481.068 " />
<polyline points="176.945,465.659 174.226,466.565 172.413,469.284 171.507,473.817 171.507,476.536 172.413,481.068 174.226,483.788 176.945,484.694 178.758,484.694 181.478,483.788 183.291,481.068 184.197,476.536 184.197,473.817 183.291,469.284 181.478,466.565 178.758,465.659 176.945,465.659 " />
<polyline points="190.542,472.004 190.542,484.694 " />
<polyline points="190.542,475.63 193.262,472.91 195.075,472.004 197.794,472.004 199.607,472.91 200.513,475.63 200.513,484.694 " />
<polyline points="200.513,475.63 203.233,472.91 205.046,472.004 207.765,472.004 209.578,472.91 210.484,475.63 210.484,484.694 " />
<polyline points="217.736,472.004 217.736,484.694 " />
<polyline points="217.736,475.63 220.455,472.91 222.268,472.004 224.988,472.004 226.801,472.91 227.707,475.63 227.707,484.694 " />
<polyline points="227.707,475.63 230.426,472.91 232.239,472.004 234.959,472.004 236.772,472.91 237.678,475.63 237.678,484.694 " />
<polyline points="244.023,462.033 245.836,463.846 247.649,466.565 249.462,470.191 250.369,474.723 250.369,478.349 249.462,482.881 247.649,486.507 245.836,489.227 244.023,491.039 " />
<polyline points="508.514,443.41 508.514,483.75 " />
<polyline points="546.586,329.196 546.586,483.75 " />
<polyline points="573.997,476.136 601.408,476.136 " />
<polyline points="481.103,476.136 453.692,476.136 " />
</g>
<g clip-path="url(#clipId0)" fill="rgb(0,0,0)" stroke="rgb(0,0,0)" stroke-width="0.25" >
<path d="M573.997,480.705 573.997,471.568 546.586,476.136 546.586,476.136 z" />
<path d="M481.103,480.705 481.103,471.568 508.514,476.136 508.514,476.136 z" />
</g>
<g clip-path="url(#clipId0)" fill="none" stroke="rgb(0,0,0)" stroke-width="0.1" >
<polyline points="508.514,428.181 508.514,428.181 " />
<polyline points="546.586,313.967 546.586,313.967 " />
<polyline points="546.586,476.136 546.586,476.136 " />
</g>
<g clip-path="url(#clipId0)" fill="none" stroke="rgb(0,0,0)" stroke-width="0.25" >
<polyline points="356.229,443.41 356.229,483.75 " />
<polyline points="318.158,330.981 318.158,483.75 " />
<polyline points="290.747,476.136 263.335,476.136 " />
<polyline points="383.641,476.136 411.052,476.136 " />
</g>
<g clip-path="url(#clipId0)" fill="rgb(0,0,0)" stroke="rgb(0,0,0)" stroke-width="0.25" >
<path d="M290.747,480.705 290.747,471.568 318.158,476.136 318.158,476.136 z" />
<path d="M383.641,480.705 383.641,471.568 356.229,476.136 356.229,476.136 z" />
</g>
<g clip-path="url(#clipId0)" fill="none" stroke="rgb(0,0,0)" stroke-width="0.1" >
<polyline points="356.229,428.181 356.229,428.181 " />
<polyline points="318.158,315.752 318.158,315.752 " />
<polyline points="318.158,476.136 318.158,476.136 " />
</g>
<g clip-path="url(#clipId0)" fill="none" stroke="rgb(0,0,0)" stroke-width="0.25" >
<polyline points="671.89,123.611 715.844,123.611 " />
<polyline points="671.89,275.896 715.844,275.896 " />
<polyline points="710.299,143.574 710.299,255.934 " />
</g>
<g clip-path="url(#clipId0)" fill="rgb(0,0,0)" stroke="rgb(0,0,0)" stroke-width="0.25" >
<path d="M713.626,143.574 706.972,143.574 710.299,123.611 710.299,123.611 z" />
<path d="M713.626,255.934 706.972,255.934 710.299,275.896 710.299,275.896 z" />
</g>
<g clip-path="url(#clipId0)" fill="none" stroke="rgb(0,0,0)" stroke-width="0.25" >
<polyline points="356.229,439.272 356.229,481.681 " />
<polyline points="508.514,439.272 508.514,481.681 " />
<polyline points="376.192,476.136 488.552,476.136 " />
</g>
<g clip-path="url(#clipId0)" fill="rgb(0,0,0)" stroke="rgb(0,0,0)" stroke-width="0.25" >
<path d="M376.192,479.463 376.192,472.809 356.229,476.136 356.229,476.136 z" />
<path d="M488.552,479.463 488.552,472.809 508.514,476.136 508.514,476.136 z" />
</g>
<g clip-path="url(#clipId0)" fill="none" stroke="rgb(0,0,0)" stroke-width="0.25" >
<polyline points="268.996,85.54 225.766,85.54 " />
<polyline points="268.996,313.967 225.766,313.967 " />
<polyline points="231.311,105.503 231.311,294.005 " />
</g>
<g clip-path="url(#clipId0)" fill="rgb(0,0,0)" stroke="rgb(0,0,0)" stroke-width="0.25" >
<path d="M234.638,105.503 227.984,105.503 231.311,85.54 231.311,85.54 z" />
<path d="M234.638,294.005 227.984,294.005 231.311,313.967 231.311,313.967 z" />
</g>
<g clip-path="url(#clipId0)" fill="none" stroke="rgb(0,0,0)" stroke-width="0.25" >
<path d="M527.55,313.967  A135.283,135.283 0 0,0 337.194,313.967 " />
<polyline points="344.236,261.281 343.444,263.657 341.859,265.241 339.483,266.034 338.691,266.034 336.314,265.241 334.73,263.657 333.938,261.281 333.938,260.488 334.73,258.112 336.314,256.528 338.691,255.735 339.483,255.735 341.859,256.528 343.444,258.112 344.236,261.281 344.236,265.241 343.444,269.202 341.859,271.579 339.483,272.371 337.898,272.371 335.522,271.579 334.73,269.994 " />
<polyline points="354.534,255.735 352.157,256.528 350.573,258.904 349.781,262.865 349.781,265.241 350.573,269.202 352.157,271.579 354.534,272.371 356.118,272.371 358.495,271.579 360.079,269.202 360.871,265.241 360.871,262.865 360.079,258.904 358.495,256.528 356.118,255.735 354.534,255.735 " />
<polyline points="367.758,252.165 366.174,252.957 364.59,254.542 363.797,256.918 363.797,258.503 364.59,260.879 366.174,262.463 367.758,263.256 370.135,263.256 371.719,262.463 373.303,260.879 374.096,258.503 374.096,256.918 373.303,254.542 371.719,252.957 370.135,252.165 367.758,252.165 " />
<path d="M364.461,219.517  A70.7283,70.7283 0 0,0 412.609,267.665 " />
</g>
<g clip-path="url(#clipId0)" fill="rgb(0,0,0)" stroke="rgb(0,0,0)" stroke-width="0.25" >
<path d="M367.754,219.047 361.167,219.986 361.643,199.754 361.643,199.754 z" />
<path d="M413.078,264.371 412.139,270.959 432.372,270.482 432.372,270.482 z" />
</g>
<g clip-path="url(#clipId0)" fill="none" stroke="rgb(0,0,0)" stroke-width="0.25" >
<polyline points="851.854,739.557 849.531,737.234 846.045,736.072 841.398,736.072 837.912,737.234 835.588,739.557 835.588,741.881 836.75,744.205 837.912,745.367 840.236,746.528 847.207,748.852 849.531,750.014 850.692,751.176 851.854,753.5 851.854,756.985 849.531,759.309 846.045,760.471 841.398,760.471 837.912,759.309 835.588,756.985 " />
<polyline points="859.987,736.072 859.987,760.471 " />
<polyline points="859.987,736.072 868.12,736.072 871.606,737.234 873.929,739.557 875.091,741.881 876.253,745.367 876.253,751.176 875.091,754.661 873.929,756.985 871.606,759.309 868.12,760.471 859.987,760.471 " />
<polyline points="897.166,736.072 885.548,736.072 884.386,746.528 885.548,745.367 889.033,744.205 892.519,744.205 896.004,745.367 898.328,747.69 899.49,751.176 899.49,753.5 898.328,756.985 896.004,759.309 892.519,760.471 889.033,760.471 885.548,759.309 884.386,758.147 883.224,755.823 " />
<polyline points="907.623,750.014 928.536,750.014 " />
<polyline points="940.155,740.719 942.478,739.557 945.964,736.072 945.964,760.471 " />
<polyline points="966.877,736.072 963.392,737.234 961.068,740.719 959.906,746.528 959.906,750.014 961.068,755.823 963.392,759.309 966.877,760.471 969.201,760.471 972.686,759.309 975.01,755.823 976.172,750.014 976.172,746.528 975.01,740.719 972.686,737.234 969.201,736.072 966.877,736.072 " />
<polyline points="173.106,202.2 76.4891,202.2 " />
</g>
<g clip-path="url(#clipId0)" fill="rgb(0,0,0)" stroke="rgb(0,0,0)" stroke-width="0.25" >
<path d="M173.106,198.851 173.106,205.548 193.196,202.2 193.196,202.2 z" />
</g>
<g clip-path="url(#clipId0)" fill="none" stroke="rgb(0,0,0)" stroke-width="0.25" >
<polyline points="150.276,229.501 149.702,228.353 148.554,227.206 147.406,226.632 145.111,226.632 143.963,227.206 142.815,228.353 142.241,229.501 141.667,231.223 141.667,234.093 142.241,235.814 142.815,236.962 143.963,238.11 145.111,238.684 147.406,238.684 148.554,238.11 149.702,236.962 150.276,235.814 " />
<polyline points="125.038,213.254 117.385,233.342 " />
<polyline points="125.038,213.254 132.69,233.342 " />
<polyline points="120.255,226.646 129.82,226.646 " />
<polyline points="150.276,179.42 149.702,178.272 148.554,177.125 147.406,176.551 145.111,176.551 143.963,177.125 142.815,178.272 142.241,179.42 141.667,181.142 141.667,184.012 142.241,185.733 142.815,186.881 143.963,188.029 145.111,188.603 147.406,188.603 148.554,188.029 149.702,186.881 150.276,185.733 " />
<polyline points="125.038,163.173 123.125,164.13 121.212,166.043 120.255,167.956 119.298,170.826 119.298,175.608 120.255,178.478 121.212,180.391 123.125,182.304 125.038,183.261 128.864,183.261 130.777,182.304 132.69,180.391 133.647,178.478 134.603,175.608 134.603,170.826 133.647,167.956 132.69,166.043 130.777,164.13 128.864,163.173 125.038,163.173 " />
<polyline points="127.907,179.435 133.647,185.174 " />
</g>
<g clip-path="url(#clipId0)" fill="rgb(0,0,0)" stroke="rgb(0,0,0)" stroke-width="0.25" >
<path d="M436.19,606.953 429.812,606.953 433.001,626.087 433.001,626.087 z" />
</g>
<g clip-path="url(#clipId0)" fill="none" stroke="rgb(0,0,0)" stroke-width="0.25" >
<polyline points="407.004,562.631 407.004,574.683 " />
<polyline points="407.004,568.37 408.152,567.222 409.3,566.648 411.022,566.648 412.169,567.222 413.317,568.37 413.891,570.092 413.891,571.24 413.317,572.961 412.169,574.109 411.022,574.683 409.3,574.683 408.152,574.109 407.004,572.961 " />
<polyline points="390.905,551.338 388.992,552.294 387.079,554.207 386.122,556.12 385.165,558.99 385.165,563.773 386.122,566.642 387.079,568.556 388.992,570.469 390.905,571.425 394.731,571.425 396.644,570.469 398.557,568.556 399.514,566.642 400.47,563.773 400.47,558.99 399.514,556.12 398.557,554.207 396.644,552.294 394.731,551.338 390.905,551.338 " />
<polyline points="393.774,567.599 399.514,573.338 " />
<polyline points="432.81,608.283 432.81,519.926 " />
<polyline points="472.547,562.631 472.547,574.683 " />
<polyline points="472.547,568.37 473.695,567.222 474.843,566.648 476.564,566.648 477.712,567.222 478.86,568.37 479.434,570.092 479.434,571.24 478.86,572.961 477.712,574.109 476.564,574.683 474.843,574.683 473.695,574.109 472.547,572.961 " />
<polyline points="456.448,551.338 448.795,571.425 " />
<polyline points="456.448,551.338 464.1,571.425 " />
<polyline points="451.665,564.729 461.23,564.729 " />
<polyline points="821.603,178.397 820.455,177.25 818.733,176.676 816.438,176.676 814.716,177.25 813.568,178.397 813.568,179.545 814.142,180.693 814.716,181.267 815.864,181.841 819.307,182.989 820.455,183.563 821.029,184.137 821.603,185.285 821.603,187.006 820.455,188.154 818.733,188.728 816.438,188.728 814.716,188.154 813.568,187.006 " />
<polyline points="821.603,233.029 820.455,231.881 818.733,231.307 816.438,231.307 814.716,231.881 813.568,233.029 813.568,234.176 814.142,235.324 814.716,235.898 815.864,236.472 819.307,237.62 820.455,238.194 821.029,238.768 821.603,239.916 821.603,241.637 820.455,242.785 818.733,243.359 816.438,243.359 814.716,242.785 813.568,241.637 " />
<polyline points="856.03,202.974 756.662,202.974 " />
<polyline points="796.412,218.346 788.759,238.434 " />
<polyline points="796.412,218.346 804.064,238.434 " />
<polyline points="791.629,231.738 801.195,231.738 " />
<polyline points="796.412,163.715 794.499,164.672 792.586,166.585 791.629,168.498 790.673,171.368 790.673,176.15 791.629,179.02 792.586,180.933 794.499,182.846 796.412,183.803 800.238,183.803 802.151,182.846 804.064,180.933 805.021,179.02 805.977,176.15 805.977,171.368 805.021,168.498 804.064,166.585 802.151,164.672 800.238,163.715 796.412,163.715 " />
<polyline points="799.281,179.976 805.021,185.716 " />
</g>
<g clip-path="url(#clipId0)" fill="rgb(0,0,0)" stroke="rgb(0,0,0)" stroke-width="0.25" >
<path d="M856.03,199.626 856.03,206.322 876.12,202.974 876.12,202.974 z" />
</g>
</svg>
