<?xml version="1.0" standalone="no"?>
<svg viewBox="0 0 1024 768" version="1.1" xmlns="http://www.w3.org/2000/svg" xmlns:xlink="http://www.w3.org/1999/xlink" stroke-linecap="round" stroke-linejoin="round" fill-rule="evenodd" xml:space="preserve" >
<defs >
<clipPath id="clipId0" >
<path d="M0,768 1024,768 1024,0 0,0 z" />
</clipPath>
</defs>
<g clip-path="url(#clipId0)" fill="none" stroke="rgb(0,0,0)" stroke-width="0.1" />
<g clip-path="url(#clipId0)" fill="none" stroke="rgb(0,0,0)" stroke-width="0.25" >
<polyline points="209.825,278.839 209.825,492.462 " />
<polyline points="209.825,492.462 243.204,492.462 " />
<polyline points="263.231,492.462 387.536,616.767 " />
<polyline points="209.825,278.839 243.204,278.839 " />
<polyline points="263.231,278.839 387.536,154.534 " />
<polyline points="482.438,278.839 482.438,492.462 " />
<polyline points="482.438,278.839 464.637,278.839 " />
<polyline points="464.637,278.839 488.239,255.237 " />
<polyline points="482.438,492.462 464.637,492.462 " />
<polyline points="464.637,492.462 488.239,516.065 " />
<polyline points="514.988,228.488 414.285,127.785 " />
<polyline points="514.988,542.814 414.285,643.517 " />
<polyline points="555.871,314.443 589.25,314.443 " />
<polyline points="555.871,456.859 589.25,456.859 " />
<polyline points="589.25,314.443 589.25,456.859 " />
<polyline points="482.438,278.839 551.899,313.569 " />
<polyline points="551.899,457.732 482.438,492.462 " />
<polyline points="247.654,278.839 247.654,492.462 " />
<polyline points="243.204,278.839 243.204,492.462 " />
<path d="M247.654,278.839  A2.31796,2.31796 0 0,0 243.204,278.839 " />
<polyline points="247.654,278.839 263.231,278.839 " />
<path d="M243.204,492.462  A2.31796,2.31796 0 0,0 247.654,492.462 " />
<polyline points="555.871,314.443 555.871,456.859 " />
<polyline points="551.421,314.443 551.421,456.859 " />
<path d="M555.871,314.443  A2.31796,2.31796 0 0,0 551.421,314.443 " />
<path d="M551.421,456.859  A2.31796,2.31796 0 0,0 555.871,456.859 " />
<polyline points="247.654,492.462 263.231,492.462 " />
<polyline points="491.386,252.09 390.683,151.387 " />
<polyline points="488.239,255.237 387.536,154.534 " />
<path d="M488.239,255.237  A2.31796,2.31796 0 0,0 491.386,252.09 " />
<polyline points="491.386,252.09 514.988,228.488 " />
<path d="M390.683,151.387  A2.31796,2.31796 0 0,0 387.536,154.534 " />
<polyline points="390.683,151.387 414.285,127.785 " />
<path d="M387.536,616.767  A2.31796,2.31796 0 0,0 390.683,619.914 " />
<path d="M491.386,519.212  A2.31796,2.31796 0 0,0 488.239,516.065 " />
<polyline points="488.239,516.065 387.536,616.767 " />
<polyline points="491.386,519.212 390.683,619.914 " />
<polyline points="390.683,619.914 414.285,643.517 " />
<polyline points="491.386,519.212 514.988,542.814 " />
<polyline points="257.122,385.651 269.71,373.063 " />
<polyline points="257.122,385.651 244.534,373.063 " />
<polyline points="257.122,385.651 244.534,398.239 " />
<polyline points="257.122,385.651 269.71,398.239 " />
<polyline points="282.298,360.475 477.224,165.549 " />
<polyline points="282.298,410.827 477.224,605.753 " />
<polyline points="257.122,385.651 239.32,385.651 " />
<polyline points="221.518,385.651 192.023,385.651 " />
<polyline points="257.122,385.651 274.924,385.651 " />
<polyline points="292.726,385.651 607.052,385.651 " />
</g>
<g clip-path="url(#clipId0)" fill="rgb(0,0,0)" stroke="rgb(0,0,0)" stroke-width="0.25" >
<path d="M103.519,381.378 103.519,389.923 129.154,385.651 129.154,385.651 z" />
</g>
<g clip-path="url(#clipId0)" fill="none" stroke="rgb(0,0,0)" stroke-width="0.25" >
<polyline points="103.519,385.651 10.0392,385.651 " />
<polyline points="566.182,76.5979 510.618,132.155 " />
</g>
<g clip-path="url(#clipId0)" fill="rgb(0,0,0)" stroke="rgb(0,0,0)" stroke-width="0.25" >
<path d="M563.161,73.5768 569.204,79.619 584.309,58.4714 584.309,58.4714 z" />
</g>
<g clip-path="url(#clipId0)" fill="none" stroke="rgb(0,0,0)" stroke-width="0.25" >
<polyline points="768.215,383.502 676.885,383.502 " />
</g>
<g clip-path="url(#clipId0)" fill="rgb(0,0,0)" stroke="rgb(0,0,0)" stroke-width="0.25" >
<path d="M768.215,379.229 768.215,387.774 793.849,383.502 793.849,383.502 z" />
</g>
<g clip-path="url(#clipId0)" fill="none" stroke="rgb(0,0,0)" stroke-width="0.25" >
<polyline points="572.634,701.151 510.618,639.146 " />
</g>
<g clip-path="url(#clipId0)" fill="rgb(0,0,0)" stroke="rgb(0,0,0)" stroke-width="0.25" >
<path d="M569.613,704.172 575.655,698.13 590.76,719.277 590.76,719.277 z" />
</g>
<g clip-path="url(#clipId0)" fill="none" stroke="rgb(0,0,0)" stroke-width="0.25" >
<polyline points="295.645,588.948 277.843,588.948 " />
<polyline points="142.372,582.266 142.372,581.418 143.22,579.722 144.068,578.875 145.763,578.027 149.154,578.027 150.849,578.875 151.697,579.722 152.545,581.418 152.545,583.113 151.697,584.809 150.002,587.352 141.525,595.829 153.392,595.829 " />
<polyline points="161.022,575.484 160.174,576.332 159.326,575.484 160.174,574.636 161.022,575.484 161.022,577.179 160.174,578.875 159.326,579.722 " />
<polyline points="166.108,575.484 165.26,576.332 164.413,575.484 165.26,574.636 166.108,575.484 166.108,577.179 165.26,578.875 164.413,579.722 " />
<polyline points="177.128,574.636 175.433,576.332 173.737,578.875 172.042,582.266 171.194,586.504 171.194,589.895 172.042,594.134 173.737,597.524 175.433,600.068 177.128,601.763 " />
<polyline points="192.387,578.027 183.91,578.027 183.062,585.656 183.91,584.809 186.453,583.961 188.996,583.961 191.539,584.809 193.235,586.504 194.083,589.047 194.083,590.743 193.235,593.286 191.539,594.981 188.996,595.829 186.453,595.829 183.91,594.981 183.062,594.134 182.215,592.438 " />
<polyline points="204.255,578.027 201.712,578.875 200.017,581.418 199.169,585.656 199.169,588.2 200.017,592.438 201.712,594.981 204.255,595.829 205.95,595.829 208.494,594.981 210.189,592.438 211.037,588.2 211.037,585.656 210.189,581.418 208.494,578.875 205.95,578.027 204.255,578.027 " />
<polyline points="216.971,583.961 216.971,595.829 " />
<polyline points="216.971,587.352 219.514,584.809 221.209,583.961 223.752,583.961 225.448,584.809 226.296,587.352 226.296,595.829 " />
<polyline points="226.296,587.352 228.839,584.809 230.534,583.961 233.077,583.961 234.773,584.809 235.62,587.352 235.62,595.829 " />
<polyline points="242.402,583.961 242.402,595.829 " />
<polyline points="242.402,587.352 244.945,584.809 246.641,583.961 249.184,583.961 250.879,584.809 251.727,587.352 251.727,595.829 " />
<polyline points="251.727,587.352 254.27,584.809 255.965,583.961 258.509,583.961 260.204,584.809 261.052,587.352 261.052,595.829 " />
<polyline points="266.986,574.636 268.681,576.332 270.376,578.875 272.072,582.266 272.92,586.504 272.92,589.895 272.072,594.134 270.376,597.524 268.681,600.068 266.986,601.763 " />
<polyline points="60.3845,543.373 62.0799,542.525 64.623,539.982 64.623,557.784 " />
<polyline points="77.3387,537.439 76.4909,538.286 75.6432,537.439 76.4909,536.591 77.3387,537.439 77.3387,539.134 76.4909,540.83 75.6432,541.677 " />
<polyline points="82.4249,537.439 81.5772,538.286 80.7295,537.439 81.5772,536.591 82.4249,537.439 82.4249,539.134 81.5772,540.83 80.7295,541.677 " />
<polyline points="93.4452,536.591 91.7497,538.286 90.0543,540.83 88.3589,544.22 87.5112,548.459 87.5112,551.85 88.3589,556.088 90.0543,559.479 91.7497,562.022 93.4452,563.718 " />
<polyline points="99.3791,544.22 99.3791,543.373 100.227,541.677 101.075,540.83 102.77,539.982 106.161,539.982 107.856,540.83 108.704,541.677 109.552,543.373 109.552,545.068 108.704,546.764 107.009,549.307 98.5314,557.784 110.399,557.784 " />
<polyline points="125.658,539.982 117.181,539.982 116.333,547.611 117.181,546.764 119.724,545.916 122.267,545.916 124.81,546.764 126.506,548.459 127.354,551.002 127.354,552.697 126.506,555.241 124.81,556.936 122.267,557.784 119.724,557.784 117.181,556.936 116.333,556.088 115.486,554.393 " />
<polyline points="133.288,545.916 133.288,557.784 " />
<polyline points="133.288,549.307 135.831,546.764 137.526,545.916 140.069,545.916 141.765,546.764 142.612,549.307 142.612,557.784 " />
<polyline points="142.612,549.307 145.155,546.764 146.851,545.916 149.394,545.916 151.089,546.764 151.937,549.307 151.937,557.784 " />
<polyline points="158.719,545.916 158.719,557.784 " />
<polyline points="158.719,549.307 161.262,546.764 162.957,545.916 165.501,545.916 167.196,546.764 168.044,549.307 168.044,557.784 " />
<polyline points="168.044,549.307 170.587,546.764 172.282,545.916 174.825,545.916 176.521,546.764 177.368,549.307 177.368,557.784 " />
<polyline points="183.302,536.591 184.998,538.286 186.693,540.83 188.389,544.22 189.236,548.459 189.236,551.85 188.389,556.088 186.693,559.479 184.998,562.022 183.302,563.718 " />
<polyline points="295.645,182.353 277.843,182.353 " />
<polyline points="142.372,175.671 142.372,174.823 143.22,173.128 144.068,172.28 145.763,171.432 149.154,171.432 150.849,172.28 151.697,173.128 152.545,174.823 152.545,176.519 151.697,178.214 150.002,180.757 141.525,189.234 153.392,189.234 " />
<polyline points="161.022,168.889 160.174,169.737 159.326,168.889 160.174,168.041 161.022,168.889 161.022,170.585 160.174,172.28 159.326,173.128 " />
<polyline points="166.108,168.889 165.26,169.737 164.413,168.889 165.26,168.041 166.108,168.889 166.108,170.585 165.26,172.28 164.413,173.128 " />
<polyline points="177.128,168.041 175.433,169.737 173.737,172.28 172.042,175.671 171.194,179.909 171.194,183.3 172.042,187.539 173.737,190.93 175.433,193.473 177.128,195.168 " />
<polyline points="192.387,171.432 183.91,171.432 183.062,179.062 183.91,178.214 186.453,177.366 188.996,177.366 191.539,178.214 193.235,179.909 194.083,182.452 194.083,184.148 193.235,186.691 191.539,188.386 188.996,189.234 186.453,189.234 183.91,188.386 183.062,187.539 182.215,185.843 " />
<polyline points="204.255,171.432 201.712,172.28 200.017,174.823 199.169,179.062 199.169,181.605 200.017,185.843 201.712,188.386 204.255,189.234 205.95,189.234 208.494,188.386 210.189,185.843 211.037,181.605 211.037,179.062 210.189,174.823 208.494,172.28 205.95,171.432 204.255,171.432 " />
<polyline points="216.971,177.366 216.971,189.234 " />
<polyline points="216.971,180.757 219.514,178.214 221.209,177.366 223.752,177.366 225.448,178.214 226.296,180.757 226.296,189.234 " />
<polyline points="226.296,180.757 228.839,178.214 230.534,177.366 233.077,177.366 234.773,178.214 235.62,180.757 235.62,189.234 " />
<polyline points="242.402,177.366 242.402,189.234 " />
<polyline points="242.402,180.757 244.945,178.214 246.641,177.366 249.184,177.366 250.879,178.214 251.727,180.757 251.727,189.234 " />
<polyline points="251.727,180.757 254.27,178.214 255.965,177.366 258.509,177.366 260.204,178.214 261.052,180.757 261.052,189.234 " />
<polyline points="266.986,168.041 268.681,169.737 270.376,172.28 272.072,175.671 272.92,179.909 272.92,183.3 272.072,187.539 270.376,190.93 268.681,193.473 266.986,195.168 " />
<polyline points="296.438,20.8132 296.438,38.6152 " />
<polyline points="296.438,20.8132 302.372,20.8132 304.915,21.661 306.61,23.3564 307.458,25.0518 308.306,27.5949 308.306,31.8335 307.458,34.3766 306.61,36.072 304.915,37.7675 302.372,38.6152 296.438,38.6152 " />
<polyline points="317.548,31.9394 317.548,45.2909 " />
<polyline points="317.548,38.2973 318.82,37.0257 320.091,36.3899 321.999,36.3899 323.27,37.0257 324.542,38.2973 325.177,40.2046 325.177,41.4762 324.542,43.3835 323.27,44.6551 321.999,45.2909 320.091,45.2909 318.82,44.6551 317.548,43.3835 " />
<polyline points="329.628,35.1184 329.628,34.4826 330.264,33.211 330.899,32.5752 332.171,31.9394 334.714,31.9394 335.986,32.5752 336.622,33.211 337.257,34.4826 337.257,35.7541 336.622,37.0257 335.35,38.9331 328.992,45.2909 337.893,45.2909 " />
<polyline points="518.628,72.6405 518.628,85.992 " />
<polyline points="518.628,78.9984 519.899,77.7268 521.171,77.091 523.078,77.091 524.35,77.7268 525.622,78.9984 526.257,80.9057 526.257,82.1773 525.622,84.0846 524.35,85.3562 523.078,85.992 521.171,85.992 519.899,85.3562 518.628,84.0846 " />
<polyline points="530.708,75.8195 530.708,75.1837 531.344,73.9121 531.979,73.2763 533.251,72.6405 535.794,72.6405 537.066,73.2763 537.701,73.9121 538.337,75.1837 538.337,76.4552 537.701,77.7268 536.43,79.6342 530.072,85.992 538.973,85.992 " />
<polyline points="579.623,117.768 579.623,131.12 " />
<polyline points="579.623,124.126 580.895,122.855 582.166,122.219 584.074,122.219 585.345,122.855 586.617,124.126 587.252,126.033 587.252,127.305 586.617,129.212 585.345,130.484 584.074,131.12 582.166,131.12 580.895,130.484 579.623,129.212 " />
<polyline points="591.703,120.947 591.703,120.311 592.339,119.04 592.974,118.404 594.246,117.768 596.789,117.768 598.061,118.404 598.697,119.04 599.332,120.311 599.332,121.583 598.697,122.855 597.425,124.762 591.067,131.12 599.968,131.12 " />
<polyline points="548.381,576.207 567.263,557.325 " />
<polyline points="567.263,557.325 585.065,557.325 " />
<polyline points="592.547,545.713 592.547,563.515 " />
<polyline points="592.547,545.713 598.481,545.713 601.024,546.561 602.719,548.256 603.567,549.951 604.415,552.495 604.415,556.733 603.567,559.276 602.719,560.972 601.024,562.667 598.481,563.515 592.547,563.515 " />
<polyline points="610.89,556.839 610.89,570.19 " />
<polyline points="610.89,563.197 612.162,561.925 613.434,561.29 615.341,561.29 616.612,561.925 617.884,563.197 618.52,565.104 618.52,566.376 617.884,568.283 616.612,569.555 615.341,570.19 613.434,570.19 612.162,569.555 610.89,568.283 " />
<polyline points="624.242,559.382 625.513,558.746 627.421,556.839 627.421,570.19 " />
<polyline points="578.826,655.749 578.826,669.101 " />
<polyline points="578.826,662.107 580.098,660.835 581.369,660.2 583.277,660.2 584.548,660.835 585.82,662.107 586.456,664.014 586.456,665.286 585.82,667.193 584.548,668.465 583.277,669.101 581.369,669.101 580.098,668.465 578.826,667.193 " />
<polyline points="592.178,658.292 593.449,657.657 595.357,655.749 595.357,669.101 " />
<polyline points="530.488,696.579 530.488,709.931 " />
<polyline points="530.488,702.937 531.76,701.665 533.031,701.03 534.939,701.03 536.21,701.665 537.482,702.937 538.118,704.844 538.118,706.116 537.482,708.023 536.21,709.295 534.939,709.931 533.031,709.931 531.76,709.295 530.488,708.023 " />
<polyline points="543.84,699.122 545.111,698.486 547.018,696.579 547.018,709.931 " />
<polyline points="166.31,278.839 166.31,252.137 " />
<polyline points="166.31,252.137 148.508,252.137 " />
<polyline points="141.703,253.237 140.431,251.965 139.16,251.329 137.253,251.329 135.981,251.965 134.709,253.237 134.074,255.144 134.074,256.416 134.709,258.323 135.981,259.595 137.253,260.23 139.16,260.23 140.431,259.595 141.703,258.323 " />
<polyline points="116.711,237.978 116.711,255.78 " />
<polyline points="116.711,237.978 122.645,237.978 125.188,238.826 126.883,240.521 127.731,242.216 128.579,244.76 128.579,248.998 127.731,251.541 126.883,253.237 125.188,254.932 122.645,255.78 116.711,255.78 " />
<polyline points="73.5715,415.141 72.2999,413.869 71.0283,413.234 69.121,413.234 67.8494,413.869 66.5779,415.141 65.9421,417.048 65.9421,418.32 66.5779,420.227 67.8494,421.499 69.121,422.135 71.0283,422.135 72.2999,421.499 73.5715,420.227 " />
<polyline points="73.6619,370.013 72.3903,368.742 71.1188,368.106 69.2114,368.106 67.9399,368.742 66.6683,370.013 66.0325,371.921 66.0325,373.192 66.6683,375.099 67.9399,376.371 69.2114,377.007 71.1188,377.007 72.3903,376.371 73.6619,375.099 " />
<polyline points="744.49,417.29 743.854,416.018 741.947,415.383 740.04,415.383 738.132,416.018 737.497,417.29 738.132,418.561 739.404,419.197 742.583,419.833 743.854,420.469 744.49,421.74 744.49,422.376 743.854,423.648 741.947,424.283 740.04,424.283 738.132,423.648 737.497,422.376 " />
<polyline points="742.249,363.566 741.614,362.295 739.706,361.659 737.799,361.659 735.892,362.295 735.256,363.566 735.892,364.838 737.163,365.474 740.342,366.109 741.614,366.745 742.249,368.017 742.249,368.653 741.614,369.924 739.706,370.56 737.799,370.56 735.892,369.924 735.256,368.653 " />
<polyline points="633.278,314.443 633.278,287.74 " />
<polyline points="633.278,287.74 651.08,287.74 " />
<polyline points="658.562,276.128 658.562,293.93 " />
<polyline points="658.562,276.128 664.496,276.128 667.039,276.976 668.734,278.671 669.582,280.366 670.43,282.91 670.43,287.148 669.582,289.691 668.734,291.387 667.039,293.082 664.496,293.93 658.562,293.93 " />
<polyline points="683.236,291.387 682.6,290.115 680.693,289.479 678.786,289.479 676.878,290.115 676.242,291.387 676.878,292.658 678.15,293.294 681.329,293.93 682.6,294.566 683.236,295.837 683.236,296.473 682.6,297.744 680.693,298.38 678.786,298.38 676.878,297.744 676.242,296.473 " />
<polyline points="482.438,269.222 482.438,259.013 " />
<polyline points="553.646,303.157 553.646,259.013 " />
<polyline points="499.75,263.822 536.334,263.822 " />
</g>
<g clip-path="url(#clipId0)" fill="rgb(0,0,0)" stroke="rgb(0,0,0)" stroke-width="0.25" >
<path d="M499.75,260.937 499.75,266.707 482.438,263.822 482.438,263.822 z" />
<path d="M536.334,260.937 536.334,266.707 553.646,263.822 553.646,263.822 z" />
</g>
<g clip-path="url(#clipId0)" fill="none" stroke="rgb(0,0,0)" stroke-width="0.25" >
<polyline points="512.918,264.202 664.734,182.083 " />
<polyline points="719.945,172.077 719.945,189.879 " />
<polyline points="719.945,172.077 725.879,172.077 728.422,172.924 730.118,174.62 730.966,176.315 731.813,178.858 731.813,183.097 730.966,185.64 730.118,187.336 728.422,189.031 725.879,189.879 719.945,189.879 " />
<polyline points="755.549,182.249 770.808,182.249 " />
<polyline points="777.59,172.077 777.59,189.879 " />
<polyline points="777.59,172.077 783.524,172.077 786.067,172.924 787.762,174.62 788.61,176.315 789.458,178.858 789.458,183.097 788.61,185.64 787.762,187.336 786.067,189.031 783.524,189.879 777.59,189.879 " />
<polyline points="749.534,203.955 747.838,205.65 746.143,208.193 744.447,211.584 743.6,215.823 743.6,219.214 744.447,223.452 746.143,226.843 747.838,229.386 749.534,231.082 " />
<polyline points="757.163,210.737 758.858,209.889 761.402,207.346 761.402,225.148 " />
<polyline points="774.117,204.803 773.27,205.65 772.422,204.803 773.27,203.955 774.117,204.803 774.117,206.498 773.27,208.193 772.422,209.041 " />
<polyline points="779.203,204.803 778.356,205.65 777.508,204.803 778.356,203.955 779.203,204.803 779.203,206.498 778.356,208.193 777.508,209.041 " />
<polyline points="790.224,203.955 788.528,205.65 786.833,208.193 785.137,211.584 784.29,215.823 784.29,219.214 785.137,223.452 786.833,226.843 788.528,229.386 790.224,231.082 " />
<polyline points="796.158,211.584 796.158,210.737 797.005,209.041 797.853,208.193 799.549,207.346 802.939,207.346 804.635,208.193 805.482,209.041 806.33,210.737 806.33,212.432 805.482,214.127 803.787,216.671 795.31,225.148 807.178,225.148 " />
<polyline points="822.437,207.346 813.96,207.346 813.112,214.975 813.96,214.127 816.503,213.28 819.046,213.28 821.589,214.127 823.284,215.823 824.132,218.366 824.132,220.061 823.284,222.605 821.589,224.3 819.046,225.148 816.503,225.148 813.96,224.3 813.112,223.452 812.264,221.757 " />
<polyline points="830.066,213.28 830.066,225.148 " />
<polyline points="830.066,216.671 832.609,214.127 834.305,213.28 836.848,213.28 838.543,214.127 839.391,216.671 839.391,225.148 " />
<polyline points="839.391,216.671 841.934,214.127 843.629,213.28 846.173,213.28 847.868,214.127 848.716,216.671 848.716,225.148 " />
<polyline points="855.497,213.28 855.497,225.148 " />
<polyline points="855.497,216.671 858.041,214.127 859.736,213.28 862.279,213.28 863.974,214.127 864.822,216.671 864.822,225.148 " />
<polyline points="864.822,216.671 867.365,214.127 869.061,213.28 871.604,213.28 873.299,214.127 874.147,216.671 874.147,225.148 " />
<polyline points="880.081,203.955 881.776,205.65 883.472,208.193 885.167,211.584 886.015,215.823 886.015,219.214 885.167,223.452 883.472,226.843 881.776,229.386 880.081,231.082 " />
<polyline points="910.599,213.28 910.599,225.148 " />
<polyline points="910.599,216.671 913.142,214.127 914.837,213.28 917.38,213.28 919.076,214.127 919.923,216.671 919.923,225.148 " />
<polyline points="919.923,216.671 922.466,214.127 924.162,213.28 926.705,213.28 928.4,214.127 929.248,216.671 929.248,225.148 " />
<polyline points="935.182,208.193 936.03,209.041 936.878,208.193 936.03,207.346 935.182,208.193 " />
<polyline points="936.03,214.127 936.03,225.148 " />
<polyline points="942.812,213.28 942.812,225.148 " />
<polyline points="942.812,216.671 945.355,214.127 947.05,213.28 949.593,213.28 951.289,214.127 952.136,216.671 952.136,225.148 " />
<polyline points="959.766,223.452 958.918,224.3 959.766,225.148 960.613,224.3 959.766,223.452 " />
<polyline points="988.588,213.28 986.892,214.127 985.197,215.823 984.349,218.366 984.349,220.061 985.197,222.605 986.892,224.3 988.588,225.148 991.131,225.148 992.826,224.3 994.522,222.605 995.37,220.061 995.37,218.366 994.522,215.823 992.826,214.127 991.131,213.28 988.588,213.28 " />
<polyline points="1001.3,213.28 1001.3,225.148 " />
<polyline points="1001.3,218.366 1002.15,215.823 1003.85,214.127 1005.54,213.28 1008.09,213.28 " />
<polyline points="756.732,239.559 758.428,238.711 760.971,236.168 760.971,253.97 " />
<polyline points="771.991,240.406 771.991,239.559 772.839,237.863 773.687,237.016 775.382,236.168 778.773,236.168 780.468,237.016 781.316,237.863 782.164,239.559 782.164,241.254 781.316,242.95 779.621,245.493 771.144,253.97 783.012,253.97 " />
<polyline points="790.641,233.625 789.793,234.472 788.945,233.625 789.793,232.777 790.641,233.625 790.641,235.32 789.793,237.016 788.945,237.863 " />
<polyline points="795.727,233.625 794.879,234.472 794.032,233.625 794.879,232.777 795.727,233.625 795.727,235.32 794.879,237.016 794.032,237.863 " />
<polyline points="806.747,232.777 805.052,234.472 803.357,237.016 801.661,240.406 800.813,244.645 800.813,248.036 801.661,252.274 803.357,255.665 805.052,258.208 806.747,259.904 " />
<polyline points="813.529,236.168 822.854,236.168 817.768,242.95 820.311,242.95 822.006,243.797 822.854,244.645 823.702,247.188 823.702,248.884 822.854,251.427 821.158,253.122 818.615,253.97 816.072,253.97 813.529,253.122 812.681,252.274 811.834,250.579 " />
<polyline points="833.874,236.168 831.331,237.016 829.636,239.559 828.788,243.797 828.788,246.34 829.636,250.579 831.331,253.122 833.874,253.97 835.57,253.97 838.113,253.122 839.808,250.579 840.656,246.34 840.656,243.797 839.808,239.559 838.113,237.016 835.57,236.168 833.874,236.168 " />
<polyline points="850.828,236.168 848.285,237.016 846.59,239.559 845.742,243.797 845.742,246.34 846.59,250.579 848.285,253.122 850.828,253.97 852.524,253.97 855.067,253.122 856.762,250.579 857.61,246.34 857.61,243.797 856.762,239.559 855.067,237.016 852.524,236.168 850.828,236.168 " />
<polyline points="863.544,242.102 863.544,253.97 " />
<polyline points="863.544,245.493 866.087,242.95 867.783,242.102 870.326,242.102 872.021,242.95 872.869,245.493 872.869,253.97 " />
<polyline points="872.869,245.493 875.412,242.95 877.107,242.102 879.65,242.102 881.346,242.95 882.194,245.493 882.194,253.97 " />
<polyline points="888.975,242.102 888.975,253.97 " />
<polyline points="888.975,245.493 891.518,242.95 893.214,242.102 895.757,242.102 897.452,242.95 898.3,245.493 898.3,253.97 " />
<polyline points="898.3,245.493 900.843,242.95 902.539,242.102 905.082,242.102 906.777,242.95 907.625,245.493 907.625,253.97 " />
<polyline points="913.559,232.777 915.254,234.472 916.95,237.016 918.645,240.406 919.493,244.645 919.493,248.036 918.645,252.274 916.95,255.665 915.254,258.208 913.559,259.904 " />
<polyline points="944.076,242.102 944.076,253.97 " />
<polyline points="944.076,245.493 946.62,242.95 948.315,242.102 950.858,242.102 952.554,242.95 953.401,245.493 953.401,253.97 " />
<polyline points="953.401,245.493 955.944,242.95 957.64,242.102 960.183,242.102 961.878,242.95 962.726,245.493 962.726,253.97 " />
<polyline points="978.833,242.102 978.833,253.97 " />
<polyline points="978.833,244.645 977.137,242.95 975.442,242.102 972.899,242.102 971.203,242.95 969.508,244.645 968.66,247.188 968.66,248.884 969.508,251.427 971.203,253.122 972.899,253.97 975.442,253.97 977.137,253.122 978.833,251.427 " />
<polyline points="984.767,242.102 994.091,253.97 " />
<polyline points="994.091,242.102 984.767,253.97 " />
<polyline points="1000.87,252.274 1000.03,253.122 1000.87,253.97 1001.72,253.122 1000.87,252.274 " />
<polyline points="1007.65,232.777 1009.35,234.472 1011.05,237.016 1012.74,240.406 1013.59,244.645 1013.59,248.036 1012.74,252.274 1011.05,255.665 1009.35,258.208 1007.65,259.904 " />
<polyline points="744.668,187.473 743.396,186.201 742.125,185.565 740.217,185.565 738.946,186.201 737.674,187.473 737.039,189.38 737.039,190.652 737.674,192.559 738.946,193.831 740.217,194.466 742.125,194.466 743.396,193.831 744.668,192.559 " />
<polyline points="802.623,187.473 801.987,186.201 800.079,185.565 798.172,185.565 796.265,186.201 795.629,187.473 796.265,188.744 797.536,189.38 800.715,190.016 801.987,190.652 802.623,191.923 802.623,192.559 801.987,193.831 800.079,194.466 798.172,194.466 796.265,193.831 795.629,192.559 " />
<polyline points="615.909,492.837 617.605,491.989 620.148,489.446 620.148,507.248 " />
<polyline points="632.863,486.903 632.016,487.75 631.168,486.903 632.016,486.055 632.863,486.903 632.863,488.598 632.016,490.294 631.168,491.141 " />
<polyline points="637.95,486.903 637.102,487.75 636.254,486.903 637.102,486.055 637.95,486.903 637.95,488.598 637.102,490.294 636.254,491.141 " />
<polyline points="648.97,486.055 647.274,487.75 645.579,490.294 643.884,493.684 643.036,497.923 643.036,501.314 643.884,505.552 645.579,508.943 647.274,511.486 648.97,513.182 " />
<polyline points="654.904,493.684 654.904,492.837 655.752,491.141 656.599,490.294 658.295,489.446 661.685,489.446 663.381,490.294 664.229,491.141 665.076,492.837 665.076,494.532 664.229,496.227 662.533,498.771 654.056,507.248 665.924,507.248 " />
<polyline points="681.183,489.446 672.706,489.446 671.858,497.075 672.706,496.227 675.249,495.38 677.792,495.38 680.335,496.227 682.031,497.923 682.878,500.466 682.878,502.161 682.031,504.705 680.335,506.4 677.792,507.248 675.249,507.248 672.706,506.4 671.858,505.552 671.01,503.857 " />
<polyline points="688.812,495.38 688.812,507.248 " />
<polyline points="688.812,498.771 691.355,496.227 693.051,495.38 695.594,495.38 697.289,496.227 698.137,498.771 698.137,507.248 " />
<polyline points="698.137,498.771 700.68,496.227 702.376,495.38 704.919,495.38 706.614,496.227 707.462,498.771 707.462,507.248 " />
<polyline points="714.244,495.38 714.244,507.248 " />
<polyline points="714.244,498.771 716.787,496.227 718.482,495.38 721.025,495.38 722.721,496.227 723.568,498.771 723.568,507.248 " />
<polyline points="723.568,498.771 726.111,496.227 727.807,495.38 730.35,495.38 732.045,496.227 732.893,498.771 732.893,507.248 " />
<polyline points="738.827,486.055 740.523,487.75 742.218,490.294 743.913,493.684 744.761,497.923 744.761,501.314 743.913,505.552 742.218,508.943 740.523,511.486 738.827,513.182 " />
<polyline points="421.086,650.317 451.079,680.31 " />
<polyline points="521.789,549.615 551.782,579.607 " />
<polyline points="459.92,664.669 536.14,588.448 " />
</g>
<g clip-path="url(#clipId0)" fill="rgb(0,0,0)" stroke="rgb(0,0,0)" stroke-width="0.25" >
<path d="M461.96,666.709 457.88,662.628 447.678,676.91 447.678,676.91 z" />
<path d="M538.18,590.489 534.1,586.408 548.381,576.207 548.381,576.207 z" />
</g>
<g clip-path="url(#clipId0)" fill="none" stroke="rgb(0,0,0)" stroke-width="0.1" >
<polyline points="414.285,643.517 414.285,643.517 " />
<polyline points="514.988,542.814 514.988,542.814 " />
<polyline points="548.381,576.207 548.381,576.207 " />
</g>
<g clip-path="url(#clipId0)" fill="none" stroke="rgb(0,0,0)" stroke-width="0.25" >
<polyline points="598.868,314.443 638.087,314.443 " />
<polyline points="598.868,456.859 638.087,456.859 " />
<polyline points="633.278,331.755 633.278,439.547 " />
</g>
<g clip-path="url(#clipId0)" fill="rgb(0,0,0)" stroke="rgb(0,0,0)" stroke-width="0.25" >
<path d="M636.163,331.755 630.393,331.755 633.278,314.443 633.278,314.443 z" />
<path d="M636.163,439.547 630.393,439.547 633.278,456.859 633.278,456.859 z" />
</g>
<g clip-path="url(#clipId0)" fill="none" stroke="rgb(0,0,0)" stroke-width="0.1" >
<polyline points="589.25,314.443 589.25,314.443 " />
<polyline points="589.25,456.859 589.25,456.859 " />
<polyline points="633.278,456.859 633.278,456.859 " />
</g>
<g clip-path="url(#clipId0)" fill="none" stroke="rgb(0,0,0)" stroke-width="0.25" >
<polyline points="421.086,120.984 451.079,90.9914 " />
<polyline points="521.789,221.687 551.782,191.694 " />
<polyline points="459.92,106.633 536.14,182.853 " />
</g>
<g clip-path="url(#clipId0)" fill="rgb(0,0,0)" stroke="rgb(0,0,0)" stroke-width="0.25" >
<path d="M457.88,108.673 461.96,104.593 447.678,94.3918 447.678,94.3918 z" />
<path d="M534.1,184.893 538.18,180.813 548.381,195.095 548.381,195.095 z" />
</g>
<g clip-path="url(#clipId0)" fill="none" stroke="rgb(0,0,0)" stroke-width="0.1" >
<polyline points="414.285,127.785 414.285,127.785 " />
<polyline points="514.988,228.488 514.988,228.488 " />
<polyline points="548.381,195.095 548.381,195.095 " />
</g>
<g clip-path="url(#clipId0)" fill="none" stroke="rgb(0,0,0)" stroke-width="0.25" >
<polyline points="200.207,278.839 161.501,278.839 " />
<polyline points="200.207,492.462 161.501,492.462 " />
<polyline points="166.31,296.151 166.31,475.15 " />
</g>
<g clip-path="url(#clipId0)" fill="rgb(0,0,0)" stroke="rgb(0,0,0)" stroke-width="0.25" >
<path d="M169.195,296.151 163.424,296.151 166.31,278.839 166.31,278.839 z" />
<path d="M169.195,475.15 163.424,475.15 166.31,492.462 166.31,492.462 z" />
</g>
<g clip-path="url(#clipId0)" fill="none" stroke="rgb(0,0,0)" stroke-width="0.1" >
<polyline points="209.825,278.839 209.825,278.839 " />
<polyline points="209.825,492.462 209.825,492.462 " />
<polyline points="166.31,492.462 166.31,492.462 " />
</g>
<g clip-path="url(#clipId0)" fill="none" stroke="rgb(0,0,0)" stroke-width="0.25" >
<polyline points="263.231,502.08 263.231,555.712 " />
<polyline points="245.429,503.749 245.429,555.712 " />
<polyline points="228.117,550.903 210.805,550.903 " />
<polyline points="280.543,550.903 297.855,550.903 " />
<polyline points="210.805,550.903 200.634,550.903 " />
</g>
<g clip-path="url(#clipId0)" fill="rgb(0,0,0)" stroke="rgb(0,0,0)" stroke-width="0.25" >
<path d="M228.117,553.788 228.117,548.018 245.429,550.903 245.429,550.903 z" />
<path d="M280.543,553.788 280.543,548.018 263.231,550.903 263.231,550.903 z" />
</g>
<g clip-path="url(#clipId0)" fill="none" stroke="rgb(0,0,0)" stroke-width="0.1" >
<polyline points="263.231,492.462 263.231,492.462 " />
<polyline points="245.429,494.131 245.429,494.131 " />
<polyline points="245.429,550.903 245.429,550.903 " />
</g>
<g clip-path="url(#clipId0)" fill="none" stroke="rgb(0,0,0)" stroke-width="0.25" >
<polyline points="457.836,499.263 328.497,628.602 " />
<polyline points="381.129,626.322 353.673,653.777 " />
<polyline points="369.315,662.618 381.556,674.86 " />
<polyline points="319.656,612.96 295.645,588.948 " />
</g>
<g clip-path="url(#clipId0)" fill="rgb(0,0,0)" stroke="rgb(0,0,0)" stroke-width="0.25" >
<path d="M367.274,664.659 371.355,660.578 357.073,650.377 357.073,650.377 z" />
<path d="M317.616,615 321.696,610.92 331.898,625.201 331.898,625.201 z" />
</g>
<g clip-path="url(#clipId0)" fill="none" stroke="rgb(0,0,0)" stroke-width="0.1" >
<polyline points="464.637,492.462 464.637,492.462 " />
<polyline points="387.929,619.521 387.929,619.521 " />
<polyline points="357.073,650.377 357.073,650.377 " />
</g>
<g clip-path="url(#clipId0)" fill="none" stroke="rgb(0,0,0)" stroke-width="0.25" >
<polyline points="464.637,482.845 464.637,464.722 " />
<polyline points="482.438,460.643 482.438,464.722 " />
<polyline points="499.75,469.531 555.769,469.531 " />
<polyline points="447.325,469.531 430.013,469.531 " />
</g>
<g clip-path="url(#clipId0)" fill="rgb(0,0,0)" stroke="rgb(0,0,0)" stroke-width="0.25" >
<path d="M499.75,472.416 499.75,466.645 482.438,469.531 482.438,469.531 z" />
<path d="M447.325,472.416 447.325,466.645 464.637,469.531 464.637,469.531 z" />
</g>
<g clip-path="url(#clipId0)" fill="none" stroke="rgb(0,0,0)" stroke-width="0.1" >
<polyline points="464.637,492.462 464.637,492.462 " />
<polyline points="482.438,470.261 482.438,470.261 " />
<polyline points="482.438,469.531 482.438,469.531 " />
</g>
<g clip-path="url(#clipId0)" fill="none" stroke="rgb(0,0,0)" stroke-width="0.25" >
<polyline points="457.836,272.039 328.497,142.7 " />
<polyline points="381.129,144.98 353.673,117.524 " />
<polyline points="369.315,108.683 381.556,96.442 " />
<polyline points="319.656,158.342 295.645,182.353 " />
<polyline points="381.556,96.442 383.005,94.9933 " />
</g>
<g clip-path="url(#clipId0)" fill="rgb(0,0,0)" stroke="rgb(0,0,0)" stroke-width="0.25" >
<path d="M371.355,110.724 367.274,106.643 357.073,120.925 357.073,120.925 z" />
<path d="M321.696,160.382 317.616,156.302 331.898,146.1 331.898,146.1 z" />
</g>
<g clip-path="url(#clipId0)" fill="none" stroke="rgb(0,0,0)" stroke-width="0.1" >
<polyline points="464.637,278.839 464.637,278.839 " />
<polyline points="387.929,151.781 387.929,151.781 " />
<polyline points="357.073,120.925 357.073,120.925 " />
</g>
<g clip-path="url(#clipId0)" fill="none" stroke="rgb(0,0,0)" stroke-width="0.25" >
<path d="M388.54,368.376  A132.548,132.548 0 0,0 362.264,304.94 " />
</g>
<g clip-path="url(#clipId0)" fill="rgb(0,0,0)" stroke="rgb(0,0,0)" stroke-width="0.25" >
<path d="M385.661,368.564 391.419,368.187 389.67,385.651 389.67,385.651 z" />
<path d="M360.095,306.843 364.433,303.037 350.848,291.925 350.848,291.925 z" />
</g>
<g clip-path="url(#clipId0)" fill="none" stroke="rgb(0,0,0)" stroke-width="0.1" >
<polyline points="282.298,360.475 282.298,360.475 " />
<polyline points="477.224,165.549 477.224,165.549 " />
<polyline points="292.726,385.651 292.726,385.651 " />
<polyline points="607.052,385.651 607.052,385.651 " />
</g>
<g clip-path="url(#clipId0)" fill="none" stroke="rgb(0,0,0)" stroke-width="0.25" >
<path d="M362.264,466.362  A132.548,132.548 0 0,0 388.54,402.926 " />
</g>
<g clip-path="url(#clipId0)" fill="rgb(0,0,0)" stroke="rgb(0,0,0)" stroke-width="0.25" >
<path d="M360.095,464.459 364.433,468.264 350.848,479.376 350.848,479.376 z" />
<path d="M385.661,402.737 391.419,403.114 389.67,385.651 389.67,385.651 z" />
</g>
<g clip-path="url(#clipId0)" fill="none" stroke="rgb(0,0,0)" stroke-width="0.1" >
<polyline points="282.298,410.827 282.298,410.827 " />
<polyline points="477.224,605.753 477.224,605.753 " />
<polyline points="292.726,385.651 292.726,385.651 " />
<polyline points="607.052,385.651 607.052,385.651 " />
</g>
<g clip-path="url(#clipId0)" fill="none" stroke="rgb(0,0,0)" stroke-width="0.25" >
<path d="M263.231,278.839  A167.773,167.773 0 0,0 464.637,278.839 " />
<path d="M464.637,492.462  A171.908,171.908 0 0,0 263.231,492.462 " />
<polyline points="428.394,324.053 427.02,324.74 425.646,326.114 424.959,328.175 424.959,329.549 425.646,331.61 427.02,332.984 428.394,333.671 430.455,333.671 431.829,332.984 433.203,331.61 433.89,329.549 433.89,328.175 433.203,326.114 431.829,324.74 430.455,324.053 428.394,324.053 " />
<polyline points="401.618,327.15 394.748,336.767 405.053,336.767 " />
<polyline points="401.618,327.15 401.618,341.576 " />
<polyline points="416.732,327.15 409.862,327.15 409.175,333.332 409.862,332.645 411.923,331.958 413.984,331.958 416.045,332.645 417.419,334.019 418.106,336.08 418.106,337.454 417.419,339.515 416.045,340.889 413.984,341.576 411.923,341.576 409.862,340.889 409.175,340.202 408.488,338.828 " />
<polyline points="428.394,418.913 427.02,419.6 425.646,420.974 424.959,423.035 424.959,424.409 425.646,426.47 427.02,427.844 428.394,428.531 430.455,428.531 431.829,427.844 433.203,426.47 433.89,424.409 433.89,423.035 433.203,420.974 431.829,419.6 430.455,418.913 428.394,418.913 " />
<polyline points="401.618,422.009 394.748,431.627 405.053,431.627 " />
<polyline points="401.618,422.009 401.618,436.436 " />
<polyline points="416.732,422.009 409.862,422.009 409.175,428.192 409.862,427.505 411.923,426.818 413.984,426.818 416.045,427.505 417.419,428.879 418.106,430.94 418.106,432.314 417.419,434.375 416.045,435.749 413.984,436.436 411.923,436.436 409.862,435.749 409.175,435.062 408.488,433.688 " />
<polyline points="906.151,729.05 904.135,727.035 901.113,726.028 897.082,726.028 894.06,727.035 892.044,729.05 892.044,731.066 893.052,733.081 894.06,734.088 896.075,735.096 902.12,737.111 904.135,738.119 905.143,739.126 906.151,741.141 906.151,744.164 904.135,746.179 901.113,747.187 897.082,747.187 894.06,746.179 892.044,744.164 " />
<polyline points="913.204,726.028 913.204,747.187 " />
<polyline points="913.204,726.028 920.257,726.028 923.279,727.035 925.294,729.05 926.302,731.066 927.31,734.088 927.31,739.126 926.302,742.149 925.294,744.164 923.279,746.179 920.257,747.187 913.204,747.187 " />
<polyline points="945.446,726.028 935.37,726.028 934.363,735.096 935.37,734.088 938.393,733.081 941.416,733.081 944.438,734.088 946.453,736.103 947.461,739.126 947.461,741.141 946.453,744.164 944.438,746.179 941.416,747.187 938.393,747.187 935.37,746.179 934.363,745.172 933.355,743.156 " />
<polyline points="954.514,738.119 972.65,738.119 " />
<polyline points="980.711,731.066 980.711,730.058 981.718,728.043 982.726,727.035 984.741,726.028 988.771,726.028 990.787,727.035 991.794,728.043 992.802,730.058 992.802,732.073 991.794,734.088 989.779,737.111 979.703,747.187 993.809,747.187 " />
<polyline points="1001.87,726.028 1012.95,726.028 1006.91,734.088 1009.93,734.088 1011.95,735.096 1012.95,736.103 1013.96,739.126 1013.96,741.141 1012.95,744.164 1010.94,746.179 1007.92,747.187 1004.89,747.187 1001.87,746.179 1000.86,745.172 999.855,743.156 " />
<polyline points="50.0116,399.163 48.1796,400.079 46.3477,401.911 45.4317,403.743 44.5157,406.491 44.5157,411.071 45.4317,413.819 46.3477,415.651 48.1796,417.483 50.0116,418.399 53.6755,418.399 55.5074,417.483 57.3394,415.651 58.2553,413.819 59.1713,411.071 59.1713,406.491 58.2553,403.743 57.3394,401.911 55.5074,400.079 53.6755,399.163 50.0116,399.163 " />
<polyline points="52.7595,414.735 58.2553,420.231 " />
<polyline points="50.0116,351.887 42.6838,371.122 " />
<polyline points="50.0116,351.887 57.3394,371.122 " />
<polyline points="45.4317,364.71 54.5914,364.71 " />
<polyline points="716.633,345.44 714.801,346.356 712.969,348.188 712.053,350.02 711.137,352.768 711.137,357.348 712.053,360.095 712.969,361.927 714.801,363.759 716.633,364.675 720.297,364.675 722.129,363.759 723.961,361.927 724.877,360.095 725.792,357.348 725.792,352.768 724.877,350.02 723.961,348.188 722.129,346.356 720.297,345.44 716.633,345.44 " />
<polyline points="719.381,361.011 724.877,366.507 " />
<polyline points="720.934,401.312 713.606,420.548 " />
<polyline points="720.934,401.312 728.261,420.548 " />
<polyline points="716.354,414.136 725.513,414.136 " />
<polyline points="501.594,57.4819 499.762,58.3978 497.93,60.2298 497.014,62.0617 496.098,64.8097 496.098,69.3895 497.014,72.1375 497.93,73.9694 499.762,75.8014 501.594,76.7173 505.258,76.7173 507.089,75.8014 508.921,73.9694 509.837,72.1375 510.753,69.3895 510.753,64.8097 509.837,62.0617 508.921,60.2298 507.089,58.3978 505.258,57.4819 501.594,57.4819 " />
<polyline points="504.342,73.0534 509.837,78.5493 " />
<polyline points="561.805,104.759 554.477,123.994 " />
<polyline points="561.805,104.759 569.132,123.994 " />
<polyline points="557.225,117.582 566.384,117.582 " />
<polyline points="559.654,637.696 557.822,638.612 555.99,640.444 555.074,642.276 554.158,645.024 554.158,649.603 555.074,652.351 555.99,654.183 557.822,656.015 559.654,656.931 563.318,656.931 565.15,656.015 566.982,654.183 567.898,652.351 568.814,649.603 568.814,645.024 567.898,642.276 566.982,640.444 565.15,638.612 563.318,637.696 559.654,637.696 " />
<polyline points="562.402,653.267 567.898,658.763 " />
<polyline points="510.195,682.824 502.867,702.059 " />
<polyline points="510.195,682.824 517.523,702.059 " />
<polyline points="505.615,695.647 514.775,695.647 " />
<polyline points="447.678,94.3918 385.83,31.5896 " />
<polyline points="385.83,31.5896 355.725,31.5896 " />
<polyline points="555.769,469.531 600.869,497.91 " />
<polyline points="664.734,182.083 693.336,182.083 " />
</g>
</svg>
