<?xml version="1.0" standalone="no"?>
<svg viewBox="0 0 1024 768" version="1.1" xmlns="http://www.w3.org/2000/svg" xmlns:xlink="http://www.w3.org/1999/xlink" stroke-linecap="round" stroke-linejoin="round" fill-rule="evenodd" xml:space="preserve" >
<defs >
<clipPath id="clipId0" >
<path d="M0,768 1024,768 1024,0 0,0 z" />
</clipPath>
</defs>
<g clip-path="url(#clipId0)" fill="none" stroke="rgb(0,0,0)" stroke-width="0.1" />
<g clip-path="url(#clipId0)" fill="none" stroke="rgb(0,0,0)" stroke-width="0.25" >
<polyline points="286.517,314.352 286.517,456.988 " />
<polyline points="286.517,314.352 308.804,314.352 " />
<polyline points="322.176,314.352 360.122,276.406 " />
<polyline points="322.176,456.988 360.122,494.934 " />
<polyline points="452.576,385.67 460.981,377.265 " />
<polyline points="460.981,377.265 360.122,276.406 " />
<polyline points="452.576,385.67 460.981,394.075 " />
<polyline points="460.981,394.075 360.122,494.934 " />
<polyline points="286.517,456.988 308.804,456.988 " />
<polyline points="351.717,385.67 477.791,259.596 " stroke-dasharray="327.079473,65.415895,65.415895,65.415895" />
<polyline points="410.552,259.596 444.171,225.977 " />
<polyline points="477.791,326.836 511.411,293.216 " />
<polyline points="351.717,385.67 477.791,511.744 " stroke-dasharray="327.079473,65.415895,65.415895,65.415895" />
<polyline points="477.791,444.504 511.411,478.124 " />
<polyline points="410.552,511.744 444.171,545.363 " />
<polyline points="477.791,326.836 410.552,259.596 " />
<polyline points="477.791,444.504 410.552,511.744 " />
<polyline points="360.122,276.406 410.552,259.596 " />
<polyline points="460.981,377.265 477.791,326.836 " />
<polyline points="460.981,394.075 477.791,444.504 " />
<polyline points="360.122,494.934 410.552,511.744 " />
<polyline points="511.411,293.216 444.171,225.977 " />
<polyline points="511.411,478.124 444.171,545.363 " />
<polyline points="274.631,385.67 351.717,385.67 " stroke-dasharray="327.079473,65.415895,65.415895,65.415895" />
<polyline points="351.717,385.67 452.576,385.67 " />
<polyline points="322.176,314.352 351.717,385.67 " />
<polyline points="351.717,385.67 322.176,456.988 " />
<polyline points="472.023,177.652 567.114,196.567 " />
<polyline points="457.546,212.602 538.16,266.467 " />
<polyline points="472.023,134.965 472.023,157.252 " />
<polyline points="567.114,134.965 567.114,157.252 " />
<polyline points="444.171,225.977 457.546,212.602 " />
<polyline points="511.411,293.216 538.16,266.467 " />
<polyline points="472.023,177.652 457.546,212.602 " />
<polyline points="567.114,196.567 538.16,266.467 " />
<polyline points="472.023,134.965 567.114,134.965 " />
<polyline points="472.023,157.252 567.114,157.252 " />
<polyline points="472.023,160.223 567.114,160.223 " />
<path d="M472.023,157.252  A1.5477,1.5477 0 0,0 472.023,160.223 " />
<polyline points="472.023,160.223 472.023,177.652 " />
<path d="M567.114,160.223  A1.5477,1.5477 0 0,0 567.114,157.252 " />
<polyline points="567.114,160.223 567.114,196.567 " />
<path d="M567.114,614.089  A1.5477,1.5477 0 0,0 567.114,611.117 " />
<polyline points="472.023,611.117 472.023,593.688 " />
<path d="M472.023,611.117  A1.5477,1.5477 0 0,0 472.023,614.089 " />
<polyline points="472.023,611.117 567.114,611.117 " />
<polyline points="472.023,614.089 567.114,614.089 " />
<polyline points="472.023,636.376 567.114,636.376 " />
<polyline points="567.114,636.376 567.114,614.089 " />
<polyline points="472.023,636.376 472.023,614.089 " />
<polyline points="567.114,611.117 567.114,574.773 " />
<polyline points="472.023,593.688 567.114,574.773 " />
<polyline points="567.114,574.773 538.16,504.874 " />
<polyline points="472.023,593.688 457.546,558.738 " />
<polyline points="457.546,558.738 538.16,504.874 " />
<polyline points="444.171,545.363 457.546,558.738 " />
<polyline points="511.411,478.124 538.16,504.874 " />
<polyline points="311.776,314.352 311.776,456.988 " />
<polyline points="308.804,314.352 308.804,456.988 " />
<path d="M311.776,314.352  A1.5477,1.5477 0 0,0 308.804,314.352 " />
<polyline points="311.776,314.352 322.176,314.352 " />
<path d="M308.804,456.988  A1.5477,1.5477 0 0,0 311.776,456.988 " />
<polyline points="311.776,456.988 322.176,456.988 " />
<path d="M519.568,612.603  A142.636,142.636 0 0,0 477.791,511.744 " stroke-dasharray="327.079473,65.415895,65.415895,65.415895" />
<polyline points="519.568,612.603 519.568,648.262 " stroke-dasharray="327.079473,65.415895,65.415895,65.415895" />
<polyline points="519.568,158.737 519.568,123.078 " stroke-dasharray="327.079473,65.415895,65.415895,65.415895" />
<path d="M477.791,259.596  A142.636,142.636 0 0,0 519.568,158.737 " stroke-dasharray="327.079473,65.415895,65.415895,65.415895" />
</g>
<g clip-path="url(#clipId0)" fill="rgb(0,0,0)" stroke="rgb(0,0,0)" stroke-width="0.25" >
<path d="M225.623,382.817 225.623,388.523 242.74,385.67 242.74,385.67 z" />
</g>
<g clip-path="url(#clipId0)" fill="none" stroke="rgb(0,0,0)" stroke-width="0.25" >
<polyline points="225.623,385.67 156.515,385.67 " />
<polyline points="254.626,314.352 254.626,296.522 " />
<polyline points="254.626,296.522 242.74,296.522 " />
<polyline points="567.114,104.455 584.943,104.455 " />
<polyline points="567.114,666.885 584.943,666.885 " />
</g>
<g clip-path="url(#clipId0)" fill="rgb(0,0,0)" stroke="rgb(0,0,0)" stroke-width="0.25" >
<path d="M522.421,743.354 516.716,743.354 519.568,760.471 519.568,760.471 z" />
</g>
<g clip-path="url(#clipId0)" fill="none" stroke="rgb(0,0,0)" stroke-width="0.25" >
<polyline points="519.568,743.354 519.568,686.651 " />
<polyline points="519.568,24.6458 519.568,80.7499 " />
</g>
<g clip-path="url(#clipId0)" fill="rgb(0,0,0)" stroke="rgb(0,0,0)" stroke-width="0.25" >
<path d="M522.421,24.6458 516.716,24.6458 519.568,7.52941 519.568,7.52941 z" />
</g>
<g clip-path="url(#clipId0)" fill="none" stroke="rgb(0,0,0)" stroke-width="0.25" >
<polyline points="186.839,493.274 187.971,492.708 189.669,491.009 189.669,502.896 " />
<polyline points="198.159,489.311 197.593,489.877 197.027,489.311 197.593,488.745 198.159,489.311 198.159,490.443 197.593,491.575 197.027,492.142 " />
<polyline points="201.555,489.311 200.989,489.877 200.423,489.311 200.989,488.745 201.555,489.311 201.555,490.443 200.989,491.575 200.423,492.142 " />
<polyline points="208.913,488.745 207.781,489.877 206.649,491.575 205.517,493.84 204.951,496.67 204.951,498.934 205.517,501.764 206.649,504.028 207.781,505.726 208.913,506.858 " />
<polyline points="212.875,493.84 212.875,493.274 213.441,492.142 214.007,491.575 215.139,491.009 217.404,491.009 218.536,491.575 219.102,492.142 219.668,493.274 219.668,494.406 219.102,495.538 217.97,497.236 212.309,502.896 220.234,502.896 " />
<polyline points="230.422,491.009 224.762,491.009 224.196,496.104 224.762,495.538 226.46,494.972 228.158,494.972 229.856,495.538 230.988,496.67 231.554,498.368 231.554,499.5 230.988,501.198 229.856,502.33 228.158,502.896 226.46,502.896 224.762,502.33 224.196,501.764 223.63,500.632 " />
<polyline points="235.516,494.972 235.516,502.896 " />
<polyline points="235.516,497.236 237.214,495.538 238.346,494.972 240.044,494.972 241.176,495.538 241.742,497.236 241.742,502.896 " />
<polyline points="241.742,497.236 243.44,495.538 244.572,494.972 246.27,494.972 247.402,495.538 247.968,497.236 247.968,502.896 " />
<polyline points="252.497,494.972 252.497,502.896 " />
<polyline points="252.497,497.236 254.195,495.538 255.327,494.972 257.025,494.972 258.157,495.538 258.723,497.236 258.723,502.896 " />
<polyline points="258.723,497.236 260.421,495.538 261.553,494.972 263.251,494.972 264.383,495.538 264.949,497.236 264.949,502.896 " />
<polyline points="268.911,488.745 270.043,489.877 271.175,491.575 272.307,493.84 272.873,496.67 272.873,498.934 272.307,501.764 271.175,504.028 270.043,505.726 268.911,506.858 " />
<polyline points="548.716,354.753 560.602,354.753 " />
<polyline points="549.557,417.428 561.443,417.428 " />
<polyline points="564.627,350.314 565.759,349.748 567.457,348.05 567.457,359.936 " />
<polyline points="575.947,346.351 575.381,346.917 574.815,346.351 575.381,345.785 575.947,346.351 575.947,347.483 575.381,348.616 574.815,349.182 " />
<polyline points="579.343,346.351 578.777,346.917 578.211,346.351 578.777,345.785 579.343,346.351 579.343,347.483 578.777,348.616 578.211,349.182 " />
<polyline points="586.701,345.785 585.569,346.917 584.437,348.616 583.305,350.88 582.739,353.71 582.739,355.974 583.305,358.804 584.437,361.068 585.569,362.766 586.701,363.898 " />
<polyline points="590.663,350.88 590.663,350.314 591.229,349.182 591.795,348.616 592.927,348.05 595.192,348.05 596.324,348.616 596.89,349.182 597.456,350.314 597.456,351.446 596.89,352.578 595.758,354.276 590.097,359.936 598.022,359.936 " />
<polyline points="608.21,348.05 602.55,348.05 601.984,353.144 602.55,352.578 604.248,352.012 605.946,352.012 607.644,352.578 608.776,353.71 609.342,355.408 609.342,356.54 608.776,358.238 607.644,359.37 605.946,359.936 604.248,359.936 602.55,359.37 601.984,358.804 601.418,357.672 " />
<polyline points="613.304,352.012 613.304,359.936 " />
<polyline points="613.304,354.276 615.002,352.578 616.134,352.012 617.832,352.012 618.964,352.578 619.53,354.276 619.53,359.936 " />
<polyline points="619.53,354.276 621.228,352.578 622.36,352.012 624.058,352.012 625.19,352.578 625.756,354.276 625.756,359.936 " />
<polyline points="630.285,352.012 630.285,359.936 " />
<polyline points="630.285,354.276 631.983,352.578 633.115,352.012 634.813,352.012 635.945,352.578 636.511,354.276 636.511,359.936 " />
<polyline points="636.511,354.276 638.209,352.578 639.341,352.012 641.039,352.012 642.171,352.578 642.737,354.276 642.737,359.936 " />
<polyline points="646.699,345.785 647.831,346.917 648.963,348.616 650.095,350.88 650.661,353.71 650.661,355.974 650.095,358.804 648.963,361.068 647.831,362.766 646.699,363.898 " />
<polyline points="564.627,412.224 565.759,411.658 567.457,409.96 567.457,421.847 " />
<polyline points="575.947,408.262 575.381,408.828 574.815,408.262 575.381,407.696 575.947,408.262 575.947,409.394 575.381,410.526 574.815,411.092 " />
<polyline points="579.343,408.262 578.777,408.828 578.211,408.262 578.777,407.696 579.343,408.262 579.343,409.394 578.777,410.526 578.211,411.092 " />
<polyline points="586.701,407.696 585.569,408.828 584.437,410.526 583.305,412.79 582.739,415.621 582.739,417.885 583.305,420.715 584.437,422.979 585.569,424.677 586.701,425.809 " />
<polyline points="590.663,412.79 590.663,412.224 591.229,411.092 591.795,410.526 592.927,409.96 595.192,409.96 596.324,410.526 596.89,411.092 597.456,412.224 597.456,413.356 596.89,414.488 595.758,416.187 590.097,421.847 598.022,421.847 " />
<polyline points="608.21,409.96 602.55,409.96 601.984,415.054 602.55,414.488 604.248,413.922 605.946,413.922 607.644,414.488 608.776,415.621 609.342,417.319 609.342,418.451 608.776,420.149 607.644,421.281 605.946,421.847 604.248,421.847 602.55,421.281 601.984,420.715 601.418,419.583 " />
<polyline points="613.304,413.922 613.304,421.847 " />
<polyline points="613.304,416.187 615.002,414.488 616.134,413.922 617.832,413.922 618.964,414.488 619.53,416.187 619.53,421.847 " />
<polyline points="619.53,416.187 621.228,414.488 622.36,413.922 624.058,413.922 625.19,414.488 625.756,416.187 625.756,421.847 " />
<polyline points="630.285,413.922 630.285,421.847 " />
<polyline points="630.285,416.187 631.983,414.488 633.115,413.922 634.813,413.922 635.945,414.488 636.511,416.187 636.511,421.847 " />
<polyline points="636.511,416.187 638.209,414.488 639.341,413.922 641.039,413.922 642.171,414.488 642.737,416.187 642.737,421.847 " />
<polyline points="646.699,407.696 647.831,408.828 648.963,410.526 650.095,412.79 650.661,415.621 650.661,417.885 650.095,420.715 648.963,422.979 647.831,424.677 646.699,425.809 " />
<polyline points="353.955,270.239 332.015,248.299 " />
<polyline points="404.384,253.429 365.635,214.679 " />
<polyline points="346.2,240.281 357.617,228.864 " />
</g>
<g clip-path="url(#clipId0)" fill="rgb(0,0,0)" stroke="rgb(0,0,0)" stroke-width="0.25" >
<path d="M344.35,238.431 348.05,242.131 335.099,251.383 335.099,251.383 z" />
<path d="M355.767,227.014 359.467,230.715 368.718,217.763 368.718,217.763 z" />
</g>
<g clip-path="url(#clipId0)" fill="none" stroke="rgb(0,0,0)" stroke-width="0.25" >
<polyline points="353.955,501.101 332.015,523.041 " />
<polyline points="404.384,517.911 365.635,556.661 " />
<polyline points="346.2,531.059 357.617,542.476 " />
</g>
<g clip-path="url(#clipId0)" fill="rgb(0,0,0)" stroke="rgb(0,0,0)" stroke-width="0.25" >
<path d="M348.05,529.209 344.35,532.909 335.099,519.958 335.099,519.958 z" />
<path d="M359.467,540.625 355.767,544.326 368.718,553.577 368.718,553.577 z" />
</g>
<g clip-path="url(#clipId0)" fill="none" stroke="rgb(0,0,0)" stroke-width="0.25" >
<polyline points="284.309,211.389 284.309,223.276 " />
<polyline points="284.309,211.389 288.271,211.389 289.969,211.955 291.101,213.087 291.667,214.22 292.233,215.918 292.233,218.748 291.667,220.446 291.101,221.578 289.969,222.71 288.271,223.276 284.309,223.276 " />
<polyline points="308.082,218.182 318.27,218.182 " />
<polyline points="322.798,211.389 322.798,223.276 " />
<polyline points="322.798,211.389 326.76,211.389 328.458,211.955 329.59,213.087 330.156,214.22 330.722,215.918 330.722,218.748 330.156,220.446 329.59,221.578 328.458,222.71 326.76,223.276 322.798,223.276 " />
<polyline points="142.224,231.421 141.092,232.554 139.96,234.252 138.828,236.516 138.262,239.346 138.262,241.61 138.828,244.44 139.96,246.704 141.092,248.402 142.224,249.534 " />
<polyline points="147.319,235.95 148.451,235.384 150.149,233.686 150.149,245.572 " />
<polyline points="158.639,231.988 158.073,232.554 157.507,231.988 158.073,231.421 158.639,231.988 158.639,233.12 158.073,234.252 157.507,234.818 " />
<polyline points="162.035,231.988 161.469,232.554 160.903,231.988 161.469,231.421 162.035,231.988 162.035,233.12 161.469,234.252 160.903,234.818 " />
<polyline points="169.393,231.421 168.261,232.554 167.129,234.252 165.997,236.516 165.431,239.346 165.431,241.61 165.997,244.44 167.129,246.704 168.261,248.402 169.393,249.534 " />
<polyline points="173.355,236.516 173.355,235.95 173.921,234.818 174.487,234.252 175.619,233.686 177.883,233.686 179.015,234.252 179.582,234.818 180.148,235.95 180.148,237.082 179.582,238.214 178.449,239.912 172.789,245.572 180.714,245.572 " />
<polyline points="190.902,233.686 185.242,233.686 184.676,238.78 185.242,238.214 186.94,237.648 188.638,237.648 190.336,238.214 191.468,239.346 192.034,241.044 192.034,242.176 191.468,243.874 190.336,245.006 188.638,245.572 186.94,245.572 185.242,245.006 184.676,244.44 184.11,243.308 " />
<polyline points="195.996,237.648 195.996,245.572 " />
<polyline points="195.996,239.912 197.694,238.214 198.826,237.648 200.524,237.648 201.656,238.214 202.222,239.912 202.222,245.572 " />
<polyline points="202.222,239.912 203.92,238.214 205.052,237.648 206.75,237.648 207.882,238.214 208.448,239.912 208.448,245.572 " />
<polyline points="212.976,237.648 212.976,245.572 " />
<polyline points="212.976,239.912 214.675,238.214 215.807,237.648 217.505,237.648 218.637,238.214 219.203,239.912 219.203,245.572 " />
<polyline points="219.203,239.912 220.901,238.214 222.033,237.648 223.731,237.648 224.863,238.214 225.429,239.912 225.429,245.572 " />
<polyline points="229.391,231.421 230.523,232.554 231.655,234.252 232.787,236.516 233.353,239.346 233.353,241.61 232.787,244.44 231.655,246.704 230.523,248.402 229.391,249.534 " />
<polyline points="249.768,237.648 249.768,245.572 " />
<polyline points="249.768,239.912 251.466,238.214 252.598,237.648 254.296,237.648 255.428,238.214 255.994,239.912 255.994,245.572 " />
<polyline points="255.994,239.912 257.692,238.214 258.824,237.648 260.522,237.648 261.654,238.214 262.22,239.912 262.22,245.572 " />
<polyline points="266.182,234.252 266.748,234.818 267.314,234.252 266.748,233.686 266.182,234.252 " />
<polyline points="266.748,238.214 266.748,245.572 " />
<polyline points="271.276,237.648 271.276,245.572 " />
<polyline points="271.276,239.912 272.974,238.214 274.106,237.648 275.804,237.648 276.936,238.214 277.502,239.912 277.502,245.572 " />
<polyline points="282.597,244.44 282.031,245.006 282.597,245.572 283.163,245.006 282.597,244.44 " />
<polyline points="301.841,237.648 300.709,238.214 299.577,239.346 299.011,241.044 299.011,242.176 299.577,243.874 300.709,245.006 301.841,245.572 303.539,245.572 304.671,245.006 305.803,243.874 306.369,242.176 306.369,241.044 305.803,239.346 304.671,238.214 303.539,237.648 301.841,237.648 " />
<polyline points="310.331,237.648 310.331,245.572 " />
<polyline points="310.331,241.044 310.897,239.346 312.029,238.214 313.161,237.648 314.859,237.648 " />
<polyline points="147.103,255.194 148.235,254.628 149.933,252.93 149.933,264.816 " />
<polyline points="157.291,255.76 157.291,255.194 157.857,254.062 158.423,253.496 159.555,252.93 161.819,252.93 162.951,253.496 163.517,254.062 164.083,255.194 164.083,256.326 163.517,257.458 162.385,259.156 156.725,264.816 164.649,264.816 " />
<polyline points="169.743,251.232 169.177,251.798 168.611,251.232 169.177,250.666 169.743,251.232 169.743,252.364 169.177,253.496 168.611,254.062 " />
<polyline points="173.14,251.232 172.573,251.798 172.007,251.232 172.573,250.666 173.14,251.232 173.14,252.364 172.573,253.496 172.007,254.062 " />
<polyline points="180.498,250.666 179.366,251.798 178.234,253.496 177.102,255.76 176.536,258.59 176.536,260.854 177.102,263.684 178.234,265.949 179.366,267.647 180.498,268.779 " />
<polyline points="185.026,252.93 191.252,252.93 187.856,257.458 189.554,257.458 190.686,258.024 191.252,258.59 191.818,260.288 191.818,261.42 191.252,263.118 190.12,264.25 188.422,264.816 186.724,264.816 185.026,264.25 184.46,263.684 183.894,262.552 " />
<polyline points="198.61,252.93 196.912,253.496 195.78,255.194 195.214,258.024 195.214,259.722 195.78,262.552 196.912,264.25 198.61,264.816 199.742,264.816 201.44,264.25 202.572,262.552 203.138,259.722 203.138,258.024 202.572,255.194 201.44,253.496 199.742,252.93 198.61,252.93 " />
<polyline points="209.931,252.93 208.233,253.496 207.101,255.194 206.534,258.024 206.534,259.722 207.101,262.552 208.233,264.25 209.931,264.816 211.063,264.816 212.761,264.25 213.893,262.552 214.459,259.722 214.459,258.024 213.893,255.194 212.761,253.496 211.063,252.93 209.931,252.93 " />
<polyline points="218.421,256.892 218.421,264.816 " />
<polyline points="218.421,259.156 220.119,257.458 221.251,256.892 222.949,256.892 224.081,257.458 224.647,259.156 224.647,264.816 " />
<polyline points="224.647,259.156 226.345,257.458 227.477,256.892 229.175,256.892 230.307,257.458 230.873,259.156 230.873,264.816 " />
<polyline points="235.401,256.892 235.401,264.816 " />
<polyline points="235.401,259.156 237.099,257.458 238.231,256.892 239.929,256.892 241.061,257.458 241.628,259.156 241.628,264.816 " />
<polyline points="241.628,259.156 243.326,257.458 244.458,256.892 246.156,256.892 247.288,257.458 247.854,259.156 247.854,264.816 " />
<polyline points="251.816,250.666 252.948,251.798 254.08,253.496 255.212,255.76 255.778,258.59 255.778,260.854 255.212,263.684 254.08,265.949 252.948,267.647 251.816,268.779 " />
<polyline points="272.192,256.892 272.192,264.816 " />
<polyline points="272.192,259.156 273.89,257.458 275.022,256.892 276.721,256.892 277.853,257.458 278.419,259.156 278.419,264.816 " />
<polyline points="278.419,259.156 280.117,257.458 281.249,256.892 282.947,256.892 284.079,257.458 284.645,259.156 284.645,264.816 " />
<polyline points="295.399,256.892 295.399,264.816 " />
<polyline points="295.399,258.59 294.267,257.458 293.135,256.892 291.437,256.892 290.305,257.458 289.173,258.59 288.607,260.288 288.607,261.42 289.173,263.118 290.305,264.25 291.437,264.816 293.135,264.816 294.267,264.25 295.399,263.118 " />
<polyline points="299.361,256.892 305.587,264.816 " />
<polyline points="305.587,256.892 299.361,264.816 " />
<polyline points="310.116,263.684 309.55,264.25 310.116,264.816 310.682,264.25 310.116,263.684 " />
<polyline points="314.644,250.666 315.776,251.798 316.908,253.496 318.04,255.76 318.606,258.59 318.606,260.854 318.04,263.684 316.908,265.949 315.776,267.647 314.644,268.779 " />
<polyline points="221.432,289.178 221.432,301.065 " />
<polyline points="221.432,289.178 225.394,289.178 227.092,289.744 228.224,290.876 228.79,292.008 229.356,293.706 229.356,296.536 228.79,298.234 228.224,299.366 227.092,300.498 225.394,301.065 221.432,301.065 " />
<polyline points="238.349,299.862 237.5,299.013 236.651,298.588 235.377,298.588 234.528,299.013 233.679,299.862 233.255,301.135 233.255,301.984 233.679,303.258 234.528,304.107 235.377,304.532 236.651,304.532 237.5,304.107 238.349,303.258 " />
<polyline points="301.226,221.578 300.377,220.729 299.528,220.304 298.254,220.304 297.405,220.729 296.556,221.578 296.132,222.851 296.132,223.7 296.556,224.974 297.405,225.823 298.254,226.247 299.528,226.247 300.377,225.823 301.226,224.974 " />
<polyline points="335.395,218.818 335.395,227.733 " />
<polyline points="335.395,223.064 336.244,222.214 337.093,221.79 338.366,221.79 339.215,222.214 340.064,223.064 340.489,224.337 340.489,225.186 340.064,226.46 339.215,227.309 338.366,227.733 337.093,227.733 336.244,227.309 335.395,226.46 " />
<polyline points="343.46,220.941 343.46,220.516 343.885,219.667 344.31,219.243 345.159,218.818 346.857,218.818 347.706,219.243 348.13,219.667 348.555,220.516 348.555,221.365 348.13,222.214 347.281,223.488 343.036,227.733 348.979,227.733 " />
<polyline points="302.958,549.552 302.109,548.703 301.26,548.279 299.986,548.279 299.137,548.703 298.288,549.552 297.863,550.826 297.863,551.675 298.288,552.949 299.137,553.798 299.986,554.222 301.26,554.222 302.109,553.798 302.958,552.949 " />
<polyline points="286.041,539.364 286.041,551.25 " />
<polyline points="286.041,539.364 290.003,539.364 291.701,539.93 292.833,541.062 293.399,542.194 293.965,543.892 293.965,546.722 293.399,548.42 292.833,549.552 291.701,550.684 290.003,551.25 286.041,551.25 " />
<polyline points="309.813,546.156 320.002,546.156 " />
<polyline points="324.53,539.364 324.53,551.25 " />
<polyline points="324.53,539.364 328.492,539.364 330.19,539.93 331.322,541.062 331.888,542.194 332.454,543.892 332.454,546.722 331.888,548.42 331.322,549.552 330.19,550.684 328.492,551.25 324.53,551.25 " />
<polyline points="336.905,546.793 336.905,555.708 " />
<polyline points="336.905,551.038 337.754,550.189 338.603,549.765 339.877,549.765 340.726,550.189 341.575,551.038 341.999,552.312 341.999,553.161 341.575,554.434 340.726,555.283 339.877,555.708 338.603,555.708 337.754,555.283 336.905,554.434 " />
<polyline points="345.82,548.491 346.669,548.067 347.942,546.793 347.942,555.708 " />
<polyline points="147.103,583.169 148.235,582.603 149.933,580.905 149.933,592.791 " />
<polyline points="157.291,583.735 157.291,583.169 157.857,582.037 158.423,581.471 159.555,580.905 161.819,580.905 162.951,581.471 163.517,582.037 164.083,583.169 164.083,584.301 163.517,585.433 162.385,587.131 156.725,592.791 164.649,592.791 " />
<polyline points="169.743,579.207 169.177,579.773 168.611,579.207 169.177,578.641 169.743,579.207 169.743,580.339 169.177,581.471 168.611,582.037 " />
<polyline points="173.14,579.207 172.573,579.773 172.007,579.207 172.573,578.641 173.14,579.207 173.14,580.339 172.573,581.471 172.007,582.037 " />
<polyline points="180.498,578.641 179.366,579.773 178.234,581.471 177.102,583.735 176.536,586.565 176.536,588.829 177.102,591.659 178.234,593.923 179.366,595.621 180.498,596.753 " />
<polyline points="185.026,580.905 191.252,580.905 187.856,585.433 189.554,585.433 190.686,585.999 191.252,586.565 191.818,588.263 191.818,589.395 191.252,591.093 190.12,592.225 188.422,592.791 186.724,592.791 185.026,592.225 184.46,591.659 183.894,590.527 " />
<polyline points="198.61,580.905 196.912,581.471 195.78,583.169 195.214,585.999 195.214,587.697 195.78,590.527 196.912,592.225 198.61,592.791 199.742,592.791 201.44,592.225 202.572,590.527 203.138,587.697 203.138,585.999 202.572,583.169 201.44,581.471 199.742,580.905 198.61,580.905 " />
<polyline points="209.931,580.905 208.233,581.471 207.101,583.169 206.534,585.999 206.534,587.697 207.101,590.527 208.233,592.225 209.931,592.791 211.063,592.791 212.761,592.225 213.893,590.527 214.459,587.697 214.459,585.999 213.893,583.169 212.761,581.471 211.063,580.905 209.931,580.905 " />
<polyline points="218.421,584.867 218.421,592.791 " />
<polyline points="218.421,587.131 220.119,585.433 221.251,584.867 222.949,584.867 224.081,585.433 224.647,587.131 224.647,592.791 " />
<polyline points="224.647,587.131 226.345,585.433 227.477,584.867 229.175,584.867 230.307,585.433 230.873,587.131 230.873,592.791 " />
<polyline points="235.401,584.867 235.401,592.791 " />
<polyline points="235.401,587.131 237.099,585.433 238.231,584.867 239.929,584.867 241.061,585.433 241.628,587.131 241.628,592.791 " />
<polyline points="241.628,587.131 243.326,585.433 244.458,584.867 246.156,584.867 247.288,585.433 247.854,587.131 247.854,592.791 " />
<polyline points="251.816,578.641 252.948,579.773 254.08,581.471 255.212,583.735 255.778,586.565 255.778,588.829 255.212,591.659 254.08,593.923 252.948,595.621 251.816,596.753 " />
<polyline points="272.192,584.867 272.192,592.791 " />
<polyline points="272.192,587.131 273.89,585.433 275.022,584.867 276.721,584.867 277.853,585.433 278.419,587.131 278.419,592.791 " />
<polyline points="278.419,587.131 280.117,585.433 281.249,584.867 282.947,584.867 284.079,585.433 284.645,587.131 284.645,592.791 " />
<polyline points="295.399,584.867 295.399,592.791 " />
<polyline points="295.399,586.565 294.267,585.433 293.135,584.867 291.437,584.867 290.305,585.433 289.173,586.565 288.607,588.263 288.607,589.395 289.173,591.093 290.305,592.225 291.437,592.791 293.135,592.791 294.267,592.225 295.399,591.093 " />
<polyline points="299.361,584.867 305.587,592.791 " />
<polyline points="305.587,584.867 299.361,592.791 " />
<polyline points="310.116,591.659 309.55,592.225 310.116,592.791 310.682,592.225 310.116,591.659 " />
<polyline points="314.644,578.641 315.776,579.773 316.908,581.471 318.04,583.735 318.606,586.565 318.606,588.829 318.04,591.659 316.908,593.923 315.776,595.621 314.644,596.753 " />
<polyline points="142.224,559.396 141.092,560.528 139.96,562.226 138.828,564.49 138.262,567.32 138.262,569.585 138.828,572.415 139.96,574.679 141.092,576.377 142.224,577.509 " />
<polyline points="147.319,563.924 148.451,563.358 150.149,561.66 150.149,573.547 " />
<polyline points="158.639,559.962 158.073,560.528 157.507,559.962 158.073,559.396 158.639,559.962 158.639,561.094 158.073,562.226 157.507,562.792 " />
<polyline points="162.035,559.962 161.469,560.528 160.903,559.962 161.469,559.396 162.035,559.962 162.035,561.094 161.469,562.226 160.903,562.792 " />
<polyline points="169.393,559.396 168.261,560.528 167.129,562.226 165.997,564.49 165.431,567.32 165.431,569.585 165.997,572.415 167.129,574.679 168.261,576.377 169.393,577.509 " />
<polyline points="173.355,564.49 173.355,563.924 173.921,562.792 174.487,562.226 175.619,561.66 177.883,561.66 179.015,562.226 179.582,562.792 180.148,563.924 180.148,565.056 179.582,566.188 178.449,567.886 172.789,573.547 180.714,573.547 " />
<polyline points="190.902,561.66 185.242,561.66 184.676,566.754 185.242,566.188 186.94,565.622 188.638,565.622 190.336,566.188 191.468,567.32 192.034,569.018 192.034,570.151 191.468,571.849 190.336,572.981 188.638,573.547 186.94,573.547 185.242,572.981 184.676,572.415 184.11,571.283 " />
<polyline points="195.996,565.622 195.996,573.547 " />
<polyline points="195.996,567.886 197.694,566.188 198.826,565.622 200.524,565.622 201.656,566.188 202.222,567.886 202.222,573.547 " />
<polyline points="202.222,567.886 203.92,566.188 205.052,565.622 206.75,565.622 207.882,566.188 208.448,567.886 208.448,573.547 " />
<polyline points="212.976,565.622 212.976,573.547 " />
<polyline points="212.976,567.886 214.675,566.188 215.807,565.622 217.505,565.622 218.637,566.188 219.203,567.886 219.203,573.547 " />
<polyline points="219.203,567.886 220.901,566.188 222.033,565.622 223.731,565.622 224.863,566.188 225.429,567.886 225.429,573.547 " />
<polyline points="229.391,559.396 230.523,560.528 231.655,562.226 232.787,564.49 233.353,567.32 233.353,569.585 232.787,572.415 231.655,574.679 230.523,576.377 229.391,577.509 " />
<polyline points="249.768,565.622 249.768,573.547 " />
<polyline points="249.768,567.886 251.466,566.188 252.598,565.622 254.296,565.622 255.428,566.188 255.994,567.886 255.994,573.547 " />
<polyline points="255.994,567.886 257.692,566.188 258.824,565.622 260.522,565.622 261.654,566.188 262.22,567.886 262.22,573.547 " />
<polyline points="266.182,562.226 266.748,562.792 267.314,562.226 266.748,561.66 266.182,562.226 " />
<polyline points="266.748,566.188 266.748,573.547 " />
<polyline points="271.276,565.622 271.276,573.547 " />
<polyline points="271.276,567.886 272.974,566.188 274.106,565.622 275.804,565.622 276.936,566.188 277.502,567.886 277.502,573.547 " />
<polyline points="282.597,572.415 282.031,572.981 282.597,573.547 283.163,572.981 282.597,572.415 " />
<polyline points="301.841,565.622 300.709,566.188 299.577,567.32 299.011,569.018 299.011,570.151 299.577,571.849 300.709,572.981 301.841,573.547 303.539,573.547 304.671,572.981 305.803,571.849 306.369,570.151 306.369,569.018 305.803,567.32 304.671,566.188 303.539,565.622 301.841,565.622 " />
<polyline points="310.331,565.622 310.331,573.547 " />
<polyline points="310.331,569.018 310.897,567.32 312.029,566.188 313.161,565.622 314.859,565.622 " />
<polyline points="208.396,372.916 207.547,372.067 206.698,371.642 205.424,371.642 204.575,372.067 203.726,372.916 203.302,374.189 203.302,375.038 203.726,376.312 204.575,377.161 205.424,377.585 206.698,377.585 207.547,377.161 208.396,376.312 " />
<polyline points="209.127,405.366 208.278,404.517 207.429,404.093 206.155,404.093 205.306,404.517 204.457,405.366 204.032,406.64 204.032,407.489 204.457,408.762 205.306,409.612 206.155,410.036 207.429,410.036 208.278,409.612 209.127,408.762 " />
<polyline points="591.073,95.6281 591.073,107.514 " />
<polyline points="591.073,95.6281 595.036,95.6281 596.734,96.1942 597.866,97.3262 598.432,98.4582 598.998,100.156 598.998,102.986 598.432,104.684 597.866,105.816 596.734,106.948 595.036,107.514 591.073,107.514 " />
<polyline points="604.258,103.553 604.258,112.467 " />
<polyline points="604.258,107.798 605.107,106.949 605.956,106.524 607.229,106.524 608.079,106.949 608.928,107.798 609.352,109.071 609.352,109.92 608.928,111.194 608.079,112.043 607.229,112.467 605.956,112.467 605.107,112.043 604.258,111.194 " />
<polyline points="612.324,105.675 612.324,105.251 612.748,104.402 613.173,103.977 614.022,103.553 615.72,103.553 616.569,103.977 616.993,104.402 617.418,105.251 617.418,106.1 616.993,106.949 616.144,108.222 611.899,112.467 617.842,112.467 " />
<polyline points="556.162,44.2801 556.162,53.1948 " />
<polyline points="556.162,48.5252 557.011,47.6762 557.86,47.2517 559.134,47.2517 559.983,47.6762 560.832,48.5252 561.256,49.7987 561.256,50.6478 560.832,51.9213 559.983,52.7703 559.134,53.1948 557.86,53.1948 557.011,52.7703 556.162,51.9213 " />
<polyline points="564.228,46.4026 564.228,45.9781 564.652,45.1291 565.077,44.7046 565.926,44.2801 567.624,44.2801 568.473,44.7046 568.897,45.1291 569.322,45.9781 569.322,46.8272 568.897,47.6762 568.048,48.9497 563.803,53.1948 569.746,53.1948 " />
<polyline points="492.014,47.451 492.014,56.3658 " />
<polyline points="492.014,51.6961 492.863,50.8471 493.712,50.4226 494.986,50.4226 495.835,50.8471 496.684,51.6961 497.109,52.9697 497.109,53.8187 496.684,55.0922 495.835,55.9413 494.986,56.3658 493.712,56.3658 492.863,55.9413 492.014,55.0922 " />
<polyline points="500.08,49.5736 500.08,49.1491 500.505,48.3 500.929,47.8755 501.778,47.451 503.476,47.451 504.325,47.8755 504.75,48.3 505.174,49.1491 505.174,49.9981 504.75,50.8471 503.901,52.1207 499.656,56.3658 505.599,56.3658 " />
<polyline points="496.028,716.987 496.028,725.902 " />
<polyline points="496.028,721.232 496.877,720.383 497.726,719.958 499,719.958 499.849,720.383 500.698,721.232 501.122,722.505 501.122,723.354 500.698,724.628 499.849,725.477 499,725.902 497.726,725.902 496.877,725.477 496.028,724.628 " />
<polyline points="504.943,718.685 505.792,718.26 507.065,716.987 507.065,725.902 " />
<polyline points="551.179,716.606 551.179,725.521 " />
<polyline points="551.179,720.851 552.028,720.002 552.877,719.577 554.151,719.577 555,720.002 555.849,720.851 556.273,722.125 556.273,722.974 555.849,724.247 555,725.096 554.151,725.521 552.877,725.521 552.028,725.096 551.179,724.247 " />
<polyline points="560.094,718.304 560.943,717.879 562.216,716.606 562.216,725.521 " />
<polyline points="591.073,658.058 591.073,669.944 " />
<polyline points="591.073,658.058 595.036,658.058 596.734,658.624 597.866,659.756 598.432,660.888 598.998,662.586 598.998,665.416 598.432,667.114 597.866,668.246 596.734,669.378 595.036,669.944 591.073,669.944 " />
<polyline points="603.514,665.982 603.514,674.897 " />
<polyline points="603.514,670.228 604.363,669.379 605.212,668.954 606.486,668.954 607.335,669.379 608.184,670.228 608.608,671.501 608.608,672.35 608.184,673.624 607.335,674.473 606.486,674.897 605.212,674.897 604.363,674.473 603.514,673.624 " />
<polyline points="612.429,667.68 613.278,667.256 614.551,665.982 614.551,674.897 " />
<polyline points="472.023,126.242 472.023,100.094 " />
<polyline points="567.114,126.242 567.114,100.094 " />
<polyline points="487.723,104.455 551.414,104.455 " />
</g>
<g clip-path="url(#clipId0)" fill="rgb(0,0,0)" stroke="rgb(0,0,0)" stroke-width="0.25" >
<path d="M487.723,107.072 487.723,101.838 472.023,104.455 472.023,104.455 z" />
<path d="M551.414,107.072 551.414,101.838 567.114,104.455 567.114,104.455 z" />
</g>
<g clip-path="url(#clipId0)" fill="none" stroke="rgb(0,0,0)" stroke-width="0.1" >
<polyline points="472.023,134.965 472.023,134.965 " />
<polyline points="567.114,134.965 567.114,134.965 " />
<polyline points="567.114,104.455 567.114,104.455 " />
</g>
<g clip-path="url(#clipId0)" fill="none" stroke="rgb(0,0,0)" stroke-width="0.25" >
<polyline points="472.023,645.098 472.023,671.246 " />
<polyline points="567.114,645.098 567.114,671.246 " />
<polyline points="487.723,666.885 551.414,666.885 " />
</g>
<g clip-path="url(#clipId0)" fill="rgb(0,0,0)" stroke="rgb(0,0,0)" stroke-width="0.25" >
<path d="M487.723,669.502 487.723,664.268 472.023,666.885 472.023,666.885 z" />
<path d="M551.414,669.502 551.414,664.268 567.114,666.885 567.114,666.885 z" />
</g>
<g clip-path="url(#clipId0)" fill="none" stroke="rgb(0,0,0)" stroke-width="0.1" >
<polyline points="472.023,636.376 472.023,636.376 " />
<polyline points="567.114,636.376 567.114,636.376 " />
<polyline points="567.114,666.885 567.114,666.885 " />
</g>
<g clip-path="url(#clipId0)" fill="none" stroke="rgb(0,0,0)" stroke-width="0.25" >
<polyline points="277.795,314.352 250.265,314.352 " />
<polyline points="277.795,456.988 250.265,456.988 " />
<polyline points="254.626,330.052 254.626,441.288 " />
</g>
<g clip-path="url(#clipId0)" fill="rgb(0,0,0)" stroke="rgb(0,0,0)" stroke-width="0.25" >
<path d="M257.243,330.052 252.009,330.052 254.626,314.352 254.626,314.352 z" />
<path d="M257.243,441.288 252.009,441.288 254.626,456.988 254.626,456.988 z" />
</g>
<g clip-path="url(#clipId0)" fill="none" stroke="rgb(0,0,0)" stroke-width="0.1" >
<polyline points="286.517,314.352 286.517,314.352 " />
<polyline points="286.517,456.988 286.517,456.988 " />
<polyline points="254.626,456.988 254.626,456.988 " />
</g>
<g clip-path="url(#clipId0)" fill="none" stroke="rgb(0,0,0)" stroke-width="0.25" >
<polyline points="467.149,400.242 520.029,453.123 " />
<polyline points="467.149,383.433 528.434,444.718 " />
<polyline points="536.452,430.533 547.553,419.431 " />
<polyline points="505.844,461.141 494.743,472.242 " />
<polyline points="547.553,419.431 549.557,417.428 " />
</g>
<g clip-path="url(#clipId0)" fill="rgb(0,0,0)" stroke="rgb(0,0,0)" stroke-width="0.25" >
<path d="M538.302,432.383 534.602,428.683 525.35,441.634 525.35,441.634 z" />
<path d="M507.694,462.991 503.994,459.29 516.946,450.039 516.946,450.039 z" />
</g>
<g clip-path="url(#clipId0)" fill="none" stroke="rgb(0,0,0)" stroke-width="0.1" >
<polyline points="460.981,394.075 460.981,394.075 " />
<polyline points="460.981,377.265 460.981,377.265 " />
<polyline points="525.35,441.634 525.35,441.634 " />
</g>
<g clip-path="url(#clipId0)" fill="none" stroke="rgb(0,0,0)" stroke-width="0.25" >
<polyline points="467.149,371.098 519.189,319.058 " />
<polyline points="467.149,387.908 527.593,327.463 " />
<polyline points="535.611,341.648 546.713,352.749 " />
<polyline points="505.003,311.04 493.902,299.939 " />
<polyline points="546.713,352.749 548.716,354.753 " />
</g>
<g clip-path="url(#clipId0)" fill="rgb(0,0,0)" stroke="rgb(0,0,0)" stroke-width="0.25" >
<path d="M533.761,343.498 537.461,339.798 524.51,330.547 524.51,330.547 z" />
<path d="M503.153,312.89 506.854,309.19 516.105,322.142 516.105,322.142 z" />
</g>
<g clip-path="url(#clipId0)" fill="none" stroke="rgb(0,0,0)" stroke-width="0.1" >
<polyline points="460.981,377.265 460.981,377.265 " />
<polyline points="460.981,394.075 460.981,394.075 " />
<polyline points="524.51,330.547 524.51,330.547 " />
</g>
<g clip-path="url(#clipId0)" fill="none" stroke="rgb(0,0,0)" stroke-width="0.25" >
<polyline points="322.176,465.71 322.176,502.032 " />
<polyline points="310.29,466.825 310.29,502.032 " />
<polyline points="294.59,497.671 278.89,497.671 " />
<polyline points="337.876,497.671 353.576,497.671 " />
</g>
<g clip-path="url(#clipId0)" fill="rgb(0,0,0)" stroke="rgb(0,0,0)" stroke-width="0.25" >
<path d="M294.59,500.288 294.59,495.054 310.29,497.671 310.29,497.671 z" />
<path d="M337.876,500.288 337.876,495.054 322.176,497.671 322.176,497.671 z" />
</g>
<g clip-path="url(#clipId0)" fill="none" stroke="rgb(0,0,0)" stroke-width="0.1" >
<polyline points="322.176,456.988 322.176,456.988 " />
<polyline points="310.29,458.102 310.29,458.102 " />
<polyline points="310.29,497.671 310.29,497.671 " />
</g>
<g clip-path="url(#clipId0)" fill="none" stroke="rgb(0,0,0)" stroke-width="0.25" >
<polyline points="787.967,742.658 786.139,740.83 783.398,739.916 779.743,739.916 777.002,740.83 775.174,742.658 775.174,744.485 776.088,746.313 777.002,747.226 778.829,748.14 784.312,749.968 786.139,750.881 787.053,751.795 787.967,753.623 787.967,756.364 786.139,758.191 783.398,759.105 779.743,759.105 777.002,758.191 775.174,756.364 " />
<polyline points="794.363,739.916 794.363,759.105 " />
<polyline points="794.363,739.916 800.759,739.916 803.501,740.83 805.328,742.658 806.242,744.485 807.156,747.226 807.156,751.795 806.242,754.536 805.328,756.364 803.501,758.191 800.759,759.105 794.363,759.105 " />
<polyline points="823.603,739.916 814.466,739.916 813.552,748.14 814.466,747.226 817.207,746.313 819.948,746.313 822.689,747.226 824.517,749.054 825.43,751.795 825.43,753.623 824.517,756.364 822.689,758.191 819.948,759.105 817.207,759.105 814.466,758.191 813.552,757.278 812.638,755.45 " />
<polyline points="831.827,750.881 848.274,750.881 " />
<polyline points="855.584,744.485 855.584,743.571 856.498,741.744 857.412,740.83 859.239,739.916 862.894,739.916 864.722,740.83 865.635,741.744 866.549,743.571 866.549,745.399 865.635,747.226 863.808,749.968 854.67,759.105 867.463,759.105 " />
<polyline points="873.859,744.485 873.859,743.571 874.773,741.744 875.686,740.83 877.514,739.916 881.169,739.916 882.996,740.83 883.91,741.744 884.824,743.571 884.824,745.399 883.91,747.226 882.083,749.968 872.945,759.105 885.738,759.105 " />
<polyline points="193.319,359.295 191.907,360.001 190.495,361.413 189.789,362.825 189.083,364.943 189.083,368.474 189.789,370.592 190.495,372.004 191.907,373.416 193.319,374.122 196.144,374.122 197.556,373.416 198.968,372.004 199.674,370.592 200.38,368.474 200.38,364.943 199.674,362.825 198.968,361.413 197.556,360.001 196.144,359.295 193.319,359.295 " />
<polyline points="195.438,371.298 199.674,375.535 " />
<polyline points="195.448,391.745 189.8,406.573 " />
<polyline points="195.448,391.745 201.097,406.573 " />
<polyline points="191.918,401.63 198.979,401.63 " />
<polyline points="478.092,33.4856 476.68,34.1917 475.267,35.6038 474.561,37.016 473.855,39.1342 473.855,42.6646 474.561,44.7828 475.267,46.195 476.68,47.6071 478.092,48.3132 480.916,48.3132 482.328,47.6071 483.74,46.195 484.446,44.7828 485.153,42.6646 485.153,39.1342 484.446,37.016 483.74,35.6038 482.328,34.1917 480.916,33.4856 478.092,33.4856 " />
<polyline points="480.21,45.4889 484.446,49.7253 " />
<polyline points="542.082,32.9571 536.433,47.7847 " />
<polyline points="542.082,32.9571 547.731,47.7847 " />
<polyline points="538.552,42.8422 545.612,42.8422 " />
<polyline points="484.244,704.917 482.832,705.623 481.42,707.035 480.713,708.448 480.007,710.566 480.007,714.096 480.713,716.214 481.42,717.627 482.832,719.039 484.244,719.745 487.068,719.745 488.48,719.039 489.892,717.627 490.599,716.214 491.305,714.096 491.305,710.566 490.599,708.448 489.892,707.035 488.48,705.623 487.068,704.917 484.244,704.917 " />
<polyline points="486.362,716.921 490.599,721.157 " />
<polyline points="537.609,704.536 531.96,719.364 " />
<polyline points="537.609,704.536 543.258,719.364 " />
<polyline points="534.079,714.421 541.139,714.421 " />
</g>
</svg>
