<?xml version="1.0" standalone="no"?>
<svg viewBox="0 0 1024 768" version="1.1" xmlns="http://www.w3.org/2000/svg" xmlns:xlink="http://www.w3.org/1999/xlink" stroke-linecap="round" stroke-linejoin="round" fill-rule="evenodd" xml:space="preserve" >
<defs >
<clipPath id="clipId0" >
<path d="M0,768 1024,768 1024,0 0,0 z" />
</clipPath>
</defs>
<g clip-path="url(#clipId0)" fill="none" stroke="rgb(0,0,0)" stroke-width="0.1" />
<g clip-path="url(#clipId0)" fill="none" stroke="rgb(0,0,0)" stroke-width="0.25" >
<polyline points="905.144,255.867 475.361,399.031 " />
<polyline points="722.226,157.401 427.567,255.554 " stroke-dasharray="7.097641,3.548820" />
<path d="M496.786,192.515  A26852.4,26852.4 0 0,0 550.481,280.894 " />
<polyline points="550.481,280.894 498.365,310.88 " />
<polyline points="542.585,165.686 496.786,192.515 " />
<path d="M905.144,255.867  A42.228,42.228 0 0,0 881.247,184.128 " />
<polyline points="989.265,145.752 914.139,174.411 " />
</g>
<g clip-path="url(#clipId0)" fill="rgb(0,0,0)" stroke="rgb(0,0,0)" stroke-width="0.25" >
<path d="M987.969,142.086 990.562,149.417 1011.26,137.973 1011.26,137.973 z" />
</g>
<g clip-path="url(#clipId0)" fill="none" stroke="rgb(0,0,0)" stroke-width="0.25" >
<path d="M881.247,184.128  A42.228,42.228 0 0,0 905.144,255.867 " />
</g>
<g clip-path="url(#clipId0)" fill="rgb(0,0,0)" stroke="rgb(0,0,0)" stroke-width="0.25" >
<path d="M743.618,210.841 742.1,218.468 765.738,219.21 765.738,219.21 z" />
</g>
<g clip-path="url(#clipId0)" fill="none" stroke="rgb(0,0,0)" stroke-width="0.25" >
<polyline points="742.859,214.655 671.203,201.507 " />
<path d="M780.309,225.175  A31.9284,31.9284 0 0,0 792.239,169.464 " />
<path d="M542.585,165.686  A140.729,140.729 0 0,0 583.645,261.956 " />
<path d="M642.078,143.591  A78.0509,78.0509 0 0,0 635.761,252.487 " />
<path d="M687.877,151.482  A74.2406,74.2406 0 0,0 657.871,257.222 " />
<polyline points="768.379,280.886 635.761,252.487 " />
<path d="M780.309,225.175  A31.9284,31.9284 0 0,0 768.379,280.886 " />
<path d="M768.379,280.886  A31.9284,31.9284 0 0,0 780.309,225.175 " />
<polyline points="635.761,252.487 583.645,261.956 " />
<polyline points="583.645,261.956 550.481,280.894 " />
<polyline points="792.239,169.464 642.078,143.591 " />
<polyline points="722.226,157.401 857.351,112.389 " />
<path d="M881.247,184.128  A42.228,42.228 0 0,0 857.351,112.389 " />
<polyline points="642.078,143.591 542.585,165.686 " />
<polyline points="496.786,192.515 446.25,222.501 " />
<polyline points="269.372,310.88 394.134,241.44 " />
<polyline points="463.622,347.179 387.141,397.72 " />
<path d="M394.134,241.44  A331.355,331.355 0 0,0 463.622,347.179 " />
<polyline points="446.25,222.501 394.134,241.44 " />
<polyline points="498.365,310.88 463.622,347.179 " />
<path d="M446.25,222.501  A3573.13,3573.13 0 0,0 498.365,310.88 " />
<path d="M162.415,423.802  A42.228,42.228 0 0,0 186.311,495.541 " />
<polyline points="217.13,325.652 204.623,329.819 " />
</g>
<g clip-path="url(#clipId0)" fill="rgb(0,0,0)" stroke="rgb(0,0,0)" stroke-width="0.25" >
<path d="M97.0773,444.199 99.6703,451.53 120.366,440.085 120.366,440.085 z" />
</g>
<g clip-path="url(#clipId0)" fill="none" stroke="rgb(0,0,0)" stroke-width="0.25" >
<path d="M162.415,423.802  A42.228,42.228 0 0,0 138.518,352.063 " />
<path d="M138.518,352.063  A42.228,42.228 0 0,0 162.415,423.802 " />
<polyline points="199.369,491.191 186.311,495.541 " />
<polyline points="98.3738,447.864 10.0392,480.295 " />
</g>
<g clip-path="url(#clipId0)" fill="none" stroke="rgb(0,0,0)" stroke-width="0.1" >
<polyline points="246.555,343.882 246.555,343.882 " />
<polyline points="278.994,425.878 278.994,425.878 " />
<polyline points="275.178,452.574 275.178,452.574 " />
</g>
<g clip-path="url(#clipId0)" fill="none" stroke="rgb(0,0,0)" stroke-width="0.25" >
<polyline points="217.13,325.652 218.368,326.102 219.804,326.655 221.166,327.197 222.471,327.727 223.726,328.246 224.935,328.759 226.102,329.27 227.232,329.783 228.329,330.303 229.398,330.835 230.442,331.382 231.466,331.948 232.474,332.537 233.47,333.151 234.457,333.792 235.439,334.463 236.42,335.166 237.403,335.904 238.393,336.679 239.391,337.492 240.399,338.342 241.413,339.224 242.434,340.135 243.46,341.07 244.49,342.027 245.522,343.001 246.555,343.988 247.588,344.987 248.617,345.996 249.639,347.018 250.65,348.054 251.646,349.104 252.623,350.171 253.577,351.255 254.506,352.357 255.406,353.48 256.28,354.622 257.131,355.784 257.964,356.966 258.782,358.167 259.589,359.389 260.389,360.63 261.184,361.892 261.979,363.173 262.773,364.474 263.564,365.795 264.351,367.136 265.134,368.496 265.91,369.877 266.679,371.277 267.439,372.697 268.189,374.137 268.925,375.597 269.643,377.077 270.341,378.577 271.014,380.096 271.658,381.636 272.27,383.195 272.845,384.774 273.382,386.373 273.882,387.992 274.347,389.631 274.78,391.289 275.183,392.968 275.558,394.666 275.909,396.384 276.238,398.122 276.546,399.879 276.834,401.651 277.102,403.433 277.351,405.22 277.579,407.007 277.788,408.789 277.977,410.561 278.146,412.318 278.295,414.057 278.424,415.782 278.533,417.5 278.623,419.217 278.692,420.938 278.742,422.671 278.772,424.422 278.782,426.195 278.771,427.996 278.739,429.815 278.681,431.642 278.596,433.465 278.482,435.273 278.335,437.056 278.153,438.8 277.934,440.497 277.675,442.137 277.377,443.73 277.039,445.284 276.662,446.813 276.244,448.327 275.787,449.837 275.29,451.355 274.753,452.891 274.164,454.469 273.458,456.154 272.558,458.025 271.388,460.161 269.869,462.64 267.926,465.539 265.481,468.938 265.474,468.946 " />
<polyline points="217.13,325.652 281.142,304.329 " />
<polyline points="265.474,468.946 475.361,399.031 " />
<polyline points="281.142,304.329 428.805,256.004 " stroke-dasharray="7.097641,3.548820" />
<polyline points="483.568,315.526 483.82,316.275 484.32,317.893 484.785,319.532 485.217,321.191 485.62,322.869 485.996,324.567 486.347,326.286 486.675,328.024 486.983,329.781 487.271,331.553 487.54,333.334 487.788,335.121 488.017,336.908 488.225,338.69 488.414,340.462 488.583,342.219 488.732,343.958 488.861,345.684 488.971,347.402 489.06,349.118 489.13,350.84 489.179,352.573 489.209,354.323 489.219,356.097 489.209,357.898 489.176,359.717 489.119,361.544 489.034,363.367 488.919,365.175 488.772,366.957 488.59,368.702 488.371,370.398 488.113,372.039 487.815,373.631 487.477,375.186 487.099,376.715 486.682,378.229 486.224,379.739 485.728,381.257 485.191,382.793 484.602,384.37 483.896,386.055 482.996,387.927 481.825,390.063 480.307,392.541 478.363,395.441 475.918,398.839 475.912,398.848 " />
<polyline points="477.273,301.471 477.876,302.599 478.626,304.039 479.362,305.499 480.081,306.979 480.778,308.478 481.451,309.998 481.799,310.831 " />
<polyline points="471.19,291.108 471.622,291.793 472.417,293.074 473.21,294.375 474.001,295.696 474.789,297.037 475.007,297.416 " />
<polyline points="463.094,280.111 464.015,281.156 464.943,282.259 465.843,283.381 466.717,284.523 467.569,285.685 468.402,286.867 468.659,287.245 " />
<polyline points="453.529,270.636 453.898,270.972 454.927,271.928 455.959,272.902 456.993,273.89 458.026,274.888 459.055,275.898 460.064,276.907 " />
<polyline points="427.567,255.554 428.805,256.004 430.241,256.556 431.604,257.099 432.909,257.628 434.164,258.148 435.372,258.66 436.54,259.171 437.67,259.685 438.283,259.976 " />
<polyline points="442.405,262.143 442.912,262.439 443.907,263.052 444.894,263.693 445.877,264.364 446.857,265.067 447.841,265.805 448.83,266.58 449.829,267.394 450.245,267.745 " />
</g>
<g clip-path="url(#clipId0)" fill="none" stroke="rgb(0,0,0)" stroke-width="0.1" >
<polyline points="266.629,313.077 266.629,313.077 " />
<polyline points="314.545,393.326 314.545,393.326 " />
<polyline points="375.77,403.08 375.77,403.08 " />
</g>
<g clip-path="url(#clipId0)" fill="none" stroke="rgb(0,0,0)" stroke-width="0.25" >
<polyline points="269.372,310.88 266.629,313.077 " />
<polyline points="266.629,313.077 264.969,315.608 263.627,317.902 262.564,319.992 261.744,321.912 261.13,323.696 260.686,325.375 260.375,326.985 260.159,328.558 260.008,330.121 259.912,331.677 259.87,333.222 259.877,334.751 259.931,336.262 260.029,337.749 260.167,339.21 260.344,340.64 260.555,342.036 260.799,343.397 261.074,344.724 261.379,346.016 261.711,347.273 262.07,348.496 262.453,349.684 262.858,350.837 263.285,351.957 263.738,353.049 264.223,354.121 264.743,355.178 265.306,356.229 265.915,357.28 266.576,358.337 267.294,359.409 268.074,360.499 268.915,361.606 269.817,362.725 270.779,363.852 271.8,364.982 272.878,366.111 274.014,367.235 275.206,368.35 276.454,369.452 277.753,370.54 279.101,371.617 280.493,372.682 281.928,373.737 283.4,374.782 284.908,375.819 286.446,376.848 288.013,377.87 289.607,378.887 291.229,379.9 292.879,380.912 294.557,381.924 296.262,382.937 297.995,383.954 299.756,384.976 301.544,386.004 303.357,387.036 305.193,388.068 307.049,389.096 308.922,390.117 310.809,391.128 312.709,392.125 314.619,393.105 316.535,394.063 318.454,394.998 320.374,395.905 322.29,396.781 324.2,397.622 326.098,398.425 327.983,399.186 329.851,399.903 331.698,400.572 333.523,401.194 335.323,401.771 337.098,402.304 338.844,402.797 340.561,403.249 342.247,403.663 343.9,404.041 345.52,404.384 347.109,404.691 348.672,404.962 350.213,405.196 351.738,405.391 353.249,405.548 354.751,405.664 356.249,405.74 357.746,405.775 359.242,405.769 360.735,405.722 362.225,405.634 363.709,405.507 365.187,405.34 366.656,405.135 368.117,404.891 369.583,404.601 371.128,404.228 372.844,403.727 374.821,403.052 377.149,402.159 379.918,401.003 383.218,399.538 387.141,397.72 " />
<polyline points="265.481,468.938 199.369,491.191 " />
<polyline points="204.623,329.819 138.518,352.063 " />
<polyline points="87.9632,490.642 87.3622,489.44 86.16,488.238 84.9579,487.637 82.5536,487.637 81.3515,488.238 80.1494,489.44 79.5483,490.642 78.9472,492.445 78.9472,495.451 79.5483,497.254 80.1494,498.456 81.3515,499.658 82.5536,500.259 84.9579,500.259 86.16,499.658 87.3622,498.456 87.9632,497.254 " />
<polyline points="61.5313,473.627 53.517,494.664 " />
<polyline points="61.5313,473.627 69.5455,494.664 " />
<polyline points="56.5223,487.652 66.5402,487.652 " />
<polyline points="63.4337,438.193 62.8327,436.99 61.6305,435.788 60.4284,435.187 58.0241,435.187 56.822,435.788 55.6198,436.99 55.0188,438.193 54.4177,439.996 54.4177,443.001 55.0188,444.804 55.6198,446.007 56.822,447.209 58.0241,447.81 60.4284,447.81 61.6305,447.209 62.8327,446.007 63.4337,444.804 " />
<polyline points="37.0018,421.177 34.9982,422.179 32.9946,424.183 31.9928,426.186 30.9911,429.192 30.9911,434.2 31.9928,437.206 32.9946,439.209 34.9982,441.213 37.0018,442.215 41.0089,442.215 43.0124,441.213 45.016,439.209 46.0178,437.206 47.0196,434.2 47.0196,429.192 46.0178,426.186 45.016,424.183 43.0124,422.179 41.0089,421.177 37.0018,421.177 " />
<polyline points="40.0071,438.208 46.0178,444.218 " />
<polyline points="729.891,190.076 729.891,202.699 " />
<polyline points="729.891,196.087 731.093,194.885 732.295,194.284 734.098,194.284 735.3,194.885 736.503,196.087 737.104,197.89 737.104,199.092 736.503,200.895 735.3,202.098 734.098,202.699 732.295,202.699 731.093,202.098 729.891,200.895 " />
<polyline points="713.03,178.249 711.026,179.251 709.023,181.255 708.021,183.258 707.019,186.263 707.019,191.272 708.021,194.278 709.023,196.281 711.026,198.285 713.03,199.287 717.037,199.287 719.041,198.285 721.044,196.281 722.046,194.278 723.048,191.272 723.048,186.263 722.046,183.258 721.044,181.255 719.041,179.251 717.037,178.249 713.03,178.249 " />
<polyline points="716.035,195.279 722.046,201.29 " />
<polyline points="707.963,227.788 707.963,240.411 " />
<polyline points="707.963,233.799 709.165,232.597 710.367,231.996 712.17,231.996 713.373,232.597 714.575,233.799 715.176,235.602 715.176,236.804 714.575,238.608 713.373,239.81 712.17,240.411 710.367,240.411 709.165,239.81 707.963,238.608 " />
<polyline points="691.102,215.961 683.088,236.999 " />
<polyline points="691.102,215.961 699.116,236.999 " />
<polyline points="686.093,229.986 696.111,229.986 " />
<polyline points="958.513,134.49 957.311,133.288 955.508,132.687 953.104,132.687 951.301,133.288 950.099,134.49 950.099,135.693 950.7,136.895 951.301,137.496 952.503,138.097 956.109,139.299 957.311,139.9 957.912,140.501 958.513,141.703 958.513,143.506 957.311,144.709 955.508,145.31 953.104,145.31 951.301,144.709 950.099,143.506 " />
<polyline points="983.043,187.934 981.841,186.732 980.038,186.131 977.633,186.131 975.83,186.732 974.628,187.934 974.628,189.136 975.229,190.338 975.83,190.939 977.032,191.541 980.639,192.743 981.841,193.344 982.442,193.945 983.043,195.147 983.043,196.95 981.841,198.152 980.038,198.753 977.633,198.753 975.83,198.152 974.628,196.95 " />
<polyline points="956.66,172.558 948.646,193.595 " />
<polyline points="956.66,172.558 964.675,193.595 " />
<polyline points="951.651,186.582 961.669,186.582 " />
<polyline points="932.131,119.114 930.127,120.116 928.124,122.119 927.122,124.123 926.12,127.128 926.12,132.137 927.122,135.142 928.124,137.146 930.127,139.15 932.131,140.151 936.138,140.151 938.142,139.15 940.145,137.146 941.147,135.142 942.149,132.137 942.149,127.128 941.147,124.123 940.145,122.119 938.142,120.116 936.138,119.114 932.131,119.114 " />
<polyline points="935.136,136.144 941.147,142.155 " />
</g>
<g clip-path="url(#clipId0)" fill="rgb(0,0,0)" stroke="rgb(0,0,0)" stroke-width="0.25" >
<path d="M341.367,454.065 343.747,451.627 335.245,445.705 335.245,445.705 z" />
</g>
<g clip-path="url(#clipId0)" fill="none" stroke="rgb(0,0,0)" stroke-width="0.25" >
<polyline points="342.557,452.846 403.342,512.21 " />
<polyline points="403.342,512.21 425.985,512.21 " />
<polyline points="425.985,512.21 431.095,512.21 " />
</g>
<g clip-path="url(#clipId0)" fill="rgb(0,0,0)" stroke="rgb(0,0,0)" stroke-width="0.25" >
<path d="M587.254,146.398 585.064,149.008 593.99,154.27 593.99,154.27 z" />
</g>
<g clip-path="url(#clipId0)" fill="none" stroke="rgb(0,0,0)" stroke-width="0.25" >
<polyline points="586.159,147.703 548.633,116.232 " />
<polyline points="548.633,116.232 524.103,116.232 " />
<polyline points="524.103,116.232 518.993,116.232 " />
<polyline points="88.623,110.392 87.8443,108.834 85.5082,108.055 83.9507,108.055 81.6146,108.834 80.0572,111.17 79.2785,115.064 79.2785,118.957 80.0572,122.072 81.6146,123.63 83.9507,124.408 84.7295,124.408 87.0656,123.63 88.623,122.072 89.4017,119.736 89.4017,118.957 88.623,116.621 87.0656,115.064 84.7295,114.285 83.9507,114.285 81.6146,115.064 80.0572,116.621 79.2785,118.957 " />
<polyline points="98.7463,108.055 96.4101,108.834 94.8527,111.17 94.074,115.064 94.074,117.4 94.8527,121.294 96.4101,123.63 98.7463,124.408 100.304,124.408 102.64,123.63 104.197,121.294 104.976,117.4 104.976,115.064 104.197,111.17 102.64,108.834 100.304,108.055 98.7463,108.055 " />
<ellipse rx="1.55743" ry="1.55743" transform="translate(109.648 109.613) rotate(90)" />
<polyline points="133.788,108.055 133.788,124.408 " />
<polyline points="133.788,108.055 143.912,108.055 " />
<polyline points="133.788,115.843 140.018,115.843 " />
<polyline points="133.788,124.408 143.912,124.408 " />
<polyline points="148.584,108.055 148.584,124.408 157.928,124.408 " />
<polyline points="161.822,108.055 161.822,124.408 " />
<polyline points="161.822,108.055 168.83,108.055 171.167,108.834 171.945,109.613 172.724,111.17 172.724,112.728 171.945,114.285 171.167,115.064 168.83,115.843 " />
<polyline points="161.822,115.843 168.83,115.843 171.167,116.621 171.945,117.4 172.724,118.957 172.724,121.294 171.945,122.851 171.167,123.63 168.83,124.408 161.822,124.408 " />
<polyline points="182.069,108.055 180.511,108.834 178.954,110.392 178.175,111.949 177.396,114.285 177.396,118.179 178.175,120.515 178.954,122.072 180.511,123.63 182.069,124.408 185.183,124.408 186.741,123.63 188.298,122.072 189.077,120.515 189.856,118.179 189.856,114.285 189.077,111.949 188.298,110.392 186.741,108.834 185.183,108.055 182.069,108.055 " />
<polyline points="193.749,108.055 197.643,124.408 " />
<polyline points="201.536,108.055 197.643,124.408 " />
<polyline points="201.536,108.055 205.43,124.408 " />
<polyline points="209.323,108.055 205.43,124.408 " />
<polyline points="215.553,123.63 214.774,124.408 213.996,123.63 214.774,122.851 215.553,123.63 215.553,125.187 214.774,126.745 213.996,127.523 " />
<polyline points="238.136,113.506 238.136,124.408 " />
<polyline points="238.136,118.179 238.915,115.843 240.472,114.285 242.029,113.506 244.366,113.506 " />
<polyline points="260.719,104.941 246.702,129.859 " />
<polyline points="265.391,108.055 265.391,124.408 " />
<polyline points="265.391,108.055 270.842,108.055 273.178,108.834 274.735,110.392 275.514,111.949 276.293,114.285 276.293,118.179 275.514,120.515 274.735,122.072 273.178,123.63 270.842,124.408 265.391,124.408 " />
<polyline points="298.097,115.064 312.114,115.064 " />
<polyline points="298.097,119.736 312.114,119.736 " />
<polyline points="336.254,111.17 337.811,110.392 340.147,108.055 340.147,124.408 " />
<polyline points="351.049,122.851 350.27,123.63 351.049,124.408 351.828,123.63 351.049,122.851 " />
<polyline points="366.623,108.055 358.836,108.055 358.058,115.064 358.836,114.285 361.172,113.506 363.509,113.506 365.845,114.285 367.402,115.843 368.181,118.179 368.181,119.736 367.402,122.072 365.845,123.63 363.509,124.408 361.172,124.408 358.836,123.63 358.058,122.851 357.279,121.294 " />
<polyline points="395.436,104.941 393.878,106.498 392.321,108.834 390.764,111.949 389.985,115.843 389.985,118.957 390.764,122.851 392.321,125.966 393.878,128.302 395.436,129.859 " />
<polyline points="411.789,111.949 411.01,110.392 409.453,108.834 407.895,108.055 404.78,108.055 403.223,108.834 401.665,110.392 400.887,111.949 400.108,114.285 400.108,118.179 400.887,120.515 401.665,122.072 403.223,123.63 404.78,124.408 407.895,124.408 409.453,123.63 411.01,122.072 411.789,120.515 " />
<polyline points="417.24,108.055 417.24,124.408 " />
<polyline points="417.24,108.055 422.691,108.055 425.027,108.834 426.584,110.392 427.363,111.949 428.142,114.285 428.142,118.179 427.363,120.515 426.584,122.072 425.027,123.63 422.691,124.408 417.24,124.408 " />
<polyline points="434.371,108.055 442.937,108.055 438.265,114.285 440.601,114.285 442.159,115.064 442.937,115.843 443.716,118.179 443.716,119.736 442.937,122.072 441.38,123.63 439.044,124.408 436.708,124.408 434.371,123.63 433.593,122.851 432.814,121.294 " />
<polyline points="449.167,117.4 463.184,117.4 " />
<polyline points="470.971,111.17 472.528,110.392 474.864,108.055 474.864,124.408 " />
<polyline points="485.766,108.055 494.332,108.055 489.66,114.285 491.996,114.285 493.554,115.064 494.332,115.843 495.111,118.179 495.111,119.736 494.332,122.072 492.775,123.63 490.439,124.408 488.103,124.408 485.766,123.63 484.988,122.851 484.209,121.294 " />
<polyline points="499.783,104.941 501.341,106.498 502.898,108.834 504.456,111.949 505.234,115.843 505.234,118.957 504.456,122.851 502.898,125.966 501.341,128.302 499.783,129.859 " />
<polyline points="712.51,358.962 712.51,375.315 " />
<polyline points="712.51,358.962 719.518,358.962 721.855,359.741 722.633,360.519 723.412,362.077 723.412,363.634 722.633,365.192 721.855,365.97 719.518,366.749 " />
<polyline points="712.51,366.749 719.518,366.749 721.855,367.528 722.633,368.307 723.412,369.864 723.412,372.2 722.633,373.758 721.855,374.536 719.518,375.315 712.51,375.315 " />
<polyline points="728.863,358.962 728.863,375.315 " />
<polyline points="728.863,358.962 735.871,358.962 738.208,359.741 738.986,360.519 739.765,362.077 739.765,363.634 738.986,365.192 738.208,365.97 735.871,366.749 728.863,366.749 " />
<polyline points="734.314,366.749 739.765,375.315 " />
<polyline points="749.11,358.962 742.88,375.315 " />
<polyline points="749.11,358.962 755.339,375.315 " />
<polyline points="745.216,369.864 753.003,369.864 " />
<polyline points="759.233,358.962 759.233,375.315 " />
<polyline points="759.233,358.962 770.135,375.315 " />
<polyline points="770.135,358.962 770.135,375.315 " />
<polyline points="787.266,362.856 786.488,361.298 784.93,359.741 783.373,358.962 780.258,358.962 778.701,359.741 777.143,361.298 776.364,362.856 775.586,365.192 775.586,369.085 776.364,371.421 777.143,372.979 778.701,374.536 780.258,375.315 783.373,375.315 784.93,374.536 786.488,372.979 787.266,371.421 " />
<polyline points="792.717,358.962 792.717,375.315 " />
<polyline points="803.619,358.962 803.619,375.315 " />
<polyline points="792.717,366.749 803.619,366.749 " />
<polyline points="835.547,364.413 834.768,366.749 833.211,368.307 830.874,369.085 830.096,369.085 827.76,368.307 826.202,366.749 825.423,364.413 825.423,363.634 826.202,361.298 827.76,359.741 830.096,358.962 830.874,358.962 833.211,359.741 834.768,361.298 835.547,364.413 835.547,368.307 834.768,372.2 833.211,374.536 830.874,375.315 829.317,375.315 826.981,374.536 826.202,372.979 " />
<polyline points="845.67,358.962 843.334,359.741 841.776,362.077 840.998,365.97 840.998,368.307 841.776,372.2 843.334,374.536 845.67,375.315 847.227,375.315 849.563,374.536 851.121,372.2 851.9,368.307 851.9,365.97 851.121,362.077 849.563,359.741 847.227,358.962 845.67,358.962 " />
<ellipse rx="1.55743" ry="1.55743" transform="translate(856.572 360.519) rotate(90)" />
<polyline points="883.827,358.962 883.827,375.315 " />
<polyline points="878.376,358.962 889.278,358.962 " />
<polyline points="897.065,358.962 895.508,359.741 893.95,361.298 893.171,362.856 892.393,365.192 892.393,369.085 893.171,371.421 893.95,372.979 895.508,374.536 897.065,375.315 900.18,375.315 901.737,374.536 903.295,372.979 904.073,371.421 904.852,369.085 904.852,365.192 904.073,362.856 903.295,361.298 901.737,359.741 900.18,358.962 897.065,358.962 " />
<polyline points="926.656,358.962 926.656,375.315 " />
<polyline points="926.656,358.962 932.886,375.315 " />
<polyline points="939.115,358.962 932.886,375.315 " />
<polyline points="939.115,358.962 939.115,375.315 " />
<polyline points="949.239,358.962 943.009,375.315 " />
<polyline points="949.239,358.962 955.468,375.315 " />
<polyline points="945.345,369.864 953.132,369.864 " />
<polyline points="959.362,358.962 959.362,375.315 " />
<polyline points="965.592,358.962 965.592,375.315 " />
<polyline points="965.592,358.962 976.494,375.315 " />
<polyline points="976.494,358.962 976.494,375.315 " />
</g>
<g clip-path="url(#clipId0)" fill="rgb(0,0,0)" stroke="rgb(0,0,0)" stroke-width="0.25" >
<path d="M702.28,276.845 705.482,278.01 707.376,267.823 707.376,267.823 z" />
</g>
<g clip-path="url(#clipId0)" fill="none" stroke="rgb(0,0,0)" stroke-width="0.25" >
<polyline points="703.881,277.427 671.28,367.018 " />
<polyline points="671.28,367.018 692.036,367.018 " />
<polyline points="692.036,367.018 697.146,367.018 " />
<polyline points="445.671,531.138 445.671,552.769 " />
<polyline points="445.671,531.138 450.403,531.138 " />
<polyline points="445.671,552.769 450.403,552.769 " />
<polyline points="453.783,533.842 457.162,548.037 " />
<polyline points="460.542,533.842 457.162,548.037 " />
<polyline points="460.542,533.842 463.922,548.037 " />
<polyline points="467.302,533.842 463.922,548.037 " />
<polyline points="469.33,533.842 474.737,540.601 474.737,548.037 " />
<polyline points="480.145,533.842 474.737,540.601 " />
<polyline points="483.525,533.842 483.525,548.037 " />
<polyline points="483.525,533.842 492.313,533.842 " />
<polyline points="483.525,540.601 488.933,540.601 " />
<polyline points="483.525,548.037 492.313,548.037 " />
<polyline points="510.564,533.842 510.564,548.037 " />
<polyline points="510.564,533.842 516.647,533.842 518.675,534.518 519.351,535.194 520.027,536.546 520.027,537.898 519.351,539.25 518.675,539.926 516.647,540.601 510.564,540.601 " />
<polyline points="515.295,540.601 520.027,548.037 " />
<polyline points="528.139,533.842 526.787,534.518 525.435,535.87 524.759,537.222 524.083,539.25 524.083,542.629 524.759,544.657 525.435,546.009 526.787,547.361 528.139,548.037 530.843,548.037 532.195,547.361 533.546,546.009 534.222,544.657 534.898,542.629 534.898,539.25 534.222,537.222 533.546,535.87 532.195,534.518 530.843,533.842 528.139,533.842 " />
<polyline points="539.63,533.842 539.63,548.037 547.742,548.037 " />
<polyline points="551.122,533.842 551.122,548.037 559.233,548.037 " />
<polyline points="562.613,533.842 562.613,548.037 " />
<polyline points="562.613,533.842 571.401,533.842 " />
<polyline points="562.613,540.601 568.021,540.601 " />
<polyline points="562.613,548.037 571.401,548.037 " />
<polyline points="575.456,533.842 575.456,548.037 " />
<polyline points="575.456,533.842 580.188,533.842 582.216,534.518 583.568,535.87 584.244,537.222 584.92,539.25 584.92,542.629 584.244,544.657 583.568,546.009 582.216,547.361 580.188,548.037 575.456,548.037 " />
<polyline points="609.931,533.842 603.171,543.305 613.31,543.305 " />
<polyline points="609.931,533.842 609.931,548.037 " />
<polyline points="624.802,533.842 618.042,533.842 617.366,539.926 618.042,539.25 620.07,538.574 622.098,538.574 624.126,539.25 625.478,540.601 626.154,542.629 626.154,543.981 625.478,546.009 624.126,547.361 622.098,548.037 620.07,548.037 618.042,547.361 617.366,546.685 616.69,545.333 " />
<ellipse rx="1.35193" ry="1.35193" transform="translate(630.21 535.194) rotate(90)" />
<polyline points="647.568,533.842 647.568,548.037 " />
<polyline points="647.568,533.842 656.355,533.842 " />
<polyline points="647.568,540.601 652.975,540.601 " />
<polyline points="659.735,533.842 659.735,548.037 " />
<polyline points="659.735,533.842 665.819,533.842 667.847,534.518 668.523,535.194 669.199,536.546 669.199,537.898 668.523,539.25 667.847,539.925 665.819,540.601 659.735,540.601 " />
<polyline points="664.467,540.601 669.199,548.037 " />
<polyline points="677.31,533.842 675.958,534.518 674.606,535.87 673.93,537.222 673.254,539.25 673.254,542.629 673.93,544.657 674.606,546.009 675.958,547.361 677.31,548.037 680.014,548.037 681.366,547.361 682.718,546.009 683.394,544.657 684.07,542.629 684.07,539.25 683.394,537.222 682.718,535.87 681.366,534.518 680.014,533.842 677.31,533.842 " />
<polyline points="688.802,533.842 688.802,548.037 " />
<polyline points="688.802,533.842 694.209,548.037 " />
<polyline points="699.617,533.842 694.209,548.037 " />
<polyline points="699.617,533.842 699.617,548.037 " />
<polyline points="719.22,533.842 719.22,548.037 " />
<polyline points="728.683,533.842 728.683,548.037 " />
<polyline points="719.22,540.601 728.683,540.601 " />
<polyline points="737.471,533.842 736.119,534.518 734.767,535.87 734.091,537.222 733.415,539.25 733.415,542.629 734.091,544.657 734.767,546.009 736.119,547.361 737.471,548.037 740.175,548.037 741.527,547.361 742.879,546.009 743.555,544.657 744.231,542.629 744.231,539.25 743.555,537.222 742.879,535.87 741.527,534.518 740.175,533.842 737.471,533.842 " />
<polyline points="748.962,533.842 748.962,548.037 " />
<polyline points="748.962,533.842 755.046,533.842 757.074,534.518 757.75,535.194 758.426,536.546 758.426,537.898 757.75,539.25 757.074,539.925 755.046,540.601 748.962,540.601 " />
<polyline points="753.694,540.601 758.426,548.037 " />
<polyline points="763.158,533.842 763.158,548.037 " />
<polyline points="777.353,533.842 767.89,548.037 " />
<polyline points="767.89,533.842 777.353,533.842 " />
<polyline points="767.89,548.037 777.353,548.037 " />
<polyline points="785.465,533.842 784.113,534.518 782.761,535.87 782.085,537.222 781.409,539.25 781.409,542.629 782.085,544.657 782.761,546.009 784.113,547.361 785.465,548.037 788.168,548.037 789.52,547.361 790.872,546.009 791.548,544.657 792.224,542.629 792.224,539.25 791.548,537.222 790.872,535.87 789.52,534.518 788.168,533.842 785.465,533.842 " />
<polyline points="796.956,533.842 796.956,548.037 " />
<polyline points="796.956,533.842 806.42,548.037 " />
<polyline points="806.42,533.842 806.42,548.037 " />
<polyline points="814.531,533.842 814.531,548.037 " />
<polyline points="809.799,533.842 819.263,533.842 " />
<polyline points="826.023,533.842 820.615,548.037 " />
<polyline points="826.023,533.842 831.43,548.037 " />
<polyline points="822.643,543.305 829.402,543.305 " />
<polyline points="834.81,533.842 834.81,548.037 842.922,548.037 " />
<polyline points="849.681,531.138 849.681,552.769 " />
<polyline points="844.95,531.138 849.681,531.138 " />
<polyline points="844.95,552.769 849.681,552.769 " />
<polyline points="919.866,643.592 917.703,641.429 914.459,640.347 910.132,640.347 906.888,641.429 904.725,643.592 904.725,645.755 905.806,647.918 906.888,648.999 909.051,650.081 915.54,652.244 917.703,653.326 918.785,654.407 919.866,656.57 919.866,659.815 917.703,661.978 914.459,663.059 910.132,663.059 906.888,661.978 904.725,659.815 " />
<polyline points="927.437,640.347 927.437,663.059 " />
<polyline points="927.437,640.347 935.008,640.347 938.253,641.429 940.416,643.592 941.497,645.755 942.579,648.999 942.579,654.407 941.497,657.652 940.416,659.815 938.253,661.978 935.008,663.059 927.437,663.059 " />
<polyline points="962.047,640.347 951.231,640.347 950.15,650.081 951.231,648.999 954.476,647.918 957.72,647.918 960.965,648.999 963.128,651.162 964.21,654.407 964.21,656.57 963.128,659.815 960.965,661.978 957.72,663.059 954.476,663.059 951.231,661.978 950.15,660.896 949.068,658.733 " />
<polyline points="971.781,653.326 991.248,653.326 " />
<polyline points="1011.8,640.347 1000.98,640.347 999.901,650.081 1000.98,648.999 1004.23,647.918 1007.47,647.918 1010.72,648.999 1012.88,651.162 1013.96,654.407 1013.96,656.57 1012.88,659.815 1010.72,661.978 1007.47,663.059 1004.23,663.059 1000.98,661.978 999.901,660.896 998.819,658.733 " />
<polyline points="449.868,505.558 443.108,515.021 453.248,515.021 " />
<polyline points="449.868,505.558 449.868,519.753 " />
<polyline points="464.739,505.558 457.979,505.558 457.303,511.641 457.979,510.965 460.007,510.289 462.035,510.289 464.063,510.965 465.415,512.317 466.091,514.345 466.091,515.697 465.415,517.725 464.063,519.077 462.035,519.753 460.007,519.753 457.979,519.077 457.303,518.401 456.627,517.049 " />
<ellipse rx="1.35193" ry="1.35193" transform="translate(470.147 506.91) rotate(90)" />
<polyline points="500.565,508.937 499.889,507.586 498.537,506.234 497.185,505.558 494.481,505.558 493.13,506.234 491.778,507.586 491.102,508.937 490.426,510.965 490.426,514.345 491.102,516.373 491.778,517.725 493.13,519.077 494.481,519.753 497.185,519.753 498.537,519.077 499.889,517.725 500.565,516.373 " />
<polyline points="508.677,505.558 507.325,506.234 505.973,507.586 505.297,508.937 504.621,510.965 504.621,514.345 505.297,516.373 505.973,517.725 507.325,519.077 508.677,519.753 511.381,519.753 512.733,519.077 514.084,517.725 514.76,516.373 515.436,514.345 515.436,510.965 514.76,508.937 514.084,507.586 512.733,506.234 511.381,505.558 508.677,505.558 " />
<polyline points="520.168,505.558 520.168,519.753 " />
<polyline points="520.168,505.558 529.632,519.753 " />
<polyline points="529.632,505.558 529.632,519.753 " />
<polyline points="535.039,505.558 535.039,519.753 " />
<polyline points="549.911,508.937 549.235,507.586 547.883,506.234 546.531,505.558 543.827,505.558 542.475,506.234 541.123,507.586 540.447,508.937 539.771,510.965 539.771,514.345 540.447,516.373 541.123,517.725 542.475,519.077 543.827,519.753 546.531,519.753 547.883,519.077 549.235,517.725 549.911,516.373 " />
<polyline points="558.022,505.558 552.615,519.753 " />
<polyline points="558.022,505.558 563.43,519.753 " />
<polyline points="554.642,515.021 561.402,515.021 " />
<polyline points="566.81,505.558 566.81,519.753 574.921,519.753 " />
<polyline points="591.145,505.558 594.524,519.753 " />
<polyline points="597.904,505.558 594.524,519.753 " />
<polyline points="597.904,505.558 601.284,519.753 " />
<polyline points="604.664,505.558 601.284,519.753 " />
<polyline points="606.692,505.558 612.1,512.317 612.1,519.753 " />
<polyline points="617.507,505.558 612.1,512.317 " />
<polyline points="620.887,505.558 620.887,519.753 " />
<polyline points="620.887,505.558 629.675,505.558 " />
<polyline points="620.887,512.317 626.295,512.317 " />
<polyline points="620.887,519.753 629.675,519.753 " />
<polyline points="652.657,502.854 651.306,504.206 649.954,506.234 648.602,508.937 647.926,512.317 647.926,515.021 648.602,518.401 649.954,521.105 651.306,523.133 652.657,524.485 " />
<polyline points="666.177,507.586 664.825,506.234 662.797,505.558 660.093,505.558 658.065,506.234 656.713,507.586 656.713,508.937 657.389,510.289 658.065,510.965 659.417,511.641 663.473,512.993 664.825,513.669 665.501,514.345 666.177,515.697 666.177,517.725 664.825,519.077 662.797,519.753 660.093,519.753 658.065,519.077 656.713,517.725 " />
<polyline points="670.909,505.558 670.909,519.753 " />
<polyline points="670.909,505.558 675.64,505.558 677.668,506.234 679.02,507.586 679.696,508.937 680.372,510.965 680.372,514.345 679.696,516.373 679.02,517.725 677.668,519.077 675.64,519.753 670.909,519.753 " />
<polyline points="692.539,505.558 685.78,505.558 685.104,511.641 685.78,510.965 687.808,510.289 689.836,510.289 691.863,510.965 693.215,512.317 693.891,514.345 693.891,515.697 693.215,517.725 691.863,519.077 689.836,519.753 687.808,519.753 685.78,519.077 685.104,518.401 684.428,517.049 " />
<polyline points="698.623,513.669 710.791,513.669 " />
<polyline points="716.874,505.558 724.31,505.558 720.254,510.965 722.282,510.965 723.634,511.641 724.31,512.317 724.986,514.345 724.986,515.697 724.31,517.725 722.958,519.077 720.93,519.753 718.902,519.753 716.874,519.077 716.198,518.401 715.522,517.049 " />
<polyline points="729.042,502.854 730.394,504.206 731.745,506.234 733.097,508.937 733.773,512.317 733.773,515.021 733.097,518.401 731.745,521.105 730.394,523.133 729.042,524.485 " />
</g>
</svg>
