<?xml version="1.0" standalone="no"?>
<svg viewBox="0 0 1024 768" version="1.1" xmlns="http://www.w3.org/2000/svg" xmlns:xlink="http://www.w3.org/1999/xlink" stroke-linecap="round" stroke-linejoin="round" fill-rule="evenodd" xml:space="preserve" >
<defs >
<clipPath id="clipId0" >
<path d="M0,768 1024,768 1024,0 0,0 z" />
</clipPath>
</defs>
<g clip-path="url(#clipId0)" fill="none" stroke="rgb(0,0,0)" stroke-width="0.1" />
<g clip-path="url(#clipId0)" fill="none" stroke="rgb(0,0,0)" stroke-width="0.25" >
<polyline points="907.561,251.786 476.617,395.337 " />
<polyline points="497.346,188.925 451.424,215.827 " />
<path d="M907.561,251.786  A42.342,42.342 0 0,0 883.6,179.854 " />
<polyline points="991.909,141.374 916.58,170.111 " />
</g>
<g clip-path="url(#clipId0)" fill="rgb(0,0,0)" stroke="rgb(0,0,0)" stroke-width="0.25" >
<path d="M990.609,137.699 993.209,145.049 1013.96,133.574 1013.96,133.574 z" />
</g>
<g clip-path="url(#clipId0)" fill="none" stroke="rgb(0,0,0)" stroke-width="0.25" >
<path d="M883.6,179.854  A42.342,42.342 0 0,0 907.561,251.786 " />
</g>
<g clip-path="url(#clipId0)" fill="rgb(0,0,0)" stroke="rgb(0,0,0)" stroke-width="0.25" >
<path d="M698.922,234.202 697.4,241.849 721.102,242.593 721.102,242.593 z" />
</g>
<g clip-path="url(#clipId0)" fill="none" stroke="rgb(0,0,0)" stroke-width="0.25" >
<polyline points="698.161,238.026 626.311,224.843 " />
<path d="M735.712,248.574  A32.0146,32.0146 0 0,0 747.675,192.713 " />
<path d="M497.346,188.925  A141.109,141.109 0 0,0 538.518,285.455 " />
<path d="M597.108,166.771  A78.2616,78.2616 0 0,0 590.774,275.96 " />
<path d="M643.03,174.683  A74.4411,74.4411 0 0,0 612.943,280.708 " />
<polyline points="723.75,304.436 590.774,275.96 " />
<path d="M735.712,248.574  A32.0146,32.0146 0 0,0 723.75,304.436 " />
<path d="M723.75,304.436  A32.0146,32.0146 0 0,0 735.712,248.574 " />
<polyline points="590.774,275.96 538.518,285.455 " />
<polyline points="538.518,285.455 505.264,304.445 " />
<polyline points="747.675,192.713 597.108,166.771 " />
<polyline points="724.148,153.054 859.638,107.922 " />
<path d="M883.6,179.854  A42.342,42.342 0 0,0 859.638,107.922 " />
<polyline points="597.108,166.771 497.346,188.925 " />
<path d="M162.826,420.175  A42.342,42.342 0 0,0 186.787,492.107 " />
<polyline points="217.689,321.76 205.148,325.938 " />
</g>
<g clip-path="url(#clipId0)" fill="rgb(0,0,0)" stroke="rgb(0,0,0)" stroke-width="0.25" >
<path d="M97.3123,440.627 99.9123,447.978 120.664,436.502 120.664,436.502 z" />
</g>
<g clip-path="url(#clipId0)" fill="none" stroke="rgb(0,0,0)" stroke-width="0.25" >
<path d="M162.826,420.175  A42.342,42.342 0 0,0 138.865,348.243 " />
<path d="M138.865,348.243  A42.342,42.342 0 0,0 162.826,420.175 " />
<polyline points="199.881,487.746 186.787,492.107 " />
<polyline points="98.6123,444.302 10.0392,476.82 " />
</g>
<g clip-path="url(#clipId0)" fill="none" stroke="rgb(0,0,0)" stroke-width="0.1" >
<polyline points="247.194,340.04 247.194,340.04 " />
<polyline points="279.72,422.256 279.72,422.256 " />
<polyline points="275.893,449.024 275.893,449.024 " />
</g>
<g clip-path="url(#clipId0)" fill="none" stroke="rgb(0,0,0)" stroke-width="0.25" >
<polyline points="217.689,321.76 218.93,322.212 220.37,322.765 221.736,323.31 223.045,323.841 224.303,324.361 225.515,324.875 226.686,325.388 227.819,325.902 228.919,326.424 229.99,326.957 231.037,327.505 232.064,328.073 233.075,328.664 234.073,329.279 235.063,329.922 236.048,330.595 237.031,331.3 238.017,332.039 239.009,332.817 240.01,333.632 241.02,334.485 242.038,335.369 243.062,336.282 244.09,337.22 245.123,338.179 246.158,339.156 247.194,340.146 248.23,341.147 249.262,342.159 250.286,343.184 251.299,344.222 252.298,345.276 253.278,346.345 254.235,347.432 255.166,348.538 256.068,349.663 256.945,350.808 257.799,351.973 258.634,353.158 259.454,354.363 260.263,355.588 261.065,356.833 261.862,358.098 262.659,359.382 263.455,360.687 264.248,362.011 265.038,363.356 265.823,364.72 266.601,366.104 267.372,367.508 268.134,368.932 268.886,370.376 269.624,371.84 270.344,373.324 271.044,374.828 271.718,376.351 272.364,377.895 272.978,379.458 273.555,381.042 274.093,382.645 274.595,384.268 275.061,385.911 275.495,387.574 275.899,389.257 276.275,390.96 276.627,392.683 276.956,394.426 277.265,396.188 277.554,397.964 277.823,399.751 278.072,401.543 278.302,403.334 278.511,405.121 278.7,406.898 278.87,408.66 279.019,410.403 279.149,412.133 279.258,413.856 279.348,415.577 279.418,417.304 279.467,419.041 279.497,420.796 279.507,422.575 279.497,424.38 279.464,426.205 279.406,428.036 279.321,429.864 279.206,431.677 279.059,433.464 278.877,435.214 278.657,436.915 278.398,438.56 278.099,440.156 277.76,441.715 277.381,443.248 276.963,444.766 276.505,446.281 276.006,447.803 275.468,449.343 274.877,450.924 274.169,452.614 273.267,454.491 272.093,456.633 270.571,459.118 268.622,462.025 266.17,465.433 266.164,465.441 " />
<polyline points="217.689,321.76 281.874,300.38 " />
<polyline points="266.164,465.441 476.617,395.337 " />
<polyline points="281.874,300.38 429.936,251.924 " stroke-dasharray="7.116803,3.558402" />
<polyline points="484.847,311.606 485.099,312.357 485.6,313.98 486.066,315.624 486.5,317.287 486.904,318.97 487.281,320.672 487.633,322.395 487.962,324.138 488.271,325.9 488.56,327.677 488.829,329.463 489.078,331.255 489.307,333.047 489.516,334.833 489.706,336.61 489.875,338.372 490.025,340.116 490.154,341.846 490.264,343.568 490.353,345.29 490.423,347.016 490.473,348.753 490.503,350.508 490.513,352.287 490.503,354.093 490.47,355.917 490.412,357.749 490.327,359.577 490.212,361.39 490.064,363.177 489.882,364.926 489.663,366.627 489.403,368.272 489.105,369.869 488.766,371.428 488.387,372.961 487.968,374.479 487.51,375.993 487.012,377.515 486.474,379.055 485.883,380.637 485.175,382.327 484.273,384.203 483.099,386.345 481.576,388.83 479.628,391.737 477.176,395.145 477.169,395.153 " />
<polyline points="478.534,295.393 479.139,296.524 479.891,297.968 480.629,299.432 481.35,300.916 482.049,302.42 482.724,303.943 483.073,304.778 " />
<polyline points="472.435,285.003 472.868,285.69 473.665,286.974 474.461,288.279 475.254,289.603 476.044,290.948 476.262,291.328 " />
<polyline points="464.318,273.976 465.24,275.024 466.171,276.13 467.074,277.255 467.95,278.4 468.804,279.565 469.639,280.75 469.897,281.129 " />
<polyline points="454.727,264.475 455.096,264.812 456.128,265.771 457.163,266.748 458.199,267.738 459.235,268.739 460.267,269.751 461.279,270.763 " />
<polyline points="443.573,255.959 444.08,256.256 445.079,256.871 446.069,257.514 447.053,258.187 448.037,258.892 449.023,259.631 450.015,260.409 451.016,261.225 451.433,261.577 " />
<polyline points="266.17,465.433 199.881,487.746 " />
<polyline points="205.148,325.938 138.865,348.243 " />
<polyline points="88.1736,487.196 87.5709,485.99 86.3656,484.785 85.1602,484.182 82.7494,484.182 81.544,484.785 80.3386,485.99 79.7359,487.196 79.1333,489.004 79.1333,492.017 79.7359,493.825 80.3386,495.031 81.544,496.236 82.7494,496.839 85.1602,496.839 86.3656,496.236 87.5709,495.031 88.1736,493.825 " />
<polyline points="61.6703,470.134 53.6344,491.229 " />
<polyline points="61.6703,470.134 69.7062,491.229 " />
<polyline points="56.6478,484.197 66.6927,484.197 " />
<polyline points="63.5779,434.604 62.9752,433.399 61.7698,432.194 60.5644,431.591 58.1537,431.591 56.9483,432.194 55.7429,433.399 55.1402,434.604 54.5375,436.413 54.5375,439.426 55.1402,441.234 55.7429,442.439 56.9483,443.645 58.1537,444.248 60.5644,444.248 61.7698,443.645 62.9752,442.439 63.5779,441.234 " />
<polyline points="37.0745,417.543 35.0656,418.548 33.0566,420.557 32.0521,422.566 31.0476,425.579 31.0476,430.602 32.0521,433.615 33.0566,435.624 35.0656,437.633 37.0745,438.637 41.0925,438.637 43.1015,437.633 45.1104,435.624 46.1149,433.615 47.1194,430.602 47.1194,425.579 46.1149,422.566 45.1104,420.557 43.1015,418.548 41.0925,417.543 37.0745,417.543 " />
<polyline points="40.088,434.62 46.1149,440.646 " />
<polyline points="685.158,213.381 685.158,226.038 " />
<polyline points="685.158,219.408 686.363,218.203 687.569,217.6 689.377,217.6 690.582,218.203 691.788,219.408 692.39,221.216 692.39,222.421 691.788,224.229 690.582,225.435 689.377,226.038 687.569,226.038 686.363,225.435 685.158,224.229 " />
<polyline points="668.252,201.522 666.243,202.527 664.234,204.536 663.229,206.545 662.225,209.558 662.225,214.58 663.229,217.594 664.234,219.603 666.243,221.612 668.252,222.616 672.27,222.616 674.279,221.612 676.288,219.603 677.292,217.594 678.297,214.58 678.297,209.558 677.292,206.545 676.288,204.536 674.279,202.527 672.27,201.522 668.252,201.522 " />
<polyline points="671.265,218.598 677.292,224.625 " />
<polyline points="663.171,251.195 663.171,263.852 " />
<polyline points="663.171,257.222 664.376,256.017 665.582,255.414 667.39,255.414 668.595,256.017 669.8,257.222 670.403,259.03 670.403,260.235 669.8,262.044 668.595,263.249 667.39,263.852 665.582,263.852 664.376,263.249 663.171,262.044 " />
<polyline points="646.265,239.336 638.229,260.43 " />
<polyline points="646.265,239.336 654.3,260.43 " />
<polyline points="641.242,253.399 651.287,253.399 " />
<polyline points="961.074,130.082 959.869,128.877 958.061,128.274 955.65,128.274 953.842,128.877 952.637,130.082 952.637,131.288 953.239,132.493 953.842,133.096 955.047,133.699 958.663,134.904 959.869,135.507 960.472,136.109 961.074,137.315 961.074,139.123 959.869,140.328 958.061,140.931 955.65,140.931 953.842,140.328 952.637,139.123 " />
<polyline points="985.67,183.67 984.465,182.465 982.656,181.862 980.246,181.862 978.438,182.465 977.232,183.67 977.232,184.876 977.835,186.081 978.438,186.684 979.643,187.286 983.259,188.492 984.465,189.095 985.067,189.697 985.67,190.903 985.67,192.711 984.465,193.916 982.656,194.519 980.246,194.519 978.438,193.916 977.232,192.711 " />
<polyline points="959.216,168.252 951.18,189.346 " />
<polyline points="959.216,168.252 967.252,189.346 " />
<polyline points="954.194,182.315 964.239,182.315 " />
<polyline points="934.62,114.664 932.611,115.669 930.602,117.678 929.598,119.687 928.593,122.7 928.593,127.723 929.598,130.736 930.602,132.745 932.611,134.754 934.62,135.759 938.638,135.759 940.647,134.754 942.656,132.745 943.661,130.736 944.665,127.723 944.665,122.7 943.661,119.687 942.656,117.678 940.647,115.669 938.638,114.664 934.62,114.664 " />
<polyline points="937.634,131.741 943.661,137.767 " />
</g>
<g clip-path="url(#clipId0)" fill="rgb(0,0,0)" stroke="rgb(0,0,0)" stroke-width="0.25" >
<path d="M342.261,450.519 344.648,448.076 336.123,442.137 336.123,442.137 z" />
</g>
<g clip-path="url(#clipId0)" fill="none" stroke="rgb(0,0,0)" stroke-width="0.25" >
<polyline points="343.455,449.298 404.404,508.822 " />
<polyline points="404.404,508.822 427.108,508.822 " />
<polyline points="427.108,508.822 432.232,508.822 " />
</g>
<g clip-path="url(#clipId0)" fill="rgb(0,0,0)" stroke="rgb(0,0,0)" stroke-width="0.25" >
<path d="M542.136,169.585 539.941,172.202 548.891,177.479 548.891,177.479 z" />
</g>
<g clip-path="url(#clipId0)" fill="none" stroke="rgb(0,0,0)" stroke-width="0.25" >
<polyline points="541.038,170.893 503.41,139.337 " />
<polyline points="503.41,139.337 478.815,139.337 " />
<polyline points="478.815,139.337 473.691,139.337 " />
<polyline points="42.1589,135.602 41.378,134.04 39.0356,133.259 37.474,133.259 35.1315,134.04 33.5699,136.382 32.7891,140.286 32.7891,144.19 33.5699,147.314 35.1315,148.875 37.474,149.656 38.2548,149.656 40.5972,148.875 42.1589,147.314 42.9397,144.971 42.9397,144.19 42.1589,141.848 40.5972,140.286 38.2548,139.506 37.474,139.506 35.1315,140.286 33.5699,141.848 32.7891,144.19 " />
<polyline points="52.3095,133.259 49.967,134.04 48.4054,136.382 47.6246,140.286 47.6246,142.629 48.4054,146.533 49.967,148.875 52.3095,149.656 53.8711,149.656 56.2135,148.875 57.7752,146.533 58.556,142.629 58.556,140.286 57.7752,136.382 56.2135,134.04 53.8711,133.259 52.3095,133.259 " />
<ellipse rx="1.56163" ry="1.56163" cx="63.2409" cy="134.821" />
<polyline points="87.4461,133.259 87.4461,149.656 " />
<polyline points="87.4461,133.259 97.5967,133.259 " />
<polyline points="87.4461,141.067 93.6926,141.067 " />
<polyline points="87.4461,149.656 97.5967,149.656 " />
<polyline points="102.282,133.259 102.282,149.656 111.651,149.656 " />
<polyline points="115.555,133.259 115.555,149.656 " />
<polyline points="115.555,133.259 122.583,133.259 124.925,134.04 125.706,134.821 126.487,136.382 126.487,137.944 125.706,139.506 124.925,140.286 122.583,141.067 " />
<polyline points="115.555,141.067 122.583,141.067 124.925,141.848 125.706,142.629 126.487,144.19 126.487,146.533 125.706,148.095 124.925,148.875 122.583,149.656 115.555,149.656 " />
<polyline points="135.857,133.259 134.295,134.04 132.733,135.602 131.953,137.163 131.172,139.506 131.172,143.41 131.953,145.752 132.733,147.314 134.295,148.875 135.857,149.656 138.98,149.656 140.542,148.875 142.103,147.314 142.884,145.752 143.665,143.41 143.665,139.506 142.884,137.163 142.103,135.602 140.542,134.04 138.98,133.259 135.857,133.259 " />
<polyline points="147.569,133.259 151.473,149.656 " />
<polyline points="155.377,133.259 151.473,149.656 " />
<polyline points="155.377,133.259 159.281,149.656 " />
<polyline points="163.185,133.259 159.281,149.656 " />
<polyline points="169.432,148.875 168.651,149.656 167.87,148.875 168.651,148.095 169.432,148.875 169.432,150.437 168.651,151.999 167.87,152.779 " />
<polyline points="192.075,138.725 192.075,149.656 " />
<polyline points="192.075,143.41 192.856,141.067 194.418,139.506 195.979,138.725 198.322,138.725 " />
<polyline points="214.719,130.136 200.664,155.122 " />
<polyline points="219.404,133.259 219.404,149.656 " />
<polyline points="219.404,133.259 224.87,133.259 227.212,134.04 228.774,135.602 229.554,137.163 230.335,139.506 230.335,143.41 229.554,145.752 228.774,147.314 227.212,148.875 224.87,149.656 219.404,149.656 " />
<polyline points="252.198,140.286 266.253,140.286 " />
<polyline points="252.198,144.971 266.253,144.971 " />
<polyline points="290.458,136.382 292.02,135.602 294.362,133.259 294.362,149.656 " />
<polyline points="305.294,148.095 304.513,148.875 305.294,149.656 306.074,148.875 305.294,148.095 " />
<polyline points="320.91,133.259 313.102,133.259 312.321,140.286 313.102,139.506 315.444,138.725 317.787,138.725 320.129,139.506 321.691,141.067 322.471,143.41 322.471,144.971 321.691,147.314 320.129,148.875 317.787,149.656 315.444,149.656 313.102,148.875 312.321,148.095 311.54,146.533 " />
<polyline points="349.8,130.136 348.238,131.697 346.677,134.04 345.115,137.163 344.334,141.067 344.334,144.19 345.115,148.095 346.677,151.218 348.238,153.56 349.8,155.122 " />
<polyline points="366.197,137.163 365.416,135.602 363.855,134.04 362.293,133.259 359.17,133.259 357.608,134.04 356.046,135.602 355.266,137.163 354.485,139.506 354.485,143.41 355.266,145.752 356.046,147.314 357.608,148.875 359.17,149.656 362.293,149.656 363.855,148.875 365.416,147.314 366.197,145.752 " />
<polyline points="371.663,133.259 371.663,149.656 " />
<polyline points="371.663,133.259 377.128,133.259 379.471,134.04 381.033,135.602 381.813,137.163 382.594,139.506 382.594,143.41 381.813,145.752 381.033,147.314 379.471,148.875 377.128,149.656 371.663,149.656 " />
<polyline points="388.841,133.259 397.43,133.259 392.745,139.506 395.087,139.506 396.649,140.286 397.43,141.067 398.211,143.41 398.211,144.971 397.43,147.314 395.868,148.875 393.526,149.656 391.183,149.656 388.841,148.875 388.06,148.095 387.279,146.533 " />
<polyline points="403.676,142.629 417.731,142.629 " />
<polyline points="425.539,136.382 427.101,135.602 429.443,133.259 429.443,149.656 " />
<polyline points="440.375,133.259 448.963,133.259 444.279,139.506 446.621,139.506 448.183,140.286 448.963,141.067 449.744,143.41 449.744,144.971 448.963,147.314 447.402,148.875 445.059,149.656 442.717,149.656 440.375,148.875 439.594,148.095 438.813,146.533 " />
<polyline points="454.429,130.136 455.991,131.697 457.552,134.04 459.114,137.163 459.895,141.067 459.895,144.19 459.114,148.095 457.552,151.218 455.991,153.56 454.429,155.122 " />
<polyline points="667.73,382.723 667.73,399.12 " />
<polyline points="667.73,382.723 674.758,382.723 677.1,383.504 677.881,384.285 678.662,385.846 678.662,387.408 677.881,388.969 677.1,389.75 674.758,390.531 " />
<polyline points="667.73,390.531 674.758,390.531 677.1,391.312 677.881,392.093 678.662,393.654 678.662,395.997 677.881,397.558 677.1,398.339 674.758,399.12 667.73,399.12 " />
<polyline points="684.127,382.723 684.127,399.12 " />
<polyline points="684.127,382.723 691.155,382.723 693.497,383.504 694.278,384.285 695.059,385.846 695.059,387.408 694.278,388.969 693.497,389.75 691.155,390.531 684.127,390.531 " />
<polyline points="689.593,390.531 695.059,399.12 " />
<polyline points="704.429,382.723 698.182,399.12 " />
<polyline points="704.429,382.723 710.675,399.12 " />
<polyline points="700.525,393.654 708.333,393.654 " />
<polyline points="714.579,382.723 714.579,399.12 " />
<polyline points="714.579,382.723 725.511,399.12 " />
<polyline points="725.511,382.723 725.511,399.12 " />
<polyline points="742.689,386.627 741.908,385.065 740.346,383.504 738.784,382.723 735.661,382.723 734.1,383.504 732.538,385.065 731.757,386.627 730.976,388.969 730.976,392.873 731.757,395.216 732.538,396.778 734.1,398.339 735.661,399.12 738.784,399.12 740.346,398.339 741.908,396.778 742.689,395.216 " />
<polyline points="748.154,382.723 748.154,399.12 " />
<polyline points="759.086,382.723 759.086,399.12 " />
<polyline points="748.154,390.531 759.086,390.531 " />
<polyline points="791.099,388.189 790.318,390.531 788.757,392.093 786.414,392.873 785.633,392.873 783.291,392.093 781.729,390.531 780.948,388.189 780.948,387.408 781.729,385.065 783.291,383.504 785.633,382.723 786.414,382.723 788.757,383.504 790.318,385.065 791.099,388.189 791.099,392.093 790.318,395.997 788.757,398.339 786.414,399.12 784.853,399.12 782.51,398.339 781.729,396.778 " />
<polyline points="801.25,382.723 798.907,383.504 797.346,385.846 796.565,389.75 796.565,392.093 797.346,395.997 798.907,398.339 801.25,399.12 802.811,399.12 805.154,398.339 806.715,395.997 807.496,392.093 807.496,389.75 806.715,385.846 805.154,383.504 802.811,382.723 801.25,382.723 " />
<ellipse rx="1.56163" ry="1.56163" cx="812.181" cy="384.285" />
<polyline points="839.51,382.723 839.51,399.12 " />
<polyline points="834.044,382.723 844.975,382.723 " />
<polyline points="852.783,382.723 851.222,383.504 849.66,385.065 848.879,386.627 848.099,388.969 848.099,392.873 848.879,395.216 849.66,396.778 851.222,398.339 852.783,399.12 855.907,399.12 857.468,398.339 859.03,396.778 859.811,395.216 860.592,392.873 860.592,388.969 859.811,386.627 859.03,385.065 857.468,383.504 855.907,382.723 852.783,382.723 " />
<polyline points="882.454,382.723 882.454,399.12 " />
<polyline points="882.454,382.723 888.701,399.12 " />
<polyline points="894.947,382.723 888.701,399.12 " />
<polyline points="894.947,382.723 894.947,399.12 " />
<polyline points="905.098,382.723 898.852,399.12 " />
<polyline points="905.098,382.723 911.345,399.12 " />
<polyline points="901.194,393.654 909.002,393.654 " />
<polyline points="915.249,382.723 915.249,399.12 " />
<polyline points="921.495,382.723 921.495,399.12 " />
<polyline points="921.495,382.723 932.427,399.12 " />
<polyline points="932.427,382.723 932.427,399.12 " />
</g>
<g clip-path="url(#clipId0)" fill="rgb(0,0,0)" stroke="rgb(0,0,0)" stroke-width="0.25" >
<path d="M657.473,300.384 660.683,301.552 662.582,291.337 662.582,291.337 z" />
</g>
<g clip-path="url(#clipId0)" fill="none" stroke="rgb(0,0,0)" stroke-width="0.25" >
<polyline points="659.078,300.968 626.389,390.801 " />
<polyline points="626.389,390.801 647.201,390.801 " />
<polyline points="647.201,390.801 652.325,390.801 " />
<polyline points="444.955,525.91 444.955,547.599 " />
<polyline points="444.955,525.91 449.7,525.91 " />
<polyline points="444.955,547.599 449.7,547.599 " />
<polyline points="453.089,528.621 456.478,542.855 " />
<polyline points="459.866,528.621 456.478,542.855 " />
<polyline points="459.866,528.621 463.255,542.855 " />
<polyline points="466.644,528.621 463.255,542.855 " />
<polyline points="468.678,528.621 474.1,535.399 474.1,542.855 " />
<polyline points="479.522,528.621 474.1,535.399 " />
<polyline points="482.911,528.621 482.911,542.855 " />
<polyline points="482.911,528.621 491.723,528.621 " />
<polyline points="482.911,535.399 488.334,535.399 " />
<polyline points="482.911,542.855 491.723,542.855 " />
<polyline points="510.023,528.621 510.023,542.855 " />
<polyline points="510.023,528.621 516.123,528.621 518.156,529.299 518.834,529.977 519.512,531.332 519.512,532.688 518.834,534.044 518.156,534.721 516.123,535.399 510.023,535.399 " />
<polyline points="514.768,535.399 519.512,542.855 " />
<polyline points="527.646,528.621 526.29,529.299 524.934,530.655 524.257,532.01 523.579,534.044 523.579,537.432 524.257,539.466 524.934,540.821 526.29,542.177 527.646,542.855 530.357,542.855 531.712,542.177 533.068,540.821 533.746,539.466 534.423,537.432 534.423,534.044 533.746,532.01 533.068,530.655 531.712,529.299 530.357,528.621 527.646,528.621 " />
<polyline points="539.168,528.621 539.168,542.855 547.301,542.855 " />
<polyline points="550.69,528.621 550.69,542.855 558.824,542.855 " />
<polyline points="562.213,528.621 562.213,542.855 " />
<polyline points="562.213,528.621 571.024,528.621 " />
<polyline points="562.213,535.399 567.635,535.399 " />
<polyline points="562.213,542.855 571.024,542.855 " />
<polyline points="575.091,528.621 575.091,542.855 " />
<polyline points="575.091,528.621 579.835,528.621 581.869,529.299 583.224,530.655 583.902,532.01 584.58,534.044 584.58,537.432 583.902,539.466 583.224,540.821 581.869,542.177 579.835,542.855 575.091,542.855 " />
<polyline points="609.658,528.621 602.88,538.11 613.047,538.11 " />
<polyline points="609.658,528.621 609.658,542.855 " />
<polyline points="624.57,528.621 617.792,528.621 617.114,534.721 617.792,534.044 619.825,533.366 621.858,533.366 623.892,534.044 625.247,535.399 625.925,537.432 625.925,538.788 625.247,540.821 623.892,542.177 621.858,542.855 619.825,542.855 617.792,542.177 617.114,541.499 616.436,540.144 " />
<ellipse rx="1.35558" ry="1.35558" cx="629.992" cy="529.977" />
<polyline points="454.415,558.872 454.415,573.106 " />
<polyline points="454.415,558.872 463.226,558.872 " />
<polyline points="454.415,565.65 459.837,565.65 " />
<polyline points="466.615,558.872 466.615,573.106 " />
<polyline points="466.615,558.872 472.715,558.872 474.749,559.55 475.426,560.228 476.104,561.584 476.104,562.939 475.426,564.295 474.749,564.973 472.715,565.65 466.615,565.65 " />
<polyline points="471.36,565.65 476.104,573.106 " />
<polyline points="484.238,558.872 482.882,559.55 481.527,560.906 480.849,562.261 480.171,564.295 480.171,567.684 480.849,569.717 481.527,571.073 482.882,572.428 484.238,573.106 486.949,573.106 488.305,572.428 489.66,571.073 490.338,569.717 491.016,567.684 491.016,564.295 490.338,562.261 489.66,560.906 488.305,559.55 486.949,558.872 484.238,558.872 " />
<polyline points="495.76,558.872 495.76,573.106 " />
<polyline points="495.76,558.872 501.183,573.106 " />
<polyline points="506.605,558.872 501.183,573.106 " />
<polyline points="506.605,558.872 506.605,573.106 " />
<polyline points="526.261,558.872 526.261,573.106 " />
<polyline points="535.75,558.872 535.75,573.106 " />
<polyline points="526.261,565.65 535.75,565.65 " />
<polyline points="544.561,558.872 543.206,559.55 541.85,560.906 541.172,562.261 540.494,564.295 540.494,567.684 541.172,569.717 541.85,571.073 543.206,572.428 544.561,573.106 547.272,573.106 548.628,572.428 549.983,571.073 550.661,569.717 551.339,567.684 551.339,564.295 550.661,562.261 549.983,560.906 548.628,559.55 547.272,558.872 544.561,558.872 " />
<polyline points="556.084,558.872 556.084,573.106 " />
<polyline points="556.084,558.872 562.184,558.872 564.217,559.55 564.895,560.228 565.573,561.584 565.573,562.939 564.895,564.295 564.217,564.973 562.184,565.65 556.084,565.65 " />
<polyline points="560.828,565.65 565.573,573.106 " />
<polyline points="570.317,558.872 570.317,573.106 " />
<polyline points="584.551,558.872 575.062,573.106 " />
<polyline points="575.062,558.872 584.551,558.872 " />
<polyline points="575.062,573.106 584.551,573.106 " />
<polyline points="592.684,558.872 591.329,559.55 589.973,560.906 589.295,562.261 588.618,564.295 588.618,567.684 589.295,569.717 589.973,571.073 591.329,572.428 592.684,573.106 595.395,573.106 596.751,572.428 598.107,571.073 598.784,569.717 599.462,567.684 599.462,564.295 598.784,562.261 598.107,560.906 596.751,559.55 595.395,558.872 592.684,558.872 " />
<polyline points="604.207,558.872 604.207,573.106 " />
<polyline points="604.207,558.872 613.696,573.106 " />
<polyline points="613.696,558.872 613.696,573.106 " />
<polyline points="621.829,558.872 621.829,573.106 " />
<polyline points="617.085,558.872 626.574,558.872 " />
<polyline points="633.352,558.872 627.929,573.106 " />
<polyline points="633.352,558.872 638.774,573.106 " />
<polyline points="629.963,568.362 636.741,568.362 " />
<polyline points="642.163,558.872 642.163,573.106 650.297,573.106 " />
<polyline points="657.074,556.161 657.074,577.851 " />
<polyline points="652.33,556.161 657.074,556.161 " />
<polyline points="652.33,577.851 657.074,577.851 " />
<polyline points="918.539,640.558 916.37,638.389 913.116,637.305 908.779,637.305 905.525,638.389 903.356,640.558 903.356,642.727 904.441,644.896 905.525,645.98 907.694,647.065 914.201,649.234 916.37,650.318 917.454,651.403 918.539,653.572 918.539,656.825 916.37,658.994 913.116,660.078 908.779,660.078 905.525,658.994 903.356,656.825 " />
<polyline points="926.13,637.305 926.13,660.078 " />
<polyline points="926.13,637.305 933.721,637.305 936.975,638.389 939.144,640.558 940.228,642.727 941.313,645.98 941.313,651.403 940.228,654.656 939.144,656.825 936.975,658.994 933.721,660.078 926.13,660.078 " />
<polyline points="960.833,637.305 949.988,637.305 948.904,647.065 949.988,645.98 953.242,644.896 956.495,644.896 959.748,645.98 961.917,648.149 963.002,651.403 963.002,653.572 961.917,656.825 959.748,658.994 956.495,660.078 953.242,660.078 949.988,658.994 948.904,657.909 947.819,655.741 " />
<polyline points="970.593,650.318 990.113,650.318 " />
<polyline points="1011.8,640.558 1010.72,638.389 1007.46,637.305 1005.3,637.305 1002.04,638.389 999.874,641.642 998.789,647.065 998.789,652.487 999.874,656.825 1002.04,658.994 1005.3,660.078 1006.38,660.078 1009.63,658.994 1011.8,656.825 1012.89,653.572 1012.89,652.487 1011.8,649.234 1009.63,647.065 1006.38,645.98 1005.3,645.98 1002.04,647.065 999.874,649.234 998.789,652.487 " />
<polyline points="449.163,500.261 442.385,509.75 452.552,509.75 " />
<polyline points="449.163,500.261 449.163,514.494 " />
<polyline points="464.075,500.261 457.297,500.261 456.619,506.361 457.297,505.683 459.33,505.005 461.363,505.005 463.397,505.683 464.752,507.039 465.43,509.072 465.43,510.428 464.752,512.461 463.397,513.816 461.363,514.494 459.33,514.494 457.297,513.816 456.619,513.139 455.941,511.783 " />
<ellipse rx="1.35558" ry="1.35558" cx="469.497" cy="501.616" />
<polyline points="489.153,500.261 492.542,514.494 " />
<polyline points="495.931,500.261 492.542,514.494 " />
<polyline points="495.931,500.261 499.32,514.494 " />
<polyline points="502.709,500.261 499.32,514.494 " />
<polyline points="504.742,500.261 510.164,507.039 510.164,514.494 " />
<polyline points="515.587,500.261 510.164,507.039 " />
<polyline points="518.976,500.261 518.976,514.494 " />
<polyline points="518.976,500.261 527.787,500.261 " />
<polyline points="518.976,507.039 524.398,507.039 " />
<polyline points="518.976,514.494 527.787,514.494 " />
<polyline points="550.832,497.55 549.476,498.905 548.121,500.938 546.765,503.65 546.087,507.039 546.087,509.75 546.765,513.139 548.121,515.85 549.476,517.883 550.832,519.239 " />
<polyline points="564.388,502.294 563.032,500.938 560.999,500.261 558.288,500.261 556.254,500.938 554.899,502.294 554.899,503.65 555.576,505.005 556.254,505.683 557.61,506.361 561.676,507.716 563.032,508.394 563.71,509.072 564.388,510.428 564.388,512.461 563.032,513.816 560.999,514.494 558.288,514.494 556.254,513.816 554.899,512.461 " />
<polyline points="569.132,500.261 569.132,514.494 " />
<polyline points="569.132,500.261 573.877,500.261 575.91,500.938 577.266,502.294 577.943,503.65 578.621,505.683 578.621,509.072 577.943,511.105 577.266,512.461 575.91,513.816 573.877,514.494 569.132,514.494 " />
<polyline points="590.822,500.261 584.044,500.261 583.366,506.361 584.044,505.683 586.077,505.005 588.11,505.005 590.144,505.683 591.499,507.039 592.177,509.072 592.177,510.428 591.499,512.461 590.144,513.816 588.11,514.494 586.077,514.494 584.044,513.816 583.366,513.139 582.688,511.783 " />
<polyline points="596.922,508.394 609.122,508.394 " />
<polyline points="615.9,502.972 617.255,502.294 619.289,500.261 619.289,514.494 " />
<polyline points="627.422,497.55 628.778,498.905 630.133,500.938 631.489,503.65 632.167,507.039 632.167,509.75 631.489,513.139 630.133,515.85 628.778,517.883 627.422,519.239 " />
<polyline points="297.615,309.666 297.119,310.424 296.115,312.138 295.32,313.701 294.707,315.137 294.249,316.47 293.917,317.726 293.684,318.929 293.522,320.105 293.409,321.274 293.338,322.437 293.306,323.591 293.312,324.735 293.352,325.864 293.425,326.976 293.529,328.068 293.66,329.137 293.818,330.18 294.001,331.198 294.207,332.19 294.434,333.156 294.683,334.096 294.951,335.01 295.237,335.898 295.54,336.76 295.859,337.598 296.198,338.414 296.56,339.215 296.95,340.006 297.37,340.791 297.825,341.577 298.32,342.367 298.857,343.168 299.44,343.983 300.068,344.811 300.743,345.647 301.462,346.49 302.225,347.335 303.031,348.179 303.88,349.019 304.772,349.853 305.704,350.676 306.675,351.49 307.683,352.295 308.724,353.091 309.796,353.88 310.897,354.661 312.024,355.436 313.174,356.205 314.345,356.969 315.537,357.73 316.75,358.487 317.983,359.244 319.237,360 320.512,360.758 321.808,361.518 323.124,362.282 324.461,363.05 325.816,363.822 327.189,364.593 328.576,365.362 329.976,366.125 331.387,366.881 332.808,367.626 334.235,368.358 335.668,369.075 337.103,369.774 338.538,370.452 339.97,371.107 341.398,371.736 342.817,372.336 344.226,372.905 345.623,373.441 347.003,373.941 348.368,374.406 349.713,374.837 351.04,375.236 352.346,375.604 353.629,375.942 354.89,376.252 356.126,376.534 357.336,376.79 358.524,377.02 359.693,377.223 360.845,377.397 361.984,377.544 363.114,377.661 364.237,377.748 365.357,377.805 366.476,377.831 367.595,377.826 368.711,377.791 369.824,377.725 370.934,377.63 372.039,377.506 373.137,377.352 374.229,377.169 375.325,376.953 376.481,376.674 377.763,376.299 379.241,375.795 380.981,375.128 383.051,374.263 385.519,373.168 387.777,372.122 " />
<polyline points="297.615,309.666 298.027,308.972 " />
<polyline points="452.913,334.357 387.772,372.165 " />
<polyline points="399.626,247.676 298.027,308.972 " />
<polyline points="453.007,334.511 453.126,334.705 " />
<polyline points="452.913,334.357 505.264,304.445 " />
<polyline points="399.626,247.676 401.242,246.753 " />
<polyline points="401.242,246.753 451.424,215.827 " />
<polyline points="432.816,250.932 434.05,251.433 435.309,251.953 436.521,252.467 437.691,252.98 438.824,253.494 439.44,253.786 " />
<polyline points="655.346,176.805 430.879,251.577 " stroke-dasharray="7.116803,3.558402" />
<polyline points="655.346,176.805 724.148,153.054 " />
<path d="M454.268,214.048  A141.109,141.109 0 0,0 508.311,302.704 " />
<path d="M402.563,245.954  A141.109,141.109 0 0,0 453.735,333.888 " />
</g>
</svg>
