<?xml version="1.0" standalone="no"?>
<svg viewBox="0 0 1024 768" version="1.1" xmlns="http://www.w3.org/2000/svg" xmlns:xlink="http://www.w3.org/1999/xlink" stroke-linecap="round" stroke-linejoin="round" fill-rule="evenodd" xml:space="preserve" >
<defs >
<clipPath id="clipId0" >
<path d="M0,768 1024,768 1024,0 0,0 z" />
</clipPath>
</defs>
<g clip-path="url(#clipId0)" fill="none" stroke="rgb(0,0,0)" stroke-width="0.1" />
<g clip-path="url(#clipId0)" fill="none" stroke="rgb(0,0,0)" stroke-width="0.25" >
<polyline points="145.114,350.268 145.114,490.5 " />
<polyline points="145.114,490.5 167.025,490.5 " />
<polyline points="145.114,350.268 167.025,350.268 " />
<polyline points="332.09,350.268 332.09,490.5 " />
<polyline points="332.09,350.268 320.404,350.268 " />
<polyline points="332.09,490.5 320.404,490.5 " />
<polyline points="380.295,373.64 402.206,373.64 " />
<polyline points="380.295,467.128 402.206,467.128 " />
<polyline points="402.206,373.64 402.206,467.128 " />
<polyline points="332.09,350.268 377.687,373.067 " />
<polyline points="377.687,467.702 332.09,490.5 " />
<polyline points="169.947,350.268 169.947,490.5 " />
<polyline points="167.025,350.268 167.025,490.5 " />
<path d="M169.947,350.268  A1.52161,1.52161 0 0,0 167.025,350.268 " />
<polyline points="169.947,350.268 180.172,350.268 " />
<path d="M167.025,490.5  A1.52161,1.52161 0 0,0 169.947,490.5 " />
<polyline points="380.295,373.64 380.295,467.128 " />
<polyline points="377.373,373.64 377.373,467.128 " />
<path d="M380.295,373.64  A1.52161,1.52161 0 0,0 377.373,373.64 " />
<path d="M377.373,467.128  A1.52161,1.52161 0 0,0 380.295,467.128 " />
<polyline points="169.947,490.5 180.172,490.5 " />
</g>
<g clip-path="url(#clipId0)" fill="rgb(0,0,0)" stroke="rgb(0,0,0)" stroke-width="0.25" >
<path d="M66.158,417.58 66.158,423.189 82.9858,420.384 82.9858,420.384 z" />
</g>
<g clip-path="url(#clipId0)" fill="none" stroke="rgb(0,0,0)" stroke-width="0.25" >
<polyline points="66.158,420.384 10.0392,420.384 " />
<polyline points="273.66,186.009 273.66,227.611 " />
</g>
<g clip-path="url(#clipId0)" fill="rgb(0,0,0)" stroke="rgb(0,0,0)" stroke-width="0.25" >
<path d="M270.855,186.009 276.465,186.009 273.66,169.181 273.66,169.181 z" />
</g>
<g clip-path="url(#clipId0)" fill="none" stroke="rgb(0,0,0)" stroke-width="0.25" >
<polyline points="513.46,420.384 459.98,420.384 " />
</g>
<g clip-path="url(#clipId0)" fill="rgb(0,0,0)" stroke="rgb(0,0,0)" stroke-width="0.25" >
<path d="M513.46,417.58 513.46,423.189 530.288,420.384 530.288,420.384 z" />
</g>
<g clip-path="url(#clipId0)" fill="none" stroke="rgb(0,0,0)" stroke-width="0.25" >
<polyline points="111.949,321.855 111.949,333.541 " />
<polyline points="119.74,321.855 119.74,333.541 " />
<polyline points="111.949,327.419 119.74,327.419 " />
<polyline points="262.782,244.145 262.782,255.831 " />
<polyline points="262.782,244.145 266.677,244.145 268.346,244.702 269.459,245.815 270.016,246.928 270.572,248.597 270.572,251.38 270.016,253.049 269.459,254.162 268.346,255.275 266.677,255.831 262.782,255.831 " />
<polyline points="276.076,252.299 276.076,259.364 " />
<polyline points="276.076,255.663 276.749,254.99 277.422,254.654 278.431,254.654 279.104,254.99 279.777,255.663 280.114,256.673 280.114,257.346 279.777,258.355 279.104,259.028 278.431,259.364 277.422,259.364 276.749,259.028 276.076,258.355 " />
<polyline points="282.469,253.981 282.469,253.644 282.805,252.972 283.142,252.635 283.815,252.299 285.16,252.299 285.833,252.635 286.17,252.972 286.506,253.644 286.506,254.317 286.17,254.99 285.497,256 282.132,259.364 286.843,259.364 " />
<polyline points="286.129,197.463 281.677,209.149 " />
<polyline points="286.129,197.463 290.58,209.149 " />
<polyline points="283.346,205.253 288.911,205.253 " />
<polyline points="297.871,205.616 297.871,212.681 " />
<polyline points="297.871,208.98 298.544,208.307 299.216,207.971 300.226,207.971 300.899,208.307 301.572,208.98 301.908,209.99 301.908,210.663 301.572,211.672 300.899,212.345 300.226,212.681 299.216,212.681 298.544,212.345 297.871,211.672 " />
<polyline points="304.263,207.298 304.263,206.962 304.6,206.289 304.936,205.952 305.609,205.616 306.955,205.616 307.628,205.952 307.964,206.289 308.301,206.962 308.301,207.635 307.964,208.307 307.292,209.317 303.927,212.681 308.637,212.681 " />
<polyline points="123.727,424.025 123.391,423.352 122.718,422.68 122.045,422.343 120.699,422.343 120.026,422.68 119.353,423.352 119.017,424.025 118.68,425.035 118.68,426.717 119.017,427.726 119.353,428.399 120.026,429.072 120.699,429.409 122.045,429.409 122.718,429.072 123.391,428.399 123.727,427.726 " />
<polyline points="107.302,414.19 107.302,425.876 " />
<polyline points="107.302,414.19 111.197,414.19 112.867,414.746 113.98,415.859 114.536,416.972 115.093,418.642 115.093,421.424 114.536,423.094 113.98,424.207 112.867,425.319 111.197,425.876 107.302,425.876 " />
<polyline points="34.6187,428.658 30.1669,440.344 " />
<polyline points="34.6187,428.658 39.0705,440.344 " />
<polyline points="31.8363,436.449 37.4011,436.449 " />
<polyline points="49.4917,438.493 49.1552,437.82 48.4823,437.148 47.8093,436.811 46.4635,436.811 45.7906,437.148 45.1177,437.82 44.7812,438.493 44.4447,439.503 44.4447,441.185 44.7812,442.194 45.1177,442.867 45.7906,443.54 46.4635,443.877 47.8093,443.877 48.4823,443.54 49.1552,442.867 49.4917,442.194 " />
<polyline points="495.982,435.207 495.309,434.534 494.299,434.197 492.954,434.197 491.944,434.534 491.271,435.207 491.271,435.88 491.608,436.553 491.944,436.889 492.617,437.225 494.636,437.898 495.309,438.235 495.645,438.571 495.982,439.244 495.982,440.254 495.309,440.927 494.299,441.263 492.954,441.263 491.944,440.927 491.271,440.254 " />
<polyline points="481.277,426.044 476.825,437.73 " />
<polyline points="481.277,426.044 485.729,437.73 " />
<polyline points="478.495,433.835 484.059,433.835 " />
<polyline points="422.26,414.341 422.26,426.027 " />
<polyline points="422.26,414.341 426.155,414.341 427.824,414.897 428.937,416.01 429.494,417.123 430.05,418.793 430.05,421.575 429.494,423.245 428.937,424.357 427.824,425.47 426.155,426.027 422.26,426.027 " />
<polyline points="438.517,423.503 437.844,422.831 436.834,422.494 435.488,422.494 434.479,422.831 433.806,423.503 433.806,424.176 434.143,424.849 434.479,425.186 435.152,425.522 437.171,426.195 437.844,426.532 438.18,426.868 438.517,427.541 438.517,428.55 437.844,429.223 436.834,429.56 435.488,429.56 434.479,429.223 433.806,428.55 " />
<polyline points="273.66,420.384 261.974,420.384 " />
<polyline points="250.288,420.384 133.428,420.384 " />
<polyline points="273.66,420.384 273.66,432.07 " />
<polyline points="273.66,420.384 285.346,420.384 " />
<polyline points="297.032,420.384 413.892,420.384 " />
<polyline points="273.66,420.384 273.66,408.698 " />
<polyline points="273.66,397.012 273.66,268.466 " />
<polyline points="45.9101,244.923 47.0231,244.366 48.6925,242.697 48.6925,254.383 " />
<polyline points="57.0396,241.027 56.4832,241.584 55.9267,241.027 56.4832,240.471 57.0396,241.027 57.0396,242.14 56.4832,243.253 55.9267,243.81 " />
<polyline points="60.3785,241.027 59.822,241.584 59.2655,241.027 59.822,240.471 60.3785,241.027 60.3785,242.14 59.822,243.253 59.2655,243.81 " />
<polyline points="67.6127,240.471 66.4997,241.584 65.3868,243.253 64.2738,245.479 63.7174,248.262 63.7174,250.487 64.2738,253.27 65.3868,255.496 66.4997,257.165 67.6127,258.278 " />
<polyline points="71.508,245.479 71.508,244.923 72.0645,243.81 72.621,243.253 73.7339,242.697 75.9598,242.697 77.0728,243.253 77.6293,243.81 78.1857,244.923 78.1857,246.036 77.6293,247.149 76.5163,248.818 70.9515,254.383 78.7422,254.383 " />
<polyline points="88.7588,242.697 83.194,242.697 82.6375,247.705 83.194,247.149 84.8634,246.592 86.5329,246.592 88.2023,247.149 89.3153,248.262 89.8717,249.931 89.8717,251.044 89.3153,252.713 88.2023,253.826 86.5329,254.383 84.8634,254.383 83.194,253.826 82.6375,253.27 82.0811,252.157 " />
<polyline points="93.7671,246.592 93.7671,254.383 " />
<polyline points="93.7671,248.818 95.4365,247.149 96.5494,246.592 98.2189,246.592 99.3318,247.149 99.8883,248.818 99.8883,254.383 " />
<polyline points="99.8883,248.818 101.558,247.149 102.671,246.592 104.34,246.592 105.453,247.149 106.01,248.818 106.01,254.383 " />
<polyline points="110.461,246.592 110.461,254.383 " />
<polyline points="110.461,248.818 112.131,247.149 113.244,246.592 114.913,246.592 116.026,247.149 116.583,248.818 116.583,254.383 " />
<polyline points="116.583,248.818 118.252,247.149 119.365,246.592 121.034,246.592 122.147,247.149 122.704,248.818 122.704,254.383 " />
<polyline points="126.599,240.471 127.712,241.584 128.825,243.253 129.938,245.479 130.494,248.262 130.494,250.487 129.938,253.27 128.825,255.496 127.712,257.165 126.599,258.278 " />
<polyline points="371.103,245.419 372.215,244.862 373.885,243.193 373.885,254.879 " />
<polyline points="382.232,241.523 381.676,242.08 381.119,241.523 381.676,240.967 382.232,241.523 382.232,242.636 381.676,243.749 381.119,244.306 " />
<polyline points="385.571,241.523 385.014,242.08 384.458,241.523 385.014,240.967 385.571,241.523 385.571,242.636 385.014,243.749 384.458,244.306 " />
<polyline points="392.805,240.967 391.692,242.08 390.579,243.749 389.466,245.975 388.91,248.757 388.91,250.983 389.466,253.766 390.579,255.992 391.692,257.661 392.805,258.774 " />
<polyline points="396.7,245.975 396.7,245.419 397.257,244.306 397.813,243.749 398.926,243.193 401.152,243.193 402.265,243.749 402.822,244.306 403.378,245.419 403.378,246.532 402.822,247.644 401.709,249.314 396.144,254.879 403.935,254.879 " />
<polyline points="413.951,243.193 408.386,243.193 407.83,248.201 408.386,247.644 410.056,247.088 411.725,247.088 413.395,247.644 414.508,248.757 415.064,250.427 415.064,251.54 414.508,253.209 413.395,254.322 411.725,254.879 410.056,254.879 408.386,254.322 407.83,253.766 407.273,252.653 " />
<polyline points="418.959,247.088 418.959,254.879 " />
<polyline points="418.959,249.314 420.629,247.644 421.742,247.088 423.411,247.088 424.524,247.644 425.081,249.314 425.081,254.879 " />
<polyline points="425.081,249.314 426.75,247.644 427.863,247.088 429.533,247.088 430.645,247.644 431.202,249.314 431.202,254.879 " />
<polyline points="435.654,247.088 435.654,254.879 " />
<polyline points="435.654,249.314 437.323,247.644 438.436,247.088 440.106,247.088 441.219,247.644 441.775,249.314 441.775,254.879 " />
<polyline points="441.775,249.314 443.444,247.644 444.557,247.088 446.227,247.088 447.34,247.644 447.896,249.314 447.896,254.879 " />
<polyline points="451.792,240.967 452.905,242.08 454.017,243.749 455.13,245.975 455.687,248.757 455.687,250.983 455.13,253.766 454.017,255.992 452.905,257.661 451.792,258.774 " />
<polyline points="421.655,504.531 421.655,516.217 " />
<polyline points="421.655,504.531 425.55,504.531 427.22,505.088 428.333,506.201 428.889,507.313 429.445,508.983 429.445,511.765 428.889,513.435 428.333,514.548 427.22,515.661 425.55,516.217 421.655,516.217 " />
<polyline points="445.027,511.209 455.043,511.209 " />
<polyline points="459.495,504.531 459.495,516.217 " />
<polyline points="459.495,504.531 463.391,504.531 465.06,505.088 466.173,506.201 466.729,507.313 467.286,508.983 467.286,511.765 466.729,513.435 466.173,514.548 465.06,515.661 463.391,516.217 459.495,516.217 " />
<polyline points="490.057,519.001 491.17,518.445 492.839,516.775 492.839,528.461 " />
<polyline points="500.074,519.558 500.074,519.001 500.63,517.888 501.186,517.332 502.299,516.775 504.525,516.775 505.638,517.332 506.195,517.888 506.751,519.001 506.751,520.114 506.195,521.227 505.082,522.896 499.517,528.461 507.308,528.461 " />
<polyline points="512.316,515.106 511.76,515.662 511.203,515.106 511.76,514.549 512.316,515.106 512.316,516.219 511.76,517.332 511.203,517.888 " />
<polyline points="515.655,515.106 515.098,515.662 514.542,515.106 515.098,514.549 515.655,515.106 515.655,516.219 515.098,517.332 514.542,517.888 " />
<polyline points="522.889,514.549 521.776,515.662 520.663,517.332 519.55,519.558 518.994,522.34 518.994,524.566 519.55,527.348 520.663,529.574 521.776,531.244 522.889,532.357 " />
<polyline points="527.341,516.775 533.462,516.775 530.123,521.227 531.793,521.227 532.906,521.783 533.462,522.34 534.019,524.009 534.019,525.122 533.462,526.792 532.349,527.905 530.68,528.461 529.01,528.461 527.341,527.905 526.784,527.348 526.228,526.235 " />
<polyline points="540.696,516.775 539.027,517.332 537.914,519.001 537.357,521.783 537.357,523.453 537.914,526.235 539.027,527.905 540.696,528.461 541.809,528.461 543.479,527.905 544.592,526.235 545.148,523.453 545.148,521.783 544.592,519.001 543.479,517.332 541.809,516.775 540.696,516.775 " />
<polyline points="551.826,516.775 550.156,517.332 549.043,519.001 548.487,521.783 548.487,523.453 549.043,526.235 550.156,527.905 551.826,528.461 552.939,528.461 554.608,527.905 555.721,526.235 556.278,523.453 556.278,521.783 555.721,519.001 554.608,517.332 552.939,516.775 551.826,516.775 " />
<polyline points="560.173,520.671 560.173,528.461 " />
<polyline points="560.173,522.896 561.842,521.227 562.955,520.671 564.625,520.671 565.738,521.227 566.294,522.896 566.294,528.461 " />
<polyline points="566.294,522.896 567.964,521.227 569.077,520.671 570.746,520.671 571.859,521.227 572.415,522.896 572.415,528.461 " />
<polyline points="576.867,520.671 576.867,528.461 " />
<polyline points="576.867,522.896 578.537,521.227 579.65,520.671 581.319,520.671 582.432,521.227 582.988,522.896 582.988,528.461 " />
<polyline points="582.988,522.896 584.658,521.227 585.771,520.671 587.44,520.671 588.553,521.227 589.11,522.896 589.11,528.461 " />
<polyline points="593.005,514.549 594.118,515.662 595.231,517.332 596.344,519.558 596.9,522.34 596.9,524.566 596.344,527.348 595.231,529.574 594.118,531.244 593.005,532.357 " />
<polyline points="613.038,520.671 613.038,528.461 " />
<polyline points="613.038,522.896 614.708,521.227 615.821,520.671 617.49,520.671 618.603,521.227 619.159,522.896 619.159,528.461 " />
<polyline points="619.159,522.896 620.829,521.227 621.942,520.671 623.611,520.671 624.724,521.227 625.281,522.896 625.281,528.461 " />
<polyline points="635.854,520.671 635.854,528.461 " />
<polyline points="635.854,522.34 634.741,521.227 633.628,520.671 631.958,520.671 630.845,521.227 629.732,522.34 629.176,524.009 629.176,525.122 629.732,526.792 630.845,527.905 631.958,528.461 633.628,528.461 634.741,527.905 635.854,526.792 " />
<polyline points="639.749,520.671 645.87,528.461 " />
<polyline points="645.87,520.671 639.749,528.461 " />
<polyline points="650.322,527.348 649.766,527.905 650.322,528.461 650.879,527.905 650.322,527.348 " />
<polyline points="437.466,514.435 437.129,513.762 436.456,513.089 435.783,512.753 434.437,512.753 433.764,513.089 433.092,513.762 432.755,514.435 432.419,515.445 432.419,517.127 432.755,518.136 433.092,518.809 433.764,519.482 434.437,519.819 435.783,519.819 436.456,519.482 437.129,518.809 437.466,518.136 " />
<polyline points="475.599,513.762 474.926,513.089 473.917,512.753 472.571,512.753 471.561,513.089 470.889,513.762 470.889,514.435 471.225,515.108 471.561,515.445 472.234,515.781 474.253,516.454 474.926,516.79 475.263,517.127 475.599,517.8 475.599,518.809 474.926,519.482 473.917,519.819 472.571,519.819 471.561,519.482 470.889,518.809 " />
<polyline points="273.66,443.756 273.66,572.302 " />
<polyline points="112.476,508.855 112.476,520.541 " />
<polyline points="120.267,508.855 120.267,520.541 " />
<polyline points="112.476,514.419 120.267,514.419 " />
<polyline points="262.315,584.202 262.315,595.888 " />
<polyline points="262.315,584.202 266.21,584.202 267.879,584.759 268.992,585.872 269.549,586.984 270.105,588.654 270.105,591.436 269.549,593.106 268.992,594.219 267.879,595.332 266.21,595.888 262.315,595.888 " />
<polyline points="275.426,591.472 275.426,598.538 " />
<polyline points="275.426,594.837 276.099,594.164 276.772,593.827 277.781,593.827 278.454,594.164 279.127,594.837 279.463,595.846 279.463,596.519 279.127,597.528 278.454,598.201 277.781,598.538 276.772,598.538 276.099,598.201 275.426,597.528 " />
<polyline points="282.491,592.818 283.164,592.482 284.174,591.472 284.174,598.538 " />
<polyline points="180.172,350.268 226.074,304.366 " />
<polyline points="320.404,280.152 320.404,302.063 " />
<polyline points="226.916,280.152 320.404,280.152 " />
<polyline points="226.916,280.152 226.916,302.063 " />
<polyline points="226.916,302.063 320.404,302.063 " />
<polyline points="226.916,304.985 320.404,304.985 " />
<path d="M226.916,302.063  A1.52161,1.52161 0 0,0 226.916,304.985 " />
<path d="M320.404,304.985  A1.52161,1.52161 0 0,0 320.404,302.063 " />
<polyline points="320.404,304.985 320.404,350.268 " />
<polyline points="199.354,232.712 199.354,244.398 " />
<polyline points="207.145,232.712 207.145,244.398 " />
<polyline points="199.354,238.276 207.145,238.276 " />
<polyline points="180.172,490.5 226.074,536.403 " />
<polyline points="226.916,560.616 226.916,538.705 " />
<path d="M226.916,535.783  A1.52161,1.52161 0 0,0 226.916,538.705 " />
<polyline points="226.916,538.705 320.404,538.705 " />
<polyline points="226.916,535.783 320.404,535.783 " />
<polyline points="226.916,560.616 320.404,560.616 " />
<polyline points="320.404,560.616 320.404,538.705 " />
<path d="M320.404,538.705  A1.52161,1.52161 0 0,0 320.404,535.783 " />
<polyline points="320.404,535.783 320.404,490.5 " />
<polyline points="45.9101,585.767 47.0231,585.21 48.6925,583.541 48.6925,595.227 " />
<polyline points="57.0396,581.871 56.4832,582.428 55.9267,581.871 56.4832,581.315 57.0396,581.871 57.0396,582.984 56.4832,584.097 55.9267,584.654 " />
<polyline points="60.3785,581.871 59.822,582.428 59.2655,581.871 59.822,581.315 60.3785,581.871 60.3785,582.984 59.822,584.097 59.2655,584.654 " />
<polyline points="67.6127,581.315 66.4997,582.428 65.3868,584.097 64.2738,586.323 63.7174,589.106 63.7174,591.332 64.2738,594.114 65.3868,596.34 66.4997,598.009 67.6127,599.122 " />
<polyline points="71.508,586.323 71.508,585.767 72.0645,584.654 72.621,584.097 73.7339,583.541 75.9598,583.541 77.0728,584.097 77.6293,584.654 78.1857,585.767 78.1857,586.88 77.6293,587.993 76.5163,589.662 70.9515,595.227 78.7422,595.227 " />
<polyline points="88.7588,583.541 83.194,583.541 82.6375,588.549 83.194,587.993 84.8634,587.436 86.5329,587.436 88.2023,587.993 89.3153,589.106 89.8717,590.775 89.8717,591.888 89.3153,593.557 88.2023,594.67 86.5329,595.227 84.8634,595.227 83.194,594.67 82.6375,594.114 82.0811,593.001 " />
<polyline points="93.7671,587.436 93.7671,595.227 " />
<polyline points="93.7671,589.662 95.4365,587.993 96.5494,587.436 98.2189,587.436 99.3318,587.993 99.8883,589.662 99.8883,595.227 " />
<polyline points="99.8883,589.662 101.558,587.993 102.671,587.436 104.34,587.436 105.453,587.993 106.01,589.662 106.01,595.227 " />
<polyline points="110.461,587.436 110.461,595.227 " />
<polyline points="110.461,589.662 112.131,587.993 113.244,587.436 114.913,587.436 116.026,587.993 116.583,589.662 116.583,595.227 " />
<polyline points="116.583,589.662 118.252,587.993 119.365,587.436 121.034,587.436 122.147,587.993 122.704,589.662 122.704,595.227 " />
<polyline points="126.599,581.315 127.712,582.428 128.825,584.097 129.938,586.323 130.494,589.106 130.494,591.332 129.938,594.114 128.825,596.34 127.712,598.009 126.599,599.122 " />
<polyline points="199.11,572.736 199.11,584.422 " />
<polyline points="206.901,572.736 206.901,584.422 " />
<polyline points="199.11,578.3 206.901,578.3 " />
<polyline points="371.103,586.263 372.215,585.706 373.885,584.037 373.885,595.723 " />
<polyline points="382.232,582.367 381.676,582.924 381.119,582.367 381.676,581.811 382.232,582.367 382.232,583.48 381.676,584.593 381.119,585.15 " />
<polyline points="385.571,582.367 385.014,582.924 384.458,582.367 385.014,581.811 385.571,582.367 385.571,583.48 385.014,584.593 384.458,585.15 " />
<polyline points="392.805,581.811 391.692,582.924 390.579,584.593 389.466,586.819 388.91,589.601 388.91,591.827 389.466,594.61 390.579,596.836 391.692,598.505 392.805,599.618 " />
<polyline points="396.7,586.819 396.7,586.263 397.257,585.15 397.813,584.593 398.926,584.037 401.152,584.037 402.265,584.593 402.822,585.15 403.378,586.263 403.378,587.376 402.822,588.489 401.709,590.158 396.144,595.723 403.935,595.723 " />
<polyline points="413.951,584.037 408.386,584.037 407.83,589.045 408.386,588.489 410.056,587.932 411.725,587.932 413.395,588.489 414.508,589.601 415.064,591.271 415.064,592.384 414.508,594.053 413.395,595.166 411.725,595.723 410.056,595.723 408.386,595.166 407.83,594.61 407.273,593.497 " />
<polyline points="418.959,587.932 418.959,595.723 " />
<polyline points="418.959,590.158 420.629,588.489 421.742,587.932 423.411,587.932 424.524,588.489 425.081,590.158 425.081,595.723 " />
<polyline points="425.081,590.158 426.75,588.489 427.863,587.932 429.533,587.932 430.645,588.489 431.202,590.158 431.202,595.723 " />
<polyline points="435.654,587.932 435.654,595.723 " />
<polyline points="435.654,590.158 437.323,588.489 438.436,587.932 440.106,587.932 441.219,588.489 441.775,590.158 441.775,595.723 " />
<polyline points="441.775,590.158 443.444,588.489 444.557,587.932 446.227,587.932 447.34,588.489 447.896,590.158 447.896,595.723 " />
<polyline points="451.792,581.811 452.905,582.924 454.017,584.593 455.13,586.819 455.687,589.601 455.687,591.827 455.13,594.61 454.017,596.836 452.905,598.505 451.792,599.618 " />
</g>
<g clip-path="url(#clipId0)" fill="none" stroke="rgb(0,0,0)" stroke-width="0.1" >
<polyline points="298.726,365.635 298.726,365.635 " />
<polyline points="298.726,475.134 298.726,475.134 " />
</g>
<g clip-path="url(#clipId0)" fill="none" stroke="rgb(0,0,0)" stroke-width="0.25" >
<polyline points="408.629,373.64 434.32,373.64 " />
<polyline points="408.629,467.128 434.32,467.128 " />
<polyline points="431.108,385.202 431.108,409.287 " />
<polyline points="431.108,455.566 431.108,433.631 " />
</g>
<g clip-path="url(#clipId0)" fill="rgb(0,0,0)" stroke="rgb(0,0,0)" stroke-width="0.25" >
<path d="M433.035,385.202 429.181,385.202 431.108,373.64 431.108,373.64 z" />
<path d="M433.035,455.566 429.181,455.566 431.108,467.128 431.108,467.128 z" />
</g>
<g clip-path="url(#clipId0)" fill="none" stroke="rgb(0,0,0)" stroke-width="0.1" >
<polyline points="402.206,373.64 402.206,373.64 " />
<polyline points="402.206,467.128 402.206,467.128 " />
<polyline points="431.108,467.128 431.108,467.128 " />
</g>
<g clip-path="url(#clipId0)" fill="none" stroke="rgb(0,0,0)" stroke-width="0.25" >
<polyline points="332.09,343.845 332.09,246.75 " />
<polyline points="343.652,249.962 355.214,249.962 " />
<polyline points="355.214,249.962 362.97,249.962 " />
</g>
<g clip-path="url(#clipId0)" fill="rgb(0,0,0)" stroke="rgb(0,0,0)" stroke-width="0.25" >
<path d="M343.652,251.889 343.652,248.035 332.09,249.962 332.09,249.962 z" />
</g>
<g clip-path="url(#clipId0)" fill="none" stroke="rgb(0,0,0)" stroke-width="0.1" >
<polyline points="320.404,280.152 320.404,280.152 " />
<polyline points="332.09,350.268 332.09,350.268 " />
<polyline points="332.09,249.962 332.09,249.962 " />
</g>
<g clip-path="url(#clipId0)" fill="none" stroke="rgb(0,0,0)" stroke-width="0.25" >
<polyline points="320.404,273.729 320.404,246.75 " />
<polyline points="238.478,249.962 254.02,249.962 " />
</g>
<g clip-path="url(#clipId0)" fill="rgb(0,0,0)" stroke="rgb(0,0,0)" stroke-width="0.25" >
<path d="M238.478,251.889 238.478,248.035 226.916,249.962 226.916,249.962 z" />
<path d="M308.842,251.889 308.842,248.035 320.404,249.962 320.404,249.962 z" />
</g>
<g clip-path="url(#clipId0)" fill="none" stroke="rgb(0,0,0)" stroke-width="0.1" >
<polyline points="226.916,280.152 226.916,280.152 " />
<polyline points="320.404,280.152 320.404,280.152 " />
</g>
<g clip-path="url(#clipId0)" fill="none" stroke="rgb(0,0,0)" stroke-width="0.25" >
<polyline points="168.486,342.749 168.486,246.75 " />
<polyline points="168.486,249.962 138.855,249.962 " />
</g>
<g clip-path="url(#clipId0)" fill="rgb(0,0,0)" stroke="rgb(0,0,0)" stroke-width="0.25" >
<path d="M156.924,251.889 156.924,248.035 168.486,249.962 168.486,249.962 z" />
</g>
<g clip-path="url(#clipId0)" fill="none" stroke="rgb(0,0,0)" stroke-width="0.1" >
<polyline points="180.172,350.268 180.172,350.268 " />
<polyline points="168.486,349.173 168.486,349.173 " />
</g>
<g clip-path="url(#clipId0)" fill="none" stroke="rgb(0,0,0)" stroke-width="0.25" >
<polyline points="138.691,350.268 113.337,350.268 " />
<polyline points="219.397,303.524 113.337,303.524 " />
</g>
<g clip-path="url(#clipId0)" fill="none" stroke="rgb(0,0,0)" stroke-width="0.1" >
<polyline points="145.114,350.268 145.114,350.268 " />
<polyline points="225.82,303.524 225.82,303.524 " />
<polyline points="116.548,303.524 116.548,303.524 " />
</g>
<g clip-path="url(#clipId0)" fill="none" stroke="rgb(0,0,0)" stroke-width="0.25" >
<polyline points="138.691,490.5 113.337,490.5 " />
<polyline points="116.548,361.83 116.548,407.715 " />
<polyline points="116.548,478.938 116.548,435.466 " />
</g>
<g clip-path="url(#clipId0)" fill="rgb(0,0,0)" stroke="rgb(0,0,0)" stroke-width="0.25" >
<path d="M118.475,361.83 114.621,361.83 116.548,350.268 116.548,350.268 z" />
<path d="M118.475,478.938 114.621,478.938 116.548,490.5 116.548,490.5 z" />
</g>
<g clip-path="url(#clipId0)" fill="none" stroke="rgb(0,0,0)" stroke-width="0.1" >
<polyline points="145.114,350.268 145.114,350.268 " />
<polyline points="145.114,490.5 145.114,490.5 " />
<polyline points="116.548,490.5 116.548,490.5 " />
</g>
<g clip-path="url(#clipId0)" fill="none" stroke="rgb(0,0,0)" stroke-width="0.25" >
<polyline points="138.691,490.5 113.337,490.5 " />
<polyline points="219.397,537.244 113.337,537.244 " />
</g>
<g clip-path="url(#clipId0)" fill="none" stroke="rgb(0,0,0)" stroke-width="0.1" >
<polyline points="145.114,490.5 145.114,490.5 " />
<polyline points="225.82,537.244 225.82,537.244 " />
</g>
<g clip-path="url(#clipId0)" fill="none" stroke="rgb(0,0,0)" stroke-width="0.25" >
<polyline points="168.486,498.019 168.486,594.018 " />
<polyline points="168.486,590.806 137.39,590.806 " />
</g>
<g clip-path="url(#clipId0)" fill="rgb(0,0,0)" stroke="rgb(0,0,0)" stroke-width="0.25" >
<path d="M156.924,592.733 156.924,588.879 168.486,590.806 168.486,590.806 z" />
</g>
<g clip-path="url(#clipId0)" fill="none" stroke="rgb(0,0,0)" stroke-width="0.1" >
<polyline points="180.172,490.5 180.172,490.5 " />
<polyline points="168.486,491.596 168.486,491.596 " />
</g>
<g clip-path="url(#clipId0)" fill="none" stroke="rgb(0,0,0)" stroke-width="0.25" >
<polyline points="226.916,567.04 226.916,594.018 " />
<polyline points="180.172,496.924 180.172,594.018 " />
<polyline points="215.354,590.806 191.734,590.806 " />
</g>
<g clip-path="url(#clipId0)" fill="rgb(0,0,0)" stroke="rgb(0,0,0)" stroke-width="0.25" >
<path d="M215.354,592.733 215.354,588.879 226.916,590.806 226.916,590.806 z" />
<path d="M191.734,592.733 191.734,588.879 180.172,590.806 180.172,590.806 z" />
</g>
<g clip-path="url(#clipId0)" fill="none" stroke="rgb(0,0,0)" stroke-width="0.1" >
<polyline points="226.916,560.616 226.916,560.616 " />
<polyline points="180.172,490.5 180.172,490.5 " />
</g>
<g clip-path="url(#clipId0)" fill="none" stroke="rgb(0,0,0)" stroke-width="0.25" >
<polyline points="226.916,567.04 226.916,594.018 " />
<polyline points="238.478,590.806 255.626,590.806 " />
</g>
<g clip-path="url(#clipId0)" fill="rgb(0,0,0)" stroke="rgb(0,0,0)" stroke-width="0.25" >
<path d="M238.478,592.733 238.478,588.879 226.916,590.806 226.916,590.806 z" />
</g>
<g clip-path="url(#clipId0)" fill="none" stroke="rgb(0,0,0)" stroke-width="0.1" >
<polyline points="226.916,560.616 226.916,560.616 " />
<polyline points="320.404,560.616 320.404,560.616 " />
</g>
<g clip-path="url(#clipId0)" fill="none" stroke="rgb(0,0,0)" stroke-width="0.25" >
<polyline points="320.404,567.04 320.404,594.018 " />
<polyline points="332.09,496.924 332.09,594.018 " />
<polyline points="343.652,590.806 355.214,590.806 " />
<polyline points="355.214,590.806 362.97,590.806 " />
</g>
<g clip-path="url(#clipId0)" fill="rgb(0,0,0)" stroke="rgb(0,0,0)" stroke-width="0.25" >
<path d="M343.652,592.733 343.652,588.879 332.09,590.806 332.09,590.806 z" />
<path d="M308.842,592.733 308.842,588.879 320.404,590.806 320.404,590.806 z" />
</g>
<g clip-path="url(#clipId0)" fill="none" stroke="rgb(0,0,0)" stroke-width="0.1" >
<polyline points="320.404,560.616 320.404,560.616 " />
<polyline points="332.09,490.5 332.09,490.5 " />
<polyline points="332.09,590.806 332.09,590.806 " />
</g>
<g clip-path="url(#clipId0)" fill="none" stroke="rgb(0,0,0)" stroke-width="0.25" >
<path d="M316.918,408.919  A44.752,44.752 0 0,0 285.125,377.126 " />
</g>
<g clip-path="url(#clipId0)" fill="rgb(0,0,0)" stroke="rgb(0,0,0)" stroke-width="0.25" >
<path d="M315.007,409.168 318.829,408.67 318.412,420.384 318.412,420.384 z" />
<path d="M284.876,379.037 285.374,375.215 273.66,375.632 273.66,375.632 z" />
</g>
<g clip-path="url(#clipId0)" fill="none" stroke="rgb(0,0,0)" stroke-width="0.1" >
<polyline points="297.032,420.384 297.032,420.384 " />
<polyline points="402.206,420.384 402.206,420.384 " />
<polyline points="273.66,397.012 273.66,397.012 " />
<polyline points="273.66,268.466 273.66,268.466 " />
</g>
<g clip-path="url(#clipId0)" fill="none" stroke="rgb(0,0,0)" stroke-width="0.25" >
<path d="M285.125,463.643  A44.752,44.752 0 0,0 316.918,431.849 " />
</g>
<g clip-path="url(#clipId0)" fill="rgb(0,0,0)" stroke="rgb(0,0,0)" stroke-width="0.25" >
<path d="M284.876,461.732 285.374,465.553 273.66,465.136 273.66,465.136 z" />
<path d="M315.007,431.6 318.829,432.098 318.412,420.384 318.412,420.384 z" />
</g>
<g clip-path="url(#clipId0)" fill="none" stroke="rgb(0,0,0)" stroke-width="0.1" >
<polyline points="297.032,420.384 297.032,420.384 " />
<polyline points="402.206,420.384 402.206,420.384 " />
<polyline points="273.66,443.756 273.66,443.756 " />
<polyline points="273.66,537.244 273.66,537.244 " />
</g>
<g clip-path="url(#clipId0)" fill="none" stroke="rgb(0,0,0)" stroke-width="0.25" >
<polyline points="226.916,273.729 226.916,246.75 " />
<polyline points="180.172,343.845 180.172,246.75 " />
<polyline points="215.354,249.962 191.734,249.962 " />
</g>
<g clip-path="url(#clipId0)" fill="rgb(0,0,0)" stroke="rgb(0,0,0)" stroke-width="0.25" >
<path d="M215.354,251.889 215.354,248.035 226.916,249.962 226.916,249.962 z" />
<path d="M191.734,251.889 191.734,248.035 180.172,249.962 180.172,249.962 z" />
</g>
<g clip-path="url(#clipId0)" fill="none" stroke="rgb(0,0,0)" stroke-width="0.1" >
<polyline points="226.916,280.152 226.916,280.152 " />
<polyline points="180.172,350.268 180.172,350.268 " />
</g>
<g clip-path="url(#clipId0)" fill="none" stroke="rgb(0,0,0)" stroke-width="0.25" >
<path d="M180.172,350.268  A191.75,191.75 0 0,0 290.159,367.065 " />
<path d="M290.159,367.065  A31.4129,31.4129 0 0,0 320.404,350.268 " />
<path d="M320.404,490.5  A34.8088,34.8088 0 0,0 292.983,473.63 " />
<path d="M292.983,473.63  A151.847,151.847 0 0,0 180.172,490.5 " />
<polyline points="315.415,379.284 314.956,380.66 314.038,381.578 312.662,382.037 312.203,382.037 310.827,381.578 309.909,380.66 309.45,379.284 309.45,378.825 309.909,377.449 310.827,376.531 312.203,376.072 312.662,376.072 314.038,376.531 314.956,377.449 315.415,379.284 315.415,381.578 314.956,383.872 314.038,385.249 312.662,385.707 311.744,385.707 310.368,385.249 309.909,384.331 " />
<polyline points="321.379,376.072 320.003,376.531 319.085,377.908 318.627,380.202 318.627,381.578 319.085,383.872 320.003,385.249 321.379,385.707 322.297,385.707 323.674,385.249 324.591,383.872 325.05,381.578 325.05,380.202 324.591,377.908 323.674,376.531 322.297,376.072 321.379,376.072 " />
<ellipse rx="0.91762" ry="0.91762" cx="327.803" cy="376.99" />
<polyline points="315.415,455.864 314.956,457.24 314.038,458.158 312.662,458.617 312.203,458.617 310.827,458.158 309.909,457.24 309.45,455.864 309.45,455.405 309.909,454.028 310.827,453.111 312.203,452.652 312.662,452.652 314.038,453.111 314.956,454.028 315.415,455.864 315.415,458.158 314.956,460.452 314.038,461.828 312.662,462.287 311.744,462.287 310.368,461.828 309.909,460.911 " />
<polyline points="321.379,452.652 320.003,453.111 319.085,454.487 318.627,456.781 318.627,458.158 319.085,460.452 320.003,461.828 321.379,462.287 322.297,462.287 323.674,461.828 324.591,460.452 325.05,458.158 325.05,456.781 324.591,454.487 323.674,453.111 322.297,452.652 321.379,452.652 " />
<ellipse rx="0.91762" ry="0.91762" cx="327.803" cy="453.57" />
</g>
<g clip-path="url(#clipId0)" fill="rgb(0,0,0)" stroke="rgb(0,0,0)" stroke-width="0.25" >
<path d="M118.475,291.962 114.621,291.962 116.548,303.524 116.548,303.524 z" />
</g>
<g clip-path="url(#clipId0)" fill="none" stroke="rgb(0,0,0)" stroke-width="0.25" >
<polyline points="46.8523,408.129 46.5158,407.456 45.8429,406.783 45.17,406.446 43.8241,406.446 43.1512,406.783 42.4783,407.456 42.1418,408.129 41.8054,409.138 41.8054,410.82 42.1418,411.83 42.4783,412.503 43.1512,413.176 43.8241,413.512 45.17,413.512 45.8429,413.176 46.5158,412.503 46.8523,411.83 " />
<polyline points="31.9793,398.293 30.8663,398.85 29.7534,399.963 29.1969,401.076 28.6404,402.745 28.6404,405.528 29.1969,407.197 29.7534,408.31 30.8663,409.423 31.9793,409.979 34.2052,409.979 35.3181,409.423 36.4311,408.31 36.9876,407.197 37.5441,405.528 37.5441,402.745 36.9876,401.076 36.4311,399.963 35.3181,398.85 34.2052,398.293 31.9793,398.293 " />
<polyline points="33.6487,407.753 36.9876,411.092 " />
<polyline points="116.548,280.481 116.548,291.962 " />
<polyline points="116.548,560.288 116.548,548.806 " />
</g>
<g clip-path="url(#clipId0)" fill="rgb(0,0,0)" stroke="rgb(0,0,0)" stroke-width="0.25" >
<path d="M118.475,548.806 114.621,548.806 116.548,537.244 116.548,537.244 z" />
<path d="M270.855,656.442 276.465,656.442 273.66,673.27 273.66,673.27 z" />
</g>
<g clip-path="url(#clipId0)" fill="none" stroke="rgb(0,0,0)" stroke-width="0.25" >
<polyline points="245.565,627.799 244.452,628.355 243.339,629.468 242.783,630.581 242.226,632.251 242.226,635.033 242.783,636.702 243.339,637.815 244.452,638.928 245.565,639.485 247.791,639.485 248.904,638.928 250.017,637.815 250.573,636.702 251.13,635.033 251.13,632.251 250.573,630.581 250.017,629.468 248.904,628.355 247.791,627.799 245.565,627.799 " />
<polyline points="247.234,637.259 250.573,640.598 " />
<polyline points="256.599,635.502 256.599,642.568 " />
<polyline points="256.599,638.867 257.272,638.194 257.945,637.857 258.955,637.857 259.628,638.194 260.301,638.867 260.637,639.876 260.637,640.549 260.301,641.558 259.628,642.231 258.955,642.568 257.945,642.568 257.272,642.231 256.599,641.558 " />
<polyline points="263.665,636.848 264.338,636.511 265.347,635.502 265.347,642.568 " />
<polyline points="273.66,656.442 273.66,614.84 " />
<polyline points="286.98,629.118 282.528,640.804 " />
<polyline points="286.98,629.118 291.432,640.804 " />
<polyline points="284.197,636.908 289.762,636.908 " />
<polyline points="298.014,636.821 298.014,643.886 " />
<polyline points="298.014,640.185 298.687,639.512 299.36,639.176 300.369,639.176 301.042,639.512 301.715,640.185 302.052,641.195 302.052,641.868 301.715,642.877 301.042,643.55 300.369,643.886 299.36,643.886 298.687,643.55 298.014,642.877 " />
<polyline points="305.08,638.167 305.753,637.83 306.762,636.821 306.762,643.886 " />
<polyline points="292.23,590.806 308.842,590.806 " />
<polyline points="490.149,496.243 491.262,495.686 492.932,494.017 492.932,505.703 " />
<polyline points="501.279,492.347 500.722,492.904 500.166,492.347 500.722,491.791 501.279,492.347 501.279,493.46 500.722,494.573 500.166,495.13 " />
<polyline points="504.618,492.347 504.061,492.904 503.505,492.347 504.061,491.791 504.618,492.347 504.618,493.46 504.061,494.573 503.505,495.13 " />
<polyline points="511.852,491.791 510.739,492.904 509.626,494.573 508.513,496.799 507.957,499.581 507.957,501.807 508.513,504.59 509.626,506.816 510.739,508.485 511.852,509.598 " />
<polyline points="515.747,496.799 515.747,496.243 516.304,495.13 516.86,494.573 517.973,494.017 520.199,494.017 521.312,494.573 521.868,495.13 522.425,496.243 522.425,497.356 521.868,498.468 520.755,500.138 515.191,505.703 522.981,505.703 " />
<polyline points="532.998,494.017 527.433,494.017 526.877,499.025 527.433,498.468 529.103,497.912 530.772,497.912 532.441,498.468 533.554,499.581 534.111,501.251 534.111,502.364 533.554,504.033 532.441,505.146 530.772,505.703 529.103,505.703 527.433,505.146 526.877,504.59 526.32,503.477 " />
<polyline points="538.006,497.912 538.006,505.703 " />
<polyline points="538.006,500.138 539.676,498.468 540.789,497.912 542.458,497.912 543.571,498.468 544.127,500.138 544.127,505.703 " />
<polyline points="544.127,500.138 545.797,498.468 546.91,497.912 548.579,497.912 549.692,498.468 550.249,500.138 550.249,505.703 " />
<polyline points="554.701,497.912 554.701,505.703 " />
<polyline points="554.701,500.138 556.37,498.468 557.483,497.912 559.152,497.912 560.265,498.468 560.822,500.138 560.822,505.703 " />
<polyline points="560.822,500.138 562.491,498.468 563.604,497.912 565.274,497.912 566.387,498.468 566.943,500.138 566.943,505.703 " />
<polyline points="570.838,491.791 571.951,492.904 573.064,494.573 574.177,496.799 574.734,499.581 574.734,501.807 574.177,504.59 573.064,506.816 571.951,508.485 570.838,509.598 " />
<polyline points="590.871,497.912 590.871,505.703 " />
<polyline points="590.871,500.138 592.541,498.468 593.654,497.912 595.323,497.912 596.436,498.468 596.993,500.138 596.993,505.703 " />
<polyline points="596.993,500.138 598.662,498.468 599.775,497.912 601.445,497.912 602.557,498.468 603.114,500.138 603.114,505.703 " />
<polyline points="607.009,494.573 607.566,495.13 608.122,494.573 607.566,494.017 607.009,494.573 " />
<polyline points="607.566,498.468 607.566,505.703 " />
<polyline points="612.018,497.912 612.018,505.703 " />
<polyline points="612.018,500.138 613.687,498.468 614.8,497.912 616.469,497.912 617.582,498.468 618.139,500.138 618.139,505.703 " />
<polyline points="623.147,504.59 622.591,505.146 623.147,505.703 623.704,505.146 623.147,504.59 " />
<polyline points="642.067,497.912 640.954,498.468 639.841,499.581 639.285,501.251 639.285,502.364 639.841,504.033 640.954,505.146 642.067,505.703 643.737,505.703 644.85,505.146 645.963,504.033 646.519,502.364 646.519,501.251 645.963,499.581 644.85,498.468 643.737,497.912 642.067,497.912 " />
<polyline points="650.414,497.912 650.414,505.703 " />
<polyline points="650.414,501.251 650.971,499.581 652.084,498.468 653.197,497.912 654.866,497.912 " />
<polyline points="999.256,94.7304 998.143,95.2869 997.03,96.3998 996.474,97.5128 995.917,99.1822 995.917,101.965 996.474,103.634 997.03,104.747 998.143,105.86 999.256,106.416 1001.48,106.416 1002.59,105.86 1003.71,104.747 1004.26,103.634 1004.82,101.965 1004.82,99.1822 1004.26,97.5128 1003.71,96.3998 1002.59,95.2869 1001.48,94.7304 999.256,94.7304 " />
<polyline points="1000.93,104.19 1004.26,107.529 " />
<polyline points="1013.96,103.893 1013.29,103.22 1012.28,102.884 1010.93,102.884 1009.92,103.22 1009.25,103.893 1009.25,104.566 1009.59,105.239 1009.92,105.575 1010.6,105.912 1012.61,106.585 1013.29,106.921 1013.62,107.258 1013.96,107.93 1013.96,108.94 1013.29,109.613 1012.28,109.949 1010.93,109.949 1009.92,109.613 1009.25,108.94 " />
<polyline points="242.073,200.1 240.96,200.657 239.847,201.77 239.29,202.883 238.734,204.552 238.734,207.334 239.29,209.004 239.847,210.117 240.96,211.23 242.073,211.786 244.298,211.786 245.411,211.23 246.524,210.117 247.081,209.004 247.637,207.334 247.637,204.552 247.081,202.883 246.524,201.77 245.411,200.657 244.298,200.1 242.073,200.1 " />
<polyline points="243.742,209.56 247.081,212.899 " />
<polyline points="253.815,208.253 253.815,215.319 " />
<polyline points="253.815,211.618 254.488,210.945 255.16,210.609 256.17,210.609 256.843,210.945 257.516,211.618 257.852,212.627 257.852,213.3 257.516,214.31 256.843,214.983 256.17,215.319 255.16,215.319 254.488,214.983 253.815,214.31 " />
<polyline points="260.207,209.936 260.207,209.599 260.544,208.926 260.88,208.59 261.553,208.253 262.899,208.253 263.572,208.59 263.908,208.926 264.245,209.599 264.245,210.272 263.908,210.945 263.236,211.954 259.871,215.319 264.581,215.319 " />
<polyline points="293.739,249.962 308.842,249.962 " />
<polyline points="664.506,660.347 663.16,659.001 661.142,658.328 658.45,658.328 656.431,659.001 655.085,660.347 655.085,661.693 655.758,663.039 656.431,663.712 657.777,664.385 661.815,665.73 663.16,666.403 663.833,667.076 664.506,668.422 664.506,670.441 663.16,671.787 661.142,672.46 658.45,672.46 656.431,671.787 655.085,670.441 " />
<polyline points="669.217,658.328 669.217,672.46 " />
<polyline points="669.217,658.328 673.927,658.328 675.946,659.001 677.292,660.347 677.965,661.693 678.638,663.712 678.638,667.076 677.965,669.095 677.292,670.441 675.946,671.787 673.927,672.46 669.217,672.46 " />
<polyline points="690.75,658.328 684.021,658.328 683.348,664.385 684.021,663.712 686.04,663.039 688.059,663.039 690.077,663.712 691.423,665.057 692.096,667.076 692.096,668.422 691.423,670.441 690.077,671.787 688.059,672.46 686.04,672.46 684.021,671.787 683.348,671.114 682.675,669.768 " />
<polyline points="696.806,666.403 708.919,666.403 " />
<polyline points="714.302,661.693 714.302,661.02 714.975,659.674 715.648,659.001 716.994,658.328 719.686,658.328 721.032,659.001 721.705,659.674 722.378,661.02 722.378,662.366 721.705,663.712 720.359,665.73 713.63,672.46 723.05,672.46 " />
<polyline points="735.836,660.347 735.163,659.001 733.144,658.328 731.798,658.328 729.78,659.001 728.434,661.02 727.761,664.385 727.761,667.749 728.434,670.441 729.78,671.787 731.798,672.46 732.471,672.46 734.49,671.787 735.836,670.441 736.509,668.422 736.509,667.749 735.836,665.73 734.49,664.385 732.471,663.712 731.798,663.712 729.78,664.385 728.434,665.73 727.761,667.749 " />
<polyline points="485.273,490.997 485.273,510.573 " />
<polyline points="485.273,490.997 489.556,490.997 " />
<polyline points="485.273,510.573 489.556,510.573 " />
<polyline points="655.933,514.735 655.933,534.311 " />
<polyline points="651.651,514.735 655.933,514.735 " />
<polyline points="651.651,534.311 655.933,534.311 " />
<polyline points="477.775,395.853 476.551,396.464 475.328,397.688 474.716,398.911 474.104,400.747 474.104,403.805 474.716,405.641 475.328,406.864 476.551,408.087 477.775,408.699 480.222,408.699 481.445,408.087 482.668,406.864 483.28,405.641 483.892,403.805 483.892,400.747 483.28,398.911 482.668,397.688 481.445,396.464 480.222,395.853 477.775,395.853 " />
<polyline points="479.61,406.252 483.28,409.923 " />
<polyline points="494.662,407.512 493.989,406.839 492.98,406.502 491.634,406.502 490.624,406.839 489.952,407.512 489.952,408.185 490.288,408.858 490.624,409.194 491.297,409.531 493.316,410.204 493.989,410.54 494.326,410.876 494.662,411.549 494.662,412.559 493.989,413.232 492.98,413.568 491.634,413.568 490.624,413.232 489.952,412.559 " />
<polyline points="483.47,169.137 735.257,169.137 " />
<polyline points="483.47,194.577 735.257,194.577 " />
<polyline points="483.47,212.067 735.257,212.067 " />
<polyline points="483.47,278.849 735.257,278.849 " />
<polyline points="621.036,200.184 621.036,206.144 " />
<polyline points="621.036,201.887 622.313,200.61 623.164,200.184 624.441,200.184 625.293,200.61 625.718,201.887 625.718,206.144 " />
<polyline points="625.718,201.887 626.995,200.61 627.847,200.184 629.124,200.184 629.975,200.61 630.401,201.887 630.401,206.144 " />
<polyline points="633.807,200.184 633.807,206.144 " />
<polyline points="633.807,201.887 635.084,200.61 635.935,200.184 637.212,200.184 638.064,200.61 638.489,201.887 638.489,206.144 " />
<polyline points="638.489,201.887 639.766,200.61 640.618,200.184 641.895,200.184 642.746,200.61 643.172,201.887 643.172,206.144 " />
<polyline points="603.582,219.628 599.325,228.568 " />
<polyline points="597.622,219.628 603.582,219.628 " />
<polyline points="611.244,219.628 606.987,219.628 606.562,223.46 606.987,223.034 608.264,222.608 609.542,222.608 610.819,223.034 611.67,223.885 612.096,225.163 612.096,226.014 611.67,227.291 610.819,228.142 609.542,228.568 608.264,228.568 606.987,228.142 606.562,227.717 606.136,226.865 " />
<polyline points="624.015,224.737 631.678,224.737 " />
<polyline points="644.024,221.757 644.024,221.331 644.449,220.48 644.875,220.054 645.726,219.628 647.429,219.628 648.281,220.054 648.706,220.48 649.132,221.331 649.132,222.183 648.706,223.034 647.855,224.311 643.598,228.568 649.558,228.568 " />
<polyline points="654.666,219.628 653.389,220.054 652.538,221.331 652.112,223.46 652.112,224.737 652.538,226.865 653.389,228.142 654.666,228.568 655.518,228.568 656.795,228.142 657.646,226.865 658.072,224.737 658.072,223.46 657.646,221.331 656.795,220.054 655.518,219.628 654.666,219.628 " />
<polyline points="663.18,219.628 661.903,220.054 661.052,221.331 660.626,223.46 660.626,224.737 661.052,226.865 661.903,228.142 663.18,228.568 664.032,228.568 665.309,228.142 666.16,226.865 666.586,224.737 666.586,223.46 666.16,221.331 665.309,220.054 664.032,219.628 663.18,219.628 " />
<polyline points="593.79,236.231 593.79,235.805 594.216,234.954 594.642,234.528 595.493,234.102 597.196,234.102 598.047,234.528 598.473,234.954 598.899,235.805 598.899,236.657 598.473,237.508 597.622,238.785 593.365,243.042 599.325,243.042 " />
<polyline points="602.305,236.231 602.305,235.805 602.73,234.954 603.156,234.528 604.007,234.102 605.71,234.102 606.562,234.528 606.987,234.954 607.413,235.805 607.413,236.657 606.987,237.508 606.136,238.785 601.879,243.042 607.839,243.042 " />
<polyline points="612.947,234.102 611.67,234.528 610.819,235.805 610.393,237.934 610.393,239.211 610.819,241.339 611.67,242.616 612.947,243.042 613.799,243.042 615.076,242.616 615.927,241.339 616.353,239.211 616.353,237.934 615.927,235.805 615.076,234.528 613.799,234.102 612.947,234.102 " />
<polyline points="628.272,239.211 635.935,239.211 " />
<polyline points="648.706,234.102 653.389,234.102 650.835,237.508 652.112,237.508 652.963,237.934 653.389,238.359 653.815,239.636 653.815,240.488 653.389,241.765 652.538,242.616 651.26,243.042 649.983,243.042 648.706,242.616 648.281,242.191 647.855,241.339 " />
<polyline points="661.477,234.102 657.22,234.102 656.795,237.934 657.22,237.508 658.497,237.082 659.775,237.082 661.052,237.508 661.903,238.359 662.329,239.636 662.329,240.488 661.903,241.765 661.052,242.616 659.775,243.042 658.497,243.042 657.22,242.616 656.795,242.191 656.369,241.339 " />
<polyline points="667.437,234.102 666.16,234.528 665.309,235.805 664.883,237.934 664.883,239.211 665.309,241.339 666.16,242.616 667.437,243.042 668.289,243.042 669.566,242.616 670.417,241.339 670.843,239.211 670.843,237.934 670.417,235.805 669.566,234.528 668.289,234.102 667.437,234.102 " />
<polyline points="594.216,248.576 598.899,248.576 596.345,251.982 597.622,251.982 598.473,252.408 598.899,252.833 599.325,254.11 599.325,254.962 598.899,256.239 598.047,257.09 596.77,257.516 595.493,257.516 594.216,257.09 593.79,256.665 593.365,255.813 " />
<polyline points="607.839,248.576 603.582,257.516 " />
<polyline points="601.879,248.576 607.839,248.576 " />
<polyline points="612.947,248.576 611.67,249.002 610.819,250.279 610.393,252.408 610.393,253.685 610.819,255.813 611.67,257.09 612.947,257.516 613.799,257.516 615.076,257.09 615.927,255.813 616.353,253.685 616.353,252.408 615.927,250.279 615.076,249.002 613.799,248.576 612.947,248.576 " />
<polyline points="628.272,253.685 635.935,253.685 " />
<polyline points="653.389,249.853 652.963,249.002 651.686,248.576 650.835,248.576 649.558,249.002 648.706,250.279 648.281,252.408 648.281,254.536 648.706,256.239 649.558,257.09 650.835,257.516 651.26,257.516 652.538,257.09 653.389,256.239 653.815,254.962 653.815,254.536 653.389,253.259 652.538,252.408 651.26,251.982 650.835,251.982 649.558,252.408 648.706,253.259 648.281,254.536 " />
<polyline points="661.903,249.853 661.477,249.002 660.2,248.576 659.349,248.576 658.072,249.002 657.22,250.279 656.795,252.408 656.795,254.536 657.22,256.239 658.072,257.09 659.349,257.516 659.775,257.516 661.052,257.09 661.903,256.239 662.329,254.962 662.329,254.536 661.903,253.259 661.052,252.408 659.775,251.982 659.349,251.982 658.072,252.408 657.22,253.259 656.795,254.536 " />
<polyline points="667.437,248.576 666.16,249.002 665.309,250.279 664.883,252.408 664.883,253.685 665.309,255.813 666.16,257.09 667.437,257.516 668.289,257.516 669.566,257.09 670.417,255.813 670.843,253.685 670.843,252.408 670.417,250.279 669.566,249.002 668.289,248.576 667.437,248.576 " />
<polyline points="611.244,264.327 618.056,268.159 611.244,271.99 " />
<polyline points="635.509,264.327 635.084,263.476 633.807,263.05 632.955,263.05 631.678,263.476 630.827,264.753 630.401,266.882 630.401,269.01 630.827,270.713 631.678,271.564 632.955,271.99 633.381,271.99 634.658,271.564 635.509,270.713 635.935,269.436 635.935,269.01 635.509,267.733 634.658,266.882 633.381,266.456 632.955,266.456 631.678,266.882 630.827,267.733 630.401,269.01 " />
<polyline points="644.024,264.327 643.598,263.476 642.321,263.05 641.469,263.05 640.192,263.476 639.341,264.753 638.915,266.882 638.915,269.01 639.341,270.713 640.192,271.564 641.469,271.99 641.895,271.99 643.172,271.564 644.024,270.713 644.449,269.436 644.449,269.01 644.024,267.733 643.172,266.882 641.895,266.456 641.469,266.456 640.192,266.882 639.341,267.733 638.915,269.01 " />
<polyline points="649.558,263.05 648.281,263.476 647.429,264.753 647.003,266.882 647.003,268.159 647.429,270.287 648.281,271.564 649.558,271.99 650.409,271.99 651.686,271.564 652.538,270.287 652.963,268.159 652.963,266.882 652.538,264.753 651.686,263.476 650.409,263.05 649.558,263.05 " />
<polyline points="519.232,264.327 526.043,268.159 519.232,271.99 " />
<polyline points="538.389,265.179 538.389,264.753 538.814,263.902 539.24,263.476 540.091,263.05 541.794,263.05 542.646,263.476 543.071,263.902 543.497,264.753 543.497,265.604 543.071,266.456 542.22,267.733 537.963,271.99 543.923,271.99 " />
<polyline points="552.011,264.327 551.585,263.476 550.308,263.05 549.457,263.05 548.18,263.476 547.328,264.753 546.903,266.882 546.903,269.01 547.328,270.713 548.18,271.564 549.457,271.99 549.883,271.99 551.16,271.564 552.011,270.713 552.437,269.436 552.437,269.01 552.011,267.733 551.16,266.882 549.883,266.456 549.457,266.456 548.18,266.882 547.328,267.733 546.903,269.01 " />
<polyline points="488.581,250.279 489.433,249.853 490.71,248.576 490.71,257.516 " />
<polyline points="500.075,248.576 495.818,254.536 502.204,254.536 " />
<polyline points="500.075,248.576 500.075,257.516 " />
<polyline points="514.549,250.279 515.401,249.853 516.678,248.576 516.678,257.516 " />
<polyline points="529.023,246.873 521.36,260.496 " />
<polyline points="531.577,250.705 531.577,250.279 532.003,249.428 532.429,249.002 533.28,248.576 534.983,248.576 535.834,249.002 536.26,249.428 536.686,250.279 536.686,251.13 536.26,251.982 535.409,253.259 531.152,257.516 537.111,257.516 " />
<polyline points="549.031,253.685 556.694,253.685 " />
<polyline points="569.039,250.705 569.039,250.279 569.465,249.428 569.891,249.002 570.742,248.576 572.445,248.576 573.296,249.002 573.722,249.428 574.148,250.279 574.148,251.13 573.722,251.982 572.871,253.259 568.614,257.516 574.573,257.516 " />
<polyline points="582.662,249.853 582.236,249.002 580.959,248.576 580.108,248.576 578.83,249.002 577.979,250.279 577.553,252.408 577.553,254.536 577.979,256.239 578.83,257.09 580.108,257.516 580.533,257.516 581.81,257.09 582.662,256.239 583.087,254.962 583.087,254.536 582.662,253.259 581.81,252.408 580.533,251.982 580.108,251.982 578.83,252.408 577.979,253.259 577.553,254.536 " />
<polyline points="494.115,234.102 492.838,234.528 492.413,235.379 492.413,236.231 492.838,237.082 493.69,237.508 495.392,237.934 496.67,238.359 497.521,239.211 497.947,240.062 497.947,241.339 497.521,242.191 497.095,242.616 495.818,243.042 494.115,243.042 492.838,242.616 492.413,242.191 491.987,241.339 491.987,240.062 492.413,239.211 493.264,238.359 494.541,237.934 496.244,237.508 497.095,237.082 497.521,236.231 497.521,235.379 497.095,234.528 495.818,234.102 494.115,234.102 " />
<polyline points="510.718,235.805 511.569,235.379 512.846,234.102 512.846,243.042 " />
<polyline points="525.192,232.4 517.529,246.022 " />
<polyline points="527.746,236.231 527.746,235.805 528.172,234.954 528.597,234.528 529.449,234.102 531.152,234.102 532.003,234.528 532.429,234.954 532.854,235.805 532.854,236.657 532.429,237.508 531.577,238.785 527.32,243.042 533.28,243.042 " />
<polyline points="545.2,239.211 552.862,239.211 " />
<polyline points="566.059,235.805 566.911,235.379 568.188,234.102 568.188,243.042 " />
<polyline points="577.553,234.102 573.296,240.062 579.682,240.062 " />
<polyline points="577.553,234.102 577.553,243.042 " />
<polyline points="514.975,219.628 519.658,219.628 517.103,223.034 518.38,223.034 519.232,223.46 519.658,223.885 520.083,225.163 520.083,226.014 519.658,227.291 518.806,228.142 517.529,228.568 516.252,228.568 514.975,228.142 514.549,227.717 514.123,226.865 " />
<polyline points="532.003,224.737 539.666,224.737 " />
<polyline points="553.714,219.628 552.437,220.054 552.011,220.906 552.011,221.757 552.437,222.608 553.288,223.034 554.991,223.46 556.268,223.885 557.12,224.737 557.545,225.588 557.545,226.865 557.12,227.717 556.694,228.142 555.417,228.568 553.714,228.568 552.437,228.142 552.011,227.717 551.585,226.865 551.585,225.588 552.011,224.737 552.862,223.885 554.14,223.46 555.842,223.034 556.694,222.608 557.12,221.757 557.12,220.906 556.694,220.054 555.417,219.628 553.714,219.628 " />
<polyline points="483.47,278.849 483.47,169.137 " />
<polyline points="588.118,278.849 588.118,194.577 " />
<polyline points="529.449,197.63 529.874,198.056 530.3,197.63 529.874,197.204 529.449,197.63 " />
<polyline points="529.874,200.61 529.874,206.144 " />
<polyline points="533.28,200.184 533.28,206.144 " />
<polyline points="533.28,201.887 534.557,200.61 535.409,200.184 536.686,200.184 537.537,200.61 537.963,201.887 537.963,206.144 " />
<polyline points="541.794,205.293 541.368,205.718 541.794,206.144 542.22,205.718 541.794,205.293 " />
<polyline points="556.013,175.741 556.013,184.681 " />
<polyline points="556.013,175.741 558.993,175.741 560.27,176.167 561.121,177.018 561.547,177.87 561.973,179.147 561.973,181.275 561.547,182.553 561.121,183.404 560.27,184.255 558.993,184.681 556.013,184.681 " />
<polyline points="735.257,278.849 735.257,169.137 " />
<polyline points="700.1,278.849 700.1,194.577 " />
<polyline points="675.36,278.849 675.36,169.137 " />
<polyline points="681.317,264.753 682.168,264.327 683.445,263.05 683.445,271.99 " />
<polyline points="689.405,263.05 694.088,263.05 691.533,266.456 692.811,266.456 693.662,266.882 694.088,267.307 694.513,268.584 694.513,269.436 694.088,270.713 693.236,271.564 691.959,271.99 690.682,271.99 689.405,271.564 688.979,271.139 688.554,270.287 " />
<polyline points="681.317,250.279 682.168,249.853 683.445,248.576 683.445,257.516 " />
<polyline points="691.108,248.576 689.831,249.002 688.979,250.279 688.554,252.408 688.554,253.685 688.979,255.813 689.831,257.09 691.108,257.516 691.959,257.516 693.236,257.09 694.088,255.813 694.513,253.685 694.513,252.408 694.088,250.279 693.236,249.002 691.959,248.576 691.108,248.576 " />
<polyline points="706.47,250.705 706.47,250.279 706.896,249.428 707.321,249.002 708.173,248.576 709.876,248.576 710.727,249.002 711.153,249.428 711.578,250.279 711.578,251.13 711.153,251.982 710.301,253.259 706.044,257.516 712.004,257.516 " />
<polyline points="719.667,248.576 715.41,248.576 714.984,252.408 715.41,251.982 716.687,251.556 717.964,251.556 719.241,251.982 720.093,252.833 720.518,254.11 720.518,254.962 720.093,256.239 719.241,257.09 717.964,257.516 716.687,257.516 715.41,257.09 714.984,256.665 714.558,255.813 " />
<polyline points="725.627,248.576 724.35,249.002 723.498,250.279 723.072,252.408 723.072,253.685 723.498,255.813 724.35,257.09 725.627,257.516 726.478,257.516 727.755,257.09 728.607,255.813 729.032,253.685 729.032,252.408 728.607,250.279 727.755,249.002 726.478,248.576 725.627,248.576 " />
<polyline points="706.896,263.05 711.578,263.05 709.024,266.456 710.301,266.456 711.153,266.882 711.578,267.307 712.004,268.584 712.004,269.436 711.578,270.713 710.727,271.564 709.45,271.99 708.173,271.99 706.896,271.564 706.47,271.139 706.044,270.287 " />
<polyline points="715.41,263.05 720.093,263.05 717.538,266.456 718.815,266.456 719.667,266.882 720.093,267.307 720.518,268.584 720.518,269.436 720.093,270.713 719.241,271.564 717.964,271.99 716.687,271.99 715.41,271.564 714.984,271.139 714.558,270.287 " />
<polyline points="725.627,263.05 724.35,263.476 723.498,264.753 723.072,266.882 723.072,268.159 723.498,270.287 724.35,271.564 725.627,271.99 726.478,271.99 727.755,271.564 728.607,270.287 729.032,268.159 729.032,266.882 728.607,264.753 727.755,263.476 726.478,263.05 725.627,263.05 " />
<polyline points="706.683,235.805 707.534,235.379 708.811,234.102 708.811,243.042 " />
<polyline points="716.048,234.102 714.771,234.528 714.346,235.379 714.346,236.231 714.771,237.082 715.623,237.508 717.325,237.934 718.603,238.359 719.454,239.211 719.88,240.062 719.88,241.339 719.454,242.191 719.028,242.616 717.751,243.042 716.048,243.042 714.771,242.616 714.346,242.191 713.92,241.339 713.92,240.062 714.346,239.211 715.197,238.359 716.474,237.934 718.177,237.508 719.028,237.082 719.454,236.231 719.454,235.379 719.028,234.528 717.751,234.102 716.048,234.102 " />
<polyline points="724.988,234.102 723.711,234.528 722.86,235.805 722.434,237.934 722.434,239.211 722.86,241.339 723.711,242.616 724.988,243.042 725.84,243.042 727.117,242.616 727.968,241.339 728.394,239.211 728.394,237.934 727.968,235.805 727.117,234.528 725.84,234.102 724.988,234.102 " />
<polyline points="706.683,221.331 707.534,220.906 708.811,219.628 708.811,228.568 " />
<polyline points="716.474,219.628 715.197,220.054 714.346,221.331 713.92,223.46 713.92,224.737 714.346,226.865 715.197,228.142 716.474,228.568 717.325,228.568 718.603,228.142 719.454,226.865 719.88,224.737 719.88,223.46 719.454,221.331 718.603,220.054 717.325,219.628 716.474,219.628 " />
<polyline points="724.988,219.628 723.711,220.054 722.86,221.331 722.434,223.46 722.434,224.737 722.86,226.865 723.711,228.142 724.988,228.568 725.84,228.568 727.117,228.142 727.968,226.865 728.394,224.737 728.394,223.46 727.968,221.331 727.117,220.054 725.84,219.628 724.988,219.628 " />
<polyline points="690.895,234.102 686.638,243.042 " />
<polyline points="684.935,234.102 690.895,234.102 " />
<polyline points="688.979,219.628 684.722,225.588 691.108,225.588 " />
<polyline points="688.979,219.628 688.979,228.568 " />
<polyline points="681.529,197.63 681.955,198.056 682.381,197.63 681.955,197.204 681.529,197.63 " />
<polyline points="681.955,200.61 681.955,206.144 " />
<polyline points="685.361,200.184 685.361,206.144 " />
<polyline points="685.361,201.887 686.638,200.61 687.489,200.184 688.766,200.184 689.618,200.61 690.044,201.887 690.044,206.144 " />
<polyline points="693.875,205.293 693.449,205.718 693.875,206.144 694.301,205.718 693.875,205.293 " />
<polyline points="701.144,175.741 701.144,184.681 " />
<polyline points="707.104,175.741 707.104,184.681 " />
<polyline points="701.144,179.998 707.104,179.998 " />
<polyline points="706.47,200.184 706.47,206.144 " />
<polyline points="706.47,201.887 707.747,200.61 708.599,200.184 709.876,200.184 710.727,200.61 711.153,201.887 711.153,206.144 " />
<polyline points="711.153,201.887 712.43,200.61 713.281,200.184 714.558,200.184 715.41,200.61 715.835,201.887 715.835,206.144 " />
<polyline points="719.241,200.184 719.241,206.144 " />
<polyline points="719.241,201.887 720.518,200.61 721.37,200.184 722.647,200.184 723.498,200.61 723.924,201.887 723.924,206.144 " />
<polyline points="723.924,201.887 725.201,200.61 726.052,200.184 727.329,200.184 728.181,200.61 728.607,201.887 728.607,206.144 " />
<polyline points="332.09,343.845 332.09,343.419 " />
<polyline points="332.09,503.347 332.09,515.437 " />
<polyline points="379.231,505.461 379.231,515.437 " />
<polyline points="343.652,512.225 367.669,512.225 " />
</g>
<g clip-path="url(#clipId0)" fill="rgb(0,0,0)" stroke="rgb(0,0,0)" stroke-width="0.25" >
<path d="M343.652,510.298 343.652,514.152 332.09,512.225 332.09,512.225 z" />
<path d="M367.669,510.298 367.669,514.152 379.231,512.225 379.231,512.225 z" />
</g>
<g clip-path="url(#clipId0)" fill="none" stroke="rgb(0,0,0)" stroke-width="0.25" >
<polyline points="379.231,505.461 379.231,474.912 " />
<polyline points="367.669,512.225 405.926,512.225 " />
<polyline points="606.23,175.77 606.23,184.763 " />
<polyline points="606.23,175.77 609.227,175.77 610.512,176.198 611.368,177.055 611.797,177.911 612.225,179.196 612.225,181.337 611.797,182.621 611.368,183.478 610.512,184.334 609.227,184.763 606.23,184.763 " />
<polyline points="565.627,182.194 565.627,188.617 " />
<polyline points="565.627,185.252 566.239,184.641 566.85,184.335 567.768,184.335 568.38,184.641 568.991,185.252 569.297,186.17 569.297,186.782 568.991,187.699 568.38,188.311 567.768,188.617 566.85,188.617 566.239,188.311 565.627,187.699 " />
<polyline points="572.05,183.417 572.662,183.111 573.58,182.194 573.58,188.617 " />
<polyline points="616.54,182.194 616.54,188.617 " />
<polyline points="616.54,185.252 617.152,184.641 617.764,184.335 618.681,184.335 619.293,184.641 619.905,185.252 620.211,186.17 620.211,186.782 619.905,187.699 619.293,188.311 618.681,188.617 617.764,188.617 617.152,188.311 616.54,187.699 " />
<polyline points="622.352,183.723 622.352,183.417 622.658,182.805 622.964,182.5 623.575,182.194 624.799,182.194 625.411,182.5 625.716,182.805 626.022,183.417 626.022,184.029 625.716,184.641 625.105,185.558 622.046,188.617 626.328,188.617 " />
<polyline points="593.856,179.642 593.856,179.183 593.397,178.725 592.938,178.725 592.479,179.183 592.02,180.101 591.103,182.395 590.185,183.772 589.268,184.689 588.35,185.148 586.515,185.148 585.597,184.689 585.138,184.23 584.679,183.313 584.679,182.395 585.138,181.478 585.597,181.019 588.809,179.183 589.268,178.725 589.726,177.807 589.726,176.889 589.268,175.972 588.35,175.513 587.432,175.972 586.974,176.889 586.974,177.807 587.432,179.183 588.35,180.56 590.644,183.772 591.562,184.689 592.479,185.148 593.397,185.148 593.856,184.689 593.856,184.23 " />
</g>
</svg>
