<?xml version="1.0" standalone="no"?>
<svg viewBox="0 0 1024 768" version="1.1" xmlns="http://www.w3.org/2000/svg" xmlns:xlink="http://www.w3.org/1999/xlink" stroke-linecap="round" stroke-linejoin="round" fill-rule="evenodd" xml:space="preserve" >
<defs >
<clipPath id="clipId0" >
<path d="M0,768 1024,768 1024,0 0,0 z" />
</clipPath>
</defs>
<g clip-path="url(#clipId0)" fill="none" stroke="rgb(0,0,0)" stroke-width="0.1" />
<g clip-path="url(#clipId0)" fill="none" stroke="rgb(0,0,0)" stroke-width="0.25" >
<polyline points="562.383,434.301 249.648,469.841 " stroke-dasharray="8.524069,4.262034" />
<path d="M549.237,465.901  A24.4229,24.4229 0 0,0 551.237,421.87 " />
<path d="M553.237,377.839  A24.4229,24.4229 0 0,0 551.237,421.87 " />
<path d="M551.237,421.87  A24.4229,24.4229 0 0,0 553.237,377.839 " />
<polyline points="192.114,593.586 672.968,540.469 " />
<path d="M672.968,540.469  A34.8708,34.8708 0 0,0 666.563,482.481 " />
<path d="M660.157,424.494  A34.8708,34.8708 0 0,0 666.563,482.481 " />
<polyline points="751.193,472.155 694.343,479.619 " />
</g>
<g clip-path="url(#clipId0)" fill="rgb(0,0,0)" stroke="rgb(0,0,0)" stroke-width="0.25" >
<path d="M750.89,469.526 751.495,474.783 766.964,470.338 766.964,470.338 z" />
</g>
<g clip-path="url(#clipId0)" fill="none" stroke="rgb(0,0,0)" stroke-width="0.25" >
<path d="M666.563,482.481  A34.8708,34.8708 0 0,0 660.157,424.494 " />
</g>
<g clip-path="url(#clipId0)" fill="rgb(0,0,0)" stroke="rgb(0,0,0)" stroke-width="0.25" >
<path d="M625.627,418.586 625.825,423.875 641.59,420.635 641.59,420.635 z" />
</g>
<g clip-path="url(#clipId0)" fill="none" stroke="rgb(0,0,0)" stroke-width="0.25" >
<polyline points="639.815,421.23 567.222,421.741 " />
<polyline points="218.713,590.827 219.868,588.778 220.887,586.852 221.783,585.035 222.571,583.315 223.264,581.676 223.876,580.104 224.421,578.587 224.913,577.11 225.364,575.66 225.777,574.232 226.155,572.82 226.498,571.419 226.808,570.025 227.088,568.632 227.338,567.237 227.56,565.833 227.756,564.417 227.928,562.992 228.077,561.56 228.205,560.124 228.313,558.689 228.403,557.257 228.476,555.832 228.535,554.416 228.581,553.011 228.612,551.61 228.626,550.202 228.623,548.777 228.599,547.327 228.555,545.841 228.488,544.309 228.396,542.721 228.279,541.073 228.137,539.375 227.972,537.645 227.787,535.899 227.581,534.153 227.358,532.423 227.118,530.725 226.864,529.077 226.596,527.49 226.315,525.964 226.021,524.493 225.714,523.073 225.394,521.698 225.061,520.365 224.715,519.067 224.356,517.8 223.984,516.56 223.601,515.346 223.207,514.158 222.806,512.996 222.398,511.861 221.985,510.751 221.569,509.668 221.152,508.611 220.734,507.58 220.316,506.575 219.898,505.596 219.48,504.643 219.062,503.716 218.644,502.816 218.226,501.941 217.808,501.093 217.39,500.27 216.972,499.472 216.554,498.697 216.136,497.943 215.718,497.208 215.3,496.492 214.882,495.791 214.464,495.106 214.046,494.434 213.626,493.775 213.203,493.128 212.775,492.495 212.34,491.875 211.898,491.269 211.445,490.675 210.981,490.094 210.504,489.526 210.015,488.969 209.512,488.422 208.996,487.884 208.467,487.351 207.925,486.824 207.37,486.3 206.802,485.778 206.22,485.255 205.622,484.731 205.004,484.204 204.364,483.672 203.697,483.133 203.001,482.586 202.272,482.03 201.507,481.462 200.698,480.881 199.814,480.288 198.82,479.683 197.679,479.067 196.356,478.441 194.816,477.804 193.023,477.159 190.941,476.505 " />
<path d="M146.561,481.405  A34.8708,34.8708 0 0,0 152.967,539.393 " />
<polyline points="380.096,418.937 381.113,423.799 382.271,428.384 383.557,432.729 384.955,436.871 386.451,440.847 388.031,444.693 389.679,448.446 391.381,452.143 393.154,455.835 395.136,459.632 397.501,463.659 400.42,468.041 404.063,472.902 408.602,478.368 414.21,484.564 421.056,491.613 " />
<polyline points="384.901,572.29 386.056,570.241 387.075,568.315 387.971,566.498 388.759,564.778 389.452,563.138 390.064,561.567 390.609,560.05 391.101,558.573 391.552,557.123 391.965,555.695 392.343,554.283 392.686,552.882 392.996,551.488 393.276,550.095 393.526,548.699 393.748,547.296 393.944,545.88 394.116,544.454 394.265,543.022 394.392,541.587 394.501,540.152 394.591,538.72 394.664,537.295 394.723,535.879 394.769,534.474 394.8,533.073 394.814,531.665 394.81,530.24 394.787,528.79 394.743,527.304 394.676,525.772 394.584,524.184 394.467,522.536 394.325,520.838 394.16,519.108 393.975,517.362 393.769,515.616 393.546,513.886 393.306,512.188 393.052,510.54 392.784,508.953 392.552,507.691 " />
<polyline points="391.795,504.076 391.582,503.161 391.249,501.827 390.903,500.53 390.544,499.263 390.172,498.023 389.794,496.828 " />
<polyline points="388.666,493.547 388.586,493.324 388.173,492.214 387.757,491.131 387.339,490.074 386.921,489.043 386.886,488.958 " />
</g>
<g clip-path="url(#clipId0)" fill="rgb(0,0,0)" stroke="rgb(0,0,0)" stroke-width="0.25" >
<path d="M111.369,541.688 111.941,546.949 127.438,542.604 127.438,542.604 z" />
</g>
<g clip-path="url(#clipId0)" fill="none" stroke="rgb(0,0,0)" stroke-width="0.25" >
<path d="M152.967,539.393  A34.8708,34.8708 0 0,0 159.373,597.38 " />
<path d="M159.373,597.38  A34.8708,34.8708 0 0,0 152.967,539.393 " />
<polyline points="111.655,544.319 42.8714,551.532 " />
<polyline points="469.54,377.17 426.908,396.383 " />
<polyline points="426.908,396.383 429.302,404.715 431.482,411.664 433.472,417.414 435.293,422.148 436.967,426.051 438.516,429.304 439.962,432.093 441.327,434.6 442.645,437 443.995,439.426 445.467,442.005 447.153,444.86 449.142,448.116 451.525,451.898 454.393,456.331 457.837,461.54 " />
<polyline points="486.258,464.047 549.237,465.901 " />
<polyline points="519.695,378.005 518.002,385.88 516.651,392.681 515.595,398.552 514.784,403.631 514.168,408.062 513.7,411.984 513.329,415.539 513.007,418.868 512.696,422.093 512.394,425.259 512.111,428.393 511.858,431.52 511.644,434.667 511.479,437.859 511.373,441.123 511.336,444.485 511.372,447.947 511.468,451.412 511.606,454.761 511.768,457.872 511.936,460.625 512.091,462.9 512.215,464.576 512.29,465.533 " />
<polyline points="469.54,377.17 469.046,382.494 468.802,387.262 468.783,391.586 468.965,395.574 469.323,399.336 469.834,402.984 470.471,406.627 471.211,410.375 472.047,414.352 473.034,418.732 474.246,423.704 475.757,429.458 477.64,436.18 479.969,444.06 482.817,453.286 486.258,464.047 " />
<polyline points="457.579,461.155 467.868,471.565 " />
<polyline points="467.868,471.565 486.258,464.047 " />
<polyline points="365.554,461.479 365.008,461.146 363.867,460.53 362.544,459.904 361.004,459.267 359.211,458.622 357.129,457.968 " />
<polyline points="374.503,468.666 374.113,468.287 373.558,467.763 372.99,467.241 372.408,466.718 371.81,466.194 371.192,465.667 370.551,465.135 369.885,464.596 369.189,464.049 368.46,463.493 368.232,463.324 " />
<polyline points="385.554,485.854 385.25,485.179 384.832,484.278 384.414,483.404 383.996,482.556 383.578,481.733 383.16,480.935 382.742,480.16 382.607,479.917 " />
<polyline points="380.963,477.079 380.652,476.569 380.234,475.897 379.814,475.237 379.391,474.591 378.963,473.958 378.528,473.338 378.086,472.731 377.633,472.138 377.169,471.557 376.692,470.989 376.689,470.985 " />
<polyline points="179.302,477.612 249.648,469.841 " />
<polyline points="707.197,743.629 705.769,742.201 703.625,741.486 700.768,741.486 698.625,742.201 697.196,743.629 697.196,745.058 697.91,746.487 698.625,747.201 700.053,747.916 704.34,749.345 705.769,750.059 706.483,750.773 707.197,752.202 707.197,754.345 705.769,755.774 703.625,756.489 700.768,756.489 698.625,755.774 697.196,754.345 " />
<polyline points="712.198,741.486 712.198,756.489 " />
<polyline points="712.198,741.486 717.199,741.486 719.342,742.201 720.771,743.629 721.485,745.058 722.2,747.201 722.2,750.773 721.485,752.917 720.771,754.345 719.342,755.774 717.199,756.489 712.198,756.489 " />
<polyline points="735.059,741.486 727.915,741.486 727.2,747.916 727.915,747.201 730.058,746.487 732.201,746.487 734.344,747.201 735.773,748.63 736.488,750.773 736.488,752.202 735.773,754.345 734.344,755.774 732.201,756.489 730.058,756.489 727.915,755.774 727.2,755.06 726.486,753.631 " />
<polyline points="741.488,750.059 754.348,750.059 " />
<polyline points="769.35,741.486 762.206,756.489 " />
<polyline points="759.348,741.486 769.35,741.486 " />
<polyline points="192.114,593.586 159.373,597.38 " />
<polyline points="179.302,477.612 146.561,481.405 " />
<polyline points="562.383,434.301 660.157,424.494 " />
<polyline points="97.0367,563.349 96.6619,562.599 95.9122,561.849 95.1626,561.475 93.6633,561.475 92.9137,561.849 92.1641,562.599 91.7893,563.349 91.4144,564.473 91.4144,566.347 91.7893,567.472 92.1641,568.221 92.9137,568.971 93.6633,569.346 95.1626,569.346 95.9122,568.971 96.6619,568.221 97.0367,567.472 " />
<polyline points="80.5542,552.738 75.5566,565.857 " />
<polyline points="80.5542,552.738 85.5517,565.857 " />
<polyline points="77.4307,561.484 83.6776,561.484 " />
<polyline points="85.1308,532.129 84.756,531.38 84.0064,530.63 83.2568,530.255 81.7575,530.255 81.0079,530.63 80.2582,531.38 79.8834,532.129 79.5086,533.254 79.5086,535.128 79.8834,536.252 80.2582,537.002 81.0079,537.752 81.7575,538.126 83.2568,538.126 84.0064,537.752 84.756,537.002 85.1308,536.252 " />
<polyline points="68.6483,521.519 67.3989,522.144 66.1496,523.393 65.5249,524.642 64.9002,526.516 64.9002,529.64 65.5249,531.514 66.1496,532.763 67.3989,534.013 68.6483,534.637 71.1471,534.637 72.3965,534.013 73.6459,532.763 74.2706,531.514 74.8952,529.64 74.8952,526.516 74.2706,524.642 73.6459,523.393 72.3965,522.144 71.1471,521.519 68.6483,521.519 " />
<polyline points="70.5224,532.139 74.2706,535.887 " />
<polyline points="587.459,408.271 587.459,416.143 " />
<polyline points="587.459,412.02 588.209,411.27 588.958,410.895 590.083,410.895 590.833,411.27 591.582,412.02 591.957,413.144 591.957,413.894 591.582,415.018 590.833,415.768 590.083,416.143 588.958,416.143 588.209,415.768 587.459,415.018 " />
<polyline points="576.945,400.896 575.696,401.521 574.446,402.77 573.822,404.02 573.197,405.894 573.197,409.017 573.822,410.891 574.446,412.141 575.696,413.39 576.945,414.015 579.444,414.015 580.693,413.39 581.943,412.141 582.567,410.891 583.192,409.017 583.192,405.894 582.567,404.02 581.943,402.77 580.693,401.521 579.444,400.896 576.945,400.896 " />
<polyline points="578.819,411.516 582.567,415.264 " />
<polyline points="619.078,408.401 619.078,416.272 " />
<polyline points="619.078,412.149 619.828,411.399 620.578,411.025 621.702,411.025 622.452,411.399 623.201,412.149 623.576,413.274 623.576,414.023 623.201,415.148 622.452,415.897 621.702,416.272 620.578,416.272 619.828,415.897 619.078,415.148 " />
<polyline points="608.564,401.026 603.567,414.144 " />
<polyline points="608.564,401.026 613.562,414.144 " />
<polyline points="605.441,409.772 611.688,409.772 " />
<polyline points="730.391,460.599 729.641,459.849 728.517,459.474 727.017,459.474 725.893,459.849 725.143,460.599 725.143,461.348 725.518,462.098 725.893,462.473 726.643,462.848 728.892,463.597 729.641,463.972 730.016,464.347 730.391,465.097 730.391,466.221 729.641,466.971 728.517,467.345 727.017,467.345 725.893,466.971 725.143,466.221 " />
<polyline points="739.32,494.79 738.571,494.04 737.446,493.665 735.947,493.665 734.822,494.04 734.073,494.79 734.073,495.539 734.448,496.289 734.822,496.664 735.572,497.039 737.821,497.788 738.571,498.163 738.945,498.538 739.32,499.287 739.32,500.412 738.571,501.162 737.446,501.536 735.947,501.536 734.822,501.162 734.073,500.412 " />
<polyline points="722.868,485.201 717.871,498.32 " />
<polyline points="722.868,485.201 727.866,498.32 " />
<polyline points="719.745,493.947 725.992,493.947 " />
<polyline points="713.939,451.01 712.69,451.635 711.44,452.884 710.816,454.134 710.191,456.008 710.191,459.131 710.816,461.005 711.44,462.255 712.69,463.504 713.939,464.129 716.438,464.129 717.687,463.504 718.937,462.255 719.561,461.005 720.186,459.131 720.186,456.008 719.561,454.134 718.937,452.884 717.687,451.635 716.438,451.01 713.939,451.01 " />
<polyline points="715.813,461.63 719.561,465.378 " />
</g>
<g clip-path="url(#clipId0)" fill="rgb(0,0,0)" stroke="rgb(0,0,0)" stroke-width="0.25" >
<path d="M294.358,589.509 297.537,592.086 303.677,581.263 303.677,581.263 z" />
</g>
<g clip-path="url(#clipId0)" fill="none" stroke="rgb(0,0,0)" stroke-width="0.25" >
<polyline points="295.947,590.798 260.489,634.536 " />
<polyline points="260.489,634.536 275.371,634.536 " />
<polyline points="275.371,634.536 281.509,634.536 " />
</g>
<g clip-path="url(#clipId0)" fill="rgb(0,0,0)" stroke="rgb(0,0,0)" stroke-width="0.25" >
<path d="M529.497,367.204 526.362,369.833 535.815,377.925 535.815,377.925 z" />
</g>
<g clip-path="url(#clipId0)" fill="none" stroke="rgb(0,0,0)" stroke-width="0.25" >
<polyline points="527.929,368.519 501.583,337.091 " />
<polyline points="501.583,337.091 522.418,337.091 " />
<polyline points="406.441,283.55 412.156,283.55 409.039,287.707 410.597,287.707 411.636,288.226 412.156,288.746 412.676,290.305 412.676,291.344 412.156,292.902 411.117,293.942 409.558,294.461 408,294.461 406.441,293.942 405.921,293.422 405.402,292.383 " />
<polyline points="418.91,283.55 417.352,284.07 416.313,285.629 415.793,288.226 415.793,289.785 416.313,292.383 417.352,293.942 418.91,294.461 419.949,294.461 421.508,293.942 422.547,292.383 423.067,289.785 423.067,288.226 422.547,285.629 421.508,284.07 419.949,283.55 418.91,283.55 " />
<ellipse rx="1.03912" ry="1.03912" cx="426.184" cy="284.589" />
<polyline points="442.291,283.55 442.291,294.461 " />
<polyline points="442.291,283.55 449.045,283.55 " />
<polyline points="442.291,288.746 446.447,288.746 " />
<polyline points="442.291,294.461 449.045,294.461 " />
<polyline points="452.162,283.55 452.162,294.461 458.397,294.461 " />
<polyline points="460.995,283.55 460.995,294.461 " />
<polyline points="460.995,283.55 465.671,283.55 467.23,284.07 467.749,284.589 468.269,285.629 468.269,286.668 467.749,287.707 467.23,288.226 465.671,288.746 " />
<polyline points="460.995,288.746 465.671,288.746 467.23,289.266 467.749,289.785 468.269,290.824 468.269,292.383 467.749,293.422 467.23,293.942 465.671,294.461 460.995,294.461 " />
<polyline points="474.503,283.55 473.464,284.07 472.425,285.109 471.906,286.148 471.386,287.707 471.386,290.305 471.906,291.863 472.425,292.902 473.464,293.942 474.503,294.461 476.582,294.461 477.621,293.942 478.66,292.902 479.18,291.863 479.699,290.305 479.699,287.707 479.18,286.148 478.66,285.109 477.621,284.07 476.582,283.55 474.503,283.55 " />
<polyline points="482.297,283.55 484.895,294.461 " />
<polyline points="487.493,283.55 484.895,294.461 " />
<polyline points="487.493,283.55 490.09,294.461 " />
<polyline points="492.688,283.55 490.09,294.461 " />
<polyline points="496.845,293.942 496.325,294.461 495.806,293.942 496.325,293.422 496.845,293.942 496.845,294.981 496.325,296.02 495.806,296.539 " />
<polyline points="511.912,283.55 511.912,294.461 " />
<polyline points="511.912,283.55 516.068,294.461 " />
<polyline points="520.225,283.55 516.068,294.461 " />
<polyline points="520.225,283.55 520.225,294.461 " />
<polyline points="524.381,283.55 524.381,294.461 " />
<polyline points="530.616,283.55 530.616,294.461 " />
<polyline points="526.979,283.55 534.253,283.55 " />
<polyline points="536.851,283.55 536.851,294.461 " />
<polyline points="536.851,283.55 543.605,283.55 " />
<polyline points="536.851,288.746 541.007,288.746 " />
<polyline points="536.851,294.461 543.605,294.461 " />
<polyline points="546.723,283.55 546.723,294.461 " />
<polyline points="546.723,283.55 551.399,283.55 552.957,284.07 553.477,284.589 553.997,285.629 553.997,286.668 553.477,287.707 552.957,288.226 551.399,288.746 546.723,288.746 " />
<polyline points="550.36,288.746 553.997,294.461 " />
<polyline points="557.633,283.55 557.633,294.461 " />
<polyline points="557.633,283.55 564.388,283.55 " />
<polyline points="557.633,288.746 561.79,288.746 " />
<polyline points="557.633,294.461 564.388,294.461 " />
<polyline points="567.505,283.55 567.505,294.461 " />
<polyline points="567.505,283.55 571.142,283.55 572.701,284.07 573.74,285.109 574.259,286.148 574.779,287.707 574.779,290.305 574.259,291.863 573.74,292.902 572.701,293.942 571.142,294.461 567.505,294.461 " />
<polyline points="592.964,281.472 591.925,282.511 590.885,284.07 589.846,286.148 589.327,288.746 589.327,290.824 589.846,293.422 590.885,295.5 591.925,297.059 592.964,298.098 " />
<polyline points="603.874,286.148 603.355,285.109 602.316,284.07 601.277,283.55 599.198,283.55 598.159,284.07 597.12,285.109 596.601,286.148 596.081,287.707 596.081,290.305 596.601,291.863 597.12,292.902 598.159,293.942 599.198,294.461 601.277,294.461 602.316,293.942 603.355,292.902 603.874,291.863 " />
<polyline points="607.511,283.55 607.511,294.461 " />
<polyline points="607.511,283.55 611.148,283.55 612.707,284.07 613.746,285.109 614.266,286.148 614.785,287.707 614.785,290.305 614.266,291.863 613.746,292.902 612.707,293.942 611.148,294.461 607.511,294.461 " />
<polyline points="618.942,283.55 624.657,283.55 621.54,287.707 623.098,287.707 624.137,288.226 624.657,288.746 625.177,290.305 625.177,291.344 624.657,292.902 623.618,293.942 622.059,294.461 620.5,294.461 618.942,293.942 618.422,293.422 617.903,292.383 " />
<polyline points="628.813,289.785 638.166,289.785 " />
<polyline points="643.361,285.629 644.4,285.109 645.959,283.55 645.959,294.461 " />
<polyline points="654.792,283.55 653.233,284.07 652.713,285.109 652.713,286.148 653.233,287.187 654.272,287.707 656.35,288.226 657.909,288.746 658.948,289.785 659.468,290.824 659.468,292.383 658.948,293.422 658.429,293.942 656.87,294.461 654.792,294.461 653.233,293.942 652.713,293.422 652.194,292.383 652.194,290.824 652.713,289.785 653.752,288.746 655.311,288.226 657.389,287.707 658.429,287.187 658.948,286.148 658.948,285.109 658.429,284.07 656.87,283.55 654.792,283.55 " />
<polyline points="662.585,281.472 663.624,282.511 664.663,284.07 665.702,286.148 666.222,288.746 666.222,290.824 665.702,293.422 664.663,295.5 663.624,297.059 662.585,298.098 " />
<polyline points="538.528,332.629 538.528,343.54 " />
<polyline points="538.528,332.629 543.204,332.629 544.763,333.148 545.282,333.668 545.802,334.707 545.802,335.746 545.282,336.785 544.763,337.305 543.204,337.824 " />
<polyline points="538.528,337.824 543.204,337.824 544.763,338.344 545.282,338.864 545.802,339.903 545.802,341.461 545.282,342.501 544.763,343.02 543.204,343.54 538.528,343.54 " />
<polyline points="549.439,332.629 549.439,343.54 " />
<polyline points="549.439,332.629 554.115,332.629 555.674,333.148 556.193,333.668 556.713,334.707 556.713,335.746 556.193,336.785 555.674,337.305 554.115,337.824 549.439,337.824 " />
<polyline points="553.076,337.824 556.713,343.54 " />
<polyline points="562.948,332.629 558.791,343.54 " />
<polyline points="562.948,332.629 567.104,343.54 " />
<polyline points="560.35,339.903 565.545,339.903 " />
<polyline points="569.702,332.629 569.702,343.54 " />
<polyline points="569.702,332.629 576.976,343.54 " />
<polyline points="576.976,332.629 576.976,343.54 " />
<polyline points="588.406,335.227 587.887,334.188 586.847,333.148 585.808,332.629 583.73,332.629 582.691,333.148 581.652,334.188 581.132,335.227 580.613,336.785 580.613,339.383 581.132,340.942 581.652,341.981 582.691,343.02 583.73,343.54 585.808,343.54 586.847,343.02 587.887,341.981 588.406,340.942 " />
<polyline points="592.043,332.629 592.043,343.54 " />
<polyline points="599.317,332.629 599.317,343.54 " />
<polyline points="592.043,337.824 599.317,337.824 " />
<polyline points="619.06,332.629 613.865,339.903 621.658,339.903 " />
<polyline points="619.06,332.629 619.06,343.54 " />
<polyline points="630.491,332.629 625.295,332.629 624.775,337.305 625.295,336.785 626.854,336.266 628.412,336.266 629.971,336.785 631.01,337.824 631.53,339.383 631.53,340.422 631.01,341.981 629.971,343.02 628.412,343.54 626.854,343.54 625.295,343.02 624.775,342.501 624.256,341.461 " />
<ellipse rx="1.03912" ry="1.03912" cx="634.647" cy="333.668" />
<polyline points="652.832,332.629 652.832,343.54 " />
<polyline points="649.195,332.629 656.469,332.629 " />
<polyline points="661.664,332.629 660.625,333.148 659.586,334.188 659.067,335.227 658.547,336.785 658.547,339.383 659.067,340.942 659.586,341.981 660.625,343.02 661.664,343.54 663.743,343.54 664.782,343.02 665.821,341.981 666.34,340.942 666.86,339.383 666.86,336.785 666.34,335.227 665.821,334.188 664.782,333.148 663.743,332.629 661.664,332.629 " />
<polyline points="681.408,332.629 681.408,343.54 " />
<polyline points="681.408,332.629 685.564,343.54 " />
<polyline points="689.721,332.629 685.564,343.54 " />
<polyline points="689.721,332.629 689.721,343.54 " />
<polyline points="696.475,332.629 692.319,343.54 " />
<polyline points="696.475,332.629 700.632,343.54 " />
<polyline points="693.877,339.903 699.073,339.903 " />
<polyline points="703.229,332.629 703.229,343.54 " />
<polyline points="707.386,332.629 707.386,343.54 " />
<polyline points="707.386,332.629 714.66,343.54 " />
<polyline points="714.66,332.629 714.66,343.54 " />
</g>
<g clip-path="url(#clipId0)" fill="rgb(0,0,0)" stroke="rgb(0,0,0)" stroke-width="0.25" >
<path d="M438.945,377.387 435.804,380.008 445.239,388.121 445.239,388.121 z" />
</g>
<g clip-path="url(#clipId0)" fill="none" stroke="rgb(0,0,0)" stroke-width="0.25" >
<polyline points="437.374,378.697 361.689,288.012 " />
<polyline points="361.689,288.012 381.036,288.012 " />
<polyline points="381.036,288.012 387.173,288.012 " />
<polyline points="296.797,648.317 296.797,664.943 " />
<polyline points="296.797,648.317 300.434,648.317 " />
<polyline points="296.797,664.943 300.434,664.943 " />
<polyline points="303.031,650.395 305.629,661.306 " />
<polyline points="308.227,650.395 305.629,661.306 " />
<polyline points="308.227,650.395 310.825,661.306 " />
<polyline points="313.423,650.395 310.825,661.306 " />
<polyline points="314.981,650.395 319.138,655.591 319.138,661.306 " />
<polyline points="323.294,650.395 319.138,655.591 " />
<polyline points="325.892,650.395 325.892,661.306 " />
<polyline points="325.892,650.395 332.646,650.395 " />
<polyline points="325.892,655.591 330.049,655.591 " />
<polyline points="325.892,661.306 332.646,661.306 " />
<polyline points="346.675,650.395 346.675,661.306 " />
<polyline points="346.675,650.395 351.351,650.395 352.909,650.915 353.429,651.434 353.949,652.473 353.949,653.513 353.429,654.552 352.909,655.071 351.351,655.591 346.675,655.591 " />
<polyline points="350.312,655.591 353.949,661.306 " />
<polyline points="360.183,650.395 359.144,650.915 358.105,651.954 357.585,652.993 357.066,654.552 357.066,657.15 357.585,658.708 358.105,659.747 359.144,660.786 360.183,661.306 362.262,661.306 363.301,660.786 364.34,659.747 364.859,658.708 365.379,657.15 365.379,654.552 364.859,652.993 364.34,651.954 363.301,650.915 362.262,650.395 360.183,650.395 " />
<polyline points="369.016,650.395 369.016,661.306 375.251,661.306 " />
<polyline points="377.848,650.395 377.848,661.306 384.083,661.306 " />
<polyline points="386.681,650.395 386.681,661.306 " />
<polyline points="386.681,650.395 393.435,650.395 " />
<polyline points="386.681,655.591 390.837,655.591 " />
<polyline points="386.681,661.306 393.435,661.306 " />
<polyline points="396.553,650.395 396.553,661.306 " />
<polyline points="396.553,650.395 400.19,650.395 401.748,650.915 402.787,651.954 403.307,652.993 403.827,654.552 403.827,657.15 403.307,658.708 402.787,659.747 401.748,660.786 400.19,661.306 396.553,661.306 " />
<polyline points="423.05,650.395 417.855,657.669 425.648,657.669 " />
<polyline points="423.05,650.395 423.05,661.306 " />
<polyline points="434.481,650.395 429.285,650.395 428.766,655.071 429.285,654.552 430.844,654.032 432.402,654.032 433.961,654.552 435,655.591 435.52,657.15 435.52,658.189 435,659.747 433.961,660.786 432.402,661.306 430.844,661.306 429.285,660.786 428.766,660.267 428.246,659.228 " />
<ellipse rx="1.03912" ry="1.03912" cx="438.637" cy="651.434" />
<polyline points="296.797,672.704 296.797,683.614 " />
<polyline points="296.797,672.704 303.551,672.704 " />
<polyline points="296.797,677.899 300.953,677.899 " />
<polyline points="306.149,672.704 306.149,683.614 " />
<polyline points="306.149,672.704 310.825,672.704 312.384,673.223 312.903,673.743 313.423,674.782 313.423,675.821 312.903,676.86 312.384,677.38 310.825,677.899 306.149,677.899 " />
<polyline points="309.786,677.899 313.423,683.614 " />
<polyline points="319.657,672.704 318.618,673.223 317.579,674.262 317.06,675.301 316.54,676.86 316.54,679.458 317.06,681.017 317.579,682.056 318.618,683.095 319.657,683.614 321.736,683.614 322.775,683.095 323.814,682.056 324.333,681.017 324.853,679.458 324.853,676.86 324.333,675.301 323.814,674.262 322.775,673.223 321.736,672.704 319.657,672.704 " />
<polyline points="328.49,672.704 328.49,683.614 " />
<polyline points="328.49,672.704 332.646,683.614 " />
<polyline points="336.803,672.704 332.646,683.614 " />
<polyline points="336.803,672.704 336.803,683.614 " />
<polyline points="351.87,672.704 351.87,683.614 " />
<polyline points="359.144,672.704 359.144,683.614 " />
<polyline points="351.87,677.899 359.144,677.899 " />
<polyline points="365.898,672.704 364.859,673.223 363.82,674.262 363.301,675.301 362.781,676.86 362.781,679.458 363.301,681.017 363.82,682.056 364.859,683.095 365.898,683.614 367.977,683.614 369.016,683.095 370.055,682.056 370.575,681.017 371.094,679.458 371.094,676.86 370.575,675.301 370.055,674.262 369.016,673.223 367.977,672.704 365.898,672.704 " />
<polyline points="374.731,672.704 374.731,683.614 " />
<polyline points="374.731,672.704 379.407,672.704 380.966,673.223 381.485,673.743 382.005,674.782 382.005,675.821 381.485,676.86 380.966,677.38 379.407,677.899 374.731,677.899 " />
<polyline points="378.368,677.899 382.005,683.614 " />
<polyline points="385.642,672.704 385.642,683.614 " />
<polyline points="396.553,672.704 389.279,683.614 " />
<polyline points="389.279,672.704 396.553,672.704 " />
<polyline points="389.279,683.614 396.553,683.614 " />
<polyline points="402.787,672.704 401.748,673.223 400.709,674.262 400.19,675.301 399.67,676.86 399.67,679.458 400.19,681.017 400.709,682.056 401.748,683.095 402.787,683.614 404.866,683.614 405.905,683.095 406.944,682.056 407.463,681.017 407.983,679.458 407.983,676.86 407.463,675.301 406.944,674.262 405.905,673.223 404.866,672.704 402.787,672.704 " />
<polyline points="411.62,672.704 411.62,683.614 " />
<polyline points="411.62,672.704 418.894,683.614 " />
<polyline points="418.894,672.704 418.894,683.614 " />
<polyline points="425.129,672.704 425.129,683.614 " />
<polyline points="421.492,672.704 428.766,672.704 " />
<polyline points="433.961,672.704 429.805,683.614 " />
<polyline points="433.961,672.704 438.118,683.614 " />
<polyline points="431.363,679.977 436.559,679.977 " />
<polyline points="440.715,672.704 440.715,683.614 446.95,683.614 " />
<polyline points="452.146,670.625 452.146,687.251 " />
<polyline points="448.509,670.625 452.146,670.625 " />
<polyline points="448.509,687.251 452.146,687.251 " />
<polyline points="301.473,629.081 296.277,636.354 304.071,636.354 " />
<polyline points="301.473,629.081 301.473,639.991 " />
<polyline points="312.903,629.081 307.708,629.081 307.188,633.757 307.708,633.237 309.266,632.717 310.825,632.717 312.384,633.237 313.423,634.276 313.942,635.835 313.942,636.874 313.423,638.433 312.384,639.472 310.825,639.991 309.266,639.991 307.708,639.472 307.188,638.952 306.668,637.913 " />
<ellipse rx="1.03912" ry="1.03912" cx="317.06" cy="630.12" />
<polyline points="332.127,629.081 334.725,639.991 " />
<polyline points="337.323,629.081 334.725,639.991 " />
<polyline points="337.323,629.081 339.92,639.991 " />
<polyline points="342.518,629.081 339.92,639.991 " />
<polyline points="344.077,629.081 348.233,634.276 348.233,639.991 " />
<polyline points="352.39,629.081 348.233,634.276 " />
<polyline points="354.988,629.081 354.988,639.991 " />
<polyline points="354.988,629.081 361.742,629.081 " />
<polyline points="354.988,634.276 359.144,634.276 " />
<polyline points="354.988,639.991 361.742,639.991 " />
<polyline points="379.407,627.002 378.368,628.041 377.329,629.6 376.29,631.678 375.77,634.276 375.77,636.354 376.29,638.952 377.329,641.03 378.368,642.589 379.407,643.628 " />
<polyline points="389.798,630.639 388.759,629.6 387.201,629.081 385.122,629.081 383.564,629.6 382.524,630.639 382.524,631.678 383.044,632.717 383.564,633.237 384.603,633.757 387.72,634.796 388.759,635.315 389.279,635.835 389.798,636.874 389.798,638.433 388.759,639.472 387.201,639.991 385.122,639.991 383.564,639.472 382.524,638.433 " />
<polyline points="393.435,629.081 393.435,639.991 " />
<polyline points="393.435,629.081 397.072,629.081 398.631,629.6 399.67,630.639 400.19,631.678 400.709,633.237 400.709,635.835 400.19,637.394 399.67,638.433 398.631,639.472 397.072,639.991 393.435,639.991 " />
<polyline points="410.061,629.081 404.866,629.081 404.346,633.757 404.866,633.237 406.424,632.717 407.983,632.717 409.542,633.237 410.581,634.276 411.1,635.835 411.1,636.874 410.581,638.433 409.542,639.472 407.983,639.991 406.424,639.991 404.866,639.472 404.346,638.952 403.827,637.913 " />
<polyline points="414.737,635.315 424.089,635.315 " />
<polyline points="429.285,631.159 430.324,630.639 431.883,629.081 431.883,639.991 " />
<polyline points="438.118,627.002 439.157,628.041 440.196,629.6 441.235,631.678 441.755,634.276 441.755,636.354 441.235,638.952 440.196,641.03 439.157,642.589 438.118,643.628 " />
<polyline points="467.868,471.565 315.775,539.23 " />
<polyline points="426.908,396.383 259.153,478.823 " />
<polyline points="259.403,478.622 258.021,479.737 256.858,480.777 255.888,481.751 255.085,482.667 254.425,483.533 253.882,484.358 253.43,485.151 253.045,485.92 252.703,486.672 252.397,487.41 252.124,488.137 251.878,488.854 251.655,489.563 251.452,490.267 251.263,490.966 251.085,491.664 250.913,492.361 250.75,493.058 250.596,493.755 250.453,494.452 250.323,495.15 250.206,495.847 250.105,496.544 250.021,497.241 249.956,497.939 249.907,498.636 249.874,499.333 249.855,500.03 249.849,500.728 249.853,501.425 249.867,502.122 249.888,502.819 249.917,503.516 249.953,504.211 249.998,504.9 250.055,505.583 250.123,506.257 250.206,506.919 250.305,507.566 250.42,508.198 250.554,508.811 250.705,509.409 250.871,509.992 251.051,510.563 251.244,511.126 251.448,511.681 251.661,512.231 251.882,512.78 252.11,513.327 252.345,513.874 252.59,514.42 252.845,514.963 253.113,515.502 253.396,516.038 253.693,516.57 254.008,517.096 254.341,517.616 254.693,518.129 255.064,518.636 255.453,519.138 255.861,519.632 256.288,520.121 256.734,520.604 257.198,521.08 257.68,521.55 258.182,522.016 258.702,522.478 259.241,522.939 259.798,523.4 260.375,523.863 260.97,524.328 261.583,524.798 262.216,525.274 262.869,525.755 263.543,526.239 264.241,526.724 264.964,527.209 265.713,527.693 266.491,528.174 267.298,528.65 268.135,529.12 269.001,529.584 269.894,530.041 270.811,530.492 271.75,530.938 272.708,531.376 273.683,531.809 274.673,532.235 275.676,532.656 276.694,533.07 277.726,533.477 278.776,533.879 279.845,534.274 280.934,534.663 282.045,535.046 283.179,535.423 284.337,535.793 285.516,536.155 286.712,536.508 287.921,536.85 289.14,537.18 290.364,537.496 291.59,537.796 292.813,538.079 294.032,538.343 295.25,538.588 296.473,538.813 297.706,539.017 298.954,539.199 300.223,539.358 301.519,539.494 302.847,539.606 304.216,539.692 305.65,539.747 307.178,539.765 308.827,539.739 310.626,539.663 312.602,539.531 314.784,539.337 315.775,539.23 " />
<polyline points="469.54,377.17 553.237,377.839 " />
<polyline points="596.33,414.796 595.681,415.446 595.031,414.796 595.681,414.147 596.33,414.796 596.33,416.095 595.681,417.394 595.031,418.044 " />
<polyline points="357.129,457.968 356.543,457.693 " />
</g>
</svg>
