<?xml version="1.0" standalone="no"?>
<svg viewBox="0 0 1024 768" version="1.1" xmlns="http://www.w3.org/2000/svg" xmlns:xlink="http://www.w3.org/1999/xlink" stroke-linecap="round" stroke-linejoin="round" fill-rule="evenodd" xml:space="preserve" >
<defs >
<clipPath id="clipId0" >
<path d="M0,768 1024,768 1024,0 0,0 z" />
</clipPath>
</defs>
<g clip-path="url(#clipId0)" fill="none" stroke="rgb(0,0,0)" stroke-width="0.1" />
<g clip-path="url(#clipId0)" fill="none" stroke="rgb(0,0,0)" stroke-width="0.25" >
<polyline points="357.248,244.545 357.248,501.504 " />
<polyline points="357.248,501.504 397.398,501.504 " />
<polyline points="421.488,501.504 421.488,520.241 " />
<polyline points="421.488,565.744 592.794,565.744 " />
<polyline points="592.794,565.744 592.794,525.594 " />
<polyline points="592.794,501.504 611.53,501.504 " />
<polyline points="656.433,244.545 643.023,244.545 " />
<polyline points="592.794,244.545 592.794,225.808 " />
<polyline points="592.794,180.305 421.488,180.305 " />
<polyline points="421.488,180.305 421.488,220.455 " />
<polyline points="421.488,244.545 402.751,244.545 " />
<polyline points="616.884,501.504 616.884,244.545 " />
<polyline points="611.53,501.504 611.53,244.545 " />
<path d="M616.884,244.545  A2.78819,2.78819 0 0,0 611.53,244.545 " />
<polyline points="611.53,244.545 592.794,244.545 " />
<path d="M611.53,501.504  A2.78819,2.78819 0 0,0 616.884,501.504 " />
<polyline points="616.884,501.504 630.713,501.504 " />
<polyline points="421.488,520.241 592.794,520.241 " />
<polyline points="421.488,525.594 592.794,525.594 " />
<path d="M592.794,525.594  A2.78819,2.78819 0 0,0 592.794,520.241 " />
<polyline points="592.794,520.241 592.794,501.504 " />
<path d="M421.488,520.241  A2.78819,2.78819 0 0,0 421.488,525.594 " />
<polyline points="421.488,525.594 421.488,565.744 " />
<polyline points="402.751,244.545 402.751,501.504 " />
<polyline points="397.398,244.545 397.398,501.504 " />
<path d="M397.398,501.504  A2.78819,2.78819 0 0,0 402.751,501.504 " />
<polyline points="402.751,501.504 421.488,501.504 " />
<path d="M402.751,244.545  A2.78819,2.78819 0 0,0 397.398,244.545 " />
<polyline points="397.398,244.545 357.248,244.545 " />
<polyline points="592.794,220.455 421.488,220.455 " />
<polyline points="592.794,225.808 421.488,225.808 " />
<path d="M421.488,220.455  A2.78819,2.78819 0 0,0 421.488,225.808 " />
<polyline points="421.488,225.808 421.488,244.545 " />
<path d="M592.794,225.808  A2.78819,2.78819 0 0,0 592.794,220.455 " />
<polyline points="592.794,220.455 592.794,180.305 " />
<polyline points="300.672,175.507 279.258,175.507 " />
<polyline points="300.672,570.485 279.258,570.485 " />
</g>
<g clip-path="url(#clipId0)" fill="rgb(0,0,0)" stroke="rgb(0,0,0)" stroke-width="0.25" >
<path d="M233.012,369.941 233.012,376.108 251.513,373.024 251.513,373.024 z" />
</g>
<g clip-path="url(#clipId0)" fill="none" stroke="rgb(0,0,0)" stroke-width="0.25" >
<polyline points="233.012,373.024 145.223,373.024 " />
<polyline points="671.719,373.024 341.525,373.024 " stroke-dasharray="112.075390,22.415078,22.415078,22.415078" />
<polyline points="507.141,579.836 507.141,164.548 " stroke-dasharray="112.075390,22.415078,22.415078,22.415078" />
<polyline points="289.088,363.603 289.088,378.546 " />
<polyline points="289.088,363.603 294.069,363.603 296.204,364.314 297.627,365.737 298.338,367.16 299.05,369.295 299.05,372.853 298.338,374.988 297.627,376.411 296.204,377.834 294.069,378.546 289.088,378.546 " />
<polyline points="310.34,376.265 309.913,375.411 309.059,374.557 308.205,374.13 306.497,374.13 305.643,374.557 304.789,375.411 304.362,376.265 303.935,377.545 303.935,379.68 304.362,380.961 304.789,381.815 305.643,382.669 306.497,383.096 308.205,383.096 309.059,382.669 309.913,381.815 310.34,380.961 " />
<polyline points="182.196,344.938 180.773,345.65 179.35,347.073 178.638,348.496 177.927,350.631 177.927,354.189 178.638,356.324 179.35,357.747 180.773,359.17 182.196,359.882 185.042,359.882 186.466,359.17 187.889,357.747 188.6,356.324 189.312,354.189 189.312,350.631 188.6,348.496 187.889,347.073 186.466,345.65 185.042,344.938 182.196,344.938 " />
<polyline points="184.331,357.035 188.6,361.305 " />
<polyline points="200.845,356.95 200.418,356.096 199.564,355.243 198.711,354.816 197.003,354.816 196.149,355.243 195.295,356.096 194.868,356.95 194.441,358.231 194.441,360.366 194.868,361.647 195.295,362.501 196.149,363.355 197.003,363.782 198.711,363.782 199.564,363.355 200.418,362.501 200.845,361.647 " />
<polyline points="156.056,171.388 157.479,170.676 159.614,168.541 159.614,183.485 " />
<polyline points="170.288,166.407 169.576,167.118 168.865,166.407 169.576,165.695 170.288,166.407 170.288,167.83 169.576,169.253 168.865,169.965 " />
<polyline points="174.557,166.407 173.846,167.118 173.134,166.407 173.846,165.695 174.557,166.407 174.557,167.83 173.846,169.253 173.134,169.965 " />
<polyline points="183.808,165.695 182.385,167.118 180.962,169.253 179.539,172.099 178.827,175.657 178.827,178.504 179.539,182.062 180.962,184.908 182.385,187.043 183.808,188.466 " />
<polyline points="188.789,172.099 188.789,171.388 189.501,169.965 190.212,169.253 191.636,168.541 194.482,168.541 195.905,169.253 196.617,169.965 197.328,171.388 197.328,172.811 196.617,174.234 195.194,176.369 188.078,183.485 198.04,183.485 " />
<polyline points="210.849,168.541 203.733,168.541 203.021,174.946 203.733,174.234 205.867,173.523 208.002,173.523 210.137,174.234 211.56,175.657 212.272,177.792 212.272,179.215 211.56,181.35 210.137,182.773 208.002,183.485 205.867,183.485 203.733,182.773 203.021,182.062 202.309,180.638 " />
<polyline points="217.253,173.523 217.253,183.485 " />
<polyline points="217.253,176.369 219.388,174.234 220.811,173.523 222.946,173.523 224.369,174.234 225.08,176.369 225.08,183.485 " />
<polyline points="225.08,176.369 227.215,174.234 228.638,173.523 230.773,173.523 232.196,174.234 232.908,176.369 232.908,183.485 " />
<polyline points="238.601,173.523 238.601,183.485 " />
<polyline points="238.601,176.369 240.735,174.234 242.158,173.523 244.293,173.523 245.716,174.234 246.428,176.369 246.428,183.485 " />
<polyline points="246.428,176.369 248.563,174.234 249.986,173.523 252.121,173.523 253.544,174.234 254.256,176.369 254.256,183.485 " />
<polyline points="259.237,165.695 260.66,167.118 262.083,169.253 263.506,172.099 264.218,175.657 264.218,178.504 263.506,182.062 262.083,184.908 260.66,187.043 259.237,188.466 " />
<polyline points="158.397,565.547 159.821,564.835 161.955,562.7 161.955,577.644 " />
<polyline points="172.629,560.565 171.918,561.277 171.206,560.565 171.918,559.854 172.629,560.565 172.629,561.989 171.918,563.412 171.206,564.123 " />
<polyline points="176.899,560.565 176.187,561.277 175.476,560.565 176.187,559.854 176.899,560.565 176.899,561.989 176.187,563.412 175.476,564.123 " />
<polyline points="186.149,559.854 184.726,561.277 183.303,563.412 181.88,566.258 181.168,569.816 181.168,572.662 181.88,576.22 183.303,579.067 184.726,581.202 186.149,582.625 " />
<polyline points="191.13,566.258 191.13,565.547 191.842,564.123 192.554,563.412 193.977,562.7 196.823,562.7 198.246,563.412 198.958,564.123 199.67,565.547 199.67,566.97 198.958,568.393 197.535,570.528 190.419,577.644 200.381,577.644 " />
<polyline points="213.19,562.7 206.074,562.7 205.362,569.105 206.074,568.393 208.209,567.681 210.343,567.681 212.478,568.393 213.901,569.816 214.613,571.951 214.613,573.374 213.901,575.509 212.478,576.932 210.343,577.644 208.209,577.644 206.074,576.932 205.362,576.22 204.651,574.797 " />
<polyline points="219.594,567.681 219.594,577.644 " />
<polyline points="219.594,570.528 221.729,568.393 223.152,567.681 225.287,567.681 226.71,568.393 227.422,570.528 227.422,577.644 " />
<polyline points="227.422,570.528 229.556,568.393 230.98,567.681 233.114,567.681 234.537,568.393 235.249,570.528 235.249,577.644 " />
<polyline points="240.942,567.681 240.942,577.644 " />
<polyline points="240.942,570.528 243.077,568.393 244.5,567.681 246.634,567.681 248.058,568.393 248.769,570.528 248.769,577.644 " />
<polyline points="248.769,570.528 250.904,568.393 252.327,567.681 254.462,567.681 255.885,568.393 256.597,570.528 256.597,577.644 " />
<polyline points="261.578,559.854 263.001,561.277 264.424,563.412 265.847,566.258 266.559,569.816 266.559,572.662 265.847,576.22 264.424,579.067 263.001,581.202 261.578,582.625 " />
<polyline points="242.945,618 244.369,617.289 246.503,615.154 246.503,630.097 " />
<polyline points="257.177,613.019 256.466,613.731 255.754,613.019 256.466,612.308 257.177,613.019 257.177,614.442 256.466,615.866 255.754,616.577 " />
<polyline points="261.447,613.019 260.735,613.731 260.023,613.019 260.735,612.308 261.447,613.019 261.447,614.442 260.735,615.866 260.023,616.577 " />
<polyline points="270.697,612.308 269.274,613.731 267.851,615.866 266.428,618.712 265.716,622.27 265.716,625.116 266.428,628.674 267.851,631.521 269.274,633.655 270.697,635.078 " />
<polyline points="275.678,618.712 275.678,618 276.39,616.577 277.102,615.866 278.525,615.154 281.371,615.154 282.794,615.866 283.506,616.577 284.218,618 284.218,619.424 283.506,620.847 282.083,622.981 274.967,630.097 284.929,630.097 " />
<polyline points="297.738,615.154 290.622,615.154 289.91,621.558 290.622,620.847 292.757,620.135 294.891,620.135 297.026,620.847 298.449,622.27 299.161,624.405 299.161,625.828 298.449,627.963 297.026,629.386 294.891,630.097 292.757,630.097 290.622,629.386 289.91,628.674 289.199,627.251 " />
<polyline points="304.142,620.135 304.142,630.097 " />
<polyline points="304.142,622.981 306.277,620.847 307.7,620.135 309.835,620.135 311.258,620.847 311.97,622.981 311.97,630.097 " />
<polyline points="311.97,622.981 314.104,620.847 315.527,620.135 317.662,620.135 319.085,620.847 319.797,622.981 319.797,630.097 " />
<polyline points="325.49,620.135 325.49,630.097 " />
<polyline points="325.49,622.981 327.625,620.847 329.048,620.135 331.182,620.135 332.606,620.847 333.317,622.981 333.317,630.097 " />
<polyline points="333.317,622.981 335.452,620.847 336.875,620.135 339.01,620.135 340.433,620.847 341.145,622.981 341.145,630.097 " />
<polyline points="346.126,612.308 347.549,613.731 348.972,615.866 350.395,618.712 351.107,622.27 351.107,625.116 350.395,628.674 348.972,631.521 347.549,633.655 346.126,635.078 " />
<polyline points="682.078,617.435 683.501,616.724 685.636,614.589 685.636,629.532 " />
<polyline points="696.31,612.454 695.598,613.166 694.887,612.454 695.598,611.742 696.31,612.454 696.31,613.877 695.598,615.3 694.887,616.012 " />
<polyline points="700.58,612.454 699.868,613.166 699.156,612.454 699.868,611.742 700.58,612.454 700.58,613.877 699.868,615.3 699.156,616.012 " />
<polyline points="709.83,611.742 708.407,613.166 706.984,615.3 705.561,618.147 704.849,621.705 704.849,624.551 705.561,628.109 706.984,630.955 708.407,633.09 709.83,634.513 " />
<polyline points="714.811,618.147 714.811,617.435 715.523,616.012 716.235,615.3 717.658,614.589 720.504,614.589 721.927,615.3 722.639,616.012 723.35,617.435 723.35,618.858 722.639,620.281 721.216,622.416 714.1,629.532 724.062,629.532 " />
<polyline points="736.871,614.589 729.755,614.589 729.043,620.993 729.755,620.281 731.89,619.57 734.024,619.57 736.159,620.281 737.582,621.705 738.294,623.839 738.294,625.263 737.582,627.397 736.159,628.821 734.024,629.532 731.89,629.532 729.755,628.821 729.043,628.109 728.332,626.686 " />
<polyline points="743.275,619.57 743.275,629.532 " />
<polyline points="743.275,622.416 745.41,620.281 746.833,619.57 748.968,619.57 750.391,620.281 751.102,622.416 751.102,629.532 " />
<polyline points="751.102,622.416 753.237,620.281 754.66,619.57 756.795,619.57 758.218,620.281 758.93,622.416 758.93,629.532 " />
<polyline points="764.623,619.57 764.623,629.532 " />
<polyline points="764.623,622.416 766.757,620.281 768.181,619.57 770.315,619.57 771.739,620.281 772.45,622.416 772.45,629.532 " />
<polyline points="772.45,622.416 774.585,620.281 776.008,619.57 778.143,619.57 779.566,620.281 780.278,622.416 780.278,629.532 " />
<polyline points="785.259,611.742 786.682,613.166 788.105,615.3 789.528,618.147 790.24,621.705 790.24,624.551 789.528,628.109 788.105,630.955 786.682,633.09 785.259,634.513 " />
<polyline points="507.141,727.719 507.141,658.028 " />
</g>
<g clip-path="url(#clipId0)" fill="rgb(0,0,0)" stroke="rgb(0,0,0)" stroke-width="0.25" >
<path d="M510.224,727.719 504.057,727.719 507.141,746.22 507.141,746.22 z" />
<path d="M510.224,26.0305 504.057,26.0305 507.141,7.52941 507.141,7.52941 z" />
</g>
<g clip-path="url(#clipId0)" fill="none" stroke="rgb(0,0,0)" stroke-width="0.25" >
<polyline points="493.549,615.408 493.549,630.352 " />
<polyline points="493.549,615.408 498.53,615.408 500.664,616.12 502.088,617.543 502.799,618.966 503.511,621.101 503.511,624.659 502.799,626.794 502.088,628.217 500.664,629.64 498.53,630.352 493.549,630.352 " />
<polyline points="509.589,623.251 509.589,632.217 " />
<polyline points="509.589,627.52 510.443,626.666 511.297,626.239 512.578,626.239 513.432,626.666 514.286,627.52 514.713,628.801 514.713,629.655 514.286,630.936 513.432,631.79 512.578,632.217 511.297,632.217 510.443,631.79 509.589,630.936 " />
<polyline points="518.555,624.958 519.409,624.532 520.69,623.251 520.69,632.217 " />
<polyline points="495.193,124.743 495.193,139.686 " />
<polyline points="495.193,124.743 500.175,124.743 502.309,125.455 503.733,126.878 504.444,128.301 505.156,130.436 505.156,133.994 504.444,136.128 503.733,137.552 502.309,138.975 500.175,139.686 495.193,139.686 " />
<polyline points="510.32,134.507 510.32,143.473 " />
<polyline points="510.32,138.777 511.173,137.923 512.027,137.496 513.308,137.496 514.162,137.923 515.016,138.777 515.443,140.058 515.443,140.912 515.016,142.192 514.162,143.046 513.308,143.473 512.027,143.473 511.173,143.046 510.32,142.192 " />
<polyline points="518.432,136.642 518.432,136.215 518.859,135.361 519.286,134.934 520.139,134.507 521.847,134.507 522.701,134.934 523.128,135.361 523.555,136.215 523.555,137.069 523.128,137.923 522.274,139.204 518.005,143.473 523.982,143.473 " />
<polyline points="469.355,687.865 467.932,688.576 466.509,690 465.797,691.423 465.085,693.558 465.085,697.115 465.797,699.25 466.509,700.673 467.932,702.097 469.355,702.808 472.201,702.808 473.624,702.097 475.048,700.673 475.759,699.25 476.471,697.115 476.471,693.558 475.759,691.423 475.048,690 473.624,688.576 472.201,687.865 469.355,687.865 " />
<polyline points="471.49,699.962 475.759,704.231 " />
<polyline points="482.169,697.036 482.169,706.002 " />
<polyline points="482.169,701.305 483.023,700.451 483.877,700.024 485.158,700.024 486.012,700.451 486.866,701.305 487.293,702.586 487.293,703.44 486.866,704.721 486.012,705.575 485.158,706.002 483.877,706.002 483.023,705.575 482.169,704.721 " />
<polyline points="491.135,698.743 491.989,698.316 493.27,697.036 493.27,706.002 " />
<polyline points="469.498,45.9181 468.075,46.6297 466.652,48.0529 465.94,49.4761 465.229,51.6108 465.229,55.1688 465.94,57.3035 466.652,58.7267 468.075,60.1499 469.498,60.8615 472.345,60.8615 473.768,60.1499 475.191,58.7267 475.903,57.3035 476.614,55.1688 476.614,51.6108 475.903,49.4761 475.191,48.0529 473.768,46.6297 472.345,45.9181 469.498,45.9181 " />
<polyline points="471.633,58.0151 475.903,62.2847 " />
<polyline points="482.206,55.7106 482.206,64.6766 " />
<polyline points="482.206,59.9802 483.06,59.1262 483.914,58.6993 485.195,58.6993 486.049,59.1262 486.903,59.9802 487.33,61.261 487.33,62.1149 486.903,63.3958 486.049,64.2497 485.195,64.6766 483.914,64.6766 483.06,64.2497 482.206,63.3958 " />
<polyline points="490.319,57.8454 490.319,57.4184 490.746,56.5645 491.173,56.1376 492.026,55.7106 493.734,55.7106 494.588,56.1376 495.015,56.5645 495.442,57.4184 495.442,58.2723 495.015,59.1262 494.161,60.4071 489.892,64.6766 495.869,64.6766 " />
<polyline points="614.207,513.474 614.207,627.355 " />
<polyline points="632.139,622.374 650.071,622.374 " />
<polyline points="650.071,622.374 669.831,622.374 " />
</g>
<g clip-path="url(#clipId0)" fill="rgb(0,0,0)" stroke="rgb(0,0,0)" stroke-width="0.25" >
<path d="M632.139,625.363 632.139,619.385 614.207,622.374 614.207,622.374 z" />
</g>
<g clip-path="url(#clipId0)" fill="none" stroke="rgb(0,0,0)" stroke-width="0.1" >
<polyline points="592.794,565.744 592.794,565.744 " />
<polyline points="614.207,503.512 614.207,503.512 " />
<polyline points="614.207,622.374 614.207,622.374 " />
</g>
<g clip-path="url(#clipId0)" fill="none" stroke="rgb(0,0,0)" stroke-width="0.25" >
<polyline points="592.794,575.706 592.794,627.355 " />
<polyline points="439.42,622.374 483.313,622.374 " />
</g>
<g clip-path="url(#clipId0)" fill="rgb(0,0,0)" stroke="rgb(0,0,0)" stroke-width="0.25" >
<path d="M574.862,625.363 574.862,619.385 592.794,622.374 592.794,622.374 z" />
</g>
<g clip-path="url(#clipId0)" fill="none" stroke="rgb(0,0,0)" stroke-width="0.1" >
<polyline points="421.488,565.744 421.488,565.744 " />
<polyline points="592.794,565.744 592.794,565.744 " />
<polyline points="592.794,622.374 592.794,622.374 " />
</g>
<g clip-path="url(#clipId0)" fill="none" stroke="rgb(0,0,0)" stroke-width="0.25" >
<polyline points="400.074,513.474 400.074,627.355 " />
<polyline points="421.488,575.706 421.488,627.355 " />
<polyline points="382.142,622.374 364.21,622.374 " />
</g>
<g clip-path="url(#clipId0)" fill="rgb(0,0,0)" stroke="rgb(0,0,0)" stroke-width="0.25" >
<path d="M439.42,625.363 439.42,619.385 421.488,622.374 421.488,622.374 z" />
<path d="M382.142,625.363 382.142,619.385 400.074,622.374 400.074,622.374 z" />
</g>
<g clip-path="url(#clipId0)" fill="none" stroke="rgb(0,0,0)" stroke-width="0.1" >
<polyline points="400.074,503.512 400.074,503.512 " />
<polyline points="421.488,565.744 421.488,565.744 " />
<polyline points="421.488,622.374 421.488,622.374 " />
</g>
<g clip-path="url(#clipId0)" fill="none" stroke="rgb(0,0,0)" stroke-width="0.25" >
<polyline points="421.488,170.343 421.488,128.357 " />
<polyline points="592.794,170.343 592.794,128.357 " />
<polyline points="439.42,133.338 484.952,133.338 " />
</g>
<g clip-path="url(#clipId0)" fill="rgb(0,0,0)" stroke="rgb(0,0,0)" stroke-width="0.25" >
<path d="M439.42,136.326 439.42,130.349 421.488,133.338 421.488,133.338 z" />
<path d="M574.862,136.326 574.862,130.349 592.794,133.338 592.794,133.338 z" />
</g>
<g clip-path="url(#clipId0)" fill="none" stroke="rgb(0,0,0)" stroke-width="0.1" >
<polyline points="421.488,180.305 421.488,180.305 " />
<polyline points="592.794,180.305 592.794,180.305 " />
<polyline points="592.794,133.338 592.794,133.338 " />
</g>
<g clip-path="url(#clipId0)" fill="none" stroke="rgb(0,0,0)" stroke-width="0.25" >
<polyline points="300.672,262.477 300.672,354.511 " />
</g>
<g clip-path="url(#clipId0)" fill="none" stroke="rgb(0,0,0)" stroke-width="0.1" >
<polyline points="357.248,244.545 357.248,244.545 " />
<polyline points="357.248,501.504 357.248,501.504 " />
</g>
<g clip-path="url(#clipId0)" fill="none" stroke="rgb(0,0,0)" stroke-width="0.25" >
<polyline points="347.286,244.545 295.69,244.545 " />
<polyline points="409.518,223.132 295.69,223.132 " />
<polyline points="300.672,205.2 300.672,175.507 " />
</g>
<g clip-path="url(#clipId0)" fill="rgb(0,0,0)" stroke="rgb(0,0,0)" stroke-width="0.25" >
<path d="M303.66,205.2 297.683,205.2 300.672,223.132 300.672,223.132 z" />
<path d="M303.66,262.477 297.683,262.477 300.672,244.545 300.672,244.545 z" />
</g>
<g clip-path="url(#clipId0)" fill="none" stroke="rgb(0,0,0)" stroke-width="0.1" >
<polyline points="357.248,244.545 357.248,244.545 " />
<polyline points="419.48,223.132 419.48,223.132 " />
<polyline points="300.672,223.132 300.672,223.132 " />
</g>
<g clip-path="url(#clipId0)" fill="none" stroke="rgb(0,0,0)" stroke-width="0.25" >
<polyline points="347.286,501.504 295.69,501.504 " />
<polyline points="409.518,522.917 295.69,522.917 " />
<polyline points="300.672,540.849 300.672,570.485 " />
</g>
<g clip-path="url(#clipId0)" fill="rgb(0,0,0)" stroke="rgb(0,0,0)" stroke-width="0.25" >
<path d="M303.66,540.849 297.683,540.849 300.672,522.917 300.672,522.917 z" />
<path d="M303.66,483.572 297.683,483.572 300.672,501.504 300.672,501.504 z" />
</g>
<g clip-path="url(#clipId0)" fill="none" stroke="rgb(0,0,0)" stroke-width="0.1" >
<polyline points="357.248,501.504 357.248,501.504 " />
<polyline points="419.48,522.917 419.48,522.917 " />
<polyline points="300.672,522.917 300.672,522.917 " />
</g>
<g clip-path="url(#clipId0)" fill="none" stroke="rgb(0,0,0)" stroke-width="0.25" >
<path d="M489.324,295.87  A79.1845,79.1845 0 0,0 471.871,302.129 " />
</g>
<g clip-path="url(#clipId0)" fill="rgb(0,0,0)" stroke="rgb(0,0,0)" stroke-width="0.25" >
<path d="M489.662,298.84 488.986,292.901 507.141,293.84 507.141,293.84 z" />
<path d="M432.956,355.546 427.017,354.869 427.956,373.024 427.956,373.024 z" />
</g>
<g clip-path="url(#clipId0)" fill="none" stroke="rgb(0,0,0)" stroke-width="0.1" >
<polyline points="671.719,373.024 671.719,373.024 " />
<polyline points="341.525,373.024 341.525,373.024 " />
<polyline points="507.141,579.836 507.141,579.836 " />
<polyline points="507.141,162.318 507.141,162.318 " />
</g>
<g clip-path="url(#clipId0)" fill="none" stroke="rgb(0,0,0)" stroke-width="0.25" >
<path d="M429.987,390.841  A79.1845,79.1845 0 0,0 439.593,414.346 " />
</g>
<g clip-path="url(#clipId0)" fill="rgb(0,0,0)" stroke="rgb(0,0,0)" stroke-width="0.25" >
<path d="M432.956,390.503 427.017,391.18 427.956,373.024 427.956,373.024 z" />
<path d="M489.662,447.209 488.986,453.148 507.141,452.209 507.141,452.209 z" />
</g>
<g clip-path="url(#clipId0)" fill="none" stroke="rgb(0,0,0)" stroke-width="0.1" >
<polyline points="671.719,373.024 671.719,373.024 " />
<polyline points="341.525,373.024 341.525,373.024 " />
<polyline points="507.141,583.731 507.141,583.731 " />
</g>
<g clip-path="url(#clipId0)" fill="none" stroke="rgb(0,0,0)" stroke-width="0.25" >
<polyline points="449.146,426.341 448.434,428.476 447.011,429.899 444.876,430.611 444.164,430.611 442.03,429.899 440.607,428.476 439.895,426.341 439.895,425.63 440.607,423.495 442.03,422.072 444.164,421.36 444.876,421.36 447.011,422.072 448.434,423.495 449.146,426.341 449.146,429.899 448.434,433.457 447.011,435.592 444.876,436.304 443.453,436.304 441.318,435.592 440.607,434.169 " />
<polyline points="458.396,421.36 456.261,422.072 454.838,424.207 454.127,427.765 454.127,429.899 454.838,433.457 456.261,435.592 458.396,436.304 459.819,436.304 461.954,435.592 463.377,433.457 464.089,429.899 464.089,427.765 463.377,424.207 461.954,422.072 459.819,421.36 458.396,421.36 " />
<ellipse rx="1.42318" ry="1.42318" cx="468.359" cy="422.784" />
<polyline points="533.571,133.338 574.862,133.338 " />
<polyline points="533.717,56.4454 533.717,65.4114 " />
<polyline points="533.717,60.7149 534.571,59.861 535.425,59.4341 536.706,59.4341 537.56,59.861 538.414,60.7149 538.841,61.9958 538.841,62.8497 538.414,64.1306 537.56,64.9845 536.706,65.4114 535.425,65.4114 534.571,64.9845 533.717,64.1306 " />
<polyline points="541.83,58.5802 541.83,58.1532 542.256,57.2993 542.683,56.8723 543.537,56.4454 545.245,56.4454 546.099,56.8723 546.526,57.2993 546.953,58.1532 546.953,59.0071 546.526,59.861 545.672,61.1419 541.403,65.4114 547.38,65.4114 " />
<polyline points="521.009,46.6529 515.316,61.5963 " />
<polyline points="521.009,46.6529 526.702,61.5963 " />
<polyline points="517.451,56.6151 524.567,56.6151 " />
<polyline points="449.146,314.358 448.434,316.492 447.011,317.916 444.876,318.627 444.164,318.627 442.03,317.916 440.607,316.492 439.895,314.358 439.895,313.646 440.607,311.511 442.03,310.088 444.164,309.377 444.876,309.377 447.011,310.088 448.434,311.511 449.146,314.358 449.146,317.916 448.434,321.474 447.011,323.608 444.876,324.32 443.453,324.32 441.318,323.608 440.607,322.185 " />
<polyline points="458.396,309.377 456.261,310.088 454.838,312.223 454.127,315.781 454.127,317.916 454.838,321.474 456.261,323.608 458.396,324.32 459.819,324.32 461.954,323.608 463.377,321.474 464.089,317.916 464.089,315.781 463.377,312.223 461.954,310.088 459.819,309.377 458.396,309.377 " />
<ellipse rx="1.42318" ry="1.42318" cx="468.359" cy="310.8" />
<path d="M468.087,441.908  A79.1845,79.1845 0 0,0 489.324,450.178 " />
<path d="M439.101,332.518  A79.1845,79.1845 0 0,0 429.987,355.208 " />
<polyline points="200.845,394.745 200.418,393.891 199.564,393.037 198.711,392.61 197.003,392.61 196.149,393.037 195.295,393.891 194.868,394.745 194.441,396.026 194.441,398.161 194.868,399.442 195.295,400.295 196.149,401.149 197.003,401.576 198.711,401.576 199.564,401.149 200.418,400.295 200.845,399.442 " />
<polyline points="182.196,382.733 176.503,397.676 " />
<polyline points="182.196,382.733 187.889,397.676 " />
<polyline points="178.638,392.695 185.754,392.695 " />
<polyline points="300.672,392.521 300.672,483.572 " />
<polyline points="530.059,622.374 574.862,622.374 " />
<polyline points="536.519,697.036 536.519,706.002 " />
<polyline points="536.519,701.305 537.372,700.451 538.226,700.024 539.507,700.024 540.361,700.451 541.215,701.305 541.642,702.586 541.642,703.44 541.215,704.721 540.361,705.575 539.507,706.002 538.226,706.002 537.372,705.575 536.519,704.721 " />
<polyline points="545.485,698.743 546.339,698.316 547.619,697.036 547.619,706.002 " />
<polyline points="523.704,687.865 518.011,702.808 " />
<polyline points="523.704,687.865 529.397,702.808 " />
<polyline points="520.146,697.827 527.262,697.827 " />
<polyline points="766.715,741.685 764.628,739.597 761.497,738.554 757.322,738.554 754.191,739.597 752.104,741.685 752.104,743.772 753.148,745.859 754.191,746.903 756.279,747.947 762.541,750.034 764.628,751.078 765.672,752.121 766.715,754.209 766.715,757.34 764.628,759.427 761.497,760.471 757.322,760.471 754.191,759.427 752.104,757.34 " />
<polyline points="774.021,738.554 774.021,760.471 " />
<polyline points="774.021,738.554 781.327,738.554 784.458,739.597 786.545,741.685 787.589,743.772 788.632,746.903 788.632,752.121 787.589,755.252 786.545,757.34 784.458,759.427 781.327,760.471 774.021,760.471 " />
<polyline points="807.418,738.554 796.982,738.554 795.938,747.947 796.982,746.903 800.113,745.859 803.244,745.859 806.375,746.903 808.462,748.99 809.506,752.121 809.506,754.209 808.462,757.34 806.375,759.427 803.244,760.471 800.113,760.471 796.982,759.427 795.938,758.383 794.894,756.296 " />
<polyline points="816.811,751.078 835.597,751.078 " />
<polyline points="843.947,743.772 843.947,742.728 844.99,740.641 846.034,739.597 848.121,738.554 852.296,738.554 854.383,739.597 855.427,740.641 856.471,742.728 856.471,744.816 855.427,746.903 853.34,750.034 842.903,760.471 857.514,760.471 " />
<polyline points="870.038,738.554 866.907,739.597 864.82,742.728 863.776,747.947 863.776,751.078 864.82,756.296 866.907,759.427 870.038,760.471 872.126,760.471 875.257,759.427 877.344,756.296 878.388,751.078 878.388,747.947 877.344,742.728 875.257,739.597 872.126,738.554 870.038,738.554 " />
<polyline points="506.794,25.3016 506.794,95.8598 " />
<polyline points="662.015,501.504 662.015,244.545 " />
<polyline points="657.033,239.564 619.867,239.564 " />
<polyline points="619.867,506.485 657.033,506.485 " />
<polyline points="657.033,239.564 662.015,239.564 " />
<polyline points="662.015,244.545 662.015,239.564 " />
<polyline points="619.867,244.545 619.867,239.564 " />
<polyline points="619.867,501.504 619.867,506.485 " />
<polyline points="662.015,501.504 662.015,506.485 " />
<polyline points="657.033,506.485 662.015,506.485 " />
</g>
<g clip-path="url(#clipId0)" fill="rgb(0,0,0)" stroke="rgb(0,0,0)" stroke-width="0.25" >
<path d="M677.753,321.625 673.818,317.125 662.286,331.179 662.286,331.179 z" />
</g>
<g clip-path="url(#clipId0)" fill="none" stroke="rgb(0,0,0)" stroke-width="0.25" >
<polyline points="675.785,319.375 708.519,290.753 " />
<polyline points="708.519,290.753 733.562,290.753 " />
<polyline points="755.672,283.509 755.672,298.453 " />
<polyline points="755.672,283.509 762.076,283.509 764.211,284.221 764.923,284.933 765.634,286.356 765.634,287.779 764.923,289.202 764.211,289.914 762.076,290.625 " />
<polyline points="755.672,290.625 762.076,290.625 764.211,291.337 764.923,292.049 765.634,293.472 765.634,295.607 764.923,297.03 764.211,297.741 762.076,298.453 755.672,298.453 " />
<polyline points="770.616,283.509 770.616,298.453 779.155,298.453 " />
<polyline points="786.271,283.509 780.578,298.453 " />
<polyline points="786.271,283.509 791.963,298.453 " />
<polyline points="782.713,293.472 789.828,293.472 " />
<polyline points="795.521,283.509 795.521,298.453 " />
<polyline points="795.521,283.509 805.483,298.453 " />
<polyline points="805.483,283.509 805.483,298.453 " />
<polyline points="811.176,283.509 811.176,298.453 " />
<polyline points="821.138,283.509 811.176,293.472 " />
<polyline points="814.734,289.914 821.138,298.453 " />
<polyline points="844.621,283.509 843.198,284.221 841.775,285.644 841.063,287.067 840.351,289.202 840.351,292.76 841.063,294.895 841.775,296.318 843.198,297.741 844.621,298.453 847.467,298.453 848.89,297.741 850.314,296.318 851.025,294.895 851.737,292.76 851.737,289.202 851.025,287.067 850.314,285.644 848.89,284.221 847.467,283.509 844.621,283.509 " />
<polyline points="856.718,283.509 856.718,298.453 " />
<polyline points="856.718,283.509 865.969,283.509 " />
<polyline points="856.718,290.625 862.411,290.625 " />
<polyline points="869.527,283.509 869.527,298.453 " />
<polyline points="869.527,283.509 878.777,283.509 " />
<polyline points="869.527,290.625 875.219,290.625 " />
<polyline points="656.433,501.504 656.433,489.237 " />
<polyline points="656.433,471.899 656.433,450.709 " />
<polyline points="656.433,433.372 656.433,410.255 " />
<polyline points="656.433,390.992 656.433,367.875 " />
<polyline points="656.433,348.611 656.433,321.642 " />
<polyline points="656.433,302.378 656.433,277.336 " />
<polyline points="656.433,258.072 656.433,244.545 " />
<polyline points="644.177,501.504 656.433,501.504 " />
<polyline points="631.464,244.545 616.884,244.545 " />
</g>
</svg>
