<?xml version="1.0" standalone="no"?>
<svg viewBox="0 0 1024 768" version="1.1" xmlns="http://www.w3.org/2000/svg" xmlns:xlink="http://www.w3.org/1999/xlink" stroke-linecap="round" stroke-linejoin="round" fill-rule="evenodd" xml:space="preserve" >
<defs >
<clipPath id="clipId0" >
<path d="M0,768 1024,768 1024,0 0,0 z" />
</clipPath>
</defs>
<g clip-path="url(#clipId0)" fill="none" stroke="rgb(0,0,0)" stroke-width="0.1" />
<g clip-path="url(#clipId0)" fill="none" stroke="rgb(0,0,0)" stroke-width="0.25" >
<polyline points="170.226,117.651 170.226,346.678 " />
<polyline points="170.226,346.678 206.012,346.678 " />
<polyline points="227.483,346.678 302.451,421.646 " />
<polyline points="456.511,461.192 456.511,425.407 " />
<polyline points="456.511,346.678 475.596,346.678 " />
<polyline points="475.596,346.678 475.596,117.651 " />
<polyline points="475.596,117.651 210.783,117.651 " />
<polyline points="554.325,155.822 590.11,155.822 " />
<polyline points="554.325,308.507 590.11,308.507 " />
<polyline points="590.11,308.507 590.11,155.822 " />
<polyline points="303.826,461.192 456.511,461.192 " />
<polyline points="303.826,425.407 303.826,461.192 " />
<polyline points="475.596,117.651 550.065,154.885 " />
<polyline points="550.065,309.444 475.596,346.678 " />
<polyline points="380.168,232.165 380.168,213.079 " />
<polyline points="380.168,232.165 361.083,232.165 " />
<polyline points="380.168,232.165 380.168,251.25 " />
<polyline points="380.168,232.165 399.254,232.165 " />
<polyline points="341.997,232.165 150.956,232.165 " />
<polyline points="380.168,270.336 380.168,477.663 " />
<polyline points="418.34,232.165 607.653,232.165 " />
<polyline points="210.783,117.651 210.783,346.678 " />
<polyline points="206.012,117.651 206.012,346.678 " />
<path d="M210.783,117.651  A2.48511,2.48511 0 0,0 206.012,117.651 " />
<polyline points="206.012,117.651 170.226,117.651 " />
<path d="M206.012,346.678  A2.48511,2.48511 0 0,0 210.783,346.678 " />
<polyline points="210.783,346.678 227.483,346.678 " />
<polyline points="303.826,420.635 456.511,420.635 " />
<polyline points="303.826,425.407 456.511,425.407 " />
<path d="M303.826,420.635  A2.48511,2.48511 0 0,0 303.826,425.407 " />
<path d="M456.511,425.407  A2.48511,2.48511 0 0,0 456.511,420.635 " />
<polyline points="456.511,420.635 456.511,346.678 " />
<polyline points="554.325,308.507 554.325,155.822 " />
<polyline points="549.553,308.507 549.553,155.822 " />
<path d="M554.325,155.822  A2.48511,2.48511 0 0,0 549.553,155.822 " />
<path d="M549.553,308.507  A2.48511,2.48511 0 0,0 554.325,308.507 " />
<polyline points="475.596,108.394 475.596,68.5972 " />
<polyline points="551.939,144.776 551.939,68.5972 " />
<polyline points="492.258,73.2254 535.277,73.2254 " />
</g>
<g clip-path="url(#clipId0)" fill="rgb(0,0,0)" stroke="rgb(0,0,0)" stroke-width="0.25" >
<path d="M492.258,76.0023 492.258,70.4485 475.596,73.2254 475.596,73.2254 z" />
<path d="M535.277,76.0023 535.277,70.4485 551.939,73.2254 551.939,73.2254 z" />
</g>
<g clip-path="url(#clipId0)" fill="none" stroke="rgb(0,0,0)" stroke-width="0.25" >
<polyline points="635.74,155.822 635.74,127.194 " />
<polyline points="635.74,127.194 654.826,127.194 " />
<polyline points="227.483,515.392 198.855,515.392 " />
<polyline points="456.511,515.392 485.139,515.392 " />
<polyline points="124.553,117.651 124.553,89.0224 " />
<polyline points="124.553,89.0224 105.467,89.0224 " />
<polyline points="124.553,423.021 124.553,451.649 " />
<polyline points="124.553,451.649 105.467,451.649 " />
</g>
<g clip-path="url(#clipId0)" fill="rgb(0,0,0)" stroke="rgb(0,0,0)" stroke-width="0.25" >
<path d="M77.9841,227.584 77.9841,236.745 105.467,232.165 105.467,232.165 z" />
</g>
<g clip-path="url(#clipId0)" fill="none" stroke="rgb(0,0,0)" stroke-width="0.25" >
<polyline points="77.9841,232.165 10.0392,232.165 " />
</g>
<g clip-path="url(#clipId0)" fill="rgb(0,0,0)" stroke="rgb(0,0,0)" stroke-width="0.25" >
<path d="M722.771,227.584 722.771,236.745 750.254,232.165 750.254,232.165 z" />
</g>
<g clip-path="url(#clipId0)" fill="none" stroke="rgb(0,0,0)" stroke-width="0.25" >
<polyline points="722.771,232.165 654.826,232.165 " />
</g>
<g clip-path="url(#clipId0)" fill="rgb(0,0,0)" stroke="rgb(0,0,0)" stroke-width="0.25" >
<path d="M384.749,602.423 375.588,602.423 380.168,629.906 380.168,629.906 z" />
</g>
<g clip-path="url(#clipId0)" fill="none" stroke="rgb(0,0,0)" stroke-width="0.25" >
<polyline points="380.168,602.423 380.168,534.478 " />
<polyline points="477.91,38.8236 477.91,57.9093 " />
<polyline points="477.91,38.8236 484.272,38.8236 486.999,39.7325 488.816,41.5502 489.725,43.3678 490.634,46.0944 490.634,50.6386 489.725,53.3651 488.816,55.1827 486.999,57.0004 484.272,57.9093 477.91,57.9093 " />
<polyline points="516.082,49.7297 532.441,49.7297 " />
<polyline points="539.711,38.8236 539.711,57.9093 " />
<polyline points="539.711,38.8236 546.073,38.8236 548.8,39.7325 550.617,41.5502 551.526,43.3678 552.435,46.0944 552.435,50.6386 551.526,53.3651 550.617,55.1827 548.8,57.0004 546.073,57.9093 539.711,57.9093 " />
<polyline points="584.245,35.1883 582.427,37.006 580.609,39.7325 578.791,43.3678 577.883,47.912 577.883,51.5474 578.791,56.0916 580.609,59.7269 582.427,62.4535 584.245,64.2711 " />
<polyline points="592.424,42.459 594.242,41.5502 596.968,38.8236 596.968,57.9093 " />
<polyline points="610.601,36.0971 609.692,37.006 608.783,36.0971 609.692,35.1883 610.601,36.0971 610.601,37.9148 609.692,39.7325 608.783,40.6413 " />
<polyline points="616.054,36.0971 615.145,37.006 614.236,36.0971 615.145,35.1883 616.054,36.0971 616.054,37.9148 615.145,39.7325 614.236,40.6413 " />
<polyline points="627.869,35.1883 626.051,37.006 624.233,39.7325 622.416,43.3678 621.507,47.912 621.507,51.5474 622.416,56.0916 624.233,59.7269 626.051,62.4535 627.869,64.2711 " />
<polyline points="634.231,43.3678 634.231,42.459 635.14,40.6413 636.048,39.7325 637.866,38.8236 641.501,38.8236 643.319,39.7325 644.228,40.6413 645.137,42.459 645.137,44.2767 644.228,46.0944 642.41,48.8209 633.322,57.9093 646.046,57.9093 " />
<polyline points="662.405,38.8236 653.316,38.8236 652.407,47.0032 653.316,46.0944 656.043,45.1855 658.769,45.1855 661.496,46.0944 663.314,47.912 664.222,50.6386 664.222,52.4562 663.314,55.1827 661.496,57.0004 658.769,57.9093 656.043,57.9093 653.316,57.0004 652.407,56.0916 651.499,54.2739 " />
<polyline points="670.584,45.1855 670.584,57.9093 " />
<polyline points="670.584,48.8209 673.311,46.0944 675.128,45.1855 677.855,45.1855 679.673,46.0944 680.582,48.8209 680.582,57.9093 " />
<polyline points="680.582,48.8209 683.308,46.0944 685.126,45.1855 687.852,45.1855 689.67,46.0944 690.579,48.8209 690.579,57.9093 " />
<polyline points="697.849,45.1855 697.849,57.9093 " />
<polyline points="697.849,48.8209 700.576,46.0944 702.394,45.1855 705.12,45.1855 706.938,46.0944 707.847,48.8209 707.847,57.9093 " />
<polyline points="707.847,48.8209 710.573,46.0944 712.391,45.1855 715.117,45.1855 716.935,46.0944 717.844,48.8209 717.844,57.9093 " />
<polyline points="724.206,35.1883 726.023,37.006 727.841,39.7325 729.659,43.3678 730.568,47.912 730.568,51.5474 729.659,56.0916 727.841,59.7269 726.023,62.4535 724.206,64.2711 " />
<polyline points="756.924,45.1855 756.924,57.9093 " />
<polyline points="756.924,48.8209 759.651,46.0944 761.468,45.1855 764.195,45.1855 766.012,46.0944 766.921,48.8209 766.921,57.9093 " />
<polyline points="766.921,48.8209 769.648,46.0944 771.465,45.1855 774.192,45.1855 776.01,46.0944 776.919,48.8209 776.919,57.9093 " />
<polyline points="783.28,39.7325 784.189,40.6413 785.098,39.7325 784.189,38.8236 783.28,39.7325 " />
<polyline points="784.189,46.0944 784.189,57.9093 " />
<polyline points="791.46,45.1855 791.46,57.9093 " />
<polyline points="791.46,48.8209 794.186,46.0944 796.004,45.1855 798.731,45.1855 800.548,46.0944 801.457,48.8209 801.457,57.9093 " />
<polyline points="809.637,56.0916 808.728,57.0004 809.637,57.9093 810.546,57.0004 809.637,56.0916 " />
<polyline points="581.818,80.227 580,81.1358 578.182,82.9535 577.273,85.68 577.273,87.4977 578.182,90.2242 580,92.0419 581.818,92.9507 584.544,92.9507 586.362,92.0419 588.179,90.2242 589.088,87.4977 589.088,85.68 588.179,82.9535 586.362,81.1358 584.544,80.227 581.818,80.227 " />
<polyline points="595.45,80.227 595.45,92.9507 " />
<polyline points="595.45,85.68 596.359,82.9535 598.177,81.1358 599.994,80.227 602.721,80.227 " />
<polyline points="628.168,77.5004 629.986,76.5916 632.713,73.8651 632.713,92.9507 " />
<polyline points="644.528,78.4093 644.528,77.5004 645.436,75.6828 646.345,74.7739 648.163,73.8651 651.798,73.8651 653.616,74.7739 654.525,75.6828 655.434,77.5004 655.434,79.3181 654.525,81.1358 652.707,83.8623 643.619,92.9507 656.342,92.9507 " />
<polyline points="664.522,71.1386 663.613,72.0474 662.704,71.1386 663.613,70.2297 664.522,71.1386 664.522,72.9562 663.613,74.7739 662.704,75.6828 " />
<polyline points="669.975,71.1386 669.066,72.0474 668.157,71.1386 669.066,70.2297 669.975,71.1386 669.975,72.9562 669.066,74.7739 668.157,75.6828 " />
<polyline points="681.79,70.2297 679.972,72.0474 678.155,74.7739 676.337,78.4093 675.428,82.9535 675.428,86.5888 676.337,91.133 678.155,94.7684 679.972,97.4949 681.79,99.3126 " />
<polyline points="689.061,73.8651 699.058,73.8651 693.605,81.1358 696.331,81.1358 698.149,82.0446 699.058,82.9535 699.967,85.68 699.967,87.4977 699.058,90.2242 697.24,92.0419 694.514,92.9507 691.787,92.9507 689.061,92.0419 688.152,91.133 687.243,89.3154 " />
<polyline points="710.873,73.8651 708.146,74.7739 706.329,77.5004 705.42,82.0446 705.42,84.7712 706.329,89.3154 708.146,92.0419 710.873,92.9507 712.69,92.9507 715.417,92.0419 717.235,89.3154 718.144,84.7712 718.144,82.0446 717.235,77.5004 715.417,74.7739 712.69,73.8651 710.873,73.8651 " />
<polyline points="729.05,73.8651 726.323,74.7739 724.505,77.5004 723.597,82.0446 723.597,84.7712 724.505,89.3154 726.323,92.0419 729.05,92.9507 730.867,92.9507 733.594,92.0419 735.411,89.3154 736.32,84.7712 736.32,82.0446 735.411,77.5004 733.594,74.7739 730.867,73.8651 729.05,73.8651 " />
<polyline points="742.682,80.227 742.682,92.9507 " />
<polyline points="742.682,83.8623 745.409,81.1358 747.226,80.227 749.953,80.227 751.771,81.1358 752.679,83.8623 752.679,92.9507 " />
<polyline points="752.679,83.8623 755.406,81.1358 757.224,80.227 759.95,80.227 761.768,81.1358 762.677,83.8623 762.677,92.9507 " />
<polyline points="769.947,80.227 769.947,92.9507 " />
<polyline points="769.947,83.8623 772.674,81.1358 774.492,80.227 777.218,80.227 779.036,81.1358 779.945,83.8623 779.945,92.9507 " />
<polyline points="779.945,83.8623 782.671,81.1358 784.489,80.227 787.215,80.227 789.033,81.1358 789.942,83.8623 789.942,92.9507 " />
<polyline points="796.304,70.2297 798.121,72.0474 799.939,74.7739 801.757,78.4093 802.666,82.9535 802.666,86.5888 801.757,91.133 799.939,94.7684 798.121,97.4949 796.304,99.3126 " />
<polyline points="829.022,80.227 829.022,92.9507 " />
<polyline points="829.022,83.8623 831.748,81.1358 833.566,80.227 836.293,80.227 838.11,81.1358 839.019,83.8623 839.019,92.9507 " />
<polyline points="839.019,83.8623 841.746,81.1358 843.563,80.227 846.29,80.227 848.108,81.1358 849.016,83.8623 849.016,92.9507 " />
<polyline points="866.284,80.227 866.284,92.9507 " />
<polyline points="866.284,82.9535 864.467,81.1358 862.649,80.227 859.923,80.227 858.105,81.1358 856.287,82.9535 855.378,85.68 855.378,87.4977 856.287,90.2242 858.105,92.0419 859.923,92.9507 862.649,92.9507 864.467,92.0419 866.284,90.2242 " />
<polyline points="872.646,80.227 882.643,92.9507 " />
<polyline points="882.643,80.227 872.646,92.9507 " />
<polyline points="889.914,91.133 889.005,92.0419 889.914,92.9507 890.823,92.0419 889.914,91.133 " />
<polyline points="897.185,70.2297 899.003,72.0474 900.82,74.7739 902.638,78.4093 903.547,82.9535 903.547,86.5888 902.638,91.133 900.82,94.7684 899.003,97.4949 897.185,99.3126 " />
<polyline points="501.766,55.1815 500.403,53.8182 499.039,53.1366 496.995,53.1366 495.631,53.8182 494.268,55.1815 493.586,57.2264 493.586,58.5896 494.268,60.6345 495.631,61.9978 496.995,62.6794 499.039,62.6794 500.403,61.9978 501.766,60.6345 " />
<polyline points="563.157,55.1815 562.475,53.8182 560.43,53.1366 558.386,53.1366 556.341,53.8182 555.659,55.1815 556.341,56.5447 557.704,57.2264 561.112,57.908 562.475,58.5896 563.157,59.9529 563.157,60.6345 562.475,61.9978 560.43,62.6794 558.386,62.6794 556.341,61.9978 555.659,60.6345 " />
<polyline points="684.555,131.483 683.874,130.12 681.829,129.438 679.784,129.438 677.739,130.12 677.057,131.483 677.739,132.846 679.102,133.528 682.51,134.209 683.874,134.891 684.555,136.254 684.555,136.936 683.874,138.299 681.829,138.981 679.784,138.981 677.739,138.299 677.057,136.936 " />
<polyline points="661.04,115.125 661.04,134.211 " />
<polyline points="661.04,115.125 667.402,115.125 670.129,116.034 671.947,117.851 672.855,119.669 673.764,122.396 673.764,126.94 672.855,129.666 671.947,131.484 670.129,133.302 667.402,134.211 661.04,134.211 " />
<polyline points="100.145,93.3116 98.782,91.9483 97.4188,91.2667 95.3739,91.2667 94.0106,91.9483 92.6473,93.3116 91.9657,95.3564 91.9657,96.7197 92.6473,98.7646 94.0106,100.128 95.3739,100.809 97.4188,100.809 98.782,100.128 100.145,98.7646 " />
<polyline points="76.2895,76.9537 76.2895,96.0393 " />
<polyline points="76.2895,76.9537 82.6514,76.9537 85.3779,77.8626 87.1956,79.6802 88.1045,81.4979 89.0133,84.2244 89.0133,88.7686 88.1045,91.4951 87.1956,93.3128 85.3779,95.1305 82.6514,96.0393 76.2895,96.0393 " />
<polyline points="508.838,515.251 508.838,529.565 " />
<polyline points="508.838,522.067 510.201,520.704 511.564,520.022 513.609,520.022 514.973,520.704 516.336,522.067 517.017,524.112 517.017,525.475 516.336,527.52 514.973,528.884 513.609,529.565 511.564,529.565 510.201,528.884 508.838,527.52 " />
<polyline points="491.354,503.324 491.354,522.409 " />
<polyline points="491.354,503.324 497.716,503.324 500.442,504.233 502.26,506.05 503.169,507.868 504.078,510.594 504.078,515.139 503.169,517.865 502.26,519.683 500.442,521.5 497.716,522.409 491.354,522.409 " />
<polyline points="83.8595,442.841 83.8595,461.927 " />
<polyline points="96.5833,442.841 96.5833,461.927 " />
<polyline points="83.8595,451.929 96.5833,451.929 " />
<polyline points="177.247,506.584 177.247,525.67 " />
<polyline points="189.971,506.584 189.971,525.67 " />
<polyline points="177.247,515.672 189.971,515.672 " />
<polyline points="684.423,498.366 685.105,499.047 685.787,498.366 685.105,497.684 684.423,498.366 " />
<polyline points="685.105,503.137 685.105,511.998 " />
<polyline points="690.558,502.455 690.558,511.998 " />
<polyline points="690.558,505.182 692.603,503.137 693.966,502.455 696.011,502.455 697.374,503.137 698.056,505.182 698.056,511.998 " />
<polyline points="704.191,510.635 703.509,511.317 704.191,511.998 704.872,511.317 704.191,510.635 " />
<polyline points="661.248,533.589 668.746,533.589 664.656,539.042 666.701,539.042 668.064,539.724 668.746,540.405 669.428,542.45 669.428,543.814 668.746,545.858 667.383,547.222 665.338,547.903 663.293,547.903 661.248,547.222 660.566,546.54 659.885,545.177 " />
<polyline points="688.513,541.769 700.783,541.769 " />
<polyline points="723.276,533.589 721.231,534.271 720.55,535.634 720.55,536.997 721.231,538.361 722.595,539.042 725.321,539.724 727.366,540.405 728.729,541.769 729.411,543.132 729.411,545.177 728.729,546.54 728.048,547.222 726.003,547.903 723.276,547.903 721.231,547.222 720.55,546.54 719.868,545.177 719.868,543.132 720.55,541.769 721.913,540.405 723.958,539.724 726.684,539.042 728.048,538.361 728.729,536.997 728.729,535.634 728.048,534.271 726.003,533.589 723.276,533.589 " />
<polyline points="627.848,556.765 625.803,557.446 625.122,558.809 625.122,560.173 625.803,561.536 627.167,562.218 629.893,562.899 631.938,563.581 633.301,564.944 633.983,566.307 633.983,568.352 633.301,569.716 632.62,570.397 630.575,571.079 627.848,571.079 625.803,570.397 625.122,569.716 624.44,568.352 624.44,566.307 625.122,564.944 626.485,563.581 628.53,562.899 631.256,562.218 632.62,561.536 633.301,560.173 633.301,558.809 632.62,557.446 630.575,556.765 627.848,556.765 " />
<polyline points="654.432,559.491 655.795,558.809 657.84,556.765 657.84,571.079 " />
<polyline points="677.607,554.038 665.338,575.85 " />
<polyline points="681.697,560.173 681.697,559.491 682.379,558.128 683.06,557.446 684.423,556.765 687.15,556.765 688.513,557.446 689.195,558.128 689.876,559.491 689.876,560.854 689.195,562.218 687.832,564.262 681.015,571.079 690.558,571.079 " />
<polyline points="709.644,564.944 721.913,564.944 " />
<polyline points="743.044,559.491 744.407,558.809 746.452,556.765 746.452,571.079 " />
<polyline points="761.448,556.765 754.631,566.307 764.856,566.307 " />
<polyline points="761.448,556.765 761.448,571.079 " />
<polyline points="618.987,582.666 620.35,581.985 622.395,579.94 622.395,594.254 " />
<polyline points="637.391,579.94 630.575,589.483 640.799,589.483 " />
<polyline points="637.391,579.94 637.391,594.254 " />
<polyline points="660.566,582.666 661.93,581.985 663.975,579.94 663.975,594.254 " />
<polyline points="683.742,577.213 671.472,599.026 " />
<polyline points="687.832,583.348 687.832,582.666 688.513,581.303 689.195,580.622 690.558,579.94 693.285,579.94 694.648,580.622 695.329,581.303 696.011,582.666 696.011,584.03 695.329,585.393 693.966,587.438 687.15,594.254 696.693,594.254 " />
<polyline points="715.778,588.12 728.048,588.12 " />
<polyline points="747.815,583.348 747.815,582.666 748.497,581.303 749.178,580.622 750.542,579.94 753.268,579.94 754.631,580.622 755.313,581.303 755.995,582.666 755.995,584.03 755.313,585.393 753.95,587.438 747.133,594.254 756.676,594.254 " />
<polyline points="769.627,581.985 768.946,580.622 766.901,579.94 765.537,579.94 763.492,580.622 762.129,582.666 761.448,586.075 761.448,589.483 762.129,592.209 763.492,593.573 765.537,594.254 766.219,594.254 768.264,593.573 769.627,592.209 770.309,590.164 770.309,589.483 769.627,587.438 768.264,586.075 766.219,585.393 765.537,585.393 763.492,586.075 762.129,587.438 761.448,589.483 " />
<polyline points="668.064,605.16 678.97,611.295 668.064,617.43 " />
<polyline points="698.738,606.524 698.738,605.842 699.419,604.479 700.101,603.797 701.464,603.115 704.191,603.115 705.554,603.797 706.236,604.479 706.917,605.842 706.917,607.205 706.236,608.568 704.872,610.613 698.056,617.43 707.599,617.43 " />
<polyline points="720.55,605.16 719.868,603.797 717.823,603.115 716.46,603.115 714.415,603.797 713.052,605.842 712.37,609.25 712.37,612.658 713.052,615.385 714.415,616.748 716.46,617.43 717.142,617.43 719.187,616.748 720.55,615.385 721.231,613.34 721.231,612.658 720.55,610.613 719.187,609.25 717.142,608.568 716.46,608.568 714.415,609.25 713.052,610.613 712.37,612.658 " />
<polyline points="815.393,605.16 826.299,611.295 815.393,617.43 " />
<polyline points="854.246,605.16 853.564,603.797 851.519,603.115 850.156,603.115 848.111,603.797 846.748,605.842 846.066,609.25 846.066,612.658 846.748,615.385 848.111,616.748 850.156,617.43 850.838,617.43 852.883,616.748 854.246,615.385 854.928,613.34 854.928,612.658 854.246,610.613 852.883,609.25 850.838,608.568 850.156,608.568 848.111,609.25 846.748,610.613 846.066,612.658 " />
<polyline points="867.879,605.16 867.197,603.797 865.152,603.115 863.789,603.115 861.744,603.797 860.381,605.842 859.699,609.25 859.699,612.658 860.381,615.385 861.744,616.748 863.789,617.43 864.47,617.43 866.515,616.748 867.879,615.385 868.56,613.34 868.56,612.658 867.879,610.613 866.515,609.25 864.47,608.568 863.789,608.568 861.744,609.25 860.381,610.613 859.699,612.658 " />
<polyline points="876.74,603.115 874.695,603.797 873.332,605.842 872.65,609.25 872.65,611.295 873.332,614.703 874.695,616.748 876.74,617.43 878.103,617.43 880.148,616.748 881.511,614.703 882.193,611.295 882.193,609.25 881.511,605.842 880.148,603.797 878.103,603.115 876.74,603.115 " />
<polyline points="788.128,579.94 795.626,579.94 791.536,585.393 793.581,585.393 794.944,586.075 795.626,586.756 796.307,588.801 796.307,590.164 795.626,592.209 794.263,593.573 792.218,594.254 790.173,594.254 788.128,593.573 787.446,592.891 786.765,591.528 " />
<polyline points="809.94,579.94 803.124,594.254 " />
<polyline points="800.397,579.94 809.94,579.94 " />
<polyline points="818.12,579.94 816.075,580.622 814.711,582.666 814.03,586.075 814.03,588.12 814.711,591.528 816.075,593.573 818.12,594.254 819.483,594.254 821.528,593.573 822.891,591.528 823.573,588.12 823.573,586.075 822.891,582.666 821.528,580.622 819.483,579.94 818.12,579.94 " />
<polyline points="842.658,588.12 854.928,588.12 " />
<polyline points="882.874,581.985 882.193,580.622 880.148,579.94 878.785,579.94 876.74,580.622 875.376,582.666 874.695,586.075 874.695,589.483 875.376,592.209 876.74,593.573 878.785,594.254 879.466,594.254 881.511,593.573 882.874,592.209 883.556,590.164 883.556,589.483 882.874,587.438 881.511,586.075 879.466,585.393 878.785,585.393 876.74,586.075 875.376,587.438 874.695,589.483 " />
<polyline points="896.507,581.985 895.825,580.622 893.78,579.94 892.417,579.94 890.372,580.622 889.009,582.666 888.327,586.075 888.327,589.483 889.009,592.209 890.372,593.573 892.417,594.254 893.099,594.254 895.144,593.573 896.507,592.209 897.189,590.164 897.189,589.483 896.507,587.438 895.144,586.075 893.099,585.393 892.417,585.393 890.372,586.075 889.009,587.438 888.327,589.483 " />
<polyline points="905.368,579.94 903.323,580.622 901.96,582.666 901.278,586.075 901.278,588.12 901.96,591.528 903.323,593.573 905.368,594.254 906.731,594.254 908.776,593.573 910.14,591.528 910.821,588.12 910.821,586.075 910.14,582.666 908.776,580.622 906.731,579.94 905.368,579.94 " />
<polyline points="787.446,560.173 787.446,559.491 788.128,558.128 788.809,557.446 790.173,556.765 792.899,556.765 794.263,557.446 794.944,558.128 795.626,559.491 795.626,560.854 794.944,562.218 793.581,564.262 786.765,571.079 796.307,571.079 " />
<polyline points="801.079,560.173 801.079,559.491 801.76,558.128 802.442,557.446 803.805,556.765 806.532,556.765 807.895,557.446 808.577,558.128 809.258,559.491 809.258,560.854 808.577,562.218 807.213,564.262 800.397,571.079 809.94,571.079 " />
<polyline points="818.12,556.765 816.075,557.446 814.711,559.491 814.03,562.899 814.03,564.944 814.711,568.352 816.075,570.397 818.12,571.079 819.483,571.079 821.528,570.397 822.891,568.352 823.573,564.944 823.573,562.899 822.891,559.491 821.528,557.446 819.483,556.765 818.12,556.765 " />
<polyline points="842.658,564.944 854.928,564.944 " />
<polyline points="875.376,556.765 882.874,556.765 878.785,562.218 880.829,562.218 882.193,562.899 882.874,563.581 883.556,565.626 883.556,566.989 882.874,569.034 881.511,570.397 879.466,571.079 877.421,571.079 875.376,570.397 874.695,569.716 874.013,568.352 " />
<polyline points="895.825,556.765 889.009,556.765 888.327,562.899 889.009,562.218 891.054,561.536 893.099,561.536 895.144,562.218 896.507,563.581 897.189,565.626 897.189,566.989 896.507,569.034 895.144,570.397 893.099,571.079 891.054,571.079 889.009,570.397 888.327,569.716 887.646,568.352 " />
<polyline points="905.368,556.765 903.323,557.446 901.96,559.491 901.278,562.899 901.278,564.944 901.96,568.352 903.323,570.397 905.368,571.079 906.731,571.079 908.776,570.397 910.14,568.352 910.821,564.944 910.821,562.899 910.14,559.491 908.776,557.446 906.731,556.765 905.368,556.765 " />
<polyline points="803.124,533.589 796.307,547.903 " />
<polyline points="793.581,533.589 803.124,533.589 " />
<polyline points="815.393,533.589 808.577,533.589 807.895,539.724 808.577,539.042 810.622,538.361 812.667,538.361 814.711,539.042 816.075,540.405 816.756,542.45 816.756,543.814 816.075,545.858 814.711,547.222 812.667,547.903 810.622,547.903 808.577,547.222 807.895,546.54 807.213,545.177 " />
<polyline points="835.842,541.769 848.111,541.769 " />
<polyline points="867.879,536.997 867.879,536.316 868.56,534.952 869.242,534.271 870.605,533.589 873.332,533.589 874.695,534.271 875.376,534.952 876.058,536.316 876.058,537.679 875.376,539.042 874.013,541.087 867.197,547.903 876.74,547.903 " />
<polyline points="884.919,533.589 882.874,534.271 881.511,536.316 880.829,539.724 880.829,541.769 881.511,545.177 882.874,547.222 884.919,547.903 886.283,547.903 888.327,547.222 889.691,545.177 890.372,541.769 890.372,539.724 889.691,536.316 888.327,534.271 886.283,533.589 884.919,533.589 " />
<polyline points="898.552,533.589 896.507,534.271 895.144,536.316 894.462,539.724 894.462,541.769 895.144,545.177 896.507,547.222 898.552,547.903 899.915,547.903 901.96,547.222 903.323,545.177 904.005,541.769 904.005,539.724 903.323,536.316 901.96,534.271 899.915,533.589 898.552,533.589 " />
<polyline points="831.071,502.455 831.071,511.998 " />
<polyline points="831.071,505.182 833.115,503.137 834.479,502.455 836.524,502.455 837.887,503.137 838.568,505.182 838.568,511.998 " />
<polyline points="838.568,505.182 840.613,503.137 841.977,502.455 844.021,502.455 845.385,503.137 846.066,505.182 846.066,511.998 " />
<polyline points="851.519,502.455 851.519,511.998 " />
<polyline points="851.519,505.182 853.564,503.137 854.928,502.455 856.972,502.455 858.336,503.137 859.017,505.182 859.017,511.998 " />
<polyline points="859.017,505.182 861.062,503.137 862.425,502.455 864.47,502.455 865.834,503.137 866.515,505.182 866.515,511.998 " />
<polyline points="927.932,498.366 928.614,499.047 929.296,498.366 928.614,497.684 927.932,498.366 " />
<polyline points="928.614,503.137 928.614,511.998 " />
<polyline points="934.067,502.455 934.067,511.998 " />
<polyline points="934.067,505.182 936.112,503.137 937.475,502.455 939.52,502.455 940.883,503.137 941.565,505.182 941.565,511.998 " />
<polyline points="947.7,510.635 947.018,511.317 947.7,511.998 948.381,511.317 947.7,510.635 " />
<polyline points="939.861,533.589 933.045,543.132 943.269,543.132 " />
<polyline points="939.861,533.589 939.861,547.903 " />
<polyline points="942.928,556.765 936.112,571.079 " />
<polyline points="933.385,556.765 942.928,556.765 " />
<polyline points="927.592,582.666 928.955,581.985 931,579.94 931,594.254 " />
<polyline points="943.269,579.94 941.224,580.622 939.861,582.666 939.179,586.075 939.179,588.12 939.861,591.528 941.224,593.573 943.269,594.254 944.632,594.254 946.677,593.573 948.04,591.528 948.722,588.12 948.722,586.075 948.04,582.666 946.677,580.622 944.632,579.94 943.269,579.94 " />
<polyline points="927.592,605.842 928.955,605.16 931,603.115 931,617.43 " />
<polyline points="940.543,603.115 948.04,603.115 943.951,608.568 945.996,608.568 947.359,609.25 948.04,609.932 948.722,611.977 948.722,613.34 948.04,615.385 946.677,616.748 944.632,617.43 942.587,617.43 940.543,616.748 939.861,616.066 939.179,614.703 " />
<polyline points="967.867,502.455 967.867,511.998 " />
<polyline points="967.867,505.182 969.912,503.137 971.275,502.455 973.32,502.455 974.683,503.137 975.365,505.182 975.365,511.998 " />
<polyline points="975.365,505.182 977.41,503.137 978.773,502.455 980.818,502.455 982.181,503.137 982.863,505.182 982.863,511.998 " />
<polyline points="988.316,502.455 988.316,511.998 " />
<polyline points="988.316,505.182 990.361,503.137 991.724,502.455 993.769,502.455 995.132,503.137 995.814,505.182 995.814,511.998 " />
<polyline points="995.814,505.182 997.858,503.137 999.222,502.455 1001.27,502.455 1002.63,503.137 1003.31,505.182 1003.31,511.998 " />
<polyline points="968.208,536.316 969.571,535.634 971.616,533.589 971.616,547.903 " />
<polyline points="983.885,533.589 981.84,534.271 980.477,536.316 979.795,539.724 979.795,541.769 980.477,545.177 981.84,547.222 983.885,547.903 985.248,547.903 987.293,547.222 988.656,545.177 989.338,541.769 989.338,539.724 988.656,536.316 987.293,534.271 985.248,533.589 983.885,533.589 " />
<polyline points="997.518,533.589 995.473,534.271 994.109,536.316 993.428,539.724 993.428,541.769 994.109,545.177 995.473,547.222 997.518,547.903 998.881,547.903 1000.93,547.222 1002.29,545.177 1002.97,541.769 1002.97,539.724 1002.29,536.316 1000.93,534.271 998.881,533.589 997.518,533.589 " />
<polyline points="968.208,559.491 969.571,558.809 971.616,556.765 971.616,571.079 " />
<polyline points="983.203,556.765 981.159,557.446 980.477,558.809 980.477,560.173 981.159,561.536 982.522,562.218 985.248,562.899 987.293,563.581 988.656,564.944 989.338,566.307 989.338,568.352 988.656,569.716 987.975,570.397 985.93,571.079 983.203,571.079 981.159,570.397 980.477,569.716 979.795,568.352 979.795,566.307 980.477,564.944 981.84,563.581 983.885,562.899 986.612,562.218 987.975,561.536 988.656,560.173 988.656,558.809 987.975,557.446 985.93,556.765 983.203,556.765 " />
<polyline points="997.518,556.765 995.473,557.446 994.109,559.491 993.428,562.899 993.428,564.944 994.109,568.352 995.473,570.397 997.518,571.079 998.881,571.079 1000.93,570.397 1002.29,568.352 1002.97,564.944 1002.97,562.899 1002.29,559.491 1000.93,557.446 998.881,556.765 997.518,556.765 " />
<polyline points="967.867,583.348 967.867,582.666 968.548,581.303 969.23,580.622 970.593,579.94 973.32,579.94 974.683,580.622 975.365,581.303 976.046,582.666 976.046,584.03 975.365,585.393 974.001,587.438 967.185,594.254 976.728,594.254 " />
<polyline points="988.997,579.94 982.181,579.94 981.499,586.075 982.181,585.393 984.226,584.711 986.271,584.711 988.316,585.393 989.679,586.756 990.361,588.801 990.361,590.164 989.679,592.209 988.316,593.573 986.271,594.254 984.226,594.254 982.181,593.573 981.499,592.891 980.818,591.528 " />
<polyline points="998.54,579.94 996.495,580.622 995.132,582.666 994.45,586.075 994.45,588.12 995.132,591.528 996.495,593.573 998.54,594.254 999.903,594.254 1001.95,593.573 1003.31,591.528 1003.99,588.12 1003.99,586.075 1003.31,582.666 1001.95,580.622 999.903,579.94 998.54,579.94 " />
<polyline points="968.548,603.115 976.046,603.115 971.957,608.568 974.001,608.568 975.365,609.25 976.046,609.932 976.728,611.977 976.728,613.34 976.046,615.385 974.683,616.748 972.638,617.43 970.593,617.43 968.548,616.748 967.867,616.066 967.185,614.703 " />
<polyline points="982.181,603.115 989.679,603.115 985.589,608.568 987.634,608.568 988.997,609.25 989.679,609.932 990.361,611.977 990.361,613.34 989.679,615.385 988.316,616.748 986.271,617.43 984.226,617.43 982.181,616.748 981.499,616.066 980.818,614.703 " />
<polyline points="998.54,603.115 996.495,603.797 995.132,605.842 994.45,609.25 994.45,611.295 995.132,614.703 996.495,616.748 998.54,617.43 999.903,617.43 1001.95,616.748 1003.31,614.703 1003.99,611.295 1003.99,609.25 1003.31,605.842 1001.95,603.797 999.903,603.115 998.54,603.115 " />
<polyline points="610.803,628.412 610.803,452.742 " />
<polyline points="778.363,628.412 778.363,493.477 " />
<polyline points="918.054,628.412 918.054,452.742 " />
<polyline points="957.668,628.412 957.668,493.477 " />
<polyline points="1013.96,628.412 1013.96,452.742 " />
<polyline points="610.803,628.412 1013.96,628.412 " />
<polyline points="610.803,521.483 1013.96,521.483 " />
<polyline points="610.803,493.477 1013.96,493.477 " />
<polyline points="766.483,463.318 766.483,477.632 " />
<polyline points="766.483,463.318 771.254,463.318 773.299,464 774.662,465.363 775.344,466.726 776.026,468.771 776.026,472.179 775.344,474.224 774.662,475.587 773.299,476.951 771.254,477.632 766.483,477.632 " />
<polyline points="779.885,472.389 779.885,483.124 " />
<polyline points="779.885,477.501 780.907,476.479 781.93,475.967 783.464,475.967 784.486,476.479 785.508,477.501 786.02,479.035 786.02,480.057 785.508,481.591 784.486,482.613 783.464,483.124 781.93,483.124 780.907,482.613 779.885,481.591 " />
<polyline points="959.339,463.318 959.339,477.632 " />
<polyline points="968.882,463.318 968.882,477.632 " />
<polyline points="959.339,470.134 968.882,470.134 " />
<polyline points="610.803,452.742 1013.96,452.742 " />
<polyline points="303.826,476.461 303.826,523.027 " />
<polyline points="227.483,361.947 227.483,523.027 " />
<polyline points="276.342,515.392 254.966,515.392 " />
</g>
<g clip-path="url(#clipId0)" fill="rgb(0,0,0)" stroke="rgb(0,0,0)" stroke-width="0.25" >
<path d="M276.342,519.973 276.342,510.812 303.826,515.392 303.826,515.392 z" />
<path d="M254.966,519.973 254.966,510.812 227.483,515.392 227.483,515.392 z" />
</g>
<g clip-path="url(#clipId0)" fill="none" stroke="rgb(0,0,0)" stroke-width="0.1" >
<polyline points="303.826,461.192 303.826,461.192 " />
<polyline points="227.483,346.678 227.483,346.678 " />
<polyline points="227.483,515.392 227.483,515.392 " />
</g>
<g clip-path="url(#clipId0)" fill="none" stroke="rgb(0,0,0)" stroke-width="0.25" >
<polyline points="154.958,346.678 116.919,346.678 " />
<polyline points="286.768,423.021 116.919,423.021 " />
<polyline points="124.553,374.162 124.553,395.538 " />
</g>
<g clip-path="url(#clipId0)" fill="rgb(0,0,0)" stroke="rgb(0,0,0)" stroke-width="0.25" >
<path d="M129.134,374.162 119.972,374.162 124.553,346.678 124.553,346.678 z" />
<path d="M129.134,395.538 119.972,395.538 124.553,423.021 124.553,423.021 z" />
</g>
<g clip-path="url(#clipId0)" fill="none" stroke="rgb(0,0,0)" stroke-width="0.1" >
<polyline points="170.226,346.678 170.226,346.678 " />
<polyline points="302.036,423.021 302.036,423.021 " />
<polyline points="124.553,423.021 124.553,423.021 " />
</g>
<g clip-path="url(#clipId0)" fill="none" stroke="rgb(0,0,0)" stroke-width="0.25" >
<polyline points="599.367,155.822 640.369,155.822 " />
<polyline points="599.367,308.507 640.369,308.507 " />
<polyline points="635.74,172.484 635.74,291.846 " />
</g>
<g clip-path="url(#clipId0)" fill="rgb(0,0,0)" stroke="rgb(0,0,0)" stroke-width="0.25" >
<path d="M638.517,172.484 632.963,172.484 635.74,155.822 635.74,155.822 z" />
<path d="M638.517,291.846 632.963,291.846 635.74,308.507 635.74,308.507 z" />
</g>
<g clip-path="url(#clipId0)" fill="none" stroke="rgb(0,0,0)" stroke-width="0.25" >
<polyline points="456.511,470.449 456.511,520.021 " />
<polyline points="303.826,470.449 303.826,520.021 " />
<polyline points="439.849,515.392 320.487,515.392 " />
</g>
<g clip-path="url(#clipId0)" fill="rgb(0,0,0)" stroke="rgb(0,0,0)" stroke-width="0.25" >
<path d="M439.849,518.169 439.849,512.615 456.511,515.392 456.511,515.392 z" />
<path d="M320.487,518.169 320.487,512.615 303.826,515.392 303.826,515.392 z" />
</g>
<g clip-path="url(#clipId0)" fill="none" stroke="rgb(0,0,0)" stroke-width="0.25" >
<polyline points="160.97,117.651 119.925,117.651 " />
<polyline points="160.97,346.678 119.925,346.678 " />
<polyline points="124.553,134.312 124.553,330.017 " />
</g>
<g clip-path="url(#clipId0)" fill="rgb(0,0,0)" stroke="rgb(0,0,0)" stroke-width="0.25" >
<path d="M127.33,134.312 121.776,134.312 124.553,117.651 124.553,117.651 z" />
<path d="M127.33,330.017 121.776,330.017 124.553,346.678 124.553,346.678 z" />
</g>
<g clip-path="url(#clipId0)" fill="none" stroke="rgb(0,0,0)" stroke-width="0.25" >
<path d="M309.798,248.715  A72.2904,72.2904 0 0,0 363.618,302.535 " />
</g>
<g clip-path="url(#clipId0)" fill="rgb(0,0,0)" stroke="rgb(0,0,0)" stroke-width="0.25" >
<path d="M312.556,248.395 307.039,249.035 307.878,232.165 307.878,232.165 z" />
<path d="M363.938,299.777 363.298,305.293 380.168,304.455 380.168,304.455 z" />
</g>
<g clip-path="url(#clipId0)" fill="none" stroke="rgb(0,0,0)" stroke-width="0.1" >
<polyline points="380.168,307.36 380.168,307.36 " />
</g>
<g clip-path="url(#clipId0)" fill="none" stroke="rgb(0,0,0)" stroke-width="0.25" >
<path d="M380.168,308.801  A277.63,277.63 0 0,0 227.483,346.678 " />
<path d="M456.511,346.678  A84.029,84.029 0 0,0 380.168,309.404 " />
<polyline points="267.564,285.271 266.77,287.651 265.183,289.238 262.803,290.031 262.01,290.031 259.63,289.238 258.043,287.651 257.249,285.271 257.249,284.477 258.043,282.097 259.63,280.51 262.01,279.717 262.803,279.717 265.183,280.51 266.77,282.097 267.564,285.271 267.564,289.238 266.77,293.205 265.183,295.585 262.803,296.378 261.216,296.378 258.836,295.585 258.043,293.998 " />
<polyline points="277.878,279.717 275.498,280.51 273.911,282.89 273.118,286.858 273.118,289.238 273.911,293.205 275.498,295.585 277.878,296.378 279.465,296.378 281.845,295.585 283.432,293.205 284.225,289.238 284.225,286.858 283.432,282.89 281.845,280.51 279.465,279.717 277.878,279.717 " />
<polyline points="298.6,275.127 297.013,275.92 295.426,277.507 294.633,279.887 294.633,281.474 295.426,283.854 297.013,285.441 298.6,286.234 300.98,286.234 302.567,285.441 304.154,283.854 304.947,281.474 304.947,279.887 304.154,277.507 302.567,275.92 300.98,275.127 298.6,275.127 " />
<polyline points="909.291,715.357 907.351,713.417 904.442,712.448 900.563,712.448 897.654,713.417 895.714,715.357 895.714,717.296 896.684,719.236 897.654,720.205 899.593,721.175 905.412,723.114 907.351,724.084 908.321,725.054 909.291,726.993 909.291,729.903 907.351,731.842 904.442,732.812 900.563,732.812 897.654,731.842 895.714,729.903 " />
<polyline points="916.079,712.448 916.079,732.812 " />
<polyline points="916.079,712.448 922.867,712.448 925.776,713.417 927.715,715.357 928.685,717.296 929.655,720.205 929.655,725.054 928.685,727.963 927.715,729.903 925.776,731.842 922.867,732.812 916.079,732.812 " />
<polyline points="947.11,712.448 937.413,712.448 936.443,721.175 937.413,720.205 940.322,719.236 943.231,719.236 946.14,720.205 948.08,722.145 949.049,725.054 949.049,726.993 948.08,729.903 946.14,731.842 943.231,732.812 940.322,732.812 937.413,731.842 936.443,730.872 935.473,728.933 " />
<polyline points="955.837,724.084 973.292,724.084 " />
<polyline points="982.99,716.326 984.929,715.357 987.838,712.448 987.838,732.812 " />
<polyline points="1000.44,717.296 1000.44,716.326 1001.41,714.387 1002.38,713.417 1004.32,712.448 1008.2,712.448 1010.14,713.417 1011.11,714.387 1012.08,716.326 1012.08,718.266 1011.11,720.205 1009.17,723.114 999.475,732.812 1013.05,732.812 " />
<polyline points="67.5729,257.411 67.071,256.407 66.0674,255.404 65.0637,254.902 63.0564,254.902 62.0527,255.404 61.049,256.407 60.5472,257.411 60.0454,258.917 60.0454,261.426 60.5472,262.931 61.049,263.935 62.0527,264.939 63.0564,265.44 65.0637,265.44 66.0674,264.939 67.071,263.935 67.5729,262.931 " />
<polyline points="45.5048,243.205 38.8137,260.769 " />
<polyline points="45.5048,243.205 52.1959,260.769 " />
<polyline points="41.3229,254.914 49.6867,254.914 " />
<polyline points="67.5729,210.202 67.071,209.198 66.0674,208.194 65.0637,207.692 63.0564,207.692 62.0527,208.194 61.049,209.198 60.5472,210.202 60.0454,211.707 60.0454,214.216 60.5472,215.722 61.049,216.725 62.0527,217.729 63.0564,218.231 65.0637,218.231 66.0674,217.729 67.071,216.725 67.5729,215.722 " />
<polyline points="45.5048,195.996 43.832,196.832 42.1593,198.505 41.3229,200.177 40.4865,202.687 40.4865,206.869 41.3229,209.378 42.1593,211.05 43.832,212.723 45.5048,213.56 48.8504,213.56 50.5231,212.723 52.1959,211.05 53.0323,209.378 53.8687,206.869 53.8687,202.687 53.0323,200.177 52.1959,198.505 50.5231,196.832 48.8504,195.996 45.5048,195.996 " />
<polyline points="48.014,210.214 53.0323,215.232 " />
<polyline points="356.272,569.904 356.272,580.442 " />
<polyline points="356.272,574.922 357.276,573.918 358.28,573.417 359.785,573.417 360.789,573.918 361.793,574.922 362.294,576.428 362.294,577.431 361.793,578.937 360.789,579.94 359.785,580.442 358.28,580.442 357.276,579.94 356.272,578.937 " />
<polyline points="342.195,560.029 340.523,560.866 338.85,562.539 338.013,564.211 337.177,566.721 337.177,570.902 338.013,573.412 338.85,575.084 340.523,576.757 342.195,577.594 345.541,577.594 347.214,576.757 348.886,575.084 349.723,573.412 350.559,570.902 350.559,566.721 349.723,564.211 348.886,562.539 347.214,560.866 345.541,560.029 342.195,560.029 " />
<polyline points="344.705,574.248 349.723,579.266 " />
<polyline points="413.582,569.904 413.582,580.442 " />
<polyline points="413.582,574.922 414.586,573.918 415.589,573.417 417.095,573.417 418.098,573.918 419.102,574.922 419.604,576.428 419.604,577.431 419.102,578.937 418.098,579.94 417.095,580.442 415.589,580.442 414.586,579.94 413.582,578.937 " />
<polyline points="399.505,560.029 392.814,577.594 " />
<polyline points="399.505,560.029 406.196,577.594 " />
<polyline points="395.323,571.739 403.687,571.739 " />
<polyline points="708.195,209.995 707.191,208.992 705.686,208.49 703.678,208.49 702.173,208.992 701.169,209.995 701.169,210.999 701.671,212.003 702.173,212.505 703.177,213.006 706.188,214.01 707.191,214.512 707.693,215.014 708.195,216.017 708.195,217.523 707.191,218.527 705.686,219.028 703.678,219.028 702.173,218.527 701.169,217.523 " />
<polyline points="708.195,257.764 707.191,256.76 705.686,256.259 703.678,256.259 702.173,256.76 701.169,257.764 701.169,258.768 701.671,259.771 702.173,260.273 703.177,260.775 706.188,261.779 707.191,262.281 707.693,262.782 708.195,263.786 708.195,265.292 707.191,266.295 705.686,266.797 703.678,266.797 702.173,266.295 701.169,265.292 " />
<polyline points="686.168,244.926 679.477,262.49 " />
<polyline points="686.168,244.926 692.859,262.49 " />
<polyline points="681.986,256.636 690.35,256.636 " />
<polyline points="686.168,197.158 684.495,197.994 682.822,199.667 681.986,201.339 681.15,203.849 681.15,208.031 681.986,210.54 682.822,212.212 684.495,213.885 686.168,214.722 689.514,214.722 691.186,213.885 692.859,212.212 693.695,210.54 694.532,208.031 694.532,203.849 693.695,201.339 692.859,199.667 691.186,197.994 689.514,197.158 686.168,197.158 " />
<polyline points="688.677,211.376 693.695,216.394 " />
</g>
</svg>
