<?xml version="1.0" standalone="no"?>
<svg viewBox="0 0 1024 768" version="1.1" xmlns="http://www.w3.org/2000/svg" xmlns:xlink="http://www.w3.org/1999/xlink" stroke-linecap="round" stroke-linejoin="round" fill-rule="evenodd" xml:space="preserve" >
<defs >
<clipPath id="clipId0" >
<path d="M0,768 1024,768 1024,0 0,0 z" />
</clipPath>
</defs>
<g clip-path="url(#clipId0)" fill="none" stroke="rgb(0,0,0)" stroke-width="0.1" />
<g clip-path="url(#clipId0)" fill="none" stroke="rgb(0,0,0)" stroke-width="0.25" >
<polyline points="213.803,96.8974 213.803,332.752 " />
<polyline points="213.803,332.752 250.655,332.752 " />
<polyline points="425.643,485.628 493.169,526.144 " />
<polyline points="213.803,96.8974 250.655,96.8974 " />
<polyline points="570.378,332.752 550.724,332.752 " />
<polyline points="605.137,414.176 564.621,346.649 " />
<polyline points="570.378,96.8974 570.378,332.752 " />
<polyline points="634.111,443.934 522.928,555.117 " />
<polyline points="634.111,443.934 608.052,417.876 " />
<polyline points="522.928,555.117 496.869,529.059 " />
<polyline points="651.453,136.206 688.305,136.206 " />
<polyline points="651.453,293.443 688.305,293.443 " />
<polyline points="570.378,96.8974 647.067,135.242 " />
<polyline points="647.067,294.407 570.378,332.752 " />
<polyline points="688.305,136.206 688.305,293.443 " />
<polyline points="293.818,214.825 279.92,200.927 " />
<polyline points="293.818,214.825 307.716,228.722 " />
<polyline points="293.818,214.825 313.473,214.825 " />
<polyline points="293.818,214.825 274.164,214.825 " />
<polyline points="254.509,214.825 193.959,214.825 " />
<polyline points="333.127,214.825 706.566,214.825 " />
<polyline points="321.614,242.62 592.622,513.628 " />
<polyline points="255.569,96.8974 255.569,332.752 " />
<polyline points="250.655,96.8974 250.655,332.752 " />
<path d="M255.569,96.8974  A2.55918,2.55918 0 0,0 250.655,96.8974 " />
<polyline points="255.569,96.8974 570.378,96.8974 " />
<path d="M250.655,332.752  A2.55918,2.55918 0 0,0 255.569,332.752 " />
<polyline points="255.569,332.752 272.767,332.752 " />
<polyline points="651.453,136.206 651.453,293.443 " />
<polyline points="646.539,136.206 646.539,293.443 " />
<path d="M651.453,136.206  A2.55918,2.55918 0 0,0 646.539,136.206 " />
<path d="M646.539,293.443  A2.55918,2.55918 0 0,0 651.453,293.443 " />
<path d="M608.052,417.876  A2.55918,2.55918 0 0,0 604.578,414.401 " />
<polyline points="604.578,414.401 493.395,525.584 " />
<polyline points="608.052,417.876 496.869,529.059 " />
<path d="M493.395,525.584  A2.55918,2.55918 0 0,0 496.869,529.059 " />
<polyline points="570.378,86.5217 570.378,42.6814 " />
<polyline points="648.996,123.988 648.996,42.6814 " />
<polyline points="589.054,47.8693 630.32,47.8693 " />
</g>
<g clip-path="url(#clipId0)" fill="rgb(0,0,0)" stroke="rgb(0,0,0)" stroke-width="0.25" >
<path d="M589.054,44.7566 589.054,50.982 570.378,47.8693 570.378,47.8693 z" />
<path d="M630.32,44.7566 630.32,50.982 648.996,47.8693 648.996,47.8693 z" />
</g>
<g clip-path="url(#clipId0)" fill="none" stroke="rgb(0,0,0)" stroke-width="0.25" >
<polyline points="168.162,96.8974 168.162,67.4157 " />
<polyline points="168.162,67.4157 148.507,67.4157 " />
<polyline points="734.339,136.206 734.339,106.725 " />
<polyline points="734.339,106.725 753.994,106.725 " />
<polyline points="664.76,474.584 685.607,453.737 " />
<polyline points="685.607,453.737 705.262,453.737 " />
<polyline points="425.212,597.241 446.059,618.088 " />
<polyline points="273.417,633.982 264.058,647.085 278.097,647.085 " />
<polyline points="273.417,633.982 273.417,653.637 " />
<polyline points="285.584,631.174 284.648,632.11 283.712,631.174 284.648,630.238 285.584,631.174 285.584,633.046 284.648,634.918 283.712,635.854 " />
<polyline points="291.2,631.174 290.264,632.11 289.328,631.174 290.264,630.238 291.2,631.174 291.2,633.046 290.264,634.918 289.328,635.854 " />
<polyline points="303.367,630.238 301.495,632.11 299.623,634.918 297.751,638.662 296.815,643.341 296.815,647.085 297.751,651.765 299.623,655.508 301.495,658.316 303.367,660.188 " />
<polyline points="311.79,637.726 313.662,636.79 316.47,633.982 316.47,653.637 " />
<polyline points="333.316,633.982 330.509,634.918 328.637,637.726 327.701,642.405 327.701,645.213 328.637,649.893 330.509,652.701 333.316,653.637 335.188,653.637 337.996,652.701 339.868,649.893 340.804,645.213 340.804,642.405 339.868,637.726 337.996,634.918 335.188,633.982 333.316,633.982 " />
<polyline points="352.035,633.982 349.227,634.918 347.355,637.726 346.419,642.405 346.419,645.213 347.355,649.893 349.227,652.701 352.035,653.637 353.907,653.637 356.715,652.701 358.586,649.893 359.522,645.213 359.522,642.405 358.586,637.726 356.715,634.918 353.907,633.982 352.035,633.982 " />
<polyline points="366.074,640.534 366.074,653.637 " />
<polyline points="366.074,644.277 368.882,641.47 370.754,640.534 373.561,640.534 375.433,641.47 376.369,644.277 376.369,653.637 " />
<polyline points="376.369,644.277 379.177,641.47 381.049,640.534 383.857,640.534 385.728,641.47 386.664,644.277 386.664,653.637 " />
<polyline points="394.152,640.534 394.152,653.637 " />
<polyline points="394.152,644.277 396.96,641.47 398.831,640.534 401.639,640.534 403.511,641.47 404.447,644.277 404.447,653.637 " />
<polyline points="404.447,644.277 407.255,641.47 409.127,640.534 411.934,640.534 413.806,641.47 414.742,644.277 414.742,653.637 " />
<polyline points="421.294,630.238 423.166,632.11 425.037,634.918 426.909,638.662 427.845,643.341 427.845,647.085 426.909,651.765 425.037,655.508 423.166,658.316 421.294,660.188 " />
<polyline points="711.885,442.487 711.885,462.142 " />
<polyline points="711.885,442.487 718.437,442.487 721.245,443.423 723.117,445.295 724.052,447.167 724.988,449.974 724.988,454.654 724.052,457.462 723.117,459.334 721.245,461.206 718.437,462.142 711.885,462.142 " />
<polyline points="730.314,455.052 730.314,469.793 " />
<polyline points="730.314,462.072 731.718,460.668 733.122,459.966 735.228,459.966 736.632,460.668 738.035,462.072 738.737,464.177 738.737,465.581 738.035,467.687 736.632,469.091 735.228,469.793 733.122,469.793 731.718,469.091 730.314,467.687 " />
</g>
<g clip-path="url(#clipId0)" fill="rgb(0,0,0)" stroke="rgb(0,0,0)" stroke-width="0.25" >
<path d="M703.387,615.384 696.716,622.055 720.065,638.733 720.065,638.733 z" />
</g>
<g clip-path="url(#clipId0)" fill="none" stroke="rgb(0,0,0)" stroke-width="0.25" >
<polyline points="700.052,618.72 638.976,557.652 " />
<polyline points="760.618,95.4744 760.618,115.129 " />
<polyline points="760.618,95.4744 767.169,95.4744 769.977,96.4103 771.849,98.2822 772.785,100.154 773.721,102.962 773.721,107.641 772.785,110.449 771.849,112.321 769.977,114.193 767.169,115.129 760.618,115.129 " />
<polyline points="787.119,112.602 786.417,111.198 784.311,110.496 782.205,110.496 780.099,111.198 779.397,112.602 780.099,114.006 781.503,114.708 785.013,115.41 786.417,116.112 787.119,117.516 787.119,118.218 786.417,119.622 784.311,120.324 782.205,120.324 780.099,119.622 779.397,118.218 " />
<polyline points="118.078,56.1654 118.078,75.8199 " />
<polyline points="118.078,56.1654 124.629,56.1654 127.437,57.1013 129.309,58.9731 130.245,60.845 131.181,63.6528 131.181,68.3324 130.245,71.1402 129.309,73.0121 127.437,74.8839 124.629,75.8199 118.078,75.8199 " />
<polyline points="144.93,73.2931 143.526,71.8892 142.122,71.1872 140.016,71.1872 138.612,71.8892 137.208,73.2931 136.506,75.3989 136.506,76.8028 137.208,78.9086 138.612,80.3125 140.016,81.0145 142.122,81.0145 143.526,80.3125 144.93,78.9086 " />
<polyline points="570.658,11.2731 570.658,30.9276 " />
<polyline points="570.658,11.2731 577.21,11.2731 580.018,12.2091 581.889,14.0809 582.825,15.9528 583.761,18.7606 583.761,23.4402 582.825,26.248 581.889,28.1199 580.018,29.9917 577.21,30.9276 570.658,30.9276 " />
<polyline points="609.967,22.5043 626.814,22.5043 " />
<polyline points="634.301,11.2731 634.301,30.9276 " />
<polyline points="634.301,11.2731 640.853,11.2731 643.661,12.2091 645.533,14.0809 646.468,15.9528 647.404,18.7606 647.404,23.4402 646.468,26.248 645.533,28.1199 643.661,29.9917 640.853,30.9276 634.301,30.9276 " />
<polyline points="680.162,7.52941 678.29,9.40127 676.418,12.2091 674.546,15.9528 673.61,20.6324 673.61,24.3761 674.546,29.0558 676.418,32.7995 678.29,35.6073 680.162,37.4791 " />
<polyline points="688.585,15.0168 690.457,14.0809 693.265,11.2731 693.265,30.9276 " />
<polyline points="707.304,8.46534 706.368,9.40127 705.432,8.46534 706.368,7.52941 707.304,8.46534 707.304,10.3372 706.368,12.2091 705.432,13.145 " />
<polyline points="712.919,8.46534 711.984,9.40127 711.048,8.46534 711.984,7.52941 712.919,8.46534 712.919,10.3372 711.984,12.2091 711.048,13.145 " />
<polyline points="725.087,7.52941 723.215,9.40127 721.343,12.2091 719.471,15.9528 718.535,20.6324 718.535,24.3761 719.471,29.0558 721.343,32.7995 723.215,35.6073 725.087,37.4791 " />
<polyline points="731.638,15.9528 731.638,15.0168 732.574,13.145 733.51,12.2091 735.382,11.2731 739.125,11.2731 740.997,12.2091 741.933,13.145 742.869,15.0168 742.869,16.8887 741.933,18.7606 740.061,21.5684 730.702,30.9276 743.805,30.9276 " />
<polyline points="760.652,11.2731 751.293,11.2731 750.357,19.6965 751.293,18.7606 754.1,17.8246 756.908,17.8246 759.716,18.7606 761.588,20.6324 762.524,23.4402 762.524,25.3121 761.588,28.1199 759.716,29.9917 756.908,30.9276 754.1,30.9276 751.293,29.9917 750.357,29.0558 749.421,27.1839 " />
<polyline points="769.075,17.8246 769.075,30.9276 " />
<polyline points="769.075,21.5684 771.883,18.7606 773.755,17.8246 776.563,17.8246 778.435,18.7606 779.37,21.5684 779.37,30.9276 " />
<polyline points="779.37,21.5684 782.178,18.7606 784.05,17.8246 786.858,17.8246 788.73,18.7606 789.666,21.5684 789.666,30.9276 " />
<polyline points="797.153,17.8246 797.153,30.9276 " />
<polyline points="797.153,21.5684 799.961,18.7606 801.833,17.8246 804.641,17.8246 806.512,18.7606 807.448,21.5684 807.448,30.9276 " />
<polyline points="807.448,21.5684 810.256,18.7606 812.128,17.8246 814.936,17.8246 816.808,18.7606 817.744,21.5684 817.744,30.9276 " />
<polyline points="824.295,7.52941 826.167,9.40127 828.039,12.2091 829.911,15.9528 830.847,20.6324 830.847,24.3761 829.911,29.0558 828.039,32.7995 826.167,35.6073 824.295,37.4791 " />
<polyline points="857.989,17.8246 857.989,30.9276 " />
<polyline points="857.989,21.5684 860.796,18.7606 862.668,17.8246 865.476,17.8246 867.348,18.7606 868.284,21.5684 868.284,30.9276 " />
<polyline points="868.284,21.5684 871.092,18.7606 872.963,17.8246 875.771,17.8246 877.643,18.7606 878.579,21.5684 878.579,30.9276 " />
<polyline points="885.13,12.2091 886.066,13.145 887.002,12.2091 886.066,11.2731 885.13,12.2091 " />
<polyline points="886.066,18.7606 886.066,30.9276 " />
<polyline points="893.554,17.8246 893.554,30.9276 " />
<polyline points="893.554,21.5684 896.362,18.7606 898.233,17.8246 901.041,17.8246 902.913,18.7606 903.849,21.5684 903.849,30.9276 " />
<polyline points="912.272,29.0558 911.336,29.9917 912.272,30.9276 913.208,29.9917 912.272,29.0558 " />
<polyline points="677.429,52.8617 675.557,53.7977 673.685,55.6695 672.75,58.4773 672.75,60.3492 673.685,63.157 675.557,65.0288 677.429,65.9647 680.237,65.9647 682.109,65.0288 683.981,63.157 684.917,60.3492 684.917,58.4773 683.981,55.6695 682.109,53.7977 680.237,52.8617 677.429,52.8617 " />
<polyline points="691.468,52.8617 691.468,65.9647 " />
<polyline points="691.468,58.4773 692.404,55.6695 694.276,53.7977 696.148,52.8617 698.956,52.8617 " />
<polyline points="725.162,50.0539 727.033,49.118 729.841,46.3102 729.841,65.9647 " />
<polyline points="742.008,50.9899 742.008,50.0539 742.944,48.1821 743.88,47.2462 745.752,46.3102 749.496,46.3102 751.368,47.2462 752.303,48.1821 753.239,50.0539 753.239,51.9258 752.303,53.7977 750.432,56.6055 741.072,65.9647 754.175,65.9647 " />
<polyline points="762.599,43.5024 761.663,44.4384 760.727,43.5024 761.663,42.5665 762.599,43.5024 762.599,45.3743 761.663,47.2462 760.727,48.1821 " />
<polyline points="768.214,43.5024 767.278,44.4384 766.342,43.5024 767.278,42.5665 768.214,43.5024 768.214,45.3743 767.278,47.2462 766.342,48.1821 " />
<polyline points="780.381,42.5665 778.51,44.4384 776.638,47.2462 774.766,50.9899 773.83,55.6695 773.83,59.4132 774.766,64.0929 776.638,67.8366 778.51,70.6444 780.381,72.5163 " />
<polyline points="787.869,46.3102 798.164,46.3102 792.548,53.7977 795.356,53.7977 797.228,54.7336 798.164,55.6695 799.1,58.4773 799.1,60.3492 798.164,63.157 796.292,65.0288 793.484,65.9647 790.677,65.9647 787.869,65.0288 786.933,64.0929 785.997,62.221 " />
<polyline points="810.331,46.3102 807.523,47.2462 805.651,50.0539 804.716,54.7336 804.716,57.5414 805.651,62.221 807.523,65.0288 810.331,65.9647 812.203,65.9647 815.011,65.0288 816.883,62.221 817.819,57.5414 817.819,54.7336 816.883,50.0539 815.011,47.2462 812.203,46.3102 810.331,46.3102 " />
<polyline points="829.05,46.3102 826.242,47.2462 824.37,50.0539 823.434,54.7336 823.434,57.5414 824.37,62.221 826.242,65.0288 829.05,65.9647 830.922,65.9647 833.729,65.0288 835.601,62.221 836.537,57.5414 836.537,54.7336 835.601,50.0539 833.729,47.2462 830.922,46.3102 829.05,46.3102 " />
<polyline points="843.089,52.8617 843.089,65.9647 " />
<polyline points="843.089,56.6055 845.896,53.7977 847.768,52.8617 850.576,52.8617 852.448,53.7977 853.384,56.6055 853.384,65.9647 " />
<polyline points="853.384,56.6055 856.192,53.7977 858.063,52.8617 860.871,52.8617 862.743,53.7977 863.679,56.6055 863.679,65.9647 " />
<polyline points="871.167,52.8617 871.167,65.9647 " />
<polyline points="871.167,56.6055 873.974,53.7977 875.846,52.8617 878.654,52.8617 880.526,53.7977 881.462,56.6055 881.462,65.9647 " />
<polyline points="881.462,56.6055 884.27,53.7977 886.141,52.8617 888.949,52.8617 890.821,53.7977 891.757,56.6055 891.757,65.9647 " />
<polyline points="898.308,42.5665 900.18,44.4384 902.052,47.2462 903.924,50.9899 904.86,55.6695 904.86,59.4132 903.924,64.0929 902.052,67.8366 900.18,70.6444 898.308,72.5163 " />
<polyline points="932.002,52.8617 932.002,65.9647 " />
<polyline points="932.002,56.6055 934.81,53.7977 936.682,52.8617 939.489,52.8617 941.361,53.7977 942.297,56.6055 942.297,65.9647 " />
<polyline points="942.297,56.6055 945.105,53.7977 946.977,52.8617 949.785,52.8617 951.656,53.7977 952.592,56.6055 952.592,65.9647 " />
<polyline points="970.375,52.8617 970.375,65.9647 " />
<polyline points="970.375,55.6695 968.503,53.7977 966.631,52.8617 963.824,52.8617 961.952,53.7977 960.08,55.6695 959.144,58.4773 959.144,60.3492 960.08,63.157 961.952,65.0288 963.824,65.9647 966.631,65.9647 968.503,65.0288 970.375,63.157 " />
<polyline points="976.927,52.8617 987.222,65.9647 " />
<polyline points="987.222,52.8617 976.927,65.9647 " />
<polyline points="994.709,64.0929 993.773,65.0288 994.709,65.9647 995.645,65.0288 994.709,64.0929 " />
<polyline points="1002.2,42.5665 1004.07,44.4384 1005.94,47.2462 1007.81,50.9899 1008.75,55.6695 1008.75,59.4132 1007.81,64.0929 1005.94,67.8366 1004.07,70.6444 1002.2,72.5163 " />
<polyline points="597.51,28.4008 596.106,26.9969 594.702,26.295 592.597,26.295 591.193,26.9969 589.789,28.4008 589.087,30.5067 589.087,31.9106 589.789,34.0164 591.193,35.4203 592.597,36.1223 594.702,36.1223 596.106,35.4203 597.51,34.0164 " />
<polyline points="662.086,28.4008 661.384,26.9969 659.278,26.295 657.172,26.295 655.066,26.9969 654.364,28.4008 655.066,29.8047 656.47,30.5067 659.98,31.2086 661.384,31.9106 662.086,33.3145 662.086,34.0164 661.384,35.4203 659.278,36.1223 657.172,36.1223 655.066,35.4203 654.364,34.0164 " />
<polyline points="564.621,346.649 550.724,332.752 " />
<polyline points="425.643,485.628 272.767,332.752 " />
<polyline points="315.697,487.726 296.043,487.726 " />
<polyline points="144.14,484.15 146.012,483.214 148.82,480.407 148.82,500.061 " />
<polyline points="162.859,477.599 161.923,478.535 160.987,477.599 161.923,476.663 162.859,477.599 162.859,479.471 161.923,481.343 160.987,482.279 " />
<polyline points="168.474,477.599 167.538,478.535 166.602,477.599 167.538,476.663 168.474,477.599 168.474,479.471 167.538,481.343 166.602,482.279 " />
<polyline points="180.641,476.663 178.769,478.535 176.898,481.343 175.026,485.086 174.09,489.766 174.09,493.51 175.026,498.189 176.898,501.933 178.769,504.741 180.641,506.613 " />
<polyline points="187.193,485.086 187.193,484.15 188.129,482.279 189.065,481.343 190.937,480.407 194.68,480.407 196.552,481.343 197.488,482.279 198.424,484.15 198.424,486.022 197.488,487.894 195.616,490.702 186.257,500.061 199.36,500.061 " />
<polyline points="216.207,480.407 206.847,480.407 205.911,488.83 206.847,487.894 209.655,486.958 212.463,486.958 215.271,487.894 217.143,489.766 218.078,492.574 218.078,494.446 217.143,497.253 215.271,499.125 212.463,500.061 209.655,500.061 206.847,499.125 205.911,498.189 204.975,496.317 " />
<polyline points="224.63,486.958 224.63,500.061 " />
<polyline points="224.63,490.702 227.438,487.894 229.31,486.958 232.117,486.958 233.989,487.894 234.925,490.702 234.925,500.061 " />
<polyline points="234.925,490.702 237.733,487.894 239.605,486.958 242.413,486.958 244.284,487.894 245.22,490.702 245.22,500.061 " />
<polyline points="252.708,486.958 252.708,500.061 " />
<polyline points="252.708,490.702 255.516,487.894 257.388,486.958 260.195,486.958 262.067,487.894 263.003,490.702 263.003,500.061 " />
<polyline points="263.003,490.702 265.811,487.894 267.683,486.958 270.491,486.958 272.362,487.894 273.298,490.702 273.298,500.061 " />
<polyline points="279.85,476.663 281.722,478.535 283.594,481.343 285.465,485.086 286.401,489.766 286.401,493.51 285.465,498.189 283.594,501.933 281.722,504.741 279.85,506.613 " />
<polyline points="674.751,376.728 694.406,376.728 " />
<polyline points="701.7,367.992 703.572,367.056 706.38,364.248 706.38,383.903 " />
<polyline points="720.419,361.441 719.483,362.377 718.547,361.441 719.483,360.505 720.419,361.441 720.419,363.312 719.483,365.184 718.547,366.12 " />
<polyline points="726.034,361.441 725.098,362.377 724.162,361.441 725.098,360.505 726.034,361.441 726.034,363.312 725.098,365.184 724.162,366.12 " />
<polyline points="738.201,360.505 736.329,362.377 734.457,365.184 732.586,368.928 731.65,373.608 731.65,377.351 732.586,382.031 734.457,385.775 736.329,388.583 738.201,390.454 " />
<polyline points="744.753,368.928 744.753,367.992 745.689,366.12 746.625,365.184 748.496,364.248 752.24,364.248 754.112,365.184 755.048,366.12 755.984,367.992 755.984,369.864 755.048,371.736 753.176,374.544 743.817,383.903 756.92,383.903 " />
<polyline points="773.767,364.248 764.407,364.248 763.471,372.672 764.407,371.736 767.215,370.8 770.023,370.8 772.831,371.736 774.702,373.608 775.638,376.415 775.638,378.287 774.702,381.095 772.831,382.967 770.023,383.903 767.215,383.903 764.407,382.967 763.471,382.031 762.535,380.159 " />
<polyline points="782.19,370.8 782.19,383.903 " />
<polyline points="782.19,374.544 784.998,371.736 786.87,370.8 789.677,370.8 791.549,371.736 792.485,374.544 792.485,383.903 " />
<polyline points="792.485,374.544 795.293,371.736 797.165,370.8 799.973,370.8 801.844,371.736 802.78,374.544 802.78,383.903 " />
<polyline points="810.268,370.8 810.268,383.903 " />
<polyline points="810.268,374.544 813.076,371.736 814.947,370.8 817.755,370.8 819.627,371.736 820.563,374.544 820.563,383.903 " />
<polyline points="820.563,374.544 823.371,371.736 825.243,370.8 828.05,370.8 829.922,371.736 830.858,374.544 830.858,383.903 " />
<polyline points="837.41,360.505 839.282,362.377 841.153,365.184 843.025,368.928 843.961,373.608 843.961,377.351 843.025,382.031 841.153,385.775 839.282,388.583 837.41,390.454 " />
<polyline points="570.378,269.324 570.378,276.165 " />
<polyline points="550.724,322.376 550.724,265.789 " />
<polyline points="589.054,270.977 607.731,270.977 " />
<polyline points="532.047,270.977 513.371,270.977 " />
</g>
<g clip-path="url(#clipId0)" fill="rgb(0,0,0)" stroke="rgb(0,0,0)" stroke-width="0.25" >
<path d="M589.054,267.864 589.054,274.089 570.378,270.977 570.378,270.977 z" />
<path d="M532.047,267.864 532.047,274.089 550.724,270.977 550.724,270.977 z" />
</g>
<g clip-path="url(#clipId0)" fill="none" stroke="rgb(0,0,0)" stroke-width="0.25" >
<polyline points="380.2,245.57 382.071,244.634 384.879,241.826 384.879,261.481 " />
<polyline points="398.918,239.018 397.982,239.954 397.046,239.018 397.982,238.082 398.918,239.018 398.918,240.89 397.982,242.762 397.046,243.698 " />
<polyline points="404.534,239.018 403.598,239.954 402.662,239.018 403.598,238.082 404.534,239.018 404.534,240.89 403.598,242.762 402.662,243.698 " />
<polyline points="416.701,238.082 414.829,239.954 412.957,242.762 411.085,246.506 410.149,251.185 410.149,254.929 411.085,259.609 412.957,263.352 414.829,266.16 416.701,268.032 " />
<polyline points="423.252,246.506 423.252,245.57 424.188,243.698 425.124,242.762 426.996,241.826 430.74,241.826 432.612,242.762 433.548,243.698 434.483,245.57 434.483,247.442 433.548,249.313 431.676,252.121 422.316,261.481 435.419,261.481 " />
<polyline points="452.266,241.826 442.907,241.826 441.971,250.249 442.907,249.313 445.715,248.377 448.522,248.377 451.33,249.313 453.202,251.185 454.138,253.993 454.138,255.865 453.202,258.673 451.33,260.545 448.522,261.481 445.715,261.481 442.907,260.545 441.971,259.609 441.035,257.737 " />
<polyline points="460.689,248.377 460.689,261.481 " />
<polyline points="460.689,252.121 463.497,249.313 465.369,248.377 468.177,248.377 470.049,249.313 470.985,252.121 470.985,261.481 " />
<polyline points="470.985,252.121 473.792,249.313 475.664,248.377 478.472,248.377 480.344,249.313 481.28,252.121 481.28,261.481 " />
<polyline points="488.767,248.377 488.767,261.481 " />
<polyline points="488.767,252.121 491.575,249.313 493.447,248.377 496.255,248.377 498.127,249.313 499.063,252.121 499.063,261.481 " />
<polyline points="499.063,252.121 501.87,249.313 503.742,248.377 506.55,248.377 508.422,249.313 509.358,252.121 509.358,261.481 " />
<polyline points="515.909,238.082 517.781,239.954 519.653,242.762 521.525,246.506 522.461,251.185 522.461,254.929 521.525,259.609 519.653,263.352 517.781,266.16 515.909,268.032 " />
<polyline points="418.306,492.965 365.953,545.318 " />
<polyline points="486.492,535.961 421.544,600.909 " />
<polyline points="382.827,554.856 412.006,584.035 " />
</g>
<g clip-path="url(#clipId0)" fill="rgb(0,0,0)" stroke="rgb(0,0,0)" stroke-width="0.25" >
<path d="M385.028,552.655 380.626,557.057 369.621,541.65 369.621,541.65 z" />
<path d="M414.207,581.834 409.805,586.236 425.212,597.241 425.212,597.241 z" />
</g>
<g clip-path="url(#clipId0)" fill="none" stroke="rgb(0,0,0)" stroke-width="0.25" >
<polyline points="564.621,346.649 425.643,485.628 " />
<polyline points="698.681,293.443 739.527,293.443 " />
<polyline points="698.681,136.206 739.527,136.206 " />
<polyline points="734.339,274.766 734.339,154.883 " />
</g>
<g clip-path="url(#clipId0)" fill="rgb(0,0,0)" stroke="rgb(0,0,0)" stroke-width="0.25" >
<path d="M737.452,274.766 731.227,274.766 734.339,293.443 734.339,293.443 z" />
<path d="M737.452,154.883 731.227,154.883 734.339,136.206 734.339,136.206 z" />
</g>
<g clip-path="url(#clipId0)" fill="none" stroke="rgb(0,0,0)" stroke-width="0.1" >
<polyline points="688.305,293.443 688.305,293.443 " />
<polyline points="688.305,136.206 688.305,136.206 " />
<polyline points="734.339,136.206 734.339,136.206 " />
</g>
<g clip-path="url(#clipId0)" fill="none" stroke="rgb(0,0,0)" stroke-width="0.25" >
<polyline points="530.265,562.454 557.246,589.435 " />
<polyline points="641.447,451.271 668.429,478.252 " />
<polyline points="566.784,572.561 651.554,487.79 " />
</g>
<g clip-path="url(#clipId0)" fill="rgb(0,0,0)" stroke="rgb(0,0,0)" stroke-width="0.25" >
<path d="M568.985,574.762 564.583,570.36 553.578,585.767 553.578,585.767 z" />
<path d="M653.755,489.991 649.353,485.589 664.76,474.584 664.76,474.584 z" />
</g>
<g clip-path="url(#clipId0)" fill="none" stroke="rgb(0,0,0)" stroke-width="0.1" >
<polyline points="522.928,555.117 522.928,555.117 " />
<polyline points="634.111,443.934 634.111,443.934 " />
<polyline points="664.76,474.584 664.76,474.584 " />
</g>
<g clip-path="url(#clipId0)" fill="none" stroke="rgb(0,0,0)" stroke-width="0.25" >
<polyline points="203.427,332.752 162.974,332.752 " />
<polyline points="203.427,96.8974 162.974,96.8974 " />
<polyline points="168.162,314.075 168.162,214.825 " />
<polyline points="168.162,115.574 168.162,214.825 " />
</g>
<g clip-path="url(#clipId0)" fill="rgb(0,0,0)" stroke="rgb(0,0,0)" stroke-width="0.25" >
<path d="M171.275,314.075 165.049,314.075 168.162,332.752 168.162,332.752 z" />
<path d="M171.275,115.574 165.049,115.574 168.162,96.8974 168.162,96.8974 z" />
</g>
<g clip-path="url(#clipId0)" fill="none" stroke="rgb(0,0,0)" stroke-width="0.1" >
<polyline points="213.803,332.752 213.803,332.752 " />
<polyline points="213.803,96.8974 213.803,96.8974 " />
<polyline points="168.162,96.8974 168.162,96.8974 " />
</g>
<g clip-path="url(#clipId0)" fill="none" stroke="rgb(0,0,0)" stroke-width="0.25" >
<polyline points="336.31,152.498 328.899,162.874 340.016,162.874 " />
<polyline points="336.31,152.498 336.31,168.062 " />
<polyline points="352.615,152.498 345.204,152.498 344.462,159.168 345.204,158.427 347.427,157.686 349.65,157.686 351.874,158.427 353.356,159.909 354.097,162.133 354.097,163.615 353.356,165.838 351.874,167.321 349.65,168.062 347.427,168.062 345.204,167.321 344.462,166.58 343.721,165.097 " />
<polyline points="365.196,149.158 363.714,149.899 362.232,151.381 361.491,153.605 361.491,155.087 362.232,157.31 363.714,158.793 365.196,159.534 367.42,159.534 368.902,158.793 370.384,157.31 371.125,155.087 371.125,153.605 370.384,151.381 368.902,149.899 367.42,149.158 365.196,149.158 " />
<polyline points="613.616,423.44 617.159,426.983 " />
<polyline points="571.958,353.986 638.394,420.422 " />
<polyline points="647.932,403.547 674.751,376.728 " />
<polyline points="607.621,443.858 594.415,457.064 " />
</g>
<g clip-path="url(#clipId0)" fill="rgb(0,0,0)" stroke="rgb(0,0,0)" stroke-width="0.25" >
<path d="M650.133,405.748 645.731,401.346 634.726,416.754 634.726,416.754 z" />
<path d="M609.823,446.059 605.42,441.657 620.828,430.651 620.828,430.651 z" />
</g>
<g clip-path="url(#clipId0)" fill="none" stroke="rgb(0,0,0)" stroke-width="0.1" >
<polyline points="620.953,430.777 620.953,430.777 " />
<polyline points="564.621,346.649 564.621,346.649 " />
<polyline points="634.726,416.754 634.726,416.754 " />
</g>
<g clip-path="url(#clipId0)" fill="none" stroke="rgb(0,0,0)" stroke-width="0.25" >
<polyline points="543.387,340.088 352.055,531.42 " />
<polyline points="418.306,492.965 365.953,545.318 " />
<polyline points="382.827,554.856 396.033,568.062 " />
<polyline points="342.517,514.546 315.697,487.726 " />
<polyline points="396.033,568.062 435.652,607.681 " />
</g>
<g clip-path="url(#clipId0)" fill="rgb(0,0,0)" stroke="rgb(0,0,0)" stroke-width="0.25" >
<path d="M380.626,557.057 385.028,552.655 369.621,541.65 369.621,541.65 z" />
<path d="M340.316,516.747 344.718,512.345 355.723,527.752 355.723,527.752 z" />
</g>
<g clip-path="url(#clipId0)" fill="none" stroke="rgb(0,0,0)" stroke-width="0.1" >
<polyline points="550.724,332.752 550.724,332.752 " />
<polyline points="425.643,485.628 425.643,485.628 " />
<polyline points="369.621,541.65 369.621,541.65 " />
</g>
<g clip-path="url(#clipId0)" fill="none" stroke="rgb(0,0,0)" stroke-width="0.25" >
<path d="M550.724,332.752  A307.365,307.365 0 0,0 272.767,332.752 " />
<path d="M363.29,196.306  A71.8981,71.8981 0 0,0 356.177,179.038 " />
<path d="M312.607,284.224  A71.8981,71.8981 0 0,0 329.848,277.043 " />
</g>
<g clip-path="url(#clipId0)" fill="rgb(0,0,0)" stroke="rgb(0,0,0)" stroke-width="0.25" >
<path d="M360.204,196.711 366.377,195.902 365.716,214.825 365.716,214.825 z" />
<path d="M327.952,274.575 331.745,279.512 344.658,265.664 344.658,265.664 z" />
</g>
<g clip-path="url(#clipId0)" fill="none" stroke="rgb(0,0,0)" stroke-width="0.1" >
<polyline points="333.127,214.825 333.127,214.825 " />
<polyline points="706.566,214.825 706.566,214.825 " />
<polyline points="321.614,242.62 321.614,242.62 " />
<polyline points="592.622,513.628 592.622,513.628 " />
</g>
<g clip-path="url(#clipId0)" fill="none" stroke="rgb(0,0,0)" stroke-width="0.25" >
<polyline points="910.823,740.905 908.649,738.731 905.388,737.644 901.04,737.644 897.779,738.731 895.605,740.905 895.605,743.079 896.692,745.253 897.779,746.34 899.953,747.427 906.475,749.601 908.649,750.688 909.736,751.775 910.823,753.949 910.823,757.21 908.649,759.384 905.388,760.471 901.04,760.471 897.779,759.384 895.605,757.21 " />
<polyline points="918.432,737.644 918.432,760.471 " />
<polyline points="918.432,737.644 926.04,737.644 929.301,738.731 931.475,740.905 932.562,743.079 933.649,746.34 933.649,751.775 932.562,755.036 931.475,757.21 929.301,759.384 926.04,760.471 918.432,760.471 " />
<polyline points="953.215,737.644 942.345,737.644 941.258,747.427 942.345,746.34 945.606,745.253 948.867,745.253 952.128,746.34 954.302,748.514 955.389,751.775 955.389,753.949 954.302,757.21 952.128,759.384 948.867,760.471 945.606,760.471 942.345,759.384 941.258,758.297 940.171,756.123 " />
<polyline points="962.998,750.688 982.564,750.688 " />
<polyline points="992.347,737.644 1004.3,737.644 997.781,746.34 1001.04,746.34 1003.22,747.427 1004.3,748.514 1005.39,751.775 1005.39,753.949 1004.3,757.21 1002.13,759.384 998.868,760.471 995.607,760.471 992.347,759.384 991.26,758.297 990.173,756.123 " />
<polyline points="113.503,214.645 15.2519,214.645 " />
</g>
<g clip-path="url(#clipId0)" fill="rgb(0,0,0)" stroke="rgb(0,0,0)" stroke-width="0.25" >
<path d="M113.503,211.24 113.503,218.05 133.933,214.645 133.933,214.645 z" />
</g>
<g clip-path="url(#clipId0)" fill="none" stroke="rgb(0,0,0)" stroke-width="0.25" >
<polyline points="90.2874,242.409 89.7038,241.241 88.5365,240.074 87.3692,239.49 85.0347,239.49 83.8674,240.074 82.7001,241.241 82.1165,242.409 81.5329,244.159 81.5329,247.078 82.1165,248.829 82.7001,249.996 83.8674,251.163 85.0347,251.747 87.3692,251.747 88.5365,251.163 89.7038,249.996 90.2874,248.829 " />
<polyline points="64.622,225.887 56.8402,246.314 " />
<polyline points="64.622,225.887 72.4038,246.314 " />
<polyline points="59.7583,239.505 69.4856,239.505 " />
<polyline points="90.2874,191.48 89.7038,190.313 88.5365,189.146 87.3692,188.562 85.0347,188.562 83.8674,189.146 82.7001,190.313 82.1165,191.48 81.5329,193.231 81.5329,196.149 82.1165,197.9 82.7001,199.067 83.8674,200.235 85.0347,200.818 87.3692,200.818 88.5365,200.235 89.7038,199.067 90.2874,197.9 " />
<polyline points="64.622,174.958 62.6765,175.931 60.7311,177.876 59.7583,179.822 58.7856,182.74 58.7856,187.604 59.7583,190.522 60.7311,192.467 62.6765,194.413 64.622,195.386 68.5129,195.386 70.4584,194.413 72.4038,192.467 73.3765,190.522 74.3493,187.604 74.3493,182.74 73.3765,179.822 72.4038,177.876 70.4584,175.931 68.5129,174.958 64.622,174.958 " />
<polyline points="67.5402,191.495 73.3765,197.331 " />
<polyline points="709.528,577.344 709.528,589.601 " />
<polyline points="709.528,583.181 710.695,582.014 711.863,581.43 713.614,581.43 714.781,582.014 715.948,583.181 716.532,584.932 716.532,586.099 715.948,587.85 714.781,589.017 713.614,589.601 711.863,589.601 710.695,589.017 709.528,587.85 " />
<polyline points="693.156,565.86 691.211,566.833 689.266,568.779 688.293,570.724 687.32,573.642 687.32,578.506 688.293,581.424 689.266,583.37 691.211,585.315 693.156,586.288 697.047,586.288 698.993,585.315 700.938,583.37 701.911,581.424 702.884,578.506 702.884,573.642 701.911,570.724 700.938,568.779 698.993,566.833 697.047,565.86 693.156,565.86 " />
<polyline points="696.075,582.397 701.911,588.233 " />
<polyline points="662.506,614.437 662.506,626.694 " />
<polyline points="662.506,620.274 663.673,619.107 664.841,618.523 666.592,618.523 667.759,619.107 668.926,620.274 669.51,622.025 669.51,623.192 668.926,624.943 667.759,626.11 666.592,626.694 664.841,626.694 663.673,626.11 662.506,624.943 " />
<polyline points="646.134,602.953 638.353,623.381 " />
<polyline points="646.134,602.953 653.916,623.381 " />
<polyline points="641.271,616.572 650.998,616.572 " />
<polyline points="847.412,191.246 846.244,190.079 844.493,189.495 842.159,189.495 840.408,190.079 839.241,191.246 839.241,192.414 839.824,193.581 840.408,194.164 841.575,194.748 845.077,195.915 846.244,196.499 846.828,197.083 847.412,198.25 847.412,200.001 846.244,201.168 844.493,201.752 842.159,201.752 840.408,201.168 839.241,200.001 " />
<polyline points="847.412,246.802 846.244,245.635 844.493,245.051 842.159,245.051 840.408,245.635 839.241,246.802 839.241,247.969 839.824,249.136 840.408,249.72 841.575,250.304 845.077,251.471 846.244,252.055 846.828,252.638 847.412,253.806 847.412,255.556 846.244,256.724 844.493,257.307 842.159,257.307 840.408,256.724 839.241,255.556 " />
<polyline points="882.421,216.239 781.372,216.239 " />
<polyline points="821.794,231.871 814.012,252.299 " />
<polyline points="821.794,231.871 829.576,252.299 " />
<polyline points="816.93,245.489 826.658,245.489 " />
<polyline points="821.794,176.316 819.849,177.288 817.903,179.234 816.93,181.179 815.958,184.097 815.958,188.961 816.93,191.879 817.903,193.825 819.849,195.77 821.794,196.743 825.685,196.743 827.63,195.77 829.576,193.825 830.549,191.879 831.521,188.961 831.521,184.097 830.549,181.179 829.576,179.234 827.63,177.288 825.685,176.316 821.794,176.316 " />
<polyline points="824.712,192.852 830.549,198.688 " />
</g>
<g clip-path="url(#clipId0)" fill="rgb(0,0,0)" stroke="rgb(0,0,0)" stroke-width="0.25" >
<path d="M882.421,212.834 882.421,219.644 902.851,216.239 902.851,216.239 z" />
</g>
<g clip-path="url(#clipId0)" fill="none" stroke="rgb(0,0,0)" stroke-width="0.25" >
<polyline points="446.059,618.088 477.086,646.873 " />
<polyline points="477.086,646.873 437.648,646.873 " />
</g>
</svg>
