<?xml version="1.0" standalone="no"?>
<svg viewBox="0 0 1024 768" version="1.1" xmlns="http://www.w3.org/2000/svg" xmlns:xlink="http://www.w3.org/1999/xlink" stroke-linecap="round" stroke-linejoin="round" fill-rule="evenodd" xml:space="preserve" >
<defs >
<clipPath id="clipId0" >
<path d="M0,768 1024,768 1024,0 0,0 z" />
</clipPath>
</defs>
<g clip-path="url(#clipId0)" fill="none" stroke="rgb(0,0,0)" stroke-width="0.1" />
<g clip-path="url(#clipId0)" fill="none" stroke="rgb(0,0,0)" stroke-width="0.25" >
<polyline points="222.564,87.1292 222.564,286.987 " />
<polyline points="222.564,286.987 253.792,286.987 " />
<polyline points="272.528,286.987 526.027,439.086 " />
<polyline points="222.564,87.1292 253.792,87.1292 " />
<polyline points="603.229,286.987 586.574,286.987 " />
<polyline points="620.906,344.207 586.574,286.987 " />
<polyline points="603.229,87.1292 603.229,286.987 " />
<polyline points="645.457,369.423 551.244,463.637 " />
<polyline points="645.457,369.423 623.376,347.342 " />
<polyline points="551.244,463.637 529.162,441.556 " />
<polyline points="671.93,120.439 703.157,120.439 " />
<polyline points="671.93,253.677 703.157,253.677 " />
<polyline points="603.229,87.1292 668.213,119.621 " />
<polyline points="668.213,254.494 603.229,286.987 " />
<polyline points="703.157,120.439 703.157,253.677 " />
<polyline points="587.397,405.577 357.101,175.281 " stroke-dasharray="105.857756,21.171551,21.171551,21.171551" />
<polyline points="241.898,187.058 686.192,187.058 " stroke-dasharray="105.857756,21.171551,21.171551,21.171551" />
<polyline points="257.955,87.1292 257.955,286.987 " />
<polyline points="253.792,87.1292 253.792,286.987 " />
<path d="M257.955,87.1292  A2.16859,2.16859 0 0,0 253.792,87.1292 " />
<polyline points="257.955,87.1292 603.229,87.1292 " />
<path d="M253.792,286.987  A2.16859,2.16859 0 0,0 257.955,286.987 " />
<polyline points="257.955,286.987 272.528,286.987 " />
<polyline points="671.93,120.439 671.93,253.677 " />
<polyline points="667.766,120.439 667.766,253.677 " />
<path d="M671.93,120.439  A2.16859,2.16859 0 0,0 667.766,120.439 " />
<path d="M667.766,253.677  A2.16859,2.16859 0 0,0 671.93,253.677 " />
<path d="M623.376,347.342  A2.16859,2.16859 0 0,0 620.432,344.398 " />
<polyline points="620.432,344.398 526.218,438.612 " />
<polyline points="623.376,347.342 529.162,441.556 " />
<path d="M526.218,438.612  A2.16859,2.16859 0 0,0 529.162,441.556 " />
<polyline points="371.222,567.511 363.287,578.612 375.184,578.616 " />
<polyline points="371.222,567.511 371.216,584.166 " />
<polyline points="381.533,565.136 380.74,565.928 379.947,565.135 380.74,564.342 381.533,565.136 381.532,566.722 380.739,568.308 379.945,569.1 " />
<polyline points="386.291,565.137 385.498,565.93 384.705,565.137 385.499,564.344 386.291,565.137 386.291,566.723 385.497,568.309 384.704,569.102 " />
<polyline points="396.602,564.348 395.015,565.933 393.428,568.312 391.841,571.484 391.047,575.449 391.045,578.621 391.837,582.587 393.422,585.76 395.008,588.14 396.593,589.726 " />
<polyline points="403.737,570.695 405.324,569.902 407.704,567.524 407.698,584.178 " />
<polyline points="421.98,567.528 419.6,568.321 418.013,570.699 417.219,574.665 417.218,577.044 418.01,581.01 419.595,583.389 421.974,584.183 423.56,584.184 425.94,583.391 427.527,581.013 428.321,577.048 428.322,574.668 427.53,570.703 425.945,568.323 423.566,567.529 421.98,567.528 " />
<polyline points="437.841,567.534 435.462,568.326 433.875,570.705 433.08,574.67 433.079,577.049 433.871,581.015 435.457,583.395 437.836,584.189 439.422,584.189 441.801,583.397 443.388,581.018 444.183,577.053 444.183,574.674 443.392,570.708 441.806,568.328 439.427,567.534 437.841,567.534 " />
<polyline points="449.736,573.089 449.732,584.193 " />
<polyline points="449.735,576.262 452.115,573.883 453.701,573.091 456.08,573.092 457.666,573.885 458.458,576.265 458.456,584.196 " />
<polyline points="458.458,576.265 460.839,573.886 462.425,573.094 464.804,573.094 466.39,573.888 467.182,576.268 467.18,584.198 " />
<polyline points="473.528,573.097 473.524,584.201 " />
<polyline points="473.527,576.27 475.907,573.891 477.494,573.099 479.873,573.1 481.459,573.893 482.251,576.273 482.248,584.204 " />
<polyline points="482.251,576.273 484.631,573.894 486.217,573.102 488.597,573.103 490.183,573.896 490.975,576.276 490.972,584.206 " />
<polyline points="496.531,564.381 498.116,565.968 499.702,568.348 501.287,571.521 502.078,575.486 502.077,578.659 501.283,582.624 499.696,585.796 498.109,588.174 496.522,589.76 " />
<polyline points="327.682,421.484 327.682,438.139 " />
<polyline points="338.785,421.484 338.785,438.139 " />
<polyline points="327.682,429.415 338.785,429.415 " />
<polyline points="614.836,430.93 614.836,447.585 " />
<polyline points="614.836,430.93 620.387,430.93 622.767,431.724 624.353,433.31 625.146,434.896 625.939,437.275 625.939,441.241 625.146,443.62 624.353,445.206 622.767,446.792 620.387,447.585 614.836,447.585 " />
<polyline points="631.171,442.836 631.171,452.81 " />
<polyline points="631.171,447.586 632.121,446.636 633.071,446.161 634.496,446.161 635.446,446.636 636.395,447.586 636.87,449.011 636.87,449.961 636.395,451.386 635.446,452.335 634.496,452.81 633.071,452.81 632.121,452.335 631.171,451.386 " />
</g>
<g clip-path="url(#clipId0)" fill="rgb(0,0,0)" stroke="rgb(0,0,0)" stroke-width="0.25" >
<path d="M117.554,183.061 117.554,191.055 141.537,187.058 141.537,187.058 z" />
</g>
<g clip-path="url(#clipId0)" fill="none" stroke="rgb(0,0,0)" stroke-width="0.25" >
<polyline points="117.554,187.058 40.1082,187.058 " />
</g>
<g clip-path="url(#clipId0)" fill="rgb(0,0,0)" stroke="rgb(0,0,0)" stroke-width="0.25" >
<path d="M865.228,183.061 865.228,191.055 889.211,187.058 889.211,187.058 z" />
</g>
<g clip-path="url(#clipId0)" fill="none" stroke="rgb(0,0,0)" stroke-width="0.25" >
<polyline points="865.228,187.058 788.846,187.058 " />
</g>
<g clip-path="url(#clipId0)" fill="rgb(0,0,0)" stroke="rgb(0,0,0)" stroke-width="0.25" >
<path d="M710.32,523.549 704.667,529.202 724.452,543.334 724.452,543.334 z" />
</g>
<g clip-path="url(#clipId0)" fill="none" stroke="rgb(0,0,0)" stroke-width="0.25" >
<polyline points="707.494,526.375 656.037,474.918 " />
<polyline points="689.976,480.795 688.389,481.588 686.803,483.174 686.01,484.76 685.217,487.139 685.217,491.105 686.01,493.484 686.803,495.07 688.389,496.656 689.976,497.449 693.148,497.449 694.734,496.656 696.32,495.07 697.113,493.484 697.906,491.105 697.906,487.139 697.113,484.76 696.32,483.174 694.734,481.588 693.148,480.795 689.976,480.795 " />
<polyline points="692.355,494.277 697.113,499.035 " />
<polyline points="703.281,492.612 703.281,502.586 " />
<polyline points="703.281,497.362 704.231,496.412 705.181,495.937 706.606,495.937 707.556,496.412 708.506,497.362 708.981,498.787 708.981,499.737 708.506,501.161 707.556,502.111 706.606,502.586 705.181,502.586 704.231,502.111 703.281,501.161 " />
<polyline points="732.405,177.742 732.405,194.397 " />
<polyline points="732.405,177.742 737.957,177.742 740.336,178.535 741.922,180.122 742.715,181.708 743.508,184.087 743.508,188.052 742.715,190.432 741.922,192.018 740.336,193.604 737.957,194.397 732.405,194.397 " />
<polyline points="754.915,189.49 753.965,188.54 752.54,188.066 750.64,188.066 749.215,188.54 748.265,189.49 748.265,190.44 748.74,191.39 749.215,191.865 750.165,192.34 753.015,193.29 753.965,193.765 754.44,194.24 754.915,195.19 754.915,196.615 753.965,197.565 752.54,198.04 750.64,198.04 749.215,197.565 748.265,196.615 " />
<polyline points="173.386,177.842 173.386,194.496 " />
<polyline points="173.386,177.842 178.938,177.842 181.317,178.635 182.903,180.221 183.696,181.807 184.489,184.186 184.489,188.152 183.696,190.531 182.903,192.117 181.317,193.703 178.938,194.496 173.386,194.496 " />
<polyline points="196.133,192.122 195.658,191.172 194.708,190.222 193.758,189.747 191.859,189.747 190.909,190.222 189.959,191.172 189.484,192.122 189.009,193.547 189.009,195.922 189.484,197.347 189.959,198.297 190.909,199.247 191.859,199.722 193.758,199.722 194.708,199.247 195.658,198.297 196.133,197.347 " />
<polyline points="822.686,194.129 816.341,210.784 " />
<polyline points="822.686,194.129 829.03,210.784 " />
<polyline points="818.72,205.232 826.651,205.232 " />
<polyline points="842.166,205.246 841.216,204.296 839.791,203.821 837.891,203.821 836.466,204.296 835.516,205.246 835.516,206.196 835.991,207.145 836.466,207.62 837.416,208.095 840.266,209.045 841.216,209.52 841.691,209.995 842.166,210.945 842.166,212.37 841.216,213.32 839.791,213.795 837.891,213.795 836.466,213.32 835.516,212.37 " />
<polyline points="69.1991,194.309 62.8544,210.964 " />
<polyline points="69.1991,194.309 75.5437,210.964 " />
<polyline points="65.2336,205.412 73.1645,205.412 " />
<polyline points="88.9166,208.501 88.4416,207.551 87.4917,206.601 86.5418,206.126 84.6419,206.126 83.692,206.601 82.7421,207.551 82.2671,208.501 81.7922,209.926 81.7922,212.301 82.2671,213.726 82.7421,214.676 83.692,215.626 84.6419,216.101 86.5418,216.101 87.4917,215.626 88.4416,214.676 88.9166,213.726 " />
<polyline points="597.93,10.7018 597.93,27.3565 " />
<polyline points="597.93,10.7018 603.481,10.7018 605.86,11.4948 607.447,13.081 608.24,14.6672 609.033,17.0464 609.033,21.0118 608.24,23.3911 607.447,24.9773 605.86,26.5634 603.481,27.3565 597.93,27.3565 " />
<polyline points="631.239,20.2188 645.515,20.2188 " />
<polyline points="651.859,10.7018 651.859,27.3565 " />
<polyline points="651.859,10.7018 657.411,10.7018 659.79,11.4948 661.376,13.081 662.169,14.6672 662.963,17.0464 662.963,21.0118 662.169,23.3911 661.376,24.9773 659.79,26.5634 657.411,27.3565 651.859,27.3565 " />
<polyline points="690.721,7.52941 689.134,9.11558 687.548,11.4948 685.962,14.6672 685.169,18.6326 685.169,21.8049 685.962,25.7704 687.548,28.9427 689.134,31.3219 690.721,32.9081 " />
<polyline points="697.858,13.8741 699.444,13.081 701.824,10.7018 701.824,27.3565 " />
<polyline points="713.72,8.3225 712.927,9.11558 712.134,8.3225 712.927,7.52941 713.72,8.3225 713.72,9.90867 712.927,11.4948 712.134,12.2879 " />
<polyline points="718.479,8.3225 717.685,9.11558 716.892,8.3225 717.685,7.52941 718.479,8.3225 718.479,9.90867 717.685,11.4948 716.892,12.2879 " />
<polyline points="728.789,7.52941 727.202,9.11558 725.616,11.4948 724.03,14.6672 723.237,18.6326 723.237,21.8049 724.03,25.7704 725.616,28.9427 727.202,31.3219 728.789,32.9081 " />
<polyline points="734.34,14.6672 734.34,13.8741 735.133,12.2879 735.926,11.4948 737.513,10.7018 740.685,10.7018 742.271,11.4948 743.064,12.2879 743.857,13.8741 743.857,15.4603 743.064,17.0464 741.478,19.4257 733.547,27.3565 744.65,27.3565 " />
<polyline points="758.926,10.7018 750.995,10.7018 750.202,17.8395 750.995,17.0464 753.374,16.2533 755.753,16.2533 758.133,17.0464 759.719,18.6326 760.512,21.0118 760.512,22.598 759.719,24.9773 758.133,26.5634 755.753,27.3565 753.374,27.3565 750.995,26.5634 750.202,25.7704 749.409,24.1842 " />
<polyline points="766.064,16.2533 766.064,27.3565 " />
<polyline points="766.064,19.4257 768.443,17.0464 770.029,16.2533 772.408,16.2533 773.994,17.0464 774.788,19.4257 774.788,27.3565 " />
<polyline points="774.788,19.4257 777.167,17.0464 778.753,16.2533 781.132,16.2533 782.718,17.0464 783.511,19.4257 783.511,27.3565 " />
<polyline points="789.856,16.2533 789.856,27.3565 " />
<polyline points="789.856,19.4257 792.235,17.0464 793.822,16.2533 796.201,16.2533 797.787,17.0464 798.58,19.4257 798.58,27.3565 " />
<polyline points="798.58,19.4257 800.959,17.0464 802.545,16.2533 804.925,16.2533 806.511,17.0464 807.304,19.4257 807.304,27.3565 " />
<polyline points="812.856,7.52941 814.442,9.11558 816.028,11.4948 817.614,14.6672 818.407,18.6326 818.407,21.8049 817.614,25.7704 816.028,28.9427 814.442,31.3219 812.856,32.9081 " />
<polyline points="841.407,16.2533 841.407,27.3565 " />
<polyline points="841.407,19.4257 843.786,17.0464 845.372,16.2533 847.751,16.2533 849.337,17.0464 850.131,19.4257 850.131,27.3565 " />
<polyline points="850.131,19.4257 852.51,17.0464 854.096,16.2533 856.475,16.2533 858.061,17.0464 858.854,19.4257 858.854,27.3565 " />
<polyline points="864.406,11.4948 865.199,12.2879 865.992,11.4948 865.199,10.7018 864.406,11.4948 " />
<polyline points="865.199,17.0464 865.199,27.3565 " />
<polyline points="871.544,16.2533 871.544,27.3565 " />
<polyline points="871.544,19.4257 873.923,17.0464 875.509,16.2533 877.889,16.2533 879.475,17.0464 880.268,19.4257 880.268,27.3565 " />
<polyline points="887.406,25.7704 886.612,26.5634 887.406,27.3565 888.199,26.5634 887.406,25.7704 " />
<polyline points="704.877,49.0529 703.291,49.846 701.704,51.4321 700.911,53.8114 700.911,55.3976 701.704,57.7768 703.291,59.363 704.877,60.1561 707.256,60.1561 708.842,59.363 710.428,57.7768 711.221,55.3976 711.221,53.8114 710.428,51.4321 708.842,49.846 707.256,49.0529 704.877,49.0529 " />
<polyline points="716.773,49.0529 716.773,60.1561 " />
<polyline points="716.773,53.8114 717.566,51.4321 719.152,49.846 720.739,49.0529 723.118,49.0529 " />
<polyline points="745.324,46.6736 746.91,45.8805 749.29,43.5013 749.29,60.1561 " />
<polyline points="759.6,47.4667 759.6,46.6736 760.393,45.0875 761.186,44.2944 762.772,43.5013 765.944,43.5013 767.531,44.2944 768.324,45.0875 769.117,46.6736 769.117,48.2598 768.324,49.846 766.737,52.2252 758.807,60.1561 769.91,60.1561 " />
<polyline points="777.048,41.122 776.254,41.9151 775.461,41.122 776.254,40.329 777.048,41.122 777.048,42.7082 776.254,44.2944 775.461,45.0875 " />
<polyline points="781.806,41.122 781.013,41.9151 780.22,41.122 781.013,40.329 781.806,41.122 781.806,42.7082 781.013,44.2944 780.22,45.0875 " />
<polyline points="792.116,40.329 790.53,41.9151 788.944,44.2944 787.358,47.4667 786.565,51.4321 786.565,54.6045 787.358,58.5699 788.944,61.7422 790.53,64.1215 792.116,65.7077 " />
<polyline points="798.461,43.5013 807.185,43.5013 802.426,49.846 804.805,49.846 806.392,50.6391 807.185,51.4321 807.978,53.8114 807.978,55.3976 807.185,57.7768 805.599,59.363 803.219,60.1561 800.84,60.1561 798.461,59.363 797.668,58.5699 796.875,56.9837 " />
<polyline points="817.495,43.5013 815.116,44.2944 813.529,46.6736 812.736,50.6391 812.736,53.0183 813.529,56.9837 815.116,59.363 817.495,60.1561 819.081,60.1561 821.46,59.363 823.046,56.9837 823.84,53.0183 823.84,50.6391 823.046,46.6736 821.46,44.2944 819.081,43.5013 817.495,43.5013 " />
<polyline points="833.357,43.5013 830.977,44.2944 829.391,46.6736 828.598,50.6391 828.598,53.0183 829.391,56.9837 830.977,59.363 833.357,60.1561 834.943,60.1561 837.322,59.363 838.908,56.9837 839.701,53.0183 839.701,50.6391 838.908,46.6736 837.322,44.2944 834.943,43.5013 833.357,43.5013 " />
<polyline points="845.253,49.0529 845.253,60.1561 " />
<polyline points="845.253,52.2252 847.632,49.846 849.218,49.0529 851.597,49.0529 853.184,49.846 853.977,52.2252 853.977,60.1561 " />
<polyline points="853.977,52.2252 856.356,49.846 857.942,49.0529 860.321,49.0529 861.908,49.846 862.701,52.2252 862.701,60.1561 " />
<polyline points="869.045,49.0529 869.045,60.1561 " />
<polyline points="869.045,52.2252 871.425,49.846 873.011,49.0529 875.39,49.0529 876.976,49.846 877.769,52.2252 877.769,60.1561 " />
<polyline points="877.769,52.2252 880.149,49.846 881.735,49.0529 884.114,49.0529 885.7,49.846 886.493,52.2252 886.493,60.1561 " />
<polyline points="892.045,40.329 893.631,41.9151 895.217,44.2944 896.803,47.4667 897.596,51.4321 897.596,54.6045 896.803,58.5699 895.217,61.7422 893.631,64.1215 892.045,65.7077 " />
<polyline points="920.596,49.0529 920.596,60.1561 " />
<polyline points="920.596,52.2252 922.975,49.846 924.561,49.0529 926.941,49.0529 928.527,49.846 929.32,52.2252 929.32,60.1561 " />
<polyline points="929.32,52.2252 931.699,49.846 933.285,49.0529 935.664,49.0529 937.251,49.846 938.044,52.2252 938.044,60.1561 " />
<polyline points="953.112,49.0529 953.112,60.1561 " />
<polyline points="953.112,51.4321 951.526,49.846 949.94,49.0529 947.561,49.0529 945.975,49.846 944.388,51.4321 943.595,53.8114 943.595,55.3976 944.388,57.7768 945.975,59.363 947.561,60.1561 949.94,60.1561 951.526,59.363 953.112,57.7768 " />
<polyline points="958.664,49.0529 967.388,60.1561 " />
<polyline points="967.388,49.0529 958.664,60.1561 " />
<polyline points="973.733,58.5699 972.939,59.363 973.733,60.1561 974.526,59.363 973.733,58.5699 " />
<polyline points="980.077,40.329 981.663,41.9151 983.25,44.2944 984.836,47.4667 985.629,51.4321 985.629,54.6045 984.836,58.5699 983.25,61.7422 981.663,64.1215 980.077,65.7077 " />
<polyline points="620.677,24.9823 620.202,24.0324 619.252,23.0825 618.302,22.6075 616.402,22.6075 615.452,23.0825 614.502,24.0324 614.027,24.9823 613.552,26.4072 613.552,28.782 614.027,30.2069 614.502,31.1568 615.452,32.1067 616.402,32.5817 618.302,32.5817 619.252,32.1067 620.202,31.1568 620.677,30.2069 " />
<polyline points="675.457,24.0324 674.507,23.0825 673.082,22.6075 671.182,22.6075 669.757,23.0825 668.807,24.0324 668.807,24.9823 669.282,25.9323 669.757,26.4072 670.707,26.8822 673.557,27.8321 674.507,28.3071 674.982,28.782 675.457,29.7319 675.457,31.1568 674.507,32.1067 673.082,32.5817 671.182,32.5817 669.757,32.1067 668.807,31.1568 " />
<polyline points="63.5299,706.795 63.5299,723.45 " />
<polyline points="74.6331,706.795 74.6331,723.45 " />
<polyline points="63.5299,714.726 74.6331,714.726 " />
<polyline points="97.6325,713.933 111.908,713.933 " />
<polyline points="97.6325,718.691 111.908,718.691 " />
<polyline points="327.4,709.174 327.4,723.45 " />
<polyline points="320.262,716.312 334.538,716.312 " />
<polyline points="144.003,727.784 144.003,726.991 144.797,725.405 145.59,724.612 147.176,723.819 150.348,723.819 151.934,724.612 152.727,725.405 153.52,726.991 153.52,728.577 152.727,730.164 151.141,732.543 143.21,740.474 154.314,740.474 " />
<polyline points="175.727,729.371 184.451,740.474 " />
<polyline points="184.451,729.371 175.727,740.474 " />
<polyline points="214.588,731.75 213.795,730.164 211.416,729.371 209.036,729.371 206.657,730.164 205.864,731.75 206.657,733.336 208.243,734.129 212.209,734.922 213.795,735.715 214.588,737.301 214.588,738.094 213.795,739.681 211.416,740.474 209.036,740.474 206.657,739.681 205.864,738.094 " />
<polyline points="219.346,724.612 220.14,725.405 220.933,724.612 220.14,723.819 219.346,724.612 " />
<polyline points="220.14,730.164 220.14,740.474 " />
<polyline points="226.484,729.371 226.484,740.474 " />
<polyline points="226.484,732.543 228.863,730.164 230.45,729.371 232.829,729.371 234.415,730.164 235.208,732.543 235.208,740.474 " />
<polyline points="265.345,723.819 257.415,734.922 269.311,734.922 " />
<polyline points="265.345,723.819 265.345,740.474 " />
<polyline points="282.793,723.819 274.862,723.819 274.069,730.957 274.862,730.164 277.242,729.371 279.621,729.371 282,730.164 283.586,731.75 284.379,734.129 284.379,735.715 283.586,738.094 282,739.681 279.621,740.474 277.242,740.474 274.862,739.681 274.069,738.888 273.276,737.301 " />
<ellipse rx="1.58617" ry="1.58617" cx="289.138" cy="725.405" />
<polyline points="199.549,689.577 199.549,706.231 " />
<polyline points="199.549,689.577 205.101,689.577 207.48,690.37 209.066,691.956 209.859,693.542 210.652,695.921 210.652,699.887 209.859,702.266 209.066,703.852 207.48,705.438 205.101,706.231 199.549,706.231 " />
<polyline points="224.523,703.722 224.048,702.772 223.098,701.822 222.148,701.347 220.248,701.347 219.298,701.822 218.348,702.772 217.873,703.722 217.398,705.147 217.398,707.522 217.873,708.947 218.348,709.897 219.298,710.847 220.248,711.322 222.148,711.322 223.098,710.847 224.048,709.897 224.523,708.947 " />
<polyline points="366.699,727.972 366.699,727.179 367.492,725.593 368.285,724.8 369.871,724.007 373.043,724.007 374.63,724.8 375.423,725.593 376.216,727.179 376.216,728.765 375.423,730.351 373.837,732.731 365.906,740.662 377.009,740.662 " />
<polyline points="398.422,729.558 407.146,740.662 " />
<polyline points="407.146,729.558 398.422,740.662 " />
<polyline points="430.146,724.007 430.146,737.489 430.939,739.868 432.525,740.662 434.111,740.662 " />
<polyline points="427.766,729.558 433.318,729.558 " />
<polyline points="447.593,729.558 447.593,740.662 " />
<polyline points="447.593,731.938 446.007,730.351 444.421,729.558 442.042,729.558 440.456,730.351 438.87,731.938 438.076,734.317 438.076,735.903 438.87,738.282 440.456,739.868 442.042,740.662 444.421,740.662 446.007,739.868 447.593,738.282 " />
<polyline points="453.938,729.558 453.938,740.662 " />
<polyline points="453.938,732.731 456.317,730.351 457.904,729.558 460.283,729.558 461.869,730.351 462.662,732.731 462.662,740.662 " />
<polyline points="492.799,724.007 484.868,735.11 496.765,735.11 " />
<polyline points="492.799,724.007 492.799,740.662 " />
<polyline points="510.247,724.007 502.316,724.007 501.523,731.145 502.316,730.351 504.696,729.558 507.075,729.558 509.454,730.351 511.04,731.938 511.833,734.317 511.833,735.903 511.04,738.282 509.454,739.868 507.075,740.662 504.696,740.662 502.316,739.868 501.523,739.075 500.73,737.489 " />
<ellipse rx="1.58617" ry="1.58617" cx="516.592" cy="725.593" />
<polyline points="440.152,701.535 440.152,711.509 " />
<polyline points="440.152,706.285 441.102,705.335 442.052,704.86 443.477,704.86 444.427,705.335 445.377,706.285 445.852,707.71 445.852,708.66 445.377,710.084 444.427,711.034 443.477,711.509 442.052,711.509 441.102,711.034 440.152,710.084 " />
<polyline points="422.245,689.764 422.245,706.419 " />
<polyline points="422.245,689.764 427.796,689.764 430.175,690.558 431.762,692.144 432.555,693.73 433.348,696.109 433.348,700.075 432.555,702.454 431.762,704.04 430.175,705.626 427.796,706.419 422.245,706.419 " />
<polyline points="37.9823,668.436 625.788,668.436 " />
<polyline points="625.788,668.436 625.788,759.98 " />
<polyline points="625.788,759.98 37.9823,759.98 " />
<polyline points="37.9823,668.436 37.9823,759.98 " />
<polyline points="712.567,253.677 746.871,253.677 " />
<polyline points="712.567,120.439 746.871,120.439 " />
<polyline points="742.166,236.74 742.166,204.733 " />
</g>
<g clip-path="url(#clipId0)" fill="rgb(0,0,0)" stroke="rgb(0,0,0)" stroke-width="0.25" >
<path d="M744.989,236.74 739.343,236.74 742.166,253.677 742.166,253.677 z" />
<path d="M744.989,137.376 739.343,137.376 742.166,120.439 742.166,120.439 z" />
</g>
<g clip-path="url(#clipId0)" fill="none" stroke="rgb(0,0,0)" stroke-width="0.1" >
<polyline points="703.157,253.677 703.157,253.677 " />
<polyline points="703.157,120.439 703.157,120.439 " />
<polyline points="742.166,120.439 742.166,120.439 " />
</g>
<g clip-path="url(#clipId0)" fill="none" stroke="rgb(0,0,0)" stroke-width="0.25" >
<polyline points="557.897,470.291 580.542,492.936 " />
<polyline points="652.111,376.077 674.756,398.722 " />
<polyline points="589.192,477.633 609.317,457.507 " />
</g>
<g clip-path="url(#clipId0)" fill="rgb(0,0,0)" stroke="rgb(0,0,0)" stroke-width="0.25" >
<path d="M591.188,479.629 587.196,475.636 577.216,489.609 577.216,489.609 z" />
<path d="M661.449,409.368 657.457,405.376 671.429,395.395 671.429,395.395 z" />
</g>
<g clip-path="url(#clipId0)" fill="none" stroke="rgb(0,0,0)" stroke-width="0.1" >
<polyline points="551.244,463.637 551.244,463.637 " />
<polyline points="645.457,369.423 645.457,369.423 " />
</g>
<g clip-path="url(#clipId0)" fill="none" stroke="rgb(0,0,0)" stroke-width="0.25" >
<polyline points="213.154,286.987 170.407,286.987 " />
<polyline points="213.154,87.1292 170.407,87.1292 " />
<polyline points="183.889,270.049 183.889,204.997 " />
</g>
<g clip-path="url(#clipId0)" fill="rgb(0,0,0)" stroke="rgb(0,0,0)" stroke-width="0.25" >
<path d="M186.712,270.049 181.066,270.049 183.889,286.987 183.889,286.987 z" />
<path d="M186.712,104.066 181.066,104.066 183.889,87.1292 183.889,87.1292 z" />
</g>
<g clip-path="url(#clipId0)" fill="none" stroke="rgb(0,0,0)" stroke-width="0.1" >
<polyline points="183.889,87.1292 183.889,87.1292 " />
</g>
<g clip-path="url(#clipId0)" fill="none" stroke="rgb(0,0,0)" stroke-width="0.25" >
<polyline points="415.654,200.433 408.933,209.843 419.015,209.843 " />
<polyline points="415.654,200.433 415.654,214.547 " />
<polyline points="430.441,200.433 423.72,200.433 423.047,206.482 423.72,205.81 425.736,205.138 427.752,205.138 429.769,205.81 431.113,207.154 431.785,209.17 431.785,210.515 431.113,212.531 429.769,213.875 427.752,214.547 425.736,214.547 423.72,213.875 423.047,213.203 422.375,211.859 " />
<ellipse rx="1.34423" ry="1.34423" cx="435.818" cy="201.777" />
<path d="M427.449,170.285  A60.9248,60.9248 0 0,0 420.568,154.809 " />
<path d="M382.624,246.412  A60.9248,60.9248 0 0,0 398.434,240.334 " />
</g>
<g clip-path="url(#clipId0)" fill="rgb(0,0,0)" stroke="rgb(0,0,0)" stroke-width="0.25" >
<path d="M424.653,170.677 430.244,169.893 429.803,187.058 429.803,187.058 z" />
<path d="M396.734,238.079 400.133,242.588 411.958,230.138 411.958,230.138 z" />
</g>
<g clip-path="url(#clipId0)" fill="none" stroke="rgb(0,0,0)" stroke-width="0.25" >
<path d="M586.574,286.987  A340.455,340.455 0 0,0 272.528,286.987 " />
<polyline points="138.176,716.487 296.532,716.487 " />
<polyline points="361.219,716.487 524.987,716.487 " />
<polyline points="561.702,709.174 561.702,723.45 " />
<polyline points="554.564,716.312 568.84,716.312 " />
<polyline points="598.977,706.795 591.046,717.898 602.942,717.898 " />
<polyline points="598.977,706.795 598.977,723.45 " />
<polyline points="362.225,193.711 226.051,329.885 " />
<polyline points="519.933,447.841 431.97,535.804 " />
<polyline points="241.354,338.535 318.08,415.261 " />
<polyline points="423.32,520.501 347.612,444.793 " />
</g>
<g clip-path="url(#clipId0)" fill="rgb(0,0,0)" stroke="rgb(0,0,0)" stroke-width="0.25" >
<path d="M239.358,340.531 243.35,336.539 229.377,326.559 229.377,326.559 z" />
<path d="M421.324,522.497 425.316,518.505 435.296,532.478 435.296,532.478 z" />
</g>
<g clip-path="url(#clipId0)" fill="none" stroke="rgb(0,0,0)" stroke-width="0.1" >
<polyline points="368.878,187.058 368.878,187.058 " />
<polyline points="526.586,441.188 526.586,441.188 " />
<polyline points="435.296,532.478 435.296,532.478 " />
</g>
<g clip-path="url(#clipId0)" fill="none" stroke="rgb(0,0,0)" stroke-width="0.25" >
<polyline points="579.92,293.64 418.008,455.552 " />
<polyline points="433.312,464.202 444.889,475.779 " />
<polyline points="456.466,487.356 444.889,475.779 " />
</g>
<g clip-path="url(#clipId0)" fill="rgb(0,0,0)" stroke="rgb(0,0,0)" stroke-width="0.25" >
<path d="M431.316,466.198 435.308,462.206 421.335,452.225 421.335,452.225 z" />
<path d="M454.47,489.352 458.462,485.36 468.442,499.332 468.442,499.332 z" />
</g>
<g clip-path="url(#clipId0)" fill="none" stroke="rgb(0,0,0)" stroke-width="0.1" >
<polyline points="586.574,286.987 586.574,286.987 " />
<polyline points="526.586,441.188 526.586,441.188 " />
<polyline points="468.442,499.332 468.442,499.332 " />
</g>
<g clip-path="url(#clipId0)" fill="none" stroke="rgb(0,0,0)" stroke-width="0.25" >
<polyline points="603.229,77.7196 603.229,40.8792 " />
<polyline points="669.848,109.468 669.848,40.8792 " />
<polyline points="620.166,45.5839 652.911,45.5839 " />
</g>
<g clip-path="url(#clipId0)" fill="rgb(0,0,0)" stroke="rgb(0,0,0)" stroke-width="0.25" >
<path d="M620.166,48.4068 620.166,42.7611 603.229,45.5839 603.229,45.5839 z" />
<path d="M652.911,48.4068 652.911,42.7611 669.848,45.5839 669.848,45.5839 z" />
</g>
<g clip-path="url(#clipId0)" fill="none" stroke="rgb(0,0,0)" stroke-width="0.1" >
<polyline points="603.229,87.1292 603.229,87.1292 " />
<polyline points="669.848,118.877 669.848,118.877 " />
<polyline points="669.848,45.5839 669.848,45.5839 " />
</g>
<g clip-path="url(#clipId0)" fill="none" stroke="rgb(0,0,0)" stroke-width="0.25" >
<polyline points="67.3636,158.609 65.7774,159.402 64.1912,160.988 63.3981,162.574 62.605,164.954 62.605,168.919 63.3981,171.298 64.1912,172.884 65.7774,174.471 67.3636,175.264 70.5359,175.264 72.1221,174.471 73.7082,172.884 74.5013,171.298 75.2944,168.919 75.2944,164.954 74.5013,162.574 73.7082,160.988 72.1221,159.402 70.5359,158.609 67.3636,158.609 " />
<polyline points="69.7428,172.091 74.5013,176.85 " />
<polyline points="87.0811,172.801 86.6061,171.851 85.6562,170.901 84.7063,170.427 82.8064,170.427 81.8565,170.901 80.9066,171.851 80.4316,172.801 79.9567,174.226 79.9567,176.601 80.4316,178.026 80.9066,178.976 81.8565,179.926 82.8064,180.401 84.7063,180.401 85.6562,179.926 86.6061,178.976 87.0811,178.026 " />
<polyline points="183.889,169.926 183.889,104.066 " />
<polyline points="840.046,171.064 839.096,170.115 837.671,169.64 835.771,169.64 834.346,170.115 833.396,171.064 833.396,172.014 833.871,172.964 834.346,173.439 835.296,173.914 838.146,174.864 839.096,175.339 839.571,175.814 840.046,176.764 840.046,178.189 839.096,179.139 837.671,179.614 835.771,179.614 834.346,179.139 833.396,178.189 " />
<polyline points="820.566,157.822 818.98,158.615 817.393,160.201 816.6,161.787 815.807,164.167 815.807,168.132 816.6,170.511 817.393,172.097 818.98,173.684 820.566,174.477 823.738,174.477 825.324,173.684 826.91,172.097 827.704,170.511 828.497,168.132 828.497,164.167 827.704,161.787 826.91,160.201 825.324,158.615 823.738,157.822 820.566,157.822 " />
<polyline points="822.945,171.304 827.704,176.063 " />
<polyline points="742.166,167.883 742.166,137.376 " />
<polyline points="640.675,426.15 659.453,407.372 " />
<polyline points="677.026,511.92 677.026,521.895 " />
<polyline points="677.026,516.67 677.976,515.72 678.926,515.245 680.351,515.245 681.301,515.72 682.251,516.67 682.726,518.095 682.726,519.045 682.251,520.47 681.301,521.42 680.351,521.895 678.926,521.895 677.976,521.42 677.026,520.47 " />
<polyline points="663.721,500.103 657.376,516.758 " />
<polyline points="663.721,500.103 670.065,516.758 " />
<polyline points="659.755,511.206 667.686,511.206 " />
<polyline points="900.256,742.727 898.285,740.755 895.327,739.77 891.384,739.77 888.427,740.755 886.455,742.727 886.455,744.698 887.441,746.67 888.427,747.656 890.398,748.641 896.313,750.613 898.285,751.599 899.27,752.584 900.256,754.556 900.256,757.513 898.285,759.485 895.327,760.471 891.384,760.471 888.427,759.485 886.455,757.513 " />
<polyline points="907.156,739.77 907.156,760.471 " />
<polyline points="907.156,739.77 914.057,739.77 917.014,740.755 918.986,742.727 919.971,744.698 920.957,747.656 920.957,752.584 919.971,755.542 918.986,757.513 917.014,759.485 914.057,760.471 907.156,760.471 " />
<polyline points="938.701,739.77 928.843,739.77 927.858,748.641 928.843,747.656 931.801,746.67 934.758,746.67 937.715,747.656 939.687,749.627 940.672,752.584 940.672,754.556 939.687,757.513 937.715,759.485 934.758,760.471 931.801,760.471 928.843,759.485 927.858,758.499 926.872,756.528 " />
<polyline points="947.573,751.599 965.317,751.599 " />
<polyline points="973.203,744.698 973.203,743.713 974.188,741.741 975.174,740.755 977.146,739.77 981.089,739.77 983.06,740.755 984.046,741.741 985.032,743.713 985.032,745.684 984.046,747.656 982.075,750.613 972.217,760.471 986.018,760.471 " />
<polyline points="468.442,499.332 547.117,578.87 " />
<polyline points="547.117,578.87 516.186,578.87 " />
</g>
</svg>
