<?xml version="1.0" standalone="no"?>
<svg viewBox="0 0 1024 768" version="1.1" xmlns="http://www.w3.org/2000/svg" xmlns:xlink="http://www.w3.org/1999/xlink" stroke-linecap="round" stroke-linejoin="round" fill-rule="evenodd" xml:space="preserve" >
<defs >
<clipPath id="clipId0" >
<path d="M0,768 1024,768 1024,0 0,0 z" />
</clipPath>
</defs>
<g clip-path="url(#clipId0)" fill="none" stroke="rgb(0,0,0)" stroke-width="0.1" />
<g clip-path="url(#clipId0)" fill="none" stroke="rgb(0,0,0)" stroke-width="0.25" >
<polyline points="506.77,196.012 458.105,149.751 " />
<polyline points="376.108,88.3156 388.435,83.5249 " />
<polyline points="388.435,83.5249 327.046,25.1701 " />
<polyline points="458.105,149.751 487.537,120.339 " />
<polyline points="436.556,67.9371 388.435,83.5249 " />
<polyline points="487.537,120.339 486.394,117.963 485.158,115.731 483.834,113.613 482.431,111.583 480.957,109.612 479.42,107.674 477.828,105.739 476.188,103.781 474.505,101.778 472.773,99.7245 470.982,97.6246 469.125,95.4799 467.19,93.2926 465.169,91.0648 463.053,88.7986 460.833,86.4961 458.495,84.1613 456.015,81.8052 453.365,79.4405 450.515,77.0802 447.438,74.7368 444.105,72.4234 440.487,70.1525 436.556,67.9371 " />
<polyline points="376.108,88.3156 374.892,89.6784 373.962,91.0297 373.294,92.3584 372.868,93.6529 372.661,94.9019 372.651,96.094 372.816,97.218 373.134,98.2623 373.584,99.2192 374.155,100.095 374.835,100.9 375.615,101.644 376.482,102.336 377.427,102.987 378.438,103.607 379.506,104.206 380.623,104.793 381.792,105.374 383.021,105.954 384.316,106.541 385.686,107.139 387.136,107.754 388.675,108.392 390.309,109.058 392.041,109.757 393.854,110.485 395.728,111.237 397.64,112.009 399.571,112.796 401.498,113.594 403.401,114.397 405.258,115.2 407.053,116 408.786,116.796 410.461,117.587 412.082,118.374 413.654,119.157 415.18,119.935 416.665,120.708 418.113,121.477 419.529,122.241 420.912,122.999 422.265,123.751 423.589,124.496 424.884,125.233 426.152,125.962 427.394,126.682 428.611,127.393 429.802,128.093 430.967,128.78 432.103,129.452 433.208,130.108 434.28,130.745 435.315,131.36 436.313,131.952 437.269,132.519 438.187,133.061 439.08,133.596 439.969,134.143 440.872,134.722 441.808,135.354 442.796,136.058 443.855,136.854 445.005,137.763 446.261,138.8 447.626,139.97 449.101,141.272 450.684,142.706 452.376,144.27 454.177,145.967 456.087,147.794 458.105,149.751 " />
<polyline points="436.556,67.9371 477.341,43.1918 " />
<polyline points="528.321,94.8659 487.537,120.339 " />
<polyline points="528.321,94.8659 546.529,83.9488 " />
<polyline points="507.929,24.2689 477.341,43.1918 " />
<polyline points="507.929,24.2689 593.14,7.52941 " />
<polyline points="587.313,71.5761 590.955,77.3986 " />
<polyline points="590.955,77.3986 546.529,83.9488 " />
<polyline points="590.955,77.3986 700.07,92.2014 " />
<polyline points="709.117,22.4657 593.14,7.52941 " />
<polyline points="546.529,83.9488 544.956,79.8454 543.506,76.2311 542.163,73.0488 540.915,70.2418 539.746,67.7533 538.643,65.5263 537.591,63.504 536.575,61.6295 535.585,59.8543 534.612,58.1629 533.654,56.5484 532.706,55.0034 531.764,53.5211 530.823,52.0941 529.879,50.7155 528.928,49.3781 527.967,48.0756 526.999,46.8043 526.029,45.5614 525.059,44.3442 524.095,43.1496 523.142,41.975 522.202,40.8174 521.281,39.6741 520.369,38.5295 519.4,37.3182 518.294,35.9619 516.972,34.3823 515.354,32.5015 513.361,30.2411 510.912,27.5229 507.929,24.2689 " />
<polyline points="593.14,7.52941 591.617,11.6815 590.311,15.432 589.2,18.8228 588.262,21.896 587.474,24.6933 586.815,27.2569 586.263,29.6285 585.796,31.8502 585.394,33.9603 585.052,35.9829 584.768,37.9388 584.537,39.8484 584.357,41.7325 584.226,43.6116 584.14,45.5063 584.097,47.4373 584.098,49.4348 584.164,51.5672 584.32,53.9129 584.59,56.55 584.999,59.5567 585.573,63.0112 586.336,66.9916 587.313,71.5761 " />
<polyline points="438.066,268.003 258.484,97.297 " />
<polyline points="317.153,153.067 316.425,151.605 315.79,150.203 315.308,148.993 314.949,147.931 314.683,146.974 314.48,146.079 314.317,145.208 314.184,144.344 314.079,143.475 313.997,142.59 313.935,141.677 313.889,140.725 313.855,139.722 313.831,138.656 313.813,137.52 313.805,136.322 313.812,135.074 313.838,133.788 313.888,132.475 313.966,131.147 314.077,129.817 314.226,128.496 314.416,127.194 314.646,125.915 314.913,124.66 315.215,123.43 315.548,122.226 315.91,121.05 316.299,119.903 316.712,118.787 317.145,117.702 317.598,116.648 318.066,115.625 318.547,114.631 319.039,113.667 319.539,112.731 320.045,111.822 320.552,110.941 321.062,110.085 321.576,109.25 322.101,108.43 322.642,107.618 323.205,106.808 323.793,105.996 324.414,105.174 325.071,104.337 325.77,103.48 326.51,102.608 327.289,101.725 328.107,100.837 328.962,99.949 329.853,99.0661 330.778,98.1938 331.736,97.3374 332.726,96.5012 333.742,95.6855 334.782,94.8896 335.839,94.113 336.909,93.3548 337.988,92.6145 339.07,91.8914 340.153,91.1848 341.231,90.4943 342.307,89.8204 343.384,89.1636 344.467,88.5248 345.557,87.9044 346.658,87.3032 347.774,86.7219 348.908,86.1611 350.061,85.6213 351.231,85.1027 352.414,84.6053 353.603,84.129 354.795,83.6739 355.985,83.24 357.168,82.8272 358.341,82.4356 359.498,82.0654 360.642,81.7177 361.776,81.3938 362.902,81.095 364.022,80.8227 365.14,80.5782 366.258,80.3628 367.378,80.1778 368.503,80.0239 369.632,79.8995 370.762,79.8022 371.893,79.7297 373.023,79.6797 374.15,79.6499 375.272,79.6379 376.387,79.6415 377.502,79.6608 378.647,79.7055 379.862,79.7879 381.185,79.9202 382.655,80.1148 384.311,80.3837 385.334,80.5773 " />
<polyline points="401.847,233.575 401.448,232.831 400.632,231.193 399.997,229.791 399.515,228.581 399.156,227.519 398.89,226.562 398.688,225.667 398.524,224.796 398.392,223.932 398.286,223.063 398.204,222.178 398.142,221.265 398.096,220.313 398.063,219.31 398.038,218.244 398.02,217.109 398.013,215.911 398.019,214.662 398.045,213.376 398.095,212.063 398.173,210.735 398.284,209.405 398.434,208.084 398.624,206.782 398.854,205.503 399.121,204.248 399.422,203.018 399.755,201.814 400.117,200.638 400.506,199.492 400.919,198.375 401.353,197.29 401.805,196.236 402.273,195.213 402.755,194.219 403.247,193.255 403.747,192.319 404.252,191.41 404.76,190.529 405.269,189.674 405.784,188.838 406.309,188.018 406.85,187.206 407.412,186.397 408.001,185.584 408.621,184.762 409.279,183.925 409.977,183.069 410.717,182.196 411.497,181.313 412.315,180.425 413.17,179.537 414.06,178.654 414.985,177.782 415.944,176.926 416.933,176.089 417.95,175.274 418.989,174.478 420.046,173.701 421.116,172.943 422.195,172.203 423.278,171.48 424.36,170.773 425.438,170.082 426.514,169.409 427.592,168.752 428.674,168.113 429.764,167.493 430.865,166.891 431.981,166.31 433.115,165.749 434.269,165.209 435.439,164.691 436.621,164.193 437.81,163.717 439.002,163.262 440.192,162.828 441.376,162.415 442.548,162.024 443.705,161.654 444.85,161.306 445.983,160.982 447.109,160.683 448.229,160.411 449.347,160.166 450.465,159.951 451.585,159.766 452.71,159.612 453.839,159.488 454.97,159.39 456.101,159.318 457.23,159.268 458.357,159.238 459.479,159.226 460.595,159.23 461.709,159.249 462.854,159.294 464.069,159.376 465.392,159.508 466.862,159.703 468.518,159.972 468.941,160.052 " />
<path d="M472.418,232.008  A27.1421,27.1421 0 0,0 506.77,196.012 " />
<path d="M506.77,196.012  A27.1421,27.1421 0 0,0 472.418,232.008 " />
<path d="M438.066,268.003  A27.1421,27.1421 0 0,0 472.418,232.008 " />
<path d="M258.484,97.297  A27.1421,27.1421 0 0,0 292.836,61.3013 " />
<path d="M292.836,61.3013  A27.1421,27.1421 0 0,0 258.484,97.297 " />
<path d="M327.189,25.3056  A27.1421,27.1421 0 0,0 292.836,61.3013 " />
<path d="M704.593,57.3335  A19.2602,19.2602 0 0,0 709.117,22.4657 " />
<path d="M709.117,22.4657  A19.2602,19.2602 0 0,0 704.593,57.3335 " />
<path d="M700.07,92.2014  A19.2602,19.2602 0 0,0 704.593,57.3335 " />
</g>
<g clip-path="url(#clipId0)" fill="rgb(0,0,0)" stroke="rgb(0,0,0)" stroke-width="0.25" >
<path d="M497.357,259.195 500.334,256.17 489.771,248.752 489.771,248.752 z" />
</g>
<g clip-path="url(#clipId0)" fill="none" stroke="rgb(0,0,0)" stroke-width="0.25" >
<polyline points="498.846,257.683 541.897,297.111 " />
<polyline points="768.057,68.4029 721.78,60.205 " />
</g>
<g clip-path="url(#clipId0)" fill="rgb(0,0,0)" stroke="rgb(0,0,0)" stroke-width="0.25" >
<path d="M768.391,66.3071 767.724,70.4986 780.632,70.403 780.632,70.403 z" />
<path d="M244.322,18.2739 247.267,15.2178 236.627,7.91069 236.627,7.91069 z" />
</g>
<g clip-path="url(#clipId0)" fill="none" stroke="rgb(0,0,0)" stroke-width="0.25" >
<polyline points="245.795,16.7459 279.311,48.3474 " />
<polyline points="727.854,360.651 726.772,359.569 725.149,359.028 722.984,359.028 721.361,359.569 720.279,360.651 720.279,361.733 720.82,362.816 721.361,363.357 722.443,363.898 725.69,364.98 726.772,365.521 727.313,366.062 727.854,367.145 727.854,368.768 726.772,369.85 725.149,370.391 722.984,370.391 721.361,369.85 720.279,368.768 " />
<polyline points="731.642,359.028 731.642,370.391 " />
<polyline points="731.642,359.028 735.43,359.028 737.053,359.569 738.135,360.651 738.677,361.733 739.218,363.357 739.218,366.062 738.677,367.686 738.135,368.768 737.053,369.85 735.43,370.391 731.642,370.391 " />
<polyline points="748.958,359.028 743.547,359.028 743.006,363.898 743.547,363.357 745.17,362.816 746.793,362.816 748.417,363.357 749.499,364.439 750.04,366.062 750.04,367.145 749.499,368.768 748.417,369.85 746.793,370.391 745.17,370.391 743.547,369.85 743.006,369.309 742.464,368.227 " />
<polyline points="753.828,365.521 763.568,365.521 " />
<polyline points="768.979,361.192 770.061,360.651 771.685,359.028 771.685,370.391 " />
<polyline points="785.754,359.028 780.343,370.391 " />
<polyline points="778.178,359.028 785.754,359.028 " />
</g>
<g clip-path="url(#clipId0)" fill="rgb(0,0,0)" stroke="rgb(0,0,0)" stroke-width="0.25" >
<path d="M628.474,91.7467 631.245,93.1334 634.019,84.1253 634.019,84.1253 z" />
</g>
<g clip-path="url(#clipId0)" fill="none" stroke="rgb(0,0,0)" stroke-width="0.25" >
<polyline points="629.859,92.4401 615.573,120.993 " />
<polyline points="615.573,120.993 628.594,120.993 " />
</g>
<g clip-path="url(#clipId0)" fill="rgb(0,0,0)" stroke="rgb(0,0,0)" stroke-width="0.25" >
<path d="M560.739,88.137 563.42,89.692 566.745,80.8723 566.745,80.8723 z" />
</g>
<g clip-path="url(#clipId0)" fill="none" stroke="rgb(0,0,0)" stroke-width="0.25" >
<polyline points="562.08,88.9145 523.342,155.692 " />
<polyline points="523.342,155.692 539.618,155.692 " />
<polyline points="740.001,42.2977 739.115,42.7404 738.23,43.6259 737.787,44.5114 737.345,45.8396 737.345,48.0532 737.787,49.3814 738.23,50.2669 739.115,51.1524 740.001,51.5951 741.772,51.5951 742.657,51.1524 743.543,50.2669 743.986,49.3814 744.428,48.0532 744.428,45.8396 743.986,44.5114 743.543,43.6259 742.657,42.7404 741.772,42.2977 740.001,42.2977 " />
<polyline points="741.329,49.8242 743.986,52.4806 " />
<polyline points="744.341,73.7436 740.799,83.041 " />
<polyline points="744.341,73.7436 747.883,83.041 " />
<polyline points="742.128,79.9418 746.555,79.9418 " />
<polyline points="521.901,254.828 518.359,264.126 " />
<polyline points="521.901,254.828 525.443,264.126 " />
<polyline points="519.688,261.027 524.115,261.027 " />
<polyline points="500.2,278.684 499.314,279.127 498.429,280.012 497.986,280.898 497.543,282.226 497.543,284.439 497.986,285.768 498.429,286.653 499.314,287.539 500.2,287.981 501.971,287.981 502.856,287.539 503.742,286.653 504.185,285.768 504.627,284.439 504.627,282.226 504.185,280.898 503.742,280.012 502.856,279.127 501.971,278.684 500.2,278.684 " />
<polyline points="501.528,286.21 504.185,288.867 " />
<polyline points="241.953,28.2013 241.067,28.644 240.182,29.5295 239.739,30.4149 239.296,31.7431 239.296,33.9568 239.739,35.285 240.182,36.1705 241.067,37.0559 241.953,37.4987 243.724,37.4987 244.609,37.0559 245.495,36.1705 245.937,35.285 246.38,33.9568 246.38,31.7431 245.937,30.4149 245.495,29.5295 244.609,28.644 243.724,28.2013 241.953,28.2013 " />
<polyline points="243.281,35.7277 245.937,38.3841 " />
<polyline points="749.33,50.8698 749.33,58.1011 " />
<polyline points="749.33,54.3133 750.018,53.6246 750.707,53.2803 751.74,53.2803 752.429,53.6246 753.117,54.3133 753.462,55.3464 753.462,56.0351 753.117,57.0681 752.429,57.7568 751.74,58.1011 750.707,58.1011 750.018,57.7568 749.33,57.0681 " />
<polyline points="535.408,263.593 534.523,262.708 533.638,262.265 532.309,262.265 531.424,262.708 530.538,263.593 530.096,264.921 530.096,265.807 530.538,267.135 531.424,268.02 532.309,268.463 533.638,268.463 534.523,268.02 535.408,267.135 " />
<polyline points="513.707,288.533 512.822,287.648 511.936,287.205 510.608,287.205 509.722,287.648 508.837,288.533 508.394,289.861 508.394,290.747 508.837,292.075 509.722,292.96 510.608,293.403 511.936,293.403 512.822,292.96 513.707,292.075 " />
<polyline points="255.017,38.0503 254.574,37.1648 253.246,36.7221 251.918,36.7221 250.59,37.1648 250.147,38.0503 250.59,38.9358 251.475,39.3785 253.689,39.8212 254.574,40.264 255.017,41.1494 255.017,41.5922 254.574,42.4776 253.246,42.9204 251.918,42.9204 250.59,42.4776 250.147,41.5922 " />
<polyline points="753.67,80.147 753.67,87.3783 " />
<polyline points="753.67,83.5905 754.358,82.9018 755.047,82.5575 756.08,82.5575 756.769,82.9018 757.458,83.5905 757.802,84.6236 757.802,85.3123 757.458,86.3453 756.769,87.034 756.08,87.3783 755.047,87.3783 754.358,87.034 753.67,86.3453 " />
<polyline points="266.909,13.0205 263.367,22.3179 " />
<polyline points="266.909,13.0205 270.451,22.3179 " />
<polyline points="264.696,19.2188 269.123,19.2188 " />
<polyline points="279.974,21.7852 279.531,20.8997 278.203,20.457 276.875,20.457 275.546,20.8997 275.104,21.7852 275.546,22.6707 276.432,23.1134 278.646,23.5561 279.531,23.9989 279.974,24.8843 279.974,25.3271 279.531,26.2125 278.203,26.6553 276.875,26.6553 275.546,26.2125 275.104,25.3271 " />
</g>
<g clip-path="url(#clipId0)" fill="rgb(0,0,0)" stroke="rgb(0,0,0)" stroke-width="0.25" >
<path d="M368.849,215.021 371.675,216.294 374.08,207.18 374.08,207.18 z" />
</g>
<g clip-path="url(#clipId0)" fill="none" stroke="rgb(0,0,0)" stroke-width="0.25" >
<polyline points="370.262,215.658 317.178,333.524 " />
<polyline points="317.178,333.524 335.625,333.524 " />
<polyline points="335.625,333.524 340.273,333.524 " />
<polyline points="394.987,81.4011 395.022,81.4589 395.92,82.7022 396.942,83.9549 398.067,85.2208 399.279,86.5036 400.557,87.8073 401.882,89.1356 403.24,90.4918 404.628,91.8772 406.048,93.2924 407.504,94.7382 408.996,96.2152 410.528,97.7243 412.101,99.266 413.717,100.841 415.377,102.449 417.074,104.087 418.801,105.75 420.548,107.432 422.308,109.129 424.072,110.837 425.832,112.551 427.581,114.265 429.31,115.976 431.02,117.68 432.712,119.372 434.385,121.051 436.042,122.711 437.683,124.349 439.308,125.962 440.919,127.546 442.517,129.098 444.099,130.616 445.666,132.101 447.216,133.55 448.748,134.963 450.261,136.339 451.754,137.677 453.225,138.976 454.677,140.237 456.126,141.467 457.593,142.675 459.096,143.87 460.655,145.06 461.893,145.965 " />
<polyline points="620.474,81.4032 619.57,78.9998 618.64,76.1667 617.897,73.522 617.316,71.0553 616.872,68.7564 616.542,66.6149 616.301,64.6205 616.124,62.7629 615.992,61.0299 615.9,59.4011 615.847,57.8544 615.835,56.3676 615.862,54.9184 615.928,53.4847 616.034,52.0441 616.179,50.5746 616.362,49.059 616.581,47.5013 616.833,45.9104 617.115,44.2954 617.423,42.6652 617.755,41.029 618.107,39.3957 618.477,37.7744 618.862,36.1722 619.265,34.5892 619.689,33.0234 620.137,31.473 620.613,29.9359 621.12,28.4105 621.661,26.8947 622.24,25.3866 622.862,23.8821 623.535,22.3671 624.272,20.8253 625.084,19.2403 625.983,17.5959 626.979,15.8755 628.083,14.063 629.308,12.1419 " />
<polyline points="477.318,43.1971 482.508,48.3765 487.008,53.0007 490.9,57.1418 494.267,60.8719 497.191,64.263 499.754,67.3873 502.039,70.3168 504.128,73.1236 506.097,75.8831 507.998,78.6845 509.876,81.6204 511.774,84.7834 513.74,88.266 515.816,92.1609 518.049,96.5605 519.813,100.18 " />
<polyline points="358.342,331.171 357.924,330.335 357.088,329.498 356.251,329.08 354.579,329.08 353.743,329.498 352.906,330.335 352.488,331.171 352.07,332.425 352.07,334.516 352.488,335.77 352.906,336.607 353.743,337.443 354.579,337.861 356.251,337.861 357.088,337.443 357.924,336.607 358.342,335.77 " />
<polyline points="363.36,329.08 362.523,329.498 361.687,330.335 361.269,331.171 360.851,332.425 360.851,334.516 361.269,335.77 361.687,336.607 362.523,337.443 363.36,337.861 365.032,337.861 365.869,337.443 366.705,336.607 367.123,335.77 367.541,334.516 367.541,332.425 367.123,331.171 366.705,330.335 365.869,329.498 365.032,329.08 363.36,329.08 " />
<polyline points="370.468,329.08 370.468,337.861 " />
<polyline points="370.468,329.08 376.322,337.861 " />
<polyline points="376.322,329.08 376.322,337.861 " />
<polyline points="379.667,329.08 379.667,337.861 " />
<polyline points="388.866,331.171 388.448,330.335 387.612,329.498 386.775,329.08 385.103,329.08 384.267,329.498 383.43,330.335 383.012,331.171 382.594,332.425 382.594,334.516 383.012,335.77 383.43,336.607 384.267,337.443 385.103,337.861 386.775,337.861 387.612,337.443 388.448,336.607 388.866,335.77 " />
<polyline points="393.884,329.08 390.539,337.861 " />
<polyline points="393.884,329.08 397.229,337.861 " />
<polyline points="391.793,334.934 395.974,334.934 " />
<polyline points="399.32,329.08 399.32,337.861 404.337,337.861 " />
<polyline points="416.881,329.08 416.881,337.861 " />
<polyline points="413.954,329.08 419.808,329.08 " />
<polyline points="421.899,329.08 421.899,337.861 " />
<polyline points="421.899,329.08 427.335,329.08 " />
<polyline points="421.899,333.262 425.244,333.262 " />
<polyline points="421.899,337.861 427.335,337.861 " />
<polyline points="429.844,329.08 429.844,337.861 " />
<polyline points="429.844,329.08 435.279,329.08 " />
<polyline points="429.844,333.262 433.189,333.262 " />
<polyline points="429.844,337.861 435.279,337.861 " />
<polyline points="449.496,327.408 448.66,328.244 447.824,329.498 446.987,331.171 446.569,333.262 446.569,334.934 446.987,337.025 447.824,338.697 448.66,339.952 449.496,340.788 " />
<polyline points="457.859,330.335 457.023,329.498 455.768,329.08 454.096,329.08 452.841,329.498 452.005,330.335 452.005,331.171 452.423,332.007 452.841,332.425 453.677,332.843 456.186,333.68 457.023,334.098 457.441,334.516 457.859,335.352 457.859,336.607 457.023,337.443 455.768,337.861 454.096,337.861 452.841,337.443 452.005,336.607 " />
<polyline points="460.786,329.08 460.786,337.861 " />
<polyline points="460.786,329.08 463.713,329.08 464.967,329.498 465.803,330.335 466.222,331.171 466.64,332.425 466.64,334.516 466.222,335.77 465.803,336.607 464.967,337.443 463.713,337.861 460.786,337.861 " />
<polyline points="474.166,329.08 469.985,329.08 469.567,332.843 469.985,332.425 471.239,332.007 472.494,332.007 473.748,332.425 474.584,333.262 475.002,334.516 475.002,335.352 474.584,336.607 473.748,337.443 472.494,337.861 471.239,337.861 469.985,337.443 469.567,337.025 469.149,336.188 " />
<polyline points="477.929,334.098 485.456,334.098 " />
<polyline points="488.801,331.171 488.801,330.753 489.219,329.916 489.637,329.498 490.474,329.08 492.146,329.08 492.982,329.498 493.401,329.916 493.819,330.753 493.819,331.589 493.401,332.425 492.564,333.68 488.383,337.861 494.237,337.861 " />
<polyline points="496.746,327.408 497.582,328.244 498.418,329.498 499.254,331.171 499.673,333.262 499.673,334.934 499.254,337.025 498.418,338.697 497.582,339.952 496.746,340.788 " />
<polyline points="351.403,344.757 351.403,358.137 " />
<polyline points="351.403,344.757 354.33,344.757 " />
<polyline points="351.403,358.137 354.33,358.137 " />
<polyline points="358.93,346.43 358.93,355.21 " />
<polyline points="356.003,346.43 361.856,346.43 " />
<polyline points="363.947,346.43 363.947,355.21 " />
<polyline points="363.947,346.43 369.383,346.43 " />
<polyline points="363.947,350.611 367.292,350.611 " />
<polyline points="363.947,355.21 369.383,355.21 " />
<polyline points="371.892,346.43 371.892,355.21 " />
<polyline points="371.892,346.43 377.328,346.43 " />
<polyline points="371.892,350.611 375.237,350.611 " />
<polyline points="371.892,355.21 377.328,355.21 " />
<polyline points="388.617,346.43 388.617,355.21 " />
<polyline points="388.617,346.43 392.381,346.43 393.635,346.848 394.053,347.266 394.471,348.102 394.471,348.938 394.053,349.775 393.635,350.193 392.381,350.611 388.617,350.611 " />
<polyline points="391.544,350.611 394.471,355.21 " />
<polyline points="399.489,346.43 398.653,346.848 397.816,347.684 397.398,348.52 396.98,349.775 396.98,351.865 397.398,353.12 397.816,353.956 398.653,354.792 399.489,355.21 401.161,355.21 401.998,354.792 402.834,353.956 403.252,353.12 403.67,351.865 403.67,349.775 403.252,348.52 402.834,347.684 401.998,346.848 401.161,346.43 399.489,346.43 " />
<polyline points="406.597,346.43 406.597,355.21 411.615,355.21 " />
<polyline points="413.706,346.43 413.706,355.21 418.723,355.21 " />
<polyline points="420.814,346.43 420.814,355.21 " />
<polyline points="420.814,346.43 426.25,346.43 " />
<polyline points="420.814,350.611 424.159,350.611 " />
<polyline points="420.814,355.21 426.25,355.21 " />
<polyline points="428.759,346.43 428.759,355.21 " />
<polyline points="428.759,346.43 431.685,346.43 432.94,346.848 433.776,347.684 434.194,348.52 434.612,349.775 434.612,351.865 434.194,353.12 433.776,353.956 432.94,354.792 431.685,355.21 428.759,355.21 " />
<polyline points="450.084,346.43 445.902,352.284 452.174,352.284 " />
<polyline points="450.084,346.43 450.084,355.21 " />
<polyline points="459.283,346.43 455.101,346.43 454.683,350.193 455.101,349.775 456.356,349.357 457.61,349.357 458.864,349.775 459.701,350.611 460.119,351.865 460.119,352.702 459.701,353.956 458.864,354.792 457.61,355.21 456.356,355.21 455.101,354.792 454.683,354.374 454.265,353.538 " />
<ellipse rx="0.836275" ry="0.836275" cx="462.628" cy="347.266" />
<polyline points="475.59,346.43 475.59,355.21 " />
<polyline points="475.59,346.43 481.026,346.43 " />
<polyline points="475.59,350.611 478.935,350.611 " />
<polyline points="483.116,346.43 483.116,355.21 " />
<polyline points="483.116,346.43 486.88,346.43 488.134,346.848 488.552,347.266 488.97,348.102 488.97,348.938 488.552,349.775 488.134,350.193 486.88,350.611 483.116,350.611 " />
<polyline points="486.043,350.611 488.97,355.21 " />
<polyline points="493.988,346.43 493.152,346.848 492.315,347.684 491.897,348.52 491.479,349.775 491.479,351.865 491.897,353.12 492.315,353.956 493.152,354.792 493.988,355.21 495.661,355.21 496.497,354.792 497.333,353.956 497.751,353.12 498.169,351.865 498.169,349.775 497.751,348.52 497.333,347.684 496.497,346.848 495.661,346.43 493.988,346.43 " />
<polyline points="501.096,346.43 501.096,355.21 " />
<polyline points="501.096,346.43 504.441,355.21 " />
<polyline points="507.787,346.43 504.441,355.21 " />
<polyline points="507.787,346.43 507.787,355.21 " />
<polyline points="519.913,346.43 519.913,355.21 " />
<polyline points="525.766,346.43 525.766,355.21 " />
<polyline points="519.913,350.611 525.766,350.611 " />
<polyline points="531.202,346.43 530.366,346.848 529.53,347.684 529.112,348.52 528.693,349.775 528.693,351.865 529.112,353.12 529.53,353.956 530.366,354.792 531.202,355.21 532.875,355.21 533.711,354.792 534.547,353.956 534.965,353.12 535.384,351.865 535.384,349.775 534.965,348.52 534.547,347.684 533.711,346.848 532.875,346.43 531.202,346.43 " />
<polyline points="538.311,346.43 538.311,355.21 " />
<polyline points="538.311,346.43 542.074,346.43 543.328,346.848 543.746,347.266 544.165,348.102 544.165,348.938 543.746,349.775 543.328,350.193 542.074,350.611 538.311,350.611 " />
<polyline points="541.238,350.611 544.165,355.21 " />
<polyline points="547.091,346.43 547.091,355.21 " />
<polyline points="555.872,346.43 550.018,355.21 " />
<polyline points="550.018,346.43 555.872,346.43 " />
<polyline points="550.018,355.21 555.872,355.21 " />
<polyline points="560.89,346.43 560.054,346.848 559.217,347.684 558.799,348.52 558.381,349.775 558.381,351.865 558.799,353.12 559.217,353.956 560.054,354.792 560.89,355.21 562.563,355.21 563.399,354.792 564.235,353.956 564.653,353.12 565.071,351.865 565.071,349.775 564.653,348.52 564.235,347.684 563.399,346.848 562.563,346.43 560.89,346.43 " />
<polyline points="567.998,346.43 567.998,355.21 " />
<polyline points="567.998,346.43 573.852,355.21 " />
<polyline points="573.852,346.43 573.852,355.21 " />
<polyline points="578.87,346.43 578.87,355.21 " />
<polyline points="575.943,346.43 581.797,346.43 " />
<polyline points="585.978,346.43 582.633,355.21 " />
<polyline points="585.978,346.43 589.323,355.21 " />
<polyline points="583.888,352.284 588.069,352.284 " />
<polyline points="591.414,346.43 591.414,355.21 596.432,355.21 " />
<polyline points="600.613,344.757 600.613,358.137 " />
<polyline points="597.686,344.757 600.613,344.757 " />
<polyline points="597.686,358.137 600.613,358.137 " />
<polyline points="638.947,116.549 638.947,125.33 " />
<polyline points="638.947,116.549 642.711,116.549 643.965,116.968 644.383,117.386 644.801,118.222 644.801,119.058 644.383,119.894 643.965,120.313 642.711,120.731 " />
<polyline points="638.947,120.731 642.711,120.731 643.965,121.149 644.383,121.567 644.801,122.403 644.801,123.658 644.383,124.494 643.965,124.912 642.711,125.33 638.947,125.33 " />
<polyline points="647.728,116.549 647.728,125.33 " />
<polyline points="647.728,116.549 651.491,116.549 652.746,116.968 653.164,117.386 653.582,118.222 653.582,119.058 653.164,119.894 652.746,120.313 651.491,120.731 647.728,120.731 " />
<polyline points="650.655,120.731 653.582,125.33 " />
<polyline points="658.6,116.549 655.255,125.33 " />
<polyline points="658.6,116.549 661.945,125.33 " />
<polyline points="656.509,122.403 660.69,122.403 " />
<polyline points="664.036,116.549 664.036,125.33 " />
<polyline points="664.036,116.549 669.889,125.33 " />
<polyline points="669.889,116.549 669.889,125.33 " />
<polyline points="679.088,118.64 678.67,117.804 677.834,116.968 676.998,116.549 675.325,116.549 674.489,116.968 673.653,117.804 673.235,118.64 672.816,119.894 672.816,121.985 673.235,123.24 673.653,124.076 674.489,124.912 675.325,125.33 676.998,125.33 677.834,124.912 678.67,124.076 679.088,123.24 " />
<polyline points="682.015,116.549 682.015,125.33 " />
<polyline points="687.869,116.549 687.869,125.33 " />
<polyline points="682.015,120.731 687.869,120.731 " />
<polyline points="703.759,116.549 699.577,122.403 705.849,122.403 " />
<polyline points="703.759,116.549 703.759,125.33 " />
<polyline points="712.958,116.549 708.776,116.549 708.358,120.313 708.776,119.894 710.031,119.476 711.285,119.476 712.539,119.894 713.376,120.731 713.794,121.985 713.794,122.821 713.376,124.076 712.539,124.912 711.285,125.33 710.031,125.33 708.776,124.912 708.358,124.494 707.94,123.658 " />
<ellipse rx="0.836275" ry="0.836275" cx="716.303" cy="117.386" />
<polyline points="730.938,116.549 730.938,125.33 " />
<polyline points="728.011,116.549 733.865,116.549 " />
<polyline points="738.046,116.549 737.21,116.968 736.373,117.804 735.955,118.64 735.537,119.894 735.537,121.985 735.955,123.24 736.373,124.076 737.21,124.912 738.046,125.33 739.718,125.33 740.555,124.912 741.391,124.076 741.809,123.24 742.227,121.985 742.227,119.894 741.809,118.64 741.391,117.804 740.555,116.968 739.718,116.549 738.046,116.549 " />
<polyline points="753.935,116.549 753.935,125.33 " />
<polyline points="753.935,116.549 757.28,125.33 " />
<polyline points="760.625,116.549 757.28,125.33 " />
<polyline points="760.625,116.549 760.625,125.33 " />
<polyline points="766.061,116.549 762.716,125.33 " />
<polyline points="766.061,116.549 769.406,125.33 " />
<polyline points="763.97,122.403 768.152,122.403 " />
<polyline points="771.497,116.549 771.497,125.33 " />
<polyline points="774.842,116.549 774.842,125.33 " />
<polyline points="774.842,116.549 780.696,125.33 " />
<polyline points="780.696,116.549 780.696,125.33 " />
<polyline points="563.67,151.418 563.251,150.582 561.997,150.164 561.161,150.164 559.906,150.582 559.07,151.836 558.652,153.927 558.652,156.018 559.07,157.69 559.906,158.527 561.161,158.945 561.579,158.945 562.833,158.527 563.67,157.69 564.088,156.436 564.088,156.018 563.67,154.763 562.833,153.927 561.579,153.509 561.161,153.509 559.906,153.927 559.07,154.763 558.652,156.018 " />
<polyline points="569.105,150.164 567.851,150.582 567.015,151.836 566.597,153.927 566.597,155.182 567.015,157.272 567.851,158.527 569.105,158.945 569.942,158.945 571.196,158.527 572.032,157.272 572.45,155.182 572.45,153.927 572.032,151.836 571.196,150.582 569.942,150.164 569.105,150.164 " />
<ellipse rx="0.836275" ry="0.836275" cx="574.959" cy="151" />
<polyline points="587.922,150.164 587.922,158.945 " />
<polyline points="587.922,150.164 593.357,150.164 " />
<polyline points="587.922,154.345 591.267,154.345 " />
<polyline points="587.922,158.945 593.357,158.945 " />
<polyline points="595.866,150.164 595.866,158.945 600.884,158.945 " />
<polyline points="602.974,150.164 602.974,158.945 " />
<polyline points="602.974,150.164 606.738,150.164 607.992,150.582 608.41,151 608.828,151.836 608.828,152.673 608.41,153.509 607.992,153.927 606.738,154.345 " />
<polyline points="602.974,154.345 606.738,154.345 607.992,154.763 608.41,155.182 608.828,156.018 608.828,157.272 608.41,158.109 607.992,158.527 606.738,158.945 602.974,158.945 " />
<polyline points="613.846,150.164 613.01,150.582 612.174,151.418 611.755,152.255 611.337,153.509 611.337,155.6 611.755,156.854 612.174,157.69 613.01,158.527 613.846,158.945 615.519,158.945 616.355,158.527 617.191,157.69 617.609,156.854 618.027,155.6 618.027,153.509 617.609,152.255 617.191,151.418 616.355,150.582 615.519,150.164 613.846,150.164 " />
<polyline points="620.118,150.164 622.209,158.945 " />
<polyline points="624.3,150.164 622.209,158.945 " />
<polyline points="624.3,150.164 626.39,158.945 " />
<polyline points="628.481,150.164 626.39,158.945 " />
<polyline points="631.826,158.527 631.408,158.945 630.99,158.527 631.408,158.109 631.826,158.527 631.826,159.363 631.408,160.199 630.99,160.617 " />
<polyline points="643.952,153.091 643.952,158.945 " />
<polyline points="643.952,155.6 644.37,154.345 645.206,153.509 646.043,153.091 647.297,153.091 " />
<polyline points="656.078,148.491 648.552,161.872 " />
<polyline points="658.587,150.164 658.587,158.945 " />
<polyline points="658.587,150.164 661.514,150.164 662.768,150.582 663.604,151.418 664.023,152.255 664.441,153.509 664.441,155.6 664.023,156.854 663.604,157.69 662.768,158.527 661.514,158.945 658.587,158.945 " />
<polyline points="676.149,153.927 683.675,153.927 " />
<polyline points="676.149,156.436 683.675,156.436 " />
<polyline points="696.637,151.836 697.474,151.418 698.728,150.164 698.728,158.945 " />
<polyline points="704.582,158.109 704.164,158.527 704.582,158.945 705,158.527 704.582,158.109 " />
<polyline points="712.945,150.164 708.763,150.164 708.345,153.927 708.763,153.509 710.018,153.091 711.272,153.091 712.527,153.509 713.363,154.345 713.781,155.6 713.781,156.436 713.363,157.69 712.527,158.527 711.272,158.945 710.018,158.945 708.763,158.527 708.345,158.109 707.927,157.272 " />
<polyline points="728.416,148.491 727.58,149.328 726.743,150.582 725.907,152.255 725.489,154.345 725.489,156.018 725.907,158.109 726.743,159.781 727.58,161.036 728.416,161.872 " />
<polyline points="737.197,152.255 736.779,151.418 735.942,150.582 735.106,150.164 733.433,150.164 732.597,150.582 731.761,151.418 731.343,152.255 730.925,153.509 730.925,155.6 731.343,156.854 731.761,157.69 732.597,158.527 733.433,158.945 735.106,158.945 735.942,158.527 736.779,157.69 737.197,156.854 " />
<polyline points="740.124,150.164 740.124,158.945 " />
<polyline points="740.124,150.164 743.051,150.164 744.305,150.582 745.141,151.418 745.559,152.255 745.978,153.509 745.978,155.6 745.559,156.854 745.141,157.69 744.305,158.527 743.051,158.945 740.124,158.945 " />
<polyline points="749.323,150.164 753.922,150.164 751.413,153.509 752.668,153.509 753.504,153.927 753.922,154.345 754.34,155.6 754.34,156.436 753.922,157.69 753.086,158.527 751.832,158.945 750.577,158.945 749.323,158.527 748.905,158.109 748.486,157.272 " />
<polyline points="757.267,155.182 764.794,155.182 " />
<polyline points="768.975,151.836 769.811,151.418 771.066,150.164 771.066,158.945 " />
<polyline points="776.92,150.164 781.519,150.164 779.01,153.509 780.265,153.509 781.101,153.927 781.519,154.345 781.937,155.6 781.937,156.436 781.519,157.69 780.683,158.527 779.429,158.945 778.174,158.945 776.92,158.527 776.502,158.109 776.083,157.272 " />
<polyline points="784.446,148.491 785.283,149.328 786.119,150.582 786.955,152.255 787.373,154.345 787.373,156.018 786.955,158.109 786.119,159.781 785.283,161.036 784.446,161.872 " />
</g>
</svg>
