<?xml version="1.0" standalone="no"?>
<svg viewBox="0 0 1024 768" version="1.1" xmlns="http://www.w3.org/2000/svg" xmlns:xlink="http://www.w3.org/1999/xlink" stroke-linecap="round" stroke-linejoin="round" fill-rule="evenodd" xml:space="preserve" >
<defs >
<clipPath id="clipId0" >
<path d="M0,768 1024,768 1024,0 0,0 z" />
</clipPath>
</defs>
<g clip-path="url(#clipId0)" fill="none" stroke="rgb(0,0,0)" stroke-width="0.1" />
<g clip-path="url(#clipId0)" fill="none" stroke="rgb(0,0,0)" stroke-width="0.25" >
<polyline points="250.233,230.359 250.233,345.819 " />
<polyline points="250.233,345.819 268.274,345.819 " />
<polyline points="365.693,345.819 365.693,230.359 " />
<polyline points="365.693,230.359 356.071,230.359 " />
<polyline points="356.071,230.359 356.071,66.7906 " />
<polyline points="356.071,182.25 279.098,182.25 " />
<polyline points="279.098,66.7906 279.098,230.359 " />
<polyline points="279.098,230.359 270.679,230.359 " />
<polyline points="356.071,220.737 279.098,220.737 " />
<polyline points="405.382,249.602 423.423,249.602 " />
<polyline points="405.382,326.575 423.423,326.575 " />
<polyline points="423.423,326.575 423.423,249.602 " />
<polyline points="365.693,230.359 403.235,249.13 " />
<polyline points="403.235,327.048 365.693,345.819 " />
<circle cx="648.186" cy="288.089" r="38.4866" />
<circle cx="648.186" cy="288.089" r="57.7299" />
<polyline points="686.672,245.059 686.672,182.25 " />
<polyline points="609.699,245.059 609.699,182.25 " />
<polyline points="609.699,220.737 686.672,220.737 " />
<polyline points="609.699,182.25 686.672,182.25 " />
<polyline points="609.699,151.629 686.672,166.94 " />
<polyline points="633.136,95.0468 698.391,138.649 " />
<polyline points="676.442,51.741 720.044,116.996 " />
<polyline points="733.024,28.304 748.335,105.277 " />
<polyline points="782.889,28.304 764.848,28.304 " />
<polyline points="782.889,105.277 764.848,105.277 " />
<polyline points="609.699,182.25 609.699,151.629 " />
<polyline points="686.672,182.25 686.672,166.94 " />
<polyline points="698.391,138.649 720.044,116.996 " />
<polyline points="633.136,95.0468 676.442,51.741 " />
<polyline points="733.024,28.304 676.442,51.741 " />
<polyline points="748.335,105.277 720.044,116.996 " />
<polyline points="633.136,95.0468 609.699,151.629 " />
<polyline points="686.672,166.94 698.391,138.649 " />
<polyline points="782.889,28.304 782.889,105.277 " />
<polyline points="764.848,28.304 764.848,105.277 " />
<polyline points="762.443,28.304 762.443,105.277 " />
<path d="M764.848,28.304  A1.25282,1.25282 0 0,0 762.443,28.304 " />
<polyline points="762.443,28.304 733.024,28.304 " />
<path d="M762.443,105.277  A1.25282,1.25282 0 0,0 764.848,105.277 " />
<polyline points="762.443,105.277 748.335,105.277 " />
<polyline points="270.679,230.359 270.679,345.819 " />
<polyline points="268.274,230.359 268.274,345.819 " />
<path d="M270.679,230.359  A1.25282,1.25282 0 0,0 268.274,230.359 " />
<polyline points="268.274,230.359 250.233,230.359 " />
<path d="M268.274,345.819  A1.25282,1.25282 0 0,0 270.679,345.819 " />
<polyline points="270.679,345.819 365.693,345.819 " />
<polyline points="405.382,326.575 405.382,249.602 " />
<polyline points="402.977,326.575 402.977,249.602 " />
<path d="M405.382,249.602  A1.25282,1.25282 0 0,0 402.977,249.602 " />
<path d="M402.977,326.575  A1.25282,1.25282 0 0,0 405.382,326.575 " />
<polyline points="317.585,151.629 314.406,151.655 311.228,151.733 308.052,151.864 304.878,152.047 301.707,152.282 301.707,152.282 299.427,152.496 297.152,152.762 294.883,153.08 292.622,153.45 290.371,153.871 290.371,153.871 288.902,154.191 287.445,154.563 286.003,154.987 284.577,155.463 283.169,155.99 281.781,156.566 280.414,157.193 280.414,157.193 280.131,157.354 279.874,157.553 279.647,157.786 279.455,158.049 279.301,158.336 279.189,158.641 279.121,158.959 279.098,159.284 " />
<polyline points="356.071,159.284 356.049,158.959 355.981,158.641 355.869,158.336 355.715,158.049 355.523,157.786 355.296,157.553 355.039,157.354 354.756,157.193 354.756,157.193 353.389,156.566 352.001,155.99 350.593,155.463 349.167,154.987 347.725,154.563 346.268,154.191 344.799,153.871 344.799,153.871 342.547,153.45 340.287,153.08 338.018,152.762 335.743,152.496 333.462,152.282 333.462,152.282 330.292,152.047 327.118,151.864 323.942,151.733 320.764,151.655 317.585,151.629 " />
<polyline points="317.585,95.0468 315.634,95.0749 313.685,95.1592 311.739,95.2996 309.798,95.4959 307.864,95.7481 305.937,96.0559 304.021,96.4191 302.115,96.8374 302.115,96.8374 300.582,97.226 299.064,97.669 297.562,98.1658 296.079,98.7158 294.617,99.3182 293.176,99.9723 291.761,100.677 290.371,101.432 290.371,101.432 289.351,102.039 288.358,102.688 287.394,103.378 286.459,104.109 285.557,104.879 284.688,105.686 283.854,106.53 283.056,107.408 282.296,108.319 281.576,109.262 281.576,109.262 281.118,109.931 280.703,110.629 280.333,111.351 280.009,112.095 279.733,112.857 279.506,113.636 279.328,114.428 279.201,115.229 279.124,116.037 279.098,116.848 " />
<polyline points="356.071,116.848 356.046,116.037 355.969,115.229 355.842,114.428 355.664,113.636 355.436,112.857 355.16,112.095 354.837,111.351 354.467,110.629 354.052,109.931 353.594,109.262 353.594,109.262 352.873,108.319 352.114,107.408 351.316,106.53 350.482,105.686 349.613,104.879 348.71,104.109 347.776,103.378 346.811,102.688 345.819,102.039 344.799,101.432 344.799,101.432 343.409,100.677 341.993,99.9723 340.553,99.3182 339.091,98.7158 337.608,98.1658 336.106,97.669 334.588,97.226 333.055,96.8374 333.055,96.8374 331.149,96.4191 329.232,96.0559 327.306,95.7481 325.371,95.4959 323.43,95.2996 321.485,95.1592 319.536,95.0749 317.585,95.0468 " />
<polyline points="317.585,51.741 316.056,51.7668 314.529,51.8442 313.005,51.9731 311.486,52.1535 309.975,52.385 308.472,52.6673 306.98,53.0003 305.499,53.3835 304.033,53.8164 302.581,54.2986 302.581,54.2986 301.255,54.7919 299.947,55.3332 298.66,55.922 297.396,56.5574 296.155,57.2386 294.941,57.9646 293.753,58.7346 292.595,59.5474 291.467,60.402 290.371,61.2973 290.371,61.2973 289.425,62.13 288.511,62.9977 287.631,63.899 286.785,64.8328 285.974,65.7977 285.201,66.7923 284.465,67.8153 283.768,68.8651 283.111,69.9404 282.495,71.0397 281.921,72.1612 281.921,72.1612 281.438,73.2036 280.999,74.265 280.603,75.3437 280.253,76.4378 279.948,77.5454 279.689,78.6647 279.477,79.7937 279.312,80.9305 279.193,82.0732 279.122,83.2198 279.098,84.3683 " />
<polyline points="356.071,84.3683 356.048,83.2198 355.977,82.0732 355.858,80.9305 355.693,79.7937 355.48,78.6647 355.221,77.5454 354.917,76.4378 354.566,75.3437 354.171,74.265 353.732,73.2036 353.249,72.1612 353.249,72.1612 352.674,71.0397 352.058,69.9404 351.402,68.8651 350.705,67.8153 349.969,66.7923 349.195,65.7977 348.385,64.8328 347.539,63.899 346.658,62.9977 345.745,62.13 344.799,61.2973 344.799,61.2973 343.703,60.402 342.575,59.5474 341.416,58.7346 340.229,57.9646 339.014,57.2386 337.774,56.5574 336.509,55.922 335.222,55.3332 333.915,54.7919 332.588,54.2986 332.588,54.2986 331.137,53.8164 329.671,53.3835 328.19,53.0003 326.698,52.6673 325.195,52.385 323.683,52.1535 322.165,51.9731 320.641,51.8442 319.114,51.7668 317.585,51.741 " />
<polyline points="317.585,28.304 316.211,28.3285 314.839,28.4021 313.471,28.5245 312.108,28.6957 310.751,28.9155 309.404,29.1835 308.067,29.4995 306.742,29.863 305.431,30.2735 304.135,30.7306 302.857,31.2336 302.857,31.2336 301.597,31.782 300.358,32.3749 299.14,33.0117 297.946,33.6916 296.777,34.4136 295.635,35.1769 294.521,35.9805 293.436,36.8233 292.381,37.7044 291.359,38.6225 290.371,39.5765 290.371,39.5765 289.417,40.5651 288.499,41.5872 287.618,42.6415 286.775,43.7264 285.971,44.8408 285.208,45.9832 284.486,47.152 283.806,48.3459 283.169,49.5633 282.576,50.8027 282.028,52.0624 282.028,52.0624 281.525,53.3409 281.068,54.6366 280.657,55.9477 280.294,57.2726 279.978,58.6097 279.71,59.9572 279.49,61.3134 279.319,62.6766 279.196,64.045 279.123,65.4169 279.098,66.7906 " />
<polyline points="356.071,66.7906 356.047,65.4169 355.973,64.045 355.851,62.6766 355.68,61.3134 355.46,59.9572 355.192,58.6097 354.876,57.2726 354.513,55.9477 354.102,54.6366 353.645,53.3409 353.142,52.0624 353.142,52.0624 352.594,50.8027 352.001,49.5633 351.364,48.3459 350.684,47.152 349.962,45.9832 349.199,44.8408 348.395,43.7264 347.552,42.6415 346.671,41.5872 345.753,40.5651 344.799,39.5765 344.799,39.5765 343.81,38.6225 342.788,37.7044 341.734,36.8233 340.649,35.9805 339.535,35.1769 338.392,34.4136 337.223,33.6916 336.03,33.0117 334.812,32.3749 333.573,31.782 332.313,31.2336 332.313,31.2336 331.035,30.7306 329.739,30.2735 328.428,29.863 327.103,29.4995 325.766,29.1835 324.418,28.9155 323.062,28.6957 321.699,28.5245 320.33,28.4021 318.959,28.3285 317.585,28.304 " />
<path d="M356.071,66.7906  A38.4866,38.4866 0 1,0 279.098,66.7906 " />
<polyline points="224.589,230.359 224.589,215.926 " />
<polyline points="224.589,215.926 214.967,215.926 " />
<polyline points="269.477,353.716 269.477,374.702 " />
<polyline points="279.098,237.354 279.098,374.702 " />
<polyline points="256.884,371.205 244.292,371.205 " />
<polyline points="291.69,371.205 304.282,371.205 " />
</g>
<g clip-path="url(#clipId0)" fill="rgb(0,0,0)" stroke="rgb(0,0,0)" stroke-width="0.25" >
<path d="M256.884,369.106 256.884,373.303 269.477,371.205 269.477,371.205 z" />
<path d="M291.69,369.106 291.69,373.303 279.098,371.205 279.098,371.205 z" />
</g>
<g clip-path="url(#clipId0)" fill="none" stroke="rgb(0,0,0)" stroke-width="0.25" >
<polyline points="365.693,223.363 365.693,207.581 " />
<polyline points="404.18,241.704 404.18,207.581 " />
<polyline points="378.285,211.079 391.588,211.079 " />
</g>
<g clip-path="url(#clipId0)" fill="rgb(0,0,0)" stroke="rgb(0,0,0)" stroke-width="0.25" >
<path d="M378.285,208.98 378.285,213.177 365.693,211.079 365.693,211.079 z" />
<path d="M391.588,208.98 391.588,213.177 404.18,211.079 404.18,211.079 z" />
</g>
<g clip-path="url(#clipId0)" fill="none" stroke="rgb(0,0,0)" stroke-width="0.25" >
<polyline points="444.515,249.602 444.515,235.17 " />
<polyline points="444.515,235.17 454.137,235.17 " />
<polyline points="803.981,28.304 803.981,13.8715 " />
<polyline points="803.981,13.8715 813.603,13.8715 " />
<polyline points="876.01,66.7906 822.988,66.7906 " />
</g>
<g clip-path="url(#clipId0)" fill="rgb(0,0,0)" stroke="rgb(0,0,0)" stroke-width="0.25" >
<path d="M876.01,64.4814 876.01,69.0998 889.865,66.7906 889.865,66.7906 z" />
</g>
<g clip-path="url(#clipId0)" fill="none" stroke="rgb(0,0,0)" stroke-width="0.25" >
<polyline points="708.165,193.027 717.786,193.027 " />
<polyline points="197.348,209.755 197.348,219.376 " />
<polyline points="197.348,209.755 200.555,209.755 201.929,210.213 202.846,211.129 203.304,212.045 203.762,213.42 203.762,215.711 203.304,217.085 202.846,218.002 201.929,218.918 200.555,219.376 197.348,219.376 " />
<polyline points="209.981,218.02 209.293,217.332 208.606,216.989 207.575,216.989 206.888,217.332 206.201,218.02 205.857,219.051 205.857,219.738 206.201,220.769 206.888,221.456 207.575,221.8 208.606,221.8 209.293,221.456 209.981,220.769 " />
<polyline points="169.3,367.1 170.216,366.642 171.591,365.268 171.591,374.889 " />
<polyline points="178.463,363.893 178.005,364.351 177.547,363.893 178.005,363.435 178.463,363.893 178.463,364.809 178.005,365.726 177.547,366.184 " />
<polyline points="181.212,363.893 180.754,364.351 180.296,363.893 180.754,363.435 181.212,363.893 181.212,364.809 180.754,365.726 180.296,366.184 " />
<polyline points="187.169,363.435 186.252,364.351 185.336,365.726 184.42,367.558 183.962,369.849 183.962,371.682 184.42,373.973 185.336,375.806 186.252,377.18 187.169,378.096 " />
<polyline points="190.376,367.558 190.376,367.1 190.834,366.184 191.292,365.726 192.209,365.268 194.041,365.268 194.958,365.726 195.416,366.184 195.874,367.1 195.874,368.017 195.416,368.933 194.5,370.307 189.918,374.889 196.332,374.889 " />
<polyline points="204.579,365.268 199.998,365.268 199.539,369.391 199.998,368.933 201.372,368.475 202.747,368.475 204.121,368.933 205.038,369.849 205.496,371.224 205.496,372.14 205.038,373.515 204.121,374.431 202.747,374.889 201.372,374.889 199.998,374.431 199.539,373.973 199.081,373.057 " />
<polyline points="208.703,368.475 208.703,374.889 " />
<polyline points="208.703,370.307 210.077,368.933 210.994,368.475 212.368,368.475 213.285,368.933 213.743,370.307 213.743,374.889 " />
<polyline points="213.743,370.307 215.117,368.933 216.034,368.475 217.408,368.475 218.325,368.933 218.783,370.307 218.783,374.889 " />
<polyline points="222.448,368.475 222.448,374.889 " />
<polyline points="222.448,370.307 223.823,368.933 224.739,368.475 226.114,368.475 227.03,368.933 227.488,370.307 227.488,374.889 " />
<polyline points="227.488,370.307 228.863,368.933 229.779,368.475 231.153,368.475 232.07,368.933 232.528,370.307 232.528,374.889 " />
<polyline points="235.735,363.435 236.652,364.351 237.568,365.726 238.484,367.558 238.942,369.849 238.942,371.682 238.484,373.973 237.568,375.806 236.652,377.18 235.735,378.096 " />
<polyline points="395.618,367.1 396.534,366.642 397.909,365.268 397.909,374.889 " />
<polyline points="404.781,363.893 404.323,364.351 403.865,363.893 404.323,363.435 404.781,363.893 404.781,364.809 404.323,365.726 403.865,366.184 " />
<polyline points="407.53,363.893 407.072,364.351 406.614,363.893 407.072,363.435 407.53,363.893 407.53,364.809 407.072,365.726 406.614,366.184 " />
<polyline points="413.487,363.435 412.57,364.351 411.654,365.726 410.738,367.558 410.279,369.849 410.279,371.682 410.738,373.973 411.654,375.806 412.57,377.18 413.487,378.096 " />
<polyline points="416.694,367.558 416.694,367.1 417.152,366.184 417.61,365.726 418.527,365.268 420.359,365.268 421.276,365.726 421.734,366.184 422.192,367.1 422.192,368.017 421.734,368.933 420.817,370.307 416.236,374.889 422.65,374.889 " />
<polyline points="430.897,365.268 426.316,365.268 425.857,369.391 426.316,368.933 427.69,368.475 429.065,368.475 430.439,368.933 431.355,369.849 431.814,371.224 431.814,372.14 431.355,373.515 430.439,374.431 429.065,374.889 427.69,374.889 426.316,374.431 425.857,373.973 425.399,373.057 " />
<polyline points="435.021,368.475 435.021,374.889 " />
<polyline points="435.021,370.307 436.395,368.933 437.312,368.475 438.686,368.475 439.603,368.933 440.061,370.307 440.061,374.889 " />
<polyline points="440.061,370.307 441.435,368.933 442.352,368.475 443.726,368.475 444.642,368.933 445.101,370.307 445.101,374.889 " />
<polyline points="448.766,368.475 448.766,374.889 " />
<polyline points="448.766,370.307 450.141,368.933 451.057,368.475 452.431,368.475 453.348,368.933 453.806,370.307 453.806,374.889 " />
<polyline points="453.806,370.307 455.18,368.933 456.097,368.475 457.471,368.475 458.388,368.933 458.846,370.307 458.846,374.889 " />
<polyline points="462.053,363.435 462.969,364.351 463.886,365.726 464.802,367.558 465.26,369.849 465.26,371.682 464.802,373.973 463.886,375.806 462.969,377.18 462.053,378.096 " />
<polyline points="469.713,237.372 469.37,236.685 468.339,236.341 467.308,236.341 466.277,236.685 465.933,237.372 466.277,238.059 466.964,238.403 468.682,238.747 469.37,239.09 469.713,239.777 469.713,240.121 469.37,240.808 468.339,241.152 467.308,241.152 466.277,240.808 465.933,240.121 " />
<polyline points="457.252,229.107 457.252,238.729 " />
<polyline points="457.252,229.107 460.459,229.107 461.834,229.565 462.75,230.481 463.208,231.398 463.666,232.772 463.666,235.063 463.208,236.438 462.75,237.354 461.834,238.27 460.459,238.729 457.252,238.729 " />
<polyline points="827.561,13.5609 827.561,20.7772 " />
<polyline points="827.561,16.9972 828.249,16.31 828.936,15.9663 829.967,15.9663 830.654,16.31 831.341,16.9972 831.685,18.0281 831.685,18.7154 831.341,19.7463 830.654,20.4335 829.967,20.7772 828.936,20.7772 828.249,20.4335 827.561,19.7463 " />
<polyline points="818.096,7.52941 818.096,17.1511 " />
<polyline points="818.096,7.52941 821.303,7.52941 822.677,7.98759 823.594,8.90393 824.052,9.82028 824.51,11.1948 824.51,13.4857 824.052,14.8602 823.594,15.7765 822.677,16.6929 821.303,17.1511 818.096,17.1511 " />
<polyline points="721.702,188.67 722.618,188.212 723.993,186.837 723.993,196.459 " />
<polyline points="730.866,185.463 730.407,185.921 729.949,185.463 730.407,185.004 730.866,185.463 730.866,186.379 730.407,187.295 729.949,187.753 " />
<polyline points="733.615,185.463 733.156,185.921 732.698,185.463 733.156,185.004 733.615,185.463 733.615,186.379 733.156,187.295 732.698,187.753 " />
<polyline points="739.571,185.004 738.655,185.921 737.738,187.295 736.822,189.128 736.364,191.419 736.364,193.252 736.822,195.542 737.738,197.375 738.655,198.75 739.571,199.666 " />
<polyline points="742.778,189.128 742.778,188.67 743.236,187.753 743.694,187.295 744.611,186.837 746.444,186.837 747.36,187.295 747.818,187.753 748.276,188.67 748.276,189.586 747.818,190.503 746.902,191.877 742.32,196.459 748.734,196.459 " />
<polyline points="756.982,186.837 752.4,186.837 751.942,190.961 752.4,190.503 753.774,190.044 755.149,190.044 756.523,190.503 757.44,191.419 757.898,192.793 757.898,193.71 757.44,195.084 756.523,196.001 755.149,196.459 753.774,196.459 752.4,196.001 751.942,195.542 751.483,194.626 " />
<polyline points="761.105,190.044 761.105,196.459 " />
<polyline points="761.105,191.877 762.48,190.503 763.396,190.044 764.77,190.044 765.687,190.503 766.145,191.877 766.145,196.459 " />
<polyline points="766.145,191.877 767.52,190.503 768.436,190.044 769.81,190.044 770.727,190.503 771.185,191.877 771.185,196.459 " />
<polyline points="774.85,190.044 774.85,196.459 " />
<polyline points="774.85,191.877 776.225,190.503 777.141,190.044 778.516,190.044 779.432,190.503 779.89,191.877 779.89,196.459 " />
<polyline points="779.89,191.877 781.265,190.503 782.181,190.044 783.556,190.044 784.472,190.503 784.93,191.877 784.93,196.459 " />
<polyline points="788.137,185.004 789.054,185.921 789.97,187.295 790.886,189.128 791.345,191.419 791.345,193.252 790.886,195.542 789.97,197.375 789.054,198.75 788.137,199.666 " />
<polyline points="366.477,188.964 366.477,198.585 " />
<polyline points="366.477,188.964 369.684,188.964 371.059,189.422 371.975,190.338 372.433,191.255 372.891,192.629 372.891,194.92 372.433,196.294 371.975,197.211 371.059,198.127 369.684,198.585 366.477,198.585 " />
<polyline points="385.72,194.462 393.967,194.462 " />
<polyline points="397.633,188.964 397.633,198.585 " />
<polyline points="397.633,188.964 400.84,188.964 402.215,189.422 403.131,190.338 403.589,191.255 404.047,192.629 404.047,194.92 403.589,196.294 403.131,197.211 402.215,198.127 400.84,198.585 397.633,198.585 " />
<polyline points="420.083,187.131 419.167,188.047 418.251,189.422 417.334,191.255 416.876,193.545 416.876,195.378 417.334,197.669 418.251,199.502 419.167,200.876 420.083,201.793 " />
<polyline points="424.207,190.796 425.123,190.338 426.498,188.964 426.498,198.585 " />
<polyline points="433.37,187.589 432.912,188.047 432.454,187.589 432.912,187.131 433.37,187.589 433.37,188.505 432.912,189.422 432.454,189.88 " />
<polyline points="436.119,187.589 435.661,188.047 435.203,187.589 435.661,187.131 436.119,187.589 436.119,188.505 435.661,189.422 435.203,189.88 " />
<polyline points="442.076,187.131 441.159,188.047 440.243,189.422 439.327,191.255 438.869,193.545 438.869,195.378 439.327,197.669 440.243,199.502 441.159,200.876 442.076,201.793 " />
<polyline points="445.283,191.255 445.283,190.796 445.741,189.88 446.199,189.422 447.116,188.964 448.948,188.964 449.865,189.422 450.323,189.88 450.781,190.796 450.781,191.713 450.323,192.629 449.407,194.004 444.825,198.585 451.239,198.585 " />
<polyline points="459.486,188.964 454.905,188.964 454.446,193.087 454.905,192.629 456.279,192.171 457.654,192.171 459.028,192.629 459.945,193.545 460.403,194.92 460.403,195.836 459.945,197.211 459.028,198.127 457.654,198.585 456.279,198.585 454.905,198.127 454.446,197.669 453.988,196.753 " />
<polyline points="463.61,192.171 463.61,198.585 " />
<polyline points="463.61,194.004 464.984,192.629 465.901,192.171 467.275,192.171 468.192,192.629 468.65,194.004 468.65,198.585 " />
<polyline points="468.65,194.004 470.024,192.629 470.941,192.171 472.315,192.171 473.232,192.629 473.69,194.004 473.69,198.585 " />
<polyline points="477.355,192.171 477.355,198.585 " />
<polyline points="477.355,194.004 478.73,192.629 479.646,192.171 481.021,192.171 481.937,192.629 482.395,194.004 482.395,198.585 " />
<polyline points="482.395,194.004 483.77,192.629 484.686,192.171 486.06,192.171 486.977,192.629 487.435,194.004 487.435,198.585 " />
<polyline points="490.642,187.131 491.559,188.047 492.475,189.422 493.391,191.255 493.849,193.545 493.849,195.378 493.391,197.669 492.475,199.502 491.559,200.876 490.642,201.793 " />
<polyline points="507.136,192.171 507.136,198.585 " />
<polyline points="507.136,194.004 508.511,192.629 509.427,192.171 510.802,192.171 511.718,192.629 512.176,194.004 512.176,198.585 " />
<polyline points="512.176,194.004 513.551,192.629 514.467,192.171 515.842,192.171 516.758,192.629 517.216,194.004 517.216,198.585 " />
<polyline points="520.424,189.422 520.882,189.88 521.34,189.422 520.882,188.964 520.424,189.422 " />
<polyline points="520.882,192.629 520.882,198.585 " />
<polyline points="524.547,192.171 524.547,198.585 " />
<polyline points="524.547,194.004 525.922,192.629 526.838,192.171 528.212,192.171 529.129,192.629 529.587,194.004 529.587,198.585 " />
<polyline points="533.711,197.669 533.252,198.127 533.711,198.585 534.169,198.127 533.711,197.669 " />
<polyline points="417.807,212.851 416.891,213.309 415.974,214.225 415.516,215.6 415.516,216.516 415.974,217.891 416.891,218.807 417.807,219.265 419.182,219.265 420.098,218.807 421.014,217.891 421.472,216.516 421.472,215.6 421.014,214.225 420.098,213.309 419.182,212.851 417.807,212.851 " />
<polyline points="424.68,212.851 424.68,219.265 " />
<polyline points="424.68,215.6 425.138,214.225 426.054,213.309 426.971,212.851 428.345,212.851 " />
<polyline points="441.174,211.476 442.09,211.018 443.465,209.643 443.465,219.265 " />
<polyline points="449.421,211.934 449.421,211.476 449.879,210.56 450.337,210.102 451.254,209.643 453.086,209.643 454.003,210.102 454.461,210.56 454.919,211.476 454.919,212.392 454.461,213.309 453.545,214.683 448.963,219.265 455.377,219.265 " />
<polyline points="459.501,208.269 459.043,208.727 458.585,208.269 459.043,207.811 459.501,208.269 459.501,209.185 459.043,210.102 458.585,210.56 " />
<polyline points="462.25,208.269 461.792,208.727 461.334,208.269 461.792,207.811 462.25,208.269 462.25,209.185 461.792,210.102 461.334,210.56 " />
<polyline points="468.206,207.811 467.29,208.727 466.373,210.102 465.457,211.934 464.999,214.225 464.999,216.058 465.457,218.349 466.373,220.181 467.29,221.556 468.206,222.472 " />
<polyline points="471.872,209.643 476.911,209.643 474.162,213.309 475.537,213.309 476.453,213.767 476.911,214.225 477.37,215.6 477.37,216.516 476.911,217.891 475.995,218.807 474.621,219.265 473.246,219.265 471.872,218.807 471.413,218.349 470.955,217.432 " />
<polyline points="482.868,209.643 481.493,210.102 480.577,211.476 480.119,213.767 480.119,215.142 480.577,217.432 481.493,218.807 482.868,219.265 483.784,219.265 485.159,218.807 486.075,217.432 486.533,215.142 486.533,213.767 486.075,211.476 485.159,210.102 483.784,209.643 482.868,209.643 " />
<polyline points="492.031,209.643 490.657,210.102 489.74,211.476 489.282,213.767 489.282,215.142 489.74,217.432 490.657,218.807 492.031,219.265 492.948,219.265 494.322,218.807 495.238,217.432 495.697,215.142 495.697,213.767 495.238,211.476 494.322,210.102 492.948,209.643 492.031,209.643 " />
<polyline points="498.904,212.851 498.904,219.265 " />
<polyline points="498.904,214.683 500.278,213.309 501.195,212.851 502.569,212.851 503.486,213.309 503.944,214.683 503.944,219.265 " />
<polyline points="503.944,214.683 505.318,213.309 506.235,212.851 507.609,212.851 508.525,213.309 508.984,214.683 508.984,219.265 " />
<polyline points="512.649,212.851 512.649,219.265 " />
<polyline points="512.649,214.683 514.024,213.309 514.94,212.851 516.314,212.851 517.231,213.309 517.689,214.683 517.689,219.265 " />
<polyline points="517.689,214.683 519.064,213.309 519.98,212.851 521.354,212.851 522.271,213.309 522.729,214.683 522.729,219.265 " />
<polyline points="525.936,207.811 526.852,208.727 527.769,210.102 528.685,211.934 529.143,214.225 529.143,216.058 528.685,218.349 527.769,220.181 526.852,221.556 525.936,222.472 " />
<polyline points="542.43,212.851 542.43,219.265 " />
<polyline points="542.43,214.683 543.805,213.309 544.721,212.851 546.096,212.851 547.012,213.309 547.47,214.683 547.47,219.265 " />
<polyline points="547.47,214.683 548.845,213.309 549.761,212.851 551.136,212.851 552.052,213.309 552.51,214.683 552.51,219.265 " />
<polyline points="561.216,212.851 561.216,219.265 " />
<polyline points="561.216,214.225 560.299,213.309 559.383,212.851 558.008,212.851 557.092,213.309 556.176,214.225 555.717,215.6 555.717,216.516 556.176,217.891 557.092,218.807 558.008,219.265 559.383,219.265 560.299,218.807 561.216,217.891 " />
<polyline points="564.423,212.851 569.463,219.265 " />
<polyline points="569.463,212.851 564.423,219.265 " />
<polyline points="573.128,218.349 572.67,218.807 573.128,219.265 573.586,218.807 573.128,218.349 " />
<polyline points="576.793,207.811 577.71,208.727 578.626,210.102 579.542,211.934 580.001,214.225 580.001,216.058 579.542,218.349 578.626,220.181 577.71,221.556 576.793,222.472 " />
<polyline points="378.445,197.836 377.758,197.149 377.071,196.806 376.04,196.806 375.353,197.149 374.666,197.836 374.322,198.867 374.322,199.555 374.666,200.586 375.353,201.273 376.04,201.616 377.071,201.616 377.758,201.273 378.445,200.586 " />
<polyline points="409.915,197.836 409.571,197.149 408.54,196.806 407.509,196.806 406.479,197.149 406.135,197.836 406.479,198.524 407.166,198.867 408.884,199.211 409.571,199.555 409.915,200.242 409.915,200.586 409.571,201.273 408.54,201.616 407.509,201.616 406.479,201.273 406.135,200.586 " />
<polyline points="790.586,28.304 807.83,28.304 " />
<polyline points="790.586,105.277 807.83,105.277 " />
<polyline points="803.981,42.1592 803.981,91.4221 " />
</g>
<g clip-path="url(#clipId0)" fill="rgb(0,0,0)" stroke="rgb(0,0,0)" stroke-width="0.25" >
<path d="M806.29,42.1592 801.672,42.1592 803.981,28.304 803.981,28.304 z" />
<path d="M806.29,91.4221 801.672,91.4221 803.981,105.277 803.981,105.277 z" />
</g>
<g clip-path="url(#clipId0)" fill="none" stroke="rgb(0,0,0)" stroke-width="0.1" >
<polyline points="782.889,28.304 782.889,28.304 " />
<polyline points="782.889,105.277 782.889,105.277 " />
<polyline points="803.981,105.277 803.981,105.277 " />
</g>
<g clip-path="url(#clipId0)" fill="none" stroke="rgb(0,0,0)" stroke-width="0.25" >
<polyline points="431.12,249.602 448.364,249.602 " />
<polyline points="431.12,326.575 448.364,326.575 " />
<polyline points="444.515,263.457 444.515,312.72 " />
</g>
<g clip-path="url(#clipId0)" fill="rgb(0,0,0)" stroke="rgb(0,0,0)" stroke-width="0.25" >
<path d="M446.825,263.457 442.206,263.457 444.515,249.602 444.515,249.602 z" />
<path d="M446.825,312.72 442.206,312.72 444.515,326.575 444.515,326.575 z" />
</g>
<g clip-path="url(#clipId0)" fill="none" stroke="rgb(0,0,0)" stroke-width="0.1" >
<polyline points="423.423,249.602 423.423,249.602 " />
<polyline points="423.423,326.575 423.423,326.575 " />
<polyline points="444.515,326.575 444.515,326.575 " />
</g>
<g clip-path="url(#clipId0)" fill="none" stroke="rgb(0,0,0)" stroke-width="0.25" >
<polyline points="242.536,230.359 220.74,230.359 " />
<polyline points="242.536,345.819 220.74,345.819 " />
<polyline points="224.589,244.214 224.589,331.963 " />
</g>
<g clip-path="url(#clipId0)" fill="rgb(0,0,0)" stroke="rgb(0,0,0)" stroke-width="0.25" >
<path d="M226.898,244.214 222.28,244.214 224.589,230.359 224.589,230.359 z" />
<path d="M226.898,331.963 222.28,331.963 224.589,345.819 224.589,345.819 z" />
</g>
<g clip-path="url(#clipId0)" fill="none" stroke="rgb(0,0,0)" stroke-width="0.1" >
<polyline points="250.233,230.359 250.233,230.359 " />
<polyline points="250.233,345.819 250.233,345.819 " />
<polyline points="224.589,345.819 224.589,345.819 " />
</g>
<g clip-path="url(#clipId0)" fill="none" stroke="rgb(0,0,0)" stroke-width="0.25" >
<path d="M279.098,230.359  A53.7017,53.7017 0 0,0 356.071,230.359 " />
<polyline points="654.6,230.359 711.372,230.359 " />
<polyline points="693.087,220.737 711.372,220.737 " />
<polyline points="708.165,209.191 708.165,197.645 " />
<polyline points="708.165,241.905 708.165,253.451 " />
<polyline points="708.165,197.645 708.165,193.027 " />
</g>
<g clip-path="url(#clipId0)" fill="rgb(0,0,0)" stroke="rgb(0,0,0)" stroke-width="0.25" >
<path d="M710.089,209.191 706.24,209.191 708.165,220.737 708.165,220.737 z" />
<path d="M710.089,241.905 706.24,241.905 708.165,230.359 708.165,230.359 z" />
</g>
<g clip-path="url(#clipId0)" fill="none" stroke="rgb(0,0,0)" stroke-width="0.25" >
<polyline points="356.071,236.773 356.071,374.412 " />
<polyline points="365.693,352.233 365.693,374.412 " />
<polyline points="377.239,371.205 388.785,371.205 " />
<polyline points="344.526,371.205 332.98,371.205 " />
<polyline points="388.785,371.205 393.255,371.205 " />
</g>
<g clip-path="url(#clipId0)" fill="rgb(0,0,0)" stroke="rgb(0,0,0)" stroke-width="0.25" >
<path d="M377.239,373.129 377.239,369.28 365.693,371.205 365.693,371.205 z" />
<path d="M344.526,373.129 344.526,369.28 356.071,371.205 356.071,371.205 z" />
</g>
<g clip-path="url(#clipId0)" fill="none" stroke="rgb(0,0,0)" stroke-width="0.25" >
<polyline points="811.546,462.781 810.08,461.315 807.881,460.583 804.95,460.583 802.751,461.315 801.285,462.781 801.285,464.247 802.018,465.713 802.751,466.446 804.217,467.178 808.614,468.644 810.08,469.377 810.813,470.11 811.546,471.576 811.546,473.774 810.08,475.24 807.881,475.973 804.95,475.973 802.751,475.24 801.285,473.774 " />
<polyline points="816.676,460.583 816.676,475.973 " />
<polyline points="816.676,460.583 821.806,460.583 824.004,461.315 825.47,462.781 826.203,464.247 826.936,466.446 826.936,470.11 826.203,472.309 825.47,473.774 824.004,475.24 821.806,475.973 816.676,475.973 " />
<polyline points="840.128,460.583 832.799,460.583 832.066,467.178 832.799,466.446 834.998,465.713 837.196,465.713 839.395,466.446 840.861,467.911 841.593,470.11 841.593,471.576 840.861,473.774 839.395,475.24 837.196,475.973 834.998,475.973 832.799,475.24 832.066,474.507 831.333,473.041 " />
<polyline points="846.724,469.377 859.915,469.377 " />
<polyline points="867.244,463.514 868.71,462.781 870.908,460.583 870.908,475.973 " />
<polyline points="888.497,460.583 881.169,460.583 880.436,467.178 881.169,466.446 883.367,465.713 885.566,465.713 887.764,466.446 889.23,467.911 889.963,470.11 889.963,471.576 889.23,473.774 887.764,475.24 885.566,475.973 883.367,475.973 881.169,475.24 880.436,474.507 879.703,473.041 " />
<polyline points="662.616,714.262 662.616,723.974 " />
<polyline points="662.616,718.887 663.541,717.962 664.466,717.5 665.853,717.5 666.778,717.962 667.703,718.887 668.165,720.274 668.165,721.199 667.703,722.587 666.778,723.511 665.853,723.974 664.466,723.974 663.541,723.511 662.616,722.587 " />
<polyline points="672.327,716.112 673.252,715.65 674.639,714.262 674.639,723.974 " />
<polyline points="658.111,747.286 613.003,702.186 " />
<polyline points="627.456,743.961 627.456,753.672 " />
<polyline points="627.456,748.585 628.381,747.66 629.306,747.198 630.693,747.198 631.618,747.66 632.543,748.585 633.006,749.973 633.006,750.897 632.543,752.285 631.618,753.21 630.693,753.672 629.306,753.672 628.381,753.21 627.456,752.285 " />
<polyline points="637.168,745.811 638.093,745.348 639.48,743.961 639.48,753.672 " />
<polyline points="612.696,733.955 607.366,747.947 " />
<polyline points="612.696,733.955 618.026,747.947 " />
<polyline points="609.365,743.283 616.027,743.283 " />
</g>
<g clip-path="url(#clipId0)" fill="rgb(0,0,0)" stroke="rgb(0,0,0)" stroke-width="0.25" >
<path d="M655.914,749.483 660.309,745.089 671.296,760.471 671.296,760.471 z" />
</g>
<g clip-path="url(#clipId0)" fill="none" stroke="rgb(0,0,0)" stroke-width="0.25" >
<polyline points="648.671,701.131 647.338,701.797 646.006,703.13 645.339,704.462 644.673,706.461 644.673,709.792 645.339,711.791 646.006,713.124 647.338,714.456 648.671,715.122 651.336,715.122 652.668,714.456 654.001,713.124 654.667,711.791 655.333,709.792 655.333,706.461 654.667,704.462 654.001,703.13 652.668,701.797 651.336,701.131 648.671,701.131 " />
<polyline points="650.669,712.457 654.667,716.455 " />
<polyline points="189.555,286.785 134.037,286.785 " />
</g>
<g clip-path="url(#clipId0)" fill="rgb(0,0,0)" stroke="rgb(0,0,0)" stroke-width="0.25" >
<path d="M189.555,284.861 189.555,288.709 201.1,286.785 201.1,286.785 z" />
</g>
<g clip-path="url(#clipId0)" fill="none" stroke="rgb(0,0,0)" stroke-width="0.25" >
<polyline points="176.437,302.473 176.107,301.814 175.448,301.154 174.788,300.824 173.469,300.824 172.809,301.154 172.15,301.814 171.82,302.473 171.49,303.463 171.49,305.112 171.82,306.101 172.15,306.761 172.809,307.42 173.469,307.75 174.788,307.75 175.448,307.42 176.107,306.761 176.437,306.101 " />
<polyline points="161.934,293.137 157.537,304.68 " />
<polyline points="161.934,293.137 166.332,304.68 " />
<polyline points="159.186,300.833 164.683,300.833 " />
<polyline points="176.437,273.695 176.107,273.036 175.448,272.376 174.788,272.046 173.469,272.046 172.809,272.376 172.15,273.036 171.82,273.695 171.49,274.685 171.49,276.334 171.82,277.323 172.15,277.983 172.809,278.642 173.469,278.972 174.788,278.972 175.448,278.642 176.107,277.983 176.437,277.323 " />
<polyline points="161.934,264.359 160.835,264.909 159.736,266.008 159.186,267.108 158.636,268.757 158.636,271.505 159.186,273.154 159.736,274.253 160.835,275.353 161.934,275.902 164.133,275.902 165.232,275.353 166.332,274.253 166.881,273.154 167.431,271.505 167.431,268.757 166.881,267.108 166.332,266.008 165.232,264.909 164.133,264.359 161.934,264.359 " />
<polyline points="163.583,273.704 166.881,277.001 " />
<polyline points="858.375,51.4405 858.375,58.3661 " />
<polyline points="858.375,54.7384 859.035,54.0788 859.694,53.749 860.684,53.749 861.343,54.0788 862.003,54.7384 862.332,55.7278 862.332,56.3874 862.003,57.3768 861.343,58.0363 860.684,58.3661 859.694,58.3661 859.035,58.0363 858.375,57.3768 " />
<polyline points="849.124,44.9513 848.025,45.5009 846.925,46.6002 846.376,47.6995 845.826,49.3485 845.826,52.0968 846.376,53.7458 846.925,54.8451 848.025,55.9444 849.124,56.494 851.322,56.494 852.422,55.9444 853.521,54.8451 854.071,53.7458 854.62,52.0968 854.62,49.3485 854.071,47.6995 853.521,46.6002 852.422,45.5009 851.322,44.9513 849.124,44.9513 " />
<polyline points="850.773,54.2954 854.071,57.5933 " />
<polyline points="861.627,82.7018 861.627,89.6275 " />
<polyline points="861.627,85.9998 862.287,85.3402 862.946,85.0104 863.936,85.0104 864.595,85.3402 865.255,85.9998 865.585,86.9891 865.585,87.6487 865.255,88.6381 864.595,89.2977 863.936,89.6275 862.946,89.6275 862.287,89.2977 861.627,88.6381 " />
<polyline points="852.376,76.2126 847.979,87.7554 " />
<polyline points="852.376,76.2126 856.773,87.7554 " />
<polyline points="849.628,83.9078 855.124,83.9078 " />
<polyline points="504.486,272.551 503.827,271.891 502.837,271.562 501.518,271.562 500.529,271.891 499.869,272.551 499.869,273.211 500.199,273.87 500.529,274.2 501.188,274.53 503.167,275.189 503.827,275.519 504.156,275.849 504.486,276.508 504.486,277.498 503.827,278.157 502.837,278.487 501.518,278.487 500.529,278.157 499.869,277.498 " />
<polyline points="504.486,303.944 503.827,303.284 502.837,302.954 501.518,302.954 500.529,303.284 499.869,303.944 499.869,304.603 500.199,305.263 500.529,305.593 501.188,305.922 503.167,306.582 503.827,306.912 504.156,307.241 504.486,307.901 504.486,308.89 503.827,309.55 502.837,309.88 501.518,309.88 500.529,309.55 499.869,308.89 " />
<polyline points="524.269,286.673 467.169,286.673 " />
<polyline points="490.011,295.507 485.613,307.05 " />
<polyline points="490.011,295.507 494.408,307.05 " />
<polyline points="487.262,303.202 492.759,303.202 " />
<polyline points="490.011,264.114 488.911,264.664 487.812,265.763 487.262,266.862 486.713,268.511 486.713,271.26 487.262,272.909 487.812,274.008 488.911,275.107 490.011,275.657 492.209,275.657 493.308,275.107 494.408,274.008 494.957,272.909 495.507,271.26 495.507,268.511 494.957,266.862 494.408,265.763 493.308,264.664 492.209,264.114 490.011,264.114 " />
<polyline points="491.66,273.458 494.957,276.756 " />
</g>
<g clip-path="url(#clipId0)" fill="rgb(0,0,0)" stroke="rgb(0,0,0)" stroke-width="0.25" >
<path d="M524.269,284.749 524.269,288.597 535.813,286.673 535.813,286.673 z" />
</g>
</svg>
