<?xml version="1.0" standalone="no"?>
<svg viewBox="0 0 1024 768" version="1.1" xmlns="http://www.w3.org/2000/svg" xmlns:xlink="http://www.w3.org/1999/xlink" stroke-linecap="round" stroke-linejoin="round" fill-rule="evenodd" xml:space="preserve" >
<defs >
<clipPath id="clipId0" >
<path d="M0,768 1024,768 1024,0 0,0 z" />
</clipPath>
</defs>
<g clip-path="url(#clipId0)" fill="none" stroke="rgb(0,0,0)" stroke-width="0.1" />
<g clip-path="url(#clipId0)" fill="none" stroke="rgb(0,0,0)" stroke-width="0.25" >
<polyline points="281.942,81.6289 281.942,285.744 " />
<polyline points="281.942,285.744 313.835,285.744 " />
<polyline points="332.971,285.744 501.357,454.13 " />
<polyline points="281.942,81.6289 313.835,81.6289 " />
<polyline points="542.422,81.6289 542.422,285.744 " />
<polyline points="542.422,285.744 525.412,285.744 " />
<polyline points="525.412,285.744 597.578,357.909 " />
<polyline points="549.467,309.799 453.246,406.02 " />
<polyline points="612.586,115.648 644.479,115.648 " />
<polyline points="612.586,251.725 644.479,251.725 " />
<polyline points="644.479,115.648 644.479,251.725 " />
<polyline points="542.422,81.6289 608.79,114.813 " />
<polyline points="608.79,252.56 542.422,285.744 " />
<polyline points="597.578,357.909 501.357,454.13 " />
<polyline points="541.213,523.283 677.289,496.216 " />
<polyline points="520.496,473.27 635.856,396.188 " />
<polyline points="677.289,584.37 677.289,552.477 " />
<polyline points="541.213,584.37 541.213,552.477 " />
<polyline points="501.357,454.13 520.496,473.27 " />
<polyline points="597.578,357.909 635.856,396.188 " />
<polyline points="541.213,584.37 677.289,584.37 " />
<polyline points="520.496,473.27 541.213,523.283 " />
<polyline points="635.856,396.188 677.289,496.216 " />
<path d="M525.412,285.744  A167.227,167.227 0 0,0 332.971,285.744 " />
<polyline points="327.134,183.686 310.124,183.686 " />
<polyline points="327.134,183.686 315.106,171.659 " />
<polyline points="327.134,183.686 344.143,183.686 " />
<polyline points="327.134,183.686 339.161,195.714 " />
<polyline points="361.153,183.686 661.495,183.686 " />
<polyline points="293.115,183.686 265.732,183.686 " />
<polyline points="351.189,207.742 549.467,406.02 " />
<path d="M609.251,550.351  A204.115,204.115 0 0,0 549.467,406.02 " stroke-dasharray="463.607962,92.721592,92.721592,92.721592" />
<polyline points="609.251,550.351 609.251,601.191 " />
<polyline points="318.087,81.6289 318.087,285.744 " />
<polyline points="313.835,81.6289 313.835,285.744 " />
<path d="M318.087,81.6289  A2.21479,2.21479 0 0,0 313.835,81.6289 " />
<polyline points="318.087,81.6289 542.422,81.6289 " />
<path d="M313.835,285.744  A2.21479,2.21479 0 0,0 318.087,285.744 " />
<polyline points="318.087,285.744 332.971,285.744 " />
<polyline points="612.586,115.648 612.586,251.725 " />
<polyline points="608.334,115.648 608.334,251.725 " />
<path d="M612.586,115.648  A2.21479,2.21479 0 0,0 608.334,115.648 " />
<path d="M608.334,251.725  A2.21479,2.21479 0 0,0 612.586,251.725 " />
<polyline points="541.213,548.225 677.289,548.225 " />
<polyline points="541.213,552.477 677.289,552.477 " />
<path d="M541.213,548.225  A2.21479,2.21479 0 0,0 541.213,552.477 " />
<polyline points="541.213,548.225 541.213,523.283 " />
<path d="M677.289,552.477  A2.21479,2.21479 0 0,0 677.289,548.225 " />
<polyline points="677.289,548.225 677.289,496.216 " />
<polyline points="542.422,72.3568 542.422,38.9629 " />
<polyline points="610.46,104.781 610.46,38.9629 " />
<polyline points="559.111,43.599 593.77,43.599 " />
</g>
<g clip-path="url(#clipId0)" fill="rgb(0,0,0)" stroke="rgb(0,0,0)" stroke-width="0.25" >
<path d="M559.111,40.8173 559.111,46.3806 542.422,43.599 542.422,43.599 z" />
<path d="M593.77,40.8173 593.77,46.3806 610.46,43.599 610.46,43.599 z" />
</g>
<g clip-path="url(#clipId0)" fill="none" stroke="rgb(0,0,0)" stroke-width="0.25" >
<polyline points="546.612,10.7693 546.612,27.7789 " />
<polyline points="546.612,10.7693 552.282,10.7693 554.712,11.5793 556.331,13.1993 557.141,14.8192 557.951,17.2492 557.951,21.2991 557.141,23.729 556.331,25.349 554.712,26.9689 552.282,27.7789 546.612,27.7789 " />
<polyline points="580.631,20.4891 595.211,20.4891 " />
<polyline points="601.69,10.7693 601.69,27.7789 " />
<polyline points="601.69,10.7693 607.36,10.7693 609.79,11.5793 611.41,13.1993 612.22,14.8192 613.03,17.2492 613.03,21.2991 612.22,23.729 611.41,25.349 609.79,26.9689 607.36,27.7789 601.69,27.7789 " />
<polyline points="641.379,7.52941 639.759,9.14937 638.139,11.5793 636.519,14.8192 635.71,18.8691 635.71,22.109 636.519,26.1589 638.139,29.3989 639.759,31.8288 641.379,33.4488 " />
<polyline points="648.669,14.0093 650.289,13.1993 652.719,10.7693 652.719,27.7789 " />
<polyline points="664.869,8.33939 664.059,9.14937 663.249,8.33939 664.059,7.52941 664.869,8.33939 664.869,9.95935 664.059,11.5793 663.249,12.3893 " />
<polyline points="669.729,8.33939 668.919,9.14937 668.109,8.33939 668.919,7.52941 669.729,8.33939 669.729,9.95935 668.919,11.5793 668.109,12.3893 " />
<polyline points="680.258,7.52941 678.638,9.14937 677.018,11.5793 675.399,14.8192 674.589,18.8691 674.589,22.109 675.399,26.1589 677.018,29.3989 678.638,31.8288 680.258,33.4488 " />
<polyline points="685.928,14.8192 685.928,14.0093 686.738,12.3893 687.548,11.5793 689.168,10.7693 692.408,10.7693 694.028,11.5793 694.838,12.3893 695.648,14.0093 695.648,15.6292 694.838,17.2492 693.218,19.6791 685.118,27.7789 696.458,27.7789 " />
<polyline points="711.038,10.7693 702.938,10.7693 702.128,18.0591 702.938,17.2492 705.368,16.4392 707.798,16.4392 710.228,17.2492 711.848,18.8691 712.658,21.2991 712.658,22.919 711.848,25.349 710.228,26.9689 707.798,27.7789 705.368,27.7789 702.938,26.9689 702.128,26.1589 701.318,24.539 " />
<polyline points="718.327,16.4392 718.327,27.7789 " />
<polyline points="718.327,19.6791 720.757,17.2492 722.377,16.4392 724.807,16.4392 726.427,17.2492 727.237,19.6791 727.237,27.7789 " />
<polyline points="727.237,19.6791 729.667,17.2492 731.287,16.4392 733.717,16.4392 735.337,17.2492 736.147,19.6791 736.147,27.7789 " />
<polyline points="742.627,16.4392 742.627,27.7789 " />
<polyline points="742.627,19.6791 745.057,17.2492 746.677,16.4392 749.107,16.4392 750.727,17.2492 751.537,19.6791 751.537,27.7789 " />
<polyline points="751.537,19.6791 753.967,17.2492 755.587,16.4392 758.016,16.4392 759.636,17.2492 760.446,19.6791 760.446,27.7789 " />
<polyline points="766.116,7.52941 767.736,9.14937 769.356,11.5793 770.976,14.8192 771.786,18.8691 771.786,22.109 770.976,26.1589 769.356,29.3989 767.736,31.8288 766.116,33.4488 " />
<polyline points="795.276,16.4392 795.276,27.7789 " />
<polyline points="795.276,19.6791 797.705,17.2492 799.325,16.4392 801.755,16.4392 803.375,17.2492 804.185,19.6791 804.185,27.7789 " />
<polyline points="804.185,19.6791 806.615,17.2492 808.235,16.4392 810.665,16.4392 812.285,17.2492 813.095,19.6791 813.095,27.7789 " />
<polyline points="818.765,11.5793 819.575,12.3893 820.385,11.5793 819.575,10.7693 818.765,11.5793 " />
<polyline points="819.575,17.2492 819.575,27.7789 " />
<polyline points="826.055,16.4392 826.055,27.7789 " />
<polyline points="826.055,19.6791 828.485,17.2492 830.105,16.4392 832.535,16.4392 834.155,17.2492 834.965,19.6791 834.965,27.7789 " />
<polyline points="842.254,26.1589 841.444,26.9689 842.254,27.7789 843.064,26.9689 842.254,26.1589 " />
<polyline points="637.454,49.59 635.834,50.4 634.214,52.0199 633.404,54.4499 633.404,56.0698 634.214,58.4998 635.834,60.1197 637.454,60.9297 639.884,60.9297 641.504,60.1197 643.123,58.4998 643.933,56.0698 643.933,54.4499 643.123,52.0199 641.504,50.4 639.884,49.59 637.454,49.59 " />
<polyline points="649.603,49.59 649.603,60.9297 " />
<polyline points="649.603,54.4499 650.413,52.0199 652.033,50.4 653.653,49.59 656.083,49.59 " />
<polyline points="678.763,47.16 680.383,46.3501 682.812,43.9201 682.812,60.9297 " />
<polyline points="693.342,47.97 693.342,47.16 694.152,45.5401 694.962,44.7301 696.582,43.9201 699.822,43.9201 701.442,44.7301 702.252,45.5401 703.062,47.16 703.062,48.78 702.252,50.4 700.632,52.8299 692.532,60.9297 703.872,60.9297 " />
<polyline points="711.162,41.4902 710.352,42.3002 709.542,41.4902 710.352,40.6802 711.162,41.4902 711.162,43.1101 710.352,44.7301 709.542,45.5401 " />
<polyline points="716.022,41.4902 715.212,42.3002 714.402,41.4902 715.212,40.6802 716.022,41.4902 716.022,43.1101 715.212,44.7301 714.402,45.5401 " />
<polyline points="726.551,40.6802 724.931,42.3002 723.311,44.7301 721.692,47.97 720.882,52.0199 720.882,55.2598 721.692,59.3097 723.311,62.5497 724.931,64.9796 726.551,66.5996 " />
<polyline points="733.031,43.9201 741.941,43.9201 737.081,50.4 739.511,50.4 741.131,51.2099 741.941,52.0199 742.751,54.4499 742.751,56.0698 741.941,58.4998 740.321,60.1197 737.891,60.9297 735.461,60.9297 733.031,60.1197 732.221,59.3097 731.411,57.6898 " />
<polyline points="752.471,43.9201 750.041,44.7301 748.421,47.16 747.611,51.2099 747.611,53.6399 748.421,57.6898 750.041,60.1197 752.471,60.9297 754.091,60.9297 756.521,60.1197 758.141,57.6898 758.951,53.6399 758.951,51.2099 758.141,47.16 756.521,44.7301 754.091,43.9201 752.471,43.9201 " />
<polyline points="768.67,43.9201 766.24,44.7301 764.62,47.16 763.81,51.2099 763.81,53.6399 764.62,57.6898 766.24,60.1197 768.67,60.9297 770.29,60.9297 772.72,60.1197 774.34,57.6898 775.15,53.6399 775.15,51.2099 774.34,47.16 772.72,44.7301 770.29,43.9201 768.67,43.9201 " />
<polyline points="780.82,49.59 780.82,60.9297 " />
<polyline points="780.82,52.8299 783.25,50.4 784.87,49.59 787.3,49.59 788.92,50.4 789.73,52.8299 789.73,60.9297 " />
<polyline points="789.73,52.8299 792.16,50.4 793.78,49.59 796.21,49.59 797.83,50.4 798.64,52.8299 798.64,60.9297 " />
<polyline points="805.119,49.59 805.119,60.9297 " />
<polyline points="805.119,52.8299 807.549,50.4 809.169,49.59 811.599,49.59 813.219,50.4 814.029,52.8299 814.029,60.9297 " />
<polyline points="814.029,52.8299 816.459,50.4 818.079,49.59 820.509,49.59 822.129,50.4 822.939,52.8299 822.939,60.9297 " />
<polyline points="828.609,40.6802 830.229,42.3002 831.849,44.7301 833.469,47.97 834.279,52.0199 834.279,55.2598 833.469,59.3097 831.849,62.5497 830.229,64.9796 828.609,66.5996 " />
<polyline points="857.768,49.59 857.768,60.9297 " />
<polyline points="857.768,52.8299 860.198,50.4 861.818,49.59 864.248,49.59 865.868,50.4 866.678,52.8299 866.678,60.9297 " />
<polyline points="866.678,52.8299 869.108,50.4 870.728,49.59 873.158,49.59 874.778,50.4 875.588,52.8299 875.588,60.9297 " />
<polyline points="890.977,49.59 890.977,60.9297 " />
<polyline points="890.977,52.0199 889.357,50.4 887.737,49.59 885.307,49.59 883.687,50.4 882.068,52.0199 881.258,54.4499 881.258,56.0698 882.068,58.4998 883.687,60.1197 885.307,60.9297 887.737,60.9297 889.357,60.1197 890.977,58.4998 " />
<polyline points="896.647,49.59 905.557,60.9297 " />
<polyline points="905.557,49.59 896.647,60.9297 " />
<polyline points="912.037,59.3097 911.227,60.1197 912.037,60.9297 912.847,60.1197 912.037,59.3097 " />
<polyline points="918.517,40.6802 920.137,42.3002 921.757,44.7301 923.376,47.97 924.186,52.0199 924.186,55.2598 923.376,59.3097 921.757,62.5497 920.137,64.9796 918.517,66.5996 " />
<polyline points="567.819,25.1826 566.604,23.9676 565.39,23.3602 563.567,23.3602 562.352,23.9676 561.137,25.1826 560.53,27.0051 560.53,28.22 561.137,30.0425 562.352,31.2575 563.567,31.865 565.39,31.865 566.604,31.2575 567.819,30.0425 " />
<polyline points="622.571,25.1826 621.963,23.9676 620.141,23.3602 618.318,23.3602 616.496,23.9676 615.889,25.1826 616.496,26.3976 617.711,27.0051 620.748,27.6126 621.963,28.22 622.571,29.435 622.571,30.0425 621.963,31.2575 620.141,31.865 618.318,31.865 616.496,31.2575 615.889,30.0425 " />
<polyline points="688.024,115.648 688.024,90.1337 " />
<polyline points="688.024,90.1337 705.034,90.1337 " />
<polyline points="236.02,81.6289 236.02,56.1146 " />
<polyline points="236.02,56.1146 219.011,56.1146 " />
<polyline points="677.289,635.681 702.804,635.681 " />
<polyline points="542.422,216.636 542.422,219.959 " />
<polyline points="525.412,276.472 525.412,219.959 " />
<polyline points="559.111,224.595 575.801,224.595 " />
<polyline points="508.722,224.595 492.032,224.595 " />
</g>
<g clip-path="url(#clipId0)" fill="rgb(0,0,0)" stroke="rgb(0,0,0)" stroke-width="0.25" >
<path d="M559.111,221.814 559.111,227.377 542.422,224.595 542.422,224.595 z" />
<path d="M508.722,221.814 508.722,227.377 525.412,224.595 525.412,224.595 z" />
</g>
<g clip-path="url(#clipId0)" fill="none" stroke="rgb(0,0,0)" stroke-width="0.25" >
<polyline points="379.294,202.949 380.914,202.139 383.344,199.709 383.344,216.718 " />
<polyline points="395.494,197.279 394.684,198.089 393.874,197.279 394.684,196.469 395.494,197.279 395.494,198.899 394.684,200.519 393.874,201.329 " />
<polyline points="400.354,197.279 399.544,198.089 398.734,197.279 399.544,196.469 400.354,197.279 400.354,198.899 399.544,200.519 398.734,201.329 " />
<polyline points="410.883,196.469 409.263,198.089 407.643,200.519 406.024,203.759 405.214,207.808 405.214,211.048 406.024,215.098 407.643,218.338 409.263,220.768 410.883,222.388 " />
<polyline points="416.553,203.759 416.553,202.949 417.363,201.329 418.173,200.519 419.793,199.709 423.033,199.709 424.653,200.519 425.463,201.329 426.273,202.949 426.273,204.569 425.463,206.188 423.843,208.618 415.743,216.718 427.083,216.718 " />
<polyline points="441.663,199.709 433.563,199.709 432.753,206.998 433.563,206.188 435.993,205.378 438.423,205.378 440.853,206.188 442.473,207.808 443.283,210.238 443.283,211.858 442.473,214.288 440.853,215.908 438.423,216.718 435.993,216.718 433.563,215.908 432.753,215.098 431.943,213.478 " />
<polyline points="448.952,205.378 448.952,216.718 " />
<polyline points="448.952,208.618 451.382,206.188 453.002,205.378 455.432,205.378 457.052,206.188 457.862,208.618 457.862,216.718 " />
<polyline points="457.862,208.618 460.292,206.188 461.912,205.378 464.342,205.378 465.962,206.188 466.772,208.618 466.772,216.718 " />
<polyline points="473.252,205.378 473.252,216.718 " />
<polyline points="473.252,208.618 475.682,206.188 477.302,205.378 479.732,205.378 481.352,206.188 482.162,208.618 482.162,216.718 " />
<polyline points="482.162,208.618 484.592,206.188 486.212,205.378 488.641,205.378 490.261,206.188 491.071,208.618 491.071,216.718 " />
<polyline points="496.741,196.469 498.361,198.089 499.981,200.519 501.601,203.759 502.411,207.808 502.411,211.048 501.601,215.098 499.981,218.338 498.361,220.768 496.741,222.388 " />
<polyline points="349.66,392.217 332.651,392.217 " />
<polyline points="202.773,387.168 202.773,386.358 203.583,384.738 204.393,383.928 206.013,383.118 209.252,383.118 210.872,383.928 211.682,384.738 212.492,386.358 212.492,387.978 211.682,389.598 210.062,392.028 201.963,400.128 213.302,400.128 " />
<polyline points="220.592,380.688 219.782,381.498 218.972,380.688 219.782,379.878 220.592,380.688 220.592,382.308 219.782,383.928 218.972,384.738 " />
<polyline points="225.452,380.688 224.642,381.498 223.832,380.688 224.642,379.878 225.452,380.688 225.452,382.308 224.642,383.928 223.832,384.738 " />
<polyline points="235.982,379.878 234.362,381.498 232.742,383.928 231.122,387.168 230.312,391.218 230.312,394.458 231.122,398.508 232.742,401.748 234.362,404.178 235.982,405.798 " />
<polyline points="250.561,383.118 242.462,383.118 241.652,390.408 242.462,389.598 244.892,388.788 247.322,388.788 249.751,389.598 251.371,391.218 252.181,393.648 252.181,395.268 251.371,397.698 249.751,399.318 247.322,400.128 244.892,400.128 242.462,399.318 241.652,398.508 240.842,396.888 " />
<polyline points="261.901,383.118 259.471,383.928 257.851,386.358 257.041,390.408 257.041,392.838 257.851,396.888 259.471,399.318 261.901,400.128 263.521,400.128 265.951,399.318 267.571,396.888 268.381,392.838 268.381,390.408 267.571,386.358 265.951,383.928 263.521,383.118 261.901,383.118 " />
<polyline points="274.051,388.788 274.051,400.128 " />
<polyline points="274.051,392.028 276.481,389.598 278.101,388.788 280.531,388.788 282.151,389.598 282.961,392.028 282.961,400.128 " />
<polyline points="282.961,392.028 285.391,389.598 287.011,388.788 289.44,388.788 291.06,389.598 291.87,392.028 291.87,400.128 " />
<polyline points="298.35,388.788 298.35,400.128 " />
<polyline points="298.35,392.028 300.78,389.598 302.4,388.788 304.83,388.788 306.45,389.598 307.26,392.028 307.26,400.128 " />
<polyline points="307.26,392.028 309.69,389.598 311.31,388.788 313.74,388.788 315.36,389.598 316.17,392.028 316.17,400.128 " />
<polyline points="321.84,379.878 323.46,381.498 325.08,383.928 326.7,387.168 327.51,391.218 327.51,394.458 326.7,398.508 325.08,401.748 323.46,404.178 321.84,405.798 " />
<polyline points="137.616,343.599 139.236,342.789 141.666,340.359 141.666,357.368 " />
<polyline points="153.815,337.929 153.005,338.739 152.195,337.929 153.005,337.119 153.815,337.929 153.815,339.549 153.005,341.169 152.195,341.979 " />
<polyline points="158.675,337.929 157.865,338.739 157.055,337.929 157.865,337.119 158.675,337.929 158.675,339.549 157.865,341.169 157.055,341.979 " />
<polyline points="169.205,337.119 167.585,338.739 165.965,341.169 164.345,344.409 163.535,348.459 163.535,351.699 164.345,355.748 165.965,358.988 167.585,361.418 169.205,363.038 " />
<polyline points="174.875,344.409 174.875,343.599 175.685,341.979 176.495,341.169 178.115,340.359 181.355,340.359 182.975,341.169 183.785,341.979 184.595,343.599 184.595,345.219 183.785,346.839 182.165,349.269 174.065,357.368 185.405,357.368 " />
<polyline points="199.984,340.359 191.884,340.359 191.074,347.649 191.884,346.839 194.314,346.029 196.744,346.029 199.174,346.839 200.794,348.459 201.604,350.889 201.604,352.509 200.794,354.938 199.174,356.558 196.744,357.368 194.314,357.368 191.884,356.558 191.074,355.748 190.264,354.128 " />
<polyline points="207.274,346.029 207.274,357.368 " />
<polyline points="207.274,349.269 209.704,346.839 211.324,346.029 213.754,346.029 215.374,346.839 216.184,349.269 216.184,357.368 " />
<polyline points="216.184,349.269 218.614,346.839 220.234,346.029 222.664,346.029 224.284,346.839 225.094,349.269 225.094,357.368 " />
<polyline points="231.573,346.029 231.573,357.368 " />
<polyline points="231.573,349.269 234.003,346.839 235.623,346.029 238.053,346.029 239.673,346.839 240.483,349.269 240.483,357.368 " />
<polyline points="240.483,349.269 242.913,346.839 244.533,346.029 246.963,346.029 248.583,346.839 249.393,349.269 249.393,357.368 " />
<polyline points="255.063,337.119 256.683,338.739 258.303,341.169 259.923,344.409 260.733,348.459 260.733,351.699 259.923,355.748 258.303,358.988 256.683,361.418 255.063,363.038 " />
<polyline points="712.61,80.2068 712.61,97.2164 " />
<polyline points="712.61,80.2068 718.28,80.2068 720.71,81.0168 722.33,82.6368 723.14,84.2567 723.95,86.6867 723.95,90.7366 723.14,93.1665 722.33,94.7865 720.71,96.4064 718.28,97.2164 712.61,97.2164 " />
<polyline points="735.349,95.4293 734.741,94.2143 732.919,93.6068 731.096,93.6068 729.274,94.2143 728.666,95.4293 729.274,96.6443 730.489,97.2518 733.526,97.8592 734.741,98.4667 735.349,99.6817 735.349,100.289 734.741,101.504 732.919,102.112 731.096,102.112 729.274,101.504 728.666,100.289 " />
<polyline points="710.38,625.754 710.38,642.764 " />
<polyline points="710.38,625.754 716.05,625.754 718.48,626.564 720.1,628.184 720.91,629.804 721.72,632.234 721.72,636.284 720.91,638.714 720.1,640.334 718.48,641.954 716.05,642.764 710.38,642.764 " />
<polyline points="726.133,637.028 726.133,649.785 " />
<polyline points="726.133,643.103 727.348,641.888 728.563,641.28 730.385,641.28 731.6,641.888 732.815,643.103 733.422,644.925 733.422,646.14 732.815,647.962 731.6,649.177 730.385,649.785 728.563,649.785 727.348,649.177 726.133,647.962 " />
<polyline points="188.56,46.1877 188.56,63.1972 " />
<polyline points="188.56,46.1877 194.229,46.1877 196.659,46.9976 198.279,48.6176 199.089,50.2376 199.899,52.6675 199.899,56.7174 199.089,59.1473 198.279,60.7673 196.659,62.3873 194.229,63.1972 188.56,63.1972 " />
<polyline points="211.602,61.4101 210.387,60.1952 209.172,59.5877 207.349,59.5877 206.134,60.1952 204.919,61.4101 204.312,63.2326 204.312,64.4476 204.919,66.27 206.134,67.485 207.349,68.0925 209.172,68.0925 210.387,67.485 211.602,66.27 " />
<polyline points="446.69,412.576 405.077,454.19 " />
<polyline points="518.856,292.3 381.021,430.134 " />
<polyline points="372.498,415.055 360.697,403.253 " />
<polyline points="420.156,462.713 431.958,474.514 " />
<polyline points="360.697,403.253 349.66,392.217 " />
</g>
<g clip-path="url(#clipId0)" fill="rgb(0,0,0)" stroke="rgb(0,0,0)" stroke-width="0.25" >
<path d="M370.531,417.022 374.465,413.088 384.3,426.856 384.3,426.856 z" />
<path d="M418.189,464.68 422.123,460.746 408.355,450.911 408.355,450.911 z" />
</g>
<g clip-path="url(#clipId0)" fill="none" stroke="rgb(0,0,0)" stroke-width="0.1" >
<polyline points="453.246,406.02 453.246,406.02 " />
<polyline points="525.412,285.744 525.412,285.744 " />
<polyline points="384.3,426.856 384.3,426.856 " />
</g>
<g clip-path="url(#clipId0)" fill="none" stroke="rgb(0,0,0)" stroke-width="0.25" >
<polyline points="332.971,295.016 332.971,356.038 " />
<polyline points="315.961,296.611 315.961,356.038 " />
<polyline points="299.271,351.402 282.581,351.402 " />
<polyline points="349.66,351.402 366.35,351.402 " />
<polyline points="282.581,351.402 272.253,351.402 " />
</g>
<g clip-path="url(#clipId0)" fill="rgb(0,0,0)" stroke="rgb(0,0,0)" stroke-width="0.25" >
<path d="M299.271,354.184 299.271,348.62 315.961,351.402 315.961,351.402 z" />
<path d="M349.66,354.184 349.66,348.62 332.971,351.402 332.971,351.402 z" />
</g>
<g clip-path="url(#clipId0)" fill="none" stroke="rgb(0,0,0)" stroke-width="0.1" >
<polyline points="332.971,285.744 332.971,285.744 " />
<polyline points="315.961,287.338 315.961,287.338 " />
<polyline points="315.961,351.402 315.961,351.402 " />
</g>
<g clip-path="url(#clipId0)" fill="none" stroke="rgb(0,0,0)" stroke-width="0.25" >
<polyline points="653.751,115.648 692.66,115.648 " />
<polyline points="653.751,251.725 692.66,251.725 " />
<polyline points="688.024,132.338 688.024,235.035 " />
</g>
<g clip-path="url(#clipId0)" fill="rgb(0,0,0)" stroke="rgb(0,0,0)" stroke-width="0.25" >
<path d="M690.806,132.338 685.242,132.338 688.024,115.648 688.024,115.648 z" />
<path d="M690.806,235.035 685.242,235.035 688.024,251.725 688.024,251.725 z" />
</g>
<g clip-path="url(#clipId0)" fill="none" stroke="rgb(0,0,0)" stroke-width="0.1" >
<polyline points="644.479,115.648 644.479,115.648 " />
<polyline points="644.479,251.725 644.479,251.725 " />
<polyline points="688.024,251.725 688.024,251.725 " />
</g>
<g clip-path="url(#clipId0)" fill="none" stroke="rgb(0,0,0)" stroke-width="0.25" >
<polyline points="541.213,593.642 541.213,640.317 " />
<polyline points="677.289,593.642 677.289,640.317 " />
<polyline points="557.903,635.681 660.599,635.681 " />
</g>
<g clip-path="url(#clipId0)" fill="rgb(0,0,0)" stroke="rgb(0,0,0)" stroke-width="0.25" >
<path d="M557.903,638.462 557.903,632.899 541.213,635.681 541.213,635.681 z" />
<path d="M660.599,638.462 660.599,632.899 677.289,635.681 677.289,635.681 z" />
</g>
<g clip-path="url(#clipId0)" fill="none" stroke="rgb(0,0,0)" stroke-width="0.1" >
<polyline points="541.213,584.37 541.213,584.37 " />
<polyline points="677.289,584.37 677.289,584.37 " />
<polyline points="677.289,635.681 677.289,635.681 " />
</g>
<g clip-path="url(#clipId0)" fill="none" stroke="rgb(0,0,0)" stroke-width="0.25" >
<polyline points="272.67,81.6289 231.384,81.6289 " />
<polyline points="272.67,285.744 231.384,285.744 " />
<polyline points="236.02,98.3188 236.02,269.054 " />
</g>
<g clip-path="url(#clipId0)" fill="rgb(0,0,0)" stroke="rgb(0,0,0)" stroke-width="0.25" >
<path d="M238.802,98.3188 233.239,98.3188 236.02,81.6289 236.02,81.6289 z" />
<path d="M238.802,269.054 233.239,269.054 236.02,285.744 236.02,285.744 z" />
</g>
<g clip-path="url(#clipId0)" fill="none" stroke="rgb(0,0,0)" stroke-width="0.1" >
<polyline points="281.942,81.6289 281.942,81.6289 " />
<polyline points="281.942,285.744 281.942,285.744 " />
<polyline points="236.02,285.744 236.02,285.744 " />
</g>
<g clip-path="url(#clipId0)" fill="none" stroke="rgb(0,0,0)" stroke-width="0.25" >
<polyline points="372.828,121.02 366.205,130.292 376.139,130.292 " />
<polyline points="372.828,121.02 372.828,134.928 " />
<polyline points="387.398,121.02 380.775,121.02 380.113,126.98 380.775,126.318 382.762,125.656 384.749,125.656 386.736,126.318 388.06,127.643 388.723,129.629 388.723,130.954 388.06,132.941 386.736,134.266 384.749,134.928 382.762,134.928 380.775,134.266 380.113,133.603 379.451,132.279 " />
<polyline points="396.873,114.172 395.549,114.835 394.224,116.159 393.562,118.146 393.562,119.471 394.224,121.458 395.549,122.782 396.873,123.445 398.86,123.445 400.185,122.782 401.51,121.458 402.172,119.471 402.172,118.146 401.51,116.159 400.185,114.835 398.86,114.172 396.873,114.172 " />
<path d="M389.957,167.135  A64.9669,64.9669 0 0,0 383.667,151.675 " />
<path d="M344.474,246.297  A64.9669,64.9669 0 0,0 359.853,239.813 " />
</g>
<g clip-path="url(#clipId0)" fill="rgb(0,0,0)" stroke="rgb(0,0,0)" stroke-width="0.25" >
<path d="M387.198,167.492 392.716,166.777 392.101,183.686 392.101,183.686 z" />
<path d="M358.155,237.61 361.551,242.016 373.072,229.625 373.072,229.625 z" />
</g>
<g clip-path="url(#clipId0)" fill="none" stroke="rgb(0,0,0)" stroke-width="0.1" >
<polyline points="361.153,183.686 361.153,183.686 " />
<polyline points="661.495,183.686 661.495,183.686 " />
<polyline points="351.189,207.742 351.189,207.742 " />
<polyline points="549.467,406.02 549.467,406.02 " />
</g>
<g clip-path="url(#clipId0)" fill="none" stroke="rgb(0,0,0)" stroke-width="0.25" >
<polyline points="836.149,742.5 834.206,740.557 831.292,739.586 827.407,739.586 824.493,740.557 822.55,742.5 822.55,744.443 823.521,746.385 824.493,747.357 826.436,748.328 832.264,750.271 834.206,751.242 835.178,752.214 836.149,754.156 836.149,757.07 834.206,759.013 831.292,759.984 827.407,759.984 824.493,759.013 822.55,757.07 " />
<polyline points="842.949,739.586 842.949,759.984 " />
<polyline points="842.949,739.586 849.748,739.586 852.663,740.557 854.605,742.5 855.577,744.443 856.548,747.357 856.548,752.214 855.577,755.128 854.605,757.07 852.663,759.013 849.748,759.984 842.949,759.984 " />
<polyline points="874.033,739.586 864.319,739.586 863.348,748.328 864.319,747.357 867.233,746.385 870.147,746.385 873.061,747.357 875.004,749.299 875.975,752.214 875.975,754.156 875.004,757.07 873.061,759.013 870.147,759.984 867.233,759.984 864.319,759.013 863.348,758.042 862.376,756.099 " />
<polyline points="882.775,751.242 900.26,751.242 " />
<polyline points="916.773,739.586 907.059,753.185 921.63,753.185 " />
<polyline points="916.773,739.586 916.773,759.984 " />
<polyline points="183.433,183.865 99.8135,183.865 " />
</g>
<g clip-path="url(#clipId0)" fill="rgb(0,0,0)" stroke="rgb(0,0,0)" stroke-width="0.25" >
<path d="M183.433,180.967 183.433,186.763 200.821,183.865 200.821,183.865 z" />
</g>
<g clip-path="url(#clipId0)" fill="none" stroke="rgb(0,0,0)" stroke-width="0.25" >
<polyline points="163.675,207.494 163.178,206.501 162.185,205.507 161.191,205.01 159.204,205.01 158.211,205.507 157.217,206.501 156.721,207.494 156.224,208.984 156.224,211.468 156.721,212.958 157.217,213.952 158.211,214.945 159.204,215.442 161.191,215.442 162.185,214.945 163.178,213.952 163.675,212.958 " />
<polyline points="141.832,193.433 135.209,210.818 " />
<polyline points="141.832,193.433 148.454,210.818 " />
<polyline points="137.692,205.023 145.971,205.023 " />
<polyline points="163.675,164.15 163.178,163.156 162.185,162.163 161.191,161.666 159.204,161.666 158.211,162.163 157.217,163.156 156.721,164.15 156.224,165.64 156.224,168.124 156.721,169.614 157.217,170.607 158.211,171.601 159.204,172.097 161.191,172.097 162.185,171.601 163.178,170.607 163.675,169.614 " />
<polyline points="141.832,150.088 140.176,150.916 138.52,152.572 137.692,154.228 136.864,156.711 136.864,160.851 137.692,163.334 138.52,164.99 140.176,166.646 141.832,167.474 145.143,167.474 146.799,166.646 148.454,164.99 149.282,163.334 150.11,160.851 150.11,156.711 149.282,154.228 148.454,152.572 146.799,150.916 145.143,150.088 141.832,150.088 " />
<polyline points="144.315,164.162 149.282,169.129 " />
</g>
<g clip-path="url(#clipId0)" fill="rgb(0,0,0)" stroke="rgb(0,0,0)" stroke-width="0.25" >
<path d="M614.151,743.083 608.356,743.083 611.254,760.471 611.254,760.471 z" />
</g>
<g clip-path="url(#clipId0)" fill="none" stroke="rgb(0,0,0)" stroke-width="0.25" >
<polyline points="588.919,703.572 588.919,714.003 " />
<polyline points="588.919,708.539 589.912,707.546 590.906,707.049 592.396,707.049 593.389,707.546 594.383,708.539 594.88,710.029 594.88,711.023 594.383,712.513 593.389,713.507 592.396,714.003 590.906,714.003 589.912,713.507 588.919,712.513 " />
<polyline points="574.985,693.798 573.329,694.626 571.674,696.282 570.846,697.938 570.018,700.421 570.018,704.561 570.846,707.044 571.674,708.7 573.329,710.356 574.985,711.184 578.297,711.184 579.952,710.356 581.608,708.7 582.436,707.044 583.264,704.561 583.264,700.421 582.436,697.938 581.608,696.282 579.952,694.626 578.297,693.798 574.985,693.798 " />
<polyline points="577.469,707.872 582.436,712.839 " />
<polyline points="611.254,743.083 611.254,666.612 " />
<polyline points="645.645,703.572 645.645,714.003 " />
<polyline points="645.645,708.539 646.638,707.546 647.632,707.049 649.122,707.049 650.116,707.546 651.109,708.539 651.606,710.029 651.606,711.023 651.109,712.513 650.116,713.507 649.122,714.003 647.632,714.003 646.638,713.507 645.645,712.513 " />
<polyline points="631.711,693.798 625.088,711.184 " />
<polyline points="631.711,693.798 638.334,711.184 " />
<polyline points="627.572,705.388 635.851,705.388 " />
<polyline points="775.373,163.556 774.38,162.563 772.889,162.066 770.902,162.066 769.412,162.563 768.419,163.556 768.419,164.55 768.916,165.543 769.412,166.04 770.406,166.537 773.386,167.53 774.38,168.027 774.876,168.524 775.373,169.517 775.373,171.007 774.38,172.001 772.889,172.497 770.902,172.497 769.412,172.001 768.419,171.007 " />
<polyline points="775.373,210.839 774.38,209.845 772.889,209.348 770.902,209.348 769.412,209.845 768.419,210.839 768.419,211.832 768.916,212.826 769.412,213.322 770.406,213.819 773.386,214.812 774.38,215.309 774.876,215.806 775.373,216.799 775.373,218.289 774.38,219.283 772.889,219.78 770.902,219.78 769.412,219.283 768.419,218.289 " />
<polyline points="805.169,184.827 719.168,184.827 " />
<polyline points="753.57,198.131 746.947,215.517 " />
<polyline points="753.57,198.131 760.193,215.517 " />
<polyline points="749.431,209.722 757.71,209.722 " />
<polyline points="753.57,150.849 751.915,151.677 750.259,153.333 749.431,154.988 748.603,157.472 748.603,161.611 749.431,164.095 750.259,165.751 751.915,167.407 753.57,168.234 756.882,168.234 758.538,167.407 760.193,165.751 761.021,164.095 761.849,161.611 761.849,157.472 761.021,154.988 760.193,153.333 758.538,151.677 756.882,150.849 753.57,150.849 " />
<polyline points="756.054,164.923 761.021,169.89 " />
</g>
<g clip-path="url(#clipId0)" fill="rgb(0,0,0)" stroke="rgb(0,0,0)" stroke-width="0.25" >
<path d="M805.169,181.929 805.169,187.725 822.556,184.827 822.556,184.827 z" />
</g>
</svg>
