<?xml version="1.0" standalone="no"?>
<svg viewBox="0 0 1024 768" version="1.1" xmlns="http://www.w3.org/2000/svg" xmlns:xlink="http://www.w3.org/1999/xlink" stroke-linecap="round" stroke-linejoin="round" fill-rule="evenodd" xml:space="preserve" >
<defs >
<clipPath id="clipId0" >
<path d="M0,768 1024,768 1024,0 0,0 z" />
</clipPath>
</defs>
<g clip-path="url(#clipId0)" fill="none" stroke="rgb(0,0,0)" stroke-width="0.1" />
<g clip-path="url(#clipId0)" fill="none" stroke="rgb(0,0,0)" stroke-width="0.25" >
<polyline points="386.976,45.8236 303.399,247.595 " />
<polyline points="623.366,282.214 421.594,365.79 " />
<polyline points="623.366,449.367 421.594,449.367 " />
<polyline points="186.194,45.8236 217.721,45.8236 " />
<polyline points="186.194,247.595 217.721,247.595 " />
<polyline points="421.594,449.367 421.594,365.79 " />
<polyline points="623.366,449.367 623.366,282.214 " />
<polyline points="386.976,45.8236 437.913,96.7615 " />
<polyline points="303.399,247.595 421.594,365.79 " />
<polyline points="437.913,96.7615 603.955,96.7615 " />
<polyline points="572.428,231.276 603.955,231.276 " />
<polyline points="639.685,231.276 639.685,96.7615 " />
<polyline points="186.194,45.8236 186.194,247.595 " />
<polyline points="589.737,518.726 589.737,550.252 " />
<polyline points="455.223,518.726 455.223,550.252 " />
<polyline points="589.737,550.252 455.223,550.252 " />
<polyline points="421.594,449.367 454.397,514.973 " />
<polyline points="623.366,449.367 590.562,514.973 " />
<path d="M522.48,449.367  A302.657,302.657 0 0,0 221.924,146.717 " stroke-dasharray="112.573342,22.514668,22.514668,22.514668" />
<polyline points="168.38,146.709 436.764,146.709 " stroke-dasharray="112.573342,22.514668,22.514668,22.514668" />
<polyline points="522.48,449.367 522.48,563.424 " stroke-dasharray="112.573342,22.514668,22.514668,22.514668" />
<polyline points="221.924,45.8236 221.924,247.595 " />
<polyline points="217.721,45.8236 217.721,247.595 " />
<path d="M221.924,45.8236  A2.18936,2.18936 0 0,0 217.721,45.8236 " />
<polyline points="221.924,45.8236 386.976,45.8236 " />
<path d="M217.721,247.595  A2.18936,2.18936 0 0,0 221.924,247.595 " />
<polyline points="221.924,247.595 303.399,247.595 " />
<polyline points="608.158,231.276 608.158,96.7615 " />
<polyline points="603.955,231.276 603.955,96.7615 " />
<path d="M608.158,96.7615  A2.18936,2.18936 0 0,0 603.955,96.7615 " />
<polyline points="608.158,96.7615 639.685,96.7615 " />
<path d="M603.955,231.276  A2.18936,2.18936 0 0,0 608.158,231.276 " />
<polyline points="608.158,231.276 639.685,231.276 " />
<polyline points="572.428,231.276 623.366,282.214 " />
<polyline points="589.737,514.522 455.223,514.522 " />
<polyline points="589.737,518.726 455.223,518.726 " />
<path d="M455.223,514.522  A2.18936,2.18936 0 0,0 455.223,518.726 " />
<path d="M589.737,518.726  A2.18936,2.18936 0 0,0 589.737,514.522 " />
</g>
<g clip-path="url(#clipId0)" fill="rgb(0,0,0)" stroke="rgb(0,0,0)" stroke-width="0.25" >
<path d="M83.6098,144.83 83.6098,149.834 98.6216,147.332 98.6216,147.332 z" />
</g>
<g clip-path="url(#clipId0)" fill="none" stroke="rgb(0,0,0)" stroke-width="0.25" >
<polyline points="83.6098,147.332 11.4158,147.332 " />
<polyline points="797.53,164.019 723.28,164.019 " />
</g>
<g clip-path="url(#clipId0)" fill="rgb(0,0,0)" stroke="rgb(0,0,0)" stroke-width="0.25" >
<path d="M797.53,161.517 797.53,166.521 812.542,164.019 812.542,164.019 z" />
</g>
<g clip-path="url(#clipId0)" fill="none" stroke="rgb(0,0,0)" stroke-width="0.25" >
<polyline points="522.48,692.102 522.48,626.08 " />
</g>
<g clip-path="url(#clipId0)" fill="rgb(0,0,0)" stroke="rgb(0,0,0)" stroke-width="0.25" >
<path d="M524.982,692.102 519.978,692.102 522.48,707.114 522.48,707.114 z" />
</g>
<g clip-path="url(#clipId0)" fill="none" stroke="rgb(0,0,0)" stroke-width="0.25" >
<polyline points="659.998,41.4652 659.998,40.7505 660.713,39.321 661.427,38.6062 662.857,37.8915 665.716,37.8915 667.145,38.6062 667.86,39.321 668.575,40.7505 668.575,42.18 667.86,43.6095 666.431,45.7538 659.283,52.9013 669.29,52.9013 " />
<polyline points="675.722,35.7472 675.008,36.462 674.293,35.7472 675.008,35.0325 675.722,35.7472 675.722,37.1767 675.008,38.6062 674.293,39.321 " />
<polyline points="680.011,35.7472 679.296,36.462 678.581,35.7472 679.296,35.0325 680.011,35.7472 680.011,37.1767 679.296,38.6062 678.581,39.321 " />
<polyline points="689.303,35.0325 687.873,36.462 686.444,38.6062 685.014,41.4652 684.299,45.039 684.299,47.898 685.014,51.4718 686.444,54.3308 687.873,56.475 689.303,57.9045 " />
<polyline points="702.168,37.8915 695.021,37.8915 694.306,44.3243 695.021,43.6095 697.165,42.8947 699.309,42.8947 701.453,43.6095 702.883,45.039 703.598,47.1833 703.598,48.6128 702.883,50.757 701.453,52.1865 699.309,52.9013 697.165,52.9013 695.021,52.1865 694.306,51.4718 693.591,50.0423 " />
<polyline points="712.175,37.8915 710.03,38.6062 708.601,40.7505 707.886,44.3243 707.886,46.4685 708.601,50.0423 710.03,52.1865 712.175,52.9013 713.604,52.9013 715.748,52.1865 717.178,50.0423 717.893,46.4685 717.893,44.3243 717.178,40.7505 715.748,38.6062 713.604,37.8915 712.175,37.8915 " />
<polyline points="722.896,42.8947 722.896,52.9013 " />
<polyline points="722.896,45.7538 725.04,43.6095 726.47,42.8947 728.614,42.8947 730.043,43.6095 730.758,45.7538 730.758,52.9013 " />
<polyline points="730.758,45.7538 732.902,43.6095 734.332,42.8947 736.476,42.8947 737.906,43.6095 738.62,45.7538 738.62,52.9013 " />
<polyline points="744.339,42.8947 744.339,52.9013 " />
<polyline points="744.339,45.7538 746.483,43.6095 747.912,42.8947 750.057,42.8947 751.486,43.6095 752.201,45.7538 752.201,52.9013 " />
<polyline points="752.201,45.7538 754.345,43.6095 755.775,42.8947 757.919,42.8947 759.348,43.6095 760.063,45.7538 760.063,52.9013 " />
<polyline points="765.066,35.0325 766.496,36.462 767.925,38.6062 769.355,41.4652 770.07,45.039 770.07,47.898 769.355,51.4718 767.925,54.3308 766.496,56.475 765.066,57.9045 " />
<polyline points="672.192,155.223 672.192,170.233 " />
<polyline points="672.192,155.223 677.195,155.223 679.34,155.938 680.769,157.368 681.484,158.797 682.199,160.941 682.199,164.515 681.484,166.659 680.769,168.089 679.34,169.518 677.195,170.233 672.192,170.233 " />
<polyline points="694.059,166.973 693.201,166.115 691.915,165.686 690.199,165.686 688.913,166.115 688.055,166.973 688.055,167.831 688.484,168.688 688.913,169.117 689.77,169.546 692.344,170.404 693.201,170.833 693.63,171.261 694.059,172.119 694.059,173.406 693.201,174.263 691.915,174.692 690.199,174.692 688.913,174.263 688.055,173.406 " />
<polyline points="771.806,186.476 770.948,185.619 769.661,185.19 767.946,185.19 766.659,185.619 765.802,186.476 765.802,187.334 766.231,188.192 766.659,188.62 767.517,189.049 770.09,189.907 770.948,190.336 771.377,190.765 771.806,191.622 771.806,192.909 770.948,193.767 769.661,194.196 767.946,194.196 766.659,193.767 765.802,192.909 " />
<polyline points="752.982,175.505 747.264,190.515 " />
<polyline points="752.982,175.505 758.7,190.515 " />
<polyline points="749.408,185.512 756.556,185.512 " />
<polyline points="511.22,580.419 511.22,595.429 " />
<polyline points="511.22,580.419 516.223,580.419 518.367,581.133 519.797,582.563 520.511,583.993 521.226,586.137 521.226,589.711 520.511,591.855 519.797,593.284 518.367,594.714 516.223,595.429 511.22,595.429 " />
<polyline points="526.938,589.558 526.938,598.564 " />
<polyline points="526.938,593.846 527.796,592.989 528.653,592.56 529.94,592.56 530.797,592.989 531.655,593.846 532.084,595.133 532.084,595.991 531.655,597.277 530.797,598.135 529.94,598.564 528.653,598.564 527.796,598.135 526.938,597.277 " />
<polyline points="131.992,137.954 131.992,152.963 " />
<polyline points="131.992,137.954 136.995,137.954 139.14,138.668 140.569,140.098 141.284,141.527 141.999,143.672 141.999,147.245 141.284,149.39 140.569,150.819 139.14,152.249 136.995,152.963 131.992,152.963 " />
<polyline points="154.36,149.471 153.931,148.613 153.073,147.755 152.216,147.326 150.5,147.326 149.643,147.755 148.785,148.613 148.356,149.471 147.927,150.757 147.927,152.901 148.356,154.188 148.785,155.046 149.643,155.903 150.5,156.332 152.216,156.332 153.073,155.903 153.931,155.046 154.36,154.188 " />
<polyline points="66.5511,134.662 66.1223,133.804 65.2646,132.946 64.4069,132.518 62.6915,132.518 61.8338,132.946 60.9761,133.804 60.5472,134.662 60.1184,135.948 60.1184,138.093 60.5472,139.379 60.9761,140.237 61.8338,141.095 62.6915,141.523 64.4069,141.523 65.2646,141.095 66.1223,140.237 66.5511,139.379 " />
<polyline points="47.6924,122.522 46.2629,123.236 44.8334,124.666 44.1187,126.095 43.4039,128.24 43.4039,131.813 44.1187,133.958 44.8334,135.387 46.2629,136.817 47.6924,137.531 50.5514,137.531 51.9809,136.817 53.4104,135.387 54.1252,133.958 54.8399,131.813 54.8399,128.24 54.1252,126.095 53.4104,124.666 51.9809,123.236 50.5514,122.522 47.6924,122.522 " />
<polyline points="49.8367,134.672 54.1252,138.961 " />
<polyline points="552.172,657.99 552.172,666.996 " />
<polyline points="552.172,662.278 553.03,661.421 553.888,660.992 555.174,660.992 556.032,661.421 556.89,662.278 557.318,663.565 557.318,664.423 556.89,665.709 556.032,666.567 555.174,666.996 553.888,666.996 553.03,666.567 552.172,665.709 " />
<polyline points="540.142,649.551 534.424,664.561 " />
<polyline points="540.142,649.551 545.86,664.561 " />
<polyline points="536.569,659.558 543.716,659.558 " />
<polyline points="693.658,475.898 693.658,490.908 " />
<polyline points="693.658,475.898 698.661,475.898 700.805,476.613 702.235,478.043 702.95,479.472 703.664,481.616 703.664,485.19 702.95,487.334 702.235,488.764 700.805,490.193 698.661,490.908 693.658,490.908 " />
<polyline points="723.677,484.475 736.543,484.475 " />
<polyline points="742.261,475.898 742.261,490.908 " />
<polyline points="742.261,475.898 747.264,475.898 749.409,476.613 750.838,478.043 751.553,479.472 752.268,481.616 752.268,485.19 751.553,487.334 750.838,488.764 749.409,490.193 747.264,490.908 742.261,490.908 " />
<polyline points="792.294,473.039 790.864,474.469 789.435,476.613 788.005,479.472 787.29,483.046 787.29,485.905 788.005,489.479 789.435,492.338 790.864,494.482 792.294,495.911 " />
<polyline points="798.726,478.757 800.156,478.043 802.3,475.898 802.3,490.908 " />
<polyline points="813.021,473.754 812.307,474.469 811.592,473.754 812.307,473.039 813.021,473.754 813.021,475.184 812.307,476.613 811.592,477.328 " />
<polyline points="817.31,473.754 816.595,474.469 815.88,473.754 816.595,473.039 817.31,473.754 817.31,475.184 816.595,476.613 815.88,477.328 " />
<polyline points="826.602,473.039 825.172,474.469 823.743,476.613 822.313,479.472 821.598,483.046 821.598,485.905 822.313,489.479 823.743,492.338 825.172,494.482 826.602,495.911 " />
<polyline points="831.605,479.472 831.605,478.757 832.32,477.328 833.034,476.613 834.464,475.898 837.323,475.898 838.752,476.613 839.467,477.328 840.182,478.757 840.182,480.187 839.467,481.616 838.038,483.761 830.89,490.908 840.897,490.908 " />
<polyline points="853.762,475.898 846.615,475.898 845.9,482.331 846.615,481.616 848.759,480.902 850.903,480.902 853.047,481.616 854.477,483.046 855.192,485.19 855.192,486.62 854.477,488.764 853.047,490.193 850.903,490.908 848.759,490.908 846.615,490.193 845.9,489.479 845.185,488.049 " />
<polyline points="860.195,480.902 860.195,490.908 " />
<polyline points="860.195,483.761 862.339,481.616 863.769,480.902 865.913,480.902 867.343,481.616 868.057,483.761 868.057,490.908 " />
<polyline points="868.057,483.761 870.202,481.616 871.631,480.902 873.775,480.902 875.205,481.616 875.92,483.761 875.92,490.908 " />
<polyline points="881.638,480.902 881.638,490.908 " />
<polyline points="881.638,483.761 883.782,481.616 885.211,480.902 887.356,480.902 888.785,481.616 889.5,483.761 889.5,490.908 " />
<polyline points="889.5,483.761 891.644,481.616 893.074,480.902 895.218,480.902 896.647,481.616 897.362,483.761 897.362,490.908 " />
<polyline points="902.365,473.039 903.795,474.469 905.224,476.613 906.654,479.472 907.369,483.046 907.369,485.905 906.654,489.479 905.224,492.338 903.795,494.482 902.365,495.911 " />
<polyline points="928.096,480.902 928.096,490.908 " />
<polyline points="928.096,483.761 930.241,481.616 931.67,480.902 933.814,480.902 935.244,481.616 935.959,483.761 935.959,490.908 " />
<polyline points="935.959,483.761 938.103,481.616 939.532,480.902 941.677,480.902 943.106,481.616 943.821,483.761 943.821,490.908 " />
<polyline points="948.824,476.613 949.539,477.328 950.254,476.613 949.539,475.898 948.824,476.613 " />
<polyline points="949.539,481.616 949.539,490.908 " />
<polyline points="955.257,480.902 955.257,490.908 " />
<polyline points="955.257,483.761 957.401,481.616 958.831,480.902 960.975,480.902 962.404,481.616 963.119,483.761 963.119,490.908 " />
<polyline points="969.552,489.479 968.837,490.193 969.552,490.908 970.267,490.193 969.552,489.479 " />
<polyline points="993.853,480.902 992.424,481.616 990.994,483.046 990.28,485.19 990.28,486.62 990.994,488.764 992.424,490.193 993.853,490.908 995.998,490.908 997.427,490.193 998.857,488.764 999.572,486.62 999.572,485.19 998.857,483.046 997.427,481.616 995.998,480.902 993.853,480.902 " />
<polyline points="1004.57,480.902 1004.57,490.908 " />
<polyline points="1004.57,485.19 1005.29,483.046 1006.72,481.616 1008.15,480.902 1010.29,480.902 " />
<polyline points="783.895,510.151 785.324,509.436 787.468,507.292 787.468,522.302 " />
<polyline points="796.76,510.866 796.76,510.151 797.475,508.722 798.19,508.007 799.619,507.292 802.478,507.292 803.908,508.007 804.622,508.722 805.337,510.151 805.337,511.581 804.622,513.01 803.193,515.154 796.045,522.302 806.052,522.302 " />
<polyline points="812.485,505.148 811.77,505.863 811.055,505.148 811.77,504.433 812.485,505.148 812.485,506.577 811.77,508.007 811.055,508.722 " />
<polyline points="816.773,505.148 816.058,505.863 815.344,505.148 816.058,504.433 816.773,505.148 816.773,506.577 816.058,508.007 815.344,508.722 " />
<polyline points="826.065,504.433 824.635,505.863 823.206,508.007 821.776,510.866 821.062,514.44 821.062,517.299 821.776,520.872 823.206,523.731 824.635,525.876 826.065,527.305 " />
<polyline points="831.783,507.292 839.645,507.292 835.357,513.01 837.501,513.01 838.931,513.725 839.645,514.44 840.36,516.584 840.36,518.013 839.645,520.158 838.216,521.587 836.072,522.302 833.927,522.302 831.783,521.587 831.068,520.872 830.353,519.443 " />
<polyline points="848.937,507.292 846.793,508.007 845.363,510.151 844.649,513.725 844.649,515.869 845.363,519.443 846.793,521.587 848.937,522.302 850.367,522.302 852.511,521.587 853.94,519.443 854.655,515.869 854.655,513.725 853.94,510.151 852.511,508.007 850.367,507.292 848.937,507.292 " />
<polyline points="863.232,507.292 861.088,508.007 859.658,510.151 858.944,513.725 858.944,515.869 859.658,519.443 861.088,521.587 863.232,522.302 864.662,522.302 866.806,521.587 868.235,519.443 868.95,515.869 868.95,513.725 868.235,510.151 866.806,508.007 864.662,507.292 863.232,507.292 " />
<polyline points="873.953,512.295 873.953,522.302 " />
<polyline points="873.953,515.154 876.098,513.01 877.527,512.295 879.671,512.295 881.101,513.01 881.816,515.154 881.816,522.302 " />
<polyline points="881.816,515.154 883.96,513.01 885.389,512.295 887.534,512.295 888.963,513.01 889.678,515.154 889.678,522.302 " />
<polyline points="895.396,512.295 895.396,522.302 " />
<polyline points="895.396,515.154 897.54,513.01 898.97,512.295 901.114,512.295 902.543,513.01 903.258,515.154 903.258,522.302 " />
<polyline points="903.258,515.154 905.402,513.01 906.832,512.295 908.976,512.295 910.406,513.01 911.12,515.154 911.12,522.302 " />
<polyline points="916.124,504.433 917.553,505.863 918.983,508.007 920.412,510.866 921.127,514.44 921.127,517.299 920.412,520.872 918.983,523.731 917.553,525.876 916.124,527.305 " />
<polyline points="941.855,512.295 941.855,522.302 " />
<polyline points="941.855,515.154 943.999,513.01 945.428,512.295 947.573,512.295 949.002,513.01 949.717,515.154 949.717,522.302 " />
<polyline points="949.717,515.154 951.861,513.01 953.291,512.295 955.435,512.295 956.864,513.01 957.579,515.154 957.579,522.302 " />
<polyline points="971.16,512.295 971.16,522.302 " />
<polyline points="971.16,514.44 969.73,513.01 968.301,512.295 966.156,512.295 964.727,513.01 963.297,514.44 962.583,516.584 962.583,518.013 963.297,520.158 964.727,521.587 966.156,522.302 968.301,522.302 969.73,521.587 971.16,520.158 " />
<polyline points="976.163,512.295 984.025,522.302 " />
<polyline points="984.025,512.295 976.163,522.302 " />
<polyline points="989.743,520.872 989.028,521.587 989.743,522.302 990.458,521.587 989.743,520.872 " />
<polyline points="995.461,504.433 996.891,505.863 998.32,508.007 999.75,510.866 1000.46,514.44 1000.46,517.299 999.75,520.872 998.32,523.731 996.891,525.876 995.461,527.305 " />
<polyline points="713.419,488.549 712.99,487.692 712.132,486.834 711.274,486.405 709.559,486.405 708.701,486.834 707.844,487.692 707.415,488.549 706.986,489.836 706.986,491.98 707.415,493.267 707.844,494.124 708.701,494.982 709.559,495.411 711.274,495.411 712.132,494.982 712.99,494.124 713.419,493.267 " />
<polyline points="759.215,487.08 759.215,496.086 " />
<polyline points="759.215,491.369 760.072,490.511 760.93,490.082 762.217,490.082 763.074,490.511 763.932,491.369 764.361,492.655 764.361,493.513 763.932,494.799 763.074,495.657 762.217,496.086 760.93,496.086 760.072,495.657 759.215,494.799 " />
<polyline points="419.78,108.901 402.966,108.901 " />
<polyline points="389.688,103.927 381.826,113.933 " />
<polyline points="381.826,103.927 389.688,103.927 " />
<polyline points="381.826,113.933 389.688,113.933 " />
<polyline points="17.9015,695.492 10.0392,705.499 " />
<polyline points="10.0392,695.492 17.9015,695.492 " />
<polyline points="10.0392,705.499 17.9015,705.499 " />
<polyline points="37.9145,696.922 50.78,696.922 " />
<polyline points="37.9145,701.21 50.78,701.21 " />
<polyline points="75.0816,690.489 72.9373,691.204 71.5078,693.348 70.7931,696.922 70.7931,699.066 71.5078,702.64 72.9373,704.784 75.0816,705.499 76.5111,705.499 78.6553,704.784 80.0849,702.64 80.7996,699.066 80.7996,696.922 80.0849,693.348 78.6553,691.204 76.5111,690.489 75.0816,690.489 " />
<polyline points="86.5176,704.069 85.8029,704.784 86.5176,705.499 87.2324,704.784 86.5176,704.069 " />
<polyline points="96.5241,690.489 94.3799,691.204 92.9504,693.348 92.2356,696.922 92.2356,699.066 92.9504,702.64 94.3799,704.784 96.5241,705.499 97.9536,705.499 100.098,704.784 101.527,702.64 102.242,699.066 102.242,696.922 101.527,693.348 100.098,691.204 97.9536,690.489 96.5241,690.489 " />
<polyline points="110.104,690.489 107.96,691.204 107.245,692.633 107.245,694.063 107.96,695.492 109.39,696.207 112.249,696.922 114.393,697.637 115.822,699.066 116.537,700.496 116.537,702.64 115.822,704.069 115.108,704.784 112.963,705.499 110.104,705.499 107.96,704.784 107.245,704.069 106.531,702.64 106.531,700.496 107.245,699.066 108.675,697.637 110.819,696.922 113.678,696.207 115.108,695.492 115.822,694.063 115.822,692.633 115.108,691.204 112.963,690.489 110.104,690.489 " />
<polyline points="130.117,692.633 129.403,691.204 127.258,690.489 125.829,690.489 123.685,691.204 122.255,693.348 121.54,696.922 121.54,700.496 122.255,703.355 123.685,704.784 125.829,705.499 126.544,705.499 128.688,704.784 130.117,703.355 130.832,701.21 130.832,700.496 130.117,698.351 128.688,696.922 126.544,696.207 125.829,696.207 123.685,696.922 122.255,698.351 121.54,700.496 " />
<polyline points="135.835,690.489 135.835,705.499 " />
<polyline points="135.835,690.489 140.839,690.489 142.983,691.204 144.412,692.633 145.127,694.063 145.842,696.207 145.842,699.781 145.127,701.925 144.412,703.355 142.983,704.784 140.839,705.499 135.835,705.499 " />
<polyline points="158.507,701.821 158.078,700.963 157.22,700.106 156.363,699.677 154.647,699.677 153.789,700.106 152.932,700.963 152.503,701.821 152.074,703.108 152.074,705.252 152.503,706.539 152.932,707.396 153.789,708.254 154.647,708.683 156.363,708.683 157.22,708.254 158.078,707.396 158.507,706.539 " />
<polyline points="455.223,560.259 455.223,593.554 " />
<polyline points="589.737,560.259 589.737,593.554 " />
<polyline points="455.223,588.55 501.701,588.55 " />
</g>
<g clip-path="url(#clipId0)" fill="rgb(0,0,0)" stroke="rgb(0,0,0)" stroke-width="0.25" >
<path d="M470.172,591.042 470.172,586.059 455.223,588.55 455.223,588.55 z" />
<path d="M574.787,591.042 574.787,586.059 589.737,588.55 589.737,588.55 z" />
</g>
<g clip-path="url(#clipId0)" fill="none" stroke="rgb(0,0,0)" stroke-width="0.1" >
<polyline points="455.223,550.252 455.223,550.252 " />
<polyline points="589.737,550.252 589.737,550.252 " />
<polyline points="589.737,588.55 589.737,588.55 " />
</g>
<g clip-path="url(#clipId0)" fill="none" stroke="rgb(0,0,0)" stroke-width="0.25" >
<polyline points="649.692,231.276 689.463,231.276 " />
<polyline points="649.692,96.7615 689.463,96.7615 " />
<polyline points="684.459,231.276 684.459,180.756 " />
</g>
<g clip-path="url(#clipId0)" fill="rgb(0,0,0)" stroke="rgb(0,0,0)" stroke-width="0.25" >
<path d="M686.951,216.326 681.968,216.326 684.459,231.276 684.459,231.276 z" />
<path d="M686.951,111.711 681.968,111.711 684.459,96.7615 684.459,96.7615 z" />
</g>
<g clip-path="url(#clipId0)" fill="none" stroke="rgb(0,0,0)" stroke-width="0.1" >
<polyline points="639.685,231.276 639.685,231.276 " />
<polyline points="639.685,96.7615 639.685,96.7615 " />
<polyline points="684.459,96.7615 684.459,96.7615 " />
</g>
<g clip-path="url(#clipId0)" fill="none" stroke="rgb(0,0,0)" stroke-width="0.25" >
<polyline points="572.428,221.269 572.428,40.4764 " />
<polyline points="606.056,85.1786 606.056,40.4764 " />
<polyline points="606.056,45.4797 642.08,45.4797 " />
<polyline points="572.428,45.4797 536.404,45.4797 " />
<polyline points="642.08,45.4797 648.112,45.4797 " />
</g>
<g clip-path="url(#clipId0)" fill="rgb(0,0,0)" stroke="rgb(0,0,0)" stroke-width="0.25" >
<path d="M621.006,47.9713 621.006,42.9881 606.056,45.4797 606.056,45.4797 z" />
<path d="M557.478,47.9713 557.478,42.9881 572.428,45.4797 572.428,45.4797 z" />
</g>
<g clip-path="url(#clipId0)" fill="none" stroke="rgb(0,0,0)" stroke-width="0.1" >
<polyline points="572.428,231.276 572.428,231.276 " />
<polyline points="606.056,95.1851 606.056,95.1851 " />
<polyline points="606.056,45.4797 606.056,45.4797 " />
</g>
<g clip-path="url(#clipId0)" fill="none" stroke="rgb(0,0,0)" stroke-width="0.25" >
<polyline points="427.817,164.019 424.783,164.019 " />
<polyline points="410.266,146.709 414.777,146.709 " />
<polyline points="419.78,146.709 419.78,108.901 " />
<polyline points="419.78,164.019 419.78,200.042 " />
</g>
<g clip-path="url(#clipId0)" fill="rgb(0,0,0)" stroke="rgb(0,0,0)" stroke-width="0.25" >
<path d="M422.272,131.76 417.288,131.76 419.78,146.709 419.78,146.709 z" />
<path d="M422.272,178.968 417.288,178.968 419.78,164.019 419.78,164.019 z" />
</g>
<g clip-path="url(#clipId0)" fill="none" stroke="rgb(0,0,0)" stroke-width="0.1" >
<polyline points="417.81,164.019 417.81,164.019 " />
<polyline points="420.272,146.709 420.272,146.709 " />
<polyline points="419.78,146.709 419.78,146.709 " />
</g>
<g clip-path="url(#clipId0)" fill="none" stroke="rgb(0,0,0)" stroke-width="0.25" >
<polyline points="176.188,45.8236 138.629,45.8236 " />
<polyline points="176.188,247.595 138.629,247.595 " />
<polyline points="143.633,45.8236 143.633,129.617 " />
</g>
<g clip-path="url(#clipId0)" fill="rgb(0,0,0)" stroke="rgb(0,0,0)" stroke-width="0.25" >
<path d="M146.124,60.7734 141.141,60.7734 143.633,45.8236 143.633,45.8236 z" />
<path d="M146.124,232.645 141.141,232.645 143.633,247.595 143.633,247.595 z" />
</g>
<g clip-path="url(#clipId0)" fill="none" stroke="rgb(0,0,0)" stroke-width="0.1" >
<polyline points="186.194,45.8236 186.194,45.8236 " />
<polyline points="186.194,247.595 186.194,247.595 " />
<polyline points="143.633,247.595 143.633,247.595 " />
</g>
<g clip-path="url(#clipId0)" fill="none" stroke="rgb(0,0,0)" stroke-width="0.25" >
<polyline points="401.828,164.019 656.054,164.019 " stroke-dasharray="112.573342,22.514668,22.514668,22.514668" />
<path d="M437.913,96.7615  A134.324,134.324 0 0,0 572.428,231.276 " />
<polyline points="210.817,449.367 228.828,449.367 " stroke-dasharray="112.573342,22.514668,22.514668,22.514668" />
<polyline points="219.823,458.373 219.823,440.361 " stroke-dasharray="112.573342,22.514668,22.514668,22.514668" />
<polyline points="445.572,275.988 345.528,352.823 " />
</g>
<g clip-path="url(#clipId0)" fill="rgb(0,0,0)" stroke="rgb(0,0,0)" stroke-width="0.25" >
<path d="M447.401,278.369 443.744,273.607 459.857,265.017 459.857,265.017 z" />
</g>
<g clip-path="url(#clipId0)" fill="none" stroke="rgb(0,0,0)" stroke-width="0.25" >
<polyline points="143.633,165.752 143.633,247.595 " />
<polyline points="66.5511,167.733 66.1223,166.875 65.2646,166.017 64.4069,165.589 62.6915,165.589 61.8338,166.017 60.9761,166.875 60.5472,167.733 60.1184,169.019 60.1184,171.164 60.5472,172.45 60.9761,173.308 61.8338,174.166 62.6915,174.594 64.4069,174.594 65.2646,174.166 66.1223,173.308 66.5511,172.45 " />
<polyline points="47.6924,155.593 41.9744,170.603 " />
<polyline points="47.6924,155.593 53.4104,170.603 " />
<polyline points="44.1187,165.599 51.2662,165.599 " />
<polyline points="771.806,145.655 770.948,144.797 769.661,144.368 767.946,144.368 766.659,144.797 765.802,145.655 765.802,146.512 766.231,147.37 766.659,147.799 767.517,148.228 770.09,149.085 770.948,149.514 771.377,149.943 771.806,150.801 771.806,152.087 770.948,152.945 769.661,153.374 767.946,153.374 766.659,152.945 765.802,152.087 " />
<polyline points="752.982,134.684 751.553,135.398 750.123,136.828 749.408,138.257 748.694,140.402 748.694,143.975 749.408,146.12 750.123,147.549 751.553,148.979 752.982,149.693 755.841,149.693 757.271,148.979 758.7,147.549 759.415,146.12 760.13,143.975 760.13,140.402 759.415,138.257 758.7,136.828 757.271,135.398 755.841,134.684 752.982,134.684 " />
<polyline points="755.126,146.834 759.415,151.123 " />
<polyline points="684.459,148.152 684.459,96.7615 " />
<polyline points="328.258,357.859 328.258,367.866 " />
<polyline points="328.258,362.148 328.972,360.003 330.402,358.574 331.831,357.859 333.976,357.859 " />
<polyline points="317.488,374.358 219.823,449.367 " />
<polyline points="633.372,449.367 679.613,449.367 " />
<polyline points="601.32,516.624 679.613,516.624 " />
<polyline points="674.61,449.367 674.61,516.624 " />
</g>
<g clip-path="url(#clipId0)" fill="rgb(0,0,0)" stroke="rgb(0,0,0)" stroke-width="0.25" >
<path d="M677.102,464.316 672.118,464.316 674.61,449.367 674.61,449.367 z" />
<path d="M677.102,501.674 672.118,501.674 674.61,516.624 674.61,516.624 z" />
</g>
<g clip-path="url(#clipId0)" fill="none" stroke="rgb(0,0,0)" stroke-width="0.1" >
<polyline points="623.366,449.367 623.366,449.367 " />
<polyline points="591.313,516.624 591.313,516.624 " />
<polyline points="674.61,516.624 674.61,516.624 " />
</g>
<g clip-path="url(#clipId0)" fill="none" stroke="rgb(0,0,0)" stroke-width="0.25" >
<polyline points="503.197,657.99 503.197,666.996 " />
<polyline points="503.197,662.278 504.055,661.421 504.912,660.992 506.199,660.992 507.057,661.421 507.914,662.278 508.343,663.565 508.343,664.423 507.914,665.709 507.057,666.567 506.199,666.996 504.912,666.996 504.055,666.567 503.197,665.709 " />
<polyline points="491.167,649.551 489.738,650.266 488.308,651.696 487.593,653.125 486.879,655.269 486.879,658.843 487.593,660.987 488.308,662.417 489.738,663.846 491.167,664.561 494.026,664.561 495.456,663.846 496.885,662.417 497.6,660.987 498.315,658.843 498.315,655.269 497.6,653.125 496.885,651.696 495.456,650.266 494.026,649.551 491.167,649.551 " />
<polyline points="493.311,661.702 497.6,665.991 " />
<polyline points="539.012,588.55 589.737,588.55 " />
<polyline points="10.754,662.292 10.754,672.298 " />
<polyline points="10.754,666.58 11.4687,664.436 12.8982,663.006 14.3277,662.292 16.472,662.292 " />
<polyline points="31.4818,654.429 18.6162,677.301 " />
<polyline points="35.7703,657.288 35.7703,672.298 " />
<polyline points="35.7703,657.288 40.7735,657.288 42.9178,658.003 44.3473,659.433 45.062,660.862 45.7768,663.006 45.7768,666.58 45.062,668.724 44.3473,670.154 42.9178,671.583 40.7735,672.298 35.7703,672.298 " />
<polyline points="80.7996,663.721 93.6651,663.721 " />
<polyline points="80.7996,668.01 93.6651,668.01 " />
<polyline points="115.822,660.147 117.252,659.433 119.396,657.288 119.396,672.298 " />
<polyline points="129.403,670.869 128.688,671.583 129.403,672.298 130.117,671.583 129.403,670.869 " />
<polyline points="143.698,657.288 136.55,657.288 135.835,663.721 136.55,663.006 138.694,662.292 140.839,662.292 142.983,663.006 144.412,664.436 145.127,666.58 145.127,668.01 144.412,670.154 142.983,671.583 140.839,672.298 138.694,672.298 136.55,671.583 135.835,670.869 135.121,669.439 " />
<polyline points="57.2549,668.62 56.826,667.763 55.9683,666.905 55.1106,666.476 53.3952,666.476 52.5375,666.905 51.6798,667.763 51.251,668.62 50.8221,669.907 50.8221,672.051 51.251,673.338 51.6798,674.195 52.5375,675.053 53.3952,675.482 55.1106,675.482 55.9683,675.053 56.826,674.195 57.2549,673.338 " />
<polyline points="908.082,714.098 905.986,712.001 902.841,710.953 898.648,710.953 895.503,712.001 893.406,714.098 893.406,716.195 894.454,718.291 895.503,719.34 897.599,720.388 903.889,722.484 905.986,723.533 907.034,724.581 908.082,726.678 908.082,729.823 905.986,731.919 902.841,732.968 898.648,732.968 895.503,731.919 893.406,729.823 " />
<polyline points="915.42,710.953 915.42,732.968 " />
<polyline points="915.42,710.953 922.759,710.953 925.903,712.001 928,714.098 929.048,716.195 930.097,719.34 930.097,724.581 929.048,727.726 928,729.823 925.903,731.919 922.759,732.968 915.42,732.968 " />
<polyline points="948.966,710.953 938.483,710.953 937.435,720.388 938.483,719.34 941.628,718.291 944.773,718.291 947.918,719.34 950.014,721.436 951.063,724.581 951.063,726.678 950.014,729.823 947.918,731.919 944.773,732.968 941.628,732.968 938.483,731.919 937.435,730.871 936.386,728.774 " />
<polyline points="958.401,723.533 977.27,723.533 " />
<polyline points="985.657,716.195 985.657,715.146 986.705,713.05 987.753,712.001 989.85,710.953 994.043,710.953 996.14,712.001 997.188,713.05 998.236,715.146 998.236,717.243 997.188,719.34 995.091,722.484 984.608,732.968 999.285,732.968 " />
<polyline points="1008.72,715.146 1010.82,714.098 1013.96,710.953 1013.96,732.968 " />
</g>
</svg>
