<?xml version="1.0" standalone="no"?>
<svg viewBox="0 0 1024 768" version="1.1" xmlns="http://www.w3.org/2000/svg" xmlns:xlink="http://www.w3.org/1999/xlink" stroke-linecap="round" stroke-linejoin="round" fill-rule="evenodd" xml:space="preserve" >
<defs >
<clipPath id="clipId0" >
<path d="M0,768 1024,768 1024,0 0,0 z" />
</clipPath>
</defs>
<g clip-path="url(#clipId0)" fill="none" stroke="rgb(0,0,0)" stroke-width="0.1" />
<g clip-path="url(#clipId0)" fill="none" stroke="rgb(0,0,0)" stroke-width="0.25" >
<polyline points="293.616,381.732 293.616,386.476 " />
<polyline points="293.616,381.732 295.65,381.732 296.328,381.957 296.554,382.183 296.78,382.635 296.78,383.087 296.554,383.539 296.328,383.765 295.65,383.991 " />
<polyline points="293.616,383.991 295.65,383.991 296.328,384.217 296.554,384.443 296.78,384.895 296.78,385.572 296.554,386.024 296.328,386.25 295.65,386.476 293.616,386.476 " />
<polyline points="298.361,381.732 298.361,386.476 " />
<polyline points="298.361,381.732 300.394,381.732 301.072,381.957 301.298,382.183 301.524,382.635 301.524,383.087 301.298,383.539 301.072,383.765 300.394,383.991 298.361,383.991 " />
<polyline points="299.943,383.991 301.524,386.476 " />
<polyline points="304.235,381.732 302.428,386.476 " />
<polyline points="304.235,381.732 306.043,386.476 " />
<polyline points="303.106,384.895 305.365,384.895 " />
<polyline points="307.173,381.732 307.173,386.476 " />
<polyline points="307.173,381.732 310.336,386.476 " />
<polyline points="310.336,381.732 310.336,386.476 " />
<polyline points="315.306,382.861 315.08,382.409 314.628,381.957 314.177,381.732 313.273,381.732 312.821,381.957 312.369,382.409 312.143,382.861 311.917,383.539 311.917,384.669 312.143,385.347 312.369,385.798 312.821,386.25 313.273,386.476 314.177,386.476 314.628,386.25 315.08,385.798 315.306,385.347 " />
<polyline points="316.888,381.732 316.888,386.476 " />
<polyline points="320.051,381.732 320.051,386.476 " />
<polyline points="316.888,383.991 320.051,383.991 " />
<polyline points="328.636,381.732 326.377,384.895 329.766,384.895 " />
<polyline points="328.636,381.732 328.636,386.476 " />
<polyline points="333.607,381.732 331.348,381.732 331.122,383.765 331.348,383.539 332.025,383.313 332.703,383.313 333.381,383.539 333.833,383.991 334.059,384.669 334.059,385.121 333.833,385.798 333.381,386.25 332.703,386.476 332.025,386.476 331.348,386.25 331.122,386.024 330.896,385.572 " />
<polyline points="346.033,381.732 346.033,386.476 " />
<polyline points="344.452,381.732 347.615,381.732 " />
<polyline points="349.874,381.732 349.422,381.957 348.971,382.409 348.745,382.861 348.519,383.539 348.519,384.669 348.745,385.347 348.971,385.798 349.422,386.25 349.874,386.476 350.778,386.476 351.23,386.25 351.682,385.798 351.908,385.347 352.134,384.669 352.134,383.539 351.908,382.861 351.682,382.409 351.23,381.957 350.778,381.732 349.874,381.732 " />
<polyline points="358.46,381.732 358.46,386.476 " />
<polyline points="358.46,381.732 360.267,386.476 " />
<polyline points="362.075,381.732 360.267,386.476 " />
<polyline points="362.075,381.732 362.075,386.476 " />
<polyline points="365.012,381.732 363.204,386.476 " />
<polyline points="365.012,381.732 366.819,386.476 " />
<polyline points="363.882,384.895 366.142,384.895 " />
<polyline points="367.949,381.732 367.949,386.476 " />
<polyline points="369.757,381.732 369.757,386.476 " />
<polyline points="369.757,381.732 372.92,386.476 " />
<polyline points="372.92,381.732 372.92,386.476 " />
<circle cx="337.644" cy="381.608" r="1.11058" />
<polyline points="355.598,354.432 384.387,358.676 " />
<polyline points="409.4,320.002 354.182,309.155 " />
<polyline points="511.934,391.609 512.406,390.662 512.817,389.753 513.129,388.969 513.362,388.281 513.534,387.661 513.665,387.081 513.771,386.516 513.857,385.956 513.926,385.393 513.979,384.82 514.019,384.228 514.049,383.611 514.071,382.961 514.086,382.271 514.098,381.535 514.103,380.758 514.099,379.949 514.082,379.116 514.05,378.265 513.999,377.404 513.927,376.542 513.83,375.686 513.707,374.843 513.558,374.014 513.385,373.201 513.19,372.404 512.974,371.624 512.739,370.862 512.487,370.118 512.22,369.395 511.938,368.692 511.645,368.009 511.342,367.346 511.03,366.702 510.711,366.077 510.387,365.47 510.06,364.882 509.731,364.311 509.401,363.756 509.067,363.215 508.727,362.683 508.376,362.157 508.012,361.633 507.63,361.106 507.228,360.573 506.802,360.031 506.35,359.476 505.87,358.911 505.365,358.339 504.835,357.763 504.281,357.187 503.704,356.615 503.104,356.05 502.483,355.495 501.842,354.953 501.183,354.425 500.51,353.909 499.825,353.406 499.131,352.914 498.432,352.435 497.731,351.966 497.029,351.508 496.331,351.061 495.633,350.624 494.935,350.198 494.234,349.784 493.527,349.382 492.814,348.993 492.09,348.616 491.356,348.253 490.608,347.903 489.85,347.567 489.084,347.244 488.313,346.936 487.541,346.641 486.77,346.36 486.003,346.092 485.243,345.838 484.493,345.598 483.751,345.373 483.017,345.163 482.287,344.97 481.561,344.793 480.837,344.635 480.113,344.495 479.387,344.375 478.658,344.276 477.926,344.195 477.193,344.132 476.461,344.085 475.729,344.053 474.998,344.033 474.271,344.025 473.548,344.028 472.826,344.04 472.084,344.069 471.297,344.123 470.439,344.208 469.487,344.334 468.414,344.509 467.751,344.634 " />
<polyline points="460.078,351.927 505.523,308.729 " />
<path d="M549.953,355.469  A17.5887,17.5887 0 0,0 527.691,332.143 " />
<path d="M527.691,332.143  A17.5887,17.5887 0 0,0 549.953,355.469 " />
<polyline points="551.298,309.37 533.792,326.341 " />
<path d="M527.691,332.143  A17.5887,17.5887 0 0,0 505.43,308.817 " />
</g>
<g clip-path="url(#clipId0)" fill="rgb(0,0,0)" stroke="rgb(0,0,0)" stroke-width="0.25" >
<path d="M552.253,310.361 550.344,308.38 557.239,303.645 557.239,303.645 z" />
</g>
<g clip-path="url(#clipId0)" fill="none" stroke="rgb(0,0,0)" stroke-width="0.25" >
<polyline points="420.371,389.673 420.758,389.377 423.241,387.552 425.114,386.247 426.521,385.343 427.604,384.716 428.509,384.247 429.353,383.834 430.163,383.455 430.938,383.109 431.679,382.795 432.387,382.51 433.064,382.254 433.708,382.025 434.322,381.821 434.907,381.641 435.464,381.481 435.998,381.338 436.51,381.207 437.005,381.085 437.485,380.968 437.952,380.853 438.411,380.736 438.863,380.613 439.31,380.487 439.753,380.357 440.192,380.225 440.628,380.094 441.061,379.964 441.493,379.837 441.925,379.714 442.356,379.598 442.788,379.487 443.222,379.382 443.658,379.284 444.097,379.191 444.539,379.104 444.986,379.023 445.439,378.948 445.897,378.879 446.36,378.816 446.828,378.756 447.299,378.701 447.774,378.648 448.251,378.598 448.729,378.549 449.208,378.501 449.687,378.453 450.168,378.404 450.652,378.351 451.14,378.294 451.635,378.231 452.137,378.16 452.647,378.081 453.169,377.991 453.701,377.889 454.244,377.777 454.794,377.656 455.349,377.528 455.907,377.393 456.466,377.254 457.023,377.113 457.577,376.969 458.125,376.825 458.665,376.68 459.196,376.532 459.717,376.379 460.226,376.22 460.721,376.053 461.202,375.878 461.666,375.692 462.112,375.495 462.541,375.285 462.954,375.064 463.351,374.83 463.733,374.585 464.1,374.328 464.455,374.058 464.796,373.777 465.126,373.484 465.444,373.178 465.752,372.861 466.05,372.532 466.339,372.191 466.62,371.838 466.893,371.473 467.16,371.096 467.42,370.707 467.672,370.307 467.913,369.896 468.142,369.476 468.356,369.046 468.552,368.609 468.73,368.164 468.885,367.712 469.017,367.255 469.127,366.794 469.218,366.335 469.292,365.879 469.35,365.43 469.395,364.991 469.43,364.565 469.456,364.156 469.475,363.765 469.484,363.386 469.48,363.013 469.46,362.637 469.42,362.252 469.357,361.85 469.268,361.423 469.149,360.965 468.982,360.456 468.686,359.831 468.166,359.012 467.325,357.922 466.068,356.485 464.299,354.621 463.956,354.28 " />
<polyline points="396.185,365.751 425.99,385.684 " />
<polyline points="463.956,354.28 429.222,332.265 " />
</g>
<g clip-path="url(#clipId0)" fill="none" stroke="rgb(0,0,0)" stroke-width="0.1" >
<polyline points="469.14,367.776 469.14,367.776 " />
<polyline points="469.524,363.945 469.524,363.945 " />
<polyline points="464.924,373.905 464.924,373.905 " />
<polyline points="467.224,371.223 467.224,371.223 " />
<polyline points="461.857,375.82 461.857,375.82 " />
<polyline points="468.079,358.008 468.079,358.008 " />
<polyline points="469.5,361.38 469.5,361.38 " />
<polyline points="457.641,376.969 457.641,376.969 " />
<polyline points="449.208,378.501 449.208,378.501 " />
<polyline points="453.041,378.118 453.041,378.118 " />
<polyline points="445.375,378.884 445.375,378.884 " />
<polyline points="441.925,379.651 441.925,379.651 " />
<polyline points="438.475,380.8 438.475,380.8 " />
<polyline points="434.642,381.566 434.642,381.566 " />
<polyline points="428.892,383.864 428.892,383.864 " />
<polyline points="423.525,386.929 423.525,386.929 " />
</g>
<g clip-path="url(#clipId0)" fill="none" stroke="rgb(0,0,0)" stroke-width="0.25" >
<polyline points="384.387,358.676 385.406,356.017 386.346,353.675 387.216,351.613 388.025,349.794 388.782,348.181 389.497,346.738 390.179,345.427 390.837,344.213 391.479,343.062 392.109,341.966 392.73,340.92 393.344,339.919 393.955,338.958 394.564,338.034 395.176,337.14 395.792,336.274 396.415,335.43 397.042,334.606 397.671,333.8 398.299,333.012 398.924,332.237 399.542,331.476 400.151,330.726 400.748,329.985 401.339,329.244 401.967,328.459 402.683,327.58 403.54,326.556 404.588,325.337 405.88,323.872 407.467,322.111 409.4,320.002 " />
<polyline points="396.185,365.751 384.387,358.676 " />
<polyline points="409.4,320.002 429.222,332.265 " />
<polyline points="278.845,343.431 306.524,339.07 " />
<path d="M315.005,337.213  A12.481,12.481 0 0,0 317.937,359.808 " />
<polyline points="354.182,309.155 355.169,311.845 356.015,314.276 356.735,316.473 357.343,318.465 357.853,320.277 358.28,321.939 358.638,323.475 358.941,324.915 359.201,326.283 359.422,327.593 359.607,328.861 359.757,330.098 359.873,331.319 359.958,332.537 360.014,333.765 360.042,335.016 360.041,336.31 359.998,337.692 359.897,339.212 359.722,340.921 359.457,342.87 359.085,345.108 358.591,347.688 357.957,350.658 " />
<polyline points="355.598,354.432 317.937,359.808 " />
<polyline points="357.957,350.658 355.598,354.432 " />
<polyline points="312.074,314.618 354.182,309.155 " />
<path d="M315.005,337.213  A12.481,12.481 0 0,0 312.074,314.618 " />
<path d="M312.074,314.618  A12.481,12.481 0 0,0 315.005,337.213 " />
</g>
<g clip-path="url(#clipId0)" fill="rgb(0,0,0)" stroke="rgb(0,0,0)" stroke-width="0.25" >
<path d="M278.629,342.073 279.061,344.789 270.697,344.727 270.697,344.727 z" />
</g>
<g clip-path="url(#clipId0)" fill="none" stroke="rgb(0,0,0)" stroke-width="0.25" >
<path d="M411.318,442.764  A17.5887,17.5887 0 0,0 433.579,466.09 " />
<path d="M389.057,419.438  A17.5887,17.5887 0 0,0 411.318,442.764 " />
<polyline points="457.05,443.78 457.309,443.298 457.837,442.237 458.248,441.328 458.561,440.544 458.794,439.855 458.966,439.235 459.097,438.656 459.203,438.091 459.289,437.531 459.357,436.968 459.411,436.395 459.451,435.803 459.481,435.186 459.502,434.536 459.518,433.845 459.53,433.109 459.535,432.333 459.53,431.524 459.514,430.691 459.481,429.84 459.431,428.979 459.359,428.117 459.262,427.261 459.139,426.418 458.99,425.589 458.817,424.776 458.621,423.978 458.405,423.198 458.171,422.436 457.919,421.693 457.651,420.97 457.37,420.267 457.077,419.584 456.774,418.921 456.462,418.277 456.143,417.652 455.819,417.045 455.492,416.456 455.162,415.885 454.832,415.331 454.499,414.79 454.159,414.258 453.808,413.732 453.444,413.207 453.062,412.681 452.66,412.148 452.234,411.606 451.781,411.051 451.302,410.486 450.797,409.913 450.267,409.338 449.713,408.762 449.135,408.19 448.536,407.625 447.915,407.07 447.274,406.528 446.615,406 445.942,405.484 445.257,404.98 444.563,404.489 443.864,404.009 443.162,403.541 442.461,403.083 441.762,402.636 441.065,402.199 440.367,401.773 439.665,401.359 438.959,400.957 438.245,400.568 437.522,400.191 436.788,399.827 436.04,399.478 435.282,399.142 434.516,398.819 433.745,398.511 432.972,398.216 432.201,397.935 431.434,397.667 430.675,397.413 429.925,397.173 429.183,396.948 428.449,396.738 427.719,396.545 426.993,396.368 426.269,396.21 425.544,396.07 424.818,395.95 424.089,395.85 423.358,395.77 422.625,395.707 421.892,395.66 421.16,395.627 420.43,395.608 419.703,395.6 418.98,395.603 418.258,395.615 417.516,395.644 416.728,395.697 415.871,395.783 414.919,395.909 413.846,396.084 413.572,396.135 " />
<polyline points="433.579,466.09 549.953,355.469 " />
</g>
<g clip-path="url(#clipId0)" fill="rgb(0,0,0)" stroke="rgb(0,0,0)" stroke-width="0.25" >
<path d="M398.381,457.793 396.452,455.833 403.297,451.026 403.297,451.026 z" />
</g>
<g clip-path="url(#clipId0)" fill="none" stroke="rgb(0,0,0)" stroke-width="0.25" >
<polyline points="397.416,456.813 376.115,478.443 " />
<polyline points="389.057,419.438 420.594,389.461 " />
<path d="M411.318,442.764  A17.5887,17.5887 0 0,0 389.057,419.438 " />
<polyline points="528.476,508.689 527.738,507.951 526.63,507.582 525.154,507.582 524.047,507.951 523.308,508.689 523.308,509.427 523.677,510.165 524.047,510.535 524.785,510.904 526.999,511.642 527.738,512.011 528.107,512.38 528.476,513.118 528.476,514.226 527.738,514.964 526.63,515.333 525.154,515.333 524.047,514.964 523.308,514.226 " />
<polyline points="531.06,507.582 531.06,515.333 " />
<polyline points="531.06,507.582 533.644,507.582 534.751,507.951 535.489,508.689 535.858,509.427 536.227,510.535 536.227,512.38 535.858,513.488 535.489,514.226 534.751,514.964 533.644,515.333 531.06,515.333 " />
<polyline points="542.871,507.582 539.18,507.582 538.811,510.904 539.18,510.535 540.288,510.165 541.395,510.165 542.502,510.535 543.24,511.273 543.61,512.38 543.61,513.118 543.24,514.226 542.502,514.964 541.395,515.333 540.288,515.333 539.18,514.964 538.811,514.595 538.442,513.857 " />
<polyline points="546.193,512.011 552.837,512.011 " />
<polyline points="556.529,509.058 557.267,508.689 558.374,507.582 558.374,515.333 " />
<polyline points="567.602,508.689 567.233,507.951 566.125,507.582 565.387,507.582 564.28,507.951 563.542,509.058 563.173,510.904 563.173,512.749 563.542,514.226 564.28,514.964 565.387,515.333 565.756,515.333 566.864,514.964 567.602,514.226 567.971,513.118 567.971,512.749 567.602,511.642 566.864,510.904 565.756,510.535 565.387,510.535 564.28,510.904 563.542,511.642 563.173,512.749 " />
<polyline points="636.93,118.151 753.303,7.52941 " />
</g>
<g clip-path="url(#clipId0)" fill="rgb(0,0,0)" stroke="rgb(0,0,0)" stroke-width="0.25" >
<path d="M321.53,361.159 322.669,362.683 326.672,358.504 326.672,358.504 z" />
</g>
<g clip-path="url(#clipId0)" fill="none" stroke="rgb(0,0,0)" stroke-width="0.25" >
<polyline points="322.096,361.918 278.234,383.973 " />
<polyline points="278.232,383.922 287.725,383.922 " />
<polyline points="374.684,459.759 374.14,460.031 373.597,460.574 373.325,461.118 373.053,461.933 373.053,463.292 373.325,464.108 373.597,464.651 374.14,465.195 374.684,465.467 375.771,465.467 376.315,465.195 376.858,464.651 377.13,464.108 377.402,463.292 377.402,461.933 377.13,461.118 376.858,460.574 376.315,460.031 375.771,459.759 374.684,459.759 " />
<polyline points="375.499,464.38 377.13,466.01 " />
<polyline points="391.888,468.652 389.714,474.36 " />
<polyline points="391.888,468.652 394.063,474.36 " />
<polyline points="390.529,472.457 393.247,472.457 " />
<polyline points="290.356,332.969 290.356,337.409 " />
<polyline points="290.356,335.083 290.779,334.66 291.202,334.449 291.836,334.449 292.259,334.66 292.682,335.083 292.893,335.718 292.893,336.14 292.682,336.775 292.259,337.197 291.836,337.409 291.202,337.409 290.779,337.197 290.356,336.775 " />
<polyline points="544.277,308.405 544.065,307.982 543.431,307.77 542.797,307.77 542.163,307.982 541.951,308.405 542.163,308.827 542.586,309.039 543.643,309.25 544.065,309.462 544.277,309.884 544.277,310.096 544.065,310.519 543.431,310.73 542.797,310.73 542.163,310.519 541.951,310.096 " />
<polyline points="399.139,474.406 398.716,473.983 398.293,473.772 397.659,473.772 397.236,473.983 396.814,474.406 396.602,475.04 396.602,475.463 396.814,476.097 397.236,476.52 397.659,476.731 398.293,476.731 398.716,476.52 399.139,476.097 " />
<polyline points="430.906,147.391 430.362,147.663 429.818,148.207 429.547,148.75 429.275,149.566 429.275,150.925 429.547,151.74 429.818,152.284 430.362,152.827 430.906,153.099 431.993,153.099 432.536,152.827 433.08,152.284 433.352,151.74 433.624,150.925 433.624,149.566 433.352,148.75 433.08,148.207 432.536,147.663 431.993,147.391 430.906,147.391 " />
<polyline points="431.721,152.012 433.352,153.643 " />
<polyline points="382.528,464.92 382.105,464.497 381.682,464.286 381.048,464.286 380.625,464.497 380.202,464.92 379.991,465.554 379.991,465.977 380.202,466.611 380.625,467.034 381.048,467.245 381.682,467.245 382.105,467.034 382.528,466.611 " />
<polyline points="537.238,302.058 536.694,302.33 536.15,302.873 535.879,303.417 535.607,304.232 535.607,305.591 535.879,306.407 536.15,306.95 536.694,307.494 537.238,307.766 538.325,307.766 538.868,307.494 539.412,306.95 539.684,306.407 539.956,305.591 539.956,304.232 539.684,303.417 539.412,302.873 538.868,302.33 538.325,302.058 537.238,302.058 " />
<polyline points="538.053,306.678 539.684,308.309 " />
<polyline points="284.838,328.144 284.294,328.416 283.75,328.959 283.479,329.503 283.207,330.318 283.207,331.677 283.479,332.493 283.75,333.036 284.294,333.58 284.838,333.852 285.925,333.852 286.468,333.58 287.012,333.036 287.284,332.493 287.556,331.677 287.556,330.318 287.284,329.503 287.012,328.959 286.468,328.416 285.925,328.144 284.838,328.144 " />
<polyline points="285.653,332.764 287.284,334.395 " />
<polyline points="291.957,345.337 289.782,351.045 " />
<polyline points="291.957,345.337 294.131,351.045 " />
<polyline points="290.598,349.142 293.316,349.142 " />
<polyline points="297.475,349.569 297.475,354.009 " />
<polyline points="297.475,351.683 297.898,351.261 298.321,351.049 298.955,351.049 299.378,351.261 299.801,351.683 300.012,352.318 300.012,352.74 299.801,353.375 299.378,353.797 298.955,354.009 298.321,354.009 297.898,353.797 297.475,353.375 " />
<polyline points="549.103,317.472 546.928,323.18 " />
<polyline points="549.103,317.472 551.277,323.18 " />
<polyline points="547.744,321.277 550.462,321.277 " />
<polyline points="556.142,322.633 555.931,322.21 555.296,321.999 554.662,321.999 554.028,322.21 553.817,322.633 554.028,323.056 554.451,323.267 555.508,323.479 555.931,323.69 556.142,324.113 556.142,324.324 555.931,324.747 555.296,324.959 554.662,324.959 554.028,324.747 553.817,324.324 " />
<polyline points="389.629,281.958 389.391,281.483 388.677,281.245 388.202,281.245 387.488,281.483 387.012,282.196 386.775,283.385 386.775,284.575 387.012,285.526 387.488,286.001 388.202,286.239 388.439,286.239 389.153,286.001 389.629,285.526 389.866,284.812 389.866,284.575 389.629,283.861 389.153,283.385 388.439,283.148 388.202,283.148 387.488,283.385 387.012,283.861 386.775,284.575 " />
<polyline points="392.72,281.245 392.007,281.483 391.531,282.196 391.293,283.385 391.293,284.099 391.531,285.288 392.007,286.001 392.72,286.239 393.196,286.239 393.909,286.001 394.385,285.288 394.623,284.099 394.623,283.385 394.385,282.196 393.909,281.483 393.196,281.245 392.72,281.245 " />
<polyline points="396.525,281.721 396.471,281.5 396.32,281.329 396.107,281.248 395.881,281.276 395.694,281.405 395.588,281.607 395.588,281.834 395.694,282.036 395.881,282.165 396.107,282.193 396.32,282.112 396.471,281.942 396.525,281.721 " />
<polyline points="403.422,281.245 403.422,286.239 " />
<polyline points="403.422,281.245 406.514,281.245 " />
<polyline points="403.422,283.623 405.325,283.623 " />
<polyline points="403.422,286.239 406.514,286.239 " />
<polyline points="407.941,281.245 407.941,286.239 410.795,286.239 " />
<polyline points="411.984,281.245 411.984,286.239 " />
<polyline points="411.984,281.245 414.125,281.245 414.838,281.483 415.076,281.721 415.314,282.196 415.314,282.672 415.076,283.148 414.838,283.385 414.125,283.623 " />
<polyline points="411.984,283.623 414.125,283.623 414.838,283.861 415.076,284.099 415.314,284.575 415.314,285.288 415.076,285.764 414.838,286.001 414.125,286.239 411.984,286.239 " />
<polyline points="418.168,281.245 417.692,281.483 417.216,281.958 416.979,282.434 416.741,283.148 416.741,284.337 416.979,285.05 417.216,285.526 417.692,286.001 418.168,286.239 419.119,286.239 419.595,286.001 420.07,285.526 420.308,285.05 420.546,284.337 420.546,283.148 420.308,282.434 420.07,281.958 419.595,281.483 419.119,281.245 418.168,281.245 " />
<polyline points="421.735,281.245 422.924,286.239 " />
<polyline points="424.113,281.245 422.924,286.239 " />
<polyline points="424.113,281.245 425.302,286.239 " />
<polyline points="426.492,281.245 425.302,286.239 " />
<polyline points="428.394,286.001 428.156,286.239 427.919,286.001 428.156,285.764 428.394,286.001 428.394,286.477 428.156,286.953 427.919,287.191 " />
<polyline points="435.291,282.91 435.291,286.239 " />
<polyline points="435.291,284.337 435.529,283.623 436.005,283.148 436.48,282.91 437.194,282.91 " />
<polyline points="442.188,280.294 437.907,287.904 " />
<polyline points="443.615,281.245 443.615,286.239 " />
<polyline points="443.615,281.245 445.28,281.245 445.993,281.483 446.469,281.958 446.707,282.434 446.945,283.148 446.945,284.337 446.707,285.05 446.469,285.526 445.993,286.001 445.28,286.239 443.615,286.239 " />
<polyline points="453.604,283.385 457.885,283.385 " />
<polyline points="453.604,284.812 457.885,284.812 " />
<polyline points="465.257,282.196 465.733,281.958 466.446,281.245 466.446,286.239 " />
<polyline points="469.776,285.764 469.538,286.001 469.776,286.239 470.014,286.001 469.776,285.764 " />
<polyline points="474.533,281.245 472.154,281.245 471.916,283.385 472.154,283.148 472.868,282.91 473.581,282.91 474.295,283.148 474.77,283.623 475.008,284.337 475.008,284.812 474.77,285.526 474.295,286.001 473.581,286.239 472.868,286.239 472.154,286.001 471.916,285.764 471.679,285.288 " />
<polyline points="483.332,280.294 482.856,280.769 482.381,281.483 481.905,282.434 481.667,283.623 481.667,284.575 481.905,285.764 482.381,286.715 482.856,287.428 483.332,287.904 " />
<polyline points="488.326,282.434 488.089,281.958 487.613,281.483 487.137,281.245 486.186,281.245 485.71,281.483 485.235,281.958 484.997,282.434 484.759,283.148 484.759,284.337 484.997,285.05 485.235,285.526 485.71,286.001 486.186,286.239 487.137,286.239 487.613,286.001 488.089,285.526 488.326,285.05 " />
<polyline points="489.991,281.245 489.991,286.239 " />
<polyline points="489.991,281.245 491.656,281.245 492.369,281.483 492.845,281.958 493.083,282.434 493.321,283.148 493.321,284.337 493.083,285.05 492.845,285.526 492.369,286.001 491.656,286.239 489.991,286.239 " />
<polyline points="495.223,281.245 497.839,281.245 496.413,283.148 497.126,283.148 497.602,283.385 497.839,283.623 498.077,284.337 498.077,284.812 497.839,285.526 497.364,286.001 496.65,286.239 495.937,286.239 495.223,286.001 494.986,285.764 494.748,285.288 " />
<polyline points="499.742,284.099 504.023,284.099 " />
<polyline points="506.401,282.196 506.877,281.958 507.59,281.245 507.59,286.239 " />
<polyline points="510.92,281.245 513.536,281.245 512.109,283.148 512.823,283.148 513.298,283.385 513.536,283.623 513.774,284.337 513.774,284.812 513.536,285.526 513.06,286.001 512.347,286.239 511.633,286.239 510.92,286.001 510.682,285.764 510.444,285.288 " />
<polyline points="515.201,280.294 515.676,280.769 516.152,281.483 516.628,282.434 516.866,283.623 516.866,284.575 516.628,285.764 516.152,286.715 515.676,287.428 515.201,287.904 " />
</g>
<g clip-path="url(#clipId0)" fill="rgb(0,0,0)" stroke="rgb(0,0,0)" stroke-width="0.25" >
<path d="M381.441,309.054 379.661,309.726 382.566,314.731 382.566,314.731 z" />
</g>
<g clip-path="url(#clipId0)" fill="none" stroke="rgb(0,0,0)" stroke-width="0.25" >
<polyline points="380.551,309.39 371.051,283.722 " />
<polyline points="371.051,283.722 377.577,283.722 " />
<polyline points="377.577,283.722 380.431,283.722 " />
<polyline points="496.282,440.18 495.854,439.752 495.212,439.538 494.356,439.538 493.714,439.752 493.286,440.18 493.286,440.608 493.5,441.036 493.714,441.25 494.142,441.464 495.426,441.892 495.854,442.106 496.068,442.32 496.282,442.748 496.282,443.39 495.854,443.819 495.212,444.033 494.356,444.033 493.714,443.819 493.286,443.39 " />
<polyline points="498.637,439.538 498.637,444.033 " />
<polyline points="497.138,439.538 500.135,439.538 " />
<polyline points="501.205,439.538 501.205,444.033 " />
<polyline points="501.205,439.538 503.132,439.538 503.774,439.752 503.988,439.966 504.202,440.394 504.202,440.822 503.988,441.25 503.774,441.464 503.132,441.678 501.205,441.678 " />
<polyline points="502.703,441.678 504.202,444.033 " />
<polyline points="506.77,439.538 505.058,444.033 " />
<polyline points="506.77,439.538 508.483,444.033 " />
<polyline points="505.7,442.534 507.84,442.534 " />
<polyline points="509.553,439.538 509.553,444.033 " />
<polyline points="514.262,440.608 514.048,440.18 513.62,439.752 513.192,439.538 512.335,439.538 511.907,439.752 511.479,440.18 511.265,440.608 511.051,441.25 511.051,442.32 511.265,442.962 511.479,443.39 511.907,443.819 512.335,444.033 513.192,444.033 513.62,443.819 514.048,443.39 514.262,442.962 514.262,442.32 " />
<polyline points="513.192,442.32 514.262,442.32 " />
<polyline points="515.76,439.538 515.76,444.033 " />
<polyline points="518.757,439.538 518.757,444.033 " />
<polyline points="515.76,441.678 518.757,441.678 " />
<polyline points="521.325,439.538 521.325,444.033 " />
<polyline points="519.827,439.538 522.824,439.538 " />
<polyline points="529.245,439.538 529.245,444.033 " />
<polyline points="527.747,439.538 530.743,439.538 " />
<polyline points="531.813,439.538 531.813,444.033 " />
<polyline points="531.813,439.538 534.596,439.538 " />
<polyline points="531.813,441.678 533.526,441.678 " />
<polyline points="531.813,444.033 534.596,444.033 " />
<polyline points="535.88,439.538 535.88,444.033 " />
<polyline points="535.88,439.538 538.663,439.538 " />
<polyline points="535.88,441.678 537.593,441.678 " />
<polyline points="535.88,444.033 538.663,444.033 " />
<polyline points="545.94,438.681 545.512,439.11 545.084,439.752 544.656,440.608 544.442,441.678 544.442,442.534 544.656,443.604 545.084,444.461 545.512,445.103 545.94,445.531 " />
<polyline points="550.221,440.18 549.793,439.752 549.151,439.538 548.295,439.538 547.653,439.752 547.225,440.18 547.225,440.608 547.439,441.036 547.653,441.25 548.081,441.464 549.365,441.892 549.793,442.106 550.007,442.32 550.221,442.748 550.221,443.39 549.793,443.819 549.151,444.033 548.295,444.033 547.653,443.819 547.225,443.39 " />
<polyline points="551.719,439.538 551.719,444.033 " />
<polyline points="551.719,439.538 553.218,439.538 553.86,439.752 554.288,440.18 554.502,440.608 554.716,441.25 554.716,442.32 554.502,442.962 554.288,443.39 553.86,443.819 553.218,444.033 551.719,444.033 " />
<polyline points="558.569,439.538 556.428,439.538 556.214,441.464 556.428,441.25 557.071,441.036 557.713,441.036 558.355,441.25 558.783,441.678 558.997,442.32 558.997,442.748 558.783,443.39 558.355,443.819 557.713,444.033 557.071,444.033 556.428,443.819 556.214,443.604 556,443.176 " />
<polyline points="560.495,442.106 564.348,442.106 " />
<polyline points="568.629,441.036 568.415,441.678 567.987,442.106 567.345,442.32 567.131,442.32 566.488,442.106 566.06,441.678 565.846,441.036 565.846,440.822 566.06,440.18 566.488,439.752 567.131,439.538 567.345,439.538 567.987,439.752 568.415,440.18 568.629,441.036 568.629,442.106 568.415,443.176 567.987,443.819 567.345,444.033 566.917,444.033 566.274,443.819 566.06,443.39 " />
<polyline points="570.127,438.681 570.555,439.11 570.983,439.752 571.411,440.608 571.625,441.678 571.625,442.534 571.411,443.604 570.983,444.461 570.555,445.103 570.127,445.531 " />
<polyline points="492.939,447.646 492.939,454.495 " />
<polyline points="492.939,447.646 494.437,447.646 " />
<polyline points="492.939,454.495 494.437,454.495 " />
<polyline points="496.792,448.502 496.792,452.997 " />
<polyline points="495.293,448.502 498.29,448.502 " />
<polyline points="499.36,448.502 499.36,452.997 " />
<polyline points="499.36,448.502 502.143,448.502 " />
<polyline points="499.36,450.642 501.073,450.642 " />
<polyline points="499.36,452.997 502.143,452.997 " />
<polyline points="503.427,448.502 503.427,452.997 " />
<polyline points="503.427,448.502 506.21,448.502 " />
<polyline points="503.427,450.642 505.139,450.642 " />
<polyline points="503.427,452.997 506.21,452.997 " />
<polyline points="511.989,448.502 511.989,452.997 " />
<polyline points="511.989,448.502 513.915,448.502 514.557,448.716 514.771,448.93 514.985,449.358 514.985,449.786 514.771,450.214 514.557,450.428 513.915,450.642 511.989,450.642 " />
<polyline points="513.487,450.642 514.985,452.997 " />
<polyline points="517.554,448.502 517.126,448.716 516.698,449.144 516.484,449.572 516.27,450.214 516.27,451.284 516.484,451.926 516.698,452.355 517.126,452.783 517.554,452.997 518.41,452.997 518.838,452.783 519.266,452.355 519.48,451.926 519.694,451.284 519.694,450.214 519.48,449.572 519.266,449.144 518.838,448.716 518.41,448.502 517.554,448.502 " />
<polyline points="521.193,448.502 521.193,452.997 523.761,452.997 " />
<polyline points="524.831,448.502 524.831,452.997 527.4,452.997 " />
<polyline points="528.47,448.502 528.47,452.997 " />
<polyline points="528.47,448.502 531.253,448.502 " />
<polyline points="528.47,450.642 530.183,450.642 " />
<polyline points="528.47,452.997 531.253,452.997 " />
<polyline points="532.537,448.502 532.537,452.997 " />
<polyline points="532.537,448.502 534.035,448.502 534.677,448.716 535.106,449.144 535.32,449.572 535.534,450.214 535.534,451.284 535.32,451.926 535.106,452.355 534.677,452.783 534.035,452.997 532.537,452.997 " />
<polyline points="543.453,448.502 541.313,451.498 544.523,451.498 " />
<polyline points="543.453,448.502 543.453,452.997 " />
<polyline points="548.162,448.502 546.022,448.502 545.808,450.428 546.022,450.214 546.664,450 547.306,450 547.948,450.214 548.376,450.642 548.59,451.284 548.59,451.712 548.376,452.355 547.948,452.783 547.306,452.997 546.664,452.997 546.022,452.783 545.808,452.569 545.594,452.14 " />
<polyline points="550.303,448.93 550.254,448.731 550.118,448.578 549.926,448.505 549.723,448.53 549.554,448.646 549.459,448.827 549.459,449.032 549.554,449.214 549.723,449.33 549.926,449.355 550.118,449.282 550.254,449.129 550.303,448.93 " />
<polyline points="495.742,456.906 495.742,461.4 " />
<polyline points="495.742,456.906 498.525,456.906 " />
<polyline points="495.742,459.046 497.454,459.046 " />
<polyline points="499.595,456.906 499.595,461.4 " />
<polyline points="499.595,456.906 501.521,456.906 502.163,457.12 502.377,457.334 502.591,457.762 502.591,458.19 502.377,458.618 502.163,458.832 501.521,459.046 499.595,459.046 " />
<polyline points="501.093,459.046 502.591,461.4 " />
<polyline points="505.16,456.906 504.732,457.12 504.304,457.548 504.09,457.976 503.876,458.618 503.876,459.688 504.09,460.33 504.304,460.758 504.732,461.186 505.16,461.4 506.016,461.4 506.444,461.186 506.872,460.758 507.086,460.33 507.3,459.688 507.3,458.618 507.086,457.976 506.872,457.548 506.444,457.12 506.016,456.906 505.16,456.906 " />
<polyline points="508.799,456.906 508.799,461.4 " />
<polyline points="508.799,456.906 510.511,461.4 " />
<polyline points="512.223,456.906 510.511,461.4 " />
<polyline points="512.223,456.906 512.223,461.4 " />
<polyline points="518.431,456.906 518.431,461.4 " />
<polyline points="521.427,456.906 521.427,461.4 " />
<polyline points="518.431,459.046 521.427,459.046 " />
<polyline points="524.21,456.906 523.782,457.12 523.354,457.548 523.14,457.976 522.926,458.618 522.926,459.688 523.14,460.33 523.354,460.758 523.782,461.186 524.21,461.4 525.066,461.4 525.494,461.186 525.922,460.758 526.136,460.33 526.35,459.688 526.35,458.618 526.136,457.976 525.922,457.548 525.494,457.12 525.066,456.906 524.21,456.906 " />
<polyline points="527.849,456.906 527.849,461.4 " />
<polyline points="527.849,456.906 529.775,456.906 530.417,457.12 530.631,457.334 530.845,457.762 530.845,458.19 530.631,458.618 530.417,458.832 529.775,459.046 527.849,459.046 " />
<polyline points="529.347,459.046 530.845,461.4 " />
<polyline points="532.344,456.906 532.344,461.4 " />
<polyline points="536.838,456.906 533.842,461.4 " />
<polyline points="533.842,456.906 536.838,456.906 " />
<polyline points="533.842,461.4 536.838,461.4 " />
<polyline points="539.407,456.906 538.979,457.12 538.551,457.548 538.337,457.976 538.123,458.618 538.123,459.688 538.337,460.33 538.551,460.758 538.979,461.186 539.407,461.4 540.263,461.4 540.691,461.186 541.119,460.758 541.333,460.33 541.547,459.688 541.547,458.618 541.333,457.976 541.119,457.548 540.691,457.12 540.263,456.906 539.407,456.906 " />
<polyline points="543.046,456.906 543.046,461.4 " />
<polyline points="543.046,456.906 546.042,461.4 " />
<polyline points="546.042,456.906 546.042,461.4 " />
<polyline points="548.611,456.906 548.611,461.4 " />
<polyline points="547.113,456.906 550.109,456.906 " />
<polyline points="552.25,456.906 550.537,461.4 " />
<polyline points="552.25,456.906 553.962,461.4 " />
<polyline points="551.179,459.902 553.32,459.902 " />
<polyline points="555.032,456.906 555.032,461.4 557.601,461.4 " />
<polyline points="559.741,456.049 559.741,462.899 " />
<polyline points="558.243,456.049 559.741,456.049 " />
<polyline points="558.243,462.899 559.741,462.899 " />
</g>
<g clip-path="url(#clipId0)" fill="rgb(0,0,0)" stroke="rgb(0,0,0)" stroke-width="0.25" >
<path d="M473.527,435.901 474.981,434.674 470.572,430.926 470.572,430.926 z" />
</g>
<g clip-path="url(#clipId0)" fill="none" stroke="rgb(0,0,0)" stroke-width="0.25" >
<polyline points="474.254,435.288 480.211,442.345 " />
<polyline points="480.211,442.345 484.957,442.345 " />
<polyline points="484.957,442.345 487.811,442.345 " />
<polyline points="334.918,357.313 335.584,355.713 336.249,353.899 336.79,352.202 337.221,350.618 337.56,349.139 337.821,347.759 338.022,346.473 338.178,345.274 338.302,344.155 338.398,343.102 338.467,342.101 338.508,341.139 338.523,340.199 338.512,339.269 338.476,338.334 338.415,337.379 338.33,336.394 338.223,335.38 338.096,334.344 337.949,333.292 337.786,332.229 337.608,331.162 337.416,330.096 337.213,329.038 336.999,327.992 336.773,326.957 336.534,325.934 336.278,324.92 336.004,323.914 335.71,322.914 335.393,321.921 335.052,320.931 334.684,319.943 334.281,318.947 333.838,317.932 333.348,316.887 332.803,315.802 332.196,314.665 331.521,313.467 330.771,312.195 " />
<polyline points="429.226,332.228 425.766,335.485 422.764,338.395 420.164,341.004 417.913,343.357 415.955,345.498 414.236,347.473 412.701,349.328 411.294,351.106 409.967,352.857 408.683,354.635 407.411,356.502 406.121,358.515 404.783,360.733 403.364,363.217 401.834,366.025 400.55,368.477 " />
<polyline points="422.615,382.258 423.355,380.718 424.157,379.271 425.014,377.899 425.923,376.584 426.878,375.307 427.874,374.05 428.906,372.797 429.969,371.528 431.06,370.23 432.182,368.899 433.342,367.538 434.546,366.149 435.8,364.731 437.109,363.288 438.481,361.819 439.92,360.327 441.434,358.814 443.041,357.287 444.759,355.755 446.606,354.225 448.6,352.707 450.76,351.207 453.104,349.736 455.053,348.637 " />
</g>
</svg>
