<?xml version="1.0" standalone="no"?>
<svg viewBox="0 0 1024 768" version="1.1" xmlns="http://www.w3.org/2000/svg" xmlns:xlink="http://www.w3.org/1999/xlink" stroke-linecap="round" stroke-linejoin="round" fill-rule="evenodd" xml:space="preserve" >
<defs >
<clipPath id="clipId0" >
<path d="M0,768 1024,768 1024,0 0,0 z" />
</clipPath>
</defs>
<g clip-path="url(#clipId0)" fill="none" stroke="rgb(0,0,0)" stroke-width="0.1" />
<g clip-path="url(#clipId0)" fill="none" stroke="rgb(0,0,0)" stroke-width="0.25" >
<polyline points="140.734,302.524 140.734,457.221 " />
<polyline points="140.734,457.221 164.905,457.221 " />
<polyline points="140.734,302.524 164.905,302.524 " />
<polyline points="295.431,457.221 295.431,302.524 " />
<polyline points="348.608,328.306 372.78,328.306 " />
<polyline points="348.608,431.438 372.78,431.438 " />
<polyline points="372.78,431.438 372.78,328.306 " />
<polyline points="295.431,302.524 345.731,327.674 " />
<polyline points="345.731,432.071 295.431,457.221 " />
<circle cx="644.192" cy="379.872" r="51.5657" />
<circle cx="644.192" cy="379.872" r="77.3486" />
<polyline points="744.464,352.525 671.539,279.6 " />
<polyline points="648.496,302.643 671.539,279.6 " />
<polyline points="721.421,375.568 744.464,352.525 " />
<polyline points="771.81,306.947 717.117,252.254 " />
<polyline points="168.128,302.524 168.128,457.221 " />
<polyline points="164.905,302.524 164.905,457.221 " />
<path d="M168.128,302.524  A1.67857,1.67857 0 0,0 164.905,302.524 " />
<polyline points="168.128,302.524 295.431,302.524 " />
<path d="M164.905,457.221  A1.67857,1.67857 0 0,0 168.128,457.221 " />
<polyline points="168.128,457.221 295.431,457.221 " />
<polyline points="348.608,431.438 348.608,328.306 " />
<polyline points="345.385,431.438 345.385,328.306 " />
<path d="M348.608,328.306  A1.67857,1.67857 0 0,0 345.385,328.306 " />
<path d="M345.385,431.438  A1.67857,1.67857 0 0,0 348.608,431.438 " />
</g>
<g clip-path="url(#clipId0)" fill="rgb(0,0,0)" stroke="rgb(0,0,0)" stroke-width="0.25" >
<path d="M60.522,375.927 60.522,382.734 80.9421,379.33 80.9421,379.33 z" />
</g>
<g clip-path="url(#clipId0)" fill="none" stroke="rgb(0,0,0)" stroke-width="0.25" >
<polyline points="60.522,379.33 10.0392,379.33 " />
</g>
<g clip-path="url(#clipId0)" fill="rgb(0,0,0)" stroke="rgb(0,0,0)" stroke-width="0.25" >
<path d="M483.325,376.463 483.325,383.27 503.745,379.867 503.745,379.867 z" />
</g>
<g clip-path="url(#clipId0)" fill="none" stroke="rgb(0,0,0)" stroke-width="0.25" >
<polyline points="483.325,379.867 432.842,379.867 " />
</g>
<g clip-path="url(#clipId0)" fill="rgb(0,0,0)" stroke="rgb(0,0,0)" stroke-width="0.25" >
<path d="M993.541,205.791 993.541,212.598 1013.96,209.194 1013.96,209.194 z" />
</g>
<g clip-path="url(#clipId0)" fill="none" stroke="rgb(0,0,0)" stroke-width="0.25" >
<polyline points="993.541,209.194 943.058,209.194 " />
<polyline points="295.431,293.929 295.431,265.887 " />
<polyline points="346.997,318.504 346.997,265.887 " />
<polyline points="310.901,270.185 331.527,270.185 " />
</g>
<g clip-path="url(#clipId0)" fill="rgb(0,0,0)" stroke="rgb(0,0,0)" stroke-width="0.25" >
<path d="M310.901,272.763 310.901,267.606 295.431,270.185 295.431,270.185 z" />
<path d="M331.527,272.763 331.527,267.606 346.997,270.185 346.997,270.185 z" />
</g>
<g clip-path="url(#clipId0)" fill="none" stroke="rgb(0,0,0)" stroke-width="0.1" >
<polyline points="295.431,302.524 295.431,302.524 " />
<polyline points="346.997,327.098 346.997,327.098 " />
<polyline points="346.997,270.185 346.997,270.185 " />
</g>
<g clip-path="url(#clipId0)" fill="none" stroke="rgb(0,0,0)" stroke-width="0.25" >
<polyline points="98.1436,372.391 98.1436,385.282 " />
<polyline points="98.1436,372.391 102.441,372.391 104.282,373.004 105.51,374.232 106.124,375.46 106.738,377.302 106.738,380.371 106.124,382.213 105.51,383.44 104.282,384.668 102.441,385.282 98.1436,385.282 " />
<polyline points="115.191,381.828 114.823,381.091 114.086,380.355 113.35,379.986 111.876,379.986 111.14,380.355 110.403,381.091 110.035,381.828 109.667,382.933 109.667,384.775 110.035,385.88 110.403,386.616 111.14,387.353 111.876,387.721 113.35,387.721 114.086,387.353 114.823,386.616 115.191,385.88 " />
<polyline points="28.9275,386.79 23.5254,400.971 " />
<polyline points="28.9275,386.79 34.3296,400.971 " />
<polyline points="25.5512,396.244 32.3039,396.244 " />
<polyline points="45.8437,396.635 45.4385,395.825 44.6282,395.014 43.8179,394.609 42.1973,394.609 41.3869,395.014 40.5766,395.825 40.1715,396.635 39.7663,397.85 39.7663,399.876 40.1715,401.092 40.5766,401.902 41.3869,402.712 42.1973,403.117 43.8179,403.117 44.6282,402.712 45.4385,401.902 45.8437,401.092 " />
<polyline points="299.43,244.994 299.43,257.885 " />
<polyline points="299.43,244.994 303.727,244.994 305.569,245.608 306.796,246.835 307.41,248.063 308.024,249.905 308.024,252.974 307.41,254.816 306.796,256.043 305.569,257.271 303.727,257.885 299.43,257.885 " />
<polyline points="325.213,252.36 336.262,252.36 " />
<polyline points="341.174,244.994 341.174,257.885 " />
<polyline points="341.174,244.994 345.471,244.994 347.312,245.608 348.54,246.835 349.154,248.063 349.768,249.905 349.768,252.974 349.154,254.816 348.54,256.043 347.312,257.271 345.471,257.885 341.174,257.885 " />
<polyline points="384.145,242.538 382.917,243.766 381.689,245.608 380.462,248.063 379.848,251.132 379.848,253.588 380.462,256.657 381.689,259.113 382.917,260.954 384.145,262.182 " />
<polyline points="389.67,247.449 390.898,246.835 392.739,244.994 392.739,257.885 " />
<polyline points="401.947,243.152 401.333,243.766 400.72,243.152 401.333,242.538 401.947,243.152 401.947,244.38 401.333,245.608 400.72,246.221 " />
<polyline points="405.631,243.152 405.017,243.766 404.403,243.152 405.017,242.538 405.631,243.152 405.631,244.38 405.017,245.608 404.403,246.221 " />
<polyline points="413.611,242.538 412.383,243.766 411.156,245.608 409.928,248.063 409.314,251.132 409.314,253.588 409.928,256.657 411.156,259.113 412.383,260.954 413.611,262.182 " />
<polyline points="417.908,248.063 417.908,247.449 418.522,246.221 419.136,245.608 420.364,244.994 422.819,244.994 424.047,245.608 424.661,246.221 425.275,247.449 425.275,248.677 424.661,249.905 423.433,251.746 417.294,257.885 425.889,257.885 " />
<polyline points="436.938,244.994 430.8,244.994 430.186,250.519 430.8,249.905 432.641,249.291 434.483,249.291 436.325,249.905 437.552,251.132 438.166,252.974 438.166,254.202 437.552,256.043 436.325,257.271 434.483,257.885 432.641,257.885 430.8,257.271 430.186,256.657 429.572,255.43 " />
<polyline points="442.463,249.291 442.463,257.885 " />
<polyline points="442.463,251.746 444.305,249.905 445.533,249.291 447.374,249.291 448.602,249.905 449.216,251.746 449.216,257.885 " />
<polyline points="449.216,251.746 451.058,249.905 452.285,249.291 454.127,249.291 455.355,249.905 455.969,251.746 455.969,257.885 " />
<polyline points="460.88,249.291 460.88,257.885 " />
<polyline points="460.88,251.746 462.721,249.905 463.949,249.291 465.791,249.291 467.018,249.905 467.632,251.746 467.632,257.885 " />
<polyline points="467.632,251.746 469.474,249.905 470.702,249.291 472.543,249.291 473.771,249.905 474.385,251.746 474.385,257.885 " />
<polyline points="478.682,242.538 479.91,243.766 481.138,245.608 482.365,248.063 482.979,251.132 482.979,253.588 482.365,256.657 481.138,259.113 479.91,260.954 478.682,262.182 " />
<polyline points="500.782,249.291 500.782,257.885 " />
<polyline points="500.782,251.746 502.623,249.905 503.851,249.291 505.693,249.291 506.92,249.905 507.534,251.746 507.534,257.885 " />
<polyline points="507.534,251.746 509.376,249.905 510.604,249.291 512.445,249.291 513.673,249.905 514.287,251.746 514.287,257.885 " />
<polyline points="518.584,245.608 519.198,246.221 519.812,245.608 519.198,244.994 518.584,245.608 " />
<polyline points="519.198,249.905 519.198,257.885 " />
<polyline points="524.109,249.291 524.109,257.885 " />
<polyline points="524.109,251.746 525.951,249.905 527.178,249.291 529.02,249.291 530.248,249.905 530.862,251.746 530.862,257.885 " />
<polyline points="536.387,256.657 535.773,257.271 536.387,257.885 537,257.271 536.387,256.657 " />
<polyline points="382.677,273.127 381.449,273.741 380.221,274.969 379.607,276.81 379.607,278.038 380.221,279.88 381.449,281.107 382.677,281.721 384.518,281.721 385.746,281.107 386.974,279.88 387.588,278.038 387.588,276.81 386.974,274.969 385.746,273.741 384.518,273.127 382.677,273.127 " />
<polyline points="391.885,273.127 391.885,281.721 " />
<polyline points="391.885,276.81 392.499,274.969 393.727,273.741 394.954,273.127 396.796,273.127 " />
<polyline points="413.985,271.285 415.212,270.671 417.054,268.83 417.054,281.721 " />
<polyline points="425.034,271.899 425.034,271.285 425.648,270.058 426.262,269.444 427.49,268.83 429.945,268.83 431.173,269.444 431.787,270.058 432.401,271.285 432.401,272.513 431.787,273.741 430.559,275.582 424.42,281.721 433.015,281.721 " />
<polyline points="438.54,266.988 437.926,267.602 437.312,266.988 437.926,266.374 438.54,266.988 438.54,268.216 437.926,269.444 437.312,270.058 " />
<polyline points="442.223,266.988 441.609,267.602 440.995,266.988 441.609,266.374 442.223,266.988 442.223,268.216 441.609,269.444 440.995,270.058 " />
<polyline points="450.203,266.374 448.976,267.602 447.748,269.444 446.52,271.899 445.906,274.969 445.906,277.424 446.52,280.493 447.748,282.949 448.976,284.791 450.203,286.018 " />
<polyline points="455.114,268.83 461.867,268.83 458.184,273.741 460.025,273.741 461.253,274.355 461.867,274.969 462.481,276.81 462.481,278.038 461.867,279.88 460.639,281.107 458.798,281.721 456.956,281.721 455.114,281.107 454.5,280.493 453.887,279.266 " />
<polyline points="469.847,268.83 468.006,269.444 466.778,271.285 466.164,274.355 466.164,276.196 466.778,279.266 468.006,281.107 469.847,281.721 471.075,281.721 472.917,281.107 474.144,279.266 474.758,276.196 474.758,274.355 474.144,271.285 472.917,269.444 471.075,268.83 469.847,268.83 " />
<polyline points="482.125,268.83 480.283,269.444 479.056,271.285 478.442,274.355 478.442,276.196 479.056,279.266 480.283,281.107 482.125,281.721 483.353,281.721 485.194,281.107 486.422,279.266 487.036,276.196 487.036,274.355 486.422,271.285 485.194,269.444 483.353,268.83 482.125,268.83 " />
<polyline points="491.333,273.127 491.333,281.721 " />
<polyline points="491.333,275.582 493.175,273.741 494.402,273.127 496.244,273.127 497.472,273.741 498.086,275.582 498.086,281.721 " />
<polyline points="498.086,275.582 499.927,273.741 501.155,273.127 502.997,273.127 504.224,273.741 504.838,275.582 504.838,281.721 " />
<polyline points="509.749,273.127 509.749,281.721 " />
<polyline points="509.749,275.582 511.591,273.741 512.819,273.127 514.66,273.127 515.888,273.741 516.502,275.582 516.502,281.721 " />
<polyline points="516.502,275.582 518.344,273.741 519.571,273.127 521.413,273.127 522.641,273.741 523.255,275.582 523.255,281.721 " />
<polyline points="527.552,266.374 528.78,267.602 530.007,269.444 531.235,271.899 531.849,274.969 531.849,277.424 531.235,280.493 530.007,282.949 528.78,284.791 527.552,286.018 " />
<polyline points="549.651,273.127 549.651,281.721 " />
<polyline points="549.651,275.582 551.493,273.741 552.721,273.127 554.562,273.127 555.79,273.741 556.404,275.582 556.404,281.721 " />
<polyline points="556.404,275.582 558.246,273.741 559.473,273.127 561.315,273.127 562.543,273.741 563.157,275.582 563.157,281.721 " />
<polyline points="574.82,273.127 574.82,281.721 " />
<polyline points="574.82,274.969 573.593,273.741 572.365,273.127 570.523,273.127 569.295,273.741 568.068,274.969 567.454,276.81 567.454,278.038 568.068,279.88 569.295,281.107 570.523,281.721 572.365,281.721 573.593,281.107 574.82,279.88 " />
<polyline points="579.118,273.127 585.87,281.721 " />
<polyline points="585.87,273.127 579.118,281.721 " />
<polyline points="590.781,280.493 590.167,281.107 590.781,281.721 591.395,281.107 590.781,280.493 " />
<polyline points="595.692,266.374 596.92,267.602 598.148,269.444 599.375,271.899 599.989,274.969 599.989,277.424 599.375,280.493 598.148,282.949 596.92,284.791 595.692,286.018 " />
<polyline points="317.383,255.917 317.015,255.181 316.278,254.444 315.541,254.076 314.068,254.076 313.331,254.444 312.595,255.181 312.226,255.917 311.858,257.022 311.858,258.864 312.226,259.969 312.595,260.706 313.331,261.442 314.068,261.811 315.541,261.811 316.278,261.442 317.015,260.706 317.383,259.969 " />
<polyline points="359.833,254.668 359.097,253.931 357.992,253.563 356.518,253.563 355.413,253.931 354.677,254.668 354.677,255.405 355.045,256.141 355.413,256.51 356.15,256.878 358.36,257.615 359.097,257.983 359.465,258.351 359.833,259.088 359.833,260.193 359.097,260.929 357.992,261.298 356.518,261.298 355.413,260.929 354.677,260.193 " />
<polyline points="395.062,373.321 395.062,386.212 " />
<polyline points="395.062,373.321 399.359,373.321 401.2,373.934 402.428,375.162 403.042,376.39 403.656,378.232 403.656,381.301 403.042,383.143 402.428,384.37 401.2,385.598 399.359,386.212 395.062,386.212 " />
<polyline points="413.464,382.459 412.728,381.722 411.623,381.354 410.149,381.354 409.044,381.722 408.308,382.459 408.308,383.195 408.676,383.932 409.044,384.3 409.781,384.669 411.991,385.405 412.728,385.774 413.096,386.142 413.464,386.879 413.464,387.984 412.728,388.72 411.623,389.088 410.149,389.088 409.044,388.72 408.308,387.984 " />
<polyline points="915.561,209.836 915.561,217.571 " />
<polyline points="915.561,213.519 916.298,212.783 917.034,212.414 918.139,212.414 918.876,212.783 919.613,213.519 919.981,214.624 919.981,215.361 919.613,216.466 918.876,217.203 918.139,217.571 917.034,217.571 916.298,217.203 915.561,216.466 " />
<polyline points="902.987,202.071 902.987,214.962 " />
<polyline points="902.987,202.071 907.284,202.071 909.126,202.684 910.354,203.912 910.968,205.14 911.582,206.982 911.582,210.051 910.968,211.893 910.354,213.12 909.126,214.348 907.284,214.962 902.987,214.962 " />
<polyline points="472.652,397.191 471.842,396.381 470.627,395.976 469.006,395.976 467.79,396.381 466.98,397.191 466.98,398.001 467.385,398.812 467.79,399.217 468.601,399.622 471.032,400.432 471.842,400.838 472.247,401.243 472.652,402.053 472.652,403.268 471.842,404.079 470.627,404.484 469.006,404.484 467.79,404.079 466.98,403.268 " />
<polyline points="454.788,386.575 449.385,400.756 " />
<polyline points="454.788,386.575 460.19,400.756 " />
<polyline points="451.411,396.029 458.164,396.029 " />
<polyline points="973.394,221.719 973.394,230.227 " />
<polyline points="973.394,225.771 974.205,224.96 975.015,224.555 976.23,224.555 977.041,224.96 977.851,225.771 978.256,226.986 978.256,227.796 977.851,229.012 977.041,229.822 976.23,230.227 975.015,230.227 974.205,229.822 973.394,229.012 " />
<polyline points="963.141,213.202 957.739,227.382 " />
<polyline points="963.141,213.202 968.543,227.382 " />
<polyline points="959.765,222.655 966.517,222.655 " />
<polyline points="826.919,342.88 839.81,342.88 " />
<polyline points="851.022,336.513 844.884,336.513 844.27,342.038 844.884,341.424 846.725,340.81 848.567,340.81 850.409,341.424 851.636,342.651 852.25,344.493 852.25,345.721 851.636,347.563 850.409,348.79 848.567,349.404 846.725,349.404 844.884,348.79 844.27,348.176 843.656,346.949 " />
<polyline points="857.161,348.176 856.547,348.79 857.161,349.404 857.775,348.79 857.161,348.176 " />
<polyline points="862.686,339.582 862.686,338.968 863.3,337.74 863.914,337.127 865.142,336.513 867.597,336.513 868.825,337.127 869.439,337.74 870.053,338.968 870.053,340.196 869.439,341.424 868.211,343.265 862.072,349.404 870.666,349.404 " />
<polyline points="881.716,336.513 875.577,336.513 874.964,342.038 875.577,341.424 877.419,340.81 879.261,340.81 881.102,341.424 882.33,342.651 882.944,344.493 882.944,345.721 882.33,347.563 881.102,348.79 879.261,349.404 877.419,349.404 875.577,348.79 874.964,348.176 874.35,346.949 " />
<polyline points="888.469,334.671 887.855,335.285 887.241,334.671 887.855,334.057 888.469,334.671 888.469,335.899 887.855,337.127 887.241,337.74 " />
<polyline points="892.152,334.671 891.538,335.285 890.924,334.671 891.538,334.057 892.152,334.671 892.152,335.899 891.538,337.127 890.924,337.74 " />
<polyline points="900.133,334.057 898.905,335.285 897.677,337.127 896.449,339.582 895.835,342.651 895.835,345.107 896.449,348.176 897.677,350.632 898.905,352.474 900.133,353.701 " />
<polyline points="905.657,338.968 906.885,338.354 908.727,336.513 908.727,349.404 " />
<polyline points="917.321,336.513 924.074,336.513 920.391,341.424 922.232,341.424 923.46,342.038 924.074,342.651 924.688,344.493 924.688,345.721 924.074,347.563 922.846,348.79 921.004,349.404 919.163,349.404 917.321,348.79 916.707,348.176 916.093,346.949 " />
<polyline points="932.054,336.513 930.213,337.127 928.985,338.968 928.371,342.038 928.371,343.879 928.985,346.949 930.213,348.79 932.054,349.404 933.282,349.404 935.124,348.79 936.351,346.949 936.965,343.879 936.965,342.038 936.351,338.968 935.124,337.127 933.282,336.513 932.054,336.513 " />
<polyline points="941.262,340.81 941.262,349.404 " />
<polyline points="941.262,343.265 943.104,341.424 944.332,340.81 946.173,340.81 947.401,341.424 948.015,343.265 948.015,349.404 " />
<polyline points="948.015,343.265 949.857,341.424 951.084,340.81 952.926,340.81 954.154,341.424 954.768,343.265 954.768,349.404 " />
<polyline points="959.679,340.81 959.679,349.404 " />
<polyline points="959.679,343.265 961.52,341.424 962.748,340.81 964.59,340.81 965.817,341.424 966.431,343.265 966.431,349.404 " />
<polyline points="966.431,343.265 968.273,341.424 969.501,340.81 971.342,340.81 972.57,341.424 973.184,343.265 973.184,349.404 " />
<polyline points="977.481,334.057 978.709,335.285 979.937,337.127 981.164,339.582 981.778,342.651 981.778,345.107 981.164,348.176 979.937,350.632 978.709,352.474 977.481,353.701 " />
<polyline points="717.117,252.254 671.539,279.6 " />
<polyline points="771.81,306.947 744.464,352.525 " />
<polyline points="808.273,270.485 753.579,215.791 " />
<polyline points="269.648,275.491 269.648,209.156 " />
<polyline points="192.3,275.491 192.3,209.156 " />
<polyline points="182.742,302.524 193.554,271.942 " />
<polyline points="279.206,302.524 268.394,271.942 " />
<polyline points="753.579,215.791 717.117,252.254 " />
<polyline points="771.81,306.947 808.273,270.485 " />
<polyline points="847.581,247.83 832.195,170.481 " />
<polyline points="819.152,259.605 775.338,194.033 " />
<polyline points="888.749,170.481 864.578,170.481 " />
<polyline points="888.749,247.83 864.578,247.83 " />
<polyline points="753.579,215.791 775.338,194.033 " />
<polyline points="808.273,270.485 819.152,259.605 " />
<polyline points="832.195,170.481 775.338,194.033 " />
<polyline points="847.581,247.83 819.152,259.605 " />
<polyline points="230.974,215.791 229.421,215.813 227.87,215.88 226.321,215.99 224.775,216.145 223.235,216.343 221.701,216.586 220.175,216.872 218.657,217.201 217.149,217.573 215.653,217.989 215.653,217.989 214.372,218.387 213.104,218.827 211.852,219.31 210.617,219.833 209.399,220.397 208.201,221 207.024,221.643 205.868,222.325 204.735,223.044 203.627,223.801 203.627,223.801 202.686,224.494 201.772,225.223 200.887,225.988 200.032,226.785 199.208,227.615 198.418,228.477 197.661,229.368 196.939,230.288 196.254,231.235 195.605,232.208 194.995,233.205 194.995,233.205 194.536,234.033 194.118,234.883 193.741,235.751 193.406,236.636 193.115,237.537 192.867,238.45 192.663,239.375 192.505,240.308 192.391,241.248 192.323,242.192 192.3,243.138 " />
<polyline points="269.648,243.138 269.625,242.192 269.557,241.248 269.443,240.308 269.285,239.375 269.081,238.45 268.833,237.537 268.542,236.636 268.207,235.751 267.83,234.883 267.412,234.033 266.953,233.205 266.953,233.205 266.343,232.208 265.694,231.235 265.009,230.288 264.287,229.368 263.53,228.477 262.74,227.615 261.916,226.785 261.061,225.988 260.176,225.223 259.262,224.494 258.321,223.801 258.321,223.801 257.213,223.044 256.08,222.325 254.924,221.643 253.747,221 252.549,220.397 251.331,219.833 250.096,219.31 248.844,218.827 247.576,218.387 246.295,217.989 246.295,217.989 244.799,217.573 243.291,217.201 241.773,216.872 240.247,216.586 238.713,216.343 237.173,216.145 235.627,215.99 234.078,215.88 232.527,215.813 230.974,215.791 " />
<polyline points="269.648,226.819 269.628,225.761 269.568,224.704 269.468,223.651 269.328,222.602 269.149,221.559 268.93,220.524 268.672,219.498 268.375,218.482 268.041,217.478 267.668,216.487 267.258,215.512 266.812,214.552 266.812,214.552 266.284,213.518 265.722,212.503 265.124,211.508 264.493,210.534 263.829,209.582 263.132,208.654 262.404,207.75 261.645,206.872 260.856,206.02 260.039,205.196 259.193,204.401 258.321,203.635 258.321,203.635 257.321,202.816 256.294,202.03 255.242,201.279 254.166,200.563 253.066,199.883 251.944,199.24 250.802,198.635 249.64,198.068 248.46,197.54 247.263,197.051 246.051,196.603 246.051,196.603 244.726,196.16 243.388,195.759 242.038,195.398 240.678,195.079 239.309,194.802 237.932,194.568 236.548,194.375 235.159,194.225 233.766,194.118 232.371,194.054 230.974,194.033 230.974,194.033 229.577,194.054 228.182,194.118 226.789,194.225 225.4,194.375 224.016,194.568 222.639,194.802 221.27,195.079 219.91,195.398 218.56,195.759 217.222,196.16 215.897,196.603 215.897,196.603 214.685,197.051 213.488,197.54 212.308,198.068 211.146,198.635 210.004,199.24 208.882,199.883 207.782,200.563 206.706,201.279 205.654,202.03 204.627,202.816 203.627,203.635 203.627,203.635 202.755,204.401 201.909,205.196 201.092,206.02 200.303,206.872 199.544,207.75 198.816,208.654 198.119,209.582 197.455,210.534 196.824,211.508 196.226,212.503 195.664,213.518 195.136,214.552 195.136,214.552 194.69,215.512 194.28,216.487 193.907,217.478 193.573,218.482 193.276,219.498 193.018,220.524 192.799,221.559 192.62,222.602 192.48,223.651 192.38,224.704 192.32,225.761 192.3,226.819 " />
<polyline points="269.648,209.156 269.628,207.89 269.565,206.626 269.462,205.365 269.317,204.108 269.132,202.856 268.905,201.611 268.638,200.374 268.33,199.146 267.983,197.929 267.596,196.724 267.169,195.533 266.704,194.356 266.704,194.356 266.201,193.194 265.66,192.05 265.082,190.925 264.467,189.818 263.816,188.733 263.13,187.669 262.41,186.629 261.656,185.612 260.87,184.621 260.051,183.656 259.201,182.718 258.321,181.809 258.321,181.809 257.411,180.929 256.474,180.079 255.509,179.26 254.517,178.473 253.501,177.719 252.46,176.999 251.397,176.313 250.311,175.663 249.205,175.048 248.079,174.47 246.935,173.929 245.774,173.425 245.774,173.425 244.597,172.96 243.405,172.534 242.201,172.147 240.984,171.799 239.756,171.492 238.519,171.224 237.274,170.998 236.022,170.812 234.765,170.668 233.503,170.564 232.239,170.502 230.974,170.481 230.974,170.481 229.709,170.502 228.445,170.564 227.183,170.668 225.926,170.812 224.674,170.998 223.429,171.224 222.192,171.492 220.964,171.799 219.747,172.147 218.543,172.534 217.351,172.96 216.174,173.425 216.174,173.425 215.013,173.929 213.869,174.47 212.743,175.048 211.637,175.663 210.551,176.313 209.488,176.999 208.447,177.719 207.431,178.473 206.439,179.26 205.474,180.079 204.537,180.929 203.627,181.809 203.627,181.809 202.747,182.718 201.897,183.656 201.078,184.621 200.292,185.612 199.538,186.629 198.818,187.669 198.132,188.733 197.481,189.818 196.866,190.925 196.288,192.05 195.747,193.194 195.244,194.356 195.244,194.356 194.779,195.533 194.352,196.724 193.965,197.929 193.618,199.146 193.31,200.374 193.043,201.611 192.816,202.856 192.631,204.108 192.486,205.365 192.383,206.626 192.32,207.89 192.3,209.156 " />
<path d="M269.648,209.156  A38.6743,38.6743 0 1,0 192.3,209.156 " />
<polyline points="704.963,331.256 774.954,401.247 " />
<polyline points="777.888,313.024 820.532,355.669 " />
<polyline points="782.854,387.269 806.554,363.569 " />
</g>
<g clip-path="url(#clipId0)" fill="rgb(0,0,0)" stroke="rgb(0,0,0)" stroke-width="0.25" >
<path d="M781.031,385.446 784.677,389.092 771.915,398.208 771.915,398.208 z" />
<path d="M804.731,361.746 808.378,365.392 817.493,352.63 817.493,352.63 z" />
</g>
<g clip-path="url(#clipId0)" fill="none" stroke="rgb(0,0,0)" stroke-width="0.25" >
<polyline points="817.493,352.63 826.919,342.88 " />
<polyline points="888.749,247.83 888.749,170.481 " />
<polyline points="864.578,247.83 864.578,170.481 " />
<polyline points="861.355,247.83 861.355,170.481 " />
<path d="M864.578,170.481  A1.67857,1.67857 0 0,0 861.355,170.481 " />
<polyline points="861.355,170.481 832.195,170.481 " />
<path d="M861.355,247.83  A1.67857,1.67857 0 0,0 864.578,247.83 " />
<polyline points="861.355,247.83 847.581,247.83 " />
<polyline points="831.607,309.328 844.499,309.328 " />
<polyline points="848.063,305.152 849.291,304.538 851.132,302.697 851.132,315.588 " />
<polyline points="860.34,300.855 859.727,301.469 859.113,300.855 859.727,300.241 860.34,300.855 860.34,302.083 859.727,303.31 859.113,303.924 " />
<polyline points="864.024,300.855 863.41,301.469 862.796,300.855 863.41,300.241 864.024,300.855 864.024,302.083 863.41,303.31 862.796,303.924 " />
<polyline points="872.004,300.241 870.776,301.469 869.549,303.31 868.321,305.766 867.707,308.835 867.707,311.291 868.321,314.36 869.549,316.816 870.776,318.657 872.004,319.885 " />
<polyline points="876.301,305.766 876.301,305.152 876.915,303.924 877.529,303.31 878.757,302.697 881.212,302.697 882.44,303.31 883.054,303.924 883.668,305.152 883.668,306.38 883.054,307.608 881.826,309.449 875.687,315.588 884.282,315.588 " />
<polyline points="895.331,302.697 889.193,302.697 888.579,308.222 889.193,307.608 891.034,306.994 892.876,306.994 894.718,307.608 895.945,308.835 896.559,310.677 896.559,311.905 895.945,313.746 894.718,314.974 892.876,315.588 891.034,315.588 889.193,314.974 888.579,314.36 887.965,313.133 " />
<polyline points="900.856,306.994 900.856,315.588 " />
<polyline points="900.856,309.449 902.698,307.608 903.926,306.994 905.767,306.994 906.995,307.608 907.609,309.449 907.609,315.588 " />
<polyline points="907.609,309.449 909.451,307.608 910.678,306.994 912.52,306.994 913.748,307.608 914.362,309.449 914.362,315.588 " />
<polyline points="919.273,306.994 919.273,315.588 " />
<polyline points="919.273,309.449 921.114,307.608 922.342,306.994 924.184,306.994 925.411,307.608 926.025,309.449 926.025,315.588 " />
<polyline points="926.025,309.449 927.867,307.608 929.095,306.994 930.936,306.994 932.164,307.608 932.778,309.449 932.778,315.588 " />
<polyline points="937.075,300.241 938.303,301.469 939.531,303.31 940.758,305.766 941.372,308.835 941.372,311.291 940.758,314.36 939.531,316.816 938.303,318.657 937.075,319.885 " />
<polyline points="132.14,302.524 102.308,302.524 " />
<polyline points="132.14,457.221 102.308,457.221 " />
<polyline points="106.605,317.993 106.605,364.275 " />
</g>
<g clip-path="url(#clipId0)" fill="rgb(0,0,0)" stroke="rgb(0,0,0)" stroke-width="0.25" >
<path d="M109.183,317.993 104.026,317.993 106.605,302.524 106.605,302.524 z" />
<path d="M109.183,441.751 104.026,441.751 106.605,457.221 106.605,457.221 z" />
</g>
<g clip-path="url(#clipId0)" fill="none" stroke="rgb(0,0,0)" stroke-width="0.1" >
<polyline points="140.734,302.524 140.734,302.524 " />
<polyline points="140.734,457.221 140.734,457.221 " />
<polyline points="106.605,457.221 106.605,457.221 " />
</g>
<g clip-path="url(#clipId0)" fill="none" stroke="rgb(0,0,0)" stroke-width="0.25" >
<polyline points="381.374,328.306 409.92,328.306 " />
<polyline points="381.374,431.438 409.92,431.438 " />
<polyline points="405.623,343.776 405.623,367.377 " />
</g>
<g clip-path="url(#clipId0)" fill="rgb(0,0,0)" stroke="rgb(0,0,0)" stroke-width="0.25" >
<path d="M408.201,343.776 403.045,343.776 405.623,328.306 405.623,328.306 z" />
<path d="M408.201,415.968 403.045,415.968 405.623,431.438 405.623,431.438 z" />
</g>
<g clip-path="url(#clipId0)" fill="none" stroke="rgb(0,0,0)" stroke-width="0.1" >
<polyline points="372.78,328.306 372.78,328.306 " />
<polyline points="372.78,431.438 372.78,431.438 " />
<polyline points="405.623,431.438 405.623,431.438 " />
</g>
<g clip-path="url(#clipId0)" fill="none" stroke="rgb(0,0,0)" stroke-width="0.25" >
<polyline points="897.344,247.83 916.774,247.83 " />
<polyline points="897.344,170.481 916.774,170.481 " />
<polyline points="912.477,232.36 912.477,220.944 " />
</g>
<g clip-path="url(#clipId0)" fill="rgb(0,0,0)" stroke="rgb(0,0,0)" stroke-width="0.25" >
<path d="M915.055,232.36 909.899,232.36 912.477,247.83 912.477,247.83 z" />
<path d="M915.055,185.951 909.899,185.951 912.477,170.481 912.477,170.481 z" />
</g>
<g clip-path="url(#clipId0)" fill="none" stroke="rgb(0,0,0)" stroke-width="0.1" >
<polyline points="888.749,247.83 888.749,247.83 " />
<polyline points="888.749,170.481 888.749,170.481 " />
<polyline points="912.477,170.481 912.477,170.481 " />
</g>
<g clip-path="url(#clipId0)" fill="none" stroke="rgb(0,0,0)" stroke-width="0.25" >
<polyline points="796.243,282.515 797.479,281.278 " />
<polyline points="750.541,346.448 812.672,284.317 " />
<polyline points="820.572,298.294 831.607,309.328 " />
<polyline points="789.579,267.301 778.64,256.362 " />
</g>
<g clip-path="url(#clipId0)" fill="rgb(0,0,0)" stroke="rgb(0,0,0)" stroke-width="0.25" >
<path d="M818.749,300.117 822.395,296.471 809.633,287.355 809.633,287.355 z" />
<path d="M787.756,269.124 791.402,265.478 800.518,278.24 800.518,278.24 z" />
</g>
<g clip-path="url(#clipId0)" fill="none" stroke="rgb(0,0,0)" stroke-width="0.1" >
<polyline points="802.32,276.438 802.32,276.438 " />
<polyline points="744.464,352.525 744.464,352.525 " />
<polyline points="809.633,287.355 809.633,287.355 " />
</g>
<g clip-path="url(#clipId0)" fill="none" stroke="rgb(0,0,0)" stroke-width="0.25" >
<polyline points="106.605,393.507 106.605,441.751 " />
<polyline points="454.788,355.846 453.437,356.521 452.086,357.872 451.411,359.223 450.736,361.248 450.736,364.625 451.411,366.65 452.086,368.001 453.437,369.351 454.788,370.027 457.489,370.027 458.839,369.351 460.19,368.001 460.865,366.65 461.54,364.625 461.54,361.248 460.865,359.223 460.19,357.872 458.839,356.521 457.489,355.846 454.788,355.846 " />
<polyline points="456.813,367.326 460.865,371.377 " />
<polyline points="472.652,366.462 471.842,365.652 470.627,365.247 469.006,365.247 467.79,365.652 466.98,366.462 466.98,367.272 467.385,368.083 467.79,368.488 468.601,368.893 471.032,369.703 471.842,370.108 472.247,370.514 472.652,371.324 472.652,372.539 471.842,373.35 470.627,373.755 469.006,373.755 467.79,373.35 466.98,372.539 " />
<polyline points="405.623,395.335 405.623,415.968 " />
<path d="M279.206,302.524  A62.2031,62.2031 0 0,0 182.742,302.524 " />
<path d="M268.394,271.942  A45.4036,45.4036 0 0,0 193.554,271.942 " />
<polyline points="973.394,195.846 973.394,204.354 " />
<polyline points="973.394,199.897 974.205,199.087 975.015,198.682 976.23,198.682 977.041,199.087 977.851,199.897 978.256,201.113 978.256,201.923 977.851,203.139 977.041,203.949 976.23,204.354 975.015,204.354 974.205,203.949 973.394,203.139 " />
<polyline points="963.141,187.328 961.79,188.004 960.44,189.354 959.765,190.705 959.089,192.73 959.089,196.107 959.765,198.133 960.44,199.483 961.79,200.834 963.141,201.509 965.842,201.509 967.193,200.834 968.543,199.483 969.218,198.133 969.894,196.107 969.894,192.73 969.218,190.705 968.543,189.354 967.193,188.004 965.842,187.328 963.141,187.328 " />
<polyline points="965.167,198.808 969.218,202.859 " />
<polyline points="912.477,198.092 912.477,185.951 " />
<polyline points="912.074,582.521 910.273,580.72 907.572,579.82 903.971,579.82 901.27,580.72 899.469,582.521 899.469,584.322 900.369,586.122 901.27,587.023 903.07,587.923 908.473,589.724 910.273,590.624 911.174,591.524 912.074,593.325 912.074,596.026 910.273,597.827 907.572,598.727 903.971,598.727 901.27,597.827 899.469,596.026 " />
<polyline points="918.376,579.82 918.376,598.727 " />
<polyline points="918.376,579.82 924.679,579.82 927.38,580.72 929.181,582.521 930.081,584.322 930.981,587.023 930.981,591.524 930.081,594.225 929.181,596.026 927.38,597.827 924.679,598.727 918.376,598.727 " />
<polyline points="947.188,579.82 938.184,579.82 937.284,587.923 938.184,587.023 940.885,586.122 943.586,586.122 946.287,587.023 948.088,588.823 948.988,591.524 948.988,593.325 948.088,596.026 946.287,597.827 943.586,598.727 940.885,598.727 938.184,597.827 937.284,596.927 936.383,595.126 " />
<polyline points="955.291,590.624 971.497,590.624 " />
<polyline points="980.501,583.421 982.302,582.521 985.003,579.82 985.003,598.727 " />
<polyline points="1004.81,579.82 995.807,592.425 1009.31,592.425 " />
<polyline points="1004.81,579.82 1004.81,598.727 " />
<polyline points="27.6604,351.964 26.3099,352.639 24.9593,353.99 24.2841,355.341 23.6088,357.366 23.6088,360.743 24.2841,362.768 24.9593,364.119 26.3099,365.47 27.6604,366.145 30.3615,366.145 31.712,365.47 33.0625,364.119 33.7378,362.768 34.4131,360.743 34.4131,357.366 33.7378,355.341 33.0625,353.99 31.712,352.639 30.3615,351.964 27.6604,351.964 " />
<polyline points="29.6862,363.444 33.7378,367.495 " />
<polyline points="45.8437,365.579 45.4385,364.769 44.6282,363.959 43.8179,363.553 42.1973,363.553 41.3869,363.959 40.5766,364.769 40.1715,365.579 39.7663,366.795 39.7663,368.821 40.1715,370.036 40.5766,370.846 41.3869,371.657 42.1973,372.062 43.8179,372.062 44.6282,371.657 45.4385,370.846 45.8437,370.036 " />
</g>
</svg>
