<?xml version="1.0" standalone="no"?>
<svg viewBox="0 0 1024 768" version="1.1" xmlns="http://www.w3.org/2000/svg" xmlns:xlink="http://www.w3.org/1999/xlink" stroke-linecap="round" stroke-linejoin="round" fill-rule="evenodd" xml:space="preserve" >
<defs >
<clipPath id="clipId0" >
<path d="M0,768 1024,768 1024,0 0,0 z" />
</clipPath>
</defs>
<g clip-path="url(#clipId0)" fill="none" stroke="rgb(0,0,0)" stroke-width="0.1" />
<g clip-path="url(#clipId0)" fill="none" stroke="rgb(0,0,0)" stroke-width="0.25" >
<polyline points="244.602,258.318 244.602,114.953 " />
<path d="M244.602,114.953  A23.8942,23.8942 0 0,0 268.496,138.847 " />
<polyline points="529.634,186.636 467.319,186.636 " />
</g>
<g clip-path="url(#clipId0)" fill="rgb(0,0,0)" stroke="rgb(0,0,0)" stroke-width="0.25" >
<path d="M529.634,184.246 529.634,189.025 543.97,186.636 543.97,186.636 z" />
</g>
<g clip-path="url(#clipId0)" fill="none" stroke="rgb(0,0,0)" stroke-width="0.25" >
<polyline points="87.215,646.735 99.5035,646.735 " />
<polyline points="87.215,650.832 99.5035,650.832 " />
<polyline points="126.811,640.591 126.811,654.928 " />
<polyline points="126.811,647.418 125.446,646.053 124.08,645.37 122.032,645.37 120.667,646.053 119.302,647.418 118.619,649.466 118.619,650.832 119.302,652.88 120.667,654.245 122.032,654.928 124.08,654.928 125.446,654.245 126.811,652.88 " />
<polyline points="132.273,645.37 132.273,652.197 132.955,654.245 134.321,654.928 136.369,654.928 137.734,654.245 139.782,652.197 " />
<polyline points="139.782,645.37 139.782,654.928 " />
<polyline points="152.753,647.418 151.388,646.053 150.023,645.37 147.975,645.37 146.609,646.053 145.244,647.418 144.561,649.466 144.561,650.832 145.244,652.88 146.609,654.245 147.975,654.928 150.023,654.928 151.388,654.245 152.753,652.88 " />
<polyline points="158.215,640.591 158.215,652.197 158.898,654.245 160.263,654.928 161.628,654.928 " />
<polyline points="156.167,645.37 160.946,645.37 " />
<polyline points="187.571,645.37 187.571,654.928 " />
<polyline points="187.571,647.418 186.205,646.053 184.84,645.37 182.792,645.37 181.426,646.053 180.061,647.418 179.378,649.466 179.378,650.832 180.061,652.88 181.426,654.245 182.792,654.928 184.84,654.928 186.205,654.245 187.571,652.88 " />
<polyline points="193.032,645.37 193.032,654.928 " />
<polyline points="193.032,649.466 193.715,647.418 195.08,646.053 196.446,645.37 198.494,645.37 " />
<polyline points="201.224,649.466 209.417,649.466 209.417,648.101 208.734,646.735 208.051,646.053 206.686,645.37 204.638,645.37 203.273,646.053 201.907,647.418 201.224,649.466 201.224,650.832 201.907,652.88 203.273,654.245 204.638,654.928 206.686,654.928 208.051,654.245 209.417,652.88 " />
<polyline points="221.705,645.37 221.705,654.928 " />
<polyline points="221.705,647.418 220.34,646.053 218.974,645.37 216.926,645.37 215.561,646.053 214.196,647.418 213.513,649.466 213.513,650.832 214.196,652.88 215.561,654.245 216.926,654.928 218.974,654.928 220.34,654.245 221.705,652.88 " />
<polyline points="228.532,654.245 227.849,654.928 227.167,654.245 227.849,653.562 228.532,654.245 228.532,655.61 227.849,656.976 227.167,657.658 " />
<polyline points="247.647,641.274 248.33,641.957 249.013,641.274 248.33,640.591 247.647,641.274 " />
<polyline points="248.33,646.053 248.33,654.928 " />
<polyline points="253.792,645.37 253.792,654.928 " />
<polyline points="253.792,648.101 255.84,646.053 257.205,645.37 259.253,645.37 260.619,646.053 261.301,648.101 261.301,654.928 " />
<polyline points="87.215,610.002 99.5035,610.002 " />
<polyline points="87.215,614.098 99.5035,614.098 " />
<polyline points="118.619,612.733 126.811,612.733 126.811,611.368 126.128,610.002 125.446,609.32 124.08,608.637 122.032,608.637 120.667,609.32 119.302,610.685 118.619,612.733 118.619,614.098 119.302,616.147 120.667,617.512 122.032,618.195 124.08,618.195 125.446,617.512 126.811,616.147 " />
<polyline points="135.686,603.858 134.321,603.858 132.955,604.541 132.273,606.589 132.273,618.195 " />
<polyline points="130.225,608.637 135.003,608.637 " />
<polyline points="143.878,603.858 142.513,603.858 141.148,604.541 140.465,606.589 140.465,618.195 " />
<polyline points="138.417,608.637 143.196,608.637 " />
<polyline points="147.292,612.733 155.484,612.733 155.484,611.368 154.801,610.002 154.119,609.32 152.753,608.637 150.705,608.637 149.34,609.32 147.975,610.685 147.292,612.733 147.292,614.098 147.975,616.147 149.34,617.512 150.705,618.195 152.753,618.195 154.119,617.512 155.484,616.147 " />
<polyline points="167.773,610.685 166.407,609.32 165.042,608.637 162.994,608.637 161.628,609.32 160.263,610.685 159.58,612.733 159.58,614.098 160.263,616.147 161.628,617.512 162.994,618.195 165.042,618.195 166.407,617.512 167.773,616.147 " />
<polyline points="173.234,603.858 173.234,615.464 173.917,617.512 175.282,618.195 176.648,618.195 " />
<polyline points="171.186,608.637 175.965,608.637 " />
<polyline points="180.061,604.541 180.744,605.223 181.426,604.541 180.744,603.858 180.061,604.541 " />
<polyline points="180.744,609.32 180.744,618.195 " />
<polyline points="184.84,608.637 188.936,618.195 " />
<polyline points="193.032,608.637 188.936,618.195 " />
<polyline points="196.446,612.733 204.638,612.733 204.638,611.368 203.955,610.002 203.273,609.32 201.907,608.637 199.859,608.637 198.494,609.32 197.128,610.685 196.446,612.733 196.446,614.098 197.128,616.147 198.494,617.512 199.859,618.195 201.907,618.195 203.273,617.512 204.638,616.147 " />
<polyline points="231.263,603.858 231.263,618.195 " />
<polyline points="231.263,610.685 229.897,609.32 228.532,608.637 226.484,608.637 225.119,609.32 223.753,610.685 223.071,612.733 223.071,614.098 223.753,616.147 225.119,617.512 226.484,618.195 228.532,618.195 229.897,617.512 231.263,616.147 " />
<polyline points="236.724,608.637 236.724,615.464 237.407,617.512 238.772,618.195 240.821,618.195 242.186,617.512 244.234,615.464 " />
<polyline points="244.234,608.637 244.234,618.195 " />
<polyline points="257.205,610.685 255.84,609.32 254.474,608.637 252.426,608.637 251.061,609.32 249.695,610.685 249.013,612.733 249.013,614.098 249.695,616.147 251.061,617.512 252.426,618.195 254.474,618.195 255.84,617.512 257.205,616.147 " />
<polyline points="262.667,603.858 262.667,615.464 263.349,617.512 264.715,618.195 266.08,618.195 " />
<polyline points="260.619,608.637 265.397,608.637 " />
<polyline points="284.513,603.858 284.513,618.195 " />
<polyline points="289.292,612.733 297.484,612.733 297.484,611.368 296.801,610.002 296.118,609.32 294.753,608.637 292.705,608.637 291.34,609.32 289.974,610.685 289.292,612.733 289.292,614.098 289.974,616.147 291.34,617.512 292.705,618.195 294.753,618.195 296.118,617.512 297.484,616.147 " />
<polyline points="302.263,608.637 302.263,618.195 " />
<polyline points="302.263,611.368 304.311,609.32 305.676,608.637 307.724,608.637 309.09,609.32 309.772,611.368 309.772,618.195 " />
<polyline points="322.743,608.637 322.743,619.56 322.061,621.608 321.378,622.291 320.013,622.973 317.965,622.973 316.599,622.291 " />
<polyline points="322.743,610.685 321.378,609.32 320.013,608.637 317.965,608.637 316.599,609.32 315.234,610.685 314.551,612.733 314.551,614.098 315.234,616.147 316.599,617.512 317.965,618.195 320.013,618.195 321.378,617.512 322.743,616.147 " />
<polyline points="328.888,603.858 328.888,615.464 329.57,617.512 330.936,618.195 332.301,618.195 " />
<polyline points="326.84,608.637 331.618,608.637 " />
<polyline points="336.397,603.858 336.397,618.195 " />
<polyline points="336.397,611.368 338.445,609.32 339.811,608.637 341.859,608.637 343.224,609.32 343.907,611.368 343.907,618.195 " />
<polyline points="350.734,617.512 350.051,618.195 349.368,617.512 350.051,616.829 350.734,617.512 350.734,618.877 350.051,620.243 349.368,620.925 " />
<polyline points="374.628,603.858 373.263,603.858 371.897,604.541 371.214,606.589 371.214,618.195 " />
<polyline points="369.166,608.637 373.945,608.637 " />
<polyline points="379.407,603.858 379.407,615.464 380.089,617.512 381.455,618.195 382.82,618.195 " />
<polyline points="377.359,608.637 382.138,608.637 " />
<polyline points="68.9542,649.797 67.7254,650.207 66.9061,651.436 66.4965,653.484 66.4965,654.713 66.9061,656.761 67.7254,657.99 68.9542,658.399 69.7734,658.399 71.0023,657.99 71.8215,656.761 72.2311,654.713 72.2311,653.484 71.8215,651.436 71.0023,650.207 69.7734,649.797 68.9542,649.797 " />
<polyline points="56.9565,640.591 51.495,654.928 " />
<polyline points="56.9565,640.591 62.418,654.928 " />
<polyline points="53.543,650.149 60.3699,650.149 " />
<polyline points="67.4855,618.536 73.4931,618.536 73.4931,617.534 72.9925,616.533 72.4919,616.032 71.4906,615.532 69.9887,615.532 68.9874,616.032 67.9861,617.034 67.4855,618.536 67.4855,619.537 67.9861,621.039 68.9874,622.04 69.9887,622.541 71.4906,622.541 72.4919,622.04 73.4931,621.039 " />
<polyline points="53.543,603.858 53.543,618.195 61.7353,618.195 " />
<polyline points="684.743,55.2178 684.743,318.054 " />
<polyline points="991.752,318.054 684.743,318.054 " />
<polyline points="991.752,199.458 991.752,346.727 " />
<polyline points="991.752,26.5448 991.752,173.813 " />
<polyline points="1013.96,199.458 991.752,199.458 " />
<polyline points="969.542,173.813 991.752,173.813 " />
<polyline points="969.542,173.813 1013.96,199.458 " />
<polyline points="991.752,55.2178 684.743,55.2178 " />
<polyline points="268.496,234.424 684.743,234.424 " />
<polyline points="268.496,138.847 684.743,138.847 " />
<polyline points="786.143,178.611 786.143,192.947 " />
<polyline points="786.143,178.611 792.287,178.611 794.335,179.293 795.018,179.976 795.701,181.342 795.701,183.39 795.018,184.755 794.335,185.438 792.287,186.12 786.143,186.12 " />
<polyline points="800.48,178.611 800.48,192.947 808.672,192.947 " />
<polyline points="812.085,178.611 812.085,192.947 " />
<polyline points="812.085,178.611 820.96,178.611 " />
<polyline points="812.085,185.438 817.547,185.438 " />
<polyline points="812.085,192.947 820.96,192.947 " />
<polyline points="825.057,178.611 825.057,192.947 " />
<polyline points="825.057,178.611 834.614,192.947 " />
<polyline points="834.614,178.611 834.614,192.947 " />
<polyline points="840.076,178.611 840.076,188.851 840.758,190.899 842.124,192.265 844.172,192.947 845.537,192.947 847.585,192.265 848.951,190.899 849.633,188.851 849.633,178.611 " />
<polyline points="855.095,178.611 855.095,192.947 " />
<polyline points="855.095,178.611 860.556,192.947 " />
<polyline points="866.018,178.611 860.556,192.947 " />
<polyline points="866.018,178.611 866.018,192.947 " />
<circle cx="81.7218" cy="186.636" r="47.7884" />
<path d="M268.496,234.424  A23.8942,23.8942 0 0,0 244.602,258.318 " />
<circle cx="81.7218" cy="186.636" r="71.6825" />
<polyline points="382.403,234.424 382.403,138.847 " />
<polyline points="369.111,171.821 331.278,171.821 " />
<polyline points="369.111,201.45 331.278,201.45 " />
<polyline points="369.111,201.45 369.111,171.821 " />
<polyline points="331.278,201.45 331.278,171.821 " />
<polyline points="331.278,171.821 350.316,138.847 " />
<polyline points="362.218,171.821 362.218,138.847 " />
<polyline points="362.218,201.45 362.218,234.424 " />
<polyline points="331.278,201.45 350.316,234.424 " />
<path d="M324.632,171.821  A14.8144,14.8144 0 1,0 324.632,201.45 " />
<path d="M324.632,151.111  A14.8144,14.8144 0 0,0 314.038,176.281 " />
<path d="M314.038,196.991  A14.8144,14.8144 0 0,0 324.632,222.161 " />
<polyline points="324.632,222.161 324.632,151.111 " />
<polyline points="331.278,186.636 324.632,186.636 " />
<polyline points="382.403,244.322 382.403,303.832 " />
<polyline points="670.406,286.628 552.006,286.628 " />
<polyline points="396.74,286.628 515.14,286.628 " />
</g>
<g clip-path="url(#clipId0)" fill="rgb(0,0,0)" stroke="rgb(0,0,0)" stroke-width="0.25" >
<path d="M670.406,288.816 670.406,284.037 684.743,286.426 684.743,286.426 z" />
<path d="M396.74,289.06 396.74,284.281 382.403,286.671 382.403,286.671 z" />
</g>
<g clip-path="url(#clipId0)" fill="none" stroke="rgb(0,0,0)" stroke-width="0.25" >
<polyline points="532.208,279.46 532.208,293.796 540.4,293.796 " />
<circle cx="81.7218" cy="186.636" r="14.8144" />
<polyline points="111.848,223.732 88.1155,199.999 " />
<polyline points="68.3582,180.242 44.6256,156.509 " />
<polyline points="101.403,230.183 38.1745,166.954 " />
<polyline points="88.2947,233.97 34.3876,180.063 " />
<polyline points="70.5222,233.093 35.2643,197.835 " />
<polyline points="120.11,215.098 95.9098,190.898 " />
<polyline points="77.4596,172.448 53.2597,148.248 " />
<polyline points="126.149,204.241 64.1163,142.209 " />
<polyline points="129.35,190.546 77.8111,139.008 " />
<polyline points="126.974,171.275 97.0826,141.383 " />
</g>
<g clip-path="url(#clipId0)" fill="rgb(0,0,0)" stroke="rgb(0,0,0)" stroke-width="0.25" >
<path d="M100.874,146.316 96.7436,143.912 91.5966,157.505 91.5966,157.505 z" />
</g>
<g clip-path="url(#clipId0)" fill="none" stroke="rgb(0,0,0)" stroke-width="0.25" >
<polyline points="98.8087,145.114 133.702,85.1673 " />
<polyline points="133.702,85.1673 148.039,85.1673 " />
<polyline points="165.106,77.9991 165.106,92.3356 " />
<polyline points="165.106,77.9991 171.25,77.9991 173.299,78.6818 173.981,79.3645 174.664,80.7298 174.664,82.0952 173.981,83.4606 173.299,84.1433 171.25,84.826 " />
<polyline points="165.106,84.826 171.25,84.826 173.299,85.5087 173.981,86.1914 174.664,87.5567 174.664,89.6048 173.981,90.9702 173.299,91.6529 171.25,92.3356 165.106,92.3356 " />
<polyline points="179.443,77.9991 179.443,92.3356 187.635,92.3356 " />
<polyline points="194.462,77.9991 189,92.3356 " />
<polyline points="194.462,77.9991 199.924,92.3356 " />
<polyline points="191.049,87.5567 197.875,87.5567 " />
<polyline points="212.212,80.0471 210.847,78.6818 208.798,77.9991 206.068,77.9991 204.02,78.6818 202.654,80.0471 202.654,81.4125 203.337,82.7779 204.02,83.4606 205.385,84.1433 209.481,85.5087 210.847,86.1914 211.529,86.8741 212.212,88.2394 212.212,90.2875 210.847,91.6529 208.798,92.3356 206.068,92.3356 204.02,91.6529 202.654,90.2875 " />
<polyline points="219.722,77.9991 219.722,92.3356 " />
<polyline points="214.943,77.9991 224.5,77.9991 " />
<polyline points="245.664,77.9991 240.202,92.3356 " />
<polyline points="245.664,77.9991 251.125,92.3356 " />
<polyline points="242.25,87.5567 249.077,87.5567 " />
<polyline points="254.539,77.9991 254.539,92.3356 " />
<polyline points="254.539,77.9991 260.683,77.9991 262.731,78.6818 263.414,79.3645 264.096,80.7298 264.096,82.0952 263.414,83.4606 262.731,84.1433 260.683,84.826 254.539,84.826 " />
<polyline points="259.318,84.826 264.096,92.3356 " />
<polyline points="268.875,77.9991 268.875,92.3356 " />
<polyline points="268.875,77.9991 277.75,77.9991 " />
<polyline points="268.875,84.826 274.337,84.826 " />
<polyline points="268.875,92.3356 277.75,92.3356 " />
<polyline points="285.26,77.9991 279.798,92.3356 " />
<polyline points="285.26,77.9991 290.721,92.3356 " />
<polyline points="281.846,87.5567 288.673,87.5567 " />
</g>
<g clip-path="url(#clipId0)" fill="rgb(0,0,0)" stroke="rgb(0,0,0)" stroke-width="0.25" >
<path d="M331.633,139.203 327.124,137.621 324.632,151.94 324.632,151.94 z" />
</g>
<g clip-path="url(#clipId0)" fill="none" stroke="rgb(0,0,0)" stroke-width="0.25" >
<polyline points="329.379,138.412 348.06,85.1673 " />
<polyline points="348.06,85.1673 362.397,85.1673 " />
<polyline points="377.416,77.9991 382.877,92.3356 " />
<polyline points="388.339,77.9991 382.877,92.3356 " />
<polyline points="395.166,77.9991 389.704,92.3356 " />
<polyline points="395.166,77.9991 400.627,92.3356 " />
<polyline points="391.752,87.5567 398.579,87.5567 " />
<polyline points="404.041,77.9991 404.041,92.3356 " />
<polyline points="404.041,77.9991 413.598,92.3356 " />
<polyline points="413.598,77.9991 413.598,92.3356 " />
<polyline points="419.06,77.9991 419.06,92.3356 " />
<polyline points="419.06,77.9991 427.935,77.9991 " />
<polyline points="419.06,84.826 424.521,84.826 " />
<polyline points="419.06,92.3356 427.935,92.3356 " />
<polyline points="435.444,77.9991 429.983,92.3356 " />
<polyline points="435.444,77.9991 440.906,92.3356 " />
<polyline points="432.031,87.5567 438.858,87.5567 " />
<polyline points="443.637,77.9991 453.194,92.3356 " />
<polyline points="453.194,77.9991 443.637,92.3356 " />
<polyline points="457.973,77.9991 457.973,92.3356 " />
<polyline points="466.848,77.9991 461.387,92.3356 " />
<polyline points="466.848,77.9991 472.31,92.3356 " />
<polyline points="463.435,87.5567 470.262,87.5567 " />
<polyline points="475.723,77.9991 475.723,92.3356 483.915,92.3356 " />
<polyline points="501.665,77.9991 501.665,92.3356 " />
<polyline points="501.665,77.9991 510.54,77.9991 " />
<polyline points="501.665,84.826 507.127,84.826 " />
<polyline points="517.367,77.9991 511.906,92.3356 " />
<polyline points="517.367,77.9991 522.829,92.3356 " />
<polyline points="513.954,87.5567 520.781,87.5567 " />
<polyline points="526.242,77.9991 526.242,92.3356 " />
<polyline points="526.242,77.9991 535.8,92.3356 " />
<polyline points="535.8,77.9991 535.8,92.3356 " />
<polyline points="265.951,641.367 265.951,640.958 266.361,640.138 266.77,639.729 267.589,639.319 269.228,639.319 270.047,639.729 270.457,640.138 270.866,640.958 270.866,641.777 270.457,642.596 269.637,643.825 265.541,647.921 271.276,647.921 " />
<polyline points="87.215,573.269 99.5035,573.269 " />
<polyline points="87.215,577.365 99.5035,577.365 " />
<polyline points="126.811,567.125 126.811,581.462 " />
<polyline points="126.811,573.952 125.446,572.587 124.08,571.904 122.032,571.904 120.667,572.587 119.302,573.952 118.619,576 118.619,577.365 119.302,579.413 120.667,580.779 122.032,581.462 124.08,581.462 125.446,580.779 126.811,579.413 " />
<polyline points="132.273,571.904 132.273,578.731 132.955,580.779 134.321,581.462 136.369,581.462 137.734,580.779 139.782,578.731 " />
<polyline points="139.782,571.904 139.782,581.462 " />
<polyline points="152.753,573.952 151.388,572.587 150.023,571.904 147.975,571.904 146.609,572.587 145.244,573.952 144.561,576 144.561,577.365 145.244,579.413 146.609,580.779 147.975,581.462 150.023,581.462 151.388,580.779 152.753,579.413 " />
<polyline points="158.215,567.125 158.215,578.731 158.898,580.779 160.263,581.462 161.628,581.462 " />
<polyline points="156.167,571.904 160.946,571.904 " />
<polyline points="178.696,571.904 182.792,581.462 " />
<polyline points="186.888,571.904 182.792,581.462 " />
<polyline points="190.301,576 198.494,576 198.494,574.635 197.811,573.269 197.128,572.587 195.763,571.904 193.715,571.904 192.349,572.587 190.984,573.952 190.301,576 190.301,577.365 190.984,579.413 192.349,580.779 193.715,581.462 195.763,581.462 197.128,580.779 198.494,579.413 " />
<polyline points="203.273,567.125 203.273,581.462 " />
<polyline points="211.465,571.904 210.099,572.587 208.734,573.952 208.051,576 208.051,577.365 208.734,579.413 210.099,580.779 211.465,581.462 213.513,581.462 214.878,580.779 216.244,579.413 216.926,577.365 216.926,576 216.244,573.952 214.878,572.587 213.513,571.904 211.465,571.904 " />
<polyline points="229.215,573.952 227.849,572.587 226.484,571.904 224.436,571.904 223.071,572.587 221.705,573.952 221.022,576 221.022,577.365 221.705,579.413 223.071,580.779 224.436,581.462 226.484,581.462 227.849,580.779 229.215,579.413 " />
<polyline points="233.311,567.808 233.994,568.49 234.676,567.808 233.994,567.125 233.311,567.808 " />
<polyline points="233.994,572.587 233.994,581.462 " />
<polyline points="240.138,567.125 240.138,578.731 240.821,580.779 242.186,581.462 243.551,581.462 " />
<polyline points="238.09,571.904 242.869,571.904 " />
<polyline points="246.282,571.904 250.378,581.462 " />
<polyline points="254.474,571.904 250.378,581.462 249.013,584.192 247.647,585.558 246.282,586.24 245.599,586.24 " />
<polyline points="259.936,580.779 259.253,581.462 258.57,580.779 259.253,580.096 259.936,580.779 259.936,582.144 259.253,583.51 258.57,584.192 " />
<polyline points="283.83,567.125 282.465,567.125 281.099,567.808 280.417,569.856 280.417,581.462 " />
<polyline points="278.369,571.904 283.147,571.904 " />
<polyline points="287.926,571.904 287.926,586.24 " />
<polyline points="287.926,573.952 289.292,572.587 290.657,571.904 292.705,571.904 294.07,572.587 295.436,573.952 296.118,576 296.118,577.365 295.436,579.413 294.07,580.779 292.705,581.462 290.657,581.462 289.292,580.779 287.926,579.413 " />
<polyline points="300.897,571.904 300.897,581.462 " />
<polyline points="300.897,574.635 302.945,572.587 304.311,571.904 306.359,571.904 307.724,572.587 308.407,574.635 308.407,581.462 " />
<polyline points="308.407,574.635 310.455,572.587 311.82,571.904 313.868,571.904 315.234,572.587 315.917,574.635 315.917,581.462 " />
<polyline points="51.495,567.125 56.9565,581.462 " />
<polyline points="62.418,567.125 56.9565,581.462 " />
<polyline points="66.8066,575.935 65.5778,576.345 64.7586,577.574 64.349,579.622 64.349,580.851 64.7586,582.899 65.5778,584.127 66.8066,584.537 67.6259,584.537 68.8547,584.127 69.6739,582.899 70.0836,580.851 70.0836,579.622 69.6739,577.574 68.8547,576.345 67.6259,575.935 66.8066,575.935 " />
<polyline points="12.222,441.227 17.6835,455.564 " />
<polyline points="23.145,441.227 17.6835,455.564 " />
<polyline points="27.5337,449.915 26.3048,450.325 25.4856,451.554 25.076,453.602 25.076,454.831 25.4856,456.879 26.3048,458.107 27.5337,458.517 28.3529,458.517 29.5817,458.107 30.401,456.879 30.8106,454.831 30.8106,453.602 30.401,451.554 29.5817,450.325 28.3529,449.915 27.5337,449.915 " />
<polyline points="47.9421,443.275 58.8651,449.419 47.9421,455.564 " />
<polyline points="78.6632,444.641 78.6632,443.958 79.3459,442.592 80.0286,441.91 81.3939,441.227 84.1247,441.227 85.4901,441.91 86.1728,442.592 86.8555,443.958 86.8555,445.323 86.1728,446.689 84.8074,448.737 77.9805,455.564 87.5382,455.564 " />
<polyline points="99.8266,441.227 92.9997,441.227 92.317,447.371 92.9997,446.689 95.0478,446.006 97.0958,446.006 99.1439,446.689 100.509,448.054 101.192,450.102 101.192,451.467 100.509,453.516 99.1439,454.881 97.0958,455.564 95.0478,455.564 92.9997,454.881 92.317,454.198 91.6343,452.833 " />
<polyline points="109.384,441.227 107.336,441.91 105.971,443.958 105.288,447.371 105.288,449.419 105.971,452.833 107.336,454.881 109.384,455.564 110.75,455.564 112.798,454.881 114.163,452.833 114.846,449.419 114.846,447.371 114.163,443.958 112.798,441.91 110.75,441.227 109.384,441.227 " />
<polyline points="123.038,441.227 120.99,441.91 119.625,443.958 118.942,447.371 118.942,449.419 119.625,452.833 120.99,454.881 123.038,455.564 124.403,455.564 126.452,454.881 127.817,452.833 128.5,449.419 128.5,447.371 127.817,443.958 126.452,441.91 124.403,441.227 123.038,441.227 " />
<polyline points="151.711,441.227 150.346,441.227 148.98,441.91 148.298,443.958 148.298,455.564 " />
<polyline points="146.25,446.006 151.028,446.006 " />
<polyline points="155.807,446.006 155.807,460.342 " />
<polyline points="155.807,448.054 157.173,446.689 158.538,446.006 160.586,446.006 161.951,446.689 163.317,448.054 164,450.102 164,451.467 163.317,453.516 161.951,454.881 160.586,455.564 158.538,455.564 157.173,454.881 155.807,453.516 " />
<polyline points="168.778,446.006 168.778,455.564 " />
<polyline points="168.778,448.737 170.826,446.689 172.192,446.006 174.24,446.006 175.605,446.689 176.288,448.737 176.288,455.564 " />
<polyline points="176.288,448.737 178.336,446.689 179.701,446.006 181.749,446.006 183.115,446.689 183.798,448.737 183.798,455.564 " />
<polyline points="189.942,446.006 189.259,446.689 189.942,447.371 190.624,446.689 189.942,446.006 " />
<polyline points="189.942,454.198 189.259,454.881 189.942,455.564 190.624,454.881 189.942,454.198 " />
<polyline points="230.944,447.371 243.232,447.371 " />
<polyline points="230.944,451.467 243.232,451.467 " />
<polyline points="260.982,441.227 266.444,455.564 " />
<polyline points="271.905,441.227 266.444,455.564 " />
<polyline points="215.299,455.421 221.306,455.421 221.306,454.42 220.806,453.419 220.305,452.918 219.304,452.417 217.802,452.417 216.801,452.918 215.799,453.919 215.299,455.421 215.299,456.423 215.799,457.924 216.801,458.926 217.802,459.426 219.304,459.426 220.305,458.926 221.306,457.924 " />
<polyline points="202.307,441.518 202.307,455.854 210.499,455.854 " />
<polyline points="321.259,450.331 320.03,450.741 319.211,451.969 318.801,454.018 318.801,455.246 319.211,457.294 320.03,458.523 321.259,458.933 322.078,458.933 323.307,458.523 324.126,457.294 324.536,455.246 324.536,454.018 324.126,451.969 323.307,450.741 322.078,450.331 321.259,450.331 " />
<polyline points="309.003,441.518 303.541,455.854 " />
<polyline points="309.003,441.518 314.464,455.854 " />
<polyline points="305.589,451.076 312.416,451.076 " />
<polyline points="284.627,454.998 288.576,449.259 " />
<polyline points="288.576,449.259 293.314,461.886 " />
<polyline points="293.314,461.886 299.631,437.78 " />
<polyline points="299.631,437.78 325.689,437.78 " />
<polyline points="345.039,438.787 332.75,460.633 " />
<polyline points="350.5,444.249 351.865,443.566 353.913,441.518 353.913,455.854 " />
<polyline points="366.202,441.518 364.154,442.201 362.788,444.249 362.106,447.662 362.106,449.71 362.788,453.124 364.154,455.172 366.202,455.854 367.567,455.854 369.615,455.172 370.981,453.124 371.663,449.71 371.663,447.662 370.981,444.249 369.615,442.201 367.567,441.518 366.202,441.518 " />
<polyline points="377.808,455.172 377.125,455.854 376.442,455.172 377.125,454.489 377.808,455.172 377.808,456.537 377.125,457.903 376.442,458.585 " />
<polyline points="391.461,443.566 390.779,442.201 388.731,441.518 387.365,441.518 385.317,442.201 383.952,444.249 383.269,447.662 383.269,451.076 383.952,453.806 385.317,455.172 387.365,455.854 388.048,455.854 390.096,455.172 391.461,453.806 392.144,451.758 392.144,451.076 391.461,449.028 390.096,447.662 388.048,446.979 387.365,446.979 385.317,447.662 383.952,449.028 383.269,451.076 " />
<polyline points="400.336,441.518 398.288,442.201 396.923,444.249 396.24,447.662 396.24,449.71 396.923,453.124 398.288,455.172 400.336,455.854 401.702,455.854 403.75,455.172 405.115,453.124 405.798,449.71 405.798,447.662 405.115,444.249 403.75,442.201 401.702,441.518 400.336,441.518 " />
<polyline points="413.99,441.518 411.942,442.201 410.577,444.249 409.894,447.662 409.894,449.71 410.577,453.124 411.942,455.172 413.99,455.854 415.356,455.854 417.404,455.172 418.769,453.124 419.452,449.71 419.452,447.662 418.769,444.249 417.404,442.201 415.356,441.518 413.99,441.518 " />
<polyline points="321.412,475.52 309.123,497.366 " />
<polyline points="331.652,478.251 324.825,487.809 335.066,487.809 " />
<polyline points="331.652,478.251 331.652,492.588 " />
<polyline points="339.844,491.222 339.162,491.905 339.844,492.588 340.527,491.905 339.844,491.222 " />
<polyline points="346.671,478.251 354.181,478.251 350.085,483.713 352.133,483.713 353.498,484.395 354.181,485.078 354.864,487.126 354.864,488.491 354.181,490.54 352.816,491.905 350.767,492.588 348.719,492.588 346.671,491.905 345.989,491.222 345.306,489.857 " />
<polyline points="275.511,474.513 301.569,474.513 " />
<polyline points="269.193,498.619 275.511,474.513 " />
<polyline points="264.456,485.992 269.193,498.619 " />
<polyline points="260.507,491.731 264.456,485.992 " />
<polyline points="284.882,478.251 279.421,492.588 " />
<polyline points="284.882,478.251 290.344,492.588 " />
<polyline points="281.469,487.809 288.296,487.809 " />
<polyline points="297.139,487.064 295.91,487.474 295.091,488.703 294.681,490.751 294.681,491.979 295.091,494.028 295.91,495.256 297.139,495.666 297.958,495.666 299.187,495.256 300.006,494.028 300.416,491.979 300.416,490.751 300.006,488.703 299.187,487.474 297.958,487.064 297.139,487.064 " />
<polyline points="202.307,478.251 202.307,492.588 210.499,492.588 " />
<polyline points="215.792,493.635 221.8,493.635 221.8,492.634 221.299,491.632 220.799,491.132 219.797,490.631 218.295,490.631 217.294,491.132 216.293,492.133 215.792,493.635 215.792,494.636 216.293,496.138 217.294,497.139 218.295,497.64 219.797,497.64 220.799,497.139 221.8,496.138 " />
<polyline points="230.944,484.104 243.232,484.104 " />
<polyline points="230.944,488.201 243.232,488.201 " />
<polyline points="58.8651,480.008 47.9421,486.153 58.8651,492.297 " />
<polyline points="78.6632,481.374 78.6632,480.691 79.3459,479.326 80.0286,478.643 81.3939,477.96 84.1247,477.96 85.4901,478.643 86.1728,479.326 86.8555,480.691 86.8555,482.056 86.1728,483.422 84.8074,485.47 77.9805,492.297 87.5382,492.297 " />
<polyline points="99.8266,477.96 92.9997,477.96 92.317,484.104 92.9997,483.422 95.0478,482.739 97.0958,482.739 99.1439,483.422 100.509,484.787 101.192,486.835 101.192,488.201 100.509,490.249 99.1439,491.614 97.0958,492.297 95.0478,492.297 92.9997,491.614 92.317,490.931 91.6343,489.566 " />
<polyline points="109.384,477.96 107.336,478.643 105.971,480.691 105.288,484.104 105.288,486.153 105.971,489.566 107.336,491.614 109.384,492.297 110.75,492.297 112.798,491.614 114.163,489.566 114.846,486.153 114.846,484.104 114.163,480.691 112.798,478.643 110.75,477.96 109.384,477.96 " />
<polyline points="123.038,477.96 120.99,478.643 119.625,480.691 118.942,484.104 118.942,486.153 119.625,489.566 120.99,491.614 123.038,492.297 124.403,492.297 126.452,491.614 127.817,489.566 128.5,486.153 128.5,484.104 127.817,480.691 126.452,478.643 124.403,477.96 123.038,477.96 " />
<polyline points="151.711,477.96 150.346,477.96 148.98,478.643 148.298,480.691 148.298,492.297 " />
<polyline points="146.25,482.739 151.028,482.739 " />
<polyline points="155.807,482.739 155.807,497.076 " />
<polyline points="155.807,484.787 157.173,483.422 158.538,482.739 160.586,482.739 161.951,483.422 163.317,484.787 164,486.835 164,488.201 163.317,490.249 161.951,491.614 160.586,492.297 158.538,492.297 157.173,491.614 155.807,490.249 " />
<polyline points="168.778,482.739 168.778,492.297 " />
<polyline points="168.778,485.47 170.826,483.422 172.192,482.739 174.24,482.739 175.605,483.422 176.288,485.47 176.288,492.297 " />
<polyline points="176.288,485.47 178.336,483.422 179.701,482.739 181.749,482.739 183.115,483.422 183.798,485.47 183.798,492.297 " />
<polyline points="189.942,482.739 189.259,483.422 189.942,484.104 190.624,483.422 189.942,482.739 " />
<polyline points="189.942,490.931 189.259,491.614 189.942,492.297 190.624,491.614 189.942,490.931 " />
<polyline points="26.8178,486.648 25.589,487.058 24.7697,488.286 24.3601,490.335 24.3601,491.563 24.7697,493.611 25.589,494.84 26.8178,495.25 27.637,495.25 28.8659,494.84 29.6851,493.611 30.0947,491.563 30.0947,490.335 29.6851,488.286 28.8659,487.058 27.637,486.648 26.8178,486.648 " />
<polyline points="12.222,477.96 17.6835,492.297 " />
<polyline points="23.145,477.96 17.6835,492.297 " />
<polyline points="47.992,496.323 59.0471,496.323 " />
<polyline points="11.4384,535.936 14.1692,545.494 " />
<polyline points="16.9,535.936 14.1692,545.494 " />
<polyline points="16.9,535.936 19.6307,545.494 " />
<polyline points="22.3615,535.936 19.6307,545.494 " />
<polyline points="27.1403,531.157 27.1403,545.494 " />
<polyline points="27.1403,538.667 29.1884,536.619 30.5538,535.936 32.6018,535.936 33.9672,536.619 34.6499,538.667 34.6499,545.494 " />
<polyline points="39.4288,540.032 47.621,540.032 47.621,538.667 46.9384,537.301 46.2557,536.619 44.8903,535.936 42.8422,535.936 41.4768,536.619 40.1114,537.984 39.4288,540.032 39.4288,541.398 40.1114,543.446 41.4768,544.811 42.8422,545.494 44.8903,545.494 46.2557,544.811 47.621,543.446 " />
<polyline points="52.3999,535.936 52.3999,545.494 " />
<polyline points="52.3999,540.032 53.0826,537.984 54.448,536.619 55.8133,535.936 57.8614,535.936 " />
<polyline points="60.5922,540.032 68.7845,540.032 68.7845,538.667 68.1018,537.301 67.4191,536.619 66.0537,535.936 64.0056,535.936 62.6402,536.619 61.2749,537.984 60.5922,540.032 60.5922,541.398 61.2749,543.446 62.6402,544.811 64.0056,545.494 66.0537,545.494 67.4191,544.811 68.7845,543.446 " />
<polyline points="633.05,220.088 633.05,208.141 " />
<polyline points="633.05,153.184 633.05,165.131 " />
</g>
<g clip-path="url(#clipId0)" fill="rgb(0,0,0)" stroke="rgb(0,0,0)" stroke-width="0.25" >
<path d="M635.439,220.088 630.66,220.088 633.05,234.424 633.05,234.424 z" />
<path d="M635.439,153.184 630.66,153.184 633.05,138.847 633.05,138.847 z" />
</g>
<g clip-path="url(#clipId0)" fill="none" stroke="rgb(0,0,0)" stroke-width="0.25" >
<polyline points="640.567,185.56 639.338,185.97 638.519,187.199 638.109,189.247 638.109,190.476 638.519,192.524 639.338,193.753 640.567,194.162 641.386,194.162 642.615,193.753 643.434,192.524 643.844,190.476 643.844,189.247 643.434,187.199 642.615,185.97 641.386,185.56 640.567,185.56 " />
<polyline points="623.83,176.426 623.83,190.762 " />
<polyline points="623.83,176.426 628.609,176.426 630.657,177.108 632.022,178.474 632.705,179.839 633.388,181.887 633.388,185.301 632.705,187.349 632.022,188.714 630.657,190.08 628.609,190.762 623.83,190.762 " />
<polyline points="275.317,450.534 274.088,450.943 273.269,452.172 272.859,454.22 272.859,455.449 273.269,457.497 274.088,458.726 275.317,459.136 276.136,459.136 277.365,458.726 278.184,457.497 278.594,455.449 278.594,454.22 278.184,452.172 277.365,450.943 276.136,450.534 275.317,450.534 " />
<polyline points="490.478,158.181 489.112,158.863 487.747,160.229 487.064,161.594 486.382,163.642 486.382,167.056 487.064,169.104 487.747,170.469 489.112,171.834 490.478,172.517 493.209,172.517 494.574,171.834 495.939,170.469 496.622,169.104 497.305,167.056 497.305,163.642 496.622,161.594 495.939,160.229 494.574,158.863 493.209,158.181 490.478,158.181 " />
<polyline points="492.526,169.786 496.622,173.883 " />
<polyline points="897.088,640.061 897.088,639.652 897.497,638.832 897.907,638.423 898.726,638.013 900.365,638.013 901.184,638.423 901.593,638.832 902.003,639.652 902.003,640.471 901.593,641.29 900.774,642.519 896.678,646.615 902.413,646.615 " />
<polyline points="653.051,443.275 663.974,449.419 653.051,455.564 " />
<polyline points="685.137,443.958 686.503,443.275 688.551,441.227 688.551,455.564 " />
<polyline points="698.109,441.227 705.618,441.227 701.522,446.689 703.57,446.689 704.935,447.371 705.618,448.054 706.301,450.102 706.301,451.467 705.618,453.516 704.253,454.881 702.205,455.564 700.157,455.564 698.109,454.881 697.426,454.198 696.743,452.833 " />
<polyline points="725.416,446.006 725.416,455.564 " />
<polyline points="725.416,448.737 727.464,446.689 728.83,446.006 730.878,446.006 732.243,446.689 732.926,448.737 732.926,455.564 " />
<polyline points="732.926,448.737 734.974,446.689 736.339,446.006 738.387,446.006 739.753,446.689 740.435,448.737 740.435,455.564 " />
<polyline points="756.82,438.496 744.532,460.342 " />
<polyline points="767.743,448.054 767.06,446.689 765.012,446.006 762.964,446.006 760.916,446.689 760.233,448.054 760.916,449.419 762.282,450.102 765.695,450.785 767.06,451.467 767.743,452.833 767.743,453.516 767.06,454.881 765.012,455.564 762.964,455.564 760.916,454.881 760.233,453.516 " />
<polyline points="773.205,446.006 772.522,446.689 773.205,447.371 773.887,446.689 773.205,446.006 " />
<polyline points="773.205,454.198 772.522,454.881 773.205,455.564 773.887,454.881 773.205,454.198 " />
<polyline points="793.685,441.227 793.685,455.564 801.878,455.564 " />
<polyline points="819.628,447.371 831.916,447.371 " />
<polyline points="819.628,451.467 831.916,451.467 " />
<polyline points="849.666,441.227 855.127,455.564 " />
<polyline points="860.589,441.227 855.127,455.564 " />
<polyline points="896.089,441.227 890.627,455.564 " />
<polyline points="896.089,441.227 901.55,455.564 " />
<polyline points="892.675,450.785 899.502,450.785 " />
<polyline points="930.223,438.496 917.935,460.342 " />
<polyline points="940.464,441.227 933.637,450.785 943.877,450.785 " />
<polyline points="940.464,441.227 940.464,455.564 " />
<polyline points="949.339,454.881 948.656,455.564 947.973,454.881 948.656,454.198 949.339,454.881 949.339,456.246 948.656,457.612 947.973,458.294 " />
<polyline points="962.31,441.227 955.483,441.227 954.8,447.371 955.483,446.689 957.531,446.006 959.579,446.006 961.627,446.689 962.993,448.054 963.675,450.102 963.675,451.467 962.993,453.516 961.627,454.881 959.579,455.564 957.531,455.564 955.483,454.881 954.8,454.198 954.118,452.833 " />
<polyline points="971.868,441.227 969.82,441.91 968.454,443.958 967.771,447.371 967.771,449.419 968.454,452.833 969.82,454.881 971.868,455.564 973.233,455.564 975.281,454.881 976.646,452.833 977.329,449.419 977.329,447.371 976.646,443.958 975.281,441.91 973.233,441.227 971.868,441.227 " />
<polyline points="985.521,441.227 983.473,441.91 982.108,443.958 981.425,447.371 981.425,449.419 982.108,452.833 983.473,454.881 985.521,455.564 986.887,455.564 988.935,454.881 990.3,452.833 990.983,449.419 990.983,447.371 990.3,443.958 988.935,441.91 986.887,441.227 985.521,441.227 " />
<polyline points="663.974,480.008 653.051,486.153 663.974,492.297 " />
<polyline points="685.137,480.691 686.503,480.008 688.551,477.96 688.551,492.297 " />
<polyline points="698.109,477.96 705.618,477.96 701.522,483.422 703.57,483.422 704.935,484.104 705.618,484.787 706.301,486.835 706.301,488.201 705.618,490.249 704.253,491.614 702.205,492.297 700.157,492.297 698.109,491.614 697.426,490.931 696.743,489.566 " />
<polyline points="725.416,482.739 725.416,492.297 " />
<polyline points="725.416,485.47 727.464,483.422 728.83,482.739 730.878,482.739 732.243,483.422 732.926,485.47 732.926,492.297 " />
<polyline points="732.926,485.47 734.974,483.422 736.339,482.739 738.387,482.739 739.753,483.422 740.435,485.47 740.435,492.297 " />
<polyline points="756.82,475.229 744.532,497.076 " />
<polyline points="767.743,484.787 767.06,483.422 765.012,482.739 762.964,482.739 760.916,483.422 760.233,484.787 760.916,486.153 762.282,486.835 765.695,487.518 767.06,488.201 767.743,489.566 767.743,490.249 767.06,491.614 765.012,492.297 762.964,492.297 760.916,491.614 760.233,490.249 " />
<polyline points="773.205,482.739 772.522,483.422 773.205,484.104 773.887,483.422 773.205,482.739 " />
<polyline points="773.205,490.931 772.522,491.614 773.205,492.297 773.887,491.614 773.205,490.931 " />
<polyline points="793.685,477.96 793.685,492.297 801.878,492.297 " />
<polyline points="819.628,484.104 831.916,484.104 " />
<polyline points="819.628,488.201 831.916,488.201 " />
<polyline points="869.464,477.96 864.002,492.297 " />
<polyline points="869.464,477.96 874.926,492.297 " />
<polyline points="866.051,487.518 872.877,487.518 " />
<polyline points="903.599,475.229 891.31,497.076 " />
<polyline points="908.377,477.96 915.887,477.96 911.791,483.422 913.839,483.422 915.204,484.104 915.887,484.787 916.57,486.835 916.57,488.201 915.887,490.249 914.522,491.614 912.474,492.297 910.425,492.297 908.377,491.614 907.695,490.931 907.012,489.566 " />
<polyline points="928.858,477.96 922.031,477.96 921.349,484.104 922.031,483.422 924.079,482.739 926.127,482.739 928.175,483.422 929.541,484.787 930.223,486.835 930.223,488.201 929.541,490.249 928.175,491.614 926.127,492.297 924.079,492.297 922.031,491.614 921.349,490.931 920.666,489.566 " />
<polyline points="938.416,477.96 936.368,478.643 935.002,480.691 934.32,484.104 934.32,486.153 935.002,489.566 936.368,491.614 938.416,492.297 939.781,492.297 941.829,491.614 943.195,489.566 943.877,486.153 943.877,484.104 943.195,480.691 941.829,478.643 939.781,477.96 938.416,477.96 " />
<polyline points="616.178,535.171 618.909,544.728 " />
<polyline points="621.64,535.171 618.909,544.728 " />
<polyline points="621.64,535.171 624.371,544.728 " />
<polyline points="627.101,535.171 624.371,544.728 " />
<polyline points="631.88,530.392 631.88,544.728 " />
<polyline points="631.88,537.902 633.928,535.853 635.294,535.171 637.342,535.171 638.707,535.853 639.39,537.902 639.39,544.728 " />
<polyline points="644.169,539.267 652.361,539.267 652.361,537.902 651.678,536.536 650.996,535.853 649.63,535.171 647.582,535.171 646.217,535.853 644.851,537.219 644.169,539.267 644.169,540.632 644.851,542.68 646.217,544.046 647.582,544.728 649.63,544.728 650.996,544.046 652.361,542.68 " />
<polyline points="657.14,535.171 657.14,544.728 " />
<polyline points="657.14,539.267 657.822,537.219 659.188,535.853 660.553,535.171 662.601,535.171 " />
<polyline points="665.332,539.267 673.524,539.267 673.524,537.902 672.842,536.536 672.159,535.853 670.794,535.171 668.746,535.171 667.38,535.853 666.015,537.219 665.332,539.267 665.332,540.632 666.015,542.68 667.38,544.046 668.746,544.728 670.794,544.728 672.159,544.046 673.524,542.68 " />
<polyline points="692.324,573.269 704.612,573.269 " />
<polyline points="692.324,577.365 704.612,577.365 " />
<polyline points="731.92,567.125 731.92,581.462 " />
<polyline points="731.92,573.952 730.555,572.587 729.189,571.904 727.141,571.904 725.776,572.587 724.41,573.952 723.728,576 723.728,577.365 724.41,579.413 725.776,580.779 727.141,581.462 729.189,581.462 730.555,580.779 731.92,579.413 " />
<polyline points="737.382,571.904 737.382,578.731 738.064,580.779 739.43,581.462 741.478,581.462 742.843,580.779 744.891,578.731 " />
<polyline points="744.891,571.904 744.891,581.462 " />
<polyline points="757.862,573.952 756.497,572.587 755.132,571.904 753.083,571.904 751.718,572.587 750.353,573.952 749.67,576 749.67,577.365 750.353,579.413 751.718,580.779 753.083,581.462 755.132,581.462 756.497,580.779 757.862,579.413 " />
<polyline points="763.324,567.125 763.324,578.731 764.006,580.779 765.372,581.462 766.737,581.462 " />
<polyline points="761.276,571.904 766.055,571.904 " />
<polyline points="783.805,571.904 787.901,581.462 " />
<polyline points="791.997,571.904 787.901,581.462 " />
<polyline points="795.41,576 803.603,576 803.603,574.635 802.92,573.269 802.237,572.587 800.872,571.904 798.824,571.904 797.458,572.587 796.093,573.952 795.41,576 795.41,577.365 796.093,579.413 797.458,580.779 798.824,581.462 800.872,581.462 802.237,580.779 803.603,579.413 " />
<polyline points="808.381,567.125 808.381,581.462 " />
<polyline points="816.574,571.904 815.208,572.587 813.843,573.952 813.16,576 813.16,577.365 813.843,579.413 815.208,580.779 816.574,581.462 818.622,581.462 819.987,580.779 821.353,579.413 822.035,577.365 822.035,576 821.353,573.952 819.987,572.587 818.622,571.904 816.574,571.904 " />
<polyline points="834.324,573.952 832.958,572.587 831.593,571.904 829.545,571.904 828.179,572.587 826.814,573.952 826.131,576 826.131,577.365 826.814,579.413 828.179,580.779 829.545,581.462 831.593,581.462 832.958,580.779 834.324,579.413 " />
<polyline points="838.42,567.808 839.102,568.49 839.785,567.808 839.102,567.125 838.42,567.808 " />
<polyline points="839.102,572.587 839.102,581.462 " />
<polyline points="845.247,567.125 845.247,578.731 845.929,580.779 847.295,581.462 848.66,581.462 " />
<polyline points="843.199,571.904 847.977,571.904 " />
<polyline points="851.391,571.904 855.487,581.462 " />
<polyline points="859.583,571.904 855.487,581.462 854.122,584.192 852.756,585.558 851.391,586.24 850.708,586.24 " />
<polyline points="865.045,580.779 864.362,581.462 863.679,580.779 864.362,580.096 865.045,580.779 865.045,582.144 864.362,583.51 863.679,584.192 " />
<polyline points="884.843,571.904 884.843,581.462 " />
<polyline points="884.843,574.635 886.891,572.587 888.256,571.904 890.304,571.904 891.67,572.587 892.352,574.635 892.352,581.462 " />
<polyline points="892.352,574.635 894.4,572.587 895.766,571.904 897.814,571.904 899.179,572.587 899.862,574.635 899.862,581.462 " />
<polyline points="916.247,564.394 903.958,586.24 " />
<polyline points="927.17,573.952 926.487,572.587 924.439,571.904 922.391,571.904 920.343,572.587 919.66,573.952 920.343,575.317 921.708,576 925.122,576.683 926.487,577.365 927.17,578.731 927.17,579.413 926.487,580.779 924.439,581.462 922.391,581.462 920.343,580.779 919.66,579.413 " />
<polyline points="692.324,610.002 704.612,610.002 " />
<polyline points="692.324,614.098 704.612,614.098 " />
<polyline points="723.728,612.733 731.92,612.733 731.92,611.368 731.237,610.002 730.555,609.32 729.189,608.637 727.141,608.637 725.776,609.32 724.41,610.685 723.728,612.733 723.728,614.098 724.41,616.147 725.776,617.512 727.141,618.195 729.189,618.195 730.555,617.512 731.92,616.147 " />
<polyline points="740.795,603.858 739.43,603.858 738.064,604.541 737.382,606.589 737.382,618.195 " />
<polyline points="735.333,608.637 740.112,608.637 " />
<polyline points="748.987,603.858 747.622,603.858 746.257,604.541 745.574,606.589 745.574,618.195 " />
<polyline points="743.526,608.637 748.305,608.637 " />
<polyline points="752.401,612.733 760.593,612.733 760.593,611.368 759.91,610.002 759.228,609.32 757.862,608.637 755.814,608.637 754.449,609.32 753.083,610.685 752.401,612.733 752.401,614.098 753.083,616.147 754.449,617.512 755.814,618.195 757.862,618.195 759.228,617.512 760.593,616.147 " />
<polyline points="772.881,610.685 771.516,609.32 770.151,608.637 768.103,608.637 766.737,609.32 765.372,610.685 764.689,612.733 764.689,614.098 765.372,616.147 766.737,617.512 768.103,618.195 770.151,618.195 771.516,617.512 772.881,616.147 " />
<polyline points="778.343,603.858 778.343,615.464 779.026,617.512 780.391,618.195 781.756,618.195 " />
<polyline points="776.295,608.637 781.074,608.637 " />
<polyline points="785.17,604.541 785.853,605.223 786.535,604.541 785.853,603.858 785.17,604.541 " />
<polyline points="785.853,609.32 785.853,618.195 " />
<polyline points="789.949,608.637 794.045,618.195 " />
<polyline points="798.141,608.637 794.045,618.195 " />
<polyline points="801.554,612.733 809.747,612.733 809.747,611.368 809.064,610.002 808.381,609.32 807.016,608.637 804.968,608.637 803.603,609.32 802.237,610.685 801.554,612.733 801.554,614.098 802.237,616.147 803.603,617.512 804.968,618.195 807.016,618.195 808.381,617.512 809.747,616.147 " />
<polyline points="836.372,603.858 836.372,618.195 " />
<polyline points="836.372,610.685 835.006,609.32 833.641,608.637 831.593,608.637 830.228,609.32 828.862,610.685 828.179,612.733 828.179,614.098 828.862,616.147 830.228,617.512 831.593,618.195 833.641,618.195 835.006,617.512 836.372,616.147 " />
<polyline points="841.833,608.637 841.833,615.464 842.516,617.512 843.881,618.195 845.929,618.195 847.295,617.512 849.343,615.464 " />
<polyline points="849.343,608.637 849.343,618.195 " />
<polyline points="862.314,610.685 860.949,609.32 859.583,608.637 857.535,608.637 856.17,609.32 854.804,610.685 854.122,612.733 854.122,614.098 854.804,616.147 856.17,617.512 857.535,618.195 859.583,618.195 860.949,617.512 862.314,616.147 " />
<polyline points="867.776,603.858 867.776,615.464 868.458,617.512 869.824,618.195 871.189,618.195 " />
<polyline points="865.727,608.637 870.506,608.637 " />
<polyline points="889.622,603.858 889.622,618.195 " />
<polyline points="894.4,612.733 902.593,612.733 902.593,611.368 901.91,610.002 901.227,609.32 899.862,608.637 897.814,608.637 896.449,609.32 895.083,610.685 894.4,612.733 894.4,614.098 895.083,616.147 896.449,617.512 897.814,618.195 899.862,618.195 901.227,617.512 902.593,616.147 " />
<polyline points="907.372,608.637 907.372,618.195 " />
<polyline points="907.372,611.368 909.42,609.32 910.785,608.637 912.833,608.637 914.198,609.32 914.881,611.368 914.881,618.195 " />
<polyline points="927.852,608.637 927.852,619.56 927.17,621.608 926.487,622.291 925.122,622.973 923.073,622.973 921.708,622.291 " />
<polyline points="927.852,610.685 926.487,609.32 925.122,608.637 923.073,608.637 921.708,609.32 920.343,610.685 919.66,612.733 919.66,614.098 920.343,616.147 921.708,617.512 923.073,618.195 925.122,618.195 926.487,617.512 927.852,616.147 " />
<polyline points="933.997,603.858 933.997,615.464 934.679,617.512 936.045,618.195 937.41,618.195 " />
<polyline points="931.948,608.637 936.727,608.637 " />
<polyline points="941.506,603.858 941.506,618.195 " />
<polyline points="941.506,611.368 943.554,609.32 944.92,608.637 946.968,608.637 948.333,609.32 949.016,611.368 949.016,618.195 " />
<polyline points="955.843,617.512 955.16,618.195 954.477,617.512 955.16,616.829 955.843,617.512 955.843,618.877 955.16,620.243 954.477,620.925 " />
<polyline points="975.641,608.637 975.641,618.195 " />
<polyline points="975.641,611.368 977.689,609.32 979.054,608.637 981.102,608.637 982.468,609.32 983.15,611.368 983.15,618.195 " />
<polyline points="983.15,611.368 985.198,609.32 986.564,608.637 988.612,608.637 989.977,609.32 990.66,611.368 990.66,618.195 " />
<polyline points="692.324,646.735 704.612,646.735 " />
<polyline points="692.324,650.832 704.612,650.832 " />
<polyline points="731.92,640.591 731.92,654.928 " />
<polyline points="731.92,647.418 730.555,646.053 729.189,645.37 727.141,645.37 725.776,646.053 724.41,647.418 723.728,649.466 723.728,650.832 724.41,652.88 725.776,654.245 727.141,654.928 729.189,654.928 730.555,654.245 731.92,652.88 " />
<polyline points="737.382,645.37 737.382,652.197 738.064,654.245 739.43,654.928 741.478,654.928 742.843,654.245 744.891,652.197 " />
<polyline points="744.891,645.37 744.891,654.928 " />
<polyline points="757.862,647.418 756.497,646.053 755.132,645.37 753.083,645.37 751.718,646.053 750.353,647.418 749.67,649.466 749.67,650.832 750.353,652.88 751.718,654.245 753.083,654.928 755.132,654.928 756.497,654.245 757.862,652.88 " />
<polyline points="763.324,640.591 763.324,652.197 764.006,654.245 765.372,654.928 766.737,654.928 " />
<polyline points="761.276,645.37 766.055,645.37 " />
<polyline points="792.68,645.37 792.68,654.928 " />
<polyline points="792.68,647.418 791.314,646.053 789.949,645.37 787.901,645.37 786.535,646.053 785.17,647.418 784.487,649.466 784.487,650.832 785.17,652.88 786.535,654.245 787.901,654.928 789.949,654.928 791.314,654.245 792.68,652.88 " />
<polyline points="798.141,645.37 798.141,654.928 " />
<polyline points="798.141,649.466 798.824,647.418 800.189,646.053 801.554,645.37 803.603,645.37 " />
<polyline points="806.333,649.466 814.526,649.466 814.526,648.101 813.843,646.735 813.16,646.053 811.795,645.37 809.747,645.37 808.381,646.053 807.016,647.418 806.333,649.466 806.333,650.832 807.016,652.88 808.381,654.245 809.747,654.928 811.795,654.928 813.16,654.245 814.526,652.88 " />
<polyline points="826.814,645.37 826.814,654.928 " />
<polyline points="826.814,647.418 825.449,646.053 824.083,645.37 822.035,645.37 820.67,646.053 819.304,647.418 818.622,649.466 818.622,650.832 819.304,652.88 820.67,654.245 822.035,654.928 824.083,654.928 825.449,654.245 826.814,652.88 " />
<polyline points="833.641,654.245 832.958,654.928 832.276,654.245 832.958,653.562 833.641,654.245 833.641,655.61 832.958,656.976 832.276,657.658 " />
<polyline points="853.439,645.37 853.439,654.928 " />
<polyline points="853.439,648.101 855.487,646.053 856.852,645.37 858.901,645.37 860.266,646.053 860.949,648.101 860.949,654.928 " />
<polyline points="860.949,648.101 862.997,646.053 864.362,645.37 866.41,645.37 867.776,646.053 868.458,648.101 868.458,654.928 " />
<polyline points="873.92,645.37 873.92,654.928 " />
<polyline points="873.92,648.101 875.968,646.053 877.333,645.37 879.381,645.37 880.747,646.053 881.429,648.101 881.429,654.928 " />
<polyline points="881.429,648.101 883.477,646.053 884.843,645.37 886.891,645.37 888.256,646.053 888.939,648.101 888.939,654.928 " />
<polyline points="873.138,446.817 876.552,446.817 882.696,455.009 " />
<polyline points="875.869,447.499 882.696,456.374 " />
<polyline points="893.619,433.845 882.696,456.374 " />
<polyline points="846.043,483.477 849.456,483.477 855.601,491.669 " />
<polyline points="848.774,484.16 855.601,493.035 " />
<polyline points="866.524,470.506 855.601,493.035 " />
<polyline points="650.602,494.32 662.982,494.32 " />
<polyline points="632.724,449.857 631.495,450.267 630.676,451.495 630.267,453.544 630.267,454.772 630.676,456.82 631.495,458.049 632.724,458.459 633.544,458.459 634.772,458.049 635.592,456.82 636.001,454.772 636.001,453.544 635.592,451.495 634.772,450.267 633.544,449.857 632.724,449.857 " />
<polyline points="631.358,487.947 630.129,488.356 629.31,489.585 628.9,491.633 628.9,492.862 629.31,494.91 630.129,496.139 631.358,496.549 632.177,496.549 633.406,496.139 634.225,494.91 634.635,492.862 634.635,491.633 634.225,489.585 633.406,488.356 632.177,487.947 631.358,487.947 " />
<polyline points="907.826,450.343 906.597,450.753 905.778,451.982 905.368,454.03 905.368,455.259 905.778,457.307 906.597,458.536 907.826,458.945 908.645,458.945 909.874,458.536 910.693,457.307 911.103,455.259 911.103,454.03 910.693,451.982 909.874,450.753 908.645,450.343 907.826,450.343 " />
<polyline points="864.132,450.343 862.903,450.753 862.084,451.982 861.675,454.03 861.675,455.259 862.084,457.307 862.903,458.536 864.132,458.945 864.951,458.945 866.18,458.536 867,457.307 867.409,455.259 867.409,454.03 867,451.982 866.18,450.753 864.951,450.343 864.132,450.343 " />
<polyline points="881.837,486.915 880.608,487.325 879.789,488.554 879.379,490.602 879.379,491.831 879.789,493.879 880.608,495.108 881.837,495.517 882.656,495.517 883.885,495.108 884.704,493.879 885.114,491.831 885.114,490.602 884.704,488.554 883.885,487.325 882.656,486.915 881.837,486.915 " />
<polyline points="671.314,576.721 670.085,577.131 669.266,578.359 668.856,580.407 668.856,581.636 669.266,583.684 670.085,584.913 671.314,585.323 672.133,585.323 673.362,584.913 674.181,583.684 674.591,581.636 674.591,580.407 674.181,578.359 673.362,577.131 672.133,576.721 671.314,576.721 " />
<polyline points="893.485,433.065 915.92,433.065 " />
<polyline points="866.47,470.382 890.266,470.382 " />
<polyline points="672.518,617.69 678.526,617.69 678.526,616.689 678.026,615.687 677.525,615.187 676.524,614.686 675.022,614.686 674.02,615.187 673.019,616.188 672.518,617.69 672.518,618.691 673.019,620.193 674.02,621.194 675.022,621.695 676.524,621.695 677.525,621.194 678.526,620.193 " />
<polyline points="617.331,441.227 622.792,455.564 " />
<polyline points="628.254,441.227 622.792,455.564 " />
<polyline points="617.331,477.96 622.792,492.297 " />
<polyline points="628.254,477.96 622.792,492.297 " />
<polyline points="656.604,567.125 662.065,581.462 " />
<polyline points="667.527,567.125 662.065,581.462 " />
<polyline points="658.652,603.858 658.652,618.195 666.844,618.195 " />
<polyline points="662.065,640.591 656.604,654.928 " />
<polyline points="662.065,640.591 667.527,654.928 " />
<polyline points="658.652,650.149 665.479,650.149 " />
<polyline points="674.703,649.99 673.474,650.4 672.655,651.629 672.245,653.677 672.245,654.905 672.655,656.954 673.474,658.182 674.703,658.592 675.522,658.592 676.751,658.182 677.57,656.954 677.98,654.905 677.98,653.677 677.57,651.629 676.751,650.4 675.522,649.99 674.703,649.99 " />
<polyline points="806.514,454.94 812.521,454.94 812.521,453.939 812.021,452.938 811.52,452.437 810.519,451.936 809.017,451.936 808.016,452.437 807.014,453.438 806.514,454.94 806.514,455.941 807.014,457.443 808.016,458.445 809.017,458.945 810.519,458.945 811.52,458.445 812.521,457.443 " />
<polyline points="806.548,491.512 812.555,491.512 812.555,490.511 812.055,489.51 811.554,489.009 810.553,488.508 809.051,488.508 808.049,489.009 807.048,490.01 806.548,491.512 806.548,492.513 807.048,494.015 808.049,495.017 809.051,495.517 810.553,495.517 811.554,495.017 812.555,494.015 " />
<polyline points="910.771,723.432 908.769,721.43 905.765,720.428 901.76,720.428 898.756,721.43 896.753,723.432 896.753,725.435 897.754,727.437 898.756,728.439 900.758,729.44 906.766,731.442 908.769,732.444 909.77,733.445 910.771,735.448 910.771,738.451 908.769,740.454 905.765,741.455 901.76,741.455 898.756,740.454 896.753,738.451 " />
<polyline points="917.78,720.428 917.78,741.455 " />
<polyline points="917.78,720.428 924.789,720.428 927.793,721.43 929.795,723.432 930.797,725.435 931.798,728.439 931.798,733.445 930.797,736.449 929.795,738.451 927.793,740.454 924.789,741.455 917.78,741.455 " />
<polyline points="951.824,720.428 941.811,741.455 " />
<polyline points="937.806,720.428 951.824,720.428 " />
<polyline points="958.833,732.444 976.856,732.444 " />
<polyline points="986.868,724.433 988.871,723.432 991.875,720.428 991.875,741.455 " />
<polyline points="467.319,186.636 446.037,186.118 " />
</g>
</svg>
