<?xml version="1.0" standalone="no"?>
<svg viewBox="0 0 1024 768" version="1.1" xmlns="http://www.w3.org/2000/svg" xmlns:xlink="http://www.w3.org/1999/xlink" stroke-linecap="round" stroke-linejoin="round" fill-rule="evenodd" xml:space="preserve" >
<defs >
<clipPath id="clipId0" >
<path d="M0,768 1024,768 1024,0 0,0 z" />
</clipPath>
</defs>
<g clip-path="url(#clipId0)" fill="none" stroke="rgb(0,0,0)" stroke-width="0.1" />
<g clip-path="url(#clipId0)" fill="none" stroke="rgb(0,0,0)" stroke-width="0.25" >
<polyline points="195.82,205.401 195.82,53.0712 " />
<path d="M195.82,53.0712  A25.3883,25.3883 0 0,0 221.208,78.4595 " />
<polyline points="583.405,129.236 531.609,129.236 " />
</g>
<g clip-path="url(#clipId0)" fill="rgb(0,0,0)" stroke="rgb(0,0,0)" stroke-width="0.25" >
<path d="M583.405,126.697 583.405,131.775 598.638,129.236 598.638,129.236 z" />
</g>
<g clip-path="url(#clipId0)" fill="none" stroke="rgb(0,0,0)" stroke-width="0.25" >
<polyline points="236.441,180.013 342.238,180.013 " />
<polyline points="236.441,78.4595 342.238,78.4595 " />
<path d="M221.208,180.013  A25.3883,25.3883 0 0,0 195.82,205.401 " />
<polyline points="342.238,113.495 322.414,113.495 " stroke-dasharray="0.000063,6.347085" />
<polyline points="342.238,144.977 322.414,144.977 " stroke-dasharray="0.000063,6.347085" />
<polyline points="322.414,144.977 322.414,113.495 " stroke-dasharray="0.000063,6.347085" />
<polyline points="326.982,113.495 326.982,78.4595 " stroke-dasharray="0.000063,6.347085" />
<polyline points="326.982,144.977 326.982,180.013 " stroke-dasharray="0.000063,6.347085" />
<polyline points="416.192,164.78 416.192,152.086 " />
<polyline points="416.192,93.6925 416.192,106.387 " />
</g>
<g clip-path="url(#clipId0)" fill="rgb(0,0,0)" stroke="rgb(0,0,0)" stroke-width="0.25" >
<path d="M418.731,164.78 413.653,164.78 416.192,180.013 416.192,180.013 z" />
<path d="M418.731,93.6925 413.653,93.6925 416.192,78.4595 416.192,78.4595 z" />
</g>
<g clip-path="url(#clipId0)" fill="none" stroke="rgb(0,0,0)" stroke-width="0.25" >
<polyline points="423.239,128.083 421.933,128.518 421.063,129.823 420.628,132 420.628,133.305 421.063,135.481 421.933,136.787 423.239,137.222 424.11,137.222 425.415,136.787 426.286,135.481 426.721,133.305 426.721,132 426.286,129.823 425.415,128.518 424.11,128.083 423.239,128.083 " />
<polyline points="406.396,118.388 406.396,133.621 " />
<polyline points="406.396,118.388 411.473,118.388 413.649,119.113 415.1,120.564 415.825,122.015 416.551,124.191 416.551,127.818 415.825,129.994 415.1,131.445 413.649,132.895 411.473,133.621 406.396,133.621 " />
<polyline points="741.31,185.091 741.31,73.3819 " />
<polyline points="756.543,180.013 771.776,78.4595 " />
<polyline points="771.776,78.4595 741.31,78.4595 " />
<polyline points="756.543,180.013 741.31,180.013 " />
<polyline points="824.911,248.381 824.911,263.614 " />
<polyline points="926.464,233.148 926.464,263.614 " />
<polyline points="824.911,248.381 926.464,233.148 " />
<polyline points="824.911,248.381 801.352,203.571 " />
<polyline points="801.352,203.571 756.543,180.013 " />
<polyline points="926.464,233.148 873.161,131.762 " />
<polyline points="873.161,131.762 771.776,78.4595 " />
<polyline points="801.352,203.571 873.161,131.762 " />
<polyline points="106.938,159.953 137.654,129.236 " />
<polyline points="106.938,98.5198 137.654,129.236 " />
<polyline points="106.938,159.953 106.938,147.197 " />
<polyline points="83.7716,111.275 83.7716,147.197 " />
<polyline points="83.7716,147.197 106.938,147.197 " />
<polyline points="106.938,111.275 83.7716,111.275 " />
<polyline points="106.938,111.275 106.938,98.5198 " />
<polyline points="731.154,195.246 731.154,63.2265 " />
<polyline points="726.077,195.246 726.077,63.2265 " />
<polyline points="731.154,195.246 726.077,195.246 " />
<polyline points="731.154,63.2265 726.077,63.2265 " />
<polyline points="741.31,185.091 731.154,185.091 " />
<polyline points="741.31,73.3819 731.154,73.3819 " />
<polyline points="931.542,263.614 931.542,273.769 " />
<polyline points="819.833,263.614 819.833,273.769 " />
<polyline points="941.697,273.769 941.697,278.847 " />
<polyline points="809.678,273.769 809.678,278.847 " />
<polyline points="809.678,278.847 941.697,278.847 " />
<polyline points="809.678,273.769 941.697,273.769 " />
<polyline points="819.833,263.614 931.542,263.614 " />
<polyline points="342.238,73.3819 352.393,73.3819 " />
<polyline points="342.238,185.091 352.393,185.091 " />
<polyline points="352.393,63.2265 357.471,63.2265 " />
<polyline points="352.393,195.246 357.471,195.246 " />
<polyline points="357.471,195.246 357.471,63.2265 " />
<polyline points="352.393,195.246 352.393,63.2265 " />
<polyline points="342.238,185.091 342.238,73.3819 " />
<polyline points="236.441,185.091 236.441,73.3819 " />
<polyline points="226.286,185.091 226.286,73.3819 " />
<polyline points="221.208,185.091 221.208,73.3819 " />
<polyline points="236.441,185.091 221.208,185.091 " />
<polyline points="236.441,73.3819 221.208,73.3819 " />
<path d="M266.687,23.4016  A29.8543,29.8543 0 0,0 266.687,61.4841 " />
<polyline points="312.675,23.4016 266.687,23.4016 " />
<polyline points="312.675,61.4841 266.687,61.4841 " />
<path d="M312.675,61.4841  A29.8543,29.8543 0 0,0 312.675,23.4016 " />
<polyline points="266.687,61.4841 266.687,23.4016 " />
<polyline points="312.675,61.4841 312.675,23.4016 " />
<polyline points="332.804,78.4595 342.238,113.495 " stroke-dasharray="0.000063,6.347085" />
<polyline points="332.804,180.013 342.238,144.977 " stroke-dasharray="0.000063,6.347085" />
<polyline points="259.935,39.904 256.161,39.904 " />
<polyline points="259.935,44.9817 256.161,44.9817 " />
<polyline points="256.161,34.8263 251.083,34.8263 " />
<polyline points="256.161,50.0594 254.892,50.0594 " />
<polyline points="256.161,34.8263 256.161,50.0594 " />
<polyline points="251.083,34.8263 251.083,50.0594 " />
<polyline points="251.083,121.62 251.083,136.853 " stroke-dasharray="0.000063,6.347085" />
<polyline points="256.161,121.62 256.161,136.853 " stroke-dasharray="0.000063,6.347085" />
<polyline points="256.161,136.853 251.083,136.853 " stroke-dasharray="0.000063,6.347085" />
<polyline points="256.161,121.62 254.892,121.62 " stroke-dasharray="0.000063,6.347085" />
<polyline points="322.414,131.775 256.161,131.775 " stroke-dasharray="0.000063,6.347085" />
<polyline points="322.414,126.697 256.161,126.697 " stroke-dasharray="0.000063,6.347085" />
<polyline points="252.353,136.853 252.353,78.4595 " stroke-dasharray="0.000063,6.347085" />
<polyline points="254.892,136.853 254.892,78.4595 " stroke-dasharray="0.000063,6.347085" />
<polyline points="252.353,121.62 251.083,121.62 " stroke-dasharray="0.000063,6.347085" />
<polyline points="252.353,50.0594 251.083,50.0594 " />
<polyline points="271.365,61.4841 271.365,78.4595 " />
<polyline points="307.996,61.4841 307.996,78.4595 " />
<polyline points="254.892,78.4595 254.892,34.8263 " />
<polyline points="252.353,78.4595 252.353,34.8263 " />
<polyline points="357.471,201.593 357.471,253.934 " />
<polyline points="726.077,201.593 726.077,253.934 " />
<polyline points="372.704,235.654 490.892,235.654 " />
<polyline points="710.844,235.654 530.062,235.654 " />
</g>
<g clip-path="url(#clipId0)" fill="rgb(0,0,0)" stroke="rgb(0,0,0)" stroke-width="0.25" >
<path d="M372.704,238.193 372.704,233.116 357.471,235.654 357.471,235.654 z" />
<path d="M710.844,238.193 710.844,233.116 726.077,235.654 726.077,235.654 z" />
</g>
<g clip-path="url(#clipId0)" fill="none" stroke="rgb(0,0,0)" stroke-width="0.25" >
<polyline points="509.026,228.038 509.026,243.271 517.731,243.271 " />
</g>
<g clip-path="url(#clipId0)" fill="rgb(0,0,0)" stroke="rgb(0,0,0)" stroke-width="0.25" >
<path d="M339.427,65.5752 334.788,63.5104 330.913,78.4595 330.913,78.4595 z" />
</g>
<g clip-path="url(#clipId0)" fill="none" stroke="rgb(0,0,0)" stroke-width="0.25" >
<polyline points="337.107,64.5428 359.093,15.1459 " />
<polyline points="359.093,15.1459 374.326,15.1459 " />
<polyline points="395.363,7.52941 395.363,22.7624 " />
<polyline points="390.285,7.52941 400.44,7.52941 " />
<polyline points="404.067,7.52941 404.067,18.4101 404.792,20.5863 406.243,22.037 408.419,22.7624 409.87,22.7624 412.046,22.037 413.497,20.5863 414.222,18.4101 414.222,7.52941 " />
<polyline points="420.026,7.52941 420.026,22.7624 " />
<polyline points="420.026,7.52941 426.554,7.52941 428.73,8.25479 429.455,8.98017 430.181,10.4309 430.181,11.8817 429.455,13.3325 428.73,14.0578 426.554,14.7832 " />
<polyline points="420.026,14.7832 426.554,14.7832 428.73,15.5086 429.455,16.234 430.181,17.6847 430.181,19.8609 429.455,21.3117 428.73,22.037 426.554,22.7624 420.026,22.7624 " />
<polyline points="435.259,7.52941 435.259,22.7624 " />
<polyline points="435.259,7.52941 444.688,7.52941 " />
<polyline points="435.259,14.7832 441.062,14.7832 " />
<polyline points="435.259,22.7624 444.688,22.7624 " />
<polyline points="452.668,7.52941 446.865,22.7624 " />
<polyline points="452.668,7.52941 458.471,22.7624 " />
<polyline points="449.041,17.6847 456.295,17.6847 " />
<polyline points="461.372,7.52941 471.528,22.7624 " />
<polyline points="471.528,7.52941 461.372,22.7624 " />
<polyline points="476.605,7.52941 476.605,22.7624 " />
<polyline points="486.035,7.52941 480.232,22.7624 " />
<polyline points="486.035,7.52941 491.838,22.7624 " />
<polyline points="482.408,17.6847 489.662,17.6847 " />
<polyline points="495.465,7.52941 495.465,22.7624 504.17,22.7624 " />
<polyline points="523.03,7.52941 523.03,22.7624 " />
<polyline points="523.03,7.52941 532.46,7.52941 " />
<polyline points="523.03,14.7832 528.833,14.7832 " />
<polyline points="539.713,7.52941 533.91,22.7624 " />
<polyline points="539.713,7.52941 545.516,22.7624 " />
<polyline points="536.086,17.6847 543.34,17.6847 " />
<polyline points="549.143,7.52941 549.143,22.7624 " />
<polyline points="549.143,7.52941 559.299,22.7624 " />
<polyline points="559.299,7.52941 559.299,22.7624 " />
<polyline points="540.426,106.736 538.975,107.461 537.525,108.912 536.799,110.363 536.074,112.539 536.074,116.166 536.799,118.342 537.525,119.793 538.975,121.243 540.426,121.969 543.328,121.969 544.779,121.243 546.229,119.793 546.955,118.342 547.68,116.166 547.68,112.539 546.955,110.363 546.229,108.912 544.779,107.461 543.328,106.736 540.426,106.736 " />
<polyline points="542.602,119.067 546.955,123.42 " />
<polyline points="797.922,451.112 804.306,451.112 804.306,450.048 803.774,448.985 803.242,448.453 802.178,447.921 800.582,447.921 799.518,448.453 798.454,449.516 797.922,451.112 797.922,452.176 798.454,453.772 799.518,454.836 800.582,455.368 802.178,455.368 803.242,454.836 804.306,453.772 " />
<polyline points="797.886,412.253 804.27,412.253 804.27,411.189 803.738,410.126 803.206,409.594 802.142,409.062 800.546,409.062 799.482,409.594 798.418,410.657 797.886,412.253 797.886,413.317 798.418,414.913 799.482,415.977 800.546,416.509 802.142,416.509 803.206,415.977 804.27,414.913 " />
<polyline points="655.747,636.18 654.441,636.616 653.571,637.921 653.135,640.098 653.135,641.403 653.571,643.579 654.441,644.885 655.747,645.32 656.617,645.32 657.923,644.885 658.793,643.579 659.229,641.403 659.229,640.098 658.793,637.921 657.923,636.616 656.617,636.18 655.747,636.18 " />
<polyline points="642.319,626.194 636.516,641.427 " />
<polyline points="642.319,626.194 648.122,641.427 " />
<polyline points="638.692,636.349 645.946,636.349 " />
<polyline points="638.692,587.164 638.692,602.397 647.397,602.397 " />
<polyline points="636.516,548.134 642.319,563.367 " />
<polyline points="648.122,548.134 642.319,563.367 " />
<polyline points="596.873,436.713 602.677,451.946 " />
<polyline points="608.48,436.713 602.677,451.946 " />
<polyline points="596.873,397.683 602.677,412.916 " />
<polyline points="608.48,397.683 602.677,412.916 " />
<polyline points="653.426,601.86 659.809,601.86 659.809,600.796 659.277,599.733 658.745,599.201 657.681,598.669 656.085,598.669 655.021,599.201 653.958,600.265 653.426,601.86 653.426,602.924 653.958,604.52 655.021,605.584 656.085,606.116 657.681,606.116 658.745,605.584 659.809,604.52 " />
<polyline points="861.592,428.66 886.875,428.66 " />
<polyline points="890.296,389.01 914.134,389.01 " />
<polyline points="652.146,558.33 650.84,558.765 649.97,560.071 649.534,562.247 649.534,563.552 649.97,565.729 650.84,567.034 652.146,567.469 653.016,567.469 654.322,567.034 655.192,565.729 655.628,563.552 655.628,562.247 655.192,560.071 654.322,558.765 653.016,558.33 652.146,558.33 " />
<polyline points="877.92,446.228 876.614,446.663 875.744,447.969 875.308,450.145 875.308,451.451 875.744,453.627 876.614,454.933 877.92,455.368 878.79,455.368 880.096,454.933 880.966,453.627 881.402,451.451 881.402,450.145 880.966,447.969 880.096,446.663 878.79,446.228 877.92,446.228 " />
<polyline points="859.108,407.369 857.802,407.804 856.932,409.11 856.496,411.286 856.496,412.592 856.932,414.768 857.802,416.074 859.108,416.509 859.978,416.509 861.284,416.074 862.154,414.768 862.59,412.592 862.59,411.286 862.154,409.11 861.284,407.804 859.978,407.369 859.108,407.369 " />
<polyline points="905.534,407.369 904.228,407.804 903.358,409.11 902.923,411.286 902.923,412.592 903.358,414.768 904.228,416.074 905.534,416.509 906.405,416.509 907.71,416.074 908.581,414.768 909.016,412.592 909.016,411.286 908.581,409.11 907.71,407.804 906.405,407.369 905.534,407.369 " />
<polyline points="611.777,447.324 610.472,447.759 609.601,449.065 609.166,451.241 609.166,452.547 609.601,454.723 610.472,456.028 611.777,456.464 612.648,456.464 613.954,456.028 614.824,454.723 615.259,452.547 615.259,451.241 614.824,449.065 613.954,447.759 612.648,447.324 611.777,447.324 " />
<polyline points="613.229,406.852 611.924,407.288 611.053,408.593 610.618,410.769 610.618,412.075 611.053,414.251 611.924,415.557 613.229,415.992 614.1,415.992 615.406,415.557 616.276,414.251 616.711,412.075 616.711,410.769 616.276,408.593 615.406,407.288 614.1,406.852 613.229,406.852 " />
<polyline points="632.225,454.096 645.38,454.096 " />
<polyline points="839.887,442.575 843.514,442.575 850.043,451.279 " />
<polyline points="842.789,443.3 850.043,452.73 " />
<polyline points="861.649,428.792 850.043,452.73 " />
<polyline points="868.677,403.622 872.304,403.622 878.832,412.326 " />
<polyline points="871.579,404.347 878.832,413.777 " />
<polyline points="890.438,389.84 878.832,413.777 " />
<polyline points="674.47,632.722 687.526,632.722 " />
<polyline points="674.47,637.075 687.526,637.075 " />
<polyline points="716.542,626.194 716.542,641.427 " />
<polyline points="716.542,633.448 715.091,631.997 713.64,631.272 711.464,631.272 710.013,631.997 708.562,633.448 707.837,635.624 707.837,637.075 708.562,639.251 710.013,640.701 711.464,641.427 713.64,641.427 715.091,640.701 716.542,639.251 " />
<polyline points="722.345,631.272 722.345,638.525 723.07,640.701 724.521,641.427 726.697,641.427 728.148,640.701 730.324,638.525 " />
<polyline points="730.324,631.272 730.324,641.427 " />
<polyline points="744.106,633.448 742.655,631.997 741.205,631.272 739.028,631.272 737.578,631.997 736.127,633.448 735.402,635.624 735.402,637.075 736.127,639.251 737.578,640.701 739.028,641.427 741.205,641.427 742.655,640.701 744.106,639.251 " />
<polyline points="749.909,626.194 749.909,638.525 750.635,640.701 752.085,641.427 753.536,641.427 " />
<polyline points="747.733,631.272 752.811,631.272 " />
<polyline points="781.101,631.272 781.101,641.427 " />
<polyline points="781.101,633.448 779.65,631.997 778.199,631.272 776.023,631.272 774.572,631.997 773.121,633.448 772.396,635.624 772.396,637.075 773.121,639.251 774.572,640.701 776.023,641.427 778.199,641.427 779.65,640.701 781.101,639.251 " />
<polyline points="786.904,631.272 786.904,641.427 " />
<polyline points="786.904,635.624 787.629,633.448 789.08,631.997 790.531,631.272 792.707,631.272 " />
<polyline points="795.608,635.624 804.313,635.624 804.313,634.173 803.587,632.722 802.862,631.997 801.411,631.272 799.235,631.272 797.784,631.997 796.334,633.448 795.608,635.624 795.608,637.075 796.334,639.251 797.784,640.701 799.235,641.427 801.411,641.427 802.862,640.701 804.313,639.251 " />
<polyline points="817.37,631.272 817.37,641.427 " />
<polyline points="817.37,633.448 815.919,631.997 814.468,631.272 812.292,631.272 810.841,631.997 809.39,633.448 808.665,635.624 808.665,637.075 809.39,639.251 810.841,640.701 812.292,641.427 814.468,641.427 815.919,640.701 817.37,639.251 " />
<polyline points="824.623,640.701 823.898,641.427 823.173,640.701 823.898,639.976 824.623,640.701 824.623,642.152 823.898,643.603 823.173,644.328 " />
<polyline points="845.66,631.272 845.66,641.427 " />
<polyline points="845.66,634.173 847.836,631.997 849.286,631.272 851.463,631.272 852.913,631.997 853.639,634.173 853.639,641.427 " />
<polyline points="853.639,634.173 855.815,631.997 857.266,631.272 859.442,631.272 860.893,631.997 861.618,634.173 861.618,641.427 " />
<polyline points="867.421,631.272 867.421,641.427 " />
<polyline points="867.421,634.173 869.597,631.997 871.048,631.272 873.224,631.272 874.675,631.997 875.4,634.173 875.4,641.427 " />
<polyline points="875.4,634.173 877.576,631.997 879.027,631.272 881.203,631.272 882.654,631.997 883.379,634.173 883.379,641.427 " />
<polyline points="671.838,594.197 684.895,594.197 " />
<polyline points="671.838,598.549 684.895,598.549 " />
<polyline points="705.205,597.099 713.91,597.099 713.91,595.648 713.185,594.197 712.459,593.472 711.008,592.746 708.832,592.746 707.382,593.472 705.931,594.922 705.205,597.099 705.205,598.549 705.931,600.726 707.382,602.176 708.832,602.902 711.008,602.902 712.459,602.176 713.91,600.726 " />
<polyline points="723.34,587.669 721.889,587.669 720.438,588.394 719.713,590.57 719.713,602.902 " />
<polyline points="717.537,592.746 722.615,592.746 " />
<polyline points="732.045,587.669 730.594,587.669 729.143,588.394 728.418,590.57 728.418,602.902 " />
<polyline points="726.241,592.746 731.319,592.746 " />
<polyline points="735.671,597.099 744.376,597.099 744.376,595.648 743.651,594.197 742.925,593.472 741.474,592.746 739.298,592.746 737.848,593.472 736.397,594.922 735.671,597.099 735.671,598.549 736.397,600.726 737.848,602.176 739.298,602.902 741.474,602.902 742.925,602.176 744.376,600.726 " />
<polyline points="757.433,594.922 755.982,593.472 754.531,592.746 752.355,592.746 750.904,593.472 749.454,594.922 748.728,597.099 748.728,598.549 749.454,600.726 750.904,602.176 752.355,602.902 754.531,602.902 755.982,602.176 757.433,600.726 " />
<polyline points="763.236,587.669 763.236,600 763.961,602.176 765.412,602.902 766.863,602.902 " />
<polyline points="761.06,592.746 766.137,592.746 " />
<polyline points="770.49,588.394 771.215,589.119 771.94,588.394 771.215,587.669 770.49,588.394 " />
<polyline points="771.215,593.472 771.215,602.902 " />
<polyline points="775.567,592.746 779.92,602.902 " />
<polyline points="784.272,592.746 779.92,602.902 " />
<polyline points="787.899,597.099 796.603,597.099 796.603,595.648 795.878,594.197 795.153,593.472 793.702,592.746 791.526,592.746 790.075,593.472 788.624,594.922 787.899,597.099 787.899,598.549 788.624,600.726 790.075,602.176 791.526,602.902 793.702,602.902 795.153,602.176 796.603,600.726 " />
<polyline points="824.893,587.669 824.893,602.902 " />
<polyline points="824.893,594.922 823.443,593.472 821.992,592.746 819.816,592.746 818.365,593.472 816.914,594.922 816.189,597.099 816.189,598.549 816.914,600.726 818.365,602.176 819.816,602.902 821.992,602.902 823.443,602.176 824.893,600.726 " />
<polyline points="830.696,592.746 830.696,600 831.422,602.176 832.872,602.902 835.049,602.902 836.499,602.176 838.676,600 " />
<polyline points="838.676,592.746 838.676,602.902 " />
<polyline points="852.458,594.922 851.007,593.472 849.556,592.746 847.38,592.746 845.929,593.472 844.479,594.922 843.753,597.099 843.753,598.549 844.479,600.726 845.929,602.176 847.38,602.902 849.556,602.902 851.007,602.176 852.458,600.726 " />
<polyline points="858.261,587.669 858.261,600 858.986,602.176 860.437,602.902 861.888,602.902 " />
<polyline points="856.085,592.746 861.162,592.746 " />
<polyline points="881.473,587.669 881.473,602.902 " />
<polyline points="886.551,597.099 895.255,597.099 895.255,595.648 894.53,594.197 893.805,593.472 892.354,592.746 890.178,592.746 888.727,593.472 887.276,594.922 886.551,597.099 886.551,598.549 887.276,600.726 888.727,602.176 890.178,602.902 892.354,602.902 893.805,602.176 895.255,600.726 " />
<polyline points="900.333,592.746 900.333,602.902 " />
<polyline points="900.333,595.648 902.509,593.472 903.96,592.746 906.136,592.746 907.587,593.472 908.312,595.648 908.312,602.902 " />
<polyline points="922.094,592.746 922.094,604.352 921.369,606.529 920.644,607.254 919.193,607.979 917.017,607.979 915.566,607.254 " />
<polyline points="922.094,594.922 920.644,593.472 919.193,592.746 917.017,592.746 915.566,593.472 914.115,594.922 913.39,597.099 913.39,598.549 914.115,600.726 915.566,602.176 917.017,602.902 919.193,602.902 920.644,602.176 922.094,600.726 " />
<polyline points="928.623,587.669 928.623,600 929.348,602.176 930.799,602.902 932.25,602.902 " />
<polyline points="926.447,592.746 931.524,592.746 " />
<polyline points="936.602,587.669 936.602,602.902 " />
<polyline points="936.602,595.648 938.778,593.472 940.229,592.746 942.405,592.746 943.856,593.472 944.581,595.648 944.581,602.902 " />
<polyline points="951.835,602.176 951.11,602.902 950.384,602.176 951.11,601.451 951.835,602.176 951.835,603.627 951.11,605.078 950.384,605.803 " />
<polyline points="972.871,592.746 972.871,602.902 " />
<polyline points="972.871,595.648 975.047,593.472 976.498,592.746 978.674,592.746 980.125,593.472 980.85,595.648 980.85,602.902 " />
<polyline points="980.85,595.648 983.026,593.472 984.477,592.746 986.653,592.746 988.104,593.472 988.829,595.648 988.829,602.902 " />
<polyline points="674.47,554.662 687.526,554.662 " />
<polyline points="674.47,559.014 687.526,559.014 " />
<polyline points="716.542,548.134 716.542,563.367 " />
<polyline points="716.542,555.387 715.091,553.937 713.64,553.211 711.464,553.211 710.013,553.937 708.562,555.387 707.837,557.564 707.837,559.014 708.562,561.191 710.013,562.641 711.464,563.367 713.64,563.367 715.091,562.641 716.542,561.191 " />
<polyline points="722.345,553.211 722.345,560.465 723.07,562.641 724.521,563.367 726.697,563.367 728.148,562.641 730.324,560.465 " />
<polyline points="730.324,553.211 730.324,563.367 " />
<polyline points="744.106,555.387 742.655,553.937 741.205,553.211 739.028,553.211 737.578,553.937 736.127,555.387 735.402,557.564 735.402,559.014 736.127,561.191 737.578,562.641 739.028,563.367 741.205,563.367 742.655,562.641 744.106,561.191 " />
<polyline points="749.909,548.134 749.909,560.465 750.635,562.641 752.085,563.367 753.536,563.367 " />
<polyline points="747.733,553.211 752.811,553.211 " />
<polyline points="771.671,553.211 776.023,563.367 " />
<polyline points="780.375,553.211 776.023,563.367 " />
<polyline points="784.002,557.564 792.707,557.564 792.707,556.113 791.981,554.662 791.256,553.937 789.805,553.211 787.629,553.211 786.178,553.937 784.727,555.387 784.002,557.564 784.002,559.014 784.727,561.191 786.178,562.641 787.629,563.367 789.805,563.367 791.256,562.641 792.707,561.191 " />
<polyline points="797.784,548.134 797.784,563.367 " />
<polyline points="806.489,553.211 805.038,553.937 803.587,555.387 802.862,557.564 802.862,559.014 803.587,561.191 805.038,562.641 806.489,563.367 808.665,563.367 810.116,562.641 811.567,561.191 812.292,559.014 812.292,557.564 811.567,555.387 810.116,553.937 808.665,553.211 806.489,553.211 " />
<polyline points="825.349,555.387 823.898,553.937 822.447,553.211 820.271,553.211 818.82,553.937 817.37,555.387 816.644,557.564 816.644,559.014 817.37,561.191 818.82,562.641 820.271,563.367 822.447,563.367 823.898,562.641 825.349,561.191 " />
<polyline points="829.701,548.859 830.427,549.584 831.152,548.859 830.427,548.134 829.701,548.859 " />
<polyline points="830.427,553.937 830.427,563.367 " />
<polyline points="836.955,548.134 836.955,560.465 837.68,562.641 839.131,563.367 840.582,563.367 " />
<polyline points="834.779,553.211 839.856,553.211 " />
<polyline points="843.483,553.211 847.836,563.367 " />
<polyline points="852.188,553.211 847.836,563.367 846.385,566.268 844.934,567.719 843.483,568.444 842.758,568.444 " />
<polyline points="857.991,562.641 857.266,563.367 856.54,562.641 857.266,561.916 857.991,562.641 857.991,564.092 857.266,565.543 856.54,566.268 " />
<polyline points="879.027,553.211 879.027,563.367 " />
<polyline points="879.027,556.113 881.203,553.937 882.654,553.211 884.83,553.211 886.281,553.937 887.006,556.113 887.006,563.367 " />
<polyline points="887.006,556.113 889.182,553.937 890.633,553.211 892.809,553.211 894.26,553.937 894.985,556.113 894.985,563.367 " />
<polyline points="912.395,545.232 899.338,568.444 " />
<polyline points="924.001,555.387 923.275,553.937 921.099,553.211 918.923,553.211 916.747,553.937 916.021,555.387 916.747,556.838 918.198,557.564 921.825,558.289 923.275,559.014 924.001,560.465 924.001,561.191 923.275,562.641 921.099,563.367 918.923,563.367 916.747,562.641 916.021,561.191 " />
<polyline points="591.476,514.181 594.377,524.337 " />
<polyline points="597.279,514.181 594.377,524.337 " />
<polyline points="597.279,514.181 600.181,524.337 " />
<polyline points="603.082,514.181 600.181,524.337 " />
<polyline points="608.16,509.104 608.16,524.337 " />
<polyline points="608.16,517.083 610.336,514.907 611.787,514.181 613.963,514.181 615.414,514.907 616.139,517.083 616.139,524.337 " />
<polyline points="621.217,518.534 629.921,518.534 629.921,517.083 629.196,515.632 628.47,514.907 627.02,514.181 624.844,514.181 623.393,514.907 621.942,516.357 621.217,518.534 621.217,519.984 621.942,522.16 623.393,523.611 624.844,524.337 627.02,524.337 628.47,523.611 629.921,522.16 " />
<polyline points="634.999,514.181 634.999,524.337 " />
<polyline points="634.999,518.534 635.724,516.357 637.175,514.907 638.626,514.181 640.802,514.181 " />
<polyline points="643.703,518.534 652.408,518.534 652.408,517.083 651.683,515.632 650.957,514.907 649.506,514.181 647.33,514.181 645.88,514.907 644.429,516.357 643.703,518.534 643.703,519.984 644.429,522.16 645.88,523.611 647.33,524.337 649.506,524.337 650.957,523.611 652.408,522.16 " />
<polyline points="646.433,438.889 634.827,445.417 646.433,451.946 " />
<polyline points="668.92,439.614 670.371,438.889 672.547,436.713 672.547,451.946 " />
<polyline points="682.702,436.713 690.682,436.713 686.329,442.516 688.505,442.516 689.956,443.241 690.682,443.967 691.407,446.143 691.407,447.594 690.682,449.77 689.231,451.221 687.055,451.946 684.879,451.946 682.702,451.221 681.977,450.495 681.252,449.044 " />
<polyline points="711.718,441.791 711.718,451.946 " />
<polyline points="711.718,444.692 713.894,442.516 715.345,441.791 717.521,441.791 718.971,442.516 719.697,444.692 719.697,451.946 " />
<polyline points="719.697,444.692 721.873,442.516 723.324,441.791 725.5,441.791 726.951,442.516 727.676,444.692 727.676,451.946 " />
<polyline points="745.085,433.811 732.028,457.024 " />
<polyline points="756.691,443.967 755.966,442.516 753.79,441.791 751.614,441.791 749.437,442.516 748.712,443.967 749.437,445.417 750.888,446.143 754.515,446.868 755.966,447.594 756.691,449.044 756.691,449.77 755.966,451.221 753.79,451.946 751.614,451.946 749.437,451.221 748.712,449.77 " />
<polyline points="762.494,441.791 761.769,442.516 762.494,443.241 763.22,442.516 762.494,441.791 " />
<polyline points="762.494,450.495 761.769,451.221 762.494,451.946 763.22,451.221 762.494,450.495 " />
<polyline points="784.256,436.713 784.256,451.946 792.96,451.946 " />
<polyline points="811.82,443.241 824.877,443.241 " />
<polyline points="811.82,447.594 824.877,447.594 " />
<polyline points="864.773,436.713 858.97,451.946 " />
<polyline points="864.773,436.713 870.576,451.946 " />
<polyline points="861.146,446.868 868.4,446.868 " />
<polyline points="901.042,433.811 887.985,457.024 " />
<polyline points="906.12,436.713 914.099,436.713 909.747,442.516 911.923,442.516 913.374,443.241 914.099,443.967 914.824,446.143 914.824,447.594 914.099,449.77 912.648,451.221 910.472,451.946 908.296,451.946 906.12,451.221 905.394,450.495 904.669,449.044 " />
<polyline points="927.881,436.713 920.627,436.713 919.902,443.241 920.627,442.516 922.804,441.791 924.98,441.791 927.156,442.516 928.607,443.967 929.332,446.143 929.332,447.594 928.607,449.77 927.156,451.221 924.98,451.946 922.804,451.946 920.627,451.221 919.902,450.495 919.177,449.044 " />
<polyline points="938.037,436.713 935.86,437.438 934.41,439.614 933.684,443.241 933.684,445.417 934.41,449.044 935.86,451.221 938.037,451.946 939.487,451.946 941.663,451.221 943.114,449.044 943.84,445.417 943.84,443.241 943.114,439.614 941.663,437.438 939.487,436.713 938.037,436.713 " />
<polyline points="634.827,399.859 646.433,406.387 634.827,412.916 " />
<polyline points="668.92,400.584 670.371,399.859 672.547,397.683 672.547,412.916 " />
<polyline points="682.702,397.683 690.682,397.683 686.329,403.486 688.505,403.486 689.956,404.211 690.682,404.937 691.407,407.113 691.407,408.564 690.682,410.74 689.231,412.19 687.055,412.916 684.879,412.916 682.702,412.19 681.977,411.465 681.252,410.014 " />
<polyline points="711.718,402.76 711.718,412.916 " />
<polyline points="711.718,405.662 713.894,403.486 715.345,402.76 717.521,402.76 718.971,403.486 719.697,405.662 719.697,412.916 " />
<polyline points="719.697,405.662 721.873,403.486 723.324,402.76 725.5,402.76 726.951,403.486 727.676,405.662 727.676,412.916 " />
<polyline points="745.085,394.781 732.028,417.993 " />
<polyline points="756.691,404.937 755.966,403.486 753.79,402.76 751.614,402.76 749.437,403.486 748.712,404.937 749.437,406.387 750.888,407.113 754.515,407.838 755.966,408.564 756.691,410.014 756.691,410.74 755.966,412.19 753.79,412.916 751.614,412.916 749.437,412.19 748.712,410.74 " />
<polyline points="762.494,402.76 761.769,403.486 762.494,404.211 763.22,403.486 762.494,402.76 " />
<polyline points="762.494,411.465 761.769,412.19 762.494,412.916 763.22,412.19 762.494,411.465 " />
<polyline points="784.256,397.683 784.256,412.916 792.96,412.916 " />
<polyline points="811.82,404.211 824.877,404.211 " />
<polyline points="811.82,408.564 824.877,408.564 " />
<polyline points="843.737,397.683 849.54,412.916 " />
<polyline points="855.343,397.683 849.54,412.916 " />
<polyline points="893.063,397.683 887.26,412.916 " />
<polyline points="893.063,397.683 898.866,412.916 " />
<polyline points="889.436,407.838 896.69,407.838 " />
<polyline points="929.332,394.781 916.275,417.993 " />
<polyline points="940.213,397.683 932.959,407.838 943.84,407.838 " />
<polyline points="940.213,397.683 940.213,412.916 " />
<polyline points="949.643,412.19 948.917,412.916 948.192,412.19 948.917,411.465 949.643,412.19 949.643,413.641 948.917,415.092 948.192,415.817 " />
<polyline points="963.425,397.683 956.171,397.683 955.446,404.211 956.171,403.486 958.347,402.76 960.523,402.76 962.699,403.486 964.15,404.937 964.876,407.113 964.876,408.564 964.15,410.74 962.699,412.19 960.523,412.916 958.347,412.916 956.171,412.19 955.446,411.465 954.72,410.014 " />
<polyline points="973.58,397.683 971.404,398.408 969.953,400.584 969.228,404.211 969.228,406.387 969.953,410.014 971.404,412.19 973.58,412.916 975.031,412.916 977.207,412.19 978.658,410.014 979.383,406.387 979.383,404.211 978.658,400.584 977.207,398.408 975.031,397.683 973.58,397.683 " />
<polyline points="988.088,397.683 985.912,398.408 984.461,400.584 983.736,404.211 983.736,406.387 984.461,410.014 985.912,412.19 988.088,412.916 989.539,412.916 991.715,412.19 993.165,410.014 993.891,406.387 993.891,404.211 993.165,400.584 991.715,398.408 989.539,397.683 988.088,397.683 " />
<polyline points="892.038,625.631 892.038,625.196 892.473,624.325 892.908,623.89 893.779,623.455 895.52,623.455 896.39,623.89 896.825,624.325 897.26,625.196 897.26,626.066 896.825,626.936 895.955,628.242 891.602,632.594 897.696,632.594 " />
<polyline points="306.498,407.571 305.192,408.006 304.322,409.312 303.887,411.488 303.887,412.794 304.322,414.97 305.192,416.276 306.498,416.711 307.369,416.711 308.674,416.276 309.545,414.97 309.98,412.794 309.98,411.488 309.545,409.312 308.674,408.006 307.369,407.571 306.498,407.571 " />
<polyline points="28.205,514.994 31.1065,525.15 " />
<polyline points="34.008,514.994 31.1065,525.15 " />
<polyline points="34.008,514.994 36.9096,525.15 " />
<polyline points="39.8111,514.994 36.9096,525.15 " />
<polyline points="44.8887,509.917 44.8887,525.15 " />
<polyline points="44.8887,517.896 47.0649,515.72 48.5157,514.994 50.6918,514.994 52.1426,515.72 52.8679,517.896 52.8679,525.15 " />
<polyline points="57.9456,519.347 66.6502,519.347 66.6502,517.896 65.9248,516.445 65.1994,515.72 63.7487,514.994 61.5725,514.994 60.1218,515.72 58.671,517.17 57.9456,519.347 57.9456,520.797 58.671,522.974 60.1218,524.424 61.5725,525.15 63.7487,525.15 65.1994,524.424 66.6502,522.974 " />
<polyline points="71.7279,514.994 71.7279,525.15 " />
<polyline points="71.7279,519.347 72.4532,517.17 73.904,515.72 75.3548,514.994 77.5309,514.994 " />
<polyline points="80.4324,519.347 89.137,519.347 89.137,517.896 88.4116,516.445 87.6862,515.72 86.2355,514.994 84.0593,514.994 82.6086,515.72 81.1578,517.17 80.4324,519.347 80.4324,520.797 81.1578,522.974 82.6086,524.424 84.0593,525.15 86.2355,525.15 87.6862,524.424 89.137,522.974 " />
<polyline points="64.9579,456.224 76.7043,456.224 " />
<polyline points="26.9511,436.713 32.7542,451.946 " />
<polyline points="38.5572,436.713 32.7542,451.946 " />
<polyline points="42.4596,445.944 41.1539,446.379 40.2835,447.685 39.8483,449.861 39.8483,451.167 40.2835,453.343 41.1539,454.649 42.4596,455.084 43.3301,455.084 44.6358,454.649 45.5062,453.343 45.9415,451.167 45.9415,449.861 45.5062,447.685 44.6358,446.379 43.3301,445.944 42.4596,445.944 " />
<polyline points="76.5109,438.889 64.9049,445.417 76.5109,451.946 " />
<polyline points="97.547,440.34 97.547,439.614 98.2724,438.164 98.9978,437.438 100.449,436.713 103.35,436.713 104.801,437.438 105.526,438.164 106.252,439.614 106.252,441.065 105.526,442.516 104.075,444.692 96.8216,451.946 106.977,451.946 " />
<polyline points="120.034,436.713 112.78,436.713 112.055,443.241 112.78,442.516 114.956,441.791 117.132,441.791 119.308,442.516 120.759,443.967 121.485,446.143 121.485,447.594 120.759,449.77 119.308,451.221 117.132,451.946 114.956,451.946 112.78,451.221 112.055,450.495 111.329,449.044 " />
<polyline points="130.189,436.713 128.013,437.438 126.562,439.614 125.837,443.241 125.837,445.417 126.562,449.044 128.013,451.221 130.189,451.946 131.64,451.946 133.816,451.221 135.267,449.044 135.992,445.417 135.992,443.241 135.267,439.614 133.816,437.438 131.64,436.713 130.189,436.713 " />
<polyline points="144.697,436.713 142.521,437.438 141.07,439.614 140.344,443.241 140.344,445.417 141.07,449.044 142.521,451.221 144.697,451.946 146.148,451.946 148.324,451.221 149.774,449.044 150.5,445.417 150.5,443.241 149.774,439.614 148.324,437.438 146.148,436.713 144.697,436.713 " />
<polyline points="175.163,436.713 173.712,436.713 172.261,437.438 171.536,439.614 171.536,451.946 " />
<polyline points="169.36,441.791 174.437,441.791 " />
<polyline points="179.515,441.791 179.515,457.024 " />
<polyline points="179.515,443.967 180.966,442.516 182.417,441.791 184.593,441.791 186.044,442.516 187.494,443.967 188.22,446.143 188.22,447.594 187.494,449.77 186.044,451.221 184.593,451.946 182.417,451.946 180.966,451.221 179.515,449.77 " />
<polyline points="193.297,441.791 193.297,451.946 " />
<polyline points="193.297,444.692 195.473,442.516 196.924,441.791 199.1,441.791 200.551,442.516 201.277,444.692 201.277,451.946 " />
<polyline points="201.277,444.692 203.453,442.516 204.903,441.791 207.08,441.791 208.53,442.516 209.256,444.692 209.256,451.946 " />
<polyline points="215.784,441.791 215.059,442.516 215.784,443.241 216.51,442.516 215.784,441.791 " />
<polyline points="215.784,450.495 215.059,451.221 215.784,451.946 216.51,451.221 215.784,450.495 " />
<polyline points="259.35,443.241 272.407,443.241 " />
<polyline points="259.35,447.594 272.407,447.594 " />
<polyline points="243.251,453.368 249.634,453.368 249.634,452.304 249.102,451.24 248.57,450.708 247.507,450.176 245.911,450.176 244.847,450.708 243.783,451.772 243.251,453.368 243.251,454.432 243.783,456.027 244.847,457.091 245.911,457.623 247.507,457.623 248.57,457.091 249.634,456.027 " />
<polyline points="228.922,437.022 228.922,452.255 237.627,452.255 " />
<polyline points="329.685,446.386 328.379,446.821 327.508,448.127 327.073,450.303 327.073,451.609 327.508,453.785 328.379,455.091 329.685,455.526 330.555,455.526 331.861,455.091 332.731,453.785 333.166,451.609 333.166,450.303 332.731,448.127 331.861,446.821 330.555,446.386 329.685,446.386 " />
<polyline points="316.662,437.022 310.858,452.255 " />
<polyline points="316.662,437.022 322.465,452.255 " />
<polyline points="313.035,447.177 320.288,447.177 " />
<polyline points="290.762,451.345 294.957,445.247 " />
<polyline points="294.957,445.247 299.992,458.663 " />
<polyline points="299.992,458.663 306.704,433.05 " />
<polyline points="306.704,433.05 334.392,433.05 " />
<polyline points="355.475,434.12 342.418,457.333 " />
<polyline points="366.356,437.022 359.102,447.177 369.983,447.177 " />
<polyline points="366.356,437.022 366.356,452.255 " />
<polyline points="375.061,450.804 374.335,451.53 375.061,452.255 375.786,451.53 375.061,450.804 " />
<polyline points="382.314,437.022 390.294,437.022 385.941,442.825 388.117,442.825 389.568,443.55 390.294,444.276 391.019,446.452 391.019,447.903 390.294,450.079 388.843,451.53 386.667,452.255 384.49,452.255 382.314,451.53 381.589,450.804 380.864,449.353 " />
<polyline points="380.579,395.09 367.523,418.303 " />
<polyline points="386.382,400.893 387.833,400.168 390.009,397.992 390.009,413.225 " />
<polyline points="403.066,397.992 400.89,398.717 399.439,400.893 398.714,404.52 398.714,406.696 399.439,410.323 400.89,412.499 403.066,413.225 404.517,413.225 406.693,412.499 408.144,410.323 408.869,406.696 408.869,404.52 408.144,400.893 406.693,398.717 404.517,397.992 403.066,397.992 " />
<polyline points="415.398,412.499 414.672,413.225 413.947,412.499 414.672,411.774 415.398,412.499 415.398,413.95 414.672,415.401 413.947,416.126 " />
<polyline points="429.905,400.168 429.18,398.717 427.004,397.992 425.553,397.992 423.377,398.717 421.926,400.893 421.201,404.52 421.201,408.147 421.926,411.049 423.377,412.499 425.553,413.225 426.278,413.225 428.455,412.499 429.905,411.049 430.631,408.873 430.631,408.147 429.905,405.971 428.455,404.52 426.278,403.795 425.553,403.795 423.377,404.52 421.926,405.971 421.201,408.147 " />
<polyline points="439.335,397.992 437.159,398.717 435.708,400.893 434.983,404.52 434.983,406.696 435.708,410.323 437.159,412.499 439.335,413.225 440.786,413.225 442.962,412.499 444.413,410.323 445.138,406.696 445.138,404.52 444.413,400.893 442.962,398.717 440.786,397.992 439.335,397.992 " />
<polyline points="453.843,397.992 451.667,398.717 450.216,400.893 449.491,404.52 449.491,406.696 450.216,410.323 451.667,412.499 453.843,413.225 455.294,413.225 457.47,412.499 458.921,410.323 459.646,406.696 459.646,404.52 458.921,400.893 457.47,398.717 455.294,397.992 453.843,397.992 " />
<polyline points="332.332,394.02 360.02,394.02 " />
<polyline points="325.62,419.633 332.332,394.02 " />
<polyline points="320.586,406.217 325.62,419.633 " />
<polyline points="316.391,412.315 320.586,406.217 " />
<polyline points="342.29,397.992 336.487,413.225 " />
<polyline points="342.29,397.992 348.093,413.225 " />
<polyline points="338.663,408.147 345.917,408.147 " />
<polyline points="355.313,407.356 354.007,407.791 353.137,409.097 352.702,411.273 352.702,412.579 353.137,414.755 354.007,416.061 355.313,416.496 356.184,416.496 357.489,416.061 358.36,414.755 358.795,412.579 358.795,411.273 358.36,409.097 357.489,407.791 356.184,407.356 355.313,407.356 " />
<polyline points="228.922,397.992 228.922,413.225 237.627,413.225 " />
<polyline points="242.727,412.765 249.11,412.765 249.11,411.701 248.578,410.637 248.046,410.105 246.982,409.573 245.386,409.573 244.322,410.105 243.259,411.169 242.727,412.765 242.727,413.828 243.259,415.424 244.322,416.488 245.386,417.02 246.982,417.02 248.046,416.488 249.11,415.424 " />
<polyline points="259.35,404.211 272.407,404.211 " />
<polyline points="259.35,408.564 272.407,408.564 " />
<polyline points="291.267,397.683 297.07,412.916 " />
<polyline points="302.873,397.683 297.07,412.916 " />
<polyline points="64.9049,399.859 76.5109,406.387 64.9049,412.916 " />
<polyline points="97.547,401.31 97.547,400.584 98.2724,399.134 98.9978,398.408 100.449,397.683 103.35,397.683 104.801,398.408 105.526,399.134 106.252,400.584 106.252,402.035 105.526,403.486 104.075,405.662 96.8216,412.916 106.977,412.916 " />
<polyline points="120.034,397.683 112.78,397.683 112.055,404.211 112.78,403.486 114.956,402.76 117.132,402.76 119.308,403.486 120.759,404.937 121.485,407.113 121.485,408.564 120.759,410.74 119.308,412.19 117.132,412.916 114.956,412.916 112.78,412.19 112.055,411.465 111.329,410.014 " />
<polyline points="130.189,397.683 128.013,398.408 126.562,400.584 125.837,404.211 125.837,406.387 126.562,410.014 128.013,412.19 130.189,412.916 131.64,412.916 133.816,412.19 135.267,410.014 135.992,406.387 135.992,404.211 135.267,400.584 133.816,398.408 131.64,397.683 130.189,397.683 " />
<polyline points="144.697,397.683 142.521,398.408 141.07,400.584 140.344,404.211 140.344,406.387 141.07,410.014 142.521,412.19 144.697,412.916 146.148,412.916 148.324,412.19 149.774,410.014 150.5,406.387 150.5,404.211 149.774,400.584 148.324,398.408 146.148,397.683 144.697,397.683 " />
<polyline points="175.163,397.683 173.712,397.683 172.261,398.408 171.536,400.584 171.536,412.916 " />
<polyline points="169.36,402.76 174.437,402.76 " />
<polyline points="179.515,402.76 179.515,417.993 " />
<polyline points="179.515,404.937 180.966,403.486 182.417,402.76 184.593,402.76 186.044,403.486 187.494,404.937 188.22,407.113 188.22,408.564 187.494,410.74 186.044,412.19 184.593,412.916 182.417,412.916 180.966,412.19 179.515,410.74 " />
<polyline points="193.297,402.76 193.297,412.916 " />
<polyline points="193.297,405.662 195.473,403.486 196.924,402.76 199.1,402.76 200.551,403.486 201.277,405.662 201.277,412.916 " />
<polyline points="201.277,405.662 203.453,403.486 204.903,402.76 207.08,402.76 208.53,403.486 209.256,405.662 209.256,412.916 " />
<polyline points="215.784,402.76 215.059,403.486 215.784,404.211 216.51,403.486 215.784,402.76 " />
<polyline points="215.784,411.465 215.059,412.19 215.784,412.916 216.51,412.19 215.784,411.465 " />
<polyline points="43.2203,406.914 41.9146,407.349 41.0441,408.655 40.6089,410.831 40.6089,412.137 41.0441,414.313 41.9146,415.619 43.2203,416.054 44.0907,416.054 45.3964,415.619 46.2669,414.313 46.7021,412.137 46.7021,410.831 46.2669,408.655 45.3964,407.349 44.0907,406.914 43.2203,406.914 " />
<polyline points="26.9511,397.683 32.7542,412.916 " />
<polyline points="38.5572,397.683 32.7542,412.916 " />
<polyline points="89.1219,557.495 87.8162,557.93 86.9458,559.236 86.5106,561.412 86.5106,562.717 86.9458,564.894 87.8162,566.199 89.1219,566.635 89.9924,566.635 91.2981,566.199 92.1685,564.894 92.6038,562.717 92.6038,561.412 92.1685,559.236 91.2981,557.93 89.9924,557.495 89.1219,557.495 " />
<polyline points="72.8528,548.134 78.6558,563.367 " />
<polyline points="84.4589,548.134 78.6558,563.367 " />
<polyline points="110.807,554.662 123.863,554.662 " />
<polyline points="110.807,559.014 123.863,559.014 " />
<polyline points="152.879,548.134 152.879,563.367 " />
<polyline points="152.879,555.387 151.428,553.937 149.977,553.211 147.801,553.211 146.35,553.937 144.899,555.387 144.174,557.564 144.174,559.014 144.899,561.191 146.35,562.641 147.801,563.367 149.977,563.367 151.428,562.641 152.879,561.191 " />
<polyline points="158.682,553.211 158.682,560.465 159.407,562.641 160.858,563.367 163.034,563.367 164.485,562.641 166.661,560.465 " />
<polyline points="166.661,553.211 166.661,563.367 " />
<polyline points="180.443,555.387 178.992,553.937 177.542,553.211 175.365,553.211 173.915,553.937 172.464,555.387 171.739,557.564 171.739,559.014 172.464,561.191 173.915,562.641 175.365,563.367 177.542,563.367 178.992,562.641 180.443,561.191 " />
<polyline points="186.246,548.134 186.246,560.465 186.972,562.641 188.422,563.367 189.873,563.367 " />
<polyline points="184.07,553.211 189.148,553.211 " />
<polyline points="208.008,553.211 212.36,563.367 " />
<polyline points="216.712,553.211 212.36,563.367 " />
<polyline points="220.339,557.564 229.044,557.564 229.044,556.113 228.318,554.662 227.593,553.937 226.142,553.211 223.966,553.211 222.515,553.937 221.064,555.387 220.339,557.564 220.339,559.014 221.064,561.191 222.515,562.641 223.966,563.367 226.142,563.367 227.593,562.641 229.044,561.191 " />
<polyline points="234.121,548.134 234.121,563.367 " />
<polyline points="242.826,553.211 241.375,553.937 239.924,555.387 239.199,557.564 239.199,559.014 239.924,561.191 241.375,562.641 242.826,563.367 245.002,563.367 246.453,562.641 247.904,561.191 248.629,559.014 248.629,557.564 247.904,555.387 246.453,553.937 245.002,553.211 242.826,553.211 " />
<polyline points="261.686,555.387 260.235,553.937 258.784,553.211 256.608,553.211 255.157,553.937 253.707,555.387 252.981,557.564 252.981,559.014 253.707,561.191 255.157,562.641 256.608,563.367 258.784,563.367 260.235,562.641 261.686,561.191 " />
<polyline points="266.038,548.859 266.763,549.584 267.489,548.859 266.763,548.134 266.038,548.859 " />
<polyline points="266.763,553.937 266.763,563.367 " />
<polyline points="273.292,548.134 273.292,560.465 274.017,562.641 275.468,563.367 276.919,563.367 " />
<polyline points="271.116,553.211 276.193,553.211 " />
<polyline points="279.82,553.211 284.173,563.367 " />
<polyline points="288.525,553.211 284.173,563.367 282.722,566.268 281.271,567.719 279.82,568.444 279.095,568.444 " />
<polyline points="294.328,562.641 293.603,563.367 292.877,562.641 293.603,561.916 294.328,562.641 294.328,564.092 293.603,565.543 292.877,566.268 " />
<polyline points="319.716,548.134 318.266,548.134 316.815,548.859 316.089,551.035 316.089,563.367 " />
<polyline points="313.913,553.211 318.991,553.211 " />
<polyline points="324.069,553.211 324.069,568.444 " />
<polyline points="324.069,555.387 325.519,553.937 326.97,553.211 329.146,553.211 330.597,553.937 332.048,555.387 332.773,557.564 332.773,559.014 332.048,561.191 330.597,562.641 329.146,563.367 326.97,563.367 325.519,562.641 324.069,561.191 " />
<polyline points="337.851,553.211 337.851,563.367 " />
<polyline points="337.851,556.113 340.027,553.937 341.478,553.211 343.654,553.211 345.105,553.937 345.83,556.113 345.83,563.367 " />
<polyline points="345.83,556.113 348.006,553.937 349.457,553.211 351.633,553.211 353.084,553.937 353.809,556.113 353.809,563.367 " />
<polyline points="300.719,627.019 300.719,626.583 301.154,625.713 301.59,625.278 302.46,624.842 304.201,624.842 305.071,625.278 305.507,625.713 305.942,626.583 305.942,627.454 305.507,628.324 304.636,629.63 300.284,633.982 306.377,633.982 " />
<polyline points="75.0289,587.164 75.0289,602.397 83.7335,602.397 " />
<polyline points="89.8432,602.759 96.2266,602.759 96.2266,601.695 95.6946,600.631 95.1627,600.099 94.0988,599.567 92.5029,599.567 91.439,600.099 90.3751,601.163 89.8432,602.759 89.8432,603.823 90.3751,605.419 91.439,606.483 92.5029,607.015 94.0988,607.015 95.1627,606.483 96.2266,605.419 " />
<polyline points="78.6558,626.194 72.8528,641.427 " />
<polyline points="78.6558,626.194 84.4589,641.427 " />
<polyline points="75.0289,636.349 82.2827,636.349 " />
<polyline points="91.4038,635.976 90.0981,636.411 89.2277,637.716 88.7924,639.893 88.7924,641.198 89.2277,643.374 90.0981,644.68 91.4038,645.115 92.2743,645.115 93.5799,644.68 94.4504,643.374 94.8856,641.198 94.8856,639.893 94.4504,637.716 93.5799,636.411 92.2743,635.976 91.4038,635.976 " />
<polyline points="110.807,593.692 123.863,593.692 " />
<polyline points="110.807,598.044 123.863,598.044 " />
<polyline points="144.174,596.594 152.879,596.594 152.879,595.143 152.153,593.692 151.428,592.967 149.977,592.241 147.801,592.241 146.35,592.967 144.899,594.418 144.174,596.594 144.174,598.044 144.899,600.221 146.35,601.671 147.801,602.397 149.977,602.397 151.428,601.671 152.879,600.221 " />
<polyline points="162.309,587.164 160.858,587.164 159.407,587.889 158.682,590.065 158.682,602.397 " />
<polyline points="156.506,592.241 161.583,592.241 " />
<polyline points="171.013,587.164 169.562,587.164 168.112,587.889 167.386,590.065 167.386,602.397 " />
<polyline points="165.21,592.241 170.288,592.241 " />
<polyline points="174.64,596.594 183.345,596.594 183.345,595.143 182.619,593.692 181.894,592.967 180.443,592.241 178.267,592.241 176.816,592.967 175.365,594.418 174.64,596.594 174.64,598.044 175.365,600.221 176.816,601.671 178.267,602.397 180.443,602.397 181.894,601.671 183.345,600.221 " />
<polyline points="196.402,594.418 194.951,592.967 193.5,592.241 191.324,592.241 189.873,592.967 188.422,594.418 187.697,596.594 187.697,598.044 188.422,600.221 189.873,601.671 191.324,602.397 193.5,602.397 194.951,601.671 196.402,600.221 " />
<polyline points="202.205,587.164 202.205,599.495 202.93,601.671 204.381,602.397 205.831,602.397 " />
<polyline points="200.028,592.241 205.106,592.241 " />
<polyline points="209.458,587.889 210.184,588.615 210.909,587.889 210.184,587.164 209.458,587.889 " />
<polyline points="210.184,592.967 210.184,602.397 " />
<polyline points="214.536,592.241 218.888,602.397 " />
<polyline points="223.241,592.241 218.888,602.397 " />
<polyline points="226.868,596.594 235.572,596.594 235.572,595.143 234.847,593.692 234.121,592.967 232.671,592.241 230.494,592.241 229.044,592.967 227.593,594.418 226.868,596.594 226.868,598.044 227.593,600.221 229.044,601.671 230.494,602.397 232.671,602.397 234.121,601.671 235.572,600.221 " />
<polyline points="263.862,587.164 263.862,602.397 " />
<polyline points="263.862,594.418 262.411,592.967 260.96,592.241 258.784,592.241 257.334,592.967 255.883,594.418 255.157,596.594 255.157,598.044 255.883,600.221 257.334,601.671 258.784,602.397 260.96,602.397 262.411,601.671 263.862,600.221 " />
<polyline points="269.665,592.241 269.665,599.495 270.39,601.671 271.841,602.397 274.017,602.397 275.468,601.671 277.644,599.495 " />
<polyline points="277.644,592.241 277.644,602.397 " />
<polyline points="291.426,594.418 289.976,592.967 288.525,592.241 286.349,592.241 284.898,592.967 283.447,594.418 282.722,596.594 282.722,598.044 283.447,600.221 284.898,601.671 286.349,602.397 288.525,602.397 289.976,601.671 291.426,600.221 " />
<polyline points="297.229,587.164 297.229,599.495 297.955,601.671 299.406,602.397 300.856,602.397 " />
<polyline points="295.053,592.241 300.131,592.241 " />
<polyline points="320.442,587.164 320.442,602.397 " />
<polyline points="325.519,596.594 334.224,596.594 334.224,595.143 333.499,593.692 332.773,592.967 331.322,592.241 329.146,592.241 327.695,592.967 326.245,594.418 325.519,596.594 325.519,598.044 326.245,600.221 327.695,601.671 329.146,602.397 331.322,602.397 332.773,601.671 334.224,600.221 " />
<polyline points="339.302,592.241 339.302,602.397 " />
<polyline points="339.302,595.143 341.478,592.967 342.928,592.241 345.105,592.241 346.555,592.967 347.281,595.143 347.281,602.397 " />
<polyline points="361.063,592.241 361.063,603.848 360.338,606.024 359.612,606.749 358.162,607.474 355.985,607.474 354.535,606.749 " />
<polyline points="361.063,594.418 359.612,592.967 358.162,592.241 355.985,592.241 354.535,592.967 353.084,594.418 352.358,596.594 352.358,598.044 353.084,600.221 354.535,601.671 355.985,602.397 358.162,602.397 359.612,601.671 361.063,600.221 " />
<polyline points="367.591,587.164 367.591,599.495 368.317,601.671 369.768,602.397 371.218,602.397 " />
<polyline points="365.415,592.241 370.493,592.241 " />
<polyline points="375.571,587.164 375.571,602.397 " />
<polyline points="375.571,595.143 377.747,592.967 379.198,592.241 381.374,592.241 382.824,592.967 383.55,595.143 383.55,602.397 " />
<polyline points="390.804,601.671 390.078,602.397 389.353,601.671 390.078,600.946 390.804,601.671 390.804,603.122 390.078,604.573 389.353,605.298 " />
<polyline points="416.192,587.164 414.741,587.164 413.29,587.889 412.565,590.065 412.565,602.397 " />
<polyline points="410.389,592.241 415.467,592.241 " />
<polyline points="421.27,587.164 421.27,599.495 421.995,601.671 423.446,602.397 424.897,602.397 " />
<polyline points="419.094,592.241 424.171,592.241 " />
<polyline points="110.807,632.722 123.863,632.722 " />
<polyline points="110.807,637.075 123.863,637.075 " />
<polyline points="152.879,626.194 152.879,641.427 " />
<polyline points="152.879,633.448 151.428,631.997 149.977,631.272 147.801,631.272 146.35,631.997 144.899,633.448 144.174,635.624 144.174,637.075 144.899,639.251 146.35,640.701 147.801,641.427 149.977,641.427 151.428,640.701 152.879,639.251 " />
<polyline points="158.682,631.272 158.682,638.525 159.407,640.701 160.858,641.427 163.034,641.427 164.485,640.701 166.661,638.525 " />
<polyline points="166.661,631.272 166.661,641.427 " />
<polyline points="180.443,633.448 178.992,631.997 177.542,631.272 175.365,631.272 173.915,631.997 172.464,633.448 171.739,635.624 171.739,637.075 172.464,639.251 173.915,640.701 175.365,641.427 177.542,641.427 178.992,640.701 180.443,639.251 " />
<polyline points="186.246,626.194 186.246,638.525 186.972,640.701 188.422,641.427 189.873,641.427 " />
<polyline points="184.07,631.272 189.148,631.272 " />
<polyline points="217.438,631.272 217.438,641.427 " />
<polyline points="217.438,633.448 215.987,631.997 214.536,631.272 212.36,631.272 210.909,631.997 209.458,633.448 208.733,635.624 208.733,637.075 209.458,639.251 210.909,640.701 212.36,641.427 214.536,641.427 215.987,640.701 217.438,639.251 " />
<polyline points="223.241,631.272 223.241,641.427 " />
<polyline points="223.241,635.624 223.966,633.448 225.417,631.997 226.868,631.272 229.044,631.272 " />
<polyline points="231.945,635.624 240.65,635.624 240.65,634.173 239.924,632.722 239.199,631.997 237.748,631.272 235.572,631.272 234.121,631.997 232.671,633.448 231.945,635.624 231.945,637.075 232.671,639.251 234.121,640.701 235.572,641.427 237.748,641.427 239.199,640.701 240.65,639.251 " />
<polyline points="253.707,631.272 253.707,641.427 " />
<polyline points="253.707,633.448 252.256,631.997 250.805,631.272 248.629,631.272 247.178,631.997 245.727,633.448 245.002,635.624 245.002,637.075 245.727,639.251 247.178,640.701 248.629,641.427 250.805,641.427 252.256,640.701 253.707,639.251 " />
<polyline points="260.96,640.701 260.235,641.427 259.51,640.701 260.235,639.976 260.96,640.701 260.96,642.152 260.235,643.603 259.51,644.328 " />
<polyline points="281.271,626.919 281.996,627.645 282.722,626.919 281.996,626.194 281.271,626.919 " />
<polyline points="281.996,631.997 281.996,641.427 " />
<polyline points="287.8,631.272 287.8,641.427 " />
<polyline points="287.8,634.173 289.976,631.997 291.426,631.272 293.603,631.272 295.053,631.997 295.779,634.173 295.779,641.427 " />
<polyline points="726.077,78.2344 357.471,78.2344 " />
<polyline points="726.077,180.147 357.471,180.147 " />
<polyline points="531.609,129.236 501.45,129.236 " />
<polyline points="904.49,741.321 902.362,739.193 899.171,738.129 894.915,738.129 891.724,739.193 889.596,741.321 889.596,743.448 890.66,745.576 891.724,746.64 893.851,747.704 900.235,749.832 902.362,750.896 903.426,751.959 904.49,754.087 904.49,757.279 902.362,759.407 899.171,760.471 894.915,760.471 891.724,759.407 889.596,757.279 " />
<polyline points="911.938,738.129 911.938,760.471 " />
<polyline points="911.938,738.129 919.385,738.129 922.576,739.193 924.704,741.321 925.768,743.448 926.832,746.64 926.832,751.959 925.768,755.151 924.704,757.279 922.576,759.407 919.385,760.471 911.938,760.471 " />
<polyline points="948.11,738.129 937.471,760.471 " />
<polyline points="933.215,738.129 948.11,738.129 " />
<polyline points="955.557,750.896 974.707,750.896 " />
<polyline points="983.218,743.448 983.218,742.384 984.282,740.257 985.346,739.193 987.474,738.129 991.729,738.129 993.857,739.193 994.921,740.257 995.985,742.384 995.985,744.512 994.921,746.64 992.793,749.832 982.154,760.471 997.049,760.471 " />
</g>
</svg>
