<?xml version="1.0" standalone="no"?>
<svg viewBox="0 0 1024 768" version="1.1" xmlns="http://www.w3.org/2000/svg" xmlns:xlink="http://www.w3.org/1999/xlink" stroke-linecap="round" stroke-linejoin="round" fill-rule="evenodd" xml:space="preserve" >
<defs >
<clipPath id="clipId0" >
<path d="M0,768 1024,768 1024,0 0,0 z" />
</clipPath>
</defs>
<g clip-path="url(#clipId0)" fill="none" stroke="rgb(0,0,0)" stroke-width="0.1" />
<g clip-path="url(#clipId0)" fill="none" stroke="rgb(0,0,0)" stroke-width="0.25" >
<polyline points="220.002,214.401 220.002,57.8778 " />
<path d="M220.002,57.8778  A26.0872,26.0872 0 0,0 246.089,83.9649 " />
<polyline points="631.749,136.139 579.298,136.139 " />
</g>
<g clip-path="url(#clipId0)" fill="rgb(0,0,0)" stroke="rgb(0,0,0)" stroke-width="0.25" >
<path d="M631.749,133.531 631.749,138.748 647.402,136.139 647.402,136.139 z" />
</g>
<g clip-path="url(#clipId0)" fill="none" stroke="rgb(0,0,0)" stroke-width="0.25" >
<polyline points="261.741,188.314 370.45,188.314 " />
<polyline points="261.741,83.9649 370.45,83.9649 " />
<path d="M246.089,188.314  A26.0872,26.0872 0 0,0 220.002,214.401 " />
<polyline points="443.582,172.661 443.582,159.618 " />
<polyline points="443.582,99.6172 443.582,112.661 " />
</g>
<g clip-path="url(#clipId0)" fill="rgb(0,0,0)" stroke="rgb(0,0,0)" stroke-width="0.25" >
<path d="M446.191,172.661 440.974,172.661 443.582,188.314 443.582,188.314 z" />
<path d="M446.191,99.6172 440.974,99.6172 443.582,83.9649 443.582,83.9649 z" />
</g>
<g clip-path="url(#clipId0)" fill="none" stroke="rgb(0,0,0)" stroke-width="0.25" >
<polyline points="452.014,135.084 450.672,135.532 449.777,136.873 449.33,139.109 449.33,140.451 449.777,142.687 450.672,144.028 452.014,144.476 452.908,144.476 454.25,144.028 455.144,142.687 455.591,140.451 455.591,139.109 455.144,136.873 454.25,135.532 452.908,135.084 452.014,135.084 " />
<polyline points="433.516,124.992 433.516,140.644 " />
<polyline points="433.516,124.992 438.734,124.992 440.97,125.737 442.461,127.228 443.206,128.719 443.951,130.955 443.951,134.682 443.206,136.918 442.461,138.408 440.97,139.899 438.734,140.644 433.516,140.644 " />
<polyline points="771.931,193.531 771.931,78.7475 " />
<polyline points="917.91,83.9649 771.931,83.9649 " />
<polyline points="813.562,188.314 771.931,188.314 " />
<polyline points="813.562,188.314 813.562,229.944 " />
<polyline points="917.91,83.9649 917.91,229.944 " />
<polyline points="128.673,167.701 160.235,136.139 " />
<polyline points="128.673,104.577 160.235,136.139 " />
<polyline points="128.673,167.701 128.673,154.594 " />
<polyline points="104.869,117.684 104.869,154.594 " />
<polyline points="104.869,154.594 128.673,154.594 " />
<polyline points="128.673,117.684 104.869,117.684 " />
<polyline points="128.673,117.684 128.673,104.577 " />
<polyline points="761.496,203.966 761.496,68.3126 " />
<polyline points="756.279,203.966 756.279,68.3126 " />
<polyline points="761.496,203.966 756.279,203.966 " />
<polyline points="761.496,68.3126 756.279,68.3126 " />
<polyline points="771.931,193.531 761.496,193.531 " />
<polyline points="771.931,78.7475 761.496,78.7475 " />
<polyline points="923.128,229.944 923.128,240.379 " />
<polyline points="808.344,229.944 808.344,240.379 " />
<polyline points="933.563,240.379 933.563,245.597 " />
<polyline points="797.909,240.379 797.909,245.597 " />
<polyline points="797.909,245.597 933.563,245.597 " />
<polyline points="797.909,240.379 933.563,240.379 " />
<polyline points="808.344,229.944 923.128,229.944 " />
<polyline points="370.45,78.7475 380.885,78.7475 " />
<polyline points="370.45,193.531 380.885,193.531 " />
<polyline points="380.885,68.3126 386.102,68.3126 " />
<polyline points="380.885,203.966 386.102,203.966 " />
<polyline points="386.102,203.966 386.102,68.3126 " />
<polyline points="380.885,203.966 380.885,68.3126 " />
<polyline points="370.45,193.531 370.45,78.7475 " />
<polyline points="261.741,193.531 261.741,78.7475 " />
<polyline points="251.306,193.531 251.306,78.7475 " />
<polyline points="246.089,193.531 246.089,78.7475 " />
<polyline points="261.741,193.531 246.089,193.531 " />
<polyline points="261.741,78.7475 246.089,78.7475 " />
<polyline points="386.102,216.915 386.102,270.697 " />
<polyline points="756.279,216.915 756.279,270.697 " />
<polyline points="401.755,251.914 523.196,251.914 " />
<polyline points="740.626,251.914 563.444,251.914 " />
</g>
<g clip-path="url(#clipId0)" fill="rgb(0,0,0)" stroke="rgb(0,0,0)" stroke-width="0.25" >
<path d="M401.755,254.523 401.755,249.305 386.102,251.914 386.102,251.914 z" />
<path d="M740.626,254.523 740.626,249.305 756.279,251.914 756.279,251.914 z" />
</g>
<g clip-path="url(#clipId0)" fill="none" stroke="rgb(0,0,0)" stroke-width="0.25" >
<polyline points="541.829,244.088 541.829,259.74 550.774,259.74 " />
</g>
<g clip-path="url(#clipId0)" fill="rgb(0,0,0)" stroke="rgb(0,0,0)" stroke-width="0.25" >
<path d="M367.561,70.7259 362.795,68.6043 358.813,83.9649 358.813,83.9649 z" />
</g>
<g clip-path="url(#clipId0)" fill="none" stroke="rgb(0,0,0)" stroke-width="0.25" >
<polyline points="365.178,69.6651 387.77,18.9086 " />
<polyline points="387.77,18.9086 403.422,18.9086 " />
<polyline points="419.82,11.0824 425.782,26.7347 " />
<polyline points="431.745,11.0824 425.782,26.7347 " />
<polyline points="439.199,11.0824 433.236,26.7347 " />
<polyline points="439.199,11.0824 445.161,26.7347 " />
<polyline points="435.472,21.5173 442.925,21.5173 " />
<polyline points="448.888,11.0824 448.888,26.7347 " />
<polyline points="448.888,11.0824 459.323,26.7347 " />
<polyline points="459.323,11.0824 459.323,26.7347 " />
<polyline points="465.286,11.0824 465.286,26.7347 " />
<polyline points="465.286,11.0824 474.975,11.0824 " />
<polyline points="465.286,18.5359 471.249,18.5359 " />
<polyline points="465.286,26.7347 474.975,26.7347 " />
<polyline points="483.174,11.0824 477.211,26.7347 " />
<polyline points="483.174,11.0824 489.137,26.7347 " />
<polyline points="479.447,21.5173 486.901,21.5173 " />
<polyline points="492.118,11.0824 502.553,26.7347 " />
<polyline points="502.553,11.0824 492.118,26.7347 " />
<polyline points="507.771,11.0824 507.771,26.7347 " />
<polyline points="517.46,11.0824 511.497,26.7347 " />
<polyline points="517.46,11.0824 523.423,26.7347 " />
<polyline points="513.733,21.5173 521.187,21.5173 " />
<polyline points="527.15,11.0824 527.15,26.7347 536.094,26.7347 " />
<polyline points="555.473,11.0824 555.473,26.7347 " />
<polyline points="555.473,11.0824 565.162,11.0824 " />
<polyline points="555.473,18.5359 561.436,18.5359 " />
<polyline points="572.616,11.0824 566.653,26.7347 " />
<polyline points="572.616,11.0824 578.579,26.7347 " />
<polyline points="568.889,21.5173 576.343,21.5173 " />
<polyline points="582.305,11.0824 582.305,26.7347 " />
<polyline points="582.305,11.0824 592.74,26.7347 " />
<polyline points="592.74,11.0824 592.74,26.7347 " />
<polyline points="278.615,177.667 278.615,94.6115 " stroke-dasharray="0.000065,6.521790" />
<path d="M269.463,91.1851  A31.4566,31.4566 0 0,0 261.741,110.94 " stroke-dasharray="0.000065,6.521790" />
<path d="M278.615,94.6115  A5.21743,5.21743 0 0,0 269.463,91.1851 " stroke-dasharray="0.000065,6.521790" />
<path d="M269.463,181.093  A5.21743,5.21743 0 0,0 278.615,177.667 " stroke-dasharray="0.000065,6.521790" />
<path d="M261.741,161.339  A31.4566,31.4566 0 0,0 269.463,181.093 " stroke-dasharray="0.000065,6.521790" />
<polyline points="291.955,150.324 356.875,150.324 " stroke-dasharray="0.000065,6.521790" />
<polyline points="291.955,121.954 356.875,121.954 " stroke-dasharray="0.000065,6.521790" />
<polyline points="291.955,161.184 291.955,111.094 " stroke-dasharray="0.000065,6.521790" />
<polyline points="278.615,161.184 291.955,161.184 " stroke-dasharray="0.000065,6.521790" />
<polyline points="278.615,111.094 291.955,111.094 " stroke-dasharray="0.000065,6.521790" />
<polyline points="357.919,149.281 357.919,122.998 " stroke-dasharray="0.000065,6.521790" />
<path d="M356.875,150.324  A1.04349,1.04349 0 0,0 357.919,149.281 " stroke-dasharray="0.000065,6.521790" />
<path d="M357.919,122.998  A1.04349,1.04349 0 0,0 356.875,121.954 " stroke-dasharray="0.000065,6.521790" />
<polyline points="291.955,111.094 315.673,111.094 315.673,87.377 291.955,87.377 291.955,111.094 " />
<polyline points="291.955,161.184 315.673,161.184 315.673,184.901 291.955,184.901 291.955,161.184 " />
<polyline points="278.615,105.978 264.026,100.043 " stroke-dasharray="0.000065,6.521790" />
<polyline points="278.615,166.301 264.026,172.236 " stroke-dasharray="0.000065,6.521790" />
<polyline points="813.562,188.314 917.91,83.9649 " />
<polyline points="578.252,107.891 576.762,108.636 575.271,110.127 574.525,111.618 573.78,113.854 573.78,117.581 574.525,119.817 575.271,121.307 576.762,122.798 578.252,123.543 581.234,123.543 582.724,122.798 584.215,121.307 584.96,119.817 585.706,117.581 585.706,113.854 584.96,111.618 584.215,110.127 582.724,108.636 581.234,107.891 578.252,107.891 " />
<polyline points="580.488,120.562 584.96,125.034 " />
<polyline points="802.231,449.756 808.791,449.756 808.791,448.663 808.244,447.57 807.697,447.023 806.604,446.477 804.964,446.477 803.871,447.023 802.778,448.117 802.231,449.756 802.231,450.849 802.778,452.489 803.871,453.582 804.964,454.129 806.604,454.129 807.697,453.582 808.791,452.489 " />
<polyline points="802.195,409.828 808.754,409.828 808.754,408.735 808.207,407.641 807.66,407.095 806.567,406.548 804.928,406.548 803.834,407.095 802.741,408.188 802.195,409.828 802.195,410.921 802.741,412.561 803.834,413.654 804.928,414.2 806.567,414.2 807.66,413.654 808.754,412.561 " />
<polyline points="669.006,629.206 667.664,629.654 666.77,630.995 666.323,633.231 666.323,634.573 666.77,636.809 667.664,638.151 669.006,638.598 669.9,638.598 671.242,638.151 672.136,636.809 672.584,634.573 672.584,633.231 672.136,630.995 671.242,629.654 669.9,629.206 669.006,629.206 " />
<polyline points="655.208,618.945 649.246,634.597 " />
<polyline points="655.208,618.945 661.171,634.597 " />
<polyline points="651.482,629.38 658.935,629.38 " />
<polyline points="651.482,578.84 651.482,594.493 660.426,594.493 " />
<polyline points="649.246,538.736 655.208,554.388 " />
<polyline points="661.171,538.736 655.208,554.388 " />
<polyline points="595.649,434.961 601.612,450.613 " />
<polyline points="607.574,434.961 601.612,450.613 " />
<polyline points="595.649,394.856 601.612,410.508 " />
<polyline points="607.574,394.856 601.612,410.508 " />
<polyline points="666.621,593.942 673.18,593.942 673.18,592.848 672.633,591.755 672.087,591.209 670.993,590.662 669.354,590.662 668.261,591.209 667.167,592.302 666.621,593.942 666.621,595.035 667.167,596.675 668.261,597.768 669.354,598.314 670.993,598.314 672.087,597.768 673.18,596.675 " />
<polyline points="867.654,426.686 893.633,426.686 " />
<polyline points="897.148,385.945 921.642,385.945 " />
<polyline points="665.306,549.213 663.964,549.66 663.07,551.002 662.623,553.238 662.623,554.579 663.07,556.815 663.964,558.157 665.306,558.604 666.2,558.604 667.542,558.157 668.436,556.815 668.883,554.579 668.883,553.238 668.436,551.002 667.542,549.66 666.2,549.213 665.306,549.213 " />
<polyline points="884.431,444.738 883.089,445.185 882.195,446.526 881.748,448.762 881.748,450.104 882.195,452.34 883.089,453.682 884.431,454.129 885.325,454.129 886.667,453.682 887.561,452.34 888.009,450.104 888.009,448.762 887.561,446.526 886.667,445.185 885.325,444.738 884.431,444.738 " />
<polyline points="865.101,404.809 863.76,405.256 862.865,406.598 862.418,408.834 862.418,410.176 862.865,412.412 863.76,413.753 865.101,414.2 865.996,414.2 867.337,413.753 868.232,412.412 868.679,410.176 868.679,408.834 868.232,406.598 867.337,405.256 865.996,404.809 865.101,404.809 " />
<polyline points="912.805,404.809 911.464,405.256 910.569,406.598 910.122,408.834 910.122,410.176 910.569,412.412 911.464,413.753 912.805,414.2 913.7,414.2 915.041,413.753 915.936,412.412 916.383,410.176 916.383,408.834 915.936,406.598 915.041,405.256 913.7,404.809 912.805,404.809 " />
<polyline points="610.963,445.864 609.621,446.311 608.727,447.652 608.28,449.888 608.28,451.23 608.727,453.466 609.621,454.808 610.963,455.255 611.857,455.255 613.199,454.808 614.093,453.466 614.541,451.23 614.541,449.888 614.093,447.652 613.199,446.311 611.857,445.864 610.963,445.864 " />
<polyline points="612.455,404.278 611.113,404.725 610.219,406.067 609.772,408.303 609.772,409.645 610.219,411.881 611.113,413.222 612.455,413.669 613.349,413.669 614.691,413.222 615.585,411.881 616.033,409.645 616.033,408.303 615.585,406.067 614.691,404.725 613.349,404.278 612.455,404.278 " />
<polyline points="631.974,452.822 645.49,452.822 " />
<polyline points="845.352,440.984 849.078,440.984 855.787,449.928 " />
<polyline points="848.333,441.729 855.787,451.418 " />
<polyline points="867.712,426.822 855.787,451.418 " />
<polyline points="874.934,400.959 878.661,400.959 885.369,409.903 " />
<polyline points="877.915,401.704 885.369,411.393 " />
<polyline points="897.294,386.797 885.369,411.393 " />
<polyline points="688.244,625.653 701.66,625.653 " />
<polyline points="688.244,630.125 701.66,630.125 " />
<polyline points="731.474,618.945 731.474,634.597 " />
<polyline points="731.474,626.398 729.983,624.908 728.493,624.162 726.257,624.162 724.766,624.908 723.275,626.398 722.53,628.634 722.53,630.125 723.275,632.361 724.766,633.852 726.257,634.597 728.493,634.597 729.983,633.852 731.474,632.361 " />
<polyline points="737.437,624.162 737.437,631.616 738.182,633.852 739.673,634.597 741.909,634.597 743.4,633.852 745.636,631.616 " />
<polyline points="745.636,624.162 745.636,634.597 " />
<polyline points="759.797,626.398 758.307,624.908 756.816,624.162 754.58,624.162 753.089,624.908 751.598,626.398 750.853,628.634 750.853,630.125 751.598,632.361 753.089,633.852 754.58,634.597 756.816,634.597 758.307,633.852 759.797,632.361 " />
<polyline points="765.76,618.945 765.76,631.616 766.505,633.852 767.996,634.597 769.487,634.597 " />
<polyline points="763.524,624.162 768.741,624.162 " />
<polyline points="797.81,624.162 797.81,634.597 " />
<polyline points="797.81,626.398 796.319,624.908 794.829,624.162 792.593,624.162 791.102,624.908 789.611,626.398 788.866,628.634 788.866,630.125 789.611,632.361 791.102,633.852 792.593,634.597 794.829,634.597 796.319,633.852 797.81,632.361 " />
<polyline points="803.773,624.162 803.773,634.597 " />
<polyline points="803.773,628.634 804.518,626.398 806.009,624.908 807.5,624.162 809.736,624.162 " />
<polyline points="812.717,628.634 821.661,628.634 821.661,627.144 820.916,625.653 820.17,624.908 818.68,624.162 816.444,624.162 814.953,624.908 813.462,626.398 812.717,628.634 812.717,630.125 813.462,632.361 814.953,633.852 816.444,634.597 818.68,634.597 820.17,633.852 821.661,632.361 " />
<polyline points="835.077,624.162 835.077,634.597 " />
<polyline points="835.077,626.398 833.587,624.908 832.096,624.162 829.86,624.162 828.369,624.908 826.879,626.398 826.133,628.634 826.133,630.125 826.879,632.361 828.369,633.852 829.86,634.597 832.096,634.597 833.587,633.852 835.077,632.361 " />
<polyline points="842.531,633.852 841.786,634.597 841.04,633.852 841.786,633.106 842.531,633.852 842.531,635.343 841.786,636.833 841.04,637.579 " />
<polyline points="864.146,624.162 864.146,634.597 " />
<polyline points="864.146,627.144 866.382,624.908 867.873,624.162 870.109,624.162 871.599,624.908 872.345,627.144 872.345,634.597 " />
<polyline points="872.345,627.144 874.581,624.908 876.072,624.162 878.308,624.162 879.798,624.908 880.544,627.144 880.544,634.597 " />
<polyline points="886.506,624.162 886.506,634.597 " />
<polyline points="886.506,627.144 888.742,624.908 890.233,624.162 892.469,624.162 893.96,624.908 894.705,627.144 894.705,634.597 " />
<polyline points="894.705,627.144 896.941,624.908 898.432,624.162 900.668,624.162 902.159,624.908 902.904,627.144 902.904,634.597 " />
<polyline points="688.244,585.549 701.66,585.549 " />
<polyline points="688.244,590.021 701.66,590.021 " />
<polyline points="722.53,588.53 731.474,588.53 731.474,587.039 730.729,585.549 729.983,584.803 728.493,584.058 726.257,584.058 724.766,584.803 723.275,586.294 722.53,588.53 722.53,590.021 723.275,592.257 724.766,593.747 726.257,594.493 728.493,594.493 729.983,593.747 731.474,592.257 " />
<polyline points="741.164,578.84 739.673,578.84 738.182,579.586 737.437,581.822 737.437,594.493 " />
<polyline points="735.201,584.058 740.418,584.058 " />
<polyline points="750.108,578.84 748.617,578.84 747.126,579.586 746.381,581.822 746.381,594.493 " />
<polyline points="744.145,584.058 749.362,584.058 " />
<polyline points="753.835,588.53 762.779,588.53 762.779,587.039 762.033,585.549 761.288,584.803 759.797,584.058 757.561,584.058 756.071,584.803 754.58,586.294 753.835,588.53 753.835,590.021 754.58,592.257 756.071,593.747 757.561,594.493 759.797,594.493 761.288,593.747 762.779,592.257 " />
<polyline points="776.195,586.294 774.704,584.803 773.214,584.058 770.978,584.058 769.487,584.803 767.996,586.294 767.251,588.53 767.251,590.021 767.996,592.257 769.487,593.747 770.978,594.493 773.214,594.493 774.704,593.747 776.195,592.257 " />
<polyline points="782.158,578.84 782.158,591.511 782.903,593.747 784.394,594.493 785.884,594.493 " />
<polyline points="779.922,584.058 785.139,584.058 " />
<polyline points="789.611,579.586 790.357,580.331 791.102,579.586 790.357,578.84 789.611,579.586 " />
<polyline points="790.357,584.803 790.357,594.493 " />
<polyline points="794.829,584.058 799.301,594.493 " />
<polyline points="803.773,584.058 799.301,594.493 " />
<polyline points="807.5,588.53 816.444,588.53 816.444,587.039 815.698,585.549 814.953,584.803 813.462,584.058 811.226,584.058 809.736,584.803 808.245,586.294 807.5,588.53 807.5,590.021 808.245,592.257 809.736,593.747 811.226,594.493 813.462,594.493 814.953,593.747 816.444,592.257 " />
<polyline points="845.512,578.84 845.512,594.493 " />
<polyline points="845.512,586.294 844.022,584.803 842.531,584.058 840.295,584.058 838.804,584.803 837.313,586.294 836.568,588.53 836.568,590.021 837.313,592.257 838.804,593.747 840.295,594.493 842.531,594.493 844.022,593.747 845.512,592.257 " />
<polyline points="851.475,584.058 851.475,591.511 852.22,593.747 853.711,594.493 855.947,594.493 857.438,593.747 859.674,591.511 " />
<polyline points="859.674,584.058 859.674,594.493 " />
<polyline points="873.835,586.294 872.345,584.803 870.854,584.058 868.618,584.058 867.127,584.803 865.637,586.294 864.891,588.53 864.891,590.021 865.637,592.257 867.127,593.747 868.618,594.493 870.854,594.493 872.345,593.747 873.835,592.257 " />
<polyline points="879.798,578.84 879.798,591.511 880.544,593.747 882.034,594.493 883.525,594.493 " />
<polyline points="877.562,584.058 882.78,584.058 " />
<polyline points="903.649,578.84 903.649,594.493 " />
<polyline points="908.867,588.53 917.811,588.53 917.811,587.039 917.066,585.549 916.32,584.803 914.83,584.058 912.594,584.058 911.103,584.803 909.612,586.294 908.867,588.53 908.867,590.021 909.612,592.257 911.103,593.747 912.594,594.493 914.83,594.493 916.32,593.747 917.811,592.257 " />
<polyline points="923.028,584.058 923.028,594.493 " />
<polyline points="923.028,587.039 925.264,584.803 926.755,584.058 928.991,584.058 930.482,584.803 931.227,587.039 931.227,594.493 " />
<polyline points="945.389,584.058 945.389,595.983 944.643,598.219 943.898,598.965 942.407,599.71 940.171,599.71 938.681,598.965 " />
<polyline points="945.389,586.294 943.898,584.803 942.407,584.058 940.171,584.058 938.681,584.803 937.19,586.294 936.445,588.53 936.445,590.021 937.19,592.257 938.681,593.747 940.171,594.493 942.407,594.493 943.898,593.747 945.389,592.257 " />
<polyline points="952.097,578.84 952.097,591.511 952.842,593.747 954.333,594.493 955.824,594.493 " />
<polyline points="949.861,584.058 955.078,584.058 " />
<polyline points="960.296,578.84 960.296,594.493 " />
<polyline points="960.296,587.039 962.532,584.803 964.023,584.058 966.259,584.058 967.749,584.803 968.495,587.039 968.495,594.493 " />
<polyline points="975.948,593.747 975.203,594.493 974.457,593.747 975.203,593.002 975.948,593.747 975.948,595.238 975.203,596.729 974.457,597.474 " />
<polyline points="997.563,584.058 997.563,594.493 " />
<polyline points="997.563,587.039 999.799,584.803 1001.29,584.058 1003.53,584.058 1005.02,584.803 1005.76,587.039 1005.76,594.493 " />
<polyline points="1005.76,587.039 1008,584.803 1009.49,584.058 1011.72,584.058 1013.22,584.803 1013.96,587.039 1013.96,594.493 " />
<polyline points="688.244,545.444 701.66,545.444 " />
<polyline points="688.244,549.916 701.66,549.916 " />
<polyline points="731.474,538.736 731.474,554.388 " />
<polyline points="731.474,546.19 729.983,544.699 728.493,543.953 726.257,543.953 724.766,544.699 723.275,546.19 722.53,548.426 722.53,549.916 723.275,552.152 724.766,553.643 726.257,554.388 728.493,554.388 729.983,553.643 731.474,552.152 " />
<polyline points="737.437,543.953 737.437,551.407 738.182,553.643 739.673,554.388 741.909,554.388 743.4,553.643 745.636,551.407 " />
<polyline points="745.636,543.953 745.636,554.388 " />
<polyline points="759.797,546.19 758.307,544.699 756.816,543.953 754.58,543.953 753.089,544.699 751.598,546.19 750.853,548.426 750.853,549.916 751.598,552.152 753.089,553.643 754.58,554.388 756.816,554.388 758.307,553.643 759.797,552.152 " />
<polyline points="765.76,538.736 765.76,551.407 766.505,553.643 767.996,554.388 769.487,554.388 " />
<polyline points="763.524,543.953 768.741,543.953 " />
<polyline points="788.121,543.953 792.593,554.388 " />
<polyline points="797.065,543.953 792.593,554.388 " />
<polyline points="800.791,548.426 809.736,548.426 809.736,546.935 808.99,545.444 808.245,544.699 806.754,543.953 804.518,543.953 803.027,544.699 801.537,546.19 800.791,548.426 800.791,549.916 801.537,552.152 803.027,553.643 804.518,554.388 806.754,554.388 808.245,553.643 809.736,552.152 " />
<polyline points="814.953,538.736 814.953,554.388 " />
<polyline points="823.897,543.953 822.407,544.699 820.916,546.19 820.17,548.426 820.17,549.916 820.916,552.152 822.407,553.643 823.897,554.388 826.133,554.388 827.624,553.643 829.115,552.152 829.86,549.916 829.86,548.426 829.115,546.19 827.624,544.699 826.133,543.953 823.897,543.953 " />
<polyline points="843.276,546.19 841.786,544.699 840.295,543.953 838.059,543.953 836.568,544.699 835.077,546.19 834.332,548.426 834.332,549.916 835.077,552.152 836.568,553.643 838.059,554.388 840.295,554.388 841.786,553.643 843.276,552.152 " />
<polyline points="847.748,539.481 848.494,540.227 849.239,539.481 848.494,538.736 847.748,539.481 " />
<polyline points="848.494,544.699 848.494,554.388 " />
<polyline points="855.202,538.736 855.202,551.407 855.947,553.643 857.438,554.388 858.929,554.388 " />
<polyline points="852.966,543.953 858.183,543.953 " />
<polyline points="861.91,543.953 866.382,554.388 " />
<polyline points="870.854,543.953 866.382,554.388 864.891,557.37 863.401,558.86 861.91,559.606 861.165,559.606 " />
<polyline points="876.817,553.643 876.072,554.388 875.326,553.643 876.072,552.898 876.817,553.643 876.817,555.134 876.072,556.624 875.326,557.37 " />
<polyline points="898.432,543.953 898.432,554.388 " />
<polyline points="898.432,546.935 900.668,544.699 902.159,543.953 904.395,543.953 905.885,544.699 906.631,546.935 906.631,554.388 " />
<polyline points="906.631,546.935 908.867,544.699 910.357,543.953 912.594,543.953 914.084,544.699 914.83,546.935 914.83,554.388 " />
<polyline points="932.718,535.755 919.302,559.606 " />
<polyline points="944.643,546.19 943.898,544.699 941.662,543.953 939.426,543.953 937.19,544.699 936.445,546.19 937.19,547.68 938.681,548.426 942.407,549.171 943.898,549.916 944.643,551.407 944.643,552.152 943.898,553.643 941.662,554.388 939.426,554.388 937.19,553.643 936.445,552.152 " />
<polyline points="602.966,503.849 605.947,514.284 " />
<polyline points="608.929,503.849 605.947,514.284 " />
<polyline points="608.929,503.849 611.91,514.284 " />
<polyline points="614.892,503.849 611.91,514.284 " />
<polyline points="620.109,498.632 620.109,514.284 " />
<polyline points="620.109,506.83 622.345,504.594 623.836,503.849 626.072,503.849 627.562,504.594 628.308,506.83 628.308,514.284 " />
<polyline points="633.525,508.321 642.469,508.321 642.469,506.83 641.724,505.34 640.979,504.594 639.488,503.849 637.252,503.849 635.761,504.594 634.271,506.085 633.525,508.321 633.525,509.812 634.271,512.048 635.761,513.539 637.252,514.284 639.488,514.284 640.979,513.539 642.469,512.048 " />
<polyline points="647.687,503.849 647.687,514.284 " />
<polyline points="647.687,508.321 648.432,506.085 649.923,504.594 651.414,503.849 653.65,503.849 " />
<polyline points="656.631,508.321 665.575,508.321 665.575,506.83 664.83,505.34 664.084,504.594 662.594,503.849 660.358,503.849 658.867,504.594 657.376,506.085 656.631,508.321 656.631,509.812 657.376,512.048 658.867,513.539 660.358,514.284 662.594,514.284 664.084,513.539 665.575,512.048 " />
<polyline points="646.573,437.197 634.647,443.905 646.573,450.613 " />
<polyline points="669.679,437.942 671.169,437.197 673.405,434.961 673.405,450.613 " />
<polyline points="683.84,434.961 692.039,434.961 687.567,440.923 689.803,440.923 691.294,441.669 692.039,442.414 692.784,444.65 692.784,446.141 692.039,448.377 690.548,449.867 688.312,450.613 686.076,450.613 683.84,449.867 683.095,449.122 682.349,447.631 " />
<polyline points="713.654,440.178 713.654,450.613 " />
<polyline points="713.654,443.159 715.89,440.923 717.381,440.178 719.617,440.178 721.108,440.923 721.853,443.159 721.853,450.613 " />
<polyline points="721.853,443.159 724.089,440.923 725.58,440.178 727.816,440.178 729.306,440.923 730.052,443.159 730.052,450.613 " />
<polyline points="747.94,431.979 734.524,455.83 " />
<polyline points="759.866,442.414 759.12,440.923 756.884,440.178 754.648,440.178 752.412,440.923 751.667,442.414 752.412,443.905 753.903,444.65 757.63,445.395 759.12,446.141 759.866,447.631 759.866,448.377 759.12,449.867 756.884,450.613 754.648,450.613 752.412,449.867 751.667,448.377 " />
<polyline points="765.828,440.178 765.083,440.923 765.828,441.669 766.574,440.923 765.828,440.178 " />
<polyline points="765.828,449.122 765.083,449.867 765.828,450.613 766.574,449.867 765.828,449.122 " />
<polyline points="788.189,434.961 788.189,450.613 797.133,450.613 " />
<polyline points="816.512,441.669 829.928,441.669 " />
<polyline points="816.512,446.141 829.928,446.141 " />
<polyline points="870.922,434.961 864.96,450.613 " />
<polyline points="870.922,434.961 876.885,450.613 " />
<polyline points="867.196,445.395 874.649,445.395 " />
<polyline points="908.19,431.979 894.773,455.83 " />
<polyline points="913.407,434.961 921.606,434.961 917.134,440.923 919.37,440.923 920.861,441.669 921.606,442.414 922.351,444.65 922.351,446.141 921.606,448.377 920.115,449.867 917.879,450.613 915.643,450.613 913.407,449.867 912.662,449.122 911.916,447.631 " />
<polyline points="935.768,434.961 928.314,434.961 927.569,441.669 928.314,440.923 930.55,440.178 932.786,440.178 935.022,440.923 936.513,442.414 937.258,444.65 937.258,446.141 936.513,448.377 935.022,449.867 932.786,450.613 930.55,450.613 928.314,449.867 927.569,449.122 926.823,447.631 " />
<polyline points="946.202,434.961 943.966,435.706 942.476,437.942 941.73,441.669 941.73,443.905 942.476,447.631 943.966,449.867 946.202,450.613 947.693,450.613 949.929,449.867 951.42,447.631 952.165,443.905 952.165,441.669 951.42,437.942 949.929,435.706 947.693,434.961 946.202,434.961 " />
<polyline points="634.647,397.092 646.573,403.8 634.647,410.508 " />
<polyline points="669.679,397.838 671.169,397.092 673.405,394.856 673.405,410.508 " />
<polyline points="683.84,394.856 692.039,394.856 687.567,400.819 689.803,400.819 691.294,401.564 692.039,402.31 692.784,404.546 692.784,406.036 692.039,408.272 690.548,409.763 688.312,410.508 686.076,410.508 683.84,409.763 683.095,409.018 682.349,407.527 " />
<polyline points="713.654,400.074 713.654,410.508 " />
<polyline points="713.654,403.055 715.89,400.819 717.381,400.074 719.617,400.074 721.108,400.819 721.853,403.055 721.853,410.508 " />
<polyline points="721.853,403.055 724.089,400.819 725.58,400.074 727.816,400.074 729.306,400.819 730.052,403.055 730.052,410.508 " />
<polyline points="747.94,391.875 734.524,415.726 " />
<polyline points="759.866,402.31 759.12,400.819 756.884,400.074 754.648,400.074 752.412,400.819 751.667,402.31 752.412,403.8 753.903,404.546 757.63,405.291 759.12,406.036 759.866,407.527 759.866,408.272 759.12,409.763 756.884,410.508 754.648,410.508 752.412,409.763 751.667,408.272 " />
<polyline points="765.828,400.074 765.083,400.819 765.828,401.564 766.574,400.819 765.828,400.074 " />
<polyline points="765.828,409.018 765.083,409.763 765.828,410.508 766.574,409.763 765.828,409.018 " />
<polyline points="788.189,394.856 788.189,410.508 797.133,410.508 " />
<polyline points="816.512,401.564 829.928,401.564 " />
<polyline points="816.512,406.036 829.928,406.036 " />
<polyline points="849.307,394.856 855.27,410.508 " />
<polyline points="861.233,394.856 855.27,410.508 " />
<polyline points="899.991,394.856 894.028,410.508 " />
<polyline points="899.991,394.856 905.954,410.508 " />
<polyline points="896.264,405.291 903.718,405.291 " />
<polyline points="937.258,391.875 923.842,415.726 " />
<polyline points="948.438,394.856 940.985,405.291 952.165,405.291 " />
<polyline points="948.438,394.856 948.438,410.508 " />
<polyline points="958.128,409.763 957.383,410.508 956.637,409.763 957.383,409.018 958.128,409.763 958.128,411.254 957.383,412.744 956.637,413.49 " />
<polyline points="972.29,394.856 964.836,394.856 964.091,401.564 964.836,400.819 967.072,400.074 969.308,400.074 971.544,400.819 973.035,402.31 973.78,404.546 973.78,406.036 973.035,408.272 971.544,409.763 969.308,410.508 967.072,410.508 964.836,409.763 964.091,409.018 963.345,407.527 " />
<polyline points="982.724,394.856 980.488,395.601 978.998,397.838 978.252,401.564 978.252,403.8 978.998,407.527 980.488,409.763 982.724,410.508 984.215,410.508 986.451,409.763 987.942,407.527 988.687,403.8 988.687,401.564 987.942,397.838 986.451,395.601 984.215,394.856 982.724,394.856 " />
<polyline points="997.631,394.856 995.395,395.601 993.905,397.838 993.159,401.564 993.159,403.8 993.905,407.527 995.395,409.763 997.631,410.508 999.122,410.508 1001.36,409.763 1002.85,407.527 1003.59,403.8 1003.59,401.564 1002.85,397.838 1001.36,395.601 999.122,394.856 997.631,394.856 " />
<polyline points="911.801,618.366 911.801,617.919 912.248,617.025 912.695,616.577 913.59,616.13 915.378,616.13 916.273,616.577 916.72,617.025 917.167,617.919 917.167,618.814 916.72,619.708 915.826,621.05 911.353,625.522 917.614,625.522 " />
<polyline points="297.281,405.017 295.939,405.464 295.045,406.806 294.598,409.042 294.598,410.383 295.045,412.619 295.939,413.961 297.281,414.408 298.175,414.408 299.517,413.961 300.411,412.619 300.858,410.383 300.858,409.042 300.411,406.806 299.517,405.464 298.175,405.017 297.281,405.017 " />
<polyline points="17.7592,504.685 20.7406,515.119 " />
<polyline points="23.722,504.685 20.7406,515.119 " />
<polyline points="23.722,504.685 26.7034,515.119 " />
<polyline points="29.6848,504.685 26.7034,515.119 " />
<polyline points="34.9022,499.467 34.9022,515.119 " />
<polyline points="34.9022,507.666 37.1382,505.43 38.6289,504.685 40.865,504.685 42.3557,505.43 43.101,507.666 43.101,515.119 " />
<polyline points="48.3185,509.157 57.2626,509.157 57.2626,507.666 56.5173,506.175 55.7719,505.43 54.2812,504.685 52.0452,504.685 50.5545,505.43 49.0638,506.921 48.3185,509.157 48.3185,510.647 49.0638,512.883 50.5545,514.374 52.0452,515.119 54.2812,515.119 55.7719,514.374 57.2626,512.883 " />
<polyline points="62.4801,504.685 62.4801,515.119 " />
<polyline points="62.4801,509.157 63.2254,506.921 64.7161,505.43 66.2068,504.685 68.4428,504.685 " />
<polyline points="71.4242,509.157 80.3684,509.157 80.3684,507.666 79.623,506.175 78.8777,505.43 77.387,504.685 75.151,504.685 73.6603,505.43 72.1696,506.921 71.4242,509.157 71.4242,510.647 72.1696,512.883 73.6603,514.374 75.151,515.119 77.387,515.119 78.8777,514.374 80.3684,512.883 " />
<polyline points="49.0921,455.009 61.1619,455.009 " />
<polyline points="10.0392,434.961 16.002,450.613 " />
<polyline points="21.9648,434.961 16.002,450.613 " />
<polyline points="25.9746,444.446 24.633,444.893 23.7386,446.235 23.2914,448.471 23.2914,449.812 23.7386,452.048 24.633,453.39 25.9746,453.837 26.869,453.837 28.2107,453.39 29.1051,452.048 29.5523,449.812 29.5523,448.471 29.1051,446.235 28.2107,444.893 26.869,444.446 25.9746,444.446 " />
<polyline points="60.9632,437.197 49.0376,443.905 60.9632,450.613 " />
<polyline points="82.5783,438.687 82.5783,437.942 83.3236,436.451 84.069,435.706 85.5597,434.961 88.5411,434.961 90.0318,435.706 90.7771,436.451 91.5224,437.942 91.5224,439.433 90.7771,440.923 89.2864,443.159 81.8329,450.613 92.2678,450.613 " />
<polyline points="105.684,434.961 98.2306,434.961 97.4852,441.669 98.2306,440.923 100.467,440.178 102.703,440.178 104.939,440.923 106.429,442.414 107.175,444.65 107.175,446.141 106.429,448.377 104.939,449.867 102.703,450.613 100.467,450.613 98.2306,449.867 97.4852,449.122 96.7399,447.631 " />
<polyline points="116.119,434.961 113.883,435.706 112.392,437.942 111.647,441.669 111.647,443.905 112.392,447.631 113.883,449.867 116.119,450.613 117.61,450.613 119.846,449.867 121.336,447.631 122.082,443.905 122.082,441.669 121.336,437.942 119.846,435.706 117.61,434.961 116.119,434.961 " />
<polyline points="131.026,434.961 128.79,435.706 127.299,437.942 126.554,441.669 126.554,443.905 127.299,447.631 128.79,449.867 131.026,450.613 132.517,450.613 134.753,449.867 136.243,447.631 136.989,443.905 136.989,441.669 136.243,437.942 134.753,435.706 132.517,434.961 131.026,434.961 " />
<polyline points="162.33,434.961 160.84,434.961 159.349,435.706 158.604,437.942 158.604,450.613 " />
<polyline points="156.368,440.178 161.585,440.178 " />
<polyline points="166.803,440.178 166.803,455.83 " />
<polyline points="166.803,442.414 168.293,440.923 169.784,440.178 172.02,440.178 173.511,440.923 175.001,442.414 175.747,444.65 175.747,446.141 175.001,448.377 173.511,449.867 172.02,450.613 169.784,450.613 168.293,449.867 166.803,448.377 " />
<polyline points="180.964,440.178 180.964,450.613 " />
<polyline points="180.964,443.159 183.2,440.923 184.691,440.178 186.927,440.178 188.418,440.923 189.163,443.159 189.163,450.613 " />
<polyline points="189.163,443.159 191.399,440.923 192.89,440.178 195.126,440.178 196.616,440.923 197.362,443.159 197.362,450.613 " />
<polyline points="204.07,440.178 203.325,440.923 204.07,441.669 204.815,440.923 204.07,440.178 " />
<polyline points="204.07,449.122 203.325,449.867 204.07,450.613 204.815,449.867 204.07,449.122 " />
<polyline points="248.835,441.669 262.251,441.669 " />
<polyline points="248.835,446.141 262.251,446.141 " />
<polyline points="232.293,452.074 238.852,452.074 238.852,450.981 238.305,449.887 237.759,449.341 236.665,448.794 235.026,448.794 233.933,449.341 232.839,450.434 232.293,452.074 232.293,453.167 232.839,454.807 233.933,455.9 235.026,456.446 236.665,456.446 237.759,455.9 238.852,454.807 " />
<polyline points="217.57,435.278 217.57,450.93 226.514,450.93 " />
<polyline points="321.106,444.9 319.764,445.347 318.869,446.689 318.422,448.925 318.422,450.266 318.869,452.503 319.764,453.844 321.106,454.291 322,454.291 323.342,453.844 324.236,452.503 324.683,450.266 324.683,448.925 324.236,446.689 323.342,445.347 322,444.9 321.106,444.9 " />
<polyline points="307.724,435.278 301.761,450.93 " />
<polyline points="307.724,435.278 313.687,450.93 " />
<polyline points="303.997,445.713 311.451,445.713 " />
<polyline points="281.112,449.996 285.422,443.729 " />
<polyline points="285.422,443.729 290.595,457.515 " />
<polyline points="290.595,457.515 297.492,431.197 " />
<polyline points="297.492,431.197 325.942,431.197 " />
<polyline points="347.606,432.297 334.19,456.148 " />
<polyline points="358.786,435.278 351.333,445.713 362.513,445.713 " />
<polyline points="358.786,435.278 358.786,450.93 " />
<polyline points="367.73,449.44 366.985,450.185 367.73,450.93 368.476,450.185 367.73,449.44 " />
<polyline points="375.184,435.278 383.383,435.278 378.911,441.241 381.147,441.241 382.637,441.986 383.383,442.732 384.128,444.968 384.128,446.458 383.383,448.694 381.892,450.185 379.656,450.93 377.42,450.93 375.184,450.185 374.439,449.44 373.693,447.949 " />
<polyline points="373.401,392.192 359.985,416.043 " />
<polyline points="379.364,398.155 380.855,397.41 383.091,395.174 383.091,410.826 " />
<polyline points="396.507,395.174 394.271,395.919 392.78,398.155 392.035,401.882 392.035,404.118 392.78,407.845 394.271,410.081 396.507,410.826 397.998,410.826 400.234,410.081 401.724,407.845 402.47,404.118 402.47,401.882 401.724,398.155 400.234,395.919 397.998,395.174 396.507,395.174 " />
<polyline points="409.178,410.081 408.433,410.826 407.687,410.081 408.433,409.335 409.178,410.081 409.178,411.571 408.433,413.062 407.687,413.807 " />
<polyline points="424.085,397.41 423.339,395.919 421.103,395.174 419.613,395.174 417.377,395.919 415.886,398.155 415.141,401.882 415.141,405.609 415.886,408.59 417.377,410.081 419.613,410.826 420.358,410.826 422.594,410.081 424.085,408.59 424.83,406.354 424.83,405.609 424.085,403.372 422.594,401.882 420.358,401.136 419.613,401.136 417.377,401.882 415.886,403.372 415.141,405.609 " />
<polyline points="433.774,395.174 431.538,395.919 430.048,398.155 429.302,401.882 429.302,404.118 430.048,407.845 431.538,410.081 433.774,410.826 435.265,410.826 437.501,410.081 438.992,407.845 439.737,404.118 439.737,401.882 438.992,398.155 437.501,395.919 435.265,395.174 433.774,395.174 " />
<polyline points="448.681,395.174 446.445,395.919 444.955,398.155 444.209,401.882 444.209,404.118 444.955,407.845 446.445,410.081 448.681,410.826 450.172,410.826 452.408,410.081 453.899,407.845 454.644,404.118 454.644,401.882 453.899,398.155 452.408,395.919 450.172,395.174 448.681,395.174 " />
<polyline points="323.826,391.092 352.276,391.092 " />
<polyline points="316.929,417.411 323.826,391.092 " />
<polyline points="311.756,403.625 316.929,417.411 " />
<polyline points="307.446,409.891 311.756,403.625 " />
<polyline points="334.058,395.174 328.095,410.826 " />
<polyline points="334.058,395.174 340.021,410.826 " />
<polyline points="330.331,405.609 337.785,405.609 " />
<polyline points="347.439,404.796 346.098,405.243 345.203,406.584 344.756,408.82 344.756,410.162 345.203,412.398 346.098,413.74 347.439,414.187 348.334,414.187 349.675,413.74 350.57,412.398 351.017,410.162 351.017,408.82 350.57,406.584 349.675,405.243 348.334,404.796 347.439,404.796 " />
<polyline points="217.57,395.174 217.57,410.826 226.514,410.826 " />
<polyline points="231.754,410.353 238.313,410.353 238.313,409.26 237.766,408.167 237.22,407.62 236.127,407.073 234.487,407.073 233.394,407.62 232.301,408.713 231.754,410.353 231.754,411.446 232.301,413.086 233.394,414.179 234.487,414.726 236.127,414.726 237.22,414.179 238.313,413.086 " />
<polyline points="248.835,401.564 262.251,401.564 " />
<polyline points="248.835,406.036 262.251,406.036 " />
<polyline points="281.631,394.856 287.593,410.508 " />
<polyline points="293.556,394.856 287.593,410.508 " />
<polyline points="49.0376,397.092 60.9632,403.8 49.0376,410.508 " />
<polyline points="82.5783,398.583 82.5783,397.838 83.3236,396.347 84.069,395.601 85.5597,394.856 88.5411,394.856 90.0318,395.601 90.7771,396.347 91.5224,397.838 91.5224,399.328 90.7771,400.819 89.2864,403.055 81.8329,410.508 92.2678,410.508 " />
<polyline points="105.684,394.856 98.2306,394.856 97.4852,401.564 98.2306,400.819 100.467,400.074 102.703,400.074 104.939,400.819 106.429,402.31 107.175,404.546 107.175,406.036 106.429,408.272 104.939,409.763 102.703,410.508 100.467,410.508 98.2306,409.763 97.4852,409.018 96.7399,407.527 " />
<polyline points="116.119,394.856 113.883,395.601 112.392,397.838 111.647,401.564 111.647,403.8 112.392,407.527 113.883,409.763 116.119,410.508 117.61,410.508 119.846,409.763 121.336,407.527 122.082,403.8 122.082,401.564 121.336,397.838 119.846,395.601 117.61,394.856 116.119,394.856 " />
<polyline points="131.026,394.856 128.79,395.601 127.299,397.838 126.554,401.564 126.554,403.8 127.299,407.527 128.79,409.763 131.026,410.508 132.517,410.508 134.753,409.763 136.243,407.527 136.989,403.8 136.989,401.564 136.243,397.838 134.753,395.601 132.517,394.856 131.026,394.856 " />
<polyline points="162.33,394.856 160.84,394.856 159.349,395.601 158.604,397.838 158.604,410.508 " />
<polyline points="156.368,400.074 161.585,400.074 " />
<polyline points="166.803,400.074 166.803,415.726 " />
<polyline points="166.803,402.31 168.293,400.819 169.784,400.074 172.02,400.074 173.511,400.819 175.001,402.31 175.747,404.546 175.747,406.036 175.001,408.272 173.511,409.763 172.02,410.508 169.784,410.508 168.293,409.763 166.803,408.272 " />
<polyline points="180.964,400.074 180.964,410.508 " />
<polyline points="180.964,403.055 183.2,400.819 184.691,400.074 186.927,400.074 188.418,400.819 189.163,403.055 189.163,410.508 " />
<polyline points="189.163,403.055 191.399,400.819 192.89,400.074 195.126,400.074 196.616,400.819 197.362,403.055 197.362,410.508 " />
<polyline points="204.07,400.074 203.325,400.819 204.07,401.564 204.815,400.819 204.07,400.074 " />
<polyline points="204.07,409.018 203.325,409.763 204.07,410.508 204.815,409.763 204.07,409.018 " />
<polyline points="26.7562,404.342 25.4145,404.789 24.5201,406.13 24.0729,408.366 24.0729,409.708 24.5201,411.944 25.4145,413.286 26.7562,413.733 27.6506,413.733 28.9922,413.286 29.8866,411.944 30.3338,409.708 30.3338,408.366 29.8866,406.13 28.9922,404.789 27.6506,404.342 26.7562,404.342 " />
<polyline points="10.0392,394.856 16.002,410.508 " />
<polyline points="21.9648,394.856 16.002,410.508 " />
<polyline points="80.3529,548.355 79.0113,548.802 78.1169,550.144 77.6697,552.38 77.6697,553.721 78.1169,555.957 79.0113,557.299 80.3529,557.746 81.2473,557.746 82.589,557.299 83.4834,555.957 83.9306,553.721 83.9306,552.38 83.4834,550.144 82.589,548.802 81.2473,548.355 80.3529,548.355 " />
<polyline points="63.636,538.736 69.5987,554.388 " />
<polyline points="75.5615,538.736 69.5987,554.388 " />
<polyline points="102.634,545.444 116.051,545.444 " />
<polyline points="102.634,549.916 116.051,549.916 " />
<polyline points="145.865,538.736 145.865,554.388 " />
<polyline points="145.865,546.19 144.374,544.699 142.883,543.953 140.647,543.953 139.156,544.699 137.666,546.19 136.92,548.426 136.92,549.916 137.666,552.152 139.156,553.643 140.647,554.388 142.883,554.388 144.374,553.643 145.865,552.152 " />
<polyline points="151.827,543.953 151.827,551.407 152.573,553.643 154.063,554.388 156.299,554.388 157.79,553.643 160.026,551.407 " />
<polyline points="160.026,543.953 160.026,554.388 " />
<polyline points="174.188,546.19 172.697,544.699 171.206,543.953 168.97,543.953 167.48,544.699 165.989,546.19 165.244,548.426 165.244,549.916 165.989,552.152 167.48,553.643 168.97,554.388 171.206,554.388 172.697,553.643 174.188,552.152 " />
<polyline points="180.151,538.736 180.151,551.407 180.896,553.643 182.387,554.388 183.877,554.388 " />
<polyline points="177.914,543.953 183.132,543.953 " />
<polyline points="202.511,543.953 206.983,554.388 " />
<polyline points="211.455,543.953 206.983,554.388 " />
<polyline points="215.182,548.426 224.126,548.426 224.126,546.935 223.381,545.444 222.635,544.699 221.145,543.953 218.909,543.953 217.418,544.699 215.927,546.19 215.182,548.426 215.182,549.916 215.927,552.152 217.418,553.643 218.909,554.388 221.145,554.388 222.635,553.643 224.126,552.152 " />
<polyline points="229.343,538.736 229.343,554.388 " />
<polyline points="238.288,543.953 236.797,544.699 235.306,546.19 234.561,548.426 234.561,549.916 235.306,552.152 236.797,553.643 238.288,554.388 240.524,554.388 242.014,553.643 243.505,552.152 244.25,549.916 244.25,548.426 243.505,546.19 242.014,544.699 240.524,543.953 238.288,543.953 " />
<polyline points="257.667,546.19 256.176,544.699 254.685,543.953 252.449,543.953 250.959,544.699 249.468,546.19 248.722,548.426 248.722,549.916 249.468,552.152 250.959,553.643 252.449,554.388 254.685,554.388 256.176,553.643 257.667,552.152 " />
<polyline points="262.139,539.481 262.884,540.227 263.629,539.481 262.884,538.736 262.139,539.481 " />
<polyline points="262.884,544.699 262.884,554.388 " />
<polyline points="269.592,538.736 269.592,551.407 270.338,553.643 271.828,554.388 273.319,554.388 " />
<polyline points="267.356,543.953 272.574,543.953 " />
<polyline points="276.3,543.953 280.772,554.388 " />
<polyline points="285.245,543.953 280.772,554.388 279.282,557.37 277.791,558.86 276.3,559.606 275.555,559.606 " />
<polyline points="291.207,553.643 290.462,554.388 289.717,553.643 290.462,552.898 291.207,553.643 291.207,555.134 290.462,556.624 289.717,557.37 " />
<polyline points="317.294,538.736 315.804,538.736 314.313,539.481 313.568,541.717 313.568,554.388 " />
<polyline points="311.332,543.953 316.549,543.953 " />
<polyline points="321.767,543.953 321.767,559.606 " />
<polyline points="321.767,546.19 323.257,544.699 324.748,543.953 326.984,543.953 328.475,544.699 329.965,546.19 330.711,548.426 330.711,549.916 329.965,552.152 328.475,553.643 326.984,554.388 324.748,554.388 323.257,553.643 321.767,552.152 " />
<polyline points="335.928,543.953 335.928,554.388 " />
<polyline points="335.928,546.935 338.164,544.699 339.655,543.953 341.891,543.953 343.382,544.699 344.127,546.935 344.127,554.388 " />
<polyline points="344.127,546.935 346.363,544.699 347.854,543.953 350.09,543.953 351.58,544.699 352.326,546.935 352.326,554.388 " />
<polyline points="297.774,619.792 297.774,619.345 298.222,618.451 298.669,618.003 299.563,617.556 301.352,617.556 302.246,618.003 302.694,618.451 303.141,619.345 303.141,620.239 302.694,621.134 301.799,622.475 297.327,626.948 303.588,626.948 " />
<polyline points="65.872,578.84 65.872,594.493 74.8162,594.493 " />
<polyline points="81.094,594.865 87.6531,594.865 87.6531,593.772 87.1065,592.679 86.5599,592.132 85.4667,591.586 83.827,591.586 82.7338,592.132 81.6406,593.225 81.094,594.865 81.094,595.958 81.6406,597.598 82.7338,598.691 83.827,599.238 85.4667,599.238 86.5599,598.691 87.6531,597.598 " />
<polyline points="69.5987,618.945 63.636,634.597 " />
<polyline points="69.5987,618.945 75.5615,634.597 " />
<polyline points="65.872,629.38 73.3255,629.38 " />
<polyline points="82.6976,628.996 81.356,629.443 80.4615,630.785 80.0143,633.021 80.0143,634.362 80.4615,636.598 81.356,637.94 82.6976,638.387 83.592,638.387 84.9336,637.94 85.828,636.598 86.2753,634.362 86.2753,633.021 85.828,630.785 84.9336,629.443 83.592,628.996 82.6976,628.996 " />
<polyline points="102.634,585.549 116.051,585.549 " />
<polyline points="102.634,590.021 116.051,590.021 " />
<polyline points="136.92,588.53 145.865,588.53 145.865,587.039 145.119,585.549 144.374,584.803 142.883,584.058 140.647,584.058 139.156,584.803 137.666,586.294 136.92,588.53 136.92,590.021 137.666,592.257 139.156,593.747 140.647,594.493 142.883,594.493 144.374,593.747 145.865,592.257 " />
<polyline points="155.554,578.84 154.063,578.84 152.573,579.586 151.827,581.822 151.827,594.493 " />
<polyline points="149.591,584.058 154.809,584.058 " />
<polyline points="164.498,578.84 163.008,578.84 161.517,579.586 160.771,581.822 160.771,594.493 " />
<polyline points="158.535,584.058 163.753,584.058 " />
<polyline points="168.225,588.53 177.169,588.53 177.169,587.039 176.424,585.549 175.678,584.803 174.188,584.058 171.952,584.058 170.461,584.803 168.97,586.294 168.225,588.53 168.225,590.021 168.97,592.257 170.461,593.747 171.952,594.493 174.188,594.493 175.678,593.747 177.169,592.257 " />
<polyline points="190.585,586.294 189.095,584.803 187.604,584.058 185.368,584.058 183.877,584.803 182.387,586.294 181.641,588.53 181.641,590.021 182.387,592.257 183.877,593.747 185.368,594.493 187.604,594.493 189.095,593.747 190.585,592.257 " />
<polyline points="196.548,578.84 196.548,591.511 197.294,593.747 198.784,594.493 200.275,594.493 " />
<polyline points="194.312,584.058 199.53,584.058 " />
<polyline points="204.002,579.586 204.747,580.331 205.492,579.586 204.747,578.84 204.002,579.586 " />
<polyline points="204.747,584.803 204.747,594.493 " />
<polyline points="209.219,584.058 213.691,594.493 " />
<polyline points="218.163,584.058 213.691,594.493 " />
<polyline points="221.89,588.53 230.834,588.53 230.834,587.039 230.089,585.549 229.343,584.803 227.853,584.058 225.617,584.058 224.126,584.803 222.635,586.294 221.89,588.53 221.89,590.021 222.635,592.257 224.126,593.747 225.617,594.493 227.853,594.493 229.343,593.747 230.834,592.257 " />
<polyline points="259.903,578.84 259.903,594.493 " />
<polyline points="259.903,586.294 258.412,584.803 256.921,584.058 254.685,584.058 253.195,584.803 251.704,586.294 250.959,588.53 250.959,590.021 251.704,592.257 253.195,593.747 254.685,594.493 256.921,594.493 258.412,593.747 259.903,592.257 " />
<polyline points="265.865,584.058 265.865,591.511 266.611,593.747 268.102,594.493 270.338,594.493 271.828,593.747 274.064,591.511 " />
<polyline points="274.064,584.058 274.064,594.493 " />
<polyline points="288.226,586.294 286.735,584.803 285.245,584.058 283.008,584.058 281.518,584.803 280.027,586.294 279.282,588.53 279.282,590.021 280.027,592.257 281.518,593.747 283.008,594.493 285.245,594.493 286.735,593.747 288.226,592.257 " />
<polyline points="294.189,578.84 294.189,591.511 294.934,593.747 296.425,594.493 297.915,594.493 " />
<polyline points="291.953,584.058 297.17,584.058 " />
<polyline points="318.04,578.84 318.04,594.493 " />
<polyline points="323.257,588.53 332.201,588.53 332.201,587.039 331.456,585.549 330.711,584.803 329.22,584.058 326.984,584.058 325.493,584.803 324.003,586.294 323.257,588.53 323.257,590.021 324.003,592.257 325.493,593.747 326.984,594.493 329.22,594.493 330.711,593.747 332.201,592.257 " />
<polyline points="337.419,584.058 337.419,594.493 " />
<polyline points="337.419,587.039 339.655,584.803 341.146,584.058 343.382,584.058 344.872,584.803 345.618,587.039 345.618,594.493 " />
<polyline points="359.779,584.058 359.779,595.983 359.034,598.219 358.289,598.965 356.798,599.71 354.562,599.71 353.071,598.965 " />
<polyline points="359.779,586.294 358.289,584.803 356.798,584.058 354.562,584.058 353.071,584.803 351.58,586.294 350.835,588.53 350.835,590.021 351.58,592.257 353.071,593.747 354.562,594.493 356.798,594.493 358.289,593.747 359.779,592.257 " />
<polyline points="366.487,578.84 366.487,591.511 367.233,593.747 368.723,594.493 370.214,594.493 " />
<polyline points="364.251,584.058 369.469,584.058 " />
<polyline points="374.686,578.84 374.686,594.493 " />
<polyline points="374.686,587.039 376.922,584.803 378.413,584.058 380.649,584.058 382.14,584.803 382.885,587.039 382.885,594.493 " />
<polyline points="390.338,593.747 389.593,594.493 388.848,593.747 389.593,593.002 390.338,593.747 390.338,595.238 389.593,596.729 388.848,597.474 " />
<polyline points="416.426,578.84 414.935,578.84 413.444,579.586 412.699,581.822 412.699,594.493 " />
<polyline points="410.463,584.058 415.68,584.058 " />
<polyline points="421.643,578.84 421.643,591.511 422.388,593.747 423.879,594.493 425.37,594.493 " />
<polyline points="419.407,584.058 424.624,584.058 " />
<polyline points="102.634,625.653 116.051,625.653 " />
<polyline points="102.634,630.125 116.051,630.125 " />
<polyline points="145.865,618.945 145.865,634.597 " />
<polyline points="145.865,626.398 144.374,624.908 142.883,624.162 140.647,624.162 139.156,624.908 137.666,626.398 136.92,628.634 136.92,630.125 137.666,632.361 139.156,633.852 140.647,634.597 142.883,634.597 144.374,633.852 145.865,632.361 " />
<polyline points="151.827,624.162 151.827,631.616 152.573,633.852 154.063,634.597 156.299,634.597 157.79,633.852 160.026,631.616 " />
<polyline points="160.026,624.162 160.026,634.597 " />
<polyline points="174.188,626.398 172.697,624.908 171.206,624.162 168.97,624.162 167.48,624.908 165.989,626.398 165.244,628.634 165.244,630.125 165.989,632.361 167.48,633.852 168.97,634.597 171.206,634.597 172.697,633.852 174.188,632.361 " />
<polyline points="180.151,618.945 180.151,631.616 180.896,633.852 182.387,634.597 183.877,634.597 " />
<polyline points="177.914,624.162 183.132,624.162 " />
<polyline points="212.2,624.162 212.2,634.597 " />
<polyline points="212.2,626.398 210.71,624.908 209.219,624.162 206.983,624.162 205.492,624.908 204.002,626.398 203.256,628.634 203.256,630.125 204.002,632.361 205.492,633.852 206.983,634.597 209.219,634.597 210.71,633.852 212.2,632.361 " />
<polyline points="218.163,624.162 218.163,634.597 " />
<polyline points="218.163,628.634 218.909,626.398 220.399,624.908 221.89,624.162 224.126,624.162 " />
<polyline points="227.107,628.634 236.052,628.634 236.052,627.144 235.306,625.653 234.561,624.908 233.07,624.162 230.834,624.162 229.343,624.908 227.853,626.398 227.107,628.634 227.107,630.125 227.853,632.361 229.343,633.852 230.834,634.597 233.07,634.597 234.561,633.852 236.052,632.361 " />
<polyline points="249.468,624.162 249.468,634.597 " />
<polyline points="249.468,626.398 247.977,624.908 246.486,624.162 244.25,624.162 242.76,624.908 241.269,626.398 240.524,628.634 240.524,630.125 241.269,632.361 242.76,633.852 244.25,634.597 246.486,634.597 247.977,633.852 249.468,632.361 " />
<polyline points="256.921,633.852 256.176,634.597 255.431,633.852 256.176,633.106 256.921,633.852 256.921,635.343 256.176,636.833 255.431,637.579 " />
<polyline points="277.791,619.69 278.536,620.436 279.282,619.69 278.536,618.945 277.791,619.69 " />
<polyline points="278.536,624.908 278.536,634.597 " />
<polyline points="284.499,624.162 284.499,634.597 " />
<polyline points="284.499,627.144 286.735,624.908 288.226,624.162 290.462,624.162 291.953,624.908 292.698,627.144 292.698,634.597 " />
<polyline points="918.164,737.24 915.978,735.054 912.699,733.961 908.326,733.961 905.046,735.054 902.86,737.24 902.86,739.427 903.953,741.613 905.046,742.706 907.233,743.799 913.792,745.986 915.978,747.079 917.071,748.172 918.164,750.359 918.164,753.638 915.978,755.824 912.699,756.918 908.326,756.918 905.046,755.824 902.86,753.638 " />
<polyline points="925.817,733.961 925.817,756.918 " />
<polyline points="925.817,733.961 933.469,733.961 936.748,735.054 938.935,737.24 940.028,739.427 941.121,742.706 941.121,748.172 940.028,751.452 938.935,753.638 936.748,755.824 933.469,756.918 925.817,756.918 " />
<polyline points="962.985,733.961 952.053,756.918 " />
<polyline points="947.68,733.961 962.985,733.961 " />
<polyline points="970.637,747.079 990.314,747.079 " />
<polyline points="1011.08,733.961 1000.15,733.961 999.059,743.799 1000.15,742.706 1003.43,741.613 1006.71,741.613 1009.99,742.706 1012.18,744.893 1013.27,748.172 1013.27,750.359 1012.18,753.638 1009.99,755.824 1006.71,756.918 1003.43,756.918 1000.15,755.824 999.059,754.731 997.966,752.545 " />
<polyline points="756.279,188.472 386.102,188.472 " />
<polyline points="756.279,83.8289 386.102,83.8289 " />
<polyline points="579.298,136.139 532.979,136.139 " />
</g>
</svg>
