<?xml version="1.0" standalone="no"?>
<svg viewBox="0 0 1024 768" version="1.1" xmlns="http://www.w3.org/2000/svg" xmlns:xlink="http://www.w3.org/1999/xlink" stroke-linecap="round" stroke-linejoin="round" fill-rule="evenodd" xml:space="preserve" >
<defs >
<clipPath id="clipId0" >
<path d="M0,768 1024,768 1024,0 0,0 z" />
</clipPath>
</defs>
<g clip-path="url(#clipId0)" fill="none" stroke="rgb(0,0,0)" stroke-width="0.1" />
<g clip-path="url(#clipId0)" fill="none" stroke="rgb(0,0,0)" stroke-width="0.25" >
<polyline points="202.806,209.282 202.806,53.9645 " />
<path d="M202.806,53.9645  A25.8863,25.8863 0 0,0 228.693,79.8508 " />
<polyline points="641.168,138.001 585.871,138.001 " />
</g>
<g clip-path="url(#clipId0)" fill="rgb(0,0,0)" stroke="rgb(0,0,0)" stroke-width="0.25" >
<path d="M641.168,135.413 641.168,140.59 656.7,138.001 656.7,138.001 z" />
</g>
<g clip-path="url(#clipId0)" fill="none" stroke="rgb(0,0,0)" stroke-width="0.25" >
<polyline points="244.224,183.396 352.097,183.396 " />
<polyline points="244.224,79.8508 352.097,79.8508 " />
<path d="M228.693,183.396  A25.8863,25.8863 0 0,0 202.806,209.282 " />
<polyline points="352.097,115.574 331.884,115.574 " stroke-dasharray="0.000065,6.471582" />
<polyline points="352.097,147.673 331.884,147.673 " stroke-dasharray="0.000065,6.471582" />
<polyline points="331.884,147.673 331.884,115.574 " stroke-dasharray="0.000065,6.471582" />
<polyline points="336.542,115.574 336.542,79.8508 " stroke-dasharray="0.000065,6.471582" />
<polyline points="336.542,147.673 336.542,183.396 " stroke-dasharray="0.000065,6.471582" />
<polyline points="429.295,167.988 429.295,155.044 " />
<polyline points="429.295,95.5059 429.295,108.449 " />
</g>
<g clip-path="url(#clipId0)" fill="rgb(0,0,0)" stroke="rgb(0,0,0)" stroke-width="0.25" >
<path d="M431.883,167.988 426.706,167.988 429.295,183.519 429.295,183.519 z" />
<path d="M431.883,95.5059 426.706,95.5059 429.295,79.9741 429.295,79.9741 z" />
</g>
<g clip-path="url(#clipId0)" fill="none" stroke="rgb(0,0,0)" stroke-width="0.25" >
<polyline points="435.814,131.237 434.483,131.68 433.595,133.012 433.151,135.231 433.151,136.562 433.595,138.781 434.483,140.112 435.814,140.556 436.701,140.556 438.033,140.112 438.92,138.781 439.364,136.562 439.364,135.231 438.92,133.012 438.033,131.68 436.701,131.237 435.814,131.237 " />
<polyline points="419.306,120.685 419.306,136.217 " />
<polyline points="419.306,120.685 424.483,120.685 426.702,121.425 428.181,122.904 428.921,124.383 429.661,126.602 429.661,130.3 428.921,132.519 428.181,133.998 426.702,135.478 424.483,136.217 419.306,136.217 " />
<polyline points="780.27,188.573 780.27,74.6736 " />
<polyline points="925.125,79.8508 780.27,79.8508 " />
<polyline points="821.58,183.396 780.27,183.396 " />
<polyline points="821.58,183.396 821.58,224.706 " />
<polyline points="925.125,79.8508 925.125,224.706 " />
<polyline points="112.181,162.942 143.5,131.623 " />
<polyline points="112.181,100.305 143.5,131.623 " />
<polyline points="112.181,162.942 112.181,149.937 " />
<polyline points="88.5606,113.31 88.5606,149.937 " />
<polyline points="88.5606,149.937 112.181,149.937 " />
<polyline points="112.181,113.31 88.5606,113.31 " />
<polyline points="112.181,113.31 112.181,100.305 " />
<polyline points="769.915,198.928 769.915,64.319 " />
<polyline points="764.738,198.928 764.738,64.319 " />
<polyline points="769.915,198.928 764.738,198.928 " />
<polyline points="769.915,64.319 764.738,64.319 " />
<polyline points="780.27,188.573 769.915,188.573 " />
<polyline points="780.27,74.6736 769.915,74.6736 " />
<polyline points="930.303,224.706 930.303,235.061 " />
<polyline points="816.403,224.706 816.403,235.061 " />
<polyline points="940.657,235.061 940.657,240.238 " />
<polyline points="806.048,235.061 806.048,240.238 " />
<polyline points="806.048,240.238 940.657,240.238 " />
<polyline points="806.048,235.061 940.657,235.061 " />
<polyline points="816.403,224.706 930.303,224.706 " />
<polyline points="352.097,74.6736 362.451,74.6736 " />
<polyline points="352.097,188.573 362.451,188.573 " />
<polyline points="362.451,64.319 367.628,64.319 " />
<polyline points="362.451,198.928 367.628,198.928 " />
<polyline points="367.628,198.928 367.628,64.319 " />
<polyline points="362.451,198.928 362.451,64.319 " />
<polyline points="352.097,188.573 352.097,74.6736 " />
<polyline points="244.224,188.573 244.224,74.6736 " />
<polyline points="233.87,188.573 233.87,74.6736 " />
<polyline points="228.693,188.573 228.693,74.6736 " />
<polyline points="244.224,188.573 228.693,188.573 " />
<polyline points="244.224,74.6736 228.693,74.6736 " />
<path d="M275.064,23.7129  A30.4399,30.4399 0 0,0 275.064,62.5424 " />
<polyline points="321.953,23.7129 275.064,23.7129 " />
<polyline points="321.953,62.5424 275.064,62.5424 " />
<path d="M321.953,62.5424  A30.4399,30.4399 0 0,0 321.953,23.7129 " />
<polyline points="275.064,62.5424 275.064,23.7129 " />
<polyline points="321.953,62.5424 321.953,23.7129 " />
<polyline points="342.477,79.8508 352.097,115.574 " stroke-dasharray="0.000065,6.471582" />
<polyline points="342.477,183.396 352.097,147.673 " stroke-dasharray="0.000065,6.471582" />
<polyline points="268.179,40.539 264.331,40.539 " />
<polyline points="268.179,45.7163 264.331,45.7163 " />
<polyline points="264.331,35.3618 259.154,35.3618 " />
<polyline points="264.331,50.8936 263.037,50.8936 " />
<polyline points="264.331,35.3618 264.331,50.8936 " />
<polyline points="259.154,35.3618 259.154,50.8936 " />
<polyline points="259.154,123.858 259.154,139.389 " stroke-dasharray="0.000065,6.471582" />
<polyline points="264.331,123.858 264.331,139.389 " stroke-dasharray="0.000065,6.471582" />
<polyline points="264.331,139.389 259.154,139.389 " stroke-dasharray="0.000065,6.471582" />
<polyline points="264.331,123.858 263.037,123.858 " stroke-dasharray="0.000065,6.471582" />
<polyline points="331.884,134.212 264.331,134.212 " stroke-dasharray="0.000065,6.471582" />
<polyline points="331.884,129.035 264.331,129.035 " stroke-dasharray="0.000065,6.471582" />
<polyline points="260.448,139.389 260.448,79.8508 " stroke-dasharray="0.000065,6.471582" />
<polyline points="263.037,139.389 263.037,79.8508 " stroke-dasharray="0.000065,6.471582" />
<polyline points="260.448,123.858 259.154,123.858 " stroke-dasharray="0.000065,6.471582" />
<polyline points="260.448,50.8936 259.154,50.8936 " />
<polyline points="279.834,62.5424 279.834,79.8508 " />
<polyline points="317.183,62.5424 317.183,79.8508 " />
<polyline points="263.037,79.8508 263.037,35.3618 " />
<polyline points="260.448,79.8508 260.448,35.3618 " />
<polyline points="367.628,211.777 367.628,265.145 " />
<polyline points="764.738,211.777 764.738,265.145 " />
<polyline points="383.16,246.507 503.666,246.507 " />
<polyline points="749.206,246.507 543.605,246.507 " />
</g>
<g clip-path="url(#clipId0)" fill="rgb(0,0,0)" stroke="rgb(0,0,0)" stroke-width="0.25" >
<path d="M383.16,249.095 383.16,243.918 367.628,246.507 367.628,246.507 z" />
<path d="M749.206,249.095 749.206,243.918 764.738,246.507 764.738,246.507 z" />
</g>
<g clip-path="url(#clipId0)" fill="none" stroke="rgb(0,0,0)" stroke-width="0.25" >
<polyline points="522.157,238.741 522.157,254.273 531.032,254.273 " />
</g>
<g clip-path="url(#clipId0)" fill="rgb(0,0,0)" stroke="rgb(0,0,0)" stroke-width="0.25" >
<path d="M349.23,66.7138 344.5,64.6085 340.549,79.8508 340.549,79.8508 z" />
</g>
<g clip-path="url(#clipId0)" fill="none" stroke="rgb(0,0,0)" stroke-width="0.25" >
<polyline points="346.865,65.6611 369.283,15.2953 " />
<polyline points="369.283,15.2953 384.815,15.2953 " />
<polyline points="406.263,7.52941 406.263,23.0612 " />
<polyline points="401.086,7.52941 411.441,7.52941 " />
<polyline points="415.139,7.52941 415.139,18.6236 415.878,20.8424 417.357,22.3216 419.576,23.0612 421.056,23.0612 423.274,22.3216 424.754,20.8424 425.493,18.6236 425.493,7.52941 " />
<polyline points="431.41,7.52941 431.41,23.0612 " />
<polyline points="431.41,7.52941 438.067,7.52941 440.285,8.26902 441.025,9.00863 441.765,10.4878 441.765,11.9671 441.025,13.4463 440.285,14.1859 438.067,14.9255 " />
<polyline points="431.41,14.9255 438.067,14.9255 440.285,15.6651 441.025,16.4047 441.765,17.8839 441.765,20.1028 441.025,21.582 440.285,22.3216 438.067,23.0612 431.41,23.0612 " />
<polyline points="446.942,7.52941 446.942,23.0612 " />
<polyline points="446.942,7.52941 456.557,7.52941 " />
<polyline points="446.942,14.9255 452.859,14.9255 " />
<polyline points="446.942,23.0612 456.557,23.0612 " />
<polyline points="464.692,7.52941 458.776,23.0612 " />
<polyline points="464.692,7.52941 470.609,23.0612 " />
<polyline points="460.994,17.8839 468.391,17.8839 " />
<polyline points="473.568,7.52941 483.922,23.0612 " />
<polyline points="483.922,7.52941 473.568,23.0612 " />
<polyline points="489.1,7.52941 489.1,23.0612 " />
<polyline points="498.715,7.52941 492.798,23.0612 " />
<polyline points="498.715,7.52941 504.631,23.0612 " />
<polyline points="495.016,17.8839 502.413,17.8839 " />
<polyline points="508.329,7.52941 508.329,23.0612 517.205,23.0612 " />
<polyline points="536.435,7.52941 536.435,23.0612 " />
<polyline points="536.435,7.52941 546.05,7.52941 " />
<polyline points="536.435,14.9255 542.351,14.9255 " />
<polyline points="553.446,7.52941 547.529,23.0612 " />
<polyline points="553.446,7.52941 559.362,23.0612 " />
<polyline points="549.748,17.8839 557.144,17.8839 " />
<polyline points="563.061,7.52941 563.061,23.0612 " />
<polyline points="563.061,7.52941 573.415,23.0612 " />
<polyline points="573.415,7.52941 573.415,23.0612 " />
<polyline points="821.58,183.396 925.125,79.8508 " />
<polyline points="568.344,111.006 566.865,111.746 565.386,113.225 564.646,114.704 563.907,116.923 563.907,120.621 564.646,122.84 565.386,124.319 566.865,125.799 568.344,126.538 571.303,126.538 572.782,125.799 574.261,124.319 575.001,122.84 575.741,120.621 575.741,116.923 575.001,114.704 574.261,113.225 572.782,111.746 571.303,111.006 568.344,111.006 " />
<polyline points="570.563,123.58 575.001,128.017 " />
<polyline points="803.955,434.415 810.464,434.415 810.464,433.33 809.921,432.245 809.379,431.703 808.294,431.16 806.667,431.16 805.582,431.703 804.497,432.788 803.955,434.415 803.955,435.499 804.497,437.127 805.582,438.211 806.667,438.754 808.294,438.754 809.379,438.211 810.464,437.127 " />
<polyline points="803.918,394.793 810.427,394.793 810.427,393.709 809.885,392.624 809.342,392.082 808.257,391.539 806.63,391.539 805.546,392.082 804.461,393.166 803.918,394.793 803.918,395.878 804.461,397.505 805.546,398.59 806.63,399.132 808.257,399.132 809.342,398.59 810.427,397.505 " />
<polyline points="663.246,627.365 661.914,627.809 661.027,629.14 660.583,631.359 660.583,632.69 661.027,634.909 661.914,636.24 663.246,636.684 664.133,636.684 665.464,636.24 666.352,634.909 666.796,632.69 666.796,631.359 666.352,629.14 665.464,627.809 664.133,627.365 663.246,627.365 " />
<polyline points="649.554,617.182 643.637,632.714 " />
<polyline points="649.554,617.182 655.471,632.714 " />
<polyline points="645.856,627.537 653.252,627.537 " />
<polyline points="645.856,577.387 645.856,592.918 654.731,592.918 " />
<polyline points="643.637,537.591 649.554,553.123 " />
<polyline points="655.471,537.591 649.554,553.123 " />
<polyline points="598.963,419.733 604.88,435.265 " />
<polyline points="610.796,419.733 604.88,435.265 " />
<polyline points="598.963,379.937 604.88,395.469 " />
<polyline points="610.796,379.937 604.88,395.469 " />
<polyline points="660.879,592.371 667.387,592.371 667.387,591.287 666.845,590.202 666.303,589.66 665.218,589.117 663.591,589.117 662.506,589.66 661.421,590.744 660.879,592.371 660.879,593.456 661.421,595.083 662.506,596.168 663.591,596.711 665.218,596.711 666.303,596.168 667.387,595.083 " />
<polyline points="868.874,411.522 894.653,411.522 " />
<polyline points="898.141,371.094 922.447,371.094 " />
<polyline points="659.574,547.987 658.243,548.431 657.355,549.762 656.911,551.981 656.911,553.312 657.355,555.531 658.243,556.862 659.574,557.306 660.461,557.306 661.793,556.862 662.68,555.531 663.124,553.312 663.124,551.981 662.68,549.762 661.793,548.431 660.461,547.987 659.574,547.987 " />
<polyline points="885.522,429.435 884.19,429.878 883.303,431.21 882.859,433.429 882.859,434.76 883.303,436.979 884.19,438.31 885.522,438.754 886.409,438.754 887.741,438.31 888.628,436.979 889.072,434.76 889.072,433.429 888.628,431.21 887.741,429.878 886.409,429.435 885.522,429.435 " />
<polyline points="866.341,389.813 865.009,390.257 864.122,391.588 863.678,393.807 863.678,395.139 864.122,397.357 865.009,398.689 866.341,399.132 867.228,399.132 868.56,398.689 869.447,397.357 869.891,395.139 869.891,393.807 869.447,391.588 868.56,390.257 867.228,389.813 866.341,389.813 " />
<polyline points="913.678,389.813 912.346,390.257 911.459,391.588 911.015,393.807 911.015,395.139 911.459,397.357 912.346,398.689 913.678,399.132 914.565,399.132 915.896,398.689 916.784,397.357 917.228,395.139 917.228,393.807 916.784,391.588 915.896,390.257 914.565,389.813 913.678,389.813 " />
<polyline points="614.159,430.552 612.828,430.996 611.94,432.327 611.496,434.546 611.496,435.877 611.94,438.096 612.828,439.427 614.159,439.871 615.047,439.871 616.378,439.427 617.265,438.096 617.709,435.877 617.709,434.546 617.265,432.327 616.378,430.996 615.047,430.552 614.159,430.552 " />
<polyline points="615.64,389.287 614.308,389.73 613.421,391.062 612.977,393.28 612.977,394.612 613.421,396.831 614.308,398.162 615.64,398.606 616.527,398.606 617.858,398.162 618.746,396.831 619.19,394.612 619.19,393.28 618.746,391.062 617.858,389.73 616.527,389.287 615.64,389.287 " />
<polyline points="635.008,437.457 648.42,437.457 " />
<polyline points="846.743,425.709 850.441,425.709 857.098,434.585 " />
<polyline points="849.702,426.449 857.098,436.064 " />
<polyline points="868.932,411.657 857.098,436.064 " />
<polyline points="876.098,385.993 879.796,385.993 886.452,394.868 " />
<polyline points="879.056,386.732 886.452,396.347 " />
<polyline points="898.286,371.94 886.452,396.347 " />
<polyline points="682.336,623.839 695.649,623.839 " />
<polyline points="682.336,628.276 695.649,628.276 " />
<polyline points="725.233,617.182 725.233,632.714 " />
<polyline points="725.233,624.578 723.754,623.099 722.274,622.36 720.056,622.36 718.576,623.099 717.097,624.578 716.358,626.797 716.358,628.276 717.097,630.495 718.576,631.974 720.056,632.714 722.274,632.714 723.754,631.974 725.233,630.495 " />
<polyline points="731.15,622.36 731.15,629.756 731.889,631.974 733.369,632.714 735.587,632.714 737.067,631.974 739.285,629.756 " />
<polyline points="739.285,622.36 739.285,632.714 " />
<polyline points="753.338,624.578 751.859,623.099 750.38,622.36 748.161,622.36 746.682,623.099 745.202,624.578 744.463,626.797 744.463,628.276 745.202,630.495 746.682,631.974 748.161,632.714 750.38,632.714 751.859,631.974 753.338,630.495 " />
<polyline points="759.255,617.182 759.255,629.756 759.995,631.974 761.474,632.714 762.953,632.714 " />
<polyline points="757.036,622.36 762.213,622.36 " />
<polyline points="791.058,622.36 791.058,632.714 " />
<polyline points="791.058,624.578 789.579,623.099 788.1,622.36 785.881,622.36 784.402,623.099 782.922,624.578 782.183,626.797 782.183,628.276 782.922,630.495 784.402,631.974 785.881,632.714 788.1,632.714 789.579,631.974 791.058,630.495 " />
<polyline points="796.975,622.36 796.975,632.714 " />
<polyline points="796.975,626.797 797.715,624.578 799.194,623.099 800.673,622.36 802.892,622.36 " />
<polyline points="805.85,626.797 814.726,626.797 814.726,625.318 813.986,623.839 813.246,623.099 811.767,622.36 809.548,622.36 808.069,623.099 806.59,624.578 805.85,626.797 805.85,628.276 806.59,630.495 808.069,631.974 809.548,632.714 811.767,632.714 813.246,631.974 814.726,630.495 " />
<polyline points="828.039,622.36 828.039,632.714 " />
<polyline points="828.039,624.578 826.559,623.099 825.08,622.36 822.861,622.36 821.382,623.099 819.903,624.578 819.163,626.797 819.163,628.276 819.903,630.495 821.382,631.974 822.861,632.714 825.08,632.714 826.559,631.974 828.039,630.495 " />
<polyline points="835.435,631.974 834.695,632.714 833.955,631.974 834.695,631.235 835.435,631.974 835.435,633.454 834.695,634.933 833.955,635.673 " />
<polyline points="856.883,622.36 856.883,632.714 " />
<polyline points="856.883,625.318 859.102,623.099 860.581,622.36 862.8,622.36 864.279,623.099 865.019,625.318 865.019,632.714 " />
<polyline points="865.019,625.318 867.238,623.099 868.717,622.36 870.936,622.36 872.415,623.099 873.155,625.318 873.155,632.714 " />
<polyline points="879.072,622.36 879.072,632.714 " />
<polyline points="879.072,625.318 881.29,623.099 882.77,622.36 884.989,622.36 886.468,623.099 887.207,625.318 887.207,632.714 " />
<polyline points="887.207,625.318 889.426,623.099 890.905,622.36 893.124,622.36 894.603,623.099 895.343,625.318 895.343,632.714 " />
<polyline points="682.336,584.043 695.649,584.043 " />
<polyline points="682.336,588.481 695.649,588.481 " />
<polyline points="716.358,587.002 725.233,587.002 725.233,585.522 724.493,584.043 723.754,583.303 722.274,582.564 720.056,582.564 718.576,583.303 717.097,584.783 716.358,587.002 716.358,588.481 717.097,590.7 718.576,592.179 720.056,592.918 722.274,592.918 723.754,592.179 725.233,590.7 " />
<polyline points="734.848,577.387 733.369,577.387 731.889,578.126 731.15,580.345 731.15,592.918 " />
<polyline points="728.931,582.564 734.108,582.564 " />
<polyline points="743.723,577.387 742.244,577.387 740.765,578.126 740.025,580.345 740.025,592.918 " />
<polyline points="737.806,582.564 742.984,582.564 " />
<polyline points="747.421,587.002 756.296,587.002 756.296,585.522 755.557,584.043 754.817,583.303 753.338,582.564 751.119,582.564 749.64,583.303 748.161,584.783 747.421,587.002 747.421,588.481 748.161,590.7 749.64,592.179 751.119,592.918 753.338,592.918 754.817,592.179 756.296,590.7 " />
<polyline points="769.609,584.783 768.13,583.303 766.651,582.564 764.432,582.564 762.953,583.303 761.474,584.783 760.734,587.002 760.734,588.481 761.474,590.7 762.953,592.179 764.432,592.918 766.651,592.918 768.13,592.179 769.609,590.7 " />
<polyline points="775.526,577.387 775.526,589.96 776.266,592.179 777.745,592.918 779.224,592.918 " />
<polyline points="773.308,582.564 778.485,582.564 " />
<polyline points="782.922,578.126 783.662,578.866 784.402,578.126 783.662,577.387 782.922,578.126 " />
<polyline points="783.662,583.303 783.662,592.918 " />
<polyline points="788.1,582.564 792.537,592.918 " />
<polyline points="796.975,582.564 792.537,592.918 " />
<polyline points="800.673,587.002 809.548,587.002 809.548,585.522 808.809,584.043 808.069,583.303 806.59,582.564 804.371,582.564 802.892,583.303 801.413,584.783 800.673,587.002 800.673,588.481 801.413,590.7 802.892,592.179 804.371,592.918 806.59,592.918 808.069,592.179 809.548,590.7 " />
<polyline points="838.393,577.387 838.393,592.918 " />
<polyline points="838.393,584.783 836.914,583.303 835.435,582.564 833.216,582.564 831.737,583.303 830.257,584.783 829.518,587.002 829.518,588.481 830.257,590.7 831.737,592.179 833.216,592.918 835.435,592.918 836.914,592.179 838.393,590.7 " />
<polyline points="844.31,582.564 844.31,589.96 845.05,592.179 846.529,592.918 848.748,592.918 850.227,592.179 852.446,589.96 " />
<polyline points="852.446,582.564 852.446,592.918 " />
<polyline points="866.498,584.783 865.019,583.303 863.54,582.564 861.321,582.564 859.842,583.303 858.363,584.783 857.623,587.002 857.623,588.481 858.363,590.7 859.842,592.179 861.321,592.918 863.54,592.918 865.019,592.179 866.498,590.7 " />
<polyline points="872.415,577.387 872.415,589.96 873.155,592.179 874.634,592.918 876.113,592.918 " />
<polyline points="870.196,582.564 875.374,582.564 " />
<polyline points="896.083,577.387 896.083,592.918 " />
<polyline points="901.26,587.002 910.135,587.002 910.135,585.522 909.396,584.043 908.656,583.303 907.177,582.564 904.958,582.564 903.479,583.303 902,584.783 901.26,587.002 901.26,588.481 902,590.7 903.479,592.179 904.958,592.918 907.177,592.918 908.656,592.179 910.135,590.7 " />
<polyline points="915.313,582.564 915.313,592.918 " />
<polyline points="915.313,585.522 917.531,583.303 919.011,582.564 921.229,582.564 922.709,583.303 923.448,585.522 923.448,592.918 " />
<polyline points="937.501,582.564 937.501,594.398 936.761,596.616 936.022,597.356 934.542,598.096 932.324,598.096 930.844,597.356 " />
<polyline points="937.501,584.783 936.022,583.303 934.542,582.564 932.324,582.564 930.844,583.303 929.365,584.783 928.625,587.002 928.625,588.481 929.365,590.7 930.844,592.179 932.324,592.918 934.542,592.918 936.022,592.179 937.501,590.7 " />
<polyline points="944.157,577.387 944.157,589.96 944.897,592.179 946.376,592.918 947.855,592.918 " />
<polyline points="941.938,582.564 947.116,582.564 " />
<polyline points="952.293,577.387 952.293,592.918 " />
<polyline points="952.293,585.522 954.512,583.303 955.991,582.564 958.21,582.564 959.689,583.303 960.429,585.522 960.429,592.918 " />
<polyline points="967.825,592.179 967.085,592.918 966.346,592.179 967.085,591.439 967.825,592.179 967.825,593.658 967.085,595.137 966.346,595.877 " />
<polyline points="989.273,582.564 989.273,592.918 " />
<polyline points="989.273,585.522 991.492,583.303 992.971,582.564 995.19,582.564 996.67,583.303 997.409,585.522 997.409,592.918 " />
<polyline points="997.409,585.522 999.628,583.303 1001.11,582.564 1003.33,582.564 1004.81,583.303 1005.54,585.522 1005.54,592.918 " />
<polyline points="682.336,544.247 695.649,544.247 " />
<polyline points="682.336,548.685 695.649,548.685 " />
<polyline points="725.233,537.591 725.233,553.123 " />
<polyline points="725.233,544.987 723.754,543.508 722.274,542.768 720.056,542.768 718.576,543.508 717.097,544.987 716.358,547.206 716.358,548.685 717.097,550.904 718.576,552.383 720.056,553.123 722.274,553.123 723.754,552.383 725.233,550.904 " />
<polyline points="731.15,542.768 731.15,550.164 731.889,552.383 733.369,553.123 735.587,553.123 737.067,552.383 739.285,550.164 " />
<polyline points="739.285,542.768 739.285,553.123 " />
<polyline points="753.338,544.987 751.859,543.508 750.38,542.768 748.161,542.768 746.682,543.508 745.202,544.987 744.463,547.206 744.463,548.685 745.202,550.904 746.682,552.383 748.161,553.123 750.38,553.123 751.859,552.383 753.338,550.904 " />
<polyline points="759.255,537.591 759.255,550.164 759.995,552.383 761.474,553.123 762.953,553.123 " />
<polyline points="757.036,542.768 762.213,542.768 " />
<polyline points="781.443,542.768 785.881,553.123 " />
<polyline points="790.319,542.768 785.881,553.123 " />
<polyline points="794.017,547.206 802.892,547.206 802.892,545.727 802.152,544.247 801.413,543.508 799.933,542.768 797.715,542.768 796.235,543.508 794.756,544.987 794.017,547.206 794.017,548.685 794.756,550.904 796.235,552.383 797.715,553.123 799.933,553.123 801.413,552.383 802.892,550.904 " />
<polyline points="808.069,537.591 808.069,553.123 " />
<polyline points="816.944,542.768 815.465,543.508 813.986,544.987 813.246,547.206 813.246,548.685 813.986,550.904 815.465,552.383 816.944,553.123 819.163,553.123 820.643,552.383 822.122,550.904 822.861,548.685 822.861,547.206 822.122,544.987 820.643,543.508 819.163,542.768 816.944,542.768 " />
<polyline points="836.174,544.987 834.695,543.508 833.216,542.768 830.997,542.768 829.518,543.508 828.039,544.987 827.299,547.206 827.299,548.685 828.039,550.904 829.518,552.383 830.997,553.123 833.216,553.123 834.695,552.383 836.174,550.904 " />
<polyline points="840.612,538.331 841.352,539.07 842.091,538.331 841.352,537.591 840.612,538.331 " />
<polyline points="841.352,543.508 841.352,553.123 " />
<polyline points="848.008,537.591 848.008,550.164 848.748,552.383 850.227,553.123 851.706,553.123 " />
<polyline points="845.789,542.768 850.966,542.768 " />
<polyline points="854.665,542.768 859.102,553.123 " />
<polyline points="863.54,542.768 859.102,553.123 857.623,556.081 856.144,557.56 854.665,558.3 853.925,558.3 " />
<polyline points="869.457,552.383 868.717,553.123 867.978,552.383 868.717,551.643 869.457,552.383 869.457,553.862 868.717,555.342 867.978,556.081 " />
<polyline points="890.905,542.768 890.905,553.123 " />
<polyline points="890.905,545.727 893.124,543.508 894.603,542.768 896.822,542.768 898.301,543.508 899.041,545.727 899.041,553.123 " />
<polyline points="899.041,545.727 901.26,543.508 902.739,542.768 904.958,542.768 906.437,543.508 907.177,545.727 907.177,553.123 " />
<polyline points="924.927,534.632 911.614,558.3 " />
<polyline points="936.761,544.987 936.022,543.508 933.803,542.768 931.584,542.768 929.365,543.508 928.625,544.987 929.365,546.466 930.844,547.206 934.542,547.945 936.022,548.685 936.761,550.164 936.761,550.904 936.022,552.383 933.803,553.123 931.584,553.123 929.365,552.383 928.625,550.904 " />
<polyline points="597.714,502.973 600.672,513.327 " />
<polyline points="603.631,502.973 600.672,513.327 " />
<polyline points="603.631,502.973 606.589,513.327 " />
<polyline points="609.548,502.973 606.589,513.327 " />
<polyline points="614.725,497.795 614.725,513.327 " />
<polyline points="614.725,505.931 616.944,503.712 618.423,502.973 620.642,502.973 622.121,503.712 622.861,505.931 622.861,513.327 " />
<polyline points="628.038,507.41 636.913,507.41 636.913,505.931 636.174,504.452 635.434,503.712 633.955,502.973 631.736,502.973 630.257,503.712 628.778,505.191 628.038,507.41 628.038,508.889 628.778,511.108 630.257,512.587 631.736,513.327 633.955,513.327 635.434,512.587 636.913,511.108 " />
<polyline points="642.091,502.973 642.091,513.327 " />
<polyline points="642.091,507.41 642.83,505.191 644.309,503.712 645.789,502.973 648.007,502.973 " />
<polyline points="650.966,507.41 659.841,507.41 659.841,505.931 659.102,504.452 658.362,503.712 656.883,502.973 654.664,502.973 653.185,503.712 651.706,505.191 650.966,507.41 650.966,508.889 651.706,511.108 653.185,512.587 654.664,513.327 656.883,513.327 658.362,512.587 659.841,511.108 " />
<polyline points="649.495,421.952 637.661,428.608 649.495,435.265 " />
<polyline points="672.423,422.691 673.902,421.952 676.121,419.733 676.121,435.265 " />
<polyline points="686.475,419.733 694.611,419.733 690.173,425.65 692.392,425.65 693.871,426.389 694.611,427.129 695.35,429.348 695.35,430.827 694.611,433.046 693.132,434.525 690.913,435.265 688.694,435.265 686.475,434.525 685.735,433.785 684.996,432.306 " />
<polyline points="716.059,424.91 716.059,435.265 " />
<polyline points="716.059,427.869 718.278,425.65 719.758,424.91 721.976,424.91 723.456,425.65 724.195,427.869 724.195,435.265 " />
<polyline points="724.195,427.869 726.414,425.65 727.893,424.91 730.112,424.91 731.591,425.65 732.331,427.869 732.331,435.265 " />
<polyline points="750.082,416.774 736.769,440.442 " />
<polyline points="761.915,427.129 761.176,425.65 758.957,424.91 756.738,424.91 754.519,425.65 753.78,427.129 754.519,428.608 755.998,429.348 759.696,430.087 761.176,430.827 761.915,432.306 761.915,433.046 761.176,434.525 758.957,435.265 756.738,435.265 754.519,434.525 753.78,433.046 " />
<polyline points="767.832,424.91 767.093,425.65 767.832,426.389 768.572,425.65 767.832,424.91 " />
<polyline points="767.832,433.785 767.093,434.525 767.832,435.265 768.572,434.525 767.832,433.785 " />
<polyline points="790.02,419.733 790.02,435.265 798.896,435.265 " />
<polyline points="818.126,426.389 831.439,426.389 " />
<polyline points="818.126,430.827 831.439,430.827 " />
<polyline points="872.117,419.733 866.2,435.265 " />
<polyline points="872.117,419.733 878.034,435.265 " />
<polyline points="868.419,430.087 875.815,430.087 " />
<polyline points="909.098,416.774 895.785,440.442 " />
<polyline points="914.275,419.733 922.41,419.733 917.973,425.65 920.192,425.65 921.671,426.389 922.41,427.129 923.15,429.348 923.15,430.827 922.41,433.046 920.931,434.525 918.712,435.265 916.494,435.265 914.275,434.525 913.535,433.785 912.796,432.306 " />
<polyline points="936.463,419.733 929.067,419.733 928.327,426.389 929.067,425.65 931.286,424.91 933.505,424.91 935.723,425.65 937.203,427.129 937.942,429.348 937.942,430.827 937.203,433.046 935.723,434.525 933.505,435.265 931.286,435.265 929.067,434.525 928.327,433.785 927.588,432.306 " />
<polyline points="946.818,419.733 944.599,420.472 943.12,422.691 942.38,426.389 942.38,428.608 943.12,432.306 944.599,434.525 946.818,435.265 948.297,435.265 950.516,434.525 951.995,432.306 952.734,428.608 952.734,426.389 951.995,422.691 950.516,420.472 948.297,419.733 946.818,419.733 " />
<polyline points="637.661,382.156 649.495,388.812 637.661,395.469 " />
<polyline points="672.423,382.896 673.902,382.156 676.121,379.937 676.121,395.469 " />
<polyline points="686.475,379.937 694.611,379.937 690.173,385.854 692.392,385.854 693.871,386.594 694.611,387.333 695.35,389.552 695.35,391.031 694.611,393.25 693.132,394.729 690.913,395.469 688.694,395.469 686.475,394.729 685.735,393.99 684.996,392.51 " />
<polyline points="716.059,385.114 716.059,395.469 " />
<polyline points="716.059,388.073 718.278,385.854 719.758,385.114 721.976,385.114 723.456,385.854 724.195,388.073 724.195,395.469 " />
<polyline points="724.195,388.073 726.414,385.854 727.893,385.114 730.112,385.114 731.591,385.854 732.331,388.073 732.331,395.469 " />
<polyline points="750.082,376.979 736.769,400.646 " />
<polyline points="761.915,387.333 761.176,385.854 758.957,385.114 756.738,385.114 754.519,385.854 753.78,387.333 754.519,388.812 755.998,389.552 759.696,390.292 761.176,391.031 761.915,392.51 761.915,393.25 761.176,394.729 758.957,395.469 756.738,395.469 754.519,394.729 753.78,393.25 " />
<polyline points="767.832,385.114 767.093,385.854 767.832,386.594 768.572,385.854 767.832,385.114 " />
<polyline points="767.832,393.99 767.093,394.729 767.832,395.469 768.572,394.729 767.832,393.99 " />
<polyline points="790.02,379.937 790.02,395.469 798.896,395.469 " />
<polyline points="818.126,386.594 831.439,386.594 " />
<polyline points="818.126,391.031 831.439,391.031 " />
<polyline points="850.668,379.937 856.585,395.469 " />
<polyline points="862.502,379.937 856.585,395.469 " />
<polyline points="900.962,379.937 895.045,395.469 " />
<polyline points="900.962,379.937 906.879,395.469 " />
<polyline points="897.264,390.292 904.66,390.292 " />
<polyline points="937.942,376.979 924.629,400.646 " />
<polyline points="949.036,379.937 941.64,390.292 952.734,390.292 " />
<polyline points="949.036,379.937 949.036,395.469 " />
<polyline points="958.651,394.729 957.912,395.469 957.172,394.729 957.912,393.99 958.651,394.729 958.651,396.209 957.912,397.688 957.172,398.427 " />
<polyline points="972.704,379.937 965.308,379.937 964.568,386.594 965.308,385.854 967.527,385.114 969.745,385.114 971.964,385.854 973.444,387.333 974.183,389.552 974.183,391.031 973.444,393.25 971.964,394.729 969.745,395.469 967.527,395.469 965.308,394.729 964.568,393.99 963.829,392.51 " />
<polyline points="983.058,379.937 980.84,380.677 979.36,382.896 978.621,386.594 978.621,388.812 979.36,392.51 980.84,394.729 983.058,395.469 984.538,395.469 986.757,394.729 988.236,392.51 988.975,388.812 988.975,386.594 988.236,382.896 986.757,380.677 984.538,379.937 983.058,379.937 " />
<polyline points="997.851,379.937 995.632,380.677 994.153,382.896 993.413,386.594 993.413,388.812 994.153,392.51 995.632,394.729 997.851,395.469 999.33,395.469 1001.55,394.729 1003.03,392.51 1003.77,388.812 1003.77,386.594 1003.03,382.896 1001.55,380.677 999.33,379.937 997.851,379.937 " />
<polyline points="904.171,616.608 904.171,616.164 904.615,615.277 905.059,614.833 905.946,614.389 907.721,614.389 908.609,614.833 909.053,615.277 909.496,616.164 909.496,617.052 909.053,617.939 908.165,619.271 903.727,623.708 909.94,623.708 " />
<polyline points="302.892,390.02 301.56,390.463 300.673,391.795 300.229,394.013 300.229,395.345 300.673,397.564 301.56,398.895 302.892,399.339 303.779,399.339 305.11,398.895 305.998,397.564 306.442,395.345 306.442,394.013 305.998,391.795 305.11,390.463 303.779,390.02 302.892,390.02 " />
<polyline points="17.0125,503.802 19.9709,514.156 " />
<polyline points="22.9294,503.802 19.9709,514.156 " />
<polyline points="22.9294,503.802 25.8878,514.156 " />
<polyline points="28.8463,503.802 25.8878,514.156 " />
<polyline points="34.0235,498.624 34.0235,514.156 " />
<polyline points="34.0235,506.76 36.2424,504.541 37.7216,503.802 39.9404,503.802 41.4196,504.541 42.1592,506.76 42.1592,514.156 " />
<polyline points="47.3365,508.239 56.2118,508.239 56.2118,506.76 55.4722,505.281 54.7326,504.541 53.2534,503.802 51.0345,503.802 49.5553,504.541 48.0761,506.02 47.3365,508.239 47.3365,509.718 48.0761,511.937 49.5553,513.416 51.0345,514.156 53.2534,514.156 54.7326,513.416 56.2118,511.937 " />
<polyline points="61.3891,503.802 61.3891,514.156 " />
<polyline points="61.3891,508.239 62.1287,506.02 63.6079,504.541 65.0871,503.802 67.3059,503.802 " />
<polyline points="70.2644,508.239 79.1397,508.239 79.1397,506.76 78.4001,505.281 77.6605,504.541 76.1813,503.802 73.9624,503.802 72.4832,504.541 71.004,506.02 70.2644,508.239 70.2644,509.718 71.004,511.937 72.4832,513.416 73.9624,514.156 76.1813,514.156 77.6605,513.416 79.1397,511.937 " />
<polyline points="56.6137,439.627 68.5905,439.627 " />
<polyline points="17.8614,419.733 23.7783,435.265 " />
<polyline points="29.6952,419.733 23.7783,435.265 " />
<polyline points="33.6741,429.145 32.3428,429.589 31.4553,430.92 31.0115,433.139 31.0115,434.47 31.4553,436.689 32.3428,438.02 33.6741,438.464 34.5617,438.464 35.893,438.02 36.7805,436.689 37.2243,434.47 37.2243,433.139 36.7805,430.92 35.893,429.589 34.5617,429.145 33.6741,429.145 " />
<polyline points="68.3934,421.952 56.5596,428.608 68.3934,435.265 " />
<polyline points="89.842,423.431 89.842,422.691 90.5816,421.212 91.3212,420.472 92.8005,419.733 95.7589,419.733 97.2381,420.472 97.9777,421.212 98.7173,422.691 98.7173,424.17 97.9777,425.65 96.4985,427.869 89.1024,435.265 99.4569,435.265 " />
<polyline points="112.77,419.733 105.374,419.733 104.634,426.389 105.374,425.65 107.593,424.91 109.811,424.91 112.03,425.65 113.51,427.129 114.249,429.348 114.249,430.827 113.51,433.046 112.03,434.525 109.811,435.265 107.593,435.265 105.374,434.525 104.634,433.785 103.895,432.306 " />
<polyline points="123.124,419.733 120.906,420.472 119.426,422.691 118.687,426.389 118.687,428.608 119.426,432.306 120.906,434.525 123.124,435.265 124.604,435.265 126.822,434.525 128.302,432.306 129.041,428.608 129.041,426.389 128.302,422.691 126.822,420.472 124.604,419.733 123.124,419.733 " />
<polyline points="137.917,419.733 135.698,420.472 134.219,422.691 133.479,426.389 133.479,428.608 134.219,432.306 135.698,434.525 137.917,435.265 139.396,435.265 141.615,434.525 143.094,432.306 143.834,428.608 143.834,426.389 143.094,422.691 141.615,420.472 139.396,419.733 137.917,419.733 " />
<polyline points="168.98,419.733 167.501,419.733 166.022,420.472 165.282,422.691 165.282,435.265 " />
<polyline points="163.063,424.91 168.241,424.91 " />
<polyline points="173.418,424.91 173.418,440.442 " />
<polyline points="173.418,427.129 174.897,425.65 176.376,424.91 178.595,424.91 180.074,425.65 181.554,427.129 182.293,429.348 182.293,430.827 181.554,433.046 180.074,434.525 178.595,435.265 176.376,435.265 174.897,434.525 173.418,433.046 " />
<polyline points="187.47,424.91 187.47,435.265 " />
<polyline points="187.47,427.869 189.689,425.65 191.169,424.91 193.387,424.91 194.867,425.65 195.606,427.869 195.606,435.265 " />
<polyline points="195.606,427.869 197.825,425.65 199.304,424.91 201.523,424.91 203.002,425.65 203.742,427.869 203.742,435.265 " />
<polyline points="210.398,424.91 209.659,425.65 210.398,426.389 211.138,425.65 210.398,424.91 " />
<polyline points="210.398,433.785 209.659,434.525 210.398,435.265 211.138,434.525 210.398,433.785 " />
<polyline points="254.819,426.389 268.132,426.389 " />
<polyline points="254.819,430.827 268.132,430.827 " />
<polyline points="238.404,436.714 244.913,436.714 244.913,435.629 244.37,434.545 243.828,434.002 242.743,433.46 241.116,433.46 240.031,434.002 238.946,435.087 238.404,436.714 238.404,437.799 238.946,439.426 240.031,440.511 241.116,441.053 242.743,441.053 243.828,440.511 244.913,439.426 " />
<polyline points="223.794,420.048 223.794,435.58 232.669,435.58 " />
<polyline points="326.533,429.596 325.202,430.039 324.314,431.371 323.87,433.59 323.87,434.921 324.314,437.14 325.202,438.471 326.533,438.915 327.421,438.915 328.752,438.471 329.639,437.14 330.083,434.921 330.083,433.59 329.639,431.371 328.752,430.039 327.421,429.596 326.533,429.596 " />
<polyline points="313.254,420.048 307.338,435.58 " />
<polyline points="313.254,420.048 319.171,435.58 " />
<polyline points="309.556,430.402 316.952,430.402 " />
<polyline points="286.847,434.652 291.125,428.434 " />
<polyline points="291.125,428.434 296.258,442.114 " />
<polyline points="296.258,442.114 303.101,415.998 " />
<polyline points="303.101,415.998 331.333,415.998 " />
<polyline points="352.829,417.089 339.517,440.757 " />
<polyline points="363.924,420.048 356.528,430.402 367.622,430.402 " />
<polyline points="363.924,420.048 363.924,435.58 " />
<polyline points="372.799,434.101 372.059,434.84 372.799,435.58 373.539,434.84 372.799,434.101 " />
<polyline points="380.195,420.048 388.331,420.048 383.893,425.965 386.112,425.965 387.591,426.704 388.331,427.444 389.07,429.663 389.07,431.142 388.331,433.361 386.852,434.84 384.633,435.58 382.414,435.58 380.195,434.84 379.455,434.101 378.716,432.621 " />
<polyline points="378.426,377.294 365.113,400.961 " />
<polyline points="384.343,383.211 385.822,382.471 388.041,380.252 388.041,395.784 " />
<polyline points="401.354,380.252 399.135,380.992 397.656,383.211 396.916,386.909 396.916,389.128 397.656,392.826 399.135,395.044 401.354,395.784 402.833,395.784 405.052,395.044 406.531,392.826 407.271,389.128 407.271,386.909 406.531,383.211 405.052,380.992 402.833,380.252 401.354,380.252 " />
<polyline points="413.927,395.044 413.188,395.784 412.448,395.044 413.188,394.305 413.927,395.044 413.927,396.524 413.188,398.003 412.448,398.742 " />
<polyline points="428.719,382.471 427.98,380.992 425.761,380.252 424.282,380.252 422.063,380.992 420.584,383.211 419.844,386.909 419.844,390.607 420.584,393.565 422.063,395.044 424.282,395.784 425.021,395.784 427.24,395.044 428.719,393.565 429.459,391.346 429.459,390.607 428.719,388.388 427.24,386.909 425.021,386.169 424.282,386.169 422.063,386.909 420.584,388.388 419.844,390.607 " />
<polyline points="438.334,380.252 436.116,380.992 434.636,383.211 433.897,386.909 433.897,389.128 434.636,392.826 436.116,395.044 438.334,395.784 439.814,395.784 442.032,395.044 443.512,392.826 444.251,389.128 444.251,386.909 443.512,383.211 442.032,380.992 439.814,380.252 438.334,380.252 " />
<polyline points="453.127,380.252 450.908,380.992 449.429,383.211 448.689,386.909 448.689,389.128 449.429,392.826 450.908,395.044 453.127,395.784 454.606,395.784 456.825,395.044 458.304,392.826 459.043,389.128 459.043,386.909 458.304,383.211 456.825,380.992 454.606,380.252 453.127,380.252 " />
<polyline points="329.233,376.202 357.464,376.202 " />
<polyline points="322.389,402.318 329.233,376.202 " />
<polyline points="317.256,388.638 322.389,402.318 " />
<polyline points="312.978,394.856 317.256,388.638 " />
<polyline points="339.386,380.252 333.469,395.784 " />
<polyline points="339.386,380.252 345.302,395.784 " />
<polyline points="335.688,390.607 343.084,390.607 " />
<polyline points="352.664,389.8 351.333,390.244 350.445,391.575 350.002,393.794 350.002,395.125 350.445,397.344 351.333,398.675 352.664,399.119 353.552,399.119 354.883,398.675 355.771,397.344 356.214,395.125 356.214,393.794 355.771,391.575 354.883,390.244 353.552,389.8 352.664,389.8 " />
<polyline points="223.794,380.252 223.794,395.784 232.669,395.784 " />
<polyline points="237.869,395.315 244.378,395.315 244.378,394.23 243.836,393.145 243.293,392.603 242.208,392.06 240.581,392.06 239.496,392.603 238.412,393.688 237.869,395.315 237.869,396.399 238.412,398.027 239.496,399.111 240.581,399.654 242.208,399.654 243.293,399.111 244.378,398.027 " />
<polyline points="254.819,386.594 268.132,386.594 " />
<polyline points="254.819,391.031 268.132,391.031 " />
<polyline points="287.362,379.937 293.279,395.469 " />
<polyline points="299.196,379.937 293.279,395.469 " />
<polyline points="56.5596,382.156 68.3934,388.812 56.5596,395.469 " />
<polyline points="89.842,383.635 89.842,382.896 90.5816,381.416 91.3212,380.677 92.8005,379.937 95.7589,379.937 97.2381,380.677 97.9777,381.416 98.7173,382.896 98.7173,384.375 97.9777,385.854 96.4985,388.073 89.1024,395.469 99.4569,395.469 " />
<polyline points="112.77,379.937 105.374,379.937 104.634,386.594 105.374,385.854 107.593,385.114 109.811,385.114 112.03,385.854 113.51,387.333 114.249,389.552 114.249,391.031 113.51,393.25 112.03,394.729 109.811,395.469 107.593,395.469 105.374,394.729 104.634,393.99 103.895,392.51 " />
<polyline points="123.124,379.937 120.906,380.677 119.426,382.896 118.687,386.594 118.687,388.812 119.426,392.51 120.906,394.729 123.124,395.469 124.604,395.469 126.822,394.729 128.302,392.51 129.041,388.812 129.041,386.594 128.302,382.896 126.822,380.677 124.604,379.937 123.124,379.937 " />
<polyline points="137.917,379.937 135.698,380.677 134.219,382.896 133.479,386.594 133.479,388.812 134.219,392.51 135.698,394.729 137.917,395.469 139.396,395.469 141.615,394.729 143.094,392.51 143.834,388.812 143.834,386.594 143.094,382.896 141.615,380.677 139.396,379.937 137.917,379.937 " />
<polyline points="168.98,379.937 167.501,379.937 166.022,380.677 165.282,382.896 165.282,395.469 " />
<polyline points="163.063,385.114 168.241,385.114 " />
<polyline points="173.418,385.114 173.418,400.646 " />
<polyline points="173.418,387.333 174.897,385.854 176.376,385.114 178.595,385.114 180.074,385.854 181.554,387.333 182.293,389.552 182.293,391.031 181.554,393.25 180.074,394.729 178.595,395.469 176.376,395.469 174.897,394.729 173.418,393.25 " />
<polyline points="187.47,385.114 187.47,395.469 " />
<polyline points="187.47,388.073 189.689,385.854 191.169,385.114 193.387,385.114 194.867,385.854 195.606,388.073 195.606,395.469 " />
<polyline points="195.606,388.073 197.825,385.854 199.304,385.114 201.523,385.114 203.002,385.854 203.742,388.073 203.742,395.469 " />
<polyline points="210.398,385.114 209.659,385.854 210.398,386.594 211.138,385.854 210.398,385.114 " />
<polyline points="210.398,393.99 209.659,394.729 210.398,395.469 211.138,394.729 210.398,393.99 " />
<polyline points="34.4497,389.35 33.1184,389.793 32.2308,391.125 31.7871,393.343 31.7871,394.675 32.2308,396.894 33.1184,398.225 34.4497,398.669 35.3372,398.669 36.6685,398.225 37.556,396.894 37.9998,394.675 37.9998,393.343 37.556,391.125 36.6685,389.793 35.3372,389.35 34.4497,389.35 " />
<polyline points="17.8614,379.937 23.7783,395.469 " />
<polyline points="29.6952,379.937 23.7783,395.469 " />
<polyline points="79.1243,547.136 77.793,547.579 76.9055,548.911 76.4617,551.129 76.4617,552.461 76.9055,554.68 77.793,556.011 79.1243,556.455 80.0119,556.455 81.3432,556.011 82.2307,554.68 82.6745,552.461 82.6745,551.129 82.2307,548.911 81.3432,547.579 80.0119,547.136 79.1243,547.136 " />
<polyline points="62.5361,537.591 68.4529,553.123 " />
<polyline points="74.3698,537.591 68.4529,553.123 " />
<polyline points="101.234,544.247 114.547,544.247 " />
<polyline points="101.234,548.685 114.547,548.685 " />
<polyline points="144.132,537.591 144.132,553.123 " />
<polyline points="144.132,544.987 142.652,543.508 141.173,542.768 138.954,542.768 137.475,543.508 135.996,544.987 135.256,547.206 135.256,548.685 135.996,550.904 137.475,552.383 138.954,553.123 141.173,553.123 142.652,552.383 144.132,550.904 " />
<polyline points="150.048,542.768 150.048,550.164 150.788,552.383 152.267,553.123 154.486,553.123 155.965,552.383 158.184,550.164 " />
<polyline points="158.184,542.768 158.184,553.123 " />
<polyline points="172.237,544.987 170.758,543.508 169.278,542.768 167.06,542.768 165.58,543.508 164.101,544.987 163.361,547.206 163.361,548.685 164.101,550.904 165.58,552.383 167.06,553.123 169.278,553.123 170.758,552.383 172.237,550.904 " />
<polyline points="178.154,537.591 178.154,550.164 178.893,552.383 180.372,553.123 181.852,553.123 " />
<polyline points="175.935,542.768 181.112,542.768 " />
<polyline points="200.342,542.768 204.78,553.123 " />
<polyline points="209.217,542.768 204.78,553.123 " />
<polyline points="212.915,547.206 221.791,547.206 221.791,545.727 221.051,544.247 220.311,543.508 218.832,542.768 216.613,542.768 215.134,543.508 213.655,544.987 212.915,547.206 212.915,548.685 213.655,550.904 215.134,552.383 216.613,553.123 218.832,553.123 220.311,552.383 221.791,550.904 " />
<polyline points="226.968,537.591 226.968,553.123 " />
<polyline points="235.843,542.768 234.364,543.508 232.885,544.987 232.145,547.206 232.145,548.685 232.885,550.904 234.364,552.383 235.843,553.123 238.062,553.123 239.541,552.383 241.02,550.904 241.76,548.685 241.76,547.206 241.02,544.987 239.541,543.508 238.062,542.768 235.843,542.768 " />
<polyline points="255.073,544.987 253.594,543.508 252.115,542.768 249.896,542.768 248.417,543.508 246.937,544.987 246.198,547.206 246.198,548.685 246.937,550.904 248.417,552.383 249.896,553.123 252.115,553.123 253.594,552.383 255.073,550.904 " />
<polyline points="259.511,538.331 260.25,539.07 260.99,538.331 260.25,537.591 259.511,538.331 " />
<polyline points="260.25,543.508 260.25,553.123 " />
<polyline points="266.907,537.591 266.907,550.164 267.646,552.383 269.126,553.123 270.605,553.123 " />
<polyline points="264.688,542.768 269.865,542.768 " />
<polyline points="273.563,542.768 278.001,553.123 " />
<polyline points="282.439,542.768 278.001,553.123 276.522,556.081 275.042,557.56 273.563,558.3 272.824,558.3 " />
<polyline points="288.355,552.383 287.616,553.123 286.876,552.383 287.616,551.643 288.355,552.383 288.355,553.862 287.616,555.342 286.876,556.081 " />
<polyline points="314.242,537.591 312.763,537.591 311.283,538.331 310.544,540.549 310.544,553.123 " />
<polyline points="308.325,542.768 313.502,542.768 " />
<polyline points="318.679,542.768 318.679,558.3 " />
<polyline points="318.679,544.987 320.159,543.508 321.638,542.768 323.857,542.768 325.336,543.508 326.815,544.987 327.555,547.206 327.555,548.685 326.815,550.904 325.336,552.383 323.857,553.123 321.638,553.123 320.159,552.383 318.679,550.904 " />
<polyline points="332.732,542.768 332.732,553.123 " />
<polyline points="332.732,545.727 334.951,543.508 336.43,542.768 338.649,542.768 340.128,543.508 340.868,545.727 340.868,553.123 " />
<polyline points="340.868,545.727 343.087,543.508 344.566,542.768 346.785,542.768 348.264,543.508 349.003,545.727 349.003,553.123 " />
<polyline points="294.872,618.023 294.872,617.579 295.316,616.692 295.76,616.248 296.647,615.804 298.422,615.804 299.31,616.248 299.753,616.692 300.197,617.579 300.197,618.467 299.753,619.354 298.866,620.686 294.428,625.123 300.641,625.123 " />
<polyline points="64.7549,577.387 64.7549,592.918 73.6302,592.918 " />
<polyline points="79.8598,593.288 86.3683,593.288 86.3683,592.203 85.8259,591.118 85.2836,590.576 84.1988,590.034 82.5717,590.034 81.4869,590.576 80.4021,591.661 79.8598,593.288 79.8598,594.373 80.4021,596 81.4869,597.084 82.5717,597.627 84.1988,597.627 85.2836,597.084 86.3683,596 " />
<polyline points="68.4529,617.182 62.5361,632.714 " />
<polyline points="68.4529,617.182 74.3698,632.714 " />
<polyline points="64.7549,627.537 72.151,627.537 " />
<polyline points="81.451,627.156 80.1197,627.6 79.2321,628.931 78.7884,631.15 78.7884,632.481 79.2321,634.7 80.1197,636.031 81.451,636.475 82.3385,636.475 83.6698,636.031 84.5573,634.7 85.0011,632.481 85.0011,631.15 84.5573,628.931 83.6698,627.6 82.3385,627.156 81.451,627.156 " />
<polyline points="101.234,584.043 114.547,584.043 " />
<polyline points="101.234,588.481 114.547,588.481 " />
<polyline points="135.256,587.002 144.132,587.002 144.132,585.522 143.392,584.043 142.652,583.303 141.173,582.564 138.954,582.564 137.475,583.303 135.996,584.783 135.256,587.002 135.256,588.481 135.996,590.7 137.475,592.179 138.954,592.918 141.173,592.918 142.652,592.179 144.132,590.7 " />
<polyline points="153.747,577.387 152.267,577.387 150.788,578.126 150.048,580.345 150.048,592.918 " />
<polyline points="147.83,582.564 153.007,582.564 " />
<polyline points="162.622,577.387 161.143,577.387 159.663,578.126 158.924,580.345 158.924,592.918 " />
<polyline points="156.705,582.564 161.882,582.564 " />
<polyline points="166.32,587.002 175.195,587.002 175.195,585.522 174.456,584.043 173.716,583.303 172.237,582.564 170.018,582.564 168.539,583.303 167.06,584.783 166.32,587.002 166.32,588.481 167.06,590.7 168.539,592.179 170.018,592.918 172.237,592.918 173.716,592.179 175.195,590.7 " />
<polyline points="188.508,584.783 187.029,583.303 185.55,582.564 183.331,582.564 181.852,583.303 180.372,584.783 179.633,587.002 179.633,588.481 180.372,590.7 181.852,592.179 183.331,592.918 185.55,592.918 187.029,592.179 188.508,590.7 " />
<polyline points="194.425,577.387 194.425,589.96 195.165,592.179 196.644,592.918 198.123,592.918 " />
<polyline points="192.206,582.564 197.383,582.564 " />
<polyline points="201.821,578.126 202.561,578.866 203.3,578.126 202.561,577.387 201.821,578.126 " />
<polyline points="202.561,583.303 202.561,592.918 " />
<polyline points="206.998,582.564 211.436,592.918 " />
<polyline points="215.874,582.564 211.436,592.918 " />
<polyline points="219.572,587.002 228.447,587.002 228.447,585.522 227.707,584.043 226.968,583.303 225.489,582.564 223.27,582.564 221.791,583.303 220.311,584.783 219.572,587.002 219.572,588.481 220.311,590.7 221.791,592.179 223.27,592.918 225.489,592.918 226.968,592.179 228.447,590.7 " />
<polyline points="257.292,577.387 257.292,592.918 " />
<polyline points="257.292,584.783 255.813,583.303 254.333,582.564 252.115,582.564 250.635,583.303 249.156,584.783 248.417,587.002 248.417,588.481 249.156,590.7 250.635,592.179 252.115,592.918 254.333,592.918 255.813,592.179 257.292,590.7 " />
<polyline points="263.209,582.564 263.209,589.96 263.948,592.179 265.428,592.918 267.646,592.918 269.126,592.179 271.344,589.96 " />
<polyline points="271.344,582.564 271.344,592.918 " />
<polyline points="285.397,584.783 283.918,583.303 282.439,582.564 280.22,582.564 278.741,583.303 277.261,584.783 276.522,587.002 276.522,588.481 277.261,590.7 278.741,592.179 280.22,592.918 282.439,592.918 283.918,592.179 285.397,590.7 " />
<polyline points="291.314,577.387 291.314,589.96 292.053,592.179 293.533,592.918 295.012,592.918 " />
<polyline points="289.095,582.564 294.272,582.564 " />
<polyline points="314.981,577.387 314.981,592.918 " />
<polyline points="320.159,587.002 329.034,587.002 329.034,585.522 328.294,584.043 327.555,583.303 326.076,582.564 323.857,582.564 322.377,583.303 320.898,584.783 320.159,587.002 320.159,588.481 320.898,590.7 322.377,592.179 323.857,592.918 326.076,592.918 327.555,592.179 329.034,590.7 " />
<polyline points="334.211,582.564 334.211,592.918 " />
<polyline points="334.211,585.522 336.43,583.303 337.909,582.564 340.128,582.564 341.607,583.303 342.347,585.522 342.347,592.918 " />
<polyline points="356.4,582.564 356.4,594.398 355.66,596.616 354.92,597.356 353.441,598.096 351.222,598.096 349.743,597.356 " />
<polyline points="356.4,584.783 354.92,583.303 353.441,582.564 351.222,582.564 349.743,583.303 348.264,584.783 347.524,587.002 347.524,588.481 348.264,590.7 349.743,592.179 351.222,592.918 353.441,592.918 354.92,592.179 356.4,590.7 " />
<polyline points="363.056,577.387 363.056,589.96 363.796,592.179 365.275,592.918 366.754,592.918 " />
<polyline points="360.837,582.564 366.014,582.564 " />
<polyline points="371.192,577.387 371.192,592.918 " />
<polyline points="371.192,585.522 373.411,583.303 374.89,582.564 377.109,582.564 378.588,583.303 379.327,585.522 379.327,592.918 " />
<polyline points="386.723,592.179 385.984,592.918 385.244,592.179 385.984,591.439 386.723,592.179 386.723,593.658 385.984,595.137 385.244,595.877 " />
<polyline points="412.61,577.387 411.131,577.387 409.651,578.126 408.912,580.345 408.912,592.918 " />
<polyline points="406.693,582.564 411.87,582.564 " />
<polyline points="417.787,577.387 417.787,589.96 418.527,592.179 420.006,592.918 421.485,592.918 " />
<polyline points="415.568,582.564 420.746,582.564 " />
<polyline points="101.234,623.839 114.547,623.839 " />
<polyline points="101.234,628.276 114.547,628.276 " />
<polyline points="144.132,617.182 144.132,632.714 " />
<polyline points="144.132,624.578 142.652,623.099 141.173,622.36 138.954,622.36 137.475,623.099 135.996,624.578 135.256,626.797 135.256,628.276 135.996,630.495 137.475,631.974 138.954,632.714 141.173,632.714 142.652,631.974 144.132,630.495 " />
<polyline points="150.048,622.36 150.048,629.756 150.788,631.974 152.267,632.714 154.486,632.714 155.965,631.974 158.184,629.756 " />
<polyline points="158.184,622.36 158.184,632.714 " />
<polyline points="172.237,624.578 170.758,623.099 169.278,622.36 167.06,622.36 165.58,623.099 164.101,624.578 163.361,626.797 163.361,628.276 164.101,630.495 165.58,631.974 167.06,632.714 169.278,632.714 170.758,631.974 172.237,630.495 " />
<polyline points="178.154,617.182 178.154,629.756 178.893,631.974 180.372,632.714 181.852,632.714 " />
<polyline points="175.935,622.36 181.112,622.36 " />
<polyline points="209.957,622.36 209.957,632.714 " />
<polyline points="209.957,624.578 208.478,623.099 206.998,622.36 204.78,622.36 203.3,623.099 201.821,624.578 201.082,626.797 201.082,628.276 201.821,630.495 203.3,631.974 204.78,632.714 206.998,632.714 208.478,631.974 209.957,630.495 " />
<polyline points="215.874,622.36 215.874,632.714 " />
<polyline points="215.874,626.797 216.613,624.578 218.093,623.099 219.572,622.36 221.791,622.36 " />
<polyline points="224.749,626.797 233.624,626.797 233.624,625.318 232.885,623.839 232.145,623.099 230.666,622.36 228.447,622.36 226.968,623.099 225.489,624.578 224.749,626.797 224.749,628.276 225.489,630.495 226.968,631.974 228.447,632.714 230.666,632.714 232.145,631.974 233.624,630.495 " />
<polyline points="246.937,622.36 246.937,632.714 " />
<polyline points="246.937,624.578 245.458,623.099 243.979,622.36 241.76,622.36 240.281,623.099 238.802,624.578 238.062,626.797 238.062,628.276 238.802,630.495 240.281,631.974 241.76,632.714 243.979,632.714 245.458,631.974 246.937,630.495 " />
<polyline points="254.333,631.974 253.594,632.714 252.854,631.974 253.594,631.235 254.333,631.974 254.333,633.454 253.594,634.933 252.854,635.673 " />
<polyline points="275.042,617.922 275.782,618.661 276.522,617.922 275.782,617.182 275.042,617.922 " />
<polyline points="275.782,623.099 275.782,632.714 " />
<polyline points="281.699,622.36 281.699,632.714 " />
<polyline points="281.699,625.318 283.918,623.099 285.397,622.36 287.616,622.36 289.095,623.099 289.835,625.318 289.835,632.714 " />
<polyline points="912.613,740.945 910.444,738.775 907.19,737.691 902.85,737.691 899.596,738.775 897.427,740.945 897.427,743.114 898.511,745.284 899.596,746.369 901.766,747.453 908.274,749.623 910.444,750.708 911.529,751.793 912.613,753.962 912.613,757.216 910.444,759.386 907.19,760.471 902.85,760.471 899.596,759.386 897.427,757.216 " />
<polyline points="920.207,737.691 920.207,760.471 " />
<polyline points="920.207,737.691 927.8,737.691 931.054,738.775 933.224,740.945 934.309,743.114 935.393,746.369 935.393,751.793 934.309,755.047 933.224,757.216 931.054,759.386 927.8,760.471 920.207,760.471 " />
<polyline points="957.089,737.691 946.241,760.471 " />
<polyline points="941.902,737.691 957.089,737.691 " />
<polyline points="964.682,750.708 984.208,750.708 " />
<polyline points="993.97,737.691 1005.9,737.691 999.394,746.369 1002.65,746.369 1004.82,747.453 1005.9,748.538 1006.99,751.793 1006.99,753.962 1005.9,757.216 1003.73,759.386 1000.48,760.471 997.225,760.471 993.97,759.386 992.886,758.301 991.801,756.132 " />
<polyline points="764.738,79.9636 367.628,79.9636 " />
<polyline points="764.738,183.256 367.628,183.256 " />
<polyline points="585.871,138.001 521.884,138.001 " />
</g>
</svg>
