<?xml version="1.0" standalone="no"?>
<svg viewBox="0 0 1024 768" version="1.1" xmlns="http://www.w3.org/2000/svg" xmlns:xlink="http://www.w3.org/1999/xlink" stroke-linecap="round" stroke-linejoin="round" fill-rule="evenodd" xml:space="preserve" >
<defs >
<clipPath id="clipId0" >
<path d="M0,768 1024,768 1024,0 0,0 z" />
</clipPath>
</defs>
<g clip-path="url(#clipId0)" fill="none" stroke="rgb(0,0,0)" stroke-width="0.1" />
<g clip-path="url(#clipId0)" fill="none" stroke="rgb(0,0,0)" stroke-width="0.4" >
<polyline points="285.872,111.601 285.872,397.023 " />
<polyline points="516.051,111.601 516.051,397.023 " />
<polyline points="322.7,452.266 479.222,452.266 " />
<polyline points="664.037,176.051 664.037,332.573 " />
<polyline points="792.937,176.051 792.937,332.573 " />
<path d="M792.937,176.051  A64.4501,64.4501 0 0,0 664.037,176.051 " />
<path d="M664.037,332.573  A64.4501,64.4501 0 0,0 792.937,332.573 " />
<polyline points="765.315,452.266 691.658,452.266 " />
<polyline points="322.7,435.002 479.222,435.002 " />
<polyline points="322.7,432.701 479.222,432.701 " />
<path d="M322.7,432.701  A1.19885,1.19885 0 0,0 322.7,435.002 " />
<path d="M479.222,435.002  A1.19885,1.19885 0 0,0 479.222,432.701 " />
<polyline points="322.7,435.002 322.7,452.266 " />
<polyline points="322.7,432.701 313.493,397.023 " />
<polyline points="479.222,432.701 488.429,397.023 " />
<polyline points="479.222,435.002 479.222,452.266 " />
<polyline points="303.135,111.601 303.135,397.023 " />
<polyline points="305.437,111.601 305.437,397.023 " />
<path d="M305.437,111.601  A1.19885,1.19885 0 0,0 303.135,111.601 " />
<path d="M303.135,397.023  A1.19885,1.19885 0 0,0 305.437,397.023 " />
<polyline points="303.135,397.023 285.872,397.023 " />
<polyline points="313.493,397.023 305.437,397.023 " />
<polyline points="303.135,111.601 285.872,111.601 " />
<polyline points="313.493,111.601 305.437,111.601 " />
<polyline points="313.493,111.601 400.961,111.601 " />
<polyline points="498.787,111.601 516.051,111.601 " />
<polyline points="488.429,111.601 400.961,111.601 " />
<polyline points="488.429,111.601 496.485,111.601 " />
<polyline points="496.485,111.601 496.485,397.023 " />
<polyline points="498.787,111.601 498.787,397.023 " />
<polyline points="498.787,397.023 516.051,397.023 " />
<polyline points="488.429,397.023 496.485,397.023 " />
<polyline points="691.658,432.701 765.315,432.701 " />
<polyline points="691.658,435.002 765.315,435.002 " />
<path d="M691.658,432.701  A1.19885,1.19885 0 0,0 691.658,435.002 " />
<path d="M765.315,435.002  A1.19885,1.19885 0 0,0 765.315,432.701 " />
<polyline points="691.658,435.002 691.658,452.266 " />
<polyline points="765.315,435.002 765.315,452.266 " />
</g>
<g clip-path="url(#clipId0)" fill="none" stroke="rgb(0,0,0)" stroke-width="0.25" >
<polyline points="664.037,176.051 792.937,176.051 " stroke-dasharray="76.726278,15.345256,15.345256,15.345256" />
<polyline points="728.487,111.601 728.487,240.501 " stroke-dasharray="76.726278,15.345256,15.345256,15.345256" />
<polyline points="728.487,111.601 728.487,94.4917 " stroke-dasharray="76.726278,15.345256,15.345256,15.345256" />
<polyline points="664.037,176.051 634.149,176.051 " stroke-dasharray="76.726278,15.345256,15.345256,15.345256" />
<polyline points="792.937,176.051 817.981,176.051 " stroke-dasharray="76.726278,15.345256,15.345256,15.345256" />
<polyline points="728.487,397.023 728.487,453.117 " stroke-dasharray="76.726278,15.345256,15.345256,15.345256" />
<polyline points="728.487,397.023 728.487,268.123 " stroke-dasharray="76.726278,15.345256,15.345256,15.345256" />
<polyline points="664.037,332.573 792.937,332.573 " stroke-dasharray="76.726278,15.345256,15.345256,15.345256" />
<polyline points="664.037,332.573 634.149,332.573 " stroke-dasharray="76.726278,15.345256,15.345256,15.345256" />
<polyline points="792.937,332.573 817.981,332.573 " stroke-dasharray="76.726278,15.345256,15.345256,15.345256" />
<polyline points="728.487,240.501 728.487,268.123 " stroke-dasharray="76.726278,15.345256,15.345256,15.345256" />
<polyline points="728.487,452.266 728.487,477.1 " stroke-dasharray="76.726278,15.345256,15.345256,15.345256" />
<polyline points="702.384,728.903 698.877,725.396 693.616,723.642 686.601,723.642 681.339,725.396 677.832,728.903 677.832,732.411 679.586,735.918 681.339,737.672 684.847,739.426 693.616,742.933 697.123,744.687 698.877,746.441 700.631,749.948 700.631,755.209 698.877,756.963 693.616,758.717 686.601,758.717 683.093,756.963 681.339,755.209 677.832,755.209 " />
<polyline points="702.384,728.903 698.877,728.903 697.123,727.149 693.616,725.396 686.601,725.396 681.339,727.149 679.586,728.903 679.586,732.411 681.339,735.918 684.847,737.672 693.616,741.179 697.123,742.933 700.631,746.441 702.384,749.948 702.384,755.209 698.877,758.717 693.616,760.471 686.601,760.471 681.339,758.717 677.832,755.209 " />
<polyline points="714.661,723.642 714.661,760.471 " />
<polyline points="716.414,725.396 716.414,760.471 714.661,760.471 " />
<polyline points="714.661,723.642 735.705,723.642 " />
<polyline points="716.414,725.396 735.705,725.396 735.705,723.642 " />
<polyline points="716.414,741.179 726.937,741.179 726.937,742.933 " />
<polyline points="716.414,742.933 726.937,742.933 " />
<polyline points="747.982,723.642 746.228,739.426 " />
<polyline points="749.735,725.396 747.982,737.672 " />
<polyline points="747.982,723.642 765.519,723.642 765.519,725.396 " />
<polyline points="749.735,725.396 765.519,725.396 " />
<polyline points="747.982,737.672 753.243,735.918 758.504,735.918 763.765,737.672 767.273,741.179 769.027,746.441 769.027,749.948 767.273,755.209 763.765,758.717 758.504,760.471 753.243,760.471 747.982,758.717 746.228,756.963 744.474,753.456 746.228,753.456 " />
<polyline points="746.228,739.426 747.982,739.426 751.489,737.672 758.504,737.672 763.765,739.426 767.273,744.687 " />
<polyline points="760.258,737.672 765.519,741.179 767.273,746.441 767.273,749.948 765.519,755.209 760.258,758.717 " />
<polyline points="767.273,751.702 763.765,756.963 758.504,758.717 753.243,758.717 747.982,756.963 746.228,753.456 " />
<polyline points="751.489,758.717 746.228,755.209 " />
<polyline points="781.303,742.933 811.116,742.933 811.116,744.687 " />
<polyline points="781.303,742.933 781.303,744.687 811.116,744.687 " />
<polyline points="825.146,732.411 825.146,730.657 826.9,727.149 828.654,725.396 832.161,723.642 839.176,723.642 842.684,725.396 844.438,727.149 846.191,730.657 846.191,734.164 844.438,737.672 840.93,742.933 825.146,760.471 " />
<polyline points="825.146,732.411 826.9,732.411 826.9,730.657 828.654,727.149 832.161,725.396 839.176,725.396 842.684,727.149 844.438,730.657 844.438,734.164 842.684,737.672 839.176,742.933 823.393,760.471 " />
<polyline points="825.146,758.717 847.945,758.717 847.945,760.471 " />
<polyline points="823.393,760.471 847.945,760.471 " />
</g>
<g clip-path="url(#clipId0)" fill="none" stroke="rgb(0,0,0)" stroke-width="0.4" >
<polyline points="682.451,377.678 691.658,432.701 " />
<polyline points="774.522,377.678 765.315,432.701 " />
</g>
<g clip-path="url(#clipId0)" fill="none" stroke="rgb(0,0,0)" stroke-width="0.1" >
<polyline points="285.872,397.023 285.872,397.023 " />
<polyline points="321.837,433.851 321.837,433.851 " />
<polyline points="304.286,397.886 304.286,397.886 " />
<polyline points="322.7,452.266 322.7,452.266 " />
</g>
<g clip-path="url(#clipId0)" fill="none" stroke="rgb(0,0,0)" stroke-width="0.4" >
<path d="M488.429,397.023  A207.42,207.42 0 0,0 313.493,397.023 " />
<path d="M498.787,111.601  A1.19885,1.19885 0 0,0 496.485,111.601 " />
<path d="M496.485,397.023  A1.19885,1.19885 0 0,0 498.787,397.023 " />
<polyline points="664.037,140.404 664.037,50.5398 " />
<polyline points="664.037,50.5398 790.971,50.5398 " />
<polyline points="790.971,50.5398 790.971,140.404 " />
<polyline points="267.583,111.601 222.004,111.601 " />
<polyline points="267.583,397.023 222.004,397.023 " />
<polyline points="165.85,111.601 165.85,397.023 " />
<polyline points="322.7,472.667 322.7,522.111 " />
<polyline points="691.658,545.063 765.315,545.063 " />
<polyline points="479.222,472.667 479.222,522.111 " />
<polyline points="691.658,465.683 691.658,522.111 " />
<polyline points="765.315,465.683 765.315,522.111 " />
</g>
<g clip-path="url(#clipId0)" fill="rgb(0,0,0)" stroke="rgb(0,0,0)" stroke-width="0.25" >
<path d="M663.374,540.349 663.374,549.778 691.658,545.063 691.658,545.063 z" />
<path d="M793.6,549.778 793.6,540.349 765.315,545.063 765.315,545.063 z" />
<path d="M170.564,368.738 161.136,368.738 165.85,397.023 165.85,397.023 z" />
<path d="M161.136,139.885 170.564,139.885 165.85,111.601 165.85,111.601 z" />
<path d="M762.687,45.8257 762.687,55.2538 790.971,50.5398 790.971,50.5398 z" />
<path d="M692.321,55.2538 692.321,45.8257 664.037,50.5398 664.037,50.5398 z" />
</g>
<g clip-path="url(#clipId0)" fill="none" stroke="rgb(0,0,0)" stroke-width="0.4" >
<polyline points="285.872,111.601 285.872,67.2267 " />
<polyline points="498.787,111.601 498.787,67.2267 " />
<polyline points="765.315,452.266 804.62,452.266 " />
<polyline points="832.363,138.426 832.363,138.426 " />
<polyline points="285.872,254.312 182.774,254.312 " />
<polyline points="453.593,254.312 582.351,254.312 " />
<polyline points="400.961,414.899 400.961,514.996 " />
<polyline points="222.004,111.601 165.85,111.601 " />
<polyline points="222.004,397.023 165.85,397.023 " />
</g>
<g clip-path="url(#clipId0)" fill="rgb(0,0,0)" stroke="rgb(0,0,0)" stroke-width="0.25" >
<path d="M257.587,249.598 257.587,259.026 285.872,254.312 285.872,254.312 z" />
<path d="M554.067,249.598 554.067,259.026 582.351,254.312 582.351,254.312 z" />
<path d="M405.675,486.712 396.247,486.712 400.961,514.996 400.961,514.996 z" />
</g>
<g clip-path="url(#clipId0)" fill="none" stroke="rgb(0,0,0)" stroke-width="0.25" >
<polyline points="356.946,574.811 355.543,572.005 352.737,569.199 349.931,567.796 344.32,567.796 341.514,569.199 338.708,572.005 337.305,574.811 335.902,579.02 335.902,586.035 337.305,590.244 338.708,593.05 341.514,595.856 344.32,597.259 349.931,597.259 352.737,595.856 355.543,593.05 356.946,590.244 " />
<polyline points="394.827,577.617 410.26,597.259 " />
<polyline points="410.26,577.617 394.827,597.259 " />
<polyline points="464.977,581.826 462.171,579.02 459.365,577.617 455.156,577.617 452.35,579.02 449.544,581.826 448.141,586.035 448.141,588.841 449.544,593.05 452.35,595.856 455.156,597.259 459.365,597.259 462.171,595.856 464.977,593.05 " />
<polyline points="737.126,567.321 734.32,564.515 731.514,563.112 727.305,563.112 724.499,564.515 721.693,567.321 720.29,571.53 720.29,574.336 721.693,578.545 724.499,581.351 727.305,582.754 731.514,582.754 734.32,581.351 737.126,578.545 " />
<polyline points="119.989,304.015 149.452,315.239 " />
<polyline points="119.989,304.015 149.452,292.791 " />
<polyline points="139.631,311.03 139.631,297 " />
<polyline points="129.81,257.716 149.452,242.283 " />
<polyline points="129.81,242.283 149.452,257.716 " />
<polyline points="129.81,187.567 149.452,187.567 " />
<polyline points="134.019,187.567 131.213,190.373 129.81,193.179 129.81,197.388 131.213,200.194 134.019,203 138.228,204.403 141.034,204.403 145.243,203 148.049,200.194 149.452,197.388 149.452,193.179 148.049,190.373 145.243,187.567 " />
<polyline points="735.317,7.52941 735.317,27.1713 " />
<polyline points="735.317,11.7384 732.511,8.93241 729.705,7.52941 725.496,7.52941 722.69,8.93241 719.884,11.7384 718.481,15.9474 718.481,18.7534 719.884,22.9624 722.69,25.7683 725.496,27.1713 729.705,27.1713 732.511,25.7683 735.317,22.9624 " />
<polyline points="294.923,31.7166 292.117,28.9107 289.311,27.5077 285.102,27.5077 282.296,28.9107 279.49,31.7166 278.087,35.9256 278.087,38.7316 279.49,42.9406 282.296,45.7466 285.102,47.1496 289.311,47.1496 292.117,45.7466 294.923,42.9406 " />
<polyline points="506.519,32.4333 505.116,29.6274 500.907,28.2244 496.698,28.2244 492.489,29.6274 491.086,32.4333 492.489,35.2393 495.295,36.6423 502.31,38.0453 505.116,39.4483 506.519,42.2543 506.519,43.6573 505.116,46.4633 500.907,47.8663 496.698,47.8663 492.489,46.4633 491.086,43.6573 " />
<polyline points="820.276,434.184 820.276,463.647 " />
<polyline points="820.276,448.214 823.082,445.408 825.888,444.005 830.097,444.005 832.903,445.408 835.709,448.214 837.112,452.423 837.112,455.229 835.709,459.438 832.903,462.244 830.097,463.647 825.888,463.647 823.082,462.244 820.276,459.438 " />
</g>
<g clip-path="url(#clipId0)" fill="none" stroke="rgb(0,0,0)" stroke-width="0.4" >
<polyline points="756.96,111.364 868.152,110.437 " />
<polyline points="868.152,110.437 868.152,394.523 " />
<polyline points="756.96,397.023 868.152,397.023 " />
</g>
<g clip-path="url(#clipId0)" fill="none" stroke="rgb(0,0,0)" stroke-width="0.25" >
<polyline points="892.787,230.997 881.563,260.46 " />
<polyline points="892.787,230.997 904.011,260.46 " />
<polyline points="885.772,250.639 899.802,250.639 " />
</g>
<g clip-path="url(#clipId0)" fill="rgb(0,0,0)" stroke="rgb(0,0,0)" stroke-width="0.25" >
<path d="M863.437,138.722 872.866,138.722 868.152,110.437 868.152,110.437 z" />
<path d="M872.866,368.738 863.437,368.738 868.152,397.023 868.152,397.023 z" />
</g>
<g clip-path="url(#clipId0)" fill="none" stroke="rgb(0,0,0)" stroke-width="0.25" >
<polyline points="212.276,185.395 209.47,186.798 206.664,189.604 205.261,192.41 203.858,196.619 203.858,203.634 205.261,207.843 206.664,210.649 209.47,213.454 212.276,214.857 217.888,214.857 220.694,213.454 223.5,210.649 224.903,207.843 226.306,203.634 226.306,196.619 224.903,192.41 223.5,189.604 220.694,186.798 217.888,185.395 212.276,185.395 " />
<polyline points="216.485,209.246 224.903,217.663 " />
<polyline points="543.693,190.174 540.887,191.577 538.081,194.383 536.678,197.189 535.275,201.398 535.275,208.413 536.678,212.621 538.081,215.427 540.887,218.233 543.693,219.636 549.305,219.636 552.111,218.233 554.917,215.427 556.32,212.621 557.723,208.413 557.723,201.398 556.32,197.189 554.917,194.383 552.111,191.577 549.305,190.174 543.693,190.174 " />
<polyline points="547.902,214.024 556.32,222.442 " />
<polyline points="426.847,481.894 424.041,483.297 421.235,486.103 419.832,488.909 418.429,493.118 418.429,500.133 419.832,504.342 421.235,507.148 424.041,509.954 426.847,511.357 432.459,511.357 435.265,509.954 438.071,507.148 439.474,504.342 440.877,500.133 440.877,493.118 439.474,488.909 438.071,486.103 435.265,483.297 432.459,481.894 426.847,481.894 " />
<polyline points="431.056,505.745 439.474,514.163 " />
<polyline points="247.038,218.097 244.232,215.291 241.426,213.888 237.217,213.888 234.411,215.291 231.605,218.097 230.202,222.306 230.202,225.112 231.605,229.321 234.411,232.127 237.217,233.53 241.426,233.53 244.232,232.127 247.038,229.321 " />
<polyline points="583.134,216.424 581.731,213.618 577.522,212.215 573.313,212.215 569.104,213.618 567.701,216.424 569.104,219.23 571.91,220.633 578.925,222.036 581.731,223.439 583.134,226.245 583.134,227.648 581.731,230.454 577.522,231.857 573.313,231.857 569.104,230.454 567.701,227.648 " />
<polyline points="452.676,497.679 452.676,527.142 " />
<polyline points="452.676,511.709 455.482,508.903 458.288,507.5 462.497,507.5 465.303,508.903 468.109,511.709 469.512,515.918 469.512,518.724 468.109,522.933 465.303,525.739 462.497,527.142 458.288,527.142 455.482,525.739 452.676,522.933 " />
</g>
<g clip-path="url(#clipId0)" fill="none" stroke="rgb(0,0,0)" stroke-width="0.4" >
<polyline points="322.7,522.111 322.7,545.589 " />
<polyline points="479.222,522.111 479.222,545.589 " />
<polyline points="322.7,545.589 479.222,545.589 " />
</g>
<g clip-path="url(#clipId0)" fill="rgb(0,0,0)" stroke="rgb(0,0,0)" stroke-width="0.25" >
<path d="M350.985,550.303 350.985,540.875 322.7,545.589 322.7,545.589 z" />
<path d="M450.938,540.875 450.938,550.303 479.222,545.589 479.222,545.589 z" />
</g>
<g clip-path="url(#clipId0)" fill="none" stroke="rgb(0,0,0)" stroke-width="0.4" >
<polyline points="400.961,414.899 400.961,360.278 " />
<polyline points="691.658,522.111 691.658,545.063 " />
<polyline points="765.315,522.111 765.315,545.063 " />
</g>
</svg>
