<?xml version="1.0" standalone="no"?>
<svg viewBox="0 0 1024 768" version="1.1" xmlns="http://www.w3.org/2000/svg" xmlns:xlink="http://www.w3.org/1999/xlink" stroke-linecap="round" stroke-linejoin="round" fill-rule="evenodd" xml:space="preserve" >
<defs >
<clipPath id="clipId0" >
<path d="M0,768 1024,768 1024,0 0,0 z" />
</clipPath>
</defs>
<g clip-path="url(#clipId0)" fill="none" stroke="rgb(0,0,0)" stroke-width="0.1" />
<g clip-path="url(#clipId0)" fill="none" stroke="rgb(0,0,0)" stroke-width="0.5" >
<polyline points="248.706,89.9285 248.706,376.192 " />
<polyline points="498.417,376.192 510.66,388.435 " />
<polyline points="399.656,499.439 276.409,376.192 " />
<polyline points="526.12,376.192 526.12,89.9285 " />
<polyline points="526.12,89.9285 508.806,89.9285 " />
<polyline points="526.12,376.192 508.806,376.192 " />
<polyline points="248.706,376.192 266.02,376.192 " />
<path d="M816.1,154.569  A64.6402,64.6402 0 0,0 686.819,154.569 " />
<path d="M686.819,311.552  A64.6402,64.6402 0 0,0 816.1,311.552 " />
<polyline points="816.1,154.569 816.1,311.552 " />
<polyline points="686.819,154.569 686.819,311.552 " />
<polyline points="508.806,376.192 508.806,89.9285 " />
<polyline points="506.497,376.192 506.497,89.9285 " />
<polyline points="506.497,89.9285 268.329,89.9285 " />
<path d="M508.806,89.9285  A1.20238,1.20238 0 0,0 506.497,89.9285 " />
<polyline points="506.497,376.192 498.417,376.192 " />
<path d="M506.497,376.192  A1.20238,1.20238 0 0,0 508.806,376.192 " />
<polyline points="268.329,89.9285 268.329,376.192 " />
<polyline points="266.02,89.9285 266.02,376.192 " />
<polyline points="266.02,89.9285 248.706,89.9285 " />
<path d="M268.329,89.9285  A1.20238,1.20238 0 0,0 266.02,89.9285 " />
<polyline points="268.329,376.192 276.409,376.192 " />
<path d="M266.02,376.192  A1.20238,1.20238 0 0,0 268.329,376.192 " />
<polyline points="512.292,390.068 401.289,501.072 " />
<polyline points="510.66,388.435 399.656,499.439 " />
<path d="M512.292,390.068  A1.20238,1.20238 0 0,0 510.66,388.435 " />
<path d="M399.656,499.439  A1.20238,1.20238 0 0,0 401.289,501.072 " />
<path d="M714.522,487.196  A39.1779,39.1779 0 0,0 788.397,487.196 " />
<path d="M788.397,428.429  A39.1779,39.1779 0 0,0 714.522,428.429 " />
<polyline points="788.397,428.429 788.397,487.196 " />
<polyline points="714.522,428.429 714.522,487.196 " />
<polyline points="788.397,364.599 788.397,428.429 " />
<polyline points="714.522,364.599 714.522,428.429 " />
<path d="M788.397,414.406  A39.1779,39.1779 0 0,0 714.522,414.406 " />
<path d="M788.397,416.186  A39.1779,39.1779 0 0,0 714.522,416.186 " />
<path d="M498.417,376.192  A537.228,537.228 0 0,0 276.409,376.192 " />
</g>
<g clip-path="url(#clipId0)" fill="none" stroke="rgb(0,0,0)" stroke-width="0.25" >
<polyline points="816.1,154.569 686.819,154.569 " stroke-dasharray="76.952608,15.390522,15.390522,15.390522" />
<polyline points="751.459,89.9285 751.459,219.209 " stroke-dasharray="76.952608,15.390522,15.390522,15.390522" />
<polyline points="751.459,89.9285 751.459,68.9868 " stroke-dasharray="76.952608,15.390522,15.390522,15.390522" />
<polyline points="816.1,154.569 841.181,154.569 " stroke-dasharray="76.952608,15.390522,15.390522,15.390522" />
<polyline points="686.819,154.569 660.327,154.569 " stroke-dasharray="76.952608,15.390522,15.390522,15.390522" />
<polyline points="816.1,311.552 841.181,311.552 " stroke-dasharray="76.952608,15.390522,15.390522,15.390522" />
<polyline points="816.1,311.552 686.819,311.552 " stroke-dasharray="76.952608,15.390522,15.390522,15.390522" />
<polyline points="751.459,376.192 751.459,246.912 " stroke-dasharray="76.952608,15.390522,15.390522,15.390522" />
<polyline points="751.459,376.192 751.459,513.315 " stroke-dasharray="76.952608,15.390522,15.390522,15.390522" />
<polyline points="686.819,311.552 660.327,311.552 " stroke-dasharray="76.952608,15.390522,15.390522,15.390522" />
<polyline points="751.459,219.209 751.459,246.912 " stroke-dasharray="76.952608,15.390522,15.390522,15.390522" />
<polyline points="751.459,513.315 751.459,535.415 " stroke-dasharray="76.952608,15.390522,15.390522,15.390522" />
<polyline points="695.18,720.389 690.726,715.936 684.046,713.709 675.139,713.709 668.459,715.936 664.005,720.389 664.005,724.843 666.232,729.296 668.459,731.523 672.912,733.75 684.046,738.203 688.499,740.43 690.726,742.657 692.953,747.11 692.953,753.79 690.726,756.017 684.046,758.244 675.139,758.244 670.685,756.017 668.459,753.79 664.005,753.79 " />
<polyline points="695.18,720.389 690.726,720.389 688.499,718.163 684.046,715.936 675.139,715.936 668.459,718.163 666.232,720.389 666.232,724.843 668.459,729.296 672.912,731.523 684.046,735.976 688.499,738.203 692.953,742.657 695.18,747.11 695.18,753.79 690.726,758.244 684.046,760.471 675.139,760.471 668.459,758.244 664.005,753.79 " />
<polyline points="710.767,713.709 710.767,760.471 " />
<polyline points="712.993,715.936 712.993,760.471 710.767,760.471 " />
<polyline points="710.767,713.709 737.488,713.709 " />
<polyline points="712.993,715.936 737.488,715.936 737.488,713.709 " />
<polyline points="712.993,735.976 726.354,735.976 726.354,738.203 " />
<polyline points="712.993,738.203 726.354,738.203 " />
<polyline points="753.075,713.709 750.848,733.75 " />
<polyline points="755.301,715.936 753.075,731.523 " />
<polyline points="753.075,713.709 775.342,713.709 775.342,715.936 " />
<polyline points="755.301,715.936 775.342,715.936 " />
<polyline points="753.075,731.523 759.755,729.296 766.435,729.296 773.115,731.523 777.569,735.976 779.796,742.657 779.796,747.11 777.569,753.79 773.115,758.244 766.435,760.471 759.755,760.471 753.075,758.244 750.848,756.017 748.621,751.564 750.848,751.564 " />
<polyline points="750.848,733.75 753.075,733.75 757.528,731.523 766.435,731.523 773.115,733.75 777.569,740.43 " />
<polyline points="768.662,731.523 775.342,735.976 777.569,742.657 777.569,747.11 775.342,753.79 768.662,758.244 " />
<polyline points="777.569,749.337 773.115,756.017 766.435,758.244 759.755,758.244 753.075,756.017 750.848,751.564 " />
<polyline points="757.528,758.244 750.848,753.79 " />
<polyline points="795.383,738.203 833.237,738.203 833.237,740.43 " />
<polyline points="795.383,738.203 795.383,740.43 833.237,740.43 " />
<polyline points="871.092,720.389 871.092,760.471 873.319,760.471 " />
<polyline points="873.319,713.709 873.319,760.471 " />
<polyline points="873.319,713.709 848.825,749.337 882.226,749.337 " />
<polyline points="871.092,720.389 851.051,749.337 " />
<polyline points="851.051,747.11 882.226,747.11 882.226,749.337 " />
<polyline points="105.572,282.511 132.659,292.83 " />
<polyline points="105.572,282.511 132.659,272.192 " />
<polyline points="123.63,288.961 123.63,276.062 " />
<polyline points="114.601,239.945 132.659,225.757 " />
<polyline points="114.601,225.757 132.659,239.945 " />
<polyline points="114.601,175.452 132.659,175.452 " />
<polyline points="118.471,175.452 115.891,178.032 114.601,180.611 114.601,184.481 115.891,187.061 118.471,189.64 122.34,190.93 124.92,190.93 128.79,189.64 131.369,187.061 132.659,184.481 132.659,180.611 131.369,178.032 128.79,175.452 " />
</g>
<g clip-path="url(#clipId0)" fill="none" stroke="rgb(0,0,0)" stroke-width="0.5" >
<polyline points="401.289,501.072 512.292,390.068 " />
<polyline points="458.405,509.251 489.439,478.218 " />
<polyline points="445.346,496.192 476.379,465.159 " />
<polyline points="458.405,509.251 445.346,496.192 " />
<polyline points="401.289,501.072 445.346,496.192 " />
<polyline points="520.222,446.936 489.439,478.218 " />
<polyline points="507.058,433.982 476.275,465.264 " />
<polyline points="520.222,446.936 507.058,433.982 " />
<polyline points="511.584,389.887 507.058,433.982 " />
</g>
<g clip-path="url(#clipId0)" fill="none" stroke="rgb(0,0,0)" stroke-width="0.25" >
<polyline points="788.397,521.408 788.397,582.521 " />
<polyline points="714.522,520.484 714.522,582.521 " />
</g>
<g clip-path="url(#clipId0)" fill="rgb(0,0,0)" stroke="rgb(0,0,0)" stroke-width="0.25" >
<path d="M550.191,501.979 546.012,497.8 560.638,487.353 560.638,487.353 z" />
</g>
<g clip-path="url(#clipId0)" fill="none" stroke="rgb(0,0,0)" stroke-width="0.25" >
<polyline points="770.667,562.822 714.522,562.822 " />
</g>
<g clip-path="url(#clipId0)" fill="rgb(0,0,0)" stroke="rgb(0,0,0)" stroke-width="0.25" >
<path d="M732.252,559.867 732.252,565.776 714.522,562.822 714.522,562.822 z" />
<path d="M295.441,229.565 295.441,238.43 322.036,233.998 322.036,233.998 z" />
</g>
<g clip-path="url(#clipId0)" fill="none" stroke="rgb(0,0,0)" stroke-width="0.1" >
<polyline points="498.417,336.69 498.417,336.69 " />
</g>
<g clip-path="url(#clipId0)" fill="none" stroke="rgb(0,0,0)" stroke-width="0.25" >
<polyline points="527.187,453.901 560.638,487.353 " />
<polyline points="465.37,516.216 498.573,549.419 " />
</g>
<g clip-path="url(#clipId0)" fill="none" stroke="rgb(0,0,0)" stroke-width="0.5" >
<polyline points="322.036,233.998 203.979,233.998 " />
<polyline points="456.79,445.57 517.899,506.679 " />
<polyline points="456.79,445.57 415.915,404.694 " />
</g>
<g clip-path="url(#clipId0)" fill="rgb(0,0,0)" stroke="rgb(0,0,0)" stroke-width="0.25" >
<path d="M561.836,224.141 561.836,233.005 588.43,228.573 588.43,228.573 z" />
<path d="M502.228,484.739 495.96,491.008 517.899,506.679 517.899,506.679 z" />
</g>
<g clip-path="url(#clipId0)" fill="none" stroke="rgb(0,0,0)" stroke-width="0.5" >
<polyline points="222.519,89.9285 156.226,89.9285 " />
<polyline points="222.519,376.192 156.226,376.192 " />
</g>
<g clip-path="url(#clipId0)" fill="rgb(0,0,0)" stroke="rgb(0,0,0)" stroke-width="0.25" >
<path d="M151.793,116.523 160.658,116.523 156.226,89.9285 156.226,89.9285 z" />
</g>
<g clip-path="url(#clipId0)" fill="none" stroke="rgb(0,0,0)" stroke-width="0.5" >
<polyline points="156.226,89.9285 156.226,376.192 " />
<polyline points="203.979,233.998 179.691,233.998 " />
</g>
<g clip-path="url(#clipId0)" fill="rgb(0,0,0)" stroke="rgb(0,0,0)" stroke-width="0.25" >
<path d="M160.658,349.597 151.793,349.597 156.226,376.192 156.226,376.192 z" />
</g>
<g clip-path="url(#clipId0)" fill="none" stroke="rgb(0,0,0)" stroke-width="0.5" >
<polyline points="686.819,123.425 686.819,42.9456 " />
<polyline points="816.1,123.425 816.1,42.9456 " />
<polyline points="686.819,42.9456 816.1,42.9456 " />
<polyline points="780.141,89.9285 878.292,89.9285 " />
<polyline points="878.292,89.9285 878.292,376.192 " />
<polyline points="780.141,376.192 878.292,376.192 " />
</g>
<g clip-path="url(#clipId0)" fill="rgb(0,0,0)" stroke="rgb(0,0,0)" stroke-width="0.25" >
<path d="M791.771,38.1354 791.771,47.0004 818.366,42.5679 818.366,42.5679 z" />
<path d="M711.148,47.7557 711.148,38.8908 684.553,43.3233 684.553,43.3233 z" />
<path d="M882.347,347.331 873.482,347.331 877.914,373.926 877.914,373.926 z" />
</g>
<g clip-path="url(#clipId0)" fill="none" stroke="rgb(0,0,0)" stroke-width="0.5" >
<polyline points="248.706,89.9285 248.706,50.5634 " />
<polyline points="526.12,89.9285 526.12,50.5634 " />
<polyline points="458.405,509.251 431.489,536.168 " />
<polyline points="498.573,549.419 560.638,487.353 " />
</g>
<g clip-path="url(#clipId0)" fill="none" stroke="rgb(0,0,0)" stroke-width="0.25" >
<polyline points="510.446,560.529 507.71,559.617 504.061,559.617 501.325,560.529 497.677,564.177 496.765,566.913 496.765,570.562 497.677,573.298 499.501,576.946 504.061,581.507 507.71,583.331 510.446,584.243 514.094,584.243 516.83,583.331 520.479,579.682 521.391,576.946 521.391,573.298 520.479,570.562 " />
<polyline points="536.896,537.727 559.698,540.463 " />
<polyline points="546.929,527.694 549.665,550.496 " />
<polyline points="585.236,494.859 581.588,494.859 578.852,495.771 576.115,498.507 575.203,501.244 575.203,504.892 577.027,508.54 578.852,510.364 582.5,512.189 586.148,512.189 588.884,511.277 591.621,508.54 592.533,505.804 592.533,502.156 " />
<polyline points="758.329,7.52941 758.329,25.5876 " />
<polyline points="758.329,11.399 755.75,8.81928 753.17,7.52941 749.3,7.52941 746.72,8.81928 744.141,11.399 742.851,15.2686 742.851,17.8484 744.141,21.718 746.72,24.2978 749.3,25.5876 753.17,25.5876 755.75,24.2978 758.329,21.718 " />
<polyline points="228.224,205.641 225.644,203.062 223.064,201.772 219.195,201.772 216.615,203.062 214.035,205.641 212.745,209.511 212.745,212.091 214.035,215.96 216.615,218.54 219.195,219.83 223.064,219.83 225.644,218.54 228.224,215.96 " />
<polyline points="588.027,191.648 586.737,189.069 582.868,187.779 578.998,187.779 575.129,189.069 573.839,191.648 575.129,194.228 577.708,195.518 584.158,196.808 586.737,198.098 588.027,200.678 588.027,201.967 586.737,204.547 582.868,205.837 578.998,205.837 575.129,204.547 573.839,201.967 " />
<polyline points="409.097,421.504 409.097,448.591 " />
<polyline points="409.097,434.403 411.676,431.823 414.256,430.533 418.126,430.533 420.706,431.823 423.285,434.403 424.575,438.272 424.575,440.852 423.285,444.722 420.706,447.301 418.126,448.591 414.256,448.591 411.676,447.301 409.097,444.722 " />
<polyline points="759.614,585.376 757.034,582.797 754.454,581.507 750.584,581.507 748.005,582.797 745.425,585.376 744.135,589.246 744.135,591.826 745.425,595.695 748.005,598.275 750.584,599.565 754.454,599.565 757.034,598.275 759.614,595.695 " />
<polyline points="908.109,221.941 897.79,249.028 " />
<polyline points="908.109,221.941 918.428,249.028 " />
<polyline points="901.66,239.999 914.558,239.999 " />
</g>
<g clip-path="url(#clipId0)" fill="rgb(0,0,0)" stroke="rgb(0,0,0)" stroke-width="0.25" >
<path d="M874.237,118.789 883.102,118.789 878.67,92.1946 878.67,92.1946 z" />
</g>
<g clip-path="url(#clipId0)" fill="none" stroke="rgb(0,0,0)" stroke-width="0.25" >
<polyline points="194.592,183.61 192.012,184.9 189.432,187.48 188.142,190.06 186.853,193.929 186.853,200.379 188.142,204.248 189.432,206.828 192.012,209.408 194.592,210.698 199.751,210.698 202.331,209.408 204.911,206.828 206.201,204.248 207.491,200.379 207.491,193.929 206.201,190.06 204.911,187.48 202.331,184.9 199.751,183.61 194.592,183.61 " />
<polyline points="198.461,205.538 206.201,213.277 " />
<polyline points="553.757,169.718 551.177,171.008 548.597,173.587 547.307,176.167 546.017,180.037 546.017,186.486 547.307,190.356 548.597,192.936 551.177,195.515 553.757,196.805 558.916,196.805 561.496,195.515 564.075,192.936 565.365,190.356 566.655,186.486 566.655,180.037 565.365,176.167 564.075,173.587 561.496,171.008 558.916,169.718 553.757,169.718 " />
<polyline points="557.626,191.646 565.365,199.385 " />
<polyline points="390.996,401.579 388.416,402.869 385.836,405.449 384.547,408.029 383.257,411.898 383.257,418.347 384.547,422.217 385.836,424.797 388.416,427.377 390.996,428.666 396.155,428.666 398.735,427.377 401.315,424.797 402.605,422.217 403.895,418.347 403.895,411.898 402.605,408.029 401.315,405.449 398.735,402.869 396.155,401.579 390.996,401.579 " />
<polyline points="394.866,423.507 402.605,431.246 " />
<polyline points="256.733,25.4985 254.154,22.9188 251.574,21.6289 247.704,21.6289 245.125,22.9188 242.545,25.4985 241.255,29.3682 241.255,31.9479 242.545,35.8175 245.125,38.3973 247.704,39.6871 251.574,39.6871 254.154,38.3973 256.733,35.8175 " />
<polyline points="531.94,21.0326 530.65,18.4529 526.781,17.163 522.911,17.163 519.042,18.4529 517.752,21.0326 519.042,23.6124 521.621,24.9023 528.071,26.1921 530.65,27.482 531.94,30.0618 531.94,31.3516 530.65,33.9314 526.781,35.2212 522.911,35.2212 519.042,33.9314 517.752,31.3516 " />
</g>
<g clip-path="url(#clipId0)" fill="none" stroke="rgb(0,0,0)" stroke-width="0.5" >
<polyline points="585.311,229.042 460.123,229.042 " />
</g>
<g clip-path="url(#clipId0)" fill="rgb(0,0,0)" stroke="rgb(0,0,0)" stroke-width="0.25" >
<path d="M509.02,534.792 513.199,538.971 498.573,549.419 498.573,549.419 z" />
</g>
<g clip-path="url(#clipId0)" fill="none" stroke="rgb(0,0,0)" stroke-width="0.5" >
<polyline points="770.667,562.822 788.397,562.822 " />
</g>
<g clip-path="url(#clipId0)" fill="rgb(0,0,0)" stroke="rgb(0,0,0)" stroke-width="0.25" >
<path d="M770.667,565.776 770.667,559.867 788.397,562.822 788.397,562.822 z" />
</g>
<g clip-path="url(#clipId0)" fill="none" stroke="rgb(0,0,0)" stroke-width="0.5" >
<polyline points="714.522,520.484 715.066,510.195 " />
<polyline points="788.397,521.408 787.361,510.195 " />
</g>
</svg>
