<?xml version="1.0" standalone="no"?>
<svg viewBox="0 0 1024 768" version="1.1" xmlns="http://www.w3.org/2000/svg" xmlns:xlink="http://www.w3.org/1999/xlink" stroke-linecap="round" stroke-linejoin="round" fill-rule="evenodd" xml:space="preserve" >
<defs >
<clipPath id="clipId0" >
<path d="M0,768 1024,768 1024,0 0,0 z" />
</clipPath>
</defs>
<g clip-path="url(#clipId0)" fill="none" stroke="rgb(0,0,0)" stroke-width="0.1" />
<g clip-path="url(#clipId0)" fill="none" stroke="rgb(0,0,0)" stroke-width="0.5" >
<polyline points="262.248,108.159 262.248,349.902 " />
<polyline points="473.123,349.902 483.462,360.241 " />
<polyline points="389.722,453.981 285.642,349.902 " />
<polyline points="496.517,349.902 496.517,108.159 " />
<polyline points="496.517,108.159 481.896,108.159 " />
<polyline points="496.517,349.902 481.896,349.902 " />
<polyline points="262.248,349.902 276.87,349.902 " />
<path d="M797.49,162.746  A54.5871,54.5871 0 0,0 688.316,162.746 " />
<path d="M688.316,295.315  A54.5871,54.5871 0 0,0 797.49,295.315 " />
<polyline points="797.49,162.746 797.49,295.315 " />
<polyline points="688.316,162.746 688.316,295.315 " />
<polyline points="481.896,349.902 481.896,108.159 " />
<polyline points="479.946,349.902 479.946,108.159 " />
<polyline points="479.946,108.159 278.819,108.159 " />
<path d="M481.896,108.159  A1.01538,1.01538 0 0,0 479.946,108.159 " />
<polyline points="479.946,349.902 473.123,349.902 " />
<path d="M479.946,349.902  A1.01538,1.01538 0 0,0 481.896,349.902 " />
<polyline points="278.819,108.159 278.819,349.902 " />
<polyline points="276.87,108.159 276.87,349.902 " />
<polyline points="276.87,108.159 262.248,108.159 " />
<path d="M278.819,108.159  A1.01538,1.01538 0 0,0 276.87,108.159 " />
<polyline points="278.819,349.902 285.642,349.902 " />
<path d="M276.87,349.902  A1.01538,1.01538 0 0,0 278.819,349.902 " />
<polyline points="484.84,361.619 391.1,455.36 " />
<polyline points="483.462,360.241 389.722,453.981 " />
<path d="M484.84,361.619  A1.01538,1.01538 0 0,0 483.462,360.241 " />
<path d="M389.722,453.981  A1.01538,1.01538 0 0,0 391.1,455.36 " />
<path d="M711.71,443.642  A33.0848,33.0848 0 0,0 774.096,443.642 " />
<path d="M774.096,394.015  A33.0848,33.0848 0 0,0 711.71,394.015 " />
<polyline points="774.096,394.015 774.096,443.642 " />
<polyline points="711.71,394.015 711.71,443.642 " />
<polyline points="774.096,340.112 774.096,394.015 " />
<polyline points="711.71,340.112 711.71,394.015 " />
<path d="M774.096,382.172  A33.0848,33.0848 0 0,0 711.71,382.172 " />
<path d="M774.096,383.676  A33.0848,33.0848 0 0,0 711.71,383.676 " />
<path d="M473.123,349.902  A453.676,453.676 0 0,0 285.642,349.902 " />
</g>
<g clip-path="url(#clipId0)" fill="none" stroke="rgb(0,0,0)" stroke-width="0.25" >
<polyline points="797.49,162.746 688.316,162.746 " stroke-dasharray="64.984591,12.996918,12.996918,12.996918" />
<polyline points="742.903,108.159 742.903,217.333 " stroke-dasharray="64.984591,12.996918,12.996918,12.996918" />
<polyline points="742.903,108.159 742.903,90.4745 " stroke-dasharray="64.984591,12.996918,12.996918,12.996918" />
<polyline points="797.49,162.746 818.671,162.746 " stroke-dasharray="64.984591,12.996918,12.996918,12.996918" />
<polyline points="688.316,162.746 665.944,162.746 " stroke-dasharray="64.984591,12.996918,12.996918,12.996918" />
<polyline points="797.49,295.315 818.671,295.315 " stroke-dasharray="64.984591,12.996918,12.996918,12.996918" />
<polyline points="797.49,295.315 688.316,295.315 " stroke-dasharray="64.984591,12.996918,12.996918,12.996918" />
<polyline points="742.903,349.902 742.903,240.728 " stroke-dasharray="64.984591,12.996918,12.996918,12.996918" />
<polyline points="742.903,349.902 742.903,465.699 " stroke-dasharray="64.984591,12.996918,12.996918,12.996918" />
<polyline points="688.316,295.315 665.944,295.315 " stroke-dasharray="64.984591,12.996918,12.996918,12.996918" />
<polyline points="742.903,217.333 742.903,240.728 " stroke-dasharray="64.984591,12.996918,12.996918,12.996918" />
<polyline points="689.861,676.831 685.405,672.375 678.721,670.147 669.808,670.147 663.124,672.375 658.668,676.831 658.668,681.287 660.896,685.743 663.124,687.971 667.58,690.199 678.721,694.655 683.177,696.883 685.405,699.112 687.633,703.568 687.633,710.252 685.405,712.48 678.721,714.708 669.808,714.708 665.352,712.48 663.124,710.252 658.668,710.252 " />
<polyline points="689.861,676.831 685.405,676.831 683.177,674.603 678.721,672.375 669.808,672.375 663.124,674.603 660.896,676.831 660.896,681.287 663.124,685.743 667.58,687.971 678.721,692.427 683.177,694.655 687.633,699.112 689.861,703.568 689.861,710.252 685.405,714.708 678.721,716.936 669.808,716.936 663.124,714.708 658.668,710.252 " />
<polyline points="705.457,670.147 705.457,716.936 " />
<polyline points="707.685,672.375 707.685,716.936 705.457,716.936 " />
<polyline points="705.457,670.147 732.194,670.147 " />
<polyline points="707.685,672.375 732.194,672.375 732.194,670.147 " />
<polyline points="707.685,692.427 721.053,692.427 721.053,694.655 " />
<polyline points="707.685,694.655 721.053,694.655 " />
<polyline points="747.79,670.147 745.562,690.199 " />
<polyline points="750.018,672.375 747.79,687.971 " />
<polyline points="747.79,670.147 770.07,670.147 770.07,672.375 " />
<polyline points="750.018,672.375 770.07,672.375 " />
<polyline points="747.79,687.971 754.474,685.743 761.158,685.743 767.842,687.971 772.298,692.427 774.526,699.112 774.526,703.568 772.298,710.252 767.842,714.708 761.158,716.936 754.474,716.936 747.79,714.708 745.562,712.48 743.334,708.024 745.562,708.024 " />
<polyline points="745.562,690.199 747.79,690.199 752.246,687.971 761.158,687.971 767.842,690.199 772.298,696.883 " />
<polyline points="763.386,687.971 770.07,692.427 772.298,699.112 772.298,703.568 770.07,710.252 763.386,714.708 " />
<polyline points="772.298,705.796 767.842,712.48 761.158,714.708 754.474,714.708 747.79,712.48 745.562,708.024 " />
<polyline points="752.246,714.708 745.562,710.252 " />
<polyline points="790.123,694.655 827.999,694.655 827.999,696.883 " />
<polyline points="790.123,694.655 790.123,696.883 827.999,696.883 " />
<polyline points="848.052,670.147 872.56,670.147 856.964,690.199 " />
<polyline points="848.052,670.147 848.052,672.375 870.332,672.375 " />
<polyline points="870.332,670.147 854.736,690.199 " />
<polyline points="856.964,687.971 861.42,687.971 868.104,690.199 872.56,694.655 874.788,701.34 874.788,703.568 872.56,710.252 868.104,714.708 861.42,716.936 854.736,716.936 848.052,714.708 845.824,712.48 843.596,708.024 845.824,708.024 " />
<polyline points="854.736,690.199 861.42,690.199 868.104,692.427 872.56,699.112 " />
<polyline points="863.648,690.199 870.332,694.655 872.56,701.34 872.56,703.568 870.332,710.252 863.648,714.708 " />
<polyline points="872.56,705.796 868.104,712.48 861.42,714.708 854.736,714.708 848.052,712.48 845.824,708.024 " />
<polyline points="852.508,714.708 845.824,710.252 " />
<polyline points="112.427,287.107 143.62,298.99 " />
<polyline points="112.427,287.107 143.62,275.224 " />
<polyline points="133.222,294.534 133.222,279.68 " />
<polyline points="122.825,238.09 143.62,221.751 " />
<polyline points="122.825,221.751 143.62,238.09 " />
<polyline points="122.825,163.822 143.62,163.822 " />
<polyline points="127.281,163.822 124.31,166.793 122.825,169.763 122.825,174.219 124.31,177.19 127.281,180.161 131.737,181.646 134.707,181.646 139.164,180.161 142.134,177.19 143.62,174.219 143.62,169.763 142.134,166.793 139.164,163.822 " />
</g>
<g clip-path="url(#clipId0)" fill="none" stroke="rgb(0,0,0)" stroke-width="0.5" >
<polyline points="391.1,455.36 484.84,361.619 " />
<polyline points="402.339,466.598 449.209,419.728 " />
<polyline points="402.339,466.598 391.1,455.36 " />
<polyline points="495.789,372.393 449.209,419.728 " />
<polyline points="495.789,372.393 484.84,361.619 " />
</g>
<g clip-path="url(#clipId0)" fill="none" stroke="rgb(0,0,0)" stroke-width="0.25" >
<polyline points="750.782,539.15 747.811,536.18 744.84,534.694 740.384,534.694 737.413,536.18 734.443,539.15 732.957,543.607 732.957,546.577 734.443,551.033 737.413,554.004 740.384,555.489 744.84,555.489 747.811,554.004 750.782,551.033 " />
<polyline points="467.241,355.784 385.327,437.698 " />
</g>
<g clip-path="url(#clipId0)" fill="none" stroke="rgb(0,0,0)" stroke-width="0.5" >
<polyline points="445.553,229.031 567.214,229.031 " />
<polyline points="320.377,229.031 192.148,229.031 " />
<polyline points="397.17,367.223 495.701,465.754 " />
</g>
<g clip-path="url(#clipId0)" fill="rgb(0,0,0)" stroke="rgb(0,0,0)" stroke-width="0.25" >
<path d="M290.432,224.04 290.432,234.021 320.377,229.031 320.377,229.031 z" />
<path d="M537.269,224.04 537.269,234.021 567.214,229.031 567.214,229.031 z" />
<path d="M478.49,440.747 471.31,447.681 495.701,465.754 495.701,465.754 z" />
</g>
<g clip-path="url(#clipId0)" fill="none" stroke="rgb(0,0,0)" stroke-width="0.5" >
<polyline points="507.624,384.229 563.685,440.289 " />
<polyline points="413.797,478.056 469.857,534.117 " />
<polyline points="469.857,534.117 563.685,440.289 " />
<polyline points="715.01,760.471 715.01,760.471 " />
<polyline points="711.71,468.521 711.71,512.344 " />
<polyline points="711.71,512.344 774.312,512.344 " />
<polyline points="774.312,512.344 774.175,469.005 " />
</g>
<g clip-path="url(#clipId0)" fill="rgb(0,0,0)" stroke="rgb(0,0,0)" stroke-width="0.25" >
<path d="M538.981,457.934 546.039,464.993 563.685,440.289 563.685,440.289 z" />
<path d="M494.561,516.471 487.502,509.413 469.857,534.117 469.857,534.117 z" />
<path d="M861.749,138.104 871.73,138.104 866.74,108.159 866.74,108.159 z" />
<path d="M871.73,319.957 861.749,319.957 866.74,349.902 866.74,349.902 z" />
<path d="M681.765,507.353 681.765,517.335 711.71,512.344 711.71,512.344 z" />
<path d="M804.256,517.335 804.256,507.353 774.312,512.344 774.312,512.344 z" />
</g>
<g clip-path="url(#clipId0)" fill="none" stroke="rgb(0,0,0)" stroke-width="0.5" >
<polyline points="262.248,108.159 262.248,349.902 " />
<polyline points="244.482,108.159 166.94,108.159 " />
<polyline points="166.94,108.159 166.94,350.981 " />
<polyline points="166.94,350.826 244.482,350.074 " />
</g>
<g clip-path="url(#clipId0)" fill="rgb(0,0,0)" stroke="rgb(0,0,0)" stroke-width="0.25" >
<path d="M161.95,138.104 171.931,138.104 166.94,108.159 166.94,108.159 z" />
<path d="M171.931,321.036 161.95,321.036 166.94,350.981 166.94,350.981 z" />
</g>
<g clip-path="url(#clipId0)" fill="none" stroke="rgb(0,0,0)" stroke-width="0.25" >
<polyline points="507.6,539.335 504.449,538.285 500.248,538.285 497.097,539.335 492.895,543.537 491.845,546.687 491.845,550.889 492.895,554.04 494.996,558.241 500.248,563.492 504.449,565.593 507.6,566.643 511.801,566.643 514.952,565.593 519.153,561.392 520.204,558.241 520.204,554.04 519.153,550.889 " />
<polyline points="538.059,513.078 564.317,516.229 " />
<polyline points="549.612,501.524 552.763,527.782 " />
<polyline points="593.725,463.713 589.524,463.713 586.373,464.763 583.222,467.914 582.172,471.065 582.172,475.266 584.272,479.468 586.373,481.568 590.574,483.669 594.776,483.669 597.926,482.619 601.077,479.468 602.128,476.317 602.128,472.116 " />
<polyline points="899.69,209.233 887.807,240.426 " />
<polyline points="899.69,209.233 911.573,240.426 " />
<polyline points="892.263,230.028 907.117,230.028 " />
</g>
<g clip-path="url(#clipId0)" fill="none" stroke="rgb(0,0,0)" stroke-width="0.5" >
<polyline points="715.494,349.599 721.244,349.599 " />
<polyline points="688.316,141.29 688.316,40.7769 " />
<polyline points="688.316,40.7769 797.49,40.7769 " />
<polyline points="797.49,141.29 797.49,40.7769 " />
</g>
<g clip-path="url(#clipId0)" fill="rgb(0,0,0)" stroke="rgb(0,0,0)" stroke-width="0.25" >
<path d="M718.261,45.7677 718.261,35.7861 688.316,40.7769 688.316,40.7769 z" />
<path d="M767.545,35.7861 767.545,45.7677 797.49,40.7769 797.49,40.7769 z" />
</g>
<g clip-path="url(#clipId0)" fill="none" stroke="rgb(0,0,0)" stroke-width="0.25" >
<polyline points="750.073,7.52941 750.073,28.3245 " />
<polyline points="750.073,11.9855 747.102,9.01477 744.131,7.52941 739.675,7.52941 736.705,9.01477 733.734,11.9855 732.249,16.4416 732.249,19.4123 733.734,23.8684 736.705,26.8391 739.675,28.3245 744.131,28.3245 747.102,26.8391 750.073,23.8684 " />
</g>
<g clip-path="url(#clipId0)" fill="none" stroke="rgb(0,0,0)" stroke-width="0.5" >
<polyline points="262.248,108.159 262.248,71.2645 " />
<polyline points="496.517,108.159 496.517,71.2645 " />
<polyline points="374.794,494.142 402.339,466.598 " />
</g>
<g clip-path="url(#clipId0)" fill="none" stroke="rgb(0,0,0)" stroke-width="0.25" >
<polyline points="516.807,151.103 513.836,152.588 510.866,155.559 509.38,158.53 507.895,162.986 507.895,170.412 509.38,174.869 510.866,177.839 513.836,180.81 516.807,182.295 522.748,182.295 525.719,180.81 528.69,177.839 530.175,174.869 531.661,170.412 531.661,162.986 530.175,158.53 528.69,155.559 525.719,152.588 522.748,151.103 516.807,151.103 " />
<polyline points="521.263,176.354 530.175,185.266 " />
<polyline points="484.36,400.809 481.389,402.294 478.418,405.265 476.933,408.236 475.448,412.692 475.448,420.119 476.933,424.575 478.418,427.545 481.389,430.516 484.36,432.001 490.301,432.001 493.272,430.516 496.243,427.545 497.728,424.575 499.213,420.119 499.213,412.692 497.728,408.236 496.243,405.265 493.272,402.294 490.301,400.809 484.36,400.809 " />
<polyline points="488.816,426.06 497.728,434.972 " />
<polyline points="207.311,161.091 204.34,162.576 201.369,165.547 199.884,168.518 198.399,172.974 198.399,180.401 199.884,184.857 201.369,187.828 204.34,190.798 207.311,192.284 213.252,192.284 216.223,190.798 219.194,187.828 220.679,184.857 222.164,180.401 222.164,172.974 220.679,168.518 219.194,165.547 216.223,162.576 213.252,161.091 207.311,161.091 " />
<polyline points="211.767,186.342 220.679,195.254 " />
<polyline points="499.904,39.4532 498.419,36.4824 493.962,34.9971 489.506,34.9971 485.05,36.4824 483.565,39.4532 485.05,42.4239 488.021,43.9093 495.448,45.3946 498.419,46.88 499.904,49.8507 499.904,51.3361 498.419,54.3068 493.962,55.7922 489.506,55.7922 485.05,54.3068 483.565,51.3361 " />
<polyline points="350.538,496.544 350.538,527.737 " />
<polyline points="350.538,511.398 353.508,508.427 356.479,506.942 360.935,506.942 363.906,508.427 366.877,511.398 368.362,515.854 368.362,518.824 366.877,523.281 363.906,526.251 360.935,527.737 356.479,527.737 353.508,526.251 350.538,523.281 " />
<polyline points="273.516,39.4532 270.546,36.4824 267.575,34.9971 263.119,34.9971 260.148,36.4824 257.177,39.4532 255.692,43.9093 255.692,46.88 257.177,51.3361 260.148,54.3068 263.119,55.7922 267.575,55.7922 270.546,54.3068 273.516,51.3361 " />
<polyline points="557.311,191.774 555.825,188.803 551.369,187.318 546.913,187.318 542.457,188.803 540.972,191.774 542.457,194.745 545.428,196.23 552.854,197.715 555.825,199.201 557.311,202.171 557.311,203.657 555.825,206.628 551.369,208.113 546.913,208.113 542.457,206.628 540.972,203.657 " />
<polyline points="510.278,424.129 510.278,455.322 " />
<polyline points="510.278,438.983 513.248,436.012 516.219,434.527 520.675,434.527 523.646,436.012 526.617,438.983 528.102,443.439 528.102,446.41 526.617,450.866 523.646,453.837 520.675,455.322 516.219,455.322 513.248,453.837 510.278,450.866 " />
<polyline points="246.061,194.271 243.09,191.3 240.12,189.815 235.663,189.815 232.693,191.3 229.722,194.271 228.237,198.727 228.237,201.698 229.722,206.154 232.693,209.125 235.663,210.61 240.12,210.61 243.09,209.125 246.061,206.154 " />
</g>
<g clip-path="url(#clipId0)" fill="none" stroke="rgb(0,0,0)" stroke-width="0.5" >
<polyline points="742.903,108.159 866.74,108.159 " />
<polyline points="866.74,108.159 866.74,347.722 " />
<polyline points="742.903,349.902 866.74,349.902 " />
</g>
</svg>
