<?xml version="1.0" standalone="no"?>
<svg viewBox="0 0 1024 768" version="1.1" xmlns="http://www.w3.org/2000/svg" xmlns:xlink="http://www.w3.org/1999/xlink" stroke-linecap="round" stroke-linejoin="round" fill-rule="evenodd" xml:space="preserve" >
<defs >
<clipPath id="clipId0" >
<path d="M0,768 1024,768 1024,0 0,0 z" />
</clipPath>
</defs>
<g clip-path="url(#clipId0)" fill="none" stroke="rgb(0,0,0)" stroke-width="0.1" />
<g clip-path="url(#clipId0)" fill="none" stroke="rgb(0,0,0)" stroke-width="0.5" >
<polyline points="244.911,113.571 244.911,424.583 " />
<polyline points="475.663,113.571 475.663,424.583 " />
<polyline points="275.009,454.681 445.565,454.681 " />
<polyline points="687.573,183.799 687.573,354.355 " />
<polyline points="828.03,183.799 828.03,354.355 " />
<path d="M828.03,183.799  A70.2287,70.2287 0 0,0 687.573,183.799 " />
<path d="M687.573,354.355  A70.2287,70.2287 0 0,0 828.03,354.355 " />
<polyline points="797.932,454.681 717.671,454.681 " />
<polyline points="275.009,435.87 445.565,435.87 " />
<polyline points="275.009,433.362 445.565,433.362 " />
<path d="M275.009,433.362  A1.30634,1.30634 0 0,0 275.009,435.87 " />
<path d="M445.565,435.87  A1.30634,1.30634 0 0,0 445.565,433.362 " />
<polyline points="275.009,435.87 275.009,454.681 " />
<polyline points="275.009,433.362 275.009,424.583 " />
<path d="M445.565,424.583  A294.986,294.986 0 0,0 275.009,424.583 " />
<polyline points="445.565,433.362 445.565,424.583 " />
<polyline points="445.565,435.87 445.565,454.681 " />
<polyline points="263.722,113.571 263.722,424.583 " />
<polyline points="266.231,113.571 266.231,424.583 " />
<path d="M266.231,113.571  A1.30634,1.30634 0 0,0 263.722,113.571 " />
<path d="M263.722,424.583  A1.30634,1.30634 0 0,0 266.231,424.583 " />
<polyline points="263.722,424.583 244.911,424.583 " />
<polyline points="275.009,424.583 266.231,424.583 " />
<polyline points="263.722,113.571 244.911,113.571 " />
<polyline points="275.009,113.571 266.231,113.571 " />
<polyline points="275.009,113.571 360.287,113.571 " />
<polyline points="456.851,113.571 475.663,113.571 " />
<polyline points="445.565,113.571 360.287,113.571 " />
<polyline points="445.565,113.571 454.343,113.571 " />
<polyline points="454.343,113.571 454.343,424.583 " />
<polyline points="456.851,113.571 456.851,424.583 " />
<polyline points="456.851,424.583 475.663,424.583 " />
<polyline points="445.565,424.583 454.343,424.583 " />
<polyline points="717.671,433.362 797.932,433.362 " />
<polyline points="717.671,435.87 797.932,435.87 " />
<path d="M717.671,433.362  A1.30634,1.30634 0 0,0 717.671,435.87 " />
<path d="M797.932,435.87  A1.30634,1.30634 0 0,0 797.932,433.362 " />
<polyline points="717.671,411.988 717.671,433.362 " />
<polyline points="717.671,435.87 717.671,454.681 " />
<polyline points="797.932,411.988 797.932,433.362 " />
<polyline points="797.932,435.87 797.932,454.681 " />
</g>
<g clip-path="url(#clipId0)" fill="none" stroke="rgb(0,0,0)" stroke-width="0.25" >
<polyline points="687.573,183.799 828.03,183.799 " stroke-dasharray="129.021030,25.804206,25.804206,25.804206" />
<polyline points="757.801,113.571 757.801,254.028 " stroke-dasharray="129.021030,25.804206,25.804206,25.804206" />
<polyline points="757.801,113.571 757.801,82.5448 " stroke-dasharray="129.021030,25.804206,25.804206,25.804206" />
<polyline points="687.573,183.799 655.006,183.799 " stroke-dasharray="129.021030,25.804206,25.804206,25.804206" />
<polyline points="828.03,183.799 870.129,183.799 " stroke-dasharray="129.021030,25.804206,25.804206,25.804206" />
<polyline points="757.801,424.583 757.801,455.609 " stroke-dasharray="129.021030,25.804206,25.804206,25.804206" />
<polyline points="757.801,424.583 757.801,284.126 " stroke-dasharray="129.021030,25.804206,25.804206,25.804206" />
<polyline points="687.573,354.355 828.03,354.355 " stroke-dasharray="129.021030,25.804206,25.804206,25.804206" />
<polyline points="687.573,354.355 655.006,354.355 " stroke-dasharray="129.021030,25.804206,25.804206,25.804206" />
<polyline points="828.03,354.355 870.129,354.355 " stroke-dasharray="129.021030,25.804206,25.804206,25.804206" />
<polyline points="757.801,254.028 757.801,284.126 " stroke-dasharray="129.021030,25.804206,25.804206,25.804206" />
<polyline points="757.801,454.681 757.801,481.742 " stroke-dasharray="129.021030,25.804206,25.804206,25.804206" />
<polyline points="475.663,269.077 512.545,269.077 " stroke-dasharray="129.021030,25.804206,25.804206,25.804206" />
<polyline points="244.911,269.077 209.34,269.077 " stroke-dasharray="129.021030,25.804206,25.804206,25.804206" />
<polyline points="394.748,492.367 394.748,519.121 " />
<polyline points="394.748,505.107 397.296,502.559 399.844,501.285 403.666,501.285 406.214,502.559 408.762,505.107 410.036,508.929 410.036,511.477 408.762,515.299 406.214,517.847 403.666,519.121 399.844,519.121 397.296,517.847 394.748,515.299 " />
</g>
<g clip-path="url(#clipId0)" fill="none" stroke="rgb(0,0,0)" stroke-width="0.5" >
<path d="M454.343,424.583  A1.30634,1.30634 0 0,0 456.851,424.583 " />
<path d="M456.851,113.571  A1.30634,1.30634 0 0,0 454.343,113.571 " />
</g>
<g clip-path="url(#clipId0)" fill="none" stroke="rgb(0,0,0)" stroke-width="0.25" >
<polyline points="698.104,708.874 692.371,703.141 683.771,700.275 672.305,700.275 663.706,703.141 657.973,708.874 657.973,714.607 660.839,720.34 663.706,723.206 669.439,726.073 683.771,731.806 689.504,734.672 692.371,737.539 695.237,743.272 695.237,751.871 692.371,754.738 683.771,757.604 672.305,757.604 666.572,754.738 663.706,751.871 657.973,751.871 " />
<polyline points="698.104,708.874 692.371,708.874 689.504,706.007 683.771,703.141 672.305,703.141 663.706,706.007 660.839,708.874 660.839,714.607 663.706,720.34 669.439,723.206 683.771,728.939 689.504,731.806 695.237,737.539 698.104,743.272 698.104,751.871 692.371,757.604 683.771,760.471 672.305,760.471 663.706,757.604 657.973,751.871 " />
<polyline points="718.169,700.275 718.169,760.471 " />
<polyline points="721.035,703.141 721.035,760.471 718.169,760.471 " />
<polyline points="718.169,700.275 752.567,700.275 " />
<polyline points="721.035,703.141 752.567,703.141 752.567,700.275 " />
<polyline points="721.035,728.939 738.234,728.939 738.234,731.806 " />
<polyline points="721.035,731.806 738.234,731.806 " />
<polyline points="772.632,700.275 769.766,726.073 " />
<polyline points="775.498,703.141 772.632,723.206 " />
<polyline points="772.632,700.275 801.297,700.275 801.297,703.141 " />
<polyline points="775.498,703.141 801.297,703.141 " />
<polyline points="772.632,723.206 781.231,720.34 789.831,720.34 798.43,723.206 804.163,728.939 807.03,737.539 807.03,743.272 804.163,751.871 798.43,757.604 789.831,760.471 781.231,760.471 772.632,757.604 769.766,754.738 766.899,749.005 769.766,749.005 " />
<polyline points="769.766,726.073 772.632,726.073 778.365,723.206 789.831,723.206 798.43,726.073 804.163,734.672 " />
<polyline points="792.697,723.206 801.297,728.939 804.163,737.539 804.163,743.272 801.297,751.871 792.697,757.604 " />
<polyline points="804.163,746.138 798.43,754.738 789.831,757.604 781.231,757.604 772.632,754.738 769.766,749.005 " />
<polyline points="778.365,757.604 769.766,751.871 " />
<polyline points="827.095,731.806 875.825,731.806 875.825,734.672 " />
<polyline points="827.095,731.806 827.095,734.672 875.825,734.672 " />
<polyline points="904.49,711.74 910.223,708.874 918.822,700.275 918.822,760.471 " />
<polyline points="904.49,711.74 904.49,714.607 910.223,711.74 915.956,706.007 915.956,760.471 918.822,760.471 " />
</g>
<g clip-path="url(#clipId0)" fill="none" stroke="rgb(0,0,0)" stroke-width="0.5" >
<polyline points="360.287,454.681 360.287,557.494 " />
<polyline points="244.692,269.037 244.732,269.077 " />
<polyline points="241.804,268.514 242.367,269.077 " />
<polyline points="238.917,267.991 240.002,269.077 " />
<polyline points="236.029,267.468 237.638,269.077 " />
<polyline points="233.141,266.945 235.273,269.077 " />
<polyline points="230.253,266.422 232.908,269.077 " />
<polyline points="227.366,265.899 230.544,269.077 " />
<polyline points="224.478,265.376 228.179,269.077 " />
<polyline points="221.59,264.853 225.814,269.077 " />
<polyline points="218.702,264.33 223.449,269.077 " />
<polyline points="215.815,263.807 221.085,269.077 " />
<polyline points="244.732,269.077 244.759,269.104 " />
<polyline points="242.367,269.077 242.757,269.467 " />
<polyline points="240.002,269.077 240.755,269.83 " />
<polyline points="237.638,269.077 238.753,270.192 " />
<polyline points="235.273,269.077 236.751,270.555 " />
<polyline points="232.908,269.077 234.749,270.918 " />
<polyline points="230.544,269.077 232.747,271.28 " />
<polyline points="228.179,269.077 230.745,271.643 " />
<polyline points="225.814,269.077 228.743,272.005 " />
<polyline points="223.449,269.077 226.74,272.368 " />
<polyline points="221.085,269.077 224.738,272.731 " />
<polyline points="215.027,265.384 218.72,269.077 " />
<polyline points="215.027,267.749 216.355,269.077 " />
<polyline points="218.72,269.077 222.736,273.093 " />
<polyline points="216.355,269.077 220.734,273.456 " />
<polyline points="215.027,270.114 218.732,273.819 " />
<polyline points="215.027,272.479 216.73,274.181 " />
<polyline points="244.911,269.077 142.099,269.077 " />
<polyline points="244.911,269.077 244.911,269.077 " />
<polyline points="244.911,269.077 244.911,269.077 " />
<polyline points="244.911,269.077 244.911,269.077 " />
<polyline points="244.911,269.077 244.911,269.077 " />
<polyline points="244.911,269.077 244.911,269.077 " />
<polyline points="244.911,269.077 244.911,269.077 " />
<polyline points="244.911,269.077 244.911,269.077 " />
<polyline points="244.911,269.077 244.911,269.077 " />
<polyline points="244.911,269.077 244.911,269.077 " />
<polyline points="244.911,269.077 244.911,269.077 " />
<polyline points="244.911,269.077 244.911,269.077 " />
<polyline points="244.911,269.077 244.911,269.077 " />
<polyline points="244.911,269.077 244.911,269.077 " />
<polyline points="244.911,269.077 244.911,269.077 " />
<polyline points="244.911,269.077 244.911,269.077 " />
<polyline points="244.911,269.077 244.911,269.077 " />
<polyline points="244.911,269.077 215.027,263.664 " />
<polyline points="215.027,263.664 215.027,263.664 " />
<polyline points="215.027,274.49 215.027,274.49 " />
<polyline points="215.027,274.49 215.027,274.49 " />
<polyline points="244.911,269.077 215.027,274.49 " />
<polyline points="215.027,263.664 215.027,274.49 " />
</g>
<g clip-path="url(#clipId0)" fill="none" stroke="rgb(0,0,0)" stroke-width="0.25" >
<polyline points="578.475,269.077 521.584,269.077 " stroke-dasharray="129.021030,25.804206,25.804206,25.804206" />
</g>
<g clip-path="url(#clipId0)" fill="none" stroke="rgb(0,0,0)" stroke-width="0.5" >
<polyline points="578.256,269.037 578.296,269.077 " />
<polyline points="575.368,268.514 575.931,269.077 " />
<polyline points="572.481,267.991 573.566,269.077 " />
<polyline points="569.593,267.468 571.202,269.077 " />
<polyline points="566.705,266.945 568.837,269.077 " />
<polyline points="563.817,266.422 566.472,269.077 " />
<polyline points="560.93,265.899 564.107,269.077 " />
<polyline points="558.042,265.376 561.743,269.077 " />
<polyline points="555.154,264.853 559.378,269.077 " />
<polyline points="552.266,264.33 557.013,269.077 " />
<polyline points="549.379,263.807 554.648,269.077 " />
<polyline points="578.296,269.077 578.323,269.104 " />
<polyline points="575.931,269.077 576.321,269.467 " />
<polyline points="573.566,269.077 574.319,269.83 " />
<polyline points="571.202,269.077 572.317,270.192 " />
<polyline points="568.837,269.077 570.315,270.555 " />
<polyline points="566.472,269.077 568.313,270.918 " />
<polyline points="564.107,269.077 566.311,271.28 " />
<polyline points="561.743,269.077 564.309,271.643 " />
<polyline points="559.378,269.077 562.306,272.005 " />
<polyline points="557.013,269.077 560.304,272.368 " />
<polyline points="554.648,269.077 558.302,272.731 " />
<polyline points="548.591,265.384 552.284,269.077 " />
<polyline points="548.591,267.749 549.919,269.077 " />
<polyline points="552.284,269.077 556.3,273.093 " />
<polyline points="549.919,269.077 554.298,273.456 " />
<polyline points="548.591,270.114 552.296,273.819 " />
<polyline points="548.591,272.479 550.294,274.181 " />
<polyline points="557.156,269.077 475.663,269.077 " />
<polyline points="578.475,269.077 578.475,269.077 " />
<polyline points="578.475,269.077 578.475,269.077 " />
<polyline points="578.475,269.077 578.475,269.077 " />
<polyline points="578.475,269.077 578.475,269.077 " />
<polyline points="578.475,269.077 578.475,269.077 " />
<polyline points="578.475,269.077 578.475,269.077 " />
<polyline points="578.475,269.077 578.475,269.077 " />
<polyline points="578.475,269.077 578.475,269.077 " />
<polyline points="578.475,269.077 578.475,269.077 " />
<polyline points="578.475,269.077 578.475,269.077 " />
<polyline points="578.475,269.077 578.475,269.077 " />
<polyline points="578.475,269.077 578.475,269.077 " />
<polyline points="578.475,269.077 578.475,269.077 " />
<polyline points="578.475,269.077 578.475,269.077 " />
<polyline points="578.475,269.077 578.475,269.077 " />
<polyline points="578.475,269.077 578.475,269.077 " />
<polyline points="578.475,269.077 548.591,263.664 " />
<polyline points="548.591,263.664 548.591,263.664 " />
<polyline points="548.591,274.49 548.591,274.49 " />
<polyline points="548.591,274.49 548.591,274.49 " />
<polyline points="578.475,269.077 548.591,274.49 " />
<polyline points="548.591,263.664 548.591,274.49 " />
</g>
<g clip-path="url(#clipId0)" fill="none" stroke="rgb(0,0,0)" stroke-width="0.25" >
<polyline points="482.988,30.7575 481.714,28.2095 477.892,26.9356 474.07,26.9356 470.248,28.2095 468.974,30.7575 470.248,33.3055 472.796,34.5795 479.166,35.8535 481.714,37.1275 482.988,39.6755 482.988,40.9494 481.714,43.4974 477.892,44.7714 474.07,44.7714 470.248,43.4974 468.974,40.9494 " />
<polyline points="254.241,26.5288 251.693,23.9808 249.145,22.7068 245.323,22.7068 242.775,23.9808 240.227,26.5288 238.953,30.3508 238.953,32.8988 240.227,36.7207 242.775,39.2687 245.323,40.5427 249.145,40.5427 251.693,39.2687 254.241,36.7207 " />
<polyline points="520.871,439.022 520.871,465.776 " />
<polyline points="520.871,451.762 523.419,449.214 525.967,447.94 529.789,447.94 532.337,449.214 534.885,451.762 536.159,455.584 536.159,458.132 534.885,461.954 532.337,464.502 529.789,465.776 525.967,465.776 523.419,464.502 520.871,461.954 " />
<polyline points="72.5692,316.258 99.323,326.45 " />
<polyline points="72.5692,316.258 99.323,306.066 " />
<polyline points="90.4051,322.628 90.4051,309.888 " />
<polyline points="81.4871,274.216 99.323,260.203 " />
<polyline points="81.4871,260.203 99.323,274.216 " />
<polyline points="81.4871,210.517 99.323,210.517 " />
<polyline points="85.3091,210.517 82.7611,213.065 81.4871,215.613 81.4871,219.435 82.7611,221.983 85.3091,224.531 89.1311,225.805 91.6791,225.805 95.501,224.531 98.049,221.983 99.323,219.435 99.323,215.613 98.049,213.065 95.501,210.517 " />
<polyline points="322.378,619.265 321.104,616.717 318.556,614.169 316.008,612.895 310.912,612.895 308.364,614.169 305.816,616.717 304.542,619.265 303.268,623.087 303.268,629.457 304.542,633.279 305.816,635.827 308.364,638.375 310.912,639.649 316.008,639.649 318.556,638.375 321.104,635.827 322.378,633.279 " />
<polyline points="356.776,621.813 370.789,639.649 " />
<polyline points="370.789,621.813 356.776,639.649 " />
<polyline points="420.475,625.635 417.927,623.087 415.379,621.813 411.557,621.813 409.009,623.087 406.461,625.635 405.187,629.457 405.187,632.005 406.461,635.827 409.009,638.375 411.557,639.649 415.379,639.649 417.927,638.375 420.475,635.827 " />
<polyline points="377.813,477.336 375.265,478.61 372.717,481.158 371.443,483.706 370.169,487.528 370.169,493.898 371.443,497.72 372.717,500.268 375.265,502.816 377.813,504.09 382.909,504.09 385.457,502.816 388.005,500.268 389.279,497.72 390.553,493.898 390.553,487.528 389.279,483.706 388.005,481.158 385.457,478.61 382.909,477.336 377.813,477.336 " />
<polyline points="381.635,498.994 389.279,506.638 " />
<polyline points="210.224,311.732 207.676,309.184 205.128,307.91 201.306,307.91 198.758,309.184 196.21,311.732 194.936,315.554 194.936,318.102 196.21,321.924 198.758,324.472 201.306,325.746 205.128,325.746 207.676,324.472 210.224,321.924 " />
<polyline points="509.684,283.843 507.136,285.117 504.588,287.665 503.314,290.213 502.04,294.035 502.04,300.405 503.314,304.227 504.588,306.775 507.136,309.323 509.684,310.597 514.78,310.597 517.328,309.323 519.876,306.775 521.15,304.227 522.424,300.405 522.424,294.035 521.15,290.213 519.876,287.665 517.328,285.117 514.78,283.843 509.684,283.843 " />
<polyline points="513.506,305.501 521.15,313.145 " />
<polyline points="547.146,313.769 545.872,311.221 542.05,309.947 538.228,309.947 534.406,311.221 533.132,313.769 534.406,316.317 536.954,317.591 543.324,318.865 545.872,320.138 547.146,322.686 547.146,323.96 545.872,326.508 542.05,327.782 538.228,327.782 534.406,326.508 533.132,323.96 " />
<polyline points="172.44,288.168 169.892,289.442 167.344,291.99 166.07,294.538 164.796,298.36 164.796,304.73 166.07,308.552 167.344,311.1 169.892,313.648 172.44,314.922 177.536,314.922 180.084,313.648 182.632,311.1 183.906,308.552 185.18,304.73 185.18,298.36 183.906,294.538 182.632,291.99 180.084,289.442 177.536,288.168 172.44,288.168 " />
<polyline points="176.262,309.826 183.906,317.47 " />
</g>
<g clip-path="url(#clipId0)" fill="none" stroke="rgb(0,0,0)" stroke-width="0.5" >
<polyline points="224.919,113.571 110.79,113.571 " />
<polyline points="110.79,113.571 110.79,422.702 " />
<polyline points="110.79,422.702 223.913,424.289 " />
<polyline points="275.009,470.528 275.009,595.702 " />
<polyline points="275.009,595.702 445.872,595.702 " />
<polyline points="445.872,595.702 445.6,471.061 " />
<polyline points="110.751,113.789 110.79,113.75 " />
<polyline points="110.228,116.677 110.79,116.115 " />
<polyline points="109.705,119.565 110.79,118.479 " />
<polyline points="109.182,122.453 110.79,120.844 " />
<polyline points="108.659,125.34 110.79,123.209 " />
<polyline points="108.136,128.228 110.79,125.573 " />
<polyline points="107.613,131.116 110.79,127.938 " />
<polyline points="107.09,134.004 110.79,130.303 " />
<polyline points="106.567,136.892 110.79,132.668 " />
<polyline points="106.043,139.779 110.79,135.032 " />
<polyline points="105.52,142.667 110.79,137.397 " />
<polyline points="110.79,113.75 110.818,113.722 " />
<polyline points="110.79,116.115 111.181,115.724 " />
<polyline points="110.79,118.479 111.543,117.727 " />
<polyline points="110.79,120.844 111.906,119.729 " />
<polyline points="110.79,123.209 112.268,121.731 " />
<polyline points="110.79,125.573 112.631,123.733 " />
<polyline points="110.79,127.938 112.994,125.735 " />
<polyline points="110.79,130.303 113.356,127.737 " />
<polyline points="110.79,132.668 113.719,129.739 " />
<polyline points="110.79,135.032 114.082,131.741 " />
<polyline points="110.79,137.397 114.444,133.743 " />
<polyline points="107.098,143.454 110.79,139.762 " />
<polyline points="109.463,143.454 110.79,142.127 " />
<polyline points="110.79,139.762 114.807,135.745 " />
<polyline points="110.79,142.127 115.169,137.748 " />
<polyline points="111.827,143.454 115.532,139.75 " />
<polyline points="114.192,143.454 115.895,141.752 " />
<polyline points="110.79,113.571 110.79,113.571 " />
<polyline points="110.79,113.571 110.79,113.571 " />
<polyline points="110.79,113.571 110.79,113.571 " />
<polyline points="110.79,113.571 110.79,113.571 " />
<polyline points="110.79,113.571 110.79,113.571 " />
<polyline points="110.79,113.571 110.79,113.571 " />
<polyline points="110.79,113.571 110.79,113.571 " />
<polyline points="110.79,113.571 110.79,113.571 " />
<polyline points="110.79,113.571 110.79,113.571 " />
<polyline points="110.79,113.571 110.79,113.571 " />
<polyline points="110.79,113.571 110.79,113.571 " />
<polyline points="110.79,113.571 110.79,113.571 " />
<polyline points="110.79,113.571 110.79,113.571 " />
<polyline points="110.79,113.571 110.79,113.571 " />
<polyline points="110.79,113.571 110.79,113.571 " />
<polyline points="110.79,113.571 110.79,113.571 " />
<polyline points="110.79,113.571 105.378,143.454 " />
<polyline points="105.378,143.454 105.378,143.454 " />
<polyline points="116.203,143.454 116.203,143.454 " />
<polyline points="116.203,143.454 116.203,143.454 " />
<polyline points="110.79,113.571 116.203,143.454 " />
<polyline points="105.378,143.454 116.203,143.454 " />
<polyline points="110.83,422.483 110.79,422.523 " />
<polyline points="111.353,419.595 110.79,420.158 " />
<polyline points="111.876,416.708 110.79,417.793 " />
<polyline points="112.399,413.82 110.79,415.429 " />
<polyline points="112.922,410.932 110.79,413.064 " />
<polyline points="113.445,408.044 110.79,410.699 " />
<polyline points="113.968,405.157 110.79,408.335 " />
<polyline points="114.491,402.269 110.79,405.97 " />
<polyline points="115.014,399.381 110.79,403.605 " />
<polyline points="115.537,396.493 110.79,401.24 " />
<polyline points="116.06,393.606 110.79,398.876 " />
<polyline points="110.79,422.523 110.763,422.55 " />
<polyline points="110.79,420.158 110.4,420.548 " />
<polyline points="110.79,417.793 110.038,418.546 " />
<polyline points="110.79,415.429 109.675,416.544 " />
<polyline points="110.79,413.064 109.312,414.542 " />
<polyline points="110.79,410.699 108.95,412.54 " />
<polyline points="110.79,408.335 108.587,410.538 " />
<polyline points="110.79,405.97 108.225,408.536 " />
<polyline points="110.79,403.605 107.862,406.534 " />
<polyline points="110.79,401.24 107.499,404.531 " />
<polyline points="110.79,398.876 107.137,402.529 " />
<polyline points="114.483,392.818 110.79,396.511 " />
<polyline points="112.118,392.818 110.79,394.146 " />
<polyline points="110.79,396.511 106.774,400.527 " />
<polyline points="110.79,394.146 106.411,398.525 " />
<polyline points="109.753,392.818 106.049,396.523 " />
<polyline points="107.389,392.818 105.686,394.521 " />
<polyline points="110.79,422.702 110.79,422.702 " />
<polyline points="110.79,422.702 110.79,422.702 " />
<polyline points="110.79,422.702 110.79,422.702 " />
<polyline points="110.79,422.702 110.79,422.702 " />
<polyline points="110.79,422.702 110.79,422.702 " />
<polyline points="110.79,422.702 110.79,422.702 " />
<polyline points="110.79,422.702 110.79,422.702 " />
<polyline points="110.79,422.702 110.79,422.702 " />
<polyline points="110.79,422.702 110.79,422.702 " />
<polyline points="110.79,422.702 110.79,422.702 " />
<polyline points="110.79,422.702 110.79,422.702 " />
<polyline points="110.79,422.702 110.79,422.702 " />
<polyline points="110.79,422.702 110.79,422.702 " />
<polyline points="110.79,422.702 110.79,422.702 " />
<polyline points="110.79,422.702 110.79,422.702 " />
<polyline points="110.79,422.702 110.79,422.702 " />
<polyline points="110.79,422.702 116.203,392.818 " />
<polyline points="116.203,392.818 116.203,392.818 " />
<polyline points="105.378,392.818 105.378,392.818 " />
<polyline points="105.378,392.818 105.378,392.818 " />
<polyline points="110.79,422.702 105.378,392.818 " />
<polyline points="116.203,392.818 105.378,392.818 " />
<polyline points="275.228,595.742 275.188,595.702 " />
<polyline points="278.116,596.265 277.553,595.702 " />
<polyline points="281.004,596.788 279.918,595.702 " />
<polyline points="283.891,597.311 282.283,595.702 " />
<polyline points="286.779,597.834 284.647,595.702 " />
<polyline points="289.667,598.357 287.012,595.702 " />
<polyline points="292.555,598.88 289.377,595.702 " />
<polyline points="295.442,599.403 291.742,595.702 " />
<polyline points="298.33,599.926 294.106,595.702 " />
<polyline points="301.218,600.449 296.471,595.702 " />
<polyline points="304.106,600.972 298.836,595.702 " />
<polyline points="275.188,595.702 275.161,595.675 " />
<polyline points="277.553,595.702 277.163,595.312 " />
<polyline points="279.918,595.702 279.165,594.949 " />
<polyline points="282.283,595.702 281.167,594.587 " />
<polyline points="284.647,595.702 283.169,594.224 " />
<polyline points="287.012,595.702 285.172,593.861 " />
<polyline points="289.377,595.702 287.174,593.499 " />
<polyline points="291.742,595.702 289.176,593.136 " />
<polyline points="294.106,595.702 291.178,592.774 " />
<polyline points="296.471,595.702 293.18,592.411 " />
<polyline points="298.836,595.702 295.182,592.048 " />
<polyline points="304.893,599.395 301.2,595.702 " />
<polyline points="304.893,597.03 303.565,595.702 " />
<polyline points="301.2,595.702 297.184,591.686 " />
<polyline points="303.565,595.702 299.186,591.323 " />
<polyline points="304.893,594.665 301.188,590.96 " />
<polyline points="304.893,592.3 303.19,590.598 " />
<polyline points="275.009,595.702 275.009,595.702 " />
<polyline points="275.009,595.702 275.009,595.702 " />
<polyline points="275.009,595.702 275.009,595.702 " />
<polyline points="275.009,595.702 275.009,595.702 " />
<polyline points="275.009,595.702 275.009,595.702 " />
<polyline points="275.009,595.702 275.009,595.702 " />
<polyline points="275.009,595.702 275.009,595.702 " />
<polyline points="275.009,595.702 275.009,595.702 " />
<polyline points="275.009,595.702 275.009,595.702 " />
<polyline points="275.009,595.702 275.009,595.702 " />
<polyline points="275.009,595.702 275.009,595.702 " />
<polyline points="275.009,595.702 275.009,595.702 " />
<polyline points="275.009,595.702 275.009,595.702 " />
<polyline points="275.009,595.702 275.009,595.702 " />
<polyline points="275.009,595.702 275.009,595.702 " />
<polyline points="275.009,595.702 275.009,595.702 " />
<polyline points="275.009,595.702 304.893,601.115 " />
<polyline points="304.893,601.115 304.893,601.115 " />
<polyline points="304.893,590.289 304.893,590.289 " />
<polyline points="304.893,590.289 304.893,590.289 " />
<polyline points="275.009,595.702 304.893,590.289 " />
<polyline points="304.893,601.115 304.893,590.289 " />
<polyline points="445.653,595.662 445.693,595.702 " />
<polyline points="442.766,595.139 443.328,595.702 " />
<polyline points="439.878,594.616 440.964,595.702 " />
<polyline points="436.99,594.093 438.599,595.702 " />
<polyline points="434.102,593.57 436.234,595.702 " />
<polyline points="431.215,593.047 433.869,595.702 " />
<polyline points="428.327,592.524 431.505,595.702 " />
<polyline points="425.439,592.001 429.14,595.702 " />
<polyline points="422.551,591.478 426.775,595.702 " />
<polyline points="419.664,590.955 424.411,595.702 " />
<polyline points="416.776,590.432 422.046,595.702 " />
<polyline points="445.693,595.702 445.721,595.73 " />
<polyline points="443.328,595.702 443.718,596.092 " />
<polyline points="440.964,595.702 441.716,596.455 " />
<polyline points="438.599,595.702 439.714,596.817 " />
<polyline points="436.234,595.702 437.712,597.18 " />
<polyline points="433.869,595.702 435.71,597.543 " />
<polyline points="431.505,595.702 433.708,597.905 " />
<polyline points="429.14,595.702 431.706,598.268 " />
<polyline points="426.775,595.702 429.704,598.63 " />
<polyline points="424.411,595.702 427.702,598.993 " />
<polyline points="422.046,595.702 425.7,599.356 " />
<polyline points="415.989,592.01 419.681,595.702 " />
<polyline points="415.989,594.374 417.316,595.702 " />
<polyline points="419.681,595.702 423.697,599.718 " />
<polyline points="417.316,595.702 421.695,600.081 " />
<polyline points="415.989,596.739 419.693,600.444 " />
<polyline points="415.989,599.104 417.691,600.806 " />
<polyline points="445.872,595.702 445.872,595.702 " />
<polyline points="445.872,595.702 445.872,595.702 " />
<polyline points="445.872,595.702 445.872,595.702 " />
<polyline points="445.872,595.702 445.872,595.702 " />
<polyline points="445.872,595.702 445.872,595.702 " />
<polyline points="445.872,595.702 445.872,595.702 " />
<polyline points="445.872,595.702 445.872,595.702 " />
<polyline points="445.872,595.702 445.872,595.702 " />
<polyline points="445.872,595.702 445.872,595.702 " />
<polyline points="445.872,595.702 445.872,595.702 " />
<polyline points="445.872,595.702 445.872,595.702 " />
<polyline points="445.872,595.702 445.872,595.702 " />
<polyline points="445.872,595.702 445.872,595.702 " />
<polyline points="445.872,595.702 445.872,595.702 " />
<polyline points="445.872,595.702 445.872,595.702 " />
<polyline points="445.872,595.702 445.872,595.702 " />
<polyline points="445.872,595.702 415.989,590.289 " />
<polyline points="415.989,590.289 415.989,590.289 " />
<polyline points="415.989,601.115 415.989,601.115 " />
<polyline points="415.989,601.115 415.989,601.115 " />
<polyline points="445.872,595.702 415.989,601.115 " />
<polyline points="415.989,590.289 415.989,601.115 " />
<polyline points="687.573,183.799 687.573,41.8381 " />
<polyline points="687.573,41.8381 826.887,41.8381 " />
<polyline points="826.887,41.8381 826.887,183.799 " />
<polyline points="915.522,422.438 778.367,422.438 " />
<polyline points="717.671,471.286 717.671,539.213 " />
</g>
<g clip-path="url(#clipId0)" fill="none" stroke="rgb(0,0,0)" stroke-width="0.25" >
<polyline points="765.128,558.212 762.58,555.664 760.032,554.39 756.21,554.39 753.662,555.664 751.114,558.212 749.84,562.034 749.84,564.582 751.114,568.404 753.662,570.952 756.21,572.226 760.032,572.226 762.58,570.952 765.128,568.404 " />
<polyline points="762.966,7.52941 762.966,25.3653 " />
<polyline points="762.966,11.3514 760.418,8.8034 757.87,7.52941 754.048,7.52941 751.5,8.8034 748.953,11.3514 747.679,15.1734 747.679,17.7213 748.953,21.5433 751.5,24.0913 754.048,25.3653 757.87,25.3653 760.418,24.0913 762.966,21.5433 " />
<polyline points="941.239,248.572 931.047,275.326 " />
<polyline points="941.239,248.572 951.431,275.326 " />
<polyline points="934.869,266.408 947.609,266.408 " />
</g>
<g clip-path="url(#clipId0)" fill="none" stroke="rgb(0,0,0)" stroke-width="0.5" >
<polyline points="717.452,539.173 717.492,539.213 " />
<polyline points="714.564,538.65 715.127,539.213 " />
<polyline points="711.676,538.127 712.762,539.213 " />
<polyline points="708.789,537.604 710.397,539.213 " />
<polyline points="705.901,537.081 708.033,539.213 " />
<polyline points="703.013,536.558 705.668,539.213 " />
<polyline points="700.125,536.035 703.303,539.213 " />
<polyline points="697.238,535.512 700.938,539.213 " />
<polyline points="694.35,534.989 698.574,539.213 " />
<polyline points="691.462,534.466 696.209,539.213 " />
<polyline points="688.574,533.943 693.844,539.213 " />
<polyline points="717.492,539.213 717.519,539.24 " />
<polyline points="715.127,539.213 715.517,539.603 " />
<polyline points="712.762,539.213 713.515,539.966 " />
<polyline points="710.397,539.213 711.513,540.328 " />
<polyline points="708.033,539.213 709.511,540.691 " />
<polyline points="705.668,539.213 707.508,541.053 " />
<polyline points="703.303,539.213 705.506,541.416 " />
<polyline points="700.938,539.213 703.504,541.779 " />
<polyline points="698.574,539.213 701.502,542.141 " />
<polyline points="696.209,539.213 699.5,542.504 " />
<polyline points="693.844,539.213 697.498,542.866 " />
<polyline points="687.787,535.52 691.48,539.213 " />
<polyline points="687.787,537.885 689.115,539.213 " />
<polyline points="691.48,539.213 695.496,543.229 " />
<polyline points="689.115,539.213 693.494,543.592 " />
<polyline points="687.787,540.25 691.492,543.954 " />
<polyline points="687.787,542.614 689.49,544.317 " />
<polyline points="717.671,539.213 717.671,539.213 " />
<polyline points="717.671,539.213 717.671,539.213 " />
<polyline points="717.671,539.213 717.671,539.213 " />
<polyline points="717.671,539.213 717.671,539.213 " />
<polyline points="717.671,539.213 717.671,539.213 " />
<polyline points="717.671,539.213 717.671,539.213 " />
<polyline points="717.671,539.213 717.671,539.213 " />
<polyline points="717.671,539.213 717.671,539.213 " />
<polyline points="717.671,539.213 717.671,539.213 " />
<polyline points="717.671,539.213 717.671,539.213 " />
<polyline points="717.671,539.213 717.671,539.213 " />
<polyline points="717.671,539.213 717.671,539.213 " />
<polyline points="717.671,539.213 717.671,539.213 " />
<polyline points="717.671,539.213 717.671,539.213 " />
<polyline points="717.671,539.213 717.671,539.213 " />
<polyline points="717.671,539.213 717.671,539.213 " />
<polyline points="717.671,539.213 687.787,533.8 " />
<polyline points="687.787,533.8 687.787,533.8 " />
<polyline points="687.787,544.625 687.787,544.625 " />
<polyline points="687.787,544.625 687.787,544.625 " />
<polyline points="717.671,539.213 687.787,544.625 " />
<polyline points="687.787,533.8 687.787,544.625 " />
<polyline points="798.151,539.252 798.111,539.213 " />
<polyline points="801.039,539.775 800.476,539.213 " />
<polyline points="803.927,540.298 802.841,539.213 " />
<polyline points="806.814,540.822 805.206,539.213 " />
<polyline points="809.702,541.345 807.57,539.213 " />
<polyline points="812.59,541.868 809.935,539.213 " />
<polyline points="815.478,542.391 812.3,539.213 " />
<polyline points="818.365,542.914 814.665,539.213 " />
<polyline points="821.253,543.437 817.029,539.213 " />
<polyline points="824.141,543.96 819.394,539.213 " />
<polyline points="827.029,544.483 821.759,539.213 " />
<polyline points="798.111,539.213 798.084,539.185 " />
<polyline points="800.476,539.213 800.086,538.823 " />
<polyline points="802.841,539.213 802.088,538.46 " />
<polyline points="805.206,539.213 804.09,538.097 " />
<polyline points="807.57,539.213 806.092,537.735 " />
<polyline points="809.935,539.213 808.094,537.372 " />
<polyline points="812.3,539.213 810.097,537.01 " />
<polyline points="814.665,539.213 812.099,536.647 " />
<polyline points="817.029,539.213 814.101,536.284 " />
<polyline points="819.394,539.213 816.103,535.922 " />
<polyline points="821.759,539.213 818.105,535.559 " />
<polyline points="827.816,542.905 824.123,539.213 " />
<polyline points="827.816,540.541 826.488,539.213 " />
<polyline points="824.123,539.213 820.107,535.196 " />
<polyline points="826.488,539.213 822.109,534.834 " />
<polyline points="827.816,538.176 824.111,534.471 " />
<polyline points="827.816,535.811 826.113,534.109 " />
<polyline points="717.671,539.213 717.671,539.213 " />
<polyline points="717.671,539.213 717.671,539.213 " />
<polyline points="717.671,539.213 717.671,539.213 " />
<polyline points="717.671,539.213 717.671,539.213 " />
<polyline points="717.671,539.213 717.671,539.213 " />
<polyline points="717.671,539.213 717.671,539.213 " />
<polyline points="717.671,539.213 717.671,539.213 " />
<polyline points="717.671,539.213 717.671,539.213 " />
<polyline points="717.671,539.213 717.671,539.213 " />
<polyline points="717.671,539.213 717.671,539.213 " />
<polyline points="717.671,539.213 717.671,539.213 " />
<polyline points="717.671,539.213 717.671,539.213 " />
<polyline points="717.671,539.213 717.671,539.213 " />
<polyline points="717.671,539.213 717.671,539.213 " />
<polyline points="717.671,539.213 717.671,539.213 " />
<polyline points="717.671,539.213 717.671,539.213 " />
<polyline points="797.932,539.213 827.816,544.625 " />
<polyline points="827.816,544.625 827.816,544.625 " />
<polyline points="827.816,533.8 827.816,533.8 " />
<polyline points="827.816,533.8 827.816,533.8 " />
<polyline points="797.932,539.213 827.816,533.8 " />
<polyline points="827.816,544.625 827.816,533.8 " />
<polyline points="914.606,113.789 914.646,113.75 " />
<polyline points="914.083,116.677 914.646,116.115 " />
<polyline points="913.56,119.565 914.646,118.479 " />
<polyline points="913.037,122.453 914.646,120.844 " />
<polyline points="912.514,125.34 914.646,123.209 " />
<polyline points="911.991,128.228 914.646,125.573 " />
<polyline points="911.468,131.116 914.646,127.938 " />
<polyline points="910.945,134.004 914.646,130.303 " />
<polyline points="910.422,136.892 914.646,132.668 " />
<polyline points="909.899,139.779 914.646,135.032 " />
<polyline points="909.376,142.667 914.646,137.397 " />
<polyline points="914.646,113.75 914.673,113.722 " />
<polyline points="914.646,116.115 915.036,115.724 " />
<polyline points="914.646,118.479 915.398,117.727 " />
<polyline points="914.646,120.844 915.761,119.729 " />
<polyline points="914.646,123.209 916.124,121.731 " />
<polyline points="914.646,125.573 916.486,123.733 " />
<polyline points="914.646,127.938 916.849,125.735 " />
<polyline points="914.646,130.303 917.212,127.737 " />
<polyline points="914.646,132.668 917.574,129.739 " />
<polyline points="914.646,135.032 917.937,131.741 " />
<polyline points="914.646,137.397 918.299,133.743 " />
<polyline points="910.953,143.454 914.646,139.762 " />
<polyline points="913.318,143.454 914.646,142.127 " />
<polyline points="914.646,139.762 918.662,135.745 " />
<polyline points="914.646,142.127 919.025,137.748 " />
<polyline points="915.683,143.454 919.387,139.75 " />
<polyline points="918.047,143.454 919.75,141.752 " />
<polyline points="914.646,113.571 914.646,113.571 " />
<polyline points="914.646,113.571 914.646,113.571 " />
<polyline points="914.646,113.571 914.646,113.571 " />
<polyline points="914.646,113.571 914.646,113.571 " />
<polyline points="914.646,113.571 914.646,113.571 " />
<polyline points="914.646,113.571 914.646,113.571 " />
<polyline points="914.646,113.571 914.646,113.571 " />
<polyline points="914.646,113.571 914.646,113.571 " />
<polyline points="914.646,113.571 914.646,113.571 " />
<polyline points="914.646,113.571 914.646,113.571 " />
<polyline points="914.646,113.571 914.646,113.571 " />
<polyline points="914.646,113.571 914.646,113.571 " />
<polyline points="914.646,113.571 914.646,113.571 " />
<polyline points="914.646,113.571 914.646,113.571 " />
<polyline points="914.646,113.571 914.646,113.571 " />
<polyline points="914.646,113.571 914.646,113.571 " />
<polyline points="914.646,113.571 909.233,143.454 " />
<polyline points="909.233,143.454 909.233,143.454 " />
<polyline points="920.058,143.454 920.058,143.454 " />
<polyline points="920.058,143.454 920.058,143.454 " />
<polyline points="914.646,113.571 920.058,143.454 " />
<polyline points="909.233,143.454 920.058,143.454 " />
<polyline points="915.561,422.219 915.522,422.259 " />
<polyline points="916.084,419.331 915.522,419.894 " />
<polyline points="916.607,416.443 915.522,417.529 " />
<polyline points="917.13,413.556 915.522,415.164 " />
<polyline points="917.654,410.668 915.522,412.8 " />
<polyline points="918.177,407.78 915.522,410.435 " />
<polyline points="918.7,404.892 915.522,408.07 " />
<polyline points="919.223,402.005 915.522,405.706 " />
<polyline points="919.746,399.117 915.522,403.341 " />
<polyline points="920.269,396.229 915.522,400.976 " />
<polyline points="920.792,393.341 915.522,398.611 " />
<polyline points="915.522,422.259 915.494,422.286 " />
<polyline points="915.522,419.894 915.132,420.284 " />
<polyline points="915.522,417.529 914.769,418.282 " />
<polyline points="915.522,415.164 914.406,416.28 " />
<polyline points="915.522,412.8 914.044,414.278 " />
<polyline points="915.522,410.435 913.681,412.276 " />
<polyline points="915.522,408.07 913.319,410.273 " />
<polyline points="915.522,405.706 912.956,408.271 " />
<polyline points="915.522,403.341 912.593,406.269 " />
<polyline points="915.522,400.976 912.231,404.267 " />
<polyline points="915.522,398.611 911.868,402.265 " />
<polyline points="919.214,392.554 915.522,396.247 " />
<polyline points="916.85,392.554 915.522,393.882 " />
<polyline points="915.522,396.247 911.505,400.263 " />
<polyline points="915.522,393.882 911.143,398.261 " />
<polyline points="914.485,392.554 910.78,396.259 " />
<polyline points="912.12,392.554 910.418,394.257 " />
<polyline points="915.522,422.438 915.522,422.438 " />
<polyline points="915.522,422.438 915.522,422.438 " />
<polyline points="915.522,422.438 915.522,422.438 " />
<polyline points="915.522,422.438 915.522,422.438 " />
<polyline points="915.522,422.438 915.522,422.438 " />
<polyline points="915.522,422.438 915.522,422.438 " />
<polyline points="915.522,422.438 915.522,422.438 " />
<polyline points="915.522,422.438 915.522,422.438 " />
<polyline points="915.522,422.438 915.522,422.438 " />
<polyline points="915.522,422.438 915.522,422.438 " />
<polyline points="915.522,422.438 915.522,422.438 " />
<polyline points="915.522,422.438 915.522,422.438 " />
<polyline points="915.522,422.438 915.522,422.438 " />
<polyline points="915.522,422.438 915.522,422.438 " />
<polyline points="915.522,422.438 915.522,422.438 " />
<polyline points="915.522,422.438 915.522,422.438 " />
<polyline points="915.522,422.438 920.934,392.554 " />
<polyline points="920.934,392.554 920.934,392.554 " />
<polyline points="910.109,392.554 910.109,392.554 " />
<polyline points="910.109,392.554 910.109,392.554 " />
<polyline points="915.522,422.438 910.109,392.554 " />
<polyline points="920.934,392.554 910.109,392.554 " />
<polyline points="826.668,41.7985 826.708,41.8381 " />
<polyline points="823.78,41.2754 824.343,41.8381 " />
<polyline points="820.893,40.7524 821.978,41.8381 " />
<polyline points="818.005,40.2294 819.614,41.8381 " />
<polyline points="815.117,39.7063 817.249,41.8381 " />
<polyline points="812.229,39.1833 814.884,41.8381 " />
<polyline points="809.342,38.6603 812.52,41.8381 " />
<polyline points="806.454,38.1372 810.155,41.8381 " />
<polyline points="803.566,37.6142 807.79,41.8381 " />
<polyline points="800.678,37.0912 805.425,41.8381 " />
<polyline points="797.791,36.5681 803.061,41.8381 " />
<polyline points="826.708,41.8381 826.735,41.8656 " />
<polyline points="824.343,41.8381 824.733,42.2282 " />
<polyline points="821.978,41.8381 822.731,42.5908 " />
<polyline points="819.614,41.8381 820.729,42.9535 " />
<polyline points="817.249,41.8381 818.727,43.3161 " />
<polyline points="814.884,41.8381 816.725,43.6787 " />
<polyline points="812.52,41.8381 814.723,44.0413 " />
<polyline points="810.155,41.8381 812.721,44.404 " />
<polyline points="807.79,41.8381 810.719,44.7666 " />
<polyline points="805.425,41.8381 808.716,45.1292 " />
<polyline points="803.061,41.8381 806.714,45.4918 " />
<polyline points="797.003,38.1456 800.696,41.8381 " />
<polyline points="797.003,40.5103 798.331,41.8381 " />
<polyline points="800.696,41.8381 804.712,45.8544 " />
<polyline points="798.331,41.8381 802.71,46.2171 " />
<polyline points="797.003,42.875 800.708,46.5797 " />
<polyline points="797.003,45.2398 798.706,46.9423 " />
<polyline points="826.887,41.8381 826.887,41.8381 " />
<polyline points="826.887,41.8381 826.887,41.8381 " />
<polyline points="826.887,41.8381 826.887,41.8381 " />
<polyline points="826.887,41.8381 826.887,41.8381 " />
<polyline points="826.887,41.8381 826.887,41.8381 " />
<polyline points="826.887,41.8381 826.887,41.8381 " />
<polyline points="826.887,41.8381 826.887,41.8381 " />
<polyline points="826.887,41.8381 826.887,41.8381 " />
<polyline points="826.887,41.8381 826.887,41.8381 " />
<polyline points="826.887,41.8381 826.887,41.8381 " />
<polyline points="826.887,41.8381 826.887,41.8381 " />
<polyline points="826.887,41.8381 826.887,41.8381 " />
<polyline points="826.887,41.8381 826.887,41.8381 " />
<polyline points="826.887,41.8381 826.887,41.8381 " />
<polyline points="826.887,41.8381 826.887,41.8381 " />
<polyline points="826.887,41.8381 826.887,41.8381 " />
<polyline points="826.887,41.8381 797.003,36.4255 " />
<polyline points="797.003,36.4255 797.003,36.4255 " />
<polyline points="797.003,47.2507 797.003,47.2507 " />
<polyline points="797.003,47.2507 797.003,47.2507 " />
<polyline points="826.887,41.8381 797.003,47.2507 " />
<polyline points="797.003,36.4255 797.003,47.2507 " />
<polyline points="687.792,41.8778 687.752,41.8381 " />
<polyline points="690.679,42.4008 690.117,41.8381 " />
<polyline points="693.567,42.9238 692.481,41.8381 " />
<polyline points="696.455,43.4469 694.846,41.8381 " />
<polyline points="699.343,43.9699 697.211,41.8381 " />
<polyline points="702.23,44.4929 699.576,41.8381 " />
<polyline points="705.118,45.016 701.94,41.8381 " />
<polyline points="708.006,45.539 704.305,41.8381 " />
<polyline points="710.894,46.062 706.67,41.8381 " />
<polyline points="713.781,46.5851 709.035,41.8381 " />
<polyline points="716.669,47.1081 711.399,41.8381 " />
<polyline points="687.752,41.8381 687.725,41.8106 " />
<polyline points="690.117,41.8381 689.727,41.448 " />
<polyline points="692.481,41.8381 691.729,41.0854 " />
<polyline points="694.846,41.8381 693.731,40.7228 " />
<polyline points="697.211,41.8381 695.733,40.3601 " />
<polyline points="699.576,41.8381 697.735,39.9975 " />
<polyline points="701.94,41.8381 699.737,39.6349 " />
<polyline points="704.305,41.8381 701.739,39.2723 " />
<polyline points="706.67,41.8381 703.741,38.9096 " />
<polyline points="709.035,41.8381 705.743,38.547 " />
<polyline points="711.399,41.8381 707.746,38.1844 " />
<polyline points="717.457,45.5306 713.764,41.8381 " />
<polyline points="717.457,43.1659 716.129,41.8381 " />
<polyline points="713.764,41.8381 709.748,37.8218 " />
<polyline points="716.129,41.8381 711.75,37.4592 " />
<polyline points="717.457,40.8012 713.752,37.0965 " />
<polyline points="717.457,38.4364 715.754,36.7339 " />
<polyline points="687.573,41.8381 687.573,41.8381 " />
<polyline points="687.573,41.8381 687.573,41.8381 " />
<polyline points="687.573,41.8381 687.573,41.8381 " />
<polyline points="687.573,41.8381 687.573,41.8381 " />
<polyline points="687.573,41.8381 687.573,41.8381 " />
<polyline points="687.573,41.8381 687.573,41.8381 " />
<polyline points="687.573,41.8381 687.573,41.8381 " />
<polyline points="687.573,41.8381 687.573,41.8381 " />
<polyline points="687.573,41.8381 687.573,41.8381 " />
<polyline points="687.573,41.8381 687.573,41.8381 " />
<polyline points="687.573,41.8381 687.573,41.8381 " />
<polyline points="687.573,41.8381 687.573,41.8381 " />
<polyline points="687.573,41.8381 687.573,41.8381 " />
<polyline points="687.573,41.8381 687.573,41.8381 " />
<polyline points="687.573,41.8381 687.573,41.8381 " />
<polyline points="687.573,41.8381 687.573,41.8381 " />
<polyline points="687.573,41.8381 717.457,47.2507 " />
<polyline points="717.457,47.2507 717.457,47.2507 " />
<polyline points="717.457,36.4255 717.457,36.4255 " />
<polyline points="717.457,36.4255 717.457,36.4255 " />
<polyline points="687.573,41.8381 717.457,36.4255 " />
<polyline points="717.457,47.2507 717.457,36.4255 " />
<polyline points="778.367,113.571 914.646,113.571 " />
<polyline points="915.522,422.438 914.646,113.571 " />
<polyline points="797.932,471.286 797.932,539.213 " />
<polyline points="717.671,539.213 797.932,539.213 " />
<polyline points="475.663,269.077 420.598,269.077 " />
<polyline points="244.911,113.571 244.911,63.0126 " />
<polyline points="475.663,113.571 475.663,63.0126 " />
<polyline points="445.565,454.681 501.245,454.681 " />
<polyline points="360.327,557.275 360.287,557.315 " />
<polyline points="360.85,554.387 360.287,554.95 " />
<polyline points="361.373,551.499 360.287,552.585 " />
<polyline points="361.896,548.612 360.287,550.22 " />
<polyline points="362.419,545.724 360.287,547.856 " />
<polyline points="362.942,542.836 360.287,545.491 " />
<polyline points="363.465,539.948 360.287,543.126 " />
<polyline points="363.988,537.061 360.287,540.761 " />
<polyline points="364.511,534.173 360.287,538.397 " />
<polyline points="365.034,531.285 360.287,536.032 " />
<polyline points="365.557,528.397 360.287,533.667 " />
<polyline points="360.287,557.315 360.259,557.342 " />
<polyline points="360.287,554.95 359.897,555.34 " />
<polyline points="360.287,552.585 359.534,553.338 " />
<polyline points="360.287,550.22 359.172,551.336 " />
<polyline points="360.287,547.856 358.809,549.334 " />
<polyline points="360.287,545.491 358.446,547.331 " />
<polyline points="360.287,543.126 358.084,545.329 " />
<polyline points="360.287,540.761 357.721,543.327 " />
<polyline points="360.287,538.397 357.358,541.325 " />
<polyline points="360.287,536.032 356.996,539.323 " />
<polyline points="360.287,533.667 356.633,537.321 " />
<polyline points="363.979,527.61 360.287,531.303 " />
<polyline points="361.615,527.61 360.287,528.938 " />
<polyline points="360.287,531.303 356.271,535.319 " />
<polyline points="360.287,528.938 355.908,533.317 " />
<polyline points="359.25,527.61 355.545,531.315 " />
<polyline points="356.885,527.61 355.183,529.313 " />
<polyline points="360.287,557.494 360.287,557.494 " />
<polyline points="360.287,557.494 360.287,557.494 " />
<polyline points="360.287,557.494 360.287,557.494 " />
<polyline points="360.287,557.494 360.287,557.494 " />
<polyline points="360.287,557.494 360.287,557.494 " />
<polyline points="360.287,557.494 360.287,557.494 " />
<polyline points="360.287,557.494 360.287,557.494 " />
<polyline points="360.287,557.494 360.287,557.494 " />
<polyline points="360.287,557.494 360.287,557.494 " />
<polyline points="360.287,557.494 360.287,557.494 " />
<polyline points="360.287,557.494 360.287,557.494 " />
<polyline points="360.287,557.494 360.287,557.494 " />
<polyline points="360.287,557.494 360.287,557.494 " />
<polyline points="360.287,557.494 360.287,557.494 " />
<polyline points="360.287,557.494 360.287,557.494 " />
<polyline points="360.287,557.494 360.287,557.494 " />
<polyline points="360.287,557.494 365.7,527.61 " />
<polyline points="365.7,527.61 365.7,527.61 " />
<polyline points="354.874,527.61 354.874,527.61 " />
<polyline points="354.874,527.61 354.874,527.61 " />
<polyline points="360.287,557.494 354.874,527.61 " />
<polyline points="365.7,527.61 354.874,527.61 " />
<polyline points="360.287,454.681 360.287,388.578 " />
</g>
</svg>
