<?xml version="1.0" standalone="no"?>
<svg viewBox="0 0 1024 768" version="1.1" xmlns="http://www.w3.org/2000/svg" xmlns:xlink="http://www.w3.org/1999/xlink" stroke-linecap="round" stroke-linejoin="round" fill-rule="evenodd" xml:space="preserve" >
<defs >
<clipPath id="clipId0" >
<path d="M0,768 1024,768 1024,0 0,0 z" />
</clipPath>
</defs>
<g clip-path="url(#clipId0)" fill="none" stroke="rgb(0,0,0)" stroke-width="0.1" />
<g clip-path="url(#clipId0)" fill="none" stroke="rgb(0,0,0)" stroke-width="0.25" >
<polyline points="284.217,362.923 547.001,362.923 " />
<polyline points="547.001,362.923 547.001,411.913 " />
<polyline points="547.001,585.826 284.217,585.826 " />
<polyline points="284.217,606.862 284.217,531.03 " />
<polyline points="298.853,520.512 269.581,520.512 " />
<polyline points="284.217,531.03 298.853,520.512 " />
<polyline points="269.581,520.512 284.217,509.993 " />
<polyline points="547.001,536.836 547.001,585.826 " />
<polyline points="547.001,536.836 547.001,524.862 " />
</g>
<g clip-path="url(#clipId0)" fill="rgb(0,0,0)" stroke="rgb(0,0,0)" stroke-width="0.25" >
<path d="M719.987,479.518 719.987,483.726 732.609,481.622 732.609,481.622 z" />
</g>
<g clip-path="url(#clipId0)" fill="none" stroke="rgb(0,0,0)" stroke-width="0.25" >
<polyline points="719.987,481.622 640.334,481.622 " />
</g>
<g clip-path="url(#clipId0)" fill="rgb(0,0,0)" stroke="rgb(0,0,0)" stroke-width="0.25" >
<path d="M326.858,475.945 326.858,480.152 339.48,478.049 339.48,478.049 z" />
</g>
<g clip-path="url(#clipId0)" fill="none" stroke="rgb(0,0,0)" stroke-width="0.25" >
<polyline points="326.858,478.049 189.031,478.049 " />
<polyline points="206.452,488.312 206.452,500.934 " />
<polyline points="206.452,488.312 214.266,488.312 " />
<polyline points="206.452,494.322 211.261,494.322 " />
<polyline points="220.276,488.312 215.468,500.934 " />
<polyline points="220.276,488.312 225.085,500.934 " />
<polyline points="217.271,496.726 223.282,496.726 " />
<polyline points="228.09,488.312 228.09,500.934 " />
<polyline points="228.09,488.312 236.505,500.934 " />
<polyline points="236.505,488.312 236.505,500.934 " />
<polyline points="547.001,423.886 547.001,411.913 " />
<polyline points="547.001,411.913 547.001,524.862 " />
<polyline points="196.352,455.629 196.352,468.251 " />
<polyline points="196.352,455.629 204.166,455.629 " />
<polyline points="196.352,461.639 201.16,461.639 " />
<polyline points="207.171,455.629 207.171,468.251 " />
<polyline points="207.171,455.629 212.58,455.629 214.384,456.23 214.985,456.831 215.586,458.033 215.586,459.235 214.985,460.437 214.384,461.038 212.58,461.639 207.171,461.639 " />
<polyline points="211.378,461.639 215.586,468.251 " />
<polyline points="222.798,455.629 221.596,456.23 220.394,457.432 219.793,458.634 219.192,460.437 219.192,463.442 219.793,465.245 220.394,466.447 221.596,467.65 222.798,468.251 225.202,468.251 226.405,467.65 227.607,466.447 228.208,465.245 228.809,463.442 228.809,460.437 228.208,458.634 227.607,457.432 226.405,456.23 225.202,455.629 222.798,455.629 " />
<polyline points="233.016,455.629 233.016,468.251 " />
<polyline points="233.016,455.629 237.824,468.251 " />
<polyline points="242.633,455.629 237.824,468.251 " />
<polyline points="242.633,455.629 242.633,468.251 " />
<polyline points="669.828,460.378 668.626,460.979 667.423,462.181 666.822,463.383 666.221,465.186 666.221,468.191 666.822,469.994 667.423,471.196 668.626,472.398 669.828,473 672.232,473 673.434,472.398 674.636,471.196 675.237,469.994 675.838,468.191 675.838,465.186 675.237,463.383 674.636,462.181 673.434,460.979 672.232,460.378 669.828,460.378 " />
<polyline points="671.631,470.595 675.237,474.202 " />
<polyline points="547.001,411.194 582.341,444.923 " />
<polyline points="547.001,537.555 582.341,503.826 " />
<polyline points="269.581,422.994 284.217,412.476 " />
<polyline points="284.217,433.512 298.853,422.994 " />
<polyline points="298.853,422.994 269.581,422.994 " />
<polyline points="284.217,509.993 284.217,433.512 " />
<polyline points="284.217,412.476 284.217,341.886 " />
<polyline points="582.341,444.923 865.661,444.923 " />
<polyline points="582.341,503.826 865.661,503.826 " />
<path d="M567.492,448.074  A52.7331,52.7331 0 0,0 561.595,463.519 " />
<path d="M561.855,486.4  A52.7331,52.7331 0 0,0 567.492,500.674 " />
</g>
<g clip-path="url(#clipId0)" fill="rgb(0,0,0)" stroke="rgb(0,0,0)" stroke-width="0.25" >
<path d="M569.177,449.334 565.808,446.814 575.052,437.966 575.052,437.966 z" />
<path d="M569.177,499.415 565.808,501.934 575.052,510.783 575.052,510.783 z" />
</g>
<g clip-path="url(#clipId0)" fill="none" stroke="rgb(0,0,0)" stroke-width="0.25" >
<circle cx="561.29" cy="475.733" r="6.31101" />
<polyline points="554.979,475.733 567.601,475.733 " />
<polyline points="865.661,432.301 865.661,461.103 " />
<polyline points="865.661,481.37 865.661,516.448 " />
<polyline points="865.661,482.139 880.434,471.522 " />
<polyline points="851.162,471.522 865.798,461.004 " />
<polyline points="880.434,471.522 851.162,471.522 " />
<polyline points="158.268,375.545 158.268,460.49 " />
<polyline points="158.268,573.204 158.268,488.259 " />
</g>
<g clip-path="url(#clipId0)" fill="rgb(0,0,0)" stroke="rgb(0,0,0)" stroke-width="0.25" >
<path d="M156.164,375.545 160.372,375.545 158.268,362.923 158.268,362.923 z" />
<path d="M156.164,573.204 160.372,573.204 158.268,585.826 158.268,585.826 z" />
</g>
<g clip-path="url(#clipId0)" fill="none" stroke="rgb(0,0,0)" stroke-width="0.25" >
<polyline points="154.061,468.063 154.061,480.685 " />
<polyline points="162.475,468.063 162.475,480.685 " />
<polyline points="154.061,474.074 162.475,474.074 " />
<polyline points="785.528,432.301 785.528,419.679 " />
<polyline points="785.528,516.448 785.528,529.07 " />
</g>
<g clip-path="url(#clipId0)" fill="rgb(0,0,0)" stroke="rgb(0,0,0)" stroke-width="0.25" >
<path d="M783.424,432.301 787.632,432.301 785.528,444.923 785.528,444.923 z" />
<path d="M783.424,516.448 787.632,516.448 785.528,503.826 785.528,503.826 z" />
</g>
<g clip-path="url(#clipId0)" fill="none" stroke="rgb(0,0,0)" stroke-width="0.25" >
<polyline points="169.607,479.503 170.328,479.143 171.41,478.061 171.41,485.634 " />
<polyline points="797.404,478.969 796.322,479.33 795.601,480.412 795.24,482.215 795.24,483.297 795.601,485.1 796.322,486.182 797.404,486.542 798.125,486.542 799.207,486.182 799.929,485.1 800.289,483.297 800.289,482.215 799.929,480.412 799.207,479.33 798.125,478.969 797.404,478.969 " />
<polyline points="780.776,468.972 780.776,481.594 " />
<polyline points="789.191,468.972 789.191,481.594 " />
<polyline points="780.776,474.982 789.191,474.982 " />
<polyline points="778.973,134.615 781.978,147.237 " />
<polyline points="784.984,134.615 781.978,147.237 " />
<polyline points="784.984,134.615 787.989,147.237 " />
<polyline points="790.994,134.615 787.989,147.237 " />
<polyline points="797.404,144.612 796.322,144.973 795.601,146.055 795.24,147.858 795.24,148.94 795.601,150.743 796.322,151.825 797.404,152.186 798.125,152.186 799.207,151.825 799.929,150.743 800.289,148.94 800.289,147.858 799.929,146.055 799.207,144.973 798.125,144.612 797.404,144.612 " />
<polyline points="169.607,145.147 170.328,144.786 171.41,143.704 171.41,151.277 " />
</g>
<g clip-path="url(#clipId0)" fill="rgb(0,0,0)" stroke="rgb(0,0,0)" stroke-width="0.25" >
<path d="M783.424,182.091 787.632,182.091 785.528,169.469 785.528,169.469 z" />
<path d="M783.424,97.944 787.632,97.944 785.528,110.566 785.528,110.566 z" />
</g>
<g clip-path="url(#clipId0)" fill="none" stroke="rgb(0,0,0)" stroke-width="0.25" >
<polyline points="785.528,182.091 785.528,194.713 " />
<polyline points="785.528,97.944 785.528,85.322 " />
<polyline points="152.258,133.706 155.263,146.328 " />
<polyline points="158.268,133.706 155.263,146.328 " />
<polyline points="158.268,133.706 161.273,146.328 " />
<polyline points="164.279,133.706 161.273,146.328 " />
</g>
<g clip-path="url(#clipId0)" fill="rgb(0,0,0)" stroke="rgb(0,0,0)" stroke-width="0.25" >
<path d="M156.164,238.847 160.372,238.847 158.268,251.469 158.268,251.469 z" />
<path d="M156.164,41.1881 160.372,41.1881 158.268,28.5661 158.268,28.5661 z" />
</g>
<g clip-path="url(#clipId0)" fill="none" stroke="rgb(0,0,0)" stroke-width="0.25" >
<polyline points="158.268,238.847 158.268,153.902 " />
<polyline points="158.268,41.1881 158.268,126.133 " />
<polyline points="880.434,137.165 851.162,137.165 " />
<polyline points="851.162,137.165 865.798,126.647 " />
<polyline points="865.661,147.782 880.434,137.165 " />
<polyline points="865.661,147.014 865.661,182.091 " />
<polyline points="865.661,97.944 865.661,126.746 " />
<polyline points="554.979,141.376 567.601,141.376 " />
<circle cx="561.29" cy="141.376" r="6.31101" />
</g>
<g clip-path="url(#clipId0)" fill="rgb(0,0,0)" stroke="rgb(0,0,0)" stroke-width="0.25" >
<path d="M569.177,165.058 565.808,167.577 575.052,176.426 575.052,176.426 z" />
<path d="M569.177,114.977 565.808,112.457 575.052,103.609 575.052,103.609 z" />
</g>
<g clip-path="url(#clipId0)" fill="none" stroke="rgb(0,0,0)" stroke-width="0.25" >
<path d="M561.855,152.043  A52.7331,52.7331 0 0,0 567.492,166.318 " />
<path d="M567.492,113.717  A52.7331,52.7331 0 0,0 561.595,129.163 " />
<polyline points="582.341,169.469 865.661,169.469 " />
<polyline points="582.341,110.566 865.661,110.566 " />
<polyline points="559.943,292.961 559.943,305.583 567.156,305.583 " />
<polyline points="595.037,299.032 614.119,299.032 " />
</g>
<g clip-path="url(#clipId0)" fill="rgb(0,0,0)" stroke="rgb(0,0,0)" stroke-width="0.25" >
<path d="M595.037,301.135 595.037,296.928 582.415,299.032 582.415,299.032 z" />
</g>
<g clip-path="url(#clipId0)" fill="none" stroke="rgb(0,0,0)" stroke-width="0.25" >
<polyline points="534.186,299.032 509.739,299.032 " />
</g>
<g clip-path="url(#clipId0)" fill="rgb(0,0,0)" stroke="rgb(0,0,0)" stroke-width="0.25" >
<path d="M534.186,296.928 534.186,301.135 546.808,299.032 546.808,299.032 z" />
</g>
<g clip-path="url(#clipId0)" fill="none" stroke="rgb(0,0,0)" stroke-width="0.25" >
<polyline points="547.001,262.701 547.001,306.632 " />
<polyline points="582.341,201.355 582.341,306.632 " />
<polyline points="284.217,78.1187 284.217,7.52941 " />
<polyline points="284.217,175.637 284.217,99.1554 " />
<polyline points="298.853,88.6371 269.581,88.6371 " />
<polyline points="284.217,99.1554 298.853,88.6371 " />
<polyline points="269.581,88.6371 284.217,78.1187 " />
<polyline points="547.001,203.198 582.341,169.469 " />
<polyline points="547.001,76.8369 582.341,110.566 " />
<polyline points="669.828,126.021 668.626,126.622 667.423,127.824 666.822,129.026 666.221,130.829 666.221,133.834 666.822,135.637 667.423,136.839 668.626,138.042 669.828,138.643 672.232,138.643 673.434,138.042 674.636,136.839 675.237,135.637 675.838,133.834 675.838,130.829 675.237,129.026 674.636,127.824 673.434,126.622 672.232,126.021 669.828,126.021 " />
<polyline points="671.631,136.238 675.237,139.845 " />
<polyline points="196.352,121.272 196.352,133.894 " />
<polyline points="196.352,121.272 204.166,121.272 " />
<polyline points="196.352,127.282 201.16,127.282 " />
<polyline points="207.171,121.272 207.171,133.894 " />
<polyline points="207.171,121.272 212.58,121.272 214.384,121.873 214.985,122.474 215.586,123.676 215.586,124.878 214.985,126.08 214.384,126.681 212.58,127.282 207.171,127.282 " />
<polyline points="211.378,127.282 215.586,133.894 " />
<polyline points="222.798,121.272 221.596,121.873 220.394,123.075 219.793,124.277 219.192,126.08 219.192,129.085 219.793,130.888 220.394,132.091 221.596,133.293 222.798,133.894 225.202,133.894 226.405,133.293 227.607,132.091 228.208,130.888 228.809,129.085 228.809,126.08 228.208,124.277 227.607,123.075 226.405,121.873 225.202,121.272 222.798,121.272 " />
<polyline points="233.016,121.272 233.016,133.894 " />
<polyline points="233.016,121.272 237.824,133.894 " />
<polyline points="242.633,121.272 237.824,133.894 " />
<polyline points="242.633,121.272 242.633,133.894 " />
<polyline points="547.001,77.5557 547.001,190.506 " />
<polyline points="547.001,89.5293 547.001,77.5557 " />
<polyline points="206.452,153.955 206.452,166.577 " />
<polyline points="206.452,153.955 214.266,153.955 " />
<polyline points="206.452,159.965 211.261,159.965 " />
<polyline points="220.276,153.955 215.468,166.577 " />
<polyline points="220.276,153.955 225.085,166.577 " />
<polyline points="217.271,162.369 223.282,162.369 " />
<polyline points="228.09,153.955 228.09,166.577 " />
<polyline points="228.09,153.955 236.505,166.577 " />
<polyline points="236.505,153.955 236.505,166.577 " />
<polyline points="326.858,143.692 189.031,143.692 " />
</g>
<g clip-path="url(#clipId0)" fill="rgb(0,0,0)" stroke="rgb(0,0,0)" stroke-width="0.25" >
<path d="M326.858,141.588 326.858,145.795 339.48,143.692 339.48,143.692 z" />
</g>
<g clip-path="url(#clipId0)" fill="none" stroke="rgb(0,0,0)" stroke-width="0.25" >
<polyline points="719.987,147.265 640.334,147.265 " />
</g>
<g clip-path="url(#clipId0)" fill="rgb(0,0,0)" stroke="rgb(0,0,0)" stroke-width="0.25" >
<path d="M719.987,145.162 719.987,149.369 732.609,147.265 732.609,147.265 z" />
</g>
<g clip-path="url(#clipId0)" fill="none" stroke="rgb(0,0,0)" stroke-width="0.25" >
<polyline points="547.001,202.479 547.001,190.506 " />
<polyline points="547.001,202.479 547.001,251.469 " />
<polyline points="269.581,186.155 284.217,175.637 " />
<polyline points="284.217,196.673 298.853,186.155 " />
<polyline points="298.853,186.155 269.581,186.155 " />
<polyline points="284.217,272.505 284.217,196.673 " />
<polyline points="547.001,251.469 284.217,251.469 " />
<polyline points="547.001,28.5661 547.001,77.5557 " />
<polyline points="284.217,28.5661 547.001,28.5661 " />
<polyline points="777.821,741.429 775.706,739.314 772.532,738.256 768.301,738.256 765.127,739.314 763.011,741.429 763.011,743.545 764.069,745.661 765.127,746.719 767.243,747.776 773.59,749.892 775.706,750.95 776.763,752.008 777.821,754.124 777.821,757.297 775.706,759.413 772.532,760.471 768.301,760.471 765.127,759.413 763.011,757.297 " />
<polyline points="785.226,738.256 785.226,760.471 " />
<polyline points="785.226,738.256 794.747,738.256 797.92,739.314 798.978,740.372 800.036,742.487 800.036,744.603 798.978,746.719 797.92,747.776 794.747,748.834 785.226,748.834 " />
<polyline points="792.631,748.834 800.036,760.471 " />
<polyline points="809.557,742.487 811.672,741.429 814.846,738.256 814.846,760.471 " />
<polyline points="828.598,750.95 847.639,750.95 " />
<polyline points="858.218,742.487 860.333,741.429 863.507,738.256 863.507,760.471 " />
<polyline points="582.341,513.114 582.341,435.941 " />
<polyline points="582.341,179.001 582.341,100.012 " />
<polyline points="582.341,201.355 582.341,191.381 " />
<polyline points="536.427,77.5557 481.553,77.5557 " />
<polyline points="536.427,203.198 481.553,203.198 " />
<polyline points="494.922,88.6961 494.922,128.122 " />
<polyline points="494.922,192.058 494.922,152.631 " />
</g>
<g clip-path="url(#clipId0)" fill="rgb(0,0,0)" stroke="rgb(0,0,0)" stroke-width="0.25" >
<path d="M493.065,88.6961 496.779,88.6961 494.922,77.5557 494.922,77.5557 z" />
<path d="M493.065,192.058 496.779,192.058 494.922,203.198 494.922,203.198 z" />
</g>
<g clip-path="url(#clipId0)" fill="none" stroke="rgb(0,0,0)" stroke-width="0.25" >
<polyline points="488.911,133.706 491.917,146.328 " />
<polyline points="494.922,133.706 491.917,146.328 " />
<polyline points="494.922,133.706 497.927,146.328 " />
<polyline points="500.932,133.706 497.927,146.328 " />
<polyline points="505.539,145.507 505.539,145.147 505.9,144.425 506.261,144.065 506.982,143.704 508.424,143.704 509.146,144.065 509.506,144.425 509.867,145.147 509.867,145.868 509.506,146.589 508.785,147.671 505.179,151.277 510.228,151.277 " />
<polyline points="506.261,479.503 506.982,479.143 508.064,478.061 508.064,485.634 " />
<polyline points="490.715,468.063 490.715,480.685 " />
<polyline points="499.129,468.063 499.129,480.685 " />
<polyline points="490.715,474.074 499.129,474.074 " />
</g>
<g clip-path="url(#clipId0)" fill="rgb(0,0,0)" stroke="rgb(0,0,0)" stroke-width="0.25" >
<path d="M493.065,526.414 496.779,526.414 494.922,537.555 494.922,537.555 z" />
<path d="M493.065,423.053 496.779,423.053 494.922,411.913 494.922,411.913 z" />
</g>
<g clip-path="url(#clipId0)" fill="none" stroke="rgb(0,0,0)" stroke-width="0.25" >
<polyline points="494.922,526.414 494.922,486.988 " />
<polyline points="494.922,423.053 494.922,462.479 " />
<polyline points="536.427,537.555 481.553,537.555 " />
<polyline points="536.427,411.913 481.553,411.913 " />
<polyline points="273.216,585.816 143.566,585.816 " />
<polyline points="273.216,362.926 143.566,362.926 " />
<polyline points="273.216,28.5693 143.566,28.5693 " />
<polyline points="273.216,251.459 143.566,251.459 " />
</g>
</svg>
