<?xml version="1.0" standalone="no"?>
<svg viewBox="0 0 1024 768" version="1.1" xmlns="http://www.w3.org/2000/svg" xmlns:xlink="http://www.w3.org/1999/xlink" stroke-linecap="round" stroke-linejoin="round" fill-rule="evenodd" xml:space="preserve" >
<defs >
<clipPath id="clipId0" >
<path d="M0,768 1024,768 1024,0 0,0 z" />
</clipPath>
</defs>
<g clip-path="url(#clipId0)" fill="none" stroke="rgb(0,0,0)" stroke-width="0.1" />
<g clip-path="url(#clipId0)" fill="none" stroke="rgb(0,0,0)" stroke-width="0.25" >
<polyline points="536.403,212.887 536.403,229.076 " />
<polyline points="536.403,212.887 546.424,212.887 " />
<polyline points="536.403,220.596 542.57,220.596 " />
<polyline points="550.279,212.887 550.279,229.076 " />
<polyline points="550.279,212.887 557.217,212.887 559.53,213.658 560.3,214.429 561.071,215.971 561.071,217.512 560.3,219.054 559.53,219.825 557.217,220.596 550.279,220.596 " />
<polyline points="555.675,220.596 561.071,229.076 " />
<polyline points="566.468,212.887 566.468,229.076 " />
<polyline points="566.468,212.887 576.489,212.887 " />
<polyline points="566.468,220.596 572.635,220.596 " />
<polyline points="566.468,229.076 576.489,229.076 " />
<polyline points="581.115,212.887 581.115,229.076 " />
<polyline points="581.115,212.887 591.136,212.887 " />
<polyline points="581.115,220.596 587.282,220.596 " />
<polyline points="581.115,229.076 591.136,229.076 " />
<polyline points="498.115,272.142 498.115,288.331 " />
<polyline points="498.115,272.142 503.511,272.142 505.824,272.913 507.366,274.455 508.136,275.996 508.907,278.309 508.907,282.164 508.136,284.476 507.366,286.018 505.824,287.56 503.511,288.331 498.115,288.331 " />
<polyline points="514.304,272.142 514.304,288.331 " />
<polyline points="530.493,274.455 528.951,272.913 526.638,272.142 523.554,272.142 521.242,272.913 519.7,274.455 519.7,275.996 520.471,277.538 521.242,278.309 522.784,279.08 527.409,280.622 528.951,281.393 529.722,282.164 530.493,283.705 530.493,286.018 528.951,287.56 526.638,288.331 523.554,288.331 521.242,287.56 519.7,286.018 " />
<polyline points="546.681,275.996 545.911,274.455 544.369,272.913 542.827,272.142 539.743,272.142 538.202,272.913 536.66,274.455 535.889,275.996 535.118,278.309 535.118,282.164 535.889,284.476 536.66,286.018 538.202,287.56 539.743,288.331 542.827,288.331 544.369,287.56 545.911,286.018 546.681,284.476 " />
<polyline points="552.078,272.142 552.078,288.331 " />
<polyline points="562.87,272.142 562.87,288.331 " />
<polyline points="552.078,279.851 562.87,279.851 " />
<polyline points="572.892,272.142 566.725,288.331 " />
<polyline points="572.892,272.142 579.059,288.331 " />
<polyline points="569.037,282.935 576.746,282.935 " />
<polyline points="582.914,272.142 582.914,288.331 " />
<polyline points="582.914,272.142 589.852,272.142 592.164,272.913 592.935,273.684 593.706,275.226 593.706,276.767 592.935,278.309 592.164,279.08 589.852,279.851 582.914,279.851 " />
<polyline points="588.31,279.851 593.706,288.331 " />
<polyline points="609.895,275.996 609.124,274.455 607.582,272.913 606.041,272.142 602.957,272.142 601.415,272.913 599.873,274.455 599.103,275.996 598.332,278.309 598.332,282.164 599.103,284.476 599.873,286.018 601.415,287.56 602.957,288.331 606.041,288.331 607.582,287.56 609.124,286.018 609.895,284.476 609.895,282.164 " />
<polyline points="606.041,282.164 609.895,282.164 " />
<polyline points="615.291,272.142 615.291,288.331 " />
<polyline points="615.291,272.142 625.313,272.142 " />
<polyline points="615.291,279.851 621.459,279.851 " />
<polyline points="615.291,288.331 625.313,288.331 " />
<polyline points="140.941,220.013 139.399,220.784 137.857,222.326 137.086,223.868 136.315,226.181 136.315,230.035 137.086,232.348 137.857,233.89 139.399,235.431 140.941,236.202 144.024,236.202 145.566,235.431 147.108,233.89 147.879,232.348 148.65,230.035 148.65,226.181 147.879,223.868 147.108,222.326 145.566,220.784 144.024,220.013 140.941,220.013 " />
<polyline points="143.253,233.119 147.879,237.744 " />
<polyline points="25.1649,237.977 25.1649,179.172 " />
<polyline points="470.268,138.81 470.268,355.586 " />
<polyline points="282.45,195.361 282.45,299.036 " />
<polyline points="222.636,248.769 79.9725,248.769 " />
<polyline points="282.45,299.036 25.1649,299.036 " />
<polyline points="25.1649,315.225 25.1649,259.562 " />
<polyline points="39.8587,243.373 25.1649,237.977 " />
<polyline points="10.0392,254.165 39.8587,243.373 " />
<polyline points="10.0392,254.165 25.1649,259.562 " />
<polyline points="470.268,355.586 282.45,299.036 " />
</g>
<g clip-path="url(#clipId0)" fill="rgb(0,0,0)" stroke="rgb(0,0,0)" stroke-width="0.25" >
<path d="M222.636,245.531 222.636,252.007 242.062,248.769 242.062,248.769 z" />
</g>
<g clip-path="url(#clipId0)" fill="none" stroke="rgb(0,0,0)" stroke-width="0.25" >
<polyline points="493.158,248.769 389.088,248.769 " />
</g>
<g clip-path="url(#clipId0)" fill="rgb(0,0,0)" stroke="rgb(0,0,0)" stroke-width="0.25" >
<path d="M345.847,297.987 352.117,299.605 344.126,317.606 344.126,317.606 z" />
</g>
<g clip-path="url(#clipId0)" fill="none" stroke="rgb(0,0,0)" stroke-width="0.25" >
<path d="M348.982,298.796  A244.212,244.212 0 0,0 353.593,268.175 " />
<polyline points="347.733,246.758 359.803,246.758 " />
<circle cx="353.768" cy="246.758" r="6.03525" />
</g>
<g clip-path="url(#clipId0)" fill="rgb(0,0,0)" stroke="rgb(0,0,0)" stroke-width="0.25" >
<path d="M493.158,245.531 493.158,252.007 512.585,248.769 512.585,248.769 z" />
</g>
<g clip-path="url(#clipId0)" fill="none" stroke="rgb(0,0,0)" stroke-width="0.25" >
<polyline points="25.1649,195.361 282.45,195.361 " />
<polyline points="470.268,138.81 282.45,195.361 " />
</g>
<g clip-path="url(#clipId0)" fill="rgb(0,0,0)" stroke="rgb(0,0,0)" stroke-width="0.25" >
<path d="M345.847,196.41 352.117,194.791 344.126,176.791 344.126,176.791 z" />
</g>
<g clip-path="url(#clipId0)" fill="none" stroke="rgb(0,0,0)" stroke-width="0.25" >
<path d="M353.593,226.222  A244.212,244.212 0 0,0 348.982,195.601 " />
<polyline points="990.835,156.495 990.835,236.751 " />
<polyline points="774.185,299.036 900.255,195.361 " />
<polyline points="774.185,195.361 900.255,299.036 " />
<polyline points="774.185,355.586 774.185,138.81 " />
<polyline points="900.255,355.586 900.255,138.81 " />
<polyline points="977.672,353.24 1013.89,353.24 " />
<polyline points="971.67,242.801 971.67,258.99 " />
<polyline points="982.463,242.801 982.463,258.99 " />
<polyline points="971.67,250.51 982.463,250.51 " />
<polyline points="827.184,393.703 831.038,409.892 " />
<polyline points="834.893,393.703 831.038,409.892 " />
<polyline points="834.893,393.703 838.747,409.892 " />
<polyline points="842.602,393.703 838.747,409.892 " />
<polyline points="900.255,362.332 900.255,413.836 " />
<polyline points="774.185,362.332 774.185,413.836 " />
<polyline points="880.828,402.711 862.814,402.711 " />
</g>
<g clip-path="url(#clipId0)" fill="rgb(0,0,0)" stroke="rgb(0,0,0)" stroke-width="0.25" >
<path d="M793.612,405.949 793.612,399.474 774.185,402.711 774.185,402.711 z" />
</g>
<g clip-path="url(#clipId0)" fill="none" stroke="rgb(0,0,0)" stroke-width="0.25" >
<polyline points="793.612,402.711 811.626,402.711 " />
</g>
<g clip-path="url(#clipId0)" fill="rgb(0,0,0)" stroke="rgb(0,0,0)" stroke-width="0.25" >
<path d="M880.828,405.949 880.828,399.474 900.255,402.711 900.255,402.711 z" />
</g>
<g clip-path="url(#clipId0)" fill="none" stroke="rgb(0,0,0)" stroke-width="0.25" >
<polyline points="900.255,299.036 774.185,299.036 " />
<polyline points="774.185,355.586 900.255,355.586 " />
<polyline points="909.287,353.24 977.672,353.24 " />
<polyline points="990.835,334.599 990.835,269.588 " />
</g>
<g clip-path="url(#clipId0)" fill="rgb(0,0,0)" stroke="rgb(0,0,0)" stroke-width="0.25" >
<path d="M994.073,334.599 987.597,334.599 990.835,354.025 990.835,354.025 z" />
</g>
<g clip-path="url(#clipId0)" fill="none" stroke="rgb(0,0,0)" stroke-width="0.25" >
<polyline points="991.577,250.103 993.119,249.332 995.432,247.02 995.432,263.208 " />
<polyline points="977.672,136.464 1013.89,136.464 " />
<polyline points="774.185,195.361 900.255,195.361 " />
<polyline points="774.185,138.81 900.255,138.81 " />
<polyline points="909.287,136.464 977.672,136.464 " />
</g>
<g clip-path="url(#clipId0)" fill="rgb(0,0,0)" stroke="rgb(0,0,0)" stroke-width="0.25" >
<path d="M987.597,156.495 994.073,156.495 990.835,137.069 990.835,137.069 z" />
</g>
<g clip-path="url(#clipId0)" fill="none" stroke="rgb(0,0,0)" stroke-width="0.25" >
<polyline points="903.157,632.369 907.114,636.327 915.029,636.327 918.986,632.369 903.157,616.54 907.114,612.583 915.029,612.583 918.986,616.54 " />
<polyline points="926.901,636.327 926.901,612.583 938.772,612.583 942.73,616.54 942.73,620.498 938.772,624.455 926.901,624.455 " />
<polyline points="930.858,624.455 942.73,636.327 " />
<polyline points="950.644,616.54 954.602,612.583 962.516,612.583 966.473,616.54 966.473,620.498 962.516,624.455 954.602,624.455 950.644,628.412 950.644,636.327 966.473,636.327 " />
<polyline points="974.388,624.455 990.217,624.455 " />
<polyline points="998.132,616.54 1002.09,612.583 1010,612.583 1013.96,616.54 1013.96,620.498 1010,624.455 1006.05,624.455 " />
<polyline points="1010,624.455 1013.96,628.412 1013.96,632.369 1010,636.327 1002.09,636.327 998.132,632.369 " />
<polyline points="282.45,305.781 282.45,401.19 " />
<polyline points="470.268,362.332 470.268,401.19 " />
<polyline points="301.877,381.763 360.17,381.763 " />
<polyline points="450.842,381.763 392.548,381.763 " />
</g>
<g clip-path="url(#clipId0)" fill="rgb(0,0,0)" stroke="rgb(0,0,0)" stroke-width="0.25" >
<path d="M301.877,378.525 301.877,385.001 282.45,381.763 282.45,381.763 z" />
<path d="M450.842,378.525 450.842,385.001 470.268,381.763 470.268,381.763 z" />
</g>
<g clip-path="url(#clipId0)" fill="none" stroke="rgb(0,0,0)" stroke-width="0.25" >
<polyline points="369.884,372.05 369.884,391.476 382.835,391.476 " />
<polyline points="107.799,261.835 107.799,278.024 " />
<polyline points="118.592,261.835 118.592,278.024 " />
<polyline points="107.799,269.544 118.592,269.544 " />
<polyline points="140.177,267.231 148.657,278.024 " />
<polyline points="148.657,267.231 140.177,278.024 " />
<polyline points="168.7,261.835 172.555,278.024 " />
<polyline points="176.409,261.835 172.555,278.024 " />
<polyline points="176.409,261.835 180.264,278.024 " />
<polyline points="184.118,261.835 180.264,278.024 " />
<polyline points="125.079,279.015 123.923,279.401 123.152,280.557 122.767,282.484 122.767,283.641 123.152,285.568 123.923,286.724 125.079,287.11 125.85,287.11 127.007,286.724 127.778,285.568 128.163,283.641 128.163,282.484 127.778,280.557 127.007,279.401 125.85,279.015 125.079,279.015 " />
<polyline points="187.04,279.015 185.884,279.401 185.113,280.557 184.727,282.484 184.727,283.641 185.113,285.568 185.884,286.724 187.04,287.11 187.811,287.11 188.967,286.724 189.738,285.568 190.124,283.641 190.124,282.484 189.738,280.557 188.967,279.401 187.811,279.015 187.04,279.015 " />
</g>
<g clip-path="url(#clipId0)" fill="rgb(0,0,0)" stroke="rgb(0,0,0)" stroke-width="0.25" >
<polygon points="485.576,177.202 470.268,189.594 480.729,172.908 " />
</g>
<g clip-path="url(#clipId0)" fill="none" stroke="rgb(0,0,0)" stroke-width="0.25" >
<polyline points="483.153,175.055 515.689,138.339 " />
<polyline points="515.689,138.339 533.905,138.339 " />
<polyline points="625.776,150.395 626.547,150.01 627.703,148.853 627.703,156.948 " />
<polyline points="563.815,150.395 564.586,150.01 565.743,148.853 565.743,156.948 " />
<polyline points="547.692,131.673 547.692,147.862 " />
<polyline points="558.484,131.673 558.484,147.862 " />
<polyline points="547.692,139.382 558.484,139.382 " />
<polyline points="580.069,137.07 588.549,147.862 " />
<polyline points="588.549,137.07 580.069,147.862 " />
<polyline points="608.593,131.673 612.447,147.862 " />
<polyline points="616.302,131.673 612.447,147.862 " />
<polyline points="616.302,131.673 620.156,147.862 " />
<polyline points="624.011,131.673 620.156,147.862 " />
<polyline points="196.28,574.419 197.051,574.034 198.208,572.878 198.208,580.972 " />
<polyline points="125.079,572.878 123.923,573.263 123.152,574.419 122.767,576.347 122.767,577.503 123.152,579.43 123.923,580.587 125.079,580.972 125.85,580.972 127.007,580.587 127.778,579.43 128.163,577.503 128.163,576.347 127.778,574.419 127.007,573.263 125.85,572.878 125.079,572.878 " />
<polyline points="106.257,555.698 110.112,571.886 " />
<polyline points="113.966,555.698 110.112,571.886 " />
<polyline points="113.966,555.698 117.821,571.886 " />
<polyline points="121.675,555.698 117.821,571.886 " />
<polyline points="142.49,562.636 156.366,562.636 " />
<polyline points="142.49,567.261 156.366,567.261 " />
<polyline points="177.18,555.698 181.035,571.886 " />
<polyline points="184.889,555.698 181.035,571.886 " />
<polyline points="184.889,555.698 188.744,571.886 " />
<polyline points="192.598,555.698 188.744,571.886 " />
<polyline points="213.412,562.636 227.289,562.636 " />
<polyline points="213.412,567.261 227.289,567.261 " />
<polyline points="248.103,555.698 251.957,571.886 " />
<polyline points="255.812,555.698 251.957,571.886 " />
<polyline points="255.812,555.698 259.666,571.886 " />
<polyline points="263.521,555.698 259.666,571.886 " />
</g>
</svg>
