<?xml version="1.0" standalone="no"?>
<svg viewBox="0 0 1024 768" version="1.1" xmlns="http://www.w3.org/2000/svg" xmlns:xlink="http://www.w3.org/1999/xlink" stroke-linecap="round" stroke-linejoin="round" fill-rule="evenodd" xml:space="preserve" >
<defs >
<clipPath id="clipId0" >
<path d="M0,768 1024,768 1024,0 0,0 z" />
</clipPath>
</defs>
<g clip-path="url(#clipId0)" fill="none" stroke="rgb(0,0,0)" stroke-width="0.1" />
<g clip-path="url(#clipId0)" fill="rgb(0,0,0)" stroke="rgb(0,0,0)" stroke-width="0.25" >
<path d="M467.546,295.017 472.568,291.166 458.505,278.024 458.505,278.024 z" />
</g>
<g clip-path="url(#clipId0)" fill="none" stroke="rgb(0,0,0)" stroke-width="0.25" >
<polyline points="487.079,228.862 706.227,533.868 " />
<polyline points="487.079,508.629 503.349,492.359 " />
<polyline points="487.079,489.982 503.349,473.713 " />
<polyline points="487.079,471.336 503.349,455.067 " />
<polyline points="487.079,452.69 503.349,436.421 " />
<polyline points="487.079,434.044 502.598,418.525 " />
<polyline points="487.079,415.397 494.802,407.675 " />
<polyline points="491.401,522.953 503.349,511.006 " />
<polyline points="487.503,545.497 503.349,529.652 " />
<polyline points="487.908,563.739 503.349,548.298 " />
<polyline points="488.313,581.98 503.349,566.944 " />
<polyline points="488.718,600.221 503.349,585.59 " />
<polyline points="487.555,343.641 481.527,359.463 " />
<polyline points="487.555,343.641 493.582,359.463 " />
<polyline points="483.787,354.189 491.322,354.189 " />
</g>
<g clip-path="url(#clipId0)" fill="rgb(0,0,0)" stroke="rgb(0,0,0)" stroke-width="0.25" >
<path d="M505.426,521.453 505.056,527.771 486.287,523.5 486.287,523.5 z" />
</g>
<g clip-path="url(#clipId0)" fill="none" stroke="rgb(0,0,0)" stroke-width="0.25" >
<polyline points="470.057,293.091 541.407,386.149 " />
<polyline points="503.349,419.57 487.079,396.927 " />
<polyline points="391.885,447.152 397.912,462.974 " />
<polyline points="403.94,447.152 397.912,462.974 " />
<polyline points="420.976,394.92 420.976,509.203 " />
<polyline points="487.079,396.927 487.079,526.431 " />
<polyline points="487.079,526.431 488.749,601.628 " />
<polyline points="394.334,552.035 398.101,567.857 " />
<polyline points="401.868,552.035 398.101,567.857 " />
<polyline points="401.868,552.035 405.635,567.857 " />
<polyline points="409.402,552.035 405.635,567.857 " />
<polyline points="413.923,552.035 413.923,567.857 " />
<polyline points="419.95,552.035 419.95,567.857 " />
<polyline points="419.95,552.035 430.498,567.857 " />
<polyline points="430.498,552.035 430.498,567.857 " />
<polyline points="436.525,552.035 436.525,567.857 " />
<polyline points="436.525,552.035 441.799,552.035 444.06,552.789 445.566,554.295 446.32,555.802 447.073,558.063 447.073,561.83 446.32,564.09 445.566,565.597 444.06,567.104 441.799,567.857 436.525,567.857 " />
<polyline points="487.098,527.256 490.008,524.347 " />
</g>
<g clip-path="url(#clipId0)" fill="rgb(0,0,0)" stroke="rgb(0,0,0)" stroke-width="0.25" >
<path d="M417.812,394.92 424.14,394.92 420.976,375.934 420.976,375.934 z" />
</g>
<g clip-path="url(#clipId0)" fill="none" stroke="rgb(0,0,0)" stroke-width="0.25" >
<polyline points="503.349,419.57 626.586,591.09 " />
<polyline points="558.398,459.883 558.398,475.705 " />
<polyline points="568.946,459.883 568.946,475.705 " />
<polyline points="558.398,467.417 568.946,467.417 " />
<polyline points="590.042,465.157 598.329,475.705 " />
<polyline points="598.329,465.157 590.042,475.705 " />
<polyline points="617.918,459.883 621.685,475.705 " />
<polyline points="625.453,459.883 621.685,475.705 " />
<polyline points="625.453,459.883 629.22,475.705 " />
<polyline points="632.987,459.883 629.22,475.705 " />
<polyline points="613.737,600.322 660.12,566.995 " />
</g>
<g clip-path="url(#clipId0)" fill="rgb(0,0,0)" stroke="rgb(0,0,0)" stroke-width="0.25" >
<path d="M547.463,511.352 550.883,516.677 565.148,503.755 565.148,503.755 z" />
</g>
<g clip-path="url(#clipId0)" fill="none" stroke="rgb(0,0,0)" stroke-width="0.25" >
<polyline points="521.181,522.608 537.002,522.608 " />
<circle cx="529.091" cy="522.608" r="7.91091" />
<path d="M505.241,524.612  A109.325,109.325 0 0,0 514.501,523.955 " />
<path d="M540.81,517.968  A109.325,109.325 0 0,0 549.173,514.015 " />
<polyline points="677.252,554.686 719.076,524.636 " />
<polyline points="673.029,575.923 664.59,546.101 " />
<polyline points="673.029,575.923 660.12,566.995 " />
<polyline points="664.59,546.101 677.252,554.686 " />
<polyline points="504.387,359.469 502.88,360.223 501.373,361.73 500.62,363.99 500.62,365.497 501.373,367.757 502.88,369.264 504.387,370.017 506.647,370.017 508.154,369.264 509.661,367.757 510.414,365.497 510.414,363.99 509.661,361.73 508.154,360.223 506.647,359.469 504.387,359.469 " />
<polyline points="522.834,323.939 521.327,324.692 519.82,326.199 519.067,327.706 518.313,329.966 518.313,333.733 519.067,335.994 519.82,337.501 521.327,339.007 522.834,339.761 525.847,339.761 527.354,339.007 528.861,337.501 529.614,335.994 530.368,333.733 530.368,329.966 529.614,327.706 528.861,326.199 527.354,324.692 525.847,323.939 522.834,323.939 " />
<polyline points="525.094,336.747 529.614,341.268 " />
<polyline points="502.702,250.605 503.349,249.959 " />
<polyline points="494.906,239.755 503.349,231.313 " />
<polyline points="487.11,228.905 503.349,212.666 " />
<polyline points="487.079,210.289 503.349,194.02 " />
<polyline points="487.079,191.643 503.349,175.374 " />
<polyline points="487.079,172.997 503.349,156.728 " />
<polyline points="487.079,154.351 503.349,138.081 " />
<polyline points="487.079,135.704 503.349,119.435 " />
<polyline points="487.128,117.01 503.349,100.789 " />
<polyline points="487.328,98.1639 503.349,82.1429 " />
<polyline points="487.527,79.3181 503.349,63.4967 " />
<polyline points="487.727,60.4722 503.349,44.8505 " />
<polyline points="487.926,41.6264 503.349,26.2043 " />
<polyline points="488.126,22.7806 503.349,7.55808 " />
<polyline points="487.079,121.594 488.179,17.7874 " />
<polyline points="316.259,82.1381 303.623,91.66 " />
<polyline points="316.259,82.1381 322.153,89.9603 " />
<polyline points="310.242,86.6723 313.869,91.486 " />
<polyline points="324.42,92.9689 311.784,102.491 " />
<polyline points="324.42,92.9689 328.501,98.3843 329.26,100.643 329.111,101.698 328.361,103.206 327.158,104.113 325.501,104.418 324.446,104.27 322.484,102.918 318.403,97.5031 " />
<polyline points="321.577,101.715 318.132,110.915 " />
<polyline points="333.942,105.605 321.306,115.127 " />
<polyline points="333.942,105.605 339.837,113.427 " />
<polyline points="327.925,110.139 331.552,114.953 " />
<polyline points="321.306,115.127 327.201,122.949 " />
<polyline points="342.557,117.037 329.921,126.559 " />
<polyline points="342.557,117.037 348.452,124.859 " />
<polyline points="336.54,121.571 340.167,126.385 " />
<polyline points="329.921,126.559 335.816,134.381 " />
<polyline points="360.694,141.106 348.058,150.627 " />
<polyline points="360.694,141.106 363.868,145.318 364.626,147.576 364.33,149.686 363.58,151.195 362.228,153.157 359.22,155.424 356.961,156.182 355.304,156.488 353.194,156.191 351.232,154.839 348.058,150.627 " />
<polyline points="370.216,153.741 357.58,163.263 " />
<polyline points="377.932,167.738 378.229,165.627 377.47,163.369 375.657,160.962 373.695,159.61 371.584,159.314 370.381,160.22 369.631,161.729 369.483,162.784 369.788,164.441 371.305,168.958 371.61,170.615 371.462,171.67 370.712,173.179 368.907,174.539 366.796,174.242 364.835,172.891 363.021,170.484 362.262,168.225 362.559,166.115 " />
<polyline points="386.251,181.28 387.001,179.772 387.297,177.661 386.992,176.005 385.179,173.598 383.67,172.848 381.56,172.551 379.903,172.856 377.644,173.615 374.636,175.882 373.284,177.844 372.534,179.353 372.238,181.463 372.543,183.12 374.356,185.526 375.865,186.276 377.975,186.573 379.632,186.268 " />
<polyline points="392.433,183.225 379.797,192.747 " />
<polyline points="398.781,191.649 386.145,201.171 " />
<polyline points="386.416,187.759 392.764,196.183 " />
<polyline points="404.676,199.471 388.412,204.179 " />
<polyline points="404.676,199.471 395.667,213.807 " />
<polyline points="393.985,202.811 398.519,208.828 " />
<polyline points="410.57,207.293 397.934,216.815 " />
<polyline points="410.57,207.293 414.651,212.709 415.409,214.967 415.261,216.023 414.511,217.531 413.308,218.438 411.651,218.743 410.596,218.595 408.634,217.243 404.553,211.828 " />
<polyline points="407.727,216.04 404.282,225.239 " />
<polyline points="423.431,230.62 424.181,229.112 424.478,227.002 424.173,225.345 422.359,222.938 420.85,222.188 418.74,221.891 417.083,222.196 414.825,222.955 411.816,225.222 410.465,227.184 409.715,228.693 409.418,230.803 409.723,232.46 411.537,234.867 413.045,235.617 415.156,235.913 416.812,235.608 418.618,234.248 " />
<polyline points="416.35,231.239 418.618,234.248 " />
<polyline points="429.614,232.565 416.978,242.087 " />
<polyline points="429.614,232.565 435.508,240.387 " />
<polyline points="423.597,237.099 427.224,241.913 " />
<polyline points="416.978,242.087 422.872,249.909 " />
<polyline points="420.976,37.5914 420.976,151.875 " />
<polyline points="487.079,121.594 487.079,228.862 " />
</g>
<g clip-path="url(#clipId0)" fill="rgb(0,0,0)" stroke="rgb(0,0,0)" stroke-width="0.25" >
<path d="M417.812,37.5914 424.14,37.5914 420.976,18.6052 420.976,18.6052 z" />
</g>
<g clip-path="url(#clipId0)" fill="none" stroke="rgb(0,0,0)" stroke-width="0.25" >
<polyline points="391.885,89.8235 397.912,105.645 " />
<polyline points="403.94,89.8235 397.912,105.645 " />
<polyline points="488.179,17.7874 488.216,7.52941 " />
<polyline points="612.086,756.603 615.953,760.471 623.688,760.471 627.556,756.603 612.086,741.133 615.953,737.265 623.688,737.265 627.556,741.133 " />
<polyline points="635.291,760.471 635.291,737.265 646.894,737.265 650.761,741.133 650.761,745 646.894,748.868 635.291,748.868 " />
<polyline points="639.158,748.868 650.761,760.471 " />
<polyline points="658.496,741.133 662.364,737.265 670.099,737.265 673.966,741.133 673.966,745 670.099,748.868 662.364,748.868 658.496,752.735 658.496,760.471 673.966,760.471 " />
<polyline points="681.702,748.868 697.172,748.868 " />
<polyline points="704.907,741.133 708.774,737.265 716.51,737.265 720.377,741.133 720.377,745 716.51,748.868 708.774,748.868 704.907,752.735 704.907,760.471 720.377,760.471 " />
</g>
</svg>
