<?xml version="1.0" standalone="no"?>
<svg viewBox="0 0 1024 768" version="1.1" xmlns="http://www.w3.org/2000/svg" xmlns:xlink="http://www.w3.org/1999/xlink" stroke-linecap="round" stroke-linejoin="round" fill-rule="evenodd" xml:space="preserve" >
<defs >
<clipPath id="clipId0" >
<path d="M0,768 1024,768 1024,0 0,0 z" />
</clipPath>
</defs>
<g clip-path="url(#clipId0)" fill="none" stroke="rgb(0,0,0)" stroke-width="0.1" />
<g clip-path="url(#clipId0)" fill="none" stroke="rgb(0,0,0)" stroke-width="0.25" >
<polyline points="600.078,268.667 398.485,268.667 " />
<polyline points="564.991,366.255 33.5312,366.255 " />
<polyline points="33.5312,171.08 564.991,171.08 " />
<polyline points="33.5312,383.017 33.5312,285.43 " />
<polyline points="33.5312,251.905 33.5312,154.317 " />
<polyline points="56.3524,260.286 33.5312,251.905 " />
<polyline points="10.0392,277.049 56.3524,260.286 " />
<polyline points="10.0392,277.049 33.5312,285.43 " />
<polyline points="155.465,256.491 155.465,281.634 " />
<polyline points="172.228,256.491 172.228,281.634 " />
<polyline points="155.465,268.464 172.228,268.464 " />
<polyline points="205.752,264.872 218.922,281.634 " />
<polyline points="218.922,264.872 205.752,281.634 " />
<polyline points="250.052,256.491 256.038,281.634 " />
<polyline points="262.025,256.491 256.038,281.634 " />
<polyline points="262.025,256.491 268.011,281.634 " />
<polyline points="273.998,256.491 268.011,281.634 " />
<polyline points="501.422,320.785 499.028,321.983 496.633,324.377 495.436,327.969 495.436,330.364 496.633,333.956 499.028,336.35 501.422,337.548 505.014,337.548 507.409,336.35 509.803,333.956 511.001,330.364 511.001,327.969 509.803,324.377 507.409,321.983 505.014,320.785 501.422,320.785 " />
<polyline points="694.494,254.422 694.494,279.565 " />
<polyline points="694.494,254.422 710.059,254.422 " />
<polyline points="694.494,266.395 704.072,266.395 " />
<polyline points="716.045,254.422 716.045,279.565 " />
<polyline points="716.045,254.422 726.821,254.422 730.413,255.62 731.61,256.817 732.807,259.211 732.807,261.606 731.61,264.001 730.413,265.198 726.821,266.395 716.045,266.395 " />
<polyline points="724.426,266.395 732.807,279.565 " />
<polyline points="741.189,254.422 741.189,279.565 " />
<polyline points="741.189,254.422 756.753,254.422 " />
<polyline points="741.189,266.395 750.767,266.395 " />
<polyline points="741.189,279.565 756.753,279.565 " />
<polyline points="763.937,254.422 763.937,279.565 " />
<polyline points="763.937,254.422 779.502,254.422 " />
<polyline points="763.937,266.395 773.516,266.395 " />
<polyline points="763.937,279.565 779.502,279.565 " />
<polyline points="811.829,254.422 811.829,279.565 " />
<polyline points="811.829,254.422 820.21,254.422 823.802,255.62 826.197,258.014 827.394,260.409 828.591,264.001 828.591,269.987 827.394,273.579 826.197,275.974 823.802,278.368 820.21,279.565 811.829,279.565 " />
<polyline points="836.972,254.422 836.972,279.565 " />
<polyline points="862.115,258.014 859.721,255.62 856.129,254.422 851.34,254.422 847.748,255.62 845.353,258.014 845.353,260.409 846.551,262.803 847.748,264.001 850.142,265.198 857.326,267.593 859.721,268.79 860.918,269.987 862.115,272.382 862.115,275.974 859.721,278.368 856.129,279.565 851.34,279.565 847.748,278.368 845.353,275.974 " />
<polyline points="887.259,260.409 886.061,258.014 883.667,255.62 881.272,254.422 876.483,254.422 874.088,255.62 871.694,258.014 870.497,260.409 869.299,264.001 869.299,269.987 870.497,273.579 871.694,275.974 874.088,278.368 876.483,279.565 881.272,279.565 883.667,278.368 886.061,275.974 887.259,273.579 " />
<polyline points="895.64,254.422 895.64,279.565 " />
<polyline points="912.402,254.422 912.402,279.565 " />
<polyline points="895.64,266.395 912.402,266.395 " />
<polyline points="927.967,254.422 918.388,279.565 " />
<polyline points="927.967,254.422 937.545,279.565 " />
<polyline points="921.98,271.184 933.953,271.184 " />
<polyline points="943.532,254.422 943.532,279.565 " />
<polyline points="943.532,254.422 954.307,254.422 957.899,255.62 959.096,256.817 960.294,259.211 960.294,261.606 959.096,264.001 957.899,265.198 954.307,266.395 943.532,266.395 " />
<polyline points="951.913,266.395 960.294,279.565 " />
<polyline points="985.437,260.409 984.24,258.014 981.845,255.62 979.45,254.422 974.661,254.422 972.267,255.62 969.872,258.014 968.675,260.409 967.478,264.001 967.478,269.987 968.675,273.579 969.872,275.974 972.267,278.368 974.661,279.565 979.45,279.565 981.845,278.368 984.24,275.974 985.437,273.579 985.437,269.987 " />
<polyline points="979.45,269.987 985.437,269.987 " />
<polyline points="993.818,254.422 993.818,279.565 " />
<polyline points="993.818,254.422 1009.38,254.422 " />
<polyline points="993.818,266.395 1003.4,266.395 " />
<polyline points="993.818,279.565 1009.38,279.565 " />
<polyline points="473.196,215.12 470.801,216.317 468.407,218.712 467.209,221.107 466.012,224.698 466.012,230.685 467.209,234.277 468.407,236.671 470.801,239.066 473.196,240.263 477.985,240.263 480.38,239.066 482.774,236.671 483.972,234.277 485.169,230.685 485.169,224.698 483.972,221.107 482.774,218.712 480.38,216.317 477.985,215.12 473.196,215.12 " />
<polyline points="476.788,235.474 483.972,242.658 " />
<polyline points="471.7,291.793 462.121,316.936 " />
<polyline points="471.7,291.793 481.278,316.936 " />
<polyline points="465.713,308.555 477.686,308.555 " />
</g>
<g clip-path="url(#clipId0)" fill="rgb(0,0,0)" stroke="rgb(0,0,0)" stroke-width="0.25" >
<path d="M600.078,263.639 600.078,273.696 630.25,268.667 630.25,268.667 z" />
</g>
<g clip-path="url(#clipId0)" fill="none" stroke="rgb(0,0,0)" stroke-width="0.25" >
<polyline points="889.516,608.896 894.302,613.683 903.875,613.683 908.661,608.896 889.516,589.751 894.302,584.964 903.875,584.964 908.661,589.751 " />
<polyline points="918.234,613.683 918.234,584.964 932.593,584.964 937.379,589.751 937.379,594.537 932.593,599.323 918.234,599.323 " />
<polyline points="923.02,599.323 937.379,613.683 " />
<polyline points="946.952,589.751 951.738,584.964 961.311,584.964 966.097,589.751 966.097,594.537 961.311,599.323 951.738,599.323 946.952,604.11 946.952,613.683 966.097,613.683 " />
<polyline points="975.67,599.323 994.815,599.323 " />
<polyline points="1004.39,589.751 1009.17,584.964 1009.17,613.683 " />
<polyline points="1004.39,613.683 1013.96,613.683 " />
</g>
</svg>
