<?xml version="1.0" standalone="no"?>
<svg viewBox="0 0 1024 768" version="1.1" xmlns="http://www.w3.org/2000/svg" xmlns:xlink="http://www.w3.org/1999/xlink" stroke-linecap="round" stroke-linejoin="round" fill-rule="evenodd" xml:space="preserve" >
<defs >
<clipPath id="clipId0" >
<path d="M0,768 1024,768 1024,0 0,0 z" />
</clipPath>
</defs>
<g clip-path="url(#clipId0)" fill="none" stroke="rgb(0,0,0)" stroke-width="0.1" />
<g clip-path="url(#clipId0)" fill="none" stroke="rgb(0,0,0)" stroke-width="0.25" >
<polyline points="10.0392,298.633 24.0006,303.614 " />
<polyline points="617.704,195.057 617.704,395.147 " />
<polyline points="444.342,247.254 444.342,342.95 " />
<polyline points="444.342,342.95 24.0006,342.95 " />
<polyline points="24.0006,361.611 24.0006,303.614 " />
<polyline points="617.704,395.147 444.342,342.95 " />
<polyline points="444.342,349.176 444.342,456.576 " />
</g>
<g clip-path="url(#clipId0)" fill="rgb(0,0,0)" stroke="rgb(0,0,0)" stroke-width="0.25" >
<path d="M462.274,441.633 462.274,435.656 444.342,438.645 444.342,438.645 z" />
</g>
<g clip-path="url(#clipId0)" fill="none" stroke="rgb(0,0,0)" stroke-width="0.25" >
<polyline points="462.274,438.645 508.822,438.645 " />
</g>
<g clip-path="url(#clipId0)" fill="none" stroke="rgb(0,0,0)" stroke-width="0.1" >
<polyline points="444.342,342.95 444.342,342.95 " />
<polyline points="444.342,342.95 444.342,342.95 " />
</g>
<g clip-path="url(#clipId0)" fill="none" stroke="rgb(0,0,0)" stroke-width="0.25" >
<path d="M505.753,342.728  A225.414,225.414 0 0,0 510.009,314.464 " />
</g>
<g clip-path="url(#clipId0)" fill="rgb(0,0,0)" stroke="rgb(0,0,0)" stroke-width="0.25" >
<path d="M502.859,341.981 508.647,343.475 501.27,360.09 501.27,360.09 z" />
</g>
<g clip-path="url(#clipId0)" fill="none" stroke="rgb(0,0,0)" stroke-width="0.25" >
<polyline points="529.6,431.173 529.6,446.116 538.139,446.116 " />
<polyline points="617.704,401.373 617.704,456.576 " />
<polyline points="617.704,430.412 596.33,444.912 " />
<polyline points="617.704,442.707 596.33,457.206 " />
<polyline points="649.547,320.171 649.547,335.114 " />
<polyline points="649.547,320.171 654.528,320.171 656.662,320.883 658.086,322.306 658.797,323.729 659.509,325.864 659.509,329.421 658.797,331.556 658.086,332.979 656.662,334.402 654.528,335.114 649.547,335.114 " />
<polyline points="664.49,320.171 664.49,335.114 " />
<polyline points="679.432,322.306 678.009,320.883 675.875,320.171 673.028,320.171 670.894,320.883 669.47,322.306 669.47,323.729 670.182,325.152 670.894,325.864 672.317,326.575 676.586,327.998 678.009,328.71 678.721,329.421 679.432,330.844 679.432,332.979 678.009,334.402 675.875,335.114 673.028,335.114 670.894,334.402 669.47,332.979 " />
<polyline points="694.375,323.729 693.664,322.306 692.24,320.883 690.817,320.171 687.971,320.171 686.548,320.883 685.125,322.306 684.413,323.729 683.702,325.864 683.702,329.421 684.413,331.556 685.125,332.979 686.548,334.402 687.971,335.114 690.817,335.114 692.24,334.402 693.664,332.979 694.375,331.556 " />
<polyline points="699.356,320.171 699.356,335.114 " />
<polyline points="709.318,320.171 709.318,335.114 " />
<polyline points="699.356,327.287 709.318,327.287 " />
<polyline points="718.568,320.171 712.876,335.114 " />
<polyline points="718.568,320.171 724.261,335.114 " />
<polyline points="715.01,330.133 722.126,330.133 " />
<polyline points="727.818,320.171 727.818,335.114 " />
<polyline points="727.818,320.171 734.223,320.171 736.357,320.883 737.069,321.594 737.78,323.017 737.78,324.44 737.069,325.864 736.357,326.575 734.223,327.287 727.818,327.287 " />
<polyline points="732.799,327.287 737.78,335.114 " />
<polyline points="752.723,323.729 752.012,322.306 750.588,320.883 749.165,320.171 746.319,320.171 744.896,320.883 743.473,322.306 742.761,323.729 742.05,325.864 742.05,329.421 742.761,331.556 743.473,332.979 744.896,334.402 746.319,335.114 749.165,335.114 750.588,334.402 752.012,332.979 752.723,331.556 752.723,329.421 " />
<polyline points="749.165,329.421 752.723,329.421 " />
<polyline points="757.704,320.171 757.704,335.114 " />
<polyline points="757.704,320.171 766.954,320.171 " />
<polyline points="757.704,327.287 763.397,327.287 " />
<polyline points="757.704,335.114 766.954,335.114 " />
<polyline points="599.772,438.645 553.224,438.645 " />
<polyline points="617.704,406.429 596.33,420.928 " />
<polyline points="617.704,395.147 596.33,409.646 " />
</g>
<g clip-path="url(#clipId0)" fill="rgb(0,0,0)" stroke="rgb(0,0,0)" stroke-width="0.25" >
<path d="M599.772,441.633 599.772,435.656 617.704,438.645 617.704,438.645 z" />
</g>
<g clip-path="url(#clipId0)" fill="none" stroke="rgb(0,0,0)" stroke-width="0.25" >
<polyline points="617.704,418.346 596.33,432.845 " />
</g>
<g clip-path="url(#clipId0)" fill="none" stroke="rgb(0,0,0)" stroke-width="0.1" >
<polyline points="617.704,438.645 617.704,438.645 " />
<polyline points="617.704,395.147 617.704,395.147 " />
<polyline points="617.704,395.147 617.704,395.147 " />
</g>
<g clip-path="url(#clipId0)" fill="none" stroke="rgb(0,0,0)" stroke-width="0.25" >
<polyline points="366.618,296.552 234.937,296.552 " />
<polyline points="24.0006,247.254 444.342,247.254 " />
<polyline points="89.3262,284.173 89.3262,299.116 " />
<polyline points="99.2881,284.173 99.2881,299.116 " />
<polyline points="89.3262,291.288 99.2881,291.288 " />
<polyline points="119.212,289.154 127.039,299.116 " />
<polyline points="127.039,289.154 119.212,299.116 " />
<polyline points="145.54,284.173 149.097,299.116 " />
<polyline points="152.655,284.173 149.097,299.116 " />
<polyline points="152.655,284.173 156.213,299.116 " />
<polyline points="159.771,284.173 156.213,299.116 " />
<polyline points="24.0006,283.69 24.0006,225.693 " />
<polyline points="37.5634,288.671 24.0006,283.69 " />
<polyline points="10.0392,298.633 37.5634,288.671 " />
<circle cx="510.171" cy="294.696" r="7.47139" />
<polyline points="502.699,294.696 517.642,294.696 " />
<polyline points="617.704,195.057 444.342,247.254 " />
</g>
<g clip-path="url(#clipId0)" fill="rgb(0,0,0)" stroke="rgb(0,0,0)" stroke-width="0.25" >
<path d="M366.618,293.563 366.618,299.541 384.55,296.552 384.55,296.552 z" />
</g>
<g clip-path="url(#clipId0)" fill="none" stroke="rgb(0,0,0)" stroke-width="0.25" >
<polyline points="284.087,270.01 282.664,270.721 281.241,272.144 280.529,273.568 279.818,275.702 279.818,279.26 280.529,281.395 281.241,282.818 282.664,284.241 284.087,284.953 286.933,284.953 288.357,284.241 289.78,282.818 290.491,281.395 291.203,279.26 291.203,275.702 290.491,273.568 289.78,272.144 288.357,270.721 286.933,270.01 284.087,270.01 " />
<polyline points="286.222,282.106 290.491,286.376 " />
</g>
<g clip-path="url(#clipId0)" fill="rgb(0,0,0)" stroke="rgb(0,0,0)" stroke-width="0.25" >
<path d="M502.859,248.223 508.647,246.729 501.27,230.114 501.27,230.114 z" />
</g>
<g clip-path="url(#clipId0)" fill="none" stroke="rgb(0,0,0)" stroke-width="0.1" >
<polyline points="444.342,247.254 444.342,247.254 " />
</g>
<g clip-path="url(#clipId0)" fill="none" stroke="rgb(0,0,0)" stroke-width="0.25" >
<path d="M510.009,275.74  A225.414,225.414 0 0,0 505.753,247.476 " />
<polyline points="617.704,160.259 596.33,174.758 " />
<polyline points="617.704,195.057 617.704,128.36 " />
<polyline points="683.297,296.552 551.615,296.552 " />
<polyline points="617.704,174.599 596.33,189.098 " />
</g>
<g clip-path="url(#clipId0)" fill="none" stroke="rgb(0,0,0)" stroke-width="0.1" >
<polyline points="617.704,195.057 617.704,195.057 " />
</g>
<g clip-path="url(#clipId0)" fill="none" stroke="rgb(0,0,0)" stroke-width="0.25" >
<polyline points="682.841,257.296 682.841,272.239 " />
<polyline points="682.841,257.296 692.091,257.296 " />
<polyline points="682.841,264.412 688.533,264.412 " />
<polyline points="695.649,257.296 695.649,272.239 " />
<polyline points="695.649,257.296 702.053,257.296 704.188,258.007 704.899,258.719 705.611,260.142 705.611,261.565 704.899,262.988 704.188,263.7 702.053,264.412 695.649,264.412 " />
<polyline points="700.63,264.412 705.611,272.239 " />
<polyline points="710.592,257.296 710.592,272.239 " />
<polyline points="710.592,257.296 719.842,257.296 " />
<polyline points="710.592,264.412 716.284,264.412 " />
<polyline points="710.592,272.239 719.842,272.239 " />
<polyline points="724.111,257.296 724.111,272.239 " />
<polyline points="724.111,257.296 733.362,257.296 " />
<polyline points="724.111,264.412 729.804,264.412 " />
<polyline points="724.111,272.239 733.362,272.239 " />
</g>
<g clip-path="url(#clipId0)" fill="rgb(0,0,0)" stroke="rgb(0,0,0)" stroke-width="0.25" >
<path d="M683.297,293.563 683.297,299.541 701.228,296.552 701.228,296.552 z" />
</g>
<g clip-path="url(#clipId0)" fill="none" stroke="rgb(0,0,0)" stroke-width="0.25" >
<polyline points="617.704,145.76 596.33,160.259 " />
<polyline points="617.704,131.876 596.33,146.376 " />
<polyline points="834.78,342.95 951.146,247.254 " />
<polyline points="834.78,247.254 951.146,342.95 " />
<polyline points="834.78,395.147 834.78,195.057 " />
<polyline points="951.146,395.147 951.146,195.057 " />
<polyline points="886.074,433.23 889.632,448.173 " />
<polyline points="893.19,433.23 889.632,448.173 " />
<polyline points="893.19,433.23 896.747,448.173 " />
<polyline points="900.305,433.23 896.747,448.173 " />
</g>
<g clip-path="url(#clipId0)" fill="rgb(0,0,0)" stroke="rgb(0,0,0)" stroke-width="0.25" >
<path d="M932.886,439.173 932.886,445.15 950.817,442.161 950.817,442.161 z" />
<path d="M852.111,444.147 852.111,438.17 834.179,441.158 834.179,441.158 z" />
</g>
<g clip-path="url(#clipId0)" fill="none" stroke="rgb(0,0,0)" stroke-width="0.25" >
<polyline points="951.146,400.947 951.146,450.244 " />
<polyline points="834.78,400.947 834.78,450.244 " />
<polyline points="932.886,442.161 905.641,442.161 " />
<polyline points="951.146,342.95 834.78,342.95 " />
<polyline points="834.78,395.147 951.146,395.147 " />
<polyline points="852.111,441.158 879.356,441.158 " />
</g>
<g clip-path="url(#clipId0)" fill="none" stroke="rgb(0,0,0)" stroke-width="0.1" >
<polyline points="834.78,395.147 834.78,395.147 " />
<polyline points="951.146,438.645 951.146,438.645 " />
<polyline points="951.146,395.147 951.146,395.147 " />
</g>
<g clip-path="url(#clipId0)" fill="none" stroke="rgb(0,0,0)" stroke-width="0.25" >
<polyline points="834.78,247.254 951.146,247.254 " />
<polyline points="834.78,195.057 951.146,195.057 " />
<polyline points="856.546,635.987 860.199,639.64 867.504,639.64 871.157,635.987 856.546,621.376 860.199,617.724 867.504,617.724 871.157,621.376 " />
<polyline points="878.462,639.64 878.462,617.724 889.42,617.724 893.073,621.376 893.073,625.029 889.42,628.682 878.462,628.682 " />
<polyline points="882.115,628.682 893.073,639.64 " />
<polyline points="900.378,621.376 904.031,617.724 911.336,617.724 914.989,621.376 914.989,625.029 911.336,628.682 904.031,628.682 900.378,632.334 900.378,639.64 914.989,639.64 " />
<polyline points="922.295,628.682 936.905,628.682 " />
<polyline points="958.821,632.334 944.211,632.334 955.169,617.724 955.169,639.64 " />
<polyline points="104.834,306.369 103.411,307.081 101.988,308.504 101.276,310.639 101.276,312.062 101.988,314.196 103.411,315.619 104.834,316.331 106.969,316.331 108.392,315.619 109.815,314.196 110.527,312.062 110.527,310.639 109.815,308.504 108.392,307.081 106.969,306.369 104.834,306.369 " />
<polyline points="165.181,306.369 163.758,307.081 162.334,308.504 161.623,310.639 161.623,312.062 162.334,314.196 163.758,315.619 165.181,316.331 167.315,316.331 168.739,315.619 170.162,314.196 170.873,312.062 170.873,310.639 170.162,308.504 168.739,307.081 167.315,306.369 165.181,306.369 " />
<polyline points="767.942,159.586 769.365,158.874 771.499,156.74 771.499,171.683 " />
<polyline points="707.595,159.586 709.018,158.874 711.153,156.74 711.153,171.683 " />
<polyline points="693.51,139.524 693.51,154.467 " />
<polyline points="703.472,139.524 703.472,154.467 " />
<polyline points="693.51,146.64 703.472,146.64 " />
<polyline points="723.396,144.505 731.223,154.467 " />
<polyline points="731.223,144.505 723.396,154.467 " />
<polyline points="749.723,139.524 753.281,154.467 " />
<polyline points="756.839,139.524 753.281,154.467 " />
<polyline points="756.839,139.524 760.397,154.467 " />
<polyline points="763.955,139.524 760.397,154.467 " />
</g>
<g clip-path="url(#clipId0)" fill="rgb(0,0,0)" stroke="rgb(0,0,0)" stroke-width="0.25" >
<polygon points="630.004,208.056 617.704,221.442 624.998,204.791 " />
</g>
<g clip-path="url(#clipId0)" fill="none" stroke="rgb(0,0,0)" stroke-width="0.25" >
<polyline points="627.501,206.423 665.855,147.627 " />
<polyline points="665.855,147.627 682.265,147.627 " />
<polyline points="69.8443,555.977 84.7871,555.977 " />
<circle cx="77.3157" cy="555.977" r="7.47139" />
<polyline points="106.166,554.016 118.974,554.016 " />
<polyline points="106.166,558.285 118.974,558.285 " />
<polyline points="143.167,547.611 141.744,548.323 140.321,549.746 139.609,551.169 138.898,553.304 138.898,556.862 139.609,558.996 140.321,560.42 141.744,561.843 143.167,562.554 146.013,562.554 147.437,561.843 148.86,560.42 149.571,558.996 150.283,556.862 150.283,553.304 149.571,551.169 148.86,549.746 147.437,548.323 146.013,547.611 143.167,547.611 " />
<polyline points="155.264,547.611 155.264,562.554 " />
<polyline points="155.264,547.611 161.668,547.611 163.802,548.323 164.514,549.035 165.226,550.458 165.226,552.592 164.514,554.016 163.802,554.727 161.668,555.439 155.264,555.439 " />
<polyline points="173.053,547.611 173.053,562.554 " />
<polyline points="168.072,547.611 178.034,547.611 " />
<polyline points="181.591,547.611 181.591,562.554 " />
<polyline points="187.284,547.611 187.284,562.554 " />
<polyline points="187.284,547.611 192.976,562.554 " />
<polyline points="198.669,547.611 192.976,562.554 " />
<polyline points="198.669,547.611 198.669,562.554 " />
<polyline points="204.361,547.611 204.361,558.285 205.073,560.42 206.496,561.843 208.631,562.554 210.054,562.554 212.189,561.843 213.612,560.42 214.323,558.285 214.323,547.611 " />
<polyline points="220.016,547.611 220.016,562.554 " />
<polyline points="220.016,547.611 225.708,562.554 " />
<polyline points="231.401,547.611 225.708,562.554 " />
<polyline points="231.401,547.611 231.401,562.554 " />
<polyline points="255.594,547.611 249.901,562.554 " />
<polyline points="255.594,547.611 261.286,562.554 " />
<polyline points="252.036,557.573 259.152,557.573 " />
<polyline points="264.844,547.611 264.844,562.554 " />
<polyline points="264.844,547.611 274.806,562.554 " />
<polyline points="274.806,547.611 274.806,562.554 " />
<polyline points="290.46,551.169 289.749,549.746 288.326,548.323 286.902,547.611 284.056,547.611 282.633,548.323 281.21,549.746 280.498,551.169 279.787,553.304 279.787,556.862 280.498,558.996 281.21,560.42 282.633,561.843 284.056,562.554 286.902,562.554 288.326,561.843 289.749,560.42 290.46,558.996 290.46,556.862 " />
<polyline points="286.902,556.862 290.46,556.862 " />
<polyline points="295.441,547.611 295.441,562.554 303.98,562.554 " />
<polyline points="307.538,547.611 307.538,562.554 " />
<polyline points="307.538,547.611 316.788,547.611 " />
<polyline points="307.538,554.727 313.23,554.727 " />
<polyline points="307.538,562.554 316.788,562.554 " />
<polyline points="69.958,587.77 73.5158,602.713 " />
<polyline points="77.0736,587.77 73.5158,602.713 " />
<polyline points="77.0736,587.77 80.6314,602.713 " />
<polyline points="84.1892,587.77 80.6314,602.713 " />
<polyline points="103.401,594.175 116.209,594.175 " />
<polyline points="103.401,598.444 116.209,598.444 " />
<polyline points="135.422,587.77 138.979,602.713 " />
<polyline points="142.537,587.77 138.979,602.713 " />
<polyline points="142.537,587.77 146.095,602.713 " />
<polyline points="149.653,587.77 146.095,602.713 " />
<polyline points="168.865,594.175 181.673,594.175 " />
<polyline points="168.865,598.444 181.673,598.444 " />
<polyline points="200.885,587.77 204.443,602.713 " />
<polyline points="208.001,587.77 204.443,602.713 " />
<polyline points="208.001,587.77 211.559,602.713 " />
<polyline points="215.116,587.77 211.559,602.713 " />
<polyline points="87.6006,604.986 85.4659,605.697 84.0428,607.832 83.3312,611.39 83.3312,613.525 84.0428,617.082 85.4659,619.217 87.6006,619.929 89.0237,619.929 91.1584,619.217 92.5815,617.082 93.2931,613.525 93.2931,611.39 92.5815,607.832 91.1584,605.697 89.0237,604.986 87.6006,604.986 " />
<polyline points="150.047,607.832 151.47,607.121 153.605,604.986 153.605,619.929 " />
<polyline points="957.372,195.057 1013.74,195.057 " />
<polyline points="957.372,395.147 1013.74,395.147 " />
<polyline points="995.81,212.988 995.81,277.171 " />
<polyline points="995.81,377.216 995.81,313.033 " />
</g>
<g clip-path="url(#clipId0)" fill="rgb(0,0,0)" stroke="rgb(0,0,0)" stroke-width="0.25" >
<path d="M992.822,212.988 998.799,212.988 995.81,195.057 995.81,195.057 z" />
<path d="M992.822,377.216 998.799,377.216 995.81,395.147 995.81,395.147 z" />
</g>
<g clip-path="url(#clipId0)" fill="none" stroke="rgb(0,0,0)" stroke-width="0.25" >
<polyline points="989.833,304.068 989.833,286.136 " />
<polyline points="989.833,295.102 1001.79,295.102 " />
<polyline points="1001.79,286.136 1001.79,304.068 " />
<polyline points="1010.4,301.445 1011.83,300.734 1013.96,298.599 1013.96,313.542 " />
</g>
</svg>
