<?xml version="1.0" standalone="no"?>
<svg viewBox="0 0 1024 768" version="1.1" xmlns="http://www.w3.org/2000/svg" xmlns:xlink="http://www.w3.org/1999/xlink" stroke-linecap="round" stroke-linejoin="round" fill-rule="evenodd" xml:space="preserve" >
<defs >
<clipPath id="clipId0" >
<path d="M0,768 1024,768 1024,0 0,0 z" />
</clipPath>
</defs>
<g clip-path="url(#clipId0)" fill="none" stroke="rgb(0,0,0)" stroke-width="0.1" />
<g clip-path="url(#clipId0)" fill="none" stroke="rgb(0,0,0)" stroke-width="0.25" >
<polyline points="667.305,478.091 884.44,352.729 " />
<polyline points="884.44,352.729 884.44,164.685 " />
<polyline points="884.44,164.685 667.305,290.048 " />
<polyline points="667.305,290.048 667.305,478.091 " />
<polyline points="884.44,164.685 613.022,7.98198 " />
<polyline points="667.305,290.048 504.455,196.026 " />
<polyline points="504.455,196.026 341.604,290.048 " />
<polyline points="341.604,290.048 233.037,227.366 " />
<polyline points="233.037,227.366 613.022,7.98198 " />
<polyline points="233.037,227.366 233.037,415.41 " />
<polyline points="233.037,415.41 341.604,478.091 " />
<polyline points="341.604,478.091 341.604,290.048 " />
<polyline points="504.455,384.069 341.604,478.091 " />
<polyline points="667.305,478.091 504.455,384.069 " />
<polyline points="504.455,384.069 504.455,196.026 " />
<polyline points="233.037,415.41 613.022,196.026 " stroke-dasharray="31.340625,15.670312" />
<polyline points="884.44,352.729 613.022,196.026 " stroke-dasharray="31.340625,15.670312" />
<polyline points="679.242,489.731 791.39,554.479 " />
<polyline points="896.376,364.368 1008.52,429.116 " />
<polyline points="791.68,535.842 860.667,496.012 " />
<polyline points="976.244,429.284 907.257,469.114 " />
</g>
<g clip-path="url(#clipId0)" fill="rgb(0,0,0)" stroke="rgb(0,0,0)" stroke-width="0.25" >
<path d="M793.247,538.556 790.113,533.128 775.395,545.244 775.395,545.244 z" />
<path d="M977.811,431.998 974.677,426.57 992.529,419.882 992.529,419.882 z" />
</g>
<g clip-path="url(#clipId0)" fill="none" stroke="rgb(0,0,0)" stroke-width="0.25" >
<polyline points="870.978,473.161 875.455,491.965 " />
<polyline points="879.932,473.161 875.455,491.965 " />
<polyline points="879.932,473.161 884.41,491.965 " />
<polyline points="888.887,473.161 884.41,491.965 " />
<polyline points="898.952,158.194 1013.96,91.7933 " />
<polyline points="898.952,346.237 1013.96,279.837 " />
<polyline points="1003.42,116.686 1003.42,163.697 " />
<polyline points="1003.42,267.121 1003.42,220.11 " />
</g>
<g clip-path="url(#clipId0)" fill="rgb(0,0,0)" stroke="rgb(0,0,0)" stroke-width="0.25" >
<path d="M1000.28,116.686 1006.55,116.686 1003.42,97.8816 1003.42,97.8816 z" />
<path d="M1000.28,267.121 1006.55,267.121 1003.42,285.925 1003.42,285.925 z" />
</g>
<g clip-path="url(#clipId0)" fill="none" stroke="rgb(0,0,0)" stroke-width="0.25" >
<polyline points="997.002,182.501 997.002,201.306 " />
<polyline points="1009.54,182.501 1009.54,201.306 " />
<polyline points="997.002,191.456 1009.54,191.456 " />
<polyline points="194.454,292.406 198.932,311.21 " />
<polyline points="203.409,292.406 198.932,311.21 " />
<polyline points="203.409,292.406 207.886,311.21 " />
<polyline points="212.363,292.406 207.886,311.21 " />
</g>
<g clip-path="url(#clipId0)" fill="rgb(0,0,0)" stroke="rgb(0,0,0)" stroke-width="0.25" >
<path d="M170.734,286.692 173.869,281.263 156.016,274.575 156.016,274.575 z" />
<path d="M246.731,330.569 249.865,325.14 264.584,337.257 264.584,337.257 z" />
</g>
<g clip-path="url(#clipId0)" fill="none" stroke="rgb(0,0,0)" stroke-width="0.25" >
<polyline points="264.584,337.257 229.545,317.027 " />
<polyline points="221.1,237.375 134.023,287.295 " />
<polyline points="329.667,300.056 257.68,341.618 " />
<polyline points="442.573,440.197 442.573,459.002 " />
<polyline points="455.109,440.197 455.109,459.002 " />
<polyline points="442.573,449.152 455.109,449.152 " />
</g>
<g clip-path="url(#clipId0)" fill="rgb(0,0,0)" stroke="rgb(0,0,0)" stroke-width="0.25" >
<path d="M452.239,523.71 445.971,523.71 449.105,542.515 449.105,542.515 z" />
<path d="M452.239,372.616 445.971,372.616 449.105,353.812 449.105,353.812 z" />
</g>
<g clip-path="url(#clipId0)" fill="none" stroke="rgb(0,0,0)" stroke-width="0.25" >
<polyline points="448.987,524.158 448.987,477.147 " />
<polyline points="448.987,371.746 448.987,418.757 " />
<polyline points="353.541,487.157 468.55,553.557 " />
<polyline points="353.541,299.113 468.55,365.513 " />
<polyline points="270.012,361.366 103.796,457.331 " />
</g>
<g clip-path="url(#clipId0)" fill="rgb(0,0,0)" stroke="rgb(0,0,0)" stroke-width="0.25" >
<path d="M268.445,358.652 271.579,364.08 286.297,351.964 286.297,351.964 z" />
</g>
<g clip-path="url(#clipId0)" fill="none" stroke="rgb(0,0,0)" stroke-width="0.25" >
<polyline points="899.612,484.418 897.821,485.314 896.031,487.105 895.135,489.791 895.135,491.582 896.031,494.268 897.821,496.059 899.612,496.955 902.299,496.955 904.09,496.059 905.88,494.268 906.776,491.582 906.776,489.791 905.88,487.105 904.09,485.314 902.299,484.418 899.612,484.418 " />
<polyline points="213.932,310.703 215.723,309.808 218.41,307.122 218.41,325.926 " />
<polyline points="186.882,292.396 156.016,274.575 " />
<polyline points="613.022,196.026 613.022,7.98198 " stroke-dasharray="31.340625,15.670312" />
<polyline points="10.0392,467.121 10.0392,485.926 " />
<polyline points="10.0392,467.121 21.68,467.121 " />
<polyline points="10.0392,476.076 17.2028,476.076 " />
<polyline points="26.1573,467.121 26.1573,485.926 " />
<polyline points="26.1573,467.121 34.2163,467.121 36.9026,468.017 37.7981,468.912 38.6935,470.703 38.6935,472.494 37.7981,474.285 36.9026,475.18 34.2163,476.076 26.1573,476.076 " />
<polyline points="32.4254,476.076 38.6935,485.926 " />
<polyline points="49.4389,467.121 47.648,468.017 45.8571,469.808 44.9616,471.598 44.0662,474.285 44.0662,478.762 44.9616,481.448 45.8571,483.239 47.648,485.03 49.4389,485.926 53.0206,485.926 54.8115,485.03 56.6024,483.239 57.4979,481.448 58.3933,478.762 58.3933,474.285 57.4979,471.598 56.6024,469.808 54.8115,468.017 53.0206,467.121 49.4389,467.121 " />
<polyline points="64.6614,467.121 64.6614,485.926 " />
<polyline points="64.6614,467.121 71.825,485.926 " />
<polyline points="78.9886,467.121 71.825,485.926 " />
<polyline points="78.9886,467.121 78.9886,485.926 " />
<polyline points="10.0392,497.566 10.0392,516.371 " />
<polyline points="10.0392,497.566 21.68,497.566 " />
<polyline points="10.0392,506.521 17.2028,506.521 " />
<polyline points="30.6345,497.566 23.4709,516.371 " />
<polyline points="30.6345,497.566 37.7981,516.371 " />
<polyline points="26.1573,510.103 35.1117,510.103 " />
<polyline points="42.2753,497.566 42.2753,516.371 " />
<polyline points="42.2753,497.566 54.8115,516.371 " />
<polyline points="54.8115,497.566 54.8115,516.371 " />
<polyline points="149.568,391.557 147.777,392.452 145.986,394.243 145.091,396.034 144.195,398.72 144.195,403.198 145.091,405.884 145.986,407.675 147.777,409.466 149.568,410.361 153.15,410.361 154.941,409.466 156.731,407.675 157.627,405.884 158.522,403.198 158.522,398.72 157.627,396.034 156.731,394.243 154.941,392.452 153.15,391.557 149.568,391.557 " />
<polyline points="152.254,406.779 157.627,412.152 " />
<polyline points="886.558,736.378 883.931,733.752 879.991,732.438 874.738,732.438 870.798,733.752 868.172,736.378 868.172,739.005 869.485,741.632 870.798,742.945 873.425,744.258 881.305,746.885 883.931,748.198 885.245,749.511 886.558,752.138 886.558,756.078 883.931,758.705 879.991,760.018 874.738,760.018 870.798,758.705 868.172,756.078 " />
<polyline points="895.751,732.438 895.751,760.018 " />
<polyline points="895.751,732.438 907.571,732.438 911.511,733.752 912.824,735.065 914.138,737.692 914.138,740.318 912.824,742.945 911.511,744.258 907.571,745.571 895.751,745.571 " />
<polyline points="904.945,745.571 914.138,760.018 " />
<polyline points="924.644,732.438 939.091,732.438 931.211,742.945 935.151,742.945 937.778,744.258 939.091,745.571 940.404,749.511 940.404,752.138 939.091,756.078 936.464,758.705 932.524,760.018 928.584,760.018 924.644,758.705 923.331,757.391 922.018,754.765 " />
<polyline points="949.597,748.198 973.237,748.198 " />
<polyline points="986.37,737.692 988.997,736.378 992.937,732.438 992.937,760.018 " />
<polyline points="448.987,418.757 448.987,424.999 " />
<polyline points="257.68,341.618 240.935,350.773 " />
</g>
</svg>
