<?xml version="1.0" standalone="no"?>
<svg viewBox="0 0 1024 768" version="1.1" xmlns="http://www.w3.org/2000/svg" xmlns:xlink="http://www.w3.org/1999/xlink" stroke-linecap="round" stroke-linejoin="round" fill-rule="evenodd" xml:space="preserve" >
<defs >
<clipPath id="clipId0" >
<path d="M0,768 1024,768 1024,0 0,0 z" />
</clipPath>
</defs>
<g clip-path="url(#clipId0)" fill="none" stroke="rgb(0,0,0)" stroke-width="0.1" />
<g clip-path="url(#clipId0)" fill="none" stroke="rgb(0,0,0)" stroke-width="0.35" >
<polyline points="249.342,623.341 249.342,521.318 " />
<polyline points="249.342,521.318 160.988,470.307 " />
<polyline points="160.988,470.307 160.988,572.33 " />
<polyline points="160.988,572.33 249.342,623.341 " />
<polyline points="337.696,470.307 426.05,521.318 " />
<polyline points="337.696,368.285 337.696,470.307 " />
<polyline points="426.05,419.296 337.696,368.285 " />
<polyline points="426.05,521.318 426.05,419.296 " />
<polyline points="249.342,521.318 426.05,419.296 " />
<polyline points="249.342,623.341 426.05,521.318 " />
<polyline points="160.988,470.307 337.696,368.285 " />
<polyline points="646.935,495.813 646.935,291.768 " />
<polyline points="646.935,291.768 470.227,189.745 " />
<polyline points="470.227,189.745 470.227,393.79 " stroke-dasharray="25.505628,12.752814" />
<polyline points="470.227,393.79 646.935,495.813 " stroke-dasharray="25.505628,12.752814" />
<polyline points="697.946,262.316 874.654,364.339 " stroke-dasharray="25.505628,12.752814" />
<polyline points="697.946,58.2713 697.946,262.316 " stroke-dasharray="25.505628,12.752814" />
<polyline points="874.654,160.294 697.946,58.2713 " />
<polyline points="874.654,364.339 874.654,160.294 " />
<polyline points="646.935,495.813 874.654,364.339 " />
<polyline points="646.935,291.768 874.654,160.294 " />
<polyline points="470.227,189.745 697.946,58.2713 " />
<polyline points="337.696,368.285 470.227,189.745 " />
<polyline points="426.05,419.296 646.935,291.768 " />
<polyline points="426.05,521.318 646.935,495.813 " />
<polyline points="160.988,572.33 249.342,521.318 " stroke-dasharray="25.505628,12.752814" />
<polyline points="149.177,467.119 81.9148,428.285 " />
<polyline points="149.177,569.141 81.9148,530.307 " />
<polyline points="160.988,457.647 160.988,345.629 " />
<polyline points="249.342,508.658 249.342,396.64 " />
<polyline points="197.671,566.039 119.384,611.239 " />
<polyline points="54.289,614.389 54.289,629.692 " />
<polyline points="54.289,614.389 63.7625,614.389 " />
<polyline points="54.289,621.676 60.1189,621.676 " />
<polyline points="67.4062,614.389 67.4062,629.692 " />
<polyline points="67.4062,614.389 73.9648,614.389 76.151,615.118 76.8797,615.847 77.6084,617.304 77.6084,618.762 76.8797,620.219 76.151,620.948 73.9648,621.676 67.4062,621.676 " />
<polyline points="72.5073,621.676 77.6084,629.692 " />
<polyline points="86.3532,614.389 84.8958,615.118 83.4383,616.575 82.7096,618.033 81.9808,620.219 81.9808,623.863 82.7096,626.049 83.4383,627.506 84.8958,628.964 86.3532,629.692 89.2681,629.692 90.7256,628.964 92.1831,627.506 92.9118,626.049 93.6405,623.863 93.6405,620.219 92.9118,618.033 92.1831,616.575 90.7256,615.118 89.2681,614.389 86.3532,614.389 " />
<polyline points="98.7417,614.389 98.7417,629.692 " />
<polyline points="98.7417,614.389 104.572,629.692 " />
<polyline points="110.401,614.389 104.572,629.692 " />
<polyline points="110.401,614.389 110.401,629.692 " />
<polyline points="64.1269,639.166 64.1269,654.469 " />
<polyline points="64.1269,639.166 73.6004,639.166 " />
<polyline points="64.1269,646.453 69.9567,646.453 " />
<polyline points="80.8877,639.166 75.0579,654.469 " />
<polyline points="80.8877,639.166 86.7176,654.469 " />
<polyline points="77.2441,649.368 84.5314,649.368 " />
<polyline points="90.3612,639.166 90.3612,654.469 " />
<polyline points="90.3612,639.166 100.563,654.469 " />
<polyline points="100.563,639.166 100.563,654.469 " />
</g>
<g clip-path="url(#clipId0)" fill="rgb(0,0,0)" stroke="rgb(0,0,0)" stroke-width="0.35" >
<path d="M944.972,73.6284 948.798,80.255 966.765,65.4642 966.765,65.4642 z" />
</g>
<g clip-path="url(#clipId0)" fill="none" stroke="rgb(0,0,0)" stroke-width="0.35" >
<polyline points="953.512,73.1159 875.224,118.315 " />
<path d="M536.492,355.532  A193.913,193.913 0 0,0 503.024,320.762 " />
<path d="M536.492,508.565  A193.913,193.913 0 0,0 551.539,448.379 " />
<polyline points="99.7518,488.09 100.626,487.653 101.938,486.341 101.938,495.523 " />
<polyline points="84.6975,476.746 84.6975,492.049 " />
<polyline points="94.8998,476.746 94.8998,492.049 " />
<polyline points="84.6975,484.033 94.8998,484.033 " />
<polyline points="212.18,385.065 213.055,384.628 214.367,383.316 214.367,392.498 " />
<polyline points="195.669,373.721 199.312,389.024 " />
<polyline points="202.956,373.721 199.312,389.024 " />
<polyline points="202.956,373.721 206.6,389.024 " />
<polyline points="210.243,373.721 206.6,389.024 " />
<polyline points="644.863,611.896 627.373,621.734 644.863,631.572 " />
<polyline points="680.935,616.269 678.749,617.362 676.563,619.548 675.47,622.827 675.47,625.014 676.563,628.293 678.749,630.479 680.935,631.572 684.214,631.572 686.401,630.479 688.587,628.293 689.68,625.014 689.68,622.827 688.587,619.548 686.401,617.362 684.214,616.269 680.935,616.269 " />
<polyline points="697.332,616.269 697.332,631.572 " />
<polyline points="697.332,622.827 698.425,619.548 700.611,617.362 702.797,616.269 706.076,616.269 " />
<polyline points="734.497,611.896 751.987,621.734 734.497,631.572 " />
<polyline points="762.918,612.989 765.104,611.896 768.383,608.617 768.383,631.572 " />
<polyline points="537.7,624.014 536.388,624.67 535.076,625.982 534.42,627.294 533.765,629.261 533.765,632.54 534.42,634.508 535.076,635.82 536.388,637.131 537.7,637.787 540.323,637.787 541.635,637.131 542.947,635.82 543.602,634.508 544.258,632.54 544.258,629.261 543.602,627.294 542.947,625.982 541.635,624.67 540.323,624.014 537.7,624.014 " />
<polyline points="518.571,608.617 509.826,631.572 " />
<polyline points="518.571,608.617 527.316,631.572 " />
<polyline points="513.105,623.92 524.036,623.92 " />
<polyline points="586.187,608.617 577.442,631.572 " />
<polyline points="586.187,608.617 594.932,631.572 " />
<polyline points="580.722,623.92 591.653,623.92 " />
<polyline points="603.348,626.638 604.66,625.982 606.628,624.014 606.628,637.787 " />
<polyline points="572.599,604.245 552.923,639.224 " />
<polyline points="156.629,601.712 155.172,602.441 153.715,603.898 152.986,605.356 152.257,607.542 152.257,611.186 152.986,613.372 153.715,614.829 155.172,616.287 156.629,617.015 159.544,617.015 161.002,616.287 162.459,614.829 163.188,613.372 163.917,611.186 163.917,607.542 163.188,605.356 162.459,603.898 161.002,602.441 159.544,601.712 156.629,601.712 " />
<polyline points="158.816,614.1 163.188,618.473 " />
<circle cx="484.163" cy="308.131" r="7.65169" />
<polyline points="476.511,308.131 491.815,308.131 " />
<polyline points="545.595,425.253 560.898,425.253 " />
<circle cx="553.247" cy="425.253" r="7.65169" />
<polyline points="493.507,313.79 493.507,313.352 493.945,312.478 494.382,312.041 495.256,311.603 497.005,311.603 497.88,312.041 498.317,312.478 498.754,313.352 498.754,314.227 498.317,315.101 497.442,316.413 493.07,320.785 499.191,320.785 " />
<polyline points="563.35,431.329 564.224,430.891 565.536,429.58 565.536,438.762 " />
<polyline points="857.006,56.7563 860.649,72.0597 " />
<polyline points="864.293,56.7563 860.649,72.0597 " />
<polyline points="864.293,56.7563 867.936,72.0597 " />
<polyline points="871.58,56.7563 867.936,72.0597 " />
<polyline points="947.172,213.098 947.172,228.402 " />
<polyline points="957.374,213.098 957.374,228.402 " />
<polyline points="947.172,220.386 957.374,220.386 " />
<polyline points="876.974,72.9686 876.1,73.4058 875.225,74.2803 874.788,75.1548 874.351,76.4665 874.351,78.6527 874.788,79.9644 875.225,80.8389 876.1,81.7133 876.974,82.1506 878.723,82.1506 879.598,81.7133 880.472,80.8389 880.91,79.9644 881.347,78.6527 881.347,76.4665 880.91,75.1548 880.472,74.2803 879.598,73.4058 878.723,72.9686 876.974,72.9686 " />
<polyline points="965.339,227.076 964.464,227.514 963.59,228.388 963.152,229.262 962.715,230.574 962.715,232.76 963.152,234.072 963.59,234.947 964.464,235.821 965.339,236.258 967.088,236.258 967.962,235.821 968.837,234.947 969.274,234.072 969.711,232.76 969.711,230.574 969.274,229.262 968.837,228.388 967.962,227.514 967.088,227.076 965.339,227.076 " />
<polyline points="712.599,49.8977 785.983,7.52941 " />
<polyline points="889.308,151.92 962.692,109.552 " />
<polyline points="889.308,355.965 962.692,313.597 " />
<polyline points="399.126,135.277 399.126,150.581 407.871,150.581 " />
<polyline points="336.731,356.303 336.731,169.372 " />
<polyline points="470.227,177.085 470.227,92.2977 " />
<path d="M467.535,297.978  A193.913,193.913 0 0,0 403.961,279.015 " />
<path d="M550.956,409.879  A193.913,193.913 0 0,0 536.492,355.532 " />
<polyline points="782.642,721.994 778.367,717.718 771.954,715.581 763.404,715.581 756.991,717.718 752.716,721.994 752.716,726.269 754.853,730.544 756.991,732.682 761.266,734.819 774.092,739.094 778.367,741.232 780.505,743.37 782.642,747.645 782.642,754.058 778.367,758.333 771.954,760.471 763.404,760.471 756.991,758.333 752.716,754.058 " />
<polyline points="797.606,715.581 797.606,760.471 " />
<polyline points="797.606,715.581 816.844,715.581 823.257,717.718 825.395,719.856 827.532,724.131 827.532,728.406 825.395,732.682 823.257,734.819 816.844,736.957 797.606,736.957 " />
<polyline points="812.569,736.957 827.532,760.471 " />
<polyline points="861.734,715.581 840.358,745.507 872.422,745.507 " />
<polyline points="861.734,715.581 861.734,760.471 " />
<polyline points="885.248,741.232 923.725,741.232 " />
<polyline points="940.826,726.269 940.826,724.131 942.963,719.856 945.101,717.718 949.376,715.581 957.927,715.581 962.202,717.718 964.34,719.856 966.477,724.131 966.477,728.406 964.34,732.682 960.064,739.094 938.688,760.471 968.615,760.471 " />
<polyline points="334.755,142.762 336.212,142.033 338.398,139.847 338.398,155.15 " />
<polyline points="469.963,65.9603 467.777,66.6891 466.319,68.8753 465.591,72.5189 465.591,74.7051 466.319,78.3488 467.777,80.535 469.963,81.2637 471.42,81.2637 473.607,80.535 475.064,78.3488 475.793,74.7051 475.793,72.5189 475.064,68.8753 473.607,66.6891 471.42,65.9603 469.963,65.9603 " />
</g>
<g clip-path="url(#clipId0)" fill="rgb(0,0,0)" stroke="rgb(0,0,0)" stroke-width="0.35" >
<path d="M949.4,138.354 957.052,138.354 953.226,115.399 953.226,115.399 z" />
</g>
<g clip-path="url(#clipId0)" fill="none" stroke="rgb(0,0,0)" stroke-width="0.35" >
<polyline points="952.647,115.419 890.681,79.6433 " />
<polyline points="849.885,56.0896 775.939,13.3967 " />
</g>
<g clip-path="url(#clipId0)" fill="rgb(0,0,0)" stroke="rgb(0,0,0)" stroke-width="0.35" >
<path d="M955.831,296.082 948.179,296.082 952.005,319.037 952.005,319.037 z" />
</g>
<g clip-path="url(#clipId0)" fill="none" stroke="rgb(0,0,0)" stroke-width="0.35" >
<polyline points="952.647,115.419 952.37,203.118 " />
<polyline points="952.262,237.545 952.005,319.037 " />
</g>
<g clip-path="url(#clipId0)" fill="rgb(0,0,0)" stroke="rgb(0,0,0)" stroke-width="0.35" >
<path d="M944.972,73.6284 948.798,80.255 966.765,65.4642 966.765,65.4642 z" />
<path d="M934.952,100.117 931.127,106.744 952.919,114.908 952.919,114.908 z" />
<path d="M794.212,28.679 798.038,22.0525 776.245,13.8882 776.245,13.8882 z" />
<path d="M194.468,562.958 198.294,569.585 216.261,554.794 216.261,554.794 z" />
</g>
<g clip-path="url(#clipId0)" fill="none" stroke="rgb(0,0,0)" stroke-width="0.35" >
<polyline points="336.75,181.466 392.669,149.181 " />
<polyline points="410.568,138.847 470.246,104.392 " />
</g>
<g clip-path="url(#clipId0)" fill="rgb(0,0,0)" stroke="rgb(0,0,0)" stroke-width="0.35" >
<path d="M448.454,112.556 452.28,119.183 470.246,104.392 470.246,104.392 z" />
<path d="M358.543,173.302 354.717,166.675 336.75,181.466 336.75,181.466 z" />
<path d="M425.285,288.334 427.155,280.915 403.961,279.015 403.961,279.015 z" />
<path d="M523.902,335.96 518.235,341.102 536.492,355.532 536.492,355.532 z" />
<path d="M538.695,378.699 546.09,376.732 536.492,355.532 536.492,355.532 z" />
<path d="M545.926,487.292 538.517,485.382 536.492,508.565 536.492,508.565 z" />
<path d="M178.954,370.956 182.78,364.33 160.988,356.165 160.988,356.165 z" />
<path d="M231.375,392.386 227.549,399.012 249.342,407.177 249.342,407.177 z" />
</g>
<g clip-path="url(#clipId0)" fill="none" stroke="rgb(0,0,0)" stroke-width="0.35" >
<polyline points="249.342,407.177 217.488,388.786 " />
<polyline points="192.839,374.555 160.988,356.165 " />
</g>
<g clip-path="url(#clipId0)" fill="rgb(0,0,0)" stroke="rgb(0,0,0)" stroke-width="0.35" >
<path d="M85.9141,455.758 93.5658,455.758 89.74,432.803 89.74,432.803 z" />
<path d="M93.5658,511.87 85.9141,511.87 89.74,534.825 89.74,534.825 z" />
</g>
<g clip-path="url(#clipId0)" fill="none" stroke="rgb(0,0,0)" stroke-width="0.35" >
<polyline points="89.74,432.803 89.74,472.928 " />
<polyline points="89.74,495.098 89.74,534.825 " />
<polyline points="119.384,611.239 216.261,554.794 " />
</g>
</svg>
