<?xml version="1.0" standalone="no"?>
<svg viewBox="0 0 1024 768" version="1.1" xmlns="http://www.w3.org/2000/svg" xmlns:xlink="http://www.w3.org/1999/xlink" stroke-linecap="round" stroke-linejoin="round" fill-rule="evenodd" xml:space="preserve" >
<defs >
<clipPath id="clipId0" >
<path d="M0,768 1024,768 1024,0 0,0 z" />
</clipPath>
</defs>
<g clip-path="url(#clipId0)" fill="none" stroke="rgb(0,0,0)" stroke-width="0.1" />
<g clip-path="url(#clipId0)" fill="none" stroke="rgb(0,0,0)" stroke-width="0.35" >
<polyline points="293.14,239.305 97.0231,239.305 " />
<polyline points="293.14,353.855 97.0231,353.855 " />
<polyline points="293.14,353.855 293.14,239.305 " />
<polyline points="210.303,294.701 131.202,294.701 " />
<polyline points="478.545,411.13 659.374,411.13 " />
<polyline points="478.545,182.03 659.374,182.03 " />
<polyline points="293.14,239.305 478.545,182.03 " />
<polyline points="293.14,353.855 478.545,411.13 " />
<polyline points="478.545,411.13 478.545,182.03 " />
<polyline points="257.958,297.678 259.265,297.025 261.227,295.063 261.227,308.792 " />
<polyline points="14.5923,307.011 14.5923,323.486 " />
<polyline points="14.5923,307.011 24.791,307.011 " />
<polyline points="14.5923,314.856 20.8684,314.856 " />
<polyline points="32.6361,307.011 26.36,323.486 " />
<polyline points="32.6361,307.011 38.9122,323.486 " />
<polyline points="28.7135,317.995 36.5587,317.995 " />
<polyline points="42.8348,307.011 42.8348,323.486 " />
<polyline points="42.8348,307.011 53.818,323.486 " />
<polyline points="53.818,307.011 53.818,323.486 " />
<path d="M388.379,371.146  A331.046,331.046 0 0,0 396.688,308.033 " />
<path d="M396.688,285.127  A331.046,331.046 0 0,0 388.379,222.013 " />
<polyline points="659.374,347.437 659.374,434.04 " />
<polyline points="659.374,266.213 659.374,326.946 " />
<polyline points="641.629,347.437 659.374,347.437 " />
<polyline points="677.12,326.946 659.374,326.946 " />
<polyline points="677.12,326.946 641.629,347.437 " />
<polyline points="677.12,245.723 641.629,266.213 " />
<polyline points="677.12,245.723 659.374,245.723 " />
<polyline points="641.629,266.213 659.374,266.213 " />
<polyline points="659.374,159.12 659.374,245.723 " />
<circle cx="410.201" cy="298.646" r="6.8645" />
<polyline points="403.337,298.646 417.066,298.646 " />
<polyline points="636.878,304.258 635.57,304.912 634.263,306.22 633.609,308.181 633.609,309.488 634.263,311.45 635.57,312.757 636.878,313.411 638.839,313.411 640.147,312.757 641.454,311.45 642.108,309.488 642.108,308.181 641.454,306.22 640.147,304.912 638.839,304.258 636.878,304.258 " />
<polyline points="125.74,581.942 123.975,582.825 122.21,584.59 121.327,586.355 120.445,589.003 120.445,593.416 121.327,596.063 122.21,597.829 123.975,599.594 125.74,600.476 129.271,600.476 131.036,599.594 132.801,597.829 133.684,596.063 134.566,593.416 134.566,589.003 133.684,586.355 132.801,584.59 131.036,582.825 129.271,581.942 125.74,581.942 " />
<polyline points="114.769,286.932 79.2777,307.423 " />
<polyline points="114.769,286.932 97.0231,286.932 " />
<polyline points="79.2777,307.423 97.0231,307.423 " />
<polyline points="97.0231,227.85 97.0231,286.932 " />
<polyline points="97.0231,307.423 97.0231,353.855 " />
<polyline points="770.277,401.355 770.277,172.255 " />
<polyline points="770.277,172.255 1008.76,172.255 " />
<polyline points="770.277,401.355 1008.76,401.355 " />
<polyline points="1008.76,401.355 1008.76,172.255 " />
<polyline points="1008.76,348.526 770.277,348.526 " />
<polyline points="1008.76,233.976 770.277,233.976 " />
<polyline points="770.277,233.976 1008.76,348.526 " />
<polyline points="770.277,348.526 1008.76,233.976 " />
<polyline points="770.277,455.754 770.277,407.894 " />
<polyline points="1008.76,455.754 1008.76,407.894 " />
<polyline points="878.695,435.871 882.618,452.346 " />
<polyline points="886.54,435.871 882.618,452.346 " />
<polyline points="886.54,435.871 890.463,452.346 " />
<polyline points="894.386,435.871 890.463,452.346 " />
<polyline points="213.492,587.249 215.257,586.367 217.905,583.719 217.905,602.253 " />
<polyline points="10.0392,269.763 10.0392,286.237 " />
<polyline points="10.0392,269.763 20.2379,269.763 " />
<polyline points="10.0392,277.608 16.3153,277.608 " />
<polyline points="24.1605,269.763 24.1605,286.237 " />
<polyline points="24.1605,269.763 31.2211,269.763 33.5746,270.547 34.3592,271.332 35.1437,272.901 35.1437,274.47 34.3592,276.039 33.5746,276.823 31.2211,277.608 24.1605,277.608 " />
<polyline points="29.6521,277.608 35.1437,286.237 " />
<polyline points="44.5578,269.763 42.9888,270.547 41.4198,272.116 40.6353,273.685 39.8507,276.039 39.8507,279.961 40.6353,282.315 41.4198,283.884 42.9888,285.453 44.5578,286.237 47.6959,286.237 49.2649,285.453 50.8339,283.884 51.6185,282.315 52.403,279.961 52.403,276.039 51.6185,273.685 50.8339,272.116 49.2649,270.547 47.6959,269.763 44.5578,269.763 " />
<polyline points="57.8946,269.763 57.8946,286.237 " />
<polyline points="57.8946,269.763 64.1707,286.237 " />
<polyline points="70.4468,269.763 64.1707,286.237 " />
<polyline points="70.4468,269.763 70.4468,286.237 " />
<polyline points="99.0956,562.008 87.3279,592.898 " />
<polyline points="99.0956,562.008 110.863,592.898 " />
<polyline points="91.7408,582.601 106.45,582.601 " />
<polyline points="172.644,556.124 146.166,603.195 " />
<polyline points="188.824,562.008 177.057,592.898 " />
<polyline points="188.824,562.008 200.592,592.898 " />
<polyline points="181.47,582.601 196.179,582.601 " />
<polyline points="293.263,566.421 269.727,579.659 293.263,592.898 " />
<polyline points="341.805,572.304 338.863,573.775 335.921,576.717 334.45,581.13 334.45,584.072 335.921,588.485 338.863,591.427 341.805,592.898 346.218,592.898 349.159,591.427 352.101,588.485 353.572,584.072 353.572,581.13 352.101,576.717 349.159,573.775 346.218,572.304 341.805,572.304 " />
<polyline points="363.869,572.304 363.869,592.898 " />
<polyline points="363.869,581.13 365.34,576.717 368.282,573.775 371.224,572.304 375.637,572.304 " />
<polyline points="413.882,566.421 437.417,579.659 413.882,592.898 " />
<polyline points="483.017,567.892 485.959,566.421 490.372,562.008 490.372,592.898 " />
<polyline points="478.545,172.551 478.545,118.873 " />
<polyline points="293.14,229.826 293.14,118.873 " />
<polyline points="780.96,622.731 775.207,616.978 766.577,614.101 755.071,614.101 746.441,616.978 740.688,622.731 740.688,628.484 743.565,634.237 746.441,637.114 752.195,639.99 769.454,645.744 775.207,648.62 778.084,651.497 780.96,657.25 780.96,665.879 775.207,671.633 766.577,674.509 755.071,674.509 746.441,671.633 740.688,665.879 " />
<polyline points="801.096,614.101 801.096,674.509 " />
<polyline points="801.096,614.101 826.985,614.101 835.615,616.978 838.491,619.855 841.368,625.608 841.368,631.361 838.491,637.114 835.615,639.99 826.985,642.867 801.096,642.867 " />
<polyline points="821.232,642.867 841.368,674.509 " />
<polyline points="887.393,614.101 858.627,654.373 901.775,654.373 " />
<polyline points="887.393,614.101 887.393,674.509 " />
<polyline points="919.035,648.62 970.813,648.62 " />
<polyline points="999.578,625.608 1005.33,622.731 1013.96,614.101 1013.96,674.509 " />
<polyline points="97.0231,353.855 97.0231,364.921 " />
</g>
<g clip-path="url(#clipId0)" fill="rgb(0,0,0)" stroke="rgb(0,0,0)" stroke-width="0.35" >
<path d="M796.051,448.934 796.051,440.343 770.277,444.639 770.277,444.639 z" />
</g>
<g clip-path="url(#clipId0)" fill="none" stroke="rgb(0,0,0)" stroke-width="0.35" >
<polyline points="592.337,298.459 509.852,298.459 " />
<polyline points="770.277,444.639 871.462,444.639 " />
<polyline points="902.935,444.639 1008.76,444.639 " />
</g>
<g clip-path="url(#clipId0)" fill="rgb(0,0,0)" stroke="rgb(0,0,0)" stroke-width="0.35" >
<path d="M982.991,440.343 982.991,448.934 1008.76,444.639 1008.76,444.639 z" />
</g>
<g clip-path="url(#clipId0)" fill="none" stroke="rgb(0,0,0)" stroke-width="0.35" >
<polyline points="621.647,411.057 621.647,315.033 " />
<polyline points="621.647,280.252 621.647,181.957 " />
</g>
<g clip-path="url(#clipId0)" fill="rgb(0,0,0)" stroke="rgb(0,0,0)" stroke-width="0.35" >
<path d="M318.914,141.117 318.914,132.526 293.14,136.822 293.14,136.822 z" />
<path d="M452.771,132.526 452.771,141.117 478.545,136.822 478.545,136.822 z" />
<path d="M242.667,265.078 251.258,265.078 246.962,239.305 246.962,239.305 z" />
<path d="M251.258,328.081 242.667,328.081 246.962,353.855 246.962,353.855 z" />
<path d="M617.351,207.73 625.942,207.73 621.647,181.957 621.647,181.957 z" />
<path d="M625.942,385.283 617.351,385.283 621.647,411.057 621.647,411.057 z" />
<path d="M566.564,294.163 566.564,302.755 592.337,298.459 592.337,298.459 z" />
</g>
<g clip-path="url(#clipId0)" fill="none" stroke="rgb(0,0,0)" stroke-width="0.35" >
<polyline points="375.038,378.441 385.933,382.521 " />
</g>
<g clip-path="url(#clipId0)" fill="rgb(0,0,0)" stroke="rgb(0,0,0)" stroke-width="0.35" >
<path d="M393.944,357.65 385.445,356.396 385.933,382.521 385.933,382.521 z" />
</g>
<g clip-path="url(#clipId0)" fill="none" stroke="rgb(0,0,0)" stroke-width="0.35" >
<polyline points="509.852,298.459 491.567,298.459 " />
<polyline points="615.568,287.672 615.568,304.147 " />
<polyline points="626.551,287.672 626.551,304.147 " />
<polyline points="615.568,295.517 626.551,295.517 " />
<polyline points="241.211,286.574 241.211,303.049 " />
<polyline points="252.194,286.574 252.194,303.049 " />
<polyline points="241.211,294.419 252.194,294.419 " />
<polyline points="381.082,127.892 381.082,144.367 390.496,144.367 " />
<polyline points="478.545,136.822 397.354,136.822 " />
<polyline points="372.041,136.822 293.14,136.822 " />
</g>
<g clip-path="url(#clipId0)" fill="rgb(0,0,0)" stroke="rgb(0,0,0)" stroke-width="0.35" >
<path d="M185.156,290.093 185.156,298.684 210.93,294.388 210.93,294.388 z" />
</g>
<g clip-path="url(#clipId0)" fill="none" stroke="rgb(0,0,0)" stroke-width="0.35" >
<polyline points="157.857,265.764 156.288,266.549 154.719,268.118 153.934,269.687 153.15,272.04 153.15,275.963 153.934,278.316 154.719,279.885 156.288,281.455 157.857,282.239 160.995,282.239 162.564,281.455 164.133,279.885 164.918,278.316 165.702,275.963 165.702,272.04 164.918,269.687 164.133,268.118 162.564,266.549 160.995,265.764 157.857,265.764 " />
<polyline points="160.211,279.101 164.918,283.808 " />
<polyline points="246.962,353.855 246.962,311.181 " />
<polyline points="246.962,281.451 246.962,239.305 " />
<polyline points="289.191,96.629 290.761,95.8445 293.114,93.4909 293.114,109.966 " />
<polyline points="476.429,93.4909 474.075,94.2755 472.506,96.629 471.721,100.552 471.721,102.905 472.506,106.828 474.075,109.181 476.429,109.966 477.998,109.966 480.351,109.181 481.92,106.828 482.705,102.905 482.705,100.552 481.92,96.629 480.351,94.2755 477.998,93.4909 476.429,93.4909 " />
<polyline points="390.139,221.478 385.887,210.653 " />
</g>
<g clip-path="url(#clipId0)" fill="rgb(0,0,0)" stroke="rgb(0,0,0)" stroke-width="0.35" >
<path d="M385.709,236.782 394.192,235.428 385.887,210.653 385.887,210.653 z" />
</g>
<g clip-path="url(#clipId0)" fill="none" stroke="rgb(0,0,0)" stroke-width="0.35" >
<polyline points="396.688,308.033 396.688,285.127 " />
</g>
</svg>
