<?xml version="1.0" standalone="no"?>
<svg viewBox="0 0 1024 768" version="1.1" xmlns="http://www.w3.org/2000/svg" xmlns:xlink="http://www.w3.org/1999/xlink" stroke-linecap="round" stroke-linejoin="round" fill-rule="evenodd" xml:space="preserve" >
<defs >
<clipPath id="clipId0" >
<path d="M0,768 1024,768 1024,0 0,0 z" />
</clipPath>
</defs>
<g clip-path="url(#clipId0)" fill="none" stroke="rgb(0,0,0)" stroke-width="0.1" />
<g clip-path="url(#clipId0)" fill="none" stroke="rgb(0,0,0)" stroke-width="0.25" >
<polyline points="922.004,700.683 919.945,698.624 916.856,697.595 912.738,697.595 909.649,698.624 907.59,700.683 907.59,702.742 908.62,704.802 909.649,705.831 911.708,706.861 917.886,708.92 919.945,709.949 920.974,710.979 922.004,713.038 922.004,716.127 919.945,718.186 916.856,719.215 912.738,719.215 909.649,718.186 907.59,716.127 " />
<polyline points="929.211,697.595 929.211,719.215 " />
<polyline points="929.211,697.595 938.477,697.595 941.566,698.624 942.595,699.654 943.625,701.713 943.625,703.772 942.595,705.831 941.566,706.861 938.477,707.89 929.211,707.89 " />
<polyline points="936.418,707.89 943.625,719.215 " />
<polyline points="962.157,697.595 951.861,697.595 950.832,706.861 951.861,705.831 954.95,704.802 958.039,704.802 961.128,705.831 963.187,707.89 964.216,710.979 964.216,713.038 963.187,716.127 961.128,718.186 958.039,719.215 954.95,719.215 951.861,718.186 950.832,717.156 949.802,715.097 " />
<polyline points="971.423,709.949 989.955,709.949 " />
<polyline points="1007.46,697.595 997.162,712.009 1012.61,712.009 " />
<polyline points="1007.46,697.595 1007.46,719.215 " />
<polyline points="528.153,261.748 508.444,225.683 " />
<polyline points="533.117,225.683 508.444,225.683 " />
<polyline points="557.37,371.915 549.71,376.337 " />
<polyline points="553.722,374.021 554.873,374.329 555.659,374.848 556.29,375.942 556.347,376.882 556.039,378.033 555.155,379.029 554.425,379.451 553.12,379.718 551.97,379.409 551.184,378.89 550.552,377.796 550.496,376.856 550.804,375.705 " />
<polyline points="558.291,351.19 547.28,361.601 " />
<polyline points="561.801,357.27 547.28,361.601 " />
<polyline points="561.801,357.27 550.79,367.68 " />
<polyline points="565.311,363.349 550.79,367.68 " />
<polyline points="570.181,381.612 565.531,393.213 " />
<polyline points="574.042,388.299 561.67,386.526 " />
<polyline points="588.125,402.864 575.359,410.235 " />
<polyline points="593.039,411.375 580.273,418.746 " />
<polyline points="582.046,406.374 586.96,414.885 " />
<polyline points="847.814,151.975 176.293,151.975 " stroke-dasharray="61.423081,12.284616,12.284616,12.284616" />
<polyline points="583.823,273.718 583.121,272.314 581.015,271.612 579.611,271.612 577.505,272.314 576.101,274.42 575.399,277.93 575.399,281.44 576.101,284.247 577.505,285.651 579.611,286.353 580.313,286.353 582.419,285.651 583.823,284.247 584.525,282.142 584.525,281.44 583.823,279.334 582.419,277.93 580.313,277.228 579.611,277.228 577.505,277.93 576.101,279.334 575.399,281.44 " />
<polyline points="592.949,271.612 590.843,272.314 589.439,274.42 588.737,277.93 588.737,280.036 589.439,283.546 590.843,285.651 592.949,286.353 594.353,286.353 596.459,285.651 597.863,283.546 598.565,280.036 598.565,277.93 597.863,274.42 596.459,272.314 594.353,271.612 592.949,271.612 " />
<ellipse rx="1.40396" ry="1.40396" cx="602.776" cy="273.016" />
<polyline points="229.567,182.3 233.077,197.041 " />
<polyline points="236.587,182.3 233.077,197.041 " />
<polyline points="236.587,182.3 240.097,197.041 " />
<polyline points="243.607,182.3 240.097,197.041 " />
<polyline points="261.858,187.214 269.58,197.041 " />
<polyline points="269.58,187.214 261.858,197.041 " />
<polyline points="289.235,182.3 289.235,197.041 " />
<polyline points="299.063,182.3 299.063,197.041 " />
<polyline points="289.235,189.319 299.063,189.319 " />
<polyline points="679.644,182.3 683.154,197.041 " />
<polyline points="686.663,182.3 683.154,197.041 " />
<polyline points="686.663,182.3 690.173,197.041 " />
<polyline points="693.683,182.3 690.173,197.041 " />
<polyline points="711.935,187.214 719.656,197.041 " />
<polyline points="719.656,187.214 711.935,197.041 " />
<polyline points="739.312,182.3 739.312,197.041 " />
<polyline points="749.139,182.3 749.139,197.041 " />
<polyline points="739.312,189.319 749.139,189.319 " />
<path d="M597.788,263.071  A136.565,136.565 0 0,0 602.052,240.963 " />
<polyline points="628.3,507.115 582.626,480.746 " />
<polyline points="628.3,507.115 616.881,487.338 " />
<polyline points="582.626,480.746 594.045,500.523 " />
<polyline points="668.846,457.336 616.881,487.338 " />
<polyline points="594.045,500.523 542.08,530.525 " />
<polyline points="139.372,165.16 139.372,255.166 " />
<polyline points="139.372,48.7845 139.372,138.791 " />
<polyline points="116.535,165.16 139.372,165.16 " />
<polyline points="162.208,138.791 139.372,138.791 " />
<polyline points="162.208,138.791 116.535,165.16 " />
<polyline points="910.696,138.791 865.023,165.16 " />
<polyline points="910.696,138.791 887.86,138.791 " />
<polyline points="865.023,165.16 887.86,165.16 " />
<polyline points="887.86,48.7845 887.86,138.791 " />
<polyline points="887.86,165.16 887.86,255.166 " />
</g>
<g clip-path="url(#clipId0)" fill="rgb(0,0,0)" stroke="rgb(0,0,0)" stroke-width="0.25" >
<path d="M570.866,310.196 574.523,313.478 562.848,322.809 562.848,322.809 z" />
<path d="M599.598,240.83 604.505,241.095 602.847,226.243 602.847,226.243 z" />
</g>
<g clip-path="url(#clipId0)" fill="none" stroke="rgb(0,0,0)" stroke-width="0.25" >
<path d="M572.694,311.837  A136.565,136.565 0 0,0 584.885,293.944 " />
<polyline points="261.181,522.961 260.654,521.908 259.601,520.855 258.548,520.328 256.442,520.328 255.389,520.855 254.336,521.908 253.81,522.961 253.283,524.54 253.283,527.173 253.81,528.752 254.336,529.805 255.389,530.858 256.442,531.385 258.548,531.385 259.601,530.858 260.654,529.805 261.181,528.752 " />
<polyline points="165.55,522.435 164.497,521.382 162.918,520.855 160.812,520.855 159.233,521.382 158.18,522.435 158.18,523.488 158.706,524.541 159.233,525.067 160.286,525.594 163.444,526.647 164.497,527.173 165.024,527.7 165.55,528.753 165.55,530.332 164.497,531.385 162.918,531.912 160.812,531.912 159.233,531.385 158.18,530.332 " />
<polyline points="146.229,508.25 139.209,526.677 " />
<polyline points="146.229,508.25 153.249,526.677 " />
<polyline points="141.842,520.534 150.616,520.534 " />
<polyline points="194.49,516.147 210.284,516.147 " />
<polyline points="194.49,521.412 210.284,521.412 " />
<polyline points="240.118,508.25 233.099,526.677 " />
<polyline points="240.118,508.25 247.138,526.677 " />
<polyline points="235.731,520.534 244.506,520.534 " />
</g>
<g clip-path="url(#clipId0)" fill="rgb(0,0,0)" stroke="rgb(0,0,0)" stroke-width="0.25" >
<path d="M665.336,593.132 669.592,590.676 674.835,604.671 674.835,604.671 z" />
</g>
<g clip-path="url(#clipId0)" fill="none" stroke="rgb(0,0,0)" stroke-width="0.25" >
<polyline points="663.103,545.709 661.695,546.403 660.283,547.798 659.572,549.198 658.857,551.299 658.835,554.809 659.524,556.919 660.218,558.327 661.613,559.74 663.013,560.451 665.82,560.468 667.229,559.775 668.641,558.379 669.352,556.98 670.067,554.878 670.088,551.368 669.399,549.258 668.706,547.85 667.311,546.437 665.911,545.727 663.103,545.709 " />
<polyline points="665.136,557.656 669.322,561.893 " />
<polyline points="675.497,556.797 675.442,565.642 " />
<polyline points="675.471,561.009 676.318,560.172 677.163,559.756 678.427,559.764 679.267,560.19 680.104,561.038 680.517,562.304 680.512,563.146 680.083,564.407 679.235,565.244 678.391,565.66 677.127,565.652 676.287,565.226 675.45,564.379 " />
<polyline points="667.464,591.904 631.655,529.881 " />
<polyline points="636.89,568.834 637.143,577.675 " />
<polyline points="637.01,573.044 637.828,572.178 638.658,571.733 639.921,571.697 640.776,572.094 641.642,572.912 642.099,574.163 642.123,575.005 641.738,576.28 640.92,577.146 640.09,577.591 638.827,577.627 637.973,577.23 637.107,576.412 " />
<polyline points="625.51,556.969 620.317,571.865 " />
<polyline points="625.51,556.969 631.544,571.544 " />
<polyline points="622.282,566.893 629.299,566.693 " />
<polyline points="394.132,225.683 139.372,225.683 " />
<polyline points="393.904,225.777 562.908,518.5 " />
<polyline points="528.153,261.748 648.018,469.361 " />
<polyline points="400.477,138.58 580.63,450.614 " stroke-dasharray="61.423081,12.284616,12.284616,12.284616" />
<polyline points="958.13,127.307 956.726,128.009 955.322,129.413 954.62,130.817 953.918,132.922 953.918,136.432 954.62,138.538 955.322,139.942 956.726,141.346 958.13,142.048 960.938,142.048 962.342,141.346 963.746,139.942 964.448,138.538 965.15,136.432 965.15,132.922 964.448,130.817 963.746,129.413 962.342,128.009 960.938,127.307 958.13,127.307 " />
<polyline points="960.236,139.24 964.448,143.452 " />
<polyline points="976.96,138.233 976.117,137.391 974.854,136.97 973.169,136.97 971.906,137.391 971.063,138.233 971.063,139.076 971.484,139.918 971.906,140.339 972.748,140.76 975.275,141.603 976.117,142.024 976.539,142.445 976.96,143.288 976.96,144.551 976.117,145.393 974.854,145.815 973.169,145.815 971.906,145.393 971.063,144.551 " />
<polyline points="976.96,170.027 976.117,169.184 974.854,168.763 973.169,168.763 971.906,169.184 971.063,170.027 971.063,170.869 971.484,171.712 971.906,172.133 972.748,172.554 975.275,173.396 976.117,173.818 976.539,174.239 976.96,175.081 976.96,176.345 976.117,177.187 974.854,177.608 973.169,177.608 971.906,177.187 971.063,176.345 " />
<polyline points="959.901,159.69 954.285,174.432 " />
<polyline points="959.901,159.69 965.516,174.432 " />
<polyline points="956.391,169.518 963.411,169.518 " />
<polyline points="39.1139,157.695 33.4981,172.437 " />
<polyline points="39.1139,157.695 44.7297,172.437 " />
<polyline points="35.604,167.523 42.6238,167.523 " />
<polyline points="55.73,170.237 55.3088,169.394 54.4664,168.552 53.6241,168.131 51.9393,168.131 51.0969,168.552 50.2546,169.394 49.8334,170.237 49.4122,171.5 49.4122,173.606 49.8334,174.87 50.2546,175.712 51.0969,176.555 51.9393,176.976 53.6241,176.976 54.4664,176.555 55.3088,175.712 55.73,174.87 " />
<polyline points="999.219,151.975 932.405,151.975 " />
</g>
<g clip-path="url(#clipId0)" fill="rgb(0,0,0)" stroke="rgb(0,0,0)" stroke-width="0.25" >
<path d="M999.219,149.518 999.219,154.432 1013.96,151.975 1013.96,151.975 z" />
<path d="M80.223,149.518 80.223,154.432 94.9645,151.975 94.9645,151.975 z" />
</g>
<g clip-path="url(#clipId0)" fill="none" stroke="rgb(0,0,0)" stroke-width="0.25" >
<polyline points="80.223,151.975 10.0392,151.975 " />
<polyline points="54.5664,140.252 54.1452,139.409 53.3029,138.567 52.4605,138.146 50.7758,138.146 49.9334,138.567 49.091,139.409 48.6698,140.252 48.2486,141.515 48.2486,143.621 48.6698,144.885 49.091,145.727 49.9334,146.569 50.7758,146.991 52.4605,146.991 53.3029,146.569 54.1452,145.727 54.5664,144.885 " />
<polyline points="36.9359,128.076 35.5319,128.778 34.128,130.182 33.426,131.586 32.724,133.692 32.724,137.202 33.426,139.308 34.128,140.712 35.5319,142.116 36.9359,142.818 39.7438,142.818 41.1477,142.116 42.5517,140.712 43.2537,139.308 43.9557,137.202 43.9557,133.692 43.2537,131.586 42.5517,130.182 41.1477,128.778 39.7438,128.076 36.9359,128.076 " />
<polyline points="39.0418,140.01 43.2537,144.221 " />
<polyline points="887.86,225.683 533.117,225.683 " />
<polyline points="887.86,78.2676 139.372,78.2676 " />
</g>
</svg>
