<?xml version="1.0" standalone="no"?>
<svg viewBox="0 0 1024 768" version="1.1" xmlns="http://www.w3.org/2000/svg" xmlns:xlink="http://www.w3.org/1999/xlink" stroke-linecap="round" stroke-linejoin="round" fill-rule="evenodd" xml:space="preserve" >
<defs >
<clipPath id="clipId0" >
<path d="M0,768 1024,768 1024,0 0,0 z" />
</clipPath>
</defs>
<g clip-path="url(#clipId0)" fill="none" stroke="rgb(0,0,0)" stroke-width="0.1" />
<g clip-path="url(#clipId0)" fill="none" stroke="rgb(0,0,0)" stroke-width="0.25" >
<polyline points="25.2915,218.532 10.0392,218.791 " />
<polyline points="412.122,218.109 400.304,197.71 " />
<polyline points="397.967,295.551 409.962,315.978 " />
<polyline points="393.682,295.54 397.967,295.551 " />
<polyline points="647.215,341.886 646.482,340.419 644.282,339.686 642.815,339.686 640.615,340.419 639.148,342.62 638.414,346.287 638.414,349.954 639.148,352.887 640.615,354.354 642.815,355.088 643.548,355.088 645.749,354.354 647.215,352.887 647.949,350.687 647.949,349.954 647.215,347.753 645.749,346.287 643.548,345.553 642.815,345.553 640.615,346.287 639.148,347.753 638.414,349.954 " />
<polyline points="656.75,339.686 654.549,340.419 653.083,342.62 652.349,346.287 652.349,348.487 653.083,352.154 654.549,354.354 656.75,355.088 658.217,355.088 660.417,354.354 661.884,352.154 662.617,348.487 662.617,346.287 661.884,342.62 660.417,340.419 658.217,339.686 656.75,339.686 " />
<ellipse rx="1.46683" ry="1.46683" cx="667.017" cy="341.153" />
</g>
<g clip-path="url(#clipId0)" fill="rgb(0,0,0)" stroke="rgb(0,0,0)" stroke-width="0.25" >
<path d="M677.231,259.43 682.361,259.633 680.402,244.142 680.402,244.142 z" />
<path d="M599.289,405.456 596.539,401.121 584.908,411.539 584.908,411.539 z" />
</g>
<g clip-path="url(#clipId0)" fill="none" stroke="rgb(0,0,0)" stroke-width="0.25" >
<path d="M660.198,330.445  A194.176,194.176 0 0,0 679.796,259.532 " />
<path d="M596.662,403.914  A194.176,194.176 0 0,0 638.783,364.329 " />
<polyline points="847.438,244.091 661.92,244.147 " />
<polyline points="566.165,484.556 412.122,218.109 " stroke-dasharray="64.173611,12.834722,12.834722,12.834722" />
<polyline points="392.357,295.54 393.682,295.54 " />
<polyline points="195.679,218.791 448.824,218.791 " stroke-dasharray="64.173611,12.834722,12.834722,12.834722" />
<polyline points="450.933,193.494 803.227,193.494 " stroke-dasharray="64.173611,12.834722,12.834722,12.834722" />
<polyline points="937.166,192.862 906.594,192.862 " />
<polyline points="918.552,637.918 916.401,635.767 913.174,634.691 908.871,634.691 905.644,635.767 903.493,637.918 903.493,640.069 904.568,642.221 905.644,643.296 907.795,644.372 914.249,646.523 916.401,647.599 917.476,648.675 918.552,650.826 918.552,654.053 916.401,656.204 913.174,657.28 908.871,657.28 905.644,656.204 903.493,654.053 " />
<polyline points="926.082,634.691 926.082,657.28 " />
<polyline points="926.082,634.691 935.763,634.691 938.99,635.767 940.066,636.842 941.141,638.994 941.141,641.145 940.066,643.296 938.99,644.372 935.763,645.448 926.082,645.448 " />
<polyline points="933.612,645.448 941.141,657.28 " />
<polyline points="960.503,634.691 949.747,634.691 948.671,644.372 949.747,643.296 952.974,642.221 956.201,642.221 959.428,643.296 961.579,645.448 962.655,648.675 962.655,650.826 961.579,654.053 959.428,656.204 956.201,657.28 952.974,657.28 949.747,656.204 948.671,655.129 947.595,652.977 " />
<polyline points="970.184,647.599 989.546,647.599 " />
<polyline points="1011.06,642.221 1009.98,645.448 1007.83,647.599 1004.61,648.675 1003.53,648.675 1000.3,647.599 998.152,645.448 997.076,642.221 997.076,641.145 998.152,637.918 1000.3,635.767 1003.53,634.691 1004.61,634.691 1007.83,635.767 1009.98,637.918 1011.06,642.221 1011.06,647.599 1009.98,652.977 1007.83,656.204 1004.61,657.28 1002.45,657.28 999.228,656.204 998.152,654.053 " />
<polyline points="520.592,361.409 512.589,366.03 " />
<polyline points="516.781,363.61 517.984,363.932 518.805,364.474 519.465,365.617 519.524,366.599 519.202,367.802 518.278,368.843 517.516,369.283 516.153,369.562 514.951,369.24 514.13,368.698 513.47,367.554 513.411,366.572 513.733,365.37 " />
<polyline points="520.633,340.886 509.128,351.763 " />
<polyline points="524.3,347.238 509.128,351.763 " />
<polyline points="524.3,347.238 512.795,358.114 " />
<polyline points="527.967,353.589 512.795,358.114 " />
<polyline points="533.055,372.67 528.197,384.791 " />
<polyline points="537.089,379.657 524.163,377.804 " />
<polyline points="551.803,394.874 538.464,402.575 " />
<polyline points="556.936,403.767 543.598,411.467 " />
<polyline points="545.451,398.541 550.585,407.434 " />
<polyline points="661.029,220.511 660.149,219.631 658.829,219.191 657.068,219.191 655.748,219.631 654.868,220.511 654.868,221.392 655.308,222.272 655.748,222.712 656.628,223.152 659.269,224.032 660.149,224.472 660.589,224.912 661.029,225.792 661.029,227.112 660.149,227.992 658.829,228.432 657.068,228.432 655.748,227.992 654.868,227.112 " />
<polyline points="248.935,258.07 248.495,257.19 247.615,256.31 246.735,255.87 244.975,255.87 244.095,256.31 243.215,257.19 242.775,258.07 242.335,259.39 242.335,261.59 242.775,262.911 243.215,263.791 244.095,264.671 244.975,265.111 246.735,265.111 247.615,264.671 248.495,263.791 248.935,262.911 " />
<polyline points="636.266,209.271 639.933,224.673 " />
<polyline points="643.6,209.271 639.933,224.673 " />
<polyline points="643.6,209.271 647.267,224.673 " />
<polyline points="650.934,209.271 647.267,224.673 " />
<polyline points="670.003,214.405 678.07,224.673 " />
<polyline points="678.07,214.405 670.003,224.673 " />
<polyline points="698.606,209.271 698.606,224.673 " />
<polyline points="708.874,209.271 708.874,224.673 " />
<polyline points="698.606,216.605 708.874,216.605 " />
<polyline points="225.142,246.895 228.809,262.297 " />
<polyline points="232.476,246.895 228.809,262.297 " />
<polyline points="232.476,246.895 236.143,262.297 " />
<polyline points="239.81,246.895 236.143,262.297 " />
<polyline points="258.879,252.029 266.947,262.297 " />
<polyline points="266.947,252.029 258.879,262.297 " />
<polyline points="287.482,246.895 287.482,262.297 " />
<polyline points="297.75,246.895 297.75,262.297 " />
<polyline points="287.482,254.229 297.75,254.229 " />
<polyline points="156.949,548.146 151.082,563.547 " />
<polyline points="156.949,548.146 162.816,563.547 " />
<polyline points="153.282,558.413 160.616,558.413 " />
<polyline points="203.888,550.346 203.888,563.547 " />
<polyline points="197.287,556.947 210.488,556.947 " />
<polyline points="235.424,548.146 229.557,563.547 " />
<polyline points="235.424,548.146 241.292,563.547 " />
<polyline points="231.757,558.413 239.091,558.413 " />
<polyline points="275.762,554.746 288.963,554.746 " />
<polyline points="275.762,559.147 288.963,559.147 " />
<polyline points="313.899,548.146 308.032,563.547 " />
<polyline points="313.899,548.146 319.767,563.547 " />
<polyline points="310.232,558.413 317.567,558.413 " />
<polyline points="332.999,561.174 332.559,560.294 331.678,559.414 330.798,558.974 329.038,558.974 328.158,559.414 327.278,560.294 326.838,561.174 326.398,562.494 326.398,564.695 326.838,566.015 327.278,566.895 328.158,567.775 329.038,568.215 330.798,568.215 331.678,567.775 332.559,566.895 332.999,566.015 " />
<polyline points="246.247,557.74 246.247,566.981 " />
<polyline points="246.247,562.141 247.127,561.26 248.007,560.82 249.327,560.82 250.207,561.26 251.087,562.141 251.527,563.461 251.527,564.341 251.087,565.661 250.207,566.541 249.327,566.981 248.007,566.981 247.127,566.541 246.247,565.661 " />
<polyline points="173.129,558.955 172.249,558.075 170.928,557.635 169.168,557.635 167.848,558.075 166.968,558.955 166.968,559.835 167.408,560.715 167.848,561.155 168.728,561.595 171.368,562.476 172.249,562.916 172.689,563.356 173.129,564.236 173.129,565.556 172.249,566.436 170.928,566.876 169.168,566.876 167.848,566.436 166.968,565.556 " />
<polyline points="600.891,586.661 599.504,587.536 598.19,589.141 597.605,590.673 597.093,592.935 597.457,596.584 598.405,598.701 599.28,600.088 600.885,601.402 602.417,601.987 605.336,601.696 606.723,600.821 608.037,599.216 608.622,597.684 609.134,595.422 608.77,591.773 607.823,589.656 606.947,588.269 605.343,586.955 603.81,586.37 600.891,586.661 " />
<polyline points="604.316,598.85 609.13,602.792 " />
<polyline points="951.779,206.842 950.313,207.575 948.846,209.042 948.112,210.509 947.379,212.709 947.379,216.376 948.112,218.577 948.846,220.043 950.313,221.51 951.779,222.244 954.713,222.244 956.18,221.51 957.647,220.043 958.38,218.577 959.114,216.376 959.114,212.709 958.38,210.509 957.647,209.042 956.18,207.575 954.713,206.842 951.779,206.842 " />
<polyline points="953.98,219.31 958.38,223.711 " />
<polyline points="45.1523,229.968 43.6855,230.701 42.2187,232.168 41.4853,233.635 40.7519,235.835 40.7519,239.502 41.4853,241.702 42.2187,243.169 43.6855,244.636 45.1523,245.369 48.086,245.369 49.5528,244.636 51.0196,243.169 51.7531,241.702 52.4865,239.502 52.4865,235.835 51.7531,233.635 51.0196,232.168 49.5528,230.701 48.086,229.968 45.1523,229.968 " />
<polyline points="47.3526,242.436 51.7531,246.836 " />
<polyline points="853.345,244.201 486.226,244.201 " />
<polyline points="616.537,540.089 568.818,512.539 " />
<polyline points="616.537,540.089 604.607,519.426 " />
<polyline points="568.818,512.539 580.748,533.202 " />
<polyline points="658.899,488.081 604.607,519.426 " />
<polyline points="580.748,533.202 526.456,564.547 " />
<polyline points="149.393,232.307 149.393,326.343 " />
<polyline points="149.393,110.72 149.393,204.756 " />
<polyline points="125.534,232.307 149.393,232.307 " />
<polyline points="173.252,204.756 149.393,204.756 " />
<polyline points="173.252,204.756 125.534,232.307 " />
<polyline points="877.204,179.087 829.486,206.637 " />
<polyline points="877.204,179.087 853.345,179.087 " />
<polyline points="829.486,206.637 853.345,206.637 " />
<polyline points="853.345,116.396 853.345,179.087 " />
<polyline points="853.345,206.637 853.345,269.328 " />
</g>
<g clip-path="url(#clipId0)" fill="rgb(0,0,0)" stroke="rgb(0,0,0)" stroke-width="0.25" >
<path d="M645.203,622.425 649.649,619.858 655.127,634.479 655.127,634.479 z" />
</g>
<g clip-path="url(#clipId0)" fill="none" stroke="rgb(0,0,0)" stroke-width="0.25" >
<polyline points="647.426,576.813 640.923,591.958 " />
<polyline points="647.426,576.813 652.648,592.445 " />
<polyline points="643.335,586.92 650.663,587.225 " />
<polyline points="658.233,586.467 657.849,595.7 " />
<polyline points="658.05,590.864 658.966,590.021 659.864,589.618 661.183,589.673 662.044,590.149 662.887,591.065 663.271,592.403 663.235,593.282 662.74,594.583 661.824,595.425 660.927,595.829 659.608,595.774 658.747,595.297 657.904,594.381 " />
<polyline points="647.426,621.141 612.988,561.492 " />
<polyline points="615.31,595.218 616.226,604.414 " />
<polyline points="615.746,599.597 616.535,598.634 617.367,598.109 618.68,597.978 619.6,598.329 620.563,599.117 621.131,600.387 621.219,601.263 620.912,602.62 620.123,603.583 619.291,604.108 617.977,604.239 617.058,603.888 616.095,603.1 " />
<polyline points="392.357,295.54 149.393,295.54 " />
<polyline points="410.123,317.743 547.811,552.217 " />
<polyline points="486.226,244.201 636.733,500.879 " />
<polyline points="953.162,165.45 947.295,180.852 " />
<polyline points="953.162,165.45 959.029,180.852 " />
<polyline points="949.495,175.718 956.829,175.718 " />
<polyline points="970.82,176.945 969.94,176.065 968.62,175.625 966.86,175.625 965.54,176.065 964.659,176.945 964.659,177.826 965.1,178.706 965.54,179.146 966.42,179.586 969.06,180.466 969.94,180.906 970.38,181.346 970.82,182.226 970.82,183.546 969.94,184.426 968.62,184.866 966.86,184.866 965.54,184.426 964.659,183.546 " />
<polyline points="971.152,218.23 970.272,217.35 968.952,216.91 967.192,216.91 965.872,217.35 964.992,218.23 964.992,219.11 965.432,219.99 965.872,220.43 966.752,220.87 969.392,221.75 970.272,222.19 970.712,222.63 971.152,223.51 971.152,224.831 970.272,225.711 968.952,226.151 967.192,226.151 965.872,225.711 964.992,224.831 " />
<polyline points="64.2,242.208 63.76,241.328 62.8799,240.448 61.9998,240.008 60.2396,240.008 59.3595,240.448 58.4794,241.328 58.0393,242.208 57.5993,243.528 57.5993,245.728 58.0393,247.048 58.4794,247.928 59.3595,248.809 60.2396,249.249 61.9998,249.249 62.8799,248.809 63.76,247.928 64.2,247.048 " />
<polyline points="998.559,192.862 937.166,192.862 " />
</g>
<g clip-path="url(#clipId0)" fill="rgb(0,0,0)" stroke="rgb(0,0,0)" stroke-width="0.25" >
<path d="M998.559,190.295 998.559,195.429 1013.96,192.862 1013.96,192.862 z" />
<path d="M92.309,215.965 92.309,221.098 107.711,218.532 107.711,218.532 z" />
</g>
<g clip-path="url(#clipId0)" fill="none" stroke="rgb(0,0,0)" stroke-width="0.25" >
<polyline points="92.309,218.532 25.2915,218.532 " />
<polyline points="64.7372,202.291 64.2971,201.411 63.417,200.53 62.5369,200.09 60.7767,200.09 59.8966,200.53 59.0166,201.411 58.5765,202.291 58.1365,203.611 58.1365,205.811 58.5765,207.131 59.0166,208.011 59.8966,208.891 60.7767,209.331 62.5369,209.331 63.417,208.891 64.2971,208.011 64.7372,207.131 " />
<polyline points="47.5673,190.672 41.7,206.073 " />
<polyline points="47.5673,190.672 53.4346,206.073 " />
<polyline points="43.9003,200.94 51.2344,200.94 " />
<polyline points="853.345,141.523 149.393,141.523 " />
</g>
</svg>
