<?xml version="1.0" standalone="no"?>
<svg viewBox="0 0 1024 768" version="1.1" xmlns="http://www.w3.org/2000/svg" xmlns:xlink="http://www.w3.org/1999/xlink" stroke-linecap="round" stroke-linejoin="round" fill-rule="evenodd" xml:space="preserve" >
<defs >
<clipPath id="clipId0" >
<path d="M0,768 1024,768 1024,0 0,0 z" />
</clipPath>
</defs>
<g clip-path="url(#clipId0)" fill="none" stroke="rgb(0,0,0)" stroke-width="0.1" />
<g clip-path="url(#clipId0)" fill="none" stroke="rgb(0,0,0)" stroke-width="0.25" >
<polyline points="420.11,426.342 413.928,426.342 411.867,428.402 411.867,432.524 413.928,434.584 420.11,434.584 " />
<polyline points="395.673,413.505 400.308,427.411 402.626,420.458 404.944,427.411 409.579,413.505 " />
<polyline points="442.027,427.411 451.297,418.14 " />
<polyline points="442.027,418.14 451.297,427.411 " />
<polyline points="469.839,427.411 469.839,413.505 " />
<polyline points="469.839,420.458 479.11,420.458 " />
<polyline points="479.11,413.505 479.11,427.411 " />
<polyline points="908.645,659.343 911.936,662.634 918.519,662.634 921.81,659.343 908.645,646.179 911.936,642.888 918.519,642.888 921.81,646.179 " />
<polyline points="928.392,662.634 928.392,642.888 938.265,642.888 941.556,646.179 941.556,649.47 938.265,652.761 928.392,652.761 " />
<polyline points="931.683,652.761 941.556,662.634 " />
<polyline points="948.139,659.343 951.43,662.634 958.012,662.634 961.303,659.343 961.303,652.761 958.012,649.47 948.139,649.47 948.139,642.888 961.303,642.888 " />
<polyline points="967.885,652.761 981.05,652.761 " />
<polyline points="987.632,646.179 990.923,642.888 990.923,662.634 " />
<polyline points="987.632,662.634 994.214,662.634 " />
<polyline points="1000.8,659.343 1004.09,662.634 1010.67,662.634 1013.96,659.343 1013.96,652.761 1010.67,649.47 1000.8,649.47 1000.8,642.888 1013.96,642.888 " />
<polyline points="509.955,172.354 509.955,474.996 " stroke-dasharray="115.884080,23.176816,23.176816,23.176816" />
<polyline points="210.918,200.905 808.992,200.905 " stroke-dasharray="115.884080,23.176816,23.176816,23.176816" />
<polyline points="719.583,248.889 719.583,236.526 " />
<polyline points="719.583,244.768 723.704,240.647 725.765,240.647 727.825,242.707 727.825,246.829 725.765,248.889 723.704,248.889 719.583,244.768 " />
<polyline points="731.947,238.586 734.007,236.526 738.128,236.526 740.189,238.586 740.189,240.647 738.128,242.707 734.007,242.707 731.947,244.768 731.947,248.889 740.189,248.889 " />
<polyline points="252.698,247.439 252.698,235.076 " />
<polyline points="252.698,243.318 256.819,239.197 258.879,239.197 260.94,241.257 260.94,245.379 258.879,247.439 256.819,247.439 252.698,243.318 " />
<polyline points="265.061,237.136 267.122,235.076 267.122,247.439 " />
<polyline points="265.061,247.439 269.183,247.439 " />
<polyline points="705.726,225.085 709.848,237.449 711.908,231.267 713.969,237.449 718.09,225.085 " />
<polyline points="746.939,237.449 755.181,229.206 " />
<polyline points="746.939,229.206 755.181,237.449 " />
<polyline points="771.666,237.449 771.666,225.085 " />
<polyline points="771.666,231.267 779.909,231.267 " />
<polyline points="779.909,225.085 779.909,237.449 " />
<polyline points="237.238,224.738 241.36,237.102 243.42,230.92 245.481,237.102 249.602,224.738 " />
<polyline points="278.451,237.102 286.693,228.86 " />
<polyline points="278.451,228.86 286.693,237.102 " />
<polyline points="303.178,237.102 303.178,224.738 " />
<polyline points="303.178,230.92 311.421,230.92 " />
<polyline points="311.421,224.738 311.421,237.102 " />
<polyline points="953.176,217.062 955.236,215.002 959.358,215.002 961.418,217.062 961.418,219.123 959.358,221.183 955.236,221.183 953.176,223.244 953.176,227.365 961.418,227.365 " />
<polyline points="953.176,182.566 955.236,180.505 959.358,180.505 961.418,182.566 961.418,184.627 959.358,186.687 955.236,186.687 953.176,188.748 953.176,192.869 961.418,192.869 " />
<polyline points="92.1436,224.914 94.2042,222.853 94.2042,235.217 " />
<polyline points="92.1436,235.217 96.2649,235.217 " />
<polyline points="90.9064,179.829 92.967,177.768 92.967,190.132 " />
<polyline points="90.9064,190.132 95.0277,190.132 " />
<polyline points="76.7439,189.732 76.7439,177.368 " />
<polyline points="76.7439,185.611 80.8652,181.489 82.9258,181.489 84.9864,183.55 84.9864,187.671 82.9258,189.732 80.8652,189.732 76.7439,185.611 " />
<polyline points="79.8106,234.366 79.8106,222.003 " />
<polyline points="79.8106,230.245 83.9319,226.124 85.9925,226.124 88.0531,228.184 88.0531,232.306 85.9925,234.366 83.9319,234.366 79.8106,230.245 " />
<polyline points="15.3522,200.478 125.206,200.478 " />
</g>
<g clip-path="url(#clipId0)" fill="rgb(0,0,0)" stroke="rgb(0,0,0)" stroke-width="0.25" >
<path d="M24.8757,202.951 24.8757,198.005 10.0392,200.478 10.0392,200.478 z" />
</g>
<g clip-path="url(#clipId0)" fill="none" stroke="rgb(0,0,0)" stroke-width="0.25" >
<polyline points="371.483,280.215 170.192,280.215 " />
<polyline points="646.197,280.215 646.197,513.861 " />
<polyline points="482.626,499.169 516.715,526.104 " />
<polyline points="482.626,511.412 482.626,499.169 " />
<polyline points="516.715,513.861 666.803,513.861 " />
<polyline points="516.715,526.104 516.715,513.861 " />
<polyline points="350.877,511.412 482.626,511.412 " />
<polyline points="941.509,227.192 941.509,214.828 " />
<polyline points="941.509,223.07 945.63,218.949 947.691,218.949 949.752,221.01 949.752,225.131 947.691,227.192 945.63,227.192 941.509,223.07 " />
<polyline points="548.967,617.822 542.785,617.822 540.724,619.882 540.724,624.004 542.785,626.064 548.967,626.064 " />
<polyline points="494.393,612.876 488.211,612.876 486.15,614.936 486.15,619.058 488.211,621.118 494.393,621.118 " />
<polyline points="941.416,191.635 941.416,179.271 " />
<polyline points="941.416,187.514 945.537,183.393 947.598,183.393 949.659,185.453 949.659,189.575 947.598,191.635 945.537,191.635 941.416,187.514 " />
<polyline points="523.229,617.714 523.229,613.593 527.35,605.351 531.471,613.593 531.471,617.714 " />
<polyline points="523.229,613.593 531.471,613.593 " />
<polyline points="475.214,611.145 477.275,613.205 475.214,615.266 473.153,615.266 471.093,613.205 471.093,604.963 473.153,602.902 477.275,602.902 479.335,604.963 479.335,611.145 477.275,613.205 479.335,615.266 " />
<polyline points="63.161,226.626 63.161,222.505 67.2822,214.262 71.4035,222.505 71.4035,226.626 " />
<polyline points="63.161,222.505 71.4035,222.505 " />
<polyline points="65.277,176.036 67.3376,178.097 65.277,180.158 63.2164,180.158 61.1557,178.097 61.1557,169.855 63.2164,167.794 67.3376,167.794 69.3982,169.855 69.3982,176.036 67.3376,178.097 69.3982,180.158 " />
<polyline points="929.371,221.872 929.371,217.751 933.492,209.508 937.614,217.751 937.614,221.872 " />
<polyline points="929.371,217.751 937.614,217.751 " />
<polyline points="931.487,180.361 933.548,182.421 931.487,184.482 929.427,184.482 927.366,182.421 927.366,174.179 929.427,172.118 933.548,172.118 935.608,174.179 935.608,180.361 933.548,182.421 935.608,184.482 " />
<polyline points="998.638,201.567 888.989,201.567 " />
</g>
<g clip-path="url(#clipId0)" fill="rgb(0,0,0)" stroke="rgb(0,0,0)" stroke-width="0.25" >
<path d="M998.638,199.094 998.638,204.039 1013.47,201.567 1013.47,201.567 z" />
</g>
<g clip-path="url(#clipId0)" fill="none" stroke="rgb(0,0,0)" stroke-width="0.25" >
<polyline points="509.192,570.235 509.192,665.337 " />
</g>
<g clip-path="url(#clipId0)" fill="rgb(0,0,0)" stroke="rgb(0,0,0)" stroke-width="0.25" >
<path d="M506.719,570.235 511.665,570.235 509.192,555.399 509.192,555.399 z" />
</g>
<g clip-path="url(#clipId0)" fill="none" stroke="rgb(0,0,0)" stroke-width="0.25" >
<polyline points="849.916,304.209 849.916,213.789 " />
<polyline points="849.916,184.996 849.916,102.663 " />
<polyline points="849.916,213.789 834.196,213.789 " />
<polyline points="865.635,184.996 849.916,184.996 " />
<polyline points="834.196,213.789 865.635,184.996 " />
<polyline points="154.473,213.789 185.912,184.996 " />
<polyline points="185.912,184.996 170.192,184.996 " />
<polyline points="170.192,184.996 170.192,102.663 " />
<polyline points="170.192,213.789 154.473,213.789 " />
<polyline points="170.192,304.209 170.192,213.789 " />
<polyline points="371.483,285.014 371.483,511.412 " />
<polyline points="849.916,280.215 646.197,280.215 " />
<polyline points="170.192,121.858 849.916,121.858 " />
</g>
</svg>
