<?xml version="1.0" standalone="no"?>
<svg viewBox="0 0 1024 768" version="1.1" xmlns="http://www.w3.org/2000/svg" xmlns:xlink="http://www.w3.org/1999/xlink" stroke-linecap="round" stroke-linejoin="round" fill-rule="evenodd" xml:space="preserve" >
<defs >
<clipPath id="clipId0" >
<path d="M0,768 1024,768 1024,0 0,0 z" />
</clipPath>
</defs>
<g clip-path="url(#clipId0)" fill="none" stroke="rgb(0,0,0)" stroke-width="0.1" />
<g clip-path="url(#clipId0)" fill="none" stroke="rgb(0,0,0)" stroke-width="0.25" >
<polyline points="868.111,741.543 866.195,739.627 863.322,738.67 859.492,738.67 856.619,739.627 854.704,741.543 854.704,743.458 855.661,745.373 856.619,746.331 858.534,747.289 864.28,749.204 866.195,750.162 867.153,751.119 868.111,753.035 868.111,755.908 866.195,757.823 863.322,758.781 859.492,758.781 856.619,757.823 854.704,755.908 " />
<polyline points="874.814,738.67 874.814,758.781 " />
<polyline points="874.814,738.67 883.433,738.67 886.306,739.627 887.264,740.585 888.222,742.5 888.222,744.416 887.264,746.331 886.306,747.289 883.433,748.246 874.814,748.246 " />
<polyline points="881.518,748.246 888.222,758.781 " />
<polyline points="905.459,738.67 895.883,738.67 894.925,747.289 895.883,746.331 898.756,745.373 901.629,745.373 904.502,746.331 906.417,748.246 907.375,751.119 907.375,753.035 906.417,755.908 904.502,757.823 901.629,758.781 898.756,758.781 895.883,757.823 894.925,756.865 893.968,754.95 " />
<polyline points="914.078,750.162 931.316,750.162 " />
<polyline points="938.978,743.458 938.978,742.5 939.935,740.585 940.893,739.627 942.808,738.67 946.639,738.67 948.554,739.627 949.512,740.585 950.469,742.5 950.469,744.416 949.512,746.331 947.596,749.204 938.02,758.781 951.427,758.781 " />
<polyline points="960.046,742.5 961.961,741.543 964.834,738.67 964.834,758.781 " />
<polyline points="200.334,655.924 199.354,654.945 197.885,654.455 195.926,654.455 194.457,654.945 193.478,655.924 193.478,656.904 193.968,657.883 194.457,658.373 195.437,658.862 198.375,659.842 199.354,660.332 199.844,660.821 200.334,661.801 200.334,663.27 199.354,664.249 197.885,664.739 195.926,664.739 194.457,664.249 193.478,663.27 " />
<polyline points="290.152,656.785 289.663,655.806 288.683,654.826 287.704,654.336 285.745,654.336 284.766,654.826 283.786,655.806 283.296,656.785 282.807,658.254 282.807,660.703 283.296,662.172 283.786,663.151 284.766,664.131 285.745,664.62 287.704,664.62 288.683,664.131 289.663,663.151 290.152,662.172 " />
<polyline points="180.969,643.717 174.439,660.857 " />
<polyline points="180.969,643.717 187.498,660.857 " />
<polyline points="176.888,655.143 185.05,655.143 " />
<polyline points="225.859,651.062 240.55,651.062 " />
<polyline points="225.859,655.96 240.55,655.96 " />
<polyline points="268.301,643.717 261.771,660.857 " />
<polyline points="268.301,643.717 274.83,660.857 " />
<polyline points="264.22,655.143 272.382,655.143 " />
<polyline points="725.195,361.349 724.411,360.566 723.236,360.174 721.669,360.174 720.493,360.566 719.71,361.349 719.71,362.133 720.102,362.916 720.493,363.308 721.277,363.7 723.628,364.483 724.411,364.875 724.803,365.267 725.195,366.05 725.195,367.226 724.411,368.009 723.236,368.401 721.669,368.401 720.493,368.009 719.71,367.226 " />
<polyline points="109.683,407.661 109.291,406.877 108.508,406.094 107.724,405.702 106.157,405.702 105.374,406.094 104.59,406.877 104.198,407.661 103.807,408.836 103.807,410.795 104.198,411.97 104.59,412.754 105.374,413.537 106.157,413.929 107.724,413.929 108.508,413.537 109.291,412.754 109.683,411.97 " />
<polyline points="251.656,363.498 251.264,362.714 250.48,361.93 249.697,361.539 248.13,361.539 247.346,361.93 246.563,362.714 246.171,363.498 245.779,364.673 245.779,366.632 246.171,367.807 246.563,368.591 247.346,369.374 248.13,369.766 249.697,369.766 250.48,369.374 251.264,368.591 251.656,367.807 " />
<polyline points="511.511,133.467 511.511,633.475 " stroke-dasharray="114.266119,22.853224,22.853224,22.853224" />
<polyline points="229.521,350.195 232.786,363.907 " />
<polyline points="236.051,350.195 232.786,363.907 " />
<polyline points="236.051,350.195 239.316,363.907 " />
<polyline points="242.58,350.195 239.316,363.907 " />
<polyline points="273.269,354.766 280.451,363.907 " />
<polyline points="280.451,354.766 273.269,363.907 " />
<polyline points="298.734,350.195 298.734,363.907 " />
<polyline points="307.875,350.195 307.875,363.907 " />
<polyline points="298.734,356.725 307.875,356.725 " />
<polyline points="702.795,349.623 706.059,363.335 " />
<polyline points="709.324,349.623 706.059,363.335 " />
<polyline points="709.324,349.623 712.589,363.335 " />
<polyline points="715.854,349.623 712.589,363.335 " />
<polyline points="746.542,354.193 753.725,363.335 " />
<polyline points="753.725,354.193 746.542,363.335 " />
<polyline points="772.007,349.623 772.007,363.335 " />
<polyline points="781.148,349.623 781.148,363.335 " />
<polyline points="772.007,356.152 781.148,356.152 " />
<polyline points="478.497,611.779 492.209,608.514 " />
<polyline points="478.497,605.25 492.209,608.514 " />
<polyline points="478.497,605.25 492.209,601.985 " />
<polyline points="478.497,598.72 492.209,601.985 " />
<polyline points="483.067,568.031 492.209,560.849 " />
<polyline points="483.067,560.849 492.209,568.031 " />
<polyline points="478.497,542.566 492.209,542.566 " />
<polyline points="478.497,533.425 492.209,533.425 " />
<polyline points="485.026,542.566 485.026,533.425 " />
<polyline points="488.892,594.454 497.119,594.454 " />
<polyline points="492.809,594.454 492.026,593.67 491.634,592.887 491.634,591.711 492.026,590.928 492.809,590.144 493.985,589.752 494.768,589.752 495.943,590.144 496.727,590.928 497.119,591.711 497.119,592.887 496.727,593.67 495.943,594.454 " />
<polyline points="490.85,587.01 490.459,587.01 489.675,586.618 489.283,586.226 488.892,585.443 488.892,583.876 489.283,583.092 489.675,582.701 490.459,582.309 491.242,582.309 492.026,582.701 493.201,583.484 497.119,587.402 497.119,581.917 " />
<polyline points="480.094,236.874 493.806,233.61 " />
<polyline points="480.094,230.345 493.806,233.61 " />
<polyline points="480.094,230.345 493.806,227.08 " />
<polyline points="480.094,223.815 493.806,227.08 " />
<polyline points="484.664,193.127 493.806,185.944 " />
<polyline points="484.664,185.944 493.806,193.127 " />
<polyline points="480.094,167.662 493.806,167.662 " />
<polyline points="480.094,158.521 493.806,158.521 " />
<polyline points="486.623,167.662 486.623,158.521 " />
<polyline points="491.007,220.008 499.234,220.008 " />
<polyline points="494.925,220.008 494.141,219.224 493.75,218.441 493.75,217.265 494.141,216.482 494.925,215.698 496.1,215.307 496.884,215.307 498.059,215.698 498.843,216.482 499.234,217.265 499.234,218.441 498.843,219.224 498.059,220.008 " />
<polyline points="492.574,211.781 492.183,210.997 491.007,209.822 499.234,209.822 " />
<polyline points="203.022,385.333 822.604,385.333 " stroke-dasharray="114.266119,22.853224,22.853224,22.853224" />
<polyline points="511.2,23.9837 511.2,87.6011 " />
</g>
<g clip-path="url(#clipId0)" fill="rgb(0,0,0)" stroke="rgb(0,0,0)" stroke-width="0.25" >
<path d="M508.458,23.9837 513.943,23.9837 511.2,7.52941 511.2,7.52941 z" />
</g>
<g clip-path="url(#clipId0)" fill="none" stroke="rgb(0,0,0)" stroke-width="0.25" >
<polyline points="512.554,744.016 512.554,686.156 " />
</g>
<g clip-path="url(#clipId0)" fill="rgb(0,0,0)" stroke="rgb(0,0,0)" stroke-width="0.25" >
<path d="M515.296,744.016 509.811,744.016 512.554,760.471 512.554,760.471 z" />
</g>
<g clip-path="url(#clipId0)" fill="none" stroke="rgb(0,0,0)" stroke-width="0.25" >
<polyline points="541.481,60.4173 541.481,68.6444 " />
<polyline points="541.481,64.335 542.264,63.5514 543.048,63.1597 544.223,63.1597 545.007,63.5514 545.79,64.335 546.182,65.5103 546.182,66.2938 545.79,67.4691 545.007,68.2527 544.223,68.6444 543.048,68.6444 542.264,68.2527 541.481,67.4691 " />
<polyline points="549.708,61.9844 550.492,61.5926 551.667,60.4173 551.667,68.6444 " />
<polyline points="484.829,61.6741 484.829,69.9013 " />
<polyline points="484.829,65.5918 485.613,64.8083 486.396,64.4165 487.571,64.4165 488.355,64.8083 489.138,65.5918 489.53,66.7671 489.53,67.5507 489.138,68.726 488.355,69.5095 487.571,69.9013 486.396,69.9013 485.613,69.5095 484.829,68.726 " />
<polyline points="493.056,63.2412 493.84,62.8494 495.015,61.6741 495.015,69.9013 " />
<polyline points="530.102,48.627 524.878,62.339 " />
<polyline points="530.102,48.627 535.325,62.339 " />
<polyline points="526.837,57.7683 533.367,57.7683 " />
<polyline points="472.522,50.714 471.216,51.3669 469.91,52.6728 469.257,53.9787 468.604,55.9375 468.604,59.2023 469.257,61.1611 469.91,62.467 471.216,63.7729 472.522,64.4259 475.134,64.4259 476.44,63.7729 477.746,62.467 478.399,61.1611 479.052,59.2023 479.052,55.9375 478.399,53.9787 477.746,52.6728 476.44,51.3669 475.134,50.714 472.522,50.714 " />
<polyline points="474.481,61.8141 478.399,65.7318 " />
<polyline points="565.396,297.52 851.466,297.52 " />
<polyline points="457.625,297.52 457.625,108.437 " />
<polyline points="565.396,297.52 565.396,108.437 " />
<polyline points="493.892,125.871 493.892,108.437 " />
<polyline points="525.824,108.437 525.824,91.0038 " />
<polyline points="525.824,91.0038 493.892,125.871 " />
<polyline points="493.892,108.437 434.772,108.437 " />
<polyline points="588.25,108.437 525.824,108.437 " />
<polyline points="851.466,473.145 565.396,473.145 " />
<polyline points="588.25,662.228 525.824,662.228 " />
<polyline points="493.892,662.228 434.772,662.228 " />
<polyline points="525.824,679.662 493.892,644.794 " />
<polyline points="525.824,662.228 525.824,679.662 " />
<polyline points="493.892,644.794 493.892,662.228 " />
<polyline points="565.396,473.145 565.396,662.228 " />
<polyline points="943.967,386.051 880.999,386.051 " />
</g>
<g clip-path="url(#clipId0)" fill="rgb(0,0,0)" stroke="rgb(0,0,0)" stroke-width="0.25" >
<path d="M943.967,383.309 943.967,388.794 960.422,386.051 960.422,386.051 z" />
</g>
<g clip-path="url(#clipId0)" fill="none" stroke="rgb(0,0,0)" stroke-width="0.25" >
<polyline points="457.625,473.145 457.625,662.228 " />
<polyline points="929.437,405.679 928.653,404.896 927.478,404.504 925.911,404.504 924.736,404.896 923.952,405.679 923.952,406.463 924.344,407.246 924.736,407.638 925.519,408.03 927.87,408.813 928.653,409.205 929.045,409.597 929.437,410.381 929.437,411.556 928.653,412.339 927.478,412.731 925.911,412.731 924.736,412.339 923.952,411.556 " />
<polyline points="925.908,371.201 925.125,370.418 923.949,370.026 922.382,370.026 921.207,370.418 920.423,371.201 920.423,371.985 920.815,372.768 921.207,373.16 921.99,373.552 924.341,374.335 925.125,374.727 925.516,375.119 925.908,375.902 925.908,377.078 925.125,377.861 923.949,378.253 922.382,378.253 921.207,377.861 920.423,377.078 " />
<polyline points="127.972,385.772 59.1657,385.772 " />
</g>
<g clip-path="url(#clipId0)" fill="rgb(0,0,0)" stroke="rgb(0,0,0)" stroke-width="0.25" >
<path d="M127.972,383.03 127.972,388.515 144.426,385.772 144.426,385.772 z" />
</g>
<g clip-path="url(#clipId0)" fill="none" stroke="rgb(0,0,0)" stroke-width="0.25" >
<polyline points="537.059,715.984 537.059,724.212 " />
<polyline points="537.059,719.902 537.843,719.119 538.626,718.727 539.801,718.727 540.585,719.119 541.368,719.902 541.76,721.077 541.76,721.861 541.368,723.036 540.585,723.82 539.801,724.212 538.626,724.212 537.843,723.82 537.059,723.036 " />
<polyline points="544.503,717.943 544.503,717.551 544.894,716.768 545.286,716.376 546.07,715.984 547.637,715.984 548.42,716.376 548.812,716.768 549.204,717.551 549.204,718.335 548.812,719.119 548.029,720.294 544.111,724.212 549.596,724.212 " />
<polyline points="489.329,716.593 489.329,724.821 " />
<polyline points="489.329,720.511 490.113,719.728 490.896,719.336 492.072,719.336 492.855,719.728 493.639,720.511 494.03,721.686 494.03,722.47 493.639,723.645 492.855,724.429 492.072,724.821 490.896,724.821 490.113,724.429 489.329,723.645 " />
<polyline points="496.773,718.552 496.773,718.16 497.165,717.377 497.556,716.985 498.34,716.593 499.907,716.593 500.69,716.985 501.082,717.377 501.474,718.16 501.474,718.944 501.082,719.728 500.299,720.903 496.381,724.821 501.866,724.821 " />
<polyline points="457.625,473.145 171.556,473.145 " />
<polyline points="109.205,371.459 108.814,370.676 108.03,369.892 107.246,369.5 105.679,369.5 104.896,369.892 104.112,370.676 103.721,371.459 103.329,372.634 103.329,374.593 103.721,375.769 104.112,376.552 104.896,377.336 105.679,377.727 107.246,377.727 108.03,377.336 108.814,376.552 109.205,375.769 " />
<polyline points="526.508,705.166 521.284,718.878 " />
<polyline points="526.508,705.166 531.731,718.878 " />
<polyline points="523.243,714.307 529.773,714.307 " />
<polyline points="477.808,704.645 476.502,705.298 475.196,706.603 474.543,707.909 473.89,709.868 473.89,713.133 474.543,715.092 475.196,716.398 476.502,717.704 477.808,718.357 480.42,718.357 481.726,717.704 483.032,716.398 483.684,715.092 484.337,713.133 484.337,709.868 483.684,707.909 483.032,706.603 481.726,705.298 480.42,704.645 477.808,704.645 " />
<polyline points="479.767,715.745 483.684,719.662 " />
<polyline points="912.859,394.378 907.635,408.09 " />
<polyline points="912.859,394.378 918.082,408.09 " />
<polyline points="909.594,403.519 916.123,403.519 " />
<polyline points="908.156,359.547 906.85,360.2 905.544,361.506 904.891,362.812 904.238,364.771 904.238,368.036 904.891,369.995 905.544,371.301 906.85,372.606 908.156,373.259 910.767,373.259 912.073,372.606 913.379,371.301 914.032,369.995 914.685,368.036 914.685,364.771 914.032,362.812 913.379,361.506 912.073,360.2 910.767,359.547 908.156,359.547 " />
<polyline points="910.114,370.648 914.032,374.565 " />
<polyline points="94.5205,394.909 89.2969,408.621 " />
<polyline points="94.5205,394.909 99.7441,408.621 " />
<polyline points="91.2558,404.05 97.7853,404.05 " />
<polyline points="92.2966,357.768 90.9907,358.421 89.6848,359.727 89.0319,361.033 88.3789,362.992 88.3789,366.256 89.0319,368.215 89.6848,369.521 90.9907,370.827 92.2966,371.48 94.9084,371.48 96.2143,370.827 97.5202,369.521 98.1732,368.215 98.8261,366.256 98.8261,362.992 98.1732,361.033 97.5202,359.727 96.2143,358.421 94.9084,357.768 92.2966,357.768 " />
<polyline points="94.2555,368.868 98.1732,372.786 " />
<polyline points="851.466,495.999 851.466,402.865 " />
<polyline points="851.466,370.933 851.466,274.667 " />
<polyline points="851.466,402.865 834.032,402.865 " />
<polyline points="868.899,370.933 851.466,370.933 " />
<polyline points="834.032,402.865 868.899,370.933 " />
<polyline points="154.122,399.475 188.99,367.543 " />
<polyline points="188.99,367.543 171.556,367.543 " />
<polyline points="171.556,367.543 171.556,276.232 " />
<polyline points="171.556,399.475 154.122,399.475 " />
<polyline points="171.556,499.755 171.556,399.475 " />
<polyline points="171.556,297.52 457.625,297.52 " />
</g>
</svg>
