<?xml version="1.0" standalone="no"?>
<svg viewBox="0 0 1024 768" version="1.1" xmlns="http://www.w3.org/2000/svg" xmlns:xlink="http://www.w3.org/1999/xlink" stroke-linecap="round" stroke-linejoin="round" fill-rule="evenodd" xml:space="preserve" >
<defs >
<clipPath id="clipId0" >
<path d="M0,768 1024,768 1024,0 0,0 z" />
</clipPath>
</defs>
<g clip-path="url(#clipId0)" fill="none" stroke="rgb(0,0,0)" stroke-width="0.1" />
<g clip-path="url(#clipId0)" fill="none" stroke="rgb(0,0,0)" stroke-width="0.25" >
<polyline points="720.961,508.31 782.196,570.673 " />
<polyline points="650.304,438.727 664.254,452.935 " />
<polyline points="401.331,279.003 420.984,279.003 " />
<polyline points="926.198,643.141 924.194,641.137 921.187,640.135 917.179,640.135 914.172,641.137 912.168,643.141 912.168,645.145 913.17,647.15 914.172,648.152 916.177,649.154 922.189,651.158 924.194,652.16 925.196,653.162 926.198,655.167 926.198,658.173 924.194,660.177 921.187,661.179 917.179,661.179 914.172,660.177 912.168,658.173 " />
<polyline points="933.213,640.135 933.213,661.179 " />
<polyline points="933.213,640.135 942.232,640.135 945.238,641.137 946.24,642.139 947.242,644.143 947.242,646.148 946.24,648.152 945.238,649.154 942.232,650.156 933.213,650.156 " />
<polyline points="940.227,650.156 947.242,661.179 " />
<polyline points="965.28,640.135 955.259,640.135 954.257,649.154 955.259,648.152 958.266,647.15 961.272,647.15 964.278,648.152 966.283,650.156 967.285,653.162 967.285,655.167 966.283,658.173 964.278,660.177 961.272,661.179 958.266,661.179 955.259,660.177 954.257,659.175 953.255,657.171 " />
<polyline points="974.299,652.16 992.338,652.16 " />
<polyline points="1001.36,640.135 1012.38,640.135 1006.37,648.152 1009.37,648.152 1011.38,649.154 1012.38,650.156 1013.38,653.162 1013.38,655.167 1012.38,658.173 1010.38,660.177 1007.37,661.179 1004.36,661.179 1001.36,660.177 1000.35,659.175 999.352,657.171 " />
<polyline points="610.721,369.54 604.634,375.628 " />
<polyline points="607.823,372.439 608.982,372.439 609.852,372.729 610.721,373.599 611.011,374.468 611.011,375.628 610.432,376.788 609.852,377.367 608.692,377.947 607.533,377.947 606.663,377.657 605.793,376.788 605.504,375.918 605.504,374.758 " />
<polyline points="606.393,350.018 598.663,362.58 " />
<polyline points="611.225,354.85 598.663,362.58 " />
<polyline points="611.225,354.85 603.494,367.411 " />
<polyline points="616.056,359.681 603.494,367.411 " />
<polyline points="625.236,375.625 623.786,387.703 " />
<polyline points="630.55,380.939 618.472,382.389 " />
<polyline points="647.46,391.085 637.314,401.231 " />
<polyline points="654.224,397.849 644.078,407.995 " />
<polyline points="642.629,395.917 649.393,402.681 " />
<polyline points="858.355,207.26 167.657,207.26 " stroke-dasharray="59.785543,11.957109,11.957109,11.957109" />
<polyline points="228.725,237.602 232.142,251.95 " />
<polyline points="235.558,237.602 232.142,251.95 " />
<polyline points="235.558,237.602 238.974,251.95 " />
<polyline points="242.391,237.602 238.974,251.95 " />
<polyline points="260.155,242.384 267.671,251.95 " />
<polyline points="267.671,242.384 260.155,251.95 " />
<polyline points="286.803,237.602 286.803,251.95 " />
<polyline points="296.368,237.602 296.368,251.95 " />
<polyline points="286.803,244.434 296.368,244.434 " />
<polyline points="699.538,237.602 702.954,251.95 " />
<polyline points="706.371,237.602 702.954,251.95 " />
<polyline points="706.371,237.602 709.787,251.95 " />
<polyline points="713.203,237.602 709.787,251.95 " />
<polyline points="730.968,242.384 738.484,251.95 " />
<polyline points="738.484,242.384 730.968,251.95 " />
<polyline points="757.616,237.602 757.616,251.95 " />
<polyline points="767.181,237.602 767.181,251.95 " />
<polyline points="757.616,244.434 767.181,244.434 " />
<polyline points="533.974,251.065 527.141,260.631 537.39,260.631 " />
<polyline points="533.974,251.065 533.974,265.414 " />
<polyline points="549.006,251.065 542.173,251.065 541.49,257.215 542.173,256.531 544.223,255.848 546.273,255.848 548.322,256.531 549.689,257.898 550.372,259.948 550.372,261.314 549.689,263.364 548.322,264.731 546.273,265.414 544.223,265.414 542.173,264.731 541.49,264.047 540.807,262.681 " />
<ellipse rx="1.36653" ry="1.36653" cx="554.472" cy="252.432" />
<path d="M546.903,243.107  A132.924,132.924 0 0,0 551.053,221.588 " />
<polyline points="712.231,484.462 662.647,471.176 " />
<polyline points="712.231,484.462 696.514,468.744 " />
<polyline points="662.647,471.176 678.365,486.893 " />
<polyline points="737.812,427.446 696.514,468.744 " />
<polyline points="678.365,486.893 637.067,528.191 " />
<polyline points="125.848,220.094 125.848,307.7 " />
<polyline points="125.848,106.821 125.848,194.427 " />
<polyline points="103.621,220.094 125.848,220.094 " />
<polyline points="148.076,194.427 125.848,194.427 " />
<polyline points="148.076,194.427 103.621,220.094 " />
<polyline points="923.777,194.427 879.321,220.094 " />
<polyline points="923.777,194.427 901.549,194.427 " />
<polyline points="879.321,220.094 901.549,220.094 " />
<polyline points="901.549,106.821 901.549,194.427 " />
<polyline points="901.549,220.094 901.549,307.7 " />
</g>
<g clip-path="url(#clipId0)" fill="rgb(0,0,0)" stroke="rgb(0,0,0)" stroke-width="0.25" >
<path d="M520.698,288.976 524.258,292.17 512.895,301.252 512.895,301.252 z" />
<path d="M548.665,221.459 553.441,221.717 551.827,207.26 551.827,207.26 z" />
</g>
<g clip-path="url(#clipId0)" fill="none" stroke="rgb(0,0,0)" stroke-width="0.25" >
<path d="M522.478,290.573  A132.924,132.924 0 0,0 534.272,273.281 " />
<polyline points="246.081,521.831 245.568,520.806 244.543,519.781 243.518,519.268 241.469,519.268 240.444,519.781 239.419,520.806 238.906,521.831 238.394,523.368 238.394,525.93 238.906,527.468 239.419,528.492 240.444,529.517 241.469,530.03 243.518,530.03 244.543,529.517 245.568,528.492 246.081,527.468 " />
<polyline points="153.785,520.806 152.76,519.781 151.222,519.268 149.173,519.268 147.635,519.781 146.61,520.806 146.61,521.831 147.123,522.856 147.635,523.368 148.66,523.88 151.735,524.905 152.76,525.418 153.272,525.93 153.785,526.955 153.785,528.492 152.76,529.517 151.222,530.03 149.173,530.03 147.635,529.517 146.61,528.492 " />
<polyline points="133.7,508.277 126.868,526.212 " />
<polyline points="133.7,508.277 140.533,526.212 " />
<polyline points="129.43,520.234 137.971,520.234 " />
<polyline points="180.675,515.963 196.048,515.963 " />
<polyline points="180.675,521.088 196.048,521.088 " />
<polyline points="225.087,508.277 218.254,526.212 " />
<polyline points="225.087,508.277 231.919,526.212 " />
<polyline points="220.816,520.234 229.357,520.234 " />
</g>
<g clip-path="url(#clipId0)" fill="rgb(0,0,0)" stroke="rgb(0,0,0)" stroke-width="0.25" >
<path d="M772.145,563.924 775.527,560.542 783.982,572.379 783.982,572.379 z" />
</g>
<g clip-path="url(#clipId0)" fill="none" stroke="rgb(0,0,0)" stroke-width="0.25" >
<polyline points="760.887,523.682 759.521,524.365 758.154,525.732 757.471,527.098 756.788,529.148 756.788,532.564 757.471,534.614 758.154,535.981 759.521,537.347 760.887,538.03 763.62,538.03 764.987,537.347 766.354,535.981 767.037,534.614 767.72,532.564 767.72,529.148 767.037,527.098 766.354,525.732 764.987,524.365 763.62,523.682 760.887,523.682 " />
<polyline points="762.937,535.297 767.037,539.397 " />
<polyline points="772.845,535.295 772.845,543.904 " />
<polyline points="772.845,539.394 773.665,538.574 774.485,538.165 775.714,538.165 776.534,538.574 777.354,539.394 777.764,540.624 777.764,541.444 777.354,542.674 776.534,543.494 775.714,543.904 774.485,543.904 773.665,543.494 772.845,542.674 " />
<polyline points="751.514,553.914 751.514,562.524 " />
<polyline points="751.514,558.014 752.334,557.194 753.154,556.784 754.384,556.784 755.204,557.194 756.024,558.014 756.434,559.244 756.434,560.064 756.024,561.294 755.204,562.114 754.384,562.524 753.154,562.524 752.334,562.114 751.514,561.294 " />
<polyline points="741.147,543.361 735.681,557.71 " />
<polyline points="741.147,543.361 746.613,557.71 " />
<polyline points="737.73,552.927 744.563,552.927 " />
<polyline points="401.331,279.003 125.848,279.003 " />
<polyline points="420.984,279.003 653.62,511.639 " />
<polyline points="556.263,279.003 721.259,443.999 " />
<polyline points="405.089,193.513 650.304,438.727 " stroke-dasharray="59.785543,11.957109,11.957109,11.957109" />
<polyline points="964.214,183.578 962.848,184.261 961.481,185.627 960.798,186.994 960.114,189.044 960.114,192.46 960.798,194.51 961.481,195.876 962.848,197.243 964.214,197.926 966.947,197.926 968.314,197.243 969.68,195.876 970.363,194.51 971.047,192.46 971.047,189.044 970.363,186.994 969.68,185.627 968.314,184.261 966.947,183.578 964.214,183.578 " />
<polyline points="966.264,195.193 970.363,199.293 " />
<polyline points="980.059,194.367 979.239,193.547 978.01,193.137 976.37,193.137 975.14,193.547 974.32,194.367 974.32,195.187 974.73,196.007 975.14,196.417 975.96,196.827 978.419,197.646 979.239,198.056 979.649,198.466 980.059,199.286 980.059,200.516 979.239,201.336 978.01,201.746 976.37,201.746 975.14,201.336 974.32,200.516 " />
<polyline points="982.234,224.051 981.414,223.231 980.184,222.821 978.544,222.821 977.314,223.231 976.495,224.051 976.495,224.871 976.905,225.691 977.314,226.101 978.134,226.511 980.594,227.331 981.414,227.741 981.824,228.151 982.234,228.97 982.234,230.2 981.414,231.02 980.184,231.43 978.544,231.43 977.314,231.02 976.495,230.2 " />
<polyline points="965.845,214.349 960.379,228.698 " />
<polyline points="965.845,214.349 971.311,228.698 " />
<polyline points="962.429,223.915 969.261,223.915 " />
<polyline points="36.359,214.52 30.8929,228.869 " />
<polyline points="36.359,214.52 41.8251,228.869 " />
<polyline points="32.9427,224.086 39.7753,224.086 " />
<polyline points="52.83,226.631 52.42,225.811 51.6001,224.992 50.7802,224.582 49.1404,224.582 48.3205,224.992 47.5005,225.811 47.0906,226.631 46.6806,227.861 46.6806,229.911 47.0906,231.141 47.5005,231.961 48.3205,232.781 49.1404,233.191 50.7802,233.191 51.6001,232.781 52.42,231.961 52.83,231.141 " />
<polyline points="999.612,207.26 937.177,207.26 " />
</g>
<g clip-path="url(#clipId0)" fill="rgb(0,0,0)" stroke="rgb(0,0,0)" stroke-width="0.25" >
<path d="M999.612,204.869 999.612,209.652 1013.96,207.26 1013.96,207.26 z" />
<path d="M74.4334,204.869 74.4334,209.652 88.7819,207.26 88.7819,207.26 z" />
</g>
<g clip-path="url(#clipId0)" fill="none" stroke="rgb(0,0,0)" stroke-width="0.25" >
<polyline points="74.4334,207.26 10.0392,207.26 " />
<polyline points="52.1764,196.103 51.7665,195.283 50.9466,194.463 50.1266,194.053 48.4868,194.053 47.6669,194.463 46.847,195.283 46.437,196.103 46.0271,197.333 46.0271,199.383 46.437,200.613 46.847,201.433 47.6669,202.252 48.4868,202.662 50.1266,202.662 50.9466,202.252 51.7665,201.433 52.1764,200.613 " />
<polyline points="34.4096,182.973 33.0431,183.656 31.6766,185.023 30.9933,186.389 30.3101,188.439 30.3101,191.855 30.9933,193.905 31.6766,195.272 33.0431,196.638 34.4096,197.321 37.1427,197.321 38.5092,196.638 39.8757,195.272 40.559,193.905 41.2423,191.855 41.2423,188.439 40.559,186.389 39.8757,185.023 38.5092,183.656 37.1427,182.973 34.4096,182.973 " />
<polyline points="36.4594,194.588 40.559,198.688 " />
<polyline points="901.549,279.003 556.263,279.003 " />
<polyline points="901.549,135.518 125.848,135.518 " />
</g>
</svg>
