<?xml version="1.0" standalone="no"?>
<svg viewBox="0 0 1024 768" version="1.1" xmlns="http://www.w3.org/2000/svg" xmlns:xlink="http://www.w3.org/1999/xlink" stroke-linecap="round" stroke-linejoin="round" fill-rule="evenodd" xml:space="preserve" >
<defs >
<clipPath id="clipId0" >
<path d="M0,768 1024,768 1024,0 0,0 z" />
</clipPath>
</defs>
<g clip-path="url(#clipId0)" fill="none" stroke="rgb(0,0,0)" stroke-width="0.1" />
<g clip-path="url(#clipId0)" fill="none" stroke="rgb(0,0,0)" stroke-width="0.25" >
<polyline points="876.673,411.933 850.595,458.206 " />
<polyline points="567.926,362.392 823.583,506.137 " />
<polyline points="519.673,285.06 809.536,448.689 " stroke-dasharray="136.624525,27.324905,27.324905,27.324905" />
<polyline points="160.757,679.702 150.576,706.427 " />
<polyline points="160.757,679.702 170.938,706.427 " />
<polyline points="154.394,697.519 167.12,697.519 " />
<polyline points="242.203,683.52 242.203,706.427 " />
<polyline points="230.75,694.974 253.656,694.974 " />
<polyline points="296.925,679.702 286.744,706.427 " />
<polyline points="296.925,679.702 307.105,706.427 " />
<polyline points="290.562,697.519 303.288,697.519 " />
<polyline points="366.917,691.156 389.824,691.156 " />
<polyline points="366.917,698.791 389.824,698.791 " />
<polyline points="433.092,679.702 422.911,706.427 " />
<polyline points="433.092,679.702 443.273,706.427 " />
<polyline points="426.729,697.519 439.455,697.519 " />
<polyline points="715.892,717.179 711.082,712.369 703.867,709.964 694.247,709.964 687.031,712.369 682.221,717.179 682.221,721.989 684.626,726.799 687.031,729.204 691.842,731.609 703.867,736.42 708.677,738.825 711.082,741.23 713.487,746.04 713.487,753.255 711.082,755.66 703.867,758.065 694.247,758.065 689.436,755.66 687.031,753.255 682.221,753.255 " />
<polyline points="715.892,717.179 711.082,717.179 708.677,714.774 703.867,712.369 694.247,712.369 687.031,714.774 684.626,717.179 684.626,721.989 687.031,726.799 691.842,729.204 703.867,734.015 708.677,736.42 713.487,741.23 715.892,746.04 715.892,753.255 711.082,758.065 703.867,760.471 694.247,760.471 687.031,758.065 682.221,753.255 " />
<polyline points="732.728,709.964 732.728,760.471 " />
<polyline points="735.133,712.369 735.133,760.471 732.728,760.471 " />
<polyline points="732.728,709.964 751.969,709.964 759.184,712.369 761.589,714.774 763.994,719.584 763.994,726.799 761.589,731.609 759.184,734.015 751.969,736.42 735.133,736.42 " />
<polyline points="735.133,712.369 751.969,712.369 759.184,714.774 761.589,719.584 761.589,726.799 759.184,731.609 751.969,734.015 735.133,734.015 " />
<polyline points="747.159,736.42 761.589,760.471 763.994,760.471 " />
<polyline points="749.564,736.42 763.994,760.471 " />
<polyline points="783.235,709.964 780.83,731.609 " />
<polyline points="785.64,712.369 783.235,729.204 " />
<polyline points="783.235,709.964 807.286,709.964 807.286,712.369 " />
<polyline points="785.64,712.369 807.286,712.369 " />
<polyline points="783.235,729.204 790.45,726.799 797.666,726.799 804.881,729.204 809.691,734.015 812.096,741.23 812.096,746.04 809.691,753.255 804.881,758.065 797.666,760.471 790.45,760.471 783.235,758.065 780.83,755.66 778.425,750.85 780.83,750.85 " />
<polyline points="780.83,731.609 783.235,731.609 788.045,729.204 797.666,729.204 804.881,731.609 809.691,738.825 " />
<polyline points="800.071,729.204 807.286,734.015 809.691,741.23 809.691,746.04 807.286,753.255 800.071,758.065 " />
<polyline points="809.691,748.445 804.881,755.66 797.666,758.065 790.45,758.065 783.235,755.66 780.83,750.85 " />
<polyline points="788.045,758.065 780.83,753.255 " />
<polyline points="828.932,736.42 869.818,736.42 869.818,738.825 " />
<polyline points="828.932,736.42 828.932,738.825 869.818,738.825 " />
<polyline points="893.869,719.584 898.679,717.179 905.895,709.964 905.895,760.471 " />
<polyline points="893.869,719.584 893.869,721.989 898.679,719.584 903.49,714.774 903.49,760.471 905.895,760.471 " />
<polyline points="934.756,709.964 968.427,709.964 944.376,760.471 " />
<polyline points="934.756,709.964 934.756,712.369 966.022,712.369 " />
<polyline points="966.022,709.964 941.971,760.471 944.376,760.471 " />
<polyline points="916.01,447.979 913.635,449.167 911.26,451.542 910.072,453.917 908.884,457.481 908.884,463.419 910.072,466.982 911.26,469.357 913.635,471.733 916.01,472.921 920.761,472.921 923.137,471.733 925.512,469.357 926.7,466.982 927.887,463.419 927.887,457.481 926.7,453.917 925.512,451.542 923.137,449.167 920.761,447.979 916.01,447.979 " />
<polyline points="919.573,468.17 926.7,475.296 " />
<polyline points="906.916,511.706 897.414,536.647 " />
<polyline points="906.916,511.706 916.418,536.647 " />
<polyline points="900.978,528.334 912.854,528.334 " />
<polyline points="979.99,528.169 881.41,481.308 " />
</g>
<g clip-path="url(#clipId0)" fill="rgb(0,0,0)" stroke="rgb(0,0,0)" stroke-width="0.25" >
<path d="M980.451,525.866 978.277,529.648 990.711,534.277 990.711,534.277 z" />
</g>
<g clip-path="url(#clipId0)" fill="none" stroke="rgb(0,0,0)" stroke-width="0.25" >
<polyline points="924.358,529.239 924.358,544.204 " />
<polyline points="924.358,536.365 925.783,534.94 927.208,534.228 929.346,534.228 930.771,534.94 932.196,536.365 932.909,538.503 932.909,539.928 932.196,542.066 930.771,543.492 929.346,544.204 927.208,544.204 925.783,543.492 924.358,542.066 " />
<polyline points="937.897,532.802 937.897,532.09 938.61,530.664 939.322,529.952 940.748,529.239 943.598,529.239 945.023,529.952 945.736,530.664 946.449,532.09 946.449,533.515 945.736,534.94 944.311,537.078 937.185,544.204 947.161,544.204 " />
<polyline points="937.742,467.288 937.742,482.253 " />
<polyline points="937.742,474.414 939.167,472.989 940.592,472.276 942.73,472.276 944.155,472.989 945.58,474.414 946.293,476.552 946.293,477.977 945.58,480.115 944.155,481.54 942.73,482.253 940.592,482.253 939.167,481.54 937.742,480.115 " />
<polyline points="951.281,470.851 951.281,470.139 951.994,468.713 952.707,468.001 954.132,467.288 956.982,467.288 958.408,468.001 959.12,468.713 959.833,470.139 959.833,471.564 959.12,472.989 957.695,475.127 950.569,482.253 960.545,482.253 " />
<polyline points="837.43,481.566 812.874,525.139 " />
<polyline points="867.284,468.965 820.584,470.387 " />
<polyline points="837.41,481.559 820.37,470.575 " />
<polyline points="837.41,481.559 837.43,481.573 " />
<polyline points="850.611,458.217 867.284,468.965 " />
<polyline points="820.37,470.575 820.159,470.395 " />
<polyline points="820.584,470.387 820.177,470.395 " />
<polyline points="463.499,699.309 462.705,697.722 461.118,696.134 459.53,695.341 456.356,695.341 454.768,696.134 453.181,697.722 452.387,699.309 451.594,701.69 451.594,705.659 452.387,708.04 453.181,709.627 454.768,711.214 456.356,712.008 459.53,712.008 461.118,711.214 462.705,709.627 463.499,708.04 " />
<polyline points="315.427,695.341 315.427,712.008 " />
<polyline points="315.427,703.278 317.014,701.69 318.602,700.897 320.983,700.897 322.57,701.69 324.157,703.278 324.951,705.659 324.951,707.246 324.157,709.627 322.57,711.214 320.983,712.008 318.602,712.008 317.014,711.214 315.427,709.627 " />
<polyline points="330.507,699.309 330.507,698.516 331.301,696.928 332.094,696.134 333.682,695.341 336.856,695.341 338.444,696.134 339.237,696.928 340.031,698.516 340.031,700.103 339.237,701.69 337.65,704.071 329.713,712.008 340.825,712.008 " />
<polyline points="178.731,695.341 178.731,712.008 " />
<polyline points="178.731,703.278 180.318,701.69 181.906,700.897 184.287,700.897 185.874,701.69 187.461,703.278 188.255,705.659 188.255,707.246 187.461,709.627 185.874,711.214 184.287,712.008 181.906,712.008 180.318,711.214 178.731,709.627 " />
<polyline points="195.398,698.516 196.985,697.722 199.367,695.341 199.367,712.008 " />
<polyline points="208.49,292.567 571.387,292.567 " stroke-dasharray="136.624525,27.324905,27.324905,27.324905" />
<polyline points="280.841,242.57 286.861,267.854 " />
<polyline points="292.881,242.57 286.861,267.854 " />
<polyline points="292.881,242.57 298.901,267.854 " />
<polyline points="304.921,242.57 298.901,267.854 " />
<polyline points="361.508,250.998 374.752,267.854 " />
<polyline points="374.752,250.998 361.508,267.854 " />
<polyline points="408.463,242.57 408.463,267.854 " />
<polyline points="425.319,242.57 425.319,267.854 " />
<polyline points="408.463,254.61 425.319,254.61 " />
<polyline points="560.098,226.884 176.529,226.884 " />
<polyline points="559.888,357.751 176.529,357.751 " />
<polyline points="647.2,186.777 660.003,202.308 " />
<polyline points="655.573,182.674 660.003,202.308 " />
<polyline points="655.573,182.674 668.376,198.205 " />
<polyline points="663.946,178.57 668.376,198.205 " />
<polyline points="706.171,165.147 721.126,172.355 " />
<polyline points="715.381,160.633 711.915,176.869 " />
<polyline points="735.953,143.283 744.57,160.867 " />
<polyline points="747.676,137.539 756.292,155.122 " />
<polyline points="740.056,151.656 751.779,145.912 " />
<polyline points="672.183,327.056 666.753,343.432 " />
<polyline points="678.98,331.26 666.753,343.432 " />
<polyline points="678.98,331.26 673.55,347.636 " />
<polyline points="685.777,335.465 673.55,347.636 " />
<polyline points="729.054,368.812 730.645,382.952 " />
<polyline points="736.531,373.436 723.168,378.328 " />
<polyline points="758.506,380.45 749.677,394.724 " />
<polyline points="768.022,386.336 759.193,400.61 " />
<polyline points="754.302,387.248 763.818,393.133 " />
<polyline points="621.658,292.137 865.746,151.364 " />
<polyline points="519.816,300.162 811.799,132.008 " stroke-dasharray="136.624525,27.324905,27.324905,27.324905" />
<polyline points="567.66,223.082 822.844,75.9587 " />
<polyline points="621.56,292.482 866.137,430.527 " />
<path d="M825.118,261.471  A203.707,203.707 0 0,0 806.665,201.789 " />
<path d="M807.365,381.139  A203.707,203.707 0 0,0 825.549,322.516 " />
</g>
<g clip-path="url(#clipId0)" fill="rgb(0,0,0)" stroke="rgb(0,0,0)" stroke-width="0.25" >
<path d="M809.415,382.223 805.316,380.056 800.866,393.438 800.866,393.438 z" />
</g>
<g clip-path="url(#clipId0)" fill="none" stroke="rgb(0,0,0)" stroke-width="0.25" >
<polyline points="821.208,282.74 819.974,280.272 816.272,279.038 813.804,279.038 810.102,280.272 807.634,283.974 806.4,290.145 806.4,296.315 807.634,301.251 810.102,303.719 813.804,304.953 815.038,304.953 818.74,303.719 821.208,301.251 822.442,297.549 822.442,296.315 821.208,292.613 818.74,290.145 815.038,288.911 813.804,288.911 810.102,290.145 807.634,292.613 806.4,296.315 " />
<polyline points="837.251,279.038 833.549,280.272 831.081,283.974 829.847,290.145 829.847,293.847 831.081,300.017 833.549,303.719 837.251,304.953 839.719,304.953 843.421,303.719 845.889,300.017 847.123,293.847 847.123,290.145 845.889,283.974 843.421,280.272 839.719,279.038 837.251,279.038 " />
<ellipse rx="2.4681" ry="2.4681" cx="854.527" cy="281.506" />
<polyline points="990.006,36.2053 889.583,89.6298 " />
<polyline points="942.872,110.095 942.872,125.809 " />
<polyline points="942.872,117.578 944.369,116.081 945.865,115.333 948.11,115.333 949.607,116.081 951.103,117.578 951.851,119.823 951.851,121.319 951.103,123.564 949.607,125.06 948.11,125.809 945.865,125.809 944.369,125.06 942.872,123.564 " />
<polyline points="958.585,113.088 960.082,112.34 962.327,110.095 962.327,125.809 " />
<polyline points="923.711,93.8592 913.735,120.048 " />
<polyline points="923.711,93.8592 933.688,120.048 " />
<polyline points="917.476,111.318 929.947,111.318 " />
<polyline points="918.872,29.0869 918.872,44.8 " />
<polyline points="918.872,36.5693 920.369,35.0729 921.865,34.3246 924.11,34.3246 925.606,35.0729 927.103,36.5693 927.851,38.8141 927.851,40.3106 927.103,42.5553 925.606,44.0518 924.11,44.8 921.865,44.8 920.369,44.0518 918.872,42.5553 " />
<polyline points="934.585,32.0799 936.082,31.3316 938.327,29.0869 938.327,44.8 " />
</g>
<g clip-path="url(#clipId0)" fill="rgb(0,0,0)" stroke="rgb(0,0,0)" stroke-width="0.25" >
<path d="M971.894,43.478 983.988,42.2873 994.021,33.6062 994.021,33.6062 z" />
</g>
<g clip-path="url(#clipId0)" fill="none" stroke="rgb(0,0,0)" stroke-width="0.25" >
<polyline points="889.583,89.6298 875.334,97.2192 " />
<polyline points="838.207,102.672 812.621,57.4332 " />
<polyline points="821.416,114.126 838.134,102.658 " />
<polyline points="868.163,113.804 821.345,113.999 " />
<polyline points="876.593,170.542 851.066,125.408 " />
<polyline points="867.837,113.968 851.12,125.436 " />
</g>
<g clip-path="url(#clipId0)" fill="rgb(0,0,0)" stroke="rgb(0,0,0)" stroke-width="0.25" >
<path d="M804.617,202.876 808.712,200.702 800.143,189.502 800.143,189.502 z" />
</g>
<g clip-path="url(#clipId0)" fill="none" stroke="rgb(0,0,0)" stroke-width="0.25" >
<polyline points="897.446,7.52941 894.952,8.77649 892.458,11.2706 891.211,13.7648 889.964,17.506 889.964,23.7414 891.211,27.4826 892.458,29.9768 894.952,32.4709 897.446,33.718 902.435,33.718 904.929,32.4709 907.423,29.9768 908.67,27.4826 909.917,23.7414 909.917,17.506 908.67,13.7648 907.423,11.2706 904.929,8.77649 902.435,7.52941 897.446,7.52941 " />
<polyline points="901.187,28.7297 908.67,36.2121 " />
<polyline points="681.912,352.569 675.306,363.862 " />
<polyline points="678.766,357.947 680.471,357.5 681.861,357.591 683.474,358.535 684.235,359.702 684.682,361.407 684.276,363.334 683.647,364.41 682.165,365.709 680.461,366.155 679.071,366.064 677.457,365.12 676.696,363.953 676.25,362.249 " />
<polyline points="690.556,361.234 690.871,360.696 692.038,359.935 692.89,359.712 694.28,359.803 696.431,361.062 697.192,362.228 697.415,363.081 697.324,364.471 696.695,365.546 695.528,366.307 693.509,367.291 684.986,369.524 692.514,373.927 " />
<polyline points="567.926,362.392 559.888,357.751 " />
<polyline points="567.611,222.546 560.098,226.884 " />
<polyline points="673.825,190.196 679.198,201.16 " />
<polyline points="676.384,195.417 676.916,193.861 677.705,192.827 679.271,192.06 680.571,192.07 682.127,192.602 683.417,193.913 683.929,194.957 684.174,196.78 683.642,198.335 682.853,199.369 681.287,200.137 679.987,200.127 678.431,199.594 " />
<polyline points="685.813,186.911 686.602,185.877 687.401,183.543 692.774,194.508 " />
<polyline points="176.529,200.71 176.529,280.612 " />
<polyline points="321.788,266.571 321.037,265.069 319.535,263.568 318.034,262.817 315.031,262.817 313.529,263.568 312.028,265.069 311.277,266.571 310.526,268.823 310.526,272.577 311.277,274.83 312.028,276.331 313.529,277.833 315.031,278.583 318.034,278.583 319.535,277.833 321.037,276.331 321.788,274.83 " />
<polyline points="75.1514,312.046 65.4007,337.642 " />
<polyline points="75.1514,312.046 84.902,337.642 " />
<polyline points="69.0572,329.11 81.2455,329.11 " />
<polyline points="176.529,304.022 176.529,383.924 " />
<polyline points="106.8,337.571 106.069,336.109 104.606,334.646 103.144,333.915 100.219,333.915 98.7561,334.646 97.2935,336.109 96.5622,337.571 95.8309,339.765 95.8309,343.422 96.5622,345.616 97.2935,347.078 98.7561,348.541 100.219,349.272 103.144,349.272 104.606,348.541 106.069,347.078 106.8,345.616 " />
<polyline points="130.158,292.317 68.8844,292.317 " />
<polyline points="156.256,304.022 176.529,304.022 " />
<polyline points="196.802,280.612 156.256,304.022 " />
<polyline points="196.802,280.612 176.529,280.612 " />
</g>
<g clip-path="url(#clipId0)" fill="rgb(0,0,0)" stroke="rgb(0,0,0)" stroke-width="0.25" >
<path d="M130.158,290.136 130.158,294.498 143.245,292.317 143.245,292.317 z" />
</g>
<g clip-path="url(#clipId0)" fill="none" stroke="rgb(0,0,0)" stroke-width="0.25" >
<polyline points="68.8844,292.317 29.9786,292.317 " />
<polyline points="72.4022,231.742 69.9645,232.96 67.5269,235.398 66.308,237.836 65.0892,241.492 65.0892,247.586 66.308,251.243 67.5269,253.681 69.9645,256.118 72.4022,257.337 77.2775,257.337 79.7152,256.118 82.1529,253.681 83.3717,251.243 84.5905,247.586 84.5905,241.492 83.3717,237.836 82.1529,235.398 79.7152,232.96 77.2775,231.742 72.4022,231.742 " />
<polyline points="76.0587,252.462 83.3717,259.775 " />
<polyline points="104.882,257.745 104.151,256.282 102.688,254.82 101.225,254.088 98.3002,254.088 96.8376,254.82 95.375,256.282 94.6437,257.745 93.9124,259.939 93.9124,263.595 94.6437,265.789 95.375,267.252 96.8376,268.714 98.3002,269.446 101.225,269.446 102.688,268.714 104.151,267.252 104.882,265.789 " />
</g>
</svg>
