<?xml version="1.0" standalone="no"?>
<svg viewBox="0 0 1024 768" version="1.1" xmlns="http://www.w3.org/2000/svg" xmlns:xlink="http://www.w3.org/1999/xlink" stroke-linecap="round" stroke-linejoin="round" fill-rule="evenodd" xml:space="preserve" >
<defs >
<clipPath id="clipId0" >
<path d="M0,768 1024,768 1024,0 0,0 z" />
</clipPath>
</defs>
<g clip-path="url(#clipId0)" fill="none" stroke="rgb(0,0,0)" stroke-width="0.1" />
<g clip-path="url(#clipId0)" fill="none" stroke="rgb(0,0,0)" stroke-width="0.25" >
<polyline points="463.775,181.824 463.775,442.362 " stroke-dasharray="61.481415,12.296283,12.296283,12.296283" />
<polyline points="215.187,202.021 809.374,202.021 " stroke-dasharray="61.481415,12.296283,12.296283,12.296283" />
<polyline points="903.692,639.918 901.631,637.857 898.54,636.827 894.417,636.827 891.326,637.857 889.265,639.918 889.265,641.979 890.295,644.041 891.326,645.071 893.387,646.102 899.57,648.163 901.631,649.193 902.662,650.224 903.692,652.285 903.692,655.377 901.631,657.438 898.54,658.468 894.417,658.468 891.326,657.438 889.265,655.377 " />
<polyline points="910.906,636.827 910.906,658.468 " />
<polyline points="910.906,636.827 920.181,636.827 923.273,637.857 924.303,638.888 925.334,640.949 925.334,643.01 924.303,645.071 923.273,646.102 920.181,647.132 910.906,647.132 " />
<polyline points="918.12,647.132 925.334,658.468 " />
<polyline points="943.884,636.827 933.578,636.827 932.548,646.102 933.578,645.071 936.67,644.041 939.761,644.041 942.853,645.071 944.914,647.132 945.945,650.224 945.945,652.285 944.914,655.377 942.853,657.438 939.761,658.468 936.67,658.468 933.578,657.438 932.548,656.407 931.517,654.346 " />
<polyline points="953.159,649.193 971.708,649.193 " />
<polyline points="982.014,640.949 984.075,639.918 987.167,636.827 987.167,658.468 " />
<polyline points="1001.59,636.827 1012.93,636.827 1006.75,645.071 1009.84,645.071 1011.9,646.102 1012.93,647.132 1013.96,650.224 1013.96,652.285 1012.93,655.377 1010.87,657.438 1007.78,658.468 1004.69,658.468 1001.59,657.438 1000.56,656.407 999.533,654.346 " />
<polyline points="430.04,416.446 443.227,416.446 " />
<polyline points="436.32,416.446 435.064,415.19 434.436,413.934 434.436,412.05 435.064,410.794 436.32,409.538 438.204,408.91 439.46,408.91 441.343,409.538 442.599,410.794 443.227,412.05 443.227,413.934 442.599,415.19 441.343,416.446 " />
<polyline points="725.651,184.438 725.023,183.182 723.139,182.554 721.255,182.554 719.371,183.182 718.743,184.438 719.371,185.694 720.627,186.322 723.767,186.95 725.023,187.578 725.651,188.834 725.651,189.462 725.023,190.718 723.139,191.346 721.255,191.346 719.371,190.718 718.743,189.462 " />
<polyline points="430.04,349.223 443.227,349.223 " />
<polyline points="436.32,349.223 435.064,347.967 434.436,346.711 434.436,344.827 435.064,343.571 436.32,342.316 438.204,341.688 439.46,341.688 441.343,342.316 442.599,343.571 443.227,344.827 443.227,346.711 442.599,347.967 441.343,349.223 " />
<polyline points="791.337,184.824 790.71,183.568 788.826,182.94 786.942,182.94 785.058,183.568 784.43,184.824 785.058,186.08 786.314,186.708 789.454,187.336 790.71,187.963 791.337,189.219 791.337,189.847 790.71,191.103 788.826,191.731 786.942,191.731 785.058,191.103 784.43,189.847 " />
<polyline points="698.865,170.876 702.004,184.064 " />
<polyline points="705.144,170.876 702.004,184.064 " />
<polyline points="705.144,170.876 708.284,184.064 " />
<polyline points="711.424,170.876 708.284,184.064 " />
<polyline points="740.937,175.272 747.845,184.064 " />
<polyline points="747.845,175.272 740.937,184.064 " />
<polyline points="765.428,170.876 765.428,184.064 " />
<polyline points="774.219,170.876 774.219,184.064 " />
<polyline points="765.428,177.156 774.219,177.156 " />
<polyline points="422.569,431.357 435.756,428.217 " />
<polyline points="422.569,425.077 435.756,428.217 " />
<polyline points="422.569,425.077 435.756,421.938 " />
<polyline points="422.569,418.798 435.756,421.938 " />
<polyline points="426.964,389.284 435.756,382.376 " />
<polyline points="426.964,382.376 435.756,389.284 " />
<polyline points="422.569,364.794 435.756,364.794 " />
<polyline points="422.569,356.002 435.756,356.002 " />
<polyline points="428.848,364.794 428.848,356.002 " />
<polyline points="275.762,167.332 278.901,180.519 " />
<polyline points="282.041,167.332 278.901,180.519 " />
<polyline points="282.041,167.332 285.181,180.519 " />
<polyline points="288.321,167.332 285.181,180.519 " />
<polyline points="304.648,171.727 311.555,180.519 " />
<polyline points="311.555,171.727 304.648,180.519 " />
<polyline points="329.138,167.332 329.138,180.519 " />
<polyline points="337.929,167.332 337.929,180.519 " />
<polyline points="329.138,173.611 337.929,173.611 " />
<polyline points="144.454,631.228 143.795,631.887 143.136,631.228 143.795,630.569 144.454,631.228 144.454,632.547 143.795,633.866 143.136,634.525 " />
<polyline points="164.235,618.041 171.488,618.041 167.532,623.316 169.51,623.316 170.829,623.975 171.488,624.635 172.147,626.613 172.147,627.931 171.488,629.909 170.169,631.228 168.191,631.887 166.213,631.887 164.235,631.228 163.576,630.569 162.916,629.25 " />
<polyline points="189.95,618.7 190.609,619.36 191.268,618.7 190.609,618.041 189.95,618.7 " />
<polyline points="190.609,623.316 190.609,631.887 " />
<polyline points="195.884,622.657 195.884,631.887 " />
<polyline points="195.884,625.294 197.862,623.316 199.181,622.657 201.159,622.657 202.477,623.316 203.137,625.294 203.137,631.887 " />
<polyline points="209.071,630.569 208.412,631.228 209.071,631.887 209.73,631.228 209.071,630.569 " />
<polyline points="233.467,615.404 232.148,616.722 230.83,618.7 229.511,621.338 228.851,624.635 228.851,627.272 229.511,630.569 230.83,633.206 232.148,635.184 233.467,636.503 " />
<polyline points="246.654,618.041 240.06,631.887 " />
<polyline points="237.423,618.041 246.654,618.041 " />
<polyline points="258.522,618.041 251.929,618.041 251.269,623.975 251.929,623.316 253.907,622.657 255.885,622.657 257.863,623.316 259.182,624.635 259.841,626.613 259.841,627.931 259.182,629.909 257.863,631.228 255.885,631.887 253.907,631.887 251.929,631.228 251.269,630.569 250.61,629.25 " />
<polyline points="264.456,622.657 264.456,631.887 " />
<polyline points="264.456,625.294 266.434,623.316 267.753,622.657 269.731,622.657 271.05,623.316 271.709,625.294 271.709,631.887 " />
<polyline points="271.709,625.294 273.687,623.316 275.006,622.657 276.984,622.657 278.303,623.316 278.962,625.294 278.962,631.887 " />
<polyline points="284.237,622.657 284.237,631.887 " />
<polyline points="284.237,625.294 286.215,623.316 287.534,622.657 289.512,622.657 290.83,623.316 291.49,625.294 291.49,631.887 " />
<polyline points="291.49,625.294 293.468,623.316 294.787,622.657 296.765,622.657 298.083,623.316 298.743,625.294 298.743,631.887 " />
<polyline points="303.358,615.404 304.677,616.722 305.996,618.7 307.314,621.338 307.974,624.635 307.974,627.272 307.314,630.569 305.996,633.206 304.677,635.184 303.358,636.503 " />
<polyline points="327.095,622.657 327.095,631.887 " />
<polyline points="327.095,625.294 329.073,623.316 330.392,622.657 332.37,622.657 333.688,623.316 334.348,625.294 334.348,631.887 " />
<polyline points="334.348,625.294 336.326,623.316 337.644,622.657 339.623,622.657 340.941,623.316 341.601,625.294 341.601,631.887 " />
<polyline points="346.216,618.7 346.875,619.36 347.535,618.7 346.875,618.041 346.216,618.7 " />
<polyline points="346.875,623.316 346.875,631.887 " />
<polyline points="352.15,622.657 352.15,631.887 " />
<polyline points="352.15,625.294 354.128,623.316 355.447,622.657 357.425,622.657 358.744,623.316 359.403,625.294 359.403,631.887 " />
<polyline points="365.337,630.569 364.678,631.228 365.337,631.887 365.997,631.228 365.337,630.569 " />
<polyline points="10.0392,618.041 10.0392,631.887 17.9514,631.887 " />
<polyline points="35.0946,623.975 46.9629,623.975 " />
<polyline points="35.0946,627.931 46.9629,627.931 " />
<polyline points="69.3809,618.041 67.4028,618.7 66.0841,620.679 65.4247,623.975 65.4247,625.953 66.0841,629.25 67.4028,631.228 69.3809,631.887 70.6996,631.887 72.6776,631.228 73.9963,629.25 74.6557,625.953 74.6557,623.975 73.9963,620.679 72.6776,618.7 70.6996,618.041 69.3809,618.041 " />
<polyline points="79.9305,630.569 79.2711,631.228 79.9305,631.887 80.5898,631.228 79.9305,630.569 " />
<polyline points="85.8646,621.338 85.8646,620.679 86.524,619.36 87.1833,618.7 88.5021,618.041 91.1395,618.041 92.4582,618.7 93.1175,619.36 93.7769,620.679 93.7769,621.997 93.1175,623.316 91.7988,625.294 85.2053,631.887 94.4362,631.887 " />
<polyline points="106.305,618.041 99.711,618.041 99.0517,623.975 99.711,623.316 101.689,622.657 103.667,622.657 105.645,623.316 106.964,624.635 107.623,626.613 107.623,627.931 106.964,629.909 105.645,631.228 103.667,631.887 101.689,631.887 99.711,631.228 99.0517,630.569 98.3923,629.25 " />
<polyline points="110.92,618.041 114.217,631.887 " />
<polyline points="117.514,618.041 114.217,631.887 " />
<polyline points="117.514,618.041 120.81,631.887 " />
<polyline points="124.107,618.041 120.81,631.887 " />
<polyline points="126.752,627.502 126.752,641.349 " />
<polyline points="126.752,634.096 128.071,632.777 129.389,632.118 131.368,632.118 132.686,632.777 134.005,634.096 134.664,636.074 134.664,637.392 134.005,639.371 132.686,640.689 131.368,641.349 129.389,641.349 128.071,640.689 126.752,639.371 " />
<polyline points="270.264,283.552 270.264,296.739 277.8,296.739 " />
<polyline points="954.012,185.236 953.384,183.981 951.501,183.353 949.617,183.353 947.733,183.981 947.105,185.236 947.733,186.492 948.989,187.12 952.128,187.748 953.384,188.376 954.012,189.632 954.012,190.26 953.384,191.516 951.501,192.144 949.617,192.144 947.733,191.516 947.105,190.26 " />
<polyline points="953.938,227.663 953.31,226.407 951.426,225.779 949.542,225.779 947.658,226.407 947.03,227.663 947.658,228.919 948.914,229.547 952.054,230.175 953.31,230.803 953.938,232.058 953.938,232.686 953.31,233.942 951.426,234.57 949.542,234.57 947.658,233.942 947.03,232.686 " />
<polyline points="48.856,213.082 47.6001,213.71 46.3442,214.966 45.7163,216.222 45.0883,218.106 45.0883,221.245 45.7163,223.129 46.3442,224.385 47.6001,225.641 48.856,226.269 51.3679,226.269 52.6238,225.641 53.8797,224.385 54.5076,223.129 55.1356,221.245 55.1356,218.106 54.5076,216.222 53.8797,214.966 52.6238,213.71 51.3679,213.082 48.856,213.082 " />
<polyline points="50.7399,223.757 54.5076,227.525 " />
<polyline points="51.8436,172.039 46.82,185.226 " />
<polyline points="51.8436,172.039 56.8672,185.226 " />
<polyline points="48.7038,180.83 54.9834,180.83 " />
<polyline points="115.877,201.841 13.0828,201.841 " />
</g>
<g clip-path="url(#clipId0)" fill="rgb(0,0,0)" stroke="rgb(0,0,0)" stroke-width="0.25" >
<path d="M115.877,199.643 115.877,204.039 129.064,201.841 129.064,201.841 z" />
</g>
<g clip-path="url(#clipId0)" fill="none" stroke="rgb(0,0,0)" stroke-width="0.25" >
<polyline points="375.095,314.443 257.732,314.443 " />
<polyline points="463.118,581.517 463.118,511.032 " />
</g>
<g clip-path="url(#clipId0)" fill="rgb(0,0,0)" stroke="rgb(0,0,0)" stroke-width="0.25" >
<path d="M465.315,581.517 460.92,581.517 463.118,594.704 463.118,594.704 z" />
</g>
<g clip-path="url(#clipId0)" fill="none" stroke="rgb(0,0,0)" stroke-width="0.25" >
<polyline points="272.402,255.191 272.402,229.991 " />
</g>
<g clip-path="url(#clipId0)" fill="rgb(0,0,0)" stroke="rgb(0,0,0)" stroke-width="0.25" >
<path d="M274.6,255.191 270.204,255.191 272.402,268.378 272.402,268.378 z" />
</g>
<g clip-path="url(#clipId0)" fill="none" stroke="rgb(0,0,0)" stroke-width="0.25" >
<polyline points="272.402,327.63 272.402,352.83 " />
</g>
<g clip-path="url(#clipId0)" fill="rgb(0,0,0)" stroke="rgb(0,0,0)" stroke-width="0.25" >
<path d="M270.204,327.63 274.6,327.63 272.402,314.443 272.402,314.443 z" />
</g>
<g clip-path="url(#clipId0)" fill="none" stroke="rgb(0,0,0)" stroke-width="0.25" >
<polyline points="444.487,459.631 479.652,494.968 " />
<polyline points="479.652,476.984 545.874,476.984 " />
<polyline points="444.487,459.631 444.487,476.984 " />
<polyline points="479.652,476.984 479.652,494.968 " />
<polyline points="378.266,476.984 444.487,476.984 " />
<polyline points="400.244,314.443 335.441,267.776 " />
<polyline points="523.895,314.443 400.244,314.443 " />
<polyline points="400.244,314.443 400.244,476.984 " />
<polyline points="523.895,267.776 523.895,476.984 " />
<polyline points="849.139,267.776 849.139,213.635 " />
<polyline points="849.139,190.047 849.139,135.906 " />
<polyline points="828.711,213.635 869.568,190.047 " />
<polyline points="869.568,190.047 849.139,190.047 " />
<polyline points="828.711,213.635 849.139,213.635 " />
<polyline points="558.557,135.906 558.557,267.776 " />
<polyline points="558.557,135.906 647.546,157.884 " />
<polyline points="558.557,267.776 647.546,245.798 " />
<polyline points="647.546,157.884 647.546,245.798 " />
<polyline points="647.546,245.798 849.139,245.798 " />
<polyline points="647.546,157.884 849.139,157.884 " />
<polyline points="995.356,201.841 896.278,201.841 " />
</g>
<g clip-path="url(#clipId0)" fill="rgb(0,0,0)" stroke="rgb(0,0,0)" stroke-width="0.25" >
<path d="M995.356,199.643 995.356,204.039 1008.54,201.841 1008.54,201.841 z" />
</g>
<g clip-path="url(#clipId0)" fill="none" stroke="rgb(0,0,0)" stroke-width="0.25" >
<polyline points="428.654,534.542 427.398,535.17 426.142,536.426 425.514,537.682 424.886,539.566 424.886,542.706 425.514,544.59 426.142,545.846 427.398,547.101 428.654,547.729 431.166,547.729 432.422,547.101 433.677,545.846 434.305,544.59 434.933,542.706 434.933,539.566 434.305,537.682 433.677,536.426 432.422,535.17 431.166,534.542 428.654,534.542 " />
<polyline points="430.538,545.218 434.305,548.985 " />
<polyline points="440.731,541.802 440.731,554.989 " />
<polyline points="440.731,548.081 441.987,546.825 443.242,546.197 445.126,546.197 446.382,546.825 447.638,548.081 448.266,549.965 448.266,551.221 447.638,553.105 446.382,554.361 445.126,554.989 443.242,554.989 441.987,554.361 440.731,553.105 " />
<polyline points="479.779,537.976 474.756,551.163 " />
<polyline points="479.779,537.976 484.803,551.163 " />
<polyline points="476.64,546.767 482.919,546.767 " />
<polyline points="488.301,543.985 488.301,557.172 " />
<polyline points="488.301,550.264 489.557,549.009 490.813,548.381 492.696,548.381 493.952,549.009 495.208,550.264 495.836,552.148 495.836,553.404 495.208,555.288 493.952,556.544 492.696,557.172 490.813,557.172 489.557,556.544 488.301,555.288 " />
<polyline points="158.277,267.776 558.557,267.776 " />
<polyline points="158.277,294.15 158.277,213.635 " />
<polyline points="137.849,213.635 158.277,213.635 " />
<polyline points="178.706,190.047 158.277,190.047 " />
<polyline points="137.849,213.635 178.706,190.047 " />
<polyline points="158.277,190.047 158.277,109.532 " />
<polyline points="158.277,135.906 558.557,135.906 " />
<polyline points="932.302,215.102 931.046,215.73 929.79,216.986 929.162,218.241 928.535,220.125 928.535,223.265 929.162,225.149 929.79,226.405 931.046,227.661 932.302,228.289 934.814,228.289 936.07,227.661 937.326,226.405 937.954,225.149 938.582,223.265 938.582,220.125 937.954,218.241 937.326,216.986 936.07,215.73 934.814,215.102 932.302,215.102 " />
<polyline points="934.186,225.777 937.954,229.545 " />
<polyline points="68.5182,223.143 67.2623,221.887 66.0064,221.259 64.1225,221.259 62.8666,221.887 61.6107,223.143 60.9828,225.027 60.9828,226.283 61.6107,228.166 62.8666,229.422 64.1225,230.05 66.0064,230.05 67.2623,229.422 68.5182,228.166 " />
<polyline points="68.5182,184.327 67.2623,183.071 66.0064,182.443 64.1225,182.443 62.8666,183.071 61.6107,184.327 60.9828,186.211 60.9828,187.467 61.6107,189.351 62.8666,190.607 64.1225,191.235 66.0064,191.235 67.2623,190.607 68.5182,189.351 " />
<polyline points="933.269,174.059 928.245,187.246 " />
<polyline points="933.269,174.059 938.292,187.246 " />
<polyline points="930.129,182.85 936.409,182.85 " />
</g>
</svg>
