<?xml version="1.0" standalone="no"?>
<svg viewBox="0 0 1024 768" version="1.1" xmlns="http://www.w3.org/2000/svg" xmlns:xlink="http://www.w3.org/1999/xlink" stroke-linecap="round" stroke-linejoin="round" fill-rule="evenodd" xml:space="preserve" >
<defs >
<clipPath id="clipId0" >
<path d="M0,768 1024,768 1024,0 0,0 z" />
</clipPath>
</defs>
<g clip-path="url(#clipId0)" fill="none" stroke="rgb(0,0,0)" stroke-width="0.1" />
<g clip-path="url(#clipId0)" fill="none" stroke="rgb(0,0,0)" stroke-width="0.25" >
<polyline points="494.3,420.573 494.3,188.372 " stroke-dasharray="132.121257,26.424251,26.424251,26.424251" />
<polyline points="227.196,214.413 770.09,214.413 " stroke-dasharray="132.121257,26.424251,26.424251,26.424251" />
<polyline points="452.386,418.408 468.241,413.123 460.314,410.48 468.241,407.838 452.386,402.553 " />
<polyline points="468.241,365.559 457.671,354.989 " />
<polyline points="457.671,365.559 468.241,354.989 " />
<polyline points="468.241,333.85 452.386,333.85 " />
<polyline points="460.314,333.85 460.314,323.28 " />
<polyline points="452.386,323.28 468.241,323.28 " />
<polyline points="905.45,655.7 909.326,659.575 917.076,659.575 920.952,655.7 905.45,640.198 909.326,636.323 917.076,636.323 920.952,640.198 " />
<polyline points="928.702,659.575 928.702,636.323 940.329,636.323 944.204,640.198 944.204,644.074 940.329,647.949 928.702,647.949 " />
<polyline points="932.578,647.949 944.204,659.575 " />
<polyline points="951.955,655.7 955.83,659.575 963.581,659.575 967.456,655.7 967.456,647.949 963.581,644.074 951.955,644.074 951.955,636.323 967.456,636.323 " />
<polyline points="975.207,647.949 990.709,647.949 " />
<polyline points="998.459,655.7 1002.33,659.575 1010.09,659.575 1013.96,655.7 1013.96,647.949 1010.09,644.074 998.459,644.074 998.459,636.323 1013.96,636.323 " />
<polyline points="174.917,128.904 828.98,128.904 " />
<polyline points="828.98,297.853 559.675,297.853 " />
<polyline points="174.917,323.451 174.917,226.983 " />
<polyline points="174.917,226.983 158.146,226.983 " />
<polyline points="174.917,196.265 174.917,108.425 " />
<polyline points="191.687,196.265 174.917,196.265 " />
<polyline points="158.146,226.983 191.687,196.265 " />
<polyline points="812.209,226.983 845.751,196.265 " />
<polyline points="845.751,196.265 828.98,196.265 " />
<polyline points="828.98,226.983 812.209,226.983 " />
<polyline points="828.98,196.265 828.98,108.425 " />
<polyline points="828.98,323.451 828.98,226.983 " />
<polyline points="925.251,191.459 927.45,193.657 925.251,195.856 923.053,195.856 920.855,193.657 920.855,184.863 923.053,182.665 927.45,182.665 929.648,184.863 929.648,191.459 927.45,193.657 929.648,195.856 " />
<polyline points="921.087,235.746 921.087,231.35 925.484,222.556 929.881,231.35 929.881,235.746 " />
<polyline points="921.087,231.35 929.881,231.35 " />
<polyline points="55.4931,191.046 57.6915,193.245 55.4931,195.443 53.2946,195.443 51.0962,193.245 51.0962,184.451 53.2946,182.252 57.6915,182.252 59.8899,184.451 59.8899,191.046 57.6915,193.245 59.8899,195.443 " />
<polyline points="51.0639,238.509 51.0639,234.112 55.4608,225.318 59.8577,234.112 59.8577,238.509 " />
<polyline points="51.0639,234.112 59.8577,234.112 " />
<polyline points="455.355,562.619 457.553,564.818 455.355,567.016 453.156,567.016 450.958,564.818 450.958,556.024 453.156,553.826 457.553,553.826 459.752,556.024 459.752,562.619 457.553,564.818 459.752,567.016 " />
<polyline points="510.924,569.629 510.924,565.232 515.321,556.438 519.718,565.232 519.718,569.629 " />
<polyline points="510.924,565.232 519.718,565.232 " />
<polyline points="73.6843,192.467 67.0889,192.467 64.8905,194.666 64.8905,199.063 67.0889,201.261 73.6843,201.261 " />
<polyline points="74.9946,237.071 68.3992,237.071 66.2008,239.27 66.2008,243.667 68.3992,245.865 74.9946,245.865 " />
<polyline points="414.982,465.315 467.606,465.315 " />
<polyline points="503.975,480.99 503.975,467.928 " />
<polyline points="503.975,467.928 576.164,467.928 " />
<polyline points="467.606,465.315 467.606,452.253 " />
<polyline points="467.606,452.253 503.975,480.99 " />
<polyline points="431.471,297.853 174.917,297.853 " />
<polyline points="468.439,577.529 468.439,564.338 " />
<polyline points="468.439,573.132 472.836,568.735 475.034,568.735 477.232,570.934 477.232,575.33 475.034,577.529 472.836,577.529 468.439,573.132 " />
<polyline points="527.38,577.657 527.38,564.466 " />
<polyline points="527.38,573.26 531.777,568.863 533.976,568.863 536.174,571.061 536.174,575.458 533.976,577.657 531.777,577.657 527.38,573.26 " />
</g>
<g clip-path="url(#clipId0)" fill="rgb(0,0,0)" stroke="rgb(0,0,0)" stroke-width="0.25" >
<path d="M993.693,212.788 993.693,218.064 1009.52,215.426 1009.52,215.426 z" />
<path d="M113.838,212.314 113.838,217.59 129.666,214.952 129.666,214.952 z" />
</g>
<g clip-path="url(#clipId0)" fill="none" stroke="rgb(0,0,0)" stroke-width="0.25" >
<polyline points="113.838,214.952 10.0392,214.952 " />
</g>
<g clip-path="url(#clipId0)" fill="rgb(0,0,0)" stroke="rgb(0,0,0)" stroke-width="0.25" >
<path d="M496.124,618.77 490.848,618.77 493.486,634.599 493.486,634.599 z" />
</g>
<g clip-path="url(#clipId0)" fill="none" stroke="rgb(0,0,0)" stroke-width="0.25" >
<polyline points="493.556,618.77 493.556,509.548 " />
<polyline points="431.471,297.853 431.471,465.315 " />
<polyline points="559.675,297.853 559.675,467.928 " />
<polyline points="936.026,201.954 942.621,201.954 944.82,199.755 942.621,197.557 938.224,197.557 936.026,195.358 938.224,193.16 944.82,193.16 " />
<polyline points="935.143,240.727 941.739,240.727 943.937,238.528 941.739,236.33 937.342,236.33 935.143,234.131 937.342,231.933 943.937,231.933 " />
<polyline points="655.365,246.279 659.762,259.469 661.961,252.874 664.159,259.469 668.556,246.279 " />
<polyline points="686.144,259.469 694.937,250.676 " />
<polyline points="686.144,250.676 694.937,259.469 " />
<polyline points="712.525,259.469 712.525,246.279 " />
<polyline points="712.525,252.874 721.319,252.874 " />
<polyline points="721.319,246.279 721.319,259.469 " />
<polyline points="261.774,246.291 266.171,259.481 268.369,252.886 270.568,259.481 274.965,246.291 " />
<polyline points="292.552,259.481 301.346,250.688 " />
<polyline points="292.552,250.688 301.346,259.481 " />
<polyline points="318.934,259.481 318.934,246.291 " />
<polyline points="318.934,252.886 327.727,252.886 " />
<polyline points="327.727,246.291 327.727,259.481 " />
<polyline points="479.084,395.865 465.893,395.865 " />
<polyline points="474.687,395.865 470.29,391.468 470.29,389.269 472.488,387.071 476.885,387.071 479.084,389.269 479.084,391.468 474.687,395.865 " />
<polyline points="881.925,214.952 994.3,214.952 " />
<polyline points="175.079,623.619 175.079,618.334 180.364,607.764 185.648,618.334 185.648,623.619 " />
<polyline points="175.079,618.334 185.648,618.334 " />
<polyline points="222.642,613.049 233.212,613.049 " />
<polyline points="233.212,618.334 222.642,618.334 " />
<polyline points="254.351,623.619 254.351,618.334 259.636,607.764 264.921,618.334 264.921,623.619 " />
<polyline points="254.351,618.334 264.921,618.334 " />
<polyline points="194.637,635.686 201.233,635.686 203.431,633.488 201.233,631.289 196.836,631.289 194.637,629.091 196.836,626.892 203.431,626.892 " />
<polyline points="279.122,627.691 272.527,627.691 270.329,629.889 270.329,634.286 272.527,636.485 279.122,636.485 " />
</g>
</svg>
