<?xml version="1.0" standalone="no"?>
<svg viewBox="0 0 1024 768" version="1.1" xmlns="http://www.w3.org/2000/svg" xmlns:xlink="http://www.w3.org/1999/xlink" stroke-linecap="round" stroke-linejoin="round" fill-rule="evenodd" xml:space="preserve" >
<defs >
<clipPath id="clipId0" >
<path d="M0,768 1024,768 1024,0 0,0 z" />
</clipPath>
</defs>
<g clip-path="url(#clipId0)" fill="none" stroke="rgb(0,0,0)" stroke-width="0.1" />
<g clip-path="url(#clipId0)" fill="none" stroke="rgb(0,0,0)" stroke-width="0.25" >
<polyline points="950.817,485.452 918.105,465.316 " />
<polyline points="876.861,52.1694 867.242,57.8154 " />
<polyline points="917.363,739.934 915.081,737.652 911.658,736.511 907.095,736.511 903.672,737.652 901.39,739.934 901.39,742.216 902.531,744.498 903.672,745.638 905.954,746.779 912.799,749.061 915.081,750.202 916.222,751.343 917.363,753.625 917.363,757.048 915.081,759.33 911.658,760.471 907.095,760.471 903.672,759.33 901.39,757.048 " />
<polyline points="925.35,736.511 925.35,760.471 " />
<polyline points="925.35,736.511 935.618,736.511 939.041,737.652 940.182,738.793 941.323,741.075 941.323,743.357 940.182,745.638 939.041,746.779 935.618,747.92 925.35,747.92 " />
<polyline points="933.336,747.92 941.323,760.471 " />
<polyline points="961.859,736.511 950.45,736.511 949.309,746.779 950.45,745.638 953.873,744.498 957.296,744.498 960.719,745.638 963,747.92 964.141,751.343 964.141,753.625 963,757.048 960.719,759.33 957.296,760.471 953.873,760.471 950.45,759.33 949.309,758.189 948.168,755.907 " />
<polyline points="972.128,750.202 992.665,750.202 " />
<polyline points="1004.07,741.075 1006.36,739.934 1009.78,736.511 1009.78,760.471 " />
<polyline points="203.007,109.548 217.01,109.548 " />
<polyline points="203.007,114.215 217.01,114.215 " />
<polyline points="241.125,105.659 242.681,104.881 245.014,102.547 245.014,118.883 " />
<polyline points="255.905,117.327 255.127,118.105 255.905,118.883 256.683,118.105 255.905,117.327 " />
<polyline points="266.796,102.547 264.462,103.325 262.906,105.659 262.128,109.548 262.128,111.882 262.906,115.771 264.462,118.105 266.796,118.883 268.352,118.883 270.685,118.105 272.241,115.771 273.019,111.882 273.019,109.548 272.241,105.659 270.685,103.325 268.352,102.547 266.796,102.547 " />
<polyline points="260.784,81.1452 273.591,81.1452 " />
<polyline points="261.191,65.3072 273.637,72.3083 261.191,79.3095 " />
<polyline points="317.949,76.9141 317.482,75.9806 316.549,75.0472 315.615,74.5804 313.748,74.5804 312.815,75.0472 311.881,75.9806 311.414,76.9141 310.948,78.3144 310.948,80.6481 311.414,82.0483 311.881,82.9818 312.815,83.9153 313.748,84.3821 315.615,84.3821 316.549,83.9153 317.482,82.9818 317.949,82.0483 " />
<polyline points="228.907,74.5804 228.907,84.3821 " />
<polyline points="228.907,79.2479 229.84,78.3144 230.774,77.8476 232.174,77.8476 233.107,78.3144 234.041,79.2479 234.508,80.6481 234.508,81.5816 234.041,82.9818 233.107,83.9153 232.174,84.3821 230.774,84.3821 229.84,83.9153 228.907,82.9818 " />
<polyline points="153.3,75.9806 152.367,75.0472 150.967,74.5804 149.1,74.5804 147.699,75.0472 146.766,75.9806 146.766,76.9141 147.233,77.8476 147.699,78.3144 148.633,78.7811 151.433,79.7146 152.367,80.1814 152.834,80.6481 153.3,81.5816 153.3,82.9818 152.367,83.9153 150.967,84.3821 149.1,84.3821 147.699,83.9153 146.766,82.9818 " />
<polyline points="135.174,65.169 128.951,81.5051 " />
<polyline points="135.174,65.169 141.397,81.5051 " />
<polyline points="131.285,76.0597 139.064,76.0597 " />
<polyline points="177.959,72.1702 191.961,72.1702 " />
<polyline points="177.959,76.8377 191.961,76.8377 " />
<polyline points="218.41,65.169 212.187,81.5051 " />
<polyline points="218.41,65.169 224.634,81.5051 " />
<polyline points="214.521,76.0597 222.3,76.0597 " />
<polyline points="297.757,65.169 291.534,81.5051 " />
<polyline points="297.757,65.169 303.98,81.5051 " />
<polyline points="293.868,76.0597 301.647,76.0597 " />
<polyline points="884.047,101.237 843.585,77.8764 " />
<polyline points="799.631,52.4995 766.177,33.1846 " />
<polyline points="879.737,7.52941 878.181,8.30732 876.625,9.86314 875.847,11.419 875.069,13.7527 875.069,17.6422 875.847,19.976 876.625,21.5318 878.181,23.0876 879.737,23.8655 882.848,23.8655 884.404,23.0876 885.96,21.5318 886.738,19.976 887.516,17.6422 887.516,13.7527 886.738,11.419 885.96,9.86314 884.404,8.30732 882.848,7.52941 879.737,7.52941 " />
<polyline points="882.07,20.7539 886.738,25.4213 " />
<polyline points="900.106,23.2949 899.173,22.3614 897.772,21.8947 895.905,21.8947 894.505,22.3614 893.572,23.2949 893.572,24.2284 894.038,25.1619 894.505,25.6287 895.439,26.0954 898.239,27.0289 899.173,27.4956 899.639,27.9624 900.106,28.8959 900.106,30.2961 899.173,31.2296 897.772,31.6964 895.905,31.6964 894.505,31.2296 893.572,30.2961 " />
<polyline points="926.227,23.6679 876.861,52.1694 " />
</g>
<g clip-path="url(#clipId0)" fill="rgb(0,0,0)" stroke="rgb(0,0,0)" stroke-width="0.25" >
<path d="M924.865,21.31 927.588,26.0258 940.374,15.4998 940.374,15.4998 z" />
</g>
<g clip-path="url(#clipId0)" fill="none" stroke="rgb(0,0,0)" stroke-width="0.25" >
<polyline points="932.788,55.9312 931.854,54.9977 930.454,54.5309 928.587,54.5309 927.187,54.9977 926.253,55.9312 926.253,56.8647 926.72,57.7981 927.187,58.2649 928.12,58.7316 930.921,59.6651 931.854,60.1319 932.321,60.5986 932.788,61.5321 932.788,62.9323 931.854,63.8658 930.454,64.3326 928.587,64.3326 927.187,63.8658 926.253,62.9323 " />
<polyline points="913.37,40.7119 907.146,57.048 " />
<polyline points="913.37,40.7119 919.593,57.048 " />
<polyline points="909.48,51.6026 917.259,51.6026 " />
<polyline points="157.604,580.239 214.085,612.848 " />
<polyline points="72.6102,531.168 113.99,555.058 " />
<polyline points="116.348,397.008 59.6483,429.744 " />
<polyline points="563.112,526.13 578.468,565.236 " />
<polyline points="539.767,466.677 551.8,497.322 " />
<path d="M603.928,630.52  A133.601,133.601 0 0,0 661.138,612.966 " />
</g>
<g clip-path="url(#clipId0)" fill="rgb(0,0,0)" stroke="rgb(0,0,0)" stroke-width="0.25" >
<path d="M509.296,622.56 511.678,617.663 495.797,612.966 495.797,612.966 z" />
<path d="M645.356,617.986 647.838,622.833 661.138,612.966 661.138,612.966 z" />
</g>
<g clip-path="url(#clipId0)" fill="none" stroke="rgb(0,0,0)" stroke-width="0.25" >
<path d="M495.797,612.966  A133.601,133.601 0 0,0 553.808,630.576 " />
<polyline points="257.823,587.596 201.123,620.332 " />
<polyline points="116.348,505.916 59.6483,538.651 " />
<polyline points="848.936,136.216 913.584,98.892 " />
<polyline points="707.461,54.5358 772.109,17.2115 " />
<polyline points="174.934,112.571 174.934,122.373 " />
<polyline points="174.934,117.238 175.868,116.305 176.801,115.838 178.201,115.838 179.135,116.305 180.068,117.238 180.535,118.639 180.535,119.572 180.068,120.972 179.135,121.906 178.201,122.373 176.801,122.373 175.868,121.906 174.934,120.972 " />
<polyline points="131.285,107.992 131.285,118.883 " />
<polyline points="131.285,112.66 132.062,110.326 133.618,108.77 135.174,107.992 137.508,107.992 " />
<polyline points="153.844,99.4352 139.842,124.328 " />
<polyline points="156.956,102.547 160.845,118.883 " />
<polyline points="164.735,102.547 160.845,118.883 " />
<polyline points="164.735,102.547 168.624,118.883 " />
<polyline points="172.514,102.547 168.624,118.883 " />
<polyline points="572.7,627.84 571.922,630.174 570.366,631.73 568.032,632.508 567.254,632.508 564.921,631.73 563.365,630.174 562.587,627.84 562.587,627.062 563.365,624.729 564.921,623.173 567.254,622.395 568.032,622.395 570.366,623.173 571.922,624.729 572.7,627.84 572.7,631.73 571.922,635.619 570.366,637.953 568.032,638.731 566.476,638.731 564.143,637.953 563.365,636.397 " />
<polyline points="582.812,622.395 580.479,623.173 578.923,625.507 578.145,629.396 578.145,631.73 578.923,635.619 580.479,637.953 582.812,638.731 584.368,638.731 586.702,637.953 588.258,635.619 589.036,631.73 589.036,629.396 588.258,625.507 586.702,623.173 584.368,622.395 582.812,622.395 " />
<ellipse rx="1.55582" ry="1.55582" transform="translate(593.703 623.951) rotate(90)" />
<polyline points="836.223,70.7193 835.289,69.7858 833.889,69.3191 832.022,69.3191 830.622,69.7858 829.688,70.7193 829.688,71.6528 830.155,72.5863 830.622,73.053 831.555,73.5198 834.356,74.4533 835.289,74.92 835.756,75.3867 836.223,76.3202 836.223,77.7205 835.289,78.654 833.889,79.1207 832.022,79.1207 830.622,78.654 829.688,77.7205 " />
<polyline points="809.833,55.8034 813.723,72.1395 " />
<polyline points="817.613,55.8034 813.723,72.1395 " />
<polyline points="817.613,55.8034 821.502,72.1395 " />
<polyline points="825.392,55.8034 821.502,72.1395 " />
<polyline points="151.21,575.372 150.743,574.439 149.81,573.505 148.876,573.038 147.009,573.038 146.076,573.505 145.142,574.439 144.675,575.372 144.209,576.772 144.209,579.106 144.675,580.506 145.142,581.44 146.076,582.373 147.009,582.84 148.876,582.84 149.81,582.373 150.743,581.44 151.21,580.506 " />
<polyline points="124.68,559.396 128.569,575.732 " />
<polyline points="132.459,559.396 128.569,575.732 " />
<polyline points="132.459,559.396 136.348,575.732 " />
<polyline points="140.238,559.396 136.348,575.732 " />
</g>
<g clip-path="url(#clipId0)" fill="rgb(0,0,0)" stroke="rgb(0,0,0)" stroke-width="0.25" >
<path d="M768.274,37.866 771.16,33.2486 755.865,26.8979 755.865,26.8979 z" />
<path d="M883.516,97.8784 880.821,102.61 896.364,108.329 896.364,108.329 z" />
<path d="M85.7368,542.181 88.5291,537.506 73.1081,531.467 73.1081,531.467 z" />
<path d="M201.388,602.21 198.625,606.902 214.085,612.843 214.085,612.843 z" />
</g>
<g clip-path="url(#clipId0)" fill="none" stroke="rgb(0,0,0)" stroke-width="0.25" >
<polyline points="67.1648,469.805 67.1648,486.141 " />
<polyline points="78.0556,469.805 78.0556,486.141 " />
<polyline points="67.1648,477.584 78.0556,477.584 " />
<polyline points="72.6102,514.032 72.6102,488.175 " />
</g>
<g clip-path="url(#clipId0)" fill="rgb(0,0,0)" stroke="rgb(0,0,0)" stroke-width="0.25" >
<path d="M75.3329,514.032 69.8875,514.032 72.6102,530.368 72.6102,530.368 z" />
</g>
<g clip-path="url(#clipId0)" fill="none" stroke="rgb(0,0,0)" stroke-width="0.25" >
<polyline points="72.6102,422.26 72.6102,464.781 " />
</g>
<g clip-path="url(#clipId0)" fill="rgb(0,0,0)" stroke="rgb(0,0,0)" stroke-width="0.25" >
<path d="M69.8875,439.906 75.3329,439.906 72.6102,423.57 72.6102,423.57 z" />
</g>
<g clip-path="url(#clipId0)" fill="none" stroke="rgb(0,0,0)" stroke-width="0.25" >
<polyline points="270.43,477.62 270.43,522.141 " />
<polyline points="270.43,572.914 270.43,482.935 " />
</g>
<g clip-path="url(#clipId0)" fill="rgb(0,0,0)" stroke="rgb(0,0,0)" stroke-width="0.25" >
<path d="M542.842,467.19 537.739,469.092 534.586,452.833 534.586,452.833 z" />
</g>
<g clip-path="url(#clipId0)" fill="none" stroke="rgb(0,0,0)" stroke-width="0.25" >
<polyline points="555.577,506.225 555.577,517.116 " />
<polyline points="555.577,510.893 556.355,508.559 557.91,507.003 559.466,506.225 561.8,506.225 " />
<polyline points="861.417,401.875 857.968,399.904 854.503,397.963 851.02,396.052 847.522,394.171 844.007,392.321 840.476,390.502 836.929,388.713 833.367,386.955 829.79,385.228 826.198,383.532 822.591,381.868 818.97,380.235 815.335,378.633 811.687,377.063 808.024,375.525 804.349,374.019 800.66,372.544 796.959,371.102 793.246,369.692 789.52,368.314 785.783,366.969 782.034,365.656 778.274,364.376 774.502,363.129 770.72,361.914 766.928,360.732 763.126,359.583 759.313,358.468 755.492,357.385 751.66,356.336 " />
<polyline points="442.888,486.959 678.524,623.004 " />
<polyline points="714.048,486.959 478.411,623.004 " />
<polyline points="861.417,292.968 857.942,290.982 854.45,289.026 850.94,287.101 847.414,285.207 843.872,283.344 840.313,281.512 836.739,279.711 833.149,277.941 829.543,276.203 825.922,274.497 822.287,272.822 818.637,271.179 814.973,269.568 811.295,267.99 807.603,266.443 803.898,264.929 800.18,263.448 796.449,261.999 792.705,260.582 788.949,259.199 785.181,257.849 781.402,256.531 777.611,255.247 773.809,253.996 769.996,252.778 766.172,251.594 762.339,250.443 758.495,249.326 754.642,248.242 750.78,247.192 746.908,246.176 743.028,245.194 739.139,244.246 739.139,244.246 734.426,243.137 729.705,242.06 724.976,241.016 720.24,240.006 715.497,239.029 710.748,238.085 705.992,237.174 701.23,236.297 696.461,235.453 691.687,234.643 686.908,233.866 682.123,233.123 " />
<polyline points="719.942,483.556 717.447,482.135 714.933,480.747 712.403,479.39 709.855,478.065 707.292,476.772 704.712,475.511 702.116,474.283 699.505,473.088 696.88,471.925 694.24,470.796 691.586,469.699 688.919,468.637 686.238,467.607 683.545,466.612 680.839,465.65 678.122,464.723 675.393,463.829 672.653,462.97 669.902,462.146 667.142,461.356 664.371,460.601 661.592,459.88 658.803,459.195 658.803,459.195 655.371,458.392 651.93,457.625 648.482,456.893 645.026,456.196 641.564,455.534 638.095,454.908 634.62,454.317 631.139,453.762 627.652,453.242 624.16,452.758 620.664,452.31 617.163,451.897 613.658,451.52 610.149,451.178 606.637,450.873 603.123,450.603 599.605,450.37 596.086,450.172 592.564,450.01 589.041,449.884 585.517,449.794 581.993,449.74 578.468,449.722 " />
<polyline points="578.468,449.722 574.943,449.74 571.418,449.794 567.894,449.884 564.371,450.01 560.85,450.172 557.33,450.37 553.813,450.603 550.298,450.873 546.786,451.178 543.277,451.52 539.772,451.897 536.272,452.31 532.775,452.758 529.283,453.242 525.797,453.762 522.316,454.317 518.84,454.908 515.371,455.534 511.909,456.196 508.453,456.893 505.005,457.625 501.564,458.392 498.132,459.195 498.132,459.195 495.343,459.88 492.564,460.601 489.793,461.356 487.033,462.146 484.282,462.97 481.542,463.829 478.814,464.723 476.096,465.65 473.391,466.612 470.697,467.607 468.017,468.637 465.349,469.699 462.695,470.796 460.055,471.925 457.43,473.088 454.819,474.283 452.224,475.511 449.644,476.772 447.08,478.065 444.532,479.39 442.002,480.747 439.489,482.135 436.993,483.556 " />
<polyline points="719.942,374.648 717.447,373.228 714.933,371.84 712.403,370.483 709.855,369.158 707.292,367.865 704.712,366.604 702.116,365.376 699.505,364.18 696.88,363.018 694.24,361.888 691.586,360.792 688.919,359.729 686.238,358.7 683.545,357.704 680.839,356.743 678.122,355.815 675.393,354.922 672.653,354.063 669.902,353.238 667.142,352.448 664.371,351.693 661.592,350.973 658.803,350.288 658.803,350.288 655.371,349.485 651.93,348.718 648.482,347.986 645.026,347.289 641.564,346.627 638.095,346.001 634.62,345.41 631.139,344.855 627.652,344.335 624.16,343.851 620.664,343.402 617.163,342.989 613.658,342.612 610.149,342.271 606.637,341.966 603.123,341.696 599.605,341.463 596.086,341.265 592.564,341.103 589.041,340.977 585.517,340.887 581.993,340.833 578.468,340.815 " />
<polyline points="578.468,340.815 574.943,340.833 571.418,340.887 567.894,340.977 564.371,341.103 560.85,341.265 557.33,341.463 553.813,341.696 550.298,341.966 546.786,342.271 543.277,342.612 539.772,342.989 536.272,343.402 532.775,343.851 529.283,344.335 525.797,344.855 522.316,345.41 518.84,346.001 515.371,346.627 511.909,347.289 508.453,347.986 505.005,348.718 501.564,349.485 498.132,350.288 498.132,350.288 495.343,350.973 492.564,351.693 489.793,352.448 487.033,353.238 484.282,354.063 481.542,354.922 478.814,355.815 476.096,356.743 473.391,357.704 470.697,358.7 468.017,359.729 465.349,360.792 462.695,361.888 460.055,363.018 457.43,364.18 454.819,365.376 452.224,366.604 449.644,367.865 447.08,369.158 444.532,370.483 442.002,371.84 439.489,373.228 436.993,374.648 " />
<polyline points="968.767,470.307 967.212,471.085 965.656,472.641 964.878,474.197 964.1,476.531 964.1,480.42 964.878,482.754 965.656,484.31 967.212,485.865 968.767,486.643 971.879,486.643 973.435,485.865 974.991,484.31 975.769,482.754 976.547,480.42 976.547,476.531 975.769,474.197 974.991,472.641 973.435,471.085 971.879,470.307 968.767,470.307 " />
<polyline points="971.101,483.532 975.769,488.199 " />
<polyline points="983.221,485.422 983.221,495.224 " />
<polyline points="983.221,490.09 984.155,489.156 985.088,488.689 986.488,488.689 987.422,489.156 988.355,490.09 988.822,491.49 988.822,492.423 988.355,493.824 987.422,494.757 986.488,495.224 985.088,495.224 984.155,494.757 983.221,493.824 " />
<polyline points="967.298,512.475 967.298,522.276 " />
<polyline points="967.298,517.142 968.232,516.209 969.165,515.742 970.566,515.742 971.499,516.209 972.433,517.142 972.899,518.542 972.899,519.476 972.433,520.876 971.499,521.81 970.566,522.276 969.165,522.276 968.232,521.81 967.298,520.876 " />
<polyline points="954.936,497.727 948.713,514.063 " />
<polyline points="954.936,497.727 961.159,514.063 " />
<polyline points="951.046,508.617 958.826,508.617 " />
</g>
<g clip-path="url(#clipId0)" fill="rgb(0,0,0)" stroke="rgb(0,0,0)" stroke-width="0.25" >
<path d="M998.107,507.724 995.385,512.439 1010.89,518.249 1010.89,518.249 z" />
</g>
<g clip-path="url(#clipId0)" fill="none" stroke="rgb(0,0,0)" stroke-width="0.25" >
<polyline points="1001.22,514.553 950.817,485.452 " />
<polyline points="49.6156,581.567 43.3923,597.903 " />
<polyline points="49.6156,581.567 55.8388,597.903 " />
<polyline points="45.726,592.458 53.5051,592.458 " />
<polyline points="69.5003,598.141 69.0335,597.207 68.1,596.274 67.1665,595.807 65.2995,595.807 64.3661,596.274 63.4326,597.207 62.9658,598.141 62.4991,599.541 62.4991,601.875 62.9658,603.275 63.4326,604.208 64.3661,605.142 65.2995,605.609 67.1665,605.609 68.1,605.142 69.0335,604.208 69.5003,603.275 " />
<polyline points="837.389,469.095 841.279,485.431 " />
<polyline points="845.169,469.095 841.279,485.431 " />
<polyline points="845.169,469.095 849.058,485.431 " />
<polyline points="852.948,469.095 849.058,485.431 " />
<polyline points="856.146,483.084 856.146,492.886 " />
<polyline points="856.146,487.752 857.079,486.818 858.013,486.352 859.413,486.352 860.347,486.818 861.28,487.752 861.747,489.152 861.747,490.085 861.28,491.486 860.347,492.419 859.413,492.886 858.013,492.886 857.079,492.419 856.146,491.486 " />
</g>
<g clip-path="url(#clipId0)" fill="rgb(0,0,0)" stroke="rgb(0,0,0)" stroke-width="0.25" >
<path d="M61.1112,562.165 63.8339,566.881 76.6201,556.355 76.6201,556.355 z" />
</g>
<g clip-path="url(#clipId0)" fill="none" stroke="rgb(0,0,0)" stroke-width="0.25" >
<polyline points="62.4726,564.523 13.1064,593.025 " />
<polyline points="40.1695,561.929 39.7028,560.996 38.7693,560.062 37.8358,559.596 35.9688,559.596 35.0353,560.062 34.1018,560.996 33.6351,561.929 33.1684,563.33 33.1684,565.663 33.6351,567.064 34.1018,567.997 35.0353,568.931 35.9688,569.397 37.8358,569.397 38.7693,568.931 39.7028,567.997 40.1695,567.064 " />
<polyline points="19.3335,546.198 17.7776,546.975 16.2218,548.531 15.4439,550.087 14.666,552.421 14.666,556.31 15.4439,558.644 16.2218,560.2 17.7776,561.756 19.3335,562.534 22.4451,562.534 24.0009,561.756 25.5567,560.2 26.3346,558.644 27.1126,556.31 27.1126,552.421 26.3346,550.087 25.5567,548.531 24.0009,546.975 22.4451,546.198 19.3335,546.198 " />
<polyline points="21.6672,559.422 26.3346,564.089 " />
</g>
<g clip-path="url(#clipId0)" fill="rgb(0,0,0)" stroke="rgb(0,0,0)" stroke-width="0.25" >
<path d="M790.996,508.559 793.718,513.274 778.21,519.084 778.21,519.084 z" />
<path d="M904.175,443.214 906.898,447.93 919.684,437.404 919.684,437.404 z" />
</g>
<g clip-path="url(#clipId0)" fill="none" stroke="rgb(0,0,0)" stroke-width="0.25" >
<polyline points="792.357,510.916 833.288,487.285 " />
<polyline points="905.537,445.572 864.606,469.204 " />
<polyline points="731.491,492.112 787.95,524.708 " />
<polyline points="872.966,410.431 929.425,443.028 " />
<polyline points="682.123,233.123 836.329,144.092 " />
<polyline points="810.758,267.762 836.329,252.999 " />
<polyline points="719.942,483.556 719.942,374.648 " />
<polyline points="719.942,374.648 861.417,292.968 " />
<polyline points="861.417,292.968 861.417,401.875 " />
<polyline points="861.417,401.875 719.942,483.556 " />
<polyline points="128.955,498.04 223.272,443.587 " />
<polyline points="270.43,579.721 436.993,483.556 " />
<polyline points="128.955,389.133 694.854,62.4111 " />
<polyline points="270.43,470.813 436.993,374.648 " />
<polyline points="836.329,252.999 836.329,144.092 " />
<polyline points="836.329,144.092 694.854,62.4111 " />
<polyline points="128.955,498.04 270.43,579.721 " />
<polyline points="128.955,389.133 128.955,498.04 " />
<polyline points="270.43,470.813 128.955,389.133 " />
<polyline points="270.43,579.721 270.43,470.813 " />
</g>
</svg>
