<?xml version="1.0" standalone="no"?>
<svg viewBox="0 0 1024 768" version="1.1" xmlns="http://www.w3.org/2000/svg" xmlns:xlink="http://www.w3.org/1999/xlink" stroke-linecap="round" stroke-linejoin="round" fill-rule="evenodd" xml:space="preserve" >
<defs >
<clipPath id="clipId0" >
<path d="M0,768 1024,768 1024,0 0,0 z" />
</clipPath>
</defs>
<g clip-path="url(#clipId0)" fill="none" stroke="rgb(0,0,0)" stroke-width="0.1" />
<g clip-path="url(#clipId0)" fill="none" stroke="rgb(0,0,0)" stroke-width="0.25" >
<polyline points="907.096,600.669 905.011,598.583 901.882,597.54 897.712,597.54 894.583,598.583 892.498,600.669 892.498,602.754 893.541,604.839 894.583,605.882 896.669,606.925 902.925,609.01 905.011,610.053 906.053,611.096 907.096,613.181 907.096,616.31 905.011,618.395 901.882,619.438 897.712,619.438 894.583,618.395 892.498,616.31 " />
<polyline points="914.395,597.54 914.395,619.438 " />
<polyline points="914.395,597.54 923.78,597.54 926.908,598.583 927.951,599.626 928.994,601.711 928.994,603.797 927.951,605.882 926.908,606.925 923.78,607.968 914.395,607.968 " />
<polyline points="921.695,607.968 928.994,619.438 " />
<polyline points="947.763,597.54 937.336,597.54 936.293,606.925 937.336,605.882 940.464,604.839 943.592,604.839 946.72,605.882 948.806,607.968 949.848,611.096 949.848,613.181 948.806,616.31 946.72,618.395 943.592,619.438 940.464,619.438 937.336,618.395 936.293,617.352 935.25,615.267 " />
<polyline points="957.148,610.053 975.917,610.053 " />
<polyline points="986.344,601.711 988.43,600.669 991.558,597.54 991.558,619.438 " />
<polyline points="1007.2,601.711 1009.28,600.669 1012.41,597.54 1012.41,619.438 " />
<polyline points="435.39,216.854 435.39,406.906 " stroke-dasharray="62.208833,12.441767,12.441767,12.441767" />
<polyline points="210.445,243.42 791.212,243.42 " stroke-dasharray="62.208833,12.441767,12.441767,12.441767" />
<polyline points="438.009,438.31 438.009,451.951 " />
<polyline points="438.009,444.806 439.309,443.507 440.608,442.857 442.556,442.857 443.856,443.507 445.155,444.806 445.804,446.755 445.804,448.054 445.155,450.002 443.856,451.302 442.556,451.951 440.608,451.951 439.309,451.302 438.009,450.002 " />
<polyline points="419.096,433.106 419.096,446.747 " />
<polyline points="419.096,433.106 423.643,433.106 425.591,433.756 426.891,435.055 427.54,436.354 428.19,438.303 428.19,441.551 427.54,443.499 426.891,444.799 425.591,446.098 423.643,446.747 419.096,446.747 " />
</g>
<g clip-path="url(#clipId0)" fill="rgb(0,0,0)" stroke="rgb(0,0,0)" stroke-width="0.25" >
<path d="M484.521,442.128 484.521,437.581 498.162,439.854 498.162,439.854 z" />
<path d="M383.709,442.128 383.709,437.581 370.068,439.854 370.068,439.854 z" />
</g>
<g clip-path="url(#clipId0)" fill="none" stroke="rgb(0,0,0)" stroke-width="0.25" >
<polyline points="484.521,439.854 458.474,439.854 " />
<polyline points="383.709,439.854 409.756,439.854 " />
<polyline points="498.162,433.952 498.162,456.224 " />
<polyline points="370.068,435.239 370.068,456.224 " />
<polyline points="767.876,226.006 767.227,224.707 765.278,224.058 763.329,224.058 761.38,224.707 760.731,226.006 761.38,227.306 762.68,227.955 765.927,228.605 767.227,229.254 767.876,230.553 767.876,231.203 767.227,232.502 765.278,233.152 763.329,233.152 761.38,232.502 760.731,231.203 " />
<polyline points="686.298,226.762 685.649,225.463 683.7,224.813 681.751,224.813 679.803,225.463 679.153,226.762 679.803,228.061 681.102,228.71 684.35,229.36 685.649,230.01 686.298,231.309 686.298,231.958 685.649,233.257 683.7,233.907 681.751,233.907 679.803,233.257 679.153,231.958 " />
<polyline points="661.826,211.932 665.074,225.573 " />
<polyline points="668.322,211.932 665.074,225.573 " />
<polyline points="668.322,211.932 671.57,225.573 " />
<polyline points="674.818,211.932 671.57,225.573 " />
<polyline points="705.348,216.479 712.493,225.573 " />
<polyline points="712.493,216.479 705.348,225.573 " />
<polyline points="744.322,211.932 744.322,225.573 " />
<polyline points="753.416,211.932 753.416,225.573 " />
<polyline points="744.322,218.427 753.416,218.427 " />
<polyline points="220.072,268.306 223.32,281.948 " />
<polyline points="226.568,268.306 223.32,281.948 " />
<polyline points="226.568,268.306 229.816,281.948 " />
<polyline points="233.064,268.306 229.816,281.948 " />
<polyline points="249.953,272.853 257.098,281.948 " />
<polyline points="257.098,272.853 249.953,281.948 " />
<polyline points="275.286,268.306 275.286,281.948 " />
<polyline points="284.38,268.306 284.38,281.948 " />
<polyline points="275.286,274.802 284.38,274.802 " />
<path d="M434.037,484.949  A42.013,42.013 0 0,0 497.991,484.949 " />
<path d="M497.991,484.949  A48.6455,48.6455 0 0,0 434.037,484.949 " />
<path d="M370.083,484.949  A42.013,42.013 0 0,0 434.037,484.949 " />
<polyline points="497.991,312.255 497.991,484.949 " />
<polyline points="961.369,228.963 960.719,227.664 958.77,227.014 956.822,227.014 954.873,227.664 954.223,228.963 954.873,230.262 956.172,230.912 959.42,231.561 960.719,232.211 961.369,233.51 961.369,234.159 960.719,235.459 958.77,236.108 956.822,236.108 954.873,235.459 954.223,234.159 " />
<polyline points="959.201,268.671 958.551,267.372 956.602,266.723 954.654,266.723 952.705,267.372 952.055,268.671 952.705,269.971 954.004,270.62 957.252,271.27 958.551,271.919 959.201,273.218 959.201,273.868 958.551,275.167 956.602,275.817 954.654,275.817 952.705,275.167 952.055,273.868 " />
<polyline points="48.0881,255.678 46.789,256.327 45.4898,257.627 44.8402,258.926 44.1907,260.875 44.1907,264.122 44.8402,266.071 45.4898,267.37 46.789,268.669 48.0881,269.319 50.6864,269.319 51.9856,268.669 53.2847,267.37 53.9343,266.071 54.5839,264.122 54.5839,260.875 53.9343,258.926 53.2847,257.627 51.9856,256.327 50.6864,255.678 48.0881,255.678 " />
<polyline points="50.0368,266.721 53.9343,270.618 " />
<polyline points="51.1786,217.4 45.9819,231.041 " />
<polyline points="51.1786,217.4 56.3752,231.041 " />
<polyline points="47.9307,226.494 54.4264,226.494 " />
<polyline points="105.33,244.05 10.0392,244.05 " />
</g>
<g clip-path="url(#clipId0)" fill="rgb(0,0,0)" stroke="rgb(0,0,0)" stroke-width="0.25" >
<path d="M105.33,241.776 105.33,246.323 118.971,244.05 118.971,244.05 z" />
</g>
<g clip-path="url(#clipId0)" fill="none" stroke="rgb(0,0,0)" stroke-width="0.25" >
<polyline points="435.121,605.343 435.121,518.388 " />
</g>
<g clip-path="url(#clipId0)" fill="rgb(0,0,0)" stroke="rgb(0,0,0)" stroke-width="0.25" >
<path d="M437.394,605.343 432.847,605.343 435.121,618.984 435.121,618.984 z" />
</g>
<g clip-path="url(#clipId0)" fill="none" stroke="rgb(0,0,0)" stroke-width="0.25" >
<polyline points="370.083,312.255 370.083,484.949 " />
<polyline points="839.61,312.255 839.61,256.25 " />
<polyline points="839.61,231.849 839.61,175.844 " />
<polyline points="818.478,256.25 860.742,231.849 " />
<polyline points="860.742,231.849 839.61,231.849 " />
<polyline points="818.478,256.25 839.61,256.25 " />
<polyline points="533.847,175.844 533.847,312.255 " />
<polyline points="533.847,175.844 625.9,198.58 " />
<polyline points="533.847,312.255 625.9,289.52 " />
<polyline points="625.9,198.58 625.9,289.52 " />
<polyline points="625.9,289.52 839.61,289.52 " />
<polyline points="625.9,198.58 839.61,198.58 " />
<polyline points="1000.32,244.05 891.415,244.05 " />
</g>
<g clip-path="url(#clipId0)" fill="rgb(0,0,0)" stroke="rgb(0,0,0)" stroke-width="0.25" >
<path d="M1000.32,241.776 1000.32,246.323 1013.96,244.05 1013.96,244.05 z" />
</g>
<g clip-path="url(#clipId0)" fill="none" stroke="rgb(0,0,0)" stroke-width="0.25" >
<polyline points="403.652,563.019 402.353,563.668 401.053,564.967 400.404,566.267 399.754,568.215 399.754,571.463 400.404,573.412 401.053,574.711 402.353,576.01 403.652,576.66 406.25,576.66 407.549,576.01 408.848,574.711 409.498,573.412 410.147,571.463 410.147,568.215 409.498,566.267 408.848,564.967 407.549,563.668 406.25,563.019 403.652,563.019 " />
<polyline points="405.6,574.061 409.498,577.959 " />
<polyline points="416.144,570.528 416.144,584.169 " />
<polyline points="416.144,577.024 417.443,575.725 418.743,575.075 420.691,575.075 421.99,575.725 423.29,577.024 423.939,578.972 423.939,580.272 423.29,582.22 421.99,583.519 420.691,584.169 418.743,584.169 417.443,583.519 416.144,582.22 " />
<polyline points="450.266,566.571 445.069,580.212 " />
<polyline points="450.266,566.571 455.462,580.212 " />
<polyline points="447.018,575.665 453.514,575.665 " />
<polyline points="459.081,572.786 459.081,586.428 " />
<polyline points="459.081,579.282 460.38,577.983 461.679,577.333 463.628,577.333 464.927,577.983 466.226,579.282 466.875,581.231 466.875,582.53 466.226,584.479 464.927,585.778 463.628,586.428 461.679,586.428 460.38,585.778 459.081,584.479 " />
<polyline points="155.325,312.255 533.847,312.255 " />
<polyline points="155.325,339.538 155.325,256.25 " />
<polyline points="134.193,256.25 155.325,256.25 " />
<polyline points="176.457,231.849 155.325,231.849 " />
<polyline points="134.193,256.25 176.457,231.849 " />
<polyline points="155.325,231.849 155.325,148.562 " />
<polyline points="155.325,175.844 533.847,175.844 " />
<polyline points="936.82,255.678 935.521,256.327 934.222,257.627 933.573,258.926 932.923,260.875 932.923,264.122 933.573,266.071 934.222,267.37 935.521,268.669 936.82,269.319 939.419,269.319 940.718,268.669 942.017,267.37 942.667,266.071 943.316,264.122 943.316,260.875 942.667,258.926 942.017,257.627 940.718,256.327 939.419,255.678 936.82,255.678 " />
<polyline points="938.769,266.721 942.667,270.618 " />
<polyline points="68.4273,266.085 67.1282,264.786 65.829,264.136 63.8803,264.136 62.5811,264.786 61.282,266.085 60.6324,268.034 60.6324,269.333 61.282,271.282 62.5811,272.581 63.8803,273.23 65.829,273.23 67.1282,272.581 68.4273,271.282 " />
<polyline points="68.4273,230.112 67.1282,228.812 65.829,228.163 63.8803,228.163 62.5811,228.812 61.282,230.112 60.6324,232.06 60.6324,233.359 61.282,235.308 62.5811,236.607 63.8803,237.257 65.829,237.257 67.1282,236.607 68.4273,235.308 " />
<polyline points="939.911,217.4 934.714,231.041 " />
<polyline points="939.911,217.4 945.107,231.041 " />
<polyline points="936.663,226.494 943.159,226.494 " />
</g>
</svg>
