<?xml version="1.0" standalone="no"?>
<svg viewBox="0 0 1024 768" version="1.1" xmlns="http://www.w3.org/2000/svg" xmlns:xlink="http://www.w3.org/1999/xlink" stroke-linecap="round" stroke-linejoin="round" fill-rule="evenodd" xml:space="preserve" >
<defs >
<clipPath id="clipId0" >
<path d="M0,768 1024,768 1024,0 0,0 z" />
</clipPath>
</defs>
<g clip-path="url(#clipId0)" fill="none" stroke="rgb(0,0,0)" stroke-width="0.1" />
<g clip-path="url(#clipId0)" fill="none" stroke="rgb(0,0,0)" stroke-width="0.25" >
<polyline points="827.565,742.341 825.551,740.327 822.529,739.32 818.501,739.32 815.479,740.327 813.465,742.341 813.465,744.356 814.472,746.37 815.479,747.377 817.493,748.384 823.537,750.399 825.551,751.406 826.558,752.413 827.565,754.427 827.565,757.449 825.551,759.463 822.529,760.471 818.501,760.471 815.479,759.463 813.465,757.449 " />
<polyline points="834.616,739.32 834.616,760.471 " />
<polyline points="834.616,739.32 843.68,739.32 846.702,740.327 847.709,741.334 848.716,743.348 848.716,745.363 847.709,747.377 846.702,748.384 843.68,749.392 834.616,749.392 " />
<polyline points="841.666,749.392 848.716,760.471 " />
<polyline points="866.846,739.32 856.774,739.32 855.767,748.384 856.774,747.377 859.795,746.37 862.817,746.37 865.838,747.377 867.853,749.392 868.86,752.413 868.86,754.427 867.853,757.449 865.838,759.463 862.817,760.471 859.795,760.471 856.774,759.463 855.767,758.456 854.759,756.442 " />
<polyline points="875.91,751.406 894.04,751.406 " />
<polyline points="904.112,743.348 906.126,742.341 909.147,739.32 909.147,760.471 " />
<polyline points="926.27,739.32 923.248,740.327 922.241,742.341 922.241,744.356 923.248,746.37 925.262,747.377 929.291,748.384 932.313,749.392 934.327,751.406 935.334,753.42 935.334,756.442 934.327,758.456 933.32,759.463 930.298,760.471 926.27,760.471 923.248,759.463 922.241,758.456 921.234,756.442 921.234,753.42 922.241,751.406 924.255,749.392 927.277,748.384 931.306,747.377 933.32,746.37 934.327,744.356 934.327,742.341 933.32,740.327 930.298,739.32 926.27,739.32 " />
<polyline points="586.544,396.485 784.833,596.428 " />
<polyline points="586.43,264.93 790.247,64.6232 " />
<polyline points="585.668,396.657 586.725,396.668 " />
<polyline points="585.668,264.56 586.793,264.573 " />
<polyline points="813.767,88.5639 775.564,49.6775 " />
<polyline points="813.581,88.776 813.767,88.5639 " />
<polyline points="830.512,105.259 830.333,105.426 " />
<polyline points="867.331,143.085 830.333,105.426 " />
<polyline points="865.54,328.445 864.853,330.505 863.48,331.878 861.42,332.565 860.733,332.565 858.673,331.878 857.299,330.505 856.613,328.445 856.613,327.758 857.299,325.698 858.673,324.324 860.733,323.637 861.42,323.637 863.48,324.324 864.853,325.698 865.54,328.445 865.54,331.878 864.853,335.312 863.48,337.372 861.42,338.059 860.046,338.059 857.986,337.372 857.299,335.998 " />
<polyline points="874.467,323.637 872.407,324.324 871.034,326.384 870.347,329.818 870.347,331.878 871.034,335.312 872.407,337.372 874.467,338.059 875.841,338.059 877.901,337.372 879.274,335.312 879.961,331.878 879.961,329.818 879.274,326.384 877.901,324.324 875.841,323.637 874.467,323.637 " />
<ellipse rx="1.37344" ry="1.37344" cx="884.081" cy="325.011" />
</g>
<g clip-path="url(#clipId0)" fill="rgb(0,0,0)" stroke="rgb(0,0,0)" stroke-width="0.25" >
<path d="M812.279,182.754 815.791,179.472 804.189,170.576 804.189,170.576 z" />
<path d="M815.734,481.681 812.228,478.391 804.113,490.552 804.113,490.552 z" />
</g>
<g clip-path="url(#clipId0)" fill="none" stroke="rgb(0,0,0)" stroke-width="0.25" >
<path d="M869.471,314.304  A225.8,225.8 0 0,0 814.035,181.113 " />
<path d="M813.981,480.036  A225.8,225.8 0 0,0 869.699,346.964 " />
<polyline points="645.234,330.609 849.927,125.37 " />
<polyline points="433.527,608.471 433.052,607.521 432.102,606.571 431.152,606.096 429.252,606.096 428.302,606.571 427.352,607.521 426.877,608.471 426.402,609.896 426.402,612.271 426.877,613.696 427.352,614.646 428.302,615.596 429.252,616.071 431.152,616.071 432.102,615.596 433.052,614.646 433.527,613.696 " />
<polyline points="335.525,606.096 335.525,616.071 " />
<polyline points="335.525,610.846 336.475,609.896 337.425,609.421 338.85,609.421 339.8,609.896 340.75,610.846 341.225,612.271 341.225,613.221 340.75,614.646 339.8,615.596 338.85,616.071 337.425,616.071 336.475,615.596 335.525,614.646 " />
<polyline points="344.549,608.471 344.549,607.996 345.024,607.046 345.499,606.571 346.449,606.096 348.349,606.096 349.299,606.571 349.774,607.046 350.249,607.996 350.249,608.946 349.774,609.896 348.824,611.321 344.074,616.071 350.724,616.071 " />
<polyline points="243.773,606.096 243.773,616.071 " />
<polyline points="243.773,610.846 244.723,609.896 245.673,609.421 247.098,609.421 248.048,609.896 248.998,610.846 249.473,612.271 249.473,613.221 248.998,614.646 248.048,615.596 247.098,616.071 245.673,616.071 244.723,615.596 243.773,614.646 " />
<polyline points="253.748,607.996 254.698,607.521 256.123,606.096 256.123,616.071 " />
<polyline points="230.949,594.514 224.125,612.557 " />
<polyline points="230.949,594.514 237.86,612.524 " />
<polyline points="226.686,606.542 235.27,606.521 " />
<polyline points="285.893,596.957 285.93,612.408 " />
<polyline points="278.186,604.701 293.637,604.664 " />
<polyline points="322.798,594.294 315.974,612.336 " />
<polyline points="322.798,594.294 329.708,612.303 " />
<polyline points="318.534,606.321 327.118,606.301 " />
<polyline points="370.028,601.906 385.479,601.869 " />
<polyline points="370.04,607.056 385.491,607.019 " />
<polyline points="414.646,594.073 407.822,612.116 " />
<polyline points="414.646,594.073 421.556,612.083 " />
<polyline points="410.383,606.101 418.967,606.081 " />
<polyline points="253.469,330.237 594.433,330.237 " stroke-dasharray="60.087856,12.017571,12.017571,12.017571" />
<polyline points="673.698,214.944 679.293,220.633 " />
<polyline points="676.363,217.653 676.372,216.579 676.647,215.775 677.46,214.975 678.268,214.714 679.343,214.723 680.413,215.269 680.946,215.811 681.474,216.89 681.465,217.965 681.19,218.768 680.377,219.568 679.569,219.83 678.494,219.821 " />
<polyline points="680.454,210.433 680.729,209.629 680.742,208.017 686.338,213.706 " />
<polyline points="655.095,220.053 666.6,227.266 " />
<polyline points="659.58,215.643 666.6,227.266 " />
<polyline points="659.58,215.643 671.085,222.856 " />
<polyline points="664.065,211.232 671.085,222.856 " />
<polyline points="688.232,193.642 699.34,195.069 " />
<polyline points="693.165,188.79 694.407,199.921 " />
<polyline points="702.636,173.301 711.898,182.72 " />
<polyline points="708.915,167.126 718.177,176.545 " />
<polyline points="707.047,177.786 713.326,171.611 " />
<polyline points="683.631,401.948 677.969,407.571 " />
<polyline points="680.935,404.625 682.01,404.629 682.815,404.901 683.618,405.71 683.884,406.517 683.88,407.591 683.339,408.664 682.8,409.2 681.723,409.733 680.648,409.73 679.843,409.458 679.04,408.649 678.774,407.842 678.778,406.767 " />
<polyline points="687.37,408.41 687.64,408.142 688.447,407.876 688.984,407.878 689.789,408.15 690.86,409.228 691.126,410.035 691.124,410.573 690.853,411.378 690.313,411.913 689.506,412.179 688.162,412.443 682.788,412.424 686.537,416.199 " />
<polyline points="679.666,383.368 672.509,394.908 " />
<polyline points="684.098,387.832 672.509,394.908 " />
<polyline points="684.098,387.832 676.941,399.371 " />
<polyline points="688.53,392.295 676.941,399.371 " />
<polyline points="706.238,416.376 704.864,427.491 " />
<polyline points="711.113,421.286 699.989,422.582 " />
<polyline points="726.648,430.682 717.274,439.989 " />
<polyline points="732.853,436.931 723.48,446.238 " />
<polyline points="722.184,435.114 728.389,441.363 " />
<polyline points="305.689,313.82 305.309,313.06 304.549,312.3 303.789,311.92 302.269,311.92 301.509,312.3 300.749,313.06 300.369,313.82 299.989,314.96 299.989,316.86 300.369,318 300.749,318.76 301.509,319.52 302.269,319.9 303.789,319.9 304.549,319.52 305.309,318.76 305.689,318 " />
<polyline points="283.991,300.995 287.136,314.205 " />
<polyline points="290.281,300.995 287.136,314.205 " />
<polyline points="290.281,300.995 293.426,314.205 " />
<polyline points="296.571,300.995 293.426,314.205 " />
<polyline points="326.136,305.399 333.055,314.205 " />
<polyline points="333.055,305.399 326.136,314.205 " />
<polyline points="350.668,300.995 350.668,314.205 " />
<polyline points="359.474,300.995 359.474,314.205 " />
<polyline points="350.668,307.286 359.474,307.286 " />
<polyline points="158.144,330.609 88.3645,330.609 " />
</g>
<g clip-path="url(#clipId0)" fill="rgb(0,0,0)" stroke="rgb(0,0,0)" stroke-width="0.25" >
<path d="M158.144,328.407 158.144,332.81 171.354,330.609 171.354,330.609 z" />
</g>
<g clip-path="url(#clipId0)" fill="none" stroke="rgb(0,0,0)" stroke-width="0.25" >
<polyline points="925.807,16.3558 859.331,72.3356 " />
</g>
<g clip-path="url(#clipId0)" fill="rgb(0,0,0)" stroke="rgb(0,0,0)" stroke-width="0.25" >
<path d="M924.336,14.7178 927.279,17.9938 935.636,7.52941 935.636,7.52941 z" />
</g>
<g clip-path="url(#clipId0)" fill="none" stroke="rgb(0,0,0)" stroke-width="0.25" >
<polyline points="923.007,658.215 852.14,597.355 " />
</g>
<g clip-path="url(#clipId0)" fill="rgb(0,0,0)" stroke="rgb(0,0,0)" stroke-width="0.25" >
<path d="M923.423,656.04 920.529,659.359 931.933,666.381 931.933,666.381 z" />
</g>
<g clip-path="url(#clipId0)" fill="none" stroke="rgb(0,0,0)" stroke-width="0.25" >
<polyline points="844.786,90.5958 830.512,105.259 " />
<polyline points="799.306,103.439 813.581,88.776 " />
<polyline points="844.786,90.5958 799.306,103.439 " />
<polyline points="574.655,338.624 790.664,126.208 " stroke-dasharray="60.087856,12.017571,12.017571,12.017571" />
<polyline points="910.727,46.0679 909.505,46.7639 908.317,48.088 907.756,49.3782 907.23,51.2965 907.4,54.4371 908.13,56.2875 908.826,57.5097 910.15,58.6981 911.44,59.2583 913.953,59.1224 915.175,58.4264 916.363,57.1023 916.923,55.8121 917.45,53.8938 917.28,50.7532 916.55,48.9028 915.854,47.6806 914.53,46.4922 913.24,45.932 910.727,46.0679 " />
<polyline points="913.189,56.6439 917.161,60.2089 " />
<polyline points="923.344,52.5522 923.214,60.5309 " />
<polyline points="923.282,56.3516 924.054,55.6041 924.82,55.2365 925.96,55.2551 926.714,55.6474 927.461,56.4196 927.823,57.5656 927.81,58.3254 927.412,59.4591 926.64,60.2066 925.874,60.5741 924.734,60.5556 923.98,60.1633 923.233,59.3911 " />
<polyline points="931.298,54.2018 932.064,53.8342 933.222,52.713 933.092,60.6916 " />
<polyline points="876.551,9.07705 871.184,22.1542 " />
<polyline points="876.551,9.07705 881.245,22.4106 " />
<polyline points="873.183,17.8005 879.471,17.9608 " />
<polyline points="884.591,18.4235 884.702,26.4024 " />
<polyline points="884.644,22.2229 885.393,21.4525 886.148,21.062 887.288,21.0463 888.053,21.4157 888.823,22.1651 889.219,23.2996 889.229,24.0595 888.865,25.2046 888.116,25.9751 887.361,26.3655 886.221,26.3813 885.456,26.0119 884.686,25.2625 " />
<polyline points="892.591,19.8328 893.346,19.4423 894.47,18.2867 894.58,26.2656 " />
<polyline points="585.668,264.56 219.118,264.56 " />
<polyline points="219.118,238.141 219.118,318.794 " />
<polyline points="239.581,318.794 219.118,318.794 " />
<polyline points="198.654,342.423 219.118,342.423 " />
<polyline points="239.581,318.794 198.654,342.423 " />
<polyline points="219.118,342.423 219.118,423.076 " />
<polyline points="585.668,396.657 219.118,396.657 " />
<polyline points="859.45,634.36 858.209,635.022 856.984,636.313 856.388,637.587 855.809,639.49 855.892,642.634 856.57,644.504 857.232,645.745 858.523,646.97 859.797,647.565 862.312,647.499 863.553,646.837 864.778,645.547 865.374,644.273 865.953,642.37 865.87,639.225 865.192,637.356 864.53,636.114 863.239,634.89 861.965,634.294 859.45,634.36 " />
<polyline points="861.617,645.001 865.489,648.674 " />
<polyline points="114.905,342.216 113.647,342.845 112.389,344.103 111.76,345.361 111.131,347.248 111.131,350.394 111.76,352.281 112.389,353.539 113.647,354.797 114.905,355.426 117.421,355.426 118.679,354.797 119.937,353.539 120.566,352.281 121.195,350.394 121.195,347.248 120.566,345.361 119.937,344.103 118.679,342.845 117.421,342.216 114.905,342.216 " />
<polyline points="116.792,352.91 120.566,356.684 " />
<polyline points="838.985,571.426 793.37,559.073 " />
<polyline points="838.985,571.426 824.554,556.918 " />
<polyline points="793.37,559.073 807.801,573.581 " />
<polyline points="862.675,518.999 824.554,556.918 " />
<polyline points="807.801,573.581 769.68,611.5 " />
<polyline points="898.55,606.471 893.911,619.824 " />
<polyline points="898.55,606.471 903.971,619.526 " />
<polyline points="895.667,615.367 901.955,615.181 " />
<polyline points="908.335,615.166 908.572,623.142 " />
<polyline points="908.448,618.964 909.185,618.182 909.934,617.78 911.073,617.746 911.844,618.104 912.626,618.841 913.04,619.969 913.062,620.729 912.716,621.879 911.979,622.661 911.231,623.064 910.091,623.097 909.32,622.74 908.538,622.003 " />
<polyline points="915.608,616.852 915.597,616.472 915.954,615.701 916.323,615.31 917.071,614.907 918.591,614.862 919.361,615.22 919.753,615.588 920.155,616.337 920.177,617.096 919.82,617.867 919.094,619.029 915.409,622.94 920.726,622.782 " />
<polyline points="871.346,642.855 871.555,650.832 " />
<polyline points="871.445,646.653 872.185,645.874 872.935,645.474 874.074,645.444 874.844,645.804 875.624,646.543 876.034,647.673 876.054,648.433 875.704,649.582 874.964,650.362 874.214,650.762 873.075,650.792 872.305,650.432 871.525,649.692 " />
<polyline points="878.613,644.564 878.603,644.185 878.963,643.415 879.332,643.025 880.082,642.625 881.602,642.585 882.371,642.945 882.761,643.315 883.161,644.065 883.181,644.824 882.821,645.594 882.091,646.754 878.393,650.652 883.711,650.512 " />
<polyline points="645.234,330.609 847.451,534.22 " />
<polyline points="574.622,320.996 796.008,543.933 " stroke-dasharray="60.087856,12.017571,12.017571,12.017571" />
<polyline points="131.571,351.468 131.191,350.708 130.431,349.948 129.671,349.568 128.151,349.568 127.391,349.948 126.631,350.708 126.252,351.468 125.872,352.608 125.872,354.508 126.252,355.648 126.631,356.408 127.391,357.168 128.151,357.548 129.671,357.548 130.431,357.168 131.191,356.408 131.571,355.648 " />
<polyline points="130.461,314.227 130.081,313.467 129.321,312.707 128.561,312.327 127.041,312.327 126.281,312.707 125.521,313.467 125.141,314.227 124.761,315.367 124.761,317.267 125.141,318.407 125.521,319.167 126.281,319.927 127.041,320.307 128.561,320.307 129.321,319.927 130.081,319.167 130.461,318.407 " />
<polyline points="115.677,303.298 110.645,316.508 " />
<polyline points="115.677,303.298 120.709,316.508 " />
<polyline points="112.532,312.105 118.822,312.105 " />
</g>
</svg>
