<?xml version="1.0" standalone="no"?>
<svg viewBox="0 0 1024 768" version="1.1" xmlns="http://www.w3.org/2000/svg" xmlns:xlink="http://www.w3.org/1999/xlink" stroke-linecap="round" stroke-linejoin="round" fill-rule="evenodd" xml:space="preserve" >
<defs >
<clipPath id="clipId0" >
<path d="M0,768 1024,768 1024,0 0,0 z" />
</clipPath>
</defs>
<g clip-path="url(#clipId0)" fill="none" stroke="rgb(0,0,0)" stroke-width="0.1" />
<g clip-path="url(#clipId0)" fill="none" stroke="rgb(0,0,0)" stroke-width="0.25" >
<polyline points="179.404,247.229 422.525,247.229 " stroke-dasharray="59.167296,11.833459,11.833459,11.833459" />
<polyline points="921.738,602.56 919.754,600.577 916.779,599.585 912.812,599.585 909.837,600.577 907.853,602.56 907.853,604.544 908.845,606.527 909.837,607.519 911.82,608.511 917.771,610.494 919.754,611.486 920.746,612.478 921.738,614.461 921.738,617.436 919.754,619.42 916.779,620.412 912.812,620.412 909.837,619.42 907.853,617.436 " />
<polyline points="928.68,599.585 928.68,620.412 " />
<polyline points="928.68,599.585 937.606,599.585 940.581,600.577 941.573,601.568 942.565,603.552 942.565,605.535 941.573,607.519 940.581,608.511 937.606,609.502 928.68,609.502 " />
<polyline points="935.623,609.502 942.565,620.412 " />
<polyline points="960.416,599.585 950.499,599.585 949.507,608.511 950.499,607.519 953.474,606.527 956.449,606.527 959.425,607.519 961.408,609.502 962.4,612.478 962.4,614.461 961.408,617.436 959.425,619.42 956.449,620.412 953.474,620.412 950.499,619.42 949.507,618.428 948.515,616.445 " />
<polyline points="969.342,611.486 987.194,611.486 " />
<polyline points="999.095,599.585 996.12,600.577 995.128,602.56 995.128,604.544 996.12,606.527 998.103,607.519 1002.07,608.511 1005.05,609.502 1007.03,611.486 1008.02,613.469 1008.02,616.445 1007.03,618.428 1006.04,619.42 1003.06,620.412 999.095,620.412 996.12,619.42 995.128,618.428 994.136,616.445 994.136,613.469 995.128,611.486 997.111,609.502 1000.09,608.511 1004.05,607.519 1006.04,606.527 1007.03,604.544 1007.03,602.56 1006.04,600.577 1003.06,599.585 999.095,599.585 " />
<path d="M611.901,305.692  A132.383,132.383 0 0,0 616.622,270.656 " />
<polyline points="378.072,233.384 620.521,475.833 " stroke-dasharray="59.167296,11.833459,11.833459,11.833459" />
<polyline points="587.975,411.513 581.95,417.537 " />
<polyline points="585.106,414.381 586.254,414.381 587.114,414.668 587.975,415.529 588.262,416.39 588.262,417.537 587.688,418.685 587.114,419.258 585.967,419.832 584.819,419.832 583.959,419.545 583.098,418.685 582.811,417.824 582.811,416.676 " />
<polyline points="582.297,393.301 574.646,405.732 " />
<polyline points="587.078,398.082 574.646,405.732 " />
<polyline points="587.078,398.082 579.428,410.514 " />
<polyline points="591.86,402.863 579.428,410.514 " />
<polyline points="600.944,418.642 599.51,430.596 " />
<polyline points="606.204,423.902 594.25,425.336 " />
<polyline points="622.939,433.943 612.898,443.984 " />
<polyline points="629.633,440.637 619.592,450.678 " />
<polyline points="618.157,438.724 624.851,445.418 " />
<polyline points="727.136,248.936 726.324,248.125 725.107,247.719 723.484,247.719 722.267,248.125 721.456,248.936 721.456,249.747 721.861,250.559 722.267,250.965 723.078,251.37 725.513,252.182 726.324,252.587 726.73,252.993 727.136,253.805 727.136,255.022 726.324,255.833 725.107,256.239 723.484,256.239 722.267,255.833 721.456,255.022 " />
<polyline points="262.685,285.781 262.279,284.969 261.467,284.158 260.656,283.752 259.033,283.752 258.222,284.158 257.41,284.969 257.005,285.781 256.599,286.998 256.599,289.026 257.005,290.244 257.41,291.055 258.222,291.866 259.033,292.272 260.656,292.272 261.467,291.866 262.279,291.055 262.685,290.244 " />
<polyline points="706.479,238.755 709.86,252.955 " />
<polyline points="713.241,238.755 709.86,252.955 " />
<polyline points="713.241,238.755 716.622,252.955 " />
<polyline points="720.003,238.755 716.622,252.955 " />
<polyline points="737.584,243.489 745.022,252.955 " />
<polyline points="745.022,243.489 737.584,252.955 " />
<polyline points="763.955,238.755 763.955,252.955 " />
<polyline points="773.422,238.755 773.422,252.955 " />
<polyline points="763.955,245.517 773.422,245.517 " />
<polyline points="598.318,313.739 591.556,323.206 601.699,323.206 " />
<polyline points="598.318,313.739 598.318,327.939 " />
<polyline points="613.194,313.739 606.432,313.739 605.756,319.825 606.432,319.149 608.461,318.473 610.49,318.473 612.518,319.149 613.871,320.501 614.547,322.53 614.547,323.882 613.871,325.911 612.518,327.263 610.49,327.939 608.461,327.939 606.432,327.263 605.756,326.587 605.08,325.235 " />
<ellipse rx="1.3524" ry="1.3524" cx="618.604" cy="315.092" />
<polyline points="241.454,273.785 244.835,287.985 " />
<polyline points="248.216,273.785 244.835,287.985 " />
<polyline points="248.216,273.785 251.597,287.985 " />
<polyline points="254.978,273.785 251.597,287.985 " />
<polyline points="272.559,278.518 279.997,287.985 " />
<polyline points="279.997,278.518 272.559,287.985 " />
<polyline points="298.93,273.785 298.93,287.985 " />
<polyline points="308.397,273.785 308.397,287.985 " />
<polyline points="298.93,280.547 308.397,280.547 " />
<polyline points="348.974,562.787 348.467,561.772 347.452,560.758 346.438,560.251 344.409,560.251 343.395,560.758 342.381,561.772 341.874,562.787 341.367,564.308 341.367,566.844 341.874,568.365 342.381,569.38 343.395,570.394 344.409,570.901 346.438,570.901 347.452,570.394 348.467,569.38 348.974,568.365 " />
<polyline points="249.755,558.906 249.755,569.556 " />
<polyline points="249.755,563.978 250.769,562.963 251.784,562.456 253.305,562.456 254.319,562.963 255.334,563.978 255.841,565.499 255.841,566.513 255.334,568.035 254.319,569.049 253.305,569.556 251.784,569.556 250.769,569.049 249.755,568.035 " />
<polyline points="166.807,561.772 165.793,560.758 164.271,560.251 162.243,560.251 160.721,560.758 159.707,561.772 159.707,562.787 160.214,563.801 160.721,564.308 161.736,564.815 164.779,565.83 165.793,566.337 166.3,566.844 166.807,567.858 166.807,569.38 165.793,570.394 164.271,570.901 162.243,570.901 160.721,570.394 159.707,569.38 " />
<polyline points="148.095,549.084 141.333,566.834 " />
<polyline points="148.095,549.084 154.857,566.834 " />
<polyline points="143.868,560.917 152.321,560.917 " />
<polyline points="202.19,551.62 202.19,566.834 " />
<polyline points="194.583,559.227 209.798,559.227 " />
<polyline points="238.536,549.084 231.774,566.834 " />
<polyline points="238.536,549.084 245.298,566.834 " />
<polyline points="234.31,560.917 242.762,560.917 " />
<polyline points="285.025,556.691 300.239,556.691 " />
<polyline points="285.025,561.763 300.239,561.763 " />
<polyline points="328.977,549.084 322.215,566.834 " />
<polyline points="328.977,549.084 335.739,566.834 " />
<polyline points="324.751,560.917 333.204,560.917 " />
<polyline points="697.595,568.819 696.243,569.495 694.891,570.847 694.214,572.2 693.538,574.228 693.538,577.609 694.214,579.638 694.891,580.99 696.243,582.343 697.595,583.019 700.3,583.019 701.653,582.343 703.005,580.99 703.681,579.638 704.357,577.609 704.357,574.228 703.681,572.2 703.005,570.847 701.653,569.495 700.3,568.819 697.595,568.819 " />
<polyline points="699.624,580.314 703.681,584.371 " />
<polyline points="964.311,229.173 962.959,229.849 961.607,231.201 960.93,232.554 960.254,234.582 960.254,237.963 960.93,239.992 961.607,241.344 962.959,242.697 964.311,243.373 967.016,243.373 968.369,242.697 969.721,241.344 970.397,239.992 971.073,237.963 971.073,234.582 970.397,232.554 969.721,231.201 968.369,229.849 967.016,229.173 964.311,229.173 " />
<polyline points="966.34,240.668 970.397,244.725 " />
<polyline points="53.1696,252.637 51.8172,253.314 50.4648,254.666 49.7886,256.018 49.1124,258.047 49.1124,261.428 49.7886,263.457 50.4648,264.809 51.8172,266.161 53.1696,266.838 55.8744,266.838 57.2268,266.161 58.5792,264.809 59.2554,263.457 59.9316,261.428 59.9316,258.047 59.2554,256.018 58.5792,254.666 57.2268,253.314 55.8744,252.637 53.1696,252.637 " />
<polyline points="55.1982,264.133 59.2554,268.19 " />
<path d="M577.848,364.265  A132.383,132.383 0 0,0 599.103,336.47 " />
<polyline points="847.993,223.322 403.357,223.322 " stroke-dasharray="59.167296,11.833459,11.833459,11.833459" />
<polyline points="888.847,270.656 484.239,270.656 " />
<polyline points="685.928,521.324 636.857,508.176 " />
<polyline points="685.928,521.324 670.373,505.769 " />
<polyline points="636.857,508.176 652.412,523.731 " />
<polyline points="711.244,464.898 670.373,505.769 " />
<polyline points="652.412,523.731 611.541,564.602 " />
<polyline points="138.674,259.69 138.674,346.39 " />
<polyline points="138.674,147.588 138.674,234.289 " />
<polyline points="116.676,259.69 138.674,259.69 " />
<polyline points="160.672,234.289 138.674,234.289 " />
<polyline points="160.672,234.289 116.676,259.69 " />
<polyline points="910.845,210.622 866.849,236.023 " />
<polyline points="910.845,210.622 888.847,210.622 " />
<polyline points="866.849,236.023 888.847,236.023 " />
<polyline points="888.847,152.822 888.847,210.622 " />
<polyline points="888.847,236.023 888.847,293.823 " />
</g>
<g clip-path="url(#clipId0)" fill="rgb(0,0,0)" stroke="rgb(0,0,0)" stroke-width="0.25" >
<path d="M585.571,352.116 589.093,355.277 577.848,364.265 577.848,364.265 z" />
<path d="M613.492,284.708 618.218,284.963 616.622,270.656 616.622,270.656 z" />
<path d="M731.223,587.982 734.57,584.635 742.938,596.349 742.938,596.349 z" />
</g>
<g clip-path="url(#clipId0)" fill="none" stroke="rgb(0,0,0)" stroke-width="0.25" >
<polyline points="721.69,545.091 716.281,559.291 " />
<polyline points="721.69,545.091 727.1,559.291 " />
<polyline points="718.309,554.557 725.071,554.557 " />
<polyline points="732.321,552.639 732.321,561.159 " />
<polyline points="732.321,556.696 733.132,555.885 733.944,555.479 735.161,555.479 735.972,555.885 736.784,556.696 737.189,557.914 737.189,558.725 736.784,559.942 735.972,560.754 735.161,561.159 733.944,561.159 733.132,560.754 732.321,559.942 " />
<polyline points="732.897,586.308 688.67,542.087 " />
<polyline points="710.093,577.259 710.093,585.779 " />
<polyline points="710.093,581.316 710.905,580.505 711.716,580.099 712.933,580.099 713.745,580.505 714.556,581.316 714.962,582.533 714.962,583.345 714.556,584.562 713.745,585.373 712.933,585.779 711.716,585.779 710.905,585.373 710.093,584.562 " />
<polyline points="397.693,317.99 138.674,317.99 " />
<polyline points="397.693,317.99 627.922,548.22 " />
<polyline points="484.239,270.656 694.863,481.28 " />
<polyline points="965.749,200.69 960.339,214.89 " />
<polyline points="965.749,200.69 971.158,214.89 " />
<polyline points="962.368,210.157 969.13,210.157 " />
<polyline points="981.315,210.94 980.504,210.128 979.286,209.722 977.664,209.722 976.446,210.128 975.635,210.94 975.635,211.751 976.041,212.563 976.446,212.968 977.258,213.374 979.692,214.185 980.504,214.591 980.909,214.997 981.315,215.808 981.315,217.025 980.504,217.837 979.286,218.243 977.664,218.243 976.446,217.837 975.635,217.025 " />
<polyline points="982.051,239.753 981.24,238.942 980.022,238.536 978.4,238.536 977.182,238.942 976.371,239.753 976.371,240.565 976.777,241.376 977.182,241.782 977.994,242.188 980.428,242.999 981.24,243.405 981.645,243.811 982.051,244.622 982.051,245.839 981.24,246.651 980.022,247.056 978.4,247.056 977.182,246.651 976.371,245.839 " />
<polyline points="70.3216,263.342 69.9159,262.53 69.1045,261.719 68.293,261.313 66.6701,261.313 65.8587,261.719 65.0473,262.53 64.6416,263.342 64.2358,264.559 64.2358,266.588 64.6416,267.805 65.0473,268.616 65.8587,269.428 66.6701,269.833 68.293,269.833 69.1045,269.428 69.9159,268.616 70.3216,267.805 " />
<polyline points="999.761,223.322 927.591,223.322 " />
</g>
<g clip-path="url(#clipId0)" fill="rgb(0,0,0)" stroke="rgb(0,0,0)" stroke-width="0.25" >
<path d="M999.761,220.956 999.761,225.689 1013.96,223.322 1013.96,223.322 z" />
<path d="M91.2722,244.623 91.2722,249.356 105.472,246.989 105.472,246.989 z" />
</g>
<g clip-path="url(#clipId0)" fill="none" stroke="rgb(0,0,0)" stroke-width="0.25" >
<polyline points="91.2722,246.989 10.0392,246.989 " />
<polyline points="71.3977,235.041 70.992,234.229 70.1805,233.418 69.3691,233.012 67.7462,233.012 66.9348,233.418 66.1234,234.229 65.7176,235.041 65.3119,236.258 65.3119,238.286 65.7176,239.504 66.1234,240.315 66.9348,241.126 67.7462,241.532 69.3691,241.532 70.1805,241.126 70.992,240.315 71.3977,239.504 " />
<polyline points="54.7726,224.628 49.363,238.828 " />
<polyline points="54.7726,224.628 60.1821,238.828 " />
<polyline points="51.3916,234.094 58.1535,234.094 " />
<polyline points="888.847,175.989 138.674,175.989 " />
</g>
</svg>
