<?xml version="1.0" standalone="no"?>
<svg viewBox="0 0 1024 768" version="1.1" xmlns="http://www.w3.org/2000/svg" xmlns:xlink="http://www.w3.org/1999/xlink" stroke-linecap="round" stroke-linejoin="round" fill-rule="evenodd" xml:space="preserve" >
<defs >
<clipPath id="clipId0" >
<path d="M0,768 1024,768 1024,0 0,0 z" />
</clipPath>
</defs>
<g clip-path="url(#clipId0)" fill="none" stroke="rgb(0,0,0)" stroke-width="0.1" />
<g clip-path="url(#clipId0)" fill="none" stroke="rgb(0,0,0)" stroke-width="0.25" >
<polyline points="799.441,287.783 800.826,287.091 802.903,285.014 802.903,299.553 " />
<polyline points="819.519,285.014 812.596,285.014 811.903,291.245 812.596,290.553 814.673,289.86 816.75,289.86 818.827,290.553 820.211,291.937 820.904,294.014 820.904,295.399 820.211,297.476 818.827,298.861 816.75,299.553 814.673,299.553 812.596,298.861 811.903,298.168 811.211,296.784 " />
<ellipse rx="1.38468" ry="1.38468" cx="825.058" cy="286.399" />
</g>
<g clip-path="url(#clipId0)" fill="rgb(0,0,0)" stroke="rgb(0,0,0)" stroke-width="0.25" >
<path d="M812.379,271.572 817.224,271.704 815.196,257.104 815.196,257.104 z" />
<path d="M811.618,314.057 806.906,312.923 805.861,327.626 805.861,327.626 z" />
</g>
<g clip-path="url(#clipId0)" fill="none" stroke="rgb(0,0,0)" stroke-width="0.25" >
<path d="M814.511,276.29  A271.805,271.805 0 0,0 814.802,271.638 " />
<path d="M809.262,313.49  A271.805,271.805 0 0,0 810.316,308.277 " />
<polyline points="810.049,257.102 832.643,257.111 " />
<polyline points="804.47,327.252 822.709,332.159 " />
<polyline points="151.382,233.404 493.48,233.404 " stroke-dasharray="60.579830,12.115966,12.115966,12.115966" />
<polyline points="221.321,219.088 776.923,372.323 " stroke-dasharray="60.579830,12.115966,12.115966,12.115966" />
<polyline points="491.007,343.537 351.871,305.469 " />
<polyline points="925.618,618.723 923.587,616.692 920.541,615.677 916.479,615.677 913.433,616.692 911.402,618.723 911.402,620.754 912.417,622.785 913.433,623.8 915.464,624.816 921.556,626.847 923.587,627.862 924.603,628.878 925.618,630.908 925.618,633.955 923.587,635.986 920.541,637.001 916.479,637.001 913.433,635.986 911.402,633.955 " />
<polyline points="932.726,615.677 932.726,637.001 " />
<polyline points="932.726,615.677 941.865,615.677 944.911,616.692 945.927,617.708 946.942,619.739 946.942,621.77 945.927,623.8 944.911,624.816 941.865,625.831 932.726,625.831 " />
<polyline points="939.834,625.831 946.942,637.001 " />
<polyline points="965.22,615.677 955.066,615.677 954.05,624.816 955.066,623.8 958.112,622.785 961.158,622.785 964.205,623.8 966.235,625.831 967.251,628.878 967.251,630.908 966.235,633.955 964.205,635.986 961.158,637.001 958.112,637.001 955.066,635.986 954.05,634.97 953.035,632.939 " />
<polyline points="974.359,627.862 992.637,627.862 " />
<polyline points="1012.95,618.723 1011.93,616.692 1008.88,615.677 1006.85,615.677 1003.81,616.692 1001.78,619.739 1000.76,624.816 1000.76,629.893 1001.78,633.955 1003.81,635.986 1006.85,637.001 1007.87,637.001 1010.91,635.986 1012.95,633.955 1013.96,630.908 1013.96,629.893 1012.95,626.847 1010.91,624.816 1007.87,623.8 1006.85,623.8 1003.81,624.816 1001.78,626.847 1000.76,629.893 " />
<polyline points="676.47,320.806 674.212,329.232 " />
<polyline points="675.395,324.818 676.412,324.231 677.322,324.044 678.526,324.367 679.221,324.983 679.808,326.001 679.887,327.312 679.672,328.115 678.948,329.211 677.931,329.798 677.021,329.985 675.817,329.662 675.122,329.046 674.534,328.028 " />
<polyline points="662.548,307.929 662.129,322.869 " />
<polyline points="669.236,309.721 662.129,322.869 " />
<polyline points="669.236,309.721 668.816,324.661 " />
<polyline points="675.923,311.513 668.816,324.661 " />
<polyline points="692.056,320.853 696.904,332.187 " />
<polyline points="699.413,322.824 689.548,330.216 " />
<polyline points="719.392,323.16 715.629,337.204 " />
<polyline points="728.754,325.669 724.991,339.713 " />
<polyline points="717.6,329.848 726.962,332.357 " />
<polyline points="164.132,259.478 167.593,274.017 " />
<polyline points="171.055,259.478 167.593,274.017 " />
<polyline points="171.055,259.478 174.517,274.017 " />
<polyline points="177.978,259.478 174.517,274.017 " />
<polyline points="195.979,264.324 203.595,274.017 " />
<polyline points="203.595,264.324 195.979,274.017 " />
<polyline points="222.981,259.478 222.981,274.017 " />
<polyline points="232.673,259.478 232.673,274.017 " />
<polyline points="222.981,266.401 232.673,266.401 " />
<polyline points="681.899,225.562 685.36,240.101 " />
<polyline points="688.822,225.562 685.36,240.101 " />
<polyline points="688.822,225.562 692.284,240.101 " />
<polyline points="695.746,225.562 692.284,240.101 " />
<polyline points="713.746,230.409 721.362,240.101 " />
<polyline points="721.362,230.409 713.746,240.101 " />
<polyline points="740.748,225.562 740.748,240.101 " />
<polyline points="750.441,225.562 750.441,240.101 " />
<polyline points="740.748,232.486 750.441,232.486 " />
<polyline points="702.711,236.31 701.88,235.479 700.634,235.064 698.973,235.064 697.726,235.479 696.895,236.31 696.895,237.141 697.311,237.972 697.726,238.387 698.557,238.802 701.05,239.633 701.88,240.049 702.296,240.464 702.711,241.295 702.711,242.541 701.88,243.372 700.634,243.787 698.973,243.787 697.726,243.372 696.895,242.541 " />
<polyline points="186.288,271.7 185.872,270.869 185.042,270.038 184.211,269.623 182.549,269.623 181.718,270.038 180.888,270.869 180.472,271.7 180.057,272.946 180.057,275.023 180.472,276.269 180.888,277.1 181.718,277.931 182.549,278.346 184.211,278.346 185.042,277.931 185.872,277.1 186.288,276.269 " />
<polyline points="129.416,436.474 123.878,451.013 " />
<polyline points="129.416,436.474 134.955,451.013 " />
<polyline points="125.955,446.167 132.878,446.167 " />
<polyline points="173.726,438.551 173.726,451.013 " />
<polyline points="167.495,444.782 179.957,444.782 " />
<polyline points="203.497,436.474 197.958,451.013 " />
<polyline points="203.497,436.474 209.036,451.013 " />
<polyline points="200.035,446.167 206.959,446.167 " />
<polyline points="241.576,442.705 254.038,442.705 " />
<polyline points="241.576,446.859 254.038,446.859 " />
<polyline points="277.577,436.474 272.039,451.013 " />
<polyline points="277.577,436.474 283.116,451.013 " />
<polyline points="274.116,446.167 281.039,446.167 " />
<polyline points="293.737,447.808 293.322,446.977 292.491,446.146 291.66,445.73 289.999,445.73 289.168,446.146 288.337,446.977 287.922,447.808 287.506,449.054 287.506,451.131 287.922,452.377 288.337,453.208 289.168,454.039 289.999,454.454 291.66,454.454 292.491,454.039 293.322,453.208 293.737,452.377 " />
<polyline points="213.21,445.342 213.21,454.065 " />
<polyline points="213.21,449.496 214.04,448.665 214.871,448.25 216.117,448.25 216.948,448.665 217.779,449.496 218.195,450.742 218.195,451.573 217.779,452.819 216.948,453.65 216.117,454.065 214.871,454.065 214.04,453.65 213.21,452.819 " />
<polyline points="144.875,447.12 144.044,446.289 142.798,445.874 141.136,445.874 139.89,446.289 139.059,447.12 139.059,447.951 139.475,448.782 139.89,449.197 140.721,449.613 143.213,450.443 144.044,450.859 144.46,451.274 144.875,452.105 144.875,453.351 144.044,454.182 142.798,454.598 141.136,454.598 139.89,454.182 139.059,453.351 " />
<polyline points="896.207,408.868 894.838,409.589 893.483,411.003 892.82,412.402 892.173,414.494 892.247,417.955 892.983,420.017 893.705,421.386 895.119,422.741 896.518,423.403 899.287,423.344 900.656,422.622 902.011,421.208 902.674,419.809 903.321,417.718 903.247,414.257 902.511,412.195 901.789,410.826 900.375,409.471 898.976,408.808 896.207,408.868 " />
<polyline points="898.535,420.59 902.777,424.655 " />
<polyline points="961.353,215.993 959.968,216.686 958.583,218.07 957.891,219.455 957.199,221.532 957.199,224.994 957.891,227.071 958.583,228.455 959.968,229.84 961.353,230.532 964.122,230.532 965.507,229.84 966.892,228.455 967.584,227.071 968.276,224.994 968.276,221.532 967.584,219.455 966.892,218.07 965.507,216.686 964.122,215.993 961.353,215.993 " />
<polyline points="963.43,227.763 967.584,231.917 " />
<polyline points="37.8461,240.676 36.4614,241.369 35.0768,242.753 34.3844,244.138 33.6921,246.215 33.6921,249.677 34.3844,251.754 35.0768,253.139 36.4614,254.523 37.8461,255.216 40.6155,255.216 42.0002,254.523 43.3848,253.139 44.0772,251.754 44.7695,249.677 44.7695,246.215 44.0772,244.138 43.3848,242.753 42.0002,241.369 40.6155,240.676 37.8461,240.676 " />
<polyline points="39.9231,252.446 44.0772,256.6 " />
<polyline points="854.108,208.541 450.621,208.541 " stroke-dasharray="60.579830,12.115966,12.115966,12.115966" />
<polyline points="893.934,257.005 543.391,257.005 " />
<polyline points="850.68,376.275 800.437,389.738 " />
<polyline points="850.68,376.275 828.924,370.446 " />
<polyline points="800.437,389.738 822.193,395.567 " />
<polyline points="844.241,313.282 828.924,370.446 " />
<polyline points="822.193,395.567 806.876,452.731 " />
<polyline points="121.868,245.777 121.868,334.547 " />
<polyline points="121.868,130.999 121.868,219.769 " />
<polyline points="99.3446,245.777 121.868,245.777 " />
<polyline points="144.391,219.769 121.868,219.769 " />
<polyline points="144.391,219.769 99.3446,245.777 " />
<polyline points="916.457,195.537 871.411,221.545 " />
<polyline points="916.457,195.537 893.934,195.537 " />
<polyline points="871.411,221.545 893.934,221.545 " />
<polyline points="893.934,136.357 893.934,195.537 " />
<polyline points="893.934,221.545 893.934,280.725 " />
</g>
<g clip-path="url(#clipId0)" fill="rgb(0,0,0)" stroke="rgb(0,0,0)" stroke-width="0.25" >
<path d="M925.86,412.818 927.114,408.137 940.531,414.24 940.531,414.24 z" />
</g>
<g clip-path="url(#clipId0)" fill="none" stroke="rgb(0,0,0)" stroke-width="0.25" >
<polyline points="898.353,380.657 892.718,395.16 " />
<polyline points="898.353,380.657 903.796,395.233 " />
<polyline points="894.827,390.327 901.75,390.373 " />
<polyline points="909.145,389.668 909.088,398.391 " />
<polyline points="909.118,393.822 909.954,392.996 910.788,392.586 912.034,392.595 912.862,393.016 913.687,393.852 914.095,395.101 914.089,395.931 913.666,397.175 912.829,398 911.996,398.41 910.75,398.402 909.922,397.981 909.096,397.145 " />
<polyline points="926.487,410.477 862.327,393.286 " />
<polyline points="908.688,419.428 908.875,428.149 " />
<polyline points="908.777,423.581 909.59,422.732 910.411,422.299 911.657,422.273 912.497,422.67 913.345,423.483 913.787,424.72 913.805,425.551 913.416,426.806 912.603,427.654 911.782,428.087 910.536,428.114 909.696,427.716 908.848,426.903 " />
<polyline points="351.871,305.469 121.868,305.469 " />
<polyline points="491.007,343.537 813.015,429.819 " />
<polyline points="543.516,257.26 838.102,336.194 " />
<polyline points="962.464,185.043 956.925,199.582 " />
<polyline points="962.464,185.043 968.003,199.582 " />
<polyline points="959.002,194.735 965.926,194.735 " />
<polyline points="979.376,195.7 978.545,194.869 977.299,194.454 975.637,194.454 974.391,194.869 973.56,195.7 973.56,196.531 973.975,197.362 974.391,197.777 975.222,198.192 977.714,199.023 978.545,199.439 978.96,199.854 979.376,200.685 979.376,201.931 978.545,202.762 977.299,203.177 975.637,203.177 974.391,202.762 973.56,201.931 " />
<polyline points="979.786,226.646 978.956,225.815 977.709,225.4 976.048,225.4 974.801,225.815 973.971,226.646 973.971,227.477 974.386,228.308 974.801,228.723 975.632,229.139 978.125,229.97 978.956,230.385 979.371,230.8 979.786,231.631 979.786,232.877 978.956,233.708 977.709,234.124 976.048,234.124 974.801,233.708 973.971,232.877 " />
<polyline points="55.9897,250.493 55.5743,249.662 54.7435,248.831 53.9127,248.416 52.2511,248.416 51.4202,248.831 50.5894,249.662 50.174,250.493 49.7586,251.739 49.7586,253.816 50.174,255.062 50.5894,255.893 51.4202,256.724 52.2511,257.139 53.9127,257.139 54.7435,256.724 55.5743,255.893 55.9897,255.062 " />
<polyline points="998.622,208.541 934.68,208.541 " />
</g>
<g clip-path="url(#clipId0)" fill="rgb(0,0,0)" stroke="rgb(0,0,0)" stroke-width="0.25" >
<path d="M998.622,206.118 998.622,210.964 1013.16,208.541 1013.16,208.541 z" />
<path d="M76.8376,230.35 76.8376,235.196 91.3768,232.773 91.3768,232.773 z" />
</g>
<g clip-path="url(#clipId0)" fill="none" stroke="rgb(0,0,0)" stroke-width="0.25" >
<polyline points="76.8376,232.773 10.0392,232.773 " />
<polyline points="55.9897,221.132 55.5743,220.301 54.7435,219.47 53.9127,219.055 52.2511,219.055 51.4202,219.47 50.5894,220.301 50.174,221.132 49.7586,222.378 49.7586,224.455 50.174,225.701 50.5894,226.532 51.4202,227.363 52.2511,227.778 53.9127,227.778 54.7435,227.363 55.5743,226.532 55.9897,225.701 " />
<polyline points="38.8949,209.981 33.3562,224.521 " />
<polyline points="38.8949,209.981 44.4336,224.521 " />
<polyline points="35.4332,219.674 42.3566,219.674 " />
<polyline points="893.934,160.077 121.868,160.077 " />
</g>
</svg>
