<?xml version="1.0" standalone="no"?>
<svg viewBox="0 0 1024 768" version="1.1" xmlns="http://www.w3.org/2000/svg" xmlns:xlink="http://www.w3.org/1999/xlink" stroke-linecap="round" stroke-linejoin="round" fill-rule="evenodd" xml:space="preserve" >
<defs >
<clipPath id="clipId0" >
<path d="M0,768 1024,768 1024,0 0,0 z" />
</clipPath>
</defs>
<g clip-path="url(#clipId0)" fill="none" stroke="rgb(0,0,0)" stroke-width="0.1" />
<g clip-path="url(#clipId0)" fill="none" stroke="rgb(0,0,0)" stroke-width="0.25" >
<polyline points="445.573,177.203 445.573,444.758 " stroke-dasharray="61.702233,12.340447,12.340447,12.340447" />
<polyline points="220.431,199.499 800.526,199.499 " stroke-dasharray="61.702233,12.340447,12.340447,12.340447" />
<polyline points="903.296,643.023 901.228,640.955 898.125,639.92 893.988,639.92 890.885,640.955 888.817,643.023 888.817,645.092 889.851,647.16 890.885,648.194 892.954,649.229 899.159,651.297 901.228,652.331 902.262,653.366 903.296,655.434 903.296,658.537 901.228,660.605 898.125,661.64 893.988,661.64 890.885,660.605 888.817,658.537 " />
<polyline points="910.536,639.92 910.536,661.64 " />
<polyline points="910.536,639.92 919.844,639.92 922.947,640.955 923.981,641.989 925.016,644.057 925.016,646.126 923.981,648.194 922.947,649.229 919.844,650.263 910.536,650.263 " />
<polyline points="917.776,650.263 925.016,661.64 " />
<polyline points="943.632,639.92 933.29,639.92 932.255,649.229 933.29,648.194 936.392,647.16 939.495,647.16 942.598,648.194 944.666,650.263 945.7,653.366 945.7,655.434 944.666,658.537 942.598,660.605 939.495,661.64 936.392,661.64 933.29,660.605 932.255,659.571 931.221,657.503 " />
<polyline points="952.94,652.331 971.557,652.331 " />
<polyline points="981.899,644.057 983.968,643.023 987.07,639.92 987.07,661.64 " />
<polyline points="1000.52,645.092 1000.52,644.057 1001.55,641.989 1002.58,640.955 1004.65,639.92 1008.79,639.92 1010.86,640.955 1011.89,641.989 1012.93,644.057 1012.93,646.126 1011.89,648.194 1009.82,651.297 999.481,661.64 1013.96,661.64 " />
<polyline points="448.639,475.2 448.639,488.53 " />
<polyline points="448.639,481.548 449.909,480.278 451.179,479.643 453.083,479.643 454.352,480.278 455.622,481.548 456.257,483.452 456.257,484.722 455.622,486.626 454.352,487.895 453.083,488.53 451.179,488.53 449.909,487.895 448.639,486.626 " />
<polyline points="434.945,470.532 434.945,483.863 " />
<polyline points="434.945,470.532 439.389,470.532 441.293,471.167 442.562,472.437 443.197,473.706 443.832,475.611 443.832,478.785 443.197,480.689 442.562,481.958 441.293,483.228 439.389,483.863 434.945,483.863 " />
</g>
<g clip-path="url(#clipId0)" fill="rgb(0,0,0)" stroke="rgb(0,0,0)" stroke-width="0.25" >
<path d="M492.912,479.582 492.912,475.139 506.242,477.36 506.242,477.36 z" />
<path d="M394.577,479.582 394.577,475.139 381.246,477.36 381.246,477.36 z" />
</g>
<g clip-path="url(#clipId0)" fill="none" stroke="rgb(0,0,0)" stroke-width="0.25" >
<polyline points="492.912,477.36 461.518,477.36 " />
<polyline points="394.577,477.36 425.97,477.36 " />
<polyline points="506.242,480.328 506.242,493.357 " />
<polyline points="381.246,482.915 381.246,493.357 " />
<polyline points="769.532,183.939 768.897,182.67 766.993,182.035 765.088,182.035 763.184,182.67 762.549,183.939 763.184,185.209 764.454,185.844 767.627,186.479 768.897,187.113 769.532,188.383 769.532,189.018 768.897,190.287 766.993,190.922 765.088,190.922 763.184,190.287 762.549,189.018 " />
<polyline points="699.619,183.939 698.984,182.67 697.08,182.035 695.175,182.035 693.271,182.67 692.636,183.939 693.271,185.209 694.541,185.844 697.714,186.479 698.984,187.113 699.619,188.383 699.619,189.018 698.984,190.287 697.08,190.922 695.175,190.922 693.271,190.287 692.636,189.018 " />
<polyline points="675.053,169.831 678.227,183.161 " />
<polyline points="681.401,169.831 678.227,183.161 " />
<polyline points="681.401,169.831 684.575,183.161 " />
<polyline points="687.749,169.831 684.575,183.161 " />
<polyline points="717.583,174.274 724.566,183.161 " />
<polyline points="724.566,174.274 717.583,183.161 " />
<polyline points="742.34,169.831 742.34,183.161 " />
<polyline points="751.227,169.831 751.227,183.161 " />
<polyline points="742.34,176.179 751.227,176.179 " />
<polyline points="245.302,224.935 248.476,238.265 " />
<polyline points="251.65,224.935 248.476,238.265 " />
<polyline points="251.65,224.935 254.824,238.265 " />
<polyline points="257.998,224.935 254.824,238.265 " />
<polyline points="274.502,229.378 281.485,238.265 " />
<polyline points="281.485,229.378 274.502,238.265 " />
<polyline points="299.259,224.935 299.259,238.265 " />
<polyline points="308.146,224.935 308.146,238.265 " />
<polyline points="299.259,231.282 308.146,231.282 " />
<polyline points="10.0392,601.817 10.0392,618.48 19.561,618.48 " />
<polyline points="40.1915,608.958 54.4741,608.958 " />
<polyline points="40.1915,613.719 54.4741,613.719 " />
<polyline points="84.6264,601.817 76.6916,612.925 88.5938,612.925 " />
<polyline points="84.6264,601.817 84.6264,618.48 " />
<polyline points="92.5612,602.61 93.3547,603.403 94.1482,602.61 93.3547,601.817 92.5612,602.61 " />
<polyline points="93.3547,608.164 93.3547,618.48 " />
<polyline points="99.7026,607.371 99.7026,618.48 " />
<polyline points="99.7026,610.545 102.083,608.164 103.67,607.371 106.05,607.371 107.637,608.164 108.431,610.545 108.431,618.48 " />
<polyline points="115.572,616.893 114.779,617.686 115.572,618.48 116.366,617.686 115.572,616.893 " />
<polyline points="128.268,598.643 126.681,600.23 125.094,602.61 123.507,605.784 122.714,609.751 122.714,612.925 123.507,616.893 125.094,620.067 126.681,622.447 128.268,624.034 " />
<polyline points="135.409,604.99 136.996,604.197 139.377,601.817 139.377,618.48 " />
<polyline points="153.659,601.817 151.279,602.61 149.692,604.99 148.898,608.958 148.898,611.338 149.692,615.306 151.279,617.686 153.659,618.48 155.246,618.48 157.627,617.686 159.214,615.306 160.007,611.338 160.007,608.958 159.214,604.99 157.627,602.61 155.246,601.817 153.659,601.817 " />
<polyline points="169.529,601.817 167.148,602.61 165.561,604.99 164.768,608.958 164.768,611.338 165.561,615.306 167.148,617.686 169.529,618.48 171.116,618.48 173.496,617.686 175.083,615.306 175.877,611.338 175.877,608.958 175.083,604.99 173.496,602.61 171.116,601.817 169.529,601.817 " />
<polyline points="181.431,607.371 181.431,618.48 " />
<polyline points="181.431,610.545 183.812,608.164 185.398,607.371 187.779,607.371 189.366,608.164 190.159,610.545 190.159,618.48 " />
<polyline points="190.159,610.545 192.54,608.164 194.127,607.371 196.507,607.371 198.094,608.164 198.888,610.545 198.888,618.48 " />
<polyline points="205.236,607.371 205.236,618.48 " />
<polyline points="205.236,610.545 207.616,608.164 209.203,607.371 211.583,607.371 213.17,608.164 213.964,610.545 213.964,618.48 " />
<polyline points="213.964,610.545 216.344,608.164 217.931,607.371 220.312,607.371 221.899,608.164 222.692,610.545 222.692,618.48 " />
<polyline points="228.246,598.643 229.833,600.23 231.42,602.61 233.007,605.784 233.801,609.751 233.801,612.925 233.007,616.893 231.42,620.067 229.833,622.447 228.246,624.034 " />
<path d="M443.744,520.219  A41.0563,41.0563 0 0,0 506.242,520.219 " />
<path d="M506.242,520.219  A47.5378,47.5378 0 0,0 443.744,520.219 " />
<path d="M381.246,520.219  A41.0563,41.0563 0 0,0 443.744,520.219 " />
<polyline points="506.242,362.653 530.033,266.326 " />
<polyline points="381.246,362.653 357.455,266.326 " />
<polyline points="506.242,362.653 506.242,520.219 " />
<polyline points="249.852,308.143 249.852,321.474 257.47,321.474 " />
<polyline points="955.251,180.876 954.616,179.607 952.712,178.972 950.807,178.972 948.903,179.607 948.268,180.876 948.903,182.146 950.173,182.781 953.347,183.415 954.616,184.05 955.251,185.32 955.251,185.955 954.616,187.224 952.712,187.859 950.807,187.859 948.903,187.224 948.268,185.955 " />
<polyline points="953.132,223.735 952.498,222.465 950.593,221.83 948.689,221.83 946.785,222.465 946.15,223.735 946.785,225.004 948.054,225.639 951.228,226.274 952.498,226.909 953.132,228.178 953.132,228.813 952.498,230.083 950.593,230.717 948.689,230.717 946.785,230.083 946.15,228.813 " />
<polyline points="52.5949,211.037 51.3254,211.672 50.0558,212.941 49.421,214.211 48.7862,216.115 48.7862,219.289 49.421,221.194 50.0558,222.463 51.3254,223.733 52.5949,224.367 55.1341,224.367 56.4036,223.733 57.6732,222.463 58.308,221.194 58.9428,219.289 58.9428,216.115 58.308,214.211 57.6732,212.941 56.4036,211.672 55.1341,211.037 52.5949,211.037 " />
<polyline points="54.4993,221.828 58.308,225.637 " />
<polyline points="55.615,167.55 50.5367,180.88 " />
<polyline points="55.615,167.55 60.6933,180.88 " />
<polyline points="52.4411,176.437 58.7889,176.437 " />
<polyline points="112.29,199.674 11.5163,199.674 " />
</g>
<g clip-path="url(#clipId0)" fill="rgb(0,0,0)" stroke="rgb(0,0,0)" stroke-width="0.25" >
<path d="M112.29,197.452 112.29,201.895 125.621,199.674 125.621,199.674 z" />
</g>
<g clip-path="url(#clipId0)" fill="none" stroke="rgb(0,0,0)" stroke-width="0.25" >
<polyline points="355.823,362.653 237.183,362.653 " />
<polyline points="444.803,646.158 444.803,561.184 " />
</g>
<g clip-path="url(#clipId0)" fill="rgb(0,0,0)" stroke="rgb(0,0,0)" stroke-width="0.25" >
<path d="M447.025,646.158 442.582,646.158 444.803,659.488 444.803,659.488 z" />
</g>
<g clip-path="url(#clipId0)" fill="none" stroke="rgb(0,0,0)" stroke-width="0.25" >
<polyline points="252.013,349.322 252.013,329.314 " />
</g>
<g clip-path="url(#clipId0)" fill="rgb(0,0,0)" stroke="rgb(0,0,0)" stroke-width="0.25" >
<path d="M254.235,349.322 249.791,349.322 252.013,362.653 252.013,362.653 z" />
</g>
<g clip-path="url(#clipId0)" fill="none" stroke="rgb(0,0,0)" stroke-width="0.25" >
<polyline points="252.013,279.698 252.013,298.005 " />
</g>
<g clip-path="url(#clipId0)" fill="rgb(0,0,0)" stroke="rgb(0,0,0)" stroke-width="0.25" >
<path d="M249.791,279.698 254.235,279.698 252.013,266.368 252.013,266.368 z" />
</g>
<g clip-path="url(#clipId0)" fill="none" stroke="rgb(0,0,0)" stroke-width="0.25" >
<polyline points="506.242,362.653 381.246,362.653 " />
<polyline points="381.246,362.653 381.246,520.219 " />
<polyline points="844.857,266.326 844.857,211.596 " />
<polyline points="844.857,187.751 844.857,133.021 " />
<polyline points="824.206,211.596 865.507,187.751 " />
<polyline points="865.507,187.751 844.857,187.751 " />
<polyline points="824.206,211.596 844.857,211.596 " />
<polyline points="541.281,133.021 541.281,266.326 " />
<polyline points="541.281,133.021 631.238,155.239 " />
<polyline points="541.281,266.326 631.238,244.109 " />
<polyline points="631.238,155.239 631.238,244.109 " />
<polyline points="631.238,244.109 844.857,244.109 " />
<polyline points="631.238,155.239 844.857,155.239 " />
<polyline points="997.132,199.674 891.799,199.674 " />
</g>
<g clip-path="url(#clipId0)" fill="rgb(0,0,0)" stroke="rgb(0,0,0)" stroke-width="0.25" >
<path d="M997.132,197.452 997.132,201.895 1010.46,199.674 1010.46,199.674 z" />
</g>
<g clip-path="url(#clipId0)" fill="none" stroke="rgb(0,0,0)" stroke-width="0.25" >
<polyline points="414.051,604.798 412.781,605.433 411.512,606.702 410.877,607.972 410.242,609.876 410.242,613.05 410.877,614.954 411.512,616.224 412.781,617.493 414.051,618.128 416.59,618.128 417.86,617.493 419.129,616.224 419.764,614.954 420.399,613.05 420.399,609.876 419.764,607.972 419.129,606.702 417.86,605.433 416.59,604.798 414.051,604.798 " />
<polyline points="415.955,615.589 419.764,619.398 " />
<polyline points="426.259,612.136 426.259,625.466 " />
<polyline points="426.259,618.484 427.529,617.214 428.798,616.579 430.702,616.579 431.972,617.214 433.242,618.484 433.876,620.388 433.876,621.658 433.242,623.562 431.972,624.832 430.702,625.466 428.798,625.466 427.529,624.832 426.259,623.562 " />
<polyline points="459.604,608.269 454.525,621.599 " />
<polyline points="459.604,608.269 464.682,621.599 " />
<polyline points="456.43,617.156 462.777,617.156 " />
<polyline points="468.218,614.343 468.218,627.674 " />
<polyline points="468.218,620.691 469.487,619.421 470.757,618.787 472.661,618.787 473.931,619.421 475.2,620.691 475.835,622.595 475.835,623.865 475.2,625.769 473.931,627.039 472.661,627.674 470.757,627.674 469.487,627.039 468.218,625.769 " />
<polyline points="171.378,266.326 541.281,266.326 " />
<polyline points="171.378,292.987 171.378,211.596 " />
<polyline points="150.728,211.596 171.378,211.596 " />
<polyline points="192.029,187.751 171.378,187.751 " />
<polyline points="150.728,211.596 192.029,187.751 " />
<polyline points="171.378,187.751 171.378,106.36 " />
<polyline points="171.378,133.021 541.281,133.021 " />
<polyline points="931.262,211.037 929.992,211.672 928.723,212.941 928.088,214.211 927.453,216.115 927.453,219.289 928.088,221.194 928.723,222.463 929.992,223.733 931.262,224.367 933.801,224.367 935.07,223.733 936.34,222.463 936.975,221.194 937.61,219.289 937.61,216.115 936.975,214.211 936.34,212.941 935.07,211.672 933.801,211.037 931.262,211.037 " />
<polyline points="933.166,221.828 936.975,225.637 " />
<polyline points="72.471,221.207 71.2014,219.938 69.9319,219.303 68.0275,219.303 66.7579,219.938 65.4884,221.207 64.8536,223.112 64.8536,224.381 65.4884,226.285 66.7579,227.555 68.0275,228.19 69.9319,228.19 71.2014,227.555 72.471,226.285 " />
<polyline points="72.471,179.972 71.2014,178.702 69.9319,178.068 68.0275,178.068 66.7579,178.702 65.4884,179.972 64.8536,181.876 64.8536,183.146 65.4884,185.05 66.7579,186.32 68.0275,186.955 69.9319,186.955 71.2014,186.32 72.471,185.05 " />
<polyline points="934.282,169.577 929.203,182.907 " />
<polyline points="934.282,169.577 939.36,182.907 " />
<polyline points="931.108,178.464 937.456,178.464 " />
</g>
</svg>
