<?xml version="1.0" standalone="no"?>
<svg viewBox="0 0 1024 768" version="1.1" xmlns="http://www.w3.org/2000/svg" xmlns:xlink="http://www.w3.org/1999/xlink" stroke-linecap="round" stroke-linejoin="round" fill-rule="evenodd" xml:space="preserve" >
<defs >
<clipPath id="clipId0" >
<path d="M0,768 1024,768 1024,0 0,0 z" />
</clipPath>
</defs>
<g clip-path="url(#clipId0)" fill="none" stroke="rgb(0,0,0)" stroke-width="0.1" />
<g clip-path="url(#clipId0)" fill="none" stroke="rgb(0,0,0)" stroke-width="0.25" >
<polyline points="457.685,234.845 457.685,141.42 " />
<polyline points="457.685,141.42 376.777,94.7077 " />
<polyline points="376.777,71.3516 376.777,188.132 " />
<polyline points="376.777,188.132 457.685,234.845 " />
<polyline points="376.777,71.3516 457.685,24.6393 " />
<polyline points="437.458,129.742 385.155,159.939 " />
<polyline points="457.685,141.42 459.503,140.346 461.298,139.235 463.071,138.089 464.82,136.906 466.545,135.689 468.245,134.437 469.919,133.15 471.567,131.83 473.188,130.477 474.781,129.092 476.346,127.675 477.881,126.226 479.388,124.746 480.863,123.237 482.309,121.697 483.722,120.129 485.104,118.533 486.453,116.909 487.769,115.258 489.051,113.58 490.299,111.877 490.299,111.877 491.099,110.729 491.866,109.558 492.599,108.365 493.299,107.153 493.964,105.921 494.594,104.671 495.188,103.403 495.746,102.12 496.268,100.821 496.753,99.5075 497.2,98.1811 497.61,96.8426 497.982,95.493 498.315,94.1334 498.61,92.7649 498.866,91.3887 499.083,90.0058 499.26,88.6172 499.399,87.2243 499.498,85.8279 499.557,84.4293 499.577,83.0296 499.577,83.0296 499.557,81.6299 499.498,80.2313 499.399,78.835 499.26,77.442 499.083,76.0535 498.866,74.6706 498.61,73.2943 498.315,71.9259 497.982,70.5663 497.61,69.2167 497.2,67.8782 496.753,66.5517 496.268,65.2385 495.746,63.9395 495.188,62.6558 494.594,61.3883 493.964,60.1382 493.299,58.9064 492.599,57.6939 491.866,56.5017 491.099,55.3307 490.299,54.1819 490.299,54.1819 489.051,52.479 487.769,50.8017 486.453,49.1506 485.104,47.5266 483.722,45.9301 482.309,44.3619 480.863,42.8227 479.388,41.313 477.881,39.8334 476.346,38.3847 474.781,36.9673 473.188,35.5818 471.567,34.2288 469.919,32.909 468.245,31.6227 466.545,30.3705 464.82,29.153 463.071,27.9707 461.298,26.824 459.503,25.7133 457.685,24.6393 " />
<polyline points="376.777,94.7077 377.535,94.2482 378.274,93.7568 378.99,93.2346 379.684,92.6823 380.353,92.1012 380.998,91.4921 381.616,90.8561 382.206,90.1945 382.768,89.5085 383.3,88.7992 383.3,88.7992 383.643,88.2879 383.954,87.7562 384.231,87.2062 384.473,86.6401 384.68,86.0599 384.85,85.4681 384.983,84.8668 385.079,84.2584 385.136,83.6452 385.155,83.0296 385.155,83.0296 385.136,82.4141 385.079,81.8009 384.983,81.1925 384.85,80.5912 384.68,79.9993 384.473,79.4192 384.231,78.8531 383.954,78.3031 383.643,77.7714 383.3,77.2601 383.3,77.2601 382.768,76.5508 382.206,75.8647 381.616,75.2031 380.998,74.5672 380.353,73.9581 379.684,73.3769 378.99,72.8247 378.274,72.3025 377.535,71.8111 376.777,71.3516 " />
<polyline points="499.577,176.454 499.577,83.0296 " />
<polyline points="457.685,234.845 459.503,233.771 461.298,232.66 463.071,231.513 464.82,230.331 466.545,229.113 468.245,227.861 469.919,226.575 471.567,225.255 473.188,223.902 474.781,222.517 476.346,221.099 477.881,219.65 479.388,218.171 480.863,216.661 482.309,215.122 483.722,213.554 485.104,211.957 486.453,210.333 487.769,208.682 489.051,207.005 490.299,205.302 490.299,205.302 491.099,204.153 491.866,202.982 492.599,201.79 493.299,200.577 493.964,199.346 494.594,198.096 495.188,196.828 495.746,195.544 496.268,194.245 496.753,192.932 497.2,191.606 497.61,190.267 497.982,188.918 498.315,187.558 498.61,186.19 498.866,184.813 499.083,183.43 499.26,182.042 499.399,180.649 499.498,179.253 499.557,177.854 499.577,176.454 " />
<polyline points="385.155,176.454 385.155,99.5449 " />
<polyline points="376.777,188.132 377.535,187.673 378.274,187.181 378.99,186.659 379.684,186.107 380.353,185.526 380.998,184.917 381.616,184.281 382.206,183.619 382.768,182.933 383.3,182.224 383.3,182.224 383.643,181.712 383.954,181.181 384.231,180.631 384.473,180.065 384.68,179.485 384.85,178.893 384.983,178.291 385.079,177.683 385.136,177.07 385.155,176.454 " />
<polyline points="453.54,143.813 297.201,234.076 " stroke-dasharray="17.517112,8.758556" />
<polyline points="372.632,97.1007 216.293,187.363 " stroke-dasharray="17.517112,8.758556" />
<polyline points="453.54,237.238 297.201,327.5 " stroke-dasharray="17.517112,8.758556" />
<polyline points="162.57,372.199 161.62,373.881 160.704,375.582 159.821,377.301 158.971,379.036 158.156,380.787 157.376,382.555 156.63,384.337 155.919,386.133 155.243,387.943 154.603,389.766 153.998,391.601 153.43,393.447 153.43,393.447 153,394.961 152.606,396.485 152.249,398.017 151.93,399.558 151.647,401.106 151.402,402.661 151.194,404.221 151.024,405.785 150.891,407.353 150.797,408.924 150.74,410.497 150.721,412.07 150.721,412.07 150.74,413.337 150.798,414.602 150.894,415.866 151.028,417.125 151.201,418.38 151.411,419.629 151.659,420.871 151.945,422.105 152.268,423.33 152.629,424.545 153.025,425.748 153.459,426.938 153.928,428.115 154.432,429.277 154.432,429.277 154.813,430.07 155.228,430.846 155.677,431.602 156.16,432.338 156.674,433.052 157.22,433.742 157.796,434.407 158.402,435.045 159.034,435.657 159.694,436.239 160.378,436.792 161.087,437.314 161.818,437.803 162.57,438.26 162.57,438.26 163.341,438.683 164.131,439.071 164.937,439.424 165.758,439.74 166.592,440.02 167.438,440.263 168.294,440.467 169.158,440.634 170.028,440.761 170.904,440.85 171.782,440.9 172.662,440.911 173.541,440.883 174.419,440.816 174.419,440.816 175.677,440.672 176.931,440.49 178.178,440.27 179.418,440.012 180.65,439.716 181.872,439.384 183.084,439.014 184.284,438.608 185.471,438.166 186.644,437.688 187.802,437.174 188.944,436.626 190.069,436.043 191.175,435.427 191.175,435.427 192.528,434.623 193.862,433.788 195.175,432.92 196.467,432.022 197.737,431.092 198.984,430.132 200.207,429.143 201.407,428.124 202.581,427.077 203.73,426.001 204.853,424.899 205.949,423.769 205.949,423.769 207.264,422.354 208.551,420.913 209.809,419.447 211.039,417.957 212.239,416.443 213.409,414.906 214.549,413.346 215.659,411.764 216.737,410.161 217.783,408.537 218.798,406.893 219.78,405.23 219.78,405.23 220.73,403.547 221.647,401.846 222.53,400.128 223.379,398.393 224.194,396.641 224.975,394.874 225.721,393.092 226.432,391.295 227.107,389.485 227.748,387.663 228.352,385.828 228.921,383.981 228.921,383.981 229.351,382.467 229.744,380.944 230.101,379.411 230.421,377.87 230.703,376.322 230.948,374.768 231.156,373.208 231.326,371.643 231.459,370.075 231.553,368.504 231.61,366.932 231.629,365.358 231.629,365.358 231.61,364.092 231.552,362.826 231.456,361.563 231.322,360.303 231.15,359.048 230.939,357.799 230.691,356.557 230.405,355.323 230.082,354.098 229.722,352.884 229.325,351.681 228.892,350.49 228.423,349.314 227.918,348.152 227.918,348.152 227.538,347.359 227.122,346.583 226.673,345.826 226.19,345.091 225.676,344.377 225.13,343.687 224.554,343.022 223.949,342.383 223.316,341.772 222.657,341.189 221.972,340.637 221.263,340.115 220.532,339.625 219.78,339.168 219.78,339.168 219.009,338.746 218.219,338.357 217.413,338.005 216.592,337.688 215.758,337.408 214.912,337.166 214.057,336.961 213.193,336.795 212.322,336.667 211.447,336.578 210.568,336.528 209.688,336.517 208.809,336.546 207.932,336.613 207.932,336.613 206.673,336.757 205.42,336.939 204.172,337.159 202.932,337.417 201.7,337.712 200.478,338.045 199.266,338.414 198.066,338.82 196.879,339.263 195.706,339.741 194.548,340.254 193.406,340.803 192.282,341.385 191.175,342.002 191.175,342.002 189.822,342.805 188.488,343.641 187.175,344.508 185.883,345.407 184.614,346.336 183.367,347.296 182.143,348.286 180.944,349.305 179.769,350.352 178.62,351.427 177.497,352.53 176.401,353.659 176.401,353.659 175.086,355.075 173.8,356.516 172.541,357.982 171.312,359.472 170.111,360.986 168.941,362.523 167.801,364.083 166.692,365.664 165.613,367.267 164.567,368.891 163.552,370.535 162.57,372.199 " />
<polyline points="133.964,487.806 53.0564,441.094 " />
<polyline points="53.0564,308.971 51.6259,311.492 50.2325,314.033 48.8765,316.594 47.5582,319.175 46.278,321.774 45.036,324.393 43.8325,327.029 42.6679,329.683 41.5423,332.353 40.4561,335.04 39.4093,337.742 38.4023,340.46 37.4353,343.191 36.5085,345.937 35.6221,348.696 34.7762,351.468 34.7762,351.468 34.1242,353.737 33.5133,356.017 32.9437,358.308 32.4155,360.608 31.9289,362.918 31.4841,365.237 31.0812,367.562 30.7204,369.895 30.4017,372.234 30.1253,374.578 29.8913,376.927 29.6998,379.28 29.5507,381.636 29.4442,383.994 29.3803,386.354 29.359,388.714 29.359,388.714 29.3798,390.581 29.4425,392.447 29.5468,394.311 29.6927,396.172 29.8802,398.029 30.1093,399.882 30.3796,401.729 30.6913,403.569 31.0439,405.403 31.4375,407.227 31.8718,409.043 32.3466,410.848 32.8616,412.643 33.4167,414.425 34.0114,416.195 34.6456,417.951 35.3188,419.692 36.0308,421.417 36.7813,423.127 36.7813,423.127 37.335,424.299 37.9269,425.453 38.5562,426.587 39.2223,427.699 39.9245,428.789 40.662,429.856 41.4341,430.898 42.2398,431.914 43.0784,432.903 43.949,433.864 44.8505,434.796 45.7821,435.698 46.7427,436.569 47.7313,437.408 48.7469,438.214 49.7883,438.986 50.8545,439.724 51.9442,440.427 53.0564,441.094 " />
<polyline points="110.267,248.577 108.233,249.776 106.222,251.011 104.233,252.283 102.267,253.59 100.326,254.932 98.4083,256.309 96.5162,257.72 94.65,259.166 92.8101,260.645 90.9973,262.157 89.212,263.701 87.4549,265.277 85.7265,266.885 84.0275,268.524 82.3583,270.193 80.7195,271.892 80.7195,271.892 78.742,274.01 76.7958,276.158 74.8813,278.333 72.999,280.536 71.1491,282.767 69.3322,285.025 67.5486,287.309 65.7987,289.619 64.0829,291.954 62.4015,294.315 60.755,296.7 59.1436,299.108 57.5677,301.54 56.0276,303.995 54.5238,306.472 53.0564,308.971 " />
<polyline points="133.964,355.684 132.534,358.204 131.141,360.745 129.785,363.306 128.466,365.887 127.186,368.487 125.944,371.105 124.741,373.741 123.576,376.395 122.45,379.065 121.364,381.752 120.317,384.454 119.31,387.172 118.343,389.904 117.417,392.65 116.53,395.409 115.684,398.18 115.684,398.18 115.032,400.449 114.421,402.729 113.852,405.02 113.324,407.321 112.837,409.631 112.392,411.949 111.989,414.275 111.628,416.608 111.31,418.946 111.033,421.291 110.799,423.64 110.608,425.992 110.459,428.348 110.352,430.706 110.288,433.066 110.267,435.427 110.267,435.427 110.288,437.293 110.351,439.159 110.455,441.023 110.601,442.884 110.788,444.741 111.017,446.594 111.288,448.441 111.599,450.282 111.952,452.115 112.346,453.94 112.78,455.755 113.255,457.561 113.77,459.355 114.325,461.138 114.919,462.907 115.554,464.663 116.227,466.404 116.939,468.13 117.689,469.839 117.689,469.839 118.243,471.012 118.835,472.165 119.464,473.299 120.13,474.411 120.833,475.502 121.57,476.568 122.342,477.61 123.148,478.626 123.987,479.615 124.857,480.576 125.759,481.508 126.69,482.41 127.651,483.281 128.639,484.12 129.655,484.926 130.696,485.699 131.763,486.437 132.852,487.139 133.964,487.806 133.964,487.806 135.098,488.436 136.251,489.028 137.424,489.583 138.613,490.098 139.819,490.575 141.04,491.011 142.275,491.408 143.522,491.763 144.78,492.078 146.047,492.352 147.323,492.583 148.606,492.773 149.894,492.921 151.186,493.026 152.482,493.089 153.778,493.11 155.075,493.088 156.37,493.024 157.662,492.917 157.662,492.917 159.517,492.712 161.368,492.466 163.212,492.179 165.05,491.85 166.88,491.48 168.701,491.07 170.513,490.619 172.313,490.127 174.103,489.595 175.88,489.024 177.644,488.413 179.394,487.762 181.129,487.073 182.848,486.345 184.55,485.579 186.235,484.774 187.901,483.933 189.548,483.054 191.175,482.139 191.175,482.139 193.209,480.94 195.22,479.705 197.209,478.434 199.175,477.127 201.117,475.784 203.034,474.407 204.926,472.996 206.792,471.55 208.632,470.071 210.445,468.56 212.23,467.015 213.987,465.439 215.716,463.831 217.415,462.192 219.084,460.523 220.723,458.824 220.723,458.824 222.7,456.706 224.646,454.559 226.561,452.383 228.443,450.18 230.293,447.949 232.11,445.691 233.894,443.407 235.643,441.097 237.359,438.762 239.041,436.401 240.687,434.017 242.299,431.608 243.875,429.176 245.415,426.721 246.918,424.244 248.386,421.745 248.386,421.745 249.816,419.225 251.21,416.684 252.566,414.122 253.884,411.542 255.164,408.942 256.406,406.323 257.61,403.687 258.774,401.034 259.9,398.363 260.986,395.676 262.033,392.974 263.04,390.257 264.007,387.525 264.934,384.779 265.82,382.02 266.666,379.248 266.666,379.248 267.318,376.979 267.929,374.699 268.499,372.409 269.027,370.108 269.513,367.798 269.958,365.48 270.361,363.154 270.722,360.821 271.04,358.482 271.317,356.138 271.551,353.789 271.742,351.436 271.891,349.08 271.998,346.722 272.062,344.362 272.083,342.002 " />
<polyline points="191.175,295.29 189.142,296.488 187.13,297.724 185.141,298.995 183.175,300.302 181.234,301.644 179.316,303.021 177.424,304.433 175.558,305.878 173.718,307.357 171.905,308.869 170.12,310.413 168.363,311.99 166.635,313.597 164.936,315.236 163.266,316.905 161.628,318.604 161.628,318.604 159.65,320.723 157.704,322.87 155.789,325.045 153.907,327.249 152.057,329.48 150.24,331.737 148.457,334.021 146.707,336.331 144.991,338.667 143.31,341.027 141.663,343.412 140.052,345.821 138.476,348.253 136.936,350.707 135.432,353.185 133.964,355.684 " />
<polyline points="293.056,329.893 293.056,236.468 " />
<polyline points="293.056,236.468 212.148,189.756 " />
<polyline points="293.056,329.893 272.083,342.002 " />
<polyline points="293.056,236.468 191.175,295.29 " />
<polyline points="212.148,189.756 110.267,248.577 " />
</g>
<g clip-path="url(#clipId0)" fill="rgb(0,0,0)" stroke="rgb(0,0,0)" stroke-width="0.25" >
<path d="M99.2493,335.276 96.9359,339.334 110.267,344.245 110.267,344.245 z" />
</g>
<g clip-path="url(#clipId0)" fill="none" stroke="rgb(0,0,0)" stroke-width="0.25" >
<polyline points="98.0926,337.305 14.8557,289.854 " />
<polyline points="325.242,353.257 325.242,367.271 " />
<polyline points="330.581,353.257 330.581,367.271 " />
<polyline points="330.581,353.257 339.923,367.271 " />
<polyline points="339.923,353.257 339.923,367.271 " />
<polyline points="345.262,353.257 345.262,367.271 353.27,367.271 " />
<polyline points="356.606,353.257 356.606,367.271 " />
<polyline points="356.606,353.257 365.282,353.257 " />
<polyline points="356.606,359.93 361.945,359.93 " />
<polyline points="356.606,367.271 365.282,367.271 " />
<polyline points="371.955,353.257 371.955,367.271 " />
<polyline points="367.284,353.257 376.626,353.257 " />
<polyline points="266.429,447.041 266.429,461.054 " />
<polyline points="266.429,447.041 271.101,447.041 273.103,447.708 274.437,449.043 275.105,450.377 275.772,452.379 275.772,455.716 275.105,457.718 274.437,459.053 273.103,460.387 271.101,461.054 266.429,461.054 " />
<polyline points="279.108,447.041 282.445,461.054 " />
<polyline points="285.782,447.041 282.445,461.054 " />
<polyline points="285.782,447.041 289.118,461.054 " />
<polyline points="292.455,447.041 289.118,461.054 " />
<polyline points="296.459,447.041 296.459,461.054 " />
<polyline points="296.459,447.041 301.13,447.041 303.132,447.708 304.467,449.043 305.134,450.377 305.801,452.379 305.801,455.716 305.134,457.718 304.467,459.053 303.132,460.387 301.13,461.054 296.459,461.054 " />
<polyline points="310.472,447.041 310.472,461.054 " />
<polyline points="339.167,450.377 338.5,449.043 337.165,447.708 335.831,447.041 333.161,447.041 331.827,447.708 330.492,449.043 329.825,450.377 329.157,452.379 329.157,455.716 329.825,457.718 330.492,459.053 331.827,460.387 333.161,461.054 335.831,461.054 337.165,460.387 338.5,459.053 339.167,457.718 " />
<polyline points="343.838,447.041 343.838,461.054 " />
<polyline points="343.838,447.041 352.514,447.041 " />
<polyline points="343.838,453.714 349.177,453.714 " />
<polyline points="343.838,461.054 352.514,461.054 " />
<polyline points="356.517,447.041 356.517,461.054 " />
<polyline points="356.517,447.041 365.86,461.054 " />
<polyline points="365.86,447.041 365.86,461.054 " />
<polyline points="373.868,447.041 373.868,461.054 " />
<polyline points="369.196,447.041 378.539,447.041 " />
<polyline points="381.876,447.041 381.876,461.054 " />
<polyline points="381.876,447.041 387.881,447.041 389.883,447.708 390.551,448.375 391.218,449.71 391.218,451.045 390.551,452.379 389.883,453.047 387.881,453.714 381.876,453.714 " />
<polyline points="386.547,453.714 391.218,461.054 " />
<polyline points="395.889,447.041 395.889,461.054 " />
<polyline points="401.228,447.041 401.228,461.054 " />
<polyline points="401.228,447.041 409.903,447.041 " />
<polyline points="401.228,453.714 406.566,453.714 " />
<polyline points="413.24,447.041 413.24,457.051 413.907,459.053 415.241,460.387 417.243,461.054 418.578,461.054 420.58,460.387 421.915,459.053 422.582,457.051 422.582,447.041 " />
<polyline points="437.263,450.377 436.596,449.043 435.261,447.708 433.926,447.041 431.257,447.041 429.922,447.708 428.588,449.043 427.921,450.377 427.253,452.379 427.253,455.716 427.921,457.718 428.588,459.053 429.922,460.387 431.257,461.054 433.926,461.054 435.261,460.387 436.596,459.053 437.263,457.718 437.263,455.716 " />
<polyline points="433.926,455.716 437.263,455.716 " />
<polyline points="445.271,447.041 439.932,461.054 " />
<polyline points="445.271,447.041 450.609,461.054 " />
<polyline points="441.934,456.383 448.607,456.383 " />
<polyline points="453.946,447.041 453.946,461.054 461.954,461.054 " />
<polyline points="479.304,447.041 479.304,461.054 " />
<polyline points="479.304,447.041 487.979,447.041 " />
<polyline points="479.304,453.714 484.643,453.714 " />
<polyline points="494.652,447.041 489.314,461.054 " />
<polyline points="494.652,447.041 499.991,461.054 " />
<polyline points="491.316,456.383 497.989,456.383 " />
<polyline points="503.328,447.041 503.328,461.054 " />
<polyline points="503.328,447.041 512.67,461.054 " />
<polyline points="512.67,447.041 512.67,461.054 " />
<polyline points="305.154,276.108 354.389,247.133 " />
</g>
<g clip-path="url(#clipId0)" fill="rgb(0,0,0)" stroke="rgb(0,0,0)" stroke-width="0.25" >
<path d="M306.333,278.124 303.975,274.091 293.056,283.181 293.056,283.181 z" />
</g>
<g clip-path="url(#clipId0)" fill="none" stroke="rgb(0,0,0)" stroke-width="0.25" >
<polyline points="445.588,195.206 385.197,230.622 " />
</g>
<g clip-path="url(#clipId0)" fill="rgb(0,0,0)" stroke="rgb(0,0,0)" stroke-width="0.25" >
<path d="M444.409,193.189 446.766,197.222 457.685,188.132 457.685,188.132 z" />
</g>
<g clip-path="url(#clipId0)" fill="none" stroke="rgb(0,0,0)" stroke-width="0.25" >
<polyline points="365.789,231.87 365.789,245.884 373.797,245.884 " />
<polyline points="81.6617,325.487 80.7122,327.169 79.7957,328.87 78.9126,330.588 78.0634,332.324 77.2482,334.075 76.4675,335.842 75.7215,337.624 75.0104,339.421 74.3347,341.231 73.6945,343.054 73.09,344.889 72.5216,346.735 72.5216,346.735 72.0915,348.249 71.698,349.772 71.3413,351.305 71.0215,352.846 70.7389,354.394 70.4937,355.949 70.286,357.509 70.1158,359.073 69.9834,360.641 69.8888,362.212 69.832,363.785 69.813,365.358 69.813,365.358 69.8322,366.625 69.8899,367.89 69.9859,369.153 70.1202,370.413 70.2926,371.668 70.5031,372.917 70.7513,374.159 71.0372,375.393 71.3603,376.618 71.7205,377.832 72.1173,379.035 72.5505,380.226 73.0196,381.402 73.5242,382.564 73.5242,382.564 73.9046,383.358 74.3198,384.133 74.7692,384.89 75.2517,385.626 75.7664,386.339 76.3124,387.029 76.8884,387.694 77.4934,388.333 78.1263,388.944 78.7856,389.527 79.4703,390.08 80.1787,390.601 80.9097,391.091 81.6617,391.548 81.6617,391.548 82.4333,391.971 83.2229,392.359 84.029,392.712 84.8499,393.028 85.6841,393.308 86.5299,393.55 87.3857,393.755 88.2497,393.921 89.1202,394.049 89.9955,394.138 90.874,394.188 91.7538,394.199 92.6332,394.171 93.5104,394.103 93.5104,394.103 94.769,393.959 96.0225,393.777 97.27,393.557 98.5103,393.299 99.7421,393.004 100.964,392.672 102.176,392.302 103.376,391.896 104.563,391.454 105.736,390.976 106.894,390.462 108.036,389.914 109.161,389.331 110.267,388.714 110.267,388.714 111.62,387.911 112.954,387.076 114.267,386.208 115.559,385.309 116.829,384.38 118.076,383.42 119.299,382.43 120.499,381.412 121.673,380.364 122.822,379.289 123.945,378.186 125.041,377.057 125.041,377.057 126.356,375.641 127.643,374.201 128.901,372.735 130.131,371.245 131.331,369.731 132.501,368.193 133.641,366.634 134.751,365.052 135.829,363.449 136.875,361.825 137.89,360.181 138.872,358.517 138.872,358.517 139.822,356.835 140.738,355.134 141.621,353.416 142.471,351.68 143.286,349.929 144.067,348.162 144.813,346.379 145.524,344.583 146.199,342.773 146.84,340.95 147.444,339.115 148.012,337.269 148.012,337.269 148.443,335.755 148.836,334.231 149.193,332.699 149.513,331.158 149.795,329.61 150.04,328.055 150.248,326.495 150.418,324.931 150.551,323.363 150.645,321.792 150.702,320.219 150.721,318.646 150.721,318.646 150.702,317.379 150.644,316.114 150.548,314.851 150.414,313.591 150.241,312.336 150.031,311.087 149.783,309.845 149.497,308.611 149.174,307.386 148.814,306.172 148.417,304.969 147.984,303.778 147.515,302.601 147.01,301.44 147.01,301.44 146.63,300.646 146.214,299.871 145.765,299.114 145.282,298.378 144.768,297.665 144.222,296.975 143.646,296.31 143.041,295.671 142.408,295.06 141.748,294.477 141.064,293.924 140.355,293.403 139.624,292.913 138.872,292.456 138.872,292.456 138.101,292.033 137.311,291.645 136.505,291.292 135.684,290.976 134.85,290.696 134.004,290.454 133.148,290.249 132.284,290.083 131.414,289.955 130.539,289.866 129.66,289.816 128.78,289.805 127.901,289.833 127.024,289.9 127.024,289.9 125.765,290.044 124.512,290.227 123.264,290.447 122.024,290.704 120.792,291 119.57,291.332 118.358,291.702 117.158,292.108 115.971,292.55 114.798,293.028 113.64,293.542 112.498,294.09 111.374,294.673 110.267,295.29 110.267,295.29 108.914,296.093 107.58,296.928 106.267,297.796 104.975,298.694 103.706,299.624 102.459,300.584 101.235,301.574 100.036,302.592 98.861,303.64 97.712,304.715 96.5892,305.818 95.4933,306.947 95.4933,306.947 94.1784,308.362 92.8915,309.803 91.633,311.269 90.4034,312.759 89.2032,314.273 88.0329,315.81 86.8928,317.37 85.7835,318.952 84.7053,320.555 83.6587,322.179 82.644,323.823 81.6617,325.487 " />
<polyline points="53.0564,441.094 54.1898,441.724 55.3433,442.316 56.5155,442.87 57.7053,443.386 58.9113,443.862 60.1322,444.299 61.3668,444.695 62.6137,445.051 63.8716,445.366 65.1392,445.639 66.415,445.871 67.6977,446.061 68.9859,446.209 70.2783,446.314 71.5734,446.377 72.87,446.398 74.1665,446.376 75.4615,446.312 76.7538,446.205 76.7538,446.205 78.6094,446 80.4599,445.754 82.3044,445.466 84.142,445.138 85.9719,444.768 87.793,444.357 89.6044,443.906 91.4054,443.415 93.1948,442.883 94.972,442.312 96.7359,441.7 98.4858,441.05 100.221,440.361 101.94,439.633 103.642,438.866 105.327,438.062 106.993,437.22 108.64,436.342 110.267,435.427 110.267,435.427 112.301,434.228 114.312,432.993 116.301,431.721 118.267,430.414 120.209,429.072 122.126,427.695 124.018,426.283 125.884,424.838 127.724,423.359 129.537,421.847 131.322,420.303 133.079,418.727 134.808,417.119 136.507,415.48 138.176,413.811 139.815,412.112 139.815,412.112 141.792,409.994 143.738,407.846 145.653,405.671 147.535,403.467 149.385,401.237 151.202,398.979 152.985,396.695 154.735,394.385 156.451,392.049 158.133,389.689 159.779,387.304 161.391,384.896 162.966,382.464 164.506,380.009 166.01,377.532 167.478,375.033 167.478,375.033 168.908,372.512 170.302,369.971 171.658,367.41 172.976,364.829 174.256,362.229 175.498,359.611 176.702,356.975 177.866,354.321 178.992,351.651 180.078,348.964 181.125,346.262 182.132,343.544 183.099,340.812 184.026,338.067 184.912,335.308 185.758,332.536 185.758,332.536 186.41,330.267 187.021,327.987 187.59,325.696 188.119,323.396 188.605,321.086 189.05,318.767 189.453,316.442 189.814,314.109 190.132,311.77 190.409,309.425 190.643,307.077 190.834,304.724 190.983,302.368 191.09,300.01 191.154,297.65 191.175,295.29 " />
<polyline points="293.056,329.893 212.148,283.181 " stroke-dasharray="17.517112,8.758556" />
<polyline points="212.148,283.181 212.148,189.756 " stroke-dasharray="17.517112,8.758556" />
</g>
<g clip-path="url(#clipId0)" fill="rgb(0,0,0)" stroke="rgb(0,0,0)" stroke-width="0.25" >
<path d="M387.434,18.0663 390.337,14.4061 377.905,7.52941 377.905,7.52941 z" />
</g>
<g clip-path="url(#clipId0)" fill="none" stroke="rgb(0,0,0)" stroke-width="0.25" >
<polyline points="388.885,16.2362 419.788,40.7395 " />
<polyline points="409.99,11.2414 408.655,11.9087 407.321,13.2434 406.653,14.578 405.986,16.58 405.986,19.9166 406.653,21.9185 407.321,23.2531 408.655,24.5878 409.99,25.2551 412.659,25.2551 413.994,24.5878 415.329,23.2531 415.996,21.9185 416.663,19.9166 416.663,16.58 415.996,14.578 415.329,13.2434 413.994,11.9087 412.659,11.2414 409.99,11.2414 " />
<polyline points="411.992,22.5858 415.996,26.5897 " />
<polyline points="283.682,168.312 287.018,182.326 " />
<polyline points="290.355,168.312 287.018,182.326 " />
<polyline points="290.355,168.312 293.692,182.326 " />
<polyline points="297.028,168.312 293.692,182.326 " />
<polyline points="314.378,172.984 321.719,182.326 " />
<polyline points="321.719,172.984 314.378,182.326 " />
<polyline points="340.404,168.312 340.404,182.326 " />
<polyline points="349.746,168.312 349.746,182.326 " />
<polyline points="340.404,174.986 349.746,174.986 " />
<polyline points="1004.88,198.922 1003.68,199.322 1002.88,200.523 1002.48,202.525 1002.48,203.726 1002.88,205.728 1003.68,206.929 1004.88,207.33 1005.68,207.33 1006.88,206.929 1007.69,205.728 1008.09,203.726 1008.09,202.525 1007.69,200.523 1006.88,199.322 1005.68,198.922 1004.88,198.922 " />
<polyline points="973.955,146.021 973.955,154.429 " />
<polyline points="973.955,150.025 974.756,149.224 975.557,148.824 976.758,148.824 977.559,149.224 978.36,150.025 978.76,151.226 978.76,152.027 978.36,153.228 977.559,154.029 976.758,154.429 975.557,154.429 974.756,154.029 973.955,153.228 " />
<polyline points="874.136,388.183 873.468,386.848 872.134,385.514 870.799,384.846 868.13,384.846 866.795,385.514 865.461,386.848 864.793,388.183 864.126,390.185 864.126,393.521 864.793,395.523 865.461,396.858 866.795,398.193 868.13,398.86 870.799,398.86 872.134,398.193 873.468,396.858 874.136,395.523 " />
<polyline points="878.807,384.846 878.807,394.856 879.474,396.858 880.809,398.193 882.811,398.86 884.146,398.86 886.148,398.193 887.482,396.858 888.149,394.856 888.149,384.846 " />
<polyline points="896.157,384.846 896.157,398.86 " />
<polyline points="891.486,384.846 900.829,384.846 " />
<polyline points="907.502,384.846 906.167,385.514 904.832,386.848 904.165,388.183 903.498,390.185 903.498,393.521 904.165,395.523 904.832,396.858 906.167,398.193 907.502,398.86 910.171,398.86 911.506,398.193 912.84,396.858 913.508,395.523 914.175,393.521 914.175,390.185 913.508,388.183 912.84,386.848 911.506,385.514 910.171,384.846 907.502,384.846 " />
<polyline points="918.846,384.846 918.846,398.86 " />
<polyline points="918.846,384.846 927.521,384.846 " />
<polyline points="918.846,391.519 924.185,391.519 " />
<polyline points="930.858,384.846 930.858,398.86 " />
<polyline points="930.858,384.846 939.533,384.846 " />
<polyline points="930.858,391.519 936.196,391.519 " />
<polyline points="813.718,131.813 813.718,145.827 " />
<polyline points="813.718,131.813 819.724,131.813 821.726,132.481 822.393,133.148 823.06,134.482 823.06,135.817 822.393,137.152 821.726,137.819 819.724,138.486 " />
<polyline points="813.718,138.486 819.724,138.486 821.726,139.154 822.393,139.821 823.06,141.156 823.06,143.158 822.393,144.492 821.726,145.16 819.724,145.827 813.718,145.827 " />
<polyline points="827.732,131.813 827.732,145.827 835.739,145.827 " />
<polyline points="842.413,131.813 837.074,145.827 " />
<polyline points="842.413,131.813 847.751,145.827 " />
<polyline points="839.076,141.156 845.749,141.156 " />
<polyline points="859.763,133.815 858.428,132.481 856.426,131.813 853.757,131.813 851.755,132.481 850.42,133.815 850.42,135.15 851.088,136.484 851.755,137.152 853.09,137.819 857.094,139.154 858.428,139.821 859.096,140.488 859.763,141.823 859.763,143.825 858.428,145.16 856.426,145.827 853.757,145.827 851.755,145.16 850.42,143.825 " />
<polyline points="867.103,131.813 867.103,145.827 " />
<polyline points="862.432,131.813 871.775,131.813 " />
<polyline points="892.461,131.813 887.123,145.827 " />
<polyline points="892.461,131.813 897.8,145.827 " />
<polyline points="889.125,141.156 895.798,141.156 " />
<polyline points="901.137,131.813 901.137,145.827 " />
<polyline points="901.137,131.813 907.142,131.813 909.144,132.481 909.812,133.148 910.479,134.482 910.479,135.817 909.812,137.152 909.144,137.819 907.142,138.486 901.137,138.486 " />
<polyline points="905.808,138.486 910.479,145.827 " />
<polyline points="915.15,131.813 915.15,145.827 " />
<polyline points="915.15,131.813 923.825,131.813 " />
<polyline points="915.15,138.486 920.489,138.486 " />
<polyline points="915.15,145.827 923.825,145.827 " />
<polyline points="931.166,131.813 925.827,145.827 " />
<polyline points="931.166,131.813 936.505,145.827 " />
<polyline points="927.829,141.156 934.503,141.156 " />
<polyline points="941.176,145.16 940.508,145.827 939.841,145.16 940.508,144.492 941.176,145.16 941.176,146.494 940.508,147.829 939.841,148.496 " />
<polyline points="963.865,131.813 958.526,145.827 " />
<polyline points="963.865,131.813 969.203,145.827 " />
<polyline points="960.528,141.156 967.201,141.156 " />
<polyline points="831.832,183.932 830.498,184.599 829.163,185.934 828.496,187.268 827.828,189.27 827.828,192.607 828.496,194.609 829.163,195.944 830.498,197.278 831.832,197.945 834.502,197.945 835.836,197.278 837.171,195.944 837.838,194.609 838.505,192.607 838.505,189.27 837.838,187.268 837.171,185.934 835.836,184.599 834.502,183.932 831.832,183.932 " />
<polyline points="843.177,183.932 843.177,193.942 843.844,195.944 845.179,197.278 847.181,197.945 848.515,197.945 850.517,197.278 851.852,195.944 852.519,193.942 852.519,183.932 " />
<polyline points="860.527,183.932 860.527,197.945 " />
<polyline points="855.856,183.932 865.198,183.932 " />
<polyline points="868.535,183.932 868.535,197.945 876.543,197.945 " />
<polyline points="879.879,183.932 879.879,197.945 " />
<polyline points="879.879,183.932 888.554,183.932 " />
<polyline points="879.879,190.605 885.218,190.605 " />
<polyline points="879.879,197.945 888.554,197.945 " />
<polyline points="895.228,183.932 895.228,197.945 " />
<polyline points="890.556,183.932 899.899,183.932 " />
<polyline points="920.586,183.932 915.247,197.945 " />
<polyline points="920.586,183.932 925.924,197.945 " />
<polyline points="917.249,193.274 923.922,193.274 " />
<polyline points="929.261,183.932 929.261,197.945 " />
<polyline points="929.261,183.932 935.267,183.932 937.269,184.599 937.936,185.266 938.603,186.601 938.603,187.936 937.936,189.27 937.269,189.938 935.267,190.605 929.261,190.605 " />
<polyline points="933.932,190.605 938.603,197.945 " />
<polyline points="943.274,183.932 943.274,197.945 " />
<polyline points="943.274,183.932 951.95,183.932 " />
<polyline points="943.274,190.605 948.613,190.605 " />
<polyline points="943.274,197.945 951.95,197.945 " />
<polyline points="959.29,183.932 953.952,197.945 " />
<polyline points="959.29,183.932 964.629,197.945 " />
<polyline points="955.954,193.274 962.627,193.274 " />
<polyline points="969.3,197.278 968.633,197.945 967.965,197.278 968.633,196.611 969.3,197.278 969.3,198.613 968.633,199.947 967.965,200.615 " />
<polyline points="991.989,183.932 986.65,197.945 " />
<polyline points="991.989,183.932 997.327,197.945 " />
<polyline points="988.652,193.274 995.325,193.274 " />
<polyline points="829.594,387.379 852.556,387.379 " />
<polyline points="772.034,330.275 829.594,387.379 " />
</g>
<g clip-path="url(#clipId0)" fill="rgb(0,0,0)" stroke="rgb(0,0,0)" stroke-width="0.25" >
<path d="M770.389,331.934 773.679,328.617 762.085,320.406 762.085,320.406 z" />
</g>
<g clip-path="url(#clipId0)" fill="none" stroke="rgb(0,0,0)" stroke-width="0.25" >
<polyline points="795.151,190.231 814.286,190.231 " />
<polyline points="795.151,247.692 795.151,213.249 " />
<polyline points="774.102,138.506 797.065,138.506 " />
<polyline points="774.102,247.692 774.102,186.46 " />
<polyline points="835.687,295.011 761.361,295.011 " />
</g>
<g clip-path="url(#clipId0)" fill="rgb(0,0,0)" stroke="rgb(0,0,0)" stroke-width="0.25" >
<path d="M835.687,292.676 835.687,297.347 849.701,295.011 849.701,295.011 z" />
</g>
<g clip-path="url(#clipId0)" fill="none" stroke="rgb(0,0,0)" stroke-width="0.25" >
<path d="M772.62,320.8  A5.27148,5.27148 0 1,0 762.085,320.406 " />
<polyline points="795.151,341.455 763.308,341.455 " />
<polyline points="795.151,253.203 795.151,341.455 " />
<polyline points="680.816,252.549 795.151,253.203 " />
<path d="M680.816,252.549  A83.1664,83.1664 0 1,0 762.085,320.406 " />
<circle cx="680.34" cy="335.714" r="32.6982" />
<polyline points="760.316,586.965 766.188,586.965 766.188,585.986 765.699,585.007 765.209,584.518 764.23,584.029 762.762,584.029 761.784,584.518 760.805,585.497 760.316,586.965 760.316,587.944 760.805,589.412 761.784,590.39 762.762,590.88 764.23,590.88 765.209,590.39 766.188,589.412 " />
<polyline points="760.282,551.216 766.155,551.216 766.155,550.238 765.666,549.259 765.176,548.77 764.197,548.28 762.729,548.28 761.751,548.77 760.772,549.748 760.282,551.216 760.282,552.195 760.772,553.663 761.751,554.642 762.729,555.131 764.197,555.131 765.176,554.642 766.155,553.663 " />
<polyline points="593.051,726.529 591.85,726.93 591.049,728.131 590.649,730.133 590.649,731.334 591.049,733.336 591.85,734.537 593.051,734.937 593.852,734.937 595.053,734.537 595.854,733.336 596.254,731.334 596.254,730.133 595.854,728.131 595.053,726.93 593.852,726.529 593.051,726.529 " />
<polyline points="580.698,717.342 575.36,731.356 " />
<polyline points="580.698,717.342 586.037,731.356 " />
<polyline points="577.361,726.684 584.035,726.684 " />
<polyline points="577.361,681.436 577.361,695.45 585.369,695.45 " />
<polyline points="575.36,645.53 580.698,659.544 " />
<polyline points="586.037,645.53 580.698,659.544 " />
<polyline points="575.36,573.718 580.698,587.732 " />
<polyline points="586.037,573.718 580.698,587.732 " />
<polyline points="575.36,537.812 580.698,551.826 " />
<polyline points="586.037,537.812 580.698,551.826 " />
<polyline points="590.916,694.956 596.788,694.956 596.788,693.978 596.299,692.999 595.809,692.509 594.831,692.02 593.363,692.02 592.384,692.509 591.405,693.488 590.916,694.956 590.916,695.935 591.405,697.403 592.384,698.382 593.363,698.871 594.831,698.871 595.809,698.382 596.788,697.403 " />
<polyline points="818.889,566.31 842.148,566.31 " />
<polyline points="845.295,529.834 867.226,529.834 " />
<polyline points="589.738,654.91 588.537,655.31 587.736,656.511 587.336,658.513 587.336,659.715 587.736,661.717 588.537,662.918 589.738,663.318 590.539,663.318 591.74,662.918 592.541,661.717 592.942,659.715 592.942,658.513 592.541,656.511 591.74,655.31 590.539,654.91 589.738,654.91 " />
<polyline points="833.91,582.472 832.709,582.872 831.908,584.073 831.507,586.075 831.507,587.276 831.908,589.278 832.709,590.479 833.91,590.88 834.711,590.88 835.912,590.479 836.712,589.278 837.113,587.276 837.113,586.075 836.712,584.073 835.912,582.872 834.711,582.472 833.91,582.472 " />
<polyline points="816.604,546.723 815.402,547.123 814.602,548.325 814.201,550.327 814.201,551.528 814.602,553.53 815.402,554.731 816.604,555.131 817.404,555.131 818.606,554.731 819.406,553.53 819.807,551.528 819.807,550.327 819.406,548.325 818.606,547.123 817.404,546.723 816.604,546.723 " />
<polyline points="859.314,546.723 858.112,547.123 857.312,548.325 856.911,550.327 856.911,551.528 857.312,553.53 858.112,554.731 859.314,555.131 860.114,555.131 861.316,554.731 862.116,553.53 862.517,551.528 862.517,550.327 862.116,548.325 861.316,547.123 860.114,546.723 859.314,546.723 " />
<polyline points="589.071,583.48 587.869,583.88 587.069,585.081 586.668,587.083 586.668,588.284 587.069,590.286 587.869,591.488 589.071,591.888 589.871,591.888 591.073,591.488 591.873,590.286 592.274,588.284 592.274,587.083 591.873,585.081 591.073,583.88 589.871,583.48 589.071,583.48 " />
<polyline points="590.406,546.248 589.205,546.648 588.404,547.849 588.004,549.851 588.004,551.052 588.404,553.054 589.205,554.255 590.406,554.656 591.207,554.656 592.408,554.255 593.209,553.054 593.609,551.052 593.609,549.851 593.209,547.849 592.408,546.648 591.207,546.248 590.406,546.248 " />
<polyline points="607.882,589.71 619.983,589.71 " />
<polyline points="798.922,579.111 802.258,579.111 808.264,587.118 " />
<polyline points="801.591,579.778 808.264,588.453 " />
<polyline points="818.941,566.431 808.264,588.453 " />
<polyline points="825.407,543.276 828.743,543.276 834.749,551.284 " />
<polyline points="828.076,543.943 834.749,552.618 " />
<polyline points="845.426,530.597 834.749,552.618 " />
<polyline points="610.275,723.348 622.287,723.348 " />
<polyline points="610.275,727.352 622.287,727.352 " />
<polyline points="648.98,717.342 648.98,731.356 " />
<polyline points="648.98,724.015 647.645,722.681 646.31,722.013 644.309,722.013 642.974,722.681 641.639,724.015 640.972,726.017 640.972,727.352 641.639,729.354 642.974,730.688 644.309,731.356 646.31,731.356 647.645,730.688 648.98,729.354 " />
<polyline points="654.318,722.013 654.318,728.686 654.986,730.688 656.32,731.356 658.322,731.356 659.657,730.688 661.659,728.686 " />
<polyline points="661.659,722.013 661.659,731.356 " />
<polyline points="674.338,724.015 673.003,722.681 671.669,722.013 669.667,722.013 668.332,722.681 666.997,724.015 666.33,726.017 666.33,727.352 666.997,729.354 668.332,730.688 669.667,731.356 671.669,731.356 673.003,730.688 674.338,729.354 " />
<polyline points="679.676,717.342 679.676,728.686 680.344,730.688 681.678,731.356 683.013,731.356 " />
<polyline points="677.674,722.013 682.346,722.013 " />
<polyline points="708.371,722.013 708.371,731.356 " />
<polyline points="708.371,724.015 707.036,722.681 705.702,722.013 703.7,722.013 702.365,722.681 701.031,724.015 700.363,726.017 700.363,727.352 701.031,729.354 702.365,730.688 703.7,731.356 705.702,731.356 707.036,730.688 708.371,729.354 " />
<polyline points="713.71,722.013 713.71,731.356 " />
<polyline points="713.71,726.017 714.377,724.015 715.712,722.681 717.046,722.013 719.048,722.013 " />
<polyline points="721.717,726.017 729.725,726.017 729.725,724.682 729.058,723.348 728.391,722.681 727.056,722.013 725.054,722.013 723.719,722.681 722.385,724.015 721.717,726.017 721.717,727.352 722.385,729.354 723.719,730.688 725.054,731.356 727.056,731.356 728.391,730.688 729.725,729.354 " />
<polyline points="741.737,722.013 741.737,731.356 " />
<polyline points="741.737,724.015 740.402,722.681 739.068,722.013 737.066,722.013 735.731,722.681 734.397,724.015 733.729,726.017 733.729,727.352 734.397,729.354 735.731,730.688 737.066,731.356 739.068,731.356 740.402,730.688 741.737,729.354 " />
<polyline points="748.41,730.688 747.743,731.356 747.076,730.688 747.743,730.021 748.41,730.688 748.41,732.023 747.743,733.358 747.076,734.025 " />
<polyline points="767.762,722.013 767.762,731.356 " />
<polyline points="767.762,724.682 769.764,722.681 771.099,722.013 773.101,722.013 774.436,722.681 775.103,724.682 775.103,731.356 " />
<polyline points="775.103,724.682 777.105,722.681 778.44,722.013 780.442,722.013 781.776,722.681 782.443,724.682 782.443,731.356 " />
<polyline points="787.782,722.013 787.782,731.356 " />
<polyline points="787.782,724.682 789.784,722.681 791.119,722.013 793.121,722.013 794.455,722.681 795.123,724.682 795.123,731.356 " />
<polyline points="795.123,724.682 797.124,722.681 798.459,722.013 800.461,722.013 801.796,722.681 802.463,724.682 802.463,731.356 " />
<polyline points="610.275,687.442 622.287,687.442 " />
<polyline points="610.275,691.446 622.287,691.446 " />
<polyline points="640.972,690.111 648.98,690.111 648.98,688.777 648.312,687.442 647.645,686.775 646.31,686.107 644.309,686.107 642.974,686.775 641.639,688.109 640.972,690.111 640.972,691.446 641.639,693.448 642.974,694.782 644.309,695.45 646.31,695.45 647.645,694.782 648.98,693.448 " />
<polyline points="657.655,681.436 656.32,681.436 654.986,682.103 654.318,684.105 654.318,695.45 " />
<polyline points="652.316,686.107 656.988,686.107 " />
<polyline points="665.663,681.436 664.328,681.436 662.993,682.103 662.326,684.105 662.326,695.45 " />
<polyline points="660.324,686.107 664.995,686.107 " />
<polyline points="668.999,690.111 677.007,690.111 677.007,688.777 676.34,687.442 675.673,686.775 674.338,686.107 672.336,686.107 671.001,686.775 669.667,688.109 668.999,690.111 668.999,691.446 669.667,693.448 671.001,694.782 672.336,695.45 674.338,695.45 675.673,694.782 677.007,693.448 " />
<polyline points="689.019,688.109 687.684,686.775 686.35,686.107 684.348,686.107 683.013,686.775 681.678,688.109 681.011,690.111 681.011,691.446 681.678,693.448 683.013,694.782 684.348,695.45 686.35,695.45 687.684,694.782 689.019,693.448 " />
<polyline points="694.357,681.436 694.357,692.78 695.025,694.782 696.359,695.45 697.694,695.45 " />
<polyline points="692.355,686.107 697.027,686.107 " />
<polyline points="701.031,682.103 701.698,682.771 702.365,682.103 701.698,681.436 701.031,682.103 " />
<polyline points="701.698,686.775 701.698,695.45 " />
<polyline points="705.702,686.107 709.706,695.45 " />
<polyline points="713.71,686.107 709.706,695.45 " />
<polyline points="717.046,690.111 725.054,690.111 725.054,688.777 724.387,687.442 723.719,686.775 722.385,686.107 720.383,686.107 719.048,686.775 717.714,688.109 717.046,690.111 717.046,691.446 717.714,693.448 719.048,694.782 720.383,695.45 722.385,695.45 723.719,694.782 725.054,693.448 " />
<polyline points="751.08,681.436 751.08,695.45 " />
<polyline points="751.08,688.109 749.745,686.775 748.41,686.107 746.408,686.107 745.074,686.775 743.739,688.109 743.072,690.111 743.072,691.446 743.739,693.448 745.074,694.782 746.408,695.45 748.41,695.45 749.745,694.782 751.08,693.448 " />
<polyline points="756.418,686.107 756.418,692.78 757.085,694.782 758.42,695.45 760.422,695.45 761.757,694.782 763.759,692.78 " />
<polyline points="763.759,686.107 763.759,695.45 " />
<polyline points="776.438,688.109 775.103,686.775 773.768,686.107 771.766,686.107 770.432,686.775 769.097,688.109 768.43,690.111 768.43,691.446 769.097,693.448 770.432,694.782 771.766,695.45 773.768,695.45 775.103,694.782 776.438,693.448 " />
<polyline points="781.776,681.436 781.776,692.78 782.443,694.782 783.778,695.45 785.113,695.45 " />
<polyline points="779.774,686.107 784.445,686.107 " />
<polyline points="803.13,681.436 803.13,695.45 " />
<polyline points="807.802,690.111 815.809,690.111 815.809,688.777 815.142,687.442 814.475,686.775 813.14,686.107 811.138,686.107 809.804,686.775 808.469,688.109 807.802,690.111 807.802,691.446 808.469,693.448 809.804,694.782 811.138,695.45 813.14,695.45 814.475,694.782 815.809,693.448 " />
<polyline points="820.481,686.107 820.481,695.45 " />
<polyline points="820.481,688.777 822.483,686.775 823.817,686.107 825.819,686.107 827.154,686.775 827.821,688.777 827.821,695.45 " />
<polyline points="840.5,686.107 840.5,696.784 839.833,698.786 839.166,699.454 837.831,700.121 835.829,700.121 834.494,699.454 " />
<polyline points="840.5,688.109 839.166,686.775 837.831,686.107 835.829,686.107 834.494,686.775 833.16,688.109 832.492,690.111 832.492,691.446 833.16,693.448 834.494,694.782 835.829,695.45 837.831,695.45 839.166,694.782 840.5,693.448 " />
<polyline points="846.506,681.436 846.506,692.78 847.173,694.782 848.508,695.45 849.843,695.45 " />
<polyline points="844.504,686.107 849.175,686.107 " />
<polyline points="853.847,681.436 853.847,695.45 " />
<polyline points="853.847,688.777 855.849,686.775 857.183,686.107 859.185,686.107 860.52,686.775 861.187,688.777 861.187,695.45 " />
<polyline points="867.86,694.782 867.193,695.45 866.526,694.782 867.193,694.115 867.86,694.782 867.86,696.117 867.193,697.452 866.526,698.119 " />
<polyline points="887.212,686.107 887.212,695.45 " />
<polyline points="887.212,688.777 889.214,686.775 890.549,686.107 892.551,686.107 893.886,686.775 894.553,688.777 894.553,695.45 " />
<polyline points="894.553,688.777 896.555,686.775 897.89,686.107 899.892,686.107 901.226,686.775 901.893,688.777 901.893,695.45 " />
<polyline points="610.275,651.536 622.287,651.536 " />
<polyline points="610.275,655.54 622.287,655.54 " />
<polyline points="648.98,645.53 648.98,659.544 " />
<polyline points="648.98,652.203 647.645,650.869 646.31,650.201 644.309,650.201 642.974,650.869 641.639,652.203 640.972,654.205 640.972,655.54 641.639,657.542 642.974,658.876 644.309,659.544 646.31,659.544 647.645,658.876 648.98,657.542 " />
<polyline points="654.318,650.201 654.318,656.874 654.986,658.876 656.32,659.544 658.322,659.544 659.657,658.876 661.659,656.874 " />
<polyline points="661.659,650.201 661.659,659.544 " />
<polyline points="674.338,652.203 673.003,650.869 671.669,650.201 669.667,650.201 668.332,650.869 666.997,652.203 666.33,654.205 666.33,655.54 666.997,657.542 668.332,658.876 669.667,659.544 671.669,659.544 673.003,658.876 674.338,657.542 " />
<polyline points="679.676,645.53 679.676,656.874 680.344,658.876 681.678,659.544 683.013,659.544 " />
<polyline points="677.674,650.201 682.346,650.201 " />
<polyline points="699.696,650.201 703.7,659.544 " />
<polyline points="707.704,650.201 703.7,659.544 " />
<polyline points="711.04,654.205 719.048,654.205 719.048,652.871 718.381,651.536 717.714,650.869 716.379,650.201 714.377,650.201 713.042,650.869 711.708,652.203 711.04,654.205 711.04,655.54 711.708,657.542 713.042,658.876 714.377,659.544 716.379,659.544 717.714,658.876 719.048,657.542 " />
<polyline points="723.719,645.53 723.719,659.544 " />
<polyline points="731.727,650.201 730.393,650.869 729.058,652.203 728.391,654.205 728.391,655.54 729.058,657.542 730.393,658.876 731.727,659.544 733.729,659.544 735.064,658.876 736.398,657.542 737.066,655.54 737.066,654.205 736.398,652.203 735.064,650.869 733.729,650.201 731.727,650.201 " />
<polyline points="749.078,652.203 747.743,650.869 746.408,650.201 744.406,650.201 743.072,650.869 741.737,652.203 741.07,654.205 741.07,655.54 741.737,657.542 743.072,658.876 744.406,659.544 746.408,659.544 747.743,658.876 749.078,657.542 " />
<polyline points="753.081,646.197 753.749,646.865 754.416,646.197 753.749,645.53 753.081,646.197 " />
<polyline points="753.749,650.869 753.749,659.544 " />
<polyline points="759.755,645.53 759.755,656.874 760.422,658.876 761.757,659.544 763.091,659.544 " />
<polyline points="757.753,650.201 762.424,650.201 " />
<polyline points="765.761,650.201 769.764,659.544 " />
<polyline points="773.768,650.201 769.764,659.544 768.43,662.213 767.095,663.548 765.761,664.215 765.093,664.215 " />
<polyline points="779.107,658.876 778.44,659.544 777.772,658.876 778.44,658.209 779.107,658.876 779.107,660.211 778.44,661.546 777.772,662.213 " />
<polyline points="798.459,650.201 798.459,659.544 " />
<polyline points="798.459,652.871 800.461,650.869 801.796,650.201 803.798,650.201 805.132,650.869 805.8,652.871 805.8,659.544 " />
<polyline points="805.8,652.871 807.802,650.869 809.136,650.201 811.138,650.201 812.473,650.869 813.14,652.871 813.14,659.544 " />
<polyline points="829.156,642.861 817.144,664.215 " />
<polyline points="839.833,652.203 839.166,650.869 837.164,650.201 835.162,650.201 833.16,650.869 832.492,652.203 833.16,653.538 834.494,654.205 837.831,654.872 839.166,655.54 839.833,656.874 839.833,657.542 839.166,658.876 837.164,659.544 835.162,659.544 833.16,658.876 832.492,657.542 " />
<polyline points="641.413,614.295 644.082,623.638 " />
<polyline points="646.752,614.295 644.082,623.638 " />
<polyline points="646.752,614.295 649.421,623.638 " />
<polyline points="652.09,614.295 649.421,623.638 " />
<polyline points="656.761,609.624 656.761,623.638 " />
<polyline points="656.761,616.965 658.763,614.963 660.098,614.295 662.1,614.295 663.435,614.963 664.102,616.965 664.102,623.638 " />
<polyline points="668.773,618.299 676.781,618.299 676.781,616.965 676.114,615.63 675.446,614.963 674.112,614.295 672.11,614.295 670.775,614.963 669.44,616.297 668.773,618.299 668.773,619.634 669.44,621.636 670.775,622.97 672.11,623.638 674.112,623.638 675.446,622.97 676.781,621.636 " />
<polyline points="681.452,614.295 681.452,623.638 " />
<polyline points="681.452,618.299 682.12,616.297 683.454,614.963 684.789,614.295 686.791,614.295 " />
<polyline points="689.46,618.299 697.468,618.299 697.468,616.965 696.801,615.63 696.133,614.963 694.799,614.295 692.797,614.295 691.462,614.963 690.127,616.297 689.46,618.299 689.46,619.634 690.127,621.636 691.462,622.97 692.797,623.638 694.799,623.638 696.133,622.97 697.468,621.636 " />
<polyline points="620.952,575.72 610.275,581.726 620.952,587.732 " />
<polyline points="641.639,576.387 642.974,575.72 644.976,573.718 644.976,587.732 " />
<polyline points="654.318,573.718 661.659,573.718 657.655,579.057 659.657,579.057 660.991,579.724 661.659,580.391 662.326,582.393 662.326,583.728 661.659,585.73 660.324,587.064 658.322,587.732 656.32,587.732 654.318,587.064 653.651,586.397 652.984,585.062 " />
<polyline points="681.011,578.389 681.011,587.732 " />
<polyline points="681.011,581.059 683.013,579.057 684.348,578.389 686.35,578.389 687.684,579.057 688.352,581.059 688.352,587.732 " />
<polyline points="688.352,581.059 690.354,579.057 691.688,578.389 693.69,578.389 695.025,579.057 695.692,581.059 695.692,587.732 " />
<polyline points="711.708,571.049 699.696,592.403 " />
<polyline points="722.385,580.391 721.717,579.057 719.716,578.389 717.714,578.389 715.712,579.057 715.044,580.391 715.712,581.726 717.046,582.393 720.383,583.061 721.717,583.728 722.385,585.062 722.385,585.73 721.717,587.064 719.716,587.732 717.714,587.732 715.712,587.064 715.044,585.73 " />
<polyline points="727.723,578.389 727.056,579.057 727.723,579.724 728.391,579.057 727.723,578.389 " />
<polyline points="727.723,586.397 727.056,587.064 727.723,587.732 728.391,587.064 727.723,586.397 " />
<polyline points="747.743,573.718 747.743,587.732 755.751,587.732 " />
<polyline points="773.101,579.724 785.113,579.724 " />
<polyline points="773.101,583.728 785.113,583.728 " />
<polyline points="821.815,573.718 816.477,587.732 " />
<polyline points="821.815,573.718 827.154,587.732 " />
<polyline points="818.479,583.061 825.152,583.061 " />
<polyline points="855.181,571.049 843.169,592.403 " />
<polyline points="859.852,573.718 867.193,573.718 863.189,579.057 865.191,579.057 866.526,579.724 867.193,580.391 867.86,582.393 867.86,583.728 867.193,585.73 865.858,587.064 863.856,587.732 861.854,587.732 859.852,587.064 859.185,586.397 858.518,585.062 " />
<polyline points="879.872,573.718 873.199,573.718 872.531,579.724 873.199,579.057 875.201,578.389 877.203,578.389 879.205,579.057 880.539,580.391 881.207,582.393 881.207,583.728 880.539,585.73 879.205,587.064 877.203,587.732 875.201,587.732 873.199,587.064 872.531,586.397 871.864,585.062 " />
<polyline points="889.214,573.718 887.212,574.385 885.878,576.387 885.211,579.724 885.211,581.726 885.878,585.062 887.212,587.064 889.214,587.732 890.549,587.732 892.551,587.064 893.886,585.062 894.553,581.726 894.553,579.724 893.886,576.387 892.551,574.385 890.549,573.718 889.214,573.718 " />
<polyline points="610.275,539.814 620.952,545.82 610.275,551.826 " />
<polyline points="641.639,540.481 642.974,539.814 644.976,537.812 644.976,551.826 " />
<polyline points="654.318,537.812 661.659,537.812 657.655,543.151 659.657,543.151 660.991,543.818 661.659,544.485 662.326,546.487 662.326,547.822 661.659,549.824 660.324,551.158 658.322,551.826 656.32,551.826 654.318,551.158 653.651,550.491 652.984,549.157 " />
<polyline points="681.011,542.483 681.011,551.826 " />
<polyline points="681.011,545.153 683.013,543.151 684.348,542.483 686.35,542.483 687.684,543.151 688.352,545.153 688.352,551.826 " />
<polyline points="688.352,545.153 690.354,543.151 691.688,542.483 693.69,542.483 695.025,543.151 695.692,545.153 695.692,551.826 " />
<polyline points="711.708,535.143 699.696,556.497 " />
<polyline points="722.385,544.485 721.717,543.151 719.716,542.483 717.714,542.483 715.712,543.151 715.044,544.485 715.712,545.82 717.046,546.487 720.383,547.155 721.717,547.822 722.385,549.157 722.385,549.824 721.717,551.158 719.716,551.826 717.714,551.826 715.712,551.158 715.044,549.824 " />
<polyline points="727.723,542.483 727.056,543.151 727.723,543.818 728.391,543.151 727.723,542.483 " />
<polyline points="727.723,550.491 727.056,551.158 727.723,551.826 728.391,551.158 727.723,550.491 " />
<polyline points="747.743,537.812 747.743,551.826 755.751,551.826 " />
<polyline points="773.101,543.818 785.113,543.818 " />
<polyline points="773.101,547.822 785.113,547.822 " />
<polyline points="802.463,537.812 807.802,551.826 " />
<polyline points="813.14,537.812 807.802,551.826 " />
<polyline points="847.841,537.812 842.502,551.826 " />
<polyline points="847.841,537.812 853.179,551.826 " />
<polyline points="844.504,547.155 851.177,547.155 " />
<polyline points="881.207,535.143 869.195,556.497 " />
<polyline points="891.216,537.812 884.543,547.155 894.553,547.155 " />
<polyline points="891.216,537.812 891.216,551.826 " />
<polyline points="899.892,551.158 899.224,551.826 898.557,551.158 899.224,550.491 899.892,551.158 899.892,552.493 899.224,553.828 898.557,554.495 " />
<polyline points="912.571,537.812 905.897,537.812 905.23,543.818 905.897,543.151 907.899,542.483 909.901,542.483 911.903,543.151 913.238,544.485 913.905,546.487 913.905,547.822 913.238,549.824 911.903,551.158 909.901,551.826 907.899,551.826 905.897,551.158 905.23,550.491 904.563,549.157 " />
<polyline points="921.913,537.812 919.911,538.479 918.576,540.481 917.909,543.818 917.909,545.82 918.576,549.157 919.911,551.158 921.913,551.826 923.248,551.826 925.25,551.158 926.584,549.157 927.252,545.82 927.252,543.818 926.584,540.481 925.25,538.479 923.248,537.812 921.913,537.812 " />
<polyline points="935.259,537.812 933.257,538.479 931.923,540.481 931.256,543.818 931.256,545.82 931.923,549.157 933.257,551.158 935.259,551.826 936.594,551.826 938.596,551.158 939.931,549.157 940.598,545.82 940.598,543.818 939.931,540.481 938.596,538.479 936.594,537.812 935.259,537.812 " />
<polyline points="810.428,716.824 810.428,716.424 810.829,715.623 811.229,715.222 812.03,714.822 813.631,714.822 814.432,715.222 814.833,715.623 815.233,716.424 815.233,717.224 814.833,718.025 814.032,719.226 810.028,723.23 815.633,723.23 " />
<polyline points="308.227,546.909 307.026,547.309 306.225,548.511 305.825,550.513 305.825,551.714 306.225,553.716 307.026,554.917 308.227,555.317 309.028,555.317 310.229,554.917 311.03,553.716 311.43,551.714 311.43,550.513 311.03,548.511 310.229,547.309 309.028,546.909 308.227,546.909 " />
<polyline points="117.47,615.043 120.14,624.386 " />
<polyline points="122.809,615.043 120.14,624.386 " />
<polyline points="122.809,615.043 125.478,624.386 " />
<polyline points="128.147,615.043 125.478,624.386 " />
<polyline points="132.819,610.372 132.819,624.386 " />
<polyline points="132.819,617.713 134.821,615.711 136.155,615.043 138.157,615.043 139.492,615.711 140.159,617.713 140.159,624.386 " />
<polyline points="144.83,619.047 152.838,619.047 152.838,617.713 152.171,616.378 151.504,615.711 150.169,615.043 148.167,615.043 146.832,615.711 145.498,617.045 144.83,619.047 144.83,620.382 145.498,622.384 146.832,623.718 148.167,624.386 150.169,624.386 151.504,623.718 152.838,622.384 " />
<polyline points="157.51,615.043 157.51,624.386 " />
<polyline points="157.51,619.047 158.177,617.045 159.511,615.711 160.846,615.043 162.848,615.043 " />
<polyline points="165.517,619.047 173.525,619.047 173.525,617.713 172.858,616.378 172.191,615.711 170.856,615.043 168.854,615.043 167.519,615.711 166.185,617.045 165.517,619.047 165.517,620.382 166.185,622.384 167.519,623.718 168.854,624.386 170.856,624.386 172.191,623.718 173.525,622.384 " />
<polyline points="86.0207,591.667 96.827,591.667 " />
<polyline points="51.0562,573.718 56.3947,587.732 " />
<polyline points="61.7333,573.718 56.3947,587.732 " />
<polyline points="65.3233,582.21 64.1222,582.611 63.3214,583.812 62.921,585.814 62.921,587.015 63.3214,589.017 64.1222,590.218 65.3233,590.618 66.1241,590.618 67.3253,590.218 68.1261,589.017 68.5265,587.015 68.5265,585.814 68.1261,583.812 67.3253,582.611 66.1241,582.21 65.3233,582.21 " />
<polyline points="96.649,575.72 85.9719,581.726 96.649,587.732 " />
<polyline points="116.001,577.055 116.001,576.387 116.669,575.053 117.336,574.385 118.671,573.718 121.34,573.718 122.674,574.385 123.342,575.053 124.009,576.387 124.009,577.722 123.342,579.057 122.007,581.059 115.334,587.732 124.676,587.732 " />
<polyline points="136.688,573.718 130.015,573.718 129.348,579.724 130.015,579.057 132.017,578.389 134.019,578.389 136.021,579.057 137.355,580.391 138.023,582.393 138.023,583.728 137.355,585.73 136.021,587.064 134.019,587.732 132.017,587.732 130.015,587.064 129.348,586.397 128.68,585.062 " />
<polyline points="146.031,573.718 144.029,574.385 142.694,576.387 142.027,579.724 142.027,581.726 142.694,585.062 144.029,587.064 146.031,587.732 147.365,587.732 149.367,587.064 150.702,585.062 151.369,581.726 151.369,579.724 150.702,576.387 149.367,574.385 147.365,573.718 146.031,573.718 " />
<polyline points="159.377,573.718 157.375,574.385 156.04,576.387 155.373,579.724 155.373,581.726 156.04,585.062 157.375,587.064 159.377,587.732 160.712,587.732 162.714,587.064 164.048,585.062 164.716,581.726 164.716,579.724 164.048,576.387 162.714,574.385 160.712,573.718 159.377,573.718 " />
<polyline points="187.404,573.718 186.07,573.718 184.735,574.385 184.068,576.387 184.068,587.732 " />
<polyline points="182.066,578.389 186.737,578.389 " />
<polyline points="191.408,578.389 191.408,592.403 " />
<polyline points="191.408,580.391 192.743,579.057 194.078,578.389 196.08,578.389 197.414,579.057 198.749,580.391 199.416,582.393 199.416,583.728 198.749,585.73 197.414,587.064 196.08,587.732 194.078,587.732 192.743,587.064 191.408,585.73 " />
<polyline points="204.087,578.389 204.087,587.732 " />
<polyline points="204.087,581.059 206.089,579.057 207.424,578.389 209.426,578.389 210.761,579.057 211.428,581.059 211.428,587.732 " />
<polyline points="211.428,581.059 213.43,579.057 214.764,578.389 216.766,578.389 218.101,579.057 218.768,581.059 218.768,587.732 " />
<polyline points="224.774,578.389 224.107,579.057 224.774,579.724 225.442,579.057 224.774,578.389 " />
<polyline points="224.774,586.397 224.107,587.064 224.774,587.732 225.442,587.064 224.774,586.397 " />
<polyline points="264.853,579.724 276.865,579.724 " />
<polyline points="264.853,583.728 276.865,583.728 " />
<polyline points="250.042,589.04 255.915,589.04 255.915,588.061 255.426,587.082 254.936,586.593 253.957,586.104 252.489,586.104 251.511,586.593 250.532,587.572 250.042,589.04 250.042,590.018 250.532,591.487 251.511,592.465 252.489,592.955 253.957,592.955 254.936,592.465 255.915,591.487 " />
<polyline points="236.861,574.002 236.861,588.016 244.868,588.016 " />
<polyline points="329.558,582.617 328.356,583.017 327.556,584.219 327.155,586.22 327.155,587.422 327.556,589.424 328.356,590.625 329.558,591.025 330.358,591.025 331.56,590.625 332.36,589.424 332.761,587.422 332.761,586.22 332.36,584.219 331.56,583.017 330.358,582.617 329.558,582.617 " />
<polyline points="317.577,574.002 312.238,588.016 " />
<polyline points="317.577,574.002 322.915,588.016 " />
<polyline points="314.24,583.345 320.914,583.345 " />
<polyline points="293.751,587.179 297.61,581.569 " />
<polyline points="297.61,581.569 302.241,593.911 " />
<polyline points="302.241,593.911 308.416,570.348 " />
<polyline points="308.416,570.348 333.888,570.348 " />
<polyline points="353.284,571.333 341.272,592.687 " />
<polyline points="363.294,574.002 356.62,583.345 366.63,583.345 " />
<polyline points="363.294,574.002 363.294,588.016 " />
<polyline points="371.301,586.681 370.634,587.349 371.301,588.016 371.969,587.349 371.301,586.681 " />
<polyline points="377.975,574.002 385.315,574.002 381.311,579.341 383.313,579.341 384.648,580.008 385.315,580.676 385.982,582.678 385.982,584.012 385.315,586.014 383.981,587.349 381.979,588.016 379.977,588.016 377.975,587.349 377.307,586.681 376.64,585.347 " />
<polyline points="376.379,535.427 364.367,556.781 " />
<polyline points="381.717,540.766 383.052,540.098 385.054,538.096 385.054,552.11 " />
<polyline points="397.065,538.096 395.063,538.764 393.729,540.766 393.062,544.102 393.062,546.104 393.729,549.441 395.063,551.443 397.065,552.11 398.4,552.11 400.402,551.443 401.737,549.441 402.404,546.104 402.404,544.102 401.737,540.766 400.402,538.764 398.4,538.096 397.065,538.096 " />
<polyline points="408.41,551.443 407.743,552.11 407.075,551.443 407.743,550.775 408.41,551.443 408.41,552.777 407.743,554.112 407.075,554.779 " />
<polyline points="421.756,540.098 421.089,538.764 419.087,538.096 417.752,538.096 415.75,538.764 414.416,540.766 413.748,544.102 413.748,547.439 414.416,550.108 415.75,551.443 417.752,552.11 418.42,552.11 420.422,551.443 421.756,550.108 422.424,548.106 422.424,547.439 421.756,545.437 420.422,544.102 418.42,543.435 417.752,543.435 415.75,544.102 414.416,545.437 413.748,547.439 " />
<polyline points="430.431,538.096 428.429,538.764 427.095,540.766 426.427,544.102 426.427,546.104 427.095,549.441 428.429,551.443 430.431,552.11 431.766,552.11 433.768,551.443 435.103,549.441 435.77,546.104 435.77,544.102 435.103,540.766 433.768,538.764 431.766,538.096 430.431,538.096 " />
<polyline points="443.778,538.096 441.776,538.764 440.441,540.766 439.774,544.102 439.774,546.104 440.441,549.441 441.776,551.443 443.778,552.11 445.112,552.11 447.114,551.443 448.449,549.441 449.116,546.104 449.116,544.102 448.449,540.766 447.114,538.764 445.112,538.096 443.778,538.096 " />
<polyline points="331.993,534.442 357.465,534.442 " />
<polyline points="325.818,558.006 331.993,534.442 " />
<polyline points="321.187,545.663 325.818,558.006 " />
<polyline points="317.328,551.273 321.187,545.663 " />
<polyline points="341.154,538.096 335.815,552.11 " />
<polyline points="341.154,538.096 346.493,552.11 " />
<polyline points="337.817,547.439 344.491,547.439 " />
<polyline points="353.135,546.711 351.934,547.111 351.133,548.313 350.732,550.315 350.732,551.516 351.133,553.518 351.934,554.719 353.135,555.119 353.935,555.119 355.137,554.719 355.937,553.518 356.338,551.516 356.338,550.315 355.937,548.313 355.137,547.111 353.935,546.711 353.135,546.711 " />
<polyline points="236.861,538.096 236.861,552.11 244.868,552.11 " />
<polyline points="249.56,551.687 255.433,551.687 255.433,550.708 254.943,549.729 254.454,549.24 253.475,548.75 252.007,548.75 251.028,549.24 250.049,550.219 249.56,551.687 249.56,552.665 250.049,554.133 251.028,555.112 252.007,555.602 253.475,555.602 254.454,555.112 255.433,554.133 " />
<polyline points="264.853,543.818 276.865,543.818 " />
<polyline points="264.853,547.822 276.865,547.822 " />
<polyline points="294.215,537.812 299.554,551.826 " />
<polyline points="304.892,537.812 299.554,551.826 " />
<polyline points="85.9719,539.814 96.649,545.82 85.9719,551.826 " />
<polyline points="116.001,541.149 116.001,540.481 116.669,539.147 117.336,538.479 118.671,537.812 121.34,537.812 122.674,538.479 123.342,539.147 124.009,540.481 124.009,541.816 123.342,543.151 122.007,545.153 115.334,551.826 124.676,551.826 " />
<polyline points="136.688,537.812 130.015,537.812 129.348,543.818 130.015,543.151 132.017,542.483 134.019,542.483 136.021,543.151 137.355,544.485 138.023,546.487 138.023,547.822 137.355,549.824 136.021,551.158 134.019,551.826 132.017,551.826 130.015,551.158 129.348,550.491 128.68,549.157 " />
<polyline points="146.031,537.812 144.029,538.479 142.694,540.481 142.027,543.818 142.027,545.82 142.694,549.157 144.029,551.158 146.031,551.826 147.365,551.826 149.367,551.158 150.702,549.157 151.369,545.82 151.369,543.818 150.702,540.481 149.367,538.479 147.365,537.812 146.031,537.812 " />
<polyline points="159.377,537.812 157.375,538.479 156.04,540.481 155.373,543.818 155.373,545.82 156.04,549.157 157.375,551.158 159.377,551.826 160.712,551.826 162.714,551.158 164.048,549.157 164.716,545.82 164.716,543.818 164.048,540.481 162.714,538.479 160.712,537.812 159.377,537.812 " />
<polyline points="187.404,537.812 186.07,537.812 184.735,538.479 184.068,540.481 184.068,551.826 " />
<polyline points="182.066,542.483 186.737,542.483 " />
<polyline points="191.408,542.483 191.408,556.497 " />
<polyline points="191.408,544.485 192.743,543.151 194.078,542.483 196.08,542.483 197.414,543.151 198.749,544.485 199.416,546.487 199.416,547.822 198.749,549.824 197.414,551.158 196.08,551.826 194.078,551.826 192.743,551.158 191.408,549.824 " />
<polyline points="204.087,542.483 204.087,551.826 " />
<polyline points="204.087,545.153 206.089,543.151 207.424,542.483 209.426,542.483 210.761,543.151 211.428,545.153 211.428,551.826 " />
<polyline points="211.428,545.153 213.43,543.151 214.764,542.483 216.766,542.483 218.101,543.151 218.768,545.153 218.768,551.826 " />
<polyline points="224.774,542.483 224.107,543.151 224.774,543.818 225.442,543.151 224.774,542.483 " />
<polyline points="224.774,550.491 224.107,551.158 224.774,551.826 225.442,551.158 224.774,550.491 " />
<polyline points="66.0231,546.305 64.8219,546.705 64.0211,547.906 63.6207,549.908 63.6207,551.109 64.0211,553.111 64.8219,554.312 66.0231,554.713 66.8239,554.713 68.025,554.312 68.8258,553.111 69.2262,551.109 69.2262,549.908 68.8258,547.906 68.025,546.705 66.8239,546.305 66.0231,546.305 " />
<polyline points="51.0562,537.812 56.3947,551.826 " />
<polyline points="61.7333,537.812 56.3947,551.826 " />
<polyline points="66.0231,654.142 64.8219,654.542 64.0211,655.743 63.6207,657.745 63.6207,658.946 64.0211,660.948 64.8219,662.15 66.0231,662.55 66.8239,662.55 68.025,662.15 68.8258,660.948 69.2262,658.946 69.2262,657.745 68.8258,655.743 68.025,654.542 66.8239,654.142 66.0231,654.142 " />
<polyline points="51.0562,645.53 56.3947,659.544 " />
<polyline points="61.7333,645.53 56.3947,659.544 " />
<polyline points="85.9719,651.536 97.9837,651.536 " />
<polyline points="85.9719,655.54 97.9837,655.54 " />
<polyline points="124.676,645.53 124.676,659.544 " />
<polyline points="124.676,652.203 123.342,650.869 122.007,650.201 120.005,650.201 118.671,650.869 117.336,652.203 116.669,654.205 116.669,655.54 117.336,657.542 118.671,658.876 120.005,659.544 122.007,659.544 123.342,658.876 124.676,657.542 " />
<polyline points="130.015,650.201 130.015,656.874 130.682,658.876 132.017,659.544 134.019,659.544 135.354,658.876 137.355,656.874 " />
<polyline points="137.355,650.201 137.355,659.544 " />
<polyline points="150.035,652.203 148.7,650.869 147.365,650.201 145.363,650.201 144.029,650.869 142.694,652.203 142.027,654.205 142.027,655.54 142.694,657.542 144.029,658.876 145.363,659.544 147.365,659.544 148.7,658.876 150.035,657.542 " />
<polyline points="155.373,645.53 155.373,656.874 156.04,658.876 157.375,659.544 158.71,659.544 " />
<polyline points="153.371,650.201 158.042,650.201 " />
<polyline points="175.393,650.201 179.397,659.544 " />
<polyline points="183.4,650.201 179.397,659.544 " />
<polyline points="186.737,654.205 194.745,654.205 194.745,652.871 194.078,651.536 193.41,650.869 192.076,650.201 190.074,650.201 188.739,650.869 187.404,652.203 186.737,654.205 186.737,655.54 187.404,657.542 188.739,658.876 190.074,659.544 192.076,659.544 193.41,658.876 194.745,657.542 " />
<polyline points="199.416,645.53 199.416,659.544 " />
<polyline points="207.424,650.201 206.089,650.869 204.755,652.203 204.087,654.205 204.087,655.54 204.755,657.542 206.089,658.876 207.424,659.544 209.426,659.544 210.761,658.876 212.095,657.542 212.762,655.54 212.762,654.205 212.095,652.203 210.761,650.869 209.426,650.201 207.424,650.201 " />
<polyline points="224.774,652.203 223.44,650.869 222.105,650.201 220.103,650.201 218.768,650.869 217.434,652.203 216.766,654.205 216.766,655.54 217.434,657.542 218.768,658.876 220.103,659.544 222.105,659.544 223.44,658.876 224.774,657.542 " />
<polyline points="228.778,646.197 229.445,646.865 230.113,646.197 229.445,645.53 228.778,646.197 " />
<polyline points="229.445,650.869 229.445,659.544 " />
<polyline points="235.451,645.53 235.451,656.874 236.119,658.876 237.453,659.544 238.788,659.544 " />
<polyline points="233.449,650.201 238.121,650.201 " />
<polyline points="241.457,650.201 245.461,659.544 " />
<polyline points="249.465,650.201 245.461,659.544 244.126,662.213 242.792,663.548 241.457,664.215 240.79,664.215 " />
<polyline points="254.804,658.876 254.136,659.544 253.469,658.876 254.136,658.209 254.804,658.876 254.804,660.211 254.136,661.546 253.469,662.213 " />
<polyline points="278.16,645.53 276.825,645.53 275.49,646.197 274.823,648.199 274.823,659.544 " />
<polyline points="272.821,650.201 277.492,650.201 " />
<polyline points="282.164,650.201 282.164,664.215 " />
<polyline points="282.164,652.203 283.498,650.869 284.833,650.201 286.835,650.201 288.169,650.869 289.504,652.203 290.171,654.205 290.171,655.54 289.504,657.542 288.169,658.876 286.835,659.544 284.833,659.544 283.498,658.876 282.164,657.542 " />
<polyline points="294.843,650.201 294.843,659.544 " />
<polyline points="294.843,652.871 296.845,650.869 298.179,650.201 300.181,650.201 301.516,650.869 302.183,652.871 302.183,659.544 " />
<polyline points="302.183,652.871 304.185,650.869 305.52,650.201 307.522,650.201 308.856,650.869 309.524,652.871 309.524,659.544 " />
<polyline points="260.683,718.101 260.683,717.7 261.084,716.899 261.484,716.499 262.285,716.099 263.886,716.099 264.687,716.499 265.087,716.899 265.488,717.7 265.488,718.501 265.087,719.302 264.287,720.503 260.283,724.507 265.888,724.507 " />
<polyline points="53.0581,681.436 53.0581,695.45 61.066,695.45 " />
<polyline points="66.6866,695.783 72.559,695.783 72.559,694.804 72.0696,693.826 71.5803,693.336 70.6015,692.847 69.1334,692.847 68.1547,693.336 67.176,694.315 66.6866,695.783 66.6866,696.762 67.176,698.23 68.1547,699.209 69.1334,699.698 70.6015,699.698 71.5803,699.209 72.559,698.23 " />
<polyline points="56.3947,717.342 51.0562,731.356 " />
<polyline points="56.3947,717.342 61.7333,731.356 " />
<polyline points="53.0581,726.684 59.7313,726.684 " />
<polyline points="68.1223,726.341 66.9211,726.741 66.1203,727.942 65.7199,729.944 65.7199,731.145 66.1203,733.147 66.9211,734.349 68.1223,734.749 68.9231,734.749 70.1242,734.349 70.925,733.147 71.3254,731.145 71.3254,729.944 70.925,727.942 70.1242,726.741 68.9231,726.341 68.1223,726.341 " />
<polyline points="85.9719,687.442 97.9837,687.442 " />
<polyline points="85.9719,691.446 97.9837,691.446 " />
<polyline points="116.669,690.111 124.676,690.111 124.676,688.777 124.009,687.442 123.342,686.775 122.007,686.107 120.005,686.107 118.671,686.775 117.336,688.109 116.669,690.111 116.669,691.446 117.336,693.448 118.671,694.782 120.005,695.45 122.007,695.45 123.342,694.782 124.676,693.448 " />
<polyline points="133.352,681.436 132.017,681.436 130.682,682.103 130.015,684.105 130.015,695.45 " />
<polyline points="128.013,686.107 132.684,686.107 " />
<polyline points="141.359,681.436 140.025,681.436 138.69,682.103 138.023,684.105 138.023,695.45 " />
<polyline points="136.021,686.107 140.692,686.107 " />
<polyline points="144.696,690.111 152.704,690.111 152.704,688.777 152.036,687.442 151.369,686.775 150.035,686.107 148.033,686.107 146.698,686.775 145.363,688.109 144.696,690.111 144.696,691.446 145.363,693.448 146.698,694.782 148.033,695.45 150.035,695.45 151.369,694.782 152.704,693.448 " />
<polyline points="164.716,688.109 163.381,686.775 162.046,686.107 160.044,686.107 158.71,686.775 157.375,688.109 156.708,690.111 156.708,691.446 157.375,693.448 158.71,694.782 160.044,695.45 162.046,695.45 163.381,694.782 164.716,693.448 " />
<polyline points="170.054,681.436 170.054,692.78 170.721,694.782 172.056,695.45 173.391,695.45 " />
<polyline points="168.052,686.107 172.723,686.107 " />
<polyline points="176.727,682.103 177.395,682.771 178.062,682.103 177.395,681.436 176.727,682.103 " />
<polyline points="177.395,686.775 177.395,695.45 " />
<polyline points="181.398,686.107 185.402,695.45 " />
<polyline points="189.406,686.107 185.402,695.45 " />
<polyline points="192.743,690.111 200.751,690.111 200.751,688.777 200.083,687.442 199.416,686.775 198.081,686.107 196.08,686.107 194.745,686.775 193.41,688.109 192.743,690.111 192.743,691.446 193.41,693.448 194.745,694.782 196.08,695.45 198.081,695.45 199.416,694.782 200.751,693.448 " />
<polyline points="226.776,681.436 226.776,695.45 " />
<polyline points="226.776,688.109 225.442,686.775 224.107,686.107 222.105,686.107 220.77,686.775 219.436,688.109 218.768,690.111 218.768,691.446 219.436,693.448 220.77,694.782 222.105,695.45 224.107,695.45 225.442,694.782 226.776,693.448 " />
<polyline points="232.115,686.107 232.115,692.78 232.782,694.782 234.117,695.45 236.119,695.45 237.453,694.782 239.455,692.78 " />
<polyline points="239.455,686.107 239.455,695.45 " />
<polyline points="252.134,688.109 250.8,686.775 249.465,686.107 247.463,686.107 246.128,686.775 244.794,688.109 244.126,690.111 244.126,691.446 244.794,693.448 246.128,694.782 247.463,695.45 249.465,695.45 250.8,694.782 252.134,693.448 " />
<polyline points="257.473,681.436 257.473,692.78 258.14,694.782 259.475,695.45 260.809,695.45 " />
<polyline points="255.471,686.107 260.142,686.107 " />
<polyline points="278.827,681.436 278.827,695.45 " />
<polyline points="283.498,690.111 291.506,690.111 291.506,688.777 290.839,687.442 290.171,686.775 288.837,686.107 286.835,686.107 285.5,686.775 284.166,688.109 283.498,690.111 283.498,691.446 284.166,693.448 285.5,694.782 286.835,695.45 288.837,695.45 290.171,694.782 291.506,693.448 " />
<polyline points="296.177,686.107 296.177,695.45 " />
<polyline points="296.177,688.777 298.179,686.775 299.514,686.107 301.516,686.107 302.85,686.775 303.518,688.777 303.518,695.45 " />
<polyline points="316.197,686.107 316.197,696.784 315.53,698.786 314.862,699.454 313.528,700.121 311.526,700.121 310.191,699.454 " />
<polyline points="316.197,688.109 314.862,686.775 313.528,686.107 311.526,686.107 310.191,686.775 308.856,688.109 308.189,690.111 308.189,691.446 308.856,693.448 310.191,694.782 311.526,695.45 313.528,695.45 314.862,694.782 316.197,693.448 " />
<polyline points="322.203,681.436 322.203,692.78 322.87,694.782 324.205,695.45 325.539,695.45 " />
<polyline points="320.201,686.107 324.872,686.107 " />
<polyline points="329.543,681.436 329.543,695.45 " />
<polyline points="329.543,688.777 331.545,686.775 332.88,686.107 334.882,686.107 336.216,686.775 336.884,688.777 336.884,695.45 " />
<polyline points="343.557,694.782 342.89,695.45 342.222,694.782 342.89,694.115 343.557,694.782 343.557,696.117 342.89,697.452 342.222,698.119 " />
<polyline points="366.913,681.436 365.578,681.436 364.244,682.103 363.576,684.105 363.576,695.45 " />
<polyline points="361.575,686.107 366.246,686.107 " />
<polyline points="371.584,681.436 371.584,692.78 372.252,694.782 373.586,695.45 374.921,695.45 " />
<polyline points="369.582,686.107 374.254,686.107 " />
<polyline points="85.9719,723.348 97.9837,723.348 " />
<polyline points="85.9719,727.352 97.9837,727.352 " />
<polyline points="124.676,717.342 124.676,731.356 " />
<polyline points="124.676,724.015 123.342,722.681 122.007,722.013 120.005,722.013 118.671,722.681 117.336,724.015 116.669,726.017 116.669,727.352 117.336,729.354 118.671,730.688 120.005,731.356 122.007,731.356 123.342,730.688 124.676,729.354 " />
<polyline points="130.015,722.013 130.015,728.686 130.682,730.688 132.017,731.356 134.019,731.356 135.354,730.688 137.355,728.686 " />
<polyline points="137.355,722.013 137.355,731.356 " />
<polyline points="150.035,724.015 148.7,722.681 147.365,722.013 145.363,722.013 144.029,722.681 142.694,724.015 142.027,726.017 142.027,727.352 142.694,729.354 144.029,730.688 145.363,731.356 147.365,731.356 148.7,730.688 150.035,729.354 " />
<polyline points="155.373,717.342 155.373,728.686 156.04,730.688 157.375,731.356 158.71,731.356 " />
<polyline points="153.371,722.013 158.042,722.013 " />
<polyline points="184.068,722.013 184.068,731.356 " />
<polyline points="184.068,724.015 182.733,722.681 181.398,722.013 179.397,722.013 178.062,722.681 176.727,724.015 176.06,726.017 176.06,727.352 176.727,729.354 178.062,730.688 179.397,731.356 181.398,731.356 182.733,730.688 184.068,729.354 " />
<polyline points="189.406,722.013 189.406,731.356 " />
<polyline points="189.406,726.017 190.074,724.015 191.408,722.681 192.743,722.013 194.745,722.013 " />
<polyline points="197.414,726.017 205.422,726.017 205.422,724.682 204.755,723.348 204.087,722.681 202.753,722.013 200.751,722.013 199.416,722.681 198.081,724.015 197.414,726.017 197.414,727.352 198.081,729.354 199.416,730.688 200.751,731.356 202.753,731.356 204.087,730.688 205.422,729.354 " />
<polyline points="217.434,722.013 217.434,731.356 " />
<polyline points="217.434,724.015 216.099,722.681 214.764,722.013 212.762,722.013 211.428,722.681 210.093,724.015 209.426,726.017 209.426,727.352 210.093,729.354 211.428,730.688 212.762,731.356 214.764,731.356 216.099,730.688 217.434,729.354 " />
<polyline points="224.107,730.688 223.44,731.356 222.772,730.688 223.44,730.021 224.107,730.688 224.107,732.023 223.44,733.358 222.772,734.025 " />
<polyline points="242.792,718.009 243.459,718.677 244.126,718.009 243.459,717.342 242.792,718.009 " />
<polyline points="243.459,722.681 243.459,731.356 " />
<polyline points="248.798,722.013 248.798,731.356 " />
<polyline points="248.798,724.682 250.8,722.681 252.134,722.013 254.136,722.013 255.471,722.681 256.138,724.682 256.138,731.356 " />
</g>
<g clip-path="url(#clipId0)" fill="rgb(0,0,0)" stroke="rgb(0,0,0)" stroke-width="0.25" >
<path d="M205.851,389.311 204.508,384.837 191.757,391.101 191.757,391.101 z" />
</g>
<g clip-path="url(#clipId0)" fill="none" stroke="rgb(0,0,0)" stroke-width="0.25" >
<polyline points="205.18,387.074 294.546,360.264 " />
<polyline points="294.546,360.264 308.559,360.264 " />
</g>
<g clip-path="url(#clipId0)" fill="rgb(0,0,0)" stroke="rgb(0,0,0)" stroke-width="0.25" >
<path d="M797.487,233.679 792.815,233.679 795.151,247.692 795.151,247.692 z" />
<path d="M776.438,233.679 771.767,233.679 774.102,247.692 774.102,247.692 z" />
<path d="M807.508,270.09 804.567,266.461 795.151,277.1 795.151,277.1 z" />
</g>
<g clip-path="url(#clipId0)" fill="none" stroke="rgb(0,0,0)" stroke-width="0.25" >
<polyline points="806.037,268.275 828.279,250.246 " />
<polyline points="828.279,250.246 842.293,250.246 " />
<polyline points="853.37,243.239 853.37,257.253 " />
<polyline points="862.713,243.239 862.713,257.253 " />
<polyline points="853.37,249.912 862.713,249.912 " />
<polyline points="881.397,247.91 888.738,257.253 " />
<polyline points="888.738,247.91 881.397,257.253 " />
<polyline points="906.088,243.239 909.425,257.253 " />
<polyline points="912.761,243.239 909.425,257.253 " />
<polyline points="912.761,243.239 916.098,257.253 " />
<polyline points="919.435,243.239 916.098,257.253 " />
<polyline points="774.102,186.46 774.102,138.506 " />
<polyline points="795.151,213.249 795.151,190.231 " />
<polyline points="904.42,742.853 902.462,740.896 899.526,739.917 895.611,739.917 892.675,740.896 890.717,742.853 890.717,744.811 891.696,746.768 892.675,747.747 894.632,748.726 900.505,750.683 902.462,751.662 903.441,752.641 904.42,754.598 904.42,757.534 902.462,759.492 899.526,760.471 895.611,760.471 892.675,759.492 890.717,757.534 " />
<polyline points="911.271,739.917 911.271,760.471 " />
<polyline points="911.271,739.917 920.079,739.917 923.016,740.896 923.994,741.875 924.973,743.832 924.973,745.79 923.994,747.747 923.016,748.726 920.079,749.705 911.271,749.705 " />
<polyline points="918.122,749.705 924.973,760.471 " />
<polyline points="944.548,739.917 934.76,760.471 " />
<polyline points="930.846,739.917 944.548,739.917 " />
<polyline points="951.399,751.662 969.016,751.662 " />
<polyline points="978.804,743.832 980.761,742.853 983.697,739.917 983.697,760.471 " />
<polyline points="996.421,744.811 996.421,743.832 997.399,741.875 998.378,740.896 1000.34,739.917 1004.25,739.917 1006.21,740.896 1007.19,741.875 1008.17,743.832 1008.17,745.79 1007.19,747.747 1005.23,750.683 995.442,760.471 1009.14,760.471 " />
</g>
</svg>
