<?xml version="1.0" standalone="no"?>
<svg viewBox="0 0 1024 768" version="1.1" xmlns="http://www.w3.org/2000/svg" xmlns:xlink="http://www.w3.org/1999/xlink" stroke-linecap="round" stroke-linejoin="round" fill-rule="evenodd" xml:space="preserve" >
<defs >
<clipPath id="clipId0" >
<path d="M0,768 1024,768 1024,0 0,0 z" />
</clipPath>
</defs>
<g clip-path="url(#clipId0)" fill="none" stroke="rgb(0,0,0)" stroke-width="0.1" />
<g clip-path="url(#clipId0)" fill="none" stroke="rgb(0,0,0)" stroke-width="0.25" >
<polyline points="196.201,88.8386 196.201,204.386 " />
</g>
<g clip-path="url(#clipId0)" fill="rgb(0,0,0)" stroke="rgb(0,0,0)" stroke-width="0.25" >
<path d="M199.575,88.8386 192.827,88.8386 196.201,68.5952 196.201,68.5952 z" />
</g>
<g clip-path="url(#clipId0)" fill="none" stroke="rgb(0,0,0)" stroke-width="0.25" >
<polyline points="232.713,230.473 232.713,517.07 " />
<polyline points="165.235,432.907 165.235,449.592 " />
<circle cx="165.235" cy="517.07" r="33.7391" />
<path d="M165.235,449.592  A67.4781,67.4781 0 1,0 232.713,517.07 " />
<polyline points="165.235,432.907 232.713,432.907 " />
<polyline points="129.54,230.473 232.713,230.473 " />
<polyline points="165.235,432.907 129.54,230.473 " />
<circle cx="165.235" cy="517.07" r="40.4869" />
<circle cx="165.235" cy="517.07" r="6.74781" />
<path d="M204.939,325.04  A114.942,114.942 0 0,0 185.4,319.748 " />
<path d="M125.727,324.968  A114.942,114.942 0 0,0 107.403,333.574 " />
<polyline points="165.235,293.673 165.235,424.473 " />
</g>
<g clip-path="url(#clipId0)" fill="rgb(0,0,0)" stroke="rgb(0,0,0)" stroke-width="0.25" >
<path d="M185.103,323.109 185.697,316.387 165.235,317.965 165.235,317.965 z" />
<path d="M126.603,328.227 124.85,321.71 145.275,319.711 145.275,319.711 z" />
</g>
<g clip-path="url(#clipId0)" fill="none" stroke="rgb(0,0,0)" stroke-width="0.25" >
<polyline points="578.871,584.548 646.349,584.548 " />
<polyline points="578.871,432.907 646.349,432.907 " />
<polyline points="578.871,584.548 578.871,230.473 " />
<polyline points="646.349,584.548 646.349,230.473 " />
<polyline points="554.803,510.322 578.871,510.322 " />
<polyline points="554.803,523.818 578.871,523.818 " />
<polyline points="554.803,523.818 554.803,510.322 " />
<path d="M646.349,483.331  A6.74781,6.74781 0 0,0 653.097,476.583 " />
<path d="M653.097,557.557  A6.74781,6.74781 0 0,0 646.349,550.809 " />
<polyline points="653.097,476.583 653.097,557.557 " />
<polyline points="520.478,517.07 704.741,517.07 " stroke-dasharray="84.347669,16.869534,16.869534,16.869534" />
</g>
<g clip-path="url(#clipId0)" fill="rgb(0,0,0)" stroke="rgb(0,0,0)" stroke-width="0.25" >
<path d="M627.505,216.355 622.121,212.287 612.61,230.473 612.61,230.473 z" />
</g>
<g clip-path="url(#clipId0)" fill="none" stroke="rgb(0,0,0)" stroke-width="0.25" >
<polyline points="624.813,214.321 697.78,117.749 " />
<polyline points="697.78,117.749 718.023,117.749 " />
<polyline points="697.78,320.184 718.023,320.184 " />
<polyline points="624.813,416.756 697.78,320.184 " />
</g>
<g clip-path="url(#clipId0)" fill="rgb(0,0,0)" stroke="rgb(0,0,0)" stroke-width="0.25" >
<path d="M627.505,418.79 622.121,414.722 612.61,432.907 612.61,432.907 z" />
</g>
<g clip-path="url(#clipId0)" fill="none" stroke="rgb(0,0,0)" stroke-width="0.25" >
<polyline points="73.1034,517.07 257.366,517.07 " stroke-dasharray="84.347669,16.869534,16.869534,16.869534" />
<polyline points="578.871,230.473 646.349,230.473 " />
<polyline points="72.7895,7.52941 72.7895,27.7729 " />
<polyline points="72.7895,7.52941 85.3212,7.52941 " />
<polyline points="72.7895,17.1691 80.5013,17.1691 " />
<polyline points="90.1411,7.52941 90.1411,27.7729 " />
<polyline points="90.1411,7.52941 98.8168,7.52941 101.709,8.49339 102.673,9.45736 103.637,11.3853 103.637,13.3133 102.673,15.2412 101.709,16.2052 98.8168,17.1691 90.1411,17.1691 " />
<polyline points="96.8889,17.1691 103.637,27.7729 " />
<polyline points="110.385,7.52941 110.385,27.7729 " />
<polyline points="110.385,7.52941 122.916,7.52941 " />
<polyline points="110.385,17.1691 118.096,17.1691 " />
<polyline points="110.385,27.7729 122.916,27.7729 " />
<polyline points="128.7,7.52941 128.7,27.7729 " />
<polyline points="128.7,7.52941 141.232,7.52941 " />
<polyline points="128.7,17.1691 136.412,17.1691 " />
<polyline points="128.7,27.7729 141.232,27.7729 " />
<polyline points="167.259,7.52941 167.259,27.7729 " />
<polyline points="167.259,7.52941 174.007,7.52941 176.899,8.49339 178.827,10.4213 179.791,12.3493 180.755,15.2412 180.755,20.0611 179.791,22.953 178.827,24.8809 176.899,26.8089 174.007,27.7729 167.259,27.7729 " />
<polyline points="187.502,7.52941 187.502,27.7729 " />
<polyline points="207.746,10.4213 205.818,8.49339 202.926,7.52941 199.07,7.52941 196.178,8.49339 194.25,10.4213 194.25,12.3493 195.214,14.2772 196.178,15.2412 198.106,16.2052 203.89,18.1331 205.818,19.0971 206.782,20.0611 207.746,21.989 207.746,24.8809 205.818,26.8089 202.926,27.7729 199.07,27.7729 196.178,26.8089 194.25,24.8809 " />
<polyline points="227.989,12.3493 227.025,10.4213 225.097,8.49339 223.169,7.52941 219.313,7.52941 217.386,8.49339 215.458,10.4213 214.494,12.3493 213.53,15.2412 213.53,20.0611 214.494,22.953 215.458,24.8809 217.386,26.8089 219.313,27.7729 223.169,27.7729 225.097,26.8089 227.025,24.8809 227.989,22.953 " />
<polyline points="234.737,7.52941 234.737,27.7729 " />
<polyline points="248.233,7.52941 248.233,27.7729 " />
<polyline points="234.737,17.1691 248.233,17.1691 " />
<polyline points="260.764,7.52941 253.053,27.7729 " />
<polyline points="260.764,7.52941 268.476,27.7729 " />
<polyline points="255.944,21.025 265.584,21.025 " />
<polyline points="273.296,7.52941 273.296,27.7729 " />
<polyline points="273.296,7.52941 281.972,7.52941 284.864,8.49339 285.828,9.45736 286.792,11.3853 286.792,13.3133 285.828,15.2412 284.864,16.2052 281.972,17.1691 273.296,17.1691 " />
<polyline points="280.044,17.1691 286.792,27.7729 " />
<polyline points="307.035,12.3493 306.071,10.4213 304.143,8.49339 302.215,7.52941 298.359,7.52941 296.431,8.49339 294.503,10.4213 293.539,12.3493 292.575,15.2412 292.575,20.0611 293.539,22.953 294.503,24.8809 296.431,26.8089 298.359,27.7729 302.215,27.7729 304.143,26.8089 306.071,24.8809 307.035,22.953 307.035,20.0611 " />
<polyline points="302.215,20.0611 307.035,20.0611 " />
<polyline points="313.783,7.52941 313.783,27.7729 " />
<polyline points="313.783,7.52941 326.315,7.52941 " />
<polyline points="313.783,17.1691 321.495,17.1691 " />
<polyline points="313.783,27.7729 326.315,27.7729 " />
<polyline points="165.235,609.202 165.235,424.939 " stroke-dasharray="84.347669,16.869534,16.869534,16.869534" />
<polyline points="217.178,125.971 215.25,126.935 213.322,128.863 212.358,130.791 211.394,133.682 211.394,138.502 212.358,141.394 213.322,143.322 215.25,145.25 217.178,146.214 221.034,146.214 222.962,145.25 224.89,143.322 225.854,141.394 226.818,138.502 226.818,133.682 225.854,130.791 224.89,128.863 222.962,126.935 221.034,125.971 217.178,125.971 " />
<polyline points="220.07,142.358 225.854,148.142 " />
<polyline points="64.296,339.391 62.368,340.354 60.4401,342.282 59.4761,344.21 58.5121,347.102 58.5121,351.922 59.4761,354.814 60.4401,356.742 62.368,358.67 64.296,359.634 68.1519,359.634 70.0798,358.67 72.0078,356.742 72.9717,354.814 73.9357,351.922 73.9357,347.102 72.9717,344.21 72.0078,342.282 70.0798,340.354 68.1519,339.391 64.296,339.391 " />
<polyline points="57.1107,349.438 75.4186,349.438 " />
<polyline points="775.243,337.193 773.315,337.836 772.03,339.764 771.387,342.977 771.387,344.905 772.03,348.118 773.315,350.046 775.243,350.689 776.529,350.689 778.457,350.046 779.742,348.118 780.384,344.905 780.384,342.977 779.742,339.764 778.457,337.836 776.529,337.193 775.243,337.193 " />
<polyline points="847.382,337.193 845.454,337.836 844.169,339.764 843.526,342.977 843.526,344.905 844.169,348.118 845.454,350.046 847.382,350.689 848.667,350.689 850.595,350.046 851.881,348.118 852.523,344.905 852.523,342.977 851.881,339.764 850.595,337.836 848.667,337.193 847.382,337.193 " />
<polyline points="944.92,337.193 942.992,337.836 941.706,339.764 941.064,342.977 941.064,344.905 941.706,348.118 942.992,350.046 944.92,350.689 946.205,350.689 948.133,350.046 949.418,348.118 950.061,344.905 950.061,342.977 949.418,339.764 948.133,337.836 946.205,337.193 944.92,337.193 " />
<polyline points="770.543,135.165 771.828,134.523 773.756,132.595 773.756,146.09 " />
<polyline points="842.681,135.165 843.967,134.523 845.895,132.595 845.895,146.09 " />
<polyline points="945.764,132.395 947.05,131.752 948.978,129.824 948.978,143.32 " />
<polyline points="752.887,107.514 745.175,127.757 " />
<polyline points="752.887,107.514 760.599,127.757 " />
<polyline points="748.067,121.009 757.707,121.009 " />
<polyline points="812.654,103.658 810.726,105.586 808.798,108.478 806.87,112.334 805.906,117.153 805.906,121.009 806.87,125.829 808.798,129.685 810.726,132.577 812.654,134.505 " />
<polyline points="817.473,107.514 822.293,127.757 " />
<polyline points="827.113,107.514 822.293,127.757 " />
<polyline points="827.113,107.514 831.933,127.757 " />
<polyline points="836.753,107.514 831.933,127.757 " />
<polyline points="882.06,114.262 892.663,127.757 " />
<polyline points="892.663,114.262 882.06,127.757 " />
<polyline points="919.655,107.514 919.655,127.757 " />
<polyline points="933.15,107.514 933.15,127.757 " />
<polyline points="919.655,117.153 933.15,117.153 " />
<polyline points="960.141,103.658 962.069,105.586 963.997,108.478 965.925,112.334 966.889,117.153 966.889,121.009 965.925,125.829 963.997,129.685 962.069,132.577 960.141,134.505 " />
<polyline points="752.887,309.785 745.175,330.029 " />
<polyline points="752.887,309.785 760.599,330.029 " />
<polyline points="748.067,323.281 757.707,323.281 " />
<polyline points="812.654,305.929 810.726,307.857 808.798,310.749 806.87,314.605 805.906,319.425 805.906,323.281 806.87,328.101 808.798,331.956 810.726,334.848 812.654,336.776 " />
<polyline points="817.473,309.785 822.293,330.029 " />
<polyline points="827.113,309.785 822.293,330.029 " />
<polyline points="827.113,309.785 831.933,330.029 " />
<polyline points="836.753,309.785 831.933,330.029 " />
<polyline points="882.06,316.533 892.663,330.029 " />
<polyline points="892.663,316.533 882.06,330.029 " />
<polyline points="919.655,309.785 919.655,330.029 " />
<polyline points="933.15,309.785 933.15,330.029 " />
<polyline points="919.655,319.425 933.15,319.425 " />
<polyline points="960.141,305.929 962.069,307.857 963.997,310.749 965.925,314.605 966.889,319.425 966.889,323.281 965.925,328.101 963.997,331.956 962.069,334.848 960.141,336.776 " />
<polyline points="840.337,735.022 837.509,732.194 833.268,730.78 827.613,730.78 823.371,732.194 820.543,735.022 820.543,737.849 821.957,740.677 823.371,742.091 826.199,743.505 834.682,746.332 837.509,747.746 838.923,749.16 840.337,751.988 840.337,756.229 837.509,759.057 833.268,760.471 827.613,760.471 823.371,759.057 820.543,756.229 " />
<polyline points="850.234,730.78 850.234,760.471 " />
<polyline points="850.234,730.78 862.958,730.78 867.2,732.194 868.614,733.608 870.027,736.436 870.027,739.263 868.614,742.091 867.2,743.505 862.958,744.918 850.234,744.918 " />
<polyline points="860.131,744.918 870.027,760.471 " />
<polyline points="898.304,730.78 884.166,760.471 " />
<polyline points="878.51,730.78 898.304,730.78 " />
<polyline points="908.201,747.746 933.65,747.746 " />
<polyline points="944.96,737.849 944.96,736.436 946.374,733.608 947.788,732.194 950.616,730.78 956.271,730.78 959.099,732.194 960.512,733.608 961.926,736.436 961.926,739.263 960.512,742.091 957.685,746.332 943.546,760.471 963.34,760.471 " />
<polyline points="241.148,230.473 312.679,230.473 " />
<polyline points="241.148,432.907 312.679,432.907 " />
<polyline points="288.387,250.716 288.387,309.422 " />
<polyline points="288.387,412.664 288.387,353.958 " />
</g>
<g clip-path="url(#clipId0)" fill="rgb(0,0,0)" stroke="rgb(0,0,0)" stroke-width="0.25" >
<path d="M285.013,250.716 291.761,250.716 288.387,230.473 288.387,230.473 z" />
<path d="M285.013,412.664 291.761,412.664 288.387,432.907 288.387,432.907 z" />
</g>
<g clip-path="url(#clipId0)" fill="none" stroke="rgb(0,0,0)" stroke-width="0.25" >
<polyline points="281.639,321.568 281.639,341.812 295.135,341.812 " />
</g>
</svg>
