<?xml version="1.0" standalone="no"?>
<svg viewBox="0 0 1024 768" version="1.1" xmlns="http://www.w3.org/2000/svg" xmlns:xlink="http://www.w3.org/1999/xlink" stroke-linecap="round" stroke-linejoin="round" fill-rule="evenodd" xml:space="preserve" >
<defs >
<clipPath id="clipId0" >
<path d="M0,768 1024,768 1024,0 0,0 z" />
</clipPath>
</defs>
<g clip-path="url(#clipId0)" fill="none" stroke="rgb(0,0,0)" stroke-width="0.1" />
<g clip-path="url(#clipId0)" fill="none" stroke="rgb(0,0,0)" stroke-width="0.25" >
<polyline points="233.407,102.499 233.407,269.676 " />
</g>
<g clip-path="url(#clipId0)" fill="rgb(0,0,0)" stroke="rgb(0,0,0)" stroke-width="0.25" >
<path d="M236.37,102.499 230.444,102.499 233.407,84.7212 233.407,84.7212 z" />
</g>
<g clip-path="url(#clipId0)" fill="none" stroke="rgb(0,0,0)" stroke-width="0.25" >
<polyline points="263.037,494.701 263.037,568.613 " />
<polyline points="203.777,494.701 203.777,509.353 " />
<circle cx="203.777" cy="568.613" r="29.6301" />
<path d="M203.777,509.353  A59.2602,59.2602 0 1,0 263.037,568.613 " />
<polyline points="203.777,494.701 263.037,494.701 " />
<polyline points="172.429,316.92 294.384,316.92 " />
<polyline points="263.037,494.701 294.384,316.92 " />
<polyline points="203.777,494.701 172.429,316.92 " />
<polyline points="294.384,316.92 294.384,35.0701 " />
<polyline points="172.429,316.92 172.429,35.0701 " />
<polyline points="249.307,35.0701 324.015,35.0701 " />
<polyline points="142.799,35.0701 217.506,35.0701 " />
<polyline points="249.307,7.52941 249.307,35.0701 " />
<polyline points="217.506,62.6108 217.506,35.0701 " />
<polyline points="217.506,62.6108 249.307,7.52941 " />
<circle cx="203.777" cy="568.613" r="35.5561" />
<circle cx="203.777" cy="568.613" r="5.92602" />
<path d="M271.32,345.385  A319.613,319.613 0 0,0 248.866,343.503 " />
</g>
<g clip-path="url(#clipId0)" fill="rgb(0,0,0)" stroke="rgb(0,0,0)" stroke-width="0.25" >
<path d="M270.887,348.316 271.753,342.454 288.907,347.984 288.907,347.984 z" />
<path d="M195.927,348.316 195.061,342.454 177.907,347.984 177.907,347.984 z" />
</g>
<g clip-path="url(#clipId0)" fill="none" stroke="rgb(0,0,0)" stroke-width="0.25" >
<path d="M217.948,343.503  A319.613,319.613 0 0,0 195.494,345.385 " />
<polyline points="567.037,627.874 626.298,627.874 " />
<polyline points="567.037,494.701 626.298,494.701 " />
<polyline points="567.037,316.92 626.298,316.92 " />
<polyline points="567.037,627.874 567.037,35.0701 " />
<polyline points="626.298,627.874 626.298,35.0701 " />
<polyline points="545.901,562.687 567.037,562.687 " />
<polyline points="545.901,574.539 567.037,574.539 " />
<polyline points="545.901,574.539 545.901,562.687 " />
<path d="M626.298,538.983  A5.92602,5.92602 0 0,0 632.224,533.057 " />
<path d="M632.224,604.17  A5.92602,5.92602 0 0,0 626.298,598.244 " />
<polyline points="632.224,533.057 632.224,604.17 " />
<polyline points="515.756,568.613 677.579,568.613 " stroke-dasharray="74.075279,14.815056,14.815056,14.815056" />
<polyline points="580.767,62.6108 612.568,7.52941 " />
<polyline points="580.767,62.6108 580.767,35.0701 " />
<polyline points="612.568,7.52941 612.568,35.0701 " />
<polyline points="537.407,35.0701 580.767,35.0701 " />
<polyline points="612.568,35.0701 655.928,35.0701 " />
</g>
<g clip-path="url(#clipId0)" fill="rgb(0,0,0)" stroke="rgb(0,0,0)" stroke-width="0.25" >
<path d="M609.749,304.522 605.021,300.949 596.667,316.92 596.667,316.92 z" />
</g>
<g clip-path="url(#clipId0)" fill="none" stroke="rgb(0,0,0)" stroke-width="0.25" >
<polyline points="607.385,302.735 671.465,217.924 " />
<polyline points="671.465,217.924 689.243,217.924 " />
<polyline points="671.465,395.705 689.243,395.705 " />
<polyline points="607.385,480.516 671.465,395.705 " />
</g>
<g clip-path="url(#clipId0)" fill="rgb(0,0,0)" stroke="rgb(0,0,0)" stroke-width="0.25" >
<path d="M609.749,482.302 605.021,478.73 596.667,494.701 596.667,494.701 z" />
</g>
<g clip-path="url(#clipId0)" fill="none" stroke="rgb(0,0,0)" stroke-width="0.25" >
<polyline points="122.865,568.613 284.688,568.613 " stroke-dasharray="74.075279,14.815056,14.815056,14.815056" />
<polyline points="203.777,649.525 203.777,487.702 " stroke-dasharray="74.075279,14.815056,14.815056,14.815056" />
<polyline points="253.576,157.924 251.883,158.771 250.19,160.464 249.343,162.157 248.497,164.697 248.497,168.929 249.343,171.469 250.19,173.162 251.883,174.855 253.576,175.702 256.962,175.702 258.656,174.855 260.349,173.162 261.195,171.469 262.042,168.929 262.042,164.697 261.195,162.157 260.349,160.464 258.656,158.771 256.962,157.924 253.576,157.924 " />
<polyline points="256.116,172.316 261.195,177.395 " />
<polyline points="230.973,338.643 229.28,339.489 227.586,341.182 226.74,342.875 225.893,345.415 225.893,349.648 226.74,352.188 227.586,353.881 229.28,355.574 230.973,356.421 234.359,356.421 236.052,355.574 237.745,353.881 238.592,352.188 239.439,349.648 239.439,345.415 238.592,342.875 237.745,341.182 236.052,339.489 234.359,338.643 230.973,338.643 " />
<polyline points="224.94,347.362 240.267,347.362 " />
<polyline points="739.494,237.872 737.801,238.437 736.672,240.13 736.108,242.952 736.108,244.645 736.672,247.467 737.801,249.16 739.494,249.724 740.623,249.724 742.316,249.16 743.445,247.467 744.009,244.645 744.009,242.952 743.445,240.13 742.316,238.437 740.623,237.872 739.494,237.872 " />
<polyline points="800.413,237.872 798.719,238.437 797.591,240.13 797.026,242.952 797.026,244.645 797.591,247.467 798.719,249.16 800.413,249.724 801.541,249.724 803.235,249.16 804.363,247.467 804.928,244.645 804.928,242.952 804.363,240.13 803.235,238.437 801.541,237.872 800.413,237.872 " />
<polyline points="888.507,235.439 886.813,236.003 885.685,237.696 885.12,240.518 885.12,242.211 885.685,245.033 886.813,246.726 888.507,247.291 889.635,247.291 891.328,246.726 892.457,245.033 893.022,242.211 893.022,240.518 892.457,237.696 891.328,236.003 889.635,235.439 888.507,235.439 " />
<polyline points="796.284,408.424 797.413,407.859 799.106,406.166 799.106,418.018 " />
<polyline points="884.378,408.424 885.507,407.859 887.2,406.166 887.2,418.018 " />
<polyline points="717.426,386.573 710.653,404.351 " />
<polyline points="717.426,386.573 724.199,404.351 " />
<polyline points="713.193,398.425 721.659,398.425 " />
<polyline points="769.914,383.187 768.22,384.88 766.527,387.42 764.834,390.806 763.988,395.039 763.988,398.425 764.834,402.658 766.527,406.044 768.22,408.584 769.914,410.277 " />
<polyline points="774.146,386.573 778.379,404.351 " />
<polyline points="782.612,386.573 778.379,404.351 " />
<polyline points="782.612,386.573 786.845,404.351 " />
<polyline points="791.078,386.573 786.845,404.351 " />
<polyline points="830.867,392.499 840.179,404.351 " />
<polyline points="840.179,392.499 830.867,404.351 " />
<polyline points="863.883,386.573 863.883,404.351 " />
<polyline points="875.735,386.573 875.735,404.351 " />
<polyline points="863.883,395.039 875.735,395.039 " />
<polyline points="899.439,383.187 901.133,384.88 902.826,387.42 904.519,390.806 905.365,395.039 905.365,398.425 904.519,402.658 902.826,406.044 901.133,408.584 899.439,410.277 " />
<polyline points="730.539,410.857 731.667,410.293 733.36,408.6 733.36,420.452 " />
<polyline points="719.861,213.802 713.088,231.58 " />
<polyline points="719.861,213.802 726.634,231.58 " />
<polyline points="715.628,225.654 724.094,225.654 " />
<polyline points="772.349,210.416 770.655,212.109 768.962,214.649 767.269,218.035 766.423,222.268 766.423,225.654 767.269,229.887 768.962,233.273 770.655,235.813 772.349,237.506 " />
<polyline points="776.581,213.802 780.814,231.58 " />
<polyline points="785.047,213.802 780.814,231.58 " />
<polyline points="785.047,213.802 789.28,231.58 " />
<polyline points="793.513,213.802 789.28,231.58 " />
<polyline points="833.302,219.728 842.614,231.58 " />
<polyline points="842.614,219.728 833.302,231.58 " />
<polyline points="866.318,213.802 866.318,231.58 " />
<polyline points="878.17,213.802 878.17,231.58 " />
<polyline points="866.318,222.268 878.17,222.268 " />
<polyline points="901.874,210.416 903.568,212.109 905.261,214.649 906.954,218.035 907.801,222.268 907.801,225.654 906.954,229.887 905.261,233.273 903.568,235.813 901.874,237.506 " />
<polyline points="767.44,738.121 764.957,735.638 761.232,734.396 756.265,734.396 752.54,735.638 750.057,738.121 750.057,740.604 751.299,743.088 752.54,744.329 755.024,745.571 762.474,748.054 764.957,749.296 766.199,750.537 767.44,753.021 767.44,756.746 764.957,759.229 761.232,760.471 756.265,760.471 752.54,759.229 750.057,756.746 " />
<polyline points="776.132,734.396 776.132,760.471 " />
<polyline points="776.132,734.396 787.306,734.396 791.031,735.638 792.273,736.879 793.515,739.363 793.515,741.846 792.273,744.329 791.031,745.571 787.306,746.813 776.132,746.813 " />
<polyline points="784.823,746.813 793.515,760.471 " />
<polyline points="818.348,734.396 805.931,760.471 " />
<polyline points="800.965,734.396 818.348,734.396 " />
<polyline points="827.039,749.296 849.389,749.296 " />
<polyline points="861.805,739.363 864.288,738.121 868.013,734.396 868.013,760.471 " />
<polyline points="885.396,734.396 899.054,734.396 891.604,744.329 895.329,744.329 897.813,745.571 899.054,746.813 900.296,750.537 900.296,753.021 899.054,756.746 896.571,759.229 892.846,760.471 889.121,760.471 885.396,759.229 884.155,757.987 882.913,755.504 " />
<polyline points="270.444,494.701 354.276,494.701 " />
<polyline points="301.792,316.92 354.276,316.92 " />
<polyline points="332.943,476.922 332.943,425.366 " />
<polyline points="332.943,334.698 332.943,386.254 " />
</g>
<g clip-path="url(#clipId0)" fill="rgb(0,0,0)" stroke="rgb(0,0,0)" stroke-width="0.25" >
<path d="M329.98,476.922 335.906,476.922 332.943,494.701 332.943,494.701 z" />
<path d="M329.98,334.698 335.906,334.698 332.943,316.92 332.943,316.92 z" />
</g>
<g clip-path="url(#clipId0)" fill="none" stroke="rgb(0,0,0)" stroke-width="0.25" >
<polyline points="327.863,396.921 327.863,414.699 338.022,414.699 " />
<polyline points="116.199,714.648 120.432,732.426 " />
<polyline points="124.665,714.648 120.432,732.426 " />
<polyline points="124.665,714.648 128.898,732.426 " />
<polyline points="133.131,714.648 128.898,732.426 " />
<polyline points="173.767,722.267 189.005,722.267 " />
<polyline points="173.767,727.347 189.005,727.347 " />
<polyline points="211.862,714.648 216.095,732.426 " />
<polyline points="220.328,714.648 216.095,732.426 " />
<polyline points="220.328,714.648 224.561,732.426 " />
<polyline points="228.794,714.648 224.561,732.426 " />
<polyline points="230.012,736.499 231.141,735.934 232.834,734.241 232.834,746.093 " />
<polyline points="139.647,734.241 137.954,734.806 136.825,736.499 136.261,739.321 136.261,741.014 136.825,743.836 137.954,745.529 139.647,746.093 140.776,746.093 142.469,745.529 143.598,743.836 144.162,741.014 144.162,739.321 143.598,736.499 142.469,734.806 140.776,734.241 139.647,734.241 " />
</g>
</svg>
