<?xml version="1.0" standalone="no"?>
<svg viewBox="0 0 1024 768" version="1.1" xmlns="http://www.w3.org/2000/svg" xmlns:xlink="http://www.w3.org/1999/xlink" stroke-linecap="round" stroke-linejoin="round" fill-rule="evenodd" xml:space="preserve" >
<defs >
<clipPath id="clipId0" >
<path d="M0,768 1024,768 1024,0 0,0 z" />
</clipPath>
</defs>
<g clip-path="url(#clipId0)" fill="none" stroke="rgb(0,0,0)" stroke-width="0.1" />
<g clip-path="url(#clipId0)" fill="none" stroke="rgb(0,0,0)" stroke-width="0.25" >
<polyline points="483.059,254.715 483.059,162.758 " />
<polyline points="483.059,162.758 403.422,116.78 " />
<polyline points="403.422,116.78 403.422,208.737 " />
<polyline points="403.422,208.737 483.059,254.715 " />
<polyline points="502.968,128.275 582.604,82.2964 " />
<polyline points="582.604,82.2964 502.968,36.3182 " />
<polyline points="502.968,36.3182 423.331,82.2964 " />
<polyline points="502.968,128.275 423.331,82.2964 " />
<polyline points="483.059,162.758 484.054,162.159 485.027,161.525 485.977,160.856 486.902,160.153 487.8,159.417 488.672,158.649 489.515,157.85 490.329,157.021 490.329,157.021 491.295,155.972 492.229,154.894 493.132,153.79 494.001,152.659 494.837,151.504 495.639,150.324 496.405,149.122 497.137,147.897 497.137,147.897 497.831,146.652 498.49,145.386 499.11,144.102 499.693,142.801 500.237,141.482 500.743,140.149 501.209,138.801 501.635,137.44 501.635,137.44 501.946,136.321 502.216,135.191 502.445,134.052 502.633,132.905 502.779,131.753 502.884,130.596 502.947,129.436 502.968,128.275 " />
<polyline points="483.059,254.715 485.284,253.406 487.488,252.062 489.67,250.682 491.83,249.268 493.967,247.819 496.08,246.337 498.169,244.82 500.234,243.27 502.273,241.687 504.287,240.072 506.275,238.424 508.236,236.745 510.169,235.035 512.075,233.294 513.953,231.522 515.802,229.72 517.622,227.89 519.413,226.03 519.413,226.03 521.577,223.715 523.711,221.371 525.815,219.001 527.887,216.603 529.928,214.178 531.937,211.727 533.914,209.25 535.859,206.747 537.771,204.219 539.649,201.666 541.494,199.089 543.306,196.489 545.083,193.865 546.826,191.217 548.534,188.548 550.208,185.856 551.846,183.143 553.448,180.409 553.448,180.409 555.015,177.654 556.546,174.878 558.04,172.083 559.498,169.269 560.919,166.436 562.303,163.585 563.649,160.716 564.958,157.83 566.23,154.926 567.463,152.007 568.658,149.071 569.815,146.121 570.933,143.155 572.013,140.175 573.053,137.181 574.055,134.174 575.017,131.155 575.939,128.123 575.939,128.123 576.655,125.642 577.331,123.15 577.966,120.648 578.561,118.136 579.116,115.615 579.631,113.085 580.104,110.547 580.537,108.002 580.929,105.451 581.281,102.893 581.591,100.33 581.859,97.7624 582.087,95.1908 582.273,92.6159 582.418,90.0384 582.522,87.4588 582.584,84.878 582.604,82.2964 " />
<polyline points="403.422,116.78 404.417,116.181 405.391,115.547 406.34,114.878 407.265,114.175 408.164,113.439 409.035,112.671 409.879,111.872 410.693,111.043 410.693,111.043 411.658,109.993 412.593,108.916 413.495,107.811 414.364,106.681 415.2,105.525 416.002,104.346 416.769,103.143 417.5,101.919 417.5,101.919 418.195,100.673 418.853,99.4081 419.474,98.1241 420.056,96.8224 420.6,95.5042 421.106,94.1705 421.572,92.8226 421.998,91.4616 421.998,91.4616 422.309,90.3423 422.579,89.2125 422.808,88.0736 422.996,86.9272 423.143,85.7748 423.247,84.6179 423.31,83.4579 423.331,82.2964 " />
<polyline points="403.422,208.737 405.647,207.428 407.851,206.084 410.034,204.704 412.193,203.29 414.33,201.841 416.443,200.358 418.533,198.842 420.597,197.292 422.637,195.709 424.65,194.094 426.638,192.446 428.599,190.767 430.533,189.057 432.439,187.315 434.316,185.544 436.166,183.742 437.986,181.911 439.776,180.051 439.776,180.051 441.889,177.792 443.973,175.507 446.027,173.195 448.053,170.856 450.048,168.493 452.013,166.104 453.947,163.69 455.85,161.252 457.723,158.79 459.564,156.305 461.373,153.796 463.15,151.264 " />
<polyline points="483.059,116.78 484.363,113.975 485.631,111.154 486.863,108.317 488.059,105.465 489.219,102.597 490.342,99.7152 491.429,96.8191 492.478,93.9094 493.49,90.9866 494.465,88.0512 495.403,85.1036 496.303,82.1443 496.303,82.1443 497.018,79.6638 497.694,77.1722 498.329,74.67 498.925,72.158 499.48,69.6367 499.994,67.1068 500.468,64.5691 500.901,62.024 501.293,59.4723 501.644,56.9147 501.954,54.3517 502.223,51.7841 502.45,49.2126 502.637,46.6377 502.781,44.0601 502.885,41.4806 502.947,38.8997 502.968,36.3182 " />
<polyline points="478.082,165.631 317.736,258.207 " stroke-dasharray="17.241841,8.620921" />
<polyline points="398.446,119.653 238.099,212.229 " stroke-dasharray="17.241841,8.620921" />
<polyline points="478.082,257.588 317.736,350.164 " stroke-dasharray="17.241841,8.620921" />
<polyline points="184.324,394.678 183.389,396.334 182.487,398.008 181.618,399.699 180.782,401.407 179.98,403.131 179.211,404.871 178.477,406.625 177.777,408.393 177.112,410.175 176.482,411.969 175.887,413.775 175.327,415.592 175.327,415.592 174.904,417.082 174.517,418.582 174.166,420.091 173.851,421.607 173.573,423.131 173.331,424.661 173.127,426.197 172.959,427.736 172.829,429.28 172.736,430.826 172.68,432.374 172.661,433.923 172.661,433.923 172.68,435.17 172.737,436.415 172.831,437.658 172.964,438.898 173.133,440.133 173.341,441.363 173.585,442.585 173.866,443.8 174.184,445.006 174.539,446.201 174.929,447.385 175.356,448.557 175.818,449.715 176.314,450.859 176.314,450.859 176.689,451.64 177.097,452.403 177.54,453.148 178.015,453.872 178.521,454.574 179.059,455.253 179.626,455.908 180.221,456.537 180.844,457.138 181.493,457.712 182.167,458.256 182.864,458.769 183.584,459.251 184.324,459.701 184.324,459.701 185.083,460.117 185.86,460.499 186.654,460.846 187.462,461.158 188.283,461.433 189.116,461.672 189.958,461.873 190.808,462.037 191.665,462.163 192.527,462.25 193.391,462.3 194.257,462.31 195.123,462.283 195.986,462.216 195.986,462.216 197.225,462.075 198.459,461.895 199.687,461.679 200.908,461.425 202.12,461.134 203.323,460.807 204.516,460.443 205.697,460.044 206.865,459.608 208.02,459.138 209.16,458.632 210.283,458.093 211.391,457.519 212.48,456.912 212.48,456.912 213.812,456.121 215.124,455.299 216.417,454.445 217.688,453.561 218.938,452.646 220.165,451.701 221.37,450.727 222.55,449.724 223.706,448.693 224.837,447.635 225.943,446.549 227.021,445.438 227.021,445.438 228.315,444.045 229.582,442.626 230.821,441.183 232.031,439.717 233.212,438.227 234.364,436.714 235.487,435.178 236.578,433.621 237.64,432.044 238.67,430.445 239.669,428.827 240.635,427.189 240.635,427.189 241.57,425.533 242.472,423.859 243.341,422.168 244.177,420.46 244.98,418.736 245.748,416.997 246.482,415.242 247.182,413.474 247.847,411.693 248.478,409.899 249.072,408.092 249.632,406.275 249.632,406.275 250.055,404.785 250.443,403.285 250.794,401.777 251.108,400.26 251.387,398.736 251.628,397.206 251.832,395.671 252,394.131 252.13,392.588 252.223,391.041 252.279,389.493 252.298,387.945 252.298,387.945 252.279,386.698 252.222,385.452 252.128,384.209 251.996,382.969 251.826,381.734 251.619,380.505 251.374,379.282 251.093,378.067 250.775,376.862 250.42,375.666 250.03,374.482 249.604,373.311 249.142,372.152 248.645,371.009 248.645,371.009 248.271,370.228 247.862,369.464 247.42,368.72 246.945,367.996 246.438,367.293 245.901,366.614 245.334,365.959 244.738,365.331 244.115,364.729 243.466,364.156 242.792,363.612 242.095,363.098 241.376,362.616 240.635,362.166 240.635,362.166 239.876,361.75 239.099,361.368 238.305,361.021 237.497,360.709 236.676,360.434 235.844,360.195 235.001,359.994 234.151,359.83 233.294,359.705 232.433,359.617 231.568,359.568 230.702,359.557 229.836,359.585 228.973,359.651 228.973,359.651 227.734,359.793 226.5,359.972 225.272,360.189 224.052,360.442 222.839,360.733 221.636,361.06 220.444,361.424 219.262,361.824 218.094,362.259 216.94,362.73 215.8,363.235 214.676,363.775 213.569,364.348 212.48,364.955 212.48,364.955 211.148,365.746 209.835,366.568 208.543,367.422 207.271,368.307 206.021,369.222 204.794,370.167 203.589,371.141 202.409,372.143 201.253,373.174 200.122,374.233 199.017,375.318 197.938,376.43 197.938,376.43 196.644,377.823 195.377,379.241 194.138,380.684 192.928,382.151 191.747,383.641 190.595,385.154 189.473,386.689 188.381,388.246 187.32,389.824 186.289,391.422 185.291,393.04 184.324,394.678 " />
<polyline points="156.168,508.468 76.5314,462.49 " />
<polyline points="76.5314,332.444 75.1233,334.925 73.7518,337.426 72.4171,339.947 71.1196,342.487 69.8594,345.046 68.637,347.623 67.4525,350.218 66.3061,352.83 65.1983,355.458 64.1291,358.103 63.0988,360.763 62.1076,363.437 61.1558,366.126 60.2435,368.829 59.371,371.545 58.5384,374.273 58.5384,374.273 57.8967,376.506 57.2954,378.75 56.7347,381.005 56.2148,383.269 55.7359,385.543 55.298,387.825 54.9015,390.114 54.5463,392.41 54.2327,394.713 53.9607,397.02 53.7303,399.332 53.5418,401.648 53.3951,403.967 53.2902,406.288 53.2273,408.61 53.2063,410.934 53.2063,410.934 53.2269,412.771 53.2885,414.607 53.3912,416.442 53.5348,418.274 53.7194,420.102 53.9448,421.926 54.211,423.744 54.5177,425.555 54.8648,427.36 55.2522,429.156 55.6797,430.943 56.147,432.72 56.654,434.486 57.2003,436.241 57.7857,437.982 58.4099,439.711 59.0725,441.424 59.7734,443.123 60.512,444.805 60.512,444.805 61.0571,445.959 61.6396,447.095 62.2591,448.211 62.9147,449.306 63.6059,450.379 64.3318,451.429 65.0917,452.454 65.8848,453.454 66.7102,454.428 67.5671,455.374 68.4544,456.291 69.3714,457.179 70.3169,458.036 71.29,458.862 72.2896,459.655 73.3146,460.416 74.364,461.142 75.4367,461.834 76.5314,462.49 " />
<polyline points="132.843,272.999 130.841,274.179 128.861,275.395 126.904,276.646 124.969,277.932 123.058,279.254 121.171,280.609 119.308,281.998 117.471,283.421 115.66,284.877 113.876,286.365 112.119,287.885 110.389,289.436 108.688,291.019 107.016,292.632 105.373,294.275 103.76,295.947 103.76,295.947 101.813,298.032 99.8977,300.146 98.0133,302.287 96.1605,304.456 94.3398,306.652 92.5514,308.874 90.7958,311.122 89.0734,313.396 87.3846,315.694 85.7296,318.018 84.109,320.365 82.5229,322.736 80.9717,325.13 79.4559,327.546 77.9757,329.984 76.5314,332.444 " />
<polyline points="156.168,378.422 154.76,380.903 153.388,383.404 152.054,385.925 150.756,388.465 149.496,391.024 148.274,393.601 147.089,396.196 145.943,398.808 144.835,401.437 143.766,404.081 142.735,406.741 141.744,409.416 140.792,412.104 139.88,414.807 139.008,417.523 138.175,420.251 138.175,420.251 137.533,422.484 136.932,424.728 136.371,426.983 135.851,429.248 135.373,431.521 134.935,433.803 134.538,436.092 134.183,438.389 133.869,440.691 133.597,442.998 133.367,445.31 133.178,447.626 133.032,449.945 132.927,452.266 132.864,454.589 132.843,456.912 132.843,456.912 132.864,458.749 132.925,460.586 133.028,462.42 133.171,464.252 133.356,466.08 133.581,467.904 133.848,469.722 134.154,471.534 134.501,473.338 134.889,475.134 135.316,476.921 135.784,478.698 136.291,480.465 136.837,482.219 137.422,483.961 138.047,485.689 138.709,487.403 139.41,489.101 140.149,490.784 140.149,490.784 140.694,491.938 141.276,493.073 141.896,494.189 142.551,495.284 143.243,496.357 143.968,497.407 144.728,498.432 145.521,499.432 146.347,500.406 147.204,501.352 148.091,502.269 149.008,503.157 149.954,504.014 150.927,504.84 151.926,505.634 152.951,506.394 154.001,507.12 155.073,507.812 156.168,508.468 156.168,508.468 157.284,509.088 158.419,509.671 159.573,510.217 160.744,510.724 161.931,511.193 163.133,511.623 164.348,512.013 165.575,512.364 166.813,512.673 168.061,512.942 169.317,513.171 170.579,513.357 171.847,513.503 173.119,513.607 174.394,513.669 175.67,513.689 176.946,513.667 178.221,513.604 179.493,513.499 179.493,513.499 181.319,513.298 183.141,513.055 184.956,512.772 186.765,512.449 188.566,512.085 190.359,511.681 192.142,511.237 193.914,510.753 195.676,510.23 197.425,509.667 199.161,509.065 200.883,508.425 202.591,507.747 204.283,507.03 205.959,506.276 207.617,505.484 209.257,504.656 210.878,503.791 212.48,502.89 212.48,502.89 214.481,501.71 216.461,500.495 218.419,499.243 220.354,497.957 222.265,496.636 224.152,495.28 226.014,493.891 227.851,492.468 229.662,491.012 231.447,489.524 233.204,488.004 234.933,486.453 236.635,484.87 238.307,483.257 239.95,481.614 241.563,479.942 241.563,479.942 243.509,477.857 245.425,475.743 247.309,473.602 249.162,471.433 250.983,469.238 252.771,467.015 254.527,464.767 256.249,462.493 257.938,460.195 259.593,457.872 261.214,455.524 262.8,453.153 264.351,450.76 265.867,448.343 267.347,445.905 268.791,443.445 268.791,443.445 270.199,440.965 271.571,438.463 272.906,435.943 274.203,433.402 275.463,430.843 276.686,428.266 277.87,425.671 279.017,423.059 280.124,420.431 281.194,417.786 282.224,415.127 283.215,412.452 284.167,409.763 285.079,407.06 285.952,404.345 286.784,401.616 286.784,401.616 287.426,399.383 288.027,397.139 288.588,394.884 289.108,392.62 289.587,390.346 290.025,388.064 290.421,385.775 290.776,383.479 291.09,381.177 291.362,378.869 291.592,376.557 291.781,374.241 291.928,371.922 292.032,369.601 292.095,367.279 292.116,364.955 " />
<polyline points="212.48,318.977 210.478,320.157 208.498,321.373 206.54,322.624 204.606,323.911 202.694,325.232 200.807,326.587 198.945,327.977 197.108,329.399 195.297,330.855 193.513,332.343 191.755,333.863 190.026,335.415 188.325,336.997 186.652,338.61 185.009,340.253 183.396,341.925 183.396,341.925 181.45,344.011 179.534,346.124 177.65,348.265 175.797,350.434 173.976,352.63 172.188,354.852 170.432,357.1 168.71,359.374 167.021,361.673 165.366,363.996 163.746,366.343 162.16,368.714 160.608,371.108 159.093,373.524 157.612,375.962 156.168,378.422 " />
<polyline points="312.76,353.037 312.76,261.08 " />
<polyline points="312.76,261.08 233.123,215.102 " />
<polyline points="312.76,353.037 292.116,364.955 " />
<polyline points="312.76,261.08 212.48,318.977 " />
<polyline points="233.123,215.102 132.843,272.999 " />
</g>
<g clip-path="url(#clipId0)" fill="rgb(0,0,0)" stroke="rgb(0,0,0)" stroke-width="0.25" >
<path d="M121.998,358.335 119.721,362.329 132.843,367.163 132.843,367.163 z" />
</g>
<g clip-path="url(#clipId0)" fill="none" stroke="rgb(0,0,0)" stroke-width="0.25" >
<polyline points="120.86,360.332 38.931,313.627 " />
<polyline points="315.499,387.208 329.293,387.208 " />
<polyline points="345.714,380.311 345.714,394.105 " />
<polyline points="350.968,380.311 350.968,394.105 " />
<polyline points="350.968,380.311 360.164,394.105 " />
<polyline points="360.164,380.311 360.164,394.105 " />
<polyline points="365.418,380.311 365.418,394.105 373.3,394.105 " />
<polyline points="376.585,380.311 376.585,394.105 " />
<polyline points="376.585,380.311 385.123,380.311 " />
<polyline points="376.585,386.88 381.839,386.88 " />
<polyline points="376.585,394.105 385.123,394.105 " />
<polyline points="391.692,380.311 391.692,394.105 " />
<polyline points="387.094,380.311 396.29,380.311 " />
<polyline points="274.263,475.506 274.263,489.299 " />
<polyline points="274.263,475.506 278.861,475.506 280.831,476.163 282.145,477.477 282.802,478.79 283.459,480.761 283.459,484.045 282.802,486.015 282.145,487.329 280.831,488.643 278.861,489.299 274.263,489.299 " />
<polyline points="286.743,475.506 290.027,489.299 " />
<polyline points="293.311,475.506 290.027,489.299 " />
<polyline points="293.311,475.506 296.595,489.299 " />
<polyline points="299.879,475.506 296.595,489.299 " />
<polyline points="303.82,475.506 303.82,489.299 " />
<polyline points="303.82,475.506 308.418,475.506 310.389,476.163 311.702,477.477 312.359,478.79 313.016,480.761 313.016,484.045 312.359,486.015 311.702,487.329 310.389,488.643 308.418,489.299 303.82,489.299 " />
<polyline points="317.614,475.506 317.614,489.299 " />
<polyline points="345.858,478.79 345.201,477.477 343.887,476.163 342.573,475.506 339.946,475.506 338.632,476.163 337.319,477.477 336.662,478.79 336.005,480.761 336.005,484.045 336.662,486.015 337.319,487.329 338.632,488.643 339.946,489.299 342.573,489.299 343.887,488.643 345.201,487.329 345.858,486.015 " />
<polyline points="350.455,475.506 350.455,489.299 " />
<polyline points="350.455,475.506 358.994,475.506 " />
<polyline points="350.455,482.074 355.71,482.074 " />
<polyline points="350.455,489.299 358.994,489.299 " />
<polyline points="362.935,475.506 362.935,489.299 " />
<polyline points="362.935,475.506 372.131,489.299 " />
<polyline points="372.131,475.506 372.131,489.299 " />
<polyline points="380.013,475.506 380.013,489.299 " />
<polyline points="375.415,475.506 384.611,475.506 " />
<polyline points="387.895,475.506 387.895,489.299 " />
<polyline points="387.895,475.506 393.806,475.506 395.777,476.163 396.434,476.82 397.091,478.133 397.091,479.447 396.434,480.761 395.777,481.418 393.806,482.074 387.895,482.074 " />
<polyline points="392.493,482.074 397.091,489.299 " />
<polyline points="401.688,475.506 401.688,489.299 " />
<polyline points="406.943,475.506 406.943,489.299 " />
<polyline points="406.943,475.506 415.482,475.506 " />
<polyline points="406.943,482.074 412.198,482.074 " />
<polyline points="418.766,475.506 418.766,485.359 419.423,487.329 420.737,488.643 422.707,489.299 424.021,489.299 425.991,488.643 427.305,487.329 427.962,485.359 427.962,475.506 " />
<polyline points="442.412,478.79 441.755,477.477 440.441,476.163 439.128,475.506 436.5,475.506 435.187,476.163 433.873,477.477 433.216,478.79 432.559,480.761 432.559,484.045 433.216,486.015 433.873,487.329 435.187,488.643 436.5,489.299 439.128,489.299 440.441,488.643 441.755,487.329 442.412,486.015 442.412,484.045 " />
<polyline points="439.128,484.045 442.412,484.045 " />
<polyline points="450.294,475.506 445.039,489.299 " />
<polyline points="450.294,475.506 455.549,489.299 " />
<polyline points="447.01,484.702 453.578,484.702 " />
<polyline points="458.833,475.506 458.833,489.299 466.715,489.299 " />
<polyline points="483.792,475.506 483.792,489.299 " />
<polyline points="483.792,475.506 492.331,475.506 " />
<polyline points="483.792,482.074 489.047,482.074 " />
<polyline points="498.9,475.506 493.645,489.299 " />
<polyline points="498.9,475.506 504.154,489.299 " />
<polyline points="495.615,484.702 502.184,484.702 " />
<polyline points="507.438,475.506 507.438,489.299 " />
<polyline points="507.438,475.506 516.634,489.299 " />
<polyline points="516.634,475.506 516.634,489.299 " />
<polyline points="324.667,300.097 379.595,267.844 " />
</g>
<g clip-path="url(#clipId0)" fill="rgb(0,0,0)" stroke="rgb(0,0,0)" stroke-width="0.25" >
<path d="M325.828,302.081 323.507,298.112 312.76,307.059 312.76,307.059 z" />
</g>
<g clip-path="url(#clipId0)" fill="none" stroke="rgb(0,0,0)" stroke-width="0.25" >
<polyline points="471.151,215.699 409.918,251.592 " />
</g>
<g clip-path="url(#clipId0)" fill="rgb(0,0,0)" stroke="rgb(0,0,0)" stroke-width="0.25" >
<path d="M469.991,213.714 472.311,217.683 483.059,208.737 483.059,208.737 z" />
</g>
<g clip-path="url(#clipId0)" fill="none" stroke="rgb(0,0,0)" stroke-width="0.25" >
<polyline points="390.815,252.821 390.815,266.615 398.697,266.615 " />
<polyline points="104.687,348.7 103.753,350.356 102.85,352.03 101.981,353.721 101.145,355.429 100.343,357.153 99.5746,358.893 98.8403,360.647 98.1404,362.415 97.4753,364.196 96.8451,365.991 96.2502,367.797 95.6907,369.614 95.6907,369.614 95.2674,371.104 94.88,372.604 94.5289,374.112 94.2142,375.629 93.936,377.153 93.6947,378.683 93.4902,380.218 93.3227,381.758 93.1924,383.302 93.0992,384.848 93.0433,386.396 93.0247,387.945 93.0247,387.945 93.0436,389.191 93.1003,390.437 93.1948,391.68 93.327,392.92 93.4968,394.155 93.7039,395.385 93.9483,396.607 94.2296,397.822 94.5477,399.027 94.9022,400.223 95.2928,401.407 95.7191,402.579 96.1808,403.737 96.6775,404.88 96.6775,404.88 97.0519,405.661 97.4607,406.425 97.9029,407.169 98.3779,407.894 98.8845,408.596 99.4219,409.275 99.9889,409.93 100.584,410.559 101.207,411.16 101.856,411.734 102.53,412.278 103.228,412.791 103.947,413.273 104.687,413.723 104.687,413.723 105.447,414.139 106.224,414.521 107.017,414.868 107.825,415.18 108.646,415.455 109.479,415.694 110.321,415.895 111.172,416.059 112.028,416.185 112.89,416.272 113.755,416.321 114.621,416.332 115.486,416.304 116.35,416.238 116.35,416.238 117.588,416.096 118.822,415.917 120.05,415.701 121.271,415.447 122.483,415.156 123.687,414.829 124.879,414.465 126.06,414.065 127.229,413.63 128.383,413.159 129.523,412.654 130.647,412.114 131.754,411.541 132.843,410.934 132.843,410.934 134.175,410.143 135.488,409.321 136.78,408.467 138.052,407.582 139.301,406.667 140.529,405.723 141.733,404.749 142.914,403.746 144.07,402.715 145.201,401.657 146.306,400.571 147.385,399.46 147.385,399.46 148.679,398.066 149.946,396.648 151.184,395.205 152.394,393.738 153.576,392.248 154.728,390.735 155.85,389.2 156.942,387.643 158.003,386.065 159.033,384.467 160.032,382.849 160.999,381.211 160.999,381.211 161.933,379.555 162.836,377.881 163.705,376.19 164.541,374.482 165.343,372.758 166.111,371.018 166.846,369.264 167.546,367.496 168.211,365.715 168.841,363.92 169.436,362.114 169.995,360.297 169.995,360.297 170.419,358.807 170.806,357.307 171.157,355.798 171.472,354.282 171.75,352.758 171.991,351.228 172.196,349.693 172.363,348.153 172.494,346.609 172.587,345.063 172.643,343.515 172.661,341.966 172.661,341.966 172.642,340.72 172.586,339.474 172.491,338.231 172.359,336.991 172.189,335.756 171.982,334.526 171.738,333.304 171.456,332.089 171.138,330.883 170.784,329.688 170.393,328.504 169.967,327.332 169.505,326.174 169.008,325.03 169.008,325.03 168.634,324.25 168.225,323.486 167.783,322.741 167.308,322.017 166.801,321.315 166.264,320.636 165.697,319.981 165.102,319.352 164.479,318.751 163.83,318.177 163.156,317.633 162.458,317.12 161.739,316.638 160.999,316.188 160.999,316.188 160.239,315.772 159.462,315.39 158.669,315.043 157.861,314.731 157.04,314.456 156.207,314.217 155.365,314.016 154.514,313.852 153.658,313.726 152.796,313.639 151.931,313.59 151.065,313.579 150.2,313.607 149.336,313.673 149.336,313.673 148.098,313.814 146.864,313.994 145.636,314.21 144.415,314.464 143.203,314.755 141.999,315.082 140.807,315.446 139.626,315.845 138.457,316.281 137.303,316.751 136.163,317.257 135.039,317.797 133.932,318.37 132.843,318.977 132.843,318.977 131.511,319.768 130.198,320.59 128.906,321.444 127.634,322.329 126.385,323.243 125.157,324.188 123.953,325.162 122.772,326.165 121.616,327.196 120.485,328.254 119.38,329.34 118.301,330.451 118.301,330.451 117.007,331.845 115.74,333.263 114.502,334.706 113.292,336.172 112.11,337.663 110.958,339.176 109.836,340.711 108.744,342.268 107.683,343.846 106.653,345.444 105.654,347.062 104.687,348.7 " />
<polyline points="76.5314,462.49 77.647,463.11 78.7823,463.693 79.9361,464.239 81.1072,464.746 82.2942,465.215 83.496,465.645 84.7112,466.035 85.9385,466.385 87.1766,466.695 88.4243,466.964 89.68,467.192 90.9426,467.379 92.2106,467.525 93.4826,467.628 94.7574,467.69 96.0336,467.711 97.3097,467.689 98.5844,467.626 99.8564,467.521 99.8564,467.521 101.683,467.319 103.504,467.077 105.32,466.794 107.129,466.47 108.93,466.107 110.722,465.702 112.505,465.258 114.278,464.775 116.039,464.251 117.788,463.689 119.525,463.087 121.247,462.447 122.954,461.768 124.646,461.052 126.322,460.298 127.98,459.506 129.62,458.678 131.242,457.813 132.843,456.912 132.843,456.912 134.845,455.732 136.825,454.516 138.782,453.265 140.717,451.979 142.628,450.657 144.515,449.302 146.378,447.913 148.215,446.49 150.026,445.034 151.81,443.546 153.567,442.026 155.297,440.474 156.998,438.892 158.67,437.279 160.313,435.636 161.926,433.964 161.926,433.964 163.873,431.879 165.788,429.765 167.673,427.624 169.525,425.455 171.346,423.259 173.135,421.037 174.89,418.789 176.613,416.515 178.301,414.217 179.956,411.893 181.577,409.546 183.163,407.175 184.714,404.781 186.23,402.365 187.71,399.927 189.155,397.467 189.155,397.467 190.563,394.986 191.934,392.485 193.269,389.964 194.566,387.424 195.827,384.865 197.049,382.288 198.234,379.693 199.38,377.081 200.488,374.453 201.557,371.808 202.587,369.148 203.578,366.474 204.53,363.785 205.442,361.082 206.315,358.366 207.148,355.638 207.148,355.638 207.789,353.405 208.391,351.161 208.951,348.906 209.471,346.641 209.95,344.368 210.388,342.086 210.785,339.797 211.14,337.501 211.453,335.198 211.725,332.891 211.956,330.579 212.144,328.263 212.291,325.944 212.396,323.623 212.459,321.301 212.48,318.977 " />
<polyline points="312.76,353.037 233.123,307.059 " stroke-dasharray="17.241841,8.620921" />
<polyline points="233.123,307.059 233.123,215.102 " stroke-dasharray="17.241841,8.620921" />
</g>
<g clip-path="url(#clipId0)" fill="rgb(0,0,0)" stroke="rgb(0,0,0)" stroke-width="0.25" >
<path d="M506.779,21.3229 511.377,21.3229 509.078,7.52941 509.078,7.52941 z" />
</g>
<g clip-path="url(#clipId0)" fill="none" stroke="rgb(0,0,0)" stroke-width="0.25" >
<polyline points="509.078,21.3229 509.078,86.7824 " />
<polyline points="523.262,75.8766 521.948,76.5335 520.635,77.8471 519.978,79.1608 519.321,81.1313 519.321,84.4155 519.978,86.3859 520.635,87.6996 521.948,89.0133 523.262,89.6701 525.889,89.6701 527.203,89.0133 528.517,87.6996 529.174,86.3859 529.83,84.4155 529.83,81.1313 529.174,79.1608 528.517,77.8471 527.203,76.5335 525.889,75.8766 523.262,75.8766 " />
<polyline points="525.233,87.0428 529.174,90.9838 " />
<polyline points="310.041,193.672 313.326,207.465 " />
<polyline points="316.61,193.672 313.326,207.465 " />
<polyline points="316.61,193.672 319.894,207.465 " />
<polyline points="323.178,193.672 319.894,207.465 " />
<polyline points="340.256,198.27 347.481,207.465 " />
<polyline points="347.481,198.27 340.256,207.465 " />
<polyline points="365.872,193.672 365.872,207.465 " />
<polyline points="375.068,193.672 375.068,207.465 " />
<polyline points="365.872,200.24 375.068,200.24 " />
<polyline points="980.206,216.231 979.023,216.625 978.235,217.807 977.841,219.778 977.841,220.96 978.235,222.93 979.023,224.113 980.206,224.507 980.994,224.507 982.176,224.113 982.964,222.93 983.358,220.96 983.358,219.778 982.964,217.807 982.176,216.625 980.994,216.231 980.206,216.231 " />
<polyline points="942.047,171.857 942.047,180.133 " />
<polyline points="942.047,175.798 942.835,175.01 943.623,174.616 944.805,174.616 945.593,175.01 946.382,175.798 946.776,176.98 946.776,177.768 946.382,178.951 945.593,179.739 944.805,180.133 943.623,180.133 942.835,179.739 942.047,178.951 " />
<polyline points="844.673,410.971 844.016,409.657 842.703,408.343 841.389,407.686 838.762,407.686 837.448,408.343 836.134,409.657 835.478,410.971 834.821,412.941 834.821,416.225 835.478,418.196 836.134,419.509 837.448,420.823 838.762,421.48 841.389,421.48 842.703,420.823 844.016,419.509 844.673,418.196 " />
<polyline points="849.271,407.686 849.271,417.539 849.928,419.509 851.242,420.823 853.212,421.48 854.526,421.48 856.496,420.823 857.81,419.509 858.467,417.539 858.467,407.686 " />
<polyline points="866.349,407.686 866.349,421.48 " />
<polyline points="861.751,407.686 870.947,407.686 " />
<polyline points="877.515,407.686 876.201,408.343 874.888,409.657 874.231,410.971 873.574,412.941 873.574,416.225 874.231,418.196 874.888,419.509 876.201,420.823 877.515,421.48 880.142,421.48 881.456,420.823 882.77,419.509 883.426,418.196 884.083,416.225 884.083,412.941 883.426,410.971 882.77,409.657 881.456,408.343 880.142,407.686 877.515,407.686 " />
<polyline points="888.681,407.686 888.681,421.48 " />
<polyline points="888.681,407.686 897.22,407.686 " />
<polyline points="888.681,414.255 893.936,414.255 " />
<polyline points="900.504,407.686 900.504,421.48 " />
<polyline points="900.504,407.686 909.043,407.686 " />
<polyline points="900.504,414.255 905.759,414.255 " />
<polyline points="785.205,156.742 785.205,170.535 " />
<polyline points="785.205,156.742 791.116,156.742 793.087,157.398 793.744,158.055 794.4,159.369 794.4,160.683 793.744,161.996 793.087,162.653 791.116,163.31 " />
<polyline points="785.205,163.31 791.116,163.31 793.087,163.967 793.744,164.624 794.4,165.937 794.4,167.908 793.744,169.221 793.087,169.878 791.116,170.535 785.205,170.535 " />
<polyline points="798.998,156.742 798.998,170.535 806.88,170.535 " />
<polyline points="813.449,156.742 808.194,170.535 " />
<polyline points="813.449,156.742 818.703,170.535 " />
<polyline points="810.164,165.937 816.733,165.937 " />
<polyline points="830.526,158.712 829.213,157.398 827.242,156.742 824.615,156.742 822.644,157.398 821.331,158.712 821.331,160.026 821.987,161.339 822.644,161.996 823.958,162.653 827.899,163.967 829.213,164.624 829.869,165.28 830.526,166.594 830.526,168.565 829.213,169.878 827.242,170.535 824.615,170.535 822.644,169.878 821.331,168.565 " />
<polyline points="837.751,156.742 837.751,170.535 " />
<polyline points="833.154,156.742 842.349,156.742 " />
<polyline points="862.711,156.742 857.456,170.535 " />
<polyline points="862.711,156.742 867.966,170.535 " />
<polyline points="859.427,165.937 865.995,165.937 " />
<polyline points="871.25,156.742 871.25,170.535 " />
<polyline points="871.25,156.742 877.161,156.742 879.132,157.398 879.789,158.055 880.445,159.369 880.445,160.683 879.789,161.996 879.132,162.653 877.161,163.31 871.25,163.31 " />
<polyline points="875.848,163.31 880.445,170.535 " />
<polyline points="885.043,156.742 885.043,170.535 " />
<polyline points="885.043,156.742 893.582,156.742 " />
<polyline points="885.043,163.31 890.298,163.31 " />
<polyline points="885.043,170.535 893.582,170.535 " />
<polyline points="900.807,156.742 895.553,170.535 " />
<polyline points="900.807,156.742 906.062,170.535 " />
<polyline points="897.523,165.937 904.091,165.937 " />
<polyline points="910.66,169.878 910.003,170.535 909.346,169.878 910.003,169.221 910.66,169.878 910.66,171.192 910.003,172.506 909.346,173.162 " />
<polyline points="932.992,156.742 927.737,170.535 " />
<polyline points="932.992,156.742 938.247,170.535 " />
<polyline points="929.708,165.937 936.276,165.937 " />
<polyline points="810.592,200.489 809.278,201.146 807.964,202.46 807.307,203.773 806.651,205.744 806.651,209.028 807.307,210.998 807.964,212.312 809.278,213.626 810.592,214.283 813.219,214.283 814.533,213.626 815.846,212.312 816.503,210.998 817.16,209.028 817.16,205.744 816.503,203.773 815.846,202.46 814.533,201.146 813.219,200.489 810.592,200.489 " />
<polyline points="821.758,200.489 821.758,210.342 822.415,212.312 823.728,213.626 825.699,214.283 827.012,214.283 828.983,213.626 830.297,212.312 830.953,210.342 830.953,200.489 " />
<polyline points="838.835,200.489 838.835,214.283 " />
<polyline points="834.238,200.489 843.433,200.489 " />
<polyline points="846.717,200.489 846.717,214.283 854.599,214.283 " />
<polyline points="857.884,200.489 857.884,214.283 " />
<polyline points="857.884,200.489 866.422,200.489 " />
<polyline points="857.884,207.057 863.138,207.057 " />
<polyline points="857.884,214.283 866.422,214.283 " />
<polyline points="872.991,200.489 872.991,214.283 " />
<polyline points="868.393,200.489 877.588,200.489 " />
<polyline points="897.95,200.489 892.696,214.283 " />
<polyline points="897.95,200.489 903.205,214.283 " />
<polyline points="894.666,209.685 901.234,209.685 " />
<polyline points="906.489,200.489 906.489,214.283 " />
<polyline points="906.489,200.489 912.401,200.489 914.371,201.146 915.028,201.803 915.685,203.116 915.685,204.43 915.028,205.744 914.371,206.401 912.401,207.057 906.489,207.057 " />
<polyline points="911.087,207.057 915.685,214.283 " />
<polyline points="920.283,200.489 920.283,214.283 " />
<polyline points="920.283,200.489 928.821,200.489 " />
<polyline points="920.283,207.057 925.537,207.057 " />
<polyline points="920.283,214.283 928.821,214.283 " />
<polyline points="936.047,200.489 930.792,214.283 " />
<polyline points="936.047,200.489 941.301,214.283 " />
<polyline points="932.762,209.685 939.331,209.685 " />
<polyline points="945.899,213.626 945.242,214.283 944.585,213.626 945.242,212.969 945.899,213.626 945.899,214.939 945.242,216.253 944.585,216.91 " />
<polyline points="968.231,200.489 962.977,214.283 " />
<polyline points="968.231,200.489 973.486,214.283 " />
<polyline points="964.947,209.685 971.515,209.685 " />
<polyline points="800.832,410.179 823.433,410.179 " />
<polyline points="744.176,353.973 800.832,410.179 " />
</g>
<g clip-path="url(#clipId0)" fill="rgb(0,0,0)" stroke="rgb(0,0,0)" stroke-width="0.25" >
<path d="M742.557,355.605 745.795,352.341 734.384,344.259 734.384,344.259 z" />
</g>
<g clip-path="url(#clipId0)" fill="none" stroke="rgb(0,0,0)" stroke-width="0.25" >
<polyline points="766.93,272.688 766.93,238.786 " />
<polyline points="746.212,272.688 746.212,212.417 " />
<polyline points="808.718,319.263 735.56,319.263 " />
</g>
<g clip-path="url(#clipId0)" fill="rgb(0,0,0)" stroke="rgb(0,0,0)" stroke-width="0.25" >
<path d="M808.718,316.964 808.718,321.562 822.511,319.263 822.511,319.263 z" />
</g>
<g clip-path="url(#clipId0)" fill="none" stroke="rgb(0,0,0)" stroke-width="0.25" >
<path d="M744.753,344.647  A5.18864,5.18864 0 1,0 734.384,344.259 " />
<polyline points="766.93,364.976 735.587,364.976 " />
<polyline points="766.93,278.112 766.93,364.976 " />
<polyline points="654.391,277.468 766.93,278.112 " />
<path d="M654.391,277.468  A81.8595,81.8595 0 1,0 734.384,344.259 " />
<circle cx="653.923" cy="359.326" r="32.1843" />
</g>
<g clip-path="url(#clipId0)" fill="rgb(0,0,0)" stroke="rgb(0,0,0)" stroke-width="0.25" >
<path d="M226.966,412.025 225.836,407.568 213.031,413.186 213.031,413.186 z" />
</g>
<g clip-path="url(#clipId0)" fill="none" stroke="rgb(0,0,0)" stroke-width="0.25" >
<polyline points="226.401,409.796 315.499,387.208 " />
</g>
<g clip-path="url(#clipId0)" fill="rgb(0,0,0)" stroke="rgb(0,0,0)" stroke-width="0.25" >
<path d="M769.229,258.894 764.631,258.894 766.93,272.688 766.93,272.688 z" />
<path d="M748.511,258.894 743.913,258.894 746.212,272.688 746.212,272.688 z" />
</g>
<g clip-path="url(#clipId0)" fill="none" stroke="rgb(0,0,0)" stroke-width="0.25" >
<polyline points="715.702,591.561 721.482,591.561 721.482,590.598 721.001,589.635 720.519,589.153 719.556,588.671 718.111,588.671 717.147,589.153 716.184,590.116 715.702,591.561 715.702,592.525 716.184,593.97 717.147,594.933 718.111,595.415 719.556,595.415 720.519,594.933 721.482,593.97 " />
<polyline points="715.67,556.374 721.45,556.374 721.45,555.411 720.968,554.448 720.486,553.966 719.523,553.484 718.078,553.484 717.115,553.966 716.151,554.929 715.67,556.374 715.67,557.338 716.151,558.783 717.115,559.746 718.078,560.228 719.523,560.228 720.486,559.746 721.45,558.783 " />
<polyline points="588.852,728.932 587.669,729.326 586.881,730.509 586.487,732.479 586.487,733.662 586.881,735.632 587.669,736.814 588.852,737.208 589.64,737.208 590.822,736.814 591.61,735.632 592.005,733.662 592.005,732.479 591.61,730.509 590.822,729.326 589.64,728.932 588.852,728.932 " />
<polyline points="576.693,719.89 571.438,733.683 " />
<polyline points="576.693,719.89 581.947,733.683 " />
<polyline points="573.409,729.085 579.977,729.085 " />
<polyline points="573.409,684.548 573.409,698.341 581.291,698.341 " />
<polyline points="571.438,649.206 576.693,663 " />
<polyline points="581.947,649.206 576.693,663 " />
<polyline points="533.653,578.523 538.907,592.316 " />
<polyline points="544.162,578.523 538.907,592.316 " />
<polyline points="533.653,543.181 538.907,556.974 " />
<polyline points="544.162,543.181 538.907,556.974 " />
<polyline points="586.75,697.856 592.53,697.856 592.53,696.892 592.048,695.929 591.567,695.447 590.603,694.965 589.158,694.965 588.195,695.447 587.232,696.411 586.75,697.856 586.75,698.819 587.232,700.264 588.195,701.227 589.158,701.709 590.603,701.709 591.567,701.227 592.53,700.264 " />
<polyline points="773.355,571.231 796.249,571.231 " />
<polyline points="799.347,535.328 820.932,535.328 " />
<polyline points="585.591,658.439 584.409,658.833 583.621,660.015 583.226,661.985 583.226,663.168 583.621,665.138 584.409,666.32 585.591,666.715 586.379,666.715 587.562,666.32 588.35,665.138 588.744,663.168 588.744,661.985 588.35,660.015 587.562,658.833 586.379,658.439 585.591,658.439 " />
<polyline points="788.14,587.139 786.958,587.533 786.169,588.715 785.775,590.685 785.775,591.868 786.169,593.838 786.958,595.021 788.14,595.415 788.928,595.415 790.11,595.021 790.899,593.838 791.293,591.868 791.293,590.685 790.899,588.715 790.11,587.533 788.928,587.139 788.14,587.139 " />
<polyline points="771.106,551.952 769.923,552.346 769.135,553.528 768.741,555.499 768.741,556.681 769.135,558.651 769.923,559.834 771.106,560.228 771.894,560.228 773.076,559.834 773.864,558.651 774.259,556.681 774.259,555.499 773.864,553.528 773.076,552.346 771.894,551.952 771.106,551.952 " />
<polyline points="813.145,551.952 811.962,552.346 811.174,553.528 810.78,555.499 810.78,556.681 811.174,558.651 811.962,559.834 813.145,560.228 813.933,560.228 815.115,559.834 815.903,558.651 816.297,556.681 816.297,555.499 815.903,553.528 815.115,552.346 813.933,551.952 813.145,551.952 " />
<polyline points="547.148,588.131 545.966,588.525 545.178,589.707 544.784,591.678 544.784,592.86 545.178,594.831 545.966,596.013 547.148,596.407 547.936,596.407 549.119,596.013 549.907,594.831 550.301,592.86 550.301,591.678 549.907,589.707 549.119,588.525 547.936,588.131 547.148,588.131 " />
<polyline points="548.463,551.484 547.281,551.878 546.493,553.06 546.098,555.031 546.098,556.213 546.493,558.184 547.281,559.366 548.463,559.76 549.251,559.76 550.434,559.366 551.222,558.184 551.616,556.213 551.616,555.031 551.222,553.06 550.434,551.878 549.251,551.484 548.463,551.484 " />
<polyline points="565.664,594.263 577.575,594.263 " />
<polyline points="753.702,583.83 756.986,583.83 762.897,591.712 " />
<polyline points="756.329,584.487 762.897,593.026 " />
<polyline points="773.407,571.35 762.897,593.026 " />
<polyline points="779.771,548.559 783.055,548.559 788.966,556.441 " />
<polyline points="782.398,549.215 788.966,557.754 " />
<polyline points="799.476,536.079 788.966,557.754 " />
<polyline points="605.805,725.801 617.628,725.801 " />
<polyline points="605.805,729.742 617.628,729.742 " />
<polyline points="643.901,719.89 643.901,733.683 " />
<polyline points="643.901,726.458 642.588,725.144 641.274,724.487 639.304,724.487 637.99,725.144 636.676,726.458 636.019,728.428 636.019,729.742 636.676,731.712 637.99,733.026 639.304,733.683 641.274,733.683 642.588,733.026 643.901,731.712 " />
<polyline points="649.156,724.487 649.156,731.056 649.813,733.026 651.127,733.683 653.097,733.683 654.411,733.026 656.381,731.056 " />
<polyline points="656.381,724.487 656.381,733.683 " />
<polyline points="668.861,726.458 667.547,725.144 666.234,724.487 664.263,724.487 662.95,725.144 661.636,726.458 660.979,728.428 660.979,729.742 661.636,731.712 662.95,733.026 664.263,733.683 666.234,733.683 667.547,733.026 668.861,731.712 " />
<polyline points="674.116,719.89 674.116,731.056 674.773,733.026 676.086,733.683 677.4,733.683 " />
<polyline points="672.145,724.487 676.743,724.487 " />
<polyline points="702.36,724.487 702.36,733.683 " />
<polyline points="702.36,726.458 701.046,725.144 699.732,724.487 697.762,724.487 696.448,725.144 695.134,726.458 694.478,728.428 694.478,729.742 695.134,731.712 696.448,733.026 697.762,733.683 699.732,733.683 701.046,733.026 702.36,731.712 " />
<polyline points="707.614,724.487 707.614,733.683 " />
<polyline points="707.614,728.428 708.271,726.458 709.585,725.144 710.898,724.487 712.869,724.487 " />
<polyline points="715.496,728.428 723.378,728.428 723.378,727.115 722.721,725.801 722.064,725.144 720.751,724.487 718.78,724.487 717.467,725.144 716.153,726.458 715.496,728.428 715.496,729.742 716.153,731.712 717.467,733.026 718.78,733.683 720.751,733.683 722.064,733.026 723.378,731.712 " />
<polyline points="735.201,724.487 735.201,733.683 " />
<polyline points="735.201,726.458 733.887,725.144 732.574,724.487 730.603,724.487 729.29,725.144 727.976,726.458 727.319,728.428 727.319,729.742 727.976,731.712 729.29,733.026 730.603,733.683 732.574,733.683 733.887,733.026 735.201,731.712 " />
<polyline points="741.769,733.026 741.113,733.683 740.456,733.026 741.113,732.369 741.769,733.026 741.769,734.34 741.113,735.653 740.456,736.31 " />
<polyline points="760.818,724.487 760.818,733.683 " />
<polyline points="760.818,727.115 762.788,725.144 764.102,724.487 766.072,724.487 767.386,725.144 768.043,727.115 768.043,733.683 " />
<polyline points="768.043,727.115 770.013,725.144 771.327,724.487 773.297,724.487 774.611,725.144 775.268,727.115 775.268,733.683 " />
<polyline points="780.523,724.487 780.523,733.683 " />
<polyline points="780.523,727.115 782.493,725.144 783.807,724.487 785.777,724.487 787.091,725.144 787.748,727.115 787.748,733.683 " />
<polyline points="787.748,727.115 789.718,725.144 791.032,724.487 793.002,724.487 794.316,725.144 794.973,727.115 794.973,733.683 " />
<polyline points="605.805,690.459 617.628,690.459 " />
<polyline points="605.805,694.4 617.628,694.4 " />
<polyline points="636.019,693.087 643.901,693.087 643.901,691.773 643.245,690.459 642.588,689.802 641.274,689.146 639.304,689.146 637.99,689.802 636.676,691.116 636.019,693.087 636.019,694.4 636.676,696.371 637.99,697.684 639.304,698.341 641.274,698.341 642.588,697.684 643.901,696.371 " />
<polyline points="652.44,684.548 651.127,684.548 649.813,685.205 649.156,687.175 649.156,698.341 " />
<polyline points="647.186,689.146 651.783,689.146 " />
<polyline points="660.322,684.548 659.009,684.548 657.695,685.205 657.038,687.175 657.038,698.341 " />
<polyline points="655.068,689.146 659.665,689.146 " />
<polyline points="663.606,693.087 671.488,693.087 671.488,691.773 670.832,690.459 670.175,689.802 668.861,689.146 666.891,689.146 665.577,689.802 664.263,691.116 663.606,693.087 663.606,694.4 664.263,696.371 665.577,697.684 666.891,698.341 668.861,698.341 670.175,697.684 671.488,696.371 " />
<polyline points="683.311,691.116 681.998,689.802 680.684,689.146 678.714,689.146 677.4,689.802 676.086,691.116 675.429,693.087 675.429,694.4 676.086,696.371 677.4,697.684 678.714,698.341 680.684,698.341 681.998,697.684 683.311,696.371 " />
<polyline points="688.566,684.548 688.566,695.714 689.223,697.684 690.537,698.341 691.85,698.341 " />
<polyline points="686.596,689.146 691.193,689.146 " />
<polyline points="695.134,685.205 695.791,685.861 696.448,685.205 695.791,684.548 695.134,685.205 " />
<polyline points="695.791,689.802 695.791,698.341 " />
<polyline points="699.732,689.146 703.673,698.341 " />
<polyline points="707.614,689.146 703.673,698.341 " />
<polyline points="710.898,693.087 718.78,693.087 718.78,691.773 718.123,690.459 717.467,689.802 716.153,689.146 714.182,689.146 712.869,689.802 711.555,691.116 710.898,693.087 710.898,694.4 711.555,696.371 712.869,697.684 714.182,698.341 716.153,698.341 717.467,697.684 718.78,696.371 " />
<polyline points="744.397,684.548 744.397,698.341 " />
<polyline points="744.397,691.116 743.083,689.802 741.769,689.146 739.799,689.146 738.485,689.802 737.172,691.116 736.515,693.087 736.515,694.4 737.172,696.371 738.485,697.684 739.799,698.341 741.769,698.341 743.083,697.684 744.397,696.371 " />
<polyline points="749.651,689.146 749.651,695.714 750.308,697.684 751.622,698.341 753.592,698.341 754.906,697.684 756.877,695.714 " />
<polyline points="756.877,689.146 756.877,698.341 " />
<polyline points="769.356,691.116 768.043,689.802 766.729,689.146 764.759,689.146 763.445,689.802 762.131,691.116 761.474,693.087 761.474,694.4 762.131,696.371 763.445,697.684 764.759,698.341 766.729,698.341 768.043,697.684 769.356,696.371 " />
<polyline points="774.611,684.548 774.611,695.714 775.268,697.684 776.582,698.341 777.895,698.341 " />
<polyline points="772.641,689.146 777.238,689.146 " />
<polyline points="795.63,684.548 795.63,698.341 " />
<polyline points="800.227,693.087 808.109,693.087 808.109,691.773 807.453,690.459 806.796,689.802 805.482,689.146 803.512,689.146 802.198,689.802 800.884,691.116 800.227,693.087 800.227,694.4 800.884,696.371 802.198,697.684 803.512,698.341 805.482,698.341 806.796,697.684 808.109,696.371 " />
<polyline points="812.707,689.146 812.707,698.341 " />
<polyline points="812.707,691.773 814.678,689.802 815.991,689.146 817.962,689.146 819.276,689.802 819.932,691.773 819.932,698.341 " />
<polyline points="832.412,689.146 832.412,699.655 831.755,701.625 831.099,702.282 829.785,702.939 827.814,702.939 826.501,702.282 " />
<polyline points="832.412,691.116 831.099,689.802 829.785,689.146 827.814,689.146 826.501,689.802 825.187,691.116 824.53,693.087 824.53,694.4 825.187,696.371 826.501,697.684 827.814,698.341 829.785,698.341 831.099,697.684 832.412,696.371 " />
<polyline points="838.324,684.548 838.324,695.714 838.981,697.684 840.294,698.341 841.608,698.341 " />
<polyline points="836.353,689.146 840.951,689.146 " />
<polyline points="845.549,684.548 845.549,698.341 " />
<polyline points="845.549,691.773 847.519,689.802 848.833,689.146 850.804,689.146 852.117,689.802 852.774,691.773 852.774,698.341 " />
<polyline points="859.342,697.684 858.686,698.341 858.029,697.684 858.686,697.028 859.342,697.684 859.342,698.998 858.686,700.312 858.029,700.969 " />
<polyline points="878.39,689.146 878.39,698.341 " />
<polyline points="878.39,691.773 880.361,689.802 881.675,689.146 883.645,689.146 884.959,689.802 885.616,691.773 885.616,698.341 " />
<polyline points="885.616,691.773 887.586,689.802 888.9,689.146 890.87,689.146 892.184,689.802 892.841,691.773 892.841,698.341 " />
<polyline points="605.805,655.118 617.628,655.118 " />
<polyline points="605.805,659.059 617.628,659.059 " />
<polyline points="643.901,649.206 643.901,663 " />
<polyline points="643.901,655.774 642.588,654.461 641.274,653.804 639.304,653.804 637.99,654.461 636.676,655.774 636.019,657.745 636.019,659.059 636.676,661.029 637.99,662.343 639.304,663 641.274,663 642.588,662.343 643.901,661.029 " />
<polyline points="649.156,653.804 649.156,660.372 649.813,662.343 651.127,663 653.097,663 654.411,662.343 656.381,660.372 " />
<polyline points="656.381,653.804 656.381,663 " />
<polyline points="668.861,655.774 667.547,654.461 666.234,653.804 664.263,653.804 662.95,654.461 661.636,655.774 660.979,657.745 660.979,659.059 661.636,661.029 662.95,662.343 664.263,663 666.234,663 667.547,662.343 668.861,661.029 " />
<polyline points="674.116,649.206 674.116,660.372 674.773,662.343 676.086,663 677.4,663 " />
<polyline points="672.145,653.804 676.743,653.804 " />
<polyline points="693.821,653.804 697.762,663 " />
<polyline points="701.703,653.804 697.762,663 " />
<polyline points="704.987,657.745 712.869,657.745 712.869,656.431 712.212,655.118 711.555,654.461 710.241,653.804 708.271,653.804 706.957,654.461 705.644,655.774 704.987,657.745 704.987,659.059 705.644,661.029 706.957,662.343 708.271,663 710.241,663 711.555,662.343 712.869,661.029 " />
<polyline points="717.467,649.206 717.467,663 " />
<polyline points="725.349,653.804 724.035,654.461 722.721,655.774 722.064,657.745 722.064,659.059 722.721,661.029 724.035,662.343 725.349,663 727.319,663 728.633,662.343 729.946,661.029 730.603,659.059 730.603,657.745 729.946,655.774 728.633,654.461 727.319,653.804 725.349,653.804 " />
<polyline points="742.426,655.774 741.113,654.461 739.799,653.804 737.828,653.804 736.515,654.461 735.201,655.774 734.544,657.745 734.544,659.059 735.201,661.029 736.515,662.343 737.828,663 739.799,663 741.113,662.343 742.426,661.029 " />
<polyline points="746.367,649.863 747.024,650.52 747.681,649.863 747.024,649.206 746.367,649.863 " />
<polyline points="747.024,654.461 747.024,663 " />
<polyline points="752.936,649.206 752.936,660.372 753.592,662.343 754.906,663 756.22,663 " />
<polyline points="750.965,653.804 755.563,653.804 " />
<polyline points="758.847,653.804 762.788,663 " />
<polyline points="766.729,653.804 762.788,663 761.474,665.627 760.161,666.941 758.847,667.597 758.19,667.597 " />
<polyline points="771.984,662.343 771.327,663 770.67,662.343 771.327,661.686 771.984,662.343 771.984,663.656 771.327,664.97 770.67,665.627 " />
<polyline points="791.032,653.804 791.032,663 " />
<polyline points="791.032,656.431 793.002,654.461 794.316,653.804 796.286,653.804 797.6,654.461 798.257,656.431 798.257,663 " />
<polyline points="798.257,656.431 800.227,654.461 801.541,653.804 803.512,653.804 804.825,654.461 805.482,656.431 805.482,663 " />
<polyline points="821.246,646.579 809.423,667.597 " />
<polyline points="831.755,655.774 831.099,654.461 829.128,653.804 827.158,653.804 825.187,654.461 824.53,655.774 825.187,657.088 826.501,657.745 829.785,658.402 831.099,659.059 831.755,660.372 831.755,661.029 831.099,662.343 829.128,663 827.158,663 825.187,662.343 824.53,661.029 " />
<polyline points="532.544,618.462 535.171,627.658 " />
<polyline points="537.798,618.462 535.171,627.658 " />
<polyline points="537.798,618.462 540.426,627.658 " />
<polyline points="543.053,618.462 540.426,627.658 " />
<polyline points="547.651,613.864 547.651,627.658 " />
<polyline points="547.651,621.089 549.621,619.119 550.935,618.462 552.906,618.462 554.219,619.119 554.876,621.089 554.876,627.658 " />
<polyline points="559.474,622.403 567.356,622.403 567.356,621.089 566.699,619.776 566.042,619.119 564.729,618.462 562.758,618.462 561.444,619.119 560.131,620.433 559.474,622.403 559.474,623.717 560.131,625.687 561.444,627.001 562.758,627.658 564.729,627.658 566.042,627.001 567.356,625.687 " />
<polyline points="571.954,618.462 571.954,627.658 " />
<polyline points="571.954,622.403 572.611,620.433 573.924,619.119 575.238,618.462 577.208,618.462 " />
<polyline points="579.836,622.403 587.718,622.403 587.718,621.089 587.061,619.776 586.404,619.119 585.09,618.462 583.12,618.462 581.806,619.119 580.493,620.433 579.836,622.403 579.836,623.717 580.493,625.687 581.806,627.001 583.12,627.658 585.09,627.658 586.404,627.001 587.718,625.687 " />
<polyline points="578.529,580.493 568.02,586.405 578.529,592.316 " />
<polyline points="598.891,581.15 600.205,580.493 602.175,578.523 602.175,592.316 " />
<polyline points="611.371,578.523 618.596,578.523 614.655,583.777 616.625,583.777 617.939,584.434 618.596,585.091 619.253,587.061 619.253,588.375 618.596,590.346 617.282,591.659 615.312,592.316 613.341,592.316 611.371,591.659 610.714,591.002 610.057,589.689 " />
<polyline points="637.644,583.12 637.644,592.316 " />
<polyline points="637.644,585.748 639.614,583.777 640.928,583.12 642.899,583.12 644.212,583.777 644.869,585.748 644.869,592.316 " />
<polyline points="644.869,585.748 646.84,583.777 648.153,583.12 650.124,583.12 651.437,583.777 652.094,585.748 652.094,592.316 " />
<polyline points="667.858,575.895 656.035,596.914 " />
<polyline points="678.368,585.091 677.711,583.777 675.74,583.12 673.77,583.12 671.799,583.777 671.142,585.091 671.799,586.405 673.113,587.061 676.397,587.718 677.711,588.375 678.368,589.689 678.368,590.346 677.711,591.659 675.74,592.316 673.77,592.316 671.799,591.659 671.142,590.346 " />
<polyline points="683.622,583.12 682.965,583.777 683.622,584.434 684.279,583.777 683.622,583.12 " />
<polyline points="683.622,591.002 682.965,591.659 683.622,592.316 684.279,591.659 683.622,591.002 " />
<polyline points="703.327,578.523 703.327,592.316 711.209,592.316 " />
<polyline points="728.287,584.434 740.11,584.434 " />
<polyline points="728.287,588.375 740.11,588.375 " />
<polyline points="776.236,578.523 770.981,592.316 " />
<polyline points="776.236,578.523 781.49,592.316 " />
<polyline points="772.951,587.718 779.52,587.718 " />
<polyline points="809.077,575.895 797.254,596.914 " />
<polyline points="813.675,578.523 820.9,578.523 816.959,583.777 818.93,583.777 820.243,584.434 820.9,585.091 821.557,587.061 821.557,588.375 820.9,590.346 819.586,591.659 817.616,592.316 815.645,592.316 813.675,591.659 813.018,591.002 812.361,589.689 " />
<polyline points="833.38,578.523 826.812,578.523 826.155,584.434 826.812,583.777 828.782,583.12 830.753,583.12 832.723,583.777 834.037,585.091 834.694,587.061 834.694,588.375 834.037,590.346 832.723,591.659 830.753,592.316 828.782,592.316 826.812,591.659 826.155,591.002 825.498,589.689 " />
<polyline points="842.576,578.523 840.605,579.179 839.291,581.15 838.635,584.434 838.635,586.405 839.291,589.689 840.605,591.659 842.576,592.316 843.889,592.316 845.86,591.659 847.173,589.689 847.83,586.405 847.83,584.434 847.173,581.15 845.86,579.179 843.889,578.523 842.576,578.523 " />
<polyline points="568.02,545.151 578.529,551.063 568.02,556.974 " />
<polyline points="598.891,545.808 600.205,545.151 602.175,543.181 602.175,556.974 " />
<polyline points="611.371,543.181 618.596,543.181 614.655,548.436 616.625,548.436 617.939,549.092 618.596,549.749 619.253,551.72 619.253,553.033 618.596,555.004 617.282,556.317 615.312,556.974 613.341,556.974 611.371,556.317 610.714,555.661 610.057,554.347 " />
<polyline points="637.644,547.779 637.644,556.974 " />
<polyline points="637.644,550.406 639.614,548.436 640.928,547.779 642.899,547.779 644.212,548.436 644.869,550.406 644.869,556.974 " />
<polyline points="644.869,550.406 646.84,548.436 648.153,547.779 650.124,547.779 651.437,548.436 652.094,550.406 652.094,556.974 " />
<polyline points="667.858,540.554 656.035,561.572 " />
<polyline points="678.368,549.749 677.711,548.436 675.74,547.779 673.77,547.779 671.799,548.436 671.142,549.749 671.799,551.063 673.113,551.72 676.397,552.376 677.711,553.033 678.368,554.347 678.368,555.004 677.711,556.317 675.74,556.974 673.77,556.974 671.799,556.317 671.142,555.004 " />
<polyline points="683.622,547.779 682.965,548.436 683.622,549.092 684.279,548.436 683.622,547.779 " />
<polyline points="683.622,555.661 682.965,556.317 683.622,556.974 684.279,556.317 683.622,555.661 " />
<polyline points="703.327,543.181 703.327,556.974 711.209,556.974 " />
<polyline points="728.287,549.092 740.11,549.092 " />
<polyline points="728.287,553.033 740.11,553.033 " />
<polyline points="757.187,543.181 762.442,556.974 " />
<polyline points="767.697,543.181 762.442,556.974 " />
<polyline points="801.852,543.181 796.597,556.974 " />
<polyline points="801.852,543.181 807.107,556.974 " />
<polyline points="798.568,552.376 805.136,552.376 " />
<polyline points="834.694,540.554 822.871,561.572 " />
<polyline points="844.546,543.181 837.978,552.376 847.83,552.376 " />
<polyline points="844.546,543.181 844.546,556.974 " />
<polyline points="853.085,556.317 852.428,556.974 851.771,556.317 852.428,555.661 853.085,556.317 853.085,557.631 852.428,558.945 851.771,559.602 " />
<polyline points="865.565,543.181 858.996,543.181 858.34,549.092 858.996,548.436 860.967,547.779 862.937,547.779 864.908,548.436 866.222,549.749 866.878,551.72 866.878,553.033 866.222,555.004 864.908,556.317 862.937,556.974 860.967,556.974 858.996,556.317 858.34,555.661 857.683,554.347 " />
<polyline points="874.76,543.181 872.79,543.838 871.476,545.808 870.819,549.092 870.819,551.063 871.476,554.347 872.79,556.317 874.76,556.974 876.074,556.974 878.045,556.317 879.358,554.347 880.015,551.063 880.015,549.092 879.358,545.808 878.045,543.838 876.074,543.181 874.76,543.181 " />
<polyline points="887.897,543.181 885.927,543.838 884.613,545.808 883.956,549.092 883.956,551.063 884.613,554.347 885.927,556.317 887.897,556.974 889.211,556.974 891.181,556.317 892.495,554.347 893.152,551.063 893.152,549.092 892.495,545.808 891.181,543.838 889.211,543.181 887.897,543.181 " />
<polyline points="802.813,719.38 802.813,718.986 803.207,718.197 803.601,717.803 804.389,717.409 805.966,717.409 806.754,717.803 807.148,718.197 807.542,718.986 807.542,719.774 807.148,720.562 806.36,721.744 802.419,725.685 807.936,725.685 " />
<polyline points="306.614,552.135 305.432,552.529 304.644,553.711 304.25,555.682 304.25,556.864 304.644,558.835 305.432,560.017 306.614,560.411 307.402,560.411 308.585,560.017 309.373,558.835 309.767,556.864 309.767,555.682 309.373,553.711 308.585,552.529 307.402,552.135 306.614,552.135 " />
<polyline points="52.7307,619.198 55.358,628.394 " />
<polyline points="57.9854,619.198 55.358,628.394 " />
<polyline points="57.9854,619.198 60.6127,628.394 " />
<polyline points="63.24,619.198 60.6127,628.394 " />
<polyline points="67.8379,614.601 67.8379,628.394 " />
<polyline points="67.8379,621.826 69.8083,619.855 71.122,619.198 73.0925,619.198 74.4062,619.855 75.063,621.826 75.063,628.394 " />
<polyline points="79.6608,623.139 87.5428,623.139 87.5428,621.826 86.886,620.512 86.2292,619.855 84.9155,619.198 82.945,619.198 81.6313,619.855 80.3177,621.169 79.6608,623.139 79.6608,624.453 80.3177,626.424 81.6313,627.737 82.945,628.394 84.9155,628.394 86.2292,627.737 87.5428,626.424 " />
<polyline points="92.1406,619.198 92.1406,628.394 " />
<polyline points="92.1406,623.139 92.7975,621.169 94.1111,619.855 95.4248,619.198 97.3953,619.198 " />
<polyline points="100.023,623.139 107.905,623.139 107.905,621.826 107.248,620.512 106.591,619.855 105.277,619.198 103.307,619.198 101.993,619.855 100.679,621.169 100.023,623.139 100.023,624.453 100.679,626.424 101.993,627.737 103.307,628.394 105.277,628.394 106.591,627.737 107.905,626.424 " />
<polyline points="87.8997,596.19 98.5361,596.19 " />
<polyline points="53.4846,578.523 58.7393,592.316 " />
<polyline points="63.9939,578.523 58.7393,592.316 " />
<polyline points="67.5276,586.881 66.3453,587.275 65.5571,588.458 65.163,590.428 65.163,591.61 65.5571,593.581 66.3453,594.763 67.5276,595.157 68.3158,595.157 69.4981,594.763 70.2863,593.581 70.6804,591.61 70.6804,590.428 70.2863,588.458 69.4981,587.275 68.3158,586.881 67.5276,586.881 " />
<polyline points="98.361,580.493 87.8517,586.405 98.361,592.316 " />
<polyline points="117.409,581.807 117.409,581.15 118.066,579.836 118.723,579.179 120.036,578.523 122.664,578.523 123.977,579.179 124.634,579.836 125.291,581.15 125.291,582.464 124.634,583.777 123.321,585.748 116.752,592.316 125.948,592.316 " />
<polyline points="137.771,578.523 131.203,578.523 130.546,584.434 131.203,583.777 133.173,583.12 135.144,583.12 137.114,583.777 138.428,585.091 139.085,587.061 139.085,588.375 138.428,590.346 137.114,591.659 135.144,592.316 133.173,592.316 131.203,591.659 130.546,591.002 129.889,589.689 " />
<polyline points="146.967,578.523 144.996,579.179 143.682,581.15 143.026,584.434 143.026,586.405 143.682,589.689 144.996,591.659 146.967,592.316 148.28,592.316 150.251,591.659 151.564,589.689 152.221,586.405 152.221,584.434 151.564,581.15 150.251,579.179 148.28,578.523 146.967,578.523 " />
<polyline points="160.103,578.523 158.133,579.179 156.819,581.15 156.162,584.434 156.162,586.405 156.819,589.689 158.133,591.659 160.103,592.316 161.417,592.316 163.387,591.659 164.701,589.689 165.358,586.405 165.358,584.434 164.701,581.15 163.387,579.179 161.417,578.523 160.103,578.523 " />
<polyline points="187.69,578.523 186.376,578.523 185.063,579.179 184.406,581.15 184.406,592.316 " />
<polyline points="182.436,583.12 187.033,583.12 " />
<polyline points="191.631,583.12 191.631,596.914 " />
<polyline points="191.631,585.091 192.945,583.777 194.258,583.12 196.229,583.12 197.543,583.777 198.856,585.091 199.513,587.061 199.513,588.375 198.856,590.346 197.543,591.659 196.229,592.316 194.258,592.316 192.945,591.659 191.631,590.346 " />
<polyline points="204.111,583.12 204.111,592.316 " />
<polyline points="204.111,585.748 206.081,583.777 207.395,583.12 209.366,583.12 210.679,583.777 211.336,585.748 211.336,592.316 " />
<polyline points="211.336,585.748 213.307,583.777 214.62,583.12 216.591,583.12 217.904,583.777 218.561,585.748 218.561,592.316 " />
<polyline points="224.473,583.12 223.816,583.777 224.473,584.434 225.13,583.777 224.473,583.12 " />
<polyline points="224.473,591.002 223.816,591.659 224.473,592.316 225.13,591.659 224.473,591.002 " />
<polyline points="263.922,584.434 275.745,584.434 " />
<polyline points="263.922,588.375 275.745,588.375 " />
<polyline points="249.344,593.603 255.124,593.603 255.124,592.64 254.642,591.677 254.161,591.195 253.197,590.713 251.752,590.713 250.789,591.195 249.826,592.158 249.344,593.603 249.344,594.567 249.826,596.012 250.789,596.975 251.752,597.457 253.197,597.457 254.161,596.975 255.124,596.012 " />
<polyline points="236.369,578.802 236.369,592.596 244.251,592.596 " />
<polyline points="327.61,587.282 326.427,587.676 325.639,588.858 325.245,590.829 325.245,592.011 325.639,593.981 326.427,595.164 327.61,595.558 328.398,595.558 329.58,595.164 330.368,593.981 330.762,592.011 330.762,590.829 330.368,588.858 329.58,587.676 328.398,587.282 327.61,587.282 " />
<polyline points="315.817,578.802 310.562,592.596 " />
<polyline points="315.817,578.802 321.072,592.596 " />
<polyline points="312.533,587.998 319.101,587.998 " />
<polyline points="292.365,591.772 296.164,586.25 " />
<polyline points="296.164,586.25 300.723,598.399 " />
<polyline points="300.723,598.399 306.8,575.206 " />
<polyline points="306.8,575.206 331.872,575.206 " />
<polyline points="350.963,576.175 339.14,597.194 " />
<polyline points="360.815,578.802 354.247,587.998 364.1,587.998 " />
<polyline points="360.815,578.802 360.815,592.596 " />
<polyline points="368.697,591.282 368.041,591.939 368.697,592.596 369.354,591.939 368.697,591.282 " />
<polyline points="375.266,578.802 382.491,578.802 378.55,584.057 380.52,584.057 381.834,584.714 382.491,585.371 383.148,587.341 383.148,588.655 382.491,590.625 381.177,591.939 379.207,592.596 377.236,592.596 375.266,591.939 374.609,591.282 373.952,589.969 " />
<polyline points="373.695,540.833 361.872,561.852 " />
<polyline points="378.949,546.088 380.263,545.431 382.234,543.461 382.234,557.254 " />
<polyline points="394.057,543.461 392.086,544.118 390.772,546.088 390.116,549.372 390.116,551.343 390.772,554.627 392.086,556.597 394.057,557.254 395.37,557.254 397.341,556.597 398.654,554.627 399.311,551.343 399.311,549.372 398.654,546.088 397.341,544.118 395.37,543.461 394.057,543.461 " />
<polyline points="405.223,556.597 404.566,557.254 403.909,556.597 404.566,555.941 405.223,556.597 405.223,557.911 404.566,559.225 403.909,559.881 " />
<polyline points="418.359,545.431 417.702,544.118 415.732,543.461 414.418,543.461 412.448,544.118 411.134,546.088 410.477,549.372 410.477,552.656 411.134,555.284 412.448,556.597 414.418,557.254 415.075,557.254 417.046,556.597 418.359,555.284 419.016,553.313 419.016,552.656 418.359,550.686 417.046,549.372 415.075,548.715 414.418,548.715 412.448,549.372 411.134,550.686 410.477,552.656 " />
<polyline points="426.898,543.461 424.928,544.118 423.614,546.088 422.957,549.372 422.957,551.343 423.614,554.627 424.928,556.597 426.898,557.254 428.212,557.254 430.182,556.597 431.496,554.627 432.153,551.343 432.153,549.372 431.496,546.088 430.182,544.118 428.212,543.461 426.898,543.461 " />
<polyline points="440.035,543.461 438.064,544.118 436.751,546.088 436.094,549.372 436.094,551.343 436.751,554.627 438.064,556.597 440.035,557.254 441.348,557.254 443.319,556.597 444.633,554.627 445.289,551.343 445.289,549.372 444.633,546.088 443.319,544.118 441.348,543.461 440.035,543.461 " />
<polyline points="330.007,539.864 355.079,539.864 " />
<polyline points="323.929,563.057 330.007,539.864 " />
<polyline points="319.371,550.908 323.929,563.057 " />
<polyline points="315.572,556.43 319.371,550.908 " />
<polyline points="339.024,543.461 333.769,557.254 " />
<polyline points="339.024,543.461 344.278,557.254 " />
<polyline points="335.74,552.656 342.308,552.656 " />
<polyline points="350.816,551.94 349.634,552.334 348.846,553.516 348.452,555.487 348.452,556.669 348.846,558.64 349.634,559.822 350.816,560.216 351.604,560.216 352.787,559.822 353.575,558.64 353.969,556.669 353.969,555.487 353.575,553.516 352.787,552.334 351.604,551.94 350.816,551.94 " />
<polyline points="236.369,543.461 236.369,557.254 244.251,557.254 " />
<polyline points="248.869,556.837 254.649,556.837 254.649,555.874 254.168,554.911 253.686,554.429 252.723,553.947 251.278,553.947 250.314,554.429 249.351,555.392 248.869,556.837 248.869,557.801 249.351,559.246 250.314,560.209 251.278,560.691 252.723,560.691 253.686,560.209 254.649,559.246 " />
<polyline points="263.922,549.092 275.745,549.092 " />
<polyline points="263.922,553.033 275.745,553.033 " />
<polyline points="292.822,543.181 298.077,556.974 " />
<polyline points="303.332,543.181 298.077,556.974 " />
<polyline points="87.8517,545.151 98.361,551.063 87.8517,556.974 " />
<polyline points="117.409,546.465 117.409,545.808 118.066,544.495 118.723,543.838 120.036,543.181 122.664,543.181 123.977,543.838 124.634,544.495 125.291,545.808 125.291,547.122 124.634,548.436 123.321,550.406 116.752,556.974 125.948,556.974 " />
<polyline points="137.771,543.181 131.203,543.181 130.546,549.092 131.203,548.436 133.173,547.779 135.144,547.779 137.114,548.436 138.428,549.749 139.085,551.72 139.085,553.033 138.428,555.004 137.114,556.317 135.144,556.974 133.173,556.974 131.203,556.317 130.546,555.661 129.889,554.347 " />
<polyline points="146.967,543.181 144.996,543.838 143.682,545.808 143.026,549.092 143.026,551.063 143.682,554.347 144.996,556.317 146.967,556.974 148.28,556.974 150.251,556.317 151.564,554.347 152.221,551.063 152.221,549.092 151.564,545.808 150.251,543.838 148.28,543.181 146.967,543.181 " />
<polyline points="160.103,543.181 158.133,543.838 156.819,545.808 156.162,549.092 156.162,551.063 156.819,554.347 158.133,556.317 160.103,556.974 161.417,556.974 163.387,556.317 164.701,554.347 165.358,551.063 165.358,549.092 164.701,545.808 163.387,543.838 161.417,543.181 160.103,543.181 " />
<polyline points="187.69,543.181 186.376,543.181 185.063,543.838 184.406,545.808 184.406,556.974 " />
<polyline points="182.436,547.779 187.033,547.779 " />
<polyline points="191.631,547.779 191.631,561.572 " />
<polyline points="191.631,549.749 192.945,548.436 194.258,547.779 196.229,547.779 197.543,548.436 198.856,549.749 199.513,551.72 199.513,553.033 198.856,555.004 197.543,556.317 196.229,556.974 194.258,556.974 192.945,556.317 191.631,555.004 " />
<polyline points="204.111,547.779 204.111,556.974 " />
<polyline points="204.111,550.406 206.081,548.436 207.395,547.779 209.366,547.779 210.679,548.436 211.336,550.406 211.336,556.974 " />
<polyline points="211.336,550.406 213.307,548.436 214.62,547.779 216.591,547.779 217.904,548.436 218.561,550.406 218.561,556.974 " />
<polyline points="224.473,547.779 223.816,548.436 224.473,549.092 225.13,548.436 224.473,547.779 " />
<polyline points="224.473,555.661 223.816,556.317 224.473,556.974 225.13,556.317 224.473,555.661 " />
<polyline points="68.2163,551.54 67.034,551.934 66.2458,553.116 65.8517,555.087 65.8517,556.269 66.2458,558.24 67.034,559.422 68.2163,559.816 69.0045,559.816 70.1868,559.422 70.975,558.24 71.3691,556.269 71.3691,555.087 70.975,553.116 70.1868,551.934 69.0045,551.54 68.2163,551.54 " />
<polyline points="53.4846,543.181 58.7393,556.974 " />
<polyline points="63.9939,543.181 58.7393,556.974 " />
<polyline points="107.891,657.682 106.709,658.077 105.92,659.259 105.526,661.229 105.526,662.412 105.92,664.382 106.709,665.564 107.891,665.959 108.679,665.959 109.861,665.564 110.65,664.382 111.044,662.412 111.044,661.229 110.65,659.259 109.861,658.077 108.679,657.682 107.891,657.682 " />
<polyline points="93.1593,649.206 98.4139,663 " />
<polyline points="103.669,649.206 98.4139,663 " />
<polyline points="127.526,655.118 139.349,655.118 " />
<polyline points="127.526,659.059 139.349,659.059 " />
<polyline points="165.623,649.206 165.623,663 " />
<polyline points="165.623,655.774 164.309,654.461 162.995,653.804 161.025,653.804 159.711,654.461 158.397,655.774 157.741,657.745 157.741,659.059 158.397,661.029 159.711,662.343 161.025,663 162.995,663 164.309,662.343 165.623,661.029 " />
<polyline points="170.877,653.804 170.877,660.372 171.534,662.343 172.848,663 174.818,663 176.132,662.343 178.102,660.372 " />
<polyline points="178.102,653.804 178.102,663 " />
<polyline points="190.582,655.774 189.269,654.461 187.955,653.804 185.984,653.804 184.671,654.461 183.357,655.774 182.7,657.745 182.7,659.059 183.357,661.029 184.671,662.343 185.984,663 187.955,663 189.269,662.343 190.582,661.029 " />
<polyline points="195.837,649.206 195.837,660.372 196.494,662.343 197.807,663 199.121,663 " />
<polyline points="193.866,653.804 198.464,653.804 " />
<polyline points="215.542,653.804 219.483,663 " />
<polyline points="223.424,653.804 219.483,663 " />
<polyline points="226.708,657.745 234.59,657.745 234.59,656.431 233.933,655.118 233.276,654.461 231.963,653.804 229.992,653.804 228.678,654.461 227.365,655.774 226.708,657.745 226.708,659.059 227.365,661.029 228.678,662.343 229.992,663 231.963,663 233.276,662.343 234.59,661.029 " />
<polyline points="239.188,649.206 239.188,663 " />
<polyline points="247.07,653.804 245.756,654.461 244.442,655.774 243.786,657.745 243.786,659.059 244.442,661.029 245.756,662.343 247.07,663 249.04,663 250.354,662.343 251.668,661.029 252.324,659.059 252.324,657.745 251.668,655.774 250.354,654.461 249.04,653.804 247.07,653.804 " />
<polyline points="264.147,655.774 262.834,654.461 261.52,653.804 259.55,653.804 258.236,654.461 256.922,655.774 256.265,657.745 256.265,659.059 256.922,661.029 258.236,662.343 259.55,663 261.52,663 262.834,662.343 264.147,661.029 " />
<polyline points="268.088,649.863 268.745,650.52 269.402,649.863 268.745,649.206 268.088,649.863 " />
<polyline points="268.745,654.461 268.745,663 " />
<polyline points="274.657,649.206 274.657,660.372 275.314,662.343 276.627,663 277.941,663 " />
<polyline points="272.686,653.804 277.284,653.804 " />
<polyline points="280.568,653.804 284.509,663 " />
<polyline points="288.45,653.804 284.509,663 283.196,665.627 281.882,666.941 280.568,667.597 279.911,667.597 " />
<polyline points="293.705,662.343 293.048,663 292.391,662.343 293.048,661.686 293.705,662.343 293.705,663.656 293.048,664.97 292.391,665.627 " />
<polyline points="316.694,649.206 315.38,649.206 314.067,649.863 313.41,651.833 313.41,663 " />
<polyline points="311.439,653.804 316.037,653.804 " />
<polyline points="320.635,653.804 320.635,667.597 " />
<polyline points="320.635,655.774 321.949,654.461 323.262,653.804 325.233,653.804 326.546,654.461 327.86,655.774 328.517,657.745 328.517,659.059 327.86,661.029 326.546,662.343 325.233,663 323.262,663 321.949,662.343 320.635,661.029 " />
<polyline points="333.115,653.804 333.115,663 " />
<polyline points="333.115,656.431 335.085,654.461 336.399,653.804 338.369,653.804 339.683,654.461 340.34,656.431 340.34,663 " />
<polyline points="340.34,656.431 342.31,654.461 343.624,653.804 345.595,653.804 346.908,654.461 347.565,656.431 347.565,663 " />
<polyline points="299.492,720.636 299.492,720.242 299.886,719.454 300.28,719.06 301.068,718.666 302.645,718.666 303.433,719.06 303.827,719.454 304.221,720.242 304.221,721.03 303.827,721.819 303.039,723.001 299.098,726.942 304.615,726.942 " />
<polyline points="95.1298,684.548 95.1298,698.341 103.012,698.341 " />
<polyline points="108.544,698.669 114.324,698.669 114.324,697.706 113.843,696.743 113.361,696.261 112.397,695.779 110.952,695.779 109.989,696.261 109.026,697.224 108.544,698.669 108.544,699.633 109.026,701.078 109.989,702.041 110.952,702.523 112.397,702.523 113.361,702.041 114.324,701.078 " />
<polyline points="98.4139,719.89 93.1593,733.683 " />
<polyline points="98.4139,719.89 103.669,733.683 " />
<polyline points="95.1298,729.085 101.698,729.085 " />
<polyline points="109.957,728.747 108.775,729.141 107.987,730.323 107.593,732.294 107.593,733.476 107.987,735.446 108.775,736.629 109.957,737.023 110.745,737.023 111.928,736.629 112.716,735.446 113.11,733.476 113.11,732.294 112.716,730.323 111.928,729.141 110.745,728.747 109.957,728.747 " />
<polyline points="127.526,690.459 139.349,690.459 " />
<polyline points="127.526,694.4 139.349,694.4 " />
<polyline points="157.741,693.087 165.623,693.087 165.623,691.773 164.966,690.459 164.309,689.802 162.995,689.146 161.025,689.146 159.711,689.802 158.397,691.116 157.741,693.087 157.741,694.4 158.397,696.371 159.711,697.684 161.025,698.341 162.995,698.341 164.309,697.684 165.623,696.371 " />
<polyline points="174.161,684.548 172.848,684.548 171.534,685.205 170.877,687.175 170.877,698.341 " />
<polyline points="168.907,689.146 173.505,689.146 " />
<polyline points="182.043,684.548 180.73,684.548 179.416,685.205 178.759,687.175 178.759,698.341 " />
<polyline points="176.789,689.146 181.387,689.146 " />
<polyline points="185.328,693.087 193.21,693.087 193.21,691.773 192.553,690.459 191.896,689.802 190.582,689.146 188.612,689.146 187.298,689.802 185.984,691.116 185.328,693.087 185.328,694.4 185.984,696.371 187.298,697.684 188.612,698.341 190.582,698.341 191.896,697.684 193.21,696.371 " />
<polyline points="205.033,691.116 203.719,689.802 202.405,689.146 200.435,689.146 199.121,689.802 197.807,691.116 197.151,693.087 197.151,694.4 197.807,696.371 199.121,697.684 200.435,698.341 202.405,698.341 203.719,697.684 205.033,696.371 " />
<polyline points="210.287,684.548 210.287,695.714 210.944,697.684 212.258,698.341 213.571,698.341 " />
<polyline points="208.317,689.146 212.915,689.146 " />
<polyline points="216.856,685.205 217.512,685.861 218.169,685.205 217.512,684.548 216.856,685.205 " />
<polyline points="217.512,689.802 217.512,698.341 " />
<polyline points="221.453,689.146 225.394,698.341 " />
<polyline points="229.335,689.146 225.394,698.341 " />
<polyline points="232.619,693.087 240.501,693.087 240.501,691.773 239.845,690.459 239.188,689.802 237.874,689.146 235.904,689.146 234.59,689.802 233.276,691.116 232.619,693.087 232.619,694.4 233.276,696.371 234.59,697.684 235.904,698.341 237.874,698.341 239.188,697.684 240.501,696.371 " />
<polyline points="266.118,684.548 266.118,698.341 " />
<polyline points="266.118,691.116 264.804,689.802 263.491,689.146 261.52,689.146 260.206,689.802 258.893,691.116 258.236,693.087 258.236,694.4 258.893,696.371 260.206,697.684 261.52,698.341 263.491,698.341 264.804,697.684 266.118,696.371 " />
<polyline points="271.373,689.146 271.373,695.714 272.029,697.684 273.343,698.341 275.314,698.341 276.627,697.684 278.598,695.714 " />
<polyline points="278.598,689.146 278.598,698.341 " />
<polyline points="291.078,691.116 289.764,689.802 288.45,689.146 286.48,689.146 285.166,689.802 283.852,691.116 283.196,693.087 283.196,694.4 283.852,696.371 285.166,697.684 286.48,698.341 288.45,698.341 289.764,697.684 291.078,696.371 " />
<polyline points="296.332,684.548 296.332,695.714 296.989,697.684 298.303,698.341 299.616,698.341 " />
<polyline points="294.362,689.146 298.96,689.146 " />
<polyline points="317.351,684.548 317.351,698.341 " />
<polyline points="321.949,693.087 329.831,693.087 329.831,691.773 329.174,690.459 328.517,689.802 327.203,689.146 325.233,689.146 323.919,689.802 322.605,691.116 321.949,693.087 321.949,694.4 322.605,696.371 323.919,697.684 325.233,698.341 327.203,698.341 328.517,697.684 329.831,696.371 " />
<polyline points="334.428,689.146 334.428,698.341 " />
<polyline points="334.428,691.773 336.399,689.802 337.713,689.146 339.683,689.146 340.997,689.802 341.654,691.773 341.654,698.341 " />
<polyline points="354.133,689.146 354.133,699.655 353.477,701.625 352.82,702.282 351.506,702.939 349.536,702.939 348.222,702.282 " />
<polyline points="354.133,691.116 352.82,689.802 351.506,689.146 349.536,689.146 348.222,689.802 346.908,691.116 346.251,693.087 346.251,694.4 346.908,696.371 348.222,697.684 349.536,698.341 351.506,698.341 352.82,697.684 354.133,696.371 " />
<polyline points="360.045,684.548 360.045,695.714 360.702,697.684 362.015,698.341 363.329,698.341 " />
<polyline points="358.074,689.146 362.672,689.146 " />
<polyline points="367.27,684.548 367.27,698.341 " />
<polyline points="367.27,691.773 369.241,689.802 370.554,689.146 372.525,689.146 373.838,689.802 374.495,691.773 374.495,698.341 " />
<polyline points="381.064,697.684 380.407,698.341 379.75,697.684 380.407,697.028 381.064,697.684 381.064,698.998 380.407,700.312 379.75,700.969 " />
<polyline points="404.053,684.548 402.739,684.548 401.425,685.205 400.768,687.175 400.768,698.341 " />
<polyline points="398.798,689.146 403.396,689.146 " />
<polyline points="408.65,684.548 408.65,695.714 409.307,697.684 410.621,698.341 411.935,698.341 " />
<polyline points="406.68,689.146 411.278,689.146 " />
<polyline points="127.526,725.801 139.349,725.801 " />
<polyline points="127.526,729.742 139.349,729.742 " />
<polyline points="165.623,719.89 165.623,733.683 " />
<polyline points="165.623,726.458 164.309,725.144 162.995,724.487 161.025,724.487 159.711,725.144 158.397,726.458 157.741,728.428 157.741,729.742 158.397,731.712 159.711,733.026 161.025,733.683 162.995,733.683 164.309,733.026 165.623,731.712 " />
<polyline points="170.877,724.487 170.877,731.056 171.534,733.026 172.848,733.683 174.818,733.683 176.132,733.026 178.102,731.056 " />
<polyline points="178.102,724.487 178.102,733.683 " />
<polyline points="190.582,726.458 189.269,725.144 187.955,724.487 185.984,724.487 184.671,725.144 183.357,726.458 182.7,728.428 182.7,729.742 183.357,731.712 184.671,733.026 185.984,733.683 187.955,733.683 189.269,733.026 190.582,731.712 " />
<polyline points="195.837,719.89 195.837,731.056 196.494,733.026 197.807,733.683 199.121,733.683 " />
<polyline points="193.866,724.487 198.464,724.487 " />
<polyline points="224.081,724.487 224.081,733.683 " />
<polyline points="224.081,726.458 222.767,725.144 221.453,724.487 219.483,724.487 218.169,725.144 216.856,726.458 216.199,728.428 216.199,729.742 216.856,731.712 218.169,733.026 219.483,733.683 221.453,733.683 222.767,733.026 224.081,731.712 " />
<polyline points="229.335,724.487 229.335,733.683 " />
<polyline points="229.335,728.428 229.992,726.458 231.306,725.144 232.619,724.487 234.59,724.487 " />
<polyline points="237.217,728.428 245.099,728.428 245.099,727.115 244.442,725.801 243.786,725.144 242.472,724.487 240.501,724.487 239.188,725.144 237.874,726.458 237.217,728.428 237.217,729.742 237.874,731.712 239.188,733.026 240.501,733.683 242.472,733.683 243.786,733.026 245.099,731.712 " />
<polyline points="256.922,724.487 256.922,733.683 " />
<polyline points="256.922,726.458 255.609,725.144 254.295,724.487 252.324,724.487 251.011,725.144 249.697,726.458 249.04,728.428 249.04,729.742 249.697,731.712 251.011,733.026 252.324,733.683 254.295,733.683 255.609,733.026 256.922,731.712 " />
<polyline points="263.491,733.026 262.834,733.683 262.177,733.026 262.834,732.369 263.491,733.026 263.491,734.34 262.834,735.653 262.177,736.31 " />
<polyline points="281.882,720.546 282.539,721.203 283.196,720.546 282.539,719.89 281.882,720.546 " />
<polyline points="282.539,725.144 282.539,733.683 " />
<polyline points="287.793,724.487 287.793,733.683 " />
<polyline points="287.793,727.115 289.764,725.144 291.078,724.487 293.048,724.487 294.362,725.144 295.019,727.115 295.019,733.683 " />
</g>
<g clip-path="url(#clipId0)" fill="rgb(0,0,0)" stroke="rgb(0,0,0)" stroke-width="0.25" >
<path d="M778.601,290.21 775.472,286.841 766.93,297.912 766.93,297.912 z" />
</g>
<g clip-path="url(#clipId0)" fill="none" stroke="rgb(0,0,0)" stroke-width="0.25" >
<polyline points="777.037,288.525 801.49,265.816 " />
<polyline points="801.49,265.816 801.49,265.816 " />
<polyline points="801.49,265.816 815.284,265.816 " />
<polyline points="826.187,258.919 826.187,272.712 " />
<polyline points="835.383,258.919 835.383,272.712 " />
<polyline points="826.187,265.487 835.383,265.487 " />
<polyline points="853.774,263.517 860.999,272.712 " />
<polyline points="860.999,263.517 853.774,272.712 " />
<polyline points="878.077,258.919 881.361,272.712 " />
<polyline points="884.645,258.919 881.361,272.712 " />
<polyline points="884.645,258.919 887.929,272.712 " />
<polyline points="891.214,258.919 887.929,272.712 " />
<polyline points="746.212,212.417 746.212,163.329 " />
<polyline points="746.212,163.329 769.201,163.329 " />
<polyline points="766.93,206.69 778.819,206.69 " />
<polyline points="766.93,238.786 766.93,206.69 " />
<polyline points="509.078,86.7824 509.078,103.335 " />
<polyline points="766.93,206.69 790.155,206.69 " />
<polyline points="887.77,743.13 885.844,741.204 882.954,740.24 879.1,740.24 876.21,741.204 874.283,743.13 874.283,745.057 875.247,746.984 876.21,747.947 878.137,748.91 883.917,750.837 885.844,751.8 886.807,752.764 887.77,754.69 887.77,757.581 885.844,759.507 882.954,760.471 879.1,760.471 876.21,759.507 874.283,757.581 " />
<polyline points="894.514,740.24 894.514,760.471 " />
<polyline points="894.514,740.24 903.184,740.24 906.074,741.204 907.037,742.167 908.001,744.094 908.001,746.02 907.037,747.947 906.074,748.91 903.184,749.874 894.514,749.874 " />
<polyline points="901.257,749.874 908.001,760.471 " />
<polyline points="927.268,740.24 917.634,760.471 " />
<polyline points="913.781,740.24 927.268,740.24 " />
<polyline points="934.011,751.8 951.352,751.8 " />
<polyline points="960.985,744.094 962.912,743.13 965.802,740.24 965.802,760.471 " />
<polyline points="980.252,744.094 982.179,743.13 985.069,740.24 985.069,760.471 " />
</g>
</svg>
