<?xml version="1.0" standalone="no"?>
<svg viewBox="0 0 1024 768" version="1.1" xmlns="http://www.w3.org/2000/svg" xmlns:xlink="http://www.w3.org/1999/xlink" stroke-linecap="round" stroke-linejoin="round" fill-rule="evenodd" xml:space="preserve" >
<defs >
<clipPath id="clipId0" >
<path d="M0,768 1024,768 1024,0 0,0 z" />
</clipPath>
</defs>
<g clip-path="url(#clipId0)" fill="none" stroke="rgb(0,0,0)" stroke-width="0.1" />
<g clip-path="url(#clipId0)" fill="none" stroke="rgb(0,0,0)" stroke-width="0.25" >
<polyline points="445.079,237.723 445.079,143.333 " />
<polyline points="445.079,143.333 363.335,96.1377 " />
<polyline points="363.335,72.5402 363.335,190.528 " />
<polyline points="363.335,190.528 445.079,237.723 " />
<polyline points="363.335,72.5402 445.079,25.3452 " />
<polyline points="424.643,131.534 371.799,162.043 " />
<polyline points="445.079,143.333 446.832,142.298 448.565,141.229 450.277,140.127 451.968,138.992 453.636,137.825 455.282,136.626 456.904,135.395 458.502,134.133 460.075,132.84 461.623,131.518 463.145,130.165 464.641,128.784 466.11,127.374 467.551,125.936 468.964,124.47 470.349,122.977 471.705,121.458 473.031,119.913 474.327,118.342 475.592,116.747 476.827,115.128 478.029,113.485 478.029,113.485 478.838,112.324 479.612,111.141 480.354,109.936 481.06,108.711 481.732,107.467 482.369,106.204 482.969,104.923 483.533,103.626 484.06,102.314 484.55,100.987 485.002,99.647 485.416,98.2947 485.792,96.9311 486.128,95.5575 486.426,94.1749 486.685,92.7844 486.904,91.3872 487.083,89.9843 487.223,88.577 487.323,87.1662 487.383,85.7532 487.403,84.339 487.403,84.339 487.383,82.9248 487.323,81.5118 487.223,80.101 487.083,78.6936 486.904,77.2908 486.685,75.8935 486.426,74.5031 486.128,73.1205 485.792,71.7469 485.416,70.3833 485.002,69.0309 484.55,67.6908 484.06,66.364 483.533,65.0516 482.969,63.7546 482.369,62.4741 481.732,61.211 481.06,59.9665 480.354,58.7415 479.612,57.537 478.838,56.3539 478.029,55.1932 478.029,55.1932 476.827,53.5503 475.592,51.931 474.327,50.3358 473.031,48.7653 471.705,47.2202 470.349,45.701 468.964,44.2082 467.551,42.7424 466.11,41.3042 464.641,39.8941 463.145,38.5126 461.623,37.1603 460.075,35.8376 458.502,34.5451 456.904,33.2832 455.282,32.0524 453.636,30.8531 451.968,29.6858 450.277,28.551 448.565,27.449 446.832,26.3803 445.079,25.3452 " />
<polyline points="363.335,96.1377 364.101,95.6734 364.846,95.177 365.57,94.6494 366.271,94.0914 366.948,93.5043 367.599,92.8889 368.223,92.2464 368.82,91.5779 369.387,90.8848 369.925,90.1682 369.925,90.1682 370.272,89.6516 370.586,89.1144 370.866,88.5587 371.11,87.9867 371.319,87.4006 371.491,86.8026 371.626,86.1951 371.722,85.5804 371.78,84.9609 371.799,84.339 371.799,84.339 371.78,83.7171 371.722,83.0976 371.626,82.4829 371.491,81.8754 371.319,81.2774 371.11,80.6913 370.866,80.1193 370.586,79.5636 370.272,79.0264 369.925,78.5098 369.925,78.5098 369.387,77.7932 368.82,77.1 368.223,76.4316 367.599,75.7891 366.948,75.1737 366.271,74.5865 365.57,74.0286 364.846,73.501 364.101,73.0045 363.335,72.5402 " />
<polyline points="487.403,178.729 487.403,84.339 " />
<polyline points="445.079,237.723 446.832,236.688 448.565,235.619 450.277,234.517 451.968,233.382 453.636,232.215 455.282,231.016 456.904,229.785 458.502,228.523 460.075,227.23 461.623,225.908 463.145,224.555 464.641,223.174 466.11,221.764 467.551,220.326 468.964,218.86 470.349,217.367 471.705,215.848 473.031,214.303 474.327,212.732 475.592,211.137 476.827,209.518 478.029,207.875 478.029,207.875 478.838,206.714 479.612,205.531 480.354,204.326 481.06,203.101 481.732,201.857 482.369,200.594 482.969,199.313 483.533,198.016 484.06,196.704 484.55,195.377 485.002,194.037 485.416,192.685 485.792,191.321 486.128,189.948 486.426,188.565 486.685,187.174 486.904,185.777 487.083,184.374 487.223,182.967 487.323,181.556 487.383,180.143 487.403,178.729 " />
<polyline points="371.799,178.729 371.799,101.025 " />
<polyline points="363.335,190.528 364.101,190.063 364.846,189.567 365.57,189.039 366.271,188.481 366.948,187.894 367.599,187.279 368.223,186.636 368.82,185.968 369.387,185.275 369.925,184.558 369.925,184.558 370.272,184.042 370.586,183.504 370.866,182.949 371.11,182.377 371.319,181.791 371.491,181.193 371.626,180.585 371.722,179.97 371.78,179.351 371.799,178.729 " />
<polyline points="437.367,147.785 284.174,236.231 " stroke-dasharray="23.597504,11.798752" />
<polyline points="355.623,100.59 202.429,189.036 " stroke-dasharray="23.597504,11.798752" />
<polyline points="437.367,242.175 284.174,330.621 " stroke-dasharray="23.597504,11.798752" />
<polyline points="144.627,377.817 143.667,379.517 142.741,381.235 141.849,382.971 140.991,384.725 140.167,386.494 139.379,388.28 138.625,390.08 137.907,391.895 137.224,393.724 136.577,395.565 135.966,397.419 135.392,399.285 135.392,399.285 134.958,400.814 134.56,402.354 134.199,403.902 133.876,405.459 133.591,407.023 133.343,408.594 133.133,410.17 132.961,411.75 132.828,413.335 132.732,414.922 132.675,416.511 132.655,418.1 132.655,418.1 132.675,419.38 132.733,420.659 132.83,421.935 132.966,423.207 133.14,424.475 133.353,425.737 133.603,426.992 133.892,428.239 134.219,429.477 134.583,430.704 134.984,431.919 135.421,433.122 135.895,434.311 136.405,435.484 136.405,435.484 136.789,436.286 137.209,437.07 137.663,437.834 138.15,438.577 138.67,439.298 139.222,439.995 139.804,440.667 140.415,441.313 141.055,441.93 141.721,442.519 142.412,443.077 143.128,443.605 143.867,444.099 144.627,444.561 144.627,444.561 145.406,444.988 146.204,445.38 147.018,445.737 147.848,446.056 148.691,446.339 149.545,446.584 150.41,446.791 151.283,446.959 152.162,447.088 153.047,447.178 153.934,447.228 154.823,447.239 155.711,447.211 156.598,447.143 156.598,447.143 157.869,446.997 159.136,446.813 160.396,446.591 161.649,446.331 162.894,446.032 164.129,445.696 165.353,445.323 166.565,444.913 167.764,444.466 168.95,443.983 170.12,443.464 171.273,442.91 172.41,442.321 173.528,441.698 173.528,441.698 174.895,440.886 176.242,440.042 177.569,439.166 178.874,438.258 180.157,437.319 181.417,436.349 182.653,435.349 183.865,434.32 185.051,433.262 186.212,432.175 187.347,431.061 188.454,429.92 188.454,429.92 189.782,428.49 191.083,427.034 192.354,425.553 193.596,424.048 194.809,422.518 195.991,420.965 197.143,419.389 198.264,417.791 199.353,416.171 200.411,414.531 201.436,412.87 202.428,411.189 202.428,411.189 203.388,409.489 204.314,407.771 205.206,406.035 206.064,404.281 206.888,402.512 207.676,400.726 208.43,398.926 209.148,397.111 209.831,395.282 210.478,393.44 211.089,391.587 211.663,389.721 211.663,389.721 212.098,388.192 212.495,386.652 212.856,385.104 213.179,383.547 213.464,381.983 213.712,380.412 213.922,378.836 214.094,377.256 214.227,375.671 214.323,374.084 214.38,372.495 214.4,370.905 214.4,370.905 214.38,369.626 214.322,368.347 214.225,367.071 214.089,365.798 213.915,364.531 213.702,363.269 213.452,362.014 213.163,360.767 212.836,359.529 212.472,358.302 212.071,357.087 211.634,355.884 211.16,354.695 210.65,353.521 210.65,353.521 210.266,352.72 209.846,351.936 209.392,351.172 208.905,350.428 208.385,349.708 207.833,349.01 207.251,348.338 206.64,347.693 206,347.075 205.334,346.487 204.643,345.928 203.927,345.401 203.188,344.907 202.428,344.445 202.428,344.445 201.649,344.018 200.851,343.626 200.037,343.269 199.207,342.949 198.364,342.667 197.51,342.422 196.645,342.215 195.772,342.047 194.893,341.918 194.009,341.828 193.121,341.778 192.232,341.767 191.344,341.795 190.457,341.863 190.457,341.863 189.186,342.009 187.919,342.193 186.659,342.415 185.406,342.675 184.161,342.974 182.926,343.31 181.702,343.683 180.49,344.093 179.291,344.54 178.105,345.023 176.935,345.542 175.782,346.096 174.645,346.685 173.528,347.308 173.528,347.308 172.16,348.119 170.813,348.964 169.486,349.84 168.181,350.748 166.898,351.687 165.638,352.657 164.402,353.657 163.19,354.686 162.004,355.744 160.843,356.831 159.708,357.945 158.601,359.086 158.601,359.086 157.273,360.516 155.972,361.972 154.701,363.453 153.459,364.958 152.246,366.488 151.064,368.041 149.912,369.617 148.791,371.215 147.702,372.834 146.644,374.475 145.619,376.136 144.627,377.817 " />
<polyline points="115.726,494.619 33.9815,447.424 " />
<polyline points="33.9815,313.936 32.6202,316.332 31.2921,318.746 29.9974,321.179 28.7365,323.629 27.5095,326.097 26.3167,328.581 25.1583,331.081 24.0345,333.598 22.9456,336.129 21.8917,338.675 20.8732,341.236 19.89,343.81 18.9425,346.398 18.0308,348.998 17.1551,351.611 16.3156,354.236 15.5124,356.872 15.5124,356.872 14.8913,359.029 14.3069,361.196 13.7595,363.373 13.2491,365.559 12.7759,367.753 12.34,369.955 11.9417,372.164 11.5809,374.379 11.2579,376.601 10.9726,378.827 10.7252,381.058 10.5157,383.293 10.3442,385.531 10.2108,387.772 10.1155,390.014 10.0583,392.258 10.0392,394.503 10.0392,394.503 10.0603,396.389 10.1236,398.274 10.2289,400.157 10.3764,402.037 10.5659,403.914 10.7972,405.786 11.0704,407.652 11.3853,409.512 11.7416,411.364 12.1393,413.207 12.578,415.042 13.0577,416.866 13.5781,418.679 14.1388,420.48 14.7397,422.267 15.3804,424.041 16.0606,425.801 16.78,427.544 17.5382,429.271 17.5382,429.271 18.0688,430.397 18.6342,431.506 19.2337,432.596 19.867,433.668 20.5332,434.719 21.2318,435.749 21.9622,436.757 22.7235,437.741 23.5151,438.702 24.3362,439.637 25.186,440.546 26.0637,441.429 26.9684,442.283 27.8993,443.109 28.8554,443.906 29.8358,444.673 30.8396,445.409 31.8659,446.113 32.9135,446.785 33.9815,447.424 " />
<polyline points="91.7834,252.918 89.849,254.057 87.9344,255.228 86.0398,256.432 84.1661,257.668 82.3135,258.935 80.4828,260.234 78.6745,261.564 76.8889,262.924 75.1268,264.315 73.3885,265.735 71.6746,267.184 69.9856,268.663 68.322,270.17 66.6842,271.705 65.0727,273.267 63.488,274.857 61.9305,276.473 61.9305,276.473 60.0492,278.487 58.1959,280.526 56.371,282.591 54.5747,284.681 52.8075,286.795 51.0696,288.934 49.3614,291.096 47.6832,293.282 46.0354,295.491 44.4182,297.722 42.832,299.976 41.2771,302.251 39.7537,304.547 38.2622,306.864 36.8028,309.202 35.3758,311.559 33.9815,313.936 " />
<polyline points="115.726,361.131 114.364,363.527 113.036,365.941 111.742,368.374 110.481,370.824 109.254,373.292 108.061,375.776 106.902,378.276 105.779,380.793 104.69,383.324 103.636,385.87 102.617,388.431 101.634,391.005 100.687,393.593 99.775,396.193 98.8993,398.806 98.0598,401.431 97.2566,404.067 97.2566,404.067 96.6354,406.224 96.0511,408.391 95.5036,410.568 94.9932,412.754 94.52,414.948 94.0842,417.15 93.6858,419.359 93.3251,421.574 93.002,423.796 92.7167,426.022 92.4693,428.253 92.2598,430.488 92.0884,432.726 91.955,434.967 91.8596,437.209 91.8024,439.453 91.7834,441.698 91.7834,441.698 91.8045,443.584 91.8677,445.469 91.9731,447.352 92.1206,449.232 92.31,451.109 92.5414,452.981 92.8146,454.847 93.1294,456.707 93.4857,458.559 93.8834,460.402 94.3222,462.237 94.8019,464.061 95.3222,465.874 95.883,467.675 96.4839,469.462 97.1246,471.236 97.8048,472.996 98.5242,474.739 99.2824,476.466 99.2824,476.466 99.8129,477.592 100.378,478.701 100.978,479.791 101.611,480.863 102.277,481.914 102.976,482.944 103.706,483.952 104.468,484.936 105.259,485.897 106.08,486.832 106.93,487.741 107.808,488.624 108.713,489.478 109.643,490.304 110.6,491.101 111.58,491.868 112.584,492.604 113.61,493.308 114.658,493.98 115.726,494.619 115.726,494.619 116.813,495.224 117.919,495.795 119.042,496.332 120.181,496.834 121.335,497.299 122.503,497.729 123.684,498.122 124.876,498.478 126.079,498.797 127.292,499.078 128.512,499.322 129.74,499.527 130.973,499.694 132.211,499.823 133.452,499.913 134.696,499.964 135.94,499.977 137.185,499.951 138.428,499.886 139.668,499.783 139.668,499.783 141.543,499.576 143.412,499.327 145.276,499.037 147.133,498.704 148.981,498.331 150.821,497.916 152.651,497.46 154.471,496.964 156.279,496.427 158.074,495.849 159.857,495.232 161.624,494.574 163.377,493.878 165.114,493.142 166.834,492.368 168.536,491.556 170.22,490.705 171.884,489.818 173.528,488.893 173.528,488.893 175.462,487.754 177.377,486.583 179.271,485.379 181.145,484.143 182.997,482.875 184.828,481.577 186.636,480.247 188.422,478.886 190.184,477.496 191.922,476.076 193.636,474.626 195.325,473.148 196.989,471.641 198.627,470.106 200.238,468.544 201.823,466.954 203.38,465.337 203.38,465.337 205.262,463.324 207.115,461.284 208.94,459.22 210.736,457.13 212.503,455.015 214.241,452.877 215.949,450.714 217.628,448.529 219.275,446.32 220.893,444.089 222.479,441.835 224.034,439.56 225.557,437.264 227.049,434.947 228.508,432.609 229.935,430.252 231.329,427.875 231.329,427.875 232.691,425.479 234.019,423.064 235.313,420.632 236.574,418.181 237.801,415.714 238.994,413.23 240.153,410.729 241.276,408.213 242.365,405.682 243.419,403.136 244.438,400.575 245.421,398.001 246.368,395.413 247.28,392.813 248.156,390.2 248.995,387.575 249.798,384.939 249.798,384.939 250.42,382.782 251.004,380.615 251.551,378.438 252.062,376.252 252.535,374.058 252.971,371.856 253.369,369.647 253.73,367.431 254.053,365.21 254.338,362.984 254.586,360.753 254.795,358.518 254.967,356.28 255.1,354.039 255.195,351.796 255.253,349.552 255.272,347.308 " />
<polyline points="173.528,300.113 171.593,301.252 169.679,302.423 167.784,303.627 165.91,304.863 164.058,306.131 162.227,307.429 160.419,308.759 158.633,310.119 156.871,311.51 155.133,312.93 153.419,314.379 151.73,315.858 150.066,317.365 148.428,318.9 146.817,320.462 145.232,322.052 143.675,323.668 143.675,323.668 141.793,325.682 139.94,327.721 138.115,329.786 136.319,331.876 134.552,333.99 132.814,336.129 131.106,338.291 129.427,340.477 127.78,342.686 126.162,344.917 124.576,347.171 123.021,349.446 121.498,351.742 120.006,354.059 118.547,356.397 117.12,358.754 115.726,361.131 " />
<polyline points="276.462,335.074 276.462,240.684 " />
<polyline points="276.462,240.684 194.717,193.489 " />
<polyline points="276.462,335.074 255.272,347.308 " />
<polyline points="276.462,240.684 173.528,300.113 " />
<polyline points="194.717,193.489 91.7834,252.918 " />
<polyline points="308.783,357.844 308.783,372.003 " />
<polyline points="314.176,357.844 314.176,372.003 " />
<polyline points="314.176,357.844 323.615,372.003 " />
<polyline points="323.615,357.844 323.615,372.003 " />
<polyline points="329.009,357.844 329.009,372.003 337.1,372.003 " />
<polyline points="340.471,357.844 340.471,372.003 " />
<polyline points="340.471,357.844 349.236,357.844 " />
<polyline points="340.471,364.586 345.865,364.586 " />
<polyline points="340.471,372.003 349.236,372.003 " />
<polyline points="355.978,357.844 355.978,372.003 " />
<polyline points="351.258,357.844 360.697,357.844 " />
<polyline points="243.505,475.785 242.157,474.437 240.134,473.763 237.437,473.763 235.415,474.437 234.066,475.785 234.066,477.134 234.741,478.482 235.415,479.156 236.763,479.83 240.808,481.179 242.157,481.853 242.831,482.527 243.505,483.876 243.505,485.898 242.157,487.247 240.134,487.921 237.437,487.921 235.415,487.247 234.066,485.898 " />
<polyline points="246.876,473.763 250.247,487.921 " />
<polyline points="253.619,473.763 250.247,487.921 " />
<polyline points="253.619,473.763 256.99,487.921 " />
<polyline points="260.361,473.763 256.99,487.921 " />
<polyline points="273.171,475.785 271.822,474.437 269.8,473.763 267.103,473.763 265.08,474.437 263.732,475.785 263.732,477.134 264.406,478.482 265.08,479.156 266.429,479.83 270.474,481.179 271.822,481.853 272.497,482.527 273.171,483.876 273.171,485.898 271.822,487.247 269.8,487.921 267.103,487.921 265.08,487.247 263.732,485.898 " />
<polyline points="277.89,473.763 277.89,487.921 " />
<polyline points="306.881,477.134 306.207,475.785 304.859,474.437 303.51,473.763 300.814,473.763 299.465,474.437 298.117,475.785 297.442,477.134 296.768,479.156 296.768,482.527 297.442,484.55 298.117,485.898 299.465,487.247 300.814,487.921 303.51,487.921 304.859,487.247 306.207,485.898 306.881,484.55 " />
<polyline points="311.601,473.763 311.601,487.921 " />
<polyline points="311.601,473.763 320.366,473.763 " />
<polyline points="311.601,480.505 316.995,480.505 " />
<polyline points="311.601,487.921 320.366,487.921 " />
<polyline points="324.411,473.763 324.411,487.921 " />
<polyline points="324.411,473.763 333.85,487.921 " />
<polyline points="333.85,473.763 333.85,487.921 " />
<polyline points="341.941,473.763 341.941,487.921 " />
<polyline points="337.221,473.763 346.66,473.763 " />
<polyline points="350.031,473.763 350.031,487.921 " />
<polyline points="350.031,473.763 356.099,473.763 358.122,474.437 358.796,475.111 359.47,476.459 359.47,477.808 358.796,479.156 358.122,479.83 356.099,480.505 350.031,480.505 " />
<polyline points="354.751,480.505 359.47,487.921 " />
<polyline points="364.19,473.763 364.19,487.921 " />
<polyline points="369.583,473.763 369.583,487.921 " />
<polyline points="369.583,473.763 378.348,473.763 " />
<polyline points="369.583,480.505 374.977,480.505 " />
<polyline points="381.719,473.763 381.719,483.876 382.393,485.898 383.742,487.247 385.765,487.921 387.113,487.921 389.136,487.247 390.484,485.898 391.158,483.876 391.158,473.763 " />
<polyline points="405.991,477.134 405.317,475.785 403.968,474.437 402.62,473.763 399.923,473.763 398.575,474.437 397.226,475.785 396.552,477.134 395.878,479.156 395.878,482.527 396.552,484.55 397.226,485.898 398.575,487.247 399.923,487.921 402.62,487.921 403.968,487.247 405.317,485.898 405.991,484.55 405.991,482.527 " />
<polyline points="402.62,482.527 405.991,482.527 " />
<polyline points="414.082,473.763 408.688,487.921 " />
<polyline points="414.082,473.763 419.475,487.921 " />
<polyline points="410.71,483.202 417.453,483.202 " />
<polyline points="422.846,473.763 422.846,487.921 430.937,487.921 " />
<polyline points="448.466,473.763 448.466,487.921 " />
<polyline points="448.466,473.763 457.231,473.763 " />
<polyline points="448.466,480.505 453.86,480.505 " />
<polyline points="463.973,473.763 458.58,487.921 " />
<polyline points="463.973,473.763 469.367,487.921 " />
<polyline points="460.602,483.202 467.344,483.202 " />
<polyline points="472.738,473.763 472.738,487.921 " />
<polyline points="472.738,473.763 482.177,487.921 " />
<polyline points="482.177,473.763 482.177,487.921 " />
<polyline points="288.684,280.733 343.451,248.558 " />
</g>
<g clip-path="url(#clipId0)" fill="rgb(0,0,0)" stroke="rgb(0,0,0)" stroke-width="0.25" >
<path d="M289.875,282.77 287.493,278.695 276.462,287.879 276.462,287.879 z" />
</g>
<g clip-path="url(#clipId0)" fill="none" stroke="rgb(0,0,0)" stroke-width="0.25" >
<polyline points="432.856,197.674 374.577,231.877 " />
</g>
<g clip-path="url(#clipId0)" fill="rgb(0,0,0)" stroke="rgb(0,0,0)" stroke-width="0.25" >
<path d="M431.665,195.637 434.047,199.711 445.079,190.528 445.079,190.528 z" />
</g>
<g clip-path="url(#clipId0)" fill="none" stroke="rgb(0,0,0)" stroke-width="0.25" >
<polyline points="354.968,233.138 354.968,247.297 363.059,247.297 " />
</g>
<g clip-path="url(#clipId0)" fill="rgb(0,0,0)" stroke="rgb(0,0,0)" stroke-width="0.25" >
<path d="M367.263,21.2375 369.978,17.3773 357.04,11.1616 357.04,11.1616 z" />
</g>
<g clip-path="url(#clipId0)" fill="none" stroke="rgb(0,0,0)" stroke-width="0.25" >
<polyline points="368.621,19.3074 404.023,44.209 " />
<polyline points="391.825,14.1666 390.477,14.8408 389.128,16.1893 388.454,17.5377 387.78,19.5603 387.78,22.9314 388.454,24.9541 389.128,26.3025 390.477,27.6509 391.825,28.3251 394.522,28.3251 395.871,27.6509 397.219,26.3025 397.893,24.9541 398.567,22.9314 398.567,19.5603 397.893,17.5377 397.219,16.1893 395.871,14.8408 394.522,14.1666 391.825,14.1666 " />
<polyline points="393.848,25.6283 397.893,29.6736 " />
<polyline points="255.759,181.19 259.13,195.348 " />
<polyline points="262.501,181.19 259.13,195.348 " />
<polyline points="262.501,181.19 265.872,195.348 " />
<polyline points="269.243,181.19 265.872,195.348 " />
<polyline points="286.773,185.909 294.189,195.348 " />
<polyline points="294.189,185.909 286.773,195.348 " />
<polyline points="313.067,181.19 313.067,195.348 " />
<polyline points="322.506,181.19 322.506,195.348 " />
<polyline points="313.067,187.932 322.506,187.932 " />
<polyline points="1010.72,155.678 1009.51,156.082 1008.7,157.296 1008.3,159.318 1008.3,160.532 1008.7,162.555 1009.51,163.768 1010.72,164.173 1011.53,164.173 1012.75,163.768 1013.56,162.555 1013.96,160.532 1013.96,159.318 1013.56,157.296 1012.75,156.082 1011.53,155.678 1010.72,155.678 " />
<polyline points="976.926,104.076 976.926,112.571 " />
<polyline points="976.926,108.122 977.735,107.313 978.544,106.908 979.757,106.908 980.566,107.313 981.375,108.122 981.78,109.335 981.78,110.144 981.375,111.358 980.566,112.167 979.757,112.571 978.544,112.571 977.735,112.167 976.926,111.358 " />
<polyline points="875.844,355.585 875.17,354.236 873.821,352.888 872.473,352.214 869.776,352.214 868.427,352.888 867.079,354.236 866.405,355.585 865.731,357.607 865.731,360.979 866.405,363.001 867.079,364.35 868.427,365.698 869.776,366.372 872.473,366.372 873.821,365.698 875.17,364.35 875.844,363.001 " />
<polyline points="880.563,352.214 880.563,362.327 881.238,364.35 882.586,365.698 884.609,366.372 885.957,366.372 887.98,365.698 889.328,364.35 890.002,362.327 890.002,352.214 " />
<polyline points="898.093,352.214 898.093,366.372 " />
<polyline points="893.373,352.214 902.812,352.214 " />
<polyline points="909.555,352.214 908.206,352.888 906.858,354.236 906.183,355.585 905.509,357.607 905.509,360.979 906.183,363.001 906.858,364.35 908.206,365.698 909.555,366.372 912.251,366.372 913.6,365.698 914.948,364.35 915.622,363.001 916.297,360.979 916.297,357.607 915.622,355.585 914.948,354.236 913.6,352.888 912.251,352.214 909.555,352.214 " />
<polyline points="921.016,352.214 921.016,366.372 " />
<polyline points="921.016,352.214 929.781,352.214 " />
<polyline points="921.016,358.956 926.41,358.956 " />
<polyline points="933.152,352.214 933.152,366.372 " />
<polyline points="933.152,352.214 941.917,352.214 " />
<polyline points="933.152,358.956 938.546,358.956 " />
<polyline points="816.741,86.8761 816.741,101.035 " />
<polyline points="816.741,86.8761 822.809,86.8761 824.831,87.5503 825.506,88.2245 826.18,89.573 826.18,90.9214 825.506,92.2698 824.831,92.944 822.809,93.6183 " />
<polyline points="816.741,93.6183 822.809,93.6183 824.831,94.2925 825.506,94.9667 826.18,96.3151 826.18,98.3378 825.506,99.6862 824.831,100.36 822.809,101.035 816.741,101.035 " />
<polyline points="830.899,86.8761 830.899,101.035 838.99,101.035 " />
<polyline points="845.732,86.8761 840.338,101.035 " />
<polyline points="845.732,86.8761 851.126,101.035 " />
<polyline points="842.361,96.3151 849.103,96.3151 " />
<polyline points="863.262,88.8987 861.913,87.5503 859.891,86.8761 857.194,86.8761 855.171,87.5503 853.823,88.8987 853.823,90.2472 854.497,91.5956 855.171,92.2698 856.519,92.944 860.565,94.2925 861.913,94.9667 862.587,95.6409 863.262,96.9893 863.262,99.012 861.913,100.36 859.891,101.035 857.194,101.035 855.171,100.36 853.823,99.012 " />
<polyline points="870.678,86.8761 870.678,101.035 " />
<polyline points="865.958,86.8761 875.397,86.8761 " />
<polyline points="896.298,86.8761 890.904,101.035 " />
<polyline points="896.298,86.8761 901.692,101.035 " />
<polyline points="892.927,96.3151 899.669,96.3151 " />
<polyline points="905.063,86.8761 905.063,101.035 " />
<polyline points="905.063,86.8761 911.131,86.8761 913.153,87.5503 913.828,88.2245 914.502,89.573 914.502,90.9214 913.828,92.2698 913.153,92.944 911.131,93.6183 905.063,93.6183 " />
<polyline points="909.782,93.6183 914.502,101.035 " />
<polyline points="919.221,86.8761 919.221,101.035 " />
<polyline points="919.221,86.8761 927.986,86.8761 " />
<polyline points="919.221,93.6183 924.615,93.6183 " />
<polyline points="919.221,101.035 927.986,101.035 " />
<polyline points="935.403,86.8761 930.009,101.035 " />
<polyline points="935.403,86.8761 940.796,101.035 " />
<polyline points="932.031,96.3151 938.774,96.3151 " />
<polyline points="945.516,100.36 944.842,101.035 944.167,100.36 944.842,99.6862 945.516,100.36 945.516,101.709 944.842,103.057 944.167,103.731 " />
<polyline points="968.439,86.8761 963.045,101.035 " />
<polyline points="968.439,86.8761 973.833,101.035 " />
<polyline points="965.068,96.3151 971.81,96.3151 " />
<polyline points="835.042,141.471 833.694,142.145 832.346,143.494 831.671,144.842 830.997,146.865 830.997,150.236 831.671,152.259 832.346,153.607 833.694,154.955 835.042,155.63 837.739,155.63 839.088,154.955 840.436,153.607 841.11,152.259 841.785,150.236 841.785,146.865 841.11,144.842 840.436,143.494 839.088,142.145 837.739,141.471 835.042,141.471 " />
<polyline points="846.504,141.471 846.504,151.584 847.178,153.607 848.527,154.955 850.549,155.63 851.898,155.63 853.92,154.955 855.269,153.607 855.943,151.584 855.943,141.471 " />
<polyline points="864.034,141.471 864.034,155.63 " />
<polyline points="859.314,141.471 868.753,141.471 " />
<polyline points="872.124,141.471 872.124,155.63 880.215,155.63 " />
<polyline points="883.586,141.471 883.586,155.63 " />
<polyline points="883.586,141.471 892.351,141.471 " />
<polyline points="883.586,148.213 888.98,148.213 " />
<polyline points="883.586,155.63 892.351,155.63 " />
<polyline points="899.093,141.471 899.093,155.63 " />
<polyline points="894.373,141.471 903.812,141.471 " />
<polyline points="924.713,141.471 919.319,155.63 " />
<polyline points="924.713,141.471 930.107,155.63 " />
<polyline points="921.342,150.91 928.084,150.91 " />
<polyline points="933.478,141.471 933.478,155.63 " />
<polyline points="933.478,141.471 939.546,141.471 941.568,142.145 942.242,142.82 942.917,144.168 942.917,145.516 942.242,146.865 941.568,147.539 939.546,148.213 933.478,148.213 " />
<polyline points="938.197,148.213 942.917,155.63 " />
<polyline points="947.636,141.471 947.636,155.63 " />
<polyline points="947.636,141.471 956.401,141.471 " />
<polyline points="947.636,148.213 953.03,148.213 " />
<polyline points="947.636,155.63 956.401,155.63 " />
<polyline points="963.817,141.471 958.424,155.63 " />
<polyline points="963.817,141.471 969.211,155.63 " />
<polyline points="960.446,150.91 967.188,150.91 " />
<polyline points="973.931,154.955 973.256,155.63 972.582,154.955 973.256,154.281 973.931,154.955 973.931,156.304 973.256,157.652 972.582,158.327 " />
<polyline points="996.854,141.471 991.46,155.63 " />
<polyline points="996.854,141.471 1002.25,155.63 " />
<polyline points="993.483,150.91 1000.22,150.91 " />
<polyline points="830.842,354.773 854.041,354.773 " />
<polyline points="772.687,297.079 830.842,354.773 " />
</g>
<g clip-path="url(#clipId0)" fill="rgb(0,0,0)" stroke="rgb(0,0,0)" stroke-width="0.25" >
<path d="M771.025,298.754 774.349,295.404 762.636,287.107 762.636,287.107 z" />
</g>
<g clip-path="url(#clipId0)" fill="none" stroke="rgb(0,0,0)" stroke-width="0.25" >
<polyline points="796.043,145.898 815.376,145.898 " />
<polyline points="796.043,213.642 796.043,178.843 " />
<polyline points="774.777,93.6383 797.976,93.6383 " />
<polyline points="774.777,213.642 774.777,151.777 " />
<polyline points="842.815,261.451 767.721,261.451 " />
</g>
<g clip-path="url(#clipId0)" fill="rgb(0,0,0)" stroke="rgb(0,0,0)" stroke-width="0.25" >
<path d="M842.815,259.091 842.815,263.81 856.974,261.451 856.974,261.451 z" />
</g>
<g clip-path="url(#clipId0)" fill="none" stroke="rgb(0,0,0)" stroke-width="0.25" >
<path d="M773.279,287.506  A5.32595,5.32595 0 1,0 762.636,287.107 " />
<polyline points="796.043,308.374 763.871,308.374 " />
<polyline points="796.043,219.21 796.043,308.374 " />
<polyline points="680.526,218.549 796.043,219.21 " />
<path d="M680.526,218.549  A84.0258,84.0258 0 1,0 762.636,287.107 " />
<circle cx="680.045" cy="302.574" r="33.0361" />
</g>
<g clip-path="url(#clipId0)" fill="rgb(0,0,0)" stroke="rgb(0,0,0)" stroke-width="0.25" >
<path d="M188.696,394.381 187.327,389.864 174.461,396.229 174.461,396.229 z" />
</g>
<g clip-path="url(#clipId0)" fill="none" stroke="rgb(0,0,0)" stroke-width="0.25" >
<polyline points="188.011,392.123 277.769,364.923 " />
<polyline points="277.769,364.923 291.927,364.923 " />
<polyline points="702.723,593.153 708.656,593.153 708.656,592.165 708.162,591.176 707.667,590.681 706.679,590.187 705.195,590.187 704.206,590.681 703.218,591.67 702.723,593.153 702.723,594.142 703.218,595.626 704.206,596.614 705.195,597.109 706.679,597.109 707.667,596.614 708.656,595.626 " />
<polyline points="702.69,557.035 708.623,557.035 708.623,556.047 708.128,555.058 707.634,554.563 706.645,554.069 705.162,554.069 704.173,554.563 703.184,555.552 702.69,557.035 702.69,558.024 703.184,559.508 704.173,560.496 705.162,560.991 706.645,560.991 707.634,560.496 708.623,559.508 " />
<polyline points="574.455,734.16 573.241,734.565 572.432,735.778 572.028,737.801 572.028,739.014 572.432,741.037 573.241,742.251 574.455,742.655 575.264,742.655 576.478,742.251 577.287,741.037 577.691,739.014 577.691,737.801 577.287,735.778 576.478,734.565 575.264,734.16 574.455,734.16 " />
<polyline points="561.974,724.878 556.58,739.036 " />
<polyline points="561.974,724.878 567.368,739.036 " />
<polyline points="558.603,734.317 565.345,734.317 " />
<polyline points="558.603,688.601 558.603,702.759 566.694,702.759 " />
<polyline points="556.58,652.324 561.974,666.482 " />
<polyline points="567.368,652.324 561.974,666.482 " />
<polyline points="515.856,579.77 521.25,593.928 " />
<polyline points="526.643,579.77 521.25,593.928 " />
<polyline points="515.856,543.493 521.25,557.651 " />
<polyline points="526.643,543.493 521.25,557.651 " />
<polyline points="572.297,702.261 578.231,702.261 578.231,701.272 577.736,700.283 577.242,699.789 576.253,699.294 574.77,699.294 573.781,699.789 572.792,700.777 572.297,702.261 572.297,703.25 572.792,704.733 573.781,705.722 574.77,706.216 576.253,706.216 577.242,705.722 578.231,704.733 " />
<polyline points="761.902,572.285 785.402,572.285 " />
<polyline points="788.581,535.432 810.738,535.432 " />
<polyline points="571.108,661.801 569.894,662.205 569.085,663.419 568.681,665.441 568.681,666.655 569.085,668.678 569.894,669.891 571.108,670.296 571.917,670.296 573.131,669.891 573.94,668.678 574.344,666.655 574.344,665.441 573.94,663.419 573.131,662.205 571.917,661.801 571.108,661.801 " />
<polyline points="777.078,588.614 775.864,589.018 775.055,590.232 774.651,592.255 774.651,593.468 775.055,595.491 775.864,596.704 777.078,597.109 777.887,597.109 779.1,596.704 779.91,595.491 780.314,593.468 780.314,592.255 779.91,590.232 779.1,589.018 777.887,588.614 777.078,588.614 " />
<polyline points="759.593,552.496 758.379,552.9 757.57,554.114 757.166,556.137 757.166,557.35 757.57,559.373 758.379,560.586 759.593,560.991 760.402,560.991 761.615,560.586 762.425,559.373 762.829,557.35 762.829,556.137 762.425,554.114 761.615,552.9 760.402,552.496 759.593,552.496 " />
<polyline points="802.744,552.496 801.531,552.9 800.722,554.114 800.317,556.137 800.317,557.35 800.722,559.373 801.531,560.586 802.744,560.991 803.553,560.991 804.767,560.586 805.576,559.373 805.98,557.35 805.98,556.137 805.576,554.114 804.767,552.9 803.553,552.496 802.744,552.496 " />
<polyline points="529.709,589.632 528.495,590.037 527.686,591.25 527.281,593.273 527.281,594.487 527.686,596.509 528.495,597.723 529.709,598.127 530.518,598.127 531.731,597.723 532.54,596.509 532.945,594.487 532.945,593.273 532.54,591.25 531.731,590.037 530.518,589.632 529.709,589.632 " />
<polyline points="531.058,552.015 529.845,552.42 529.036,553.634 528.631,555.656 528.631,556.87 529.036,558.892 529.845,560.106 531.058,560.511 531.867,560.511 533.081,560.106 533.89,558.892 534.294,556.87 534.294,555.656 533.89,553.634 533.081,552.42 531.867,552.015 531.058,552.015 " />
<polyline points="548.714,595.926 560.94,595.926 " />
<polyline points="741.728,585.218 745.099,585.218 751.167,593.309 " />
<polyline points="744.425,585.892 751.167,594.657 " />
<polyline points="761.955,572.408 751.167,594.657 " />
<polyline points="768.487,549.013 771.858,549.013 777.926,557.103 " />
<polyline points="771.184,549.687 777.926,558.452 " />
<polyline points="788.713,536.203 777.926,558.452 " />
<polyline points="591.857,730.946 603.993,730.946 " />
<polyline points="591.857,734.991 603.993,734.991 " />
<polyline points="630.961,724.878 630.961,739.036 " />
<polyline points="630.961,731.62 629.613,730.272 628.265,729.597 626.242,729.597 624.894,730.272 623.545,731.62 622.871,733.643 622.871,734.991 623.545,737.014 624.894,738.362 626.242,739.036 628.265,739.036 629.613,738.362 630.961,737.014 " />
<polyline points="636.355,729.597 636.355,736.339 637.029,738.362 638.378,739.036 640.4,739.036 641.749,738.362 643.772,736.339 " />
<polyline points="643.772,729.597 643.772,739.036 " />
<polyline points="656.582,731.62 655.233,730.272 653.885,729.597 651.862,729.597 650.514,730.272 649.165,731.62 648.491,733.643 648.491,734.991 649.165,737.014 650.514,738.362 651.862,739.036 653.885,739.036 655.233,738.362 656.582,737.014 " />
<polyline points="661.975,724.878 661.975,736.339 662.65,738.362 663.998,739.036 665.346,739.036 " />
<polyline points="659.953,729.597 664.672,729.597 " />
<polyline points="690.967,729.597 690.967,739.036 " />
<polyline points="690.967,731.62 689.618,730.272 688.27,729.597 686.247,729.597 684.899,730.272 683.55,731.62 682.876,733.643 682.876,734.991 683.55,737.014 684.899,738.362 686.247,739.036 688.27,739.036 689.618,738.362 690.967,737.014 " />
<polyline points="696.36,729.597 696.36,739.036 " />
<polyline points="696.36,733.643 697.034,731.62 698.383,730.272 699.731,729.597 701.754,729.597 " />
<polyline points="704.451,733.643 712.541,733.643 712.541,732.294 711.867,730.946 711.193,730.272 709.845,729.597 707.822,729.597 706.473,730.272 705.125,731.62 704.451,733.643 704.451,734.991 705.125,737.014 706.473,738.362 707.822,739.036 709.845,739.036 711.193,738.362 712.541,737.014 " />
<polyline points="724.677,729.597 724.677,739.036 " />
<polyline points="724.677,731.62 723.329,730.272 721.98,729.597 719.958,729.597 718.609,730.272 717.261,731.62 716.587,733.643 716.587,734.991 717.261,737.014 718.609,738.362 719.958,739.036 721.98,739.036 723.329,738.362 724.677,737.014 " />
<polyline points="731.419,738.362 730.745,739.036 730.071,738.362 730.745,737.688 731.419,738.362 731.419,739.711 730.745,741.059 730.071,741.733 " />
<polyline points="750.972,729.597 750.972,739.036 " />
<polyline points="750.972,732.294 752.994,730.272 754.343,729.597 756.365,729.597 757.714,730.272 758.388,732.294 758.388,739.036 " />
<polyline points="758.388,732.294 760.411,730.272 761.759,729.597 763.782,729.597 765.13,730.272 765.804,732.294 765.804,739.036 " />
<polyline points="771.198,729.597 771.198,739.036 " />
<polyline points="771.198,732.294 773.221,730.272 774.569,729.597 776.592,729.597 777.94,730.272 778.614,732.294 778.614,739.036 " />
<polyline points="778.614,732.294 780.637,730.272 781.985,729.597 784.008,729.597 785.357,730.272 786.031,732.294 786.031,739.036 " />
<polyline points="591.857,694.669 603.993,694.669 " />
<polyline points="591.857,698.714 603.993,698.714 " />
<polyline points="622.871,697.366 630.961,697.366 630.961,696.017 630.287,694.669 629.613,693.995 628.265,693.32 626.242,693.32 624.894,693.995 623.545,695.343 622.871,697.366 622.871,698.714 623.545,700.737 624.894,702.085 626.242,702.759 628.265,702.759 629.613,702.085 630.961,700.737 " />
<polyline points="639.726,688.601 638.378,688.601 637.029,689.275 636.355,691.298 636.355,702.759 " />
<polyline points="634.333,693.32 639.052,693.32 " />
<polyline points="647.817,688.601 646.468,688.601 645.12,689.275 644.446,691.298 644.446,702.759 " />
<polyline points="642.423,693.32 647.143,693.32 " />
<polyline points="651.188,697.366 659.278,697.366 659.278,696.017 658.604,694.669 657.93,693.995 656.582,693.32 654.559,693.32 653.211,693.995 651.862,695.343 651.188,697.366 651.188,698.714 651.862,700.737 653.211,702.085 654.559,702.759 656.582,702.759 657.93,702.085 659.278,700.737 " />
<polyline points="671.414,695.343 670.066,693.995 668.717,693.32 666.695,693.32 665.346,693.995 663.998,695.343 663.324,697.366 663.324,698.714 663.998,700.737 665.346,702.085 666.695,702.759 668.717,702.759 670.066,702.085 671.414,700.737 " />
<polyline points="676.808,688.601 676.808,700.062 677.482,702.085 678.831,702.759 680.179,702.759 " />
<polyline points="674.785,693.32 679.505,693.32 " />
<polyline points="683.55,689.275 684.224,689.949 684.899,689.275 684.224,688.601 683.55,689.275 " />
<polyline points="684.224,693.995 684.224,702.759 " />
<polyline points="688.27,693.32 692.315,702.759 " />
<polyline points="696.36,693.32 692.315,702.759 " />
<polyline points="699.731,697.366 707.822,697.366 707.822,696.017 707.148,694.669 706.473,693.995 705.125,693.32 703.102,693.32 701.754,693.995 700.406,695.343 699.731,697.366 699.731,698.714 700.406,700.737 701.754,702.085 703.102,702.759 705.125,702.759 706.473,702.085 707.822,700.737 " />
<polyline points="734.116,688.601 734.116,702.759 " />
<polyline points="734.116,695.343 732.768,693.995 731.419,693.32 729.397,693.32 728.048,693.995 726.7,695.343 726.026,697.366 726.026,698.714 726.7,700.737 728.048,702.085 729.397,702.759 731.419,702.759 732.768,702.085 734.116,700.737 " />
<polyline points="739.51,693.32 739.51,700.062 740.184,702.085 741.533,702.759 743.555,702.759 744.904,702.085 746.926,700.062 " />
<polyline points="746.926,693.32 746.926,702.759 " />
<polyline points="759.736,695.343 758.388,693.995 757.04,693.32 755.017,693.32 753.668,693.995 752.32,695.343 751.646,697.366 751.646,698.714 752.32,700.737 753.668,702.085 755.017,702.759 757.04,702.759 758.388,702.085 759.736,700.737 " />
<polyline points="765.13,688.601 765.13,700.062 765.804,702.085 767.153,702.759 768.501,702.759 " />
<polyline points="763.107,693.32 767.827,693.32 " />
<polyline points="786.705,688.601 786.705,702.759 " />
<polyline points="791.424,697.366 799.515,697.366 799.515,696.017 798.841,694.669 798.167,693.995 796.818,693.32 794.796,693.32 793.447,693.995 792.099,695.343 791.424,697.366 791.424,698.714 792.099,700.737 793.447,702.085 794.796,702.759 796.818,702.759 798.167,702.085 799.515,700.737 " />
<polyline points="804.235,693.32 804.235,702.759 " />
<polyline points="804.235,696.017 806.257,693.995 807.606,693.32 809.628,693.32 810.977,693.995 811.651,696.017 811.651,702.759 " />
<polyline points="824.461,693.32 824.461,704.108 823.787,706.13 823.113,706.805 821.764,707.479 819.742,707.479 818.393,706.805 " />
<polyline points="824.461,695.343 823.113,693.995 821.764,693.32 819.742,693.32 818.393,693.995 817.045,695.343 816.37,697.366 816.37,698.714 817.045,700.737 818.393,702.085 819.742,702.759 821.764,702.759 823.113,702.085 824.461,700.737 " />
<polyline points="830.529,688.601 830.529,700.062 831.203,702.085 832.552,702.759 833.9,702.759 " />
<polyline points="828.506,693.32 833.226,693.32 " />
<polyline points="837.945,688.601 837.945,702.759 " />
<polyline points="837.945,696.017 839.968,693.995 841.316,693.32 843.339,693.32 844.687,693.995 845.362,696.017 845.362,702.759 " />
<polyline points="852.104,702.085 851.43,702.759 850.755,702.085 851.43,701.411 852.104,702.085 852.104,703.434 851.43,704.782 850.755,705.456 " />
<polyline points="871.656,693.32 871.656,702.759 " />
<polyline points="871.656,696.017 873.679,693.995 875.027,693.32 877.05,693.32 878.398,693.995 879.072,696.017 879.072,702.759 " />
<polyline points="879.072,696.017 881.095,693.995 882.443,693.32 884.466,693.32 885.815,693.995 886.489,696.017 886.489,702.759 " />
<polyline points="591.857,658.392 603.993,658.392 " />
<polyline points="591.857,662.437 603.993,662.437 " />
<polyline points="630.961,652.324 630.961,666.482 " />
<polyline points="630.961,659.066 629.613,657.717 628.265,657.043 626.242,657.043 624.894,657.717 623.545,659.066 622.871,661.089 622.871,662.437 623.545,664.46 624.894,665.808 626.242,666.482 628.265,666.482 629.613,665.808 630.961,664.46 " />
<polyline points="636.355,657.043 636.355,663.785 637.029,665.808 638.378,666.482 640.4,666.482 641.749,665.808 643.772,663.785 " />
<polyline points="643.772,657.043 643.772,666.482 " />
<polyline points="656.582,659.066 655.233,657.717 653.885,657.043 651.862,657.043 650.514,657.717 649.165,659.066 648.491,661.089 648.491,662.437 649.165,664.46 650.514,665.808 651.862,666.482 653.885,666.482 655.233,665.808 656.582,664.46 " />
<polyline points="661.975,652.324 661.975,663.785 662.65,665.808 663.998,666.482 665.346,666.482 " />
<polyline points="659.953,657.043 664.672,657.043 " />
<polyline points="682.202,657.043 686.247,666.482 " />
<polyline points="690.292,657.043 686.247,666.482 " />
<polyline points="693.663,661.089 701.754,661.089 701.754,659.74 701.08,658.392 700.406,657.717 699.057,657.043 697.034,657.043 695.686,657.717 694.338,659.066 693.663,661.089 693.663,662.437 694.338,664.46 695.686,665.808 697.034,666.482 699.057,666.482 700.406,665.808 701.754,664.46 " />
<polyline points="706.473,652.324 706.473,666.482 " />
<polyline points="714.564,657.043 713.216,657.717 711.867,659.066 711.193,661.089 711.193,662.437 711.867,664.46 713.216,665.808 714.564,666.482 716.587,666.482 717.935,665.808 719.284,664.46 719.958,662.437 719.958,661.089 719.284,659.066 717.935,657.717 716.587,657.043 714.564,657.043 " />
<polyline points="732.094,659.066 730.745,657.717 729.397,657.043 727.374,657.043 726.026,657.717 724.677,659.066 724.003,661.089 724.003,662.437 724.677,664.46 726.026,665.808 727.374,666.482 729.397,666.482 730.745,665.808 732.094,664.46 " />
<polyline points="736.139,652.998 736.813,653.672 737.487,652.998 736.813,652.324 736.139,652.998 " />
<polyline points="736.813,657.717 736.813,666.482 " />
<polyline points="742.881,652.324 742.881,663.785 743.555,665.808 744.904,666.482 746.252,666.482 " />
<polyline points="740.858,657.043 745.578,657.043 " />
<polyline points="748.949,657.043 752.994,666.482 " />
<polyline points="757.04,657.043 752.994,666.482 751.646,669.179 750.297,670.528 748.949,671.202 748.275,671.202 " />
<polyline points="762.433,665.808 761.759,666.482 761.085,665.808 761.759,665.134 762.433,665.808 762.433,667.156 761.759,668.505 761.085,669.179 " />
<polyline points="781.985,657.043 781.985,666.482 " />
<polyline points="781.985,659.74 784.008,657.717 785.357,657.043 787.379,657.043 788.728,657.717 789.402,659.74 789.402,666.482 " />
<polyline points="789.402,659.74 791.424,657.717 792.773,657.043 794.796,657.043 796.144,657.717 796.818,659.74 796.818,666.482 " />
<polyline points="812.999,649.627 800.863,671.202 " />
<polyline points="823.787,659.066 823.113,657.717 821.09,657.043 819.067,657.043 817.045,657.717 816.37,659.066 817.045,660.414 818.393,661.089 821.764,661.763 823.113,662.437 823.787,663.785 823.787,664.46 823.113,665.808 821.09,666.482 819.067,666.482 817.045,665.808 816.37,664.46 " />
<polyline points="514.718,620.766 517.414,630.205 " />
<polyline points="520.111,620.766 517.414,630.205 " />
<polyline points="520.111,620.766 522.808,630.205 " />
<polyline points="525.505,620.766 522.808,630.205 " />
<polyline points="530.225,616.047 530.225,630.205 " />
<polyline points="530.225,623.463 532.247,621.44 533.596,620.766 535.618,620.766 536.967,621.44 537.641,623.463 537.641,630.205 " />
<polyline points="542.36,624.812 550.451,624.812 550.451,623.463 549.777,622.115 549.103,621.44 547.754,620.766 545.731,620.766 544.383,621.44 543.035,622.789 542.36,624.812 542.36,626.16 543.035,628.183 544.383,629.531 545.731,630.205 547.754,630.205 549.103,629.531 550.451,628.183 " />
<polyline points="555.17,620.766 555.17,630.205 " />
<polyline points="555.17,624.812 555.845,622.789 557.193,621.44 558.542,620.766 560.564,620.766 " />
<polyline points="563.261,624.812 571.352,624.812 571.352,623.463 570.677,622.115 570.003,621.44 568.655,620.766 566.632,620.766 565.284,621.44 563.935,622.789 563.261,624.812 563.261,626.16 563.935,628.183 565.284,629.531 566.632,630.205 568.655,630.205 570.003,629.531 571.352,628.183 " />
<polyline points="561.92,581.792 551.132,587.86 561.92,593.928 " />
<polyline points="582.821,582.467 584.169,581.792 586.192,579.77 586.192,593.928 " />
<polyline points="595.631,579.77 603.047,579.77 599.002,585.163 601.024,585.163 602.373,585.838 603.047,586.512 603.721,588.535 603.721,589.883 603.047,591.906 601.699,593.254 599.676,593.928 597.653,593.928 595.631,593.254 594.956,592.58 594.282,591.231 " />
<polyline points="622.599,584.489 622.599,593.928 " />
<polyline points="622.599,587.186 624.622,585.163 625.97,584.489 627.993,584.489 629.341,585.163 630.016,587.186 630.016,593.928 " />
<polyline points="630.016,587.186 632.038,585.163 633.387,584.489 635.409,584.489 636.758,585.163 637.432,587.186 637.432,593.928 " />
<polyline points="653.613,577.073 641.477,598.648 " />
<polyline points="664.4,586.512 663.726,585.163 661.704,584.489 659.681,584.489 657.658,585.163 656.984,586.512 657.658,587.86 659.007,588.535 662.378,589.209 663.726,589.883 664.4,591.231 664.4,591.906 663.726,593.254 661.704,593.928 659.681,593.928 657.658,593.254 656.984,591.906 " />
<polyline points="669.794,584.489 669.12,585.163 669.794,585.838 670.468,585.163 669.794,584.489 " />
<polyline points="669.794,592.58 669.12,593.254 669.794,593.928 670.468,593.254 669.794,592.58 " />
<polyline points="690.021,579.77 690.021,593.928 698.111,593.928 " />
<polyline points="715.641,585.838 727.777,585.838 " />
<polyline points="715.641,589.883 727.777,589.883 " />
<polyline points="764.858,579.77 759.465,593.928 " />
<polyline points="764.858,579.77 770.252,593.928 " />
<polyline points="761.487,589.209 768.229,589.209 " />
<polyline points="798.569,577.073 786.433,598.648 " />
<polyline points="803.289,579.77 810.705,579.77 806.66,585.163 808.682,585.163 810.031,585.838 810.705,586.512 811.379,588.535 811.379,589.883 810.705,591.906 809.357,593.254 807.334,593.928 805.311,593.928 803.289,593.254 802.614,592.58 801.94,591.231 " />
<polyline points="823.515,579.77 816.773,579.77 816.099,585.838 816.773,585.163 818.796,584.489 820.818,584.489 822.841,585.163 824.189,586.512 824.863,588.535 824.863,589.883 824.189,591.906 822.841,593.254 820.818,593.928 818.796,593.928 816.773,593.254 816.099,592.58 815.424,591.231 " />
<polyline points="832.954,579.77 830.931,580.444 829.583,582.467 828.909,585.838 828.909,587.86 829.583,591.231 830.931,593.254 832.954,593.928 834.302,593.928 836.325,593.254 837.674,591.231 838.348,587.86 838.348,585.838 837.674,582.467 836.325,580.444 834.302,579.77 832.954,579.77 " />
<polyline points="551.132,545.515 561.92,551.583 551.132,557.651 " />
<polyline points="582.821,546.19 584.169,545.515 586.192,543.493 586.192,557.651 " />
<polyline points="595.631,543.493 603.047,543.493 599.002,548.886 601.024,548.886 602.373,549.561 603.047,550.235 603.721,552.258 603.721,553.606 603.047,555.629 601.699,556.977 599.676,557.651 597.653,557.651 595.631,556.977 594.956,556.303 594.282,554.954 " />
<polyline points="622.599,548.212 622.599,557.651 " />
<polyline points="622.599,550.909 624.622,548.886 625.97,548.212 627.993,548.212 629.341,548.886 630.016,550.909 630.016,557.651 " />
<polyline points="630.016,550.909 632.038,548.886 633.387,548.212 635.409,548.212 636.758,548.886 637.432,550.909 637.432,557.651 " />
<polyline points="653.613,540.796 641.477,562.371 " />
<polyline points="664.4,550.235 663.726,548.886 661.704,548.212 659.681,548.212 657.658,548.886 656.984,550.235 657.658,551.583 659.007,552.258 662.378,552.932 663.726,553.606 664.4,554.954 664.4,555.629 663.726,556.977 661.704,557.651 659.681,557.651 657.658,556.977 656.984,555.629 " />
<polyline points="669.794,548.212 669.12,548.886 669.794,549.561 670.468,548.886 669.794,548.212 " />
<polyline points="669.794,556.303 669.12,556.977 669.794,557.651 670.468,556.977 669.794,556.303 " />
<polyline points="690.021,543.493 690.021,557.651 698.111,557.651 " />
<polyline points="715.641,549.561 727.777,549.561 " />
<polyline points="715.641,553.606 727.777,553.606 " />
<polyline points="745.306,543.493 750.7,557.651 " />
<polyline points="756.094,543.493 750.7,557.651 " />
<polyline points="791.153,543.493 785.759,557.651 " />
<polyline points="791.153,543.493 796.546,557.651 " />
<polyline points="787.782,552.932 794.524,552.932 " />
<polyline points="824.863,540.796 812.728,562.371 " />
<polyline points="834.977,543.493 828.235,552.932 838.348,552.932 " />
<polyline points="834.977,543.493 834.977,557.651 " />
<polyline points="843.741,556.977 843.067,557.651 842.393,556.977 843.067,556.303 843.741,556.977 843.741,558.325 843.067,559.674 842.393,560.348 " />
<polyline points="856.552,543.493 849.809,543.493 849.135,549.561 849.809,548.886 851.832,548.212 853.855,548.212 855.877,548.886 857.226,550.235 857.9,552.258 857.9,553.606 857.226,555.629 855.877,556.977 853.855,557.651 851.832,557.651 849.809,556.977 849.135,556.303 848.461,554.954 " />
<polyline points="865.991,543.493 863.968,544.167 862.619,546.19 861.945,549.561 861.945,551.583 862.619,554.954 863.968,556.977 865.991,557.651 867.339,557.651 869.362,556.977 870.71,554.954 871.384,551.583 871.384,549.561 870.71,546.19 869.362,544.167 867.339,543.493 865.991,543.493 " />
<polyline points="879.475,543.493 877.452,544.167 876.104,546.19 875.43,549.561 875.43,551.583 876.104,554.954 877.452,556.977 879.475,557.651 880.823,557.651 882.846,556.977 884.194,554.954 884.869,551.583 884.869,549.561 884.194,546.19 882.846,544.167 880.823,543.493 879.475,543.493 " />
<polyline points="794.078,724.354 794.078,723.95 794.483,723.141 794.887,722.736 795.697,722.332 797.315,722.332 798.124,722.736 798.528,723.141 798.933,723.95 798.933,724.759 798.528,725.568 797.719,726.782 793.674,730.827 799.337,730.827 " />
<polyline points="271.173,552.684 269.96,553.088 269.151,554.302 268.746,556.324 268.746,557.538 269.151,559.561 269.96,560.774 271.173,561.179 271.982,561.179 273.196,560.774 274.005,559.561 274.41,557.538 274.41,556.324 274.005,554.302 273.196,553.088 271.982,552.684 271.173,552.684 " />
<polyline points="12.5104,621.522 15.2073,630.961 " />
<polyline points="17.9042,621.522 15.2073,630.961 " />
<polyline points="17.9042,621.522 20.601,630.961 " />
<polyline points="23.2979,621.522 20.601,630.961 " />
<polyline points="28.0174,616.803 28.0174,630.961 " />
<polyline points="28.0174,624.219 30.04,622.196 31.3884,621.522 33.4111,621.522 34.7595,622.196 35.4337,624.219 35.4337,630.961 " />
<polyline points="40.1532,625.567 48.2438,625.567 48.2438,624.219 47.5696,622.87 46.8954,622.196 45.5469,621.522 43.5243,621.522 42.1759,622.196 40.8274,623.545 40.1532,625.567 40.1532,626.916 40.8274,628.938 42.1759,630.287 43.5243,630.961 45.5469,630.961 46.8954,630.287 48.2438,628.938 " />
<polyline points="52.9633,621.522 52.9633,630.961 " />
<polyline points="52.9633,625.567 53.6375,623.545 54.9859,622.196 56.3344,621.522 58.357,621.522 " />
<polyline points="61.0539,625.567 69.1444,625.567 69.1444,624.219 68.4702,622.87 67.796,622.196 66.4476,621.522 64.4249,621.522 63.0765,622.196 61.7281,623.545 61.0539,625.567 61.0539,626.916 61.7281,628.938 63.0765,630.287 64.4249,630.961 66.4476,630.961 67.796,630.287 69.1444,628.938 " />
<polyline points="46.6709,597.905 57.5888,597.905 " />
<polyline points="11.345,579.77 16.7387,593.928 " />
<polyline points="22.1324,579.77 16.7387,593.928 " />
<polyline points="25.7596,588.35 24.546,588.754 23.737,589.968 23.3324,591.99 23.3324,593.204 23.737,595.227 24.546,596.44 25.7596,596.845 26.5687,596.845 27.7822,596.44 28.5913,595.227 28.9958,593.204 28.9958,591.99 28.5913,589.968 27.7822,588.754 26.5687,588.35 25.7596,588.35 " />
<polyline points="57.409,581.792 46.6216,587.86 57.409,593.928 " />
<polyline points="76.9612,583.141 76.9612,582.467 77.6354,581.118 78.3097,580.444 79.6581,579.77 82.3549,579.77 83.7034,580.444 84.3776,581.118 85.0518,582.467 85.0518,583.815 84.3776,585.163 83.0292,587.186 76.287,593.928 85.726,593.928 " />
<polyline points="97.8619,579.77 91.1197,579.77 90.4455,585.838 91.1197,585.163 93.1424,584.489 95.165,584.489 97.1877,585.163 98.5361,586.512 99.2103,588.535 99.2103,589.883 98.5361,591.906 97.1877,593.254 95.165,593.928 93.1424,593.928 91.1197,593.254 90.4455,592.58 89.7713,591.231 " />
<polyline points="107.301,579.77 105.278,580.444 103.93,582.467 103.256,585.838 103.256,587.86 103.93,591.231 105.278,593.254 107.301,593.928 108.649,593.928 110.672,593.254 112.02,591.231 112.695,587.86 112.695,585.838 112.02,582.467 110.672,580.444 108.649,579.77 107.301,579.77 " />
<polyline points="120.785,579.77 118.763,580.444 117.414,582.467 116.74,585.838 116.74,587.86 117.414,591.231 118.763,593.254 120.785,593.928 122.134,593.928 124.156,593.254 125.505,591.231 126.179,587.86 126.179,585.838 125.505,582.467 124.156,580.444 122.134,579.77 120.785,579.77 " />
<polyline points="149.102,579.77 147.754,579.77 146.405,580.444 145.731,582.467 145.731,593.928 " />
<polyline points="143.708,584.489 148.428,584.489 " />
<polyline points="153.147,584.489 153.147,598.648 " />
<polyline points="153.147,586.512 154.496,585.163 155.844,584.489 157.867,584.489 159.215,585.163 160.564,586.512 161.238,588.535 161.238,589.883 160.564,591.906 159.215,593.254 157.867,593.928 155.844,593.928 154.496,593.254 153.147,591.906 " />
<polyline points="165.958,584.489 165.958,593.928 " />
<polyline points="165.958,587.186 167.98,585.163 169.329,584.489 171.351,584.489 172.7,585.163 173.374,587.186 173.374,593.928 " />
<polyline points="173.374,587.186 175.397,585.163 176.745,584.489 178.768,584.489 180.116,585.163 180.79,587.186 180.79,593.928 " />
<polyline points="186.858,584.489 186.184,585.163 186.858,585.838 187.532,585.163 186.858,584.489 " />
<polyline points="186.858,592.58 186.184,593.254 186.858,593.928 187.532,593.254 186.858,592.58 " />
<polyline points="227.351,585.838 239.487,585.838 " />
<polyline points="227.351,589.883 239.487,589.883 " />
<polyline points="212.388,595.25 218.321,595.25 218.321,594.261 217.826,593.272 217.332,592.778 216.343,592.283 214.86,592.283 213.871,592.778 212.882,593.766 212.388,595.25 212.388,596.239 212.882,597.722 213.871,598.711 214.86,599.205 216.343,599.205 217.332,598.711 218.321,597.722 " />
<polyline points="199.069,580.057 199.069,594.216 207.16,594.216 " />
<polyline points="292.724,588.761 291.511,589.165 290.702,590.379 290.297,592.401 290.297,593.615 290.702,595.638 291.511,596.851 292.724,597.256 293.533,597.256 294.747,596.851 295.556,595.638 295.961,593.615 295.961,592.401 295.556,590.379 294.747,589.165 293.533,588.761 292.724,588.761 " />
<polyline points="280.62,580.057 275.226,594.216 " />
<polyline points="280.62,580.057 286.014,594.216 " />
<polyline points="277.249,589.496 283.991,589.496 " />
<polyline points="256.547,593.37 260.447,587.702 " />
<polyline points="260.447,587.702 265.126,600.172 " />
<polyline points="265.126,600.172 271.365,576.365 " />
<polyline points="271.365,576.365 297.1,576.365 " />
<polyline points="316.696,577.36 304.56,598.935 " />
<polyline points="326.809,580.057 320.067,589.496 330.18,589.496 " />
<polyline points="326.809,580.057 326.809,594.216 " />
<polyline points="334.9,592.867 334.225,593.541 334.9,594.216 335.574,593.541 334.9,592.867 " />
<polyline points="341.642,580.057 349.058,580.057 345.013,585.451 347.035,585.451 348.384,586.125 349.058,586.799 349.732,588.822 349.732,590.17 349.058,592.193 347.71,593.541 345.687,594.216 343.664,594.216 341.642,593.541 340.968,592.867 340.293,591.519 " />
<polyline points="340.029,541.083 327.893,562.658 " />
<polyline points="345.423,546.477 346.771,545.803 348.794,543.78 348.794,557.938 " />
<polyline points="360.93,543.78 358.907,544.454 357.559,546.477 356.885,549.848 356.885,551.871 357.559,555.242 358.907,557.264 360.93,557.938 362.278,557.938 364.301,557.264 365.649,555.242 366.324,551.871 366.324,549.848 365.649,546.477 364.301,544.454 362.278,543.78 360.93,543.78 " />
<polyline points="372.391,557.264 371.717,557.938 371.043,557.264 371.717,556.59 372.391,557.264 372.391,558.613 371.717,559.961 371.043,560.635 " />
<polyline points="385.876,545.803 385.202,544.454 383.179,543.78 381.83,543.78 379.808,544.454 378.459,546.477 377.785,549.848 377.785,553.219 378.459,555.916 379.808,557.264 381.83,557.938 382.505,557.938 384.527,557.264 385.876,555.916 386.55,553.893 386.55,553.219 385.876,551.196 384.527,549.848 382.505,549.174 381.83,549.174 379.808,549.848 378.459,551.196 377.785,553.219 " />
<polyline points="394.641,543.78 392.618,544.454 391.269,546.477 390.595,549.848 390.595,551.871 391.269,555.242 392.618,557.264 394.641,557.938 395.989,557.938 398.012,557.264 399.36,555.242 400.034,551.871 400.034,549.848 399.36,546.477 398.012,544.454 395.989,543.78 394.641,543.78 " />
<polyline points="408.125,543.78 406.102,544.454 404.754,546.477 404.08,549.848 404.08,551.871 404.754,555.242 406.102,557.264 408.125,557.938 409.473,557.938 411.496,557.264 412.844,555.242 413.519,551.871 413.519,549.848 412.844,546.477 411.496,544.454 409.473,543.78 408.125,543.78 " />
<polyline points="295.185,540.088 320.92,540.088 " />
<polyline points="288.947,563.895 295.185,540.088 " />
<polyline points="284.267,551.425 288.947,563.895 " />
<polyline points="280.368,557.093 284.267,551.425 " />
<polyline points="304.441,543.78 299.047,557.938 " />
<polyline points="304.441,543.78 309.834,557.938 " />
<polyline points="301.07,553.219 307.812,553.219 " />
<polyline points="316.545,552.484 315.332,552.888 314.522,554.102 314.118,556.124 314.118,557.338 314.522,559.361 315.332,560.574 316.545,560.979 317.354,560.979 318.568,560.574 319.377,559.361 319.781,557.338 319.781,556.124 319.377,554.102 318.568,552.888 317.354,552.484 316.545,552.484 " />
<polyline points="199.069,543.78 199.069,557.938 207.16,557.938 " />
<polyline points="211.9,557.511 217.833,557.511 217.833,556.522 217.339,555.533 216.844,555.039 215.856,554.544 214.372,554.544 213.383,555.039 212.395,556.027 211.9,557.511 211.9,558.499 212.395,559.983 213.383,560.972 214.372,561.466 215.856,561.466 216.844,560.972 217.833,559.983 " />
<polyline points="227.351,549.561 239.487,549.561 " />
<polyline points="227.351,553.606 239.487,553.606 " />
<polyline points="257.017,543.493 262.41,557.651 " />
<polyline points="267.804,543.493 262.41,557.651 " />
<polyline points="46.6216,545.515 57.409,551.583 46.6216,557.651 " />
<polyline points="76.9612,546.864 76.9612,546.19 77.6354,544.841 78.3097,544.167 79.6581,543.493 82.3549,543.493 83.7034,544.167 84.3776,544.841 85.0518,546.19 85.0518,547.538 84.3776,548.886 83.0292,550.909 76.287,557.651 85.726,557.651 " />
<polyline points="97.8619,543.493 91.1197,543.493 90.4455,549.561 91.1197,548.886 93.1424,548.212 95.165,548.212 97.1877,548.886 98.5361,550.235 99.2103,552.258 99.2103,553.606 98.5361,555.629 97.1877,556.977 95.165,557.651 93.1424,557.651 91.1197,556.977 90.4455,556.303 89.7713,554.954 " />
<polyline points="107.301,543.493 105.278,544.167 103.93,546.19 103.256,549.561 103.256,551.583 103.93,554.954 105.278,556.977 107.301,557.651 108.649,557.651 110.672,556.977 112.02,554.954 112.695,551.583 112.695,549.561 112.02,546.19 110.672,544.167 108.649,543.493 107.301,543.493 " />
<polyline points="120.785,543.493 118.763,544.167 117.414,546.19 116.74,549.561 116.74,551.583 117.414,554.954 118.763,556.977 120.785,557.651 122.134,557.651 124.156,556.977 125.505,554.954 126.179,551.583 126.179,549.561 125.505,546.19 124.156,544.167 122.134,543.493 120.785,543.493 " />
<polyline points="149.102,543.493 147.754,543.493 146.405,544.167 145.731,546.19 145.731,557.651 " />
<polyline points="143.708,548.212 148.428,548.212 " />
<polyline points="153.147,548.212 153.147,562.371 " />
<polyline points="153.147,550.235 154.496,548.886 155.844,548.212 157.867,548.212 159.215,548.886 160.564,550.235 161.238,552.258 161.238,553.606 160.564,555.629 159.215,556.977 157.867,557.651 155.844,557.651 154.496,556.977 153.147,555.629 " />
<polyline points="165.958,548.212 165.958,557.651 " />
<polyline points="165.958,550.909 167.98,548.886 169.329,548.212 171.351,548.212 172.7,548.886 173.374,550.909 173.374,557.651 " />
<polyline points="173.374,550.909 175.397,548.886 176.745,548.212 178.768,548.212 180.116,548.886 180.79,550.909 180.79,557.651 " />
<polyline points="186.858,548.212 186.184,548.886 186.858,549.561 187.532,548.886 186.858,548.212 " />
<polyline points="186.858,556.303 186.184,556.977 186.858,557.651 187.532,556.977 186.858,556.303 " />
<polyline points="26.4666,552.073 25.253,552.477 24.4439,553.691 24.0394,555.714 24.0394,556.927 24.4439,558.95 25.253,560.164 26.4666,560.568 27.2756,560.568 28.4892,560.164 29.2983,558.95 29.7028,556.927 29.7028,555.714 29.2983,553.691 28.4892,552.477 27.2756,552.073 26.4666,552.073 " />
<polyline points="11.345,543.493 16.7387,557.651 " />
<polyline points="22.1324,543.493 16.7387,557.651 " />
<polyline points="69.1304,661.025 67.9169,661.429 67.1078,662.643 66.7033,664.665 66.7033,665.879 67.1078,667.902 67.9169,669.115 69.1304,669.52 69.9395,669.52 71.1531,669.115 71.9621,667.902 72.3667,665.879 72.3667,664.665 71.9621,662.643 71.1531,661.429 69.9395,661.025 69.1304,661.025 " />
<polyline points="54.0089,652.324 59.4026,666.482 " />
<polyline points="64.7963,652.324 59.4026,666.482 " />
<polyline points="89.2855,658.392 101.421,658.392 " />
<polyline points="89.2855,662.437 101.421,662.437 " />
<polyline points="128.39,652.324 128.39,666.482 " />
<polyline points="128.39,659.066 127.041,657.717 125.693,657.043 123.67,657.043 122.322,657.717 120.974,659.066 120.299,661.089 120.299,662.437 120.974,664.46 122.322,665.808 123.67,666.482 125.693,666.482 127.041,665.808 128.39,664.46 " />
<polyline points="133.784,657.043 133.784,663.785 134.458,665.808 135.806,666.482 137.829,666.482 139.177,665.808 141.2,663.785 " />
<polyline points="141.2,657.043 141.2,666.482 " />
<polyline points="154.01,659.066 152.662,657.717 151.313,657.043 149.291,657.043 147.942,657.717 146.594,659.066 145.919,661.089 145.919,662.437 146.594,664.46 147.942,665.808 149.291,666.482 151.313,666.482 152.662,665.808 154.01,664.46 " />
<polyline points="159.404,652.324 159.404,663.785 160.078,665.808 161.426,666.482 162.775,666.482 " />
<polyline points="157.381,657.043 162.101,657.043 " />
<polyline points="179.63,657.043 183.675,666.482 " />
<polyline points="187.721,657.043 183.675,666.482 " />
<polyline points="191.092,661.089 199.182,661.089 199.182,659.74 198.508,658.392 197.834,657.717 196.486,657.043 194.463,657.043 193.114,657.717 191.766,659.066 191.092,661.089 191.092,662.437 191.766,664.46 193.114,665.808 194.463,666.482 196.486,666.482 197.834,665.808 199.182,664.46 " />
<polyline points="203.902,652.324 203.902,666.482 " />
<polyline points="211.992,657.043 210.644,657.717 209.296,659.066 208.621,661.089 208.621,662.437 209.296,664.46 210.644,665.808 211.992,666.482 214.015,666.482 215.364,665.808 216.712,664.46 217.386,662.437 217.386,661.089 216.712,659.066 215.364,657.717 214.015,657.043 211.992,657.043 " />
<polyline points="229.522,659.066 228.174,657.717 226.825,657.043 224.803,657.043 223.454,657.717 222.106,659.066 221.431,661.089 221.431,662.437 222.106,664.46 223.454,665.808 224.803,666.482 226.825,666.482 228.174,665.808 229.522,664.46 " />
<polyline points="233.567,652.998 234.242,653.672 234.916,652.998 234.242,652.324 233.567,652.998 " />
<polyline points="234.242,657.717 234.242,666.482 " />
<polyline points="240.309,652.324 240.309,663.785 240.984,665.808 242.332,666.482 243.681,666.482 " />
<polyline points="238.287,657.043 243.006,657.043 " />
<polyline points="246.377,657.043 250.423,666.482 " />
<polyline points="254.468,657.043 250.423,666.482 249.074,669.179 247.726,670.528 246.377,671.202 245.703,671.202 " />
<polyline points="259.862,665.808 259.187,666.482 258.513,665.808 259.187,665.134 259.862,665.808 259.862,667.156 259.187,668.505 258.513,669.179 " />
<polyline points="283.459,652.324 282.111,652.324 280.762,652.998 280.088,655.021 280.088,666.482 " />
<polyline points="278.065,657.043 282.785,657.043 " />
<polyline points="287.504,657.043 287.504,671.202 " />
<polyline points="287.504,659.066 288.853,657.717 290.201,657.043 292.224,657.043 293.572,657.717 294.921,659.066 295.595,661.089 295.595,662.437 294.921,664.46 293.572,665.808 292.224,666.482 290.201,666.482 288.853,665.808 287.504,664.46 " />
<polyline points="300.315,657.043 300.315,666.482 " />
<polyline points="300.315,659.74 302.337,657.717 303.686,657.043 305.708,657.043 307.057,657.717 307.731,659.74 307.731,666.482 " />
<polyline points="307.731,659.74 309.754,657.717 311.102,657.043 313.125,657.043 314.473,657.717 315.147,659.74 315.147,666.482 " />
<polyline points="265.802,725.644 265.802,725.24 266.207,724.431 266.611,724.026 267.42,723.622 269.038,723.622 269.847,724.026 270.252,724.431 270.656,725.24 270.656,726.049 270.252,726.858 269.443,728.071 265.398,732.117 271.061,732.117 " />
<polyline points="56.0315,688.601 56.0315,702.759 64.1221,702.759 " />
<polyline points="69.8008,703.096 75.7339,703.096 75.7339,702.107 75.2395,701.118 74.7451,700.624 73.7562,700.13 72.273,700.13 71.2841,700.624 70.2953,701.613 69.8008,703.096 69.8008,704.085 70.2953,705.568 71.2841,706.557 72.273,707.051 73.7562,707.051 74.7451,706.557 75.7339,705.568 " />
<polyline points="59.4026,724.878 54.0089,739.036 " />
<polyline points="59.4026,724.878 64.7963,739.036 " />
<polyline points="56.0315,734.317 62.7737,734.317 " />
<polyline points="71.2514,733.97 70.0378,734.374 69.2287,735.588 68.8242,737.61 68.8242,738.824 69.2287,740.846 70.0378,742.06 71.2514,742.465 72.0604,742.465 73.274,742.06 74.0831,740.846 74.4876,738.824 74.4876,737.61 74.0831,735.588 73.274,734.374 72.0604,733.97 71.2514,733.97 " />
<polyline points="89.2855,694.669 101.421,694.669 " />
<polyline points="89.2855,698.714 101.421,698.714 " />
<polyline points="120.299,697.366 128.39,697.366 128.39,696.017 127.716,694.669 127.041,693.995 125.693,693.32 123.67,693.32 122.322,693.995 120.974,695.343 120.299,697.366 120.299,698.714 120.974,700.737 122.322,702.085 123.67,702.759 125.693,702.759 127.041,702.085 128.39,700.737 " />
<polyline points="137.155,688.601 135.806,688.601 134.458,689.275 133.784,691.298 133.784,702.759 " />
<polyline points="131.761,693.32 136.48,693.32 " />
<polyline points="145.245,688.601 143.897,688.601 142.548,689.275 141.874,691.298 141.874,702.759 " />
<polyline points="139.852,693.32 144.571,693.32 " />
<polyline points="148.616,697.366 156.707,697.366 156.707,696.017 156.033,694.669 155.358,693.995 154.01,693.32 151.987,693.32 150.639,693.995 149.291,695.343 148.616,697.366 148.616,698.714 149.291,700.737 150.639,702.085 151.987,702.759 154.01,702.759 155.358,702.085 156.707,700.737 " />
<polyline points="168.843,695.343 167.494,693.995 166.146,693.32 164.123,693.32 162.775,693.995 161.426,695.343 160.752,697.366 160.752,698.714 161.426,700.737 162.775,702.085 164.123,702.759 166.146,702.759 167.494,702.085 168.843,700.737 " />
<polyline points="174.236,688.601 174.236,700.062 174.911,702.085 176.259,702.759 177.608,702.759 " />
<polyline points="172.214,693.32 176.933,693.32 " />
<polyline points="180.979,689.275 181.653,689.949 182.327,689.275 181.653,688.601 180.979,689.275 " />
<polyline points="181.653,693.995 181.653,702.759 " />
<polyline points="185.698,693.32 189.743,702.759 " />
<polyline points="193.789,693.32 189.743,702.759 " />
<polyline points="197.16,697.366 205.25,697.366 205.25,696.017 204.576,694.669 203.902,693.995 202.553,693.32 200.531,693.32 199.182,693.995 197.834,695.343 197.16,697.366 197.16,698.714 197.834,700.737 199.182,702.085 200.531,702.759 202.553,702.759 203.902,702.085 205.25,700.737 " />
<polyline points="231.545,688.601 231.545,702.759 " />
<polyline points="231.545,695.343 230.196,693.995 228.848,693.32 226.825,693.32 225.477,693.995 224.128,695.343 223.454,697.366 223.454,698.714 224.128,700.737 225.477,702.085 226.825,702.759 228.848,702.759 230.196,702.085 231.545,700.737 " />
<polyline points="236.938,693.32 236.938,700.062 237.613,702.085 238.961,702.759 240.984,702.759 242.332,702.085 244.355,700.062 " />
<polyline points="244.355,693.32 244.355,702.759 " />
<polyline points="257.165,695.343 255.816,693.995 254.468,693.32 252.445,693.32 251.097,693.995 249.748,695.343 249.074,697.366 249.074,698.714 249.748,700.737 251.097,702.085 252.445,702.759 254.468,702.759 255.816,702.085 257.165,700.737 " />
<polyline points="262.559,688.601 262.559,700.062 263.233,702.085 264.581,702.759 265.93,702.759 " />
<polyline points="260.536,693.32 265.255,693.32 " />
<polyline points="284.133,688.601 284.133,702.759 " />
<polyline points="288.853,697.366 296.943,697.366 296.943,696.017 296.269,694.669 295.595,693.995 294.247,693.32 292.224,693.32 290.876,693.995 289.527,695.343 288.853,697.366 288.853,698.714 289.527,700.737 290.876,702.085 292.224,702.759 294.247,702.759 295.595,702.085 296.943,700.737 " />
<polyline points="301.663,693.32 301.663,702.759 " />
<polyline points="301.663,696.017 303.686,693.995 305.034,693.32 307.057,693.32 308.405,693.995 309.079,696.017 309.079,702.759 " />
<polyline points="321.889,693.32 321.889,704.108 321.215,706.13 320.541,706.805 319.193,707.479 317.17,707.479 315.821,706.805 " />
<polyline points="321.889,695.343 320.541,693.995 319.193,693.32 317.17,693.32 315.821,693.995 314.473,695.343 313.799,697.366 313.799,698.714 314.473,700.737 315.821,702.085 317.17,702.759 319.193,702.759 320.541,702.085 321.889,700.737 " />
<polyline points="327.957,688.601 327.957,700.062 328.632,702.085 329.98,702.759 331.328,702.759 " />
<polyline points="325.935,693.32 330.654,693.32 " />
<polyline points="335.374,688.601 335.374,702.759 " />
<polyline points="335.374,696.017 337.396,693.995 338.745,693.32 340.767,693.32 342.116,693.995 342.79,696.017 342.79,702.759 " />
<polyline points="349.532,702.085 348.858,702.759 348.184,702.085 348.858,701.411 349.532,702.085 349.532,703.434 348.858,704.782 348.184,705.456 " />
<polyline points="373.13,688.601 371.781,688.601 370.433,689.275 369.759,691.298 369.759,702.759 " />
<polyline points="367.736,693.32 372.456,693.32 " />
<polyline points="377.849,688.601 377.849,700.062 378.523,702.085 379.872,702.759 381.22,702.759 " />
<polyline points="375.827,693.32 380.546,693.32 " />
<polyline points="89.2855,730.946 101.421,730.946 " />
<polyline points="89.2855,734.991 101.421,734.991 " />
<polyline points="128.39,724.878 128.39,739.036 " />
<polyline points="128.39,731.62 127.041,730.272 125.693,729.597 123.67,729.597 122.322,730.272 120.974,731.62 120.299,733.643 120.299,734.991 120.974,737.014 122.322,738.362 123.67,739.036 125.693,739.036 127.041,738.362 128.39,737.014 " />
<polyline points="133.784,729.597 133.784,736.339 134.458,738.362 135.806,739.036 137.829,739.036 139.177,738.362 141.2,736.339 " />
<polyline points="141.2,729.597 141.2,739.036 " />
<polyline points="154.01,731.62 152.662,730.272 151.313,729.597 149.291,729.597 147.942,730.272 146.594,731.62 145.919,733.643 145.919,734.991 146.594,737.014 147.942,738.362 149.291,739.036 151.313,739.036 152.662,738.362 154.01,737.014 " />
<polyline points="159.404,724.878 159.404,736.339 160.078,738.362 161.426,739.036 162.775,739.036 " />
<polyline points="157.381,729.597 162.101,729.597 " />
<polyline points="188.395,729.597 188.395,739.036 " />
<polyline points="188.395,731.62 187.047,730.272 185.698,729.597 183.675,729.597 182.327,730.272 180.979,731.62 180.304,733.643 180.304,734.991 180.979,737.014 182.327,738.362 183.675,739.036 185.698,739.036 187.047,738.362 188.395,737.014 " />
<polyline points="193.789,729.597 193.789,739.036 " />
<polyline points="193.789,733.643 194.463,731.62 195.811,730.272 197.16,729.597 199.182,729.597 " />
<polyline points="201.879,733.643 209.97,733.643 209.97,732.294 209.296,730.946 208.621,730.272 207.273,729.597 205.25,729.597 203.902,730.272 202.553,731.62 201.879,733.643 201.879,734.991 202.553,737.014 203.902,738.362 205.25,739.036 207.273,739.036 208.621,738.362 209.97,737.014 " />
<polyline points="222.106,729.597 222.106,739.036 " />
<polyline points="222.106,731.62 220.757,730.272 219.409,729.597 217.386,729.597 216.038,730.272 214.689,731.62 214.015,733.643 214.015,734.991 214.689,737.014 216.038,738.362 217.386,739.036 219.409,739.036 220.757,738.362 222.106,737.014 " />
<polyline points="228.848,738.362 228.174,739.036 227.499,738.362 228.174,737.688 228.848,738.362 228.848,739.711 228.174,741.059 227.499,741.733 " />
<polyline points="247.726,725.552 248.4,726.226 249.074,725.552 248.4,724.878 247.726,725.552 " />
<polyline points="248.4,730.272 248.4,739.036 " />
<polyline points="253.794,729.597 253.794,739.036 " />
<polyline points="253.794,732.294 255.816,730.272 257.165,729.597 259.187,729.597 260.536,730.272 261.21,732.294 261.21,739.036 " />
</g>
<g clip-path="url(#clipId0)" fill="rgb(0,0,0)" stroke="rgb(0,0,0)" stroke-width="0.25" >
<path d="M798.403,199.484 793.683,199.484 796.043,213.642 796.043,213.642 z" />
<path d="M777.136,199.484 772.417,199.484 774.777,213.642 774.777,213.642 z" />
<path d="M807.81,233.121 804.508,229.749 796.043,241.341 796.043,241.341 z" />
</g>
<g clip-path="url(#clipId0)" fill="none" stroke="rgb(0,0,0)" stroke-width="0.25" >
<polyline points="806.159,231.435 823.749,214.21 " />
<polyline points="823.749,214.21 847.346,214.21 " />
<polyline points="858.538,207.131 858.538,221.289 " />
<polyline points="867.977,207.131 867.977,221.289 " />
<polyline points="858.538,213.873 867.977,213.873 " />
<polyline points="886.855,211.85 894.272,221.289 " />
<polyline points="894.272,211.85 886.855,221.289 " />
<polyline points="911.801,207.131 915.172,221.289 " />
<polyline points="918.544,207.131 915.172,221.289 " />
<polyline points="918.544,207.131 921.915,221.289 " />
<polyline points="925.286,207.131 921.915,221.289 " />
<polyline points="774.777,151.777 774.777,93.6383 " />
<polyline points="796.043,178.843 796.043,145.898 " />
<polyline points="927.826,739.039 925.849,737.061 922.882,736.073 918.927,736.073 915.96,737.061 913.983,739.039 913.983,741.017 914.971,742.994 915.96,743.983 917.938,744.972 923.871,746.95 925.849,747.939 926.838,748.928 927.826,750.905 927.826,753.872 925.849,755.85 922.882,756.838 918.927,756.838 915.96,755.85 913.983,753.872 " />
<polyline points="934.748,736.073 934.748,756.838 " />
<polyline points="934.748,736.073 943.648,736.073 946.615,737.061 947.603,738.05 948.592,740.028 948.592,742.006 947.603,743.983 946.615,744.972 943.648,745.961 934.748,745.961 " />
<polyline points="941.67,745.961 948.592,756.838 " />
<polyline points="968.369,736.073 958.481,756.838 " />
<polyline points="954.525,736.073 968.369,736.073 " />
<polyline points="975.291,747.939 993.09,747.939 " />
<polyline points="1004.96,736.073 1001.99,737.061 1001,739.039 1001,741.017 1001.99,742.994 1003.97,743.983 1007.92,744.972 1010.89,745.961 1012.87,747.939 1013.86,749.916 1013.86,752.883 1012.87,754.861 1011.88,755.85 1008.91,756.838 1004.96,756.838 1001.99,755.85 1001,754.861 1000.01,752.883 1000.01,749.916 1001,747.939 1002.98,745.961 1005.95,744.972 1009.9,743.983 1011.88,742.994 1012.87,741.017 1012.87,739.039 1011.88,737.061 1008.91,736.073 1004.96,736.073 " />
</g>
</svg>
