<?xml version="1.0" standalone="no"?>
<svg viewBox="0 0 1024 768" version="1.1" xmlns="http://www.w3.org/2000/svg" xmlns:xlink="http://www.w3.org/1999/xlink" stroke-linecap="round" stroke-linejoin="round" fill-rule="evenodd" xml:space="preserve" >
<defs >
<clipPath id="clipId0" >
<path d="M0,768 1024,768 1024,0 0,0 z" />
</clipPath>
</defs>
<g clip-path="url(#clipId0)" fill="none" stroke="rgb(0,0,0)" stroke-width="0.1" />
<g clip-path="url(#clipId0)" fill="none" stroke="rgb(0,0,0)" stroke-width="0.25" >
<polyline points="480.389,172.181 480.389,78.5697 " />
<polyline points="480.389,78.5697 399.319,31.7639 " />
<polyline points="399.319,31.7639 399.319,125.376 " />
<polyline points="399.319,125.376 480.389,172.181 " />
<polyline points="520.924,78.5697 601.994,31.7639 " />
<polyline points="601.994,31.7639 601.994,125.376 " />
<polyline points="601.994,125.376 520.924,172.181 " />
<polyline points="520.924,172.181 520.924,78.5697 " />
<polyline points="500.656,7.52941 497.43,7.55045 494.204,7.61356 490.979,7.71873 487.756,7.86594 484.535,8.05518 481.317,8.28639 478.102,8.55956 474.891,8.87462 471.685,9.23153 468.483,9.63023 465.287,10.0706 462.097,10.5527 458.913,11.0763 455.736,11.6414 452.568,12.2479 449.407,12.8956 446.255,13.5845 443.112,14.3145 443.112,14.3145 440.561,14.9462 438.02,15.6188 435.491,16.3321 432.973,17.0859 430.468,17.88 427.976,18.7142 425.497,19.5883 423.033,20.502 420.584,21.4552 418.151,22.4475 415.733,23.4788 413.333,24.5487 410.95,25.657 408.585,26.8034 406.239,27.9876 403.912,29.2093 401.605,30.4682 399.319,31.7639 " />
<polyline points="601.994,31.7639 599.707,30.4682 597.4,29.2093 595.073,27.9876 592.727,26.8034 590.362,25.657 587.979,24.5487 585.579,23.4788 583.162,22.4475 580.728,21.4552 578.279,20.502 575.815,19.5883 573.336,18.7142 570.844,17.88 568.339,17.0859 565.821,16.3321 563.292,15.6188 560.751,14.9462 558.2,14.3145 558.2,14.3145 555.058,13.5845 551.905,12.8956 548.745,12.2479 545.576,11.6414 542.399,11.0763 539.216,10.5527 536.025,10.0706 532.829,9.63023 529.628,9.23153 526.421,8.87462 523.21,8.55956 519.995,8.28639 516.777,8.05518 513.556,7.86594 510.333,7.71873 507.108,7.61356 503.883,7.55045 500.656,7.52941 " />
<polyline points="500.656,73.7228 499.204,73.7441 497.754,73.808 496.306,73.9144 494.862,74.0632 493.423,74.2544 491.99,74.4877 490.564,74.7629 489.147,75.0798 489.147,75.0798 488.002,75.3756 486.869,75.7125 485.748,76.0901 484.642,76.508 483.551,76.9655 482.478,77.462 481.423,77.997 480.389,78.5697 " />
<polyline points="520.924,78.5697 519.889,77.997 518.834,77.462 517.761,76.9655 516.671,76.508 515.564,76.0901 514.444,75.7125 513.31,75.3756 512.165,75.0798 512.165,75.0798 510.748,74.7629 509.323,74.4877 507.89,74.2544 506.45,74.0632 505.006,73.9144 503.558,73.808 502.108,73.7441 500.656,73.7228 " />
<polyline points="520.924,172.181 519.889,171.609 518.834,171.074 517.761,170.577 516.671,170.12 515.564,169.702 514.444,169.324 513.31,168.987 512.165,168.691 512.165,168.691 510.748,168.375 509.323,168.099 507.89,167.866 506.45,167.675 505.006,167.526 503.558,167.42 502.108,167.356 500.656,167.334 " />
<polyline points="500.656,167.334 499.204,167.356 497.754,167.42 496.306,167.526 494.862,167.675 493.423,167.866 491.99,168.099 490.564,168.375 489.147,168.691 489.147,168.691 488.002,168.987 486.869,169.324 485.748,169.702 484.642,170.12 483.551,170.577 482.478,171.074 481.423,171.609 480.389,172.181 " />
<polyline points="480.389,101.973 477.252,102.25 474.119,102.568 470.991,102.926 467.867,103.323 464.749,103.761 461.637,104.237 458.53,104.754 455.431,105.31 452.339,105.905 449.255,106.539 446.179,107.213 443.112,107.926 443.112,107.926 440.561,108.558 438.02,109.23 435.491,109.944 432.973,110.698 430.468,111.492 427.976,112.326 425.497,113.2 423.033,114.114 420.584,115.067 418.151,116.059 415.733,117.09 413.333,118.16 410.95,119.269 408.585,120.415 406.239,121.599 403.912,122.821 401.605,124.08 399.319,125.376 " />
<polyline points="601.994,125.376 599.707,124.08 597.4,122.821 595.073,121.599 592.727,120.415 590.362,119.269 587.979,118.16 585.579,117.09 583.162,116.059 580.728,115.067 578.279,114.114 575.815,113.2 573.336,112.326 570.844,111.492 568.339,110.698 565.821,109.944 563.292,109.23 560.751,108.558 558.2,107.926 558.2,107.926 555.133,107.213 552.057,106.539 548.973,105.905 545.881,105.31 542.782,104.754 539.676,104.237 536.563,103.761 533.445,103.323 530.321,102.926 527.193,102.568 524.06,102.25 520.924,101.973 " />
<polyline points="480.389,78.5697 303.096,180.93 " stroke-dasharray="23.402906,11.701453" />
<polyline points="399.319,31.7639 222.026,134.124 " stroke-dasharray="23.402906,11.701453" />
<polyline points="480.389,172.181 303.096,274.541 " stroke-dasharray="23.402906,11.701453" />
<polyline points="172.348,316.932 171.397,318.618 170.478,320.322 169.594,322.044 168.743,323.783 167.926,325.538 167.144,327.308 166.396,329.094 165.684,330.894 165.006,332.708 164.365,334.534 163.759,336.373 163.19,338.223 163.19,338.223 162.759,339.74 162.364,341.266 162.007,342.802 161.687,344.346 161.403,345.897 161.158,347.455 160.95,349.018 160.779,350.585 160.646,352.157 160.552,353.731 160.495,355.306 160.476,356.883 160.476,356.883 160.495,358.152 160.553,359.42 160.649,360.686 160.784,361.948 160.956,363.205 161.167,364.457 161.416,365.702 161.702,366.938 162.026,368.166 162.387,369.382 162.785,370.588 163.219,371.781 163.689,372.96 164.194,374.124 164.194,374.124 164.575,374.919 164.992,375.696 165.442,376.454 165.925,377.191 166.441,377.906 166.988,378.598 167.565,379.264 168.172,379.904 168.806,380.517 169.466,381.1 170.152,381.654 170.862,382.177 171.595,382.668 172.348,383.125 172.348,383.125 173.121,383.549 173.912,383.938 174.72,384.291 175.543,384.609 176.379,384.889 177.226,385.132 178.084,385.337 178.949,385.503 179.822,385.632 180.699,385.721 181.579,385.771 182.46,385.782 183.342,385.753 184.221,385.686 184.221,385.686 185.482,385.542 186.738,385.359 187.988,385.139 189.23,384.88 190.465,384.585 191.689,384.251 192.904,383.881 194.106,383.474 195.295,383.031 196.471,382.552 197.631,382.037 198.775,381.488 199.902,380.904 201.011,380.286 201.011,380.286 202.367,379.481 203.703,378.644 205.019,377.775 206.313,376.874 207.585,375.943 208.835,374.981 210.061,373.99 211.263,372.969 212.44,371.919 213.591,370.842 214.716,369.737 215.814,368.605 215.814,368.605 217.132,367.187 218.421,365.743 219.682,364.275 220.914,362.781 222.117,361.264 223.289,359.724 224.432,358.161 225.543,356.576 226.624,354.97 227.672,353.343 228.689,351.696 229.673,350.029 229.673,350.029 230.625,348.343 231.543,346.639 232.428,344.917 233.279,343.178 234.096,341.423 234.878,339.652 235.625,337.867 236.338,336.067 237.015,334.253 237.657,332.427 238.262,330.588 238.832,328.738 238.832,328.738 239.263,327.221 239.657,325.694 240.014,324.158 240.335,322.614 240.618,321.063 240.864,319.506 241.072,317.943 241.242,316.375 241.375,314.804 241.47,313.23 241.527,311.654 241.546,310.077 241.546,310.077 241.526,308.808 241.469,307.54 241.373,306.275 241.238,305.013 241.065,303.755 240.854,302.503 240.606,301.259 240.319,300.022 239.995,298.795 239.634,297.578 239.237,296.373 238.803,295.18 238.333,294.001 237.827,292.837 237.827,292.837 237.446,292.042 237.03,291.264 236.58,290.506 236.096,289.769 235.58,289.054 235.033,288.363 234.456,287.696 233.85,287.056 233.216,286.444 232.555,285.86 231.869,285.306 231.159,284.784 230.427,284.293 229.673,283.835 229.673,283.835 228.9,283.411 228.109,283.023 227.301,282.669 226.479,282.352 225.643,282.072 224.795,281.829 223.938,281.624 223.072,281.457 222.2,281.329 221.323,281.24 220.443,281.19 219.561,281.179 218.68,281.207 217.801,281.274 217.801,281.274 216.54,281.419 215.284,281.601 214.034,281.822 212.791,282.08 211.557,282.376 210.332,282.709 209.118,283.079 207.916,283.486 206.726,283.93 205.551,284.409 204.391,284.923 203.246,285.473 202.119,286.057 201.011,286.674 201.011,286.674 199.655,287.479 198.319,288.316 197.003,289.186 195.708,290.086 194.436,291.018 193.187,291.979 191.961,292.971 190.759,293.992 189.582,295.041 188.431,296.119 187.305,297.223 186.207,298.355 186.207,298.355 184.89,299.773 183.6,301.217 182.339,302.686 181.107,304.179 179.905,305.696 178.732,307.236 177.59,308.799 176.478,310.384 175.398,311.99 174.349,313.618 173.332,315.265 172.348,316.932 " />
<polyline points="143.686,432.77 62.6155,385.965 " />
<polyline points="62.6155,253.578 61.1821,256.103 59.7859,258.649 58.4272,261.215 57.1063,263.801 55.8235,266.406 54.579,269.03 53.3732,271.672 52.2062,274.331 51.0784,277.006 49.99,279.698 48.9411,282.406 47.9321,285.129 46.9632,287.866 46.0345,290.618 45.1463,293.382 44.2987,296.16 44.2987,296.16 43.6454,298.433 43.0333,300.717 42.4625,303.013 41.9332,305.318 41.4457,307.633 41,309.955 40.5963,312.286 40.2348,314.624 39.9155,316.967 39.6385,319.316 39.4041,321.67 39.2121,324.027 39.0628,326.388 38.956,328.751 38.892,331.115 38.8706,333.48 38.8706,333.48 38.8916,335.351 38.9543,337.22 39.0588,339.088 39.2051,340.953 39.393,342.814 39.6224,344.67 39.8934,346.521 40.2056,348.365 40.559,350.202 40.9534,352.031 41.3885,353.85 41.8643,355.659 42.3803,357.457 42.9365,359.243 43.5324,361.016 44.1678,362.775 44.8424,364.52 45.5559,366.249 46.3078,367.962 46.3078,367.962 46.8627,369.136 47.4557,370.292 48.0863,371.428 48.7538,372.543 49.4574,373.636 50.1963,374.704 50.9699,375.748 51.7773,376.766 52.6176,377.757 53.4898,378.72 54.3932,379.654 55.3266,380.558 56.2891,381.43 57.2797,382.271 58.2973,383.079 59.3409,383.853 60.4092,384.592 61.5011,385.297 62.6155,385.965 " />
<polyline points="119.941,193.063 117.903,194.264 115.887,195.502 113.895,196.775 111.925,198.085 109.979,199.43 108.058,200.81 106.162,202.224 104.292,203.673 102.449,205.154 100.632,206.669 98.8435,208.217 97.0829,209.796 95.351,211.407 93.6486,213.049 91.9761,214.722 90.334,216.424 90.334,216.424 88.3525,218.547 86.4024,220.698 84.4841,222.878 82.598,225.086 80.7444,227.321 78.9239,229.583 77.1367,231.872 75.3833,234.187 73.6641,236.527 71.9793,238.892 70.3295,241.281 68.7149,243.695 67.1358,246.132 65.5927,248.592 64.0858,251.074 62.6155,253.578 " />
<polyline points="143.686,300.384 142.252,302.909 140.856,305.455 139.497,308.021 138.176,310.607 136.894,313.212 135.649,315.836 134.443,318.477 133.276,321.136 132.148,323.812 131.06,326.504 130.011,329.212 129.002,331.935 128.033,334.672 127.105,337.423 126.216,340.188 125.369,342.965 125.369,342.965 124.715,345.239 124.103,347.523 123.533,349.819 123.003,352.124 122.516,354.438 122.07,356.761 121.666,359.092 121.305,361.429 120.986,363.773 120.709,366.122 120.474,368.476 120.282,370.833 120.133,373.194 120.026,375.556 119.962,377.921 119.941,380.286 119.941,380.286 119.962,382.156 120.024,384.026 120.129,385.894 120.275,387.758 120.463,389.619 120.692,391.476 120.963,393.327 121.276,395.171 121.629,397.008 122.023,398.836 122.459,400.656 122.934,402.465 123.45,404.263 124.007,406.049 124.602,407.822 125.238,409.581 125.912,411.326 126.626,413.055 127.378,414.767 127.378,414.767 127.933,415.942 128.526,417.098 129.156,418.234 129.824,419.349 130.527,420.441 131.266,421.51 132.04,422.554 132.847,423.572 133.688,424.563 134.56,425.526 135.463,426.46 136.397,427.363 137.359,428.236 138.35,429.077 139.367,429.885 140.411,430.659 141.479,431.398 142.571,432.102 143.686,432.77 143.686,432.77 144.821,433.402 145.977,433.995 147.152,434.551 148.344,435.067 149.552,435.545 150.776,435.982 152.013,436.379 153.262,436.736 154.522,437.051 155.792,437.325 157.071,437.557 158.356,437.747 159.647,437.895 160.942,438.001 162.24,438.064 163.539,438.085 164.838,438.063 166.136,437.999 167.43,437.892 167.43,437.892 169.29,437.687 171.144,437.44 172.992,437.152 174.833,436.822 176.667,436.452 178.492,436.041 180.307,435.589 182.111,435.096 183.904,434.563 185.685,433.991 187.453,433.378 189.206,432.727 190.944,432.036 192.667,431.306 194.372,430.538 196.06,429.733 197.73,428.889 199.38,428.009 201.011,427.092 201.011,427.092 203.048,425.891 205.064,424.653 207.057,423.379 209.027,422.07 210.972,420.725 212.893,419.345 214.789,417.93 216.659,416.482 218.503,415 220.319,413.485 222.108,411.938 223.869,410.359 225.6,408.748 227.303,407.106 228.975,405.433 230.617,403.731 230.617,403.731 232.599,401.608 234.549,399.456 236.467,397.277 238.353,395.069 240.207,392.834 242.028,390.571 243.815,388.283 245.568,385.968 247.287,383.628 248.972,381.263 250.622,378.873 252.237,376.46 253.816,374.023 255.359,371.563 256.866,369.081 258.336,366.577 258.336,366.577 259.769,364.052 261.166,361.506 262.524,358.939 263.845,356.353 265.128,353.748 266.372,351.125 267.578,348.483 268.745,345.824 269.873,343.148 270.961,340.456 272.01,337.749 273.019,335.026 273.988,332.288 274.917,329.537 275.805,326.773 276.653,323.995 276.653,323.995 277.306,321.722 277.918,319.437 278.489,317.142 279.018,314.837 279.506,312.522 279.951,310.199 280.355,307.869 280.717,305.531 281.036,303.188 281.313,300.839 281.547,298.485 281.739,296.127 281.889,293.767 281.995,291.404 282.059,289.04 282.081,286.674 " />
<polyline points="201.011,239.869 198.973,241.07 196.957,242.307 194.965,243.581 192.995,244.891 191.049,246.236 189.128,247.616 187.232,249.03 185.362,250.478 183.519,251.96 181.702,253.475 179.914,255.023 178.153,256.602 176.421,258.213 174.719,259.855 173.046,261.527 171.404,263.23 171.404,263.23 169.423,265.353 167.472,267.504 165.554,269.684 163.668,271.892 161.814,274.127 159.994,276.389 158.207,278.678 156.453,280.992 154.734,283.333 153.049,285.698 151.4,288.087 149.785,290.501 148.206,292.938 146.663,295.397 145.156,297.88 143.686,300.384 " />
<polyline points="303.096,274.541 303.096,180.93 " />
<polyline points="303.096,180.93 222.026,134.124 " />
<polyline points="303.096,274.541 282.081,286.674 " />
<polyline points="303.096,180.93 201.011,239.869 " />
<polyline points="222.026,134.124 119.941,193.063 " />
</g>
<g clip-path="url(#clipId0)" fill="rgb(0,0,0)" stroke="rgb(0,0,0)" stroke-width="0.25" >
<path d="M212.05,344.715 214.369,340.649 201.011,335.728 201.011,335.728 z" />
</g>
<g clip-path="url(#clipId0)" fill="none" stroke="rgb(0,0,0)" stroke-width="0.25" >
<polyline points="213.21,342.682 296.613,390.228 " />
<polyline points="296.613,390.228 310.655,390.228 " />
<polyline points="327.371,383.207 327.371,397.249 " />
<polyline points="332.72,383.207 332.72,397.249 " />
<polyline points="332.72,383.207 342.082,397.249 " />
<polyline points="342.082,383.207 342.082,397.249 " />
<polyline points="347.431,383.207 347.431,397.249 355.455,397.249 " />
<polyline points="358.798,383.207 358.798,397.249 " />
<polyline points="358.798,383.207 367.49,383.207 " />
<polyline points="358.798,389.894 364.147,389.894 " />
<polyline points="358.798,397.249 367.49,397.249 " />
<polyline points="374.177,383.207 374.177,397.249 " />
<polyline points="369.496,383.207 378.858,383.207 " />
<polyline points="58.0653,465.801 56.728,464.464 54.722,463.795 52.0474,463.795 50.0415,464.464 48.7042,465.801 48.7042,467.138 49.3728,468.476 50.0415,469.144 51.3788,469.813 55.3907,471.15 56.728,471.819 57.3967,472.487 58.0653,473.825 58.0653,475.831 56.728,477.168 54.722,477.837 52.0474,477.837 50.0415,477.168 48.7042,475.831 " />
<polyline points="61.4086,463.795 64.7519,477.837 " />
<polyline points="68.0951,463.795 64.7519,477.837 " />
<polyline points="68.0951,463.795 71.4384,477.837 " />
<polyline points="74.7817,463.795 71.4384,477.837 " />
<polyline points="87.4861,465.801 86.1488,464.464 84.1428,463.795 81.4682,463.795 79.4623,464.464 78.1249,465.801 78.1249,467.138 78.7936,468.476 79.4623,469.144 80.7996,469.813 84.8115,471.15 86.1488,471.819 86.8175,472.487 87.4861,473.825 87.4861,475.831 86.1488,477.168 84.1428,477.837 81.4682,477.837 79.4623,477.168 78.1249,475.831 " />
<polyline points="92.1667,463.795 92.1667,477.837 " />
<polyline points="120.919,467.138 120.25,465.801 118.913,464.464 117.576,463.795 114.901,463.795 113.564,464.464 112.226,465.801 111.558,467.138 110.889,469.144 110.889,472.487 111.558,474.493 112.226,475.831 113.564,477.168 114.901,477.837 117.576,477.837 118.913,477.168 120.25,475.831 120.919,474.493 " />
<polyline points="125.599,463.795 125.599,477.837 " />
<polyline points="125.599,463.795 134.292,463.795 " />
<polyline points="125.599,470.482 130.949,470.482 " />
<polyline points="125.599,477.837 134.292,477.837 " />
<polyline points="138.304,463.795 138.304,477.837 " />
<polyline points="138.304,463.795 147.665,477.837 " />
<polyline points="147.665,463.795 147.665,477.837 " />
<polyline points="155.689,463.795 155.689,477.837 " />
<polyline points="151.008,463.795 160.369,463.795 " />
<polyline points="163.713,463.795 163.713,477.837 " />
<polyline points="163.713,463.795 169.731,463.795 171.737,464.464 172.405,465.132 173.074,466.47 173.074,467.807 172.405,469.144 171.737,469.813 169.731,470.482 163.713,470.482 " />
<polyline points="168.393,470.482 173.074,477.837 " />
<polyline points="177.754,463.795 177.754,477.837 " />
<polyline points="183.104,463.795 183.104,477.837 " />
<polyline points="183.104,463.795 191.796,463.795 " />
<polyline points="183.104,470.482 188.453,470.482 " />
<polyline points="195.139,463.795 195.139,473.825 195.808,475.831 197.145,477.168 199.151,477.837 200.489,477.837 202.495,477.168 203.832,475.831 204.501,473.825 204.501,463.795 " />
<polyline points="219.211,467.138 218.542,465.801 217.205,464.464 215.868,463.795 213.193,463.795 211.856,464.464 210.519,465.801 209.85,467.138 209.181,469.144 209.181,472.487 209.85,474.493 210.519,475.831 211.856,477.168 213.193,477.837 215.868,477.837 217.205,477.168 218.542,475.831 219.211,474.493 219.211,472.487 " />
<polyline points="215.868,472.487 219.211,472.487 " />
<polyline points="227.235,463.795 221.886,477.837 " />
<polyline points="227.235,463.795 232.584,477.837 " />
<polyline points="223.892,473.156 230.578,473.156 " />
<polyline points="235.927,463.795 235.927,477.837 243.951,477.837 " />
<polyline points="261.336,463.795 261.336,477.837 " />
<polyline points="261.336,463.795 270.029,463.795 " />
<polyline points="261.336,470.482 266.686,470.482 " />
<polyline points="276.715,463.795 271.366,477.837 " />
<polyline points="276.715,463.795 282.065,477.837 " />
<polyline points="273.372,473.156 280.059,473.156 " />
<polyline points="285.408,463.795 285.408,477.837 " />
<polyline points="285.408,463.795 294.769,477.837 " />
<polyline points="294.769,463.795 294.769,477.837 " />
<polyline points="315.218,220.648 377.33,184.237 " />
</g>
<g clip-path="url(#clipId0)" fill="rgb(0,0,0)" stroke="rgb(0,0,0)" stroke-width="0.25" >
<path d="M316.399,222.668 314.037,218.628 303.096,227.736 303.096,227.736 z" />
</g>
<g clip-path="url(#clipId0)" fill="none" stroke="rgb(0,0,0)" stroke-width="0.25" >
<polyline points="468.267,132.463 408.2,167.693 " />
</g>
<g clip-path="url(#clipId0)" fill="rgb(0,0,0)" stroke="rgb(0,0,0)" stroke-width="0.25" >
<path d="M467.086,130.443 469.448,134.483 480.389,125.376 480.389,125.376 z" />
</g>
<g clip-path="url(#clipId0)" fill="none" stroke="rgb(0,0,0)" stroke-width="0.25" >
<polyline points="388.753,168.944 388.753,182.986 396.777,182.986 " />
<polyline points="641.858,104.687 640.521,105.356 639.183,106.693 638.515,108.03 637.846,110.036 637.846,113.38 638.515,115.386 639.183,116.723 640.521,118.06 641.858,118.729 644.533,118.729 645.87,118.06 647.207,116.723 647.876,115.386 648.545,113.38 648.545,110.036 647.876,108.03 647.207,106.693 645.87,105.356 644.533,104.687 641.858,104.687 " />
<polyline points="643.864,116.054 647.876,120.066 " />
<polyline points="300.711,107.955 304.055,121.997 " />
<polyline points="307.398,107.955 304.055,121.997 " />
<polyline points="307.398,107.955 310.741,121.997 " />
<polyline points="314.085,107.955 310.741,121.997 " />
<polyline points="331.47,112.635 338.825,121.997 " />
<polyline points="338.825,112.635 331.47,121.997 " />
<polyline points="357.547,107.955 357.547,121.997 " />
<polyline points="366.908,107.955 366.908,121.997 " />
<polyline points="357.547,114.641 366.908,114.641 " />
<polyline points="980.664,227.56 979.46,227.961 978.658,229.165 978.257,231.17 978.257,232.374 978.658,234.38 979.46,235.584 980.664,235.985 981.466,235.985 982.67,235.584 983.472,234.38 983.874,232.374 983.874,231.17 983.472,229.165 982.67,227.961 981.466,227.56 980.664,227.56 " />
<polyline points="943.216,185.89 943.216,194.315 " />
<polyline points="943.216,189.902 944.018,189.099 944.821,188.698 946.024,188.698 946.827,189.099 947.629,189.902 948.03,191.105 948.03,191.908 947.629,193.111 946.827,193.914 946.024,194.315 944.821,194.315 944.018,193.914 943.216,193.111 " />
<polyline points="844.569,408.487 843.9,407.149 842.563,405.812 841.225,405.143 838.551,405.143 837.213,405.812 835.876,407.149 835.207,408.487 834.539,410.493 834.539,413.836 835.207,415.842 835.876,417.179 837.213,418.517 838.551,419.185 841.225,419.185 842.563,418.517 843.9,417.179 844.569,415.842 " />
<polyline points="849.249,405.143 849.249,415.173 849.918,417.179 851.255,418.517 853.261,419.185 854.598,419.185 856.604,418.517 857.942,417.179 858.61,415.173 858.61,405.143 " />
<polyline points="866.634,405.143 866.634,419.185 " />
<polyline points="861.954,405.143 871.315,405.143 " />
<polyline points="878.001,405.143 876.664,405.812 875.327,407.149 874.658,408.487 873.989,410.493 873.989,413.836 874.658,415.842 875.327,417.179 876.664,418.517 878.001,419.185 880.676,419.185 882.013,418.517 883.351,417.179 884.019,415.842 884.688,413.836 884.688,410.493 884.019,408.487 883.351,407.149 882.013,405.812 880.676,405.143 878.001,405.143 " />
<polyline points="889.368,405.143 889.368,419.185 " />
<polyline points="889.368,405.143 898.061,405.143 " />
<polyline points="889.368,411.83 894.718,411.83 " />
<polyline points="901.404,405.143 901.404,419.185 " />
<polyline points="901.404,405.143 910.097,405.143 " />
<polyline points="901.404,411.83 906.753,411.83 " />
<polyline points="782.106,172.746 782.106,186.787 " />
<polyline points="782.106,172.746 788.124,172.746 790.13,173.414 790.799,174.083 791.468,175.42 791.468,176.758 790.799,178.095 790.13,178.763 788.124,179.432 " />
<polyline points="782.106,179.432 788.124,179.432 790.13,180.101 790.799,180.769 791.468,182.107 791.468,184.113 790.799,185.45 790.13,186.119 788.124,186.787 782.106,186.787 " />
<polyline points="796.148,172.746 796.148,186.787 804.172,186.787 " />
<polyline points="810.859,172.746 805.509,186.787 " />
<polyline points="810.859,172.746 816.208,186.787 " />
<polyline points="807.515,182.107 814.202,182.107 " />
<polyline points="828.244,174.752 826.906,173.414 824.9,172.746 822.226,172.746 820.22,173.414 818.882,174.752 818.882,176.089 819.551,177.426 820.22,178.095 821.557,178.763 825.569,180.101 826.906,180.769 827.575,181.438 828.244,182.775 828.244,184.781 826.906,186.119 824.9,186.787 822.226,186.787 820.22,186.119 818.882,184.781 " />
<polyline points="835.599,172.746 835.599,186.787 " />
<polyline points="830.918,172.746 840.279,172.746 " />
<polyline points="861.008,172.746 855.658,186.787 " />
<polyline points="861.008,172.746 866.357,186.787 " />
<polyline points="857.664,182.107 864.351,182.107 " />
<polyline points="869.7,172.746 869.7,186.787 " />
<polyline points="869.7,172.746 875.718,172.746 877.724,173.414 878.393,174.083 879.061,175.42 879.061,176.758 878.393,178.095 877.724,178.763 875.718,179.432 869.7,179.432 " />
<polyline points="874.381,179.432 879.061,186.787 " />
<polyline points="883.742,172.746 883.742,186.787 " />
<polyline points="883.742,172.746 892.434,172.746 " />
<polyline points="883.742,179.432 889.091,179.432 " />
<polyline points="883.742,186.787 892.434,186.787 " />
<polyline points="899.79,172.746 894.44,186.787 " />
<polyline points="899.79,172.746 905.139,186.787 " />
<polyline points="896.446,182.107 903.133,182.107 " />
<polyline points="909.819,186.119 909.151,186.787 908.482,186.119 909.151,185.45 909.819,186.119 909.819,187.456 909.151,188.793 908.482,189.462 " />
<polyline points="932.554,172.746 927.204,186.787 " />
<polyline points="932.554,172.746 937.903,186.787 " />
<polyline points="929.21,182.107 935.897,182.107 " />
<polyline points="806.027,213.437 804.69,214.105 803.352,215.443 802.684,216.78 802.015,218.786 802.015,222.129 802.684,224.135 803.352,225.472 804.69,226.81 806.027,227.478 808.702,227.478 810.039,226.81 811.376,225.472 812.045,224.135 812.714,222.129 812.714,218.786 812.045,216.78 811.376,215.443 810.039,214.105 808.702,213.437 806.027,213.437 " />
<polyline points="817.394,213.437 817.394,223.466 818.063,225.472 819.4,226.81 821.406,227.478 822.743,227.478 824.749,226.81 826.087,225.472 826.755,223.466 826.755,213.437 " />
<polyline points="834.779,213.437 834.779,227.478 " />
<polyline points="830.099,213.437 839.46,213.437 " />
<polyline points="842.803,213.437 842.803,227.478 850.827,227.478 " />
<polyline points="854.17,213.437 854.17,227.478 " />
<polyline points="854.17,213.437 862.863,213.437 " />
<polyline points="854.17,220.123 859.519,220.123 " />
<polyline points="854.17,227.478 862.863,227.478 " />
<polyline points="869.549,213.437 869.549,227.478 " />
<polyline points="864.869,213.437 874.23,213.437 " />
<polyline points="894.958,213.437 889.609,227.478 " />
<polyline points="894.958,213.437 900.307,227.478 " />
<polyline points="891.615,222.798 898.301,222.798 " />
<polyline points="903.651,213.437 903.651,227.478 " />
<polyline points="903.651,213.437 909.668,213.437 911.674,214.105 912.343,214.774 913.012,216.111 913.012,217.449 912.343,218.786 911.674,219.455 909.668,220.123 903.651,220.123 " />
<polyline points="908.331,220.123 913.012,227.478 " />
<polyline points="917.692,213.437 917.692,227.478 " />
<polyline points="917.692,213.437 926.385,213.437 " />
<polyline points="917.692,220.123 923.041,220.123 " />
<polyline points="917.692,227.478 926.385,227.478 " />
<polyline points="933.74,213.437 928.391,227.478 " />
<polyline points="933.74,213.437 939.089,227.478 " />
<polyline points="930.397,222.798 937.083,222.798 " />
<polyline points="943.77,226.81 943.101,227.478 942.432,226.81 943.101,226.141 943.77,226.81 943.77,228.147 943.101,229.484 942.432,230.153 " />
<polyline points="966.504,213.437 961.155,227.478 " />
<polyline points="966.504,213.437 971.853,227.478 " />
<polyline points="963.161,222.798 969.847,222.798 " />
<polyline points="799.938,407.681 822.946,407.681 " />
<polyline points="742.262,350.463 799.938,407.681 " />
</g>
<g clip-path="url(#clipId0)" fill="rgb(0,0,0)" stroke="rgb(0,0,0)" stroke-width="0.25" >
<path d="M740.614,352.125 743.911,348.802 732.294,340.574 732.294,340.574 z" />
</g>
<g clip-path="url(#clipId0)" fill="none" stroke="rgb(0,0,0)" stroke-width="0.25" >
<polyline points="765.426,267.715 765.426,233.203 " />
<polyline points="744.335,267.715 744.335,206.36 " />
<polyline points="811.813,315.129 737.338,315.129 " />
</g>
<g clip-path="url(#clipId0)" fill="rgb(0,0,0)" stroke="rgb(0,0,0)" stroke-width="0.25" >
<path d="M811.813,312.788 811.813,317.469 825.854,315.129 825.854,315.129 z" />
</g>
<g clip-path="url(#clipId0)" fill="none" stroke="rgb(0,0,0)" stroke-width="0.25" >
<path d="M742.85,340.969  A5.28203,5.28203 0 1,0 732.294,340.574 " />
<polyline points="765.426,361.665 733.519,361.665 " />
<polyline points="765.426,273.237 765.426,361.665 " />
<polyline points="650.862,272.581 765.426,273.237 " />
<path d="M650.862,272.581  A83.3329,83.3329 0 1,0 732.294,340.574 " />
<circle cx="650.385" cy="355.913" r="32.7636" />
</g>
<g clip-path="url(#clipId0)" fill="rgb(0,0,0)" stroke="rgb(0,0,0)" stroke-width="0.25" >
<path d="M746.675,253.673 741.995,253.673 744.335,267.715 744.335,267.715 z" />
<path d="M767.766,253.673 763.085,253.673 765.426,267.715 765.426,267.715 z" />
</g>
<g clip-path="url(#clipId0)" fill="none" stroke="rgb(0,0,0)" stroke-width="0.25" >
<polyline points="701.565,577.026 707.449,577.026 707.449,576.045 706.958,575.065 706.468,574.574 705.487,574.084 704.016,574.084 703.036,574.574 702.055,575.555 701.565,577.026 701.565,578.007 702.055,579.478 703.036,580.459 704.016,580.949 705.487,580.949 706.468,580.459 707.449,579.478 " />
<polyline points="701.532,541.206 707.416,541.206 707.416,540.225 706.925,539.245 706.435,538.754 705.454,538.264 703.983,538.264 703.003,538.754 702.022,539.735 701.532,541.206 701.532,542.187 702.022,543.658 703.003,544.639 703.983,545.129 705.454,545.129 706.435,544.639 707.416,543.658 " />
<polyline points="578.201,716.87 576.997,717.271 576.195,718.475 575.794,720.481 575.794,721.684 576.195,723.69 576.997,724.894 578.201,725.295 579.003,725.295 580.207,724.894 581.009,723.69 581.41,721.684 581.41,720.481 581.009,718.475 580.207,717.271 579.003,716.87 578.201,716.87 " />
<polyline points="565.823,707.664 560.474,721.706 " />
<polyline points="565.823,707.664 571.172,721.706 " />
<polyline points="562.48,717.025 569.166,717.025 " />
<polyline points="562.48,671.686 562.48,685.728 570.504,685.728 " />
<polyline points="560.474,635.709 565.823,649.75 " />
<polyline points="571.172,635.709 565.823,649.75 " />
<polyline points="516.238,563.753 521.588,577.795 " />
<polyline points="526.937,563.753 521.588,577.795 " />
<polyline points="516.238,527.775 521.588,541.817 " />
<polyline points="526.937,527.775 521.588,541.817 " />
<polyline points="576.061,685.234 581.945,685.234 581.945,684.253 581.455,683.272 580.965,682.782 579.984,682.292 578.513,682.292 577.532,682.782 576.551,683.763 576.061,685.234 576.061,686.214 576.551,687.685 577.532,688.666 578.513,689.156 579.984,689.156 580.965,688.666 581.945,687.685 " />
<polyline points="760.255,556.33 783.561,556.33 " />
<polyline points="786.714,519.78 808.689,519.78 " />
<polyline points="574.881,645.107 573.678,645.508 572.875,646.712 572.474,648.718 572.474,649.922 572.875,651.927 573.678,653.131 574.881,653.532 575.684,653.532 576.887,653.131 577.69,651.927 578.091,649.922 578.091,648.718 577.69,646.712 576.887,645.508 575.684,645.107 574.881,645.107 " />
<polyline points="775.306,572.524 774.103,572.925 773.3,574.129 772.899,576.135 772.899,577.338 773.3,579.344 774.103,580.548 775.306,580.949 776.109,580.949 777.312,580.548 778.115,579.344 778.516,577.338 778.516,576.135 778.115,574.129 777.312,572.925 776.109,572.524 775.306,572.524 " />
<polyline points="757.965,536.704 756.762,537.105 755.959,538.309 755.558,540.315 755.558,541.518 755.959,543.524 756.762,544.728 757.965,545.129 758.768,545.129 759.971,544.728 760.774,543.524 761.175,541.518 761.175,540.315 760.774,538.309 759.971,537.105 758.768,536.704 757.965,536.704 " />
<polyline points="800.761,536.704 799.557,537.105 798.755,538.309 798.354,540.315 798.354,541.518 798.755,543.524 799.557,544.728 800.761,545.129 801.563,545.129 802.767,544.728 803.569,543.524 803.97,541.518 803.97,540.315 803.569,538.309 802.767,537.105 801.563,536.704 800.761,536.704 " />
<polyline points="529.977,573.534 528.773,573.935 527.971,575.139 527.57,577.145 527.57,578.348 527.971,580.354 528.773,581.558 529.977,581.959 530.779,581.959 531.983,581.558 532.785,580.354 533.186,578.348 533.186,577.145 532.785,575.139 531.983,573.935 530.779,573.534 529.977,573.534 " />
<polyline points="531.315,536.227 530.112,536.629 529.309,537.832 528.908,539.838 528.908,541.042 529.309,543.048 530.112,544.251 531.315,544.652 532.118,544.652 533.321,544.251 534.124,543.048 534.525,541.042 534.525,539.838 534.124,537.832 533.321,536.629 532.118,536.227 531.315,536.227 " />
<polyline points="548.826,579.776 560.951,579.776 " />
<polyline points="740.248,569.156 743.591,569.156 749.609,577.18 " />
<polyline points="742.923,569.825 749.609,578.517 " />
<polyline points="760.308,556.452 749.609,578.517 " />
<polyline points="766.786,533.25 770.129,533.25 776.147,541.273 " />
<polyline points="769.461,533.918 776.147,542.611 " />
<polyline points="786.846,520.545 776.147,542.611 " />
<polyline points="595.459,713.682 607.495,713.682 " />
<polyline points="595.459,717.694 607.495,717.694 " />
<polyline points="634.241,707.664 634.241,721.706 " />
<polyline points="634.241,714.351 632.904,713.014 631.567,712.345 629.561,712.345 628.223,713.014 626.886,714.351 626.217,716.357 626.217,717.694 626.886,719.7 628.223,721.037 629.561,721.706 631.567,721.706 632.904,721.037 634.241,719.7 " />
<polyline points="639.591,712.345 639.591,719.031 640.259,721.037 641.597,721.706 643.602,721.706 644.94,721.037 646.946,719.031 " />
<polyline points="646.946,712.345 646.946,721.706 " />
<polyline points="659.65,714.351 658.313,713.014 656.976,712.345 654.97,712.345 653.632,713.014 652.295,714.351 651.626,716.357 651.626,717.694 652.295,719.7 653.632,721.037 654.97,721.706 656.976,721.706 658.313,721.037 659.65,719.7 " />
<polyline points="664.999,707.664 664.999,719.031 665.668,721.037 667.005,721.706 668.343,721.706 " />
<polyline points="662.993,712.345 667.674,712.345 " />
<polyline points="693.752,712.345 693.752,721.706 " />
<polyline points="693.752,714.351 692.414,713.014 691.077,712.345 689.071,712.345 687.734,713.014 686.396,714.351 685.728,716.357 685.728,717.694 686.396,719.7 687.734,721.037 689.071,721.706 691.077,721.706 692.414,721.037 693.752,719.7 " />
<polyline points="699.101,712.345 699.101,721.706 " />
<polyline points="699.101,716.357 699.769,714.351 701.107,713.014 702.444,712.345 704.45,712.345 " />
<polyline points="707.125,716.357 715.149,716.357 715.149,715.019 714.48,713.682 713.811,713.014 712.474,712.345 710.468,712.345 709.131,713.014 707.793,714.351 707.125,716.357 707.125,717.694 707.793,719.7 709.131,721.037 710.468,721.706 712.474,721.706 713.811,721.037 715.149,719.7 " />
<polyline points="727.184,712.345 727.184,721.706 " />
<polyline points="727.184,714.351 725.847,713.014 724.51,712.345 722.504,712.345 721.166,713.014 719.829,714.351 719.16,716.357 719.16,717.694 719.829,719.7 721.166,721.037 722.504,721.706 724.51,721.706 725.847,721.037 727.184,719.7 " />
<polyline points="733.871,721.037 733.202,721.706 732.534,721.037 733.202,720.369 733.871,721.037 733.871,722.375 733.202,723.712 732.534,724.381 " />
<polyline points="753.262,712.345 753.262,721.706 " />
<polyline points="753.262,715.019 755.268,713.014 756.605,712.345 758.611,712.345 759.948,713.014 760.617,715.019 760.617,721.706 " />
<polyline points="760.617,715.019 762.623,713.014 763.96,712.345 765.966,712.345 767.304,713.014 767.972,715.019 767.972,721.706 " />
<polyline points="773.321,712.345 773.321,721.706 " />
<polyline points="773.321,715.019 775.327,713.014 776.665,712.345 778.671,712.345 780.008,713.014 780.677,715.019 780.677,721.706 " />
<polyline points="780.677,715.019 782.683,713.014 784.02,712.345 786.026,712.345 787.363,713.014 788.032,715.019 788.032,721.706 " />
<polyline points="595.459,677.704 607.495,677.704 " />
<polyline points="595.459,681.716 607.495,681.716 " />
<polyline points="626.217,680.379 634.241,680.379 634.241,679.042 633.573,677.704 632.904,677.036 631.567,676.367 629.561,676.367 628.223,677.036 626.886,678.373 626.217,680.379 626.217,681.716 626.886,683.722 628.223,685.06 629.561,685.728 631.567,685.728 632.904,685.06 634.241,683.722 " />
<polyline points="642.934,671.686 641.597,671.686 640.259,672.355 639.591,674.361 639.591,685.728 " />
<polyline points="637.585,676.367 642.265,676.367 " />
<polyline points="650.958,671.686 649.62,671.686 648.283,672.355 647.614,674.361 647.614,685.728 " />
<polyline points="645.608,676.367 650.289,676.367 " />
<polyline points="654.301,680.379 662.325,680.379 662.325,679.042 661.656,677.704 660.988,677.036 659.65,676.367 657.644,676.367 656.307,677.036 654.97,678.373 654.301,680.379 654.301,681.716 654.97,683.722 656.307,685.06 657.644,685.728 659.65,685.728 660.988,685.06 662.325,683.722 " />
<polyline points="674.361,678.373 673.023,677.036 671.686,676.367 669.68,676.367 668.343,677.036 667.005,678.373 666.337,680.379 666.337,681.716 667.005,683.722 668.343,685.06 669.68,685.728 671.686,685.728 673.023,685.06 674.361,683.722 " />
<polyline points="679.71,671.686 679.71,683.054 680.378,685.06 681.716,685.728 683.053,685.728 " />
<polyline points="677.704,676.367 682.384,676.367 " />
<polyline points="686.396,672.355 687.065,673.024 687.734,672.355 687.065,671.686 686.396,672.355 " />
<polyline points="687.065,677.036 687.065,685.728 " />
<polyline points="691.077,676.367 695.089,685.728 " />
<polyline points="699.101,676.367 695.089,685.728 " />
<polyline points="702.444,680.379 710.468,680.379 710.468,679.042 709.799,677.704 709.131,677.036 707.793,676.367 705.787,676.367 704.45,677.036 703.113,678.373 702.444,680.379 702.444,681.716 703.113,683.722 704.45,685.06 705.787,685.728 707.793,685.728 709.131,685.06 710.468,683.722 " />
<polyline points="736.545,671.686 736.545,685.728 " />
<polyline points="736.545,678.373 735.208,677.036 733.871,676.367 731.865,676.367 730.528,677.036 729.19,678.373 728.522,680.379 728.522,681.716 729.19,683.722 730.528,685.06 731.865,685.728 733.871,685.728 735.208,685.06 736.545,683.722 " />
<polyline points="741.895,676.367 741.895,683.054 742.563,685.06 743.901,685.728 745.907,685.728 747.244,685.06 749.25,683.054 " />
<polyline points="749.25,676.367 749.25,685.728 " />
<polyline points="761.954,678.373 760.617,677.036 759.28,676.367 757.274,676.367 755.936,677.036 754.599,678.373 753.93,680.379 753.93,681.716 754.599,683.722 755.936,685.06 757.274,685.728 759.28,685.728 760.617,685.06 761.954,683.722 " />
<polyline points="767.304,671.686 767.304,683.054 767.972,685.06 769.31,685.728 770.647,685.728 " />
<polyline points="765.298,676.367 769.978,676.367 " />
<polyline points="788.701,671.686 788.701,685.728 " />
<polyline points="793.381,680.379 801.405,680.379 801.405,679.042 800.736,677.704 800.068,677.036 798.73,676.367 796.724,676.367 795.387,677.036 794.05,678.373 793.381,680.379 793.381,681.716 794.05,683.722 795.387,685.06 796.724,685.728 798.73,685.728 800.068,685.06 801.405,683.722 " />
<polyline points="806.086,676.367 806.086,685.728 " />
<polyline points="806.086,679.042 808.091,677.036 809.429,676.367 811.435,676.367 812.772,677.036 813.441,679.042 813.441,685.728 " />
<polyline points="826.145,676.367 826.145,687.065 825.476,689.071 824.808,689.74 823.471,690.409 821.465,690.409 820.127,689.74 " />
<polyline points="826.145,678.373 824.808,677.036 823.471,676.367 821.465,676.367 820.127,677.036 818.79,678.373 818.121,680.379 818.121,681.716 818.79,683.722 820.127,685.06 821.465,685.728 823.471,685.728 824.808,685.06 826.145,683.722 " />
<polyline points="832.163,671.686 832.163,683.054 832.832,685.06 834.169,685.728 835.506,685.728 " />
<polyline points="830.157,676.367 834.838,676.367 " />
<polyline points="839.518,671.686 839.518,685.728 " />
<polyline points="839.518,679.042 841.524,677.036 842.862,676.367 844.867,676.367 846.205,677.036 846.873,679.042 846.873,685.728 " />
<polyline points="853.56,685.06 852.891,685.728 852.223,685.06 852.891,684.391 853.56,685.06 853.56,686.397 852.891,687.734 852.223,688.403 " />
<polyline points="872.951,676.367 872.951,685.728 " />
<polyline points="872.951,679.042 874.957,677.036 876.294,676.367 878.3,676.367 879.638,677.036 880.306,679.042 880.306,685.728 " />
<polyline points="880.306,679.042 882.312,677.036 883.649,676.367 885.655,676.367 886.993,677.036 887.661,679.042 887.661,685.728 " />
<polyline points="595.459,641.726 607.495,641.726 " />
<polyline points="595.459,645.738 607.495,645.738 " />
<polyline points="634.241,635.709 634.241,649.75 " />
<polyline points="634.241,642.395 632.904,641.058 631.567,640.389 629.561,640.389 628.223,641.058 626.886,642.395 626.217,644.401 626.217,645.738 626.886,647.744 628.223,649.082 629.561,649.75 631.567,649.75 632.904,649.082 634.241,647.744 " />
<polyline points="639.591,640.389 639.591,647.076 640.259,649.082 641.597,649.75 643.602,649.75 644.94,649.082 646.946,647.076 " />
<polyline points="646.946,640.389 646.946,649.75 " />
<polyline points="659.65,642.395 658.313,641.058 656.976,640.389 654.97,640.389 653.632,641.058 652.295,642.395 651.626,644.401 651.626,645.738 652.295,647.744 653.632,649.082 654.97,649.75 656.976,649.75 658.313,649.082 659.65,647.744 " />
<polyline points="664.999,635.709 664.999,647.076 665.668,649.082 667.005,649.75 668.343,649.75 " />
<polyline points="662.993,640.389 667.674,640.389 " />
<polyline points="685.059,640.389 689.071,649.75 " />
<polyline points="693.083,640.389 689.071,649.75 " />
<polyline points="696.426,644.401 704.45,644.401 704.45,643.064 703.781,641.726 703.113,641.058 701.775,640.389 699.769,640.389 698.432,641.058 697.095,642.395 696.426,644.401 696.426,645.738 697.095,647.744 698.432,649.082 699.769,649.75 701.775,649.75 703.113,649.082 704.45,647.744 " />
<polyline points="709.131,635.709 709.131,649.75 " />
<polyline points="717.154,640.389 715.817,641.058 714.48,642.395 713.811,644.401 713.811,645.738 714.48,647.744 715.817,649.082 717.154,649.75 719.16,649.75 720.498,649.082 721.835,647.744 722.504,645.738 722.504,644.401 721.835,642.395 720.498,641.058 719.16,640.389 717.154,640.389 " />
<polyline points="734.539,642.395 733.202,641.058 731.865,640.389 729.859,640.389 728.522,641.058 727.184,642.395 726.516,644.401 726.516,645.738 727.184,647.744 728.522,649.082 729.859,649.75 731.865,649.75 733.202,649.082 734.539,647.744 " />
<polyline points="738.551,636.377 739.22,637.046 739.889,636.377 739.22,635.709 738.551,636.377 " />
<polyline points="739.22,641.058 739.22,649.75 " />
<polyline points="745.238,635.709 745.238,647.076 745.907,649.082 747.244,649.75 748.581,649.75 " />
<polyline points="743.232,640.389 747.913,640.389 " />
<polyline points="751.256,640.389 755.268,649.75 " />
<polyline points="759.28,640.389 755.268,649.75 753.93,652.425 752.593,653.762 751.256,654.431 750.587,654.431 " />
<polyline points="764.629,649.082 763.96,649.75 763.292,649.082 763.96,648.413 764.629,649.082 764.629,650.419 763.96,651.756 763.292,652.425 " />
<polyline points="784.02,640.389 784.02,649.75 " />
<polyline points="784.02,643.064 786.026,641.058 787.363,640.389 789.369,640.389 790.706,641.058 791.375,643.064 791.375,649.75 " />
<polyline points="791.375,643.064 793.381,641.058 794.718,640.389 796.724,640.389 798.062,641.058 798.73,643.064 798.73,649.75 " />
<polyline points="814.778,633.034 802.742,654.431 " />
<polyline points="825.476,642.395 824.808,641.058 822.802,640.389 820.796,640.389 818.79,641.058 818.121,642.395 818.79,643.732 820.127,644.401 823.471,645.07 824.808,645.738 825.476,647.076 825.476,647.744 824.808,649.082 822.802,649.75 820.796,649.75 818.79,649.082 818.121,647.744 " />
<polyline points="517.033,604.411 519.707,613.772 " />
<polyline points="522.382,604.411 519.707,613.772 " />
<polyline points="522.382,604.411 525.057,613.772 " />
<polyline points="527.731,604.411 525.057,613.772 " />
<polyline points="532.412,599.731 532.412,613.772 " />
<polyline points="532.412,607.086 534.418,605.08 535.755,604.411 537.761,604.411 539.098,605.08 539.767,607.086 539.767,613.772 " />
<polyline points="544.448,608.423 552.471,608.423 552.471,607.086 551.803,605.749 551.134,605.08 549.797,604.411 547.791,604.411 546.454,605.08 545.116,606.417 544.448,608.423 544.448,609.761 545.116,611.766 546.454,613.104 547.791,613.772 549.797,613.772 551.134,613.104 552.471,611.766 " />
<polyline points="557.152,604.411 557.152,613.772 " />
<polyline points="557.152,608.423 557.821,606.417 559.158,605.08 560.495,604.411 562.501,604.411 " />
<polyline points="565.176,608.423 573.2,608.423 573.2,607.086 572.531,605.749 571.862,605.08 570.525,604.411 568.519,604.411 567.182,605.08 565.845,606.417 565.176,608.423 565.176,609.761 565.845,611.766 567.182,613.104 568.519,613.772 570.525,613.772 571.862,613.104 573.2,611.766 " />
<polyline points="561.923,565.759 551.224,571.777 561.923,577.795 " />
<polyline points="582.651,566.427 583.988,565.759 585.994,563.753 585.994,577.795 " />
<polyline points="595.355,563.753 602.71,563.753 598.699,569.102 600.704,569.102 602.042,569.771 602.71,570.439 603.379,572.445 603.379,573.783 602.71,575.789 601.373,577.126 599.367,577.795 597.361,577.795 595.355,577.126 594.687,576.457 594.018,575.12 " />
<polyline points="622.101,568.433 622.101,577.795 " />
<polyline points="622.101,571.108 624.107,569.102 625.445,568.433 627.451,568.433 628.788,569.102 629.457,571.108 629.457,577.795 " />
<polyline points="629.457,571.108 631.463,569.102 632.8,568.433 634.806,568.433 636.143,569.102 636.812,571.108 636.812,577.795 " />
<polyline points="652.86,561.078 640.824,582.475 " />
<polyline points="663.558,570.439 662.889,569.102 660.883,568.433 658.877,568.433 656.871,569.102 656.203,570.439 656.871,571.777 658.209,572.445 661.552,573.114 662.889,573.783 663.558,575.12 663.558,575.789 662.889,577.126 660.883,577.795 658.877,577.795 656.871,577.126 656.203,575.789 " />
<polyline points="668.907,568.433 668.239,569.102 668.907,569.771 669.576,569.102 668.907,568.433 " />
<polyline points="668.907,576.457 668.239,577.126 668.907,577.795 669.576,577.126 668.907,576.457 " />
<polyline points="688.967,563.753 688.967,577.795 696.991,577.795 " />
<polyline points="714.376,569.771 726.412,569.771 " />
<polyline points="714.376,573.783 726.412,573.783 " />
<polyline points="763.188,563.753 757.838,577.795 " />
<polyline points="763.188,563.753 768.537,577.795 " />
<polyline points="759.844,573.114 766.531,573.114 " />
<polyline points="796.62,561.078 784.584,582.475 " />
<polyline points="801.301,563.753 808.656,563.753 804.644,569.102 806.65,569.102 807.987,569.771 808.656,570.439 809.325,572.445 809.325,573.783 808.656,575.789 807.319,577.126 805.313,577.795 803.307,577.795 801.301,577.126 800.632,576.457 799.963,575.12 " />
<polyline points="821.36,563.753 814.674,563.753 814.005,569.771 814.674,569.102 816.68,568.433 818.686,568.433 820.692,569.102 822.029,570.439 822.698,572.445 822.698,573.783 822.029,575.789 820.692,577.126 818.686,577.795 816.68,577.795 814.674,577.126 814.005,576.457 813.337,575.12 " />
<polyline points="830.722,563.753 828.716,564.422 827.378,566.427 826.71,569.771 826.71,571.777 827.378,575.12 828.716,577.126 830.722,577.795 832.059,577.795 834.065,577.126 835.402,575.12 836.071,571.777 836.071,569.771 835.402,566.427 834.065,564.422 832.059,563.753 830.722,563.753 " />
<polyline points="551.224,529.781 561.923,535.799 551.224,541.817 " />
<polyline points="582.651,530.45 583.988,529.781 585.994,527.775 585.994,541.817 " />
<polyline points="595.355,527.775 602.71,527.775 598.699,533.124 600.704,533.124 602.042,533.793 602.71,534.462 603.379,536.468 603.379,537.805 602.71,539.811 601.373,541.148 599.367,541.817 597.361,541.817 595.355,541.148 594.687,540.479 594.018,539.142 " />
<polyline points="622.101,532.456 622.101,541.817 " />
<polyline points="622.101,535.13 624.107,533.124 625.445,532.456 627.451,532.456 628.788,533.124 629.457,535.13 629.457,541.817 " />
<polyline points="629.457,535.13 631.463,533.124 632.8,532.456 634.806,532.456 636.143,533.124 636.812,535.13 636.812,541.817 " />
<polyline points="652.86,525.1 640.824,546.497 " />
<polyline points="663.558,534.462 662.889,533.124 660.883,532.456 658.877,532.456 656.871,533.124 656.203,534.462 656.871,535.799 658.209,536.468 661.552,537.136 662.889,537.805 663.558,539.142 663.558,539.811 662.889,541.148 660.883,541.817 658.877,541.817 656.871,541.148 656.203,539.811 " />
<polyline points="668.907,532.456 668.239,533.124 668.907,533.793 669.576,533.124 668.907,532.456 " />
<polyline points="668.907,540.479 668.239,541.148 668.907,541.817 669.576,541.148 668.907,540.479 " />
<polyline points="688.967,527.775 688.967,541.817 696.991,541.817 " />
<polyline points="714.376,533.793 726.412,533.793 " />
<polyline points="714.376,537.805 726.412,537.805 " />
<polyline points="743.797,527.775 749.146,541.817 " />
<polyline points="754.495,527.775 749.146,541.817 " />
<polyline points="789.265,527.775 783.916,541.817 " />
<polyline points="789.265,527.775 794.614,541.817 " />
<polyline points="785.922,537.136 792.608,537.136 " />
<polyline points="822.698,525.1 810.662,546.497 " />
<polyline points="832.728,527.775 826.041,537.136 836.071,537.136 " />
<polyline points="832.728,527.775 832.728,541.817 " />
<polyline points="841.42,541.148 840.751,541.817 840.083,541.148 840.751,540.479 841.42,541.148 841.42,542.485 840.751,543.823 840.083,544.491 " />
<polyline points="854.125,527.775 847.438,527.775 846.769,533.793 847.438,533.124 849.444,532.456 851.45,532.456 853.456,533.124 854.793,534.462 855.462,536.468 855.462,537.805 854.793,539.811 853.456,541.148 851.45,541.817 849.444,541.817 847.438,541.148 846.769,540.479 846.101,539.142 " />
<polyline points="863.486,527.775 861.48,528.444 860.142,530.45 859.474,533.793 859.474,535.799 860.142,539.142 861.48,541.148 863.486,541.817 864.823,541.817 866.829,541.148 868.166,539.142 868.835,535.799 868.835,533.793 868.166,530.45 866.829,528.444 864.823,527.775 863.486,527.775 " />
<polyline points="876.859,527.775 874.853,528.444 873.515,530.45 872.847,533.793 872.847,535.799 873.515,539.142 874.853,541.148 876.859,541.817 878.196,541.817 880.202,541.148 881.539,539.142 882.208,535.799 882.208,533.793 881.539,530.45 880.202,528.444 878.196,527.775 876.859,527.775 " />
<polyline points="796.013,707.145 796.013,706.744 796.414,705.942 796.815,705.54 797.618,705.139 799.223,705.139 800.025,705.54 800.426,705.942 800.827,706.744 800.827,707.546 800.426,708.349 799.624,709.552 795.612,713.564 801.229,713.564 " />
<polyline points="300.5,534.968 299.296,535.369 298.494,536.573 298.092,538.579 298.092,539.782 298.494,541.788 299.296,542.992 300.5,543.393 301.302,543.393 302.505,542.992 303.308,541.788 303.709,539.782 303.709,538.579 303.308,536.573 302.505,535.369 301.302,534.968 300.5,534.968 " />
<polyline points="43.9697,618.615 46.6443,627.976 " />
<polyline points="49.3189,618.615 46.6443,627.976 " />
<polyline points="49.3189,618.615 51.9935,627.976 " />
<polyline points="54.6682,618.615 51.9935,627.976 " />
<polyline points="59.3487,613.934 59.3487,627.976 " />
<polyline points="59.3487,621.289 61.3547,619.283 62.692,618.615 64.698,618.615 66.0353,619.283 66.7039,621.289 66.7039,627.976 " />
<polyline points="71.3845,622.627 79.4084,622.627 79.4084,621.289 78.7397,619.952 78.0711,619.283 76.7338,618.615 74.7278,618.615 73.3905,619.283 72.0532,620.621 71.3845,622.627 71.3845,623.964 72.0532,625.97 73.3905,627.307 74.7278,627.976 76.7338,627.976 78.0711,627.307 79.4084,625.97 " />
<polyline points="84.089,618.615 84.089,627.976 " />
<polyline points="84.089,622.627 84.7576,620.621 86.0949,619.283 87.4322,618.615 89.4382,618.615 " />
<polyline points="92.1128,622.627 100.137,622.627 100.137,621.289 99.468,619.952 98.7993,619.283 97.462,618.615 95.4561,618.615 94.1188,619.283 92.7815,620.621 92.1128,622.627 92.1128,623.964 92.7815,625.97 94.1188,627.307 95.4561,627.976 97.462,627.976 98.7993,627.307 100.137,625.97 " />
<polyline points="77.8484,579.816 88.6763,579.816 " />
<polyline points="42.8139,561.831 48.1631,575.873 " />
<polyline points="53.5123,561.831 48.1631,575.873 " />
<polyline points="57.1096,570.34 55.906,570.741 55.1036,571.945 54.7024,573.951 54.7024,575.154 55.1036,577.16 55.906,578.364 57.1096,578.765 57.912,578.765 59.1155,578.364 59.9179,577.16 60.3191,575.154 60.3191,573.951 59.9179,571.945 59.1155,570.741 57.912,570.34 57.1096,570.34 " />
<polyline points="88.498,563.837 77.7995,569.855 88.498,575.873 " />
<polyline points="107.889,565.174 107.889,564.506 108.558,563.168 109.226,562.5 110.564,561.831 113.238,561.831 114.576,562.5 115.244,563.168 115.913,564.506 115.913,565.843 115.244,567.18 113.907,569.186 107.22,575.873 116.581,575.873 " />
<polyline points="128.617,561.831 121.931,561.831 121.262,567.849 121.931,567.18 123.937,566.511 125.943,566.511 127.949,567.18 129.286,568.517 129.955,570.523 129.955,571.861 129.286,573.867 127.949,575.204 125.943,575.873 123.937,575.873 121.931,575.204 121.262,574.535 120.593,573.198 " />
<polyline points="137.978,561.831 135.972,562.5 134.635,564.506 133.967,567.849 133.967,569.855 134.635,573.198 135.972,575.204 137.978,575.873 139.316,575.873 141.322,575.204 142.659,573.198 143.328,569.855 143.328,567.849 142.659,564.506 141.322,562.5 139.316,561.831 137.978,561.831 " />
<polyline points="151.352,561.831 149.346,562.5 148.008,564.506 147.34,567.849 147.34,569.855 148.008,573.198 149.346,575.204 151.352,575.873 152.689,575.873 154.695,575.204 156.032,573.198 156.701,569.855 156.701,567.849 156.032,564.506 154.695,562.5 152.689,561.831 151.352,561.831 " />
<polyline points="179.435,561.831 178.098,561.831 176.76,562.5 176.092,564.506 176.092,575.873 " />
<polyline points="174.086,566.511 178.766,566.511 " />
<polyline points="183.447,566.511 183.447,580.553 " />
<polyline points="183.447,568.517 184.784,567.18 186.122,566.511 188.128,566.511 189.465,567.18 190.802,568.517 191.471,570.523 191.471,571.861 190.802,573.867 189.465,575.204 188.128,575.873 186.122,575.873 184.784,575.204 183.447,573.867 " />
<polyline points="196.151,566.511 196.151,575.873 " />
<polyline points="196.151,569.186 198.157,567.18 199.495,566.511 201.501,566.511 202.838,567.18 203.507,569.186 203.507,575.873 " />
<polyline points="203.507,569.186 205.513,567.18 206.85,566.511 208.856,566.511 210.193,567.18 210.862,569.186 210.862,575.873 " />
<polyline points="216.88,566.511 216.211,567.18 216.88,567.849 217.548,567.18 216.88,566.511 " />
<polyline points="216.88,574.535 216.211,575.204 216.88,575.873 217.548,575.204 216.88,574.535 " />
<polyline points="257.039,567.849 269.075,567.849 " />
<polyline points="257.039,571.861 269.075,571.861 " />
<polyline points="242.199,577.183 248.083,577.183 248.083,576.202 247.592,575.222 247.102,574.731 246.121,574.241 244.65,574.241 243.67,574.731 242.689,575.712 242.199,577.183 242.199,578.164 242.689,579.635 243.67,580.616 244.65,581.106 246.121,581.106 247.102,580.616 248.083,579.635 " />
<polyline points="228.99,562.116 228.99,576.158 237.014,576.158 " />
<polyline points="321.873,570.748 320.669,571.149 319.867,572.352 319.466,574.358 319.466,575.562 319.867,577.568 320.669,578.771 321.873,579.173 322.675,579.173 323.879,578.771 324.681,577.568 325.082,575.562 325.082,574.358 324.681,572.352 323.879,571.149 322.675,570.748 321.873,570.748 " />
<polyline points="309.868,562.116 304.519,576.158 " />
<polyline points="309.868,562.116 315.217,576.158 " />
<polyline points="306.525,571.477 313.211,571.477 " />
<polyline points="285.994,575.319 289.861,569.697 " />
<polyline points="289.861,569.697 294.502,582.065 " />
<polyline points="294.502,582.065 300.689,558.454 " />
<polyline points="300.689,558.454 326.212,558.454 " />
<polyline points="345.647,559.441 333.611,580.838 " />
<polyline points="355.676,562.116 348.99,571.477 359.02,571.477 " />
<polyline points="355.676,562.116 355.676,576.158 " />
<polyline points="363.7,574.82 363.032,575.489 363.7,576.158 364.369,575.489 363.7,574.82 " />
<polyline points="370.387,562.116 377.742,562.116 373.73,567.465 375.736,567.465 377.073,568.134 377.742,568.802 378.411,570.808 378.411,572.146 377.742,574.152 376.405,575.489 374.399,576.158 372.393,576.158 370.387,575.489 369.718,574.82 369.049,573.483 " />
<polyline points="368.788,523.463 356.752,544.86 " />
<polyline points="374.137,528.813 375.474,528.144 377.48,526.138 377.48,540.18 " />
<polyline points="389.516,526.138 387.51,526.807 386.173,528.813 385.504,532.156 385.504,534.162 386.173,537.505 387.51,539.511 389.516,540.18 390.853,540.18 392.859,539.511 394.196,537.505 394.865,534.162 394.865,532.156 394.196,528.813 392.859,526.807 390.853,526.138 389.516,526.138 " />
<polyline points="400.883,539.511 400.214,540.18 399.546,539.511 400.214,538.842 400.883,539.511 400.883,540.848 400.214,542.186 399.546,542.854 " />
<polyline points="414.256,528.144 413.587,526.807 411.581,526.138 410.244,526.138 408.238,526.807 406.901,528.813 406.232,532.156 406.232,535.499 406.901,538.174 408.238,539.511 410.244,540.18 410.913,540.18 412.919,539.511 414.256,538.174 414.925,536.168 414.925,535.499 414.256,533.493 412.919,532.156 410.913,531.487 410.244,531.487 408.238,532.156 406.901,533.493 406.232,535.499 " />
<polyline points="422.949,526.138 420.943,526.807 419.605,528.813 418.937,532.156 418.937,534.162 419.605,537.505 420.943,539.511 422.949,540.18 424.286,540.18 426.292,539.511 427.629,537.505 428.298,534.162 428.298,532.156 427.629,528.813 426.292,526.807 424.286,526.138 422.949,526.138 " />
<polyline points="436.322,526.138 434.316,526.807 432.978,528.813 432.31,532.156 432.31,534.162 432.978,537.505 434.316,539.511 436.322,540.18 437.659,540.18 439.665,539.511 441.002,537.505 441.671,534.162 441.671,532.156 441.002,528.813 439.665,526.807 437.659,526.138 436.322,526.138 " />
<polyline points="324.313,522.477 349.836,522.477 " />
<polyline points="318.126,546.087 324.313,522.477 " />
<polyline points="313.486,533.72 318.126,546.087 " />
<polyline points="309.619,539.341 313.486,533.72 " />
<polyline points="333.492,526.138 328.143,540.18 " />
<polyline points="333.492,526.138 338.842,540.18 " />
<polyline points="330.149,535.499 336.836,535.499 " />
<polyline points="345.497,534.77 344.294,535.171 343.491,536.375 343.09,538.38 343.09,539.584 343.491,541.59 344.294,542.794 345.497,543.195 346.299,543.195 347.503,542.794 348.305,541.59 348.707,539.584 348.707,538.38 348.305,536.375 347.503,535.171 346.299,534.77 345.497,534.77 " />
<polyline points="228.99,526.138 228.99,540.18 237.014,540.18 " />
<polyline points="241.715,539.755 247.599,539.755 247.599,538.775 247.109,537.794 246.619,537.304 245.638,536.813 244.167,536.813 243.186,537.304 242.206,538.284 241.715,539.755 241.715,540.736 242.206,542.207 243.186,543.188 244.167,543.678 245.638,543.678 246.619,543.188 247.599,542.207 " />
<polyline points="257.039,531.871 269.075,531.871 " />
<polyline points="257.039,535.883 269.075,535.883 " />
<polyline points="286.46,525.853 291.809,539.895 " />
<polyline points="297.158,525.853 291.809,539.895 " />
<polyline points="77.7995,527.859 88.498,533.877 77.7995,539.895 " />
<polyline points="107.889,529.196 107.889,528.528 108.558,527.19 109.226,526.522 110.564,525.853 113.238,525.853 114.576,526.522 115.244,527.19 115.913,528.528 115.913,529.865 115.244,531.202 113.907,533.208 107.22,539.895 116.581,539.895 " />
<polyline points="128.617,525.853 121.931,525.853 121.262,531.871 121.931,531.202 123.937,530.534 125.943,530.534 127.949,531.202 129.286,532.54 129.955,534.546 129.955,535.883 129.286,537.889 127.949,539.226 125.943,539.895 123.937,539.895 121.931,539.226 121.262,538.557 120.593,537.22 " />
<polyline points="137.978,525.853 135.972,526.522 134.635,528.528 133.967,531.871 133.967,533.877 134.635,537.22 135.972,539.226 137.978,539.895 139.316,539.895 141.322,539.226 142.659,537.22 143.328,533.877 143.328,531.871 142.659,528.528 141.322,526.522 139.316,525.853 137.978,525.853 " />
<polyline points="151.352,525.853 149.346,526.522 148.008,528.528 147.34,531.871 147.34,533.877 148.008,537.22 149.346,539.226 151.352,539.895 152.689,539.895 154.695,539.226 156.032,537.22 156.701,533.877 156.701,531.871 156.032,528.528 154.695,526.522 152.689,525.853 151.352,525.853 " />
<polyline points="179.435,525.853 178.098,525.853 176.76,526.522 176.092,528.528 176.092,539.895 " />
<polyline points="174.086,530.534 178.766,530.534 " />
<polyline points="183.447,530.534 183.447,544.575 " />
<polyline points="183.447,532.54 184.784,531.202 186.122,530.534 188.128,530.534 189.465,531.202 190.802,532.54 191.471,534.546 191.471,535.883 190.802,537.889 189.465,539.226 188.128,539.895 186.122,539.895 184.784,539.226 183.447,537.889 " />
<polyline points="196.151,530.534 196.151,539.895 " />
<polyline points="196.151,533.208 198.157,531.202 199.495,530.534 201.501,530.534 202.838,531.202 203.507,533.208 203.507,539.895 " />
<polyline points="203.507,533.208 205.513,531.202 206.85,530.534 208.856,530.534 210.193,531.202 210.862,533.208 210.862,539.895 " />
<polyline points="216.88,530.534 216.211,531.202 216.88,531.871 217.548,531.202 216.88,530.534 " />
<polyline points="216.88,538.557 216.211,539.226 216.88,539.895 217.548,539.226 216.88,538.557 " />
<polyline points="57.8107,534.362 56.6071,534.764 55.8048,535.967 55.4036,537.973 55.4036,539.177 55.8048,541.183 56.6071,542.386 57.8107,542.788 58.6131,542.788 59.8167,542.386 60.6191,541.183 61.0203,539.177 61.0203,537.973 60.6191,535.967 59.8167,534.764 58.6131,534.362 57.8107,534.362 " />
<polyline points="42.8139,525.853 48.1631,539.895 " />
<polyline points="53.5123,525.853 48.1631,539.895 " />
<polyline points="100.123,657.791 98.9192,658.193 98.1168,659.396 97.7156,661.402 97.7156,662.606 98.1168,664.612 98.9192,665.815 100.123,666.216 100.925,666.216 102.129,665.815 102.931,664.612 103.332,662.606 103.332,661.402 102.931,659.396 102.129,658.193 100.925,657.791 100.123,657.791 " />
<polyline points="85.1259,649.162 90.4752,663.204 " />
<polyline points="95.8244,649.162 90.4752,663.204 " />
<polyline points="120.112,655.18 132.147,655.18 " />
<polyline points="120.112,659.192 132.147,659.192 " />
<polyline points="158.894,649.162 158.894,663.204 " />
<polyline points="158.894,655.849 157.556,654.512 156.219,653.843 154.213,653.843 152.876,654.512 151.538,655.849 150.87,657.855 150.87,659.192 151.538,661.198 152.876,662.535 154.213,663.204 156.219,663.204 157.556,662.535 158.894,661.198 " />
<polyline points="164.243,653.843 164.243,660.53 164.911,662.535 166.249,663.204 168.255,663.204 169.592,662.535 171.598,660.53 " />
<polyline points="171.598,653.843 171.598,663.204 " />
<polyline points="184.302,655.849 182.965,654.512 181.628,653.843 179.622,653.843 178.285,654.512 176.947,655.849 176.279,657.855 176.279,659.192 176.947,661.198 178.285,662.535 179.622,663.204 181.628,663.204 182.965,662.535 184.302,661.198 " />
<polyline points="189.652,649.162 189.652,660.53 190.32,662.535 191.658,663.204 192.995,663.204 " />
<polyline points="187.646,653.843 192.326,653.843 " />
<polyline points="209.711,653.843 213.723,663.204 " />
<polyline points="217.735,653.843 213.723,663.204 " />
<polyline points="221.078,657.855 229.102,657.855 229.102,656.518 228.434,655.18 227.765,654.512 226.428,653.843 224.422,653.843 223.084,654.512 221.747,655.849 221.078,657.855 221.078,659.192 221.747,661.198 223.084,662.535 224.422,663.204 226.428,663.204 227.765,662.535 229.102,661.198 " />
<polyline points="233.783,649.162 233.783,663.204 " />
<polyline points="241.807,653.843 240.469,654.512 239.132,655.849 238.463,657.855 238.463,659.192 239.132,661.198 240.469,662.535 241.807,663.204 243.813,663.204 245.15,662.535 246.487,661.198 247.156,659.192 247.156,657.855 246.487,655.849 245.15,654.512 243.813,653.843 241.807,653.843 " />
<polyline points="259.192,655.849 257.854,654.512 256.517,653.843 254.511,653.843 253.174,654.512 251.837,655.849 251.168,657.855 251.168,659.192 251.837,661.198 253.174,662.535 254.511,663.204 256.517,663.204 257.854,662.535 259.192,661.198 " />
<polyline points="263.204,649.831 263.872,650.5 264.541,649.831 263.872,649.162 263.204,649.831 " />
<polyline points="263.872,654.512 263.872,663.204 " />
<polyline points="269.89,649.162 269.89,660.53 270.559,662.535 271.896,663.204 273.233,663.204 " />
<polyline points="267.884,653.843 272.565,653.843 " />
<polyline points="275.908,653.843 279.92,663.204 " />
<polyline points="283.932,653.843 279.92,663.204 278.583,665.879 277.245,667.216 275.908,667.885 275.239,667.885 " />
<polyline points="289.281,662.535 288.612,663.204 287.944,662.535 288.612,661.867 289.281,662.535 289.281,663.873 288.612,665.21 287.944,665.879 " />
<polyline points="312.684,649.162 311.347,649.162 310.009,649.831 309.341,651.837 309.341,663.204 " />
<polyline points="307.335,653.843 312.015,653.843 " />
<polyline points="316.696,653.843 316.696,667.885 " />
<polyline points="316.696,655.849 318.033,654.512 319.371,653.843 321.377,653.843 322.714,654.512 324.051,655.849 324.72,657.855 324.72,659.192 324.051,661.198 322.714,662.535 321.377,663.204 319.371,663.204 318.033,662.535 316.696,661.198 " />
<polyline points="329.4,653.843 329.4,663.204 " />
<polyline points="329.4,656.518 331.406,654.512 332.744,653.843 334.75,653.843 336.087,654.512 336.756,656.518 336.756,663.204 " />
<polyline points="336.756,656.518 338.762,654.512 340.099,653.843 342.105,653.843 343.442,654.512 344.111,656.518 344.111,663.204 " />
<polyline points="295.173,721.878 295.173,721.477 295.574,720.675 295.975,720.273 296.777,719.872 298.382,719.872 299.184,720.273 299.586,720.675 299.987,721.477 299.987,722.279 299.586,723.082 298.783,724.285 294.771,728.297 300.388,728.297 " />
<polyline points="87.1319,685.14 87.1319,699.182 95.1557,699.182 " />
<polyline points="100.788,699.516 106.672,699.516 106.672,698.535 106.181,697.555 105.691,697.064 104.71,696.574 103.239,696.574 102.259,697.064 101.278,698.045 100.788,699.516 100.788,700.497 101.278,701.968 102.259,702.948 103.239,703.439 104.71,703.439 105.691,702.948 106.672,701.968 " />
<polyline points="90.4752,721.118 85.1259,735.16 " />
<polyline points="90.4752,721.118 95.8244,735.16 " />
<polyline points="87.1319,730.479 93.8184,730.479 " />
<polyline points="102.226,730.135 101.023,730.536 100.22,731.74 99.819,733.746 99.819,734.949 100.22,736.955 101.023,738.159 102.226,738.56 103.029,738.56 104.232,738.159 105.035,736.955 105.436,734.949 105.436,733.746 105.035,731.74 104.232,730.536 103.029,730.135 102.226,730.135 " />
<polyline points="120.112,691.158 132.147,691.158 " />
<polyline points="120.112,695.17 132.147,695.17 " />
<polyline points="150.87,693.833 158.894,693.833 158.894,692.495 158.225,691.158 157.556,690.489 156.219,689.821 154.213,689.821 152.876,690.489 151.538,691.827 150.87,693.833 150.87,695.17 151.538,697.176 152.876,698.513 154.213,699.182 156.219,699.182 157.556,698.513 158.894,697.176 " />
<polyline points="167.586,685.14 166.249,685.14 164.911,685.809 164.243,687.815 164.243,699.182 " />
<polyline points="162.237,689.821 166.917,689.821 " />
<polyline points="175.61,685.14 174.273,685.14 172.935,685.809 172.267,687.815 172.267,699.182 " />
<polyline points="170.261,689.821 174.941,689.821 " />
<polyline points="178.953,693.833 186.977,693.833 186.977,692.495 186.308,691.158 185.64,690.489 184.302,689.821 182.296,689.821 180.959,690.489 179.622,691.827 178.953,693.833 178.953,695.17 179.622,697.176 180.959,698.513 182.296,699.182 184.302,699.182 185.64,698.513 186.977,697.176 " />
<polyline points="199.013,691.827 197.675,690.489 196.338,689.821 194.332,689.821 192.995,690.489 191.658,691.827 190.989,693.833 190.989,695.17 191.658,697.176 192.995,698.513 194.332,699.182 196.338,699.182 197.675,698.513 199.013,697.176 " />
<polyline points="204.362,685.14 204.362,696.507 205.031,698.513 206.368,699.182 207.705,699.182 " />
<polyline points="202.356,689.821 207.037,689.821 " />
<polyline points="211.049,685.809 211.717,686.478 212.386,685.809 211.717,685.14 211.049,685.809 " />
<polyline points="211.717,690.489 211.717,699.182 " />
<polyline points="215.729,689.821 219.741,699.182 " />
<polyline points="223.753,689.821 219.741,699.182 " />
<polyline points="227.096,693.833 235.12,693.833 235.12,692.495 234.451,691.158 233.783,690.489 232.446,689.821 230.44,689.821 229.102,690.489 227.765,691.827 227.096,693.833 227.096,695.17 227.765,697.176 229.102,698.513 230.44,699.182 232.446,699.182 233.783,698.513 235.12,697.176 " />
<polyline points="261.198,685.14 261.198,699.182 " />
<polyline points="261.198,691.827 259.86,690.489 258.523,689.821 256.517,689.821 255.18,690.489 253.842,691.827 253.174,693.833 253.174,695.17 253.842,697.176 255.18,698.513 256.517,699.182 258.523,699.182 259.86,698.513 261.198,697.176 " />
<polyline points="266.547,689.821 266.547,696.507 267.216,698.513 268.553,699.182 270.559,699.182 271.896,698.513 273.902,696.507 " />
<polyline points="273.902,689.821 273.902,699.182 " />
<polyline points="286.607,691.827 285.269,690.489 283.932,689.821 281.926,689.821 280.589,690.489 279.251,691.827 278.583,693.833 278.583,695.17 279.251,697.176 280.589,698.513 281.926,699.182 283.932,699.182 285.269,698.513 286.607,697.176 " />
<polyline points="291.956,685.14 291.956,696.507 292.624,698.513 293.962,699.182 295.299,699.182 " />
<polyline points="289.95,689.821 294.63,689.821 " />
<polyline points="313.353,685.14 313.353,699.182 " />
<polyline points="318.033,693.833 326.057,693.833 326.057,692.495 325.388,691.158 324.72,690.489 323.383,689.821 321.377,689.821 320.039,690.489 318.702,691.827 318.033,693.833 318.033,695.17 318.702,697.176 320.039,698.513 321.377,699.182 323.383,699.182 324.72,698.513 326.057,697.176 " />
<polyline points="330.738,689.821 330.738,699.182 " />
<polyline points="330.738,692.495 332.744,690.489 334.081,689.821 336.087,689.821 337.424,690.489 338.093,692.495 338.093,699.182 " />
<polyline points="350.797,689.821 350.797,700.519 350.129,702.525 349.46,703.194 348.123,703.863 346.117,703.863 344.779,703.194 " />
<polyline points="350.797,691.827 349.46,690.489 348.123,689.821 346.117,689.821 344.779,690.489 343.442,691.827 342.774,693.833 342.774,695.17 343.442,697.176 344.779,698.513 346.117,699.182 348.123,699.182 349.46,698.513 350.797,697.176 " />
<polyline points="356.815,685.14 356.815,696.507 357.484,698.513 358.821,699.182 360.159,699.182 " />
<polyline points="354.809,689.821 359.49,689.821 " />
<polyline points="364.17,685.14 364.17,699.182 " />
<polyline points="364.17,692.495 366.176,690.489 367.514,689.821 369.52,689.821 370.857,690.489 371.526,692.495 371.526,699.182 " />
<polyline points="378.212,698.513 377.544,699.182 376.875,698.513 377.544,697.845 378.212,698.513 378.212,699.851 377.544,701.188 376.875,701.857 " />
<polyline points="401.615,685.14 400.278,685.14 398.94,685.809 398.272,687.815 398.272,699.182 " />
<polyline points="396.266,689.821 400.946,689.821 " />
<polyline points="406.296,685.14 406.296,696.507 406.964,698.513 408.302,699.182 409.639,699.182 " />
<polyline points="404.29,689.821 408.97,689.821 " />
<polyline points="120.112,727.136 132.147,727.136 " />
<polyline points="120.112,731.148 132.147,731.148 " />
<polyline points="158.894,721.118 158.894,735.16 " />
<polyline points="158.894,727.805 157.556,726.467 156.219,725.799 154.213,725.799 152.876,726.467 151.538,727.805 150.87,729.811 150.87,731.148 151.538,733.154 152.876,734.491 154.213,735.16 156.219,735.16 157.556,734.491 158.894,733.154 " />
<polyline points="164.243,725.799 164.243,732.485 164.911,734.491 166.249,735.16 168.255,735.16 169.592,734.491 171.598,732.485 " />
<polyline points="171.598,725.799 171.598,735.16 " />
<polyline points="184.302,727.805 182.965,726.467 181.628,725.799 179.622,725.799 178.285,726.467 176.947,727.805 176.279,729.811 176.279,731.148 176.947,733.154 178.285,734.491 179.622,735.16 181.628,735.16 182.965,734.491 184.302,733.154 " />
<polyline points="189.652,721.118 189.652,732.485 190.32,734.491 191.658,735.16 192.995,735.16 " />
<polyline points="187.646,725.799 192.326,725.799 " />
<polyline points="218.404,725.799 218.404,735.16 " />
<polyline points="218.404,727.805 217.066,726.467 215.729,725.799 213.723,725.799 212.386,726.467 211.049,727.805 210.38,729.811 210.38,731.148 211.049,733.154 212.386,734.491 213.723,735.16 215.729,735.16 217.066,734.491 218.404,733.154 " />
<polyline points="223.753,725.799 223.753,735.16 " />
<polyline points="223.753,729.811 224.422,727.805 225.759,726.467 227.096,725.799 229.102,725.799 " />
<polyline points="231.777,729.811 239.801,729.811 239.801,728.473 239.132,727.136 238.463,726.467 237.126,725.799 235.12,725.799 233.783,726.467 232.446,727.805 231.777,729.811 231.777,731.148 232.446,733.154 233.783,734.491 235.12,735.16 237.126,735.16 238.463,734.491 239.801,733.154 " />
<polyline points="251.837,725.799 251.837,735.16 " />
<polyline points="251.837,727.805 250.499,726.467 249.162,725.799 247.156,725.799 245.819,726.467 244.481,727.805 243.813,729.811 243.813,731.148 244.481,733.154 245.819,734.491 247.156,735.16 249.162,735.16 250.499,734.491 251.837,733.154 " />
<polyline points="258.523,734.491 257.854,735.16 257.186,734.491 257.854,733.823 258.523,734.491 258.523,735.829 257.854,737.166 257.186,737.834 " />
<polyline points="277.245,721.787 277.914,722.455 278.583,721.787 277.914,721.118 277.245,721.787 " />
<polyline points="277.914,726.467 277.914,735.16 " />
<polyline points="283.263,725.799 283.263,735.16 " />
<polyline points="283.263,728.473 285.269,726.467 286.607,725.799 288.612,725.799 289.95,726.467 290.618,728.473 290.618,735.16 " />
<polyline points="744.335,206.36 744.335,183.296 " />
<polyline points="765.426,233.203 765.426,220.395 " />
<polyline points="765.426,220.395 788.829,220.395 " />
</g>
<g clip-path="url(#clipId0)" fill="rgb(0,0,0)" stroke="rgb(0,0,0)" stroke-width="0.25" >
<path d="M777.985,284.807 775.133,281.096 765.426,291.508 765.426,291.508 z" />
</g>
<g clip-path="url(#clipId0)" fill="none" stroke="rgb(0,0,0)" stroke-width="0.25" >
<polyline points="776.559,282.951 800.436,264.6 " />
<polyline points="800.436,264.6 823.839,264.6 " />
<polyline points="834.939,257.579 834.939,271.621 " />
<polyline points="844.3,257.579 844.3,271.621 " />
<polyline points="834.939,264.266 844.3,264.266 " />
<polyline points="863.022,262.26 870.378,271.621 " />
<polyline points="870.378,262.26 863.022,271.621 " />
<polyline points="887.763,257.579 891.106,271.621 " />
<polyline points="894.449,257.579 891.106,271.621 " />
<polyline points="894.449,257.579 897.793,271.621 " />
<polyline points="901.136,257.579 897.793,271.621 " />
<polyline points="744.661,180.033 768.064,180.033 " />
<polyline points="768.064,180.033 744.661,180.033 " />
<polyline points="744.661,180.033 744.661,201.175 " />
<polyline points="744.661,201.175 744.661,205.019 " />
</g>
<g clip-path="url(#clipId0)" fill="rgb(0,0,0)" stroke="rgb(0,0,0)" stroke-width="0.25" >
<path d="M650.514,133.131 648.388,137.301 661.961,141.594 661.961,141.594 z" />
</g>
<g clip-path="url(#clipId0)" fill="none" stroke="rgb(0,0,0)" stroke-width="0.25" >
<polyline points="649.451,135.216 567.72,93.5443 " />
<polyline points="899.809,742.818 897.848,740.857 894.906,739.876 890.983,739.876 888.041,740.857 886.079,742.818 886.079,744.779 887.06,746.741 888.041,747.722 890.002,748.702 895.886,750.664 897.848,751.644 898.828,752.625 899.809,754.586 899.809,757.529 897.848,759.49 894.906,760.471 890.983,760.471 888.041,759.49 886.079,757.529 " />
<polyline points="906.674,739.876 906.674,760.471 " />
<polyline points="906.674,739.876 915.5,739.876 918.442,740.857 919.423,741.837 920.404,743.799 920.404,745.76 919.423,747.722 918.442,748.702 915.5,749.683 906.674,749.683 " />
<polyline points="913.539,749.683 920.404,760.471 " />
<polyline points="940.017,739.876 930.211,760.471 " />
<polyline points="926.288,739.876 940.017,739.876 " />
<polyline points="946.882,751.644 964.535,751.644 " />
<polyline points="984.149,742.818 983.168,740.857 980.226,739.876 978.264,739.876 975.322,740.857 973.361,743.799 972.38,748.702 972.38,753.606 973.361,757.529 975.322,759.49 978.264,760.471 979.245,760.471 982.187,759.49 984.149,757.529 985.129,754.586 985.129,753.606 984.149,750.664 982.187,748.702 979.245,747.722 978.264,747.722 975.322,748.702 973.361,750.664 972.38,753.606 " />
</g>
</svg>
