<?xml version="1.0" standalone="no"?>
<svg viewBox="0 0 1024 768" version="1.1" xmlns="http://www.w3.org/2000/svg" xmlns:xlink="http://www.w3.org/1999/xlink" stroke-linecap="round" stroke-linejoin="round" fill-rule="evenodd" xml:space="preserve" >
<defs >
<clipPath id="clipId0" >
<path d="M0,768 1024,768 1024,0 0,0 z" />
</clipPath>
</defs>
<g clip-path="url(#clipId0)" fill="none" stroke="rgb(0,0,0)" stroke-width="0.1" />
<g clip-path="url(#clipId0)" fill="none" stroke="rgb(0,0,0)" stroke-width="0.25" >
<polyline points="534.351,290.102 342.927,290.102 " />
<polyline points="534.351,443.578 496.402,443.578 " />
<circle cx="342.927" cy="443.578" r="76.7378" />
<path d="M342.927,290.102  A153.476,153.476 0 1,0 491.129,403.691 " />
<polyline points="534.351,443.578 534.351,290.102 " />
<path d="M514.953,400.945  A12.0702,12.0702 0 1,0 491.321,404.414 " />
<polyline points="211.756,54.4605 209.564,55.5568 207.371,57.7493 206.275,59.9418 205.179,63.2306 205.179,68.7118 206.275,72.0006 207.371,74.1931 209.564,76.3856 211.756,77.4819 216.141,77.4819 218.334,76.3856 220.526,74.1931 221.623,72.0006 222.719,68.7118 222.719,63.2306 221.623,59.9418 220.526,57.7493 218.334,55.5568 216.141,54.4605 211.756,54.4605 " />
<polyline points="230.393,54.4605 230.393,70.9043 231.489,74.1931 233.681,76.3856 236.97,77.4819 239.163,77.4819 242.451,76.3856 244.644,74.1931 245.74,70.9043 245.74,54.4605 " />
<polyline points="258.895,54.4605 258.895,77.4819 " />
<polyline points="251.221,54.4605 266.569,54.4605 " />
<polyline points="272.05,54.4605 272.05,77.4819 285.205,77.4819 " />
<polyline points="290.687,54.4605 290.687,77.4819 " />
<polyline points="290.687,54.4605 304.938,54.4605 " />
<polyline points="290.687,65.4231 299.457,65.4231 " />
<polyline points="290.687,77.4819 304.938,77.4819 " />
<polyline points="315.9,54.4605 315.9,77.4819 " />
<polyline points="308.227,54.4605 323.574,54.4605 " />
<polyline points="357.558,54.4605 348.788,77.4819 " />
<polyline points="357.558,54.4605 366.328,77.4819 " />
<polyline points="352.077,69.8081 363.039,69.8081 " />
<polyline points="371.809,54.4605 371.809,77.4819 " />
<polyline points="371.809,54.4605 381.676,54.4605 384.964,55.5568 386.061,56.653 387.157,58.8456 387.157,61.0381 386.061,63.2306 384.964,64.3268 381.676,65.4231 371.809,65.4231 " />
<polyline points="379.483,65.4231 387.157,77.4819 " />
<polyline points="394.831,54.4605 394.831,77.4819 " />
<polyline points="394.831,54.4605 409.082,54.4605 " />
<polyline points="394.831,65.4231 403.601,65.4231 " />
<polyline points="394.831,77.4819 409.082,77.4819 " />
<polyline points="421.141,54.4605 412.371,77.4819 " />
<polyline points="421.141,54.4605 429.911,77.4819 " />
<polyline points="415.66,69.8081 426.622,69.8081 " />
<polyline points="437.585,76.3856 436.488,77.4819 435.392,76.3856 436.488,75.2894 437.585,76.3856 437.585,78.5781 436.488,80.7706 435.392,81.8669 " />
<polyline points="474.857,54.4605 466.087,77.4819 " />
<polyline points="474.857,54.4605 483.627,77.4819 " />
<polyline points="469.376,69.8081 480.339,69.8081 " />
<polyline points="206.275,126.395 206.275,149.416 " />
<polyline points="206.275,126.395 216.141,126.395 219.43,127.491 220.526,128.587 221.623,130.78 221.623,132.972 220.526,135.165 219.43,136.261 216.141,137.357 " />
<polyline points="206.275,137.357 216.141,137.357 219.43,138.454 220.526,139.55 221.623,141.742 221.623,145.031 220.526,147.224 219.43,148.32 216.141,149.416 206.275,149.416 " />
<polyline points="229.296,126.395 229.296,149.416 242.451,149.416 " />
<polyline points="253.414,126.395 244.644,149.416 " />
<polyline points="253.414,126.395 262.184,149.416 " />
<polyline points="247.933,141.742 258.895,141.742 " />
<polyline points="281.917,129.684 279.724,127.491 276.435,126.395 272.05,126.395 268.762,127.491 266.569,129.684 266.569,131.876 267.665,134.069 268.762,135.165 270.954,136.261 277.532,138.454 279.724,139.55 280.82,140.646 281.917,142.839 281.917,146.128 279.724,148.32 276.435,149.416 272.05,149.416 268.762,148.32 266.569,146.128 " />
<polyline points="293.975,126.395 293.975,149.416 " />
<polyline points="286.302,126.395 301.649,126.395 " />
<polyline points="335.633,126.395 326.863,149.416 " />
<polyline points="335.633,126.395 344.403,149.416 " />
<polyline points="330.152,141.742 341.114,141.742 " />
<polyline points="349.884,126.395 349.884,149.416 " />
<polyline points="349.884,126.395 359.751,126.395 363.039,127.491 364.136,128.587 365.232,130.78 365.232,132.972 364.136,135.165 363.039,136.261 359.751,137.357 349.884,137.357 " />
<polyline points="357.558,137.357 365.232,149.416 " />
<polyline points="372.906,126.395 372.906,149.416 " />
<polyline points="372.906,126.395 387.157,126.395 " />
<polyline points="372.906,137.357 381.676,137.357 " />
<polyline points="372.906,149.416 387.157,149.416 " />
<polyline points="399.216,126.395 390.446,149.416 " />
<polyline points="399.216,126.395 407.986,149.416 " />
<polyline points="393.735,141.742 404.697,141.742 " />
<polyline points="415.66,148.32 414.563,149.416 413.467,148.32 414.563,147.224 415.66,148.32 415.66,150.513 414.563,152.705 413.467,153.801 " />
<polyline points="452.932,126.395 444.162,149.416 " />
<polyline points="452.932,126.395 461.702,149.416 " />
<polyline points="447.451,141.742 458.414,141.742 " />
<polyline points="534.351,280.31 534.351,179.17 " />
<polyline points="534.351,65.7314 510.264,65.7314 " />
<polyline points="513.501,280.31 513.501,214.421 " />
<polyline points="513.501,135.644 489.415,135.644 " />
</g>
<g clip-path="url(#clipId0)" fill="rgb(0,0,0)" stroke="rgb(0,0,0)" stroke-width="0.25" >
<path d="M473.372,381.494 469.957,388.366 492.279,395.178 492.279,395.178 z" />
</g>
<g clip-path="url(#clipId0)" fill="none" stroke="rgb(0,0,0)" stroke-width="0.25" >
<polyline points="471.664,384.93 176.67,238.289 " />
<polyline points="176.67,238.289 153.649,238.289 " />
<polyline points="26.483,232.26 25.3868,230.067 23.1943,227.875 21.0018,226.779 16.6167,226.779 14.4242,227.875 12.2317,230.067 11.1355,232.26 10.0392,235.549 10.0392,241.03 11.1355,244.319 12.2317,246.511 14.4242,248.704 16.6167,249.8 21.0018,249.8 23.1943,248.704 25.3868,246.511 26.483,244.319 " />
<polyline points="34.1568,226.779 34.1568,243.222 35.2531,246.511 37.4456,248.704 40.7343,249.8 42.9268,249.8 46.2156,248.704 48.4081,246.511 49.5044,243.222 49.5044,226.779 " />
<polyline points="62.6594,226.779 62.6594,249.8 " />
<polyline points="54.9856,226.779 70.3332,226.779 " />
<polyline points="81.2957,226.779 79.1032,227.875 76.9107,230.067 75.8145,232.26 74.7182,235.549 74.7182,241.03 75.8145,244.319 76.9107,246.511 79.1032,248.704 81.2957,249.8 85.6807,249.8 87.8733,248.704 90.0658,246.511 91.162,244.319 92.2583,241.03 92.2583,235.549 91.162,232.26 90.0658,230.067 87.8733,227.875 85.6807,226.779 81.2957,226.779 " />
<polyline points="99.9321,226.779 99.9321,249.8 " />
<polyline points="99.9321,226.779 114.183,226.779 " />
<polyline points="99.9321,237.741 108.702,237.741 " />
<polyline points="119.665,226.779 119.665,249.8 " />
<polyline points="119.665,226.779 133.916,226.779 " />
<polyline points="119.665,237.741 128.435,237.741 " />
<polyline points="496.942,69.7321 494.75,70.8284 492.557,73.0209 491.461,76.3096 491.461,78.5022 492.557,81.7909 494.75,83.9834 496.942,85.0797 500.231,85.0797 502.424,83.9834 504.616,81.7909 505.712,78.5022 505.712,76.3096 504.616,73.0209 502.424,70.8284 500.231,69.7321 496.942,69.7321 " />
<polyline points="472.217,133.993 472.217,157.014 " />
<polyline points="472.217,144.955 474.409,142.763 476.602,141.667 479.891,141.667 482.083,142.763 484.276,144.955 485.372,148.244 485.372,150.437 484.276,153.725 482.083,155.918 479.891,157.014 476.602,157.014 474.409,155.918 472.217,153.725 " />
</g>
<g clip-path="url(#clipId0)" fill="rgb(0,0,0)" stroke="rgb(0,0,0)" stroke-width="0.25" >
<path d="M618.305,359.758 618.305,367.432 641.327,363.595 641.327,363.595 z" />
</g>
<g clip-path="url(#clipId0)" fill="none" stroke="rgb(0,0,0)" stroke-width="0.25" >
<polyline points="618.305,363.595 494.978,363.595 " />
<polyline points="494.978,363.595 502.295,363.595 " />
<polyline points="587.744,317.915 585.551,319.011 583.358,321.204 582.262,323.396 581.166,326.685 581.166,332.166 582.262,335.455 583.358,337.648 585.551,339.84 587.744,340.936 592.129,340.936 594.321,339.84 596.514,337.648 597.61,335.455 598.706,332.166 598.706,326.685 597.61,323.396 596.514,321.204 594.321,319.011 592.129,317.915 587.744,317.915 " />
<polyline points="591.032,336.551 597.61,343.129 " />
</g>
<g clip-path="url(#clipId0)" fill="rgb(0,0,0)" stroke="rgb(0,0,0)" stroke-width="0.25" >
<path d="M551.422,414.347 555.661,407.95 534.351,398.433 534.351,398.433 z" />
</g>
<g clip-path="url(#clipId0)" fill="none" stroke="rgb(0,0,0)" stroke-width="0.25" >
<polyline points="553.542,411.148 610.443,448.85 " />
<polyline points="610.443,448.85 648.812,448.85 " />
<polyline points="667.01,437.339 667.01,460.36 " />
<polyline points="682.358,437.339 682.358,460.36 " />
<polyline points="667.01,448.302 682.358,448.302 " />
<polyline points="713.053,445.013 725.111,460.36 " />
<polyline points="725.111,445.013 713.053,460.36 " />
<polyline points="753.614,437.339 759.095,460.36 " />
<polyline points="764.577,437.339 759.095,460.36 " />
<polyline points="764.577,437.339 770.058,460.36 " />
<polyline points="775.539,437.339 770.058,460.36 " />
<polyline points="534.351,179.17 534.351,100.393 " />
<polyline points="513.501,214.421 513.501,135.644 " />
<polyline points="534.351,100.393 534.351,65.7314 " />
<polyline points="725.19,352.26 725.19,375.282 " />
<polyline points="725.19,352.26 739.441,352.26 " />
<polyline points="725.19,363.223 733.96,363.223 " />
<polyline points="744.923,352.26 744.923,375.282 " />
<polyline points="744.923,352.26 754.789,352.26 758.078,353.356 759.174,354.453 760.27,356.645 760.27,358.838 759.174,361.03 758.078,362.126 754.789,363.223 744.923,363.223 " />
<polyline points="752.596,363.223 760.27,375.282 " />
<polyline points="767.944,352.26 767.944,375.282 " />
<polyline points="767.944,352.26 782.195,352.26 " />
<polyline points="767.944,363.223 776.714,363.223 " />
<polyline points="767.944,375.282 782.195,375.282 " />
<polyline points="788.773,352.26 788.773,375.282 " />
<polyline points="788.773,352.26 803.024,352.26 " />
<polyline points="788.773,363.223 797.543,363.223 " />
<polyline points="788.773,375.282 803.024,375.282 " />
<polyline points="832.623,352.26 832.623,375.282 " />
<polyline points="832.623,352.26 840.297,352.26 843.586,353.356 845.778,355.549 846.874,357.741 847.971,361.03 847.971,366.511 846.874,369.8 845.778,371.993 843.586,374.185 840.297,375.282 832.623,375.282 " />
<polyline points="855.644,352.26 855.644,375.282 " />
<polyline points="878.666,355.549 876.473,353.356 873.184,352.26 868.799,352.26 865.511,353.356 863.318,355.549 863.318,357.741 864.414,359.934 865.511,361.03 867.703,362.126 874.281,364.319 876.473,365.415 877.569,366.511 878.666,368.704 878.666,371.993 876.473,374.185 873.184,375.282 868.799,375.282 865.511,374.185 863.318,371.993 " />
<polyline points="901.687,357.741 900.591,355.549 898.398,353.356 896.206,352.26 891.821,352.26 889.628,353.356 887.436,355.549 886.339,357.741 885.243,361.03 885.243,366.511 886.339,369.8 887.436,371.993 889.628,374.185 891.821,375.282 896.206,375.282 898.398,374.185 900.591,371.993 901.687,369.8 " />
<polyline points="909.361,352.26 909.361,375.282 " />
<polyline points="924.708,352.26 924.708,375.282 " />
<polyline points="909.361,363.223 924.708,363.223 " />
<polyline points="938.96,352.26 930.19,375.282 " />
<polyline points="938.96,352.26 947.73,375.282 " />
<polyline points="933.478,367.608 944.441,367.608 " />
<polyline points="953.211,352.26 953.211,375.282 " />
<polyline points="953.211,352.26 963.077,352.26 966.366,353.356 967.462,354.453 968.559,356.645 968.559,358.838 967.462,361.03 966.366,362.126 963.077,363.223 953.211,363.223 " />
<polyline points="960.885,363.223 968.559,375.282 " />
<polyline points="991.58,357.741 990.484,355.549 988.291,353.356 986.099,352.26 981.714,352.26 979.521,353.356 977.329,355.549 976.232,357.741 975.136,361.03 975.136,366.511 976.232,369.8 977.329,371.993 979.521,374.185 981.714,375.282 986.099,375.282 988.291,374.185 990.484,371.993 991.58,369.8 991.58,366.511 " />
<polyline points="986.099,366.511 991.58,366.511 " />
<polyline points="999.254,352.26 999.254,375.282 " />
<polyline points="999.254,352.26 1013.5,352.26 " />
<polyline points="999.254,363.223 1008.02,363.223 " />
<polyline points="999.254,375.282 1013.5,375.282 " />
<polyline points="883.726,684.598 880.51,681.383 875.687,679.775 869.255,679.775 864.432,681.383 861.216,684.598 861.216,687.814 862.824,691.03 864.432,692.638 867.647,694.245 877.294,697.461 880.51,699.069 882.118,700.677 883.726,703.892 883.726,708.716 880.51,711.932 875.687,713.539 869.255,713.539 864.432,711.932 861.216,708.716 " />
<polyline points="894.981,679.775 894.981,713.539 " />
<polyline points="894.981,679.775 909.451,679.775 914.275,681.383 915.883,682.991 917.49,686.206 917.49,689.422 915.883,692.638 914.275,694.245 909.451,695.853 894.981,695.853 " />
<polyline points="906.236,695.853 917.49,713.539 " />
<polyline points="949.647,679.775 933.569,713.539 " />
<polyline points="927.137,679.775 949.647,679.775 " />
<polyline points="960.902,699.069 989.843,699.069 " />
<polyline points="1005.92,686.206 1009.14,684.598 1013.96,679.775 1013.96,713.539 " />
</g>
</svg>
