<?xml version="1.0" standalone="no"?>
<svg viewBox="0 0 1024 768" version="1.1" xmlns="http://www.w3.org/2000/svg" xmlns:xlink="http://www.w3.org/1999/xlink" stroke-linecap="round" stroke-linejoin="round" fill-rule="evenodd" xml:space="preserve" >
<defs >
<clipPath id="clipId0" >
<path d="M0,768 1024,768 1024,0 0,0 z" />
</clipPath>
</defs>
<g clip-path="url(#clipId0)" fill="none" stroke="rgb(0,0,0)" stroke-width="0.1" />
<g clip-path="url(#clipId0)" fill="none" stroke="rgb(0,0,0)" stroke-width="0.25" >
<polyline points="177.163,80.6682 177.163,173.65 " />
</g>
<g clip-path="url(#clipId0)" fill="rgb(0,0,0)" stroke="rgb(0,0,0)" stroke-width="0.25" >
<path d="M180.522,80.6682 173.803,80.6682 177.163,60.5111 177.163,60.5111 z" />
</g>
<g clip-path="url(#clipId0)" fill="none" stroke="rgb(0,0,0)" stroke-width="0.25" >
<polyline points="210.758,412.233 210.758,496.036 " />
<polyline points="143.567,412.233 143.567,428.846 " />
<circle cx="143.567" cy="496.036" r="33.5951" />
<path d="M143.567,428.846  A67.1902,67.1902 0 1,0 210.758,496.036 " />
<polyline points="143.567,412.233 210.758,412.233 " />
<polyline points="108.025,210.662 246.3,210.662 " />
<polyline points="210.758,412.233 246.3,210.662 " />
<polyline points="143.567,412.233 108.025,210.662 " />
<circle cx="143.567" cy="496.036" r="40.3141" />
<circle cx="143.567" cy="496.036" r="6.71902" />
<polyline points="585.808,563.227 652.998,563.227 " />
<polyline points="585.808,412.233 652.998,412.233 " />
<polyline points="585.808,563.227 585.808,412.233 " />
<polyline points="652.998,563.227 652.998,412.233 " />
<polyline points="561.843,489.317 585.808,489.317 " />
<polyline points="561.843,502.755 585.808,502.755 " />
<polyline points="561.843,502.755 561.843,489.317 " />
<path d="M652.998,462.441  A6.71902,6.71902 0 0,0 659.717,455.722 " />
<path d="M659.717,536.351  A6.71902,6.71902 0 0,0 652.998,529.632 " />
<polyline points="659.717,455.722 659.717,536.351 " />
<polyline points="527.665,496.036 711.142,496.036 " stroke-dasharray="83.987784,16.797557,16.797557,16.797557" />
</g>
<g clip-path="url(#clipId0)" fill="rgb(0,0,0)" stroke="rgb(0,0,0)" stroke-width="0.25" >
<path d="M634.235,196.605 628.874,192.554 619.403,210.662 619.403,210.662 z" />
</g>
<g clip-path="url(#clipId0)" fill="none" stroke="rgb(0,0,0)" stroke-width="0.25" >
<polyline points="631.555,194.579 704.21,98.4194 " />
<polyline points="704.21,98.4194 724.367,98.4194 " />
<polyline points="704.21,299.99 724.367,299.99 " />
<polyline points="631.555,396.15 704.21,299.99 " />
</g>
<g clip-path="url(#clipId0)" fill="rgb(0,0,0)" stroke="rgb(0,0,0)" stroke-width="0.25" >
<path d="M634.235,398.175 628.874,394.125 619.403,412.233 619.403,412.233 z" />
</g>
<g clip-path="url(#clipId0)" fill="none" stroke="rgb(0,0,0)" stroke-width="0.25" >
<polyline points="51.829,496.036 235.306,496.036 " stroke-dasharray="83.987784,16.797557,16.797557,16.797557" />
<polyline points="143.567,587.775 143.567,404.298 " stroke-dasharray="83.987784,16.797557,16.797557,16.797557" />
<polyline points="550.266,210.662 688.541,210.662 " />
<polyline points="585.808,412.233 550.266,210.662 " />
<polyline points="652.998,412.233 688.541,210.662 " />
<polyline points="60.6843,7.52941 60.6843,27.6865 " />
<polyline points="60.6843,7.52941 73.1625,7.52941 " />
<polyline points="60.6843,17.128 68.3632,17.128 " />
<polyline points="77.9618,7.52941 77.9618,27.6865 " />
<polyline points="77.9618,7.52941 86.6006,7.52941 89.4801,8.48927 90.44,9.44913 91.3999,11.3689 91.3999,13.2886 90.44,15.2083 89.4801,16.1682 86.6006,17.128 77.9618,17.128 " />
<polyline points="84.6808,17.128 91.3999,27.6865 " />
<polyline points="98.1189,7.52941 98.1189,27.6865 " />
<polyline points="98.1189,7.52941 110.597,7.52941 " />
<polyline points="98.1189,17.128 105.798,17.128 " />
<polyline points="98.1189,27.6865 110.597,27.6865 " />
<polyline points="116.356,7.52941 116.356,27.6865 " />
<polyline points="116.356,7.52941 128.834,7.52941 " />
<polyline points="116.356,17.128 124.035,17.128 " />
<polyline points="116.356,27.6865 128.834,27.6865 " />
<polyline points="154.751,7.52941 154.751,27.6865 " />
<polyline points="154.751,7.52941 161.47,7.52941 164.349,8.48927 166.269,10.409 167.229,12.3287 168.189,15.2083 168.189,20.0076 167.229,22.8872 166.269,24.8069 164.349,26.7266 161.47,27.6865 154.751,27.6865 " />
<polyline points="174.908,7.52941 174.908,27.6865 " />
<polyline points="195.065,10.409 193.145,8.48927 190.265,7.52941 186.426,7.52941 183.546,8.48927 181.627,10.409 181.627,12.3287 182.587,14.2484 183.546,15.2083 185.466,16.1682 191.225,18.0879 193.145,19.0477 194.105,20.0076 195.065,21.9273 195.065,24.8069 193.145,26.7266 190.265,27.6865 186.426,27.6865 183.546,26.7266 181.627,24.8069 " />
<polyline points="215.222,12.3287 214.262,10.409 212.342,8.48927 210.423,7.52941 206.583,7.52941 204.663,8.48927 202.744,10.409 201.784,12.3287 200.824,15.2083 200.824,20.0076 201.784,22.8872 202.744,24.8069 204.663,26.7266 206.583,27.6865 210.423,27.6865 212.342,26.7266 214.262,24.8069 215.222,22.8872 " />
<polyline points="221.941,7.52941 221.941,27.6865 " />
<polyline points="235.379,7.52941 235.379,27.6865 " />
<polyline points="221.941,17.128 235.379,17.128 " />
<polyline points="247.857,7.52941 240.178,27.6865 " />
<polyline points="247.857,7.52941 255.536,27.6865 " />
<polyline points="243.058,20.9675 252.656,20.9675 " />
<polyline points="260.335,7.52941 260.335,27.6865 " />
<polyline points="260.335,7.52941 268.974,7.52941 271.854,8.48927 272.813,9.44913 273.773,11.3689 273.773,13.2886 272.813,15.2083 271.854,16.1682 268.974,17.128 260.335,17.128 " />
<polyline points="267.054,17.128 273.773,27.6865 " />
<polyline points="293.93,12.3287 292.971,10.409 291.051,8.48927 289.131,7.52941 285.292,7.52941 283.372,8.48927 281.452,10.409 280.492,12.3287 279.532,15.2083 279.532,20.0076 280.492,22.8872 281.452,24.8069 283.372,26.7266 285.292,27.6865 289.131,27.6865 291.051,26.7266 292.971,24.8069 293.93,22.8872 293.93,20.0076 " />
<polyline points="289.131,20.0076 293.93,20.0076 " />
<polyline points="300.649,7.52941 300.649,27.6865 " />
<polyline points="300.649,7.52941 313.128,7.52941 " />
<polyline points="300.649,17.128 308.328,17.128 " />
<polyline points="300.649,27.6865 313.128,27.6865 " />
<polyline points="202.687,112.299 200.767,113.259 198.847,115.179 197.887,117.099 196.927,119.978 196.927,124.777 197.887,127.657 198.847,129.577 200.767,131.496 202.687,132.456 206.526,132.456 208.446,131.496 210.365,129.577 211.325,127.657 212.285,124.777 212.285,119.978 211.325,117.099 210.365,115.179 208.446,113.259 206.526,112.299 202.687,112.299 " />
<polyline points="205.566,128.617 211.325,134.376 " />
<polyline points="541.867,210.662 447.848,210.662 " />
<polyline points="577.409,412.233 447.848,412.233 " />
<polyline points="472.036,230.819 472.036,289.275 " />
<polyline points="472.036,392.076 472.036,333.62 " />
</g>
<g clip-path="url(#clipId0)" fill="rgb(0,0,0)" stroke="rgb(0,0,0)" stroke-width="0.25" >
<path d="M468.677,230.819 475.396,230.819 472.036,210.662 472.036,210.662 z" />
<path d="M468.677,392.076 475.396,392.076 472.036,412.233 472.036,412.233 z" />
</g>
<g clip-path="url(#clipId0)" fill="none" stroke="rgb(0,0,0)" stroke-width="0.25" >
<polyline points="466.277,301.369 466.277,321.526 477.795,321.526 " />
<polyline points="778.582,314.168 776.662,314.808 775.382,316.727 774.742,319.927 774.742,321.847 775.382,325.046 776.662,326.966 778.582,327.606 779.862,327.606 781.781,326.966 783.061,325.046 783.701,321.847 783.701,319.927 783.061,316.727 781.781,314.808 779.862,314.168 778.582,314.168 " />
<polyline points="853.174,314.168 851.254,314.808 849.974,316.727 849.334,319.927 849.334,321.847 849.974,325.046 851.254,326.966 853.174,327.606 854.454,327.606 856.373,326.966 857.653,325.046 858.293,321.847 858.293,319.927 857.653,316.727 856.373,314.808 854.454,314.168 853.174,314.168 " />
<polyline points="947.534,314.168 945.615,314.808 944.335,316.727 943.695,319.927 943.695,321.847 944.335,325.046 945.615,326.966 947.534,327.606 948.814,327.606 950.734,326.966 952.014,325.046 952.654,321.847 952.654,319.927 952.014,316.727 950.734,314.808 948.814,314.168 947.534,314.168 " />
<polyline points="776.662,115.761 777.942,115.121 779.862,113.202 779.862,126.64 " />
<polyline points="851.254,113.002 852.534,112.362 854.454,110.443 854.454,123.881 " />
<polyline points="948.375,110.243 949.655,109.603 951.575,107.684 951.575,121.122 " />
<polyline points="175.305,230.635 173.385,231.595 171.465,233.514 170.505,235.434 169.546,238.314 169.546,243.113 170.505,245.992 171.465,247.912 173.385,249.832 175.305,250.792 179.144,250.792 181.064,249.832 182.984,247.912 183.943,245.992 184.903,243.113 184.903,238.314 183.943,235.434 182.984,233.514 181.064,231.595 179.144,230.635 175.305,230.635 " />
</g>
<g clip-path="url(#clipId0)" fill="rgb(0,0,0)" stroke="rgb(0,0,0)" stroke-width="0.25" >
<path d="M219.658,246.26 220.64,239.613 240.09,245.883 240.09,245.883 z" />
<path d="M134.667,246.26 133.685,239.613 114.235,245.883 114.235,245.883 z" />
</g>
<g clip-path="url(#clipId0)" fill="none" stroke="rgb(0,0,0)" stroke-width="0.25" >
<path d="M147.539,241.591  A362.382,362.382 0 0,0 134.176,242.937 " />
<polyline points="168.024,240.505 186.301,240.505 " />
<path d="M220.149,242.937  A362.382,362.382 0 0,0 194.913,240.813 " />
<polyline points="759.082,88.2275 751.403,108.385 " />
<polyline points="759.082,88.2275 766.761,108.385 " />
<polyline points="754.283,101.666 763.881,101.666 " />
<polyline points="818.593,84.3881 816.674,86.3078 814.754,89.1874 812.834,93.0268 811.874,97.8261 811.874,101.666 812.834,106.465 814.754,110.304 816.674,113.184 818.593,115.104 " />
<polyline points="823.393,88.2275 828.192,108.385 " />
<polyline points="832.991,88.2275 828.192,108.385 " />
<polyline points="832.991,88.2275 837.791,108.385 " />
<polyline points="842.59,88.2275 837.791,108.385 " />
<polyline points="887.703,94.9465 898.262,108.385 " />
<polyline points="898.262,94.9465 887.703,108.385 " />
<polyline points="925.138,88.2275 925.138,108.385 " />
<polyline points="938.576,88.2275 938.576,108.385 " />
<polyline points="925.138,97.8261 938.576,97.8261 " />
<polyline points="965.452,84.3881 967.372,86.3078 969.291,89.1874 971.211,93.0268 972.171,97.8261 972.171,101.666 971.211,106.465 969.291,110.304 967.372,113.184 965.452,115.104 " />
<polyline points="756.321,289.636 748.642,309.793 " />
<polyline points="756.321,289.636 764,309.793 " />
<polyline points="751.522,303.074 761.12,303.074 " />
<polyline points="815.833,285.796 813.913,287.716 811.993,290.596 810.073,294.435 809.113,299.234 809.113,303.074 810.073,307.873 811.993,311.713 813.913,314.592 815.833,316.512 " />
<polyline points="820.632,289.636 825.431,309.793 " />
<polyline points="830.23,289.636 825.431,309.793 " />
<polyline points="830.23,289.636 835.03,309.793 " />
<polyline points="839.829,289.636 835.03,309.793 " />
<polyline points="884.942,296.355 895.501,309.793 " />
<polyline points="895.501,296.355 884.942,309.793 " />
<polyline points="922.377,289.636 922.377,309.793 " />
<polyline points="935.815,289.636 935.815,309.793 " />
<polyline points="922.377,299.234 935.815,299.234 " />
<polyline points="962.691,285.796 964.611,287.716 966.531,290.596 968.45,294.435 969.41,299.234 969.41,303.074 968.45,307.873 966.531,311.713 964.611,314.592 962.691,316.512 " />
<polyline points="848.92,735.13 846.104,732.315 841.881,730.907 836.249,730.907 832.026,732.315 829.21,735.13 829.21,737.946 830.618,740.761 832.026,742.169 834.842,743.577 843.288,746.393 846.104,747.8 847.512,749.208 848.92,752.024 848.92,756.247 846.104,759.063 841.881,760.471 836.249,760.471 832.026,759.063 829.21,756.247 " />
<polyline points="858.774,730.907 858.774,760.471 " />
<polyline points="858.774,730.907 871.444,730.907 875.668,732.315 877.076,733.722 878.483,736.538 878.483,739.354 877.076,742.169 875.668,743.577 871.444,744.985 858.774,744.985 " />
<polyline points="868.629,744.985 878.483,760.471 " />
<polyline points="906.639,730.907 892.561,760.471 " />
<polyline points="886.93,730.907 906.639,730.907 " />
<polyline points="916.494,747.8 941.834,747.8 " />
<polyline points="954.504,730.907 969.99,730.907 961.543,742.169 965.767,742.169 968.582,743.577 969.99,744.985 971.398,749.208 971.398,752.024 969.99,756.247 967.174,759.063 962.951,760.471 958.728,760.471 954.504,759.063 953.096,757.655 951.689,754.839 " />
<path d="M159.412,240.813  A362.382,362.382 0 0,0 134.176,242.937 " />
<path d="M601.652,240.813  A362.382,362.382 0 0,0 576.417,242.937 " />
<path d="M662.39,242.937  A362.382,362.382 0 0,0 637.154,240.813 " />
<polyline points="610.264,240.505 628.542,240.505 " />
<path d="M589.78,241.591  A362.382,362.382 0 0,0 576.417,242.937 " />
</g>
<g clip-path="url(#clipId0)" fill="rgb(0,0,0)" stroke="rgb(0,0,0)" stroke-width="0.25" >
<path d="M576.908,246.26 575.925,239.613 556.476,245.883 556.476,245.883 z" />
<path d="M661.899,246.26 662.881,239.613 682.33,245.883 682.33,245.883 z" />
</g>
<g clip-path="url(#clipId0)" fill="none" stroke="rgb(0,0,0)" stroke-width="0.25" >
<polyline points="617.545,230.635 615.626,231.595 613.706,233.514 612.746,235.434 611.786,238.314 611.786,243.113 612.746,245.992 613.706,247.912 615.626,249.832 617.545,250.792 621.385,250.792 623.304,249.832 625.224,247.912 626.184,245.992 627.144,243.113 627.144,238.314 626.184,235.434 625.224,233.514 623.304,231.595 621.385,230.635 617.545,230.635 " />
</g>
</svg>
