<?xml version="1.0" standalone="no"?>
<svg viewBox="0 0 1024 768" version="1.1" xmlns="http://www.w3.org/2000/svg" xmlns:xlink="http://www.w3.org/1999/xlink" stroke-linecap="round" stroke-linejoin="round" fill-rule="evenodd" xml:space="preserve" >
<defs >
<clipPath id="clipId0" >
<path d="M0,768 1024,768 1024,0 0,0 z" />
</clipPath>
</defs>
<g clip-path="url(#clipId0)" fill="none" stroke="rgb(0,0,0)" stroke-width="0.1" />
<g clip-path="url(#clipId0)" fill="none" stroke="rgb(0,0,0)" stroke-width="0.25" >
<polyline points="472.291,173.457 472.291,79.1202 " />
<polyline points="472.291,79.1202 390.592,31.9517 " />
<polyline points="390.592,31.9517 390.592,126.289 " />
<polyline points="390.592,126.289 472.291,173.457 " />
<polyline points="513.14,79.1202 594.838,31.9517 " />
<polyline points="594.838,31.9517 594.838,126.289 " />
<polyline points="594.838,126.289 513.14,173.457 " />
<polyline points="513.14,173.457 513.14,79.1202 " />
<polyline points="492.715,7.52941 489.635,7.54844 486.555,7.60552 483.476,7.70064 480.399,7.8338 477.323,8.00496 474.25,8.21411 471.18,8.46121 468.113,8.74622 465.049,9.0691 461.99,9.4298 458.936,9.82826 455.887,10.2644 452.843,10.7382 449.805,11.2496 446.774,11.7985 443.75,12.3848 440.734,13.0083 437.725,13.6691 434.725,14.3671 434.725,14.3671 432.289,14.9692 429.863,15.6082 427.447,16.2841 425.041,16.9967 422.646,17.7457 420.263,18.531 417.893,19.3525 415.535,20.21 413.19,21.1031 410.859,22.0319 408.543,22.9959 406.241,23.9951 403.955,25.0291 401.685,26.0978 399.431,27.2008 397.195,28.338 394.976,29.5091 392.775,30.7137 390.592,31.9517 " />
<polyline points="594.838,31.9517 592.655,30.7137 590.455,29.5091 588.236,28.338 585.999,27.2008 583.745,26.0978 581.475,25.0291 579.189,23.9951 576.888,22.9959 574.571,22.0319 572.24,21.1031 569.896,20.21 567.538,19.3525 565.167,18.531 562.784,17.7457 560.389,16.9967 557.983,16.2841 555.567,15.6082 553.141,14.9692 550.705,14.3671 550.705,14.3671 547.705,13.6691 544.696,13.0083 541.68,12.3848 538.656,11.7985 535.625,11.2496 532.587,10.7382 529.544,10.2644 526.494,9.82826 523.44,9.4298 520.381,9.0691 517.318,8.74622 514.25,8.46121 511.18,8.21411 508.107,8.00496 505.031,7.8338 501.954,7.70064 498.875,7.60552 495.795,7.54844 492.715,7.52941 " />
<polyline points="492.715,74.2357 491.415,74.2527 490.115,74.3035 488.817,74.3883 487.522,74.5068 486.231,74.6591 484.943,74.845 483.662,75.0645 482.386,75.3173 481.117,75.6032 481.117,75.6032 480.091,75.8661 479.074,76.1618 478.066,76.49 477.07,76.8503 476.086,77.2424 475.115,77.6659 474.158,78.1204 473.216,78.6053 472.291,79.1202 " />
<polyline points="513.14,79.1202 512.214,78.6053 511.272,78.1204 510.315,77.6659 509.344,77.2424 508.36,76.8503 507.364,76.49 506.357,76.1618 505.339,75.8661 504.313,75.6032 504.313,75.6032 503.044,75.3173 501.769,75.0645 500.487,74.845 499.2,74.6591 497.908,74.5068 496.613,74.3883 495.315,74.3035 494.016,74.2527 492.715,74.2357 " />
<polyline points="513.14,173.457 512.214,172.942 511.272,172.457 510.315,172.003 509.344,171.579 508.36,171.187 507.364,170.827 506.357,170.499 505.339,170.203 504.313,169.94 504.313,169.94 503.044,169.654 501.769,169.401 500.487,169.182 499.2,168.996 497.908,168.844 496.613,168.725 495.315,168.64 494.016,168.59 492.715,168.573 " />
<polyline points="492.715,168.573 491.415,168.59 490.115,168.64 488.817,168.725 487.522,168.844 486.231,168.996 484.943,169.182 483.662,169.401 482.386,169.654 481.117,169.94 481.117,169.94 480.091,170.203 479.074,170.499 478.066,170.827 477.07,171.187 476.086,171.579 475.115,172.003 474.158,172.457 473.216,172.942 472.291,173.457 " />
<polyline points="472.291,102.704 469.13,102.984 465.973,103.305 462.82,103.665 459.672,104.066 456.53,104.506 453.393,104.987 450.263,105.507 447.14,106.067 444.024,106.667 440.916,107.307 437.816,107.986 434.725,108.704 434.725,108.704 432.289,109.306 429.863,109.945 427.447,110.621 425.041,111.334 422.646,112.083 420.263,112.868 417.893,113.689 415.535,114.547 413.19,115.44 410.859,116.369 408.543,117.333 406.241,118.332 403.955,119.366 401.685,120.435 399.431,121.538 397.195,122.675 394.976,123.846 392.775,125.051 390.592,126.289 " />
<polyline points="594.838,126.289 592.655,125.051 590.455,123.846 588.236,122.675 585.999,121.538 583.745,120.435 581.475,119.366 579.189,118.332 576.888,117.333 574.571,116.369 572.24,115.44 569.896,114.547 567.538,113.689 565.167,112.868 562.784,112.083 560.389,111.334 557.983,110.621 555.567,109.945 553.141,109.306 550.705,108.704 550.705,108.704 547.614,107.986 544.515,107.307 541.407,106.667 538.291,106.067 535.167,105.507 532.037,104.987 528.9,104.506 525.758,104.066 522.61,103.665 519.457,103.305 516.3,102.984 513.14,102.704 " />
<polyline points="466.752,82.3179 302.061,177.402 " stroke-dasharray="17.688177,8.844089" />
<polyline points="385.054,35.1494 220.363,130.234 " stroke-dasharray="17.688177,8.844089" />
<polyline points="466.752,176.655 302.061,271.739 " stroke-dasharray="17.688177,8.844089" />
<polyline points="164.762,317.656 163.803,319.355 162.877,321.072 161.986,322.807 161.128,324.56 160.305,326.328 159.517,328.113 158.763,329.912 158.045,331.726 157.363,333.554 156.717,335.394 156.106,337.247 155.532,339.112 155.532,339.112 155.098,340.64 154.701,342.179 154.34,343.727 154.018,345.282 153.732,346.846 153.485,348.415 153.275,349.99 153.103,351.57 152.969,353.154 152.874,354.74 152.816,356.328 152.797,357.917 152.797,357.917 152.817,359.196 152.875,360.473 152.972,361.749 153.107,363.021 153.282,364.288 153.494,365.549 153.745,366.804 154.033,368.05 154.36,369.287 154.723,370.513 155.124,371.728 155.561,372.93 156.035,374.118 156.545,375.291 156.545,375.291 156.929,376.092 157.348,376.875 157.802,377.639 158.289,378.382 158.809,379.103 159.36,379.799 159.942,380.471 160.553,381.116 161.192,381.733 161.857,382.322 162.549,382.88 163.264,383.406 164.002,383.901 164.762,384.362 164.762,384.362 165.541,384.789 166.338,385.181 167.152,385.537 167.981,385.857 168.823,386.139 169.677,386.384 170.541,386.591 171.414,386.759 172.293,386.888 173.177,386.978 174.064,387.028 174.952,387.039 175.84,387.011 176.726,386.943 176.726,386.943 177.997,386.797 179.263,386.613 180.522,386.391 181.775,386.131 183.019,385.833 184.253,385.497 185.476,385.124 186.688,384.714 187.886,384.267 189.071,383.784 190.24,383.266 191.393,382.712 192.529,382.124 193.646,381.501 193.646,381.501 195.013,380.69 196.359,379.846 197.685,378.97 198.99,378.063 200.272,377.124 201.531,376.155 202.767,375.156 203.978,374.127 205.164,373.069 206.324,371.984 207.458,370.87 208.564,369.73 208.564,369.73 209.892,368.3 211.192,366.845 212.462,365.365 213.704,363.861 214.916,362.332 216.098,360.78 217.249,359.205 218.369,357.608 219.458,355.989 220.515,354.349 221.539,352.689 222.531,351.009 222.531,351.009 223.49,349.31 224.415,347.593 225.307,345.858 226.164,344.105 226.988,342.337 227.776,340.552 228.529,338.753 229.247,336.939 229.93,335.111 230.576,333.271 231.186,331.418 231.76,329.553 231.76,329.553 232.195,328.025 232.592,326.486 232.952,324.938 233.275,323.382 233.56,321.819 233.808,320.25 234.018,318.674 234.19,317.095 234.323,315.511 234.419,313.925 234.476,312.337 234.495,310.748 234.495,310.748 234.476,309.469 234.418,308.191 234.321,306.916 234.185,305.644 234.011,304.377 233.799,303.116 233.548,301.861 233.259,300.615 232.933,299.378 232.569,298.152 232.169,296.937 231.731,295.735 231.258,294.547 230.748,293.374 230.748,293.374 230.364,292.573 229.945,291.79 229.491,291.026 229.004,290.283 228.484,289.562 227.933,288.865 227.351,288.194 226.74,287.549 226.101,286.932 225.435,286.343 224.744,285.785 224.028,285.258 223.29,284.764 222.531,284.303 222.531,284.303 221.752,283.876 220.955,283.484 220.141,283.128 219.312,282.808 218.469,282.525 217.615,282.281 216.751,282.074 215.879,281.906 215,281.777 214.116,281.687 213.229,281.637 212.34,281.626 211.452,281.654 210.567,281.722 210.567,281.722 209.296,281.868 208.03,282.051 206.77,282.274 205.518,282.534 204.274,282.832 203.04,283.168 201.816,283.541 200.605,283.951 199.406,284.398 198.222,284.881 197.052,285.399 195.899,285.953 194.764,286.541 193.646,287.164 193.646,287.164 192.28,287.975 190.933,288.819 189.607,289.695 188.303,290.602 187.021,291.541 185.762,292.51 184.526,293.509 183.315,294.538 182.129,295.595 180.969,296.681 179.835,297.795 178.728,298.935 178.728,298.935 177.401,300.364 176.101,301.819 174.83,303.3 173.589,304.804 172.377,306.333 171.195,307.885 170.044,309.46 168.924,311.057 167.835,312.676 166.778,314.316 165.754,315.976 164.762,317.656 " />
<polyline points="135.877,434.392 54.1788,387.223 " />
<polyline points="54.1788,253.811 52.8182,256.205 51.4908,258.619 50.1969,261.05 48.9367,263.499 47.7104,265.965 46.5182,268.448 45.3605,270.947 44.2373,273.461 43.1491,275.991 42.0958,278.536 41.0778,281.095 40.0952,283.668 39.1482,286.254 38.237,288.853 37.3618,291.465 36.5228,294.088 35.72,296.723 35.72,296.723 35.0993,298.878 34.5152,301.044 33.9681,303.22 33.458,305.405 32.9851,307.598 32.5495,309.798 32.1513,312.006 31.7908,314.22 31.4679,316.44 31.1828,318.666 30.9355,320.895 30.7261,323.129 30.5548,325.366 30.4214,327.605 30.3262,329.846 30.269,332.089 30.2499,334.332 30.2499,334.332 30.271,336.217 30.3342,338.101 30.4395,339.983 30.5869,341.863 30.7763,343.738 31.0075,345.609 31.2806,347.474 31.5952,349.333 31.9513,351.184 32.3488,353.026 32.7873,354.86 33.2667,356.683 33.7868,358.495 34.3472,360.295 34.9478,362.081 35.5881,363.854 36.268,365.612 36.9869,367.355 37.7447,369.081 37.7447,369.081 38.275,370.206 38.84,371.314 39.4393,372.404 40.0721,373.475 40.738,374.526 41.4363,375.555 42.1662,376.562 42.9271,377.546 43.7183,378.506 44.5389,379.441 45.3882,380.35 46.2654,381.232 47.1696,382.086 48.0999,382.912 49.0555,383.708 50.0354,384.474 51.0387,385.21 52.0643,385.913 53.1113,386.585 54.1788,387.223 " />
<polyline points="111.948,192.827 110.015,193.965 108.101,195.136 106.208,196.339 104.335,197.574 102.484,198.841 100.654,200.139 98.8466,201.468 97.0621,202.828 95.3009,204.218 93.5636,205.637 91.8507,207.086 90.1626,208.563 88.4999,210.069 86.863,211.603 85.2524,213.165 83.6686,214.754 82.112,216.369 82.112,216.369 80.2318,218.382 78.3796,220.42 76.5556,222.484 74.7604,224.572 72.9941,226.685 71.2572,228.823 69.55,230.984 67.8728,233.169 66.2259,235.376 64.6096,237.606 63.0243,239.858 61.4702,242.132 59.9477,244.427 58.457,246.743 56.9985,249.079 55.5723,251.435 54.1788,253.811 " />
<polyline points="135.877,300.979 134.516,303.374 133.189,305.787 131.895,308.218 130.635,310.667 129.409,313.133 128.216,315.616 127.059,318.115 125.936,320.63 124.847,323.16 123.794,325.705 122.776,328.264 121.793,330.837 120.846,333.423 119.935,336.022 119.06,338.633 118.221,341.256 117.418,343.891 117.418,343.891 116.797,346.047 116.213,348.213 115.666,350.388 115.156,352.573 114.683,354.766 114.248,356.967 113.85,359.175 113.489,361.389 113.166,363.609 112.881,365.834 112.634,368.064 112.424,370.297 112.253,372.534 112.12,374.774 112.024,377.015 111.967,379.258 111.948,381.501 111.948,381.501 111.969,383.386 112.032,385.27 112.138,387.152 112.285,389.031 112.474,390.907 112.706,392.777 112.979,394.643 113.293,396.501 113.65,398.352 114.047,400.195 114.486,402.028 114.965,403.851 115.485,405.663 116.045,407.463 116.646,409.25 117.286,411.023 117.966,412.781 118.685,414.523 119.443,416.249 119.443,416.249 119.973,417.375 120.538,418.483 121.137,419.573 121.77,420.644 122.436,421.694 123.134,422.724 123.864,423.731 124.625,424.715 125.416,425.675 126.237,426.61 127.086,427.518 127.964,428.4 128.868,429.254 129.798,430.08 130.754,430.876 131.734,431.643 132.737,432.378 133.762,433.082 134.81,433.753 135.877,434.392 135.877,434.392 136.964,434.997 138.069,435.568 139.191,436.104 140.33,436.606 141.483,437.071 142.65,437.5 143.831,437.893 145.023,438.249 146.225,438.568 147.437,438.849 148.656,439.092 149.883,439.298 151.116,439.465 152.353,439.593 153.594,439.683 154.837,439.734 156.08,439.747 157.324,439.721 158.566,439.656 159.806,439.553 159.806,439.553 161.679,439.346 163.548,439.098 165.411,438.807 167.266,438.475 169.114,438.102 170.953,437.688 172.782,437.232 174.6,436.736 176.407,436.199 178.202,435.622 179.983,435.004 181.75,434.348 183.502,433.652 185.238,432.916 186.956,432.143 188.658,431.331 190.34,430.481 192.003,429.594 193.646,428.669 193.646,428.669 195.58,427.531 197.493,426.36 199.387,425.157 201.259,423.922 203.111,422.655 204.94,421.357 206.748,420.028 208.532,418.669 210.294,417.279 212.031,415.86 213.744,414.411 215.432,412.933 217.095,411.427 218.731,409.893 220.342,408.331 221.926,406.743 223.482,405.127 223.482,405.127 225.363,403.115 227.215,401.076 229.039,399.013 230.834,396.924 232.6,394.811 234.337,392.674 236.044,390.512 237.722,388.328 239.369,386.12 240.985,383.89 242.57,381.638 244.124,379.364 245.647,377.069 247.137,374.754 248.596,372.417 250.022,370.061 251.416,367.686 251.416,367.686 252.776,365.291 254.104,362.878 255.398,360.447 256.658,357.998 257.884,355.532 259.076,353.049 260.234,350.55 261.357,348.035 262.445,345.505 263.499,342.96 264.517,340.401 265.499,337.828 266.446,335.242 267.357,332.643 268.233,330.032 269.072,327.408 269.874,324.774 269.874,324.774 270.495,322.618 271.079,320.452 271.626,318.276 272.136,316.092 272.609,313.899 273.045,311.698 273.443,309.49 273.804,307.276 274.127,305.056 274.412,302.831 274.659,300.601 274.868,298.368 275.04,296.131 275.173,293.891 275.268,291.65 275.325,289.407 275.344,287.164 " />
<polyline points="193.646,239.996 191.713,241.134 189.799,242.305 187.906,243.508 186.033,244.743 184.182,246.01 182.352,247.308 180.545,248.637 178.76,249.996 176.999,251.386 175.262,252.805 173.549,254.254 171.861,255.732 170.198,257.238 168.561,258.772 166.951,260.333 165.367,261.922 163.81,263.538 163.81,263.538 161.93,265.55 160.078,267.588 158.254,269.652 156.459,271.741 154.692,273.854 152.955,275.991 151.248,278.153 149.571,280.337 147.924,282.545 146.308,284.775 144.722,287.027 143.168,289.3 141.646,291.596 140.155,293.911 138.697,296.248 137.27,298.604 135.877,300.979 " />
<polyline points="296.523,274.937 296.523,180.6 " />
<polyline points="296.523,180.6 214.824,133.431 " />
<polyline points="296.523,274.937 275.344,287.164 " />
<polyline points="296.523,180.6 193.646,239.996 " />
<polyline points="214.824,133.431 111.948,192.827 " />
</g>
<g clip-path="url(#clipId0)" fill="rgb(0,0,0)" stroke="rgb(0,0,0)" stroke-width="0.25" >
<path d="M100.823,280.372 98.4868,284.47 111.948,289.429 111.948,289.429 z" />
</g>
<g clip-path="url(#clipId0)" fill="none" stroke="rgb(0,0,0)" stroke-width="0.25" >
<polyline points="99.6548,282.421 15.605,234.507 " />
<polyline points="289.989,391.52 304.14,391.52 " />
<polyline points="320.986,384.445 320.986,398.595 " />
<polyline points="326.376,384.445 326.376,398.595 " />
<polyline points="326.376,384.445 335.81,398.595 " />
<polyline points="335.81,384.445 335.81,398.595 " />
<polyline points="341.201,384.445 341.201,398.595 349.287,398.595 " />
<polyline points="352.656,384.445 352.656,398.595 " />
<polyline points="352.656,384.445 361.416,384.445 " />
<polyline points="352.656,391.183 358.047,391.183 " />
<polyline points="352.656,398.595 361.416,398.595 " />
<polyline points="368.154,384.445 368.154,398.595 " />
<polyline points="363.437,384.445 372.871,384.445 " />
<polyline points="51.7101,468.659 51.7101,482.81 " />
<polyline points="51.7101,468.659 56.427,468.659 58.4485,469.333 59.7962,470.681 60.47,472.028 61.1438,474.05 61.1438,477.419 60.47,479.441 59.7962,480.788 58.4485,482.136 56.427,482.81 51.7101,482.81 " />
<polyline points="64.513,468.659 67.8822,482.81 " />
<polyline points="71.2514,468.659 67.8822,482.81 " />
<polyline points="71.2514,468.659 74.6205,482.81 " />
<polyline points="77.9897,468.659 74.6205,482.81 " />
<polyline points="82.0327,468.659 82.0327,482.81 " />
<polyline points="82.0327,468.659 86.7496,468.659 88.7711,469.333 90.1188,470.681 90.7926,472.028 91.4664,474.05 91.4664,477.419 90.7926,479.441 90.1188,480.788 88.7711,482.136 86.7496,482.81 82.0327,482.81 " />
<polyline points="96.1833,468.659 96.1833,482.81 " />
<polyline points="125.158,472.028 124.484,470.681 123.137,469.333 121.789,468.659 119.094,468.659 117.746,469.333 116.398,470.681 115.724,472.028 115.051,474.05 115.051,477.419 115.724,479.441 116.398,480.788 117.746,482.136 119.094,482.81 121.789,482.81 123.137,482.136 124.484,480.788 125.158,479.441 " />
<polyline points="129.875,468.659 129.875,482.81 " />
<polyline points="129.875,468.659 138.635,468.659 " />
<polyline points="129.875,475.398 135.266,475.398 " />
<polyline points="129.875,482.81 138.635,482.81 " />
<polyline points="142.678,468.659 142.678,482.81 " />
<polyline points="142.678,468.659 152.112,482.81 " />
<polyline points="152.112,468.659 152.112,482.81 " />
<polyline points="160.198,468.659 160.198,482.81 " />
<polyline points="155.481,468.659 164.914,468.659 " />
<polyline points="168.284,468.659 168.284,482.81 " />
<polyline points="168.284,468.659 174.348,468.659 176.37,469.333 177.044,470.007 177.717,471.355 177.717,472.702 177.044,474.05 176.37,474.724 174.348,475.398 168.284,475.398 " />
<polyline points="173.001,475.398 177.717,482.81 " />
<polyline points="182.434,468.659 182.434,482.81 " />
<polyline points="187.825,468.659 187.825,482.81 " />
<polyline points="187.825,468.659 196.585,468.659 " />
<polyline points="187.825,475.398 193.216,475.398 " />
<polyline points="199.954,468.659 199.954,478.767 200.628,480.788 201.975,482.136 203.997,482.81 205.345,482.81 207.366,482.136 208.714,480.788 209.388,478.767 209.388,468.659 " />
<polyline points="224.212,472.028 223.538,470.681 222.19,469.333 220.843,468.659 218.147,468.659 216.8,469.333 215.452,470.681 214.778,472.028 214.104,474.05 214.104,477.419 214.778,479.441 215.452,480.788 216.8,482.136 218.147,482.81 220.843,482.81 222.19,482.136 223.538,480.788 224.212,479.441 224.212,477.419 " />
<polyline points="220.843,477.419 224.212,477.419 " />
<polyline points="232.298,468.659 226.907,482.81 " />
<polyline points="232.298,468.659 237.689,482.81 " />
<polyline points="228.929,478.093 235.667,478.093 " />
<polyline points="241.058,468.659 241.058,482.81 249.144,482.81 " />
<polyline points="266.664,468.659 266.664,482.81 " />
<polyline points="266.664,468.659 275.423,468.659 " />
<polyline points="266.664,475.398 272.054,475.398 " />
<polyline points="282.162,468.659 276.771,482.81 " />
<polyline points="282.162,468.659 287.553,482.81 " />
<polyline points="278.793,478.093 285.531,478.093 " />
<polyline points="290.922,468.659 290.922,482.81 " />
<polyline points="290.922,468.659 300.355,482.81 " />
<polyline points="300.355,468.659 300.355,482.81 " />
<polyline points="308.738,220.626 367.373,186.219 " />
</g>
<g clip-path="url(#clipId0)" fill="rgb(0,0,0)" stroke="rgb(0,0,0)" stroke-width="0.25" >
<path d="M309.929,222.662 307.548,218.59 296.523,227.768 296.523,227.768 z" />
</g>
<g clip-path="url(#clipId0)" fill="none" stroke="rgb(0,0,0)" stroke-width="0.25" >
<polyline points="460.075,133.431 398.482,169.546 " />
</g>
<g clip-path="url(#clipId0)" fill="rgb(0,0,0)" stroke="rgb(0,0,0)" stroke-width="0.25" >
<path d="M458.884,131.395 461.265,135.467 472.291,126.289 472.291,126.289 z" />
</g>
<g clip-path="url(#clipId0)" fill="none" stroke="rgb(0,0,0)" stroke-width="0.25" >
<polyline points="378.884,170.807 378.884,184.958 386.97,184.958 " />
<polyline points="205.94,343.606 289.989,391.52 " />
</g>
<g clip-path="url(#clipId0)" fill="rgb(0,0,0)" stroke="rgb(0,0,0)" stroke-width="0.25" >
<path d="M204.772,345.655 207.108,341.557 193.646,336.598 193.646,336.598 z" />
</g>
<g clip-path="url(#clipId0)" fill="none" stroke="rgb(0,0,0)" stroke-width="0.25" >
<polyline points="83.0634,270.487 82.1046,272.186 81.1792,273.904 80.2875,275.639 79.43,277.391 78.6068,279.16 77.8185,280.944 77.0652,282.744 76.3472,284.558 75.6649,286.385 75.0184,288.226 74.4081,290.079 73.8341,291.943 73.8341,291.943 73.3998,293.472 73.0024,295.01 72.6422,296.558 72.3193,298.114 72.034,299.677 71.7864,301.247 71.5766,302.822 71.4048,304.402 71.2711,305.985 71.1755,307.571 71.1181,309.159 71.099,310.748 71.099,310.748 71.1184,312.027 71.1766,313.305 71.2736,314.58 71.4092,315.852 71.5833,317.119 71.7958,318.381 72.0465,319.635 72.3351,320.881 72.6614,322.118 73.0251,323.344 73.4258,324.559 73.8632,325.761 74.3369,326.949 74.8464,328.122 74.8464,328.122 75.2305,328.924 75.6499,329.707 76.1036,330.471 76.5908,331.214 77.1106,331.934 77.6618,332.631 78.2435,333.303 78.8545,333.948 79.4935,334.565 80.1593,335.153 80.8506,335.711 81.566,336.238 82.3041,336.732 83.0634,337.194 83.0634,337.194 83.8425,337.621 84.6399,338.013 85.4538,338.369 86.2828,338.688 87.1251,338.971 87.9792,339.216 88.8433,339.422 89.7157,339.59 90.5947,339.719 91.4786,339.809 92.3656,339.86 93.254,339.871 94.142,339.842 95.0279,339.774 95.0279,339.774 96.2987,339.629 97.5645,339.445 98.8242,339.223 100.077,338.962 101.32,338.664 102.555,338.328 103.778,337.955 104.99,337.545 106.188,337.099 107.373,336.616 108.542,336.097 109.695,335.544 110.831,334.955 111.948,334.332 111.948,334.332 113.315,333.521 114.661,332.678 115.987,331.802 117.291,330.894 118.574,329.956 119.833,328.986 121.068,327.987 122.28,326.959 123.466,325.901 124.626,324.815 125.76,323.702 126.866,322.561 126.866,322.561 128.194,321.132 129.493,319.677 130.764,318.197 132.006,316.692 133.218,315.163 134.399,313.611 135.551,312.036 136.671,310.439 137.759,308.82 138.816,307.181 139.841,305.52 140.833,303.841 140.833,303.841 141.792,302.142 142.717,300.424 143.609,298.689 144.466,296.937 145.289,295.168 146.078,293.384 146.831,291.584 147.549,289.77 148.231,287.943 148.878,286.102 149.488,284.249 150.062,282.385 150.062,282.385 150.496,280.856 150.894,279.318 151.254,277.77 151.577,276.214 151.862,274.651 152.11,273.081 152.32,271.506 152.491,269.926 152.625,268.343 152.721,266.757 152.778,265.169 152.797,263.58 152.797,263.58 152.778,262.301 152.72,261.023 152.623,259.748 152.487,258.476 152.313,257.208 152.1,255.947 151.85,254.693 151.561,253.447 151.235,252.21 150.871,250.984 150.47,249.769 150.033,248.567 149.559,247.379 149.05,246.205 149.05,246.205 148.666,245.404 148.246,244.621 147.793,243.857 147.305,243.114 146.786,242.394 146.234,241.697 145.653,241.025 145.042,240.38 144.403,239.763 143.737,239.175 143.046,238.617 142.33,238.09 141.592,237.595 140.833,237.134 140.833,237.134 140.054,236.707 139.256,236.315 138.442,235.959 137.613,235.639 136.771,235.357 135.917,235.112 135.053,234.906 134.181,234.738 133.302,234.609 132.418,234.519 131.531,234.468 130.642,234.457 129.754,234.486 128.868,234.554 128.868,234.554 127.598,234.699 126.332,234.883 125.072,235.105 123.82,235.366 122.576,235.664 121.342,236 120.118,236.373 118.907,236.783 117.708,237.229 116.523,237.712 115.354,238.231 114.201,238.784 113.065,239.373 111.948,239.996 111.948,239.996 110.582,240.807 109.235,241.65 107.909,242.526 106.605,243.434 105.323,244.372 104.063,245.341 102.828,246.341 101.617,247.369 100.431,248.427 99.2704,249.513 98.1367,250.626 97.0301,251.767 97.0301,251.767 95.7024,253.196 94.4029,254.651 93.1321,256.131 91.8905,257.636 90.6786,259.165 89.4968,260.717 88.3456,262.292 87.2255,263.889 86.1367,265.508 85.0799,267.147 84.0553,268.808 83.0634,270.487 " />
<polyline points="54.1788,387.223 55.2656,387.829 56.3706,388.4 57.4929,388.936 58.6314,389.437 59.7849,389.903 60.9523,390.332 62.1325,390.725 63.3244,391.081 64.5267,391.399 65.7384,391.681 66.9583,391.924 68.1851,392.129 69.4177,392.296 70.655,392.425 71.8956,392.515 73.1384,392.566 74.3822,392.579 75.6258,392.553 76.868,392.488 78.1076,392.385 78.1076,392.385 79.9813,392.178 81.8498,391.929 83.7124,391.639 85.568,391.307 87.4157,390.934 89.2545,390.519 91.0837,390.063 92.9022,389.567 94.7092,389.03 96.5037,388.453 98.2849,387.836 100.052,387.179 101.804,386.483 103.539,385.748 105.258,384.974 106.959,384.162 108.642,383.312 110.305,382.425 111.948,381.501 111.948,381.501 113.881,380.363 115.795,379.192 117.688,377.989 119.561,376.754 121.413,375.487 123.242,374.189 125.05,372.86 126.834,371.5 128.595,370.11 130.333,368.691 132.046,367.242 133.734,365.765 135.396,364.259 137.033,362.725 138.644,361.163 140.228,359.574 141.784,357.959 141.784,357.959 143.664,355.946 145.517,353.908 147.341,351.844 149.136,349.756 150.902,347.643 152.639,345.505 154.346,343.344 156.023,341.159 157.67,338.952 159.287,336.722 160.872,334.47 162.426,332.196 163.949,329.901 165.439,327.585 166.898,325.249 168.324,322.893 169.717,320.517 169.717,320.517 171.078,318.123 172.405,315.709 173.699,313.278 174.96,310.829 176.186,308.363 177.378,305.88 178.536,303.381 179.659,300.867 180.747,298.337 181.8,295.792 182.818,293.233 183.801,290.66 184.748,288.074 185.659,285.475 186.534,282.863 187.373,280.24 188.176,277.605 188.176,277.605 188.797,275.45 189.381,273.284 189.928,271.108 190.438,268.923 190.911,266.73 191.347,264.53 191.745,262.322 192.105,260.108 192.428,257.888 192.713,255.662 192.961,253.433 193.17,251.199 193.341,248.962 193.475,246.723 193.57,244.481 193.627,242.239 193.646,239.996 " />
<polyline points="296.523,274.937 214.824,227.768 " stroke-dasharray="17.688177,8.844089" />
<polyline points="214.824,227.768 214.824,133.431 " stroke-dasharray="17.688177,8.844089" />
</g>
<g clip-path="url(#clipId0)" fill="rgb(0,0,0)" stroke="rgb(0,0,0)" stroke-width="0.25" >
<path d="M638.012,125.044 636.115,129.362 650.018,132.897 650.018,132.897 z" />
</g>
<g clip-path="url(#clipId0)" fill="none" stroke="rgb(0,0,0)" stroke-width="0.25" >
<polyline points="637.064,127.203 553.315,90.3974 " />
<polyline points="629.48,93.0741 628.133,93.748 626.785,95.0956 626.111,96.4433 625.437,98.4648 625.437,101.834 626.111,103.856 626.785,105.203 628.133,106.551 629.48,107.225 632.176,107.225 633.523,106.551 634.871,105.203 635.545,103.856 636.219,101.834 636.219,98.4648 635.545,96.4433 634.871,95.0956 633.523,93.748 632.176,93.0741 629.48,93.0741 " />
<polyline points="631.502,104.529 635.545,108.572 " />
<polyline points="279.86,115.873 283.229,130.023 " />
<polyline points="286.598,115.873 283.229,130.023 " />
<polyline points="286.598,115.873 289.967,130.023 " />
<polyline points="293.336,115.873 289.967,130.023 " />
<polyline points="310.856,120.589 318.268,130.023 " />
<polyline points="318.268,120.589 310.856,130.023 " />
<polyline points="337.136,115.873 337.136,130.023 " />
<polyline points="346.569,115.873 346.569,130.023 " />
<polyline points="337.136,122.611 346.569,122.611 " />
<polyline points="1004.34,224.039 1003.13,224.443 1002.32,225.656 1001.92,227.678 1001.92,228.891 1002.32,230.912 1003.13,232.125 1004.34,232.529 1005.15,232.529 1006.36,232.125 1007.17,230.912 1007.58,228.891 1007.58,227.678 1007.17,225.656 1006.36,224.443 1005.15,224.039 1004.34,224.039 " />
<polyline points="974.864,168.32 974.864,176.81 " />
<polyline points="974.864,172.363 975.672,171.554 976.481,171.15 977.694,171.15 978.502,171.554 979.311,172.363 979.715,173.576 979.715,174.384 979.311,175.597 978.502,176.406 977.694,176.81 976.481,176.81 975.672,176.406 974.864,175.597 " />
<polyline points="873.935,400.052 873.261,398.704 871.913,397.356 870.565,396.682 867.87,396.682 866.522,397.356 865.175,398.704 864.501,400.052 863.827,402.073 863.827,405.442 864.501,407.464 865.175,408.811 866.522,410.159 867.87,410.833 870.565,410.833 871.913,410.159 873.261,408.811 873.935,407.464 " />
<polyline points="878.651,396.682 878.651,406.79 879.325,408.811 880.673,410.159 882.694,410.833 884.042,410.833 886.064,410.159 887.411,408.811 888.085,406.79 888.085,396.682 " />
<polyline points="896.171,396.682 896.171,410.833 " />
<polyline points="891.454,396.682 900.888,396.682 " />
<polyline points="907.626,396.682 906.279,397.356 904.931,398.704 904.257,400.052 903.583,402.073 903.583,405.442 904.257,407.464 904.931,408.811 906.279,410.159 907.626,410.833 910.322,410.833 911.669,410.159 913.017,408.811 913.691,407.464 914.365,405.442 914.365,402.073 913.691,400.052 913.017,398.704 911.669,397.356 910.322,396.682 907.626,396.682 " />
<polyline points="919.081,396.682 919.081,410.833 " />
<polyline points="919.081,396.682 927.841,396.682 " />
<polyline points="919.081,403.421 924.472,403.421 " />
<polyline points="931.211,396.682 931.211,410.833 " />
<polyline points="931.211,396.682 939.97,396.682 " />
<polyline points="931.211,403.421 936.601,403.421 " />
<polyline points="812.927,150.863 812.927,165.013 " />
<polyline points="812.927,150.863 818.991,150.863 821.013,151.536 821.686,152.21 822.36,153.558 822.36,154.906 821.686,156.253 821.013,156.927 818.991,157.601 " />
<polyline points="812.927,157.601 818.991,157.601 821.013,158.275 821.686,158.949 822.36,160.296 822.36,162.318 821.686,163.666 821.013,164.339 818.991,165.013 812.927,165.013 " />
<polyline points="827.077,150.863 827.077,165.013 835.163,165.013 " />
<polyline points="841.902,150.863 836.511,165.013 " />
<polyline points="841.902,150.863 847.292,165.013 " />
<polyline points="838.532,160.296 845.271,160.296 " />
<polyline points="859.421,152.884 858.074,151.536 856.052,150.863 853.357,150.863 851.335,151.536 849.988,152.884 849.988,154.232 850.661,155.579 851.335,156.253 852.683,156.927 856.726,158.275 858.074,158.949 858.747,159.623 859.421,160.97 859.421,162.992 858.074,164.339 856.052,165.013 853.357,165.013 851.335,164.339 849.988,162.992 " />
<polyline points="866.833,150.863 866.833,165.013 " />
<polyline points="862.117,150.863 871.55,150.863 " />
<polyline points="892.439,150.863 887.048,165.013 " />
<polyline points="892.439,150.863 897.83,165.013 " />
<polyline points="889.07,160.296 895.808,160.296 " />
<polyline points="901.199,150.863 901.199,165.013 " />
<polyline points="901.199,150.863 907.264,150.863 909.285,151.536 909.959,152.21 910.633,153.558 910.633,154.906 909.959,156.253 909.285,156.927 907.264,157.601 901.199,157.601 " />
<polyline points="905.916,157.601 910.633,165.013 " />
<polyline points="915.35,150.863 915.35,165.013 " />
<polyline points="915.35,150.863 924.109,150.863 " />
<polyline points="915.35,157.601 920.74,157.601 " />
<polyline points="915.35,165.013 924.109,165.013 " />
<polyline points="931.522,150.863 926.131,165.013 " />
<polyline points="931.522,150.863 936.912,165.013 " />
<polyline points="928.152,160.296 934.891,160.296 " />
<polyline points="941.629,164.339 940.955,165.013 940.281,164.339 940.955,163.666 941.629,164.339 941.629,165.687 940.955,167.035 940.281,167.709 " />
<polyline points="964.54,150.863 959.149,165.013 " />
<polyline points="964.54,150.863 969.93,165.013 " />
<polyline points="961.17,160.296 967.909,160.296 " />
<polyline points="829.28,207.364 827.932,208.038 826.584,209.385 825.911,210.733 825.237,212.755 825.237,216.124 825.911,218.145 826.584,219.493 827.932,220.841 829.28,221.514 831.975,221.514 833.323,220.841 834.67,219.493 835.344,218.145 836.018,216.124 836.018,212.755 835.344,210.733 834.67,209.385 833.323,208.038 831.975,207.364 829.28,207.364 " />
<polyline points="840.735,207.364 840.735,217.471 841.409,219.493 842.756,220.841 844.778,221.514 846.126,221.514 848.147,220.841 849.495,219.493 850.169,217.471 850.169,207.364 " />
<polyline points="858.255,207.364 858.255,221.514 " />
<polyline points="853.538,207.364 862.971,207.364 " />
<polyline points="866.341,207.364 866.341,221.514 874.427,221.514 " />
<polyline points="877.796,207.364 877.796,221.514 " />
<polyline points="877.796,207.364 886.556,207.364 " />
<polyline points="877.796,214.102 883.187,214.102 " />
<polyline points="877.796,221.514 886.556,221.514 " />
<polyline points="893.294,207.364 893.294,221.514 " />
<polyline points="888.577,207.364 898.011,207.364 " />
<polyline points="918.9,207.364 913.509,221.514 " />
<polyline points="918.9,207.364 924.291,221.514 " />
<polyline points="915.531,216.798 922.269,216.798 " />
<polyline points="927.66,207.364 927.66,221.514 " />
<polyline points="927.66,207.364 933.724,207.364 935.746,208.038 936.42,208.712 937.093,210.059 937.093,211.407 936.42,212.755 935.746,213.428 933.724,214.102 927.66,214.102 " />
<polyline points="932.377,214.102 937.093,221.514 " />
<polyline points="941.81,207.364 941.81,221.514 " />
<polyline points="941.81,207.364 950.57,207.364 " />
<polyline points="941.81,214.102 947.201,214.102 " />
<polyline points="941.81,221.514 950.57,221.514 " />
<polyline points="957.982,207.364 952.592,221.514 " />
<polyline points="957.982,207.364 963.373,221.514 " />
<polyline points="954.613,216.798 961.351,216.798 " />
<polyline points="968.09,220.841 967.416,221.514 966.742,220.841 967.416,220.167 968.09,220.841 968.09,222.188 967.416,223.536 966.742,224.21 " />
<polyline points="991,207.364 985.61,221.514 " />
<polyline points="991,207.364 996.391,221.514 " />
<polyline points="987.631,216.798 994.369,216.798 " />
<polyline points="828.958,405.05 852.144,405.05 " />
<polyline points="770.836,347.389 828.958,405.05 " />
</g>
<g clip-path="url(#clipId0)" fill="rgb(0,0,0)" stroke="rgb(0,0,0)" stroke-width="0.25" >
<path d="M769.175,349.064 772.497,345.715 760.79,337.423 760.79,337.423 z" />
</g>
<g clip-path="url(#clipId0)" fill="none" stroke="rgb(0,0,0)" stroke-width="0.25" >
<polyline points="794.178,213.725 813.5,213.725 " />
<polyline points="794.178,264 794.178,229.22 " />
<polyline points="772.924,157.621 796.111,157.621 " />
<polyline points="772.924,264 772.924,202.169 " />
<polyline points="837.048,311.781 761.996,311.781 " />
</g>
<g clip-path="url(#clipId0)" fill="rgb(0,0,0)" stroke="rgb(0,0,0)" stroke-width="0.25" >
<path d="M837.048,309.422 837.048,314.139 851.199,311.781 851.199,311.781 z" />
</g>
<g clip-path="url(#clipId0)" fill="none" stroke="rgb(0,0,0)" stroke-width="0.25" >
<path d="M771.427,337.821  A5.32296,5.32296 0 1,0 760.79,337.423 " />
<polyline points="794.178,358.677 762.025,358.677 " />
<polyline points="794.178,269.564 794.178,358.677 " />
<polyline points="678.727,268.904 794.178,269.564 " />
<path d="M678.727,268.904  A83.9786,83.9786 0 1,0 760.79,337.423 " />
<circle cx="678.246" cy="352.881" r="33.0175" />
<polyline points="720.311,565.944 726.241,565.944 726.241,564.956 725.746,563.967 725.252,563.473 724.264,562.979 722.782,562.979 721.793,563.473 720.805,564.461 720.311,565.944 720.311,566.932 720.805,568.415 721.793,569.403 722.782,569.897 724.264,569.897 725.252,569.403 726.241,568.415 " />
<polyline points="720.278,529.846 726.207,529.846 726.207,528.858 725.713,527.87 725.219,527.375 724.231,526.881 722.748,526.881 721.76,527.375 720.772,528.364 720.278,529.846 720.278,530.834 720.772,532.317 721.76,533.305 722.748,533.799 724.231,533.799 725.219,533.305 726.207,532.317 " />
<polyline points="592.115,714.619 590.902,715.023 590.093,716.236 589.689,718.257 589.689,719.47 590.093,721.492 590.902,722.705 592.115,723.109 592.923,723.109 594.136,722.705 594.945,721.492 595.349,719.47 595.349,718.257 594.945,716.236 594.136,715.023 592.923,714.619 592.115,714.619 " />
<polyline points="579.641,705.342 574.25,719.492 " />
<polyline points="579.641,705.342 585.032,719.492 " />
<polyline points="576.272,714.775 583.01,714.775 " />
<polyline points="576.272,669.085 576.272,683.236 584.358,683.236 " />
<polyline points="574.25,632.828 579.641,646.979 " />
<polyline points="585.032,632.828 579.641,646.979 " />
<polyline points="533.549,552.568 538.939,566.718 " />
<polyline points="544.33,552.568 538.939,566.718 " />
<polyline points="533.549,516.311 538.939,530.462 " />
<polyline points="544.33,516.311 538.939,530.462 " />
<polyline points="589.959,682.737 595.888,682.737 595.888,681.749 595.394,680.761 594.9,680.267 593.912,679.772 592.429,679.772 591.441,680.267 590.453,681.255 589.959,682.737 589.959,683.726 590.453,685.208 591.441,686.196 592.429,686.69 593.912,686.69 594.9,686.196 595.888,685.208 " />
<polyline points="779.456,545.087 802.943,545.087 " />
<polyline points="806.12,508.255 828.265,508.255 " />
<polyline points="588.77,642.3 587.557,642.704 586.748,643.917 586.344,645.939 586.344,647.151 586.748,649.173 587.557,650.386 588.77,650.79 589.578,650.79 590.791,650.386 591.6,649.173 592.004,647.151 592.004,645.939 591.6,643.917 590.791,642.704 589.578,642.3 588.77,642.3 " />
<polyline points="794.624,561.407 793.411,561.811 792.602,563.024 792.198,565.045 792.198,566.258 792.602,568.28 793.411,569.493 794.624,569.897 795.432,569.897 796.645,569.493 797.454,568.28 797.858,566.258 797.858,565.045 797.454,563.024 796.645,561.811 795.432,561.407 794.624,561.407 " />
<polyline points="777.149,525.309 775.936,525.713 775.127,526.926 774.723,528.948 774.723,530.161 775.127,532.182 775.936,533.395 777.149,533.799 777.957,533.799 779.17,533.395 779.979,532.182 780.383,530.161 780.383,528.948 779.979,526.926 779.17,525.713 777.957,525.309 777.149,525.309 " />
<polyline points="820.276,525.309 819.063,525.713 818.254,526.926 817.85,528.948 817.85,530.161 818.254,532.182 819.063,533.395 820.276,533.799 821.084,533.799 822.297,533.395 823.106,532.182 823.51,530.161 823.51,528.948 823.106,526.926 822.297,525.713 821.084,525.309 820.276,525.309 " />
<polyline points="547.394,562.425 546.181,562.829 545.372,564.042 544.968,566.063 544.968,567.276 545.372,569.298 546.181,570.511 547.394,570.915 548.202,570.915 549.415,570.511 550.224,569.298 550.628,567.276 550.628,566.063 550.224,564.042 549.415,562.829 548.202,562.425 547.394,562.425 " />
<polyline points="548.742,524.829 547.53,525.233 546.721,526.446 546.317,528.468 546.317,529.681 546.721,531.702 547.53,532.915 548.742,533.319 549.551,533.319 550.764,532.915 551.573,531.702 551.977,529.681 551.977,528.468 551.573,526.446 550.764,525.233 549.551,524.829 548.742,524.829 " />
<polyline points="566.388,568.715 578.608,568.715 " />
<polyline points="759.294,558.013 762.663,558.013 768.728,566.099 " />
<polyline points="761.989,558.687 768.728,567.446 " />
<polyline points="779.509,545.21 768.728,567.446 " />
<polyline points="786.038,521.828 789.407,521.828 795.471,529.914 " />
<polyline points="788.733,522.502 795.471,531.262 " />
<polyline points="806.253,509.025 795.471,531.262 " />
<polyline points="609.507,711.406 621.636,711.406 " />
<polyline points="609.507,715.449 621.636,715.449 " />
<polyline points="648.59,705.342 648.59,719.492 " />
<polyline points="648.59,712.08 647.242,710.732 645.894,710.058 643.873,710.058 642.525,710.732 641.177,712.08 640.504,714.101 640.504,715.449 641.177,717.471 642.525,718.818 643.873,719.492 645.894,719.492 647.242,718.818 648.59,717.471 " />
<polyline points="653.98,710.058 653.98,716.797 654.654,718.818 656.002,719.492 658.023,719.492 659.371,718.818 661.392,716.797 " />
<polyline points="661.392,710.058 661.392,719.492 " />
<polyline points="674.195,712.08 672.848,710.732 671.5,710.058 669.478,710.058 668.131,710.732 666.783,712.08 666.109,714.101 666.109,715.449 666.783,717.471 668.131,718.818 669.478,719.492 671.5,719.492 672.848,718.818 674.195,717.471 " />
<polyline points="679.586,705.342 679.586,716.797 680.26,718.818 681.608,719.492 682.955,719.492 " />
<polyline points="677.564,710.058 682.281,710.058 " />
<polyline points="708.561,710.058 708.561,719.492 " />
<polyline points="708.561,712.08 707.213,710.732 705.866,710.058 703.844,710.058 702.496,710.732 701.149,712.08 700.475,714.101 700.475,715.449 701.149,717.471 702.496,718.818 703.844,719.492 705.866,719.492 707.213,718.818 708.561,717.471 " />
<polyline points="713.952,710.058 713.952,719.492 " />
<polyline points="713.952,714.101 714.625,712.08 715.973,710.732 717.321,710.058 719.342,710.058 " />
<polyline points="722.038,714.101 730.124,714.101 730.124,712.754 729.45,711.406 728.776,710.732 727.428,710.058 725.407,710.058 724.059,710.732 722.711,712.08 722.038,714.101 722.038,715.449 722.711,717.471 724.059,718.818 725.407,719.492 727.428,719.492 728.776,718.818 730.124,717.471 " />
<polyline points="742.253,710.058 742.253,719.492 " />
<polyline points="742.253,712.08 740.905,710.732 739.557,710.058 737.536,710.058 736.188,710.732 734.841,712.08 734.167,714.101 734.167,715.449 734.841,717.471 736.188,718.818 737.536,719.492 739.557,719.492 740.905,718.818 742.253,717.471 " />
<polyline points="748.991,718.818 748.317,719.492 747.643,718.818 748.317,718.144 748.991,718.818 748.991,720.166 748.317,721.514 747.643,722.187 " />
<polyline points="768.532,710.058 768.532,719.492 " />
<polyline points="768.532,712.754 770.554,710.732 771.901,710.058 773.923,710.058 775.271,710.732 775.944,712.754 775.944,719.492 " />
<polyline points="775.944,712.754 777.966,710.732 779.314,710.058 781.335,710.058 782.683,710.732 783.357,712.754 783.357,719.492 " />
<polyline points="788.747,710.058 788.747,719.492 " />
<polyline points="788.747,712.754 790.769,710.732 792.117,710.058 794.138,710.058 795.486,710.732 796.16,712.754 796.16,719.492 " />
<polyline points="796.16,712.754 798.181,710.732 799.529,710.058 801.55,710.058 802.898,710.732 803.572,712.754 803.572,719.492 " />
<polyline points="609.507,675.149 621.636,675.149 " />
<polyline points="609.507,679.192 621.636,679.192 " />
<polyline points="640.504,677.845 648.59,677.845 648.59,676.497 647.916,675.149 647.242,674.476 645.894,673.802 643.873,673.802 642.525,674.476 641.177,675.823 640.504,677.845 640.504,679.192 641.177,681.214 642.525,682.562 643.873,683.236 645.894,683.236 647.242,682.562 648.59,681.214 " />
<polyline points="657.349,669.085 656.002,669.085 654.654,669.759 653.98,671.78 653.98,683.236 " />
<polyline points="651.959,673.802 656.676,673.802 " />
<polyline points="665.435,669.085 664.088,669.085 662.74,669.759 662.066,671.78 662.066,683.236 " />
<polyline points="660.045,673.802 664.762,673.802 " />
<polyline points="668.805,677.845 676.891,677.845 676.891,676.497 676.217,675.149 675.543,674.476 674.195,673.802 672.174,673.802 670.826,674.476 669.478,675.823 668.805,677.845 668.805,679.192 669.478,681.214 670.826,682.562 672.174,683.236 674.195,683.236 675.543,682.562 676.891,681.214 " />
<polyline points="689.02,675.823 687.672,674.476 686.324,673.802 684.303,673.802 682.955,674.476 681.608,675.823 680.934,677.845 680.934,679.192 681.608,681.214 682.955,682.562 684.303,683.236 686.324,683.236 687.672,682.562 689.02,681.214 " />
<polyline points="694.41,669.085 694.41,680.54 695.084,682.562 696.432,683.236 697.78,683.236 " />
<polyline points="692.389,673.802 697.106,673.802 " />
<polyline points="701.149,669.759 701.823,670.433 702.496,669.759 701.823,669.085 701.149,669.759 " />
<polyline points="701.823,674.476 701.823,683.236 " />
<polyline points="705.866,673.802 709.909,683.236 " />
<polyline points="713.952,673.802 709.909,683.236 " />
<polyline points="717.321,677.845 725.407,677.845 725.407,676.497 724.733,675.149 724.059,674.476 722.711,673.802 720.69,673.802 719.342,674.476 717.995,675.823 717.321,677.845 717.321,679.192 717.995,681.214 719.342,682.562 720.69,683.236 722.711,683.236 724.059,682.562 725.407,681.214 " />
<polyline points="751.686,669.085 751.686,683.236 " />
<polyline points="751.686,675.823 750.339,674.476 748.991,673.802 746.97,673.802 745.622,674.476 744.274,675.823 743.6,677.845 743.6,679.192 744.274,681.214 745.622,682.562 746.97,683.236 748.991,683.236 750.339,682.562 751.686,681.214 " />
<polyline points="757.077,673.802 757.077,680.54 757.751,682.562 759.099,683.236 761.12,683.236 762.468,682.562 764.489,680.54 " />
<polyline points="764.489,673.802 764.489,683.236 " />
<polyline points="777.292,675.823 775.944,674.476 774.597,673.802 772.575,673.802 771.228,674.476 769.88,675.823 769.206,677.845 769.206,679.192 769.88,681.214 771.228,682.562 772.575,683.236 774.597,683.236 775.944,682.562 777.292,681.214 " />
<polyline points="782.683,669.085 782.683,680.54 783.357,682.562 784.704,683.236 786.052,683.236 " />
<polyline points="780.661,673.802 785.378,673.802 " />
<polyline points="804.246,669.085 804.246,683.236 " />
<polyline points="808.962,677.845 817.048,677.845 817.048,676.497 816.375,675.149 815.701,674.476 814.353,673.802 812.332,673.802 810.984,674.476 809.636,675.823 808.962,677.845 808.962,679.192 809.636,681.214 810.984,682.562 812.332,683.236 814.353,683.236 815.701,682.562 817.048,681.214 " />
<polyline points="821.765,673.802 821.765,683.236 " />
<polyline points="821.765,676.497 823.787,674.476 825.134,673.802 827.156,673.802 828.504,674.476 829.177,676.497 829.177,683.236 " />
<polyline points="841.98,673.802 841.98,684.583 841.306,686.605 840.633,687.279 839.285,687.952 837.263,687.952 835.916,687.279 " />
<polyline points="841.98,675.823 840.633,674.476 839.285,673.802 837.263,673.802 835.916,674.476 834.568,675.823 833.894,677.845 833.894,679.192 834.568,681.214 835.916,682.562 837.263,683.236 839.285,683.236 840.633,682.562 841.98,681.214 " />
<polyline points="848.045,669.085 848.045,680.54 848.719,682.562 850.066,683.236 851.414,683.236 " />
<polyline points="846.023,673.802 850.74,673.802 " />
<polyline points="855.457,669.085 855.457,683.236 " />
<polyline points="855.457,676.497 857.479,674.476 858.826,673.802 860.848,673.802 862.195,674.476 862.869,676.497 862.869,683.236 " />
<polyline points="869.608,682.562 868.934,683.236 868.26,682.562 868.934,681.888 869.608,682.562 869.608,683.909 868.934,685.257 868.26,685.931 " />
<polyline points="889.149,673.802 889.149,683.236 " />
<polyline points="889.149,676.497 891.17,674.476 892.518,673.802 894.539,673.802 895.887,674.476 896.561,676.497 896.561,683.236 " />
<polyline points="896.561,676.497 898.582,674.476 899.93,673.802 901.952,673.802 903.299,674.476 903.973,676.497 903.973,683.236 " />
<polyline points="609.507,638.893 621.636,638.893 " />
<polyline points="609.507,642.936 621.636,642.936 " />
<polyline points="648.59,632.828 648.59,646.979 " />
<polyline points="648.59,639.567 647.242,638.219 645.894,637.545 643.873,637.545 642.525,638.219 641.177,639.567 640.504,641.588 640.504,642.936 641.177,644.957 642.525,646.305 643.873,646.979 645.894,646.979 647.242,646.305 648.59,644.957 " />
<polyline points="653.98,637.545 653.98,644.284 654.654,646.305 656.002,646.979 658.023,646.979 659.371,646.305 661.392,644.284 " />
<polyline points="661.392,637.545 661.392,646.979 " />
<polyline points="674.195,639.567 672.848,638.219 671.5,637.545 669.478,637.545 668.131,638.219 666.783,639.567 666.109,641.588 666.109,642.936 666.783,644.957 668.131,646.305 669.478,646.979 671.5,646.979 672.848,646.305 674.195,644.957 " />
<polyline points="679.586,632.828 679.586,644.284 680.26,646.305 681.608,646.979 682.955,646.979 " />
<polyline points="677.564,637.545 682.281,637.545 " />
<polyline points="699.801,637.545 703.844,646.979 " />
<polyline points="707.887,637.545 703.844,646.979 " />
<polyline points="711.256,641.588 719.342,641.588 719.342,640.241 718.668,638.893 717.995,638.219 716.647,637.545 714.625,637.545 713.278,638.219 711.93,639.567 711.256,641.588 711.256,642.936 711.93,644.957 713.278,646.305 714.625,646.979 716.647,646.979 717.995,646.305 719.342,644.957 " />
<polyline points="724.059,632.828 724.059,646.979 " />
<polyline points="732.145,637.545 730.797,638.219 729.45,639.567 728.776,641.588 728.776,642.936 729.45,644.957 730.797,646.305 732.145,646.979 734.167,646.979 735.514,646.305 736.862,644.957 737.536,642.936 737.536,641.588 736.862,639.567 735.514,638.219 734.167,637.545 732.145,637.545 " />
<polyline points="749.665,639.567 748.317,638.219 746.97,637.545 744.948,637.545 743.6,638.219 742.253,639.567 741.579,641.588 741.579,642.936 742.253,644.957 743.6,646.305 744.948,646.979 746.97,646.979 748.317,646.305 749.665,644.957 " />
<polyline points="753.708,633.502 754.382,634.176 755.056,633.502 754.382,632.828 753.708,633.502 " />
<polyline points="754.382,638.219 754.382,646.979 " />
<polyline points="760.446,632.828 760.446,644.284 761.12,646.305 762.468,646.979 763.815,646.979 " />
<polyline points="758.425,637.545 763.142,637.545 " />
<polyline points="766.511,637.545 770.554,646.979 " />
<polyline points="774.597,637.545 770.554,646.979 769.206,649.674 767.858,651.022 766.511,651.696 765.837,651.696 " />
<polyline points="779.987,646.305 779.314,646.979 778.64,646.305 779.314,645.631 779.987,646.305 779.987,647.653 779.314,649 778.64,649.674 " />
<polyline points="799.529,637.545 799.529,646.979 " />
<polyline points="799.529,640.241 801.55,638.219 802.898,637.545 804.919,637.545 806.267,638.219 806.941,640.241 806.941,646.979 " />
<polyline points="806.941,640.241 808.962,638.219 810.31,637.545 812.332,637.545 813.679,638.219 814.353,640.241 814.353,646.979 " />
<polyline points="830.525,630.133 818.396,651.696 " />
<polyline points="841.306,639.567 840.633,638.219 838.611,637.545 836.59,637.545 834.568,638.219 833.894,639.567 834.568,640.914 835.916,641.588 839.285,642.262 840.633,642.936 841.306,644.284 841.306,644.957 840.633,646.305 838.611,646.979 836.59,646.979 834.568,646.305 833.894,644.957 " />
<polyline points="532.411,601.289 535.106,610.722 " />
<polyline points="537.802,601.289 535.106,610.722 " />
<polyline points="537.802,601.289 540.497,610.722 " />
<polyline points="543.192,601.289 540.497,610.722 " />
<polyline points="547.909,596.572 547.909,610.722 " />
<polyline points="547.909,603.984 549.931,601.962 551.278,601.289 553.3,601.289 554.648,601.962 555.321,603.984 555.321,610.722 " />
<polyline points="560.038,605.332 568.124,605.332 568.124,603.984 567.451,602.636 566.777,601.962 565.429,601.289 563.408,601.289 562.06,601.962 560.712,603.31 560.038,605.332 560.038,606.679 560.712,608.701 562.06,610.048 563.408,610.722 565.429,610.722 566.777,610.048 568.124,608.701 " />
<polyline points="572.841,601.289 572.841,610.722 " />
<polyline points="572.841,605.332 573.515,603.31 574.863,601.962 576.21,601.289 578.232,601.289 " />
<polyline points="580.927,605.332 589.013,605.332 589.013,603.984 588.339,602.636 587.666,601.962 586.318,601.289 584.296,601.289 582.949,601.962 581.601,603.31 580.927,605.332 580.927,606.679 581.601,608.701 582.949,610.048 584.296,610.722 586.318,610.722 587.666,610.048 589.013,608.701 " />
<polyline points="579.587,554.589 568.805,560.654 579.587,566.718 " />
<polyline points="600.476,555.263 601.823,554.589 603.845,552.568 603.845,566.718 " />
<polyline points="613.279,552.568 620.691,552.568 616.648,557.958 618.669,557.958 620.017,558.632 620.691,559.306 621.365,561.327 621.365,562.675 620.691,564.697 619.343,566.044 617.322,566.718 615.3,566.718 613.279,566.044 612.605,565.371 611.931,564.023 " />
<polyline points="640.232,557.284 640.232,566.718 " />
<polyline points="640.232,559.98 642.253,557.958 643.601,557.284 645.623,557.284 646.97,557.958 647.644,559.98 647.644,566.718 " />
<polyline points="647.644,559.98 649.666,557.958 651.013,557.284 653.035,557.284 654.383,557.958 655.056,559.98 655.056,566.718 " />
<polyline points="671.228,549.872 659.099,571.435 " />
<polyline points="682.01,559.306 681.336,557.958 679.314,557.284 677.293,557.284 675.271,557.958 674.598,559.306 675.271,560.654 676.619,561.327 679.988,562.001 681.336,562.675 682.01,564.023 682.01,564.697 681.336,566.044 679.314,566.718 677.293,566.718 675.271,566.044 674.598,564.697 " />
<polyline points="687.4,557.284 686.727,557.958 687.4,558.632 688.074,557.958 687.4,557.284 " />
<polyline points="687.4,565.371 686.727,566.044 687.4,566.718 688.074,566.044 687.4,565.371 " />
<polyline points="707.615,552.568 707.615,566.718 715.702,566.718 " />
<polyline points="733.221,558.632 745.35,558.632 " />
<polyline points="733.221,562.675 745.35,562.675 " />
<polyline points="782.411,552.568 777.021,566.718 " />
<polyline points="782.411,552.568 787.802,566.718 " />
<polyline points="779.042,562.001 785.78,562.001 " />
<polyline points="816.103,549.872 803.974,571.435 " />
<polyline points="820.82,552.568 828.232,552.568 824.189,557.958 826.211,557.958 827.558,558.632 828.232,559.306 828.906,561.327 828.906,562.675 828.232,564.697 826.884,566.044 824.863,566.718 822.841,566.718 820.82,566.044 820.146,565.371 819.472,564.023 " />
<polyline points="841.035,552.568 834.297,552.568 833.623,558.632 834.297,557.958 836.318,557.284 838.34,557.284 840.361,557.958 841.709,559.306 842.383,561.327 842.383,562.675 841.709,564.697 840.361,566.044 838.34,566.718 836.318,566.718 834.297,566.044 833.623,565.371 832.949,564.023 " />
<polyline points="850.469,552.568 848.447,553.241 847.099,555.263 846.426,558.632 846.426,560.654 847.099,564.023 848.447,566.044 850.469,566.718 851.816,566.718 853.838,566.044 855.185,564.023 855.859,560.654 855.859,558.632 855.185,555.263 853.838,553.241 851.816,552.568 850.469,552.568 " />
<polyline points="568.805,518.333 579.587,524.397 568.805,530.462 " />
<polyline points="600.476,519.006 601.823,518.333 603.845,516.311 603.845,530.462 " />
<polyline points="613.279,516.311 620.691,516.311 616.648,521.702 618.669,521.702 620.017,522.376 620.691,523.049 621.365,525.071 621.365,526.419 620.691,528.44 619.343,529.788 617.322,530.462 615.3,530.462 613.279,529.788 612.605,529.114 611.931,527.766 " />
<polyline points="640.232,521.028 640.232,530.462 " />
<polyline points="640.232,523.723 642.253,521.702 643.601,521.028 645.623,521.028 646.97,521.702 647.644,523.723 647.644,530.462 " />
<polyline points="647.644,523.723 649.666,521.702 651.013,521.028 653.035,521.028 654.383,521.702 655.056,523.723 655.056,530.462 " />
<polyline points="671.228,513.616 659.099,535.178 " />
<polyline points="682.01,523.049 681.336,521.702 679.314,521.028 677.293,521.028 675.271,521.702 674.598,523.049 675.271,524.397 676.619,525.071 679.988,525.745 681.336,526.419 682.01,527.766 682.01,528.44 681.336,529.788 679.314,530.462 677.293,530.462 675.271,529.788 674.598,528.44 " />
<polyline points="687.4,521.028 686.727,521.702 687.4,522.376 688.074,521.702 687.4,521.028 " />
<polyline points="687.4,529.114 686.727,529.788 687.4,530.462 688.074,529.788 687.4,529.114 " />
<polyline points="707.615,516.311 707.615,530.462 715.702,530.462 " />
<polyline points="733.221,522.376 745.35,522.376 " />
<polyline points="733.221,526.419 745.35,526.419 " />
<polyline points="762.87,516.311 768.261,530.462 " />
<polyline points="773.651,516.311 768.261,530.462 " />
<polyline points="808.691,516.311 803.3,530.462 " />
<polyline points="808.691,516.311 814.081,530.462 " />
<polyline points="805.322,525.745 812.06,525.745 " />
<polyline points="842.383,513.616 830.254,535.178 " />
<polyline points="852.49,516.311 845.752,525.745 855.859,525.745 " />
<polyline points="852.49,516.311 852.49,530.462 " />
<polyline points="861.25,529.788 860.576,530.462 859.902,529.788 860.576,529.114 861.25,529.788 861.25,531.135 860.576,532.483 859.902,533.157 " />
<polyline points="874.053,516.311 867.314,516.311 866.641,522.376 867.314,521.702 869.336,521.028 871.357,521.028 873.379,521.702 874.727,523.049 875.4,525.071 875.4,526.419 874.727,528.44 873.379,529.788 871.357,530.462 869.336,530.462 867.314,529.788 866.641,529.114 865.967,527.766 " />
<polyline points="883.487,516.311 881.465,516.985 880.117,519.006 879.443,522.376 879.443,524.397 880.117,527.766 881.465,529.788 883.487,530.462 884.834,530.462 886.856,529.788 888.203,527.766 888.877,524.397 888.877,522.376 888.203,519.006 886.856,516.985 884.834,516.311 883.487,516.311 " />
<polyline points="896.963,516.311 894.942,516.985 893.594,519.006 892.92,522.376 892.92,524.397 893.594,527.766 894.942,529.788 896.963,530.462 898.311,530.462 900.332,529.788 901.68,527.766 902.354,524.397 902.354,522.376 901.68,519.006 900.332,516.985 898.311,516.311 896.963,516.311 " />
<polyline points="811.615,704.819 811.615,704.414 812.019,703.606 812.423,703.201 813.232,702.797 814.849,702.797 815.658,703.201 816.062,703.606 816.466,704.414 816.466,705.223 816.062,706.031 815.253,707.244 811.21,711.287 816.871,711.287 " />
<polyline points="292.88,525.497 291.667,525.901 290.859,527.114 290.454,529.136 290.454,530.348 290.859,532.37 291.667,533.583 292.88,533.987 293.689,533.987 294.902,533.583 295.71,532.37 296.115,530.348 296.115,529.136 295.71,527.114 294.902,525.901 293.689,525.497 292.88,525.497 " />
<polyline points="34.3626,602.044 37.058,611.478 " />
<polyline points="39.7533,602.044 37.058,611.478 " />
<polyline points="39.7533,602.044 42.4486,611.478 " />
<polyline points="45.144,602.044 42.4486,611.478 " />
<polyline points="49.8608,597.327 49.8608,611.478 " />
<polyline points="49.8608,604.739 51.8823,602.718 53.23,602.044 55.2515,602.044 56.5992,602.718 57.273,604.739 57.273,611.478 " />
<polyline points="61.9899,606.087 70.0759,606.087 70.0759,604.739 69.4021,603.392 68.7282,602.718 67.3806,602.044 65.359,602.044 64.0114,602.718 62.6637,604.065 61.9899,606.087 61.9899,607.435 62.6637,609.456 64.0114,610.804 65.359,611.478 67.3806,611.478 68.7282,610.804 70.0759,609.456 " />
<polyline points="74.7927,602.044 74.7927,611.478 " />
<polyline points="74.7927,606.087 75.4666,604.065 76.8142,602.718 78.1619,602.044 80.1834,602.044 " />
<polyline points="82.8788,606.087 90.9648,606.087 90.9648,604.739 90.291,603.392 89.6171,602.718 88.2694,602.044 86.2479,602.044 84.9003,602.718 83.5526,604.065 82.8788,606.087 82.8788,607.435 83.5526,609.456 84.9003,610.804 86.2479,611.478 88.2694,611.478 89.6171,610.804 90.9648,609.456 " />
<polyline points="68.5039,570.692 79.4156,570.692 " />
<polyline points="33.1978,552.568 38.5885,566.718 " />
<polyline points="43.9792,552.568 38.5885,566.718 " />
<polyline points="47.6043,561.143 46.3914,561.547 45.5828,562.76 45.1785,564.781 45.1785,565.994 45.5828,568.016 46.3914,569.229 47.6043,569.633 48.4129,569.633 49.6258,569.229 50.4344,568.016 50.8387,565.994 50.8387,564.781 50.4344,562.76 49.6258,561.547 48.4129,561.143 47.6043,561.143 " />
<polyline points="79.236,554.589 68.4546,560.654 79.236,566.718 " />
<polyline points="98.7772,555.937 98.7772,555.263 99.451,553.915 100.125,553.241 101.473,552.568 104.168,552.568 105.516,553.241 106.189,553.915 106.863,555.263 106.863,556.611 106.189,557.958 104.842,559.98 98.1033,566.718 107.537,566.718 " />
<polyline points="119.666,552.568 112.928,552.568 112.254,558.632 112.928,557.958 114.949,557.284 116.971,557.284 118.992,557.958 120.34,559.306 121.014,561.327 121.014,562.675 120.34,564.697 118.992,566.044 116.971,566.718 114.949,566.718 112.928,566.044 112.254,565.371 111.58,564.023 " />
<polyline points="129.1,552.568 127.078,553.241 125.731,555.263 125.057,558.632 125.057,560.654 125.731,564.023 127.078,566.044 129.1,566.718 130.447,566.718 132.469,566.044 133.817,564.023 134.49,560.654 134.49,558.632 133.817,555.263 132.469,553.241 130.447,552.568 129.1,552.568 " />
<polyline points="142.576,552.568 140.555,553.241 139.207,555.263 138.533,558.632 138.533,560.654 139.207,564.023 140.555,566.044 142.576,566.718 143.924,566.718 145.946,566.044 147.293,564.023 147.967,560.654 147.967,558.632 147.293,555.263 145.946,553.241 143.924,552.568 142.576,552.568 " />
<polyline points="170.878,552.568 169.53,552.568 168.182,553.241 167.508,555.263 167.508,566.718 " />
<polyline points="165.487,557.284 170.204,557.284 " />
<polyline points="174.921,557.284 174.921,571.435 " />
<polyline points="174.921,559.306 176.268,557.958 177.616,557.284 179.637,557.284 180.985,557.958 182.333,559.306 183.007,561.327 183.007,562.675 182.333,564.697 180.985,566.044 179.637,566.718 177.616,566.718 176.268,566.044 174.921,564.697 " />
<polyline points="187.723,557.284 187.723,566.718 " />
<polyline points="187.723,559.98 189.745,557.958 191.093,557.284 193.114,557.284 194.462,557.958 195.136,559.98 195.136,566.718 " />
<polyline points="195.136,559.98 197.157,557.958 198.505,557.284 200.526,557.284 201.874,557.958 202.548,559.98 202.548,566.718 " />
<polyline points="208.612,557.284 207.938,557.958 208.612,558.632 209.286,557.958 208.612,557.284 " />
<polyline points="208.612,565.371 207.938,566.044 208.612,566.718 209.286,566.044 208.612,565.371 " />
<polyline points="249.083,558.632 261.212,558.632 " />
<polyline points="249.083,562.675 261.212,562.675 " />
<polyline points="234.127,568.039 240.057,568.039 240.057,567.051 239.563,566.062 239.069,565.568 238.081,565.074 236.598,565.074 235.61,565.568 234.622,566.556 234.127,568.039 234.127,569.027 234.622,570.51 235.61,571.498 236.598,571.992 238.081,571.992 239.069,571.498 240.057,570.51 " />
<polyline points="220.817,552.855 220.817,567.005 228.903,567.005 " />
<polyline points="314.419,561.553 313.206,561.958 312.398,563.171 311.993,565.192 311.993,566.405 312.398,568.427 313.206,569.639 314.419,570.044 315.228,570.044 316.441,569.639 317.249,568.427 317.653,566.405 317.653,565.192 317.249,563.171 316.441,561.958 315.228,561.553 314.419,561.553 " />
<polyline points="302.321,552.855 296.931,567.005 " />
<polyline points="302.321,552.855 307.712,567.005 " />
<polyline points="298.952,562.288 305.691,562.288 " />
<polyline points="278.262,566.16 282.16,560.495 " />
<polyline points="282.16,560.495 286.836,572.958 " />
<polyline points="286.836,572.958 293.071,549.165 " />
<polyline points="293.071,549.165 318.792,549.165 " />
<polyline points="338.377,550.159 326.248,571.722 " />
<polyline points="348.484,552.855 341.746,562.288 351.854,562.288 " />
<polyline points="348.484,552.855 348.484,567.005 " />
<polyline points="356.571,565.658 355.897,566.331 356.571,567.005 357.244,566.331 356.571,565.658 " />
<polyline points="363.309,552.855 370.721,552.855 366.678,558.245 368.7,558.245 370.047,558.919 370.721,559.593 371.395,561.615 371.395,562.962 370.721,564.984 369.373,566.331 367.352,567.005 365.33,567.005 363.309,566.331 362.635,565.658 361.961,564.31 " />
<polyline points="361.697,513.903 349.568,535.466 " />
<polyline points="367.088,519.293 368.436,518.62 370.457,516.598 370.457,530.749 " />
<polyline points="382.586,516.598 380.565,517.272 379.217,519.293 378.543,522.663 378.543,524.684 379.217,528.053 380.565,530.075 382.586,530.749 383.934,530.749 385.955,530.075 387.303,528.053 387.977,524.684 387.977,522.663 387.303,519.293 385.955,517.272 383.934,516.598 382.586,516.598 " />
<polyline points="394.041,530.075 393.367,530.749 392.694,530.075 393.367,529.401 394.041,530.075 394.041,531.422 393.367,532.77 392.694,533.444 " />
<polyline points="407.518,518.62 406.844,517.272 404.823,516.598 403.475,516.598 401.453,517.272 400.106,519.293 399.432,522.663 399.432,526.032 400.106,528.727 401.453,530.075 403.475,530.749 404.149,530.749 406.17,530.075 407.518,528.727 408.192,526.706 408.192,526.032 407.518,524.01 406.17,522.663 404.149,521.989 403.475,521.989 401.453,522.663 400.106,524.01 399.432,526.032 " />
<polyline points="416.278,516.598 414.256,517.272 412.909,519.293 412.235,522.663 412.235,524.684 412.909,528.053 414.256,530.075 416.278,530.749 417.626,530.749 419.647,530.075 420.995,528.053 421.669,524.684 421.669,522.663 420.995,519.293 419.647,517.272 417.626,516.598 416.278,516.598 " />
<polyline points="429.755,516.598 427.733,517.272 426.385,519.293 425.712,522.663 425.712,524.684 426.385,528.053 427.733,530.075 429.755,530.749 431.102,530.749 433.124,530.075 434.471,528.053 435.145,524.684 435.145,522.663 434.471,519.293 433.124,517.272 431.102,516.598 429.755,516.598 " />
<polyline points="316.879,512.908 342.599,512.908 " />
<polyline points="310.643,536.702 316.879,512.908 " />
<polyline points="305.967,524.239 310.643,536.702 " />
<polyline points="302.07,529.904 305.967,524.239 " />
<polyline points="326.129,516.598 320.738,530.749 " />
<polyline points="326.129,516.598 331.519,530.749 " />
<polyline points="322.759,526.032 329.498,526.032 " />
<polyline points="338.226,525.297 337.013,525.701 336.205,526.914 335.801,528.936 335.801,530.148 336.205,532.17 337.013,533.383 338.226,533.787 339.035,533.787 340.248,533.383 341.056,532.17 341.461,530.148 341.461,528.936 341.056,526.914 340.248,525.701 339.035,525.297 338.226,525.297 " />
<polyline points="220.817,516.598 220.817,530.749 228.903,530.749 " />
<polyline points="233.64,530.321 239.57,530.321 239.57,529.333 239.076,528.344 238.582,527.85 237.593,527.356 236.111,527.356 235.123,527.85 234.134,528.839 233.64,530.321 233.64,531.309 234.134,532.792 235.123,533.78 236.111,534.274 237.593,534.274 238.582,533.78 239.57,532.792 " />
<polyline points="249.083,522.376 261.212,522.376 " />
<polyline points="249.083,526.419 261.212,526.419 " />
<polyline points="278.731,516.311 284.122,530.462 " />
<polyline points="289.513,516.311 284.122,530.462 " />
<polyline points="68.4546,518.333 79.236,524.397 68.4546,530.462 " />
<polyline points="98.7772,519.68 98.7772,519.006 99.451,517.659 100.125,516.985 101.473,516.311 104.168,516.311 105.516,516.985 106.189,517.659 106.863,519.006 106.863,520.354 106.189,521.702 104.842,523.723 98.1033,530.462 107.537,530.462 " />
<polyline points="119.666,516.311 112.928,516.311 112.254,522.376 112.928,521.702 114.949,521.028 116.971,521.028 118.992,521.702 120.34,523.049 121.014,525.071 121.014,526.419 120.34,528.44 118.992,529.788 116.971,530.462 114.949,530.462 112.928,529.788 112.254,529.114 111.58,527.766 " />
<polyline points="129.1,516.311 127.078,516.985 125.731,519.006 125.057,522.376 125.057,524.397 125.731,527.766 127.078,529.788 129.1,530.462 130.447,530.462 132.469,529.788 133.817,527.766 134.49,524.397 134.49,522.376 133.817,519.006 132.469,516.985 130.447,516.311 129.1,516.311 " />
<polyline points="142.576,516.311 140.555,516.985 139.207,519.006 138.533,522.376 138.533,524.397 139.207,527.766 140.555,529.788 142.576,530.462 143.924,530.462 145.946,529.788 147.293,527.766 147.967,524.397 147.967,522.376 147.293,519.006 145.946,516.985 143.924,516.311 142.576,516.311 " />
<polyline points="170.878,516.311 169.53,516.311 168.182,516.985 167.508,519.006 167.508,530.462 " />
<polyline points="165.487,521.028 170.204,521.028 " />
<polyline points="174.921,521.028 174.921,535.178 " />
<polyline points="174.921,523.049 176.268,521.702 177.616,521.028 179.637,521.028 180.985,521.702 182.333,523.049 183.007,525.071 183.007,526.419 182.333,528.44 180.985,529.788 179.637,530.462 177.616,530.462 176.268,529.788 174.921,528.44 " />
<polyline points="187.723,521.028 187.723,530.462 " />
<polyline points="187.723,523.723 189.745,521.702 191.093,521.028 193.114,521.028 194.462,521.702 195.136,523.723 195.136,530.462 " />
<polyline points="195.136,523.723 197.157,521.702 198.505,521.028 200.526,521.028 201.874,521.702 202.548,523.723 202.548,530.462 " />
<polyline points="208.612,521.028 207.938,521.702 208.612,522.376 209.286,521.702 208.612,521.028 " />
<polyline points="208.612,529.114 207.938,529.788 208.612,530.462 209.286,529.788 208.612,529.114 " />
<polyline points="48.3109,524.886 47.098,525.291 46.2894,526.504 45.8851,528.525 45.8851,529.738 46.2894,531.76 47.098,532.972 48.3109,533.377 49.1195,533.377 50.3324,532.972 51.141,531.76 51.5453,529.738 51.5453,528.525 51.141,526.504 50.3324,525.291 49.1195,524.886 48.3109,524.886 " />
<polyline points="33.1978,516.311 38.5885,530.462 " />
<polyline points="43.9792,516.311 38.5885,530.462 " />
<polyline points="92.889,641.524 91.6761,641.929 90.8675,643.141 90.4632,645.163 90.4632,646.376 90.8675,648.397 91.6761,649.61 92.889,650.015 93.6976,650.015 94.9105,649.61 95.7191,648.397 96.1234,646.376 96.1234,645.163 95.7191,643.141 94.9105,641.929 93.6976,641.524 92.889,641.524 " />
<polyline points="77.7759,632.828 83.1666,646.979 " />
<polyline points="88.5573,632.828 83.1666,646.979 " />
<polyline points="113.033,638.893 125.162,638.893 " />
<polyline points="113.033,642.936 125.162,642.936 " />
<polyline points="152.115,632.828 152.115,646.979 " />
<polyline points="152.115,639.567 150.767,638.219 149.42,637.545 147.398,637.545 146.051,638.219 144.703,639.567 144.029,641.588 144.029,642.936 144.703,644.957 146.051,646.305 147.398,646.979 149.42,646.979 150.767,646.305 152.115,644.957 " />
<polyline points="157.506,637.545 157.506,644.284 158.18,646.305 159.527,646.979 161.549,646.979 162.896,646.305 164.918,644.284 " />
<polyline points="164.918,637.545 164.918,646.979 " />
<polyline points="177.721,639.567 176.373,638.219 175.026,637.545 173.004,637.545 171.656,638.219 170.309,639.567 169.635,641.588 169.635,642.936 170.309,644.957 171.656,646.305 173.004,646.979 175.026,646.979 176.373,646.305 177.721,644.957 " />
<polyline points="183.112,632.828 183.112,644.284 183.785,646.305 185.133,646.979 186.481,646.979 " />
<polyline points="181.09,637.545 185.807,637.545 " />
<polyline points="203.327,637.545 207.37,646.979 " />
<polyline points="211.413,637.545 207.37,646.979 " />
<polyline points="214.782,641.588 222.868,641.588 222.868,640.241 222.194,638.893 221.52,638.219 220.172,637.545 218.151,637.545 216.803,638.219 215.456,639.567 214.782,641.588 214.782,642.936 215.456,644.957 216.803,646.305 218.151,646.979 220.172,646.979 221.52,646.305 222.868,644.957 " />
<polyline points="227.585,632.828 227.585,646.979 " />
<polyline points="235.671,637.545 234.323,638.219 232.975,639.567 232.302,641.588 232.302,642.936 232.975,644.957 234.323,646.305 235.671,646.979 237.692,646.979 239.04,646.305 240.388,644.957 241.061,642.936 241.061,641.588 240.388,639.567 239.04,638.219 237.692,637.545 235.671,637.545 " />
<polyline points="253.19,639.567 251.843,638.219 250.495,637.545 248.474,637.545 247.126,638.219 245.778,639.567 245.104,641.588 245.104,642.936 245.778,644.957 247.126,646.305 248.474,646.979 250.495,646.979 251.843,646.305 253.19,644.957 " />
<polyline points="257.233,633.502 257.907,634.176 258.581,633.502 257.907,632.828 257.233,633.502 " />
<polyline points="257.907,638.219 257.907,646.979 " />
<polyline points="263.972,632.828 263.972,644.284 264.646,646.305 265.993,646.979 267.341,646.979 " />
<polyline points="261.95,637.545 266.667,637.545 " />
<polyline points="270.036,637.545 274.079,646.979 " />
<polyline points="278.122,637.545 274.079,646.979 272.732,649.674 271.384,651.022 270.036,651.696 269.362,651.696 " />
<polyline points="283.513,646.305 282.839,646.979 282.165,646.305 282.839,645.631 283.513,646.305 283.513,647.653 282.839,649 282.165,649.674 " />
<polyline points="307.097,632.828 305.75,632.828 304.402,633.502 303.728,635.524 303.728,646.979 " />
<polyline points="301.707,637.545 306.423,637.545 " />
<polyline points="311.14,637.545 311.14,651.696 " />
<polyline points="311.14,639.567 312.488,638.219 313.836,637.545 315.857,637.545 317.205,638.219 318.552,639.567 319.226,641.588 319.226,642.936 318.552,644.957 317.205,646.305 315.857,646.979 313.836,646.979 312.488,646.305 311.14,644.957 " />
<polyline points="323.943,637.545 323.943,646.979 " />
<polyline points="323.943,640.241 325.965,638.219 327.312,637.545 329.334,637.545 330.681,638.219 331.355,640.241 331.355,646.979 " />
<polyline points="331.355,640.241 333.377,638.219 334.724,637.545 336.746,637.545 338.094,638.219 338.767,640.241 338.767,646.979 " />
<polyline points="289.45,706.108 289.45,705.703 289.854,704.895 290.259,704.49 291.067,704.086 292.684,704.086 293.493,704.49 293.897,704.895 294.302,705.703 294.302,706.512 293.897,707.321 293.089,708.533 289.046,712.576 294.706,712.576 " />
<polyline points="79.7974,669.085 79.7974,683.236 87.8834,683.236 " />
<polyline points="93.559,683.572 99.4887,683.572 99.4887,682.584 98.9946,681.595 98.5004,681.101 97.5122,680.607 96.0297,680.607 95.0414,681.101 94.0531,682.09 93.559,683.572 93.559,684.56 94.0531,686.043 95.0414,687.031 96.0297,687.525 97.5122,687.525 98.5004,687.031 99.4887,686.043 " />
<polyline points="83.1666,705.342 77.7759,719.492 " />
<polyline points="83.1666,705.342 88.5573,719.492 " />
<polyline points="79.7974,714.775 86.5358,714.775 " />
<polyline points="95.0087,714.428 93.7958,714.832 92.9872,716.045 92.5829,718.067 92.5829,719.28 92.9872,721.301 93.7958,722.514 95.0087,722.918 95.8173,722.918 97.0302,722.514 97.8388,721.301 98.2431,719.28 98.2431,718.067 97.8388,716.045 97.0302,714.832 95.8173,714.428 95.0087,714.428 " />
<polyline points="113.033,675.149 125.162,675.149 " />
<polyline points="113.033,679.192 125.162,679.192 " />
<polyline points="144.029,677.845 152.115,677.845 152.115,676.497 151.441,675.149 150.767,674.476 149.42,673.802 147.398,673.802 146.051,674.476 144.703,675.823 144.029,677.845 144.029,679.192 144.703,681.214 146.051,682.562 147.398,683.236 149.42,683.236 150.767,682.562 152.115,681.214 " />
<polyline points="160.875,669.085 159.527,669.085 158.18,669.759 157.506,671.78 157.506,683.236 " />
<polyline points="155.484,673.802 160.201,673.802 " />
<polyline points="168.961,669.085 167.613,669.085 166.266,669.759 165.592,671.78 165.592,683.236 " />
<polyline points="163.57,673.802 168.287,673.802 " />
<polyline points="172.33,677.845 180.416,677.845 180.416,676.497 179.742,675.149 179.069,674.476 177.721,673.802 175.699,673.802 174.352,674.476 173.004,675.823 172.33,677.845 172.33,679.192 173.004,681.214 174.352,682.562 175.699,683.236 177.721,683.236 179.069,682.562 180.416,681.214 " />
<polyline points="192.545,675.823 191.198,674.476 189.85,673.802 187.828,673.802 186.481,674.476 185.133,675.823 184.459,677.845 184.459,679.192 185.133,681.214 186.481,682.562 187.828,683.236 189.85,683.236 191.198,682.562 192.545,681.214 " />
<polyline points="197.936,669.085 197.936,680.54 198.61,682.562 199.957,683.236 201.305,683.236 " />
<polyline points="195.914,673.802 200.631,673.802 " />
<polyline points="204.674,669.759 205.348,670.433 206.022,669.759 205.348,669.085 204.674,669.759 " />
<polyline points="205.348,674.476 205.348,683.236 " />
<polyline points="209.391,673.802 213.434,683.236 " />
<polyline points="217.477,673.802 213.434,683.236 " />
<polyline points="220.846,677.845 228.932,677.845 228.932,676.497 228.258,675.149 227.585,674.476 226.237,673.802 224.215,673.802 222.868,674.476 221.52,675.823 220.846,677.845 220.846,679.192 221.52,681.214 222.868,682.562 224.215,683.236 226.237,683.236 227.585,682.562 228.932,681.214 " />
<polyline points="255.212,669.085 255.212,683.236 " />
<polyline points="255.212,675.823 253.864,674.476 252.517,673.802 250.495,673.802 249.147,674.476 247.8,675.823 247.126,677.845 247.126,679.192 247.8,681.214 249.147,682.562 250.495,683.236 252.517,683.236 253.864,682.562 255.212,681.214 " />
<polyline points="260.603,673.802 260.603,680.54 261.276,682.562 262.624,683.236 264.646,683.236 265.993,682.562 268.015,680.54 " />
<polyline points="268.015,673.802 268.015,683.236 " />
<polyline points="280.818,675.823 279.47,674.476 278.122,673.802 276.101,673.802 274.753,674.476 273.405,675.823 272.732,677.845 272.732,679.192 273.405,681.214 274.753,682.562 276.101,683.236 278.122,683.236 279.47,682.562 280.818,681.214 " />
<polyline points="286.208,669.085 286.208,680.54 286.882,682.562 288.23,683.236 289.578,683.236 " />
<polyline points="284.187,673.802 288.904,673.802 " />
<polyline points="307.771,669.085 307.771,683.236 " />
<polyline points="312.488,677.845 320.574,677.845 320.574,676.497 319.9,675.149 319.226,674.476 317.879,673.802 315.857,673.802 314.509,674.476 313.162,675.823 312.488,677.845 312.488,679.192 313.162,681.214 314.509,682.562 315.857,683.236 317.879,683.236 319.226,682.562 320.574,681.214 " />
<polyline points="325.291,673.802 325.291,683.236 " />
<polyline points="325.291,676.497 327.312,674.476 328.66,673.802 330.681,673.802 332.029,674.476 332.703,676.497 332.703,683.236 " />
<polyline points="345.506,673.802 345.506,684.583 344.832,686.605 344.158,687.279 342.811,687.952 340.789,687.952 339.441,687.279 " />
<polyline points="345.506,675.823 344.158,674.476 342.811,673.802 340.789,673.802 339.441,674.476 338.094,675.823 337.42,677.845 337.42,679.192 338.094,681.214 339.441,682.562 340.789,683.236 342.811,683.236 344.158,682.562 345.506,681.214 " />
<polyline points="351.57,669.085 351.57,680.54 352.244,682.562 353.592,683.236 354.94,683.236 " />
<polyline points="349.549,673.802 354.266,673.802 " />
<polyline points="358.983,669.085 358.983,683.236 " />
<polyline points="358.983,676.497 361.004,674.476 362.352,673.802 364.373,673.802 365.721,674.476 366.395,676.497 366.395,683.236 " />
<polyline points="373.133,682.562 372.459,683.236 371.785,682.562 372.459,681.888 373.133,682.562 373.133,683.909 372.459,685.257 371.785,685.931 " />
<polyline points="396.717,669.085 395.37,669.085 394.022,669.759 393.348,671.78 393.348,683.236 " />
<polyline points="391.327,673.802 396.043,673.802 " />
<polyline points="401.434,669.085 401.434,680.54 402.108,682.562 403.456,683.236 404.803,683.236 " />
<polyline points="399.413,673.802 404.13,673.802 " />
<polyline points="113.033,711.406 125.162,711.406 " />
<polyline points="113.033,715.449 125.162,715.449 " />
<polyline points="152.115,705.342 152.115,719.492 " />
<polyline points="152.115,712.08 150.767,710.732 149.42,710.058 147.398,710.058 146.051,710.732 144.703,712.08 144.029,714.101 144.029,715.449 144.703,717.471 146.051,718.818 147.398,719.492 149.42,719.492 150.767,718.818 152.115,717.471 " />
<polyline points="157.506,710.058 157.506,716.797 158.18,718.818 159.527,719.492 161.549,719.492 162.896,718.818 164.918,716.797 " />
<polyline points="164.918,710.058 164.918,719.492 " />
<polyline points="177.721,712.08 176.373,710.732 175.026,710.058 173.004,710.058 171.656,710.732 170.309,712.08 169.635,714.101 169.635,715.449 170.309,717.471 171.656,718.818 173.004,719.492 175.026,719.492 176.373,718.818 177.721,717.471 " />
<polyline points="183.112,705.342 183.112,716.797 183.785,718.818 185.133,719.492 186.481,719.492 " />
<polyline points="181.09,710.058 185.807,710.058 " />
<polyline points="212.086,710.058 212.086,719.492 " />
<polyline points="212.086,712.08 210.739,710.732 209.391,710.058 207.37,710.058 206.022,710.732 204.674,712.08 204,714.101 204,715.449 204.674,717.471 206.022,718.818 207.37,719.492 209.391,719.492 210.739,718.818 212.086,717.471 " />
<polyline points="217.477,710.058 217.477,719.492 " />
<polyline points="217.477,714.101 218.151,712.08 219.499,710.732 220.846,710.058 222.868,710.058 " />
<polyline points="225.563,714.101 233.649,714.101 233.649,712.754 232.975,711.406 232.302,710.732 230.954,710.058 228.932,710.058 227.585,710.732 226.237,712.08 225.563,714.101 225.563,715.449 226.237,717.471 227.585,718.818 228.932,719.492 230.954,719.492 232.302,718.818 233.649,717.471 " />
<polyline points="245.778,710.058 245.778,719.492 " />
<polyline points="245.778,712.08 244.431,710.732 243.083,710.058 241.061,710.058 239.714,710.732 238.366,712.08 237.692,714.101 237.692,715.449 238.366,717.471 239.714,718.818 241.061,719.492 243.083,719.492 244.431,718.818 245.778,717.471 " />
<polyline points="252.517,718.818 251.843,719.492 251.169,718.818 251.843,718.144 252.517,718.818 252.517,720.166 251.843,721.514 251.169,722.187 " />
<polyline points="271.384,706.015 272.058,706.689 272.732,706.015 272.058,705.342 271.384,706.015 " />
<polyline points="272.058,710.732 272.058,719.492 " />
<polyline points="277.448,710.058 277.448,719.492 " />
<polyline points="277.448,712.754 279.47,710.732 280.818,710.058 282.839,710.058 284.187,710.732 284.861,712.754 284.861,719.492 " />
</g>
<g clip-path="url(#clipId0)" fill="rgb(0,0,0)" stroke="rgb(0,0,0)" stroke-width="0.25" >
<path d="M775.283,249.849 770.566,249.849 772.924,264 772.924,264 z" />
<path d="M796.537,249.849 791.82,249.849 794.178,264 794.178,264 z" />
<path d="M805.936,281.591 802.634,278.223 794.178,289.811 794.178,289.811 z" />
</g>
<g clip-path="url(#clipId0)" fill="none" stroke="rgb(0,0,0)" stroke-width="0.25" >
<polyline points="804.285,279.907 823.825,260.758 " />
<polyline points="823.825,260.758 847.409,260.758 " />
<polyline points="865.284,253.683 865.284,267.833 " />
<polyline points="874.718,253.683 874.718,267.833 " />
<polyline points="865.284,260.421 874.718,260.421 " />
<polyline points="893.585,258.4 900.997,267.833 " />
<polyline points="900.997,258.4 893.585,267.833 " />
<polyline points="918.517,253.683 921.886,267.833 " />
<polyline points="925.255,253.683 921.886,267.833 " />
<polyline points="925.255,253.683 928.625,267.833 " />
<polyline points="931.994,253.683 928.625,267.833 " />
<polyline points="772.924,202.169 772.924,157.621 " />
<polyline points="794.178,229.22 794.178,213.725 " />
<polyline points="902.648,742.681 900.671,740.705 897.706,739.716 893.753,739.716 890.788,740.705 888.812,742.681 888.812,744.658 889.8,746.635 890.788,747.623 892.765,748.611 898.695,750.588 900.671,751.576 901.659,752.564 902.648,754.541 902.648,757.506 900.671,759.482 897.706,760.471 893.753,760.471 890.788,759.482 888.812,757.506 " />
<polyline points="909.566,739.716 909.566,760.471 " />
<polyline points="909.566,739.716 918.46,739.716 921.425,740.705 922.414,741.693 923.402,743.67 923.402,745.646 922.414,747.623 921.425,748.611 918.46,749.599 909.566,749.599 " />
<polyline points="916.484,749.599 923.402,760.471 " />
<polyline points="943.168,739.716 933.285,760.471 " />
<polyline points="929.332,739.716 943.168,739.716 " />
<polyline points="950.086,751.576 967.875,751.576 " />
<polyline points="977.758,743.67 979.734,742.681 982.699,739.716 982.699,760.471 " />
<polyline points="1000.49,739.716 997.524,740.705 995.547,743.67 994.559,748.611 994.559,751.576 995.547,756.517 997.524,759.482 1000.49,760.471 1002.47,760.471 1005.43,759.482 1007.41,756.517 1008.39,751.576 1008.39,748.611 1007.41,743.67 1005.43,740.705 1002.47,739.716 1000.49,739.716 " />
</g>
</svg>
