<?xml version="1.0" standalone="no"?>
<svg viewBox="0 0 1024 768" version="1.1" xmlns="http://www.w3.org/2000/svg" xmlns:xlink="http://www.w3.org/1999/xlink" stroke-linecap="round" stroke-linejoin="round" fill-rule="evenodd" xml:space="preserve" >
<defs >
<clipPath id="clipId0" >
<path d="M0,768 1024,768 1024,0 0,0 z" />
</clipPath>
</defs>
<g clip-path="url(#clipId0)" fill="none" stroke="rgb(0,0,0)" stroke-width="0.1" />
<g clip-path="url(#clipId0)" fill="none" stroke="rgb(0,0,0)" stroke-width="0.25" >
<polyline points="497.11,193.285 331.28,193.285 " />
</g>
<g clip-path="url(#clipId0)" fill="rgb(0,0,0)" stroke="rgb(0,0,0)" stroke-width="0.25" >
<path d="M497.11,190.855 497.11,195.714 511.688,193.285 511.688,193.285 z" />
</g>
<g clip-path="url(#clipId0)" fill="none" stroke="rgb(0,0,0)" stroke-width="0.25" >
<polyline points="910.432,57.6614 716.064,57.6614 " />
<polyline points="959.729,178.251 1004.89,204.328 " />
<polyline points="959.729,178.251 982.312,178.251 " />
<polyline points="1004.89,204.328 982.312,204.328 " />
<polyline points="982.312,28.5062 982.312,178.251 " />
<polyline points="982.312,204.328 982.312,354.073 " />
<polyline points="910.432,324.917 716.064,324.917 " />
<polyline points="716.064,57.6614 716.064,324.917 " />
<polyline points="716.064,142.697 174.662,142.697 " />
<polyline points="716.064,239.881 271.846,239.881 " />
<circle cx="174.662" cy="239.881" r="48.592" />
<path d="M174.662,142.697  A97.184,97.184 0 1,0 267.369,210.726 " />
<polyline points="798.103,107.307 798.103,121.885 " />
<polyline points="798.103,107.307 804.35,107.307 806.433,108.001 807.127,108.696 807.821,110.084 807.821,112.166 807.127,113.555 806.433,114.249 804.35,114.943 798.103,114.943 " />
<polyline points="812.68,107.307 812.68,121.885 821.011,121.885 " />
<polyline points="824.481,107.307 824.481,121.885 " />
<polyline points="824.481,107.307 833.506,107.307 " />
<polyline points="824.481,114.249 830.035,114.249 " />
<polyline points="824.481,121.885 833.506,121.885 " />
<polyline points="837.671,107.307 837.671,121.885 " />
<polyline points="837.671,107.307 847.389,121.885 " />
<polyline points="847.389,107.307 847.389,121.885 " />
<polyline points="852.942,107.307 852.942,117.72 853.637,119.802 855.025,121.191 857.107,121.885 858.496,121.885 860.578,121.191 861.967,119.802 862.661,117.72 862.661,107.307 " />
<polyline points="868.214,107.307 868.214,121.885 " />
<polyline points="868.214,107.307 873.768,121.885 " />
<polyline points="879.321,107.307 873.768,121.885 " />
<polyline points="879.321,107.307 879.321,121.885 " />
<polyline points="395.824,200.7 390.271,215.278 " />
<polyline points="395.824,200.7 401.378,215.278 " />
<polyline points="392.353,210.419 399.295,210.419 " />
<polyline points="413.529,208.915 412.279,209.331 411.446,210.581 411.03,212.663 411.03,213.913 411.446,215.995 412.279,217.245 413.529,217.661 414.362,217.661 415.611,217.245 416.444,215.995 416.861,213.913 416.861,212.663 416.444,210.581 415.611,209.331 414.362,208.915 413.529,208.915 " />
<polyline points="295.875,239.881 295.875,142.697 " />
<polyline points="295.875,245.955 295.875,306.466 " />
<polyline points="701.486,288.973 524.712,288.973 " />
<polyline points="310.453,288.973 487.227,288.973 " />
</g>
<g clip-path="url(#clipId0)" fill="rgb(0,0,0)" stroke="rgb(0,0,0)" stroke-width="0.25" >
<path d="M701.486,291.402 701.486,286.543 716.064,288.973 716.064,288.973 z" />
<path d="M310.453,291.402 310.453,286.543 295.875,288.973 295.875,288.973 z" />
</g>
<g clip-path="url(#clipId0)" fill="none" stroke="rgb(0,0,0)" stroke-width="0.25" >
<polyline points="504.581,281.684 504.581,296.261 512.911,296.261 " />
</g>
<g clip-path="url(#clipId0)" fill="rgb(0,0,0)" stroke="rgb(0,0,0)" stroke-width="0.25" >
<path d="M111.21,332.076 115.453,334.443 120.433,320.529 120.433,320.529 z" />
</g>
<g clip-path="url(#clipId0)" fill="none" stroke="rgb(0,0,0)" stroke-width="0.25" >
<polyline points="113.332,333.26 95.4279,365.355 " />
<polyline points="95.4279,365.355 122.673,365.355 " />
<polyline points="149.746,361.537 149.052,360.149 147.663,358.761 146.275,358.067 143.498,358.067 142.11,358.761 140.722,360.149 140.027,361.537 139.333,363.62 139.333,367.091 140.027,369.173 140.722,370.562 142.11,371.95 143.498,372.644 146.275,372.644 147.663,371.95 149.052,370.562 149.746,369.173 " />
<polyline points="154.605,358.067 154.605,372.644 " />
<polyline points="154.605,358.067 163.629,358.067 " />
<polyline points="154.605,365.008 160.158,365.008 " />
<polyline points="154.605,372.644 163.629,372.644 " />
<polyline points="167.794,358.067 167.794,372.644 " />
<polyline points="167.794,358.067 177.513,372.644 " />
<polyline points="177.513,358.067 177.513,372.644 " />
<polyline points="185.843,358.067 185.843,372.644 " />
<polyline points="180.984,358.067 190.702,358.067 " />
<polyline points="194.173,358.067 194.173,372.644 " />
<polyline points="194.173,358.067 200.42,358.067 202.503,358.761 203.197,359.455 203.891,360.843 203.891,362.232 203.197,363.62 202.503,364.314 200.42,365.008 194.173,365.008 " />
<polyline points="199.032,365.008 203.891,372.644 " />
<polyline points="208.75,358.067 208.75,372.644 " />
<polyline points="214.304,358.067 214.304,372.644 " />
<polyline points="214.304,358.067 223.328,358.067 " />
<polyline points="214.304,365.008 219.857,365.008 " />
<polyline points="226.799,358.067 226.799,368.479 227.493,370.562 228.881,371.95 230.964,372.644 232.352,372.644 234.435,371.95 235.823,370.562 236.517,368.479 236.517,358.067 " />
<polyline points="251.789,361.537 251.095,360.149 249.707,358.761 248.318,358.067 245.542,358.067 244.153,358.761 242.765,360.149 242.071,361.537 241.377,363.62 241.377,367.091 242.071,369.173 242.765,370.562 244.153,371.95 245.542,372.644 248.318,372.644 249.707,371.95 251.095,370.562 251.789,369.173 251.789,367.091 " />
<polyline points="248.318,367.091 251.789,367.091 " />
<polyline points="260.119,358.067 254.566,372.644 " />
<polyline points="260.119,358.067 265.673,372.644 " />
<polyline points="256.648,367.785 263.59,367.785 " />
<polyline points="269.143,358.067 269.143,372.644 277.473,372.644 " />
<polyline points="295.522,358.067 295.522,372.644 " />
<polyline points="295.522,358.067 304.546,358.067 " />
<polyline points="295.522,365.008 301.075,365.008 " />
<polyline points="311.488,358.067 305.934,372.644 " />
<polyline points="311.488,358.067 317.041,372.644 " />
<polyline points="308.017,367.785 314.959,367.785 " />
<polyline points="320.512,358.067 320.512,372.644 " />
<polyline points="320.512,358.067 330.23,372.644 " />
<polyline points="330.23,358.067 330.23,372.644 " />
</g>
<g clip-path="url(#clipId0)" fill="rgb(0,0,0)" stroke="rgb(0,0,0)" stroke-width="0.25" >
<path d="M256.407,200.815 253.785,204.906 267.369,210.726 267.369,210.726 z" />
</g>
<g clip-path="url(#clipId0)" fill="none" stroke="rgb(0,0,0)" stroke-width="0.25" >
<polyline points="255.096,202.86 124.619,119.233 " />
<polyline points="124.619,119.233 110.042,119.233 " />
<polyline points="29.5177,115.416 28.8236,114.027 27.4352,112.639 26.0469,111.945 23.2702,111.945 21.8818,112.639 20.4935,114.027 19.7993,115.416 19.1051,117.498 19.1051,120.969 19.7993,123.051 20.4935,124.44 21.8818,125.828 23.2702,126.522 26.0469,126.522 27.4352,125.828 28.8236,124.44 29.5177,123.051 " />
<polyline points="34.3769,111.945 34.3769,122.357 35.0711,124.44 36.4594,125.828 38.542,126.522 39.9303,126.522 42.0128,125.828 43.4012,124.44 44.0953,122.357 44.0953,111.945 " />
<polyline points="52.4254,111.945 52.4254,126.522 " />
<polyline points="47.5662,111.945 57.2846,111.945 " />
<polyline points="64.2263,111.945 62.838,112.639 61.4496,114.027 60.7555,115.416 60.0613,117.498 60.0613,120.969 60.7555,123.051 61.4496,124.44 62.838,125.828 64.2263,126.522 67.003,126.522 68.3913,125.828 69.7797,124.44 70.4739,123.051 71.168,120.969 71.168,117.498 70.4739,115.416 69.7797,114.027 68.3913,112.639 67.003,111.945 64.2263,111.945 " />
<polyline points="76.0272,111.945 76.0272,126.522 " />
<polyline points="76.0272,111.945 85.0515,111.945 " />
<polyline points="76.0272,118.886 81.5806,118.886 " />
<polyline points="88.5223,111.945 88.5223,126.522 " />
<polyline points="88.5223,111.945 97.5465,111.945 " />
<polyline points="88.5223,118.886 94.0757,118.886 " />
</g>
<g clip-path="url(#clipId0)" fill="rgb(0,0,0)" stroke="rgb(0,0,0)" stroke-width="0.25" >
<path d="M298.305,128.12 293.446,128.12 295.875,142.697 295.875,142.697 z" />
</g>
<g clip-path="url(#clipId0)" fill="none" stroke="rgb(0,0,0)" stroke-width="0.25" >
<polyline points="295.875,128.12 295.875,105.089 " />
<polyline points="295.875,57.2007 317.282,57.2007 " />
<polyline points="338.108,49.9119 336.719,50.6061 335.331,51.9944 334.637,53.3828 333.943,55.4653 333.943,58.9362 334.637,61.0187 335.331,62.407 336.719,63.7954 338.108,64.4895 340.884,64.4895 342.273,63.7954 343.661,62.407 344.355,61.0187 345.049,58.9362 345.049,55.4653 344.355,53.3828 343.661,51.9944 342.273,50.6061 340.884,49.9119 338.108,49.9119 " />
<polyline points="349.908,49.9119 349.908,60.3245 350.603,62.407 351.991,63.7954 354.073,64.4895 355.462,64.4895 357.544,63.7954 358.933,62.407 359.627,60.3245 359.627,49.9119 " />
<polyline points="367.957,49.9119 367.957,64.4895 " />
<polyline points="363.098,49.9119 372.816,49.9119 " />
<polyline points="376.287,49.9119 376.287,64.4895 384.617,64.4895 " />
<polyline points="388.088,49.9119 388.088,64.4895 " />
<polyline points="388.088,49.9119 397.112,49.9119 " />
<polyline points="388.088,56.8536 393.641,56.8536 " />
<polyline points="388.088,64.4895 397.112,64.4895 " />
<polyline points="404.054,49.9119 404.054,64.4895 " />
<polyline points="399.195,49.9119 408.913,49.9119 " />
<polyline points="430.432,49.9119 424.879,64.4895 " />
<polyline points="430.432,49.9119 435.986,64.4895 " />
<polyline points="426.962,59.6303 433.903,59.6303 " />
<polyline points="439.457,49.9119 439.457,64.4895 " />
<polyline points="439.457,49.9119 445.704,49.9119 447.787,50.6061 448.481,51.3003 449.175,52.6886 449.175,54.077 448.481,55.4653 447.787,56.1595 445.704,56.8536 439.457,56.8536 " />
<polyline points="444.316,56.8536 449.175,64.4895 " />
<polyline points="454.034,49.9119 454.034,64.4895 " />
<polyline points="454.034,49.9119 463.058,49.9119 " />
<polyline points="454.034,56.8536 459.588,56.8536 " />
<polyline points="454.034,64.4895 463.058,64.4895 " />
<polyline points="470.694,49.9119 465.141,64.4895 " />
<polyline points="470.694,49.9119 476.248,64.4895 " />
<polyline points="467.223,59.6303 474.165,59.6303 " />
</g>
<g clip-path="url(#clipId0)" fill="rgb(0,0,0)" stroke="rgb(0,0,0)" stroke-width="0.25" >
<path d="M269.114,128.12 264.254,128.12 266.684,142.697 266.684,142.697 z" />
</g>
<g clip-path="url(#clipId0)" fill="none" stroke="rgb(0,0,0)" stroke-width="0.25" >
<polyline points="266.684,128.12 266.684,65.4827 " />
<polyline points="266.684,17.5949 290.037,17.5949 " />
<polyline points="307.391,10.3061 307.391,24.8837 " />
<polyline points="307.391,10.3061 313.639,10.3061 315.721,11.0003 316.416,11.6944 317.11,13.0828 317.11,14.4711 316.416,15.8595 315.721,16.5536 313.639,17.2478 " />
<polyline points="307.391,17.2478 313.639,17.2478 315.721,17.942 316.416,18.6362 317.11,20.0245 317.11,22.107 316.416,23.4954 315.721,24.1895 313.639,24.8837 307.391,24.8837 " />
<polyline points="321.969,10.3061 321.969,24.8837 330.299,24.8837 " />
<polyline points="337.241,10.3061 331.687,24.8837 " />
<polyline points="337.241,10.3061 342.794,24.8837 " />
<polyline points="333.77,20.0245 340.712,20.0245 " />
<polyline points="355.289,12.3886 353.901,11.0003 351.818,10.3061 349.042,10.3061 346.959,11.0003 345.571,12.3886 345.571,13.777 346.265,15.1653 346.959,15.8595 348.348,16.5536 352.513,17.942 353.901,18.6362 354.595,19.3303 355.289,20.7187 355.289,22.8012 353.901,24.1895 351.818,24.8837 349.042,24.8837 346.959,24.1895 345.571,22.8012 " />
<polyline points="362.925,10.3061 362.925,24.8837 " />
<polyline points="358.066,10.3061 367.784,10.3061 " />
<polyline points="389.304,10.3061 383.75,24.8837 " />
<polyline points="389.304,10.3061 394.857,24.8837 " />
<polyline points="385.833,20.0245 392.775,20.0245 " />
<polyline points="398.328,10.3061 398.328,24.8837 " />
<polyline points="398.328,10.3061 404.575,10.3061 406.658,11.0003 407.352,11.6944 408.046,13.0828 408.046,14.4711 407.352,15.8595 406.658,16.5536 404.575,17.2478 398.328,17.2478 " />
<polyline points="403.187,17.2478 408.046,24.8837 " />
<polyline points="412.905,10.3061 412.905,24.8837 " />
<polyline points="412.905,10.3061 421.93,10.3061 " />
<polyline points="412.905,17.2478 418.459,17.2478 " />
<polyline points="412.905,24.8837 421.93,24.8837 " />
<polyline points="429.566,10.3061 424.012,24.8837 " />
<polyline points="429.566,10.3061 435.119,24.8837 " />
<polyline points="426.095,20.0245 433.036,20.0245 " />
<polyline points="465.406,10.3061 459.853,24.8837 " />
<polyline points="465.406,10.3061 470.959,24.8837 " />
<polyline points="461.935,20.0245 468.877,20.0245 " />
<polyline points="476.502,19.5854 476.502,28.3319 " />
<polyline points="476.502,23.7504 477.335,22.9174 478.168,22.5009 479.418,22.5009 480.251,22.9174 481.084,23.7504 481.5,24.9999 481.5,25.8329 481.084,27.0824 480.251,27.9154 479.418,28.3319 478.168,28.3319 477.335,27.9154 476.502,27.0824 " />
<polyline points="454.478,7.52941 453.09,8.91776 451.701,11.0003 450.313,13.777 449.619,17.2478 449.619,20.0245 450.313,23.4954 451.701,26.272 453.09,28.3546 454.478,29.7429 " />
<polyline points="488.073,7.52941 489.461,8.91776 490.85,11.0003 492.238,13.777 492.932,17.2478 492.932,20.0245 492.238,23.4954 490.85,26.272 489.461,28.3546 488.073,29.7429 " />
<polyline points="525.317,47.1352 526.706,48.5236 528.094,50.6061 529.482,53.3828 530.177,56.8536 530.177,59.6303 529.482,63.1012 528.094,65.8779 526.706,67.9604 525.317,69.3487 " />
<polyline points="491.722,47.1352 490.334,48.5236 488.946,50.6061 487.557,53.3828 486.863,56.8536 486.863,59.6303 487.557,63.1012 488.946,65.8779 490.334,67.9604 491.722,69.3487 " />
<polyline points="516.894,59.7236 515.645,60.1401 514.812,61.3896 514.395,63.4721 514.395,64.7216 514.812,66.8041 515.645,68.0536 516.894,68.4701 517.727,68.4701 518.977,68.0536 519.81,66.8041 520.226,64.7216 520.226,63.4721 519.81,61.3896 518.977,60.1401 517.727,59.7236 516.894,59.7236 " />
<polyline points="502.65,49.9119 497.097,64.4895 " />
<polyline points="502.65,49.9119 508.204,64.4895 " />
<polyline points="499.18,59.6303 506.121,59.6303 " />
<polyline points="393.729,171.178 392.341,171.872 390.953,173.261 390.258,174.649 389.564,176.732 389.564,180.202 390.258,182.285 390.953,183.673 392.341,185.062 393.729,185.756 396.506,185.756 397.894,185.062 399.283,183.673 399.977,182.285 400.671,180.202 400.671,176.732 399.977,174.649 399.283,173.261 397.894,171.872 396.506,171.178 393.729,171.178 " />
<polyline points="395.812,182.979 399.977,187.144 " />
<polyline points="782.26,192.585 783.093,192.168 784.342,190.919 784.342,199.665 " />
<polyline points="770.205,180.79 764.651,195.368 " />
<polyline points="770.205,180.79 775.758,195.368 " />
<polyline points="766.734,190.509 773.675,190.509 " />
<polyline points="803.906,176.209 802.518,177.597 801.13,179.68 799.741,182.456 799.047,185.927 799.047,188.704 799.741,192.175 801.13,194.951 802.518,197.034 803.906,198.422 " />
<polyline points="808.765,178.985 808.765,193.563 " />
<polyline points="818.484,178.985 818.484,193.563 " />
<polyline points="808.765,185.927 818.484,185.927 " />
<polyline points="852.498,183.845 860.134,193.563 " />
<polyline points="860.134,183.845 852.498,193.563 " />
<polyline points="878.183,178.985 881.653,193.563 " />
<polyline points="885.124,178.985 881.653,193.563 " />
<polyline points="885.124,178.985 888.595,193.563 " />
<polyline points="892.066,178.985 888.595,193.563 " />
<polyline points="910.114,176.209 911.503,177.597 912.891,179.68 914.28,182.456 914.974,185.927 914.974,188.704 914.28,192.175 912.891,194.951 911.503,197.034 910.114,198.422 " />
<polyline points="566.853,203.955 565.603,204.372 564.77,205.621 564.354,207.704 564.354,208.953 564.77,211.036 565.603,212.285 566.853,212.702 567.686,212.702 568.935,212.285 569.768,211.036 570.185,208.953 570.185,207.704 569.768,205.621 568.935,204.372 567.686,203.955 566.853,203.955 " />
<polyline points="638.511,202.492 637.262,202.909 636.429,204.158 636.012,206.241 636.012,207.49 636.429,209.573 637.262,210.822 638.511,211.239 639.344,211.239 640.594,210.822 641.427,209.573 641.843,207.49 641.843,206.241 641.427,204.158 640.594,202.909 639.344,202.492 638.511,202.492 " />
<polyline points="825.605,190.391 826.438,189.974 827.687,188.724 827.687,197.471 " />
<polyline points="899.504,189.786 900.337,189.37 901.587,188.12 901.587,196.867 " />
<polyline points="770.033,508.32 776.142,508.32 776.142,507.301 775.633,506.283 775.124,505.774 774.106,505.265 772.579,505.265 771.561,505.774 770.543,506.792 770.033,508.32 770.033,509.338 770.543,510.865 771.561,511.883 772.579,512.392 774.106,512.392 775.124,511.883 776.142,510.865 " />
<polyline points="769.999,471.132 776.108,471.132 776.108,470.114 775.599,469.096 775.09,468.587 774.072,468.078 772.544,468.078 771.526,468.587 770.508,469.605 769.999,471.132 769.999,472.151 770.508,473.678 771.526,474.696 772.544,475.205 774.072,475.205 775.09,474.696 776.108,473.678 " />
<polyline points="639.965,669.463 638.716,669.879 637.883,671.129 637.466,673.211 637.466,674.461 637.883,676.543 638.716,677.793 639.965,678.209 640.798,678.209 642.048,677.793 642.881,676.543 643.297,674.461 643.297,673.211 642.881,671.129 642.048,669.879 640.798,669.463 639.965,669.463 " />
<polyline points="627.115,659.906 621.562,674.483 " />
<polyline points="627.115,659.906 632.668,674.483 " />
<polyline points="623.644,669.624 630.586,669.624 " />
<polyline points="623.644,622.555 623.644,637.132 631.974,637.132 " />
<polyline points="621.562,585.204 627.115,599.782 " />
<polyline points="632.668,585.204 627.115,599.782 " />
<polyline points="577.635,494.54 583.188,509.117 " />
<polyline points="588.742,494.54 583.188,509.117 " />
<polyline points="577.635,457.189 583.188,471.766 " />
<polyline points="588.742,457.189 583.188,471.766 " />
<polyline points="637.744,636.619 643.853,636.619 643.853,635.601 643.343,634.583 642.834,634.074 641.816,633.565 640.289,633.565 639.271,634.074 638.253,635.092 637.744,636.619 637.744,637.637 638.253,639.164 639.271,640.183 640.289,640.692 641.816,640.692 642.834,640.183 643.853,639.164 " />
<polyline points="830.964,486.834 855.159,486.834 " />
<polyline points="858.433,448.889 881.246,448.889 " />
<polyline points="636.519,594.961 635.27,595.378 634.437,596.627 634.02,598.71 634.02,599.959 634.437,602.042 635.27,603.291 636.519,603.708 637.352,603.708 638.602,603.291 639.435,602.042 639.851,599.959 639.851,598.71 639.435,596.627 638.602,595.378 637.352,594.961 636.519,594.961 " />
<polyline points="846.589,503.645 845.34,504.062 844.507,505.311 844.09,507.394 844.09,508.644 844.507,510.726 845.34,511.976 846.589,512.392 847.422,512.392 848.672,511.976 849.505,510.726 849.921,508.644 849.921,507.394 849.505,505.311 848.672,504.062 847.422,503.645 846.589,503.645 " />
<polyline points="828.587,466.458 827.337,466.875 826.504,468.124 826.088,470.207 826.088,471.456 826.504,473.539 827.337,474.788 828.587,475.205 829.42,475.205 830.669,474.788 831.502,473.539 831.919,471.456 831.919,470.207 831.502,468.124 830.669,466.875 829.42,466.458 828.587,466.458 " />
<polyline points="873.015,466.458 871.766,466.875 870.933,468.124 870.516,470.207 870.516,471.456 870.933,473.539 871.766,474.788 873.015,475.205 873.848,475.205 875.098,474.788 875.931,473.539 876.347,471.456 876.347,470.207 875.931,468.124 875.098,466.875 873.848,466.458 873.015,466.458 " />
<polyline points="591.898,504.694 590.648,505.111 589.815,506.36 589.399,508.443 589.399,509.692 589.815,511.775 590.648,513.024 591.898,513.441 592.731,513.441 593.98,513.024 594.813,511.775 595.23,509.692 595.23,508.443 594.813,506.36 593.98,505.111 592.731,504.694 591.898,504.694 " />
<polyline points="593.287,465.964 592.038,466.38 591.205,467.63 590.788,469.712 590.788,470.962 591.205,473.044 592.038,474.294 593.287,474.71 594.12,474.71 595.37,474.294 596.203,473.044 596.619,470.962 596.619,469.712 596.203,467.63 595.37,466.38 594.12,465.964 593.287,465.964 " />
<polyline points="611.466,511.175 624.054,511.175 " />
<polyline points="810.193,500.149 813.664,500.149 819.911,508.479 " />
<polyline points="812.97,500.843 819.911,509.868 " />
<polyline points="831.018,486.96 819.911,509.868 " />
<polyline points="837.744,462.872 841.215,462.872 847.462,471.202 " />
<polyline points="840.521,463.567 847.462,472.591 " />
<polyline points="858.569,449.683 847.462,472.591 " />
<polyline points="657.882,666.153 670.377,666.153 " />
<polyline points="657.882,670.318 670.377,670.318 " />
<polyline points="698.144,659.906 698.144,674.483 " />
<polyline points="698.144,666.847 696.756,665.459 695.368,664.765 693.285,664.765 691.897,665.459 690.508,666.847 689.814,668.93 689.814,670.318 690.508,672.401 691.897,673.789 693.285,674.483 695.368,674.483 696.756,673.789 698.144,672.401 " />
<polyline points="703.698,664.765 703.698,671.707 704.392,673.789 705.78,674.483 707.863,674.483 709.251,673.789 711.334,671.707 " />
<polyline points="711.334,664.765 711.334,674.483 " />
<polyline points="724.523,666.847 723.134,665.459 721.746,664.765 719.664,664.765 718.275,665.459 716.887,666.847 716.193,668.93 716.193,670.318 716.887,672.401 718.275,673.789 719.664,674.483 721.746,674.483 723.134,673.789 724.523,672.401 " />
<polyline points="730.076,659.906 730.076,671.707 730.77,673.789 732.159,674.483 733.547,674.483 " />
<polyline points="727.994,664.765 732.853,664.765 " />
<polyline points="759.926,664.765 759.926,674.483 " />
<polyline points="759.926,666.847 758.537,665.459 757.149,664.765 755.066,664.765 753.678,665.459 752.29,666.847 751.596,668.93 751.596,670.318 752.29,672.401 753.678,673.789 755.066,674.483 757.149,674.483 758.537,673.789 759.926,672.401 " />
<polyline points="765.479,664.765 765.479,674.483 " />
<polyline points="765.479,668.93 766.173,666.847 767.561,665.459 768.95,664.765 771.032,664.765 " />
<polyline points="773.809,668.93 782.139,668.93 782.139,667.542 781.445,666.153 780.751,665.459 779.362,664.765 777.28,664.765 775.892,665.459 774.503,666.847 773.809,668.93 773.809,670.318 774.503,672.401 775.892,673.789 777.28,674.483 779.362,674.483 780.751,673.789 782.139,672.401 " />
<polyline points="794.634,664.765 794.634,674.483 " />
<polyline points="794.634,666.847 793.246,665.459 791.857,664.765 789.775,664.765 788.387,665.459 786.998,666.847 786.304,668.93 786.304,670.318 786.998,672.401 788.387,673.789 789.775,674.483 791.857,674.483 793.246,673.789 794.634,672.401 " />
<polyline points="801.576,673.789 800.882,674.483 800.188,673.789 800.882,673.095 801.576,673.789 801.576,675.177 800.882,676.566 800.188,677.26 " />
<polyline points="821.707,664.765 821.707,674.483 " />
<polyline points="821.707,667.542 823.789,665.459 825.178,664.765 827.26,664.765 828.649,665.459 829.343,667.542 829.343,674.483 " />
<polyline points="829.343,667.542 831.425,665.459 832.814,664.765 834.896,664.765 836.284,665.459 836.979,667.542 836.979,674.483 " />
<polyline points="842.532,664.765 842.532,674.483 " />
<polyline points="842.532,667.542 844.615,665.459 846.003,664.765 848.085,664.765 849.474,665.459 850.168,667.542 850.168,674.483 " />
<polyline points="850.168,667.542 852.25,665.459 853.639,664.765 855.721,664.765 857.11,665.459 857.804,667.542 857.804,674.483 " />
<polyline points="657.882,628.802 670.377,628.802 " />
<polyline points="657.882,632.967 670.377,632.967 " />
<polyline points="689.814,631.579 698.144,631.579 698.144,630.191 697.45,628.802 696.756,628.108 695.368,627.414 693.285,627.414 691.897,628.108 690.508,629.497 689.814,631.579 689.814,632.967 690.508,635.05 691.897,636.438 693.285,637.132 695.368,637.132 696.756,636.438 698.144,635.05 " />
<polyline points="707.169,622.555 705.78,622.555 704.392,623.249 703.698,625.332 703.698,637.132 " />
<polyline points="701.615,627.414 706.474,627.414 " />
<polyline points="715.499,622.555 714.11,622.555 712.722,623.249 712.028,625.332 712.028,637.132 " />
<polyline points="709.945,627.414 714.804,627.414 " />
<polyline points="718.969,631.579 727.3,631.579 727.3,630.191 726.605,628.802 725.911,628.108 724.523,627.414 722.44,627.414 721.052,628.108 719.664,629.497 718.969,631.579 718.969,632.967 719.664,635.05 721.052,636.438 722.44,637.132 724.523,637.132 725.911,636.438 727.3,635.05 " />
<polyline points="739.795,629.497 738.406,628.108 737.018,627.414 734.935,627.414 733.547,628.108 732.159,629.497 731.465,631.579 731.465,632.967 732.159,635.05 733.547,636.438 734.935,637.132 737.018,637.132 738.406,636.438 739.795,635.05 " />
<polyline points="745.348,622.555 745.348,634.356 746.042,636.438 747.43,637.132 748.819,637.132 " />
<polyline points="743.265,627.414 748.125,627.414 " />
<polyline points="752.29,623.249 752.984,623.943 753.678,623.249 752.984,622.555 752.29,623.249 " />
<polyline points="752.984,628.108 752.984,637.132 " />
<polyline points="757.149,627.414 761.314,637.132 " />
<polyline points="765.479,627.414 761.314,637.132 " />
<polyline points="768.95,631.579 777.28,631.579 777.28,630.191 776.586,628.802 775.892,628.108 774.503,627.414 772.421,627.414 771.032,628.108 769.644,629.497 768.95,631.579 768.95,632.967 769.644,635.05 771.032,636.438 772.421,637.132 774.503,637.132 775.892,636.438 777.28,635.05 " />
<polyline points="804.353,622.555 804.353,637.132 " />
<polyline points="804.353,629.497 802.964,628.108 801.576,627.414 799.493,627.414 798.105,628.108 796.717,629.497 796.023,631.579 796.023,632.967 796.717,635.05 798.105,636.438 799.493,637.132 801.576,637.132 802.964,636.438 804.353,635.05 " />
<polyline points="809.906,627.414 809.906,634.356 810.6,636.438 811.988,637.132 814.071,637.132 815.459,636.438 817.542,634.356 " />
<polyline points="817.542,627.414 817.542,637.132 " />
<polyline points="830.731,629.497 829.343,628.108 827.954,627.414 825.872,627.414 824.484,628.108 823.095,629.497 822.401,631.579 822.401,632.967 823.095,635.05 824.484,636.438 825.872,637.132 827.954,637.132 829.343,636.438 830.731,635.05 " />
<polyline points="836.284,622.555 836.284,634.356 836.979,636.438 838.367,637.132 839.755,637.132 " />
<polyline points="834.202,627.414 839.061,627.414 " />
<polyline points="858.498,622.555 858.498,637.132 " />
<polyline points="863.357,631.579 871.687,631.579 871.687,630.191 870.993,628.802 870.299,628.108 868.911,627.414 866.828,627.414 865.44,628.108 864.051,629.497 863.357,631.579 863.357,632.967 864.051,635.05 865.44,636.438 866.828,637.132 868.911,637.132 870.299,636.438 871.687,635.05 " />
<polyline points="876.546,627.414 876.546,637.132 " />
<polyline points="876.546,630.191 878.629,628.108 880.017,627.414 882.1,627.414 883.488,628.108 884.182,630.191 884.182,637.132 " />
<polyline points="897.372,627.414 897.372,638.521 896.677,640.603 895.983,641.297 894.595,641.992 892.512,641.992 891.124,641.297 " />
<polyline points="897.372,629.497 895.983,628.108 894.595,627.414 892.512,627.414 891.124,628.108 889.736,629.497 889.042,631.579 889.042,632.967 889.736,635.05 891.124,636.438 892.512,637.132 894.595,637.132 895.983,636.438 897.372,635.05 " />
<polyline points="903.619,622.555 903.619,634.356 904.313,636.438 905.702,637.132 907.09,637.132 " />
<polyline points="901.537,627.414 906.396,627.414 " />
<polyline points="911.255,622.555 911.255,637.132 " />
<polyline points="911.255,630.191 913.338,628.108 914.726,627.414 916.808,627.414 918.197,628.108 918.891,630.191 918.891,637.132 " />
<polyline points="925.833,636.438 925.138,637.132 924.444,636.438 925.138,635.744 925.833,636.438 925.833,637.827 925.138,639.215 924.444,639.909 " />
<polyline points="945.964,627.414 945.964,637.132 " />
<polyline points="945.964,630.191 948.046,628.108 949.434,627.414 951.517,627.414 952.905,628.108 953.599,630.191 953.599,637.132 " />
<polyline points="953.599,630.191 955.682,628.108 957.07,627.414 959.153,627.414 960.541,628.108 961.235,630.191 961.235,637.132 " />
<polyline points="657.882,591.452 670.377,591.452 " />
<polyline points="657.882,595.617 670.377,595.617 " />
<polyline points="698.144,585.204 698.144,599.782 " />
<polyline points="698.144,592.146 696.756,590.757 695.368,590.063 693.285,590.063 691.897,590.757 690.508,592.146 689.814,594.228 689.814,595.617 690.508,597.699 691.897,599.087 693.285,599.782 695.368,599.782 696.756,599.087 698.144,597.699 " />
<polyline points="703.698,590.063 703.698,597.005 704.392,599.087 705.78,599.782 707.863,599.782 709.251,599.087 711.334,597.005 " />
<polyline points="711.334,590.063 711.334,599.782 " />
<polyline points="724.523,592.146 723.134,590.757 721.746,590.063 719.664,590.063 718.275,590.757 716.887,592.146 716.193,594.228 716.193,595.617 716.887,597.699 718.275,599.087 719.664,599.782 721.746,599.782 723.134,599.087 724.523,597.699 " />
<polyline points="730.076,585.204 730.076,597.005 730.77,599.087 732.159,599.782 733.547,599.782 " />
<polyline points="727.994,590.063 732.853,590.063 " />
<polyline points="750.901,590.063 755.066,599.782 " />
<polyline points="759.231,590.063 755.066,599.782 " />
<polyline points="762.702,594.228 771.032,594.228 771.032,592.84 770.338,591.452 769.644,590.757 768.256,590.063 766.173,590.063 764.785,590.757 763.396,592.146 762.702,594.228 762.702,595.617 763.396,597.699 764.785,599.087 766.173,599.782 768.256,599.782 769.644,599.087 771.032,597.699 " />
<polyline points="775.892,585.204 775.892,599.782 " />
<polyline points="784.222,590.063 782.833,590.757 781.445,592.146 780.751,594.228 780.751,595.617 781.445,597.699 782.833,599.087 784.222,599.782 786.304,599.782 787.692,599.087 789.081,597.699 789.775,595.617 789.775,594.228 789.081,592.146 787.692,590.757 786.304,590.063 784.222,590.063 " />
<polyline points="802.27,592.146 800.882,590.757 799.493,590.063 797.411,590.063 796.023,590.757 794.634,592.146 793.94,594.228 793.94,595.617 794.634,597.699 796.023,599.087 797.411,599.782 799.493,599.782 800.882,599.087 802.27,597.699 " />
<polyline points="806.435,585.898 807.129,586.592 807.823,585.898 807.129,585.204 806.435,585.898 " />
<polyline points="807.129,590.757 807.129,599.782 " />
<polyline points="813.377,585.204 813.377,597.005 814.071,599.087 815.459,599.782 816.848,599.782 " />
<polyline points="811.294,590.063 816.153,590.063 " />
<polyline points="819.624,590.063 823.789,599.782 " />
<polyline points="827.954,590.063 823.789,599.782 822.401,602.558 821.013,603.947 819.624,604.641 818.93,604.641 " />
<polyline points="833.508,599.087 832.814,599.782 832.119,599.087 832.814,598.393 833.508,599.087 833.508,600.476 832.814,601.864 832.119,602.558 " />
<polyline points="853.639,590.063 853.639,599.782 " />
<polyline points="853.639,592.84 855.721,590.757 857.11,590.063 859.192,590.063 860.58,590.757 861.275,592.84 861.275,599.782 " />
<polyline points="861.275,592.84 863.357,590.757 864.746,590.063 866.828,590.063 868.216,590.757 868.911,592.84 868.911,599.782 " />
<polyline points="885.571,582.427 873.076,604.641 " />
<polyline points="896.677,592.146 895.983,590.757 893.901,590.063 891.818,590.063 889.736,590.757 889.042,592.146 889.736,593.534 891.124,594.228 894.595,594.922 895.983,595.617 896.677,597.005 896.677,597.699 895.983,599.087 893.901,599.782 891.818,599.782 889.736,599.087 889.042,597.699 " />
<polyline points="578.46,552.712 581.236,562.431 " />
<polyline points="584.013,552.712 581.236,562.431 " />
<polyline points="584.013,552.712 586.79,562.431 " />
<polyline points="589.566,552.712 586.79,562.431 " />
<polyline points="594.425,547.853 594.425,562.431 " />
<polyline points="594.425,555.489 596.508,553.407 597.896,552.712 599.979,552.712 601.367,553.407 602.061,555.489 602.061,562.431 " />
<polyline points="606.921,556.877 615.251,556.877 615.251,555.489 614.556,554.101 613.862,553.407 612.474,552.712 610.391,552.712 609.003,553.407 607.615,554.795 606.921,556.877 606.921,558.266 607.615,560.348 609.003,561.737 610.391,562.431 612.474,562.431 613.862,561.737 615.251,560.348 " />
<polyline points="620.11,552.712 620.11,562.431 " />
<polyline points="620.11,556.877 620.804,554.795 622.192,553.407 623.581,552.712 625.663,552.712 " />
<polyline points="628.44,556.877 636.77,556.877 636.77,555.489 636.076,554.101 635.382,553.407 633.993,552.712 631.911,552.712 630.522,553.407 629.134,554.795 628.44,556.877 628.44,558.266 629.134,560.348 630.522,561.737 631.911,562.431 633.993,562.431 635.382,561.737 636.77,560.348 " />
<polyline points="625.062,496.622 613.956,502.87 625.062,509.117 " />
<polyline points="646.582,497.316 647.97,496.622 650.053,494.54 650.053,509.117 " />
<polyline points="659.771,494.54 667.407,494.54 663.242,500.093 665.324,500.093 666.713,500.787 667.407,501.481 668.101,503.564 668.101,504.952 667.407,507.035 666.018,508.423 663.936,509.117 661.853,509.117 659.771,508.423 659.077,507.729 658.383,506.341 " />
<polyline points="687.538,499.399 687.538,509.117 " />
<polyline points="687.538,502.176 689.62,500.093 691.009,499.399 693.091,499.399 694.479,500.093 695.174,502.176 695.174,509.117 " />
<polyline points="695.174,502.176 697.256,500.093 698.645,499.399 700.727,499.399 702.115,500.093 702.81,502.176 702.81,509.117 " />
<polyline points="719.47,491.763 706.975,513.977 " />
<polyline points="730.576,501.481 729.882,500.093 727.8,499.399 725.717,499.399 723.635,500.093 722.941,501.481 723.635,502.87 725.023,503.564 728.494,504.258 729.882,504.952 730.576,506.341 730.576,507.035 729.882,508.423 727.8,509.117 725.717,509.117 723.635,508.423 722.941,507.035 " />
<polyline points="736.13,499.399 735.436,500.093 736.13,500.787 736.824,500.093 736.13,499.399 " />
<polyline points="736.13,507.729 735.436,508.423 736.13,509.117 736.824,508.423 736.13,507.729 " />
<polyline points="756.955,494.54 756.955,509.117 765.285,509.117 " />
<polyline points="783.333,500.787 795.829,500.787 " />
<polyline points="783.333,504.952 795.829,504.952 " />
<polyline points="834.008,494.54 828.455,509.117 " />
<polyline points="834.008,494.54 839.561,509.117 " />
<polyline points="830.537,504.258 837.479,504.258 " />
<polyline points="868.717,491.763 856.222,513.977 " />
<polyline points="873.576,494.54 881.212,494.54 877.047,500.093 879.129,500.093 880.518,500.787 881.212,501.481 881.906,503.564 881.906,504.952 881.212,507.035 879.823,508.423 877.741,509.117 875.658,509.117 873.576,508.423 872.882,507.729 872.187,506.341 " />
<polyline points="894.401,494.54 887.459,494.54 886.765,500.787 887.459,500.093 889.542,499.399 891.624,499.399 893.707,500.093 895.095,501.481 895.789,503.564 895.789,504.952 895.095,507.035 893.707,508.423 891.624,509.117 889.542,509.117 887.459,508.423 886.765,507.729 886.071,506.341 " />
<polyline points="904.119,494.54 902.037,495.234 900.648,497.316 899.954,500.787 899.954,502.87 900.648,506.341 902.037,508.423 904.119,509.117 905.508,509.117 907.59,508.423 908.979,506.341 909.673,502.87 909.673,500.787 908.979,497.316 907.59,495.234 905.508,494.54 904.119,494.54 " />
<polyline points="613.956,459.271 625.062,465.519 613.956,471.766 " />
<polyline points="646.582,459.966 647.97,459.271 650.053,457.189 650.053,471.766 " />
<polyline points="659.771,457.189 667.407,457.189 663.242,462.742 665.324,462.742 666.713,463.436 667.407,464.131 668.101,466.213 668.101,467.601 667.407,469.684 666.018,471.072 663.936,471.766 661.853,471.766 659.771,471.072 659.077,470.378 658.383,468.99 " />
<polyline points="687.538,462.048 687.538,471.766 " />
<polyline points="687.538,464.825 689.62,462.742 691.009,462.048 693.091,462.048 694.479,462.742 695.174,464.825 695.174,471.766 " />
<polyline points="695.174,464.825 697.256,462.742 698.645,462.048 700.727,462.048 702.115,462.742 702.81,464.825 702.81,471.766 " />
<polyline points="719.47,454.412 706.975,476.626 " />
<polyline points="730.576,464.131 729.882,462.742 727.8,462.048 725.717,462.048 723.635,462.742 722.941,464.131 723.635,465.519 725.023,466.213 728.494,466.907 729.882,467.601 730.576,468.99 730.576,469.684 729.882,471.072 727.8,471.766 725.717,471.766 723.635,471.072 722.941,469.684 " />
<polyline points="736.13,462.048 735.436,462.742 736.13,463.436 736.824,462.742 736.13,462.048 " />
<polyline points="736.13,470.378 735.436,471.072 736.13,471.766 736.824,471.072 736.13,470.378 " />
<polyline points="756.955,457.189 756.955,471.766 765.285,471.766 " />
<polyline points="783.333,463.436 795.829,463.436 " />
<polyline points="783.333,467.601 795.829,467.601 " />
<polyline points="813.877,457.189 819.43,471.766 " />
<polyline points="824.984,457.189 819.43,471.766 " />
<polyline points="861.081,457.189 855.527,471.766 " />
<polyline points="861.081,457.189 866.634,471.766 " />
<polyline points="857.61,466.907 864.552,466.907 " />
<polyline points="895.789,454.412 883.294,476.626 " />
<polyline points="906.202,457.189 899.26,466.907 909.673,466.907 " />
<polyline points="906.202,457.189 906.202,471.766 " />
<polyline points="915.226,471.072 914.532,471.766 913.838,471.072 914.532,470.378 915.226,471.072 915.226,472.461 914.532,473.849 913.838,474.543 " />
<polyline points="928.415,457.189 921.474,457.189 920.779,463.436 921.474,462.742 923.556,462.048 925.639,462.048 927.721,462.742 929.11,464.131 929.804,466.213 929.804,467.601 929.11,469.684 927.721,471.072 925.639,471.766 923.556,471.766 921.474,471.072 920.779,470.378 920.085,468.99 " />
<polyline points="938.134,457.189 936.051,457.883 934.663,459.966 933.969,463.436 933.969,465.519 934.663,468.99 936.051,471.072 938.134,471.766 939.522,471.766 941.605,471.072 942.993,468.99 943.687,465.519 943.687,463.436 942.993,459.966 941.605,457.883 939.522,457.189 938.134,457.189 " />
<polyline points="952.017,457.189 949.935,457.883 948.546,459.966 947.852,463.436 947.852,465.519 948.546,468.99 949.935,471.072 952.017,471.766 953.406,471.766 955.488,471.072 956.876,468.99 957.571,465.519 957.571,463.436 956.876,459.966 955.488,457.883 953.406,457.189 952.017,457.189 " />
<polyline points="866.09,659.367 866.09,658.95 866.506,658.117 866.923,657.701 867.756,657.284 869.422,657.284 870.255,657.701 870.671,658.117 871.088,658.95 871.088,659.783 870.671,660.616 869.838,661.866 865.673,666.031 871.504,666.031 " />
<polyline points="299.753,466.652 298.503,467.068 297.67,468.318 297.254,470.4 297.254,471.65 297.67,473.732 298.503,474.982 299.753,475.398 300.586,475.398 301.835,474.982 302.668,473.732 303.085,471.65 303.085,470.4 302.668,468.318 301.835,467.068 300.586,466.652 299.753,466.652 " />
<polyline points="31.4366,553.49 34.2132,563.209 " />
<polyline points="36.9899,553.49 34.2132,563.209 " />
<polyline points="36.9899,553.49 39.7666,563.209 " />
<polyline points="42.5433,553.49 39.7666,563.209 " />
<polyline points="47.4025,548.631 47.4025,563.209 " />
<polyline points="47.4025,556.267 49.485,554.185 50.8734,553.49 52.9559,553.49 54.3442,554.185 55.0384,556.267 55.0384,563.209 " />
<polyline points="59.8976,557.656 68.2277,557.656 68.2277,556.267 67.5335,554.879 66.8393,554.185 65.451,553.49 63.3684,553.49 61.9801,554.185 60.5918,555.573 59.8976,557.656 59.8976,559.044 60.5918,561.126 61.9801,562.515 63.3684,563.209 65.451,563.209 66.8393,562.515 68.2277,561.126 " />
<polyline points="73.0869,553.49 73.0869,563.209 " />
<polyline points="73.0869,557.656 73.781,555.573 75.1694,554.185 76.5577,553.49 78.6402,553.49 " />
<polyline points="81.4169,557.656 89.747,557.656 89.747,556.267 89.0528,554.879 88.3586,554.185 86.9703,553.49 84.8878,553.49 83.4994,554.185 82.1111,555.573 81.4169,557.656 81.4169,559.044 82.1111,561.126 83.4994,562.515 84.8878,563.209 86.9703,563.209 88.3586,562.515 89.747,561.126 " />
<polyline points="68.6048,513.211 79.8459,513.211 " />
<polyline points="32.2333,494.54 37.7867,509.117 " />
<polyline points="43.34,494.54 37.7867,509.117 " />
<polyline points="47.0746,503.374 45.8251,503.79 44.9921,505.04 44.5755,507.122 44.5755,508.372 44.9921,510.454 45.8251,511.704 47.0746,512.12 47.9076,512.12 49.1571,511.704 49.9901,510.454 50.4066,508.372 50.4066,507.122 49.9901,505.04 49.1571,503.79 47.9076,503.374 47.0746,503.374 " />
<polyline points="79.6608,496.622 68.5541,502.87 79.6608,509.117 " />
<polyline points="99.7918,498.011 99.7918,497.316 100.486,495.928 101.18,495.234 102.568,494.54 105.345,494.54 106.734,495.234 107.428,495.928 108.122,497.316 108.122,498.705 107.428,500.093 106.039,502.176 99.0976,509.117 108.816,509.117 " />
<polyline points="121.311,494.54 114.369,494.54 113.675,500.787 114.369,500.093 116.452,499.399 118.534,499.399 120.617,500.093 122.005,501.481 122.699,503.564 122.699,504.952 122.005,507.035 120.617,508.423 118.534,509.117 116.452,509.117 114.369,508.423 113.675,507.729 112.981,506.341 " />
<polyline points="131.03,494.54 128.947,495.234 127.559,497.316 126.865,500.787 126.865,502.87 127.559,506.341 128.947,508.423 131.03,509.117 132.418,509.117 134.5,508.423 135.889,506.341 136.583,502.87 136.583,500.787 135.889,497.316 134.5,495.234 132.418,494.54 131.03,494.54 " />
<polyline points="144.913,494.54 142.83,495.234 141.442,497.316 140.748,500.787 140.748,502.87 141.442,506.341 142.83,508.423 144.913,509.117 146.301,509.117 148.384,508.423 149.772,506.341 150.466,502.87 150.466,500.787 149.772,497.316 148.384,495.234 146.301,494.54 144.913,494.54 " />
<polyline points="174.068,494.54 172.68,494.54 171.291,495.234 170.597,497.316 170.597,509.117 " />
<polyline points="168.515,499.399 173.374,499.399 " />
<polyline points="178.233,499.399 178.233,513.977 " />
<polyline points="178.233,501.481 179.622,500.093 181.01,499.399 183.092,499.399 184.481,500.093 185.869,501.481 186.563,503.564 186.563,504.952 185.869,507.035 184.481,508.423 183.092,509.117 181.01,509.117 179.622,508.423 178.233,507.035 " />
<polyline points="191.422,499.399 191.422,509.117 " />
<polyline points="191.422,502.176 193.505,500.093 194.893,499.399 196.976,499.399 198.364,500.093 199.058,502.176 199.058,509.117 " />
<polyline points="199.058,502.176 201.141,500.093 202.529,499.399 204.612,499.399 206,500.093 206.694,502.176 206.694,509.117 " />
<polyline points="212.942,499.399 212.248,500.093 212.942,500.787 213.636,500.093 212.942,499.399 " />
<polyline points="212.942,507.729 212.248,508.423 212.942,509.117 213.636,508.423 212.942,507.729 " />
<polyline points="254.634,500.787 267.129,500.787 " />
<polyline points="254.634,504.952 267.129,504.952 " />
<polyline points="239.227,510.478 245.336,510.478 245.336,509.46 244.827,508.442 244.317,507.933 243.299,507.424 241.772,507.424 240.754,507.933 239.736,508.951 239.227,510.478 239.227,511.496 239.736,513.023 240.754,514.041 241.772,514.55 243.299,514.55 244.317,514.041 245.336,513.023 " />
<polyline points="225.515,494.835 225.515,509.413 233.845,509.413 " />
<polyline points="321.942,503.797 320.692,504.213 319.859,505.463 319.443,507.545 319.443,508.795 319.859,510.877 320.692,512.127 321.942,512.543 322.775,512.543 324.024,512.127 324.857,510.877 325.274,508.795 325.274,507.545 324.857,505.463 324.024,504.213 322.775,503.797 321.942,503.797 " />
<polyline points="309.479,494.835 303.926,509.413 " />
<polyline points="309.479,494.835 315.032,509.413 " />
<polyline points="306.008,504.554 312.95,504.554 " />
<polyline points="284.694,508.542 288.709,502.706 " />
<polyline points="288.709,502.706 293.526,515.546 " />
<polyline points="293.526,515.546 299.95,491.034 " />
<polyline points="299.95,491.034 326.446,491.034 " />
<polyline points="346.623,492.059 334.128,514.272 " />
<polyline points="357.035,494.835 350.094,504.554 360.506,504.554 " />
<polyline points="357.035,494.835 357.035,509.413 " />
<polyline points="365.365,508.025 364.671,508.719 365.365,509.413 366.06,508.719 365.365,508.025 " />
<polyline points="372.307,494.835 379.943,494.835 375.778,500.389 377.86,500.389 379.249,501.083 379.943,501.777 380.637,503.86 380.637,505.248 379.943,507.331 378.555,508.719 376.472,509.413 374.39,509.413 372.307,508.719 371.613,508.025 370.919,506.636 " />
<polyline points="370.647,454.708 358.152,476.921 " />
<polyline points="376.2,460.261 377.588,459.567 379.671,457.485 379.671,472.062 " />
<polyline points="392.166,457.485 390.084,458.179 388.695,460.261 388.001,463.732 388.001,465.815 388.695,469.286 390.084,471.368 392.166,472.062 393.554,472.062 395.637,471.368 397.025,469.286 397.719,465.815 397.719,463.732 397.025,460.261 395.637,458.179 393.554,457.485 392.166,457.485 " />
<polyline points="403.967,471.368 403.273,472.062 402.579,471.368 403.273,470.674 403.967,471.368 403.967,472.756 403.273,474.145 402.579,474.839 " />
<polyline points="417.85,459.567 417.156,458.179 415.074,457.485 413.685,457.485 411.603,458.179 410.215,460.261 409.52,463.732 409.52,467.203 410.215,469.98 411.603,471.368 413.685,472.062 414.38,472.062 416.462,471.368 417.85,469.98 418.545,467.897 418.545,467.203 417.85,465.12 416.462,463.732 414.38,463.038 413.685,463.038 411.603,463.732 410.215,465.12 409.52,467.203 " />
<polyline points="426.875,457.485 424.792,458.179 423.404,460.261 422.71,463.732 422.71,465.815 423.404,469.286 424.792,471.368 426.875,472.062 428.263,472.062 430.346,471.368 431.734,469.286 432.428,465.815 432.428,463.732 431.734,460.261 430.346,458.179 428.263,457.485 426.875,457.485 " />
<polyline points="440.758,457.485 438.676,458.179 437.287,460.261 436.593,463.732 436.593,465.815 437.287,469.286 438.676,471.368 440.758,472.062 442.146,472.062 444.229,471.368 445.617,469.286 446.311,465.815 446.311,463.732 445.617,460.261 444.229,458.179 442.146,457.485 440.758,457.485 " />
<polyline points="324.476,453.684 350.972,453.684 " />
<polyline points="318.052,478.195 324.476,453.684 " />
<polyline points="313.234,465.356 318.052,478.195 " />
<polyline points="309.22,471.192 313.234,465.356 " />
<polyline points="334.005,457.485 328.451,472.062 " />
<polyline points="334.005,457.485 339.558,472.062 " />
<polyline points="330.534,467.203 337.476,467.203 " />
<polyline points="346.468,466.446 345.218,466.862 344.385,468.112 343.969,470.194 343.969,471.444 344.385,473.526 345.218,474.776 346.468,475.192 347.301,475.192 348.55,474.776 349.383,473.526 349.8,471.444 349.8,470.194 349.383,468.112 348.55,466.862 347.301,466.446 346.468,466.446 " />
<polyline points="225.515,457.485 225.515,472.062 233.845,472.062 " />
<polyline points="238.725,471.622 244.834,471.622 244.834,470.604 244.325,469.585 243.816,469.076 242.798,468.567 241.27,468.567 240.252,469.076 239.234,470.095 238.725,471.622 238.725,472.64 239.234,474.167 240.252,475.185 241.27,475.694 242.798,475.694 243.816,475.185 244.834,474.167 " />
<polyline points="254.634,463.436 267.129,463.436 " />
<polyline points="254.634,467.601 267.129,467.601 " />
<polyline points="285.177,457.189 290.73,471.766 " />
<polyline points="296.284,457.189 290.73,471.766 " />
<polyline points="68.5541,459.271 79.6608,465.519 68.5541,471.766 " />
<polyline points="99.7918,460.66 99.7918,459.966 100.486,458.577 101.18,457.883 102.568,457.189 105.345,457.189 106.734,457.883 107.428,458.577 108.122,459.966 108.122,461.354 107.428,462.742 106.039,464.825 99.0976,471.766 108.816,471.766 " />
<polyline points="121.311,457.189 114.369,457.189 113.675,463.436 114.369,462.742 116.452,462.048 118.534,462.048 120.617,462.742 122.005,464.131 122.699,466.213 122.699,467.601 122.005,469.684 120.617,471.072 118.534,471.766 116.452,471.766 114.369,471.072 113.675,470.378 112.981,468.99 " />
<polyline points="131.03,457.189 128.947,457.883 127.559,459.966 126.865,463.436 126.865,465.519 127.559,468.99 128.947,471.072 131.03,471.766 132.418,471.766 134.5,471.072 135.889,468.99 136.583,465.519 136.583,463.436 135.889,459.966 134.5,457.883 132.418,457.189 131.03,457.189 " />
<polyline points="144.913,457.189 142.83,457.883 141.442,459.966 140.748,463.436 140.748,465.519 141.442,468.99 142.83,471.072 144.913,471.766 146.301,471.766 148.384,471.072 149.772,468.99 150.466,465.519 150.466,463.436 149.772,459.966 148.384,457.883 146.301,457.189 144.913,457.189 " />
<polyline points="174.068,457.189 172.68,457.189 171.291,457.883 170.597,459.966 170.597,471.766 " />
<polyline points="168.515,462.048 173.374,462.048 " />
<polyline points="178.233,462.048 178.233,476.626 " />
<polyline points="178.233,464.131 179.622,462.742 181.01,462.048 183.092,462.048 184.481,462.742 185.869,464.131 186.563,466.213 186.563,467.601 185.869,469.684 184.481,471.072 183.092,471.766 181.01,471.766 179.622,471.072 178.233,469.684 " />
<polyline points="191.422,462.048 191.422,471.766 " />
<polyline points="191.422,464.825 193.505,462.742 194.893,462.048 196.976,462.048 198.364,462.742 199.058,464.825 199.058,471.766 " />
<polyline points="199.058,464.825 201.141,462.742 202.529,462.048 204.612,462.048 206,462.742 206.694,464.825 206.694,471.766 " />
<polyline points="212.942,462.048 212.248,462.742 212.942,463.436 213.636,462.742 212.942,462.048 " />
<polyline points="212.942,470.378 212.248,471.072 212.942,471.766 213.636,471.072 212.942,470.378 " />
<polyline points="47.8025,466.023 46.553,466.44 45.7199,467.689 45.3034,469.772 45.3034,471.021 45.7199,473.104 46.553,474.353 47.8025,474.77 48.6355,474.77 49.885,474.353 50.718,473.104 51.1345,471.021 51.1345,469.772 50.718,467.689 49.885,466.44 48.6355,466.023 47.8025,466.023 " />
<polyline points="32.2333,457.189 37.7867,471.766 " />
<polyline points="43.34,457.189 37.7867,471.766 " />
<polyline points="91.7292,594.162 90.4797,594.579 89.6467,595.828 89.2302,597.911 89.2302,599.16 89.6467,601.243 90.4797,602.492 91.7292,602.909 92.5622,602.909 93.8117,602.492 94.6447,601.243 95.0613,599.16 95.0613,597.911 94.6447,595.828 93.8117,594.579 92.5622,594.162 91.7292,594.162 " />
<polyline points="76.1601,585.204 81.7134,599.782 " />
<polyline points="87.2668,585.204 81.7134,599.782 " />
<polyline points="112.481,591.452 124.976,591.452 " />
<polyline points="112.481,595.617 124.976,595.617 " />
<polyline points="152.743,585.204 152.743,599.782 " />
<polyline points="152.743,592.146 151.354,590.757 149.966,590.063 147.884,590.063 146.495,590.757 145.107,592.146 144.413,594.228 144.413,595.617 145.107,597.699 146.495,599.087 147.884,599.782 149.966,599.782 151.354,599.087 152.743,597.699 " />
<polyline points="158.296,590.063 158.296,597.005 158.99,599.087 160.379,599.782 162.461,599.782 163.85,599.087 165.932,597.005 " />
<polyline points="165.932,590.063 165.932,599.782 " />
<polyline points="179.121,592.146 177.733,590.757 176.345,590.063 174.262,590.063 172.874,590.757 171.485,592.146 170.791,594.228 170.791,595.617 171.485,597.699 172.874,599.087 174.262,599.782 176.345,599.782 177.733,599.087 179.121,597.699 " />
<polyline points="184.675,585.204 184.675,597.005 185.369,599.087 186.757,599.782 188.146,599.782 " />
<polyline points="182.592,590.063 187.451,590.063 " />
<polyline points="205.5,590.063 209.665,599.782 " />
<polyline points="213.83,590.063 209.665,599.782 " />
<polyline points="217.301,594.228 225.631,594.228 225.631,592.84 224.937,591.452 224.242,590.757 222.854,590.063 220.772,590.063 219.383,590.757 217.995,592.146 217.301,594.228 217.301,595.617 217.995,597.699 219.383,599.087 220.772,599.782 222.854,599.782 224.242,599.087 225.631,597.699 " />
<polyline points="230.49,585.204 230.49,599.782 " />
<polyline points="238.82,590.063 237.432,590.757 236.043,592.146 235.349,594.228 235.349,595.617 236.043,597.699 237.432,599.087 238.82,599.782 240.903,599.782 242.291,599.087 243.679,597.699 244.373,595.617 244.373,594.228 243.679,592.146 242.291,590.757 240.903,590.063 238.82,590.063 " />
<polyline points="256.869,592.146 255.48,590.757 254.092,590.063 252.009,590.063 250.621,590.757 249.233,592.146 248.538,594.228 248.538,595.617 249.233,597.699 250.621,599.087 252.009,599.782 254.092,599.782 255.48,599.087 256.869,597.699 " />
<polyline points="261.034,585.898 261.728,586.592 262.422,585.898 261.728,585.204 261.034,585.898 " />
<polyline points="261.728,590.757 261.728,599.782 " />
<polyline points="267.975,585.204 267.975,597.005 268.669,599.087 270.058,599.782 271.446,599.782 " />
<polyline points="265.893,590.063 270.752,590.063 " />
<polyline points="274.223,590.063 278.388,599.782 " />
<polyline points="282.553,590.063 278.388,599.782 277,602.558 275.611,603.947 274.223,604.641 273.529,604.641 " />
<polyline points="288.106,599.087 287.412,599.782 286.718,599.087 287.412,598.393 288.106,599.087 288.106,600.476 287.412,601.864 286.718,602.558 " />
<polyline points="312.402,585.204 311.014,585.204 309.626,585.898 308.931,587.981 308.931,599.782 " />
<polyline points="306.849,590.063 311.708,590.063 " />
<polyline points="316.567,590.063 316.567,604.641 " />
<polyline points="316.567,592.146 317.956,590.757 319.344,590.063 321.427,590.063 322.815,590.757 324.203,592.146 324.897,594.228 324.897,595.617 324.203,597.699 322.815,599.087 321.427,599.782 319.344,599.782 317.956,599.087 316.567,597.699 " />
<polyline points="329.757,590.063 329.757,599.782 " />
<polyline points="329.757,592.84 331.839,590.757 333.227,590.063 335.31,590.063 336.698,590.757 337.392,592.84 337.392,599.782 " />
<polyline points="337.392,592.84 339.475,590.757 340.863,590.063 342.946,590.063 344.334,590.757 345.028,592.84 345.028,599.782 " />
<polyline points="294.222,660.695 294.222,660.278 294.639,659.445 295.055,659.029 295.888,658.612 297.555,658.612 298.388,659.029 298.804,659.445 299.221,660.278 299.221,661.111 298.804,661.944 297.971,663.194 293.806,667.359 299.637,667.359 " />
<polyline points="78.2426,622.555 78.2426,637.132 86.5726,637.132 " />
<polyline points="92.4195,637.479 98.5282,637.479 98.5282,636.461 98.0191,635.443 97.5101,634.934 96.4919,634.425 94.9648,634.425 93.9466,634.934 92.9285,635.952 92.4195,637.479 92.4195,638.497 92.9285,640.024 93.9466,641.043 94.9648,641.552 96.4919,641.552 97.5101,641.043 98.5282,640.024 " />
<polyline points="81.7134,659.906 76.1601,674.483 " />
<polyline points="81.7134,659.906 87.2668,674.483 " />
<polyline points="78.2426,669.624 85.1843,669.624 " />
<polyline points="93.9129,669.266 92.6634,669.683 91.8304,670.932 91.4139,673.015 91.4139,674.265 91.8304,676.347 92.6634,677.597 93.9129,678.013 94.7459,678.013 95.9954,677.597 96.8284,676.347 97.2449,674.265 97.2449,673.015 96.8284,670.932 95.9954,669.683 94.7459,669.266 93.9129,669.266 " />
<polyline points="112.481,628.802 124.976,628.802 " />
<polyline points="112.481,632.967 124.976,632.967 " />
<polyline points="144.413,631.579 152.743,631.579 152.743,630.191 152.049,628.802 151.354,628.108 149.966,627.414 147.884,627.414 146.495,628.108 145.107,629.497 144.413,631.579 144.413,632.967 145.107,635.05 146.495,636.438 147.884,637.132 149.966,637.132 151.354,636.438 152.743,635.05 " />
<polyline points="161.767,622.555 160.379,622.555 158.99,623.249 158.296,625.332 158.296,637.132 " />
<polyline points="156.214,627.414 161.073,627.414 " />
<polyline points="170.097,622.555 168.709,622.555 167.32,623.249 166.626,625.332 166.626,637.132 " />
<polyline points="164.544,627.414 169.403,627.414 " />
<polyline points="173.568,631.579 181.898,631.579 181.898,630.191 181.204,628.802 180.51,628.108 179.121,627.414 177.039,627.414 175.65,628.108 174.262,629.497 173.568,631.579 173.568,632.967 174.262,635.05 175.65,636.438 177.039,637.132 179.121,637.132 180.51,636.438 181.898,635.05 " />
<polyline points="194.393,629.497 193.005,628.108 191.616,627.414 189.534,627.414 188.146,628.108 186.757,629.497 186.063,631.579 186.063,632.967 186.757,635.05 188.146,636.438 189.534,637.132 191.616,637.132 193.005,636.438 194.393,635.05 " />
<polyline points="199.946,622.555 199.946,634.356 200.641,636.438 202.029,637.132 203.417,637.132 " />
<polyline points="197.864,627.414 202.723,627.414 " />
<polyline points="206.888,623.249 207.582,623.943 208.277,623.249 207.582,622.555 206.888,623.249 " />
<polyline points="207.582,628.108 207.582,637.132 " />
<polyline points="211.747,627.414 215.912,637.132 " />
<polyline points="220.077,627.414 215.912,637.132 " />
<polyline points="223.548,631.579 231.878,631.579 231.878,630.191 231.184,628.802 230.49,628.108 229.102,627.414 227.019,627.414 225.631,628.108 224.242,629.497 223.548,631.579 223.548,632.967 224.242,635.05 225.631,636.438 227.019,637.132 229.102,637.132 230.49,636.438 231.878,635.05 " />
<polyline points="258.951,622.555 258.951,637.132 " />
<polyline points="258.951,629.497 257.563,628.108 256.174,627.414 254.092,627.414 252.704,628.108 251.315,629.497 250.621,631.579 250.621,632.967 251.315,635.05 252.704,636.438 254.092,637.132 256.174,637.132 257.563,636.438 258.951,635.05 " />
<polyline points="264.504,627.414 264.504,634.356 265.199,636.438 266.587,637.132 268.669,637.132 270.058,636.438 272.14,634.356 " />
<polyline points="272.14,627.414 272.14,637.132 " />
<polyline points="285.33,629.497 283.941,628.108 282.553,627.414 280.47,627.414 279.082,628.108 277.694,629.497 277,631.579 277,632.967 277.694,635.05 279.082,636.438 280.47,637.132 282.553,637.132 283.941,636.438 285.33,635.05 " />
<polyline points="290.883,622.555 290.883,634.356 291.577,636.438 292.965,637.132 294.354,637.132 " />
<polyline points="288.8,627.414 293.66,627.414 " />
<polyline points="313.096,622.555 313.096,637.132 " />
<polyline points="317.956,631.579 326.286,631.579 326.286,630.191 325.592,628.802 324.897,628.108 323.509,627.414 321.427,627.414 320.038,628.108 318.65,629.497 317.956,631.579 317.956,632.967 318.65,635.05 320.038,636.438 321.427,637.132 323.509,637.132 324.897,636.438 326.286,635.05 " />
<polyline points="331.145,627.414 331.145,637.132 " />
<polyline points="331.145,630.191 333.227,628.108 334.616,627.414 336.698,627.414 338.087,628.108 338.781,630.191 338.781,637.132 " />
<polyline points="351.97,627.414 351.97,638.521 351.276,640.603 350.582,641.297 349.193,641.992 347.111,641.992 345.723,641.297 " />
<polyline points="351.97,629.497 350.582,628.108 349.193,627.414 347.111,627.414 345.723,628.108 344.334,629.497 343.64,631.579 343.64,632.967 344.334,635.05 345.723,636.438 347.111,637.132 349.193,637.132 350.582,636.438 351.97,635.05 " />
<polyline points="358.218,622.555 358.218,634.356 358.912,636.438 360.3,637.132 361.688,637.132 " />
<polyline points="356.135,627.414 360.994,627.414 " />
<polyline points="365.854,622.555 365.854,637.132 " />
<polyline points="365.854,630.191 367.936,628.108 369.324,627.414 371.407,627.414 372.795,628.108 373.489,630.191 373.489,637.132 " />
<polyline points="380.431,636.438 379.737,637.132 379.043,636.438 379.737,635.744 380.431,636.438 380.431,637.827 379.737,639.215 379.043,639.909 " />
<polyline points="404.727,622.555 403.339,622.555 401.95,623.249 401.256,625.332 401.256,637.132 " />
<polyline points="399.174,627.414 404.033,627.414 " />
<polyline points="409.586,622.555 409.586,634.356 410.281,636.438 411.669,637.132 413.057,637.132 " />
<polyline points="407.504,627.414 412.363,627.414 " />
<polyline points="112.481,666.153 124.976,666.153 " />
<polyline points="112.481,670.318 124.976,670.318 " />
<polyline points="152.743,659.906 152.743,674.483 " />
<polyline points="152.743,666.847 151.354,665.459 149.966,664.765 147.884,664.765 146.495,665.459 145.107,666.847 144.413,668.93 144.413,670.318 145.107,672.401 146.495,673.789 147.884,674.483 149.966,674.483 151.354,673.789 152.743,672.401 " />
<polyline points="158.296,664.765 158.296,671.707 158.99,673.789 160.379,674.483 162.461,674.483 163.85,673.789 165.932,671.707 " />
<polyline points="165.932,664.765 165.932,674.483 " />
<polyline points="179.121,666.847 177.733,665.459 176.345,664.765 174.262,664.765 172.874,665.459 171.485,666.847 170.791,668.93 170.791,670.318 171.485,672.401 172.874,673.789 174.262,674.483 176.345,674.483 177.733,673.789 179.121,672.401 " />
<polyline points="184.675,659.906 184.675,671.707 185.369,673.789 186.757,674.483 188.146,674.483 " />
<polyline points="182.592,664.765 187.451,664.765 " />
<polyline points="214.524,664.765 214.524,674.483 " />
<polyline points="214.524,666.847 213.136,665.459 211.747,664.765 209.665,664.765 208.277,665.459 206.888,666.847 206.194,668.93 206.194,670.318 206.888,672.401 208.277,673.789 209.665,674.483 211.747,674.483 213.136,673.789 214.524,672.401 " />
<polyline points="220.077,664.765 220.077,674.483 " />
<polyline points="220.077,668.93 220.772,666.847 222.16,665.459 223.548,664.765 225.631,664.765 " />
<polyline points="228.408,668.93 236.738,668.93 236.738,667.542 236.043,666.153 235.349,665.459 233.961,664.765 231.878,664.765 230.49,665.459 229.102,666.847 228.408,668.93 228.408,670.318 229.102,672.401 230.49,673.789 231.878,674.483 233.961,674.483 235.349,673.789 236.738,672.401 " />
<polyline points="249.233,664.765 249.233,674.483 " />
<polyline points="249.233,666.847 247.844,665.459 246.456,664.765 244.373,664.765 242.985,665.459 241.597,666.847 240.903,668.93 240.903,670.318 241.597,672.401 242.985,673.789 244.373,674.483 246.456,674.483 247.844,673.789 249.233,672.401 " />
<polyline points="256.174,673.789 255.48,674.483 254.786,673.789 255.48,673.095 256.174,673.789 256.174,675.177 255.48,676.566 254.786,677.26 " />
<polyline points="275.611,660.6 276.305,661.294 277,660.6 276.305,659.906 275.611,660.6 " />
<polyline points="276.305,665.459 276.305,674.483 " />
<polyline points="281.859,664.765 281.859,674.483 " />
<polyline points="281.859,667.542 283.941,665.459 285.33,664.765 287.412,664.765 288.8,665.459 289.495,667.542 289.495,674.483 " />
<polyline points="910.432,324.917 982.312,324.917 " />
<polyline points="910.432,57.6614 982.312,57.6614 " />
<polyline points="548.001,186.51 548.001,201.087 " />
<polyline points="557.719,186.51 557.719,201.087 " />
<polyline points="548.001,193.451 557.719,193.451 " />
<polyline points="591.734,191.369 599.37,201.087 " />
<polyline points="599.37,191.369 591.734,201.087 " />
<polyline points="617.418,186.51 620.889,201.087 " />
<polyline points="624.36,186.51 620.889,201.087 " />
<polyline points="624.36,186.51 627.831,201.087 " />
<polyline points="631.302,186.51 627.831,201.087 " />
<polyline points="295.875,105.089 295.875,57.2007 " />
<polyline points="266.684,65.4827 266.684,17.5949 " />
<polyline points="897.973,742.144 895.937,740.108 892.883,739.09 888.81,739.09 885.756,740.108 883.719,742.144 883.719,744.181 884.738,746.217 885.756,747.235 887.792,748.253 893.901,750.289 895.937,751.308 896.955,752.326 897.973,754.362 897.973,757.416 895.937,759.452 892.883,760.471 888.81,760.471 885.756,759.452 883.719,757.416 " />
<polyline points="905.1,739.09 905.1,760.471 " />
<polyline points="905.1,739.09 914.263,739.09 917.317,740.108 918.336,741.126 919.354,743.163 919.354,745.199 918.336,747.235 917.317,748.253 914.263,749.271 905.1,749.271 " />
<polyline points="912.227,749.271 919.354,760.471 " />
<polyline points="939.716,739.09 929.535,760.471 " />
<polyline points="925.462,739.09 939.716,739.09 " />
<polyline points="946.843,751.308 965.169,751.308 " />
<polyline points="982.477,739.09 972.296,753.344 987.568,753.344 " />
<polyline points="982.477,739.09 982.477,760.471 " />
</g>
</svg>
