<?xml version="1.0" standalone="no"?>
<svg viewBox="0 0 1024 768" version="1.1" xmlns="http://www.w3.org/2000/svg" xmlns:xlink="http://www.w3.org/1999/xlink" stroke-linecap="round" stroke-linejoin="round" fill-rule="evenodd" xml:space="preserve" >
<defs >
<clipPath id="clipId0" >
<path d="M0,768 1024,768 1024,0 0,0 z" />
</clipPath>
</defs>
<g clip-path="url(#clipId0)" fill="none" stroke="rgb(0,0,0)" stroke-width="0.1" />
<g clip-path="url(#clipId0)" fill="none" stroke="rgb(0,0,0)" stroke-width="0.25" >
<polyline points="230.304,94.8773 230.304,248.637 " />
</g>
<g clip-path="url(#clipId0)" fill="rgb(0,0,0)" stroke="rgb(0,0,0)" stroke-width="0.25" >
<path d="M233.029,94.8773 227.579,94.8773 230.304,78.526 230.304,78.526 z" />
</g>
<g clip-path="url(#clipId0)" fill="none" stroke="rgb(0,0,0)" stroke-width="0.25" >
<polyline points="257.556,455.602 257.556,523.583 " />
<polyline points="203.052,455.602 203.052,469.079 " />
<circle cx="203.052" cy="523.583" r="27.2521" />
<path d="M203.052,469.079  A54.5042,54.5042 0 1,0 257.556,523.583 " />
<polyline points="203.052,455.602 257.556,455.602 " />
<polyline points="174.22,292.089 286.388,292.089 " />
<polyline points="257.556,455.602 286.388,292.089 " />
<polyline points="203.052,455.602 174.22,292.089 " />
<polyline points="286.388,292.089 286.388,32.8598 " />
<polyline points="174.22,292.089 174.22,32.8598 " />
<polyline points="244.929,32.8598 313.64,32.8598 " />
<polyline points="146.968,32.8598 215.68,32.8598 " />
<polyline points="244.929,7.52941 244.929,32.8598 " />
<polyline points="215.68,58.1902 215.68,32.8598 " />
<polyline points="215.68,58.1902 244.929,7.52941 " />
<circle cx="203.052" cy="523.583" r="32.7025" />
<circle cx="203.052" cy="523.583" r="5.45042" />
<path d="M265.175,318.27  A293.962,293.962 0 0,0 244.523,316.539 " />
</g>
<g clip-path="url(#clipId0)" fill="rgb(0,0,0)" stroke="rgb(0,0,0)" stroke-width="0.25" >
<path d="M264.776,320.966 265.573,315.574 281.35,320.66 281.35,320.66 z" />
<path d="M195.832,320.966 195.035,315.574 179.258,320.66 179.258,320.66 z" />
</g>
<g clip-path="url(#clipId0)" fill="none" stroke="rgb(0,0,0)" stroke-width="0.25" >
<path d="M216.086,316.539  A293.962,293.962 0 0,0 195.434,318.27 " />
<polyline points="581.951,578.087 636.455,578.087 " />
<polyline points="581.951,455.602 636.455,455.602 " />
<polyline points="581.951,578.087 581.951,455.602 " />
<polyline points="636.455,578.087 636.455,455.602 " />
<polyline points="562.511,518.132 581.951,518.132 " />
<polyline points="562.511,529.033 581.951,529.033 " />
<polyline points="562.511,529.033 562.511,518.132 " />
<path d="M636.455,496.331  A5.45042,5.45042 0 0,0 641.905,490.88 " />
<path d="M641.905,556.285  A5.45042,5.45042 0 0,0 636.455,550.835 " />
<polyline points="641.905,490.88 641.905,556.285 " />
<polyline points="534.785,523.583 683.62,523.583 " stroke-dasharray="68.130242,13.626048,13.626048,13.626048" />
</g>
<g clip-path="url(#clipId0)" fill="rgb(0,0,0)" stroke="rgb(0,0,0)" stroke-width="0.25" >
<path d="M621.234,280.686 616.886,277.4 609.203,292.089 609.203,292.089 z" />
</g>
<g clip-path="url(#clipId0)" fill="none" stroke="rgb(0,0,0)" stroke-width="0.25" >
<polyline points="619.06,279.043 677.997,201.039 " />
<polyline points="677.997,201.039 694.348,201.039 " />
<polyline points="677.997,364.551 694.348,364.551 " />
<polyline points="619.06,442.556 677.997,364.551 " />
</g>
<g clip-path="url(#clipId0)" fill="rgb(0,0,0)" stroke="rgb(0,0,0)" stroke-width="0.25" >
<path d="M621.234,444.199 616.886,440.913 609.203,455.602 609.203,455.602 z" />
</g>
<g clip-path="url(#clipId0)" fill="none" stroke="rgb(0,0,0)" stroke-width="0.25" >
<polyline points="739.01,376.249 740.048,375.73 741.605,374.173 741.605,385.074 " />
<polyline points="128.635,523.583 277.47,523.583 " stroke-dasharray="68.130242,13.626048,13.626048,13.626048" />
<polyline points="203.052,598 203.052,455.602 " stroke-dasharray="68.130242,13.626048,13.626048,13.626048" />
<polyline points="665.287,292.089 665.287,32.8598 " />
<polyline points="553.119,292.089 665.287,292.089 " />
<polyline points="553.119,292.089 553.119,32.8598 " />
<polyline points="594.578,58.1902 623.827,7.52941 " />
<polyline points="594.578,58.1902 594.578,32.8598 " />
<polyline points="623.827,7.52941 623.827,32.8598 " />
<polyline points="525.867,32.8598 594.578,32.8598 " />
<polyline points="623.827,32.8598 692.539,32.8598 " />
<polyline points="581.951,455.602 553.119,292.089 " />
<polyline points="636.455,455.602 665.287,292.089 " />
<path d="M594.984,316.539  A293.962,293.962 0 0,0 574.332,318.27 " />
</g>
<g clip-path="url(#clipId0)" fill="rgb(0,0,0)" stroke="rgb(0,0,0)" stroke-width="0.25" >
<path d="M574.731,320.966 573.934,315.574 558.157,320.66 558.157,320.66 z" />
<path d="M643.675,320.966 644.472,315.574 660.249,320.66 660.249,320.66 z" />
</g>
<g clip-path="url(#clipId0)" fill="none" stroke="rgb(0,0,0)" stroke-width="0.25" >
<path d="M644.073,318.27  A293.962,293.962 0 0,0 623.421,316.539 " />
<polyline points="248.855,157.187 247.298,157.965 245.74,159.522 244.962,161.08 244.183,163.416 244.183,167.309 244.962,169.645 245.74,171.202 247.298,172.759 248.855,173.538 251.969,173.538 253.527,172.759 255.084,171.202 255.862,169.645 256.641,167.309 256.641,163.416 255.862,161.08 255.084,159.522 253.527,157.965 251.969,157.187 248.855,157.187 " />
<polyline points="251.191,170.423 255.862,175.095 " />
<polyline points="228.066,315.846 226.508,316.625 224.951,318.182 224.172,319.739 223.394,322.075 223.394,325.968 224.172,328.304 224.951,329.861 226.508,331.419 228.066,332.197 231.18,332.197 232.737,331.419 234.295,329.861 235.073,328.304 235.852,325.968 235.852,322.075 235.073,319.739 234.295,318.182 232.737,316.625 231.18,315.846 228.066,315.846 " />
<polyline points="222.086,323.833 236.963,323.833 " />
<polyline points="603.041,317.486 617.918,317.486 " />
<polyline points="609.02,309.5 607.463,310.278 605.906,311.836 605.127,313.393 604.348,315.729 604.348,319.622 605.127,321.958 605.906,323.515 607.463,325.072 609.02,325.851 612.135,325.851 613.692,325.072 615.249,323.515 616.028,321.958 616.806,319.622 616.806,315.729 616.028,313.393 615.249,311.836 613.692,310.278 612.135,309.5 609.02,309.5 " />
<polyline points="240.053,329.201 241.611,328.422 243.947,326.086 243.947,342.437 " />
<polyline points="620.038,328.316 620.038,327.537 620.817,325.98 621.596,325.201 623.153,324.423 626.267,324.423 627.825,325.201 628.603,325.98 629.382,327.537 629.382,329.094 628.603,330.652 627.046,332.988 619.26,340.774 630.161,340.774 " />
<polyline points="279.575,292.089 251.095,292.089 " />
<polyline points="264.369,455.602 348.389,455.602 " />
<polyline points="293.201,292.089 348.389,292.089 " />
<polyline points="328.767,439.251 328.767,391.832 " />
<polyline points="328.767,308.441 328.767,355.859 " />
</g>
<g clip-path="url(#clipId0)" fill="rgb(0,0,0)" stroke="rgb(0,0,0)" stroke-width="0.25" >
<path d="M326.042,439.251 331.492,439.251 328.767,455.602 328.767,455.602 z" />
<path d="M326.042,308.441 331.492,308.441 328.767,292.089 328.767,292.089 z" />
</g>
<g clip-path="url(#clipId0)" fill="none" stroke="rgb(0,0,0)" stroke-width="0.25" >
<polyline points="324.095,365.67 324.095,382.021 333.439,382.021 " />
<polyline points="797.278,376.249 798.317,375.73 799.874,374.173 799.874,385.074 " />
<polyline points="876.063,376.249 877.101,375.73 878.658,374.173 878.658,385.074 " />
<polyline points="738.327,212.671 736.77,213.19 735.732,214.748 735.213,217.343 735.213,218.9 735.732,221.496 736.77,223.053 738.327,223.572 739.366,223.572 740.923,223.053 741.961,221.496 742.48,218.9 742.48,217.343 741.961,214.748 740.923,213.19 739.366,212.671 738.327,212.671 " />
<polyline points="796.596,212.671 795.039,213.19 794.001,214.748 793.482,217.343 793.482,218.9 794.001,221.496 795.039,223.053 796.596,223.572 797.634,223.572 799.192,223.053 800.23,221.496 800.749,218.9 800.749,217.343 800.23,214.748 799.192,213.19 797.634,212.671 796.596,212.671 " />
<polyline points="875.38,212.671 873.823,213.19 872.785,214.748 872.266,217.343 872.266,218.9 872.785,221.496 873.823,223.053 875.38,223.572 876.418,223.572 877.976,223.053 879.014,221.496 879.533,218.9 879.533,217.343 879.014,214.748 877.976,213.19 876.418,212.671 875.38,212.671 " />
<polyline points="722.509,356.152 716.28,372.503 " />
<polyline points="722.509,356.152 728.738,372.503 " />
<polyline points="718.616,367.053 726.402,367.053 " />
<polyline points="770.784,353.038 769.227,354.595 767.67,356.931 766.113,360.045 765.334,363.938 765.334,367.053 766.113,370.946 767.67,374.061 769.227,376.397 770.784,377.954 " />
<polyline points="774.678,356.152 778.571,372.503 " />
<polyline points="782.464,356.152 778.571,372.503 " />
<polyline points="782.464,356.152 786.357,372.503 " />
<polyline points="790.25,356.152 786.357,372.503 " />
<polyline points="826.846,361.603 835.411,372.503 " />
<polyline points="835.411,361.603 826.846,372.503 " />
<polyline points="857.212,356.152 857.212,372.503 " />
<polyline points="868.113,356.152 868.113,372.503 " />
<polyline points="857.212,363.938 868.113,363.938 " />
<polyline points="889.915,353.038 891.472,354.595 893.03,356.931 894.587,360.045 895.365,363.938 895.365,367.053 894.587,370.946 893.03,374.061 891.472,376.397 889.915,377.954 " />
<polyline points="720.27,190.533 714.041,206.884 " />
<polyline points="720.27,190.533 726.499,206.884 " />
<polyline points="716.377,201.434 724.163,201.434 " />
<polyline points="768.545,187.419 766.988,188.976 765.43,191.312 763.873,194.426 763.094,198.319 763.094,201.434 763.873,205.327 765.43,208.442 766.988,210.778 768.545,212.335 " />
<polyline points="772.438,190.533 776.331,206.884 " />
<polyline points="780.224,190.533 776.331,206.884 " />
<polyline points="780.224,190.533 784.117,206.884 " />
<polyline points="788.011,190.533 784.117,206.884 " />
<polyline points="824.606,195.984 833.171,206.884 " />
<polyline points="833.171,195.984 824.606,206.884 " />
<polyline points="854.973,190.533 854.973,206.884 " />
<polyline points="865.874,190.533 865.874,206.884 " />
<polyline points="854.973,198.319 865.874,198.319 " />
<polyline points="887.675,187.419 889.233,188.976 890.79,191.312 892.347,194.426 893.126,198.319 893.126,201.434 892.347,205.327 890.79,208.442 889.233,210.778 887.675,212.335 " />
<polyline points="772.989,739.915 770.705,737.631 767.279,736.489 762.711,736.489 759.285,737.631 757.001,739.915 757.001,742.199 758.143,744.483 759.285,745.625 761.569,746.767 768.421,749.051 770.705,750.193 771.847,751.335 772.989,753.619 772.989,757.045 770.705,759.329 767.279,760.471 762.711,760.471 759.285,759.329 757.001,757.045 " />
<polyline points="780.983,736.489 780.983,760.471 " />
<polyline points="780.983,736.489 791.261,736.489 794.687,737.631 795.829,738.773 796.971,741.057 796.971,743.341 795.829,745.625 794.687,746.767 791.261,747.909 780.983,747.909 " />
<polyline points="788.977,747.909 796.971,760.471 " />
<polyline points="819.81,736.489 808.391,760.471 " />
<polyline points="803.823,736.489 819.81,736.489 " />
<polyline points="827.804,750.193 848.36,750.193 " />
<polyline points="859.78,741.057 862.064,739.915 865.49,736.489 865.49,760.471 " />
<polyline points="895.182,736.489 883.762,760.471 " />
<polyline points="879.194,736.489 895.182,736.489 " />
</g>
</svg>
