<?xml version="1.0" standalone="no"?>
<svg viewBox="0 0 1024 768" version="1.1" xmlns="http://www.w3.org/2000/svg" xmlns:xlink="http://www.w3.org/1999/xlink" stroke-linecap="round" stroke-linejoin="round" fill-rule="evenodd" xml:space="preserve" >
<defs >
<clipPath id="clipId0" >
<path d="M0,768 1024,768 1024,0 0,0 z" />
</clipPath>
</defs>
<g clip-path="url(#clipId0)" fill="none" stroke="rgb(0,0,0)" stroke-width="0.1" />
<g clip-path="url(#clipId0)" fill="none" stroke="rgb(0,0,0)" stroke-width="0.25" >
<polyline points="474.491,163.064 474.491,68.6168 " />
<polyline points="474.491,68.6168 392.698,21.3934 " />
<polyline points="392.698,21.3934 392.698,115.84 " />
<polyline points="494.94,174.87 576.733,127.646 " />
<polyline points="474.491,92.2286 421.616,122.756 " />
<polyline points="392.698,115.84 494.94,174.87 " />
<polyline points="576.733,127.646 576.713,125.609 576.654,123.572 576.556,121.537 576.418,119.505 576.242,117.475 576.026,115.449 575.771,113.428 575.477,111.412 575.144,109.402 574.772,107.399 574.362,105.403 573.913,103.416 573.426,101.437 572.901,99.4689 572.338,97.5109 571.737,95.5641 571.098,93.6293 570.423,91.7072 569.71,89.7985 568.961,87.9039 568.176,86.0241 567.354,84.1599 567.354,84.1599 566.752,82.8789 566.115,81.6154 565.442,80.3705 564.734,79.1452 563.992,77.9403 563.215,76.7569 562.406,75.596 561.565,74.4584 560.691,73.345 559.786,72.2568 558.851,71.1947 557.886,70.1594 556.893,69.1518 555.871,68.1727 554.822,67.2229 553.746,66.3032 552.645,65.4143 551.519,64.5568 550.37,63.7316 549.197,62.9392 548.003,62.1802 546.787,61.4554 546.787,61.4554 545.552,60.7652 544.297,60.1103 543.025,59.4911 541.735,58.9081 540.43,58.3618 539.109,57.8527 537.775,57.3811 536.428,56.9475 535.069,56.5521 533.7,56.1953 532.321,55.8774 530.933,55.5986 529.539,55.3592 528.138,55.1593 526.732,54.9992 525.322,54.8788 523.909,54.7984 522.494,54.758 521.079,54.7576 519.664,54.7973 518.251,54.8769 516.841,54.9965 516.841,54.9965 514.816,55.2169 512.795,55.4764 510.78,55.7748 508.77,56.1121 506.768,56.4882 504.773,56.9028 502.787,57.3559 500.81,57.8472 498.842,58.3767 496.886,58.944 494.94,59.5491 493.007,60.1915 491.086,60.8712 489.179,61.5879 487.286,62.3412 485.408,63.131 483.546,63.9569 481.699,64.8186 479.87,65.7158 478.059,66.6481 476.266,67.6152 474.491,68.6168 " />
<polyline points="494.94,174.87 494.921,173.973 494.864,173.079 494.769,172.187 494.636,171.301 494.465,170.421 494.258,169.549 494.013,168.686 493.733,167.835 493.416,166.997 493.064,166.172 493.064,166.172 492.79,165.613 492.481,165.072 492.14,164.552 491.767,164.053 491.363,163.579 490.931,163.131 490.472,162.711 489.988,162.32 489.48,161.959 488.951,161.631 488.951,161.631 488.402,161.337 487.836,161.077 487.255,160.853 486.661,160.666 486.057,160.516 485.445,160.404 484.827,160.33 484.205,160.294 483.583,160.298 482.961,160.34 482.961,160.34 482.071,160.447 481.187,160.592 480.309,160.774 479.44,160.994 478.581,161.25 477.734,161.543 476.9,161.871 476.08,162.234 475.277,162.632 474.491,163.064 " />
<polyline points="546.787,61.4554 464.994,14.232 " />
<polyline points="464.994,14.232 463.758,13.5418 462.504,12.8868 461.231,12.2676 459.942,11.6847 458.636,11.1384 457.316,10.6293 455.982,10.1577 454.635,9.72405 453.276,9.32868 451.906,8.9719 450.527,8.654 449.14,8.37523 447.745,8.13581 446.344,7.93593 444.938,7.77576 443.528,7.65543 442.115,7.57502 440.701,7.53461 439.286,7.53423 437.871,7.57387 436.458,7.6535 435.048,7.77307 435.048,7.77307 433.023,7.99347 431.002,8.25294 428.986,8.55139 426.977,8.8887 424.975,9.26474 422.98,9.67939 420.994,10.1325 419.016,10.6238 417.049,11.1533 415.092,11.7206 413.147,12.3256 411.213,12.9681 409.293,13.6478 407.386,14.3645 405.493,15.1178 403.615,15.9076 401.752,16.7335 399.906,17.5952 398.077,18.4923 396.265,19.4247 394.472,20.3918 392.698,21.3934 " />
<polyline points="474.491,153.283 407.157,114.408 " />
<polyline points="407.157,114.408 406.609,114.114 406.043,113.854 405.462,113.63 404.868,113.443 404.264,113.292 403.652,113.18 403.033,113.106 402.412,113.071 401.789,113.074 401.168,113.116 401.168,113.116 400.278,113.223 399.393,113.368 398.516,113.551 397.647,113.77 396.788,114.027 395.94,114.319 395.106,114.647 394.287,115.011 393.484,115.409 392.698,115.84 " />
<polyline points="469.268,71.6328 300.616,169.004 " stroke-dasharray="17.708781,8.854391" />
<polyline points="387.474,24.4094 218.823,121.78 " stroke-dasharray="17.708781,8.854391" />
<polyline points="469.268,166.08 300.616,263.451 " stroke-dasharray="17.708781,8.854391" />
<polyline points="163.478,309.235 162.518,310.936 161.592,312.656 160.699,314.393 159.84,316.147 159.016,317.918 158.227,319.704 157.473,321.506 156.754,323.322 156.071,325.152 155.424,326.994 154.813,328.849 154.238,330.716 154.238,330.716 153.803,332.246 153.405,333.787 153.045,335.336 152.721,336.894 152.436,338.459 152.188,340.031 151.978,341.608 151.806,343.189 151.672,344.774 151.576,346.362 151.519,347.952 151.5,349.543 151.5,349.543 151.519,350.823 151.577,352.103 151.674,353.38 151.81,354.653 151.985,355.922 152.197,357.184 152.448,358.44 152.737,359.688 153.064,360.926 153.428,362.154 153.829,363.37 154.267,364.573 154.741,365.763 155.251,366.938 155.251,366.938 155.636,367.74 156.056,368.524 156.51,369.288 156.998,370.032 157.518,370.754 158.07,371.451 158.653,372.124 159.264,372.769 159.904,373.387 160.571,373.976 161.263,374.535 161.979,375.062 162.718,375.558 163.478,376.019 163.478,376.019 164.258,376.447 165.056,376.839 165.871,377.196 166.701,377.516 167.544,377.799 168.4,378.044 169.265,378.25 170.138,378.419 171.018,378.548 171.903,378.638 172.791,378.688 173.681,378.699 174.57,378.671 175.456,378.603 175.456,378.603 176.729,378.457 177.996,378.273 179.257,378.051 180.511,377.79 181.756,377.492 182.992,377.155 184.217,376.782 185.43,376.371 186.63,375.924 187.816,375.441 188.986,374.922 190.141,374.367 191.278,373.778 192.396,373.155 192.396,373.155 193.764,372.343 195.113,371.498 196.44,370.621 197.746,369.713 199.03,368.773 200.29,367.803 201.527,366.802 202.74,365.772 203.927,364.713 205.089,363.626 206.224,362.512 207.332,361.37 207.332,361.37 208.661,359.939 209.962,358.482 211.234,357 212.477,355.494 213.691,353.963 214.874,352.409 216.026,350.833 217.148,349.234 218.238,347.613 219.296,345.971 220.322,344.309 221.315,342.627 221.315,342.627 222.275,340.926 223.201,339.207 224.094,337.47 224.952,335.716 225.777,333.945 226.566,332.158 227.32,330.357 228.039,328.541 228.722,326.711 229.369,324.868 229.98,323.013 230.555,321.146 230.555,321.146 230.99,319.616 231.387,318.076 231.748,316.526 232.071,314.969 232.357,313.404 232.605,311.832 232.815,310.255 232.987,308.674 233.121,307.088 233.216,305.5 233.274,303.91 233.293,302.32 233.293,302.32 233.274,301.039 233.215,299.76 233.118,298.483 232.983,297.21 232.808,295.941 232.595,294.678 232.344,293.422 232.056,292.175 231.729,290.937 231.365,289.709 230.964,288.493 230.526,287.289 230.051,286.1 229.541,284.925 229.541,284.925 229.157,284.123 228.737,283.339 228.283,282.574 227.795,281.83 227.275,281.109 226.723,280.411 226.14,279.739 225.529,279.093 224.889,278.475 224.222,277.886 223.53,277.328 222.814,276.8 222.075,276.305 221.315,275.843 221.315,275.843 220.535,275.416 219.736,275.023 218.922,274.667 218.092,274.347 217.248,274.064 216.393,273.819 215.528,273.612 214.655,273.444 213.775,273.315 212.89,273.225 212.002,273.174 211.112,273.163 210.223,273.192 209.336,273.26 209.336,273.26 208.064,273.405 206.797,273.589 205.536,273.812 204.282,274.072 203.037,274.371 201.801,274.707 200.576,275.081 199.363,275.491 198.163,275.938 196.977,276.422 195.806,276.941 194.652,277.495 193.515,278.084 192.396,278.708 192.396,278.708 191.028,279.52 189.68,280.365 188.353,281.241 187.047,282.15 185.763,283.09 184.502,284.06 183.265,285.06 182.053,286.09 180.866,287.149 179.704,288.236 178.569,289.351 177.461,290.493 177.461,290.493 176.132,291.924 174.831,293.38 173.558,294.862 172.315,296.369 171.102,297.899 169.919,299.453 168.766,301.03 167.645,302.629 166.555,304.25 165.497,305.891 164.471,307.553 163.478,309.235 " />
<polyline points="134.56,426.107 52.7664,378.884 " />
<polyline points="52.7664,245.316 51.4043,247.713 50.0753,250.129 48.7799,252.563 47.5182,255.015 46.2905,257.484 45.0969,259.97 43.9378,262.472 42.8134,264.989 41.7238,267.522 40.6694,270.07 39.6501,272.632 38.6664,275.208 37.7183,277.797 36.8061,280.399 35.9299,283.014 35.0899,285.64 34.2862,288.278 34.2862,288.278 33.6647,290.436 33.08,292.604 32.5322,294.783 32.0215,296.97 31.548,299.165 31.1119,301.369 30.7133,303.579 30.3523,305.796 30.0291,308.018 29.7436,310.246 29.496,312.478 29.2865,314.715 29.1149,316.954 28.9814,319.196 28.886,321.44 28.8288,323.685 28.8097,325.931 28.8097,325.931 28.8308,327.818 28.8941,329.705 28.9995,331.589 29.1471,333.47 29.3367,335.348 29.5682,337.221 29.8415,339.088 30.1565,340.949 30.5131,342.802 30.911,344.647 31.35,346.483 31.83,348.308 32.3507,350.122 32.9118,351.924 33.513,353.712 34.1541,355.487 34.8347,357.248 35.5545,358.992 36.3132,360.72 36.3132,360.72 36.8441,361.847 37.4098,362.956 38.0097,364.048 38.6433,365.12 39.31,366.171 40.0091,367.202 40.7398,368.21 41.5016,369.196 42.2937,370.157 43.1153,371.092 43.9656,372.002 44.8438,372.885 45.7491,373.74 46.6805,374.567 47.6372,375.364 48.6182,376.131 49.6226,376.868 50.6495,377.572 51.6977,378.245 52.7664,378.884 " />
<polyline points="110.603,184.261 108.668,185.401 106.752,186.573 104.856,187.777 102.981,189.014 101.128,190.282 99.2957,191.582 97.4862,192.912 95.6997,194.274 93.9364,195.665 92.1971,197.086 90.4822,198.536 88.7922,200.015 87.1275,201.523 85.4887,203.059 83.8763,204.623 82.2906,206.213 80.7322,207.831 80.7322,207.831 78.8498,209.846 76.9954,211.886 75.1693,213.952 73.372,216.043 71.6037,218.159 69.8647,220.299 68.1555,222.462 66.4764,224.65 64.8275,226.86 63.2094,229.092 61.6222,231.347 60.0664,233.623 58.5421,235.921 57.0496,238.24 55.5894,240.579 54.1615,242.938 52.7664,245.316 " />
<polyline points="134.56,292.539 133.198,294.937 131.869,297.353 130.573,299.787 129.312,302.239 128.084,304.707 126.89,307.193 125.731,309.695 124.607,312.213 123.517,314.746 122.463,317.293 121.444,319.855 120.46,322.431 119.512,325.021 118.599,327.623 117.723,330.237 116.883,332.863 116.08,335.501 116.08,335.501 115.458,337.659 114.873,339.828 114.326,342.006 113.815,344.193 113.341,346.389 112.905,348.592 112.507,350.802 112.146,353.019 111.822,355.242 111.537,357.47 111.289,359.702 111.08,361.938 110.908,364.178 110.775,366.42 110.679,368.664 110.622,370.909 110.603,373.155 110.603,373.155 110.624,375.042 110.687,376.928 110.793,378.812 110.94,380.694 111.13,382.571 111.362,384.444 111.635,386.312 111.95,388.172 112.306,390.026 112.704,391.871 113.143,393.706 113.623,395.531 114.144,397.345 114.705,399.147 115.306,400.936 115.947,402.711 116.628,404.471 117.348,406.216 118.107,407.944 118.107,407.944 118.637,409.07 119.203,410.18 119.803,411.271 120.437,412.343 121.103,413.395 121.802,414.426 122.533,415.434 123.295,416.419 124.087,417.38 124.909,418.316 125.759,419.226 126.637,420.109 127.542,420.964 128.474,421.79 129.431,422.588 130.412,423.355 131.416,424.091 132.443,424.796 133.491,425.468 134.56,426.107 134.56,426.107 135.648,426.713 136.754,427.285 137.878,427.822 139.018,428.323 140.172,428.79 141.341,429.219 142.523,429.613 143.716,429.969 144.92,430.288 146.133,430.57 147.354,430.813 148.582,431.019 149.816,431.186 151.055,431.315 152.297,431.405 153.541,431.456 154.787,431.469 156.032,431.443 157.275,431.378 158.516,431.274 158.516,431.274 160.392,431.067 162.263,430.818 164.128,430.528 165.986,430.196 167.835,429.822 169.676,429.407 171.508,428.951 173.328,428.454 175.137,427.916 176.934,427.338 178.717,426.721 180.486,426.063 182.24,425.366 183.978,424.63 185.699,423.855 187.402,423.043 189.086,422.192 190.752,421.303 192.396,420.378 192.396,420.378 194.332,419.239 196.248,418.066 198.143,416.862 200.018,415.625 201.872,414.357 203.704,413.057 205.513,411.727 207.3,410.366 209.063,408.974 210.802,407.553 212.517,406.103 214.207,404.624 215.872,403.116 217.511,401.58 219.123,400.017 220.709,398.426 222.267,396.808 222.267,396.808 224.15,394.794 226.004,392.753 227.83,390.687 229.627,388.596 231.396,386.48 233.135,384.34 234.844,382.177 236.523,379.99 238.172,377.78 239.79,375.547 241.377,373.292 242.933,371.016 244.457,368.718 245.95,366.399 247.41,364.061 248.838,361.702 250.233,359.323 250.233,359.323 251.595,356.926 252.924,354.51 254.22,352.076 255.481,349.624 256.709,347.155 257.903,344.669 259.062,342.168 260.186,339.65 261.276,337.117 262.33,334.569 263.349,332.007 264.333,329.431 265.281,326.842 266.193,324.24 267.07,321.626 267.91,318.999 268.713,316.362 268.713,316.362 269.335,314.203 269.919,312.035 270.467,309.857 270.978,307.669 271.451,305.474 271.888,303.271 272.286,301.06 272.647,298.843 272.97,296.621 273.256,294.393 273.503,292.161 273.713,289.925 273.885,287.685 274.018,285.443 274.113,283.199 274.171,280.954 274.19,278.708 " />
<polyline points="192.396,231.484 190.461,232.624 188.545,233.796 186.649,235.001 184.775,236.237 182.921,237.506 181.089,238.805 179.28,240.136 177.493,241.497 175.73,242.888 173.99,244.309 172.276,245.76 170.586,247.239 168.921,248.747 167.282,250.283 165.67,251.846 164.084,253.437 162.526,255.054 162.526,255.054 160.643,257.069 158.789,259.11 156.963,261.176 155.165,263.267 153.397,265.382 151.658,267.522 149.949,269.686 148.27,271.873 146.621,274.083 145.003,276.316 143.416,278.57 141.86,280.847 140.335,283.145 138.843,285.463 137.383,287.802 135.955,290.161 134.56,292.539 " />
<polyline points="295.392,266.467 295.392,172.02 " />
<polyline points="295.392,172.02 213.599,124.796 " />
<polyline points="295.392,266.467 274.19,278.708 " />
<polyline points="295.392,172.02 192.396,231.484 " />
<polyline points="213.599,124.796 110.603,184.261 " />
</g>
<g clip-path="url(#clipId0)" fill="rgb(0,0,0)" stroke="rgb(0,0,0)" stroke-width="0.25" >
<path d="M99.4648,271.908 97.1261,276.011 110.603,280.976 110.603,280.976 z" />
</g>
<g clip-path="url(#clipId0)" fill="none" stroke="rgb(0,0,0)" stroke-width="0.25" >
<polyline points="98.2954,273.96 14.1477,225.99 " />
<polyline points="288.852,383.185 303.019,383.185 " />
<polyline points="319.884,376.102 319.884,390.269 " />
<polyline points="325.281,376.102 325.281,390.269 " />
<polyline points="325.281,376.102 334.726,390.269 " />
<polyline points="334.726,376.102 334.726,390.269 " />
<polyline points="340.123,376.102 340.123,390.269 348.218,390.269 " />
<polyline points="351.591,376.102 351.591,390.269 " />
<polyline points="351.591,376.102 360.361,376.102 " />
<polyline points="351.591,382.848 356.988,382.848 " />
<polyline points="351.591,390.269 360.361,390.269 " />
<polyline points="367.108,376.102 367.108,390.269 " />
<polyline points="362.385,376.102 371.83,376.102 " />
<polyline points="30.9504,460.415 30.9504,474.582 " />
<polyline points="30.9504,460.415 35.6727,460.415 37.6966,461.089 39.0458,462.438 39.7204,463.788 40.3951,465.812 40.3951,469.185 39.7204,471.208 39.0458,472.558 37.6966,473.907 35.6727,474.582 30.9504,474.582 " />
<polyline points="43.7682,460.415 47.1413,474.582 " />
<polyline points="50.5144,460.415 47.1413,474.582 " />
<polyline points="50.5144,460.415 53.8875,474.582 " />
<polyline points="57.2606,460.415 53.8875,474.582 " />
<polyline points="61.3083,460.415 61.3083,474.582 " />
<polyline points="61.3083,460.415 66.0306,460.415 68.0545,461.089 69.4037,462.438 70.0783,463.788 70.753,465.812 70.753,469.185 70.0783,471.208 69.4037,472.558 68.0545,473.907 66.0306,474.582 61.3083,474.582 " />
<polyline points="75.4753,460.415 75.4753,474.582 " />
<polyline points="104.484,463.788 103.809,462.438 102.46,461.089 101.111,460.415 98.4124,460.415 97.0632,461.089 95.7139,462.438 95.0393,463.788 94.3647,465.812 94.3647,469.185 95.0393,471.208 95.7139,472.558 97.0632,473.907 98.4124,474.582 101.111,474.582 102.46,473.907 103.809,472.558 104.484,471.208 " />
<polyline points="109.206,460.415 109.206,474.582 " />
<polyline points="109.206,460.415 117.976,460.415 " />
<polyline points="109.206,467.161 114.603,467.161 " />
<polyline points="109.206,474.582 117.976,474.582 " />
<polyline points="122.024,460.415 122.024,474.582 " />
<polyline points="122.024,460.415 131.469,474.582 " />
<polyline points="131.469,460.415 131.469,474.582 " />
<polyline points="139.564,460.415 139.564,474.582 " />
<polyline points="134.842,460.415 144.287,460.415 " />
<polyline points="147.66,460.415 147.66,474.582 " />
<polyline points="147.66,460.415 153.731,460.415 155.755,461.089 156.43,461.764 157.104,463.113 157.104,464.462 156.43,465.812 155.755,466.486 153.731,467.161 147.66,467.161 " />
<polyline points="152.382,467.161 157.104,474.582 " />
<polyline points="161.827,460.415 161.827,474.582 " />
<polyline points="167.224,460.415 167.224,474.582 " />
<polyline points="167.224,460.415 175.994,460.415 " />
<polyline points="167.224,467.161 172.621,467.161 " />
<polyline points="179.367,460.415 179.367,470.534 180.041,472.558 181.391,473.907 183.415,474.582 184.764,474.582 186.788,473.907 188.137,472.558 188.812,470.534 188.812,460.415 " />
<polyline points="203.653,463.788 202.979,462.438 201.629,461.089 200.28,460.415 197.582,460.415 196.232,461.089 194.883,462.438 194.208,463.788 193.534,465.812 193.534,469.185 194.208,471.208 194.883,472.558 196.232,473.907 197.582,474.582 200.28,474.582 201.629,473.907 202.979,472.558 203.653,471.208 203.653,469.185 " />
<polyline points="200.28,469.185 203.653,469.185 " />
<polyline points="211.749,460.415 206.352,474.582 " />
<polyline points="211.749,460.415 217.146,474.582 " />
<polyline points="208.375,469.859 215.122,469.859 " />
<polyline points="220.519,460.415 220.519,474.582 228.614,474.582 " />
<polyline points="246.154,460.415 246.154,474.582 " />
<polyline points="246.154,460.415 254.924,460.415 " />
<polyline points="246.154,467.161 251.551,467.161 " />
<polyline points="261.67,460.415 256.274,474.582 " />
<polyline points="261.67,460.415 267.067,474.582 " />
<polyline points="258.297,469.859 265.044,469.859 " />
<polyline points="270.441,460.415 270.441,474.582 " />
<polyline points="270.441,460.415 279.885,474.582 " />
<polyline points="279.885,460.415 279.885,474.582 " />
<polyline points="307.622,212.092 367.388,177.032 " />
</g>
<g clip-path="url(#clipId0)" fill="rgb(0,0,0)" stroke="rgb(0,0,0)" stroke-width="0.25" >
<path d="M308.814,214.131 306.431,210.054 295.392,219.243 295.392,219.243 z" />
</g>
<g clip-path="url(#clipId0)" fill="none" stroke="rgb(0,0,0)" stroke-width="0.25" >
<polyline points="462.261,122.991 398.532,160.34 " />
</g>
<g clip-path="url(#clipId0)" fill="rgb(0,0,0)" stroke="rgb(0,0,0)" stroke-width="0.25" >
<path d="M461.07,120.953 463.453,125.029 474.491,115.84 474.491,115.84 z" />
</g>
<g clip-path="url(#clipId0)" fill="none" stroke="rgb(0,0,0)" stroke-width="0.25" >
<polyline points="378.912,161.602 378.912,175.769 387.008,175.769 " />
<polyline points="204.704,335.215 288.852,383.185 " />
</g>
<g clip-path="url(#clipId0)" fill="rgb(0,0,0)" stroke="rgb(0,0,0)" stroke-width="0.25" >
<path d="M203.535,337.267 205.873,333.164 192.396,328.199 192.396,328.199 z" />
</g>
<g clip-path="url(#clipId0)" fill="none" stroke="rgb(0,0,0)" stroke-width="0.25" >
<polyline points="81.6847,262.012 80.7248,263.713 79.7983,265.432 78.9055,267.169 78.047,268.924 77.2229,270.694 76.4336,272.481 75.6795,274.282 74.9607,276.099 74.2775,277.928 73.6303,279.771 73.0193,281.626 72.4446,283.493 72.4446,283.493 72.0098,285.023 71.612,286.563 71.2513,288.113 70.9281,289.671 70.6424,291.236 70.3945,292.807 70.1845,294.384 70.0125,295.966 69.8786,297.551 69.7829,299.139 69.7255,300.729 69.7064,302.32 69.7064,302.32 69.7258,303.6 69.7841,304.879 69.8811,306.156 70.0169,307.43 70.1912,308.698 70.404,309.961 70.655,311.217 70.9439,312.464 71.2706,313.703 71.6347,314.93 72.0359,316.147 72.4738,317.35 72.948,318.539 73.4581,319.714 73.4581,319.714 73.8427,320.516 74.2625,321.3 74.7168,322.065 75.2045,322.809 75.7249,323.53 76.2768,324.228 76.8592,324.9 77.4708,325.546 78.1106,326.164 78.7772,326.753 79.4693,327.312 80.1855,327.839 80.9245,328.334 81.6847,328.796 81.6847,328.796 82.4647,329.223 83.263,329.616 84.0779,329.972 84.9078,330.292 85.7511,330.575 86.6062,330.82 87.4713,331.027 88.3447,331.195 89.2248,331.324 90.1097,331.414 90.9978,331.465 91.8872,331.476 92.7762,331.447 93.6631,331.379 93.6631,331.379 94.9354,331.234 96.2027,331.05 97.4638,330.827 98.7176,330.567 99.9629,330.268 101.199,329.932 102.423,329.558 103.637,329.148 104.837,328.701 106.022,328.217 107.193,327.698 108.347,327.144 109.484,326.555 110.603,325.931 110.603,325.931 111.971,325.119 113.319,324.275 114.647,323.398 115.953,322.489 117.236,321.549 118.497,320.579 119.734,319.579 120.947,318.549 122.134,317.49 123.295,316.403 124.431,315.288 125.538,314.146 125.538,314.146 126.868,312.715 128.169,311.259 129.441,309.777 130.684,308.27 131.897,306.74 133.08,305.186 134.233,303.609 135.355,302.01 136.444,300.389 137.503,298.748 138.528,297.086 139.521,295.404 139.521,295.404 140.481,293.703 141.408,291.984 142.301,290.246 143.159,288.492 143.983,286.721 144.772,284.935 145.527,283.133 146.245,281.317 146.929,279.488 147.576,277.645 148.187,275.79 148.761,273.923 148.761,273.923 149.196,272.393 149.594,270.852 149.955,269.303 150.278,267.745 150.564,266.18 150.812,264.609 151.022,263.032 151.194,261.45 151.327,259.865 151.423,258.277 151.481,256.687 151.5,255.096 151.5,255.096 151.48,253.816 151.422,252.536 151.325,251.26 151.189,249.986 151.015,248.717 150.802,247.455 150.551,246.199 150.262,244.951 149.935,243.713 149.571,242.485 149.17,241.269 148.732,240.066 148.258,238.876 147.748,237.702 147.748,237.702 147.363,236.9 146.944,236.115 146.489,235.351 146.002,234.607 145.481,233.885 144.929,233.188 144.347,232.516 143.735,231.87 143.095,231.252 142.429,230.663 141.737,230.104 141.021,229.577 140.282,229.082 139.521,228.62 139.521,228.62 138.741,228.192 137.943,227.8 137.128,227.443 136.298,227.123 135.455,226.841 134.6,226.596 133.735,226.389 132.861,226.221 131.981,226.091 131.096,226.001 130.208,225.951 129.319,225.94 128.43,225.968 127.543,226.036 127.543,226.036 126.271,226.182 125.003,226.366 123.742,226.588 122.488,226.849 121.243,227.148 120.007,227.484 118.783,227.857 117.57,228.268 116.37,228.715 115.184,229.198 114.013,229.718 112.859,230.272 111.722,230.861 110.603,231.484 110.603,231.484 109.235,232.296 107.887,233.141 106.559,234.018 105.253,234.927 103.97,235.866 102.709,236.837 101.472,237.837 100.26,238.867 99.0722,239.926 97.9106,241.013 96.7755,242.128 95.6676,243.269 95.6676,243.269 94.3384,244.7 93.0374,246.157 91.7651,247.639 90.5221,249.145 89.3087,250.676 88.1256,252.23 86.9731,253.807 85.8516,255.406 84.7616,257.026 83.7035,258.668 82.6778,260.33 81.6847,262.012 " />
<polyline points="52.7664,378.884 53.8545,379.49 54.9608,380.061 56.0844,380.598 57.2242,381.1 58.379,381.566 59.5478,381.996 60.7294,382.389 61.9227,382.746 63.1264,383.065 64.3395,383.346 65.5608,383.59 66.7891,383.795 68.0231,383.962 69.2618,384.091 70.5039,384.181 71.7481,384.233 72.9934,384.245 74.2385,384.219 75.4821,384.154 76.7231,384.051 76.7231,384.051 78.599,383.844 80.4697,383.595 82.3344,383.304 84.1922,382.972 86.042,382.598 87.883,382.183 89.7143,381.727 91.535,381.23 93.344,380.693 95.1406,380.115 96.9239,379.497 98.6928,378.84 100.447,378.143 102.184,377.407 103.905,376.632 105.609,375.819 107.293,374.968 108.958,374.08 110.603,373.155 110.603,373.155 112.539,372.015 114.454,370.843 116.35,369.638 118.225,368.402 120.079,367.133 121.91,365.834 123.72,364.503 125.506,363.142 127.27,361.751 129.009,360.33 130.724,358.88 132.414,357.4 134.079,355.892 135.717,354.357 137.33,352.793 138.915,351.202 140.474,349.585 140.474,349.585 142.356,347.57 144.211,345.53 146.037,343.464 147.834,341.373 149.602,339.257 151.341,337.117 153.051,334.953 154.73,332.766 156.379,330.556 157.997,328.323 159.584,326.069 161.14,323.792 162.664,321.495 164.156,319.176 165.617,316.837 167.045,314.478 168.44,312.1 168.44,312.1 169.802,309.702 171.131,307.287 172.426,304.852 173.688,302.401 174.916,299.932 176.109,297.446 177.268,294.944 178.393,292.427 179.482,289.894 180.537,287.346 181.556,284.784 182.54,282.208 183.488,279.619 184.4,277.017 185.276,274.402 186.116,271.776 186.92,269.138 186.92,269.138 187.541,266.98 188.126,264.811 188.674,262.633 189.185,260.446 189.658,258.25 190.094,256.047 190.493,253.837 190.854,251.62 191.177,249.397 191.462,247.17 191.71,244.937 191.92,242.701 192.091,240.462 192.225,238.22 192.32,235.976 192.377,233.73 192.396,231.484 " />
<polyline points="295.392,266.467 213.599,219.243 " stroke-dasharray="17.708781,8.854391" />
<polyline points="213.599,219.243 213.599,124.796 " stroke-dasharray="17.708781,8.854391" />
</g>
<g clip-path="url(#clipId0)" fill="rgb(0,0,0)" stroke="rgb(0,0,0)" stroke-width="0.25" >
<path d="M539.959,242.481 535.237,242.481 537.598,256.648 537.598,256.648 z" />
</g>
<g clip-path="url(#clipId0)" fill="none" stroke="rgb(0,0,0)" stroke-width="0.25" >
<polyline points="537.598,242.481 537.598,165.005 " />
<polyline points="553.92,206.355 552.571,207.03 551.222,208.379 550.547,209.728 549.873,211.752 549.873,215.125 550.547,217.149 551.222,218.498 552.571,219.848 553.92,220.522 556.619,220.522 557.968,219.848 559.317,218.498 559.992,217.149 560.667,215.125 560.667,211.752 559.992,209.728 559.317,208.379 557.968,207.03 556.619,206.355 553.92,206.355 " />
<polyline points="555.944,217.824 559.992,221.872 " />
<polyline points="285.599,104.025 288.972,118.193 " />
<polyline points="292.345,104.025 288.972,118.193 " />
<polyline points="292.345,104.025 295.718,118.193 " />
<polyline points="299.092,104.025 295.718,118.193 " />
<polyline points="316.632,108.748 324.052,118.193 " />
<polyline points="324.052,108.748 316.632,118.193 " />
<polyline points="342.942,104.025 342.942,118.193 " />
<polyline points="352.387,104.025 352.387,118.193 " />
<polyline points="342.942,110.772 352.387,110.772 " />
<polyline points="1005.54,215.185 1004.33,215.59 1003.52,216.804 1003.11,218.828 1003.11,220.042 1003.52,222.066 1004.33,223.28 1005.54,223.685 1006.35,223.685 1007.57,223.28 1008.38,222.066 1008.78,220.042 1008.78,218.828 1008.38,216.804 1007.57,215.59 1006.35,215.185 1005.54,215.185 " />
<polyline points="972.173,170.109 972.173,178.609 " />
<polyline points="972.173,174.157 972.983,173.347 973.792,172.942 975.007,172.942 975.816,173.347 976.626,174.157 977.031,175.371 977.031,176.18 976.626,177.395 975.816,178.204 975.007,178.609 973.792,178.609 972.983,178.204 972.173,177.395 " />
<polyline points="872.794,401.505 872.119,400.156 870.77,398.807 869.421,398.132 866.722,398.132 865.373,398.807 864.024,400.156 863.349,401.505 862.675,403.529 862.675,406.902 863.349,408.926 864.024,410.276 865.373,411.625 866.722,412.299 869.421,412.299 870.77,411.625 872.119,410.276 872.794,408.926 " />
<polyline points="877.516,398.132 877.516,408.252 878.191,410.276 879.54,411.625 881.564,412.299 882.913,412.299 884.937,411.625 886.286,410.276 886.961,408.252 886.961,398.132 " />
<polyline points="895.057,398.132 895.057,412.299 " />
<polyline points="890.334,398.132 899.779,398.132 " />
<polyline points="906.525,398.132 905.176,398.807 903.827,400.156 903.152,401.505 902.477,403.529 902.477,406.902 903.152,408.926 903.827,410.276 905.176,411.625 906.525,412.299 909.224,412.299 910.573,411.625 911.922,410.276 912.597,408.926 913.271,406.902 913.271,403.529 912.597,401.505 911.922,400.156 910.573,398.807 909.224,398.132 906.525,398.132 " />
<polyline points="917.994,398.132 917.994,412.299 " />
<polyline points="917.994,398.132 926.764,398.132 " />
<polyline points="917.994,404.879 923.391,404.879 " />
<polyline points="930.137,398.132 930.137,412.299 " />
<polyline points="930.137,398.132 938.907,398.132 " />
<polyline points="930.137,404.879 935.534,404.879 " />
<polyline points="809.775,153.965 809.775,168.132 " />
<polyline points="809.775,153.965 815.846,153.965 817.87,154.64 818.545,155.315 819.219,156.664 819.219,158.013 818.545,159.362 817.87,160.037 815.846,160.712 " />
<polyline points="809.775,160.712 815.846,160.712 817.87,161.386 818.545,162.061 819.219,163.41 819.219,165.434 818.545,166.783 817.87,167.458 815.846,168.132 809.775,168.132 " />
<polyline points="823.942,153.965 823.942,168.132 832.037,168.132 " />
<polyline points="838.783,153.965 833.386,168.132 " />
<polyline points="838.783,153.965 844.18,168.132 " />
<polyline points="835.41,163.41 842.156,163.41 " />
<polyline points="856.323,155.989 854.974,154.64 852.95,153.965 850.252,153.965 848.228,154.64 846.879,155.989 846.879,157.338 847.553,158.688 848.228,159.362 849.577,160.037 853.625,161.386 854.974,162.061 855.649,162.735 856.323,164.085 856.323,166.109 854.974,167.458 852.95,168.132 850.252,168.132 848.228,167.458 846.879,166.109 " />
<polyline points="863.744,153.965 863.744,168.132 " />
<polyline points="859.022,153.965 868.467,153.965 " />
<polyline points="889.38,153.965 883.983,168.132 " />
<polyline points="889.38,153.965 894.777,168.132 " />
<polyline points="886.007,163.41 892.753,163.41 " />
<polyline points="898.15,153.965 898.15,168.132 " />
<polyline points="898.15,153.965 904.222,153.965 906.245,154.64 906.92,155.315 907.595,156.664 907.595,158.013 906.92,159.362 906.245,160.037 904.222,160.712 898.15,160.712 " />
<polyline points="902.872,160.712 907.595,168.132 " />
<polyline points="912.317,153.965 912.317,168.132 " />
<polyline points="912.317,153.965 921.087,153.965 " />
<polyline points="912.317,160.712 917.714,160.712 " />
<polyline points="912.317,168.132 921.087,168.132 " />
<polyline points="928.508,153.965 923.111,168.132 " />
<polyline points="928.508,153.965 933.905,168.132 " />
<polyline points="925.135,163.41 931.881,163.41 " />
<polyline points="938.627,167.458 937.953,168.132 937.278,167.458 937.953,166.783 938.627,167.458 938.627,168.807 937.953,170.156 937.278,170.831 " />
<polyline points="961.564,153.965 956.167,168.132 " />
<polyline points="961.564,153.965 966.961,168.132 " />
<polyline points="958.191,163.41 964.937,163.41 " />
<polyline points="830.028,200.837 828.678,201.511 827.329,202.861 826.655,204.21 825.98,206.234 825.98,209.607 826.655,211.631 827.329,212.98 828.678,214.329 830.028,215.004 832.726,215.004 834.075,214.329 835.425,212.98 836.099,211.631 836.774,209.607 836.774,206.234 836.099,204.21 835.425,202.861 834.075,201.511 832.726,200.837 830.028,200.837 " />
<polyline points="841.496,200.837 841.496,210.956 842.171,212.98 843.52,214.329 845.544,215.004 846.893,215.004 848.917,214.329 850.266,212.98 850.941,210.956 850.941,200.837 " />
<polyline points="859.036,200.837 859.036,215.004 " />
<polyline points="854.314,200.837 863.759,200.837 " />
<polyline points="867.132,200.837 867.132,215.004 875.227,215.004 " />
<polyline points="878.6,200.837 878.6,215.004 " />
<polyline points="878.6,200.837 887.37,200.837 " />
<polyline points="878.6,207.583 883.997,207.583 " />
<polyline points="878.6,215.004 887.37,215.004 " />
<polyline points="894.117,200.837 894.117,215.004 " />
<polyline points="889.394,200.837 898.839,200.837 " />
<polyline points="919.752,200.837 914.355,215.004 " />
<polyline points="919.752,200.837 925.149,215.004 " />
<polyline points="916.379,210.282 923.125,210.282 " />
<polyline points="928.522,200.837 928.522,215.004 " />
<polyline points="928.522,200.837 934.594,200.837 936.618,201.511 937.292,202.186 937.967,203.535 937.967,204.885 937.292,206.234 936.618,206.908 934.594,207.583 928.522,207.583 " />
<polyline points="933.245,207.583 937.967,215.004 " />
<polyline points="942.689,200.837 942.689,215.004 " />
<polyline points="942.689,200.837 951.459,200.837 " />
<polyline points="942.689,207.583 948.086,207.583 " />
<polyline points="942.689,215.004 951.459,215.004 " />
<polyline points="958.88,200.837 953.483,215.004 " />
<polyline points="958.88,200.837 964.277,215.004 " />
<polyline points="955.507,210.282 962.253,210.282 " />
<polyline points="968.999,214.329 968.325,215.004 967.65,214.329 968.325,213.655 968.999,214.329 968.999,215.678 968.325,217.028 967.65,217.702 " />
<polyline points="991.937,200.837 986.54,215.004 " />
<polyline points="991.937,200.837 997.334,215.004 " />
<polyline points="988.563,210.282 995.31,210.282 " />
<polyline points="827.765,400.693 850.979,400.693 " />
<polyline points="769.575,342.964 827.765,400.693 " />
</g>
<g clip-path="url(#clipId0)" fill="rgb(0,0,0)" stroke="rgb(0,0,0)" stroke-width="0.25" >
<path d="M767.912,344.641 771.238,341.288 759.518,332.987 759.518,332.987 z" />
</g>
<g clip-path="url(#clipId0)" fill="none" stroke="rgb(0,0,0)" stroke-width="0.25" >
<polyline points="792.945,207.205 812.29,207.205 " />
<polyline points="792.945,259.478 792.945,224.657 " />
<polyline points="771.666,160.732 794.88,160.732 " />
<polyline points="771.666,259.478 771.666,197.575 " />
<polyline points="837.805,307.315 762.666,307.315 " />
</g>
<g clip-path="url(#clipId0)" fill="rgb(0,0,0)" stroke="rgb(0,0,0)" stroke-width="0.25" >
<path d="M837.805,304.953 837.805,309.676 851.972,307.315 851.972,307.315 z" />
</g>
<g clip-path="url(#clipId0)" fill="none" stroke="rgb(0,0,0)" stroke-width="0.25" >
<path d="M770.167,333.385  A5.32916,5.32916 0 1,0 759.518,332.987 " />
<polyline points="792.945,354.266 760.754,354.266 " />
<polyline points="792.945,265.049 792.945,354.266 " />
<polyline points="677.359,264.387 792.945,265.049 " />
<path d="M677.359,264.387  A84.0764,84.0764 0 1,0 759.518,332.987 " />
<circle cx="676.878" cy="348.462" r="33.056" />
<polyline points="730.568,557.942 736.505,557.942 736.505,556.953 736.01,555.963 735.516,555.468 734.526,554.974 733.042,554.974 732.052,555.468 731.063,556.458 730.568,557.942 730.568,558.931 731.063,560.416 732.052,561.405 733.042,561.9 734.526,561.9 735.516,561.405 736.505,560.416 " />
<polyline points="730.535,521.802 736.472,521.802 736.472,520.813 735.977,519.823 735.482,519.329 734.493,518.834 733.009,518.834 732.019,519.329 731.03,520.318 730.535,521.802 730.535,522.792 731.03,524.276 732.019,525.265 733.009,525.76 734.493,525.76 735.482,525.265 736.472,524.276 " />
<polyline points="602.223,699.033 601.009,699.438 600.199,700.653 599.794,702.676 599.794,703.891 600.199,705.915 601.009,707.129 602.223,707.534 603.032,707.534 604.247,707.129 605.056,705.915 605.461,703.891 605.461,702.676 605.056,700.653 604.247,699.438 603.032,699.033 602.223,699.033 " />
<polyline points="589.735,689.746 584.338,703.913 " />
<polyline points="589.735,689.746 595.132,703.913 " />
<polyline points="586.362,699.19 593.108,699.19 " />
<polyline points="586.362,653.447 586.362,667.614 594.457,667.614 " />
<polyline points="584.338,617.148 589.735,631.315 " />
<polyline points="595.132,617.148 589.735,631.315 " />
<polyline points="543.589,544.55 548.986,558.717 " />
<polyline points="554.382,544.55 548.986,558.717 " />
<polyline points="543.589,508.251 548.986,522.418 " />
<polyline points="554.382,508.251 548.986,522.418 " />
<polyline points="600.064,667.115 606.001,667.115 606.001,666.126 605.506,665.136 605.011,664.641 604.022,664.147 602.538,664.147 601.548,664.641 600.559,665.631 600.064,667.115 600.064,668.104 600.559,669.589 601.548,670.578 602.538,671.073 604.022,671.073 605.011,670.578 606.001,669.589 " />
<polyline points="789.783,537.061 813.297,537.061 " />
<polyline points="816.478,500.186 838.648,500.186 " />
<polyline points="598.874,626.63 597.66,627.035 596.85,628.25 596.445,630.273 596.445,631.488 596.85,633.512 597.66,634.726 598.874,635.131 599.683,635.131 600.898,634.726 601.707,633.512 602.112,631.488 602.112,630.273 601.707,628.25 600.898,627.035 599.683,626.63 598.874,626.63 " />
<polyline points="804.968,553.4 803.753,553.804 802.944,555.019 802.539,557.043 802.539,558.257 802.944,560.281 803.753,561.495 804.968,561.9 805.777,561.9 806.992,561.495 807.801,560.281 808.206,558.257 808.206,557.043 807.801,555.019 806.992,553.804 805.777,553.4 804.968,553.4 " />
<polyline points="787.472,517.26 786.258,517.665 785.448,518.879 785.044,520.903 785.044,522.117 785.448,524.141 786.258,525.355 787.472,525.76 788.282,525.76 789.496,525.355 790.306,524.141 790.71,522.117 790.71,520.903 790.306,518.879 789.496,517.665 788.282,517.26 787.472,517.26 " />
<polyline points="830.65,517.26 829.435,517.665 828.626,518.879 828.221,520.903 828.221,522.117 828.626,524.141 829.435,525.355 830.65,525.76 831.459,525.76 832.673,525.355 833.483,524.141 833.888,522.117 833.888,520.903 833.483,518.879 832.673,517.665 831.459,517.26 830.65,517.26 " />
<polyline points="557.45,554.419 556.235,554.823 555.426,556.038 555.021,558.062 555.021,559.276 555.426,561.3 556.235,562.514 557.45,562.919 558.259,562.919 559.473,562.514 560.283,561.3 560.688,559.276 560.688,558.062 560.283,556.038 559.473,554.823 558.259,554.419 557.45,554.419 " />
<polyline points="558.8,516.779 557.586,517.184 556.776,518.398 556.371,520.422 556.371,521.637 556.776,523.66 557.586,524.875 558.8,525.279 559.61,525.279 560.824,524.875 561.633,523.66 562.038,521.637 562.038,520.422 561.633,518.398 560.824,517.184 559.61,516.779 558.8,516.779 " />
<polyline points="576.466,560.717 588.7,560.717 " />
<polyline points="769.597,550.002 772.97,550.002 779.041,558.097 " />
<polyline points="772.295,550.676 779.041,559.446 " />
<polyline points="789.835,537.184 779.041,559.446 " />
<polyline points="796.372,513.775 799.745,513.775 805.816,521.87 " />
<polyline points="799.07,514.449 805.816,523.22 " />
<polyline points="816.61,500.957 805.816,523.22 " />
<polyline points="619.635,695.817 631.779,695.817 " />
<polyline points="619.635,699.865 631.779,699.865 " />
<polyline points="658.763,689.746 658.763,703.913 " />
<polyline points="658.763,696.492 657.414,695.143 656.065,694.468 654.041,694.468 652.692,695.143 651.343,696.492 650.668,698.516 650.668,699.865 651.343,701.889 652.692,703.238 654.041,703.913 656.065,703.913 657.414,703.238 658.763,701.889 " />
<polyline points="664.16,694.468 664.16,701.214 664.835,703.238 666.184,703.913 668.208,703.913 669.557,703.238 671.581,701.214 " />
<polyline points="671.581,694.468 671.581,703.913 " />
<polyline points="684.399,696.492 683.05,695.143 681.701,694.468 679.677,694.468 678.327,695.143 676.978,696.492 676.304,698.516 676.304,699.865 676.978,701.889 678.327,703.238 679.677,703.913 681.701,703.913 683.05,703.238 684.399,701.889 " />
<polyline points="689.796,689.746 689.796,701.214 690.471,703.238 691.82,703.913 693.169,703.913 " />
<polyline points="687.772,694.468 692.494,694.468 " />
<polyline points="718.805,694.468 718.805,703.913 " />
<polyline points="718.805,696.492 717.455,695.143 716.106,694.468 714.082,694.468 712.733,695.143 711.384,696.492 710.709,698.516 710.709,699.865 711.384,701.889 712.733,703.238 714.082,703.913 716.106,703.913 717.455,703.238 718.805,701.889 " />
<polyline points="724.202,694.468 724.202,703.913 " />
<polyline points="724.202,698.516 724.876,696.492 726.225,695.143 727.575,694.468 729.599,694.468 " />
<polyline points="732.297,698.516 740.393,698.516 740.393,697.166 739.718,695.817 739.043,695.143 737.694,694.468 735.67,694.468 734.321,695.143 732.972,696.492 732.297,698.516 732.297,699.865 732.972,701.889 734.321,703.238 735.67,703.913 737.694,703.913 739.043,703.238 740.393,701.889 " />
<polyline points="752.536,694.468 752.536,703.913 " />
<polyline points="752.536,696.492 751.186,695.143 749.837,694.468 747.813,694.468 746.464,695.143 745.115,696.492 744.44,698.516 744.44,699.865 745.115,701.889 746.464,703.238 747.813,703.913 749.837,703.913 751.186,703.238 752.536,701.889 " />
<polyline points="759.282,703.238 758.607,703.913 757.933,703.238 758.607,702.563 759.282,703.238 759.282,704.587 758.607,705.937 757.933,706.611 " />
<polyline points="778.846,694.468 778.846,703.913 " />
<polyline points="778.846,697.166 780.87,695.143 782.219,694.468 784.243,694.468 785.592,695.143 786.267,697.166 786.267,703.913 " />
<polyline points="786.267,697.166 788.291,695.143 789.64,694.468 791.664,694.468 793.013,695.143 793.688,697.166 793.688,703.913 " />
<polyline points="799.084,694.468 799.084,703.913 " />
<polyline points="799.084,697.166 801.108,695.143 802.458,694.468 804.481,694.468 805.831,695.143 806.505,697.166 806.505,703.913 " />
<polyline points="806.505,697.166 808.529,695.143 809.878,694.468 811.902,694.468 813.251,695.143 813.926,697.166 813.926,703.913 " />
<polyline points="687.551,659.518 699.694,659.518 " />
<polyline points="687.551,663.566 699.694,663.566 " />
<polyline points="718.583,662.217 726.679,662.217 726.679,660.868 726.004,659.518 725.329,658.844 723.98,658.169 721.956,658.169 720.607,658.844 719.258,660.193 718.583,662.217 718.583,663.566 719.258,665.59 720.607,666.939 721.956,667.614 723.98,667.614 725.329,666.939 726.679,665.59 " />
<polyline points="735.449,653.447 734.099,653.447 732.75,654.121 732.076,656.145 732.076,667.614 " />
<polyline points="730.052,658.169 734.774,658.169 " />
<polyline points="743.544,653.447 742.195,653.447 740.846,654.121 740.171,656.145 740.171,667.614 " />
<polyline points="738.147,658.169 742.87,658.169 " />
<polyline points="746.917,662.217 755.013,662.217 755.013,660.868 754.338,659.518 753.663,658.844 752.314,658.169 750.29,658.169 748.941,658.844 747.592,660.193 746.917,662.217 746.917,663.566 747.592,665.59 748.941,666.939 750.29,667.614 752.314,667.614 753.663,666.939 755.013,665.59 " />
<polyline points="767.156,660.193 765.807,658.844 764.457,658.169 762.434,658.169 761.084,658.844 759.735,660.193 759.06,662.217 759.06,663.566 759.735,665.59 761.084,666.939 762.434,667.614 764.457,667.614 765.807,666.939 767.156,665.59 " />
<polyline points="772.553,653.447 772.553,664.915 773.227,666.939 774.577,667.614 775.926,667.614 " />
<polyline points="770.529,658.169 775.251,658.169 " />
<polyline points="779.299,654.121 779.974,654.796 780.648,654.121 779.974,653.447 779.299,654.121 " />
<polyline points="779.974,658.844 779.974,667.614 " />
<polyline points="784.021,658.169 788.069,667.614 " />
<polyline points="792.117,658.169 788.069,667.614 " />
<polyline points="795.49,662.217 803.585,662.217 803.585,660.868 802.911,659.518 802.236,658.844 800.887,658.169 798.863,658.169 797.514,658.844 796.165,660.193 795.49,662.217 795.49,663.566 796.165,665.59 797.514,666.939 798.863,667.614 800.887,667.614 802.236,666.939 803.585,665.59 " />
<polyline points="829.896,653.447 829.896,667.614 " />
<polyline points="829.896,660.193 828.546,658.844 827.197,658.169 825.173,658.169 823.824,658.844 822.475,660.193 821.8,662.217 821.8,663.566 822.475,665.59 823.824,666.939 825.173,667.614 827.197,667.614 828.546,666.939 829.896,665.59 " />
<polyline points="835.293,658.169 835.293,664.915 835.967,666.939 837.316,667.614 839.34,667.614 840.689,666.939 842.713,664.915 " />
<polyline points="842.713,658.169 842.713,667.614 " />
<polyline points="855.531,660.193 854.182,658.844 852.833,658.169 850.809,658.169 849.46,658.844 848.11,660.193 847.436,662.217 847.436,663.566 848.11,665.59 849.46,666.939 850.809,667.614 852.833,667.614 854.182,666.939 855.531,665.59 " />
<polyline points="860.928,653.447 860.928,664.915 861.603,666.939 862.952,667.614 864.301,667.614 " />
<polyline points="858.904,658.169 863.627,658.169 " />
<polyline points="882.516,653.447 882.516,667.614 " />
<polyline points="887.238,662.217 895.334,662.217 895.334,660.868 894.659,659.518 893.984,658.844 892.635,658.169 890.611,658.169 889.262,658.844 887.913,660.193 887.238,662.217 887.238,663.566 887.913,665.59 889.262,666.939 890.611,667.614 892.635,667.614 893.984,666.939 895.334,665.59 " />
<polyline points="900.056,658.169 900.056,667.614 " />
<polyline points="900.056,660.868 902.08,658.844 903.429,658.169 905.453,658.169 906.802,658.844 907.477,660.868 907.477,667.614 " />
<polyline points="920.295,658.169 920.295,668.963 919.62,670.987 918.945,671.662 917.596,672.336 915.572,672.336 914.223,671.662 " />
<polyline points="920.295,660.193 918.945,658.844 917.596,658.169 915.572,658.169 914.223,658.844 912.874,660.193 912.199,662.217 912.199,663.566 912.874,665.59 914.223,666.939 915.572,667.614 917.596,667.614 918.945,666.939 920.295,665.59 " />
<polyline points="926.366,653.447 926.366,664.915 927.041,666.939 928.39,667.614 929.739,667.614 " />
<polyline points="924.342,658.169 929.065,658.169 " />
<polyline points="933.787,653.447 933.787,667.614 " />
<polyline points="933.787,660.868 935.811,658.844 937.16,658.169 939.184,658.169 940.533,658.844 941.208,660.868 941.208,667.614 " />
<polyline points="947.954,666.939 947.279,667.614 946.605,666.939 947.279,666.265 947.954,666.939 947.954,668.288 947.279,669.638 946.605,670.312 " />
<polyline points="967.518,658.169 967.518,667.614 " />
<polyline points="967.518,660.868 969.542,658.844 970.891,658.169 972.915,658.169 974.264,658.844 974.939,660.868 974.939,667.614 " />
<polyline points="974.939,660.868 976.963,658.844 978.312,658.169 980.336,658.169 981.685,658.844 982.36,660.868 982.36,667.614 " />
<polyline points="619.635,623.22 631.779,623.22 " />
<polyline points="619.635,627.267 631.779,627.267 " />
<polyline points="658.763,617.148 658.763,631.315 " />
<polyline points="658.763,623.894 657.414,622.545 656.065,621.87 654.041,621.87 652.692,622.545 651.343,623.894 650.668,625.918 650.668,627.267 651.343,629.291 652.692,630.64 654.041,631.315 656.065,631.315 657.414,630.64 658.763,629.291 " />
<polyline points="664.16,621.87 664.16,628.617 664.835,630.64 666.184,631.315 668.208,631.315 669.557,630.64 671.581,628.617 " />
<polyline points="671.581,621.87 671.581,631.315 " />
<polyline points="684.399,623.894 683.05,622.545 681.701,621.87 679.677,621.87 678.327,622.545 676.978,623.894 676.304,625.918 676.304,627.267 676.978,629.291 678.327,630.64 679.677,631.315 681.701,631.315 683.05,630.64 684.399,629.291 " />
<polyline points="689.796,617.148 689.796,628.617 690.471,630.64 691.82,631.315 693.169,631.315 " />
<polyline points="687.772,621.87 692.494,621.87 " />
<polyline points="710.035,621.87 714.082,631.315 " />
<polyline points="718.13,621.87 714.082,631.315 " />
<polyline points="721.503,625.918 729.599,625.918 729.599,624.569 728.924,623.22 728.249,622.545 726.9,621.87 724.876,621.87 723.527,622.545 722.178,623.894 721.503,625.918 721.503,627.267 722.178,629.291 723.527,630.64 724.876,631.315 726.9,631.315 728.249,630.64 729.599,629.291 " />
<polyline points="734.321,617.148 734.321,631.315 " />
<polyline points="742.416,621.87 741.067,622.545 739.718,623.894 739.043,625.918 739.043,627.267 739.718,629.291 741.067,630.64 742.416,631.315 744.44,631.315 745.789,630.64 747.139,629.291 747.813,627.267 747.813,625.918 747.139,623.894 745.789,622.545 744.44,621.87 742.416,621.87 " />
<polyline points="759.956,623.894 758.607,622.545 757.258,621.87 755.234,621.87 753.885,622.545 752.536,623.894 751.861,625.918 751.861,627.267 752.536,629.291 753.885,630.64 755.234,631.315 757.258,631.315 758.607,630.64 759.956,629.291 " />
<polyline points="764.004,617.823 764.679,618.497 765.353,617.823 764.679,617.148 764.004,617.823 " />
<polyline points="764.679,622.545 764.679,631.315 " />
<polyline points="770.75,617.148 770.75,628.617 771.425,630.64 772.774,631.315 774.124,631.315 " />
<polyline points="768.727,621.87 773.449,621.87 " />
<polyline points="776.822,621.87 780.87,631.315 " />
<polyline points="784.917,621.87 780.87,631.315 779.52,634.013 778.171,635.363 776.822,636.037 776.147,636.037 " />
<polyline points="790.314,630.64 789.64,631.315 788.965,630.64 789.64,629.966 790.314,630.64 790.314,631.99 789.64,633.339 788.965,634.013 " />
<polyline points="809.878,621.87 809.878,631.315 " />
<polyline points="809.878,624.569 811.902,622.545 813.251,621.87 815.275,621.87 816.625,622.545 817.299,624.569 817.299,631.315 " />
<polyline points="817.299,624.569 819.323,622.545 820.672,621.87 822.696,621.87 824.045,622.545 824.72,624.569 824.72,631.315 " />
<polyline points="840.911,614.449 828.768,636.037 " />
<polyline points="851.705,623.894 851.03,622.545 849.006,621.87 846.983,621.87 844.959,622.545 844.284,623.894 844.959,625.243 846.308,625.918 849.681,626.593 851.03,627.267 851.705,628.617 851.705,629.291 851.03,630.64 849.006,631.315 846.983,631.315 844.959,630.64 844.284,629.291 " />
<polyline points="542.45,585.571 545.148,595.016 " />
<polyline points="547.847,585.571 545.148,595.016 " />
<polyline points="547.847,585.571 550.545,595.016 " />
<polyline points="553.244,585.571 550.545,595.016 " />
<polyline points="557.966,580.849 557.966,595.016 " />
<polyline points="557.966,588.27 559.99,586.246 561.339,585.571 563.363,585.571 564.712,586.246 565.387,588.27 565.387,595.016 " />
<polyline points="570.109,589.619 578.205,589.619 578.205,588.27 577.53,586.921 576.855,586.246 575.506,585.571 573.482,585.571 572.133,586.246 570.784,587.595 570.109,589.619 570.109,590.968 570.784,592.992 572.133,594.342 573.482,595.016 575.506,595.016 576.855,594.342 578.205,592.992 " />
<polyline points="582.927,585.571 582.927,595.016 " />
<polyline points="582.927,589.619 583.601,587.595 584.951,586.246 586.3,585.571 588.324,585.571 " />
<polyline points="591.022,589.619 599.118,589.619 599.118,588.27 598.443,586.921 597.768,586.246 596.419,585.571 594.395,585.571 593.046,586.246 591.697,587.595 591.022,589.619 591.022,590.968 591.697,592.992 593.046,594.342 594.395,595.016 596.419,595.016 597.768,594.342 599.118,592.992 " />
<polyline points="589.68,546.574 578.886,552.646 589.68,558.717 " />
<polyline points="610.594,547.249 611.943,546.574 613.967,544.55 613.967,558.717 " />
<polyline points="623.411,544.55 630.832,544.55 626.784,549.947 628.808,549.947 630.157,550.622 630.832,551.296 631.507,553.32 631.507,554.67 630.832,556.693 629.483,558.043 627.459,558.717 625.435,558.717 623.411,558.043 622.737,557.368 622.062,556.019 " />
<polyline points="650.396,549.273 650.396,558.717 " />
<polyline points="650.396,551.971 652.42,549.947 653.769,549.273 655.793,549.273 657.142,549.947 657.817,551.971 657.817,558.717 " />
<polyline points="657.817,551.971 659.841,549.947 661.19,549.273 663.214,549.273 664.563,549.947 665.238,551.971 665.238,558.717 " />
<polyline points="681.429,541.852 669.285,563.44 " />
<polyline points="692.223,551.296 691.548,549.947 689.524,549.273 687.5,549.273 685.476,549.947 684.802,551.296 685.476,552.646 686.826,553.32 690.199,553.995 691.548,554.67 692.223,556.019 692.223,556.693 691.548,558.043 689.524,558.717 687.5,558.717 685.476,558.043 684.802,556.693 " />
<polyline points="697.62,549.273 696.945,549.947 697.62,550.622 698.294,549.947 697.62,549.273 " />
<polyline points="697.62,557.368 696.945,558.043 697.62,558.717 698.294,558.043 697.62,557.368 " />
<polyline points="717.858,544.55 717.858,558.717 725.954,558.717 " />
<polyline points="743.494,550.622 755.637,550.622 " />
<polyline points="743.494,554.67 755.637,554.67 " />
<polyline points="792.741,544.55 787.344,558.717 " />
<polyline points="792.741,544.55 798.138,558.717 " />
<polyline points="789.368,553.995 796.114,553.995 " />
<polyline points="826.472,541.852 814.329,563.44 " />
<polyline points="831.194,544.55 838.615,544.55 834.567,549.947 836.591,549.947 837.941,550.622 838.615,551.296 839.29,553.32 839.29,554.67 838.615,556.693 837.266,558.043 835.242,558.717 833.218,558.717 831.194,558.043 830.52,557.368 829.845,556.019 " />
<polyline points="851.433,544.55 844.687,544.55 844.012,550.622 844.687,549.947 846.711,549.273 848.734,549.273 850.758,549.947 852.108,551.296 852.782,553.32 852.782,554.67 852.108,556.693 850.758,558.043 848.734,558.717 846.711,558.717 844.687,558.043 844.012,557.368 843.337,556.019 " />
<polyline points="860.878,544.55 858.854,545.225 857.505,547.249 856.83,550.622 856.83,552.646 857.505,556.019 858.854,558.043 860.878,558.717 862.227,558.717 864.251,558.043 865.6,556.019 866.275,552.646 866.275,550.622 865.6,547.249 864.251,545.225 862.227,544.55 860.878,544.55 " />
<polyline points="578.886,510.275 589.68,516.347 578.886,522.418 " />
<polyline points="610.594,510.95 611.943,510.275 613.967,508.251 613.967,522.418 " />
<polyline points="623.411,508.251 630.832,508.251 626.784,513.648 628.808,513.648 630.157,514.323 630.832,514.998 631.507,517.021 631.507,518.371 630.832,520.395 629.483,521.744 627.459,522.418 625.435,522.418 623.411,521.744 622.737,521.069 622.062,519.72 " />
<polyline points="650.396,512.974 650.396,522.418 " />
<polyline points="650.396,515.672 652.42,513.648 653.769,512.974 655.793,512.974 657.142,513.648 657.817,515.672 657.817,522.418 " />
<polyline points="657.817,515.672 659.841,513.648 661.19,512.974 663.214,512.974 664.563,513.648 665.238,515.672 665.238,522.418 " />
<polyline points="681.429,505.553 669.285,527.141 " />
<polyline points="692.223,514.998 691.548,513.648 689.524,512.974 687.5,512.974 685.476,513.648 684.802,514.998 685.476,516.347 686.826,517.021 690.199,517.696 691.548,518.371 692.223,519.72 692.223,520.395 691.548,521.744 689.524,522.418 687.5,522.418 685.476,521.744 684.802,520.395 " />
<polyline points="697.62,512.974 696.945,513.648 697.62,514.323 698.294,513.648 697.62,512.974 " />
<polyline points="697.62,521.069 696.945,521.744 697.62,522.418 698.294,521.744 697.62,521.069 " />
<polyline points="717.858,508.251 717.858,522.418 725.954,522.418 " />
<polyline points="743.494,514.323 755.637,514.323 " />
<polyline points="743.494,518.371 755.637,518.371 " />
<polyline points="773.177,508.251 778.574,522.418 " />
<polyline points="783.971,508.251 778.574,522.418 " />
<polyline points="819.051,508.251 813.654,522.418 " />
<polyline points="819.051,508.251 824.448,522.418 " />
<polyline points="815.678,517.696 822.424,517.696 " />
<polyline points="852.782,505.553 840.639,527.141 " />
<polyline points="862.901,508.251 856.155,517.696 866.275,517.696 " />
<polyline points="862.901,508.251 862.901,522.418 " />
<polyline points="871.672,521.744 870.997,522.418 870.322,521.744 870.997,521.069 871.672,521.744 871.672,523.093 870.997,524.442 870.322,525.117 " />
<polyline points="884.489,508.251 877.743,508.251 877.069,514.323 877.743,513.648 879.767,512.974 881.791,512.974 883.815,513.648 885.164,514.998 885.839,517.021 885.839,518.371 885.164,520.395 883.815,521.744 881.791,522.418 879.767,522.418 877.743,521.744 877.069,521.069 876.394,519.72 " />
<polyline points="893.934,508.251 891.91,508.926 890.561,510.95 889.886,514.323 889.886,516.347 890.561,519.72 891.91,521.744 893.934,522.418 895.283,522.418 897.307,521.744 898.656,519.72 899.331,516.347 899.331,514.323 898.656,510.95 897.307,508.926 895.283,508.251 893.934,508.251 " />
<polyline points="907.426,508.251 905.403,508.926 904.053,510.95 903.379,514.323 903.379,516.347 904.053,519.72 905.403,521.744 907.426,522.418 908.776,522.418 910.8,521.744 912.149,519.72 912.823,516.347 912.823,514.323 912.149,510.95 910.8,508.926 908.776,508.251 907.426,508.251 " />
<polyline points="821.979,689.222 821.979,688.817 822.383,688.008 822.788,687.603 823.598,687.198 825.217,687.198 826.026,687.603 826.431,688.008 826.836,688.817 826.836,689.627 826.431,690.436 825.622,691.651 821.574,695.698 827.241,695.698 " />
<polyline points="312.342,517.448 311.128,517.853 310.318,519.067 309.913,521.091 309.913,522.305 310.318,524.329 311.128,525.543 312.342,525.948 313.151,525.948 314.366,525.543 315.175,524.329 315.58,522.305 315.58,521.091 315.175,519.067 314.366,517.853 313.151,517.448 312.342,517.448 " />
<polyline points="51.5828,586.328 54.2812,595.772 " />
<polyline points="56.9797,586.328 54.2812,595.772 " />
<polyline points="56.9797,586.328 59.6782,595.772 " />
<polyline points="62.3767,586.328 59.6782,595.772 " />
<polyline points="67.099,581.605 67.099,595.772 " />
<polyline points="67.099,589.026 69.1229,587.002 70.4721,586.328 72.496,586.328 73.8452,587.002 74.5198,589.026 74.5198,595.772 " />
<polyline points="79.2422,590.375 87.3376,590.375 87.3376,589.026 86.663,587.677 85.9884,587.002 84.6391,586.328 82.6153,586.328 81.266,587.002 79.9168,588.352 79.2422,590.375 79.2422,591.725 79.9168,593.749 81.266,595.098 82.6153,595.772 84.6391,595.772 85.9884,595.098 87.3376,593.749 " />
<polyline points="92.06,586.328 92.06,595.772 " />
<polyline points="92.06,590.375 92.7346,588.352 94.0838,587.002 95.4331,586.328 97.4569,586.328 " />
<polyline points="100.155,590.375 108.251,590.375 108.251,589.026 107.576,587.677 106.902,587.002 105.552,586.328 103.529,586.328 102.179,587.002 100.83,588.352 100.155,590.375 100.155,591.725 100.83,593.749 102.179,595.098 103.529,595.772 105.552,595.772 106.902,595.098 108.251,593.749 " />
<polyline points="87.7042,562.696 98.6287,562.696 " />
<polyline points="52.3571,544.55 57.754,558.717 " />
<polyline points="63.151,544.55 57.754,558.717 " />
<polyline points="66.7803,553.135 65.566,553.54 64.7565,554.754 64.3517,556.778 64.3517,557.993 64.7565,560.016 65.566,561.231 66.7803,561.636 67.5899,561.636 68.8042,561.231 69.6137,560.016 70.0185,557.993 70.0185,556.778 69.6137,554.754 68.8042,553.54 67.5899,553.135 66.7803,553.135 " />
<polyline points="98.4488,546.574 87.6549,552.646 98.4488,558.717 " />
<polyline points="118.013,547.923 118.013,547.249 118.687,545.9 119.362,545.225 120.711,544.55 123.41,544.55 124.759,545.225 125.434,545.9 126.108,547.249 126.108,548.598 125.434,549.947 124.084,551.971 117.338,558.717 126.783,558.717 " />
<polyline points="138.926,544.55 132.18,544.55 131.505,550.622 132.18,549.947 134.204,549.273 136.228,549.273 138.251,549.947 139.601,551.296 140.275,553.32 140.275,554.67 139.601,556.693 138.251,558.043 136.228,558.717 134.204,558.717 132.18,558.043 131.505,557.368 130.831,556.019 " />
<polyline points="148.371,544.55 146.347,545.225 144.998,547.249 144.323,550.622 144.323,552.646 144.998,556.019 146.347,558.043 148.371,558.717 149.72,558.717 151.744,558.043 153.093,556.019 153.768,552.646 153.768,550.622 153.093,547.249 151.744,545.225 149.72,544.55 148.371,544.55 " />
<polyline points="161.863,544.55 159.839,545.225 158.49,547.249 157.815,550.622 157.815,552.646 158.49,556.019 159.839,558.043 161.863,558.717 163.212,558.717 165.236,558.043 166.585,556.019 167.26,552.646 167.26,550.622 166.585,547.249 165.236,545.225 163.212,544.55 161.863,544.55 " />
<polyline points="190.197,544.55 188.848,544.55 187.499,545.225 186.824,547.249 186.824,558.717 " />
<polyline points="184.8,549.273 189.523,549.273 " />
<polyline points="194.245,549.273 194.245,563.44 " />
<polyline points="194.245,551.296 195.594,549.947 196.943,549.273 198.967,549.273 200.316,549.947 201.666,551.296 202.34,553.32 202.34,554.67 201.666,556.693 200.316,558.043 198.967,558.717 196.943,558.717 195.594,558.043 194.245,556.693 " />
<polyline points="207.063,549.273 207.063,558.717 " />
<polyline points="207.063,551.971 209.087,549.947 210.436,549.273 212.46,549.273 213.809,549.947 214.483,551.971 214.483,558.717 " />
<polyline points="214.483,551.971 216.507,549.947 217.857,549.273 219.88,549.273 221.23,549.947 221.904,551.971 221.904,558.717 " />
<polyline points="227.976,549.273 227.301,549.947 227.976,550.622 228.65,549.947 227.976,549.273 " />
<polyline points="227.976,557.368 227.301,558.043 227.976,558.717 228.65,558.043 227.976,557.368 " />
<polyline points="268.493,550.622 280.637,550.622 " />
<polyline points="268.493,554.67 280.637,554.67 " />
<polyline points="253.521,560.04 259.457,560.04 259.457,559.05 258.963,558.061 258.468,557.566 257.478,557.071 255.994,557.071 255.005,557.566 254.015,558.555 253.521,560.04 253.521,561.029 254.015,562.513 255.005,563.503 255.994,563.997 257.478,563.997 258.468,563.503 259.457,562.513 " />
<polyline points="240.195,544.838 240.195,559.005 248.29,559.005 " />
<polyline points="333.906,553.547 332.691,553.951 331.882,555.166 331.477,557.189 331.477,558.404 331.882,560.428 332.691,561.642 333.906,562.047 334.715,562.047 335.93,561.642 336.739,560.428 337.144,558.404 337.144,557.189 336.739,555.166 335.93,553.951 334.715,553.547 333.906,553.547 " />
<polyline points="321.794,544.838 316.397,559.005 " />
<polyline points="321.794,544.838 327.191,559.005 " />
<polyline points="318.421,554.282 325.167,554.282 " />
<polyline points="297.707,558.159 301.609,552.487 " />
<polyline points="301.609,552.487 306.291,564.965 " />
<polyline points="306.291,564.965 312.533,541.144 " />
<polyline points="312.533,541.144 338.284,541.144 " />
<polyline points="357.892,542.139 345.748,563.727 " />
<polyline points="368.011,544.838 361.265,554.282 371.384,554.282 " />
<polyline points="368.011,544.838 368.011,559.005 " />
<polyline points="376.106,557.655 375.432,558.33 376.106,559.005 376.781,558.33 376.106,557.655 " />
<polyline points="382.853,544.838 390.273,544.838 386.226,550.235 388.25,550.235 389.599,550.909 390.273,551.584 390.948,553.608 390.948,554.957 390.273,556.981 388.924,558.33 386.9,559.005 384.876,559.005 382.853,558.33 382.178,557.655 381.503,556.306 " />
<polyline points="381.239,505.84 369.096,527.428 " />
<polyline points="386.636,511.237 387.985,510.563 390.009,508.539 390.009,522.706 " />
<polyline points="402.152,508.539 400.128,509.213 398.779,511.237 398.105,514.61 398.105,516.634 398.779,520.007 400.128,522.031 402.152,522.706 403.502,522.706 405.525,522.031 406.875,520.007 407.549,516.634 407.549,514.61 406.875,511.237 405.525,509.213 403.502,508.539 402.152,508.539 " />
<polyline points="413.621,522.031 412.946,522.706 412.272,522.031 412.946,521.357 413.621,522.031 413.621,523.38 412.946,524.73 412.272,525.404 " />
<polyline points="427.113,510.563 426.439,509.213 424.415,508.539 423.066,508.539 421.042,509.213 419.692,511.237 419.018,514.61 419.018,517.984 419.692,520.682 421.042,522.031 423.066,522.706 423.74,522.706 425.764,522.031 427.113,520.682 427.788,518.658 427.788,517.984 427.113,515.96 425.764,514.61 423.74,513.936 423.066,513.936 421.042,514.61 419.692,515.96 419.018,517.984 " />
<polyline points="435.883,508.539 433.859,509.213 432.51,511.237 431.836,514.61 431.836,516.634 432.51,520.007 433.859,522.031 435.883,522.706 437.233,522.706 439.256,522.031 440.606,520.007 441.28,516.634 441.28,514.61 440.606,511.237 439.256,509.213 437.233,508.539 435.883,508.539 " />
<polyline points="449.376,508.539 447.352,509.213 446.003,511.237 445.328,514.61 445.328,516.634 446.003,520.007 447.352,522.031 449.376,522.706 450.725,522.706 452.749,522.031 454.098,520.007 454.773,516.634 454.773,514.61 454.098,511.237 452.749,509.213 450.725,508.539 449.376,508.539 " />
<polyline points="336.368,504.845 362.119,504.845 " />
<polyline points="330.126,528.666 336.368,504.845 " />
<polyline points="325.444,516.188 330.126,528.666 " />
<polyline points="321.542,521.86 325.444,516.188 " />
<polyline points="345.629,508.539 340.232,522.706 " />
<polyline points="345.629,508.539 351.026,522.706 " />
<polyline points="342.256,517.984 349.002,517.984 " />
<polyline points="357.741,517.248 356.527,517.652 355.717,518.867 355.312,520.891 355.312,522.105 355.717,524.129 356.527,525.343 357.741,525.748 358.55,525.748 359.765,525.343 360.574,524.129 360.979,522.105 360.979,520.891 360.574,518.867 359.765,517.652 358.55,517.248 357.741,517.248 " />
<polyline points="240.195,508.539 240.195,522.706 248.29,522.706 " />
<polyline points="253.033,522.278 258.97,522.278 258.97,521.288 258.475,520.299 257.98,519.804 256.991,519.309 255.507,519.309 254.517,519.804 253.528,520.794 253.033,522.278 253.033,523.267 253.528,524.751 254.517,525.741 255.507,526.236 256.991,526.236 257.98,525.741 258.97,524.751 " />
<polyline points="268.493,514.323 280.637,514.323 " />
<polyline points="268.493,518.371 280.637,518.371 " />
<polyline points="298.177,508.251 303.574,522.418 " />
<polyline points="308.971,508.251 303.574,522.418 " />
<polyline points="87.6549,510.275 98.4488,516.347 87.6549,522.418 " />
<polyline points="118.013,511.625 118.013,510.95 118.687,509.601 119.362,508.926 120.711,508.251 123.41,508.251 124.759,508.926 125.434,509.601 126.108,510.95 126.108,512.299 125.434,513.648 124.084,515.672 117.338,522.418 126.783,522.418 " />
<polyline points="138.926,508.251 132.18,508.251 131.505,514.323 132.18,513.648 134.204,512.974 136.228,512.974 138.251,513.648 139.601,514.998 140.275,517.021 140.275,518.371 139.601,520.395 138.251,521.744 136.228,522.418 134.204,522.418 132.18,521.744 131.505,521.069 130.831,519.72 " />
<polyline points="148.371,508.251 146.347,508.926 144.998,510.95 144.323,514.323 144.323,516.347 144.998,519.72 146.347,521.744 148.371,522.418 149.72,522.418 151.744,521.744 153.093,519.72 153.768,516.347 153.768,514.323 153.093,510.95 151.744,508.926 149.72,508.251 148.371,508.251 " />
<polyline points="161.863,508.251 159.839,508.926 158.49,510.95 157.815,514.323 157.815,516.347 158.49,519.72 159.839,521.744 161.863,522.418 163.212,522.418 165.236,521.744 166.585,519.72 167.26,516.347 167.26,514.323 166.585,510.95 165.236,508.926 163.212,508.251 161.863,508.251 " />
<polyline points="190.197,508.251 188.848,508.251 187.499,508.926 186.824,510.95 186.824,522.418 " />
<polyline points="184.8,512.974 189.523,512.974 " />
<polyline points="194.245,512.974 194.245,527.141 " />
<polyline points="194.245,514.998 195.594,513.648 196.943,512.974 198.967,512.974 200.316,513.648 201.666,514.998 202.34,517.021 202.34,518.371 201.666,520.395 200.316,521.744 198.967,522.418 196.943,522.418 195.594,521.744 194.245,520.395 " />
<polyline points="207.063,512.974 207.063,522.418 " />
<polyline points="207.063,515.672 209.087,513.648 210.436,512.974 212.46,512.974 213.809,513.648 214.483,515.672 214.483,522.418 " />
<polyline points="214.483,515.672 216.507,513.648 217.857,512.974 219.88,512.974 221.23,513.648 221.904,515.672 221.904,522.418 " />
<polyline points="227.976,512.974 227.301,513.648 227.976,514.323 228.65,513.648 227.976,512.974 " />
<polyline points="227.976,521.069 227.301,521.744 227.976,522.418 228.65,521.744 227.976,521.069 " />
<polyline points="67.4877,516.837 66.2734,517.242 65.4639,518.456 65.0591,520.48 65.0591,521.694 65.4639,523.718 66.2734,524.932 67.4877,525.337 68.2973,525.337 69.5116,524.932 70.3211,523.718 70.7259,521.694 70.7259,520.48 70.3211,518.456 69.5116,517.242 68.2973,516.837 67.4877,516.837 " />
<polyline points="52.3571,508.251 57.754,522.418 " />
<polyline points="63.151,508.251 57.754,522.418 " />
<polyline points="108.237,625.854 107.023,626.259 106.213,627.473 105.808,629.497 105.808,630.711 106.213,632.735 107.023,633.949 108.237,634.354 109.046,634.354 110.261,633.949 111.07,632.735 111.475,630.711 111.475,629.497 111.07,627.473 110.261,626.259 109.046,625.854 108.237,625.854 " />
<polyline points="93.1062,617.148 98.5032,631.315 " />
<polyline points="103.9,617.148 98.5032,631.315 " />
<polyline points="128.404,623.22 140.547,623.22 " />
<polyline points="128.404,627.267 140.547,627.267 " />
<polyline points="167.532,617.148 167.532,631.315 " />
<polyline points="167.532,623.894 166.183,622.545 164.833,621.87 162.81,621.87 161.46,622.545 160.111,623.894 159.437,625.918 159.437,627.267 160.111,629.291 161.46,630.64 162.81,631.315 164.833,631.315 166.183,630.64 167.532,629.291 " />
<polyline points="172.929,621.87 172.929,628.617 173.604,630.64 174.953,631.315 176.977,631.315 178.326,630.64 180.35,628.617 " />
<polyline points="180.35,621.87 180.35,631.315 " />
<polyline points="193.168,623.894 191.818,622.545 190.469,621.87 188.445,621.87 187.096,622.545 185.747,623.894 185.072,625.918 185.072,627.267 185.747,629.291 187.096,630.64 188.445,631.315 190.469,631.315 191.818,630.64 193.168,629.291 " />
<polyline points="198.564,617.148 198.564,628.617 199.239,630.64 200.588,631.315 201.938,631.315 " />
<polyline points="196.541,621.87 201.263,621.87 " />
<polyline points="218.803,621.87 222.851,631.315 " />
<polyline points="226.899,621.87 222.851,631.315 " />
<polyline points="230.272,625.918 238.367,625.918 238.367,624.569 237.692,623.22 237.018,622.545 235.669,621.87 233.645,621.87 232.296,622.545 230.946,623.894 230.272,625.918 230.272,627.267 230.946,629.291 232.296,630.64 233.645,631.315 235.669,631.315 237.018,630.64 238.367,629.291 " />
<polyline points="243.089,617.148 243.089,631.315 " />
<polyline points="251.185,621.87 249.836,622.545 248.486,623.894 247.812,625.918 247.812,627.267 248.486,629.291 249.836,630.64 251.185,631.315 253.209,631.315 254.558,630.64 255.907,629.291 256.582,627.267 256.582,625.918 255.907,623.894 254.558,622.545 253.209,621.87 251.185,621.87 " />
<polyline points="268.725,623.894 267.376,622.545 266.027,621.87 264.003,621.87 262.653,622.545 261.304,623.894 260.63,625.918 260.63,627.267 261.304,629.291 262.653,630.64 264.003,631.315 266.027,631.315 267.376,630.64 268.725,629.291 " />
<polyline points="272.773,617.823 273.447,618.497 274.122,617.823 273.447,617.148 272.773,617.823 " />
<polyline points="273.447,622.545 273.447,631.315 " />
<polyline points="279.519,617.148 279.519,628.617 280.194,630.64 281.543,631.315 282.892,631.315 " />
<polyline points="277.495,621.87 282.217,621.87 " />
<polyline points="285.591,621.87 289.638,631.315 " />
<polyline points="293.686,621.87 289.638,631.315 288.289,634.013 286.94,635.363 285.591,636.037 284.916,636.037 " />
<polyline points="299.083,630.64 298.408,631.315 297.734,630.64 298.408,629.966 299.083,630.64 299.083,631.99 298.408,633.339 297.734,634.013 " />
<polyline points="322.695,617.148 321.345,617.148 319.996,617.823 319.322,619.846 319.322,631.315 " />
<polyline points="317.298,621.87 322.02,621.87 " />
<polyline points="326.742,621.87 326.742,636.037 " />
<polyline points="326.742,623.894 328.092,622.545 329.441,621.87 331.465,621.87 332.814,622.545 334.163,623.894 334.838,625.918 334.838,627.267 334.163,629.291 332.814,630.64 331.465,631.315 329.441,631.315 328.092,630.64 326.742,629.291 " />
<polyline points="339.56,621.87 339.56,631.315 " />
<polyline points="339.56,624.569 341.584,622.545 342.933,621.87 344.957,621.87 346.306,622.545 346.981,624.569 346.981,631.315 " />
<polyline points="346.981,624.569 349.005,622.545 350.354,621.87 352.378,621.87 353.727,622.545 354.402,624.569 354.402,631.315 " />
<polyline points="305.027,690.513 305.027,690.108 305.432,689.298 305.836,688.894 306.646,688.489 308.265,688.489 309.075,688.894 309.479,689.298 309.884,690.108 309.884,690.917 309.479,691.727 308.67,692.941 304.622,696.989 310.289,696.989 " />
<polyline points="95.13,653.447 95.13,667.614 103.225,667.614 " />
<polyline points="108.908,667.951 114.844,667.951 114.844,666.961 114.35,665.972 113.855,665.477 112.865,664.982 111.381,664.982 110.392,665.477 109.402,666.467 108.908,667.951 108.908,668.94 109.402,670.424 110.392,671.414 111.381,671.909 112.865,671.909 113.855,671.414 114.844,670.424 " />
<polyline points="98.5032,689.746 93.1062,703.913 " />
<polyline points="98.5032,689.746 103.9,703.913 " />
<polyline points="95.13,699.19 101.876,699.19 " />
<polyline points="110.359,698.843 109.145,699.248 108.335,700.462 107.93,702.486 107.93,703.7 108.335,705.724 109.145,706.938 110.359,707.343 111.169,707.343 112.383,706.938 113.192,705.724 113.597,703.7 113.597,702.486 113.192,700.462 112.383,699.248 111.169,698.843 110.359,698.843 " />
<polyline points="128.404,659.518 140.547,659.518 " />
<polyline points="128.404,663.566 140.547,663.566 " />
<polyline points="159.437,662.217 167.532,662.217 167.532,660.868 166.857,659.518 166.183,658.844 164.833,658.169 162.81,658.169 161.46,658.844 160.111,660.193 159.437,662.217 159.437,663.566 160.111,665.59 161.46,666.939 162.81,667.614 164.833,667.614 166.183,666.939 167.532,665.59 " />
<polyline points="176.302,653.447 174.953,653.447 173.604,654.121 172.929,656.145 172.929,667.614 " />
<polyline points="170.905,658.169 175.627,658.169 " />
<polyline points="184.397,653.447 183.048,653.447 181.699,654.121 181.024,656.145 181.024,667.614 " />
<polyline points="179.001,658.169 183.723,658.169 " />
<polyline points="187.771,662.217 195.866,662.217 195.866,660.868 195.191,659.518 194.517,658.844 193.168,658.169 191.144,658.169 189.794,658.844 188.445,660.193 187.771,662.217 187.771,663.566 188.445,665.59 189.794,666.939 191.144,667.614 193.168,667.614 194.517,666.939 195.866,665.59 " />
<polyline points="208.009,660.193 206.66,658.844 205.311,658.169 203.287,658.169 201.938,658.844 200.588,660.193 199.914,662.217 199.914,663.566 200.588,665.59 201.938,666.939 203.287,667.614 205.311,667.614 206.66,666.939 208.009,665.59 " />
<polyline points="213.406,653.447 213.406,664.915 214.081,666.939 215.43,667.614 216.779,667.614 " />
<polyline points="211.382,658.169 216.105,658.169 " />
<polyline points="220.152,654.121 220.827,654.796 221.502,654.121 220.827,653.447 220.152,654.121 " />
<polyline points="220.827,658.844 220.827,667.614 " />
<polyline points="224.875,658.169 228.922,667.614 " />
<polyline points="232.97,658.169 228.922,667.614 " />
<polyline points="236.343,662.217 244.439,662.217 244.439,660.868 243.764,659.518 243.089,658.844 241.74,658.169 239.716,658.169 238.367,658.844 237.018,660.193 236.343,662.217 236.343,663.566 237.018,665.59 238.367,666.939 239.716,667.614 241.74,667.614 243.089,666.939 244.439,665.59 " />
<polyline points="270.749,653.447 270.749,667.614 " />
<polyline points="270.749,660.193 269.4,658.844 268.05,658.169 266.027,658.169 264.677,658.844 263.328,660.193 262.653,662.217 262.653,663.566 263.328,665.59 264.677,666.939 266.027,667.614 268.05,667.614 269.4,666.939 270.749,665.59 " />
<polyline points="276.146,658.169 276.146,664.915 276.82,666.939 278.17,667.614 280.194,667.614 281.543,666.939 283.567,664.915 " />
<polyline points="283.567,658.169 283.567,667.614 " />
<polyline points="296.384,660.193 295.035,658.844 293.686,658.169 291.662,658.169 290.313,658.844 288.964,660.193 288.289,662.217 288.289,663.566 288.964,665.59 290.313,666.939 291.662,667.614 293.686,667.614 295.035,666.939 296.384,665.59 " />
<polyline points="301.781,653.447 301.781,664.915 302.456,666.939 303.805,667.614 305.154,667.614 " />
<polyline points="299.758,658.169 304.48,658.169 " />
<polyline points="323.369,653.447 323.369,667.614 " />
<polyline points="328.092,662.217 336.187,662.217 336.187,660.868 335.512,659.518 334.838,658.844 333.489,658.169 331.465,658.169 330.115,658.844 328.766,660.193 328.092,662.217 328.092,663.566 328.766,665.59 330.115,666.939 331.465,667.614 333.489,667.614 334.838,666.939 336.187,665.59 " />
<polyline points="340.909,658.169 340.909,667.614 " />
<polyline points="340.909,660.868 342.933,658.844 344.282,658.169 346.306,658.169 347.656,658.844 348.33,660.868 348.33,667.614 " />
<polyline points="361.148,658.169 361.148,668.963 360.473,670.987 359.799,671.662 358.449,672.336 356.426,672.336 355.076,671.662 " />
<polyline points="361.148,660.193 359.799,658.844 358.449,658.169 356.426,658.169 355.076,658.844 353.727,660.193 353.053,662.217 353.053,663.566 353.727,665.59 355.076,666.939 356.426,667.614 358.449,667.614 359.799,666.939 361.148,665.59 " />
<polyline points="367.22,653.447 367.22,664.915 367.894,666.939 369.243,667.614 370.593,667.614 " />
<polyline points="365.196,658.169 369.918,658.169 " />
<polyline points="374.64,653.447 374.64,667.614 " />
<polyline points="374.64,660.868 376.664,658.844 378.013,658.169 380.037,658.169 381.387,658.844 382.061,660.868 382.061,667.614 " />
<polyline points="388.807,666.939 388.133,667.614 387.458,666.939 388.133,666.265 388.807,666.939 388.807,668.288 388.133,669.638 387.458,670.312 " />
<polyline points="412.419,653.447 411.07,653.447 409.721,654.121 409.046,656.145 409.046,667.614 " />
<polyline points="407.022,658.169 411.744,658.169 " />
<polyline points="417.141,653.447 417.141,664.915 417.816,666.939 419.165,667.614 420.515,667.614 " />
<polyline points="415.118,658.169 419.84,658.169 " />
<polyline points="128.404,695.817 140.547,695.817 " />
<polyline points="128.404,699.865 140.547,699.865 " />
<polyline points="167.532,689.746 167.532,703.913 " />
<polyline points="167.532,696.492 166.183,695.143 164.833,694.468 162.81,694.468 161.46,695.143 160.111,696.492 159.437,698.516 159.437,699.865 160.111,701.889 161.46,703.238 162.81,703.913 164.833,703.913 166.183,703.238 167.532,701.889 " />
<polyline points="172.929,694.468 172.929,701.214 173.604,703.238 174.953,703.913 176.977,703.913 178.326,703.238 180.35,701.214 " />
<polyline points="180.35,694.468 180.35,703.913 " />
<polyline points="193.168,696.492 191.818,695.143 190.469,694.468 188.445,694.468 187.096,695.143 185.747,696.492 185.072,698.516 185.072,699.865 185.747,701.889 187.096,703.238 188.445,703.913 190.469,703.913 191.818,703.238 193.168,701.889 " />
<polyline points="198.564,689.746 198.564,701.214 199.239,703.238 200.588,703.913 201.938,703.913 " />
<polyline points="196.541,694.468 201.263,694.468 " />
<polyline points="227.573,694.468 227.573,703.913 " />
<polyline points="227.573,696.492 226.224,695.143 224.875,694.468 222.851,694.468 221.502,695.143 220.152,696.492 219.478,698.516 219.478,699.865 220.152,701.889 221.502,703.238 222.851,703.913 224.875,703.913 226.224,703.238 227.573,701.889 " />
<polyline points="232.97,694.468 232.97,703.913 " />
<polyline points="232.97,698.516 233.645,696.492 234.994,695.143 236.343,694.468 238.367,694.468 " />
<polyline points="241.066,698.516 249.161,698.516 249.161,697.166 248.486,695.817 247.812,695.143 246.463,694.468 244.439,694.468 243.089,695.143 241.74,696.492 241.066,698.516 241.066,699.865 241.74,701.889 243.089,703.238 244.439,703.913 246.463,703.913 247.812,703.238 249.161,701.889 " />
<polyline points="261.304,694.468 261.304,703.913 " />
<polyline points="261.304,696.492 259.955,695.143 258.606,694.468 256.582,694.468 255.233,695.143 253.883,696.492 253.209,698.516 253.209,699.865 253.883,701.889 255.233,703.238 256.582,703.913 258.606,703.913 259.955,703.238 261.304,701.889 " />
<polyline points="268.05,703.238 267.376,703.913 266.701,703.238 267.376,702.563 268.05,703.238 268.05,704.587 267.376,705.937 266.701,706.611 " />
<polyline points="286.94,690.42 287.614,691.095 288.289,690.42 287.614,689.746 286.94,690.42 " />
<polyline points="287.614,695.143 287.614,703.913 " />
<polyline points="293.011,694.468 293.011,703.913 " />
<polyline points="293.011,697.166 295.035,695.143 296.384,694.468 298.408,694.468 299.758,695.143 300.432,697.166 300.432,703.913 " />
</g>
<g clip-path="url(#clipId0)" fill="rgb(0,0,0)" stroke="rgb(0,0,0)" stroke-width="0.25" >
<path d="M795.306,245.311 790.584,245.311 792.945,259.478 792.945,259.478 z" />
<path d="M774.027,245.311 769.305,245.311 771.666,259.478 771.666,259.478 z" />
<path d="M805.607,280.546 802.725,276.805 792.945,287.324 792.945,287.324 z" />
</g>
<g clip-path="url(#clipId0)" fill="none" stroke="rgb(0,0,0)" stroke-width="0.25" >
<polyline points="804.166,278.675 820.62,265.994 " />
<polyline points="820.62,265.994 844.232,265.994 " />
<polyline points="855.43,258.91 855.43,273.077 " />
<polyline points="864.875,258.91 864.875,273.077 " />
<polyline points="855.43,265.656 864.875,265.656 " />
<polyline points="883.765,263.632 891.185,273.077 " />
<polyline points="891.185,263.632 883.765,273.077 " />
<polyline points="908.725,258.91 912.099,273.077 " />
<polyline points="915.472,258.91 912.099,273.077 " />
<polyline points="915.472,258.91 918.845,273.077 " />
<polyline points="922.218,258.91 918.845,273.077 " />
<polyline points="792.945,224.657 792.945,207.82 " />
<polyline points="771.666,197.575 771.666,160.732 " />
<polyline points="924.76,742.661 922.781,740.682 919.813,739.692 915.855,739.692 912.887,740.682 910.908,742.661 910.908,744.64 911.897,746.618 912.887,747.608 914.866,748.597 920.802,750.576 922.781,751.566 923.771,752.555 924.76,754.534 924.76,757.502 922.781,759.481 919.813,760.471 915.855,760.471 912.887,759.481 910.908,757.502 " />
<polyline points="931.686,739.692 931.686,760.471 " />
<polyline points="931.686,739.692 940.591,739.692 943.56,740.682 944.549,741.671 945.538,743.65 945.538,745.629 944.549,747.608 943.56,748.597 940.591,749.587 931.686,749.587 " />
<polyline points="938.612,749.587 945.538,760.471 " />
<polyline points="965.327,739.692 955.433,760.471 " />
<polyline points="951.475,739.692 965.327,739.692 " />
<polyline points="972.253,751.566 990.063,751.566 " />
<polyline points="1009.85,746.618 1008.86,749.587 1006.88,751.566 1003.92,752.555 1002.93,752.555 999.958,751.566 997.979,749.587 996.989,746.618 996.989,745.629 997.979,742.661 999.958,740.682 1002.93,739.692 1003.92,739.692 1006.88,740.682 1008.86,742.661 1009.85,746.618 1009.85,751.566 1008.86,756.513 1006.88,759.481 1003.92,760.471 1001.94,760.471 998.968,759.481 997.979,757.502 " />
</g>
</svg>
